%TF.GenerationSoftware,KiCad,Pcbnew,8.0.3*%
%TF.CreationDate,2025-06-05T22:32:42-07:00*%
%TF.ProjectId,Power_ManagementV2,506f7765-725f-44d6-916e-6167656d656e,rev?*%
%TF.SameCoordinates,Original*%
%TF.FileFunction,Copper,L1,Top*%
%TF.FilePolarity,Positive*%
%FSLAX46Y46*%
G04 Gerber Fmt 4.6, Leading zero omitted, Abs format (unit mm)*
G04 Created by KiCad (PCBNEW 8.0.3) date 2025-06-05 22:32:42*
%MOMM*%
%LPD*%
G01*
G04 APERTURE LIST*
G04 Aperture macros list*
%AMRoundRect*
0 Rectangle with rounded corners*
0 $1 Rounding radius*
0 $2 $3 $4 $5 $6 $7 $8 $9 X,Y pos of 4 corners*
0 Add a 4 corners polygon primitive as box body*
4,1,4,$2,$3,$4,$5,$6,$7,$8,$9,$2,$3,0*
0 Add four circle primitives for the rounded corners*
1,1,$1+$1,$2,$3*
1,1,$1+$1,$4,$5*
1,1,$1+$1,$6,$7*
1,1,$1+$1,$8,$9*
0 Add four rect primitives between the rounded corners*
20,1,$1+$1,$2,$3,$4,$5,0*
20,1,$1+$1,$4,$5,$6,$7,0*
20,1,$1+$1,$6,$7,$8,$9,0*
20,1,$1+$1,$8,$9,$2,$3,0*%
%AMFreePoly0*
4,1,19,0.500000,-0.750000,0.000000,-0.750000,0.000000,-0.744911,-0.071157,-0.744911,-0.207708,-0.704816,-0.327430,-0.627875,-0.420627,-0.520320,-0.479746,-0.390866,-0.500000,-0.250000,-0.500000,0.250000,-0.479746,0.390866,-0.420627,0.520320,-0.327430,0.627875,-0.207708,0.704816,-0.071157,0.744911,0.000000,0.744911,0.000000,0.750000,0.500000,0.750000,0.500000,-0.750000,0.500000,-0.750000,
$1*%
%AMFreePoly1*
4,1,19,0.000000,0.744911,0.071157,0.744911,0.207708,0.704816,0.327430,0.627875,0.420627,0.520320,0.479746,0.390866,0.500000,0.250000,0.500000,-0.250000,0.479746,-0.390866,0.420627,-0.520320,0.327430,-0.627875,0.207708,-0.704816,0.071157,-0.744911,0.000000,-0.744911,0.000000,-0.750000,-0.500000,-0.750000,-0.500000,0.750000,0.000000,0.750000,0.000000,0.744911,0.000000,0.744911,
$1*%
%AMFreePoly2*
4,1,19,0.550000,-0.750000,0.000000,-0.750000,0.000000,-0.744911,-0.071157,-0.744911,-0.207708,-0.704816,-0.327430,-0.627875,-0.420627,-0.520320,-0.479746,-0.390866,-0.500000,-0.250000,-0.500000,0.250000,-0.479746,0.390866,-0.420627,0.520320,-0.327430,0.627875,-0.207708,0.704816,-0.071157,0.744911,0.000000,0.744911,0.000000,0.750000,0.550000,0.750000,0.550000,-0.750000,0.550000,-0.750000,
$1*%
%AMFreePoly3*
4,1,19,0.000000,0.744911,0.071157,0.744911,0.207708,0.704816,0.327430,0.627875,0.420627,0.520320,0.479746,0.390866,0.500000,0.250000,0.500000,-0.250000,0.479746,-0.390866,0.420627,-0.520320,0.327430,-0.627875,0.207708,-0.704816,0.071157,-0.744911,0.000000,-0.744911,0.000000,-0.750000,-0.550000,-0.750000,-0.550000,0.750000,0.000000,0.750000,0.000000,0.744911,0.000000,0.744911,
$1*%
%AMFreePoly4*
4,1,64,2.219304,2.963065,2.677052,2.853170,3.111972,2.673020,3.513357,2.427051,3.871321,2.121320,4.177052,1.763356,4.423021,1.361971,4.603171,0.927051,4.713066,0.469303,4.750001,0.000000,4.713066,-0.469303,4.603171,-0.927051,4.423021,-1.361971,4.177052,-1.763356,3.871321,-2.121320,3.513357,-2.427051,3.111972,-2.673020,2.677052,-2.853170,2.219304,-2.963065,1.750001,-3.000000,
-2.249999,-3.000000,-2.397706,-2.996361,-2.545055,-2.985454,-2.691689,-2.967306,-2.837251,-2.941960,-2.981388,-2.909478,-3.123751,-2.869938,-3.263995,-2.823437,-3.401780,-2.770088,-3.536770,-2.710019,-3.668639,-2.643376,-3.797067,-2.570322,-3.921743,-2.491033,-4.042363,-2.405702,-4.158636,-2.314536,-4.270279,-2.217755,-4.377022,-2.115595,-4.478605,-2.008303,-4.574782,-1.896139,-4.665320,-1.779377,
-4.750000,-1.658298,-4.750001,1.658297,-4.665322,1.779376,-4.574783,1.896139,-4.478606,2.008302,-4.377023,2.115594,-4.270281,2.217755,-4.158637,2.314535,-4.042365,2.405702,-3.921744,2.491033,-3.797069,2.570322,-3.668640,2.643376,-3.536771,2.710019,-3.401780,2.770087,-3.263996,2.823437,-3.123752,2.869937,-2.981389,2.909477,-2.837251,2.941959,-2.691689,2.967304,-2.545056,2.985452,
-2.397706,2.996359,-2.249999,2.999997,1.750001,3.000000,2.219304,2.963065,2.219304,2.963065,$1*%
%AMFreePoly5*
4,1,64,2.397707,2.996361,2.545056,2.985454,2.691689,2.967306,2.837251,2.941960,2.981388,2.909477,3.123751,2.869938,3.263995,2.823437,3.401779,2.770087,3.536770,2.710019,3.668639,2.643376,3.797067,2.570322,3.921742,2.491033,4.042363,2.405702,4.158635,2.314536,4.270278,2.217755,4.377021,2.115595,4.478604,2.008303,4.574782,1.896140,4.665320,1.779378,4.750000,1.658299,
4.750001,-1.658298,4.665321,-1.779377,4.574783,-1.896139,4.478606,-2.008303,4.377022,-2.115595,4.270280,-2.217755,4.158637,-2.314536,4.042364,-2.405702,3.921744,-2.491033,3.797068,-2.570322,3.668640,-2.643376,3.536771,-2.710019,3.401780,-2.770087,3.263996,-2.823437,3.123752,-2.869937,2.981389,-2.909477,2.837251,-2.941959,2.691689,-2.967305,2.545056,-2.985453,2.397707,-2.996360,
2.250000,-2.999998,-1.750001,-3.000000,-2.219304,-2.963065,-2.677051,-2.853170,-3.111972,-2.673020,-3.513356,-2.427051,-3.871321,-2.121320,-4.177051,-1.763356,-4.423020,-1.361971,-4.603170,-0.927051,-4.713066,-0.469303,-4.750001,0.000000,-4.713066,0.469303,-4.603170,0.927051,-4.423020,1.361971,-4.177051,1.763356,-3.871321,2.121320,-3.513356,2.427051,-3.111972,2.673020,-2.677051,2.853170,
-2.219304,2.963065,-1.750001,3.000000,2.250000,3.000000,2.397707,2.996361,2.397707,2.996361,$1*%
G04 Aperture macros list end*
%TA.AperFunction,EtchedComponent*%
%ADD10C,0.000000*%
%TD*%
%TA.AperFunction,SMDPad,CuDef*%
%ADD11RoundRect,0.250000X-0.250000X0.550000X-0.250000X-0.550000X0.250000X-0.550000X0.250000X0.550000X0*%
%TD*%
%TA.AperFunction,SMDPad,CuDef*%
%ADD12FreePoly0,0.000000*%
%TD*%
%TA.AperFunction,SMDPad,CuDef*%
%ADD13FreePoly1,0.000000*%
%TD*%
%TA.AperFunction,SMDPad,CuDef*%
%ADD14RoundRect,0.100000X-0.650000X-0.100000X0.650000X-0.100000X0.650000X0.100000X-0.650000X0.100000X0*%
%TD*%
%TA.AperFunction,ComponentPad*%
%ADD15C,1.498600*%
%TD*%
%TA.AperFunction,ComponentPad*%
%ADD16R,1.498600X1.498600*%
%TD*%
%TA.AperFunction,SMDPad,CuDef*%
%ADD17R,0.990600X1.143000*%
%TD*%
%TA.AperFunction,SMDPad,CuDef*%
%ADD18R,3.098800X5.207000*%
%TD*%
%TA.AperFunction,SMDPad,CuDef*%
%ADD19RoundRect,0.250000X-0.262500X-0.450000X0.262500X-0.450000X0.262500X0.450000X-0.262500X0.450000X0*%
%TD*%
%TA.AperFunction,SMDPad,CuDef*%
%ADD20RoundRect,0.250000X0.250000X-0.550000X0.250000X0.550000X-0.250000X0.550000X-0.250000X-0.550000X0*%
%TD*%
%TA.AperFunction,ComponentPad*%
%ADD21C,1.574800*%
%TD*%
%TA.AperFunction,ComponentPad*%
%ADD22C,2.971800*%
%TD*%
%TA.AperFunction,SMDPad,CuDef*%
%ADD23RoundRect,0.237500X-0.287500X-0.237500X0.287500X-0.237500X0.287500X0.237500X-0.287500X0.237500X0*%
%TD*%
%TA.AperFunction,SMDPad,CuDef*%
%ADD24RoundRect,0.250000X0.475000X-0.337500X0.475000X0.337500X-0.475000X0.337500X-0.475000X-0.337500X0*%
%TD*%
%TA.AperFunction,SMDPad,CuDef*%
%ADD25RoundRect,0.250000X0.350000X0.450000X-0.350000X0.450000X-0.350000X-0.450000X0.350000X-0.450000X0*%
%TD*%
%TA.AperFunction,SMDPad,CuDef*%
%ADD26FreePoly0,90.000000*%
%TD*%
%TA.AperFunction,SMDPad,CuDef*%
%ADD27FreePoly1,90.000000*%
%TD*%
%TA.AperFunction,ComponentPad*%
%ADD28R,1.500000X1.500000*%
%TD*%
%TA.AperFunction,ComponentPad*%
%ADD29C,1.500000*%
%TD*%
%TA.AperFunction,ComponentPad*%
%ADD30C,3.000000*%
%TD*%
%TA.AperFunction,ComponentPad*%
%ADD31R,2.400000X2.400000*%
%TD*%
%TA.AperFunction,ComponentPad*%
%ADD32C,2.400000*%
%TD*%
%TA.AperFunction,SMDPad,CuDef*%
%ADD33RoundRect,0.250000X-0.450000X0.350000X-0.450000X-0.350000X0.450000X-0.350000X0.450000X0.350000X0*%
%TD*%
%TA.AperFunction,SMDPad,CuDef*%
%ADD34FreePoly2,90.000000*%
%TD*%
%TA.AperFunction,SMDPad,CuDef*%
%ADD35R,1.500000X1.000000*%
%TD*%
%TA.AperFunction,SMDPad,CuDef*%
%ADD36FreePoly3,90.000000*%
%TD*%
%TA.AperFunction,SMDPad,CuDef*%
%ADD37RoundRect,0.250000X-0.337500X-0.475000X0.337500X-0.475000X0.337500X0.475000X-0.337500X0.475000X0*%
%TD*%
%TA.AperFunction,SMDPad,CuDef*%
%ADD38FreePoly0,270.000000*%
%TD*%
%TA.AperFunction,SMDPad,CuDef*%
%ADD39FreePoly1,270.000000*%
%TD*%
%TA.AperFunction,SMDPad,CuDef*%
%ADD40RoundRect,0.250000X0.450000X-0.350000X0.450000X0.350000X-0.450000X0.350000X-0.450000X-0.350000X0*%
%TD*%
%TA.AperFunction,SMDPad,CuDef*%
%ADD41FreePoly2,0.000000*%
%TD*%
%TA.AperFunction,SMDPad,CuDef*%
%ADD42R,1.000000X1.500000*%
%TD*%
%TA.AperFunction,SMDPad,CuDef*%
%ADD43FreePoly3,0.000000*%
%TD*%
%TA.AperFunction,SMDPad,CuDef*%
%ADD44R,2.500000X0.800000*%
%TD*%
%TA.AperFunction,SMDPad,CuDef*%
%ADD45R,7.999995X10.100005*%
%TD*%
%TA.AperFunction,SMDPad,CuDef*%
%ADD46FreePoly2,270.000000*%
%TD*%
%TA.AperFunction,SMDPad,CuDef*%
%ADD47FreePoly3,270.000000*%
%TD*%
%TA.AperFunction,ComponentPad*%
%ADD48R,1.508000X1.508000*%
%TD*%
%TA.AperFunction,ComponentPad*%
%ADD49C,1.508000*%
%TD*%
%TA.AperFunction,SMDPad,CuDef*%
%ADD50RoundRect,0.250000X-0.350000X-0.450000X0.350000X-0.450000X0.350000X0.450000X-0.350000X0.450000X0*%
%TD*%
%TA.AperFunction,ComponentPad*%
%ADD51C,1.400000*%
%TD*%
%TA.AperFunction,ComponentPad*%
%ADD52R,3.500000X3.500000*%
%TD*%
%TA.AperFunction,ComponentPad*%
%ADD53C,3.500000*%
%TD*%
%TA.AperFunction,SMDPad,CuDef*%
%ADD54R,1.168400X2.209800*%
%TD*%
%TA.AperFunction,SMDPad,CuDef*%
%ADD55RoundRect,0.250000X-0.475000X0.337500X-0.475000X-0.337500X0.475000X-0.337500X0.475000X0.337500X0*%
%TD*%
%TA.AperFunction,SMDPad,CuDef*%
%ADD56RoundRect,0.250000X0.262500X0.450000X-0.262500X0.450000X-0.262500X-0.450000X0.262500X-0.450000X0*%
%TD*%
%TA.AperFunction,ComponentPad*%
%ADD57R,1.700000X1.700000*%
%TD*%
%TA.AperFunction,ComponentPad*%
%ADD58O,1.700000X1.700000*%
%TD*%
%TA.AperFunction,SMDPad,CuDef*%
%ADD59R,0.711200X1.701800*%
%TD*%
%TA.AperFunction,SMDPad,CuDef*%
%ADD60R,6.553200X6.223000*%
%TD*%
%TA.AperFunction,SMDPad,CuDef*%
%ADD61R,0.990600X2.997200*%
%TD*%
%TA.AperFunction,SMDPad,CuDef*%
%ADD62R,10.337800X8.712200*%
%TD*%
%TA.AperFunction,SMDPad,CuDef*%
%ADD63FreePoly0,180.000000*%
%TD*%
%TA.AperFunction,SMDPad,CuDef*%
%ADD64FreePoly1,180.000000*%
%TD*%
%TA.AperFunction,SMDPad,CuDef*%
%ADD65RoundRect,0.100000X-0.712500X-0.100000X0.712500X-0.100000X0.712500X0.100000X-0.712500X0.100000X0*%
%TD*%
%TA.AperFunction,SMDPad,CuDef*%
%ADD66R,1.000000X1.000000*%
%TD*%
%TA.AperFunction,ComponentPad*%
%ADD67R,2.000000X0.900000*%
%TD*%
%TA.AperFunction,ComponentPad*%
%ADD68RoundRect,1.025000X-1.025000X1.025000X-1.025000X-1.025000X1.025000X-1.025000X1.025000X1.025000X0*%
%TD*%
%TA.AperFunction,ComponentPad*%
%ADD69C,4.100000*%
%TD*%
%TA.AperFunction,ComponentPad*%
%ADD70R,1.300000X2.300000*%
%TD*%
%TA.AperFunction,ComponentPad*%
%ADD71R,1.218000X1.218000*%
%TD*%
%TA.AperFunction,ComponentPad*%
%ADD72C,1.218000*%
%TD*%
%TA.AperFunction,SMDPad,CuDef*%
%ADD73R,1.460500X0.355600*%
%TD*%
%TA.AperFunction,SMDPad,CuDef*%
%ADD74R,0.355600X1.168400*%
%TD*%
%TA.AperFunction,SMDPad,CuDef*%
%ADD75R,3.800000X2.000000*%
%TD*%
%TA.AperFunction,SMDPad,CuDef*%
%ADD76R,1.473200X0.355600*%
%TD*%
%TA.AperFunction,ComponentPad*%
%ADD77RoundRect,1.025000X1.025000X-1.025000X1.025000X1.025000X-1.025000X1.025000X-1.025000X-1.025000X0*%
%TD*%
%TA.AperFunction,SMDPad,CuDef*%
%ADD78R,0.711200X0.457200*%
%TD*%
%TA.AperFunction,CastellatedPad*%
%ADD79R,1.800000X1.800000*%
%TD*%
%TA.AperFunction,CastellatedPad*%
%ADD80C,1.800000*%
%TD*%
%TA.AperFunction,ComponentPad*%
%ADD81C,0.800000*%
%TD*%
%TA.AperFunction,ComponentPad*%
%ADD82RoundRect,1.300000X-2.000000X-0.000010X2.000000X-0.000010X2.000000X0.000010X-2.000000X0.000010X0*%
%TD*%
%TA.AperFunction,SMDPad,CuDef*%
%ADD83FreePoly4,0.000000*%
%TD*%
%TA.AperFunction,SMDPad,CuDef*%
%ADD84FreePoly5,0.000000*%
%TD*%
%TA.AperFunction,SMDPad,CuDef*%
%ADD85R,2.990000X1.340000*%
%TD*%
%TA.AperFunction,SMDPad,CuDef*%
%ADD86R,8.260000X6.900000*%
%TD*%
%TA.AperFunction,SMDPad,CuDef*%
%ADD87R,0.533400X1.981200*%
%TD*%
%TA.AperFunction,SMDPad,CuDef*%
%ADD88RoundRect,0.250000X0.650000X-1.000000X0.650000X1.000000X-0.650000X1.000000X-0.650000X-1.000000X0*%
%TD*%
%TA.AperFunction,ComponentPad*%
%ADD89R,2.775000X2.775000*%
%TD*%
%TA.AperFunction,ComponentPad*%
%ADD90C,2.775000*%
%TD*%
%TA.AperFunction,SMDPad,CuDef*%
%ADD91RoundRect,0.250000X-0.450000X0.262500X-0.450000X-0.262500X0.450000X-0.262500X0.450000X0.262500X0*%
%TD*%
%TA.AperFunction,SMDPad,CuDef*%
%ADD92R,3.000000X2.475000*%
%TD*%
%TA.AperFunction,ViaPad*%
%ADD93C,0.800000*%
%TD*%
%TA.AperFunction,ViaPad*%
%ADD94C,1.400000*%
%TD*%
%TA.AperFunction,ViaPad*%
%ADD95C,1.200000*%
%TD*%
%TA.AperFunction,Conductor*%
%ADD96C,0.304800*%
%TD*%
%TA.AperFunction,Conductor*%
%ADD97C,0.250000*%
%TD*%
%TA.AperFunction,Conductor*%
%ADD98C,0.200000*%
%TD*%
%TA.AperFunction,Conductor*%
%ADD99C,1.000000*%
%TD*%
%TA.AperFunction,Conductor*%
%ADD100C,2.000000*%
%TD*%
%TA.AperFunction,Conductor*%
%ADD101C,0.635000*%
%TD*%
%TA.AperFunction,Conductor*%
%ADD102C,6.000000*%
%TD*%
%TA.AperFunction,Conductor*%
%ADD103C,4.000000*%
%TD*%
%TA.AperFunction,Conductor*%
%ADD104C,7.000000*%
%TD*%
%TA.AperFunction,Conductor*%
%ADD105C,8.000000*%
%TD*%
G04 APERTURE END LIST*
D10*
%TA.AperFunction,EtchedComponent*%
%TO.C,JP11*%
G36*
X177475000Y-82600000D02*
G01*
X176975000Y-82600000D01*
X176975000Y-82200000D01*
X177475000Y-82200000D01*
X177475000Y-82600000D01*
G37*
%TD.AperFunction*%
%TA.AperFunction,EtchedComponent*%
G36*
X177475000Y-83400000D02*
G01*
X176975000Y-83400000D01*
X176975000Y-83000000D01*
X177475000Y-83000000D01*
X177475000Y-83400000D01*
G37*
%TD.AperFunction*%
%TA.AperFunction,EtchedComponent*%
%TO.C,JP1*%
G36*
X262060200Y-68515800D02*
G01*
X261660200Y-68515800D01*
X261660200Y-68015800D01*
X262060200Y-68015800D01*
X262060200Y-68515800D01*
G37*
%TD.AperFunction*%
%TA.AperFunction,EtchedComponent*%
G36*
X262860200Y-68515800D02*
G01*
X262460200Y-68515800D01*
X262460200Y-68015800D01*
X262860200Y-68015800D01*
X262860200Y-68515800D01*
G37*
%TD.AperFunction*%
%TA.AperFunction,EtchedComponent*%
%TO.C,JP8*%
G36*
X171657500Y-91275000D02*
G01*
X171257500Y-91275000D01*
X171257500Y-90775000D01*
X171657500Y-90775000D01*
X171657500Y-91275000D01*
G37*
%TD.AperFunction*%
%TA.AperFunction,EtchedComponent*%
G36*
X172457500Y-91275000D02*
G01*
X172057500Y-91275000D01*
X172057500Y-90775000D01*
X172457500Y-90775000D01*
X172457500Y-91275000D01*
G37*
%TD.AperFunction*%
%TA.AperFunction,EtchedComponent*%
%TO.C,JP25*%
G36*
X204400000Y-133850000D02*
G01*
X204000000Y-133850000D01*
X204000000Y-133350000D01*
X204400000Y-133350000D01*
X204400000Y-133850000D01*
G37*
%TD.AperFunction*%
%TA.AperFunction,EtchedComponent*%
G36*
X203600000Y-133850000D02*
G01*
X203200000Y-133850000D01*
X203200000Y-133350000D01*
X203600000Y-133350000D01*
X203600000Y-133850000D01*
G37*
%TD.AperFunction*%
%TA.AperFunction,EtchedComponent*%
%TO.C,JP3*%
G36*
X246845600Y-65996600D02*
G01*
X246445600Y-65996600D01*
X246445600Y-65496600D01*
X246845600Y-65496600D01*
X246845600Y-65996600D01*
G37*
%TD.AperFunction*%
%TA.AperFunction,EtchedComponent*%
G36*
X247645600Y-65996600D02*
G01*
X247245600Y-65996600D01*
X247245600Y-65496600D01*
X247645600Y-65496600D01*
X247645600Y-65996600D01*
G37*
%TD.AperFunction*%
%TA.AperFunction,EtchedComponent*%
%TO.C,JP9*%
G36*
X192550000Y-84007500D02*
G01*
X192050000Y-84007500D01*
X192050000Y-83607500D01*
X192550000Y-83607500D01*
X192550000Y-84007500D01*
G37*
%TD.AperFunction*%
%TA.AperFunction,EtchedComponent*%
G36*
X192550000Y-84807500D02*
G01*
X192050000Y-84807500D01*
X192050000Y-84407500D01*
X192550000Y-84407500D01*
X192550000Y-84807500D01*
G37*
%TD.AperFunction*%
%TA.AperFunction,EtchedComponent*%
%TO.C,JP28*%
G36*
X166424000Y-85685200D02*
G01*
X166024000Y-85685200D01*
X166024000Y-85185200D01*
X166424000Y-85185200D01*
X166424000Y-85685200D01*
G37*
%TD.AperFunction*%
%TA.AperFunction,EtchedComponent*%
G36*
X167224000Y-85685200D02*
G01*
X166824000Y-85685200D01*
X166824000Y-85185200D01*
X167224000Y-85185200D01*
X167224000Y-85685200D01*
G37*
%TD.AperFunction*%
%TA.AperFunction,EtchedComponent*%
%TO.C,JP16*%
G36*
X182300000Y-87400000D02*
G01*
X181800000Y-87400000D01*
X181800000Y-87000000D01*
X182300000Y-87000000D01*
X182300000Y-87400000D01*
G37*
%TD.AperFunction*%
%TA.AperFunction,EtchedComponent*%
G36*
X182300000Y-88200000D02*
G01*
X181800000Y-88200000D01*
X181800000Y-87800000D01*
X182300000Y-87800000D01*
X182300000Y-88200000D01*
G37*
%TD.AperFunction*%
%TA.AperFunction,EtchedComponent*%
%TO.C,JP24*%
G36*
X206400000Y-151700000D02*
G01*
X205900000Y-151700000D01*
X205900000Y-151300000D01*
X206400000Y-151300000D01*
X206400000Y-151700000D01*
G37*
%TD.AperFunction*%
%TA.AperFunction,EtchedComponent*%
G36*
X206400000Y-150900000D02*
G01*
X205900000Y-150900000D01*
X205900000Y-150500000D01*
X206400000Y-150500000D01*
X206400000Y-150900000D01*
G37*
%TD.AperFunction*%
%TA.AperFunction,EtchedComponent*%
%TO.C,JP6*%
G36*
X262900000Y-64500000D02*
G01*
X262300000Y-64500000D01*
X262300000Y-64000000D01*
X262900000Y-64000000D01*
X262900000Y-64500000D01*
G37*
%TD.AperFunction*%
%TA.AperFunction,EtchedComponent*%
%TO.C,JP7*%
G36*
X263350000Y-78400000D02*
G01*
X262750000Y-78400000D01*
X262750000Y-77900000D01*
X263350000Y-77900000D01*
X263350000Y-78400000D01*
G37*
%TD.AperFunction*%
%TA.AperFunction,EtchedComponent*%
%TO.C,JP20*%
G36*
X182784800Y-73206000D02*
G01*
X182284800Y-73206000D01*
X182284800Y-72806000D01*
X182784800Y-72806000D01*
X182784800Y-73206000D01*
G37*
%TD.AperFunction*%
%TA.AperFunction,EtchedComponent*%
G36*
X182784800Y-74006000D02*
G01*
X182284800Y-74006000D01*
X182284800Y-73606000D01*
X182784800Y-73606000D01*
X182784800Y-74006000D01*
G37*
%TD.AperFunction*%
%TA.AperFunction,EtchedComponent*%
%TO.C,JP19*%
G36*
X182734000Y-70412000D02*
G01*
X182234000Y-70412000D01*
X182234000Y-70012000D01*
X182734000Y-70012000D01*
X182734000Y-70412000D01*
G37*
%TD.AperFunction*%
%TA.AperFunction,EtchedComponent*%
G36*
X182734000Y-71212000D02*
G01*
X182234000Y-71212000D01*
X182234000Y-70812000D01*
X182734000Y-70812000D01*
X182734000Y-71212000D01*
G37*
%TD.AperFunction*%
%TA.AperFunction,EtchedComponent*%
%TO.C,JP27*%
G36*
X209550000Y-138700000D02*
G01*
X209050000Y-138700000D01*
X209050000Y-138300000D01*
X209550000Y-138300000D01*
X209550000Y-138700000D01*
G37*
%TD.AperFunction*%
%TA.AperFunction,EtchedComponent*%
G36*
X209550000Y-137900000D02*
G01*
X209050000Y-137900000D01*
X209050000Y-137500000D01*
X209550000Y-137500000D01*
X209550000Y-137900000D01*
G37*
%TD.AperFunction*%
%TA.AperFunction,EtchedComponent*%
%TO.C,JP22*%
G36*
X202275000Y-150925000D02*
G01*
X201775000Y-150925000D01*
X201775000Y-150525000D01*
X202275000Y-150525000D01*
X202275000Y-150925000D01*
G37*
%TD.AperFunction*%
%TA.AperFunction,EtchedComponent*%
G36*
X202275000Y-151725000D02*
G01*
X201775000Y-151725000D01*
X201775000Y-151325000D01*
X202275000Y-151325000D01*
X202275000Y-151725000D01*
G37*
%TD.AperFunction*%
%TA.AperFunction,EtchedComponent*%
%TO.C,JP10*%
G36*
X177475000Y-86650000D02*
G01*
X176975000Y-86650000D01*
X176975000Y-86250000D01*
X177475000Y-86250000D01*
X177475000Y-86650000D01*
G37*
%TD.AperFunction*%
%TA.AperFunction,EtchedComponent*%
G36*
X177475000Y-87450000D02*
G01*
X176975000Y-87450000D01*
X176975000Y-87050000D01*
X177475000Y-87050000D01*
X177475000Y-87450000D01*
G37*
%TD.AperFunction*%
%TA.AperFunction,EtchedComponent*%
%TO.C,JP15*%
G36*
X182300000Y-84700000D02*
G01*
X181800000Y-84700000D01*
X181800000Y-84300000D01*
X182300000Y-84300000D01*
X182300000Y-84700000D01*
G37*
%TD.AperFunction*%
%TA.AperFunction,EtchedComponent*%
G36*
X182300000Y-85500000D02*
G01*
X181800000Y-85500000D01*
X181800000Y-85100000D01*
X182300000Y-85100000D01*
X182300000Y-85500000D01*
G37*
%TD.AperFunction*%
%TA.AperFunction,EtchedComponent*%
%TO.C,JP18*%
G36*
X168100000Y-80650000D02*
G01*
X167600000Y-80650000D01*
X167600000Y-80250000D01*
X168100000Y-80250000D01*
X168100000Y-80650000D01*
G37*
%TD.AperFunction*%
%TA.AperFunction,EtchedComponent*%
G36*
X168100000Y-81450000D02*
G01*
X167600000Y-81450000D01*
X167600000Y-81050000D01*
X168100000Y-81050000D01*
X168100000Y-81450000D01*
G37*
%TD.AperFunction*%
%TA.AperFunction,EtchedComponent*%
%TO.C,JP17*%
G36*
X175876000Y-65636800D02*
G01*
X175376000Y-65636800D01*
X175376000Y-65236800D01*
X175876000Y-65236800D01*
X175876000Y-65636800D01*
G37*
%TD.AperFunction*%
%TA.AperFunction,EtchedComponent*%
G36*
X175876000Y-66436800D02*
G01*
X175376000Y-66436800D01*
X175376000Y-66036800D01*
X175876000Y-66036800D01*
X175876000Y-66436800D01*
G37*
%TD.AperFunction*%
%TA.AperFunction,EtchedComponent*%
%TO.C,JP13*%
G36*
X175825000Y-62925000D02*
G01*
X175325000Y-62925000D01*
X175325000Y-62525000D01*
X175825000Y-62525000D01*
X175825000Y-62925000D01*
G37*
%TD.AperFunction*%
%TA.AperFunction,EtchedComponent*%
G36*
X175825000Y-63725000D02*
G01*
X175325000Y-63725000D01*
X175325000Y-63325000D01*
X175825000Y-63325000D01*
X175825000Y-63725000D01*
G37*
%TD.AperFunction*%
%TA.AperFunction,EtchedComponent*%
%TO.C,JP14*%
G36*
X187675000Y-131325000D02*
G01*
X187175000Y-131325000D01*
X187175000Y-130925000D01*
X187675000Y-130925000D01*
X187675000Y-131325000D01*
G37*
%TD.AperFunction*%
%TA.AperFunction,EtchedComponent*%
G36*
X187675000Y-132125000D02*
G01*
X187175000Y-132125000D01*
X187175000Y-131725000D01*
X187675000Y-131725000D01*
X187675000Y-132125000D01*
G37*
%TD.AperFunction*%
%TD*%
D11*
%TO.P,LED18,1,VSS*%
%TO.N,-BATT1*%
X263139322Y-52200000D03*
%TO.P,LED18,2,DIN*%
%TO.N,Net-(LED17-DOUT)*%
X259839322Y-52200000D03*
%TO.P,LED18,3,VDD*%
%TO.N,+5V*%
X263139322Y-57200000D03*
%TO.P,LED18,4,DOUT*%
%TO.N,Net-(LED18-DOUT)*%
X259839322Y-57200000D03*
%TD*%
D12*
%TO.P,JP11,1,A*%
%TO.N,COM*%
X176575000Y-82800000D03*
D13*
%TO.P,JP11,2,B*%
%TO.N,-BATT1*%
X177875000Y-82800000D03*
%TD*%
D14*
%TO.P,U9,1*%
%TO.N,N/C*%
X205270000Y-146750000D03*
%TO.P,U9,2*%
%TO.N,Batt1Enable*%
X205270000Y-147400000D03*
%TO.P,U9,3,GND*%
%TO.N,-BATT1*%
X205270000Y-148050000D03*
%TO.P,U9,4*%
%TO.N,Net-(U7-2D)*%
X207930000Y-148050000D03*
%TO.P,U9,5,VCC*%
%TO.N,+3.3V*%
X207930000Y-146750000D03*
%TD*%
D15*
%TO.P,D2,1,K*%
%TO.N,Batt2GatePreDiv*%
X254594480Y-60500000D03*
D16*
%TO.P,D2,2,A*%
%TO.N,+BATT*%
X245694320Y-60500000D03*
%TD*%
D17*
%TO.P,CR1,1,1*%
%TO.N,-BATT1*%
X168616402Y-96723200D03*
%TO.P,CR1,2,2*%
X166776400Y-96723200D03*
D18*
%TO.P,CR1,3,3*%
%TO.N,+BATT*%
X167696401Y-100711000D03*
%TD*%
D19*
%TO.P,R5,1*%
%TO.N,-BATT1*%
X249485900Y-67002400D03*
%TO.P,R5,2*%
%TO.N,Net-(JP2-B)*%
X251310900Y-67002400D03*
%TD*%
D20*
%TO.P,LED1,1,VSS*%
%TO.N,-BATT1*%
X155793000Y-159750000D03*
%TO.P,LED1,2,DIN*%
%TO.N,toNEO_CTRL_Orin*%
X159093000Y-159750000D03*
%TO.P,LED1,3,VDD*%
%TO.N,+5V*%
X155793000Y-154750000D03*
%TO.P,LED1,4,DOUT*%
%TO.N,Net-(LED1-DOUT)*%
X159093000Y-154750000D03*
%TD*%
D21*
%TO.P,J9,1,Pin_1*%
%TO.N,Net-(J9-Pin_1)*%
X160274000Y-89183350D03*
%TO.P,J9,2,Pin_2*%
%TO.N,-BATT1*%
X160274000Y-86183351D03*
%TO.P,J9,3,Pin_3*%
%TO.N,I2C1_SDA*%
X163273999Y-89183350D03*
%TO.P,J9,4,Pin_4*%
%TO.N,I2C1_SCL*%
X163273999Y-86183351D03*
D22*
%TO.P,J9,5*%
%TO.N,N/C*%
X155953998Y-84033350D03*
%TO.P,J9,6*%
X155953998Y-91333351D03*
%TD*%
D23*
%TO.P,D13,1,K*%
%TO.N,RArray2*%
X251747400Y-150048200D03*
%TO.P,D13,2,A*%
%TO.N,Net-(D13-A)*%
X253497400Y-150048200D03*
%TD*%
D24*
%TO.P,C6,1*%
%TO.N,+3.3V*%
X260148599Y-139211500D03*
%TO.P,C6,2*%
%TO.N,-BATT1*%
X260148599Y-137136500D03*
%TD*%
D20*
%TO.P,LED5,1,VSS*%
%TO.N,-BATT1*%
X181798600Y-159750000D03*
%TO.P,LED5,2,DIN*%
%TO.N,Net-(LED4-DOUT)*%
X185098600Y-159750000D03*
%TO.P,LED5,3,VDD*%
%TO.N,+5V*%
X181798600Y-154750000D03*
%TO.P,LED5,4,DOUT*%
%TO.N,NeoPass1*%
X185098600Y-154750000D03*
%TD*%
D25*
%TO.P,R19,1*%
%TO.N,Net-(D7-K)*%
X242400000Y-143520400D03*
%TO.P,R19,2*%
%TO.N,-BATT1*%
X240400000Y-143520400D03*
%TD*%
D26*
%TO.P,JP1,1,A*%
%TO.N,Net-(JP1-A)*%
X262260200Y-68915800D03*
D27*
%TO.P,JP1,2,B*%
%TO.N,+VregDiode*%
X262260200Y-67615800D03*
%TD*%
D28*
%TO.P,J7,1,VBUS1*%
%TO.N,unconnected-(J7-VBUS1-Pad1)*%
X170355000Y-67525000D03*
D29*
%TO.P,J7,2,D1-*%
%TO.N,Device_D-*%
X170355000Y-70025000D03*
%TO.P,J7,3,D1+*%
%TO.N,Device_D+*%
X170355000Y-72025000D03*
%TO.P,J7,4,GND1*%
%TO.N,-BATT1*%
X170355000Y-74525000D03*
%TO.P,J7,5,VBUS2*%
%TO.N,unconnected-(J7-VBUS2-Pad5)*%
X167735000Y-67525000D03*
%TO.P,J7,6,D2-*%
%TO.N,Device_D-*%
X167735000Y-70025000D03*
%TO.P,J7,7,D2+*%
%TO.N,Device_D+*%
X167735000Y-72025000D03*
%TO.P,J7,8,GND2*%
%TO.N,-BATT1*%
X167735000Y-74525000D03*
D30*
%TO.P,J7,9,Shield*%
%TO.N,Net-(J7-Shield)*%
X170705000Y-64455000D03*
X165025000Y-64455000D03*
X170705000Y-77595000D03*
X165025000Y-77595000D03*
%TD*%
D14*
%TO.P,U12,1*%
%TO.N,~{OCPLatch}*%
X207870000Y-134550000D03*
%TO.P,U12,2*%
%TO.N,Net-(JP27-B)*%
X207870000Y-135200000D03*
%TO.P,U12,3,GND*%
%TO.N,-BATT1*%
X207870000Y-135850000D03*
%TO.P,U12,4*%
%TO.N,/Battery Control Logic/~{GateDisable}*%
X210530000Y-135850000D03*
%TO.P,U12,5,VCC*%
%TO.N,+3.3V*%
X210530000Y-134550000D03*
%TD*%
D31*
%TO.P,C11,1*%
%TO.N,Net-(JP12-A)*%
X163042600Y-140606846D03*
D32*
%TO.P,C11,2*%
%TO.N,-BATT1*%
X163042600Y-148106846D03*
%TD*%
D33*
%TO.P,R12,1*%
%TO.N,Net-(JP7-A)*%
X259000000Y-77800000D03*
%TO.P,R12,2*%
%TO.N,-BATT1*%
X259000000Y-79800000D03*
%TD*%
D34*
%TO.P,JP8,1,A*%
%TO.N,ISample3.3V*%
X171857500Y-91675000D03*
D35*
%TO.P,JP8,2,C*%
%TO.N,Net-(J4-Pin_8)*%
X171857500Y-90375000D03*
D36*
%TO.P,JP8,3,B*%
%TO.N,ISample5V*%
X171857500Y-89075000D03*
%TD*%
D33*
%TO.P,R13,1*%
%TO.N,ISample5V*%
X192350000Y-125575000D03*
%TO.P,R13,2*%
%TO.N,ISample3.3V*%
X192350000Y-127575000D03*
%TD*%
D37*
%TO.P,C2,1*%
%TO.N,+VregDiode*%
X259515700Y-133096000D03*
%TO.P,C2,2*%
%TO.N,-BATT1*%
X261590700Y-133096000D03*
%TD*%
D38*
%TO.P,JP25,1,A*%
%TO.N,-BATT1*%
X203800000Y-132950000D03*
D39*
%TO.P,JP25,2,B*%
%TO.N,Net-(JP25-B)*%
X203800000Y-134250000D03*
%TD*%
D15*
%TO.P,D1,1,K*%
%TO.N,Batt1GatePreDiv*%
X254543680Y-73915000D03*
D16*
%TO.P,D1,2,A*%
%TO.N,+BATT*%
X245643520Y-73915000D03*
%TD*%
D20*
%TO.P,LED6,1,VSS*%
%TO.N,-BATT1*%
X188300000Y-159750000D03*
%TO.P,LED6,2,DIN*%
%TO.N,NeoPass1*%
X191600000Y-159750000D03*
%TO.P,LED6,3,VDD*%
%TO.N,+5V*%
X188300000Y-154750000D03*
%TO.P,LED6,4,DOUT*%
%TO.N,Net-(LED6-DOUT)*%
X191600000Y-154750000D03*
%TD*%
D26*
%TO.P,JP3,1,A*%
%TO.N,Net-(JP2-B)*%
X247045600Y-66396600D03*
D27*
%TO.P,JP3,2,B*%
%TO.N,+VregDiode*%
X247045600Y-65096600D03*
%TD*%
D40*
%TO.P,R1,1*%
%TO.N,Net-(R1-Pad1)*%
X236220000Y-93370400D03*
%TO.P,R1,2*%
%TO.N,+BATT1*%
X236220000Y-91370400D03*
%TD*%
D11*
%TO.P,LED28,1,VSS*%
%TO.N,-BATT1*%
X198924934Y-52200000D03*
%TO.P,LED28,2,DIN*%
%TO.N,Net-(LED27-DOUT)*%
X195624934Y-52200000D03*
%TO.P,LED28,3,VDD*%
%TO.N,+5V*%
X198924934Y-57200000D03*
%TO.P,LED28,4,DOUT*%
%TO.N,Net-(LED28-DOUT)*%
X195624934Y-57200000D03*
%TD*%
D41*
%TO.P,JP9,1,A*%
%TO.N,Net-(J3-Pin_1)*%
X191650000Y-84207500D03*
D42*
%TO.P,JP9,2,C*%
%TO.N,+3.3V*%
X192950000Y-84207500D03*
D43*
%TO.P,JP9,3,B*%
%TO.N,+5V*%
X194250000Y-84207500D03*
%TD*%
D44*
%TO.P,Q3,1,G*%
%TO.N,Batt1Gate*%
X222740701Y-88526402D03*
%TO.P,Q3,2,S*%
%TO.N,+BATTHall*%
X222740701Y-89726402D03*
%TO.P,Q3,3,S*%
X222740701Y-90926402D03*
%TO.P,Q3,4,S*%
X222740701Y-92126402D03*
%TO.P,Q3,5,S*%
X222740701Y-93326402D03*
%TO.P,Q3,6,S*%
X222740701Y-94526402D03*
%TO.P,Q3,7,S*%
X222740701Y-95726400D03*
%TO.P,Q3,8,S*%
X222740701Y-96926400D03*
D45*
%TO.P,Q3,9,D*%
%TO.N,+BATT1*%
X230790701Y-92726401D03*
%TD*%
D26*
%TO.P,JP4,1,A*%
%TO.N,Batt2Gate*%
X262600000Y-61400000D03*
D27*
%TO.P,JP4,2,B*%
%TO.N,Batt2GatePreDiv*%
X262600000Y-60100000D03*
%TD*%
D46*
%TO.P,JP28,1,A*%
%TO.N,+5V*%
X166624000Y-84785200D03*
D35*
%TO.P,JP28,2,C*%
%TO.N,Net-(J9-Pin_1)*%
X166624000Y-86085200D03*
D47*
%TO.P,JP28,3,B*%
%TO.N,+3.3V*%
X166624000Y-87385200D03*
%TD*%
D20*
%TO.P,LED10,1,VSS*%
%TO.N,-BATT1*%
X214305600Y-159750000D03*
%TO.P,LED10,2,DIN*%
%TO.N,Net-(LED10-DIN)*%
X217605600Y-159750000D03*
%TO.P,LED10,3,VDD*%
%TO.N,+5V*%
X214305600Y-154750000D03*
%TO.P,LED10,4,DOUT*%
%TO.N,NeoPass2*%
X217605600Y-154750000D03*
%TD*%
D44*
%TO.P,Q4,1,G*%
%TO.N,Batt2Gate*%
X222740701Y-102539800D03*
%TO.P,Q4,2,S*%
%TO.N,+BATTHall*%
X222740701Y-103739800D03*
%TO.P,Q4,3,S*%
X222740701Y-104939800D03*
%TO.P,Q4,4,S*%
X222740701Y-106139800D03*
%TO.P,Q4,5,S*%
X222740701Y-107339800D03*
%TO.P,Q4,6,S*%
X222740701Y-108539800D03*
%TO.P,Q4,7,S*%
X222740701Y-109739798D03*
%TO.P,Q4,8,S*%
X222740701Y-110939798D03*
D45*
%TO.P,Q4,9,D*%
%TO.N,+BATT2*%
X230790701Y-106739799D03*
%TD*%
D12*
%TO.P,JP16,1,A*%
%TO.N,D{slash}A23*%
X181400000Y-87600000D03*
D13*
%TO.P,JP16,2,B*%
%TO.N,VSampleBatt2*%
X182700000Y-87600000D03*
%TD*%
D48*
%TO.P,J8,1,1*%
%TO.N,+5V*%
X159500000Y-57290000D03*
D49*
%TO.P,J8,2,2*%
%TO.N,I2C1_SCL*%
X159500000Y-54750000D03*
%TO.P,J8,3,3*%
%TO.N,+5V*%
X162040000Y-57290000D03*
%TO.P,J8,4,4*%
%TO.N,I2C1_SDA*%
X162040000Y-54750000D03*
%TO.P,J8,5,5*%
%TO.N,+5V*%
X164580000Y-57290000D03*
%TO.P,J8,6,6*%
%TO.N,Dswitch2*%
X164580000Y-54750000D03*
%TO.P,J8,7,7*%
%TO.N,+5V*%
X167120000Y-57290000D03*
%TO.P,J8,8,8*%
%TO.N,Analog_Current*%
X167120000Y-54750000D03*
%TO.P,J8,9,9*%
%TO.N,Device_D-*%
X169660000Y-57290000D03*
%TO.P,J8,10,10*%
%TO.N,Analog_Voltage1*%
X169660000Y-54750000D03*
%TO.P,J8,11,11*%
%TO.N,Device_D+*%
X172200000Y-57290000D03*
%TO.P,J8,12,12*%
%TO.N,D{slash}A23*%
X172200000Y-54750000D03*
%TO.P,J8,13,13*%
%TO.N,-BATT1*%
X174740000Y-57290000D03*
%TO.P,J8,14,14*%
%TO.N,D{slash}A22*%
X174740000Y-54750000D03*
%TO.P,J8,15,15*%
%TO.N,-BATT1*%
X177280000Y-57290000D03*
%TO.P,J8,16,16*%
%TO.N,D{slash}A21*%
X177280000Y-54750000D03*
%TO.P,J8,17,17*%
%TO.N,-BATT1*%
X179820000Y-57290000D03*
%TO.P,J8,18,18*%
%TO.N,D{slash}A20*%
X179820000Y-54750000D03*
%TO.P,J8,19,19*%
%TO.N,-BATT1*%
X182360000Y-57290000D03*
%TO.P,J8,20,20*%
%TO.N,toNEO_CTRL_Orin*%
X182360000Y-54750000D03*
%TD*%
D50*
%TO.P,R9,1*%
%TO.N,Batt2GatePreDiv*%
X256900000Y-60450000D03*
%TO.P,R9,2*%
%TO.N,Net-(JP6-A)*%
X258900000Y-60450000D03*
%TD*%
D20*
%TO.P,LED7,1,VSS*%
%TO.N,-BATT1*%
X194801400Y-159750000D03*
%TO.P,LED7,2,DIN*%
%TO.N,Net-(LED6-DOUT)*%
X198101400Y-159750000D03*
%TO.P,LED7,3,VDD*%
%TO.N,+5V*%
X194801400Y-154750000D03*
%TO.P,LED7,4,DOUT*%
%TO.N,Net-(LED7-DOUT)*%
X198101400Y-154750000D03*
%TD*%
D24*
%TO.P,C4,1*%
%TO.N,+5V*%
X262459999Y-139186100D03*
%TO.P,C4,2*%
%TO.N,-BATT1*%
X262459999Y-137111100D03*
%TD*%
D51*
%TO.P,J6,*%
%TO.N,*%
X157750000Y-131700000D03*
X157750000Y-120700000D03*
D52*
%TO.P,J6,1,Pin_1*%
%TO.N,-BATT1*%
X162750000Y-128700000D03*
D53*
%TO.P,J6,2,Pin_2*%
%TO.N,+BATT*%
X162750000Y-123700000D03*
%TD*%
D54*
%TO.P,C1,1*%
%TO.N,+VregDiode*%
X240800000Y-61900000D03*
%TO.P,C1,2*%
%TO.N,-BATT1*%
X240800000Y-66218000D03*
%TD*%
D20*
%TO.P,LED15,1,VSS*%
%TO.N,-BATT1*%
X246812600Y-159750000D03*
%TO.P,LED15,2,DIN*%
%TO.N,Net-(LED14-DOUT)*%
X250112600Y-159750000D03*
%TO.P,LED15,3,VDD*%
%TO.N,+5V*%
X246812600Y-154750000D03*
%TO.P,LED15,4,DOUT*%
%TO.N,NeoPass3*%
X250112600Y-154750000D03*
%TD*%
D55*
%TO.P,C8,1*%
%TO.N,ISample5V*%
X187550000Y-125525000D03*
%TO.P,C8,2*%
%TO.N,-BATT1*%
X187550000Y-127600000D03*
%TD*%
%TO.P,C9,1*%
%TO.N,ISample5V*%
X190025000Y-125537500D03*
%TO.P,C9,2*%
%TO.N,-BATT1*%
X190025000Y-127612500D03*
%TD*%
D56*
%TO.P,TH2,1*%
%TO.N,+VregDiode*%
X255425700Y-63090800D03*
%TO.P,TH2,2*%
%TO.N,Net-(JP2-B)*%
X253600700Y-63090800D03*
%TD*%
D20*
%TO.P,LED17,1,VSS*%
%TO.N,-BATT1*%
X259815400Y-159750000D03*
%TO.P,LED17,2,DIN*%
%TO.N,Net-(LED16-DOUT)*%
X263115400Y-159750000D03*
%TO.P,LED17,3,VDD*%
%TO.N,+5V*%
X259815400Y-154750000D03*
%TO.P,LED17,4,DOUT*%
%TO.N,Net-(LED17-DOUT)*%
X263115400Y-154750000D03*
%TD*%
%TO.P,LED4,1,VSS*%
%TO.N,-BATT1*%
X175297200Y-159750000D03*
%TO.P,LED4,2,DIN*%
%TO.N,Net-(LED3-DOUT)*%
X178597200Y-159750000D03*
%TO.P,LED4,3,VDD*%
%TO.N,+5V*%
X175297200Y-154750000D03*
%TO.P,LED4,4,DOUT*%
%TO.N,Net-(LED4-DOUT)*%
X178597200Y-154750000D03*
%TD*%
D57*
%TO.P,J3,1,Pin_1*%
%TO.N,Net-(J3-Pin_1)*%
X194125000Y-78450000D03*
D58*
%TO.P,J3,2,Pin_2*%
%TO.N,-BATT1*%
X191585000Y-78450000D03*
%TO.P,J3,3,Pin_3*%
%TO.N,I2C1_SCL*%
X189045000Y-78450000D03*
%TO.P,J3,4,Pin_4*%
%TO.N,I2C1_SDA*%
X186505000Y-78450000D03*
%TO.P,J3,5,Pin_5*%
%TO.N,REF*%
X183965000Y-78450000D03*
%TO.P,J3,6,Pin_6*%
%TO.N,COM*%
X181425000Y-78450000D03*
%TO.P,J3,7,Pin_7*%
%TO.N,AD0*%
X178885000Y-78450000D03*
%TO.P,J3,8,Pin_8*%
%TO.N,AD1*%
X176345000Y-78450000D03*
%TD*%
D23*
%TO.P,D5,1,K*%
%TO.N,RArray8*%
X251803400Y-139837400D03*
%TO.P,D5,2,A*%
%TO.N,/Battery Control Logic/Batt1>UVP*%
X253553400Y-139837400D03*
%TD*%
D44*
%TO.P,Q1,1,G*%
%TO.N,Batt1Gate*%
X222283501Y-65954801D03*
%TO.P,Q1,2,S*%
%TO.N,+BATTHall*%
X222283501Y-67154801D03*
%TO.P,Q1,3,S*%
X222283501Y-68354801D03*
%TO.P,Q1,4,S*%
X222283501Y-69554801D03*
%TO.P,Q1,5,S*%
X222283501Y-70754801D03*
%TO.P,Q1,6,S*%
X222283501Y-71954801D03*
%TO.P,Q1,7,S*%
X222283501Y-73154799D03*
%TO.P,Q1,8,S*%
X222283501Y-74354799D03*
D45*
%TO.P,Q1,9,D*%
%TO.N,+BATT1*%
X230333501Y-70154800D03*
%TD*%
D33*
%TO.P,R7,1*%
%TO.N,VSampleBatt2*%
X236372400Y-102190800D03*
%TO.P,R7,2*%
%TO.N,Net-(R6-Pad2)*%
X236372400Y-104190800D03*
%TD*%
D20*
%TO.P,LED16,1,VSS*%
%TO.N,-BATT1*%
X253314000Y-159750000D03*
%TO.P,LED16,2,DIN*%
%TO.N,NeoPass3*%
X256614000Y-159750000D03*
%TO.P,LED16,3,VDD*%
%TO.N,+5V*%
X253314000Y-154750000D03*
%TO.P,LED16,4,DOUT*%
%TO.N,Net-(LED16-DOUT)*%
X256614000Y-154750000D03*
%TD*%
D13*
%TO.P,JP24,2,B*%
%TO.N,Batt2Enable*%
X206800000Y-151100000D03*
D12*
%TO.P,JP24,1,A*%
%TO.N,Net-(JP24-A)*%
X205500000Y-151100000D03*
%TD*%
D59*
%TO.P,U4,1,Vcc*%
%TO.N,+5V*%
X262450001Y-142593600D03*
D60*
%TO.P,U4,2,GND*%
%TO.N,-BATT1*%
X260150000Y-149350000D03*
D59*
%TO.P,U4,3,OUT*%
%TO.N,+3.3V*%
X257849999Y-142593600D03*
%TD*%
D61*
%TO.P,U2,1,Input*%
%TO.N,+BATT2*%
X240385600Y-117983000D03*
D62*
%TO.P,U2,2,Output*%
%TO.N,+VregDiode*%
X242925600Y-106972100D03*
D61*
%TO.P,U2,3,Input*%
%TO.N,+BATT2*%
X245465600Y-117983000D03*
%TD*%
D26*
%TO.P,JP6,1,A*%
%TO.N,Net-(JP6-A)*%
X262600000Y-64900000D03*
D27*
%TO.P,JP6,2,B*%
%TO.N,Batt2Gate*%
X262600000Y-63600000D03*
%TD*%
D26*
%TO.P,JP7,1,A*%
%TO.N,Net-(JP7-A)*%
X263050000Y-78800000D03*
D27*
%TO.P,JP7,2,B*%
%TO.N,Batt1Gate*%
X263050000Y-77500000D03*
%TD*%
D63*
%TO.P,JP26,1,A*%
%TO.N,LETeensy*%
X201350000Y-132600000D03*
D64*
%TO.P,JP26,2,B*%
%TO.N,~{OCPLatch}*%
X200050000Y-132600000D03*
%TD*%
D31*
%TO.P,C10,1*%
%TO.N,Net-(JP12-A)*%
X180060600Y-140606292D03*
D32*
%TO.P,C10,2*%
%TO.N,-BATT1*%
X180060600Y-148106292D03*
%TD*%
D20*
%TO.P,LED3,1,VSS*%
%TO.N,-BATT1*%
X168795800Y-159750000D03*
%TO.P,LED3,2,DIN*%
%TO.N,Net-(LED2-DOUT)*%
X172095800Y-159750000D03*
%TO.P,LED3,3,VDD*%
%TO.N,+5V*%
X168795800Y-154750000D03*
%TO.P,LED3,4,DOUT*%
%TO.N,Net-(LED3-DOUT)*%
X172095800Y-154750000D03*
%TD*%
D50*
%TO.P,R10,1*%
%TO.N,Batt1GatePreDiv*%
X257000000Y-75800000D03*
%TO.P,R10,2*%
%TO.N,Net-(JP7-A)*%
X259000000Y-75800000D03*
%TD*%
D65*
%TO.P,U14,1,SDA*%
%TO.N,I2C1_SDA*%
X207612500Y-100100000D03*
%TO.P,U14,2,SCL*%
%TO.N,I2C1_SCL*%
X207612500Y-100750000D03*
%TO.P,U14,3,Alert*%
%TO.N,unconnected-(U14-Alert-Pad3)*%
X207612500Y-101400000D03*
%TO.P,U14,4,GND*%
%TO.N,-BATT1*%
X207612500Y-102050000D03*
%TO.P,U14,5,A2*%
%TO.N,+3.3V*%
X211837500Y-102050000D03*
%TO.P,U14,6,A1*%
X211837500Y-101400000D03*
%TO.P,U14,7,A0*%
X211837500Y-100750000D03*
%TO.P,U14,8,V_{DD}*%
X211837500Y-100100000D03*
%TD*%
D57*
%TO.P,J4,1,Pin_1*%
%TO.N,VSampleBatt2*%
X194125000Y-91150000D03*
D58*
%TO.P,J4,2,Pin_2*%
%TO.N,VSampleBatt1*%
X191585000Y-91150000D03*
%TO.P,J4,3,Pin_3*%
%TO.N,/Battery Control Logic/UVPReference*%
X189045000Y-91150000D03*
%TO.P,J4,4,Pin_4*%
%TO.N,/Battery Control Logic/OCPReference*%
X186505000Y-91150000D03*
%TO.P,J4,5,Pin_5*%
%TO.N,/Battery Control Logic/~{OCP}*%
X183965000Y-91150000D03*
%TO.P,J4,6,Pin_6*%
%TO.N,/Battery Control Logic/~{GateDisable}*%
X181425000Y-91150000D03*
%TO.P,J4,7,Pin_7*%
%TO.N,unconnected-(J4-Pin_7-Pad7)*%
X178885000Y-91150000D03*
%TO.P,J4,8,Pin_8*%
%TO.N,Net-(J4-Pin_8)*%
X176345000Y-91150000D03*
%TD*%
D66*
%TO.P,TP4,1,1*%
%TO.N,/Battery Control Logic/Batt2>UVP*%
X215700000Y-147400000D03*
%TD*%
D23*
%TO.P,D6,1,K*%
%TO.N,RArray7*%
X251800800Y-141488400D03*
%TO.P,D6,2,A*%
%TO.N,Batt2Enable*%
X253550800Y-141488400D03*
%TD*%
D67*
%TO.P,J2,*%
%TO.N,*%
X260317600Y-101606400D03*
X260317600Y-115106400D03*
D68*
%TO.P,J2,1,Pin_1*%
%TO.N,-BATT1*%
X254317600Y-104756400D03*
D69*
%TO.P,J2,2,Pin_2*%
%TO.N,+BATT2*%
X254317600Y-111956400D03*
D70*
%TO.P,J2,3*%
%TO.N,N/C*%
X257967600Y-108356400D03*
%TD*%
D20*
%TO.P,LED8,1,VSS*%
%TO.N,-BATT1*%
X201302800Y-159750000D03*
%TO.P,LED8,2,DIN*%
%TO.N,Net-(LED7-DOUT)*%
X204602800Y-159750000D03*
%TO.P,LED8,3,VDD*%
%TO.N,+5V*%
X201302800Y-154750000D03*
%TO.P,LED8,4,DOUT*%
%TO.N,Net-(LED8-DOUT)*%
X204602800Y-154750000D03*
%TD*%
D12*
%TO.P,JP20,1,A*%
%TO.N,D{slash}A20*%
X181884800Y-73406000D03*
D13*
%TO.P,JP20,2,B*%
%TO.N,~{SystemKill}*%
X183184800Y-73406000D03*
%TD*%
D11*
%TO.P,LED20,1,VSS*%
%TO.N,-BATT1*%
X250296438Y-52200000D03*
%TO.P,LED20,2,DIN*%
%TO.N,Net-(LED19-DOUT)*%
X246996438Y-52200000D03*
%TO.P,LED20,3,VDD*%
%TO.N,+5V*%
X250296438Y-57200000D03*
%TO.P,LED20,4,DOUT*%
%TO.N,NeoPass4*%
X246996438Y-57200000D03*
%TD*%
D61*
%TO.P,U1,1,Input*%
%TO.N,+BATT1*%
X245313200Y-81445100D03*
D62*
%TO.P,U1,2,Output*%
%TO.N,+VregDiode*%
X242773200Y-92456000D03*
D61*
%TO.P,U1,3,Input*%
%TO.N,+BATT1*%
X240233200Y-81445100D03*
%TD*%
D67*
%TO.P,J1,*%
%TO.N,*%
X263499600Y-84696400D03*
X263499600Y-98196400D03*
D68*
%TO.P,J1,1,Pin_1*%
%TO.N,-BATT1*%
X257499600Y-87846400D03*
D69*
%TO.P,J1,2,Pin_2*%
%TO.N,+BATT1*%
X257499600Y-95046400D03*
D70*
%TO.P,J1,3*%
%TO.N,N/C*%
X261149600Y-91446400D03*
%TD*%
D20*
%TO.P,LED2,1,VSS*%
%TO.N,-BATT1*%
X162294400Y-159750000D03*
%TO.P,LED2,2,DIN*%
%TO.N,Net-(LED1-DOUT)*%
X165594400Y-159750000D03*
%TO.P,LED2,3,VDD*%
%TO.N,+5V*%
X162294400Y-154750000D03*
%TO.P,LED2,4,DOUT*%
%TO.N,Net-(LED2-DOUT)*%
X165594400Y-154750000D03*
%TD*%
D25*
%TO.P,R8,1*%
%TO.N,-BATT1*%
X240436400Y-101142800D03*
%TO.P,R8,2*%
%TO.N,VSampleBatt2*%
X238436400Y-101142800D03*
%TD*%
D12*
%TO.P,JP19,1,A*%
%TO.N,D{slash}A21*%
X181834000Y-70612000D03*
D13*
%TO.P,JP19,2,B*%
%TO.N,~{OCPLatch}*%
X183134000Y-70612000D03*
%TD*%
D63*
%TO.P,JP27,1,A*%
%TO.N,~{SystemKill}*%
X209950000Y-138100000D03*
D64*
%TO.P,JP27,2,B*%
%TO.N,Net-(JP27-B)*%
X208650000Y-138100000D03*
%TD*%
D71*
%TO.P,VR1,1*%
%TO.N,+3.3V*%
X225740400Y-143799800D03*
D72*
%TO.P,VR1,2*%
%TO.N,/Battery Control Logic/UVPReference*%
X223200400Y-143799800D03*
%TO.P,VR1,3*%
%TO.N,-BATT1*%
X220660400Y-143799800D03*
%TD*%
D20*
%TO.P,LED12,1,VSS*%
%TO.N,-BATT1*%
X227308400Y-159750000D03*
%TO.P,LED12,2,DIN*%
%TO.N,Net-(LED11-DOUT)*%
X230608400Y-159750000D03*
%TO.P,LED12,3,VDD*%
%TO.N,+5V*%
X227308400Y-154750000D03*
%TO.P,LED12,4,DOUT*%
%TO.N,Net-(LED12-DOUT)*%
X230608400Y-154750000D03*
%TD*%
D73*
%TO.P,U7,1,1A*%
%TO.N,/Battery Control Logic/Batt1>UVP*%
X189772650Y-145649999D03*
%TO.P,U7,2,1B*%
%TO.N,/Battery Control Logic/~{GateDisable}*%
X189772650Y-146300000D03*
%TO.P,U7,3,NC*%
%TO.N,unconnected-(U7-NC-Pad3)*%
X189772650Y-146950001D03*
%TO.P,U7,4,1C*%
%TO.N,/Battery Control Logic/VBatt1<VBatt2*%
X189772650Y-147600000D03*
%TO.P,U7,5,1D*%
%TO.N,unconnected-(U7-1D-Pad5)*%
X189772650Y-148249999D03*
%TO.P,U7,6,1Y*%
%TO.N,Net-(JP22-A)*%
X189772650Y-148900000D03*
%TO.P,U7,7,GND*%
%TO.N,-BATT1*%
X189772650Y-149549999D03*
%TO.P,U7,8,2Y*%
%TO.N,Net-(JP24-A)*%
X195627350Y-149550001D03*
%TO.P,U7,9,2A*%
%TO.N,/Battery Control Logic/Batt2>UVP*%
X195627350Y-148900000D03*
%TO.P,U7,10,2B*%
%TO.N,/Battery Control Logic/~{GateDisable}*%
X195627350Y-148250001D03*
%TO.P,U7,11,NC*%
%TO.N,unconnected-(U7-NC-Pad11)*%
X195627350Y-147600000D03*
%TO.P,U7,12,2C*%
%TO.N,Net-(U7-2C)*%
X195627350Y-146950001D03*
%TO.P,U7,13,2D*%
%TO.N,Net-(U7-2D)*%
X195627350Y-146300000D03*
%TO.P,U7,14,Vcc*%
%TO.N,+3.3V*%
X195627350Y-145650001D03*
%TD*%
D37*
%TO.P,C7,1*%
%TO.N,-BATT1*%
X175369400Y-120091200D03*
%TO.P,C7,2*%
%TO.N,+5V*%
X177444400Y-120091200D03*
%TD*%
D20*
%TO.P,LED9,1,VSS*%
%TO.N,-BATT1*%
X207804200Y-159750000D03*
%TO.P,LED9,2,DIN*%
%TO.N,Net-(LED8-DOUT)*%
X211104200Y-159750000D03*
%TO.P,LED9,3,VDD*%
%TO.N,+5V*%
X207804200Y-154750000D03*
%TO.P,LED9,4,DOUT*%
%TO.N,Net-(LED10-DIN)*%
X211104200Y-154750000D03*
%TD*%
D74*
%TO.P,U11,1,LE*%
%TO.N,LETeensy*%
X201249999Y-136022100D03*
%TO.P,U11,2,GND*%
%TO.N,-BATT1*%
X200600000Y-136022100D03*
%TO.P,U11,3,D*%
%TO.N,/Battery Control Logic/~{OCP}*%
X199950001Y-136022100D03*
%TO.P,U11,4,Q*%
%TO.N,~{OCPLatch}*%
X199950001Y-137977900D03*
%TO.P,U11,5,VCC*%
%TO.N,+3.3V*%
X200600000Y-137977900D03*
%TO.P,U11,6,\u002AOE*%
%TO.N,Net-(JP25-B)*%
X201249999Y-137977900D03*
%TD*%
D11*
%TO.P,LED29,1,VSS*%
%TO.N,-BATT1*%
X192503496Y-52200000D03*
%TO.P,LED29,2,DIN*%
%TO.N,Net-(LED28-DOUT)*%
X189203496Y-52200000D03*
%TO.P,LED29,3,VDD*%
%TO.N,+5V*%
X192503496Y-57200000D03*
%TO.P,LED29,4,DOUT*%
%TO.N,/Neopixels/outNEO_Orin*%
X189203496Y-57200000D03*
%TD*%
D75*
%TO.P,TP1,1,1*%
%TO.N,+VregDiode*%
X244650000Y-99500000D03*
%TD*%
D76*
%TO.P,U15,1,OUT1*%
%TO.N,/Battery Control Logic/Batt1>UVP*%
X203321000Y-144250720D03*
%TO.P,U15,2,IN1-*%
%TO.N,/Battery Control Logic/UVPReference*%
X203321000Y-143600480D03*
%TO.P,U15,3,IN1+*%
%TO.N,VSampleBatt1*%
X203321000Y-142950240D03*
%TO.P,U15,4,VCC+*%
%TO.N,+3.3V*%
X203321000Y-142300000D03*
%TO.P,U15,5,IN2+*%
%TO.N,VSampleBatt2*%
X203321000Y-141649760D03*
%TO.P,U15,6,IN2-*%
%TO.N,/Battery Control Logic/UVPReference*%
X203321000Y-140999520D03*
%TO.P,U15,7,OUT2*%
%TO.N,/Battery Control Logic/Batt2>UVP*%
X203321000Y-140349280D03*
%TO.P,U15,8,OUT3*%
%TO.N,/Battery Control Logic/~{OCP}*%
X197479000Y-140349280D03*
%TO.P,U15,9,IN3-*%
%TO.N,/Battery Control Logic/OCPReference*%
X197479000Y-140999520D03*
%TO.P,U15,10,IN3+*%
%TO.N,ISample3.3V*%
X197479000Y-141649760D03*
%TO.P,U15,11,VCC-*%
%TO.N,-BATT1*%
X197479000Y-142300000D03*
%TO.P,U15,12,IN4+*%
%TO.N,VSampleBatt2*%
X197479000Y-142950240D03*
%TO.P,U15,13,IN4-*%
%TO.N,VSampleBatt1*%
X197479000Y-143600480D03*
%TO.P,U15,14,OUT4*%
%TO.N,/Battery Control Logic/VBatt1<VBatt2*%
X197479000Y-144250720D03*
%TD*%
D24*
%TO.P,C5,1*%
%TO.N,+3.3V*%
X257799199Y-139233000D03*
%TO.P,C5,2*%
%TO.N,-BATT1*%
X257799199Y-137158000D03*
%TD*%
D11*
%TO.P,LED27,1,VSS*%
%TO.N,-BATT1*%
X205346372Y-52200000D03*
%TO.P,LED27,2,DIN*%
%TO.N,Net-(LED26-DOUT)*%
X202046372Y-52200000D03*
%TO.P,LED27,3,VDD*%
%TO.N,+5V*%
X205346372Y-57200000D03*
%TO.P,LED27,4,DOUT*%
%TO.N,Net-(LED27-DOUT)*%
X202046372Y-57200000D03*
%TD*%
D13*
%TO.P,JP23,2,B*%
%TO.N,+3.3V*%
X210250000Y-151100000D03*
D12*
%TO.P,JP23,1,A*%
%TO.N,Batt2Enable*%
X208950000Y-151100000D03*
%TD*%
D23*
%TO.P,D8,1,K*%
%TO.N,RArray5*%
X251789400Y-144892000D03*
%TO.P,D8,2,A*%
%TO.N,~{OCPLatch}*%
X253539400Y-144892000D03*
%TD*%
D33*
%TO.P,R2,1*%
%TO.N,Net-(R1-Pad1)*%
X236220000Y-95231200D03*
%TO.P,R2,2*%
%TO.N,VSampleBatt1*%
X236220000Y-97231200D03*
%TD*%
D14*
%TO.P,U8,1*%
%TO.N,N/C*%
X199070000Y-146850000D03*
%TO.P,U8,2*%
%TO.N,/Battery Control Logic/VBatt1<VBatt2*%
X199070000Y-147500000D03*
%TO.P,U8,3,GND*%
%TO.N,-BATT1*%
X199070000Y-148150000D03*
%TO.P,U8,4*%
%TO.N,Net-(U7-2C)*%
X201730000Y-148150000D03*
%TO.P,U8,5,VCC*%
%TO.N,+3.3V*%
X201730000Y-146850000D03*
%TD*%
D63*
%TO.P,JP22,1,A*%
%TO.N,Net-(JP22-A)*%
X202675000Y-151125000D03*
D64*
%TO.P,JP22,2,B*%
%TO.N,Batt1Enable*%
X201375000Y-151125000D03*
%TD*%
D44*
%TO.P,Q2,1,G*%
%TO.N,Batt1Gate*%
X217355901Y-77080001D03*
%TO.P,Q2,2,S*%
%TO.N,+BATTHall*%
X217355901Y-78280001D03*
%TO.P,Q2,3,S*%
X217355901Y-79480001D03*
%TO.P,Q2,4,S*%
X217355901Y-80680001D03*
%TO.P,Q2,5,S*%
X217355901Y-81880001D03*
%TO.P,Q2,6,S*%
X217355901Y-83080001D03*
%TO.P,Q2,7,S*%
X217355901Y-84279999D03*
%TO.P,Q2,8,S*%
X217355901Y-85479999D03*
D45*
%TO.P,Q2,9,D*%
%TO.N,+BATT1*%
X225405901Y-81280000D03*
%TD*%
D55*
%TO.P,C3,1*%
%TO.N,+VregDiode*%
X236321600Y-129467700D03*
%TO.P,C3,2*%
%TO.N,-BATT1*%
X236321600Y-131542700D03*
%TD*%
D58*
%TO.P,PM2,1,Pin_1*%
%TO.N,+VregDiode*%
X259170000Y-129840000D03*
%TO.P,PM2,2,Pin_2*%
%TO.N,-BATT1*%
X256630000Y-129840000D03*
D57*
%TO.P,PM2,3,Pin_3*%
%TO.N,+5V*%
X254090000Y-129840000D03*
%TD*%
D67*
%TO.P,J5,*%
%TO.N,*%
X156050000Y-112950000D03*
X156050000Y-99450000D03*
D77*
%TO.P,J5,1,Pin_1*%
%TO.N,-BATT1*%
X162050000Y-102600000D03*
D69*
%TO.P,J5,2,Pin_2*%
%TO.N,+BATT*%
X162050000Y-109800000D03*
%TD*%
D11*
%TO.P,LED21,1,VSS*%
%TO.N,-BATT1*%
X243875000Y-52200000D03*
%TO.P,LED21,2,DIN*%
%TO.N,NeoPass4*%
X240575000Y-52200000D03*
%TO.P,LED21,3,VDD*%
%TO.N,+5V*%
X243875000Y-57200000D03*
%TO.P,LED21,4,DOUT*%
%TO.N,Net-(LED21-DOUT)*%
X240575000Y-57200000D03*
%TD*%
D63*
%TO.P,JP21,1,A*%
%TO.N,Batt1Enable*%
X199250000Y-151125000D03*
D64*
%TO.P,JP21,2,B*%
%TO.N,+3.3V*%
X197950000Y-151125000D03*
%TD*%
D11*
%TO.P,LED22,1,VSS*%
%TO.N,-BATT1*%
X237453562Y-52200000D03*
%TO.P,LED22,2,DIN*%
%TO.N,Net-(LED21-DOUT)*%
X234153562Y-52200000D03*
%TO.P,LED22,3,VDD*%
%TO.N,+5V*%
X237453562Y-57200000D03*
%TO.P,LED22,4,DOUT*%
%TO.N,Net-(LED22-DOUT)*%
X234153562Y-57200000D03*
%TD*%
D78*
%TO.P,R21,1*%
%TO.N,RArray1*%
X242087400Y-151205999D03*
%TO.P,R21,2*%
%TO.N,RArray2*%
X242087400Y-150405999D03*
%TO.P,R21,3*%
%TO.N,RArray3*%
X242087400Y-149606000D03*
%TO.P,R21,4*%
%TO.N,RArray4*%
X242087400Y-148805999D03*
%TO.P,R21,5*%
%TO.N,RArray5*%
X242087400Y-148006001D03*
%TO.P,R21,6*%
%TO.N,RArray6*%
X242087400Y-147206000D03*
%TO.P,R21,7*%
%TO.N,RArray7*%
X242087400Y-146405999D03*
%TO.P,R21,8*%
%TO.N,RArray8*%
X242087400Y-145606001D03*
%TO.P,R21,9*%
%TO.N,-BATT1*%
X240284000Y-145606001D03*
%TO.P,R21,10*%
X240284000Y-146406001D03*
%TO.P,R21,11*%
X240284000Y-147206000D03*
%TO.P,R21,12*%
X240284000Y-148006001D03*
%TO.P,R21,13*%
X240284000Y-148805999D03*
%TO.P,R21,14*%
X240284000Y-149606000D03*
%TO.P,R21,15*%
X240284000Y-150406001D03*
%TO.P,R21,16*%
X240284000Y-151205999D03*
%TD*%
D26*
%TO.P,JP5,1,A*%
%TO.N,Batt1Gate*%
X263100000Y-75350000D03*
D27*
%TO.P,JP5,2,B*%
%TO.N,Batt1GatePreDiv*%
X263100000Y-74050000D03*
%TD*%
D19*
%TO.P,R4,1*%
%TO.N,-BATT1*%
X249485900Y-69542400D03*
%TO.P,R4,2*%
%TO.N,Net-(JP1-A)*%
X251310900Y-69542400D03*
%TD*%
D44*
%TO.P,Q5,1,G*%
%TO.N,Batt2Gate*%
X217398600Y-114116000D03*
%TO.P,Q5,2,S*%
%TO.N,+BATTHall*%
X217398600Y-115316000D03*
%TO.P,Q5,3,S*%
X217398600Y-116516000D03*
%TO.P,Q5,4,S*%
X217398600Y-117716000D03*
%TO.P,Q5,5,S*%
X217398600Y-118916000D03*
%TO.P,Q5,6,S*%
X217398600Y-120116000D03*
%TO.P,Q5,7,S*%
X217398600Y-121315998D03*
%TO.P,Q5,8,S*%
X217398600Y-122515998D03*
D45*
%TO.P,Q5,9,D*%
%TO.N,+BATT2*%
X225448600Y-118315999D03*
%TD*%
D33*
%TO.P,R15,1*%
%TO.N,ISample3.3V*%
X192350000Y-129575000D03*
%TO.P,R15,2*%
%TO.N,-BATT1*%
X192350000Y-131575000D03*
%TD*%
D23*
%TO.P,D7,1,K*%
%TO.N,Net-(D7-K)*%
X251803400Y-138161000D03*
%TO.P,D7,2,A*%
%TO.N,Batt1Enable*%
X253553400Y-138161000D03*
%TD*%
%TO.P,D12,1,K*%
%TO.N,RArray1*%
X251750000Y-151750000D03*
%TO.P,D12,2,A*%
%TO.N,KillSwitch*%
X253500000Y-151750000D03*
%TD*%
D79*
%TO.P,U5,1,VCC*%
%TO.N,+5V*%
X186790100Y-122099999D03*
D80*
%TO.P,U5,2,GND*%
%TO.N,-BATT1*%
X188700100Y-122099999D03*
%TO.P,U5,3,VIOUT*%
%TO.N,ISample5V*%
X190610100Y-122099999D03*
D81*
%TO.P,U5,4,IP+*%
%TO.N,+BATTHall*%
X189798100Y-100082000D03*
X189798100Y-101318001D03*
X190524100Y-99082000D03*
X190524100Y-102318000D03*
X191700100Y-98700000D03*
X191700100Y-102700000D03*
X193033400Y-98700000D03*
X193033400Y-102700000D03*
D82*
X193700100Y-100700000D03*
D83*
X193950099Y-100700000D03*
D81*
X194366700Y-98700000D03*
X194366700Y-102700000D03*
X195700000Y-98700000D03*
X195700000Y-102700000D03*
X196876100Y-99082000D03*
X196876100Y-102318000D03*
X197602100Y-100082000D03*
X197602100Y-101318000D03*
%TO.P,U5,5,IP-*%
%TO.N,+BATT*%
X179798100Y-100082000D03*
X179798100Y-101318000D03*
X180524100Y-99082000D03*
X180524100Y-102318000D03*
X181700100Y-98700000D03*
X181700100Y-102700000D03*
X183033400Y-98700000D03*
X183033400Y-102700000D03*
D84*
X183450100Y-100700000D03*
D82*
X183700100Y-100700000D03*
D81*
X184366700Y-98700000D03*
X184366700Y-102700000D03*
X185700000Y-98700000D03*
X185700000Y-102700000D03*
X186876100Y-99082000D03*
X186876100Y-102318000D03*
X187602100Y-100082000D03*
X187602100Y-101318001D03*
%TD*%
D23*
%TO.P,D11,1,K*%
%TO.N,RArray3*%
X251772800Y-148321000D03*
%TO.P,D11,2,A*%
%TO.N,~{SystemKill}*%
X253522800Y-148321000D03*
%TD*%
D40*
%TO.P,R6,1*%
%TO.N,+BATT2*%
X236372400Y-108137200D03*
%TO.P,R6,2*%
%TO.N,Net-(R6-Pad2)*%
X236372400Y-106137200D03*
%TD*%
D44*
%TO.P,Q6,1,G*%
%TO.N,Batt2Gate*%
X222740701Y-125850800D03*
%TO.P,Q6,2,S*%
%TO.N,+BATTHall*%
X222740701Y-127050800D03*
%TO.P,Q6,3,S*%
X222740701Y-128250800D03*
%TO.P,Q6,4,S*%
X222740701Y-129450800D03*
%TO.P,Q6,5,S*%
X222740701Y-130650800D03*
%TO.P,Q6,6,S*%
X222740701Y-131850800D03*
%TO.P,Q6,7,S*%
X222740701Y-133050798D03*
%TO.P,Q6,8,S*%
X222740701Y-134250798D03*
D45*
%TO.P,Q6,9,D*%
%TO.N,+BATT2*%
X230790701Y-130050799D03*
%TD*%
D85*
%TO.P,R14,1*%
%TO.N,+BATT*%
X172907500Y-125310000D03*
%TO.P,R14,2*%
%TO.N,Net-(JP12-A)*%
X172907500Y-130390000D03*
D86*
%TO.P,R14,3*%
%TO.N,N/C*%
X180667500Y-127850000D03*
%TD*%
D25*
%TO.P,R3,1*%
%TO.N,-BATT1*%
X240455200Y-98196400D03*
%TO.P,R3,2*%
%TO.N,VSampleBatt1*%
X238455200Y-98196400D03*
%TD*%
D87*
%TO.P,U3,1,DS1*%
%TO.N,Net-(JP1-A)*%
X253299080Y-70787000D03*
%TO.P,U3,2,GATE1*%
%TO.N,Batt1GatePreDiv*%
X254569080Y-70787000D03*
%TO.P,U3,3,GND*%
%TO.N,-BATT1*%
X255839080Y-70787000D03*
%TO.P,U3,4,IN1*%
%TO.N,Batt1Enable*%
X257109080Y-70787000D03*
%TO.P,U3,5,IN2*%
%TO.N,Batt2Enable*%
X257109080Y-65859400D03*
%TO.P,U3,6,VS*%
%TO.N,+VregDiode*%
X255839080Y-65859400D03*
%TO.P,U3,7,GATE2*%
%TO.N,Batt2GatePreDiv*%
X254569080Y-65859400D03*
%TO.P,U3,8,DS2*%
%TO.N,Net-(JP2-B)*%
X253299080Y-65859400D03*
%TD*%
D11*
%TO.P,LED25,1,VSS*%
%TO.N,-BATT1*%
X218189248Y-52200000D03*
%TO.P,LED25,2,DIN*%
%TO.N,Net-(LED24-DOUT)*%
X214889248Y-52200000D03*
%TO.P,LED25,3,VDD*%
%TO.N,+5V*%
X218189248Y-57200000D03*
%TO.P,LED25,4,DOUT*%
%TO.N,NeoPass5*%
X214889248Y-57200000D03*
%TD*%
D66*
%TO.P,TP6,1,1*%
%TO.N,Batt2Enable*%
X256641600Y-78130400D03*
%TD*%
D88*
%TO.P,D3,1,K*%
%TO.N,-BATT1*%
X175900000Y-115375000D03*
%TO.P,D3,2,A*%
%TO.N,+BATT*%
X175900000Y-111375000D03*
%TD*%
D11*
%TO.P,LED23,1,VSS*%
%TO.N,-BATT1*%
X231032124Y-52200000D03*
%TO.P,LED23,2,DIN*%
%TO.N,Net-(LED22-DOUT)*%
X227732124Y-52200000D03*
%TO.P,LED23,3,VDD*%
%TO.N,+5V*%
X231032124Y-57200000D03*
%TO.P,LED23,4,DOUT*%
%TO.N,Net-(LED23-DOUT)*%
X227732124Y-57200000D03*
%TD*%
D20*
%TO.P,LED13,1,VSS*%
%TO.N,-BATT1*%
X233809800Y-159750000D03*
%TO.P,LED13,2,DIN*%
%TO.N,Net-(LED12-DOUT)*%
X237109800Y-159750000D03*
%TO.P,LED13,3,VDD*%
%TO.N,+5V*%
X233809800Y-154750000D03*
%TO.P,LED13,4,DOUT*%
%TO.N,Net-(LED13-DOUT)*%
X237109800Y-154750000D03*
%TD*%
D23*
%TO.P,D4,1,K*%
%TO.N,RArray6*%
X251803400Y-143215600D03*
%TO.P,D4,2,A*%
%TO.N,/Battery Control Logic/Batt2>UVP*%
X253553400Y-143215600D03*
%TD*%
D89*
%TO.P,S1,1*%
%TO.N,-BATT1*%
X232650000Y-150350000D03*
D90*
%TO.P,S1,2*%
%TO.N,Net-(D13-A)*%
X232650000Y-145650000D03*
%TO.P,S1,3*%
%TO.N,+3.3V*%
X232650000Y-140950000D03*
%TD*%
D12*
%TO.P,JP10,1,A*%
%TO.N,REF*%
X176575000Y-86850000D03*
D13*
%TO.P,JP10,2,B*%
%TO.N,+3.3V*%
X177875000Y-86850000D03*
%TD*%
D11*
%TO.P,LED19,1,VSS*%
%TO.N,-BATT1*%
X256717876Y-52200000D03*
%TO.P,LED19,2,DIN*%
%TO.N,Net-(LED18-DOUT)*%
X253417876Y-52200000D03*
%TO.P,LED19,3,VDD*%
%TO.N,+5V*%
X256717876Y-57200000D03*
%TO.P,LED19,4,DOUT*%
%TO.N,Net-(LED19-DOUT)*%
X253417876Y-57200000D03*
%TD*%
D66*
%TO.P,TP3,1,1*%
%TO.N,/Battery Control Logic/Batt1>UVP*%
X215600000Y-151100000D03*
%TD*%
D12*
%TO.P,JP15,1,A*%
%TO.N,Analog_Voltage1*%
X181400000Y-84900000D03*
D13*
%TO.P,JP15,2,B*%
%TO.N,VSampleBatt1*%
X182700000Y-84900000D03*
%TD*%
D63*
%TO.P,JP18,1,A*%
%TO.N,-BATT1*%
X168500000Y-80850000D03*
D64*
%TO.P,JP18,2,B*%
%TO.N,Net-(J7-Shield)*%
X167200000Y-80850000D03*
%TD*%
D12*
%TO.P,JP17,1,A*%
%TO.N,D{slash}A22*%
X174976000Y-65836800D03*
D13*
%TO.P,JP17,2,B*%
%TO.N,LETeensy*%
X176276000Y-65836800D03*
%TD*%
D12*
%TO.P,JP13,1,A*%
%TO.N,Dswitch2*%
X174925000Y-63125000D03*
D13*
%TO.P,JP13,2,B*%
%TO.N,KillSwitch*%
X176225000Y-63125000D03*
%TD*%
D12*
%TO.P,JP14,1,A*%
%TO.N,Analog_Current*%
X186775000Y-131525000D03*
D13*
%TO.P,JP14,2,B*%
%TO.N,ISample3.3V*%
X188075000Y-131525000D03*
%TD*%
D26*
%TO.P,JP2,1,A*%
%TO.N,Net-(JP1-A)*%
X247045600Y-70242400D03*
D27*
%TO.P,JP2,2,B*%
%TO.N,Net-(JP2-B)*%
X247045600Y-68942400D03*
%TD*%
D33*
%TO.P,R11,1*%
%TO.N,Net-(JP6-A)*%
X258850000Y-62400000D03*
%TO.P,R11,2*%
%TO.N,-BATT1*%
X258850000Y-64400000D03*
%TD*%
D20*
%TO.P,LED11,1,VSS*%
%TO.N,-BATT1*%
X220807000Y-159750000D03*
%TO.P,LED11,2,DIN*%
%TO.N,NeoPass2*%
X224107000Y-159750000D03*
%TO.P,LED11,3,VDD*%
%TO.N,+5V*%
X220807000Y-154750000D03*
%TO.P,LED11,4,DOUT*%
%TO.N,Net-(LED11-DOUT)*%
X224107000Y-154750000D03*
%TD*%
D23*
%TO.P,D10,1,K*%
%TO.N,RArray4*%
X251772800Y-146593800D03*
%TO.P,D10,2,A*%
%TO.N,/Battery Control Logic/~{GateDisable}*%
X253522800Y-146593800D03*
%TD*%
D91*
%TO.P,TH1,1*%
%TO.N,+VregDiode*%
X259517000Y-67387200D03*
%TO.P,TH1,2*%
%TO.N,Net-(JP1-A)*%
X259517000Y-69212200D03*
%TD*%
D58*
%TO.P,PM1,1,Pin_1*%
%TO.N,+VregDiode*%
X245808300Y-129907700D03*
%TO.P,PM1,2,Pin_2*%
%TO.N,-BATT1*%
X243268300Y-129907700D03*
D57*
%TO.P,PM1,3,Pin_3*%
%TO.N,+5V*%
X240728300Y-129907700D03*
%TD*%
D14*
%TO.P,U13,1*%
%TO.N,Net-(D13-A)*%
X208270000Y-140750000D03*
%TO.P,U13,2*%
%TO.N,KillSwitch*%
X208270000Y-141400000D03*
%TO.P,U13,3,GND*%
%TO.N,-BATT1*%
X208270000Y-142050000D03*
%TO.P,U13,4*%
%TO.N,~{SystemKill}*%
X210930000Y-142050000D03*
%TO.P,U13,5,VCC*%
%TO.N,+3.3V*%
X210930000Y-140750000D03*
%TD*%
D92*
%TO.P,JP12,1,A*%
%TO.N,Net-(JP12-A)*%
X168675000Y-130537500D03*
%TO.P,JP12,2,B*%
%TO.N,+BATT*%
X168675000Y-125162500D03*
%TD*%
D33*
%TO.P,R16,1*%
%TO.N,+3.3V*%
X214425000Y-100075000D03*
%TO.P,R16,2*%
%TO.N,-BATT1*%
X214425000Y-102075000D03*
%TD*%
D20*
%TO.P,LED14,1,VSS*%
%TO.N,-BATT1*%
X240311200Y-159750000D03*
%TO.P,LED14,2,DIN*%
%TO.N,Net-(LED13-DOUT)*%
X243611200Y-159750000D03*
%TO.P,LED14,3,VDD*%
%TO.N,+5V*%
X240311200Y-154750000D03*
%TO.P,LED14,4,DOUT*%
%TO.N,Net-(LED14-DOUT)*%
X243611200Y-154750000D03*
%TD*%
D11*
%TO.P,LED24,1,VSS*%
%TO.N,-BATT1*%
X224610686Y-52200000D03*
%TO.P,LED24,2,DIN*%
%TO.N,Net-(LED23-DOUT)*%
X221310686Y-52200000D03*
%TO.P,LED24,3,VDD*%
%TO.N,+5V*%
X224610686Y-57200000D03*
%TO.P,LED24,4,DOUT*%
%TO.N,Net-(LED24-DOUT)*%
X221310686Y-57200000D03*
%TD*%
D66*
%TO.P,TP5,1,1*%
%TO.N,Batt1Enable*%
X263245600Y-71678800D03*
%TD*%
D71*
%TO.P,VR2,1*%
%TO.N,+3.3V*%
X225740400Y-149565600D03*
D72*
%TO.P,VR2,2*%
%TO.N,/Battery Control Logic/OCPReference*%
X223200400Y-149565600D03*
%TO.P,VR2,3*%
%TO.N,-BATT1*%
X220660400Y-149565600D03*
%TD*%
D11*
%TO.P,LED26,1,VSS*%
%TO.N,-BATT1*%
X211767810Y-52200000D03*
%TO.P,LED26,2,DIN*%
%TO.N,NeoPass5*%
X208467810Y-52200000D03*
%TO.P,LED26,3,VDD*%
%TO.N,+5V*%
X211767810Y-57200000D03*
%TO.P,LED26,4,DOUT*%
%TO.N,Net-(LED26-DOUT)*%
X208467810Y-57200000D03*
%TD*%
D93*
%TO.N,+BATT*%
X245200000Y-64200000D03*
X245200000Y-66400000D03*
X245200000Y-70600000D03*
%TO.N,-BATT1*%
X202100000Y-145800000D03*
X200150000Y-145400000D03*
X260800000Y-135900000D03*
%TO.N,VSampleBatt2*%
X202800000Y-138600000D03*
X204800000Y-136300000D03*
%TO.N,-BATT1*%
X202179454Y-135002168D03*
X204000000Y-138900000D03*
%TO.N,Analog_Current*%
X186600000Y-129400000D03*
X183500000Y-123600000D03*
%TO.N,Batt1Gate*%
X252789915Y-73710085D03*
%TO.N,NeoPass5*%
X213200000Y-58200000D03*
X210933905Y-54666095D03*
%TO.N,Batt1Gate*%
X260572043Y-75350000D03*
%TO.N,+VregDiode*%
X256400000Y-62700000D03*
%TO.N,Batt1Gate*%
X220400000Y-77080001D03*
X224400000Y-75000000D03*
%TO.N,/Battery Control Logic/UVPReference*%
X188900000Y-124356109D03*
X191525000Y-124050000D03*
%TO.N,/Battery Control Logic/~{GateDisable}*%
X255100000Y-153500000D03*
%TO.N,~{OCPLatch}*%
X256200000Y-152900000D03*
%TO.N,Batt1Enable*%
X250400000Y-138000000D03*
%TO.N,VSampleBatt2*%
X226000000Y-101500000D03*
X217980490Y-99919510D03*
%TO.N,VSampleBatt1*%
X227600000Y-100300000D03*
%TO.N,ISample5V*%
X169800000Y-91200000D03*
%TO.N,REF*%
X182500000Y-82200000D03*
X179600000Y-83400000D03*
X183700000Y-80800000D03*
%TO.N,VSampleBatt1*%
X184200000Y-84900000D03*
X188700000Y-88000000D03*
X186100000Y-85000000D03*
%TO.N,VSampleBatt2*%
X192900000Y-89600000D03*
X190700000Y-88500000D03*
X196100000Y-91150000D03*
%TO.N,Analog_Voltage1*%
X156300000Y-52000000D03*
X177200000Y-74700000D03*
X169400000Y-60900000D03*
X168400000Y-63000000D03*
X181200000Y-76500000D03*
X173800000Y-67100000D03*
X181900000Y-80400000D03*
X176200000Y-70800000D03*
%TO.N,I2C1_SCL*%
X185877200Y-54636633D03*
%TO.N,D{slash}A20*%
X174993764Y-60402773D03*
%TO.N,Dswitch2*%
X171300000Y-61500000D03*
X174500000Y-61500000D03*
%TO.N,D{slash}A23*%
X177800000Y-69400000D03*
X177800000Y-64400000D03*
X180500000Y-80600000D03*
X177600000Y-60800000D03*
%TO.N,LETeensy*%
X175200000Y-81400000D03*
X183800000Y-110200000D03*
X173000000Y-95100000D03*
X186400000Y-110000000D03*
X175008747Y-87026829D03*
X172900000Y-99000000D03*
X196000000Y-111600000D03*
X198900000Y-129700000D03*
X197900000Y-125100000D03*
X201700000Y-130400000D03*
X178500000Y-107500000D03*
X192800000Y-111500000D03*
X177475000Y-70600000D03*
X197600000Y-120800000D03*
%TO.N,VSampleBatt2*%
X204200000Y-130500000D03*
X202800000Y-125700000D03*
%TO.N,~{SystemKill}*%
X214700000Y-143000000D03*
X213400000Y-148700000D03*
%TO.N,/Battery Control Logic/UVPReference*%
X214573250Y-144394253D03*
X210600000Y-144200000D03*
%TO.N,+3.3V*%
X209100000Y-143300000D03*
%TO.N,Batt1Enable*%
X205000000Y-149200000D03*
X217200000Y-147000000D03*
X212600000Y-144100000D03*
%TO.N,KillSwitch*%
X214079901Y-147476178D03*
X212750000Y-145350000D03*
%TO.N,Batt2Enable*%
X220590991Y-145600000D03*
%TO.N,~{OCPLatch}*%
X219393390Y-144874907D03*
X213700000Y-138200000D03*
X216200000Y-140800000D03*
X212200000Y-136800000D03*
%TO.N,~{SystemKill}*%
X205700000Y-130425000D03*
X199800000Y-130700000D03*
X209900000Y-136900000D03*
X207330571Y-131846041D03*
X197900000Y-130800000D03*
X196000000Y-130400000D03*
%TO.N,-BATT1*%
X194700000Y-139800000D03*
%TO.N,Batt1Enable*%
X238500000Y-143000000D03*
%TO.N,Batt2Enable*%
X244100000Y-143700000D03*
%TO.N,KillSwitch*%
X243100000Y-152200000D03*
X237400000Y-152400000D03*
%TO.N,/Battery Control Logic/Batt1>UVP*%
X236000000Y-150800000D03*
%TO.N,~{OCPLatch}*%
X236800000Y-148200000D03*
%TO.N,/Battery Control Logic/~{GateDisable}*%
X245200000Y-151800000D03*
X249300000Y-151800000D03*
X236200000Y-152000000D03*
X199500000Y-140100000D03*
X205800000Y-139100000D03*
%TO.N,Batt2Enable*%
X212457658Y-150939190D03*
%TO.N,/Battery Control Logic/OCPReference*%
X188800000Y-144000000D03*
X194100000Y-137400000D03*
X186800000Y-146000000D03*
%TO.N,/Battery Control Logic/UVPReference*%
X199700000Y-142000000D03*
X195300000Y-131700000D03*
X198200000Y-136100000D03*
X201700000Y-142300000D03*
%TO.N,VSampleBatt1*%
X195100000Y-132900000D03*
X193730524Y-126532481D03*
X194600000Y-135800000D03*
D94*
%TO.N,+3.3V*%
X204300000Y-126100000D03*
D93*
%TO.N,Net-(U7-2D)*%
X193900000Y-147400000D03*
X206300000Y-149300000D03*
%TO.N,+3.3V*%
X193112527Y-148557537D03*
X197100000Y-150100000D03*
%TO.N,KillSwitch*%
X206000000Y-135000000D03*
%TO.N,/Battery Control Logic/~{GateDisable}*%
X218912233Y-143560185D03*
X213500000Y-139800000D03*
X217617698Y-141061457D03*
X211300000Y-137900000D03*
%TO.N,/Battery Control Logic/OCPReference*%
X196300000Y-134800000D03*
X196504723Y-125214932D03*
X196300000Y-132900000D03*
%TO.N,ISample3.3V*%
X191500000Y-134000000D03*
%TO.N,/Battery Control Logic/~{GateDisable}*%
X192296863Y-146132344D03*
%TO.N,-BATT1*%
X189500000Y-129500000D03*
%TO.N,/Battery Control Logic/Batt1>UVP*%
X195900000Y-144300000D03*
X201800000Y-144400000D03*
%TO.N,/Battery Control Logic/VBatt1<VBatt2*%
X191300000Y-147800000D03*
X197479000Y-146658999D03*
%TO.N,Net-(JP22-A)*%
X204300000Y-152300000D03*
X203600000Y-149800000D03*
%TO.N,-BATT1*%
X188000000Y-149500000D03*
%TO.N,Net-(U7-2C)*%
X201000000Y-148900000D03*
X197500000Y-148000000D03*
%TO.N,+3.3V*%
X200300000Y-150000000D03*
X207600000Y-146000000D03*
X203421559Y-147115714D03*
X206404074Y-143195926D03*
%TO.N,/Battery Control Logic/Batt2>UVP*%
X206437776Y-141655956D03*
X209602458Y-145350090D03*
X216949560Y-148377421D03*
%TO.N,VSampleBatt1*%
X205200000Y-143300000D03*
X194522519Y-143801716D03*
%TO.N,+3.3V*%
X213518816Y-141975000D03*
%TO.N,Net-(D13-A)*%
X209200000Y-139700000D03*
X212300000Y-139800000D03*
%TO.N,-BATT1*%
X208219046Y-142475000D03*
%TO.N,VSampleBatt2*%
X205075000Y-141335254D03*
X194476051Y-142402485D03*
%TO.N,-BATT1*%
X202700000Y-132645000D03*
%TO.N,~{OCPLatch}*%
X208500000Y-133600000D03*
X206375000Y-132869218D03*
%TO.N,-BATT1*%
X207560952Y-136605685D03*
X202179454Y-135002168D03*
%TO.N,/Battery Control Logic/~{OCP}*%
X200300000Y-134600000D03*
X198400000Y-134600000D03*
%TO.N,-BATT1*%
X237900000Y-131542700D03*
%TO.N,Batt1Enable*%
X247000000Y-140400000D03*
%TO.N,Batt2Enable*%
X254500000Y-135800000D03*
X257500000Y-132600000D03*
X255500000Y-131600000D03*
X251800000Y-128400000D03*
X256800000Y-124700000D03*
%TO.N,-BATT1*%
X256000000Y-54000000D03*
%TO.N,Net-(LED17-DOUT)*%
X264000000Y-99500000D03*
%TO.N,Batt1Enable*%
X259800000Y-109300000D03*
X258609685Y-121309685D03*
%TO.N,Batt2Enable*%
X260702400Y-108100000D03*
%TO.N,Batt1Enable*%
X225000000Y-145300000D03*
%TO.N,Batt2Enable*%
X223700000Y-146200000D03*
%TO.N,~{OCPLatch}*%
X225100000Y-147200000D03*
%TO.N,Batt2Enable*%
X228000000Y-145700000D03*
%TO.N,Batt1Enable*%
X241300000Y-141400000D03*
%TO.N,/Battery Control Logic/Batt2>UVP*%
X238200000Y-145201777D03*
%TO.N,Batt2Enable*%
X237000000Y-143700084D03*
X234900000Y-143800000D03*
%TO.N,Batt1Enable*%
X234000000Y-142900000D03*
%TO.N,Net-(D13-A)*%
X226625000Y-142225000D03*
%TO.N,Batt1Enable*%
X229800000Y-143150000D03*
%TO.N,~{OCPLatch}*%
X230400000Y-148700000D03*
%TO.N,/Battery Control Logic/Batt2>UVP*%
X231300000Y-147400000D03*
X228200000Y-147600000D03*
X220300000Y-148200000D03*
X224600000Y-148300000D03*
%TO.N,Batt1Enable*%
X222000000Y-144700000D03*
%TO.N,/Battery Control Logic/Batt1>UVP*%
X221500000Y-150700000D03*
X218100000Y-151900000D03*
%TO.N,/Battery Control Logic/OCPReference*%
X219500000Y-153300000D03*
%TO.N,Net-(LED12-DOUT)*%
X234079900Y-156720100D03*
%TO.N,Net-(LED13-DOUT)*%
X240830600Y-156969400D03*
%TO.N,Net-(LED14-DOUT)*%
X247282600Y-156920000D03*
%TO.N,Net-(LED16-DOUT)*%
X259915400Y-156550000D03*
%TO.N,Net-(LED17-DOUT)*%
X264025000Y-154525000D03*
%TO.N,Batt2Enable*%
X260000000Y-120400000D03*
%TO.N,Net-(LED11-DOUT)*%
X227000000Y-156900000D03*
%TO.N,~{SystemKill}*%
X180239683Y-73343042D03*
X182600000Y-76600000D03*
X185100000Y-92800000D03*
X185200000Y-87875000D03*
%TO.N,/Battery Control Logic/UVPReference*%
X189045000Y-97408200D03*
%TO.N,KillSwitch*%
X186632800Y-63554922D03*
%TO.N,D{slash}A20*%
X180600000Y-64700000D03*
X180848000Y-62382400D03*
%TO.N,D{slash}A21*%
X182123200Y-62123200D03*
X181834000Y-64500000D03*
%TO.N,toNEO_CTRL_Orin*%
X184000000Y-61800000D03*
X183161400Y-64238600D03*
%TO.N,+BATT*%
X190100000Y-93977401D03*
%TO.N,ISample3.3V*%
X156550000Y-104150000D03*
X155400000Y-110000000D03*
X155200000Y-115100000D03*
%TO.N,/Battery Control Logic/~{GateDisable}*%
X176400000Y-121400000D03*
%TO.N,ISample3.3V*%
X180625000Y-134000000D03*
%TO.N,/Battery Control Logic/~{OCP}*%
X183300000Y-122356595D03*
%TO.N,+5V*%
X182676800Y-120091200D03*
%TO.N,ISample5V*%
X183800000Y-105300000D03*
X186200000Y-105300000D03*
%TO.N,~{SystemKill}*%
X183800000Y-107696000D03*
%TO.N,ISample3.3V*%
X165800000Y-119600000D03*
%TO.N,Analog_Current*%
X166100000Y-118425000D03*
%TO.N,I2C1_SDA*%
X176678544Y-73400735D03*
X172800000Y-79800000D03*
%TO.N,I2C1_SCL*%
X185877200Y-67800000D03*
X165800000Y-83300000D03*
X179800000Y-68200000D03*
X174955756Y-75032731D03*
X172800000Y-75900000D03*
X167800000Y-83000000D03*
%TO.N,~{OCPLatch}*%
X180000000Y-70900000D03*
X198900000Y-120300000D03*
X183900000Y-109000000D03*
X174100000Y-96100000D03*
X183000000Y-68925000D03*
X193800000Y-118900000D03*
X197825000Y-118800000D03*
X179466896Y-106726462D03*
X175725000Y-76810863D03*
X186542825Y-108607302D03*
X174100000Y-90500000D03*
X173800479Y-81436733D03*
X174200000Y-97700000D03*
D94*
%TO.N,+3.3V*%
X206900000Y-113900000D03*
D93*
%TO.N,VSampleBatt2*%
X210900000Y-98200000D03*
X206600000Y-104300000D03*
%TO.N,VSampleBatt1*%
X205400000Y-104200000D03*
%TO.N,KillSwitch*%
X208200000Y-107700000D03*
%TO.N,-BATT1*%
X216000000Y-102000000D03*
%TO.N,I2C1_SDA*%
X205800000Y-90400000D03*
%TO.N,VSampleBatt1*%
X205500000Y-93000000D03*
%TO.N,VSampleBatt2*%
X206600000Y-92000000D03*
X206773298Y-98779803D03*
%TO.N,KillSwitch*%
X210663379Y-92963379D03*
%TO.N,I2C1_SDA*%
X191300000Y-86700000D03*
%TO.N,+VregDiode*%
X243100000Y-70200000D03*
%TO.N,-BATT1*%
X253200000Y-68300000D03*
X257500000Y-79800000D03*
%TO.N,Batt2Enable*%
X262100000Y-80600000D03*
X263500000Y-81900000D03*
%TO.N,Net-(LED17-DOUT)*%
X264000000Y-83000000D03*
%TO.N,Batt2Enable*%
X256789358Y-74180350D03*
X256700000Y-69000000D03*
X258400000Y-66000000D03*
X255200000Y-67600000D03*
%TO.N,NeoPass4*%
X245700000Y-57900000D03*
%TO.N,/Battery Control Logic/~{GateDisable}*%
X158700000Y-101200000D03*
%TO.N,toNEO_CTRL_Orin*%
X159200000Y-97700000D03*
%TO.N,ISample3.3V*%
X159600000Y-98900000D03*
%TO.N,/Battery Control Logic/~{GateDisable}*%
X156300000Y-102900000D03*
X159200000Y-113300000D03*
X159050000Y-114500000D03*
%TO.N,/Battery Control Logic/~{OCP}*%
X159900000Y-116500000D03*
X165775000Y-116975000D03*
%TO.N,ISample3.3V*%
X159900000Y-119300000D03*
%TO.N,-BATT1*%
X240900000Y-149600000D03*
%TO.N,~{OCPLatch}*%
X238800000Y-150500000D03*
%TO.N,/Battery Control Logic/Batt1>UVP*%
X238100000Y-149000000D03*
X253437039Y-136711110D03*
%TO.N,Batt2Enable*%
X255000000Y-140300000D03*
%TO.N,/Battery Control Logic/Batt2>UVP*%
X254900000Y-143200000D03*
X247800000Y-144780000D03*
%TO.N,Batt2Enable*%
X247900000Y-143400000D03*
%TO.N,/Battery Control Logic/Batt1>UVP*%
X249500000Y-141281884D03*
%TO.N,~{SystemKill}*%
X179500000Y-96300000D03*
%TO.N,ISample5V*%
X170332400Y-94030800D03*
%TO.N,-BATT1*%
X241249200Y-99872800D03*
%TO.N,toNEO_CTRL_Orin*%
X184044568Y-75162585D03*
X179634625Y-76200000D03*
%TO.N,-BATT1*%
X179158598Y-82042263D03*
X245313200Y-53594000D03*
X192735200Y-53848000D03*
X206298800Y-53797200D03*
X186650000Y-157800000D03*
X262548752Y-132740716D03*
X255686170Y-72231848D03*
X199700000Y-157800000D03*
X219150000Y-157900000D03*
X257296260Y-63775512D03*
X180150000Y-157700000D03*
D94*
X260100000Y-144900000D03*
D93*
X245200000Y-157950000D03*
X219151200Y-53898800D03*
X193100000Y-157950000D03*
X173750000Y-157850000D03*
X160700000Y-157750000D03*
X238963200Y-53695600D03*
X242350000Y-67500000D03*
X251650000Y-157850000D03*
X155350000Y-157800000D03*
X206250000Y-157900000D03*
X232410000Y-53695600D03*
X238750000Y-157900000D03*
X225755200Y-53746400D03*
X169637400Y-80337400D03*
X232200000Y-157950000D03*
D94*
X177100000Y-118075000D03*
D93*
X207778633Y-103544466D03*
X212700000Y-157950000D03*
X251561600Y-53746400D03*
X212547200Y-53746400D03*
X167200000Y-157850000D03*
X225750000Y-158000000D03*
X199440800Y-53848000D03*
X258200000Y-158000000D03*
%TO.N,+VregDiode*%
X242468400Y-72034400D03*
X252049400Y-64318400D03*
D94*
%TO.N,+5V*%
X262237500Y-54837500D03*
D95*
%TO.N,+3.3V*%
X196164430Y-88710570D03*
D93*
X169028209Y-86885316D03*
X173974825Y-87970762D03*
D95*
X205740000Y-89000000D03*
D93*
%TO.N,ISample5V*%
X180126357Y-105617625D03*
X177840505Y-95104356D03*
%TO.N,+BATT*%
X186752500Y-94529252D03*
%TO.N,/Battery Control Logic/Batt2>UVP*%
X236020496Y-147129504D03*
X244690110Y-144969558D03*
%TO.N,Batt2Enable*%
X260502400Y-103378000D03*
X231050000Y-144100000D03*
%TO.N,Batt1Enable*%
X260604000Y-73152000D03*
X251866400Y-135432800D03*
X248650000Y-140175000D03*
X251206000Y-130403600D03*
X227560084Y-144560084D03*
X255948715Y-125748315D03*
%TO.N,~{OCPLatch}*%
X199698400Y-125222870D03*
X227225000Y-146675000D03*
%TO.N,/Battery Control Logic/~{OCP}*%
X185900000Y-126300000D03*
%TO.N,/Battery Control Logic/~{GateDisable}*%
X156500000Y-111500000D03*
X175941185Y-123780629D03*
X167176582Y-116135127D03*
%TO.N,~{SystemKill}*%
X195030289Y-125048190D03*
X186464706Y-107209480D03*
X194815665Y-120843706D03*
X181340109Y-106825000D03*
%TO.N,I2C1_SCL*%
X208846886Y-91450360D03*
X194325000Y-87125000D03*
%TO.N,I2C1_SDA*%
X184354525Y-54333351D03*
%TO.N,VSampleBatt1*%
X195986858Y-92545423D03*
X205942819Y-97652723D03*
X215200000Y-97300000D03*
X211579494Y-96975952D03*
%TO.N,/Battery Control Logic/OCPReference*%
X196310018Y-121344015D03*
%TO.N,/Battery Control Logic/UVPReference*%
X188122252Y-104294811D03*
%TO.N,Net-(JP1-A)*%
X259854174Y-70215994D03*
X253299080Y-70787000D03*
%TO.N,Batt2Gate*%
X244400000Y-97688400D03*
X236880400Y-98755200D03*
%TO.N,ISample3.3V*%
X188075000Y-131525000D03*
X189975000Y-131200000D03*
X191541988Y-129175996D03*
%TO.N,KillSwitch*%
X183909600Y-63222457D03*
X198025000Y-78475000D03*
%TO.N,Analog_Current*%
X160125000Y-118050000D03*
%TO.N,Net-(LED1-DOUT)*%
X160470000Y-154940000D03*
X162384900Y-156984900D03*
%TO.N,Net-(LED2-DOUT)*%
X166697239Y-154727239D03*
X169110000Y-157060000D03*
%TO.N,toNEO_CTRL_Orin*%
X155909426Y-100820217D03*
%TO.N,Net-(LED3-DOUT)*%
X172851409Y-154574470D03*
X175080000Y-156660000D03*
%TO.N,Net-(LED4-DOUT)*%
X182180000Y-157010000D03*
X179175286Y-154603392D03*
%TO.N,Net-(LED6-DOUT)*%
X192595198Y-154483481D03*
X194710000Y-156680000D03*
%TO.N,Net-(LED10-DIN)*%
X212410000Y-154740000D03*
X214330000Y-156710000D03*
%TO.N,Net-(LED13-DOUT)*%
X238500000Y-154790000D03*
%TO.N,Net-(LED14-DOUT)*%
X245010000Y-154640000D03*
%TO.N,Net-(LED16-DOUT)*%
X257870000Y-154670000D03*
%TO.N,Net-(LED17-DOUT)*%
X261700000Y-51650000D03*
%TO.N,Net-(LED18-DOUT)*%
X258572000Y-57404000D03*
X256794000Y-55372000D03*
%TO.N,Net-(LED19-DOUT)*%
X250317000Y-55372000D03*
X252656879Y-57930489D03*
%TO.N,Net-(LED21-DOUT)*%
X239064800Y-57404000D03*
X237236000Y-55270400D03*
%TO.N,Net-(LED26-DOUT)*%
X205232000Y-55473600D03*
X207010000Y-57454800D03*
%TO.N,Net-(LED27-DOUT)*%
X200558400Y-57302400D03*
X197947000Y-55453000D03*
%TO.N,Net-(LED28-DOUT)*%
X194208400Y-57251600D03*
X191458730Y-55323445D03*
%TO.N,Net-(D13-A)*%
X224625000Y-142175000D03*
%TO.N,NeoPass1*%
X188500000Y-157010000D03*
X186194339Y-154734339D03*
%TO.N,Net-(LED7-DOUT)*%
X199470000Y-154840000D03*
X201941066Y-157033056D03*
%TO.N,Net-(LED8-DOUT)*%
X208455226Y-157066096D03*
X205960000Y-154970000D03*
%TO.N,NeoPass2*%
X218700000Y-154840000D03*
X220800000Y-156630000D03*
%TO.N,Net-(LED11-DOUT)*%
X225420000Y-154660000D03*
%TO.N,Net-(LED12-DOUT)*%
X231870000Y-154810000D03*
%TO.N,NeoPass3*%
X251400000Y-154670000D03*
X253240000Y-156710000D03*
%TO.N,NeoPass4*%
X243535200Y-55160200D03*
%TO.N,Net-(LED22-DOUT)*%
X232613200Y-57302400D03*
X230649011Y-54661791D03*
%TO.N,Net-(LED23-DOUT)*%
X226161600Y-57353200D03*
X223926400Y-55676800D03*
%TO.N,Net-(LED24-DOUT)*%
X218033600Y-55422800D03*
X219760800Y-57404000D03*
%TD*%
D96*
%TO.N,Batt1Enable*%
X257109080Y-70787000D02*
X258239000Y-70787000D01*
X258239000Y-70787000D02*
X260604000Y-73152000D01*
D97*
X204195000Y-148395000D02*
X203350000Y-148395000D01*
X203350000Y-148395000D02*
X201375000Y-150370000D01*
X201375000Y-150370000D02*
X201375000Y-151125000D01*
%TO.N,+VregDiode*%
X258876860Y-98371400D02*
X262800000Y-94448260D01*
X243685900Y-64276891D02*
X243685900Y-61736900D01*
X244734009Y-65325000D02*
X243685900Y-64276891D01*
X243586000Y-69655197D02*
X243586000Y-66473009D01*
X246600696Y-92456000D02*
X252516096Y-98371400D01*
%TO.N,Batt1Gate*%
X224608501Y-66779801D02*
X224608501Y-66179801D01*
X244134009Y-71125000D02*
X244569093Y-71560084D01*
X242291852Y-70700000D02*
X242716852Y-71125000D01*
X235627400Y-64127400D02*
X242200000Y-70700000D01*
X224608501Y-66179801D02*
X226660902Y-64127400D01*
X226660902Y-64127400D02*
X235627400Y-64127400D01*
%TO.N,+VregDiode*%
X246817200Y-65325000D02*
X247045600Y-65096600D01*
X262800000Y-89066792D02*
X245908208Y-72175000D01*
%TO.N,Batt1Gate*%
X244569093Y-71560084D02*
X250639914Y-71560084D01*
D96*
%TO.N,+BATT*%
X245694320Y-63705680D02*
X245200000Y-64200000D01*
D97*
%TO.N,+VregDiode*%
X244734009Y-65325000D02*
X246817200Y-65325000D01*
%TO.N,Batt1Gate*%
X242200000Y-70700000D02*
X242291852Y-70700000D01*
%TO.N,+VregDiode*%
X252516096Y-98371400D02*
X258876860Y-98371400D01*
%TO.N,Batt1Gate*%
X242716852Y-71125000D02*
X244134009Y-71125000D01*
X250639914Y-71560084D02*
X252789915Y-73710085D01*
D96*
%TO.N,+BATT*%
X245694320Y-60500000D02*
X245694320Y-63705680D01*
D97*
%TO.N,+VregDiode*%
X245908208Y-72175000D02*
X242609000Y-72175000D01*
X262800000Y-94448260D02*
X262800000Y-89066792D01*
X243586000Y-66473009D02*
X244734009Y-65325000D01*
X243100000Y-70141197D02*
X243586000Y-69655197D01*
X243685900Y-61736900D02*
X240963100Y-61736900D01*
X243100000Y-70200000D02*
X243100000Y-70141197D01*
X242609000Y-72175000D02*
X242468400Y-72034400D01*
D96*
%TO.N,+BATT*%
X245200000Y-66400000D02*
X245200000Y-70600000D01*
D97*
%TO.N,/Battery Control Logic/Batt2>UVP*%
X200875000Y-144783148D02*
X200875000Y-144534009D01*
X202334400Y-140349280D02*
X203321000Y-140349280D01*
X200625000Y-142058680D02*
X202334400Y-140349280D01*
X201175000Y-146050000D02*
X201175000Y-145083148D01*
X197034009Y-149125000D02*
X199466852Y-149125000D01*
D98*
%TO.N,-BATT1*%
X206019999Y-148050000D02*
X206320000Y-147749999D01*
D97*
%TO.N,/Battery Control Logic/Batt2>UVP*%
X201175000Y-145083148D02*
X200875000Y-144783148D01*
X200600000Y-146625000D02*
X201175000Y-146050000D01*
X200600000Y-147991852D02*
X200600000Y-146625000D01*
X199466852Y-149125000D02*
X200600000Y-147991852D01*
X196809009Y-148900000D02*
X197034009Y-149125000D01*
X195627350Y-148900000D02*
X196809009Y-148900000D01*
D98*
%TO.N,-BATT1*%
X206320000Y-146481544D02*
X205638456Y-145800000D01*
D97*
%TO.N,/Battery Control Logic/Batt2>UVP*%
X200625000Y-144284009D02*
X200625000Y-142058680D01*
D98*
%TO.N,-BATT1*%
X206320000Y-147749999D02*
X206320000Y-146481544D01*
D97*
%TO.N,/Battery Control Logic/Batt2>UVP*%
X200875000Y-144534009D02*
X200625000Y-144284009D01*
D98*
%TO.N,-BATT1*%
X205638456Y-145800000D02*
X202100000Y-145800000D01*
X205270000Y-148050000D02*
X206019999Y-148050000D01*
D97*
X262459999Y-137111100D02*
X262011100Y-137111100D01*
X262011100Y-137111100D02*
X260800000Y-135900000D01*
%TO.N,VSampleBatt2*%
X202800000Y-138600000D02*
X202800000Y-138300000D01*
X202800000Y-138300000D02*
X204800000Y-136300000D01*
%TO.N,/Battery Control Logic/Batt2>UVP*%
X205152387Y-139975000D02*
X205483148Y-139975000D01*
X203321000Y-140349280D02*
X204778107Y-140349280D01*
%TO.N,KillSwitch*%
X207562776Y-141400000D02*
X206725000Y-140562224D01*
%TO.N,/Battery Control Logic/Batt2>UVP*%
X206437776Y-140929628D02*
X206437776Y-141655956D01*
%TO.N,KillSwitch*%
X206725000Y-137984090D02*
X205725000Y-136984090D01*
X206725000Y-140562224D02*
X206725000Y-137984090D01*
X205725000Y-135275000D02*
X206000000Y-135000000D01*
%TO.N,/Battery Control Logic/Batt2>UVP*%
X204778107Y-140349280D02*
X205152387Y-139975000D01*
%TO.N,VSampleBatt2*%
X204760494Y-141649760D02*
X205075000Y-141335254D01*
%TO.N,/Battery Control Logic/~{GateDisable}*%
X205800000Y-139100000D02*
X205475000Y-139425000D01*
%TO.N,KillSwitch*%
X205725000Y-136984090D02*
X205725000Y-135275000D01*
%TO.N,/Battery Control Logic/~{GateDisable}*%
X200175000Y-139425000D02*
X199500000Y-140100000D01*
X202034009Y-139425000D02*
X200175000Y-139425000D01*
X204665991Y-139825000D02*
X202434009Y-139825000D01*
%TO.N,VSampleBatt2*%
X203321000Y-141649760D02*
X204760494Y-141649760D01*
%TO.N,/Battery Control Logic/~{GateDisable}*%
X205065991Y-139425000D02*
X204665991Y-139825000D01*
X205475000Y-139425000D02*
X205065991Y-139425000D01*
X202434009Y-139825000D02*
X202034009Y-139425000D01*
%TO.N,KillSwitch*%
X208270000Y-141400000D02*
X207562776Y-141400000D01*
%TO.N,/Battery Control Logic/Batt2>UVP*%
X205483148Y-139975000D02*
X206437776Y-140929628D01*
D98*
%TO.N,-BATT1*%
X240284000Y-151205999D02*
X240284000Y-150406001D01*
D97*
%TO.N,Analog_Current*%
X186775000Y-131525000D02*
X186775000Y-129575000D01*
X186775000Y-129575000D02*
X186600000Y-129400000D01*
X183050000Y-124050000D02*
X182000000Y-124050000D01*
X182000000Y-124050000D02*
X177240387Y-124050000D01*
X183500000Y-123600000D02*
X183050000Y-124050000D01*
%TO.N,/Battery Control Logic/~{OCP}*%
X185550000Y-131729233D02*
X185550000Y-126650000D01*
X185550000Y-126650000D02*
X185900000Y-126300000D01*
X196775000Y-133875000D02*
X197500000Y-134600000D01*
X186738569Y-132917802D02*
X193007508Y-132917802D01*
X193964706Y-133875000D02*
X196775000Y-133875000D01*
X185550000Y-131729233D02*
X186738569Y-132917802D01*
X193007508Y-132917802D02*
X193964706Y-133875000D01*
%TO.N,NeoPass4*%
X243535200Y-55160200D02*
X240575000Y-52200000D01*
%TO.N,/Battery Control Logic/OCPReference*%
X187920000Y-92565000D02*
X187920000Y-97000000D01*
X188823100Y-98494448D02*
X187920000Y-97591348D01*
X188823100Y-102561908D02*
X188823100Y-98494448D01*
X187920000Y-97591348D02*
X187920000Y-97000000D01*
D96*
%TO.N,VSampleBatt1*%
X215200000Y-97300000D02*
X211903542Y-97300000D01*
X211903542Y-97300000D02*
X211579494Y-96975952D01*
D97*
%TO.N,Net-(LED27-DOUT)*%
X200660800Y-57200000D02*
X202046372Y-57200000D01*
X200558400Y-57302400D02*
X200660800Y-57200000D01*
X197947000Y-55453000D02*
X195624934Y-53130934D01*
X195624934Y-53130934D02*
X195624934Y-52200000D01*
%TO.N,NeoPass5*%
X214889248Y-57200000D02*
X214200000Y-57200000D01*
X214200000Y-57200000D02*
X213200000Y-58200000D01*
X210933905Y-54666095D02*
X208467810Y-52200000D01*
D99*
%TO.N,+5V*%
X218189248Y-57200000D02*
X217200000Y-57200000D01*
X217200000Y-57200000D02*
X215700000Y-55700000D01*
X215700000Y-55700000D02*
X213225522Y-55700000D01*
X213225522Y-55700000D02*
X211767810Y-57157712D01*
X224610686Y-57200000D02*
X223461116Y-57200000D01*
X221661116Y-55400000D02*
X219926322Y-55400000D01*
X223461116Y-57200000D02*
X221661116Y-55400000D01*
X219926322Y-55400000D02*
X218189248Y-57137074D01*
D97*
%TO.N,Net-(LED22-DOUT)*%
X230193915Y-54661791D02*
X230649011Y-54661791D01*
D99*
%TO.N,+5V*%
X231032124Y-56400000D02*
X231732124Y-55700000D01*
D97*
%TO.N,Net-(LED22-DOUT)*%
X227732124Y-52200000D02*
X230193915Y-54661791D01*
D99*
%TO.N,+5V*%
X231032124Y-57200000D02*
X231032124Y-56400000D01*
X231732124Y-55700000D02*
X235453562Y-55700000D01*
X231032124Y-57200000D02*
X229900000Y-57200000D01*
X229900000Y-57200000D02*
X228400000Y-55700000D01*
X228400000Y-55700000D02*
X225976322Y-55700000D01*
X225976322Y-55700000D02*
X224610686Y-57065636D01*
D97*
%TO.N,-BATT1*%
X258850000Y-64400000D02*
X257920748Y-64400000D01*
%TO.N,+VregDiode*%
X256400000Y-62700000D02*
X255816500Y-62700000D01*
%TO.N,-BATT1*%
X257920748Y-64400000D02*
X257296260Y-63775512D01*
%TO.N,+VregDiode*%
X255816500Y-62700000D02*
X255425700Y-63090800D01*
%TO.N,Batt1Gate*%
X220400000Y-86185702D02*
X222740701Y-88526402D01*
X220400000Y-86185702D02*
X220400000Y-77080001D01*
X220400000Y-77080001D02*
X217355901Y-77080001D01*
X224608501Y-74591499D02*
X224400000Y-74800000D01*
X224400000Y-74800000D02*
X224400000Y-75000000D01*
%TO.N,/Battery Control Logic/UVPReference*%
X188900000Y-124356109D02*
X185919713Y-124356109D01*
X185919713Y-124356109D02*
X184825100Y-123261496D01*
X184825100Y-123261496D02*
X184825100Y-105704931D01*
X184825100Y-105704931D02*
X184771800Y-105651631D01*
X184771800Y-105651631D02*
X184771800Y-104837121D01*
X184771800Y-104837121D02*
X185314110Y-104294811D01*
X185314110Y-104294811D02*
X188122252Y-104294811D01*
%TO.N,ISample5V*%
X190610100Y-122099999D02*
X190025000Y-122685099D01*
X190025000Y-122685099D02*
X190025000Y-125537500D01*
%TO.N,/Battery Control Logic/UVPReference*%
X194655524Y-127469476D02*
X194655524Y-126149333D01*
X195300000Y-131700000D02*
X194325000Y-130725000D01*
X194325000Y-130725000D02*
X194325000Y-127800000D01*
X194325000Y-127800000D02*
X194655524Y-127469476D01*
X194655524Y-126149333D02*
X192556191Y-124050000D01*
X192556191Y-124050000D02*
X191525000Y-124050000D01*
%TO.N,Net-(JP25-B)*%
X202725000Y-135947613D02*
X203800000Y-134872613D01*
X203800000Y-134872613D02*
X203800000Y-134250000D01*
X201394713Y-137977900D02*
X202725000Y-136647613D01*
%TO.N,+3.3V*%
X206595496Y-134004504D02*
X209150000Y-131450000D01*
X203175000Y-136834009D02*
X203175000Y-136334009D01*
X205504505Y-134004504D02*
X206595496Y-134004504D01*
X203175000Y-136334009D02*
X205504505Y-134004504D01*
%TO.N,Net-(JP25-B)*%
X201249999Y-137977900D02*
X201394713Y-137977900D01*
%TO.N,+3.3V*%
X201775000Y-138234009D02*
X203175000Y-136834009D01*
X200600000Y-137977900D02*
X200600000Y-138812100D01*
X209150000Y-131450000D02*
X209150000Y-130800000D01*
X200675000Y-138887100D02*
X201676504Y-138887100D01*
X201676504Y-138887100D02*
X201775000Y-138788604D01*
X201775000Y-138788604D02*
X201775000Y-138234009D01*
%TO.N,Net-(JP25-B)*%
X202725000Y-136647613D02*
X202725000Y-135947613D01*
%TO.N,+3.3V*%
X200600000Y-138812100D02*
X200675000Y-138887100D01*
%TO.N,Net-(JP27-B)*%
X206175000Y-136797694D02*
X207477306Y-138100000D01*
X207870000Y-135200000D02*
X207120001Y-135200000D01*
X207120001Y-135200000D02*
X206175000Y-136145001D01*
%TO.N,-BATT1*%
X207560952Y-136159048D02*
X207560952Y-136605685D01*
X207870000Y-135850000D02*
X207560952Y-136159048D01*
%TO.N,Net-(JP27-B)*%
X207477306Y-138100000D02*
X208650000Y-138100000D01*
X206175000Y-136145001D02*
X206175000Y-136797694D01*
%TO.N,/Battery Control Logic/~{GateDisable}*%
X253522800Y-146593800D02*
X255200000Y-148271000D01*
X255200000Y-148271000D02*
X255200000Y-153400000D01*
X255200000Y-153400000D02*
X255100000Y-153500000D01*
%TO.N,~{OCPLatch}*%
X255925000Y-147277600D02*
X255925000Y-152625000D01*
X255925000Y-152625000D02*
X256200000Y-152900000D01*
D98*
%TO.N,Net-(D7-K)*%
X242400000Y-143520400D02*
X243373600Y-142546800D01*
X243373600Y-142546800D02*
X246990866Y-142546800D01*
X250555616Y-139408784D02*
X251803400Y-138161000D01*
X246990866Y-142546800D02*
X247205066Y-142332600D01*
X247205066Y-142332600D02*
X249811875Y-142332600D01*
X249811875Y-142332600D02*
X250555616Y-141588859D01*
X250555616Y-141588859D02*
X250555616Y-139408784D01*
D97*
%TO.N,Batt1Enable*%
X249163902Y-140175000D02*
X250400000Y-138938902D01*
X250400000Y-138938902D02*
X250400000Y-138000000D01*
D100*
%TO.N,+5V*%
X251996400Y-132203600D02*
X242665062Y-132203600D01*
X242665062Y-132203600D02*
X242569162Y-132107700D01*
D97*
%TO.N,Batt2Gate*%
X222740701Y-102539800D02*
X224445969Y-102539800D01*
X224445969Y-102539800D02*
X225074600Y-103168431D01*
X224253084Y-102346916D02*
X225074600Y-103168431D01*
X223649669Y-101743501D02*
X223537000Y-101743501D01*
X223553800Y-101647631D02*
X224253084Y-102346916D01*
X224253084Y-102346916D02*
X223649669Y-101743501D01*
X223240251Y-102040251D02*
X222740701Y-102539800D01*
X223537000Y-101743501D02*
X223240251Y-102040251D01*
X226525302Y-98755200D02*
X236880400Y-98755200D01*
X223240251Y-102040251D02*
X226525302Y-98755200D01*
D98*
%TO.N,VSampleBatt2*%
X226162603Y-101337397D02*
X226000000Y-101500000D01*
X226162603Y-101337397D02*
X235518997Y-101337397D01*
D96*
X217980490Y-99919510D02*
X216314580Y-98253600D01*
D98*
%TO.N,VSampleBatt1*%
X228094116Y-100794116D02*
X227600000Y-100300000D01*
X228094116Y-100794116D02*
X236557484Y-100794116D01*
D97*
%TO.N,Net-(J9-Pin_1)*%
X160274000Y-89183350D02*
X161532400Y-87924950D01*
X161532400Y-87924950D02*
X163860250Y-87924950D01*
X163860250Y-87924950D02*
X165700000Y-86085200D01*
X165700000Y-86085200D02*
X166624000Y-86085200D01*
%TO.N,ISample5V*%
X170100000Y-90900000D02*
X170100000Y-90077500D01*
X169800000Y-91200000D02*
X170100000Y-90900000D01*
X171102500Y-89075000D02*
X171857500Y-89075000D01*
X170100000Y-90077500D02*
X171102500Y-89075000D01*
%TO.N,I2C1_SDA*%
X170375000Y-82225000D02*
X172800000Y-79800000D01*
X168038323Y-89183350D02*
X170375000Y-86846673D01*
X163273999Y-89183350D02*
X168038323Y-89183350D01*
%TO.N,LETeensy*%
X175200000Y-81400000D02*
X175250000Y-81450000D01*
%TO.N,I2C1_SDA*%
X170375000Y-86846673D02*
X170375000Y-82225000D01*
%TO.N,~{OCPLatch}*%
X174100000Y-90500000D02*
X173015991Y-89415991D01*
X173015991Y-87338604D02*
X173675000Y-86679595D01*
X173015991Y-89415991D02*
X173015991Y-87338604D01*
X173675000Y-81562212D02*
X173800479Y-81436733D01*
%TO.N,+3.3V*%
X180388500Y-89363500D02*
X175367563Y-89363500D01*
X175367563Y-89363500D02*
X173974825Y-87970762D01*
%TO.N,toNEO_CTRL_Orin*%
X167640000Y-91084400D02*
X167665600Y-91084400D01*
%TO.N,LETeensy*%
X175250000Y-81450000D02*
X175250000Y-86785576D01*
%TO.N,~{OCPLatch}*%
X173675000Y-86679595D02*
X173675000Y-81562212D01*
%TO.N,LETeensy*%
X175250000Y-86785576D02*
X175008747Y-87026829D01*
%TO.N,toNEO_CTRL_Orin*%
X172550000Y-86200000D02*
X172550000Y-81358148D01*
X167665600Y-91084400D02*
X172550000Y-86200000D01*
%TO.N,~{SystemKill}*%
X184165991Y-79675000D02*
X185175000Y-80684009D01*
X185175000Y-87850000D02*
X185200000Y-87875000D01*
X182650000Y-79090991D02*
X183234009Y-79675000D01*
X182650000Y-76650000D02*
X182650000Y-79090991D01*
D98*
%TO.N,REF*%
X176575000Y-86425000D02*
X179600000Y-83400000D01*
D97*
%TO.N,~{SystemKill}*%
X182600000Y-76600000D02*
X182650000Y-76650000D01*
D98*
%TO.N,REF*%
X182500000Y-82200000D02*
X182500000Y-82000000D01*
D97*
%TO.N,~{SystemKill}*%
X185175000Y-80684009D02*
X185175000Y-87850000D01*
X183234009Y-79675000D02*
X184165991Y-79675000D01*
%TO.N,D{slash}A23*%
X181400000Y-87600000D02*
X180500000Y-86700000D01*
X180500000Y-86700000D02*
X180500000Y-84090991D01*
%TO.N,-BATT1*%
X177875000Y-82800000D02*
X178632737Y-82042263D01*
%TO.N,D{slash}A23*%
X180500000Y-84090991D02*
X180725000Y-83865991D01*
X180725000Y-83865991D02*
X180725000Y-80825000D01*
X180725000Y-80825000D02*
X180500000Y-80600000D01*
%TO.N,-BATT1*%
X178632737Y-82042263D02*
X179158598Y-82042263D01*
D98*
%TO.N,REF*%
X182500000Y-82000000D02*
X183700000Y-80800000D01*
D97*
%TO.N,VSampleBatt1*%
X188700000Y-88000000D02*
X186100000Y-85400000D01*
X184200000Y-84900000D02*
X182700000Y-84900000D01*
X186100000Y-85400000D02*
X186100000Y-85000000D01*
D101*
%TO.N,+3.3V*%
X191187116Y-89732500D02*
X192637116Y-88282500D01*
D97*
%TO.N,VSampleBatt2*%
X194125000Y-90825000D02*
X192900000Y-89600000D01*
D101*
%TO.N,+3.3V*%
X177875000Y-86850000D02*
X180757500Y-89732500D01*
X180757500Y-89732500D02*
X191187116Y-89732500D01*
D97*
%TO.N,VSampleBatt2*%
X190700000Y-88500000D02*
X189800000Y-88500000D01*
D101*
%TO.N,+3.3V*%
X195736360Y-88282500D02*
X196164430Y-88710570D01*
X192637116Y-88282500D02*
X195736360Y-88282500D01*
D97*
%TO.N,VSampleBatt2*%
X189800000Y-88500000D02*
X189300000Y-89000000D01*
X189300000Y-89000000D02*
X184100000Y-89000000D01*
X184100000Y-89000000D02*
X182700000Y-87600000D01*
%TO.N,VSampleBatt1*%
X192980423Y-92545423D02*
X195986858Y-92545423D01*
D96*
%TO.N,+BATT*%
X220807300Y-60442700D02*
X245637020Y-60442700D01*
D97*
%TO.N,VSampleBatt1*%
X191585000Y-91150000D02*
X192980423Y-92545423D01*
D96*
%TO.N,+BATT*%
X197316830Y-92845191D02*
X197316830Y-83083170D01*
X193675000Y-93977401D02*
X196184620Y-93977401D01*
X196184620Y-93977401D02*
X197316830Y-92845191D01*
X202550000Y-78700000D02*
X220807300Y-60442700D01*
D97*
%TO.N,VSampleBatt2*%
X194125000Y-91150000D02*
X196100000Y-91150000D01*
D96*
%TO.N,+BATT*%
X201700000Y-78700000D02*
X202550000Y-78700000D01*
X197316830Y-83083170D02*
X201700000Y-78700000D01*
D98*
%TO.N,D{slash}A21*%
X177280000Y-54750000D02*
X178620000Y-56090000D01*
X178620000Y-56090000D02*
X183098960Y-56090000D01*
X183560000Y-56551040D02*
X183560000Y-60540000D01*
X183098960Y-56090000D02*
X183560000Y-56551040D01*
X183560000Y-60540000D02*
X182123200Y-61976800D01*
X182123200Y-61976800D02*
X182123200Y-62123200D01*
%TO.N,Analog_Voltage1*%
X166910000Y-52000000D02*
X169660000Y-54750000D01*
X156300000Y-52000000D02*
X166910000Y-52000000D01*
D97*
%TO.N,I2C1_SDA*%
X176852809Y-73575000D02*
X176678544Y-73400735D01*
%TO.N,I2C1_SCL*%
X179075000Y-68925000D02*
X179075000Y-71215991D01*
%TO.N,I2C1_SDA*%
X180845250Y-75127051D02*
X179952208Y-74234009D01*
D98*
%TO.N,Analog_Voltage1*%
X168400000Y-63000000D02*
X168400000Y-61900000D01*
X176200000Y-70800000D02*
X173800000Y-68400000D01*
D97*
%TO.N,I2C1_SDA*%
X184060791Y-76669800D02*
X182518042Y-75127051D01*
%TO.N,I2C1_SCL*%
X179800000Y-68200000D02*
X179075000Y-68925000D01*
%TO.N,toNEO_CTRL_Orin*%
X175265991Y-80275000D02*
X175493044Y-80502053D01*
D98*
%TO.N,Analog_Voltage1*%
X181400000Y-80900000D02*
X181900000Y-80400000D01*
%TO.N,Device_D-*%
X172678200Y-66100479D02*
X172678200Y-61374517D01*
D97*
%TO.N,toNEO_CTRL_Orin*%
X178565359Y-80502053D02*
X180110000Y-78957412D01*
%TO.N,I2C1_SDA*%
X184724800Y-76669800D02*
X184060791Y-76669800D01*
%TO.N,~{OCPLatch}*%
X176323397Y-76212466D02*
X175725000Y-76810863D01*
X176323397Y-75078776D02*
X176323397Y-76212466D01*
D98*
%TO.N,Device_D+*%
X172700000Y-69680000D02*
X172700000Y-66644365D01*
X172407200Y-59501675D02*
X172407200Y-57497200D01*
D97*
%TO.N,I2C1_SDA*%
X178325000Y-74234009D02*
X177665991Y-73575000D01*
%TO.N,~{OCPLatch}*%
X175553544Y-74308923D02*
X176323397Y-75078776D01*
D98*
%TO.N,Device_D+*%
X170355000Y-72025000D02*
X172700000Y-69680000D01*
D97*
%TO.N,I2C1_SDA*%
X179952208Y-74234009D02*
X178325000Y-74234009D01*
%TO.N,toNEO_CTRL_Orin*%
X180110000Y-76675375D02*
X179634625Y-76200000D01*
X172550000Y-81358148D02*
X173633148Y-80275000D01*
%TO.N,I2C1_SCL*%
X176026157Y-71825735D02*
X174955756Y-72896136D01*
%TO.N,~{OCPLatch}*%
X180000000Y-70927387D02*
X178651652Y-72275735D01*
X176212553Y-72275735D02*
X175553544Y-72934744D01*
D98*
%TO.N,Device_D-*%
X170355000Y-70025000D02*
X172300000Y-68080000D01*
%TO.N,Analog_Voltage1*%
X181400000Y-84900000D02*
X181400000Y-80900000D01*
%TO.N,Device_D+*%
X172700000Y-66644365D02*
X173078200Y-66266165D01*
D97*
%TO.N,toNEO_CTRL_Orin*%
X180110000Y-78957412D02*
X180110000Y-76675375D01*
%TO.N,~{OCPLatch}*%
X178651652Y-72275735D02*
X176212553Y-72275735D01*
%TO.N,I2C1_SDA*%
X177665991Y-73575000D02*
X176852809Y-73575000D01*
D98*
%TO.N,Device_D-*%
X169660000Y-58356317D02*
X169660000Y-57290000D01*
D97*
%TO.N,toNEO_CTRL_Orin*%
X175493044Y-80502053D02*
X178565359Y-80502053D01*
%TO.N,~{OCPLatch}*%
X175553544Y-72934744D02*
X175553544Y-74308923D01*
D98*
%TO.N,Analog_Voltage1*%
X181200000Y-76082842D02*
X179817158Y-74700000D01*
D97*
%TO.N,toNEO_CTRL_Orin*%
X173633148Y-80275000D02*
X175265991Y-80275000D01*
%TO.N,~{OCPLatch}*%
X180000000Y-70900000D02*
X180000000Y-70927387D01*
D98*
%TO.N,Device_D-*%
X172300000Y-68080000D02*
X172300000Y-66478679D01*
D97*
%TO.N,I2C1_SCL*%
X178465256Y-71825735D02*
X176026157Y-71825735D01*
D98*
%TO.N,Device_D-*%
X172678200Y-61374517D02*
X169660000Y-58356317D01*
D97*
%TO.N,I2C1_SCL*%
X174955756Y-72896136D02*
X174955756Y-75032731D01*
D98*
%TO.N,Device_D+*%
X173078200Y-66266165D02*
X173078200Y-60172675D01*
%TO.N,Analog_Voltage1*%
X173800000Y-68400000D02*
X173800000Y-67100000D01*
D97*
%TO.N,I2C1_SCL*%
X179075000Y-71215991D02*
X178465256Y-71825735D01*
%TO.N,I2C1_SDA*%
X182518042Y-75127051D02*
X180845250Y-75127051D01*
D98*
%TO.N,Device_D-*%
X172300000Y-66478679D02*
X172678200Y-66100479D01*
%TO.N,Analog_Voltage1*%
X181200000Y-76500000D02*
X181200000Y-76082842D01*
%TO.N,Device_D+*%
X173078200Y-60172675D02*
X172407200Y-59501675D01*
%TO.N,Analog_Voltage1*%
X179817158Y-74700000D02*
X177200000Y-74700000D01*
X168400000Y-61900000D02*
X169400000Y-60900000D01*
D97*
%TO.N,D{slash}A20*%
X176810695Y-61925000D02*
X175742847Y-60857153D01*
X175742847Y-60857153D02*
X175288467Y-60402773D01*
X175288467Y-60402773D02*
X174993764Y-60402773D01*
X175742847Y-60857153D02*
X175141116Y-60255421D01*
X180182031Y-61717969D02*
X179975000Y-61925000D01*
X179975000Y-61925000D02*
X176810695Y-61925000D01*
D98*
%TO.N,Dswitch2*%
X174925000Y-63125000D02*
X174925000Y-61925000D01*
X174925000Y-61925000D02*
X174500000Y-61500000D01*
X168985400Y-59185400D02*
X168985400Y-58347812D01*
X171300000Y-61500000D02*
X168985400Y-59185400D01*
X168985400Y-58347812D02*
X168435000Y-57797412D01*
%TO.N,D{slash}A22*%
X174740000Y-54750000D02*
X173540000Y-55950000D01*
X173540000Y-55950000D02*
X173540000Y-64400800D01*
X173540000Y-64400800D02*
X174976000Y-65836800D01*
D97*
%TO.N,D{slash}A23*%
X173450000Y-53500000D02*
X172200000Y-54750000D01*
%TO.N,LETeensy*%
X176276000Y-69401000D02*
X177475000Y-70600000D01*
%TO.N,~{SystemKill}*%
X183184800Y-74161000D02*
X182859800Y-74486000D01*
%TO.N,LETeensy*%
X176276000Y-65836800D02*
X176276000Y-69401000D01*
%TO.N,~{SystemKill}*%
X183184800Y-73406000D02*
X183184800Y-74161000D01*
X182859800Y-74486000D02*
X181382641Y-74486000D01*
X181382641Y-74486000D02*
X180239683Y-73343042D01*
%TO.N,D{slash}A23*%
X175965000Y-59165000D02*
X175965000Y-54242588D01*
X177600000Y-60800000D02*
X175965000Y-59165000D01*
X177800000Y-69400000D02*
X177800000Y-64400000D01*
X175965000Y-54242588D02*
X175222412Y-53500000D01*
X175222412Y-53500000D02*
X173450000Y-53500000D01*
%TO.N,/Battery Control Logic/OCPReference*%
X196925000Y-132275000D02*
X196925000Y-125635209D01*
D100*
%TO.N,+5V*%
X192710100Y-121230150D02*
X191479949Y-119999999D01*
X194948190Y-123248190D02*
X194600000Y-122900000D01*
D97*
%TO.N,~{OCPLatch}*%
X201234009Y-129275000D02*
X202165991Y-129275000D01*
X193800000Y-111163783D02*
X191586014Y-108949797D01*
%TO.N,/Battery Control Logic/OCPReference*%
X196925000Y-125635209D02*
X196504723Y-125214932D01*
%TO.N,LETeensy*%
X181100000Y-110100000D02*
X178500000Y-107500000D01*
X197600000Y-120800000D02*
X196000000Y-119200000D01*
%TO.N,~{SystemKill}*%
X194725000Y-120753041D02*
X194725000Y-112552387D01*
%TO.N,~{OCPLatch}*%
X181740434Y-109000000D02*
X179466896Y-106726462D01*
X197825000Y-119225000D02*
X197825000Y-118800000D01*
D100*
%TO.N,+5V*%
X200552148Y-123248190D02*
X194948190Y-123248190D01*
D97*
%TO.N,/Battery Control Logic/OCPReference*%
X194875000Y-108613808D02*
X194875000Y-112065991D01*
D100*
%TO.N,+5V*%
X194326374Y-122900000D02*
X192710100Y-121283726D01*
D97*
%TO.N,LETeensy*%
X198900000Y-129700000D02*
X198800000Y-129600000D01*
X183800000Y-110200000D02*
X183700000Y-110100000D01*
%TO.N,~{OCPLatch}*%
X191586014Y-108949797D02*
X186885320Y-108949797D01*
%TO.N,~{SystemKill}*%
X194425000Y-111152387D02*
X190482093Y-107209480D01*
%TO.N,~{OCPLatch}*%
X193800000Y-118900000D02*
X193800000Y-111163783D01*
%TO.N,~{SystemKill}*%
X182929000Y-106825000D02*
X181340109Y-106825000D01*
%TO.N,LETeensy*%
X191300000Y-110000000D02*
X186400000Y-110000000D01*
%TO.N,/Battery Control Logic/OCPReference*%
X186505000Y-91150000D02*
X187920000Y-92565000D01*
D100*
%TO.N,+5V*%
X206766907Y-125631096D02*
X206766907Y-125515734D01*
D97*
%TO.N,~{OCPLatch}*%
X200725000Y-131170000D02*
X200725000Y-129784009D01*
%TO.N,LETeensy*%
X183700000Y-110100000D02*
X181100000Y-110100000D01*
%TO.N,/Battery Control Logic/OCPReference*%
X195175000Y-112365991D02*
X195175000Y-119011396D01*
%TO.N,~{SystemKill}*%
X190482093Y-107209480D02*
X186464706Y-107209480D01*
X194725000Y-112552387D02*
X194425000Y-112252387D01*
X183800000Y-107696000D02*
X182929000Y-106825000D01*
%TO.N,~{OCPLatch}*%
X186885320Y-108949797D02*
X186542825Y-108607302D01*
X200725000Y-131170000D02*
X200725000Y-126249470D01*
%TO.N,~{SystemKill}*%
X194425000Y-112252387D02*
X194425000Y-111152387D01*
%TO.N,/Battery Control Logic/OCPReference*%
X196300000Y-132900000D02*
X196925000Y-132275000D01*
%TO.N,LETeensy*%
X172900000Y-95200000D02*
X173000000Y-95100000D01*
D100*
%TO.N,+5V*%
X206766907Y-125515734D02*
X205018478Y-123767305D01*
D97*
%TO.N,LETeensy*%
X198800000Y-129600000D02*
X198800000Y-126000000D01*
%TO.N,~{OCPLatch}*%
X200725000Y-129784009D02*
X201234009Y-129275000D01*
%TO.N,LETeensy*%
X198800000Y-126000000D02*
X197900000Y-125100000D01*
%TO.N,/Battery Control Logic/OCPReference*%
X194875000Y-112065991D02*
X195175000Y-112365991D01*
%TO.N,~{OCPLatch}*%
X202686396Y-131450000D02*
X204955782Y-131450000D01*
%TO.N,LETeensy*%
X192800000Y-111500000D02*
X191300000Y-110000000D01*
%TO.N,~{OCPLatch}*%
X202165991Y-129275000D02*
X202686396Y-129795405D01*
%TO.N,/Battery Control Logic/OCPReference*%
X188823100Y-102561908D02*
X194875000Y-108613808D01*
%TO.N,~{OCPLatch}*%
X200725000Y-126249470D02*
X199698400Y-125222870D01*
%TO.N,/Battery Control Logic/OCPReference*%
X196310018Y-120146414D02*
X196310018Y-121344015D01*
%TO.N,~{OCPLatch}*%
X198900000Y-120300000D02*
X197825000Y-119225000D01*
%TO.N,LETeensy*%
X201350000Y-130750000D02*
X201700000Y-130400000D01*
%TO.N,~{OCPLatch}*%
X202686396Y-129795405D02*
X202686396Y-131450000D01*
%TO.N,LETeensy*%
X201350000Y-132600000D02*
X201350000Y-130750000D01*
D100*
%TO.N,+5V*%
X205018478Y-123767305D02*
X201071263Y-123767305D01*
X194600000Y-122900000D02*
X194326374Y-122900000D01*
D97*
%TO.N,~{SystemKill}*%
X194815665Y-120843706D02*
X194725000Y-120753041D01*
%TO.N,~{OCPLatch}*%
X183900000Y-109000000D02*
X181740434Y-109000000D01*
%TO.N,LETeensy*%
X172900000Y-99000000D02*
X172900000Y-95200000D01*
D100*
%TO.N,+5V*%
X192710100Y-121283726D02*
X192710100Y-121230150D01*
X191479949Y-119999999D02*
X187450001Y-119999999D01*
X201071263Y-123767305D02*
X200552148Y-123248190D01*
D97*
%TO.N,/Battery Control Logic/OCPReference*%
X195175000Y-119011396D02*
X196310018Y-120146414D01*
%TO.N,~{OCPLatch}*%
X200050000Y-131845000D02*
X200725000Y-131170000D01*
%TO.N,LETeensy*%
X196000000Y-119200000D02*
X196000000Y-111600000D01*
%TO.N,~{OCPLatch}*%
X204955782Y-131450000D02*
X206375000Y-132869218D01*
%TO.N,~{SystemKill}*%
X205909530Y-130425000D02*
X205700000Y-130425000D01*
%TO.N,-BATT1*%
X201684099Y-137000000D02*
X202179454Y-136504645D01*
X200600000Y-136022100D02*
X200600000Y-136856300D01*
%TO.N,VSampleBatt2*%
X204200000Y-130500000D02*
X202800000Y-129100000D01*
%TO.N,-BATT1*%
X200600000Y-136856300D02*
X200743700Y-137000000D01*
X202179454Y-136504645D02*
X202179454Y-135002168D01*
%TO.N,~{SystemKill}*%
X207330571Y-131846041D02*
X205909530Y-130425000D01*
%TO.N,VSampleBatt2*%
X202800000Y-129100000D02*
X202800000Y-125700000D01*
%TO.N,-BATT1*%
X200743700Y-137000000D02*
X201684099Y-137000000D01*
%TO.N,~{SystemKill}*%
X242969713Y-153625778D02*
X241662287Y-153625778D01*
X253625000Y-153625000D02*
X242970491Y-153625000D01*
X242970491Y-153625000D02*
X242969713Y-153625778D01*
X253522800Y-148321000D02*
X254750000Y-149548200D01*
X241662287Y-153625778D02*
X241661510Y-153625000D01*
X241661510Y-153625000D02*
X238883148Y-153625000D01*
X238041852Y-153700000D02*
X237966852Y-153625000D01*
X238883148Y-153625000D02*
X238808148Y-153700000D01*
X254750000Y-152500000D02*
X253625000Y-153625000D01*
X254750000Y-149548200D02*
X254750000Y-152500000D01*
X238808148Y-153700000D02*
X238041852Y-153700000D01*
X221225000Y-153625000D02*
X217875000Y-150275000D01*
X237966852Y-153625000D02*
X221225000Y-153625000D01*
X217875000Y-150275000D02*
X214975000Y-150275000D01*
X214975000Y-150275000D02*
X213400000Y-148700000D01*
%TO.N,/Battery Control Logic/Batt2>UVP*%
X213290088Y-146675000D02*
X212683148Y-146675000D01*
%TO.N,/Battery Control Logic/Batt1>UVP*%
X212575000Y-149465991D02*
X213234009Y-150125000D01*
%TO.N,/Battery Control Logic/Batt2>UVP*%
X215700000Y-147400000D02*
X214651178Y-146351178D01*
%TO.N,KillSwitch*%
X214079901Y-147879901D02*
X214079901Y-147476178D01*
%TO.N,~{SystemKill}*%
X212844249Y-143000000D02*
X214700000Y-143000000D01*
%TO.N,/Battery Control Logic/Batt2>UVP*%
X211183148Y-145175000D02*
X209777548Y-145175000D01*
%TO.N,Batt2Enable*%
X208950000Y-151100000D02*
X208950000Y-151855000D01*
%TO.N,/Battery Control Logic/Batt2>UVP*%
X209777548Y-145175000D02*
X209602458Y-145350090D01*
%TO.N,/Battery Control Logic/Batt1>UVP*%
X212374139Y-149465991D02*
X212575000Y-149465991D01*
%TO.N,Batt1Enable*%
X217200000Y-147000000D02*
X215719253Y-145519253D01*
%TO.N,/Battery Control Logic/UVPReference*%
X218446242Y-142435185D02*
X217981427Y-142900000D01*
%TO.N,/Battery Control Logic/Batt2>UVP*%
X214651178Y-146351178D02*
X213613910Y-146351178D01*
X212683148Y-146675000D02*
X211183148Y-145175000D01*
%TO.N,/Battery Control Logic/Batt1>UVP*%
X214015991Y-150125000D02*
X215790991Y-151900000D01*
%TO.N,KillSwitch*%
X215600000Y-149200000D02*
X215400000Y-149200000D01*
%TO.N,/Battery Control Logic/Batt1>UVP*%
X207583148Y-144675000D02*
X212374139Y-149465991D01*
%TO.N,/Battery Control Logic/UVPReference*%
X215705747Y-144394253D02*
X214573250Y-144394253D01*
X217200000Y-142900000D02*
X215705747Y-144394253D01*
%TO.N,/Battery Control Logic/Batt1>UVP*%
X215790991Y-151900000D02*
X218100000Y-151900000D01*
%TO.N,/Battery Control Logic/Batt2>UVP*%
X213613910Y-146351178D02*
X213290088Y-146675000D01*
%TO.N,Batt2Enable*%
X211216848Y-152180000D02*
X212457658Y-150939190D01*
%TO.N,KillSwitch*%
X215400000Y-149200000D02*
X214079901Y-147879901D01*
%TO.N,Batt1Enable*%
X212808148Y-144100000D02*
X212600000Y-144100000D01*
X215719253Y-145519253D02*
X214227401Y-145519253D01*
%TO.N,/Battery Control Logic/UVPReference*%
X223200400Y-143799800D02*
X221835785Y-142435185D01*
%TO.N,/Battery Control Logic/Batt1>UVP*%
X203745280Y-144675000D02*
X207583148Y-144675000D01*
%TO.N,~{SystemKill}*%
X211924621Y-142080372D02*
X212844249Y-143000000D01*
%TO.N,Batt1Enable*%
X214227401Y-145519253D02*
X212808148Y-144100000D01*
%TO.N,Batt2Enable*%
X208950000Y-151855000D02*
X209275000Y-152180000D01*
%TO.N,/Battery Control Logic/Batt1>UVP*%
X213234009Y-150125000D02*
X214015991Y-150125000D01*
%TO.N,Batt2Enable*%
X209275000Y-152180000D02*
X211216848Y-152180000D01*
%TO.N,/Battery Control Logic/UVPReference*%
X221835785Y-142435185D02*
X218446242Y-142435185D01*
X217981427Y-142900000D02*
X217200000Y-142900000D01*
%TO.N,/Battery Control Logic/Batt1>UVP*%
X203321000Y-144250720D02*
X203745280Y-144675000D01*
%TO.N,+3.3V*%
X212293816Y-140750000D02*
X213518816Y-141975000D01*
%TO.N,Net-(D13-A)*%
X217795031Y-142450000D02*
X218259846Y-141985185D01*
X218259846Y-141985185D02*
X224435185Y-141985185D01*
%TO.N,/Battery Control Logic/~{GateDisable}*%
X215696203Y-141925000D02*
X216754155Y-141925000D01*
%TO.N,Net-(D13-A)*%
X215584807Y-142450000D02*
X217795031Y-142450000D01*
X224435185Y-141985185D02*
X224625000Y-142175000D01*
%TO.N,~{SystemKill}*%
X211894249Y-142050000D02*
X211924621Y-142080372D01*
%TO.N,/Battery Control Logic/~{GateDisable}*%
X213500000Y-139800000D02*
X213571203Y-139800000D01*
%TO.N,~{SystemKill}*%
X210930000Y-142050000D02*
X211894249Y-142050000D01*
%TO.N,+3.3V*%
X210930000Y-140750000D02*
X212293816Y-140750000D01*
%TO.N,Net-(D13-A)*%
X212300000Y-140097175D02*
X213052825Y-140850000D01*
X212300000Y-139800000D02*
X212300000Y-140097175D01*
X213984807Y-140850000D02*
X215584807Y-142450000D01*
X213052825Y-140850000D02*
X213984807Y-140850000D01*
%TO.N,/Battery Control Logic/~{GateDisable}*%
X216754155Y-141925000D02*
X217617698Y-141061457D01*
X213571203Y-139800000D02*
X215696203Y-141925000D01*
%TO.N,KillSwitch*%
X211650000Y-143659009D02*
X211650000Y-144740991D01*
X211065991Y-143075000D02*
X211650000Y-143659009D01*
X209019999Y-141400000D02*
X209500000Y-141880001D01*
X211650000Y-144740991D02*
X212259009Y-145350000D01*
X209500000Y-142100000D02*
X210475000Y-143075000D01*
X210475000Y-143075000D02*
X211065991Y-143075000D01*
X209500000Y-141880001D02*
X209500000Y-142100000D01*
X208270000Y-141400000D02*
X209019999Y-141400000D01*
X212259009Y-145350000D02*
X212750000Y-145350000D01*
%TO.N,/Battery Control Logic/UVPReference*%
X204816852Y-144225000D02*
X210575000Y-144225000D01*
X210575000Y-144225000D02*
X210600000Y-144200000D01*
%TO.N,+3.3V*%
X206404074Y-143195926D02*
X206695926Y-143195926D01*
X206695926Y-143195926D02*
X206900000Y-143400000D01*
X206900000Y-143400000D02*
X209000000Y-143400000D01*
X209000000Y-143400000D02*
X209100000Y-143300000D01*
X205508148Y-142300000D02*
X206404074Y-143195926D01*
%TO.N,/Battery Control Logic/UVPReference*%
X203321000Y-143600480D02*
X204192332Y-143600480D01*
X204192332Y-143600480D02*
X204816852Y-144225000D01*
%TO.N,/Battery Control Logic/Batt2>UVP*%
X215700000Y-147400000D02*
X216677421Y-148377421D01*
X216677421Y-148377421D02*
X216949560Y-148377421D01*
%TO.N,Batt1Enable*%
X205000000Y-149200000D02*
X204195000Y-148395000D01*
X204195000Y-148395000D02*
X204195000Y-147771188D01*
X204195000Y-147771188D02*
X204566188Y-147400000D01*
X204566188Y-147400000D02*
X205270000Y-147400000D01*
%TO.N,KillSwitch*%
X215600000Y-149200000D02*
X215500000Y-149100000D01*
X216225000Y-149825000D02*
X215600000Y-149200000D01*
X218119657Y-149825000D02*
X221444657Y-153150000D01*
X218119657Y-149825000D02*
X216225000Y-149825000D01*
D99*
%TO.N,+3.3V*%
X223090000Y-140650798D02*
X219117698Y-140650798D01*
D97*
%TO.N,Batt2Enable*%
X223700000Y-146200000D02*
X221500000Y-146200000D01*
D99*
%TO.N,+3.3V*%
X219117698Y-140650798D02*
X214941900Y-136475000D01*
D97*
%TO.N,Batt2Enable*%
X220900000Y-145600000D02*
X220590991Y-145600000D01*
D99*
%TO.N,+3.3V*%
X214941900Y-136475000D02*
X214825000Y-136475000D01*
D97*
%TO.N,~{OCPLatch}*%
X220600000Y-147200000D02*
X219465991Y-146065991D01*
%TO.N,/Battery Control Logic/~{GateDisable}*%
X218475000Y-144202306D02*
X218475000Y-143997418D01*
X218325000Y-149393946D02*
X221631053Y-152700000D01*
%TO.N,~{OCPLatch}*%
X219393390Y-145401538D02*
X219393390Y-144874907D01*
%TO.N,/Battery Control Logic/~{GateDisable}*%
X218325000Y-144352306D02*
X218475000Y-144202306D01*
X218475000Y-143997418D02*
X218912233Y-143560185D01*
X218325000Y-149393946D02*
X218325000Y-144352306D01*
%TO.N,~{OCPLatch}*%
X219465991Y-145474139D02*
X219393390Y-145401538D01*
X219465991Y-146065991D02*
X219465991Y-145474139D01*
X220600000Y-147200000D02*
X225100000Y-147200000D01*
%TO.N,Batt2Enable*%
X221500000Y-146200000D02*
X220900000Y-145600000D01*
%TO.N,~{OCPLatch}*%
X207870000Y-134550000D02*
X208619999Y-134550000D01*
%TO.N,/Battery Control Logic/~{GateDisable}*%
X211075000Y-137675000D02*
X211300000Y-137900000D01*
X211075000Y-136395000D02*
X211075000Y-137675000D01*
X210530000Y-135850000D02*
X211075000Y-136395000D01*
%TO.N,~{OCPLatch}*%
X212200000Y-136166188D02*
X212200000Y-136800000D01*
X209394999Y-135325000D02*
X211358812Y-135325000D01*
X213700000Y-138200000D02*
X216200000Y-140700000D01*
X216200000Y-140700000D02*
X216200000Y-140800000D01*
X211358812Y-135325000D02*
X212200000Y-136166188D01*
X208619999Y-134550000D02*
X209394999Y-135325000D01*
X200050000Y-131845000D02*
X200050000Y-132600000D01*
%TO.N,~{SystemKill}*%
X199700000Y-130800000D02*
X199800000Y-130700000D01*
X209900000Y-136900000D02*
X209900000Y-138050000D01*
X197900000Y-130800000D02*
X199700000Y-130800000D01*
%TO.N,-BATT1*%
X203005000Y-132950000D02*
X202700000Y-132645000D01*
X203800000Y-132950000D02*
X203005000Y-132950000D01*
%TO.N,~{SystemKill}*%
X195030289Y-125048190D02*
X196000000Y-126017901D01*
%TO.N,VSampleBatt1*%
X193375000Y-127159009D02*
X193730524Y-126803485D01*
X193730524Y-126803485D02*
X193730524Y-126532481D01*
X193375000Y-131175000D02*
X193375000Y-127159009D01*
%TO.N,~{SystemKill}*%
X196000000Y-126017901D02*
X196000000Y-130400000D01*
%TO.N,VSampleBatt1*%
X195100000Y-132900000D02*
X193375000Y-131175000D01*
%TO.N,/Battery Control Logic/OCPReference*%
X188800000Y-143472613D02*
X188800000Y-144000000D01*
%TO.N,VSampleBatt1*%
X195500000Y-137409009D02*
X193351051Y-139557958D01*
%TO.N,/Battery Control Logic/OCPReference*%
X194100000Y-137400000D02*
X194100000Y-138172613D01*
X194100000Y-138172613D02*
X188800000Y-143472613D01*
%TO.N,VSampleBatt1*%
X197479000Y-143600480D02*
X196508628Y-143600480D01*
X193351051Y-139557958D02*
X193351051Y-142630248D01*
X193351051Y-142630248D02*
X194522519Y-143801716D01*
%TO.N,/Battery Control Logic/Batt1>UVP*%
X195332383Y-144300000D02*
X195900000Y-144300000D01*
X190967701Y-145007398D02*
X194624985Y-145007398D01*
%TO.N,VSampleBatt2*%
X197378760Y-142850000D02*
X194923566Y-142850000D01*
%TO.N,+3.3V*%
X192975000Y-148420010D02*
X193112527Y-148557537D01*
%TO.N,VSampleBatt1*%
X196283148Y-143375000D02*
X194949235Y-143375000D01*
X194949235Y-143375000D02*
X194522519Y-143801716D01*
%TO.N,+3.3V*%
X192975000Y-147016852D02*
X192975000Y-148420010D01*
X195627350Y-145650001D02*
X194341851Y-145650001D01*
%TO.N,/Battery Control Logic/Batt1>UVP*%
X190325100Y-145649999D02*
X190967701Y-145007398D01*
%TO.N,/Battery Control Logic/~{GateDisable}*%
X191667656Y-146132344D02*
X192296863Y-146132344D01*
%TO.N,-BATT1*%
X194700000Y-140507600D02*
X194700000Y-139800000D01*
%TO.N,VSampleBatt2*%
X194923566Y-142850000D02*
X194476051Y-142402485D01*
X197479000Y-142950240D02*
X197378760Y-142850000D01*
%TO.N,VSampleBatt1*%
X195500000Y-136700000D02*
X195500000Y-137409009D01*
%TO.N,+3.3V*%
X194341851Y-145650001D02*
X192975000Y-147016852D01*
%TO.N,VSampleBatt1*%
X194600000Y-135800000D02*
X195500000Y-136700000D01*
%TO.N,/Battery Control Logic/Batt1>UVP*%
X194624985Y-145007398D02*
X195332383Y-144300000D01*
%TO.N,/Battery Control Logic/~{GateDisable}*%
X191445496Y-146354504D02*
X191667656Y-146132344D01*
%TO.N,VSampleBatt1*%
X196508628Y-143600480D02*
X196283148Y-143375000D01*
%TO.N,-BATT1*%
X197479000Y-142300000D02*
X196492400Y-142300000D01*
X196492400Y-142300000D02*
X194700000Y-140507600D01*
%TO.N,/Battery Control Logic/UVPReference*%
X199700000Y-142000000D02*
X198540600Y-140840600D01*
X198540600Y-140840600D02*
X198540600Y-139846480D01*
X198540600Y-139846480D02*
X198200000Y-139505880D01*
X198200000Y-139505880D02*
X198200000Y-136100000D01*
%TO.N,Batt1Enable*%
X238500000Y-143000000D02*
X238234600Y-142734600D01*
X238234600Y-142734600D02*
X235852938Y-142734600D01*
D98*
%TO.N,RArray7*%
X249300000Y-144760161D02*
X250228200Y-143831961D01*
%TO.N,RArray8*%
X243844917Y-145680000D02*
X242161399Y-145680000D01*
X250955616Y-141754545D02*
X249828200Y-142881961D01*
%TO.N,RArray7*%
X248231763Y-146469558D02*
X249300000Y-145401321D01*
%TO.N,RArray8*%
X250955616Y-140685184D02*
X250955616Y-141754545D01*
%TO.N,RArray7*%
X250228200Y-143831961D02*
X250228200Y-143061000D01*
D97*
%TO.N,/Battery Control Logic/Batt2>UVP*%
X247800000Y-144780000D02*
X244879668Y-144780000D01*
D98*
%TO.N,RArray7*%
X249300000Y-145401321D02*
X249300000Y-144760161D01*
X250228200Y-143061000D02*
X251800800Y-141488400D01*
%TO.N,RArray8*%
X248900000Y-144594475D02*
X248900000Y-145235635D01*
X244234475Y-146069558D02*
X243844917Y-145680000D01*
X248900000Y-145235635D02*
X248066077Y-146069558D01*
X249828200Y-143666275D02*
X248900000Y-144594475D01*
%TO.N,RArray7*%
X242150959Y-146469558D02*
X248231763Y-146469558D01*
%TO.N,RArray8*%
X249828200Y-142881961D02*
X249828200Y-143666275D01*
D97*
%TO.N,/Battery Control Logic/Batt2>UVP*%
X244879668Y-144780000D02*
X244690110Y-144969558D01*
D98*
%TO.N,RArray8*%
X251803400Y-139837400D02*
X250955616Y-140685184D01*
X248066077Y-146069558D02*
X244234475Y-146069558D01*
D97*
%TO.N,Batt2Enable*%
X244849652Y-143060000D02*
X244740000Y-143060000D01*
X244740000Y-143060000D02*
X244100000Y-143700000D01*
%TO.N,KillSwitch*%
X223427208Y-153175000D02*
X236625000Y-153175000D01*
X236625000Y-153175000D02*
X237400000Y-152400000D01*
X243672578Y-152772578D02*
X252477422Y-152772578D01*
X243100000Y-152200000D02*
X243672578Y-152772578D01*
%TO.N,/Battery Control Logic/Batt1>UVP*%
X234288604Y-152200000D02*
X222150000Y-152200000D01*
X235688604Y-150800000D02*
X234288604Y-152200000D01*
X222150000Y-152200000D02*
X221500000Y-151550000D01*
X236000000Y-150800000D02*
X235688604Y-150800000D01*
%TO.N,/Battery Control Logic/~{GateDisable}*%
X223315812Y-152650000D02*
X223265812Y-152700000D01*
X234475000Y-152650000D02*
X223315812Y-152650000D01*
%TO.N,/Battery Control Logic/Batt1>UVP*%
X221500000Y-151550000D02*
X221500000Y-150700000D01*
%TO.N,/Battery Control Logic/~{GateDisable}*%
X235125000Y-152000000D02*
X234475000Y-152650000D01*
X236200000Y-152000000D02*
X235125000Y-152000000D01*
X221631053Y-152700000D02*
X223265812Y-152700000D01*
D98*
%TO.N,Net-(D13-A)*%
X239923273Y-153197578D02*
X238512848Y-151787152D01*
D97*
X232650000Y-145650000D02*
X237013065Y-150013065D01*
X237013065Y-150287369D02*
X238512848Y-151787152D01*
X237013065Y-150013065D02*
X237013065Y-150287369D01*
%TO.N,/Battery Control Logic/Batt2>UVP*%
X236095496Y-147129504D02*
X236020496Y-147129504D01*
X238023223Y-145201777D02*
X236095496Y-147129504D01*
%TO.N,~{OCPLatch}*%
X236810085Y-149089915D02*
X238220170Y-150500000D01*
X236800000Y-149079830D02*
X236800000Y-148200000D01*
X236810085Y-149089915D02*
X236800000Y-149079830D01*
D98*
%TO.N,RArray1*%
X242087400Y-151205999D02*
X244238366Y-151205999D01*
%TO.N,RArray2*%
X244472680Y-150405999D02*
X244910679Y-149968000D01*
D97*
%TO.N,/Battery Control Logic/~{GateDisable}*%
X245292000Y-151892000D02*
X245200000Y-151800000D01*
D98*
%TO.N,RArray1*%
X244822365Y-150622000D02*
X250622000Y-150622000D01*
%TO.N,RArray2*%
X244910679Y-149968000D02*
X251667200Y-149968000D01*
%TO.N,RArray1*%
X250622000Y-150622000D02*
X251750000Y-151750000D01*
%TO.N,RArray2*%
X242087400Y-150405999D02*
X244472680Y-150405999D01*
D97*
%TO.N,/Battery Control Logic/~{GateDisable}*%
X248180052Y-151892000D02*
X246700000Y-151892000D01*
X246700000Y-151892000D02*
X245292000Y-151892000D01*
D98*
%TO.N,RArray1*%
X244238366Y-151205999D02*
X244822365Y-150622000D01*
D97*
%TO.N,/Battery Control Logic/~{GateDisable}*%
X248700000Y-151800000D02*
X248608000Y-151892000D01*
X248608000Y-151892000D02*
X246600000Y-151892000D01*
X249300000Y-151800000D02*
X248700000Y-151800000D01*
%TO.N,+3.3V*%
X209675000Y-149465991D02*
X209675000Y-147745001D01*
X208679999Y-146750000D02*
X207930000Y-146750000D01*
X210250000Y-151100000D02*
X210250000Y-150040991D01*
X210250000Y-150040991D02*
X209675000Y-149465991D01*
X209675000Y-147745001D02*
X208679999Y-146750000D01*
%TO.N,/Battery Control Logic/OCPReference*%
X186800000Y-146000000D02*
X186800000Y-149700000D01*
X186800000Y-149700000D02*
X190600000Y-153500000D01*
X190600000Y-153500000D02*
X219300000Y-153500000D01*
X219300000Y-153500000D02*
X219500000Y-153300000D01*
%TO.N,~{OCPLatch}*%
X199950001Y-137571500D02*
X199375000Y-136996499D01*
%TO.N,-BATT1*%
X200150000Y-143875000D02*
X198575000Y-142300000D01*
%TO.N,~{OCPLatch}*%
X199375000Y-136996499D02*
X199375000Y-133275000D01*
X199375000Y-133275000D02*
X200050000Y-132600000D01*
%TO.N,-BATT1*%
X198575000Y-142300000D02*
X197479000Y-142300000D01*
%TO.N,/Battery Control Logic/~{OCP}*%
X197500000Y-135209009D02*
X197500000Y-134600000D01*
X197075000Y-135634009D02*
X197500000Y-135209009D01*
X197479000Y-140349280D02*
X197075000Y-139945280D01*
%TO.N,-BATT1*%
X200150000Y-147805456D02*
X200150000Y-143875000D01*
%TO.N,/Battery Control Logic/UVPReference*%
X202150000Y-142300000D02*
X202150000Y-143416080D01*
%TO.N,/Battery Control Logic/~{OCP}*%
X197075000Y-139945280D02*
X197075000Y-135634009D01*
%TO.N,/Battery Control Logic/UVPReference*%
X202150000Y-141183920D02*
X202150000Y-142300000D01*
X201700000Y-142300000D02*
X202150000Y-142300000D01*
%TO.N,/Battery Control Logic/OCPReference*%
X196500000Y-138072792D02*
X196500000Y-135000000D01*
X196400000Y-138172792D02*
X196500000Y-138072792D01*
%TO.N,ISample3.3V*%
X195950000Y-135813604D02*
X194822702Y-134686306D01*
X194822702Y-134686306D02*
X192186306Y-134686306D01*
%TO.N,/Battery Control Logic/OCPReference*%
X196492400Y-140999520D02*
X196400000Y-140907120D01*
%TO.N,ISample3.3V*%
X196492400Y-141649760D02*
X195950000Y-141107360D01*
X192186306Y-134686306D02*
X191500000Y-134000000D01*
%TO.N,/Battery Control Logic/OCPReference*%
X196400000Y-140907120D02*
X196400000Y-138172792D01*
%TO.N,ISample3.3V*%
X195950000Y-141107360D02*
X195950000Y-135813604D01*
%TO.N,/Battery Control Logic/OCPReference*%
X196500000Y-135000000D02*
X196300000Y-134800000D01*
%TO.N,ISample3.3V*%
X197479000Y-141649760D02*
X196492400Y-141649760D01*
%TO.N,/Battery Control Logic/OCPReference*%
X197479000Y-140999520D02*
X196492400Y-140999520D01*
D99*
%TO.N,+3.3V*%
X207225000Y-128875000D02*
X206625000Y-128275000D01*
X206625000Y-128275000D02*
X205849800Y-127499800D01*
X204450000Y-126100000D02*
X204300000Y-126100000D01*
X206625000Y-128275000D02*
X204450000Y-126100000D01*
D97*
%TO.N,Net-(JP22-A)*%
X195726946Y-152655000D02*
X203945000Y-152655000D01*
%TO.N,Net-(U7-2D)*%
X193900000Y-147047100D02*
X193900000Y-147400000D01*
%TO.N,/Battery Control Logic/~{GateDisable}*%
X194237527Y-148659574D02*
X194237527Y-149023528D01*
X192646536Y-149682537D02*
X191987527Y-149023528D01*
X194237527Y-149023528D02*
X193578518Y-149682537D01*
%TO.N,Net-(U7-2D)*%
X194647100Y-146300000D02*
X193900000Y-147047100D01*
%TO.N,Net-(JP22-A)*%
X203945000Y-152655000D02*
X204300000Y-152300000D01*
%TO.N,/Battery Control Logic/~{GateDisable}*%
X195627350Y-148250001D02*
X194647100Y-148250001D01*
X193578518Y-149682537D02*
X192646536Y-149682537D01*
%TO.N,Net-(JP22-A)*%
X192460140Y-150132537D02*
X193204483Y-150132537D01*
X191227603Y-148900000D02*
X192460140Y-150132537D01*
X193204483Y-150132537D02*
X195726946Y-152655000D01*
%TO.N,/Battery Control Logic/~{GateDisable}*%
X191987527Y-149023528D02*
X191987527Y-148420621D01*
%TO.N,Net-(JP22-A)*%
X189772650Y-148900000D02*
X191227603Y-148900000D01*
%TO.N,/Battery Control Logic/~{GateDisable}*%
X191987527Y-148420621D02*
X192288888Y-148119260D01*
X192288888Y-147197896D02*
X191445496Y-146354504D01*
X192288888Y-148119260D02*
X192288888Y-147197896D01*
X194647100Y-148250001D02*
X194237527Y-148659574D01*
%TO.N,Net-(U7-2D)*%
X206300000Y-149300000D02*
X206680000Y-149300000D01*
%TO.N,Net-(JP22-A)*%
X202675000Y-151125000D02*
X203600000Y-150200000D01*
X203600000Y-150200000D02*
X203600000Y-149800000D01*
%TO.N,Net-(U7-2D)*%
X195627350Y-146300000D02*
X194647100Y-146300000D01*
X206680000Y-149300000D02*
X207930000Y-148050000D01*
%TO.N,+3.3V*%
X197100000Y-150100000D02*
X197100000Y-150275000D01*
X197100000Y-150275000D02*
X197950000Y-151125000D01*
X203155845Y-146850000D02*
X203421559Y-147115714D01*
X201730000Y-146850000D02*
X203155845Y-146850000D01*
%TO.N,/Battery Control Logic/VBatt1<VBatt2*%
X197275000Y-145334009D02*
X197275000Y-146265991D01*
X197275000Y-146265991D02*
X197479000Y-146469991D01*
X197479000Y-145130009D02*
X197275000Y-145334009D01*
X197479000Y-144250720D02*
X197479000Y-145130009D01*
X197479000Y-146469991D02*
X197479000Y-146658999D01*
%TO.N,/Battery Control Logic/~{OCP}*%
X198400000Y-134600000D02*
X197500000Y-134600000D01*
%TO.N,/Battery Control Logic/~{GateDisable}*%
X191445496Y-146354504D02*
X191390991Y-146300000D01*
D99*
%TO.N,+5V*%
X209804200Y-156250000D02*
X208304200Y-154750000D01*
D97*
%TO.N,Net-(LED8-DOUT)*%
X208455226Y-157101026D02*
X208455226Y-157066096D01*
D99*
%TO.N,+5V*%
X214305600Y-154750000D02*
X212805600Y-156250000D01*
D97*
%TO.N,Net-(LED8-DOUT)*%
X211104200Y-159750000D02*
X208455226Y-157101026D01*
D99*
%TO.N,+5V*%
X212805600Y-156250000D02*
X209804200Y-156250000D01*
X208304200Y-154750000D02*
X207804200Y-154750000D01*
X206498478Y-156270000D02*
X207804200Y-154964278D01*
X203322800Y-156270000D02*
X206498478Y-156270000D01*
X201302800Y-154750000D02*
X201802800Y-154750000D01*
X201802800Y-154750000D02*
X203322800Y-156270000D01*
X196301400Y-156250000D02*
X200602800Y-156250000D01*
D97*
%TO.N,Net-(LED7-DOUT)*%
X204602800Y-159750000D02*
X201941066Y-157088266D01*
X201941066Y-157088266D02*
X201941066Y-157033056D01*
D99*
%TO.N,+5V*%
X200602800Y-156250000D02*
X201302800Y-155550000D01*
X201302800Y-155550000D02*
X201302800Y-154750000D01*
D97*
%TO.N,-BATT1*%
X190025000Y-129250000D02*
X189750000Y-129250000D01*
X189750000Y-129250000D02*
X189500000Y-129500000D01*
X190025000Y-127612500D02*
X190025000Y-129250000D01*
X190025000Y-129250000D02*
X192350000Y-131575000D01*
%TO.N,ISample3.3V*%
X191940992Y-129575000D02*
X191541988Y-129175996D01*
%TO.N,/Battery Control Logic/~{GateDisable}*%
X189772650Y-146300000D02*
X188864601Y-146300000D01*
X177462500Y-132875000D02*
X180808148Y-132875000D01*
X188864601Y-146300000D02*
X182200000Y-139635399D01*
X182200000Y-139635399D02*
X182200000Y-134266852D01*
X182200000Y-134266852D02*
X180808148Y-132875000D01*
%TO.N,/Battery Control Logic/Batt1>UVP*%
X203171720Y-144400000D02*
X203321000Y-144250720D01*
X201800000Y-144400000D02*
X203171720Y-144400000D01*
%TO.N,/Battery Control Logic/VBatt1<VBatt2*%
X189772650Y-147600000D02*
X191100000Y-147600000D01*
%TO.N,/Battery Control Logic/~{GateDisable}*%
X191390991Y-146300000D02*
X189772650Y-146300000D01*
%TO.N,/Battery Control Logic/VBatt1<VBatt2*%
X191100000Y-147600000D02*
X191300000Y-147800000D01*
%TO.N,Net-(JP24-A)*%
X195627350Y-149550001D02*
X195627350Y-150231583D01*
X197600767Y-152205000D02*
X203024233Y-152205000D01*
X203024233Y-152205000D02*
X204129233Y-151100000D01*
X204129233Y-151100000D02*
X205500000Y-151100000D01*
X195627350Y-150231583D02*
X197600767Y-152205000D01*
%TO.N,-BATT1*%
X189772650Y-149549999D02*
X188049999Y-149549999D01*
X188049999Y-149549999D02*
X188000000Y-149500000D01*
X199070000Y-148150000D02*
X199805456Y-148150000D01*
%TO.N,Net-(U7-2C)*%
X201730000Y-148170000D02*
X201000000Y-148900000D01*
%TO.N,-BATT1*%
X199805456Y-148150000D02*
X200150000Y-147805456D01*
%TO.N,Net-(U7-2C)*%
X197500000Y-148000000D02*
X196450001Y-146950001D01*
X196450001Y-146950001D02*
X195627350Y-146950001D01*
%TO.N,/Battery Control Logic/UVPReference*%
X202334400Y-140999520D02*
X202150000Y-141183920D01*
X202334400Y-143600480D02*
X203321000Y-143600480D01*
X203321000Y-140999520D02*
X202334400Y-140999520D01*
X202150000Y-143416080D02*
X202334400Y-143600480D01*
%TO.N,+3.3V*%
X198658307Y-150000000D02*
X200300000Y-150000000D01*
X197950000Y-150708307D02*
X198658307Y-150000000D01*
%TO.N,Batt1Enable*%
X201375000Y-151125000D02*
X199250000Y-151125000D01*
%TO.N,Batt2Enable*%
X208950000Y-151100000D02*
X206800000Y-151100000D01*
%TO.N,+3.3V*%
X207930000Y-146750000D02*
X207930000Y-146330000D01*
X207930000Y-146330000D02*
X207600000Y-146000000D01*
X203321000Y-142300000D02*
X205508148Y-142300000D01*
%TO.N,/Battery Control Logic/VBatt1<VBatt2*%
X198320001Y-147500000D02*
X199070000Y-147500000D01*
X197479000Y-146658999D02*
X198320001Y-147500000D01*
%TO.N,VSampleBatt1*%
X204850240Y-142950240D02*
X205200000Y-143300000D01*
X203321000Y-142950240D02*
X204850240Y-142950240D01*
%TO.N,-BATT1*%
X208270000Y-142424046D02*
X208219046Y-142475000D01*
X208270000Y-142050000D02*
X208270000Y-142424046D01*
%TO.N,+3.3V*%
X214034009Y-136475000D02*
X214825000Y-136475000D01*
%TO.N,Net-(D13-A)*%
X208270000Y-140750000D02*
X208270000Y-140630000D01*
%TO.N,+3.3V*%
X210930000Y-139579009D02*
X214034009Y-136475000D01*
X210930000Y-140750000D02*
X210930000Y-139579009D01*
%TO.N,Net-(D13-A)*%
X208270000Y-140630000D02*
X209200000Y-139700000D01*
%TO.N,~{SystemKill}*%
X209950000Y-138100000D02*
X210409496Y-138559496D01*
X210409496Y-139916692D02*
X209855000Y-140471188D01*
X209855000Y-140471188D02*
X209855000Y-141555000D01*
X210409496Y-138559496D02*
X210409496Y-139916692D01*
X209855000Y-141555000D02*
X210350000Y-142050000D01*
D99*
%TO.N,+3.3V*%
X214825000Y-136475000D02*
X211587500Y-133237500D01*
D97*
%TO.N,~{OCPLatch}*%
X207870000Y-134230000D02*
X208500000Y-133600000D01*
X207870000Y-134550000D02*
X207870000Y-134230000D01*
D99*
%TO.N,+3.3V*%
X209675000Y-131325000D02*
X210875000Y-132525000D01*
X210875000Y-132525000D02*
X211587500Y-133237500D01*
D97*
X210530000Y-134550000D02*
X210875000Y-134205000D01*
X210875000Y-134205000D02*
X210875000Y-132525000D01*
D99*
X209150000Y-130800000D02*
X209675000Y-131325000D01*
X207846800Y-129496800D02*
X207225000Y-128875000D01*
X209675000Y-131325000D02*
X207225000Y-128875000D01*
D97*
%TO.N,/Battery Control Logic/~{OCP}*%
X199950001Y-134949999D02*
X200300000Y-134600000D01*
X199950001Y-136022100D02*
X199950001Y-134949999D01*
%TO.N,LETeensy*%
X201249999Y-136022100D02*
X201249999Y-132700001D01*
D100*
%TO.N,+5V*%
X187450001Y-119999999D02*
X186600100Y-120849900D01*
D97*
%TO.N,ISample3.3V*%
X175750000Y-131875000D02*
X175750000Y-124897592D01*
X175750000Y-124897592D02*
X175000000Y-124147592D01*
X175000000Y-124147592D02*
X175000000Y-123600000D01*
X170750000Y-119350000D02*
X175000000Y-123600000D01*
D100*
%TO.N,+5V*%
X242569162Y-132107700D02*
X241700000Y-132107700D01*
X241700000Y-132107700D02*
X240728300Y-131136000D01*
X240728300Y-131136000D02*
X240728300Y-129907700D01*
X226988303Y-136650000D02*
X234950000Y-136650000D01*
X238948799Y-133342700D02*
X238257300Y-133342700D01*
X240183799Y-132107700D02*
X238948799Y-133342700D01*
X238257300Y-133342700D02*
X234950000Y-136650000D01*
D96*
%TO.N,-BATT1*%
X236321600Y-131542700D02*
X237900000Y-131542700D01*
D99*
%TO.N,+5V*%
X262093218Y-134543218D02*
X257485235Y-134543218D01*
%TO.N,+3.3V*%
X256350000Y-139750000D02*
X257849999Y-141250000D01*
%TO.N,+5V*%
X252647400Y-132932800D02*
X251822300Y-132107700D01*
X255874817Y-132932800D02*
X252647400Y-132932800D01*
%TO.N,+3.3V*%
X239540287Y-141303200D02*
X246710687Y-134132800D01*
%TO.N,+5V*%
X263900000Y-136350000D02*
X262093218Y-134543218D01*
X257485235Y-134543218D02*
X255874817Y-132932800D01*
%TO.N,+3.3V*%
X233253200Y-141303200D02*
X239540287Y-141303200D01*
X246710687Y-134132800D02*
X255377761Y-134132800D01*
%TO.N,+5V*%
X263900000Y-139200000D02*
X263900000Y-136350000D01*
%TO.N,+3.3V*%
X256350000Y-135105039D02*
X256350000Y-139750000D01*
X255377761Y-134132800D02*
X256350000Y-135105039D01*
D97*
%TO.N,Batt1Enable*%
X242300000Y-141660000D02*
X246015000Y-141660000D01*
X246015000Y-141660000D02*
X247000000Y-140675000D01*
X247000000Y-140675000D02*
X247000000Y-140400000D01*
%TO.N,Batt2Enable*%
X254965200Y-136265200D02*
X254500000Y-135800000D01*
X254965200Y-136300000D02*
X254965200Y-136265200D01*
%TO.N,/Battery Control Logic/Batt1>UVP*%
X254478400Y-137752471D02*
X253437039Y-136711110D01*
X254078400Y-139837400D02*
X254478400Y-139437400D01*
X254478400Y-139437400D02*
X254478400Y-137752471D01*
%TO.N,Batt2Enable*%
X254965200Y-140074000D02*
X254965200Y-136300000D01*
%TO.N,/Battery Control Logic/Batt1>UVP*%
X253553400Y-139837400D02*
X254078400Y-139837400D01*
%TO.N,Batt2Enable*%
X255500000Y-131600000D02*
X256500000Y-131600000D01*
X256500000Y-131600000D02*
X257500000Y-132600000D01*
X251800000Y-128400000D02*
X255500000Y-124700000D01*
X255500000Y-124700000D02*
X256800000Y-124700000D01*
D100*
%TO.N,+VregDiode*%
X259170000Y-126453200D02*
X259170000Y-129840000D01*
X253016000Y-122700000D02*
X257454415Y-122700000D01*
X259857915Y-123109685D02*
X262767600Y-120200000D01*
X257864100Y-123109685D02*
X259857915Y-123109685D01*
X245808300Y-129907700D02*
X253016000Y-122700000D01*
X262767600Y-120200000D02*
X262767600Y-119500000D01*
X257454415Y-122700000D02*
X257864100Y-123109685D01*
X262767600Y-121600000D02*
X262767600Y-119500000D01*
X262767600Y-119500000D02*
X262767600Y-107336772D01*
D97*
%TO.N,-BATT1*%
X255636254Y-53281622D02*
X255636254Y-53636254D01*
X255636254Y-53636254D02*
X256000000Y-54000000D01*
D99*
%TO.N,+5V*%
X261200000Y-55700000D02*
X258700000Y-55700000D01*
X258700000Y-55700000D02*
X258217876Y-55700000D01*
X256717876Y-57200000D02*
X256804478Y-57200000D01*
X256804478Y-57200000D02*
X258217876Y-55786602D01*
X258217876Y-55786602D02*
X258613398Y-55786602D01*
X258613398Y-55786602D02*
X258700000Y-55700000D01*
X261200000Y-55700000D02*
X261375000Y-55700000D01*
X261639322Y-55700000D02*
X261200000Y-55700000D01*
X261375000Y-55700000D02*
X262237500Y-54837500D01*
D97*
%TO.N,Batt2Enable*%
X263800000Y-94736396D02*
X263800000Y-87643996D01*
X258742600Y-99793796D02*
X263800000Y-94736396D01*
%TO.N,Batt2Gate*%
X261000000Y-83091852D02*
X264291852Y-79800000D01*
%TO.N,Batt2Enable*%
X258992600Y-102299100D02*
X258992600Y-102280969D01*
X261450000Y-85293996D02*
X263800000Y-87643996D01*
X260071500Y-103378000D02*
X258992600Y-102299100D01*
X258742600Y-102030969D02*
X258742600Y-99793796D01*
X258992600Y-102280969D02*
X258742600Y-102030969D01*
X260502400Y-103378000D02*
X260071500Y-103378000D01*
%TO.N,Batt2Gate*%
X248800000Y-97688400D02*
X249933000Y-98821400D01*
X261000000Y-85480392D02*
X261000000Y-83091852D01*
X249933000Y-98821400D02*
X259063256Y-98821400D01*
X259063256Y-98821400D02*
X262574600Y-95310056D01*
X262574600Y-95310056D02*
X262589944Y-95310056D01*
X263300000Y-87780392D02*
X261000000Y-85480392D01*
X262589944Y-95310056D02*
X263300000Y-94600000D01*
X263300000Y-94600000D02*
X263300000Y-87780392D01*
X264291852Y-79800000D02*
X264328200Y-79800000D01*
%TO.N,Batt2Enable*%
X261450000Y-85293996D02*
X261450000Y-83950000D01*
X261450000Y-83950000D02*
X263500000Y-81900000D01*
%TO.N,Net-(LED17-DOUT)*%
X264000000Y-99500000D02*
X262703200Y-99500000D01*
X262703200Y-99500000D02*
X261924600Y-98721400D01*
X264400000Y-95236396D02*
X264400000Y-87607600D01*
X261924600Y-98721400D02*
X261924600Y-97711796D01*
X261924600Y-97711796D02*
X264400000Y-95236396D01*
X264400000Y-87607600D02*
X261924600Y-85132200D01*
X261924600Y-85132200D02*
X261924600Y-84271831D01*
X261924600Y-84271831D02*
X262912522Y-83283909D01*
X262912522Y-83283909D02*
X263716091Y-83283909D01*
X263716091Y-83283909D02*
X264000000Y-83000000D01*
D102*
%TO.N,+BATT1*%
X257499600Y-95046400D02*
X254600463Y-95046400D01*
X254600463Y-95046400D02*
X251642100Y-92088037D01*
D97*
%TO.N,Batt2Enable*%
X260750000Y-111586396D02*
X260750000Y-108147600D01*
X258742600Y-119142600D02*
X258742600Y-113593796D01*
D100*
%TO.N,+VregDiode*%
X256318068Y-101498400D02*
X246648400Y-101498400D01*
X260608828Y-105178000D02*
X259756815Y-105178000D01*
D97*
%TO.N,Batt2Enable*%
X260000000Y-120400000D02*
X258742600Y-119142600D01*
%TO.N,Batt1Enable*%
X258609685Y-121309685D02*
X258292600Y-120992600D01*
D100*
%TO.N,+VregDiode*%
X257567600Y-102747932D02*
X256318068Y-101498400D01*
X259756815Y-105178000D02*
X257567600Y-102988785D01*
D97*
%TO.N,Batt2Enable*%
X260750000Y-108147600D02*
X260702400Y-108100000D01*
%TO.N,Batt1Enable*%
X258292600Y-110807400D02*
X259800000Y-109300000D01*
D100*
%TO.N,+VregDiode*%
X257567600Y-102988785D02*
X257567600Y-102747932D01*
X262767600Y-107336772D02*
X260608828Y-105178000D01*
D97*
%TO.N,Batt1Enable*%
X258292600Y-120992600D02*
X258292600Y-110807400D01*
D100*
%TO.N,+VregDiode*%
X246648400Y-101498400D02*
X244650000Y-99500000D01*
D97*
%TO.N,Batt2Enable*%
X258742600Y-113593796D02*
X260750000Y-111586396D01*
D100*
%TO.N,+VregDiode*%
X262517600Y-121850000D02*
X262767600Y-121600000D01*
X243666015Y-99500000D02*
X242287600Y-98121585D01*
X242287600Y-97200000D02*
X242287600Y-92941600D01*
X244650000Y-99500000D02*
X243666015Y-99500000D01*
X242287600Y-98121585D02*
X242287600Y-97200000D01*
D97*
%TO.N,Batt2Gate*%
X244400000Y-97688400D02*
X248842404Y-97688400D01*
X261091852Y-83000000D02*
X263116852Y-80975000D01*
X263116852Y-80975000D02*
X263153200Y-80975000D01*
X263355000Y-63600000D02*
X262600000Y-63600000D01*
X264328200Y-79800000D02*
X264328200Y-64573200D01*
X261000000Y-83000000D02*
X261091852Y-83000000D01*
X263153200Y-80975000D02*
X264328200Y-79800000D01*
X264328200Y-64573200D02*
X263355000Y-63600000D01*
D100*
%TO.N,+5V*%
X220086609Y-138950798D02*
X206916907Y-125781096D01*
D97*
%TO.N,Net-(LED1-DOUT)*%
X165594400Y-159750000D02*
X162829300Y-156984900D01*
D99*
%TO.N,+5V*%
X160998478Y-156250000D02*
X157293000Y-156250000D01*
D97*
%TO.N,Net-(LED1-DOUT)*%
X162829300Y-156984900D02*
X162384900Y-156984900D01*
D99*
%TO.N,+5V*%
X162294400Y-154954078D02*
X160998478Y-156250000D01*
X157293000Y-156250000D02*
X155793000Y-154750000D01*
D97*
%TO.N,Net-(LED2-DOUT)*%
X166674478Y-154750000D02*
X166697239Y-154727239D01*
X165594400Y-154750000D02*
X166674478Y-154750000D01*
D99*
%TO.N,+5V*%
X168795800Y-154750000D02*
X167295800Y-156250000D01*
X167295800Y-156250000D02*
X163794400Y-156250000D01*
X163794400Y-156250000D02*
X162294400Y-154750000D01*
D97*
%TO.N,Net-(LED3-DOUT)*%
X172095800Y-154750000D02*
X172675879Y-154750000D01*
X172675879Y-154750000D02*
X172851409Y-154574470D01*
D99*
%TO.N,+5V*%
X173297200Y-156250000D02*
X170295800Y-156250000D01*
X175297200Y-154750000D02*
X174797200Y-154750000D01*
X170295800Y-156250000D02*
X168795800Y-154750000D01*
X174797200Y-154750000D02*
X173297200Y-156250000D01*
D97*
%TO.N,Net-(LED4-DOUT)*%
X178597200Y-154750000D02*
X179028678Y-154750000D01*
D99*
%TO.N,+5V*%
X176797200Y-156250000D02*
X175297200Y-154750000D01*
X181798600Y-154750000D02*
X181150000Y-154750000D01*
D97*
%TO.N,Net-(LED4-DOUT)*%
X179028678Y-154750000D02*
X179175286Y-154603392D01*
D99*
%TO.N,+5V*%
X181150000Y-154750000D02*
X179650000Y-156250000D01*
X179650000Y-156250000D02*
X176797200Y-156250000D01*
D97*
%TO.N,NeoPass1*%
X186178678Y-154750000D02*
X186194339Y-154734339D01*
X185098600Y-154750000D02*
X186178678Y-154750000D01*
D99*
%TO.N,+5V*%
X183298600Y-156250000D02*
X181798600Y-154750000D01*
X188300000Y-154750000D02*
X186800000Y-156250000D01*
X186800000Y-156250000D02*
X183298600Y-156250000D01*
D97*
%TO.N,Net-(LED6-DOUT)*%
X191600000Y-154750000D02*
X192328679Y-154750000D01*
D99*
%TO.N,+5V*%
X194801400Y-154750000D02*
X193251400Y-156300000D01*
D97*
%TO.N,Net-(LED6-DOUT)*%
X192328679Y-154750000D02*
X192595198Y-154483481D01*
D99*
%TO.N,+5V*%
X193251400Y-156300000D02*
X189850000Y-156300000D01*
X189850000Y-156300000D02*
X188300000Y-154750000D01*
D97*
%TO.N,Batt1Enable*%
X225000000Y-145300000D02*
X224625000Y-144925000D01*
X222225000Y-144925000D02*
X222000000Y-144700000D01*
X224625000Y-144925000D02*
X222225000Y-144925000D01*
%TO.N,+3.3V*%
X226100000Y-149206000D02*
X226100000Y-144159400D01*
%TO.N,Batt2Enable*%
X229050000Y-144100000D02*
X229050000Y-144650000D01*
X229050000Y-144650000D02*
X228000000Y-145700000D01*
%TO.N,~{OCPLatch}*%
X226550000Y-148229831D02*
X226550000Y-147350000D01*
X230400000Y-148700000D02*
X227020169Y-148700000D01*
X226550000Y-147350000D02*
X227225000Y-146675000D01*
X227020169Y-148700000D02*
X226550000Y-148229831D01*
%TO.N,Net-(D13-A)*%
X232650000Y-145650000D02*
X232650000Y-143687779D01*
X232650000Y-143687779D02*
X231187221Y-142225000D01*
X231187221Y-142225000D02*
X226625000Y-142225000D01*
%TO.N,Batt1Enable*%
X241310000Y-141660000D02*
X242300000Y-141660000D01*
X242300000Y-141660000D02*
X241560000Y-141660000D01*
X241560000Y-141660000D02*
X241300000Y-141400000D01*
%TO.N,/Battery Control Logic/Batt2>UVP*%
X238023223Y-145201777D02*
X238200000Y-145201777D01*
%TO.N,Batt2Enable*%
X237000000Y-143700084D02*
X234999916Y-143700084D01*
%TO.N,Batt1Enable*%
X234000000Y-142900000D02*
X234209009Y-142900000D01*
X234434009Y-142675000D02*
X235793338Y-142675000D01*
X234209009Y-142900000D02*
X234434009Y-142675000D01*
X235793338Y-142675000D02*
X235852938Y-142734600D01*
%TO.N,Batt2Enable*%
X234999916Y-143700084D02*
X234900000Y-143800000D01*
D96*
%TO.N,+3.3V*%
X225577400Y-141072600D02*
X225999202Y-140650798D01*
X225577400Y-143636800D02*
X225577400Y-141072600D01*
D97*
%TO.N,/Battery Control Logic/Batt2>UVP*%
X231300000Y-147400000D02*
X230700000Y-147400000D01*
X230700000Y-147400000D02*
X230500000Y-147600000D01*
X230500000Y-147600000D02*
X228200000Y-147600000D01*
X224600000Y-148300000D02*
X220400000Y-148300000D01*
X220400000Y-148300000D02*
X220300000Y-148200000D01*
%TO.N,/Battery Control Logic/OCPReference*%
X219500000Y-153300000D02*
X219225000Y-153300000D01*
%TO.N,KillSwitch*%
X223427208Y-153175000D02*
X223402208Y-153150000D01*
X223402208Y-153150000D02*
X221444657Y-153150000D01*
D99*
%TO.N,+5V*%
X235809800Y-156250000D02*
X234309800Y-154750000D01*
X240311200Y-154817278D02*
X238878478Y-156250000D01*
X238878478Y-156250000D02*
X235809800Y-156250000D01*
D97*
%TO.N,Net-(LED12-DOUT)*%
X234079900Y-156720100D02*
X237109800Y-159750000D01*
D99*
%TO.N,+5V*%
X234309800Y-154750000D02*
X233809800Y-154750000D01*
X242311200Y-156250000D02*
X240811200Y-154750000D01*
X240811200Y-154750000D02*
X240311200Y-154750000D01*
D97*
%TO.N,Net-(LED13-DOUT)*%
X240830600Y-156969400D02*
X243611200Y-159750000D01*
D99*
%TO.N,+5V*%
X246812600Y-154750000D02*
X245312600Y-156250000D01*
X245312600Y-156250000D02*
X242311200Y-156250000D01*
X248812600Y-156250000D02*
X247312600Y-154750000D01*
X247312600Y-154750000D02*
X246812600Y-154750000D01*
X253314000Y-154750000D02*
X251814000Y-156250000D01*
X251814000Y-156250000D02*
X248812600Y-156250000D01*
D100*
X251996400Y-132203600D02*
X254090000Y-130110000D01*
X254090000Y-130110000D02*
X254090000Y-129840000D01*
D97*
%TO.N,Net-(LED11-DOUT)*%
X227779200Y-156920800D02*
X227758400Y-156900000D01*
X227779200Y-156920800D02*
X230608400Y-159750000D01*
X227568400Y-156710000D02*
X227779200Y-156920800D01*
X227758400Y-156900000D02*
X227000000Y-156900000D01*
D99*
%TO.N,+5V*%
X222307000Y-156250000D02*
X225791522Y-156250000D01*
X227291522Y-154750000D02*
X227308400Y-154750000D01*
X225791522Y-156250000D02*
X227291522Y-154750000D01*
D97*
%TO.N,toNEO_CTRL_Orin*%
X184019891Y-75137908D02*
X184044568Y-75162585D01*
D96*
%TO.N,I2C1_SDA*%
X184354525Y-54460855D02*
X184354525Y-54333351D01*
X184975600Y-64241358D02*
X184975600Y-55081930D01*
D97*
%TO.N,toNEO_CTRL_Orin*%
X182981600Y-64058800D02*
X184019891Y-65097091D01*
D96*
%TO.N,I2C1_SDA*%
X184724800Y-76669800D02*
X185196968Y-76197632D01*
D97*
%TO.N,toNEO_CTRL_Orin*%
X184019891Y-65097091D02*
X184019891Y-75137908D01*
D96*
%TO.N,I2C1_SDA*%
X184724800Y-64492158D02*
X184975600Y-64241358D01*
X185196968Y-76197632D02*
X185196968Y-74685245D01*
X184724800Y-74213077D02*
X184724800Y-64492158D01*
X185196968Y-74685245D02*
X184724800Y-74213077D01*
X184975600Y-55081930D02*
X184354525Y-54460855D01*
D97*
%TO.N,~{SystemKill}*%
X183000000Y-92800000D02*
X185100000Y-92800000D01*
X179500000Y-96300000D02*
X183000000Y-92800000D01*
%TO.N,+BATT*%
X186752500Y-97941800D02*
X186752500Y-94529252D01*
%TO.N,Analog_Current*%
X160125000Y-118050000D02*
X157475000Y-115400000D01*
X157625000Y-100471396D02*
X157910898Y-100185498D01*
X157625000Y-102997613D02*
X157625000Y-100471396D01*
X157475000Y-113847613D02*
X157625000Y-113697613D01*
X157475000Y-115400000D02*
X157475000Y-113847613D01*
X157625000Y-105302387D02*
X158125000Y-104802387D01*
X158125000Y-104802387D02*
X158125000Y-103497613D01*
X157910898Y-100185498D02*
X157910898Y-63222698D01*
X158125000Y-103497613D02*
X157625000Y-102997613D01*
X157910898Y-63222698D02*
X157788200Y-63100000D01*
X157625000Y-113697613D02*
X157625000Y-105302387D01*
X157788200Y-63100000D02*
X157788200Y-58735231D01*
X157788200Y-58735231D02*
X157801800Y-58721631D01*
X157801800Y-54715788D02*
X158992588Y-53525000D01*
X157801800Y-58721631D02*
X157801800Y-54715788D01*
X158992588Y-53525000D02*
X165895000Y-53525000D01*
X165895000Y-53525000D02*
X167120000Y-54750000D01*
%TO.N,Dswitch2*%
X168435000Y-57797412D02*
X168435000Y-56782588D01*
X165805000Y-55975000D02*
X164580000Y-54750000D01*
X167627412Y-55975000D02*
X165805000Y-55975000D01*
X168435000Y-56782588D02*
X167627412Y-55975000D01*
%TO.N,toNEO_CTRL_Orin*%
X184477401Y-60269399D02*
X183946800Y-60800000D01*
X184477401Y-56867401D02*
X184477401Y-60269399D01*
X182360000Y-54750000D02*
X184477401Y-56867401D01*
D96*
%TO.N,I2C1_SCL*%
X185877200Y-62680782D02*
X185877200Y-54636633D01*
D97*
%TO.N,KillSwitch*%
X186632800Y-63732800D02*
X198025000Y-75125000D01*
D96*
%TO.N,I2C1_SCL*%
X185480400Y-67403200D02*
X185480400Y-63077582D01*
X185480400Y-63077582D02*
X185877200Y-62680782D01*
X185877200Y-67800000D02*
X185480400Y-67403200D01*
D97*
%TO.N,D{slash}A20*%
X180898800Y-70207809D02*
X180898800Y-65800000D01*
X180600000Y-64700000D02*
X180600000Y-65501200D01*
X180600000Y-65501200D02*
X180898800Y-65800000D01*
X180846463Y-62382400D02*
X180182031Y-61717969D01*
X180846462Y-62382400D02*
X180848000Y-62382400D01*
X180182031Y-61717969D02*
X180846462Y-62382400D01*
D96*
%TO.N,D{slash}A21*%
X181834000Y-70612000D02*
X181834000Y-64500000D01*
D97*
%TO.N,KillSwitch*%
X182730769Y-63263000D02*
X182686369Y-63307400D01*
X182686369Y-63307400D02*
X176407400Y-63307400D01*
%TO.N,toNEO_CTRL_Orin*%
X183946800Y-60800000D02*
X183946800Y-61518800D01*
X184000000Y-60853200D02*
X183946800Y-60800000D01*
X184000000Y-61800000D02*
X184000000Y-60853200D01*
%TO.N,+BATT*%
X190100000Y-93977401D02*
X193675000Y-93977401D01*
D101*
%TO.N,+3.3V*%
X192950000Y-84207500D02*
X192950000Y-84946428D01*
X192950000Y-84946428D02*
X193483572Y-85480000D01*
X193483572Y-85480000D02*
X194260384Y-85480000D01*
X194260384Y-85480000D02*
X196164430Y-87384046D01*
X196164430Y-87384046D02*
X196164430Y-88710570D01*
D97*
%TO.N,/Battery Control Logic/~{OCP}*%
X159675000Y-103888783D02*
X159675000Y-101008796D01*
%TO.N,/Battery Control Logic/~{GateDisable}*%
X157050000Y-110950000D02*
X156500000Y-111500000D01*
%TO.N,ISample3.3V*%
X155600000Y-109200000D02*
X155600000Y-105100000D01*
%TO.N,/Battery Control Logic/~{GateDisable}*%
X156300000Y-102900000D02*
X156375000Y-102900000D01*
%TO.N,/Battery Control Logic/~{OCP}*%
X159900000Y-116500000D02*
X159459009Y-116500000D01*
X167627235Y-93056561D02*
X182058439Y-93056561D01*
X157925000Y-114965991D02*
X157925000Y-114034009D01*
X158225000Y-105338783D02*
X159675000Y-103888783D01*
X158225000Y-113734009D02*
X158225000Y-105338783D01*
X182058439Y-93056561D02*
X183965000Y-91150000D01*
%TO.N,/Battery Control Logic/~{GateDisable}*%
X157050000Y-105240991D02*
X157050000Y-110950000D01*
%TO.N,/Battery Control Logic/~{OCP}*%
X159675000Y-101008796D02*
X167627235Y-93056561D01*
%TO.N,/Battery Control Logic/~{GateDisable}*%
X156500000Y-103025000D02*
X157015991Y-103025000D01*
X157675000Y-103684009D02*
X157675000Y-104615991D01*
X156375000Y-102900000D02*
X156500000Y-103025000D01*
X157015991Y-103025000D02*
X157675000Y-103684009D01*
%TO.N,ISample3.3V*%
X155600000Y-105100000D02*
X156550000Y-104150000D01*
%TO.N,/Battery Control Logic/~{OCP}*%
X157925000Y-114034009D02*
X158225000Y-113734009D01*
%TO.N,ISample3.3V*%
X155400000Y-109400000D02*
X155600000Y-109200000D01*
%TO.N,/Battery Control Logic/~{GateDisable}*%
X157675000Y-104615991D02*
X157050000Y-105240991D01*
%TO.N,/Battery Control Logic/~{OCP}*%
X159459009Y-116500000D02*
X157925000Y-114965991D01*
%TO.N,ISample3.3V*%
X155400000Y-110000000D02*
X155400000Y-109400000D01*
X159900000Y-119300000D02*
X159400000Y-119300000D01*
X159400000Y-119300000D02*
X155200000Y-115100000D01*
%TO.N,/Battery Control Logic/~{GateDisable}*%
X169975000Y-116550000D02*
X174825000Y-121400000D01*
X174825000Y-121400000D02*
X176400000Y-121400000D01*
X176200000Y-131612500D02*
X176200000Y-124039444D01*
X177462500Y-132875000D02*
X176200000Y-131612500D01*
X176200000Y-124039444D02*
X175941185Y-123780629D01*
%TO.N,ISample3.3V*%
X177775000Y-133900000D02*
X180525000Y-133900000D01*
%TO.N,ISample5V*%
X185275100Y-122850100D02*
X185275100Y-106224900D01*
X185275100Y-106224900D02*
X186200000Y-105300000D01*
%TO.N,/Battery Control Logic/~{OCP}*%
X175029387Y-122356595D02*
X183300000Y-122356595D01*
%TO.N,ISample5V*%
X183200000Y-104825000D02*
X180918982Y-104825000D01*
X183200000Y-104825000D02*
X183325000Y-104825000D01*
X183325000Y-104825000D02*
X183800000Y-105300000D01*
X185849999Y-123424999D02*
X185275100Y-122850100D01*
X190610100Y-122099999D02*
X189285100Y-123424999D01*
X189285100Y-123424999D02*
X185849999Y-123424999D01*
D103*
%TO.N,+BATT*%
X162812500Y-114400000D02*
X167412500Y-109800000D01*
X167412500Y-109800000D02*
X169595114Y-109800000D01*
X162812500Y-114400000D02*
X162812500Y-116777702D01*
X162812500Y-110562500D02*
X162812500Y-114400000D01*
X162812500Y-114400000D02*
X162812500Y-112737500D01*
X162812500Y-112737500D02*
X165750000Y-109800000D01*
D97*
%TO.N,ISample3.3V*%
X165475000Y-119350000D02*
X166400000Y-119350000D01*
X166400000Y-119350000D02*
X166050000Y-119350000D01*
X166050000Y-119350000D02*
X165800000Y-119600000D01*
X166400000Y-119350000D02*
X170750000Y-119350000D01*
%TO.N,Analog_Current*%
X166500000Y-118425000D02*
X165725000Y-118425000D01*
X166500000Y-118425000D02*
X166100000Y-118425000D01*
X170461396Y-118425000D02*
X166500000Y-118425000D01*
D103*
%TO.N,+BATT*%
X162750000Y-123700000D02*
X162925000Y-123525000D01*
X162925000Y-123525000D02*
X162925000Y-116890202D01*
X162925000Y-116890202D02*
X162812500Y-116777702D01*
X162050000Y-109800000D02*
X162812500Y-110562500D01*
D97*
%TO.N,/Battery Control Logic/~{GateDisable}*%
X159200000Y-113300000D02*
X159200000Y-114350000D01*
X159200000Y-114350000D02*
X159050000Y-114500000D01*
%TO.N,+3.3V*%
X166624000Y-87385200D02*
X167379000Y-87385200D01*
%TO.N,I2C1_SCL*%
X171675000Y-79334009D02*
X172800000Y-78209009D01*
X168565792Y-83000000D02*
X171675000Y-79890792D01*
%TO.N,+3.3V*%
X167379000Y-87385200D02*
X167878884Y-86885316D01*
X167878884Y-86885316D02*
X169028209Y-86885316D01*
%TO.N,I2C1_SCL*%
X172800000Y-78209009D02*
X172800000Y-75900000D01*
X171675000Y-79890792D02*
X171675000Y-79334009D01*
X167800000Y-83000000D02*
X168565792Y-83000000D01*
%TO.N,~{OCPLatch}*%
X183134000Y-70612000D02*
X183134000Y-69059000D01*
X183134000Y-69059000D02*
X183000000Y-68925000D01*
D96*
%TO.N,I2C1_SDA*%
X186505000Y-78450000D02*
X184724800Y-76669800D01*
D97*
%TO.N,I2C1_SCL*%
X165800000Y-83657350D02*
X165800000Y-83300000D01*
D98*
%TO.N,-BATT1*%
X169012600Y-80337400D02*
X169637400Y-80337400D01*
D97*
%TO.N,I2C1_SCL*%
X163273999Y-86183351D02*
X165800000Y-83657350D01*
D96*
X185877200Y-75285600D02*
X185877200Y-67800000D01*
D98*
%TO.N,-BATT1*%
X168500000Y-80850000D02*
X169012600Y-80337400D01*
D97*
%TO.N,D{slash}A20*%
X180998909Y-72520109D02*
X180998909Y-70307918D01*
D104*
%TO.N,+BATT*%
X173288419Y-104850663D02*
X173288419Y-105673619D01*
D97*
%TO.N,Net-(J4-Pin_8)*%
X174009009Y-92000000D02*
X175495000Y-92000000D01*
X172384009Y-90375000D02*
X174009009Y-92000000D01*
%TO.N,~{OCPLatch}*%
X174200000Y-97700000D02*
X174200000Y-96200000D01*
D104*
%TO.N,+BATT*%
X177891499Y-101503615D02*
X176635467Y-101503615D01*
D97*
%TO.N,D{slash}A20*%
X181884800Y-73406000D02*
X180998909Y-72520109D01*
D104*
%TO.N,+BATT*%
X176635467Y-101503615D02*
X173288419Y-104850663D01*
D97*
%TO.N,Net-(J4-Pin_8)*%
X175495000Y-92000000D02*
X176345000Y-91150000D01*
%TO.N,ISample5V*%
X180918982Y-104825000D02*
X180126357Y-105617625D01*
D104*
%TO.N,+BATT*%
X178695114Y-100700000D02*
X177891499Y-101503615D01*
D97*
%TO.N,~{OCPLatch}*%
X174200000Y-96200000D02*
X174100000Y-96100000D01*
%TO.N,D{slash}A20*%
X180998909Y-70307918D02*
X180898800Y-70207809D01*
D104*
%TO.N,+BATTHall*%
X211156882Y-111368656D02*
X211156882Y-111002518D01*
X211156882Y-111002518D02*
X215519600Y-106639800D01*
X211700000Y-111911774D02*
X211156882Y-111368656D01*
X211275262Y-117791538D02*
X211275262Y-116312964D01*
X211700000Y-115888226D02*
X211700000Y-111911774D01*
X210616800Y-118450000D02*
X211275262Y-117791538D01*
D101*
%TO.N,+3.3V*%
X207067500Y-113732500D02*
X206900000Y-113900000D01*
D104*
%TO.N,+BATTHall*%
X211275262Y-116312964D02*
X211700000Y-115888226D01*
D101*
%TO.N,+3.3V*%
X207067500Y-106820000D02*
X207067500Y-113732500D01*
D97*
%TO.N,KillSwitch*%
X210200000Y-96500000D02*
X210200000Y-93426758D01*
X210522852Y-99131000D02*
X209975000Y-98583148D01*
X210522852Y-99131000D02*
X215101100Y-99131000D01*
X209975000Y-98583148D02*
X209975000Y-96725000D01*
X209975000Y-96725000D02*
X210200000Y-96500000D01*
D96*
%TO.N,VSampleBatt2*%
X211100000Y-98647200D02*
X211100000Y-98400000D01*
X211100000Y-98400000D02*
X210900000Y-98200000D01*
X214384180Y-98647200D02*
X211100000Y-98647200D01*
D97*
X206600000Y-104300000D02*
X206600000Y-103900000D01*
%TO.N,-BATT1*%
X207612500Y-102050000D02*
X207612500Y-103378333D01*
X207612500Y-103378333D02*
X207778633Y-103544466D01*
%TO.N,VSampleBatt2*%
X206600000Y-103900000D02*
X206475000Y-103775000D01*
X206475000Y-103775000D02*
X206475000Y-99078101D01*
X206475000Y-99078101D02*
X206773298Y-98779803D01*
%TO.N,VSampleBatt1*%
X205400000Y-104200000D02*
X205400000Y-98195542D01*
X205400000Y-98195542D02*
X205942819Y-97652723D01*
D101*
%TO.N,+3.3V*%
X207067500Y-106820000D02*
X211837500Y-102050000D01*
D97*
%TO.N,KillSwitch*%
X212975000Y-102354527D02*
X208114763Y-107214763D01*
X208114763Y-107214763D02*
X208114763Y-107214764D01*
X208114763Y-107214764D02*
X208200000Y-107300001D01*
X208200000Y-107300001D02*
X208200000Y-107700000D01*
%TO.N,-BATT1*%
X214425000Y-102075000D02*
X215925000Y-102075000D01*
X215925000Y-102075000D02*
X216000000Y-102000000D01*
%TO.N,I2C1_SDA*%
X207000000Y-90875000D02*
X207065991Y-90875000D01*
X207000000Y-90875000D02*
X206275000Y-90875000D01*
X206275000Y-90875000D02*
X205800000Y-90400000D01*
X206134009Y-90875000D02*
X207000000Y-90875000D01*
%TO.N,VSampleBatt1*%
X206178200Y-93800000D02*
X206178200Y-97417342D01*
X206178200Y-93678200D02*
X205500000Y-93000000D01*
X206178200Y-93800000D02*
X206178200Y-93678200D01*
D101*
%TO.N,+3.3V*%
X208259753Y-89000000D02*
X205740000Y-89000000D01*
D97*
%TO.N,I2C1_SCL*%
X208514667Y-98956931D02*
X208440000Y-98882264D01*
D101*
%TO.N,+3.3V*%
X209157167Y-99070364D02*
X209157167Y-98690799D01*
X209157167Y-98690799D02*
X209082500Y-98616132D01*
X210164386Y-91881988D02*
X210164386Y-90904633D01*
X211837500Y-100100000D02*
X210186803Y-100100000D01*
D97*
%TO.N,I2C1_SCL*%
X208750000Y-100424999D02*
X208750000Y-99571829D01*
X208440000Y-91857246D02*
X208846886Y-91450360D01*
%TO.N,I2C1_SDA*%
X207812500Y-91621509D02*
X207812500Y-99900000D01*
%TO.N,I2C1_SCL*%
X208514667Y-99336496D02*
X208514667Y-98956931D01*
X208440000Y-98882264D02*
X208440000Y-91857246D01*
X208424999Y-100750000D02*
X208750000Y-100424999D01*
%TO.N,VSampleBatt2*%
X207067819Y-93500000D02*
X207067819Y-92467819D01*
D101*
%TO.N,+3.3V*%
X210186803Y-100100000D02*
X209157167Y-99070364D01*
D97*
%TO.N,I2C1_SDA*%
X207065991Y-90875000D02*
X207812500Y-91621509D01*
D101*
%TO.N,+3.3V*%
X209082500Y-98616132D02*
X209082500Y-92963874D01*
D97*
%TO.N,I2C1_SCL*%
X207612500Y-100750000D02*
X208424999Y-100750000D01*
D101*
%TO.N,+3.3V*%
X210164386Y-90904633D02*
X208259753Y-89000000D01*
D97*
%TO.N,I2C1_SCL*%
X208750000Y-99571829D02*
X208514667Y-99336496D01*
%TO.N,I2C1_SDA*%
X207812500Y-99900000D02*
X207612500Y-100100000D01*
%TO.N,VSampleBatt2*%
X207067819Y-92802780D02*
X207067819Y-93500000D01*
D101*
%TO.N,+3.3V*%
X209082500Y-92963874D02*
X210164386Y-91881988D01*
D97*
%TO.N,VSampleBatt2*%
X207067819Y-93500000D02*
X207067819Y-98118714D01*
X207067819Y-92467819D02*
X206600000Y-92000000D01*
%TO.N,VSampleBatt1*%
X206178200Y-97417342D02*
X205942819Y-97652723D01*
%TO.N,VSampleBatt2*%
X206400947Y-92135908D02*
X207067819Y-92802780D01*
X207067819Y-98118714D02*
X206906400Y-98280133D01*
X206906400Y-98646701D02*
X206773298Y-98779803D01*
X206906400Y-98280133D02*
X206906400Y-98646701D01*
%TO.N,KillSwitch*%
X210200000Y-93426758D02*
X210663379Y-92963379D01*
%TO.N,I2C1_SDA*%
X188586600Y-83209728D02*
X191300000Y-85923128D01*
X191300000Y-86700000D02*
X191300000Y-85923128D01*
%TO.N,-BATT1*%
X249485900Y-68300000D02*
X249485900Y-69542400D01*
X249485900Y-67002400D02*
X249485900Y-68300000D01*
X249485900Y-68300000D02*
X253200000Y-68300000D01*
%TO.N,Batt2Enable*%
X256834009Y-80725000D02*
X261975000Y-80725000D01*
X256375000Y-80265991D02*
X256834009Y-80725000D01*
X261975000Y-80725000D02*
X262100000Y-80600000D01*
X256375000Y-78397000D02*
X256375000Y-80265991D01*
%TO.N,-BATT1*%
X259000000Y-79800000D02*
X257500000Y-79800000D01*
%TO.N,Batt1Gate*%
X260572043Y-75350000D02*
X263100000Y-75350000D01*
%TO.N,Batt1GatePreDiv*%
X256323367Y-73055350D02*
X255664358Y-73714359D01*
X254543680Y-73915000D02*
X255940330Y-75311650D01*
X258241746Y-74077000D02*
X257220096Y-73055350D01*
X255664358Y-74464358D02*
X257000000Y-75800000D01*
%TO.N,Batt2Enable*%
X257669950Y-74180350D02*
X256789358Y-74180350D01*
%TO.N,Batt1GatePreDiv*%
X255664358Y-73714359D02*
X255664358Y-74464358D01*
%TO.N,Batt2Enable*%
X257962400Y-74472800D02*
X257669950Y-74180350D01*
%TO.N,Batt1GatePreDiv*%
X255940330Y-75311650D02*
X257000000Y-75311650D01*
X263073000Y-74077000D02*
X258241746Y-74077000D01*
X257220096Y-73055350D02*
X256323367Y-73055350D01*
%TO.N,Batt1Gate*%
X263050000Y-77500000D02*
X263050000Y-75400000D01*
%TO.N,Net-(JP7-A)*%
X259300000Y-77800000D02*
X260300000Y-78800000D01*
X260300000Y-78800000D02*
X263050000Y-78800000D01*
%TO.N,Batt2Enable*%
X263420168Y-81900000D02*
X263500000Y-81900000D01*
X261450000Y-83870168D02*
X263420168Y-81900000D01*
D96*
%TO.N,Batt1Enable*%
X263245600Y-71678800D02*
X262077200Y-71678800D01*
X262077200Y-71678800D02*
X260604000Y-73152000D01*
D97*
%TO.N,-BATT1*%
X255839080Y-72078938D02*
X255686170Y-72231848D01*
X255839080Y-70787000D02*
X255839080Y-72078938D01*
%TO.N,Batt2Enable*%
X256700000Y-69000000D02*
X256600000Y-69000000D01*
X256600000Y-69000000D02*
X255200000Y-67600000D01*
X257109080Y-65859400D02*
X258259400Y-65859400D01*
X258259400Y-65859400D02*
X258400000Y-66000000D01*
D99*
%TO.N,+5V*%
X250668000Y-56832000D02*
X251635446Y-56832000D01*
X251635446Y-56832000D02*
X252767446Y-55700000D01*
D97*
%TO.N,Net-(LED19-DOUT)*%
X253417876Y-57200000D02*
X252687387Y-57930489D01*
D99*
%TO.N,+5V*%
X250300000Y-57200000D02*
X250668000Y-56832000D01*
D97*
%TO.N,Net-(LED19-DOUT)*%
X252687387Y-57930489D02*
X252656879Y-57930489D01*
D99*
%TO.N,+5V*%
X252767446Y-55700000D02*
X254717876Y-55700000D01*
X245875000Y-55700000D02*
X248796438Y-55700000D01*
X244375000Y-57200000D02*
X245875000Y-55700000D01*
X248796438Y-55700000D02*
X250296438Y-57200000D01*
D97*
%TO.N,NeoPass4*%
X246996438Y-57200000D02*
X246400000Y-57200000D01*
D99*
%TO.N,+5V*%
X243875000Y-57200000D02*
X244375000Y-57200000D01*
D97*
%TO.N,NeoPass4*%
X246400000Y-57200000D02*
X245700000Y-57900000D01*
D99*
%TO.N,+5V*%
X235453562Y-55700000D02*
X236953562Y-57200000D01*
X236953562Y-57200000D02*
X237453562Y-57200000D01*
X243875000Y-57200000D02*
X242725430Y-57200000D01*
X242725430Y-57200000D02*
X241225430Y-55700000D01*
X241225430Y-55700000D02*
X238930322Y-55700000D01*
X238930322Y-55700000D02*
X237453562Y-57176760D01*
X205346372Y-57200000D02*
X204846372Y-57200000D01*
X200322322Y-55700000D02*
X198924934Y-57097388D01*
X204846372Y-57200000D02*
X203346372Y-55700000D01*
X203346372Y-55700000D02*
X200322322Y-55700000D01*
X193203496Y-55700000D02*
X192503496Y-56400000D01*
X198924934Y-57200000D02*
X197775364Y-57200000D01*
D97*
%TO.N,Net-(LED28-DOUT)*%
X189203496Y-53068211D02*
X191458730Y-55323445D01*
D99*
%TO.N,+5V*%
X192503496Y-56400000D02*
X192503496Y-57200000D01*
D97*
%TO.N,Net-(LED28-DOUT)*%
X189203496Y-52200000D02*
X189203496Y-53068211D01*
D99*
%TO.N,+5V*%
X196275364Y-55700000D02*
X193203496Y-55700000D01*
X197775364Y-57200000D02*
X196275364Y-55700000D01*
D97*
%TO.N,toNEO_CTRL_Orin*%
X159093000Y-159750000D02*
X154275000Y-154932000D01*
X154275000Y-102454643D02*
X155909426Y-100820217D01*
X154275000Y-154932000D02*
X154275000Y-102454643D01*
%TO.N,ISample3.3V*%
X159600000Y-98900000D02*
X166359299Y-92140701D01*
X166359299Y-92140701D02*
X169691884Y-92140701D01*
X169707744Y-92156561D02*
X171375939Y-92156561D01*
X169691884Y-92140701D02*
X169707744Y-92156561D01*
X171375939Y-92156561D02*
X171857500Y-91675000D01*
%TO.N,toNEO_CTRL_Orin*%
X166522400Y-91287600D02*
X166900000Y-91287600D01*
X166900000Y-91287600D02*
X167436800Y-91287600D01*
X165612400Y-91287600D02*
X166900000Y-91287600D01*
X159200000Y-97700000D02*
X165612400Y-91287600D01*
%TO.N,/Battery Control Logic/~{OCP}*%
X167300000Y-117300000D02*
X169972792Y-117300000D01*
X166400000Y-117300000D02*
X167300000Y-117300000D01*
X166100000Y-117300000D02*
X165775000Y-116975000D01*
X167300000Y-117300000D02*
X166100000Y-117300000D01*
%TO.N,Analog_Current*%
X176866185Y-123397481D02*
X176324333Y-122855629D01*
X174892025Y-122855629D02*
X170461396Y-118425000D01*
X176866185Y-123675798D02*
X176866185Y-123397481D01*
%TO.N,/Battery Control Logic/~{GateDisable}*%
X167591455Y-116550000D02*
X167176582Y-116135127D01*
%TO.N,Analog_Current*%
X177240387Y-124050000D02*
X176866185Y-123675798D01*
%TO.N,/Battery Control Logic/~{GateDisable}*%
X169975000Y-116550000D02*
X167591455Y-116550000D01*
%TO.N,Analog_Current*%
X176324333Y-122855629D02*
X174892025Y-122855629D01*
%TO.N,/Battery Control Logic/~{OCP}*%
X166100000Y-117300000D02*
X166400000Y-117300000D01*
D98*
%TO.N,-BATT1*%
X240284000Y-150216000D02*
X240900000Y-149600000D01*
D97*
%TO.N,~{OCPLatch}*%
X238800000Y-150500000D02*
X238220170Y-150500000D01*
%TO.N,/Battery Control Logic/Batt1>UVP*%
X238825000Y-148925000D02*
X239460000Y-148290000D01*
X238825000Y-148925000D02*
X238750000Y-149000000D01*
X238250000Y-149500000D02*
X238825000Y-148925000D01*
X238750000Y-149000000D02*
X238100000Y-149000000D01*
%TO.N,Batt1Enable*%
X253553400Y-138161000D02*
X251866400Y-136474000D01*
X251866400Y-136474000D02*
X251866400Y-135432800D01*
%TO.N,Batt2Enable*%
X255000000Y-140300000D02*
X254739200Y-140300000D01*
X254739200Y-140300000D02*
X253550800Y-141488400D01*
X254965200Y-140074000D02*
X254965200Y-140265200D01*
X254965200Y-140265200D02*
X255000000Y-140300000D01*
%TO.N,/Battery Control Logic/Batt2>UVP*%
X253553400Y-143215600D02*
X254884400Y-143215600D01*
X254884400Y-143215600D02*
X254900000Y-143200000D01*
D98*
%TO.N,RArray6*%
X249700000Y-145319000D02*
X251803400Y-143215600D01*
X248061006Y-147206000D02*
X249700000Y-145567006D01*
X242087400Y-147206000D02*
X248061006Y-147206000D01*
X249700000Y-145567006D02*
X249700000Y-145319000D01*
D97*
%TO.N,Batt2Enable*%
X244849652Y-143060000D02*
X247560000Y-143060000D01*
X247560000Y-143060000D02*
X247900000Y-143400000D01*
%TO.N,ISample5V*%
X170594311Y-93768889D02*
X175618889Y-93768889D01*
X176954356Y-95104356D02*
X177840505Y-95104356D01*
X175618889Y-93768889D02*
X176954356Y-95104356D01*
X170594311Y-93768889D02*
X170332400Y-94030800D01*
%TO.N,toNEO_CTRL_Orin*%
X167436800Y-91287600D02*
X167640000Y-91084400D01*
%TO.N,-BATT1*%
X240436400Y-100685600D02*
X241249200Y-99872800D01*
X199700000Y-158147200D02*
X199700000Y-157800000D01*
X240371800Y-143548600D02*
X240371800Y-145893000D01*
X181798600Y-159750000D02*
X180150000Y-158101400D01*
X187550000Y-127600000D02*
X190012500Y-127600000D01*
X192503496Y-53616296D02*
X192735200Y-53848000D01*
X263139322Y-52200000D02*
X262014322Y-53325000D01*
D99*
X175900000Y-115375000D02*
X175900000Y-116875000D01*
X175900000Y-116875000D02*
X177100000Y-118075000D01*
D97*
X175297200Y-159750000D02*
X173750000Y-158202800D01*
X256717876Y-52200000D02*
X255636254Y-53281622D01*
X198924934Y-53332134D02*
X199440800Y-53848000D01*
X231032124Y-52317724D02*
X232410000Y-53695600D01*
X241068000Y-66218000D02*
X242350000Y-67500000D01*
X251650000Y-158086000D02*
X251650000Y-157850000D01*
X250296438Y-52481238D02*
X251561600Y-53746400D01*
X233809800Y-159559800D02*
X232200000Y-157950000D01*
X262459999Y-137111100D02*
X257846099Y-137111100D01*
X193100000Y-158048600D02*
X193100000Y-157950000D01*
X211767810Y-52967010D02*
X212547200Y-53746400D01*
X192503496Y-52200000D02*
X192503496Y-53616296D01*
X167200000Y-158154200D02*
X167200000Y-157850000D01*
X186650000Y-158100000D02*
X186650000Y-157800000D01*
X188300000Y-159750000D02*
X186650000Y-158100000D01*
X155793000Y-158243000D02*
X155350000Y-157800000D01*
X194801400Y-159750000D02*
X193100000Y-158048600D01*
X218189248Y-52200000D02*
X218189248Y-52936848D01*
D96*
X262193468Y-133096000D02*
X262548752Y-132740716D01*
D97*
X168795800Y-159750000D02*
X167200000Y-158154200D01*
X201302800Y-159750000D02*
X199700000Y-158147200D01*
D96*
X175369400Y-119805600D02*
X177100000Y-118075000D01*
D97*
X162294400Y-159750000D02*
X160700000Y-158155600D01*
X207804200Y-159454200D02*
X206250000Y-157900000D01*
X237467600Y-52200000D02*
X238963200Y-53695600D01*
X224610686Y-52601886D02*
X225755200Y-53746400D01*
D101*
X166776400Y-96723200D02*
X162050000Y-101449600D01*
D97*
X227308400Y-159558400D02*
X225750000Y-158000000D01*
X218189248Y-52936848D02*
X219151200Y-53898800D01*
X259815400Y-159615400D02*
X258200000Y-158000000D01*
X219150000Y-158093000D02*
X219150000Y-157900000D01*
X205346372Y-52844772D02*
X206298800Y-53797200D01*
X240311200Y-159461200D02*
X238750000Y-157900000D01*
X214305600Y-159555600D02*
X212700000Y-157950000D01*
X211767810Y-52200000D02*
X211767810Y-52967010D01*
D96*
X261590700Y-133096000D02*
X262193468Y-133096000D01*
D97*
X262014322Y-53325000D02*
X257842876Y-53325000D01*
X173750000Y-158202800D02*
X173750000Y-157850000D01*
X220807000Y-159750000D02*
X219150000Y-158093000D01*
D99*
X260150000Y-149350000D02*
X260150000Y-144950000D01*
D101*
X168616402Y-96723200D02*
X166776400Y-96723200D01*
D97*
X155793000Y-159750000D02*
X155793000Y-158243000D01*
X246812600Y-159562600D02*
X245200000Y-157950000D01*
D96*
X240455200Y-98196400D02*
X240455200Y-100868519D01*
D97*
X180150000Y-158101400D02*
X180150000Y-157700000D01*
X198924934Y-52200000D02*
X198924934Y-53332134D01*
X243919200Y-52200000D02*
X245313200Y-53594000D01*
X253314000Y-159750000D02*
X251650000Y-158086000D01*
X240271200Y-146050000D02*
X240271200Y-150012400D01*
D99*
X260150000Y-144950000D02*
X260100000Y-144900000D01*
D97*
X257842876Y-53325000D02*
X256717876Y-52200000D01*
X160700000Y-158155600D02*
X160700000Y-157750000D01*
%TO.N,+VregDiode*%
X251824000Y-64543800D02*
X252049400Y-64318400D01*
D96*
X244455900Y-128555300D02*
X245808300Y-129907700D01*
X237234000Y-128555300D02*
X244455900Y-128555300D01*
D100*
X259915200Y-123263200D02*
X261104400Y-123263200D01*
D96*
X262260200Y-67615800D02*
X259745600Y-67615800D01*
D97*
X255376800Y-64369200D02*
X255376800Y-63139700D01*
D96*
X236321600Y-129467700D02*
X237234000Y-128555300D01*
D100*
X242925600Y-106972100D02*
X242925600Y-101224400D01*
X262517600Y-123105600D02*
X262517600Y-121850000D01*
X244650000Y-99500000D02*
X243435132Y-99500000D01*
D96*
X259517000Y-67387200D02*
X256642980Y-67387200D01*
X255839080Y-64831480D02*
X255376800Y-64369200D01*
D100*
X261137600Y-124485600D02*
X262517600Y-123105600D01*
D97*
X247045600Y-65096600D02*
X247598400Y-64543800D01*
D96*
X259515700Y-133096000D02*
X259515700Y-130185700D01*
D100*
X259170000Y-126453200D02*
X261137600Y-124485600D01*
D96*
X255839080Y-65859400D02*
X255839080Y-64831480D01*
D100*
X242925600Y-101224400D02*
X244650000Y-99500000D01*
X261137600Y-124485600D02*
X259915200Y-123263200D01*
X261104400Y-123263200D02*
X262517600Y-121850000D01*
D97*
X247598400Y-64543800D02*
X251824000Y-64543800D01*
D96*
X256642980Y-67387200D02*
X255839080Y-66583300D01*
D97*
%TO.N,+5V*%
X166861000Y-84548200D02*
X166861000Y-82925569D01*
D99*
X256717876Y-57200000D02*
X256217876Y-57200000D01*
X196301400Y-156250000D02*
X194801400Y-154750000D01*
D96*
X177444400Y-120091200D02*
X182676800Y-120091200D01*
D97*
X158431400Y-74495969D02*
X158431400Y-58358600D01*
D100*
X186600100Y-122099999D02*
X186600100Y-120849900D01*
D99*
X209118240Y-55700000D02*
X206846372Y-55700000D01*
X233809800Y-154750000D02*
X232309800Y-156250000D01*
D100*
X220086609Y-138950798D02*
X224687505Y-138950798D01*
D97*
X263886100Y-139186100D02*
X263900000Y-139200000D01*
D99*
X258315400Y-156250000D02*
X254814000Y-156250000D01*
X261403900Y-153161500D02*
X259815400Y-154750000D01*
X219307000Y-156250000D02*
X215805600Y-156250000D01*
D100*
X240183799Y-132107700D02*
X242569162Y-132107700D01*
D99*
X211767810Y-57200000D02*
X210618240Y-57200000D01*
D100*
X224687505Y-138950798D02*
X226988303Y-136650000D01*
D101*
X199424934Y-79032566D02*
X199424934Y-57700000D01*
D99*
X227308400Y-154750000D02*
X225808400Y-156250000D01*
X215805600Y-156250000D02*
X214305600Y-154750000D01*
X254717876Y-55700000D02*
X251796438Y-55700000D01*
X256217876Y-57200000D02*
X254717876Y-55700000D01*
X263900000Y-139200000D02*
X263900000Y-141143601D01*
X228808400Y-156250000D02*
X227308400Y-154750000D01*
D101*
X194250000Y-84207500D02*
X199424934Y-79032566D01*
D97*
X158431400Y-58358600D02*
X159500000Y-57290000D01*
X166861000Y-82925569D02*
X158431400Y-74495969D01*
D99*
X263139322Y-57200000D02*
X261639322Y-55700000D01*
X254814000Y-156250000D02*
X253314000Y-154750000D01*
X170295800Y-156250000D02*
X169247900Y-155202100D01*
D100*
X187450001Y-119999999D02*
X191607731Y-119999999D01*
D97*
X262459999Y-139186100D02*
X263886100Y-139186100D01*
D99*
X259815400Y-154750000D02*
X258315400Y-156250000D01*
X232309800Y-156250000D02*
X228808400Y-156250000D01*
X264126600Y-144270199D02*
X264126600Y-153161500D01*
X220807000Y-154750000D02*
X219307000Y-156250000D01*
X169247900Y-155202100D02*
X168795800Y-154750000D01*
X222307000Y-156250000D02*
X220807000Y-154750000D01*
X206846372Y-55700000D02*
X205346372Y-57200000D01*
X263900000Y-141143601D02*
X262450001Y-142593600D01*
X264126600Y-153161500D02*
X261403900Y-153161500D01*
X262450001Y-142593600D02*
X264126600Y-144270199D01*
D101*
X199424934Y-57700000D02*
X198924934Y-57200000D01*
D99*
X210618240Y-57200000D02*
X209118240Y-55700000D01*
D97*
%TO.N,+3.3V*%
X207951631Y-129921800D02*
X207901631Y-129871800D01*
D99*
X257849999Y-142593600D02*
X257849999Y-141250000D01*
D101*
X211837500Y-100100000D02*
X211837500Y-100750000D01*
X211837500Y-100750000D02*
X211837500Y-101400000D01*
D99*
X257849999Y-141250000D02*
X257849999Y-139283800D01*
D97*
X209150000Y-130800000D02*
X208271800Y-129921800D01*
D99*
X228100000Y-140950000D02*
X232900000Y-140950000D01*
X223090000Y-140650798D02*
X227800798Y-140650798D01*
D97*
X205849800Y-128032612D02*
X205849800Y-127499800D01*
D99*
X209150000Y-130800000D02*
X208703200Y-130353200D01*
X227800798Y-140650798D02*
X228100000Y-140950000D01*
D97*
X211112500Y-133237500D02*
X211587500Y-133237500D01*
D101*
X211837500Y-101400000D02*
X211837500Y-102050000D01*
D97*
X208271800Y-129921800D02*
X207951631Y-129921800D01*
D101*
X214325000Y-100100000D02*
X211837500Y-100100000D01*
D99*
X205849800Y-127499800D02*
X205206422Y-126856422D01*
D101*
X177875000Y-86850000D02*
X180388500Y-89363500D01*
D99*
X225999202Y-140650798D02*
X223090000Y-140650798D01*
D97*
X260148599Y-139211500D02*
X257820699Y-139211500D01*
%TO.N,ISample5V*%
X187550000Y-125525000D02*
X192300000Y-125525000D01*
D103*
%TO.N,Net-(JP12-A)*%
X168822500Y-130390000D02*
X168675000Y-130537500D01*
X166450000Y-140606292D02*
X163043154Y-140606292D01*
X173775000Y-140606292D02*
X173506292Y-140606292D01*
X170425000Y-134225000D02*
X170425000Y-132287500D01*
X173506292Y-140606292D02*
X170425000Y-137525000D01*
X172907500Y-130390000D02*
X168822500Y-130390000D01*
X171305000Y-131992500D02*
X172907500Y-130390000D01*
X170425000Y-131992500D02*
X171305000Y-131992500D01*
X170425000Y-132287500D02*
X168675000Y-130537500D01*
X180060600Y-140606292D02*
X173775000Y-140606292D01*
X170425000Y-131992500D02*
X168822500Y-130390000D01*
X166450000Y-140606292D02*
X167343708Y-140606292D01*
X170425000Y-140606292D02*
X170425000Y-137525000D01*
X173775000Y-140606292D02*
X170425000Y-140606292D01*
X170425000Y-134225000D02*
X170425000Y-131992500D01*
X170425000Y-140606292D02*
X166450000Y-140606292D01*
X167343708Y-140606292D02*
X170425000Y-137525000D01*
X163043154Y-140606292D02*
X163042600Y-140606846D01*
X170425000Y-137525000D02*
X170425000Y-134225000D01*
D104*
%TO.N,+BATT*%
X169595114Y-109366923D02*
X169595114Y-109800000D01*
D103*
X162750000Y-123700000D02*
X165224873Y-123700000D01*
D99*
X175900000Y-111375000D02*
X175900000Y-103495114D01*
D101*
X168325800Y-100711000D02*
X173288419Y-105673619D01*
D103*
X165224873Y-123700000D02*
X166687373Y-125162500D01*
D104*
X165750000Y-109800000D02*
X162050000Y-109800000D01*
D99*
X175900000Y-103495114D02*
X178695114Y-100700000D01*
D103*
X166687373Y-125162500D02*
X168675000Y-125162500D01*
D104*
X173288419Y-105673619D02*
X169595114Y-109366923D01*
X182991766Y-100700000D02*
X182889566Y-100802200D01*
X183700100Y-100700000D02*
X182991766Y-100700000D01*
X178797314Y-100802200D02*
X178695114Y-100700000D01*
X182889566Y-100802200D02*
X178797314Y-100802200D01*
D103*
X162750000Y-110500000D02*
X162050000Y-109800000D01*
D104*
X169595114Y-109800000D02*
X165750000Y-109800000D01*
D103*
X168822500Y-125310000D02*
X172907500Y-125310000D01*
X168675000Y-125162500D02*
X168822500Y-125310000D01*
D97*
%TO.N,Batt1GatePreDiv*%
X254543680Y-73915000D02*
X254543680Y-70812400D01*
%TO.N,Batt2GatePreDiv*%
X257925000Y-59425000D02*
X256900000Y-60450000D01*
X254594480Y-60500000D02*
X256850000Y-60500000D01*
X262600000Y-60100000D02*
X261925000Y-59425000D01*
X254569080Y-60525400D02*
X254569080Y-65859400D01*
X261925000Y-59425000D02*
X257925000Y-59425000D01*
%TO.N,/Battery Control Logic/Batt1>UVP*%
X243196396Y-142110000D02*
X246826625Y-142110000D01*
X239460000Y-148290000D02*
X239460000Y-142840300D01*
X246826625Y-142110000D02*
X247654741Y-141281884D01*
X239460000Y-142840300D02*
X239882100Y-142418200D01*
X239882100Y-142418200D02*
X242888196Y-142418200D01*
X242888196Y-142418200D02*
X243196396Y-142110000D01*
X247654741Y-141281884D02*
X249852416Y-141281884D01*
D96*
%TO.N,Batt2Enable*%
X257671550Y-76787300D02*
X257962400Y-76496450D01*
X257671550Y-78130400D02*
X257671550Y-76787300D01*
D97*
X229050000Y-144100000D02*
X231050000Y-144100000D01*
D96*
X257962400Y-76496450D02*
X257962400Y-74472800D01*
X256641600Y-78130400D02*
X257671550Y-78130400D01*
D97*
%TO.N,Batt1Enable*%
X251206000Y-130403600D02*
X255861285Y-125748315D01*
X230100000Y-143150000D02*
X228850000Y-143150000D01*
X255861285Y-125748315D02*
X255948715Y-125748315D01*
X227560084Y-144439916D02*
X227560084Y-144560084D01*
X228850000Y-143150000D02*
X227560084Y-144439916D01*
X248650000Y-140175000D02*
X249163902Y-140175000D01*
%TO.N,~{OCPLatch}*%
X253539400Y-144892000D02*
X255925000Y-147277600D01*
%TO.N,/Battery Control Logic/~{OCP}*%
X169972792Y-117300000D02*
X175029387Y-122356595D01*
%TO.N,/Battery Control Logic/~{GateDisable}*%
X179968439Y-92606561D02*
X169521348Y-92606561D01*
X167309299Y-92590701D02*
X158700000Y-101200000D01*
X181425000Y-91150000D02*
X179968439Y-92606561D01*
X169505488Y-92590701D02*
X167309299Y-92590701D01*
X248332430Y-152044378D02*
X248180052Y-151892000D01*
X248332430Y-151812430D02*
X248332430Y-152044378D01*
X169521348Y-92606561D02*
X169505488Y-92590701D01*
D105*
%TO.N,+BATT1*%
X242163600Y-81457800D02*
X225583701Y-81457800D01*
X242163600Y-81457800D02*
X237789500Y-81457800D01*
D104*
X251642100Y-92088037D02*
X251642100Y-85856300D01*
D105*
X237789500Y-81457800D02*
X230790701Y-88456599D01*
D96*
X236220000Y-91370400D02*
X232146702Y-91370400D01*
D105*
X230333501Y-70154800D02*
X230333501Y-74001801D01*
X242163600Y-81457800D02*
X247243600Y-81457800D01*
X225583701Y-81457800D02*
X225405901Y-81280000D01*
X230790701Y-88456599D02*
X230790701Y-92726401D01*
D104*
X251642100Y-85856300D02*
X247243600Y-81457800D01*
D105*
X230333501Y-74001801D02*
X237789500Y-81457800D01*
%TO.N,+BATT2*%
X237662500Y-117944900D02*
X230909600Y-111192000D01*
X236283500Y-117944900D02*
X230909600Y-123318800D01*
D96*
X236372400Y-108137200D02*
X233964400Y-108137200D01*
D105*
X237662500Y-117944900D02*
X236283500Y-117944900D01*
D104*
X254317600Y-111956400D02*
X248329100Y-117944900D01*
D105*
X230909600Y-123318800D02*
X230909600Y-130050799D01*
X242036600Y-117944900D02*
X225819699Y-117944900D01*
X242036600Y-117944900D02*
X247116600Y-117944900D01*
D104*
X248329100Y-117944900D02*
X247116600Y-117944900D01*
D105*
X242036600Y-117944900D02*
X237662500Y-117944900D01*
X230909600Y-111192000D02*
X230909600Y-106739799D01*
X225819699Y-117944900D02*
X225448600Y-118315999D01*
D97*
%TO.N,COM*%
X178006254Y-80952053D02*
X176575000Y-82383307D01*
X181300573Y-78450000D02*
X178798520Y-80952053D01*
X178798520Y-80952053D02*
X178006254Y-80952053D01*
D96*
%TO.N,I2C1_SCL*%
X189045000Y-78450000D02*
X185982200Y-75387200D01*
D97*
X189045000Y-83031733D02*
X193138267Y-87125000D01*
D96*
X185978800Y-75387200D02*
X185877200Y-75285600D01*
D97*
X193138267Y-87125000D02*
X194325000Y-87125000D01*
X189045000Y-78450000D02*
X189045000Y-83031733D01*
D96*
X185982200Y-75387200D02*
X185978800Y-75387200D01*
D101*
%TO.N,Net-(J3-Pin_1)*%
X191650000Y-84207500D02*
X191650000Y-80925000D01*
X191650000Y-80925000D02*
X194125000Y-78450000D01*
D97*
%TO.N,I2C1_SDA*%
X188586600Y-80531600D02*
X188586600Y-83209728D01*
X186505000Y-78450000D02*
X188586600Y-80531600D01*
D96*
%TO.N,VSampleBatt1*%
X238455200Y-98196400D02*
X237490000Y-97231200D01*
X237490000Y-97231200D02*
X236220000Y-97231200D01*
X238455200Y-98896400D02*
X236557484Y-100794116D01*
X238455200Y-98196400D02*
X238455200Y-98896400D01*
D97*
%TO.N,/Battery Control Logic/UVPReference*%
X189045000Y-91150000D02*
X189045000Y-97408200D01*
D96*
%TO.N,VSampleBatt2*%
X214777780Y-98253600D02*
X214384180Y-98647200D01*
X236372400Y-102190800D02*
X235518997Y-101337397D01*
X236372400Y-102190800D02*
X237388400Y-102190800D01*
X216314580Y-98253600D02*
X214777780Y-98253600D01*
X237388400Y-102190800D02*
X238436400Y-101142800D01*
D98*
%TO.N,Net-(J7-Shield)*%
X167200000Y-79770000D02*
X167200000Y-80850000D01*
X165025000Y-64455000D02*
X165025000Y-77595000D01*
X165025000Y-64455000D02*
X170705000Y-64455000D01*
X170705000Y-77595000D02*
X165025000Y-77595000D01*
X165025000Y-77595000D02*
X167200000Y-79770000D01*
%TO.N,Device_D-*%
X167735000Y-70025000D02*
X168509999Y-70799999D01*
X169580001Y-70799999D02*
X170355000Y-70025000D01*
X168509999Y-70799999D02*
X169580001Y-70799999D01*
%TO.N,Device_D+*%
X168509999Y-71250001D02*
X169580001Y-71250001D01*
X169580001Y-71250001D02*
X170355000Y-72025000D01*
X167735000Y-72025000D02*
X168509999Y-71250001D01*
D97*
%TO.N,Net-(JP1-A)*%
X259517000Y-69212200D02*
X259517000Y-69878820D01*
X259517000Y-69878820D02*
X259854174Y-70215994D01*
X262260200Y-68915800D02*
X259813400Y-68915800D01*
X250103300Y-70750000D02*
X247553200Y-70750000D01*
X252555500Y-70787000D02*
X251310900Y-69542400D01*
X247553200Y-70750000D02*
X247045600Y-70242400D01*
X251310900Y-69542400D02*
X250103300Y-70750000D01*
X253299080Y-70787000D02*
X252555500Y-70787000D01*
%TO.N,Net-(JP2-B)*%
X247464800Y-65977400D02*
X250285900Y-65977400D01*
X253600700Y-65557780D02*
X253299080Y-65859400D01*
X247045600Y-68942400D02*
X247045600Y-66396600D01*
X253600700Y-63090800D02*
X253600700Y-65557780D01*
X251310900Y-67002400D02*
X252156080Y-67002400D01*
X252156080Y-67002400D02*
X253299080Y-65859400D01*
X250285900Y-65977400D02*
X251310900Y-67002400D01*
X247045600Y-66396600D02*
X247464800Y-65977400D01*
%TO.N,Batt2Gate*%
X221123603Y-112976397D02*
X221123603Y-124233702D01*
X221123603Y-124233702D02*
X222740701Y-125850800D01*
X221159003Y-112940997D02*
X221123603Y-112976397D01*
X224459003Y-112940997D02*
X221159003Y-112940997D01*
X225074600Y-103168431D02*
X225074600Y-112325400D01*
X225074600Y-112325400D02*
X224459003Y-112940997D01*
X262600000Y-63600000D02*
X262600000Y-61400000D01*
X219984000Y-114116000D02*
X217398600Y-114116000D01*
X221159003Y-112940997D02*
X219984000Y-114116000D01*
%TO.N,Batt1Gate*%
X223783501Y-65954801D02*
X224608501Y-66779801D01*
X224608501Y-66779801D02*
X224608501Y-74591499D01*
X222283501Y-65954801D02*
X223783501Y-65954801D01*
%TO.N,Net-(JP6-A)*%
X262600000Y-64900000D02*
X261350000Y-64900000D01*
X261350000Y-64900000D02*
X258850000Y-62400000D01*
X258900000Y-60450000D02*
X258900000Y-62350000D01*
%TO.N,Net-(JP7-A)*%
X259000000Y-75800000D02*
X259000000Y-77800000D01*
%TO.N,ISample3.3V*%
X192350000Y-127575000D02*
X192350000Y-129575000D01*
X175750000Y-131875000D02*
X177775000Y-133900000D01*
X189975000Y-131200000D02*
X188400000Y-131200000D01*
X180525000Y-133900000D02*
X180625000Y-134000000D01*
%TO.N,KillSwitch*%
X253500000Y-151750000D02*
X252477422Y-152772578D01*
X215450000Y-100750000D02*
X215050000Y-101150000D01*
X213729900Y-101150000D02*
X212975000Y-101904900D01*
X182730769Y-63263000D02*
X183869057Y-63263000D01*
X215101100Y-99131000D02*
X215450000Y-99479900D01*
X198025000Y-78475000D02*
X198025000Y-75125000D01*
X215050000Y-101150000D02*
X213729900Y-101150000D01*
X212975000Y-101904900D02*
X212975000Y-102354527D01*
X186632800Y-63732800D02*
X186632800Y-63554922D01*
X183869057Y-63263000D02*
X183909600Y-63222457D01*
X215450000Y-99479900D02*
X215450000Y-100750000D01*
%TO.N,D{slash}A20*%
X180848000Y-62382400D02*
X180846463Y-62382400D01*
%TO.N,Net-(LED1-DOUT)*%
X159093000Y-154750000D02*
X160280000Y-154750000D01*
X160280000Y-154750000D02*
X160470000Y-154940000D01*
%TO.N,Net-(LED2-DOUT)*%
X169110000Y-157060000D02*
X169405800Y-157060000D01*
X169405800Y-157060000D02*
X172095800Y-159750000D01*
%TO.N,toNEO_CTRL_Orin*%
X167741600Y-91287600D02*
X166522400Y-91287600D01*
%TO.N,Net-(LED3-DOUT)*%
X175507200Y-156660000D02*
X178597200Y-159750000D01*
X175080000Y-156660000D02*
X175507200Y-156660000D01*
%TO.N,Net-(LED4-DOUT)*%
X182180000Y-157010000D02*
X182480000Y-157310000D01*
X182480000Y-157310000D02*
X182658600Y-157310000D01*
X182658600Y-157310000D02*
X185098600Y-159750000D01*
%TO.N,Net-(LED6-DOUT)*%
X194970000Y-156940000D02*
X195291400Y-156940000D01*
X195291400Y-156940000D02*
X198101400Y-159750000D01*
X194710000Y-156680000D02*
X194970000Y-156940000D01*
%TO.N,Net-(LED10-DIN)*%
X214660000Y-157040000D02*
X214895600Y-157040000D01*
X214895600Y-157040000D02*
X217605600Y-159750000D01*
X214330000Y-156710000D02*
X214660000Y-157040000D01*
X211104200Y-154750000D02*
X212400000Y-154750000D01*
X212400000Y-154750000D02*
X212410000Y-154740000D01*
%TO.N,Net-(LED13-DOUT)*%
X237109800Y-154750000D02*
X238460000Y-154750000D01*
X238460000Y-154750000D02*
X238500000Y-154790000D01*
%TO.N,Net-(LED14-DOUT)*%
X244900000Y-154750000D02*
X245010000Y-154640000D01*
X247282600Y-156920000D02*
X250112600Y-159750000D01*
X243611200Y-154750000D02*
X244900000Y-154750000D01*
%TO.N,Net-(LED16-DOUT)*%
X259915400Y-156550000D02*
X263115400Y-159750000D01*
X256614000Y-154750000D02*
X257790000Y-154750000D01*
X257790000Y-154750000D02*
X257870000Y-154670000D01*
%TO.N,Net-(LED17-DOUT)*%
X261700000Y-51650000D02*
X260389322Y-51650000D01*
X260389322Y-51650000D02*
X259839322Y-52200000D01*
X263115400Y-154750000D02*
X263800000Y-154750000D01*
X263800000Y-154750000D02*
X264150000Y-154400000D01*
%TO.N,Net-(LED18-DOUT)*%
X259839322Y-57200000D02*
X258776000Y-57200000D01*
X255789876Y-55372000D02*
X253417876Y-53000000D01*
X258776000Y-57200000D02*
X258572000Y-57404000D01*
X256794000Y-55372000D02*
X255789876Y-55372000D01*
X253417876Y-53000000D02*
X253417876Y-52200000D01*
%TO.N,Net-(LED19-DOUT)*%
X249936000Y-54991000D02*
X249787438Y-54991000D01*
X249787438Y-54991000D02*
X246996438Y-52200000D01*
X250317000Y-55372000D02*
X249936000Y-54991000D01*
%TO.N,Net-(LED21-DOUT)*%
X240575000Y-57200000D02*
X239268800Y-57200000D01*
X239268800Y-57200000D02*
X239064800Y-57404000D01*
X236817562Y-54864000D02*
X234153562Y-52200000D01*
X237236000Y-55270400D02*
X236829600Y-54864000D01*
X236829600Y-54864000D02*
X236817562Y-54864000D01*
%TO.N,Net-(LED26-DOUT)*%
X205232000Y-55385628D02*
X202046372Y-52200000D01*
X207264800Y-57200000D02*
X207010000Y-57454800D01*
X205232000Y-55473600D02*
X205232000Y-55385628D01*
X208467810Y-57200000D02*
X207264800Y-57200000D01*
%TO.N,Net-(LED28-DOUT)*%
X195624934Y-57200000D02*
X194260000Y-57200000D01*
X194260000Y-57200000D02*
X194208400Y-57251600D01*
D104*
%TO.N,+BATTHall*%
X202382819Y-116572392D02*
X202358345Y-116547918D01*
D103*
X217355901Y-80680001D02*
X212893199Y-80680001D01*
X212499400Y-116716000D02*
X212448600Y-116766800D01*
D104*
X210616800Y-122809000D02*
X210704800Y-122809000D01*
X201190499Y-95100000D02*
X201190499Y-85209501D01*
X210648901Y-122809000D02*
X210616800Y-122809000D01*
X222740701Y-130039899D02*
X222829800Y-129950800D01*
X201190499Y-95100000D02*
X195590499Y-100700000D01*
D103*
X217490599Y-69554801D02*
X216990599Y-70054801D01*
D104*
X213309200Y-73736200D02*
X214731600Y-72313800D01*
D103*
X222283501Y-69554801D02*
X222283501Y-68554801D01*
D104*
X217879800Y-130039899D02*
X210648901Y-122809000D01*
X210693000Y-82829400D02*
X210743800Y-82829400D01*
D103*
X217454801Y-68554801D02*
X222283501Y-68554801D01*
X218490599Y-68554801D02*
X222283501Y-68554801D01*
D104*
X215519600Y-106639800D02*
X220700000Y-106639800D01*
X202382819Y-116605128D02*
X202382819Y-116572392D01*
D103*
X216990599Y-70054801D02*
X218490599Y-68554801D01*
D104*
X205048388Y-119067305D02*
X203804165Y-117823082D01*
X203600773Y-117823082D02*
X202382819Y-116605128D01*
X202358345Y-116547918D02*
X202358345Y-116531472D01*
X215950000Y-86885900D02*
X214749500Y-86885900D01*
X210704800Y-122809000D02*
X214597800Y-118916000D01*
D103*
X222740701Y-109739798D02*
X222740701Y-105139800D01*
D104*
X201190499Y-107940400D02*
X201190499Y-108700000D01*
D103*
X212448600Y-109710800D02*
X216129000Y-109710800D01*
D104*
X212448600Y-116766800D02*
X212448600Y-109710800D01*
X208944347Y-118450000D02*
X208327042Y-119067305D01*
X212393199Y-81180001D02*
X215950000Y-81180001D01*
X193950099Y-100700000D02*
X201190499Y-107940400D01*
X214597800Y-118916000D02*
X212448600Y-116766800D01*
X201190499Y-101000000D02*
X200890499Y-100700000D01*
X210693000Y-85728699D02*
X221890701Y-96926400D01*
X201190499Y-101000000D02*
X201190499Y-95100000D01*
X201100000Y-108609501D02*
X201100000Y-101090499D01*
D103*
X212477598Y-109739798D02*
X212448600Y-109710800D01*
D104*
X203570600Y-82829400D02*
X210693000Y-82829400D01*
D103*
X220433402Y-129950800D02*
X222740701Y-129950800D01*
D104*
X217879800Y-130039899D02*
X222090699Y-134250798D01*
D103*
X217398600Y-122515998D02*
X217398600Y-116716000D01*
D104*
X201190499Y-85209501D02*
X203570600Y-82829400D01*
X214731600Y-72313800D02*
X220724502Y-72313800D01*
X212448600Y-109710800D02*
X213619600Y-108539800D01*
D103*
X220369701Y-109710800D02*
X222740701Y-107339800D01*
D104*
X210616800Y-122809000D02*
X210616800Y-118450000D01*
X222740701Y-130039899D02*
X217879800Y-130039899D01*
X221890701Y-96926400D02*
X222740701Y-96926400D01*
X202344295Y-116517422D02*
X202344295Y-116484798D01*
X210693000Y-76352400D02*
X210693000Y-82829400D01*
X222829800Y-129950800D02*
X222740701Y-129950800D01*
X201100000Y-101090499D02*
X201190499Y-101000000D01*
X201190499Y-108700000D02*
X201100000Y-108609501D01*
D103*
X217398600Y-122515998D02*
X217398600Y-126915998D01*
D104*
X202344295Y-116484798D02*
X201190499Y-115331002D01*
D103*
X222740701Y-109739798D02*
X212477598Y-109739798D01*
D104*
X215002700Y-87833200D02*
X215950000Y-86885900D01*
X213309200Y-73736200D02*
X216990599Y-70054801D01*
X201190499Y-115331002D02*
X201190499Y-108700000D01*
X214749500Y-86885900D02*
X210693000Y-82829400D01*
X222740701Y-96926400D02*
X222740701Y-92626402D01*
D103*
X217398600Y-116716000D02*
X212499400Y-116716000D01*
X222283501Y-69554801D02*
X217490599Y-69554801D01*
D104*
X203804165Y-117823082D02*
X203600773Y-117823082D01*
X195590499Y-100700000D02*
X193950099Y-100700000D01*
D103*
X216129000Y-109710800D02*
X220700000Y-105139800D01*
X212448600Y-109710800D02*
X220369701Y-109710800D01*
D104*
X210743800Y-82829400D02*
X212393199Y-81180001D01*
X215519600Y-106639800D02*
X212448600Y-109710800D01*
D103*
X222283501Y-73154799D02*
X222283501Y-69554801D01*
X217398600Y-126915998D02*
X220433402Y-129950800D01*
D104*
X210693000Y-82829400D02*
X210693000Y-85728699D01*
X215950000Y-86885900D02*
X215950000Y-81180001D01*
X200890499Y-100700000D02*
X193700100Y-100700000D01*
X202358345Y-116531472D02*
X202344295Y-116517422D01*
X208327042Y-119067305D02*
X205048388Y-119067305D01*
D103*
X220700000Y-105139800D02*
X222740701Y-105139800D01*
X212893199Y-80680001D02*
X212393199Y-81180001D01*
D104*
X210616800Y-118450000D02*
X208944347Y-118450000D01*
X222090699Y-134250798D02*
X222740701Y-134250798D01*
X222740701Y-134250798D02*
X222740701Y-130039899D01*
X213309200Y-73736200D02*
X210693000Y-76352400D01*
D96*
%TO.N,Net-(R1-Pad1)*%
X236220000Y-95231200D02*
X236220000Y-93370400D01*
%TO.N,Net-(R6-Pad2)*%
X236372400Y-106137200D02*
X236372400Y-104190800D01*
D98*
%TO.N,Net-(D13-A)*%
X242796872Y-153197578D02*
X242793672Y-153200778D01*
X242793672Y-153200778D02*
X241838328Y-153200778D01*
X254325000Y-150875800D02*
X254325000Y-152275000D01*
X253402422Y-153197578D02*
X242796872Y-153197578D01*
X253497400Y-150048200D02*
X254325000Y-150875800D01*
X241835129Y-153197578D02*
X239923273Y-153197578D01*
X254325000Y-152275000D02*
X253402422Y-153197578D01*
X241838328Y-153200778D02*
X241835129Y-153197578D01*
%TO.N,RArray4*%
X242087400Y-148805999D02*
X249560601Y-148805999D01*
X249560601Y-148805999D02*
X251772800Y-146593800D01*
%TO.N,RArray3*%
X250525800Y-149568000D02*
X251772800Y-148321000D01*
X242125400Y-149568000D02*
X250525800Y-149568000D01*
%TO.N,RArray5*%
X248675399Y-148006001D02*
X251789400Y-144892000D01*
X242087400Y-148006001D02*
X248675399Y-148006001D01*
D97*
%TO.N,NeoPass1*%
X188860000Y-157010000D02*
X191600000Y-159750000D01*
X188500000Y-157010000D02*
X188860000Y-157010000D01*
%TO.N,Net-(LED7-DOUT)*%
X198101400Y-154750000D02*
X199380000Y-154750000D01*
X199380000Y-154750000D02*
X199470000Y-154840000D01*
%TO.N,Net-(LED8-DOUT)*%
X204602800Y-154750000D02*
X205740000Y-154750000D01*
X205740000Y-154750000D02*
X205960000Y-154970000D01*
%TO.N,NeoPass2*%
X220987000Y-156630000D02*
X224107000Y-159750000D01*
X218610000Y-154750000D02*
X218700000Y-154840000D01*
X220800000Y-156630000D02*
X220987000Y-156630000D01*
X217605600Y-154750000D02*
X218610000Y-154750000D01*
%TO.N,Net-(LED11-DOUT)*%
X227170000Y-156710000D02*
X227568400Y-156710000D01*
X224107000Y-154750000D02*
X225330000Y-154750000D01*
X225330000Y-154750000D02*
X225420000Y-154660000D01*
%TO.N,Net-(LED12-DOUT)*%
X231810000Y-154750000D02*
X231870000Y-154810000D01*
X230608400Y-154750000D02*
X231810000Y-154750000D01*
%TO.N,NeoPass3*%
X250112600Y-154750000D02*
X251320000Y-154750000D01*
X253240000Y-156710000D02*
X253574000Y-156710000D01*
X253574000Y-156710000D02*
X256614000Y-159750000D01*
X251320000Y-154750000D02*
X251400000Y-154670000D01*
%TO.N,Net-(LED22-DOUT)*%
X232715600Y-57200000D02*
X232613200Y-57302400D01*
X234153562Y-57200000D02*
X232715600Y-57200000D01*
%TO.N,Net-(LED23-DOUT)*%
X223926400Y-55676800D02*
X221310686Y-53061086D01*
X226314800Y-57200000D02*
X226161600Y-57353200D01*
X227732124Y-57200000D02*
X226314800Y-57200000D01*
X221310686Y-53061086D02*
X221310686Y-52200000D01*
%TO.N,Net-(LED24-DOUT)*%
X219964800Y-57200000D02*
X219760800Y-57404000D01*
X218033600Y-55422800D02*
X218033600Y-55344352D01*
X221310686Y-57200000D02*
X219964800Y-57200000D01*
X218033600Y-55344352D02*
X214889248Y-52200000D01*
%TD*%
M02*
