M48
; DRILL file {KiCad 8.0.3} date 2025-06-05T22:32:41-0700
; FORMAT={-:-/ absolute / inch / decimal}
; #@! TF.CreationDate,2025-06-05T22:32:41-07:00
; #@! TF.GenerationSoftware,Kicad,Pcbnew,8.0.3
; #@! TF.FileFunction,Plated,1,2,PTH
FMAT,2
INCH
; #@! TA.AperFunction,Plated,PTH,ViaDrill
T1C0.0157
; #@! TA.AperFunction,Plated,PTH,ComponentDrill
T2C0.0197
; #@! TA.AperFunction,Plated,PTH,ComponentDrill
T3C0.0236
; #@! TA.AperFunction,Plated,PTH,ComponentDrill
T4C0.0280
; #@! TA.AperFunction,Plated,PTH,ViaDrill
T5C0.0315
; #@! TA.AperFunction,Plated,PTH,ComponentDrill
T6C0.0350
; #@! TA.AperFunction,Plated,PTH,ComponentDrill
T7C0.0362
; #@! TA.AperFunction,Plated,PTH,ViaDrill
T8C0.0394
; #@! TA.AperFunction,Plated,PTH,ComponentDrill
T9C0.0394
; #@! TA.AperFunction,Plated,PTH,ComponentDrill
T10C0.0420
; #@! TA.AperFunction,Plated,PTH,ComponentDrill
T11C0.0472
; #@! TA.AperFunction,Plated,PTH,ComponentDrill
T12C0.0728
; #@! TA.AperFunction,Plated,PTH,ComponentDrill
T13C0.0748
; #@! TA.AperFunction,Plated,PTH,ComponentDrill
T14C0.0787
; #@! TA.AperFunction,Plated,PTH,ComponentDrill
T15C0.0906
; #@! TA.AperFunction,Plated,PTH,ComponentDrill
T16C0.0970
; #@! TA.AperFunction,Plated,PTH,ComponentDrill
T17C0.1063
%
G90
G05
T1
X6.1102Y-4.5315
X6.1161Y-6.2126
X6.1181Y-4.3307
X6.1382Y-3.9693
X6.1535Y-2.0472
X6.1535Y-4.0512
X6.1614Y-4.3898
X6.1634Y-4.1004
X6.248Y-3.9843
X6.2618Y-4.5079
X6.2677Y-3.8465
X6.2677Y-4.4606
X6.2835Y-3.8937
X6.2953Y-4.5866
X6.2953Y-4.6969
X6.3041Y-4.6476
X6.3177Y-6.1
X6.3268Y-6.2106
X6.3931Y-6.1805
X6.5266Y-4.6053
X6.5276Y-3.2795
X6.5276Y-4.7087
X6.5394Y-4.6624
X6.5629Y-6.0916
X6.5818Y-4.5722
X6.5827Y-6.2146
X6.6063Y-3.2677
X6.6299Y-2.4803
X6.6547Y-3.4207
X6.6579Y-6.1835
X6.6693Y-2.3976
X6.6786Y-3.1629
X6.685Y-3.5906
X6.706Y-3.702
X6.7441Y-2.4213
X6.8031Y-2.9882
X6.8031Y-3.1417
X6.8052Y-6.0856
X6.8071Y-3.8976
X6.811Y-3.7441
X6.8406Y-6.2146
X6.8425Y-2.6417
X6.8425Y-3.2062
X6.8494Y-3.4634
X6.8543Y-3.563
X6.8543Y-3.7835
X6.8583Y-3.8465
X6.8701Y-2.4213
X6.888Y-2.954
X6.8895Y-2.3781
X6.8901Y-3.4263
X6.8929Y-6.1677
X6.8976Y-3.2047
X6.9183Y-3.024
X6.9268Y-4.8733
X6.937Y-2.7874
X6.9449Y-4.7795
X6.9558Y-2.8898
X6.9764Y-2.9409
X6.9872Y-2.7795
X6.9921Y-2.3937
X7.0Y-2.5354
X7.0Y-2.7323
X7.0016Y-3.7443
X7.0276Y-4.2323
X7.0535Y-3.23
X7.0541Y-6.0867
X7.0656Y-4.2018
X7.0669Y-3.7913
X7.0709Y-3.2835
X7.0722Y-3.0
X7.0787Y-2.685
X7.0866Y-2.7913
X7.0916Y-4.1582
X7.0925Y-6.2087
X7.0961Y-2.8875
X7.1063Y-3.1732
X7.1102Y-2.5472
X7.1112Y-5.2756
X7.12Y-2.456
X7.1339Y-3.0118
X7.1394Y-4.2057
X7.1588Y-2.5394
X7.1614Y-3.1654
X7.1702Y-2.4458
X7.1724Y-6.1815
X7.185Y-3.2362
X7.189Y-3.0157
X7.192Y-4.728
X7.2047Y-2.7136
X7.2111Y-2.5291
X7.2165Y-4.8172
X7.2244Y-4.8661
X7.2323Y-3.1811
X7.2362Y-4.1457
X7.2362Y-4.24
X7.2362Y-4.3386
X7.2402Y-4.2913
X7.2405Y-2.4891
X7.2441Y-2.4331
X7.2458Y-2.9592
X7.252Y-3.3425
X7.2581Y-2.1391
X7.2874Y-3.6535
X7.2913Y-3.4596
X7.318Y-2.151
X7.318Y-2.6693
X7.3189Y-4.9724
X7.3268Y-3.3465
X7.3305Y-6.0919
X7.3307Y-4.1457
X7.3386Y-4.3307
X7.3411Y-4.2208
X7.3442Y-4.2759
X7.3465Y-5.0945
X7.3477Y-2.5022
X7.3484Y-6.2126
X7.3525Y-3.7216
X7.3543Y-5.748
X7.4016Y-5.8858
X7.4045Y-5.1781
X7.4064Y-4.1061
X7.4213Y-6.1815
X7.4291Y-3.4646
X7.4331Y-5.6693
X7.437Y-4.8959
X7.4427Y-3.835
X7.4606Y-5.0984
X7.4793Y-5.1654
X7.4843Y-3.6999
X7.5079Y-3.4843
X7.5315Y-3.4134
X7.5315Y-5.8189
X7.5377Y-2.1781
X7.5394Y-5.2756
X7.5404Y-4.8839
X7.541Y-5.0857
X7.5707Y-5.7532
X7.5825Y-6.082
X7.588Y-2.12
X7.5906Y-4.3898
X7.5945Y-3.5276
X7.6024Y-6.2185
X7.6029Y-5.8487
X7.6272Y-4.9816
X7.6299Y-4.6811
X7.6339Y-5.8031
X7.6417Y-5.4094
X7.646Y-2.254
X7.6506Y-3.4301
X7.6565Y-5.6064
X7.6584Y-5.6615
X7.6614Y-5.3465
X7.6654Y-5.5039
X7.6657Y-6.1685
X7.6699Y-4.7576
X7.6784Y-4.9232
X7.6811Y-5.2323
X7.689Y-5.185
X7.7126Y-5.6811
X7.716Y-3.6435
X7.7165Y-4.3937
X7.7165Y-5.1339
X7.7205Y-3.5886
X7.7283Y-5.2323
X7.7283Y-5.3071
X7.7287Y-4.7773
X7.7364Y-4.9297
X7.7598Y-5.9094
X7.7748Y-5.774
X7.7756Y-5.8268
X7.7795Y-4.7559
X7.7884Y-4.6772
X7.7913Y-4.9252
X7.7913Y-5.1496
X7.7932Y-2.1832
X7.7963Y-3.0896
X7.8031Y-5.3583
X7.811Y-5.2992
X7.8307Y-4.7362
X7.8307Y-5.1063
X7.852Y-2.12
X7.8531Y-6.0961
X7.8543Y-5.5157
X7.8621Y-4.93
X7.8622Y-5.5906
X7.8622Y-6.2126
X7.8661Y-5.1457
X7.8799Y-5.7244
X7.8858Y-5.2992
X7.8858Y-5.9055
X7.896Y-2.256
X7.9134Y-5.8622
X7.9409Y-5.1339
X7.9409Y-5.6024
X7.9449Y-5.685
X7.9504Y-6.1824
X7.9567Y-5.7402
X7.9598Y-5.315
X7.9598Y-5.315
X7.9803Y-5.2222
X7.9843Y-4.9488
X7.9843Y-5.4567
X8.0087Y-5.792
X8.0157Y-5.8976
X8.0315Y-5.4685
X8.0394Y-5.1378
X8.0433Y-5.9961
X8.063Y-5.3661
X8.0709Y-5.874
X8.0738Y-5.5644
X8.0787Y-5.6417
X8.08Y-2.184
X8.0866Y-4.1024
X8.0906Y-3.6614
X8.0984Y-5.1348
X8.1024Y-3.5591
X8.1024Y-5.4764
X8.108Y-3.8446
X8.1087Y-6.1012
X8.1102Y-5.315
X8.1201Y-6.2165
X8.122Y-2.118
X8.122Y-5.878
X8.125Y-5.2311
X8.1261Y-5.6376
X8.1275Y-5.577
X8.1339Y-3.622
X8.1339Y-4.1063
X8.1407Y-3.889
X8.15Y-2.262
X8.1626Y-5.1908
X8.1717Y-5.3782
X8.1732Y-5.748
X8.1803Y-4.0766
X8.1969Y-4.2402
X8.1976Y-5.6093
X8.2069Y-6.1837
X8.2087Y-5.2598
X8.2223Y-3.6004
X8.2323Y-5.6417
X8.2362Y-5.5
X8.2521Y-5.7224
X8.2638Y-5.3898
X8.2913Y-5.6772
X8.2938Y-3.66
X8.3031Y-3.8661
X8.3045Y-2.1522
X8.3189Y-5.4291
X8.3299Y-3.818
X8.3543Y-5.3858
X8.3583Y-5.5039
X8.3626Y-6.0921
X8.3645Y-5.9425
X8.368Y-2.116
X8.3701Y-5.6732
X8.374Y-6.2185
X8.376Y-5.7224
X8.3937Y-2.2913
X8.4016Y-5.8543
X8.4055Y-5.5039
X8.4063Y-5.5896
X8.4134Y-5.4409
X8.4283Y-5.8061
X8.4382Y-6.1697
X8.4478Y-5.6848
X8.4528Y-5.6299
X8.4724Y-3.8307
X8.5039Y-4.0157
X8.5118Y-5.5433
X8.5413Y-5.8416
X8.5512Y-5.7874
X8.5676Y-5.5536
X8.5819Y-3.9338
X8.584Y-2.182
X8.5866Y-5.9803
X8.6102Y-6.0961
X8.6186Y-5.652
X8.628Y-6.2165
X8.628Y-2.122
X8.6375Y-5.7037
X8.6417Y-6.0354
X8.652Y-2.26
X8.6732Y-5.8346
X8.6772Y-3.0346
X8.6847Y-5.7323
X8.6929Y-6.1665
X8.7205Y-5.9331
X8.7402Y-5.6969
X8.8071Y-5.7559
X8.816Y-2.192
X8.8346Y-2.9528
X8.8425Y-5.8386
X8.8435Y-5.5974
X8.8583Y-5.7205
X8.8622Y-5.7953
X8.8748Y-6.089
X8.8878Y-6.2205
X8.888Y-2.116
X8.8976Y-3.9961
X8.904Y-2.258
X8.9222Y-5.5994
X8.937Y-6.1772
X8.9459Y-5.7746
X8.9591Y-5.6913
X8.9606Y-3.9488
X8.9764Y-5.7362
X8.9843Y-5.811
X9.0472Y-5.6358
X9.0709Y-5.8543
X9.0807Y-2.152
X9.0965Y-5.6732
X9.1063Y-5.8031
X9.1287Y-6.0949
X9.1417Y-6.2185
X9.15Y-2.114
X9.158Y-2.256
X9.2126Y-5.626
X9.2157Y-6.1701
X9.248Y-5.6614
X9.2913Y-5.937
X9.2921Y-5.7925
X9.2992Y-5.9843
X9.3228Y-5.8346
X9.326Y-3.888
X9.3307Y-5.6575
X9.34Y-2.176
X9.3465Y-6.0
X9.3661Y-5.1788
X9.374Y-5.8661
X9.378Y-5.7166
X9.3898Y-5.6299
X9.3898Y-6.0941
X9.3996Y-6.2165
X9.4016Y-5.9252
X9.408Y-2.114
X9.412Y-2.26
X9.4815Y-6.1799
X9.4843Y-5.8898
X9.498Y-3.932
X9.5Y-5.5669
X9.5413Y-2.6575
X9.546Y-2.836
X9.5709Y-2.7638
X9.5709Y-5.9921
X9.588Y-2.1717
X9.6102Y-5.6575
X9.622Y-3.846
X9.6335Y-5.7075
X9.6461Y-6.0882
X9.6535Y-2.5276
X9.6535Y-2.6142
X9.6535Y-2.7795
X9.6535Y-5.9764
X9.6535Y-6.2185
X9.658Y-2.11
X9.6732Y-2.2795
X9.7244Y-5.5276
X9.7355Y-6.178
X9.7559Y-5.7
X9.7598Y-5.6457
X9.7894Y-5.5187
X9.815Y-5.9764
X9.8228Y-5.5623
X9.855Y-2.18
X9.8583Y-5.4331
X9.89Y-5.134
X9.8976Y-6.0894
X9.904Y-2.116
X9.9075Y-6.2146
X9.9134Y-5.0551
X9.916Y-5.332
X9.9232Y-2.5322
X9.9471Y-2.2807
X9.9524Y-2.902
X9.9685Y-2.689
X9.9701Y-6.1697
X9.9724Y-2.7869
X9.9778Y-5.3823
X10.0197Y-5.3465
X10.0354Y-5.6378
X10.0394Y-5.5236
X10.0433Y-6.0433
X10.0472Y-2.6614
X10.0591Y-5.1811
X10.0664Y-2.8438
X10.0767Y-4.9507
X10.0787Y-2.126
X10.0866Y-6.0197
X10.0945Y-2.4685
X10.1063Y-2.7165
X10.1098Y-2.9205
X10.11Y-2.18
X10.1102Y-4.9094
X10.1298Y-2.5108
X10.1378Y-3.1417
X10.1378Y-5.2205
X10.1524Y-6.0894
X10.1654Y-6.2205
X10.1732Y-2.5984
X10.18Y-2.26
X10.1815Y-4.776
X10.2283Y-4.3031
X10.2305Y-2.7644
X10.2329Y-6.1634
X10.2362Y-4.7402
X10.256Y-4.07
X10.2587Y-2.9665
X10.26Y-2.88
X10.2639Y-4.2559
X10.2677Y-5.3504
X10.3031Y-2.0335
X10.3189Y-3.1732
X10.3366Y-5.226
X10.374Y-3.2244
X10.3937Y-3.2677
X10.3937Y-3.9173
X10.3947Y-6.0837
T2
X7.0787Y-3.9402
X7.0787Y-3.9889
X7.1072Y-3.9009
X7.1072Y-4.0283
X7.1535Y-3.8858
X7.1535Y-4.0433
X7.206Y-3.8858
X7.206Y-4.0433
X7.2585Y-3.8858
X7.2585Y-4.0433
X7.311Y-3.8858
X7.311Y-4.0433
X7.3573Y-3.9009
X7.3573Y-4.0283
X7.3859Y-3.9402
X7.3859Y-3.9889
X7.4724Y-3.9402
X7.4724Y-3.9889
X7.5009Y-3.9009
X7.5009Y-4.0283
X7.5472Y-3.8858
X7.5472Y-4.0433
X7.5997Y-3.8858
X7.5997Y-4.0433
X7.6522Y-3.8858
X7.6522Y-4.0433
X7.7047Y-3.8858
X7.7047Y-4.0433
X7.751Y-3.9009
X7.751Y-4.0283
X7.7796Y-3.9402
X7.7796Y-3.9889
T4
X8.6874Y-5.6614
X8.6874Y-5.8884
X8.7874Y-5.6614
X8.7874Y-5.8884
X8.8874Y-5.6614
X8.8874Y-5.8884
T5
X7.723Y-3.4925
X8.1Y-3.5039
T6
X9.671Y-2.91
X9.673Y-2.3819
X10.0214Y-2.91
X10.0234Y-2.3819
T7
X6.6037Y-2.6585
X6.6037Y-2.7569
X6.6037Y-2.8356
X6.6037Y-2.9341
X6.7069Y-2.6585
X6.7069Y-2.7569
X6.7069Y-2.8356
X6.7069Y-2.9341
T8
X6.9724Y-4.6486
X8.0433Y-4.9646
X8.1457Y-4.4843
X10.2402Y-5.7047
X10.3243Y-2.159
T9
X6.2106Y-4.752
X6.2106Y-5.185
X6.2795Y-2.1555
X6.2795Y-2.2555
X6.3795Y-2.1555
X6.3795Y-2.2555
X6.4795Y-2.1555
X6.4795Y-2.2555
X6.5795Y-2.1555
X6.5795Y-2.2555
X6.6795Y-2.1555
X6.6795Y-2.2555
X6.7795Y-2.1555
X6.7795Y-2.2555
X6.8795Y-2.1555
X6.8795Y-2.2555
X6.9427Y-3.0886
X6.9427Y-3.5886
X6.9795Y-2.1555
X6.9795Y-2.2555
X7.0427Y-3.0886
X7.0427Y-3.5886
X7.0795Y-2.1555
X7.0795Y-2.2555
X7.1427Y-3.0886
X7.1427Y-3.5886
X7.1795Y-2.1555
X7.1795Y-2.2555
X7.2427Y-3.0886
X7.2427Y-3.5886
X7.3427Y-3.0886
X7.3427Y-3.5886
X7.3539Y-4.8071
X7.4291Y-4.8071
X7.4427Y-3.0886
X7.4427Y-3.5886
X7.5043Y-4.8071
X7.5427Y-3.0886
X7.5427Y-3.5886
X7.6427Y-3.0886
X7.6427Y-3.5886
X9.4775Y-5.1145
X9.5775Y-5.1145
X9.6775Y-5.1145
X10.0035Y-5.1118
X10.1035Y-5.1118
X10.2035Y-5.1118
T10
X6.31Y-3.393
X6.31Y-3.5112
X6.4281Y-3.393
X6.4281Y-3.5112
T11
X6.419Y-5.5357
X6.419Y-5.831
X7.089Y-5.5357
X7.089Y-5.831
T12
X9.1594Y-5.5492
X9.1594Y-5.7343
X9.1594Y-5.9193
T13
X6.4075Y-4.8701
X6.4075Y-5.0669
T15
X6.497Y-2.5376
X6.497Y-3.0549
X6.7207Y-2.5376
X6.7207Y-3.0549
T16
X6.1399Y-3.3084
X6.1399Y-3.5958
T17
X6.3799Y-4.0394
X6.3799Y-4.3228
X10.0125Y-4.1243
X10.0125Y-4.4077
X10.1378Y-3.4585
X10.1378Y-3.742
T3
G00X6.122Y-3.9154
M15
G01X6.1654Y-3.9154
M16
G05
G00X6.122Y-4.4469
M15
G01X6.1654Y-4.4469
M16
G05
G00X10.2704Y-4.0003
M15
G01X10.2271Y-4.0003
M16
G05
G00X10.2704Y-4.5317
M15
G01X10.2271Y-4.5317
M16
G05
G00X10.3957Y-3.3345
M15
G01X10.3523Y-3.3345
M16
G05
G00X10.3957Y-3.866
M15
G01X10.3523Y-3.866
M16
G05
T9
G00X10.1562Y-4.2463
M15
G01X10.1562Y-4.2857
M16
G05
G00X10.2815Y-3.5806
M15
G01X10.2815Y-3.6199
M16
G05
T14
G00X7.1535Y-3.9646
M15
G01X7.311Y-3.9646
M16
G05
G00X7.5472Y-3.9646
M15
G01X7.7047Y-3.9646
M16
G05
M30
