%TF.GenerationSoftware,KiCad,Pcbnew,8.0.3*%
%TF.CreationDate,2025-06-05T22:32:41-07:00*%
%TF.ProjectId,Power_ManagementV2,506f7765-725f-44d6-916e-6167656d656e,rev?*%
%TF.SameCoordinates,Original*%
%TF.FileFunction,Drillmap*%
%TF.FilePolarity,Positive*%
%FSLAX45Y45*%
G04 Gerber Fmt 4.5, Leading zero omitted, Abs format (unit mm)*
G04 Created by KiCad (PCBNEW 8.0.3) date 2025-06-05 22:32:41*
%MOMM*%
%LPD*%
G01*
G04 APERTURE LIST*
%ADD10C,0.100000*%
%ADD11C,0.200000*%
%ADD12C,0.320000*%
G04 APERTURE END LIST*
D10*
X15392400Y-5034280D02*
X26487120Y-5034280D01*
X26487120Y-16084280D01*
X15392400Y-16084280D01*
X15392400Y-5034280D01*
D11*
D12*
X18975000Y-7140000D02*
X19295000Y-7460000D01*
X19295000Y-7140000D02*
X18975000Y-7460000D01*
X18975000Y-13540000D02*
X19295000Y-13860000D01*
X19295000Y-13540000D02*
X18975000Y-13860000D01*
X23775000Y-7140000D02*
X24095000Y-7460000D01*
X24095000Y-7140000D02*
X23775000Y-7460000D01*
X23775000Y-13540000D02*
X24095000Y-13860000D01*
X24095000Y-13540000D02*
X23775000Y-13860000D01*
D11*
X15648177Y-16400764D02*
X15648177Y-16200764D01*
X15648177Y-16200764D02*
X15695796Y-16200764D01*
X15695796Y-16200764D02*
X15724367Y-16210288D01*
X15724367Y-16210288D02*
X15743415Y-16229335D01*
X15743415Y-16229335D02*
X15752939Y-16248383D01*
X15752939Y-16248383D02*
X15762462Y-16286478D01*
X15762462Y-16286478D02*
X15762462Y-16315049D01*
X15762462Y-16315049D02*
X15752939Y-16353145D01*
X15752939Y-16353145D02*
X15743415Y-16372192D01*
X15743415Y-16372192D02*
X15724367Y-16391240D01*
X15724367Y-16391240D02*
X15695796Y-16400764D01*
X15695796Y-16400764D02*
X15648177Y-16400764D01*
X15848177Y-16400764D02*
X15848177Y-16267430D01*
X15848177Y-16305526D02*
X15857701Y-16286478D01*
X15857701Y-16286478D02*
X15867224Y-16276954D01*
X15867224Y-16276954D02*
X15886272Y-16267430D01*
X15886272Y-16267430D02*
X15905320Y-16267430D01*
X15971986Y-16400764D02*
X15971986Y-16267430D01*
X15971986Y-16200764D02*
X15962462Y-16210288D01*
X15962462Y-16210288D02*
X15971986Y-16219811D01*
X15971986Y-16219811D02*
X15981510Y-16210288D01*
X15981510Y-16210288D02*
X15971986Y-16200764D01*
X15971986Y-16200764D02*
X15971986Y-16219811D01*
X16095796Y-16400764D02*
X16076748Y-16391240D01*
X16076748Y-16391240D02*
X16067224Y-16372192D01*
X16067224Y-16372192D02*
X16067224Y-16200764D01*
X16200558Y-16400764D02*
X16181510Y-16391240D01*
X16181510Y-16391240D02*
X16171986Y-16372192D01*
X16171986Y-16372192D02*
X16171986Y-16200764D01*
X16429129Y-16400764D02*
X16429129Y-16200764D01*
X16429129Y-16200764D02*
X16495796Y-16343621D01*
X16495796Y-16343621D02*
X16562462Y-16200764D01*
X16562462Y-16200764D02*
X16562462Y-16400764D01*
X16743415Y-16400764D02*
X16743415Y-16296002D01*
X16743415Y-16296002D02*
X16733891Y-16276954D01*
X16733891Y-16276954D02*
X16714843Y-16267430D01*
X16714843Y-16267430D02*
X16676748Y-16267430D01*
X16676748Y-16267430D02*
X16657701Y-16276954D01*
X16743415Y-16391240D02*
X16724367Y-16400764D01*
X16724367Y-16400764D02*
X16676748Y-16400764D01*
X16676748Y-16400764D02*
X16657701Y-16391240D01*
X16657701Y-16391240D02*
X16648177Y-16372192D01*
X16648177Y-16372192D02*
X16648177Y-16353145D01*
X16648177Y-16353145D02*
X16657701Y-16334097D01*
X16657701Y-16334097D02*
X16676748Y-16324573D01*
X16676748Y-16324573D02*
X16724367Y-16324573D01*
X16724367Y-16324573D02*
X16743415Y-16315049D01*
X16838653Y-16267430D02*
X16838653Y-16467430D01*
X16838653Y-16276954D02*
X16857701Y-16267430D01*
X16857701Y-16267430D02*
X16895796Y-16267430D01*
X16895796Y-16267430D02*
X16914844Y-16276954D01*
X16914844Y-16276954D02*
X16924367Y-16286478D01*
X16924367Y-16286478D02*
X16933891Y-16305526D01*
X16933891Y-16305526D02*
X16933891Y-16362668D01*
X16933891Y-16362668D02*
X16924367Y-16381716D01*
X16924367Y-16381716D02*
X16914844Y-16391240D01*
X16914844Y-16391240D02*
X16895796Y-16400764D01*
X16895796Y-16400764D02*
X16857701Y-16400764D01*
X16857701Y-16400764D02*
X16838653Y-16391240D01*
X17019605Y-16381716D02*
X17029129Y-16391240D01*
X17029129Y-16391240D02*
X17019605Y-16400764D01*
X17019605Y-16400764D02*
X17010082Y-16391240D01*
X17010082Y-16391240D02*
X17019605Y-16381716D01*
X17019605Y-16381716D02*
X17019605Y-16400764D01*
X17019605Y-16276954D02*
X17029129Y-16286478D01*
X17029129Y-16286478D02*
X17019605Y-16296002D01*
X17019605Y-16296002D02*
X17010082Y-16286478D01*
X17010082Y-16286478D02*
X17019605Y-16276954D01*
X17019605Y-16276954D02*
X17019605Y-16296002D01*
X15187400Y-16629280D02*
X15387400Y-16829280D01*
X15387400Y-16629280D02*
X15187400Y-16829280D01*
X15629129Y-16620764D02*
X15752939Y-16620764D01*
X15752939Y-16620764D02*
X15686272Y-16696954D01*
X15686272Y-16696954D02*
X15714843Y-16696954D01*
X15714843Y-16696954D02*
X15733891Y-16706478D01*
X15733891Y-16706478D02*
X15743415Y-16716002D01*
X15743415Y-16716002D02*
X15752939Y-16735049D01*
X15752939Y-16735049D02*
X15752939Y-16782669D01*
X15752939Y-16782669D02*
X15743415Y-16801716D01*
X15743415Y-16801716D02*
X15733891Y-16811240D01*
X15733891Y-16811240D02*
X15714843Y-16820764D01*
X15714843Y-16820764D02*
X15657701Y-16820764D01*
X15657701Y-16820764D02*
X15638653Y-16811240D01*
X15638653Y-16811240D02*
X15629129Y-16801716D01*
X15838653Y-16801716D02*
X15848177Y-16811240D01*
X15848177Y-16811240D02*
X15838653Y-16820764D01*
X15838653Y-16820764D02*
X15829129Y-16811240D01*
X15829129Y-16811240D02*
X15838653Y-16801716D01*
X15838653Y-16801716D02*
X15838653Y-16820764D01*
X15924367Y-16639811D02*
X15933891Y-16630288D01*
X15933891Y-16630288D02*
X15952939Y-16620764D01*
X15952939Y-16620764D02*
X16000558Y-16620764D01*
X16000558Y-16620764D02*
X16019605Y-16630288D01*
X16019605Y-16630288D02*
X16029129Y-16639811D01*
X16029129Y-16639811D02*
X16038653Y-16658859D01*
X16038653Y-16658859D02*
X16038653Y-16677907D01*
X16038653Y-16677907D02*
X16029129Y-16706478D01*
X16029129Y-16706478D02*
X15914843Y-16820764D01*
X15914843Y-16820764D02*
X16038653Y-16820764D01*
X16162462Y-16620764D02*
X16181510Y-16620764D01*
X16181510Y-16620764D02*
X16200558Y-16630288D01*
X16200558Y-16630288D02*
X16210082Y-16639811D01*
X16210082Y-16639811D02*
X16219605Y-16658859D01*
X16219605Y-16658859D02*
X16229129Y-16696954D01*
X16229129Y-16696954D02*
X16229129Y-16744573D01*
X16229129Y-16744573D02*
X16219605Y-16782669D01*
X16219605Y-16782669D02*
X16210082Y-16801716D01*
X16210082Y-16801716D02*
X16200558Y-16811240D01*
X16200558Y-16811240D02*
X16181510Y-16820764D01*
X16181510Y-16820764D02*
X16162462Y-16820764D01*
X16162462Y-16820764D02*
X16143415Y-16811240D01*
X16143415Y-16811240D02*
X16133891Y-16801716D01*
X16133891Y-16801716D02*
X16124367Y-16782669D01*
X16124367Y-16782669D02*
X16114843Y-16744573D01*
X16114843Y-16744573D02*
X16114843Y-16696954D01*
X16114843Y-16696954D02*
X16124367Y-16658859D01*
X16124367Y-16658859D02*
X16133891Y-16639811D01*
X16133891Y-16639811D02*
X16143415Y-16630288D01*
X16143415Y-16630288D02*
X16162462Y-16620764D01*
X16352939Y-16620764D02*
X16371986Y-16620764D01*
X16371986Y-16620764D02*
X16391034Y-16630288D01*
X16391034Y-16630288D02*
X16400558Y-16639811D01*
X16400558Y-16639811D02*
X16410082Y-16658859D01*
X16410082Y-16658859D02*
X16419605Y-16696954D01*
X16419605Y-16696954D02*
X16419605Y-16744573D01*
X16419605Y-16744573D02*
X16410082Y-16782669D01*
X16410082Y-16782669D02*
X16400558Y-16801716D01*
X16400558Y-16801716D02*
X16391034Y-16811240D01*
X16391034Y-16811240D02*
X16371986Y-16820764D01*
X16371986Y-16820764D02*
X16352939Y-16820764D01*
X16352939Y-16820764D02*
X16333891Y-16811240D01*
X16333891Y-16811240D02*
X16324367Y-16801716D01*
X16324367Y-16801716D02*
X16314843Y-16782669D01*
X16314843Y-16782669D02*
X16305320Y-16744573D01*
X16305320Y-16744573D02*
X16305320Y-16696954D01*
X16305320Y-16696954D02*
X16314843Y-16658859D01*
X16314843Y-16658859D02*
X16324367Y-16639811D01*
X16324367Y-16639811D02*
X16333891Y-16630288D01*
X16333891Y-16630288D02*
X16352939Y-16620764D01*
X16505320Y-16820764D02*
X16505320Y-16687430D01*
X16505320Y-16706478D02*
X16514843Y-16696954D01*
X16514843Y-16696954D02*
X16533891Y-16687430D01*
X16533891Y-16687430D02*
X16562463Y-16687430D01*
X16562463Y-16687430D02*
X16581510Y-16696954D01*
X16581510Y-16696954D02*
X16591034Y-16716002D01*
X16591034Y-16716002D02*
X16591034Y-16820764D01*
X16591034Y-16716002D02*
X16600558Y-16696954D01*
X16600558Y-16696954D02*
X16619605Y-16687430D01*
X16619605Y-16687430D02*
X16648177Y-16687430D01*
X16648177Y-16687430D02*
X16667224Y-16696954D01*
X16667224Y-16696954D02*
X16676748Y-16716002D01*
X16676748Y-16716002D02*
X16676748Y-16820764D01*
X16771986Y-16820764D02*
X16771986Y-16687430D01*
X16771986Y-16706478D02*
X16781510Y-16696954D01*
X16781510Y-16696954D02*
X16800558Y-16687430D01*
X16800558Y-16687430D02*
X16829129Y-16687430D01*
X16829129Y-16687430D02*
X16848177Y-16696954D01*
X16848177Y-16696954D02*
X16857701Y-16716002D01*
X16857701Y-16716002D02*
X16857701Y-16820764D01*
X16857701Y-16716002D02*
X16867225Y-16696954D01*
X16867225Y-16696954D02*
X16886272Y-16687430D01*
X16886272Y-16687430D02*
X16914844Y-16687430D01*
X16914844Y-16687430D02*
X16933891Y-16696954D01*
X16933891Y-16696954D02*
X16943415Y-16716002D01*
X16943415Y-16716002D02*
X16943415Y-16820764D01*
X17333891Y-16611240D02*
X17162463Y-16868383D01*
X17591034Y-16620764D02*
X17610082Y-16620764D01*
X17610082Y-16620764D02*
X17629129Y-16630288D01*
X17629129Y-16630288D02*
X17638653Y-16639811D01*
X17638653Y-16639811D02*
X17648177Y-16658859D01*
X17648177Y-16658859D02*
X17657701Y-16696954D01*
X17657701Y-16696954D02*
X17657701Y-16744573D01*
X17657701Y-16744573D02*
X17648177Y-16782669D01*
X17648177Y-16782669D02*
X17638653Y-16801716D01*
X17638653Y-16801716D02*
X17629129Y-16811240D01*
X17629129Y-16811240D02*
X17610082Y-16820764D01*
X17610082Y-16820764D02*
X17591034Y-16820764D01*
X17591034Y-16820764D02*
X17571987Y-16811240D01*
X17571987Y-16811240D02*
X17562463Y-16801716D01*
X17562463Y-16801716D02*
X17552939Y-16782669D01*
X17552939Y-16782669D02*
X17543415Y-16744573D01*
X17543415Y-16744573D02*
X17543415Y-16696954D01*
X17543415Y-16696954D02*
X17552939Y-16658859D01*
X17552939Y-16658859D02*
X17562463Y-16639811D01*
X17562463Y-16639811D02*
X17571987Y-16630288D01*
X17571987Y-16630288D02*
X17591034Y-16620764D01*
X17743415Y-16801716D02*
X17752939Y-16811240D01*
X17752939Y-16811240D02*
X17743415Y-16820764D01*
X17743415Y-16820764D02*
X17733891Y-16811240D01*
X17733891Y-16811240D02*
X17743415Y-16801716D01*
X17743415Y-16801716D02*
X17743415Y-16820764D01*
X17943415Y-16820764D02*
X17829129Y-16820764D01*
X17886272Y-16820764D02*
X17886272Y-16620764D01*
X17886272Y-16620764D02*
X17867225Y-16649335D01*
X17867225Y-16649335D02*
X17848177Y-16668383D01*
X17848177Y-16668383D02*
X17829129Y-16677907D01*
X18019606Y-16639811D02*
X18029129Y-16630288D01*
X18029129Y-16630288D02*
X18048177Y-16620764D01*
X18048177Y-16620764D02*
X18095796Y-16620764D01*
X18095796Y-16620764D02*
X18114844Y-16630288D01*
X18114844Y-16630288D02*
X18124368Y-16639811D01*
X18124368Y-16639811D02*
X18133891Y-16658859D01*
X18133891Y-16658859D02*
X18133891Y-16677907D01*
X18133891Y-16677907D02*
X18124368Y-16706478D01*
X18124368Y-16706478D02*
X18010082Y-16820764D01*
X18010082Y-16820764D02*
X18133891Y-16820764D01*
X18305320Y-16620764D02*
X18267225Y-16620764D01*
X18267225Y-16620764D02*
X18248177Y-16630288D01*
X18248177Y-16630288D02*
X18238653Y-16639811D01*
X18238653Y-16639811D02*
X18219606Y-16668383D01*
X18219606Y-16668383D02*
X18210082Y-16706478D01*
X18210082Y-16706478D02*
X18210082Y-16782669D01*
X18210082Y-16782669D02*
X18219606Y-16801716D01*
X18219606Y-16801716D02*
X18229129Y-16811240D01*
X18229129Y-16811240D02*
X18248177Y-16820764D01*
X18248177Y-16820764D02*
X18286272Y-16820764D01*
X18286272Y-16820764D02*
X18305320Y-16811240D01*
X18305320Y-16811240D02*
X18314844Y-16801716D01*
X18314844Y-16801716D02*
X18324368Y-16782669D01*
X18324368Y-16782669D02*
X18324368Y-16735049D01*
X18324368Y-16735049D02*
X18314844Y-16716002D01*
X18314844Y-16716002D02*
X18305320Y-16706478D01*
X18305320Y-16706478D02*
X18286272Y-16696954D01*
X18286272Y-16696954D02*
X18248177Y-16696954D01*
X18248177Y-16696954D02*
X18229129Y-16706478D01*
X18229129Y-16706478D02*
X18219606Y-16716002D01*
X18219606Y-16716002D02*
X18210082Y-16735049D01*
X18448177Y-16620764D02*
X18467225Y-16620764D01*
X18467225Y-16620764D02*
X18486272Y-16630288D01*
X18486272Y-16630288D02*
X18495796Y-16639811D01*
X18495796Y-16639811D02*
X18505320Y-16658859D01*
X18505320Y-16658859D02*
X18514844Y-16696954D01*
X18514844Y-16696954D02*
X18514844Y-16744573D01*
X18514844Y-16744573D02*
X18505320Y-16782669D01*
X18505320Y-16782669D02*
X18495796Y-16801716D01*
X18495796Y-16801716D02*
X18486272Y-16811240D01*
X18486272Y-16811240D02*
X18467225Y-16820764D01*
X18467225Y-16820764D02*
X18448177Y-16820764D01*
X18448177Y-16820764D02*
X18429129Y-16811240D01*
X18429129Y-16811240D02*
X18419606Y-16801716D01*
X18419606Y-16801716D02*
X18410082Y-16782669D01*
X18410082Y-16782669D02*
X18400558Y-16744573D01*
X18400558Y-16744573D02*
X18400558Y-16696954D01*
X18400558Y-16696954D02*
X18410082Y-16658859D01*
X18410082Y-16658859D02*
X18419606Y-16639811D01*
X18419606Y-16639811D02*
X18429129Y-16630288D01*
X18429129Y-16630288D02*
X18448177Y-16620764D01*
X18591034Y-16620764D02*
X18591034Y-16658859D01*
X18667225Y-16620764D02*
X18667225Y-16658859D01*
X18962463Y-16896954D02*
X18952939Y-16887430D01*
X18952939Y-16887430D02*
X18933891Y-16858859D01*
X18933891Y-16858859D02*
X18924368Y-16839811D01*
X18924368Y-16839811D02*
X18914844Y-16811240D01*
X18914844Y-16811240D02*
X18905320Y-16763621D01*
X18905320Y-16763621D02*
X18905320Y-16725526D01*
X18905320Y-16725526D02*
X18914844Y-16677907D01*
X18914844Y-16677907D02*
X18924368Y-16649335D01*
X18924368Y-16649335D02*
X18933891Y-16630288D01*
X18933891Y-16630288D02*
X18952939Y-16601716D01*
X18952939Y-16601716D02*
X18962463Y-16592192D01*
X19124368Y-16687430D02*
X19124368Y-16820764D01*
X19076749Y-16611240D02*
X19029130Y-16754097D01*
X19029130Y-16754097D02*
X19152939Y-16754097D01*
X19381511Y-16820764D02*
X19381511Y-16620764D01*
X19467225Y-16820764D02*
X19467225Y-16716002D01*
X19467225Y-16716002D02*
X19457701Y-16696954D01*
X19457701Y-16696954D02*
X19438653Y-16687430D01*
X19438653Y-16687430D02*
X19410082Y-16687430D01*
X19410082Y-16687430D02*
X19391034Y-16696954D01*
X19391034Y-16696954D02*
X19381511Y-16706478D01*
X19591034Y-16820764D02*
X19571987Y-16811240D01*
X19571987Y-16811240D02*
X19562463Y-16801716D01*
X19562463Y-16801716D02*
X19552939Y-16782669D01*
X19552939Y-16782669D02*
X19552939Y-16725526D01*
X19552939Y-16725526D02*
X19562463Y-16706478D01*
X19562463Y-16706478D02*
X19571987Y-16696954D01*
X19571987Y-16696954D02*
X19591034Y-16687430D01*
X19591034Y-16687430D02*
X19619606Y-16687430D01*
X19619606Y-16687430D02*
X19638653Y-16696954D01*
X19638653Y-16696954D02*
X19648177Y-16706478D01*
X19648177Y-16706478D02*
X19657701Y-16725526D01*
X19657701Y-16725526D02*
X19657701Y-16782669D01*
X19657701Y-16782669D02*
X19648177Y-16801716D01*
X19648177Y-16801716D02*
X19638653Y-16811240D01*
X19638653Y-16811240D02*
X19619606Y-16820764D01*
X19619606Y-16820764D02*
X19591034Y-16820764D01*
X19771987Y-16820764D02*
X19752939Y-16811240D01*
X19752939Y-16811240D02*
X19743415Y-16792192D01*
X19743415Y-16792192D02*
X19743415Y-16620764D01*
X19924368Y-16811240D02*
X19905320Y-16820764D01*
X19905320Y-16820764D02*
X19867225Y-16820764D01*
X19867225Y-16820764D02*
X19848177Y-16811240D01*
X19848177Y-16811240D02*
X19838653Y-16792192D01*
X19838653Y-16792192D02*
X19838653Y-16716002D01*
X19838653Y-16716002D02*
X19848177Y-16696954D01*
X19848177Y-16696954D02*
X19867225Y-16687430D01*
X19867225Y-16687430D02*
X19905320Y-16687430D01*
X19905320Y-16687430D02*
X19924368Y-16696954D01*
X19924368Y-16696954D02*
X19933892Y-16716002D01*
X19933892Y-16716002D02*
X19933892Y-16735049D01*
X19933892Y-16735049D02*
X19838653Y-16754097D01*
X20010082Y-16811240D02*
X20029130Y-16820764D01*
X20029130Y-16820764D02*
X20067225Y-16820764D01*
X20067225Y-16820764D02*
X20086273Y-16811240D01*
X20086273Y-16811240D02*
X20095796Y-16792192D01*
X20095796Y-16792192D02*
X20095796Y-16782669D01*
X20095796Y-16782669D02*
X20086273Y-16763621D01*
X20086273Y-16763621D02*
X20067225Y-16754097D01*
X20067225Y-16754097D02*
X20038653Y-16754097D01*
X20038653Y-16754097D02*
X20019606Y-16744573D01*
X20019606Y-16744573D02*
X20010082Y-16725526D01*
X20010082Y-16725526D02*
X20010082Y-16716002D01*
X20010082Y-16716002D02*
X20019606Y-16696954D01*
X20019606Y-16696954D02*
X20038653Y-16687430D01*
X20038653Y-16687430D02*
X20067225Y-16687430D01*
X20067225Y-16687430D02*
X20086273Y-16696954D01*
X20162463Y-16896954D02*
X20171987Y-16887430D01*
X20171987Y-16887430D02*
X20191034Y-16858859D01*
X20191034Y-16858859D02*
X20200558Y-16839811D01*
X20200558Y-16839811D02*
X20210082Y-16811240D01*
X20210082Y-16811240D02*
X20219606Y-16763621D01*
X20219606Y-16763621D02*
X20219606Y-16725526D01*
X20219606Y-16725526D02*
X20210082Y-16677907D01*
X20210082Y-16677907D02*
X20200558Y-16649335D01*
X20200558Y-16649335D02*
X20191034Y-16630288D01*
X20191034Y-16630288D02*
X20171987Y-16601716D01*
X20171987Y-16601716D02*
X20162463Y-16592192D01*
X20524368Y-16896954D02*
X20514844Y-16887430D01*
X20514844Y-16887430D02*
X20495796Y-16858859D01*
X20495796Y-16858859D02*
X20486273Y-16839811D01*
X20486273Y-16839811D02*
X20476749Y-16811240D01*
X20476749Y-16811240D02*
X20467225Y-16763621D01*
X20467225Y-16763621D02*
X20467225Y-16725526D01*
X20467225Y-16725526D02*
X20476749Y-16677907D01*
X20476749Y-16677907D02*
X20486273Y-16649335D01*
X20486273Y-16649335D02*
X20495796Y-16630288D01*
X20495796Y-16630288D02*
X20514844Y-16601716D01*
X20514844Y-16601716D02*
X20524368Y-16592192D01*
X20600558Y-16687430D02*
X20600558Y-16820764D01*
X20600558Y-16706478D02*
X20610082Y-16696954D01*
X20610082Y-16696954D02*
X20629130Y-16687430D01*
X20629130Y-16687430D02*
X20657701Y-16687430D01*
X20657701Y-16687430D02*
X20676749Y-16696954D01*
X20676749Y-16696954D02*
X20686273Y-16716002D01*
X20686273Y-16716002D02*
X20686273Y-16820764D01*
X20810082Y-16820764D02*
X20791034Y-16811240D01*
X20791034Y-16811240D02*
X20781511Y-16801716D01*
X20781511Y-16801716D02*
X20771987Y-16782669D01*
X20771987Y-16782669D02*
X20771987Y-16725526D01*
X20771987Y-16725526D02*
X20781511Y-16706478D01*
X20781511Y-16706478D02*
X20791034Y-16696954D01*
X20791034Y-16696954D02*
X20810082Y-16687430D01*
X20810082Y-16687430D02*
X20838654Y-16687430D01*
X20838654Y-16687430D02*
X20857701Y-16696954D01*
X20857701Y-16696954D02*
X20867225Y-16706478D01*
X20867225Y-16706478D02*
X20876749Y-16725526D01*
X20876749Y-16725526D02*
X20876749Y-16782669D01*
X20876749Y-16782669D02*
X20867225Y-16801716D01*
X20867225Y-16801716D02*
X20857701Y-16811240D01*
X20857701Y-16811240D02*
X20838654Y-16820764D01*
X20838654Y-16820764D02*
X20810082Y-16820764D01*
X20933892Y-16687430D02*
X21010082Y-16687430D01*
X20962463Y-16620764D02*
X20962463Y-16792192D01*
X20962463Y-16792192D02*
X20971987Y-16811240D01*
X20971987Y-16811240D02*
X20991034Y-16820764D01*
X20991034Y-16820764D02*
X21010082Y-16820764D01*
X21229130Y-16687430D02*
X21229130Y-16887430D01*
X21229130Y-16696954D02*
X21248177Y-16687430D01*
X21248177Y-16687430D02*
X21286273Y-16687430D01*
X21286273Y-16687430D02*
X21305320Y-16696954D01*
X21305320Y-16696954D02*
X21314844Y-16706478D01*
X21314844Y-16706478D02*
X21324368Y-16725526D01*
X21324368Y-16725526D02*
X21324368Y-16782669D01*
X21324368Y-16782669D02*
X21314844Y-16801716D01*
X21314844Y-16801716D02*
X21305320Y-16811240D01*
X21305320Y-16811240D02*
X21286273Y-16820764D01*
X21286273Y-16820764D02*
X21248177Y-16820764D01*
X21248177Y-16820764D02*
X21229130Y-16811240D01*
X21438654Y-16820764D02*
X21419606Y-16811240D01*
X21419606Y-16811240D02*
X21410082Y-16792192D01*
X21410082Y-16792192D02*
X21410082Y-16620764D01*
X21600558Y-16820764D02*
X21600558Y-16716002D01*
X21600558Y-16716002D02*
X21591035Y-16696954D01*
X21591035Y-16696954D02*
X21571987Y-16687430D01*
X21571987Y-16687430D02*
X21533892Y-16687430D01*
X21533892Y-16687430D02*
X21514844Y-16696954D01*
X21600558Y-16811240D02*
X21581511Y-16820764D01*
X21581511Y-16820764D02*
X21533892Y-16820764D01*
X21533892Y-16820764D02*
X21514844Y-16811240D01*
X21514844Y-16811240D02*
X21505320Y-16792192D01*
X21505320Y-16792192D02*
X21505320Y-16773145D01*
X21505320Y-16773145D02*
X21514844Y-16754097D01*
X21514844Y-16754097D02*
X21533892Y-16744573D01*
X21533892Y-16744573D02*
X21581511Y-16744573D01*
X21581511Y-16744573D02*
X21600558Y-16735049D01*
X21667225Y-16687430D02*
X21743415Y-16687430D01*
X21695796Y-16620764D02*
X21695796Y-16792192D01*
X21695796Y-16792192D02*
X21705320Y-16811240D01*
X21705320Y-16811240D02*
X21724368Y-16820764D01*
X21724368Y-16820764D02*
X21743415Y-16820764D01*
X21886273Y-16811240D02*
X21867225Y-16820764D01*
X21867225Y-16820764D02*
X21829130Y-16820764D01*
X21829130Y-16820764D02*
X21810082Y-16811240D01*
X21810082Y-16811240D02*
X21800558Y-16792192D01*
X21800558Y-16792192D02*
X21800558Y-16716002D01*
X21800558Y-16716002D02*
X21810082Y-16696954D01*
X21810082Y-16696954D02*
X21829130Y-16687430D01*
X21829130Y-16687430D02*
X21867225Y-16687430D01*
X21867225Y-16687430D02*
X21886273Y-16696954D01*
X21886273Y-16696954D02*
X21895796Y-16716002D01*
X21895796Y-16716002D02*
X21895796Y-16735049D01*
X21895796Y-16735049D02*
X21800558Y-16754097D01*
X22067225Y-16820764D02*
X22067225Y-16620764D01*
X22067225Y-16811240D02*
X22048177Y-16820764D01*
X22048177Y-16820764D02*
X22010082Y-16820764D01*
X22010082Y-16820764D02*
X21991035Y-16811240D01*
X21991035Y-16811240D02*
X21981511Y-16801716D01*
X21981511Y-16801716D02*
X21971987Y-16782669D01*
X21971987Y-16782669D02*
X21971987Y-16725526D01*
X21971987Y-16725526D02*
X21981511Y-16706478D01*
X21981511Y-16706478D02*
X21991035Y-16696954D01*
X21991035Y-16696954D02*
X22010082Y-16687430D01*
X22010082Y-16687430D02*
X22048177Y-16687430D01*
X22048177Y-16687430D02*
X22067225Y-16696954D01*
X22143416Y-16896954D02*
X22152939Y-16887430D01*
X22152939Y-16887430D02*
X22171987Y-16858859D01*
X22171987Y-16858859D02*
X22181511Y-16839811D01*
X22181511Y-16839811D02*
X22191035Y-16811240D01*
X22191035Y-16811240D02*
X22200558Y-16763621D01*
X22200558Y-16763621D02*
X22200558Y-16725526D01*
X22200558Y-16725526D02*
X22191035Y-16677907D01*
X22191035Y-16677907D02*
X22181511Y-16649335D01*
X22181511Y-16649335D02*
X22171987Y-16630288D01*
X22171987Y-16630288D02*
X22152939Y-16601716D01*
X22152939Y-16601716D02*
X22143416Y-16592192D01*
M02*
