%TF.GenerationSoftware,KiCad,Pcbnew,8.0.3*%
%TF.CreationDate,2025-06-04T12:12:44-07:00*%
%TF.ProjectId,Power_Distribution,506f7765-725f-4446-9973-747269627574,rev?*%
%TF.SameCoordinates,Original*%
%TF.FileFunction,Copper,L2,Bot*%
%TF.FilePolarity,Positive*%
%FSLAX46Y46*%
G04 Gerber Fmt 4.6, Leading zero omitted, Abs format (unit mm)*
G04 Created by KiCad (PCBNEW 8.0.3) date 2025-06-04 12:12:44*
%MOMM*%
%LPD*%
G01*
G04 APERTURE LIST*
G04 Aperture macros list*
%AMRoundRect*
0 Rectangle with rounded corners*
0 $1 Rounding radius*
0 $2 $3 $4 $5 $6 $7 $8 $9 X,Y pos of 4 corners*
0 Add a 4 corners polygon primitive as box body*
4,1,4,$2,$3,$4,$5,$6,$7,$8,$9,$2,$3,0*
0 Add four circle primitives for the rounded corners*
1,1,$1+$1,$2,$3*
1,1,$1+$1,$4,$5*
1,1,$1+$1,$6,$7*
1,1,$1+$1,$8,$9*
0 Add four rect primitives between the rounded corners*
20,1,$1+$1,$2,$3,$4,$5,0*
20,1,$1+$1,$4,$5,$6,$7,0*
20,1,$1+$1,$6,$7,$8,$9,0*
20,1,$1+$1,$8,$9,$2,$3,0*%
G04 Aperture macros list end*
%TA.AperFunction,ComponentPad*%
%ADD10R,0.900000X2.000000*%
%TD*%
%TA.AperFunction,ComponentPad*%
%ADD11RoundRect,1.025000X1.025000X1.025000X-1.025000X1.025000X-1.025000X-1.025000X1.025000X-1.025000X0*%
%TD*%
%TA.AperFunction,ComponentPad*%
%ADD12C,4.100000*%
%TD*%
%TA.AperFunction,ComponentPad*%
%ADD13R,2.300000X1.300000*%
%TD*%
%TA.AperFunction,ComponentPad*%
%ADD14R,3.000000X3.000000*%
%TD*%
%TA.AperFunction,ComponentPad*%
%ADD15C,3.000000*%
%TD*%
%TA.AperFunction,ComponentPad*%
%ADD16R,1.508000X1.508000*%
%TD*%
%TA.AperFunction,ComponentPad*%
%ADD17C,1.508000*%
%TD*%
%TA.AperFunction,ComponentPad*%
%ADD18C,1.574800*%
%TD*%
%TA.AperFunction,ComponentPad*%
%ADD19R,1.700000X1.700000*%
%TD*%
%TA.AperFunction,ComponentPad*%
%ADD20O,1.700000X1.700000*%
%TD*%
%TA.AperFunction,SMDPad,CuDef*%
%ADD21RoundRect,0.250000X0.550000X0.250000X-0.550000X0.250000X-0.550000X-0.250000X0.550000X-0.250000X0*%
%TD*%
%TA.AperFunction,ViaPad*%
%ADD22C,0.800000*%
%TD*%
%TA.AperFunction,ViaPad*%
%ADD23C,0.900000*%
%TD*%
%TA.AperFunction,Conductor*%
%ADD24C,0.304800*%
%TD*%
%TA.AperFunction,Conductor*%
%ADD25C,7.500000*%
%TD*%
%TA.AperFunction,Conductor*%
%ADD26C,7.000000*%
%TD*%
G04 APERTURE END LIST*
D10*
%TO.P,J4,*%
%TO.N,*%
X198520000Y-101380000D03*
X185020000Y-101380000D03*
D11*
%TO.P,J4,1,Pin_1*%
%TO.N,-BATT*%
X195370000Y-95380000D03*
D12*
%TO.P,J4,2,Pin_2*%
%TO.N,+BATT*%
X188170000Y-95380000D03*
D13*
%TO.P,J4,3*%
%TO.N,N/C*%
X191770000Y-99030000D03*
%TD*%
D14*
%TO.P,J6,1,1*%
%TO.N,PWR1*%
X206396000Y-75492000D03*
D15*
%TO.P,J6,2,2*%
%TO.N,-BATT*%
X198896000Y-62992000D03*
%TO.P,J6,3,3*%
%TO.N,PWR2*%
X191396000Y-75492000D03*
%TO.P,J6,4,4*%
%TO.N,-BATT*%
X183896000Y-62992000D03*
%TD*%
D16*
%TO.P,J18,1,1*%
%TO.N,PWM0*%
X139190000Y-108750000D03*
D17*
%TO.P,J18,2,2*%
%TO.N,SCL*%
X139190000Y-106210000D03*
%TO.P,J18,3,3*%
%TO.N,PWM1*%
X141730000Y-108750000D03*
%TO.P,J18,4,4*%
%TO.N,SDA*%
X141730000Y-106210000D03*
%TO.P,J18,5,5*%
%TO.N,PWM2*%
X144270000Y-108750000D03*
%TO.P,J18,6,6*%
%TO.N,toNEO_CTRL_MOOD*%
X144270000Y-106210000D03*
%TO.P,J18,7,7*%
%TO.N,PWM3*%
X146810000Y-108750000D03*
%TO.P,J18,8,8*%
%TO.N,outNEO_CTRL_MOOD*%
X146810000Y-106210000D03*
%TO.P,J18,9,9*%
%TO.N,PWM4*%
X149350000Y-108750000D03*
%TO.P,J18,10,10*%
%TO.N,unconnected-(J18-Pad10)*%
X149350000Y-106210000D03*
%TO.P,J18,11,11*%
%TO.N,PWM5*%
X151890000Y-108750000D03*
%TO.P,J18,12,12*%
%TO.N,GND*%
X151890000Y-106210000D03*
%TO.P,J18,13,13*%
%TO.N,PWM6*%
X154430000Y-108750000D03*
%TO.P,J18,14,14*%
%TO.N,5V*%
X154430000Y-106210000D03*
%TO.P,J18,15,15*%
%TO.N,PWM7*%
X156970000Y-108750000D03*
%TO.P,J18,16,16*%
%TO.N,5V*%
X156970000Y-106210000D03*
%TO.P,J18,17,17*%
%TO.N,unconnected-(J18-Pad17)*%
X159510000Y-108750000D03*
%TO.P,J18,18,18*%
%TO.N,+3.3V*%
X159510000Y-106210000D03*
%TO.P,J18,19,19*%
%TO.N,unconnected-(J18-Pad19)*%
X162050000Y-108750000D03*
%TO.P,J18,20,20*%
%TO.N,GND*%
X162050000Y-106210000D03*
%TD*%
D18*
%TO.P,J15,1,1*%
%TO.N,PWM6*%
X164060000Y-98389999D03*
%TO.P,J15,2,2*%
%TO.N,GND*%
X164060000Y-95390000D03*
%TD*%
%TO.P,J10,1,1*%
%TO.N,PWM0*%
X84800000Y-92550000D03*
%TO.P,J10,2,2*%
%TO.N,GND*%
X87799999Y-92550000D03*
%TD*%
D14*
%TO.P,J2,1,1*%
%TO.N,PWR5*%
X141612000Y-75492000D03*
D15*
%TO.P,J2,2,2*%
%TO.N,-BATT*%
X134112000Y-62992000D03*
%TO.P,J2,3,3*%
%TO.N,PWR6*%
X126612000Y-75492000D03*
%TO.P,J2,4,4*%
%TO.N,-BATT*%
X119112000Y-62992000D03*
%TD*%
D18*
%TO.P,J17,1,1*%
%TO.N,PWM7*%
X207619999Y-91380000D03*
%TO.P,J17,2,2*%
%TO.N,GND*%
X204620000Y-91380000D03*
%TD*%
%TO.P,J16,1,1*%
%TO.N,PWM3*%
X207619999Y-99510000D03*
%TO.P,J16,2,2*%
%TO.N,GND*%
X204620000Y-99510000D03*
%TD*%
D19*
%TO.P,J9,1,Pin_1*%
%TO.N,VIout8Div*%
X105290000Y-95632000D03*
D20*
%TO.P,J9,2,Pin_2*%
%TO.N,VIout7Div*%
X107830000Y-95632000D03*
%TO.P,J9,3,Pin_3*%
%TO.N,VIout6Div*%
X110370000Y-95632000D03*
%TO.P,J9,4,Pin_4*%
%TO.N,VIout5Div*%
X112910000Y-95632000D03*
%TO.P,J9,5,Pin_5*%
%TO.N,VIout4Div*%
X115450000Y-95632000D03*
%TO.P,J9,6,Pin_6*%
%TO.N,VIout3Div*%
X117990000Y-95632000D03*
%TO.P,J9,7,Pin_7*%
%TO.N,VIout2Div*%
X120530000Y-95632000D03*
%TO.P,J9,8,Pin_8*%
%TO.N,VIout1Div*%
X123070000Y-95632000D03*
%TD*%
D18*
%TO.P,J14,1,1*%
%TO.N,PWM2*%
X155284400Y-98399999D03*
%TO.P,J14,2,2*%
%TO.N,GND*%
X155284400Y-95400000D03*
%TD*%
D14*
%TO.P,J1,1,1*%
%TO.N,PWR3*%
X173985600Y-75492000D03*
D15*
%TO.P,J1,2,2*%
%TO.N,-BATT*%
X166485600Y-62992000D03*
%TO.P,J1,3,3*%
%TO.N,PWR4*%
X158985600Y-75492000D03*
%TO.P,J1,4,4*%
%TO.N,-BATT*%
X151485600Y-62992000D03*
%TD*%
D18*
%TO.P,J11,1,1*%
%TO.N,PWM4*%
X84800000Y-100590000D03*
%TO.P,J11,2,2*%
%TO.N,GND*%
X87799999Y-100590000D03*
%TD*%
%TO.P,J13,1,1*%
%TO.N,PWM5*%
X146508800Y-98399999D03*
%TO.P,J13,2,2*%
%TO.N,GND*%
X146508800Y-95400000D03*
%TD*%
%TO.P,J12,1,1*%
%TO.N,PWM1*%
X137733200Y-98399999D03*
%TO.P,J12,2,2*%
%TO.N,GND*%
X137733200Y-95400000D03*
%TD*%
D14*
%TO.P,J7,1,1*%
%TO.N,PWR7*%
X109252400Y-75339600D03*
D15*
%TO.P,J7,2,2*%
%TO.N,-BATT*%
X101752400Y-62839600D03*
%TO.P,J7,3,3*%
%TO.N,PWR8*%
X94252400Y-75339600D03*
%TO.P,J7,4,4*%
%TO.N,-BATT*%
X86752400Y-62839600D03*
%TD*%
D19*
%TO.P,J3,1,Pin_1*%
%TO.N,Net-(J3-Pin_1)*%
X105290000Y-108332000D03*
D20*
%TO.P,J3,2,Pin_2*%
%TO.N,GND*%
X107830000Y-108332000D03*
%TO.P,J3,3,Pin_3*%
%TO.N,SCL*%
X110370000Y-108332000D03*
%TO.P,J3,4,Pin_4*%
%TO.N,SDA*%
X112910000Y-108332000D03*
%TO.P,J3,5,Pin_5*%
%TO.N,REF*%
X115450000Y-108332000D03*
%TO.P,J3,6,Pin_6*%
%TO.N,COM*%
X117990000Y-108332000D03*
%TO.P,J3,7,Pin_7*%
%TO.N,AD0*%
X120530000Y-108332000D03*
%TO.P,J3,8,Pin_8*%
%TO.N,AD1*%
X123070000Y-108332000D03*
%TD*%
D21*
%TO.P,LED8,1,VSS*%
%TO.N,GND*%
X142391112Y-54150000D03*
%TO.P,LED8,2,DIN*%
%TO.N,Net-(LED7-DOUT)*%
X142391112Y-57450000D03*
%TO.P,LED8,3,VDD*%
%TO.N,5V*%
X137391112Y-54150000D03*
%TO.P,LED8,4,DOUT*%
%TO.N,NEO_PASS2*%
X137391112Y-57450000D03*
%TD*%
%TO.P,LED9,1,VSS*%
%TO.N,GND*%
X129394724Y-54150000D03*
%TO.P,LED9,2,DIN*%
%TO.N,NEO_PASS2*%
X129394724Y-57450000D03*
%TO.P,LED9,3,VDD*%
%TO.N,5V*%
X124394724Y-54150000D03*
%TO.P,LED9,4,DOUT*%
%TO.N,Net-(LED10-DIN)*%
X124394724Y-57450000D03*
%TD*%
%TO.P,LED3,1,VSS*%
%TO.N,GND*%
X207373052Y-54150000D03*
%TO.P,LED3,2,DIN*%
%TO.N,Net-(LED2-DOUT)*%
X207373052Y-57450000D03*
%TO.P,LED3,3,VDD*%
%TO.N,5V*%
X202373052Y-54150000D03*
%TO.P,LED3,4,DOUT*%
%TO.N,Net-(LED3-DOUT)*%
X202373052Y-57450000D03*
%TD*%
%TO.P,LED4,1,VSS*%
%TO.N,GND*%
X194376664Y-54150000D03*
%TO.P,LED4,2,DIN*%
%TO.N,Net-(LED3-DOUT)*%
X194376664Y-57450000D03*
%TO.P,LED4,3,VDD*%
%TO.N,5V*%
X189376664Y-54150000D03*
%TO.P,LED4,4,DOUT*%
%TO.N,NEO_PASS1*%
X189376664Y-57450000D03*
%TD*%
%TO.P,LED6,1,VSS*%
%TO.N,GND*%
X168383888Y-54150000D03*
%TO.P,LED6,2,DIN*%
%TO.N,Net-(LED5-DOUT)*%
X168383888Y-57450000D03*
%TO.P,LED6,3,VDD*%
%TO.N,5V*%
X163383888Y-54150000D03*
%TO.P,LED6,4,DOUT*%
%TO.N,Net-(LED6-DOUT)*%
X163383888Y-57450000D03*
%TD*%
%TO.P,LED5,1,VSS*%
%TO.N,GND*%
X181380276Y-54150000D03*
%TO.P,LED5,2,DIN*%
%TO.N,NEO_PASS1*%
X181380276Y-57450000D03*
%TO.P,LED5,3,VDD*%
%TO.N,5V*%
X176380276Y-54150000D03*
%TO.P,LED5,4,DOUT*%
%TO.N,Net-(LED5-DOUT)*%
X176380276Y-57450000D03*
%TD*%
%TO.P,LED11,1,VSS*%
%TO.N,GND*%
X103401948Y-54150000D03*
%TO.P,LED11,2,DIN*%
%TO.N,Net-(LED10-DOUT)*%
X103401948Y-57450000D03*
%TO.P,LED11,3,VDD*%
%TO.N,5V*%
X98401948Y-54150000D03*
%TO.P,LED11,4,DOUT*%
%TO.N,Net-(LED11-DOUT)*%
X98401948Y-57450000D03*
%TD*%
%TO.P,LED12,1,VSS*%
%TO.N,GND*%
X90405552Y-54150000D03*
%TO.P,LED12,2,DIN*%
%TO.N,Net-(LED11-DOUT)*%
X90405552Y-57450000D03*
%TO.P,LED12,3,VDD*%
%TO.N,5V*%
X85405552Y-54150000D03*
%TO.P,LED12,4,DOUT*%
%TO.N,outNEO_CTRL_MOOD*%
X85405552Y-57450000D03*
%TD*%
%TO.P,LED10,1,VSS*%
%TO.N,GND*%
X116398336Y-54150000D03*
%TO.P,LED10,2,DIN*%
%TO.N,Net-(LED10-DIN)*%
X116398336Y-57450000D03*
%TO.P,LED10,3,VDD*%
%TO.N,5V*%
X111398336Y-54150000D03*
%TO.P,LED10,4,DOUT*%
%TO.N,Net-(LED10-DOUT)*%
X111398336Y-57450000D03*
%TD*%
%TO.P,LED7,1,VSS*%
%TO.N,GND*%
X155387500Y-54150000D03*
%TO.P,LED7,2,DIN*%
%TO.N,Net-(LED6-DOUT)*%
X155387500Y-57450000D03*
%TO.P,LED7,3,VDD*%
%TO.N,5V*%
X150387500Y-54150000D03*
%TO.P,LED7,4,DOUT*%
%TO.N,Net-(LED7-DOUT)*%
X150387500Y-57450000D03*
%TD*%
D22*
%TO.N,GND*%
X169672000Y-97790000D03*
%TO.N,Net-(LED2-DOUT)*%
X93218000Y-107188000D03*
%TO.N,VIout8*%
X90594000Y-83058000D03*
%TO.N,GND*%
X197104000Y-86106000D03*
%TO.N,5V*%
X149248000Y-84521188D03*
%TO.N,VIout6*%
X122269010Y-82650398D03*
%TO.N,GND*%
X115570000Y-80518000D03*
%TO.N,VIout8Div*%
X108204000Y-105156000D03*
%TO.N,VIout4*%
X142420000Y-71734400D03*
%TO.N,VIout3*%
X112802043Y-83856538D03*
%TO.N,VIout5*%
X111822541Y-82457594D03*
%TO.N,VIout1Div*%
X110744000Y-98298000D03*
%TO.N,GND*%
X168230000Y-96520000D03*
X132588000Y-80619600D03*
X188767018Y-78182542D03*
X105218600Y-81276111D03*
X104143470Y-105305012D03*
X155873740Y-77121997D03*
X176977200Y-78497200D03*
X123802800Y-80578167D03*
X161515600Y-78296545D03*
X151890000Y-102280000D03*
X101070500Y-80568800D03*
X144510401Y-84557258D03*
X94780000Y-103480000D03*
X89360000Y-98900000D03*
X170006800Y-78328190D03*
X170720000Y-99917300D03*
X92334823Y-80830000D03*
X101356800Y-97372912D03*
X144160000Y-82390000D03*
X194606842Y-77481444D03*
X89300000Y-107880000D03*
X137305515Y-81039872D03*
%TO.N,5V*%
X138362100Y-107400567D03*
X114339633Y-80014633D03*
X129275000Y-79600000D03*
X95295964Y-110268000D03*
X161820000Y-77110000D03*
X91911132Y-107321132D03*
X106066146Y-79271341D03*
X188990365Y-77122626D03*
X193650000Y-77180000D03*
X139780000Y-78360000D03*
D23*
X195047404Y-85903266D03*
D22*
X155984400Y-75570034D03*
X171206565Y-77014831D03*
X202450000Y-55560000D03*
X92170000Y-84100000D03*
X132740000Y-101150000D03*
X100881000Y-85039200D03*
X124660000Y-79440000D03*
X176120000Y-77610000D03*
%TO.N,VIout1*%
X133110000Y-94310000D03*
X192010000Y-73360000D03*
X144360000Y-85560000D03*
X188210000Y-73460000D03*
%TO.N,VIout2*%
X186520000Y-78490000D03*
X120140000Y-77380000D03*
X183670000Y-77930000D03*
X133900000Y-73245600D03*
X181845027Y-72910896D03*
X130930000Y-73650400D03*
X189010000Y-79420000D03*
X109560000Y-94250000D03*
%TO.N,VIout3*%
X108190627Y-94227558D03*
X167250000Y-78350000D03*
X164820000Y-72434400D03*
%TO.N,VIout4*%
X147463873Y-80504331D03*
X105719818Y-97327406D03*
X112750000Y-82840000D03*
X143979431Y-73932400D03*
X149255905Y-83244957D03*
%TO.N,VIout5*%
X117017133Y-77337133D03*
X113430000Y-77310000D03*
X104087072Y-94282302D03*
%TO.N,VIout6*%
X103084871Y-94327124D03*
X118540262Y-77925262D03*
X122400000Y-79825000D03*
%TO.N,VIout7*%
X103772400Y-83108800D03*
X102081700Y-94335124D03*
%TO.N,VIout8*%
X90600000Y-79800000D03*
X101080000Y-94390000D03*
%TO.N,SDA*%
X114086672Y-102675600D03*
X96480000Y-100340000D03*
X141730000Y-101020000D03*
X142080000Y-97080000D03*
%TO.N,COM*%
X118040000Y-105550000D03*
%TO.N,SCL*%
X96460000Y-101450000D03*
X136168312Y-100238800D03*
X103490000Y-108550000D03*
%TO.N,REF*%
X115845600Y-104513697D03*
%TO.N,PWM0*%
X139302040Y-110860400D03*
%TO.N,PWM4*%
X149390000Y-111440000D03*
%TO.N,PWM2*%
X144141043Y-99288999D03*
%TO.N,PWM6*%
X153942684Y-98794420D03*
%TO.N,PWM3*%
X147175586Y-111077895D03*
%TO.N,PWM7*%
X156980000Y-110990000D03*
%TO.N,+3.3V*%
X121125000Y-103825000D03*
D23*
X105196568Y-105319860D03*
D22*
X113252418Y-105294476D03*
X132260000Y-104325600D03*
X128500000Y-101020000D03*
X125311800Y-103431704D03*
%TO.N,Net-(J3-Pin_1)*%
X127080000Y-101020000D03*
X126040000Y-105090000D03*
X109275223Y-107368800D03*
%TO.N,VIout5Div*%
X113284000Y-100584000D03*
X111278290Y-102081710D03*
X113284000Y-99060000D03*
%TO.N,Net-(LED2-DOUT)*%
X197333052Y-67490000D03*
X92220000Y-67650000D03*
%TO.N,VIout7Div*%
X107968302Y-103766000D03*
%TO.N,VIout6Div*%
X111252000Y-103124000D03*
%TO.N,VIout1Div*%
X114808000Y-99060000D03*
%TO.N,VIout3Div*%
X109762890Y-100566310D03*
%TO.N,outNEO_CTRL_MOOD*%
X91240000Y-100250000D03*
X109435287Y-109647819D03*
X91192473Y-67608947D03*
X103120000Y-109530000D03*
X134924400Y-109534400D03*
X148110000Y-109720000D03*
X138210000Y-110180000D03*
X84080000Y-59070000D03*
%TO.N,toNEO_CTRL_MOOD*%
X144357360Y-111577815D03*
%TD*%
D24*
%TO.N,GND*%
X170720000Y-99917300D02*
X170720000Y-98838000D01*
X170720000Y-98838000D02*
X169672000Y-97790000D01*
%TO.N,Net-(LED2-DOUT)*%
X93695290Y-105633290D02*
X93218000Y-106110580D01*
X93695290Y-105633290D02*
X95555200Y-103773380D01*
X93376280Y-105952300D02*
X93695290Y-105633290D01*
X93218000Y-106110580D02*
X93218000Y-107188000D01*
%TO.N,VIout8*%
X90594000Y-83058000D02*
X90594000Y-81035200D01*
X90594000Y-83904000D02*
X90594000Y-83058000D01*
X101080000Y-94390000D02*
X90594000Y-83904000D01*
X90594000Y-81035200D02*
X90600000Y-81029200D01*
%TO.N,VIout4*%
X149255905Y-83244957D02*
X147750000Y-81739052D01*
D25*
%TO.N,-BATT*%
X151520540Y-78925152D02*
X154070585Y-81475197D01*
X151485600Y-78752908D02*
X151520540Y-78787848D01*
D24*
%TO.N,GND*%
X156905743Y-78154000D02*
X155873740Y-77121997D01*
%TO.N,VIout4*%
X147750000Y-80790458D02*
X147463873Y-80504331D01*
D25*
%TO.N,-BATT*%
X154070585Y-81475197D02*
X154207889Y-81475197D01*
X151520540Y-78787848D02*
X151520540Y-78925152D01*
D24*
%TO.N,GND*%
X161373055Y-78154000D02*
X156905743Y-78154000D01*
D25*
%TO.N,-BATT*%
X151485600Y-75284536D02*
X151485600Y-78752908D01*
D24*
%TO.N,GND*%
X161515600Y-78296545D02*
X161373055Y-78154000D01*
D25*
%TO.N,-BATT*%
X155612692Y-82880000D02*
X186102436Y-82880000D01*
D24*
%TO.N,VIout4*%
X147750000Y-81739052D02*
X147750000Y-80790458D01*
D25*
%TO.N,-BATT*%
X154207889Y-81475197D02*
X155612692Y-82880000D01*
D24*
%TO.N,GND*%
X202378000Y-91380000D02*
X204620000Y-91380000D01*
X197104000Y-86106000D02*
X202378000Y-91380000D01*
%TO.N,5V*%
X146812000Y-84328000D02*
X147005188Y-84521188D01*
X147005188Y-84521188D02*
X149248000Y-84521188D01*
X143163209Y-78360000D02*
X146812000Y-82008791D01*
X146812000Y-82008791D02*
X146812000Y-84328000D01*
%TO.N,VIout6*%
X122400000Y-79825000D02*
X122400000Y-82519408D01*
X122400000Y-82519408D02*
X122269010Y-82650398D01*
X115377377Y-81779203D02*
X118540262Y-78616318D01*
X112135521Y-81701994D02*
X112212730Y-81779203D01*
X112212730Y-81779203D02*
X115377377Y-81779203D01*
X111509561Y-81701994D02*
X112135521Y-81701994D01*
X118540262Y-78616318D02*
X118540262Y-77925262D01*
X103084871Y-90126684D02*
X111509561Y-81701994D01*
%TO.N,GND*%
X114865200Y-81222800D02*
X115570000Y-80518000D01*
%TO.N,VIout6*%
X103084871Y-94327124D02*
X103084871Y-90126684D01*
%TO.N,GND*%
X112390322Y-81222800D02*
X114865200Y-81222800D01*
%TO.N,outNEO_CTRL_MOOD*%
X87310800Y-86548592D02*
X87310800Y-71490620D01*
X91240000Y-90477792D02*
X87310800Y-86548592D01*
%TO.N,Net-(LED2-DOUT)*%
X87965200Y-82595420D02*
X87965200Y-71904800D01*
X95555200Y-103773380D02*
X95555200Y-94079096D01*
%TO.N,outNEO_CTRL_MOOD*%
X87310800Y-71490620D02*
X91192473Y-67608947D01*
X91240000Y-100250000D02*
X91240000Y-90477792D01*
%TO.N,Net-(LED2-DOUT)*%
X87815600Y-86339496D02*
X87815600Y-82745020D01*
X87965200Y-71904800D02*
X92220000Y-67650000D01*
X93279964Y-105952300D02*
X93376280Y-105952300D01*
X95555200Y-94079096D02*
X87815600Y-86339496D01*
X87815600Y-82745020D02*
X87965200Y-82595420D01*
%TO.N,5V*%
X91911132Y-107321132D02*
X94330000Y-109740000D01*
X94767964Y-109740000D02*
X95295964Y-110268000D01*
X94330000Y-109740000D02*
X94767964Y-109740000D01*
%TO.N,GND*%
X104184026Y-105264456D02*
X104143470Y-105305012D01*
%TO.N,+3.3V*%
X105788308Y-105911600D02*
X105196568Y-105319860D01*
%TO.N,VIout8Div*%
X108204000Y-105156000D02*
X106172000Y-105156000D01*
%TO.N,GND*%
X104184026Y-100200138D02*
X104184026Y-105264456D01*
%TO.N,+3.3V*%
X112794494Y-105752400D02*
X108676180Y-105752400D01*
X108516980Y-105911600D02*
X105788308Y-105911600D01*
%TO.N,GND*%
X101356800Y-97372912D02*
X104184026Y-100200138D01*
%TO.N,+3.3V*%
X108676180Y-105752400D02*
X108516980Y-105911600D01*
%TO.N,VIout8Div*%
X106172000Y-105156000D02*
X104964218Y-103948218D01*
%TO.N,+3.3V*%
X113252418Y-105294476D02*
X112794494Y-105752400D01*
%TO.N,VIout8Div*%
X104964218Y-103948218D02*
X104964218Y-95957782D01*
%TO.N,VIout3*%
X112447358Y-83856538D02*
X112802043Y-83856538D01*
%TO.N,GND*%
X112376719Y-81209197D02*
X112390322Y-81222800D01*
X112356619Y-81209197D02*
X112376719Y-81209197D01*
X105297517Y-81197194D02*
X112344617Y-81197194D01*
X105218600Y-81276111D02*
X105297517Y-81197194D01*
%TO.N,VIout5*%
X111608092Y-82457594D02*
X111822541Y-82457594D01*
%TO.N,GND*%
X112344617Y-81197194D02*
X112356619Y-81209197D01*
%TO.N,VIout5*%
X103740000Y-93935230D02*
X103740000Y-90325686D01*
%TO.N,VIout4*%
X106492400Y-96834400D02*
X106492400Y-89097600D01*
%TO.N,VIout2*%
X133900000Y-73245600D02*
X131334800Y-73245600D01*
%TO.N,VIout3*%
X164820000Y-75920000D02*
X164820000Y-72434400D01*
%TO.N,VIout2*%
X181850000Y-76110000D02*
X181850000Y-72915869D01*
X183670000Y-77930000D02*
X181850000Y-76110000D01*
X131334800Y-73245600D02*
X130930000Y-73650400D01*
%TO.N,VIout4*%
X142420000Y-71734400D02*
X142740000Y-72054400D01*
X112750000Y-82840000D02*
X106492400Y-89097600D01*
X142740000Y-72054400D02*
X142740000Y-72692969D01*
%TO.N,5V*%
X113850000Y-79525000D02*
X114339633Y-80014633D01*
%TO.N,VIout4*%
X142740000Y-72692969D02*
X143979431Y-73932400D01*
%TO.N,VIout3*%
X108190627Y-94227558D02*
X108190627Y-88113269D01*
X108190627Y-88113269D02*
X112447358Y-83856538D01*
%TO.N,VIout5*%
X113430000Y-77310000D02*
X116300000Y-77310000D01*
X116300000Y-77310000D02*
X116327133Y-77337133D01*
%TO.N,VIout4*%
X105999394Y-97327406D02*
X105719818Y-97327406D01*
%TO.N,VIout5*%
X116327133Y-77337133D02*
X117017133Y-77337133D01*
%TO.N,VIout3*%
X167250000Y-78350000D02*
X164820000Y-75920000D01*
%TO.N,5V*%
X106066146Y-79271341D02*
X106319805Y-79525000D01*
X106319805Y-79525000D02*
X113850000Y-79525000D01*
%TO.N,VIout2*%
X181850000Y-72915869D02*
X181845027Y-72910896D01*
%TO.N,VIout4*%
X106492400Y-96834400D02*
X105999394Y-97327406D01*
%TO.N,VIout3Div*%
X109762890Y-98210530D02*
X109762890Y-100566310D01*
X111707600Y-95133949D02*
X111707600Y-96265820D01*
X112411949Y-94429600D02*
X111707600Y-95133949D01*
X116787600Y-94429600D02*
X112411949Y-94429600D01*
X117990000Y-95632000D02*
X116787600Y-94429600D01*
%TO.N,VIout6Div*%
X108473102Y-100345102D02*
X108473102Y-97528898D01*
%TO.N,VIout5Div*%
X111506000Y-101854000D02*
X111278290Y-102081710D01*
%TO.N,VIout6Div*%
X111252000Y-103124000D02*
X108473102Y-100345102D01*
%TO.N,VIout5Div*%
X112014000Y-101854000D02*
X111506000Y-101854000D01*
%TO.N,VIout3Div*%
X111707600Y-96265820D02*
X109762890Y-98210530D01*
%TO.N,VIout5Div*%
X113284000Y-100584000D02*
X112014000Y-101854000D01*
%TO.N,VIout6Div*%
X108473102Y-97528898D02*
X110370000Y-95632000D01*
%TO.N,VIout7Div*%
X107968302Y-103766000D02*
X107830000Y-103627698D01*
X107830000Y-103627698D02*
X107830000Y-95632000D01*
%TO.N,VIout1Div*%
X114049200Y-99818800D02*
X111506000Y-99818800D01*
X110744000Y-98298000D02*
X110744000Y-99056800D01*
X110744000Y-99056800D02*
X111506000Y-99818800D01*
X114808000Y-99060000D02*
X114049200Y-99818800D01*
%TO.N,GND*%
X153098000Y-109148000D02*
X153098000Y-108249630D01*
X155638000Y-108373630D02*
X155638000Y-109250370D01*
X193422664Y-53196000D02*
X182334276Y-53196000D01*
X169337888Y-53196000D02*
X168383888Y-54150000D01*
X103401948Y-54150000D02*
X102447948Y-53196000D01*
X160842000Y-107418000D02*
X156593630Y-107418000D01*
X146508800Y-95400000D02*
X146508800Y-86346536D01*
X176977200Y-78497200D02*
X170175810Y-78497200D01*
X87012600Y-93337399D02*
X87012600Y-99802601D01*
X151890000Y-100781200D02*
X151890000Y-106210000D01*
X101070500Y-80568800D02*
X100809300Y-80830000D01*
X142391112Y-54150000D02*
X141437112Y-53196000D01*
X195330664Y-53196000D02*
X206419052Y-53196000D01*
X194376664Y-54150000D02*
X193422664Y-53196000D01*
X132588000Y-80619600D02*
X123844233Y-80619600D01*
X208880000Y-100220000D02*
X208880000Y-55656948D01*
X102447948Y-53196000D02*
X91359552Y-53196000D01*
X143345112Y-53196000D02*
X142391112Y-54150000D01*
X154433500Y-53196000D02*
X143345112Y-53196000D01*
X193708286Y-78380000D02*
X188964476Y-78380000D01*
X205407399Y-92167399D02*
X205407399Y-98722601D01*
X200286000Y-108814000D02*
X208880000Y-100220000D01*
X141437112Y-53196000D02*
X129794000Y-53196000D01*
X117352336Y-53196000D02*
X116398336Y-54150000D01*
X151890000Y-107041630D02*
X151890000Y-106210000D01*
X129794000Y-53196000D02*
X128840000Y-54150000D01*
X100809300Y-80830000D02*
X92334823Y-80830000D01*
X180426276Y-53196000D02*
X169337888Y-53196000D01*
X167100000Y-95390000D02*
X164060000Y-95390000D01*
X153098000Y-108249630D02*
X151890000Y-107041630D01*
X204620000Y-91380000D02*
X205407399Y-92167399D01*
X168383888Y-54150000D02*
X167429888Y-53196000D01*
X208880000Y-55656948D02*
X207373052Y-54150000D01*
X123844233Y-80619600D02*
X123802800Y-80578167D01*
X144655943Y-84702800D02*
X144510401Y-84557258D01*
X140580000Y-81750000D02*
X138015643Y-81750000D01*
X200286000Y-108814000D02*
X199631800Y-109468200D01*
X155387500Y-54150000D02*
X154433500Y-53196000D01*
X162050000Y-106210000D02*
X165500700Y-109660700D01*
X128440724Y-53196000D02*
X117352336Y-53196000D01*
X87799999Y-92550000D02*
X87012600Y-93337399D01*
X138015643Y-81750000D02*
X137305515Y-81039872D01*
X168230000Y-96520000D02*
X167100000Y-95390000D01*
X93700000Y-103480000D02*
X94780000Y-103480000D01*
X129394724Y-54150000D02*
X128440724Y-53196000D01*
X194376664Y-54150000D02*
X195330664Y-53196000D01*
X165500700Y-109660700D02*
X199439300Y-109660700D01*
X144865064Y-84702800D02*
X144655943Y-84702800D01*
X104355948Y-53196000D02*
X103401948Y-54150000D01*
X194606842Y-77481444D02*
X193708286Y-78380000D01*
X156593630Y-107418000D02*
X155638000Y-108373630D01*
X115444336Y-53196000D02*
X104355948Y-53196000D01*
X167429888Y-53196000D02*
X156341500Y-53196000D01*
X89300000Y-107880000D02*
X93700000Y-103480000D01*
X146508800Y-86346536D02*
X144865064Y-84702800D01*
X154930370Y-109958000D02*
X153908000Y-109958000D01*
X87799999Y-100460001D02*
X89360000Y-98900000D01*
X199439300Y-109660700D02*
X208880000Y-100220000D01*
X87012600Y-99802601D02*
X87799999Y-100590000D01*
X181380276Y-54150000D02*
X180426276Y-53196000D01*
X206419052Y-53196000D02*
X207373052Y-54150000D01*
X91359552Y-53196000D02*
X90405552Y-54150000D01*
X182334276Y-53196000D02*
X181380276Y-54150000D01*
X155638000Y-109250370D02*
X154930370Y-109958000D01*
X144160000Y-82390000D02*
X141220000Y-82390000D01*
X188964476Y-78380000D02*
X188767018Y-78182542D01*
X205407399Y-98722601D02*
X204620000Y-99510000D01*
X153908000Y-109958000D02*
X153098000Y-109148000D01*
X162050000Y-106210000D02*
X160842000Y-107418000D01*
X116398336Y-54150000D02*
X115444336Y-53196000D01*
X141220000Y-82390000D02*
X140580000Y-81750000D01*
X170175810Y-78497200D02*
X170006800Y-78328190D01*
X146508800Y-95400000D02*
X151890000Y-100781200D01*
X156341500Y-53196000D02*
X155387500Y-54150000D01*
%TO.N,5V*%
X139780000Y-78360000D02*
X143163209Y-78360000D01*
X133920000Y-103290000D02*
X134251533Y-103290000D01*
X172974000Y-100838000D02*
X175514000Y-103378000D01*
X162429888Y-55104000D02*
X151341500Y-55104000D01*
X189376664Y-54150000D02*
X188422664Y-55104000D01*
X92420000Y-84350000D02*
X100191800Y-84350000D01*
X177334276Y-55104000D02*
X176380276Y-54150000D01*
X199390000Y-89533260D02*
X195760006Y-85903266D01*
X193053603Y-103378000D02*
X199390000Y-97041603D01*
X100191800Y-84350000D02*
X100881000Y-85039200D01*
X92170000Y-84100000D02*
X92420000Y-84350000D01*
X193180000Y-77180000D02*
X192914000Y-77446000D01*
X161461197Y-77110000D02*
X161125197Y-77446000D01*
X156240034Y-75570034D02*
X155984400Y-75570034D01*
X162342000Y-100838000D02*
X172974000Y-100838000D01*
X86359552Y-55104000D02*
X85405552Y-54150000D01*
X158116000Y-77446000D02*
X156240034Y-75570034D01*
X176120000Y-77610000D02*
X171801734Y-77610000D01*
X189313739Y-77446000D02*
X188990365Y-77122626D01*
X192914000Y-77446000D02*
X189313739Y-77446000D01*
X201419052Y-55104000D02*
X190330664Y-55104000D01*
X190330664Y-55104000D02*
X189376664Y-54150000D01*
X98401948Y-54150000D02*
X97447948Y-55104000D01*
X111398336Y-54150000D02*
X110444336Y-55104000D01*
X202373052Y-54150000D02*
X201419052Y-55104000D01*
X125348724Y-55104000D02*
X124394724Y-54150000D01*
X97447948Y-55104000D02*
X86359552Y-55104000D01*
X129275000Y-79600000D02*
X124820000Y-79600000D01*
X195760006Y-85903266D02*
X195047404Y-85903266D01*
X112352336Y-55104000D02*
X111398336Y-54150000D01*
X148390300Y-56147200D02*
X139388312Y-56147200D01*
X124820000Y-79600000D02*
X124660000Y-79440000D01*
X188422664Y-55104000D02*
X177334276Y-55104000D01*
X150387500Y-54150000D02*
X148390300Y-56147200D01*
X124394724Y-54150000D02*
X123440724Y-55104000D01*
X164337888Y-55104000D02*
X163383888Y-54150000D01*
X163383888Y-54150000D02*
X162429888Y-55104000D01*
X199390000Y-97041603D02*
X199390000Y-89533260D01*
X136437112Y-55104000D02*
X125348724Y-55104000D01*
X154430000Y-106210000D02*
X156970000Y-106210000D01*
X139388312Y-56147200D02*
X137391112Y-54150000D01*
X132740000Y-102110000D02*
X133920000Y-103290000D01*
X99355948Y-55104000D02*
X98401948Y-54150000D01*
X156970000Y-106210000D02*
X162342000Y-100838000D01*
X171801734Y-77610000D02*
X171206565Y-77014831D01*
X161820000Y-77110000D02*
X161461197Y-77110000D01*
X123440724Y-55104000D02*
X112352336Y-55104000D01*
X176380276Y-54150000D02*
X175426276Y-55104000D01*
X134251533Y-103290000D02*
X138362100Y-107400567D01*
X151341500Y-55104000D02*
X150387500Y-54150000D01*
X193650000Y-77180000D02*
X193180000Y-77180000D01*
X137391112Y-54150000D02*
X136437112Y-55104000D01*
X132740000Y-101150000D02*
X132740000Y-102110000D01*
X110444336Y-55104000D02*
X99355948Y-55104000D01*
X202450000Y-55560000D02*
X202450000Y-54226948D01*
X175514000Y-103378000D02*
X193053603Y-103378000D01*
X161125197Y-77446000D02*
X158116000Y-77446000D01*
X175426276Y-55104000D02*
X164337888Y-55104000D01*
%TO.N,VIout1*%
X141860000Y-85560000D02*
X144360000Y-85560000D01*
X188210000Y-73460000D02*
X191910000Y-73460000D01*
X133110000Y-94310000D02*
X141860000Y-85560000D01*
X191910000Y-73460000D02*
X192010000Y-73360000D01*
%TO.N,VIout2*%
X109560000Y-94250000D02*
X120140000Y-83670000D01*
X188080000Y-78490000D02*
X189010000Y-79420000D01*
X186520000Y-78490000D02*
X188080000Y-78490000D01*
X120140000Y-83670000D02*
X120140000Y-77380000D01*
%TO.N,VIout5*%
X103740000Y-90325686D02*
X111608092Y-82457594D01*
X104087072Y-94282302D02*
X103740000Y-93935230D01*
%TO.N,VIout7*%
X102011900Y-94265324D02*
X102081700Y-94335124D01*
X102011900Y-84319300D02*
X102011900Y-94265324D01*
X103222400Y-83108800D02*
X102011900Y-84319300D01*
X103772400Y-83108800D02*
X103222400Y-83108800D01*
%TO.N,VIout8*%
X90600000Y-79800000D02*
X90600000Y-81029200D01*
D25*
%TO.N,-BATT*%
X151485600Y-74465600D02*
X151485600Y-75284536D01*
D26*
X195370000Y-95380000D02*
X195370000Y-92147564D01*
D25*
X151485600Y-73152000D02*
X151216000Y-73421600D01*
X119112000Y-62992000D02*
X140012000Y-62992000D01*
X162406079Y-62992000D02*
X183896000Y-62992000D01*
X183896000Y-62992000D02*
X166485600Y-62992000D01*
X166485600Y-62992000D02*
X151485600Y-62992000D01*
X134112000Y-62992000D02*
X141325600Y-62992000D01*
D26*
X195370000Y-92147564D02*
X186102436Y-82880000D01*
D25*
X151485600Y-75284536D02*
X151485600Y-73912479D01*
X118959600Y-62839600D02*
X119112000Y-62992000D01*
X198896000Y-62992000D02*
X183896000Y-62992000D01*
X119112000Y-62992000D02*
X134112000Y-62992000D01*
X134112000Y-62992000D02*
X151485600Y-62992000D01*
X151485600Y-62992000D02*
X151485600Y-73152000D01*
X101752400Y-62839600D02*
X118959600Y-62839600D01*
X166485600Y-62992000D02*
X161645600Y-62992000D01*
X161645600Y-62992000D02*
X151485600Y-73152000D01*
X140012000Y-62992000D02*
X151485600Y-74465600D01*
X141325600Y-62992000D02*
X151485600Y-73152000D01*
X86752400Y-62839600D02*
X101752400Y-62839600D01*
X151485600Y-73912479D02*
X162406079Y-62992000D01*
D24*
%TO.N,SDA*%
X112910000Y-107129919D02*
X112910000Y-108332000D01*
X142080000Y-100253003D02*
X142080000Y-97080000D01*
X114418000Y-103006928D02*
X114086672Y-102675600D01*
X114086672Y-107155328D02*
X114086672Y-104642885D01*
X112910000Y-108332000D02*
X114086672Y-107155328D01*
X141730000Y-100603003D02*
X142080000Y-100253003D01*
X96480000Y-100340000D02*
X102753200Y-106613200D01*
X141730000Y-106210000D02*
X141730000Y-101020000D01*
X102753200Y-106613200D02*
X112393281Y-106613200D01*
X141730000Y-101020000D02*
X141730000Y-100603003D01*
X112393281Y-106613200D02*
X112910000Y-107129919D01*
X114086672Y-104642885D02*
X114418000Y-104311557D01*
X114418000Y-104311557D02*
X114418000Y-103006928D01*
%TO.N,COM*%
X118040000Y-105550000D02*
X118040000Y-108282000D01*
%TO.N,SCL*%
X113388000Y-109482000D02*
X111520000Y-109482000D01*
X96460000Y-101450000D02*
X103490000Y-108480000D01*
X136168312Y-103188312D02*
X136168312Y-100238800D01*
X136168312Y-100238800D02*
X136064512Y-100135000D01*
X114060000Y-108060000D02*
X114060000Y-108810000D01*
X139190000Y-106210000D02*
X136168312Y-103188312D01*
X114539072Y-104830275D02*
X114539072Y-107580928D01*
X136064512Y-100135000D02*
X119234347Y-100135000D01*
X103490000Y-108480000D02*
X103490000Y-108550000D01*
X114060000Y-108810000D02*
X113388000Y-109482000D01*
X111520000Y-109482000D02*
X110370000Y-108332000D01*
X119234347Y-100135000D02*
X114539072Y-104830275D01*
X114539072Y-107580928D02*
X114060000Y-108060000D01*
%TO.N,REF*%
X115845600Y-107936400D02*
X115845600Y-104513697D01*
%TO.N,PWM0*%
X139190000Y-110748360D02*
X139302040Y-110860400D01*
X139190000Y-108750000D02*
X139190000Y-110748360D01*
%TO.N,PWM4*%
X149390000Y-111440000D02*
X149390000Y-108790000D01*
%TO.N,PWM1*%
X140623600Y-101290399D02*
X140623600Y-107643600D01*
X137733200Y-98399999D02*
X140623600Y-101290399D01*
X140623600Y-107643600D02*
X141730000Y-108750000D01*
%TO.N,PWM5*%
X150783600Y-102674799D02*
X150783600Y-107643600D01*
X146508800Y-98399999D02*
X150783600Y-102674799D01*
X150783600Y-107643600D02*
X151890000Y-108750000D01*
%TO.N,PWM2*%
X144270000Y-108750000D02*
X143163600Y-107643600D01*
X143163600Y-107643600D02*
X143163600Y-100266442D01*
X143163600Y-100266442D02*
X144141043Y-99288999D01*
%TO.N,PWM6*%
X155465600Y-101302980D02*
X155465600Y-100317336D01*
X153323600Y-107617650D02*
X153323600Y-103444980D01*
X154430000Y-108724050D02*
X153323600Y-107617650D01*
X153323600Y-103444980D02*
X155465600Y-101302980D01*
X155465600Y-100317336D02*
X153942684Y-98794420D01*
%TO.N,PWM3*%
X146810000Y-108750000D02*
X146810000Y-110712309D01*
X146810000Y-110712309D02*
X147175586Y-111077895D01*
%TO.N,PWM7*%
X156980000Y-110990000D02*
X156980000Y-108760000D01*
%TO.N,+3.3V*%
X131805600Y-104325600D02*
X132260000Y-104325600D01*
X124790904Y-103952600D02*
X125311800Y-103431704D01*
X121252600Y-103952600D02*
X124790904Y-103952600D01*
X121125000Y-103825000D02*
X121252600Y-103952600D01*
X128500000Y-101020000D02*
X131805600Y-104325600D01*
%TO.N,Net-(J3-Pin_1)*%
X105290000Y-108332000D02*
X106465000Y-107157000D01*
X106465000Y-107157000D02*
X109063423Y-107157000D01*
X126040000Y-105090000D02*
X127080000Y-104050000D01*
X127080000Y-104050000D02*
X127080000Y-101020000D01*
X109063423Y-107157000D02*
X109275223Y-107368800D01*
%TO.N,VIout5Div*%
X113284000Y-98705975D02*
X112910000Y-98331975D01*
X113284000Y-99060000D02*
X113284000Y-98705975D01*
X112910000Y-98331975D02*
X112910000Y-95632000D01*
%TO.N,Net-(LED2-DOUT)*%
X207373052Y-60316618D02*
X200199670Y-67490000D01*
X200199670Y-67490000D02*
X197333052Y-67490000D01*
X207373052Y-57450000D02*
X207373052Y-60316618D01*
%TO.N,Net-(LED3-DOUT)*%
X202373052Y-57450000D02*
X194376664Y-57450000D01*
%TO.N,NEO_PASS1*%
X189376664Y-57450000D02*
X181380276Y-57450000D01*
%TO.N,Net-(LED5-DOUT)*%
X176380276Y-57450000D02*
X168383888Y-57450000D01*
%TO.N,Net-(LED6-DOUT)*%
X163383888Y-57450000D02*
X155387500Y-57450000D01*
%TO.N,Net-(LED7-DOUT)*%
X150387500Y-57450000D02*
X142391112Y-57450000D01*
%TO.N,NEO_PASS2*%
X137391112Y-57450000D02*
X129394724Y-57450000D01*
%TO.N,Net-(LED10-DIN)*%
X124394724Y-57450000D02*
X116398336Y-57450000D01*
%TO.N,Net-(LED10-DOUT)*%
X111398336Y-57450000D02*
X103401948Y-57450000D01*
%TO.N,Net-(LED11-DOUT)*%
X98401948Y-57450000D02*
X90405552Y-57450000D01*
%TO.N,outNEO_CTRL_MOOD*%
X137564400Y-109534400D02*
X138210000Y-110180000D01*
X148110000Y-107510000D02*
X146810000Y-106210000D01*
X148110000Y-109720000D02*
X148110000Y-107510000D01*
X103124400Y-109534400D02*
X109321868Y-109534400D01*
X109321868Y-109534400D02*
X109435287Y-109647819D01*
X134924400Y-109534400D02*
X137564400Y-109534400D01*
X85405552Y-57744448D02*
X84080000Y-59070000D01*
X103120000Y-109530000D02*
X103124400Y-109534400D01*
%TO.N,toNEO_CTRL_MOOD*%
X145687020Y-109214400D02*
X144357360Y-110544060D01*
X145687020Y-107627020D02*
X145687020Y-109214400D01*
X144357360Y-110544060D02*
X144357360Y-111577815D01*
X144270000Y-106210000D02*
X145687020Y-107627020D01*
%TD*%
M02*
