%TF.GenerationSoftware,KiCad,Pcbnew,8.0.3*%
%TF.CreationDate,2025-06-04T12:12:44-07:00*%
%TF.ProjectId,Power_Distribution,506f7765-725f-4446-9973-747269627574,rev?*%
%TF.SameCoordinates,Original*%
%TF.FileFunction,Legend,Top*%
%TF.FilePolarity,Positive*%
%FSLAX46Y46*%
G04 Gerber Fmt 4.6, Leading zero omitted, Abs format (unit mm)*
G04 Created by KiCad (PCBNEW 8.0.3) date 2025-06-04 12:12:44*
%MOMM*%
%LPD*%
G01*
G04 APERTURE LIST*
%ADD10C,0.150000*%
%ADD11C,0.254000*%
%ADD12C,0.100000*%
%ADD13C,0.200000*%
%ADD14C,0.120000*%
%ADD15C,0.127000*%
%ADD16C,0.152400*%
G04 APERTURE END LIST*
D10*
X193211220Y-87861780D02*
X193211220Y-88861780D01*
X193211220Y-88861780D02*
X192830268Y-88861780D01*
X192830268Y-88861780D02*
X192735030Y-88814161D01*
X192735030Y-88814161D02*
X192687411Y-88766542D01*
X192687411Y-88766542D02*
X192639792Y-88671304D01*
X192639792Y-88671304D02*
X192639792Y-88528447D01*
X192639792Y-88528447D02*
X192687411Y-88433209D01*
X192687411Y-88433209D02*
X192735030Y-88385590D01*
X192735030Y-88385590D02*
X192830268Y-88337971D01*
X192830268Y-88337971D02*
X193211220Y-88337971D01*
X192306458Y-88861780D02*
X192068363Y-87861780D01*
X192068363Y-87861780D02*
X191877887Y-88576066D01*
X191877887Y-88576066D02*
X191687411Y-87861780D01*
X191687411Y-87861780D02*
X191449316Y-88861780D01*
X190496935Y-87861780D02*
X190830268Y-88337971D01*
X191068363Y-87861780D02*
X191068363Y-88861780D01*
X191068363Y-88861780D02*
X190687411Y-88861780D01*
X190687411Y-88861780D02*
X190592173Y-88814161D01*
X190592173Y-88814161D02*
X190544554Y-88766542D01*
X190544554Y-88766542D02*
X190496935Y-88671304D01*
X190496935Y-88671304D02*
X190496935Y-88528447D01*
X190496935Y-88528447D02*
X190544554Y-88433209D01*
X190544554Y-88433209D02*
X190592173Y-88385590D01*
X190592173Y-88385590D02*
X190687411Y-88337971D01*
X190687411Y-88337971D02*
X191068363Y-88337971D01*
X190115982Y-88766542D02*
X190068363Y-88814161D01*
X190068363Y-88814161D02*
X189973125Y-88861780D01*
X189973125Y-88861780D02*
X189735030Y-88861780D01*
X189735030Y-88861780D02*
X189639792Y-88814161D01*
X189639792Y-88814161D02*
X189592173Y-88766542D01*
X189592173Y-88766542D02*
X189544554Y-88671304D01*
X189544554Y-88671304D02*
X189544554Y-88576066D01*
X189544554Y-88576066D02*
X189592173Y-88433209D01*
X189592173Y-88433209D02*
X190163601Y-87861780D01*
X190163601Y-87861780D02*
X189544554Y-87861780D01*
X176193220Y-87912580D02*
X176193220Y-88912580D01*
X176193220Y-88912580D02*
X175812268Y-88912580D01*
X175812268Y-88912580D02*
X175717030Y-88864961D01*
X175717030Y-88864961D02*
X175669411Y-88817342D01*
X175669411Y-88817342D02*
X175621792Y-88722104D01*
X175621792Y-88722104D02*
X175621792Y-88579247D01*
X175621792Y-88579247D02*
X175669411Y-88484009D01*
X175669411Y-88484009D02*
X175717030Y-88436390D01*
X175717030Y-88436390D02*
X175812268Y-88388771D01*
X175812268Y-88388771D02*
X176193220Y-88388771D01*
X175288458Y-88912580D02*
X175050363Y-87912580D01*
X175050363Y-87912580D02*
X174859887Y-88626866D01*
X174859887Y-88626866D02*
X174669411Y-87912580D01*
X174669411Y-87912580D02*
X174431316Y-88912580D01*
X173478935Y-87912580D02*
X173812268Y-88388771D01*
X174050363Y-87912580D02*
X174050363Y-88912580D01*
X174050363Y-88912580D02*
X173669411Y-88912580D01*
X173669411Y-88912580D02*
X173574173Y-88864961D01*
X173574173Y-88864961D02*
X173526554Y-88817342D01*
X173526554Y-88817342D02*
X173478935Y-88722104D01*
X173478935Y-88722104D02*
X173478935Y-88579247D01*
X173478935Y-88579247D02*
X173526554Y-88484009D01*
X173526554Y-88484009D02*
X173574173Y-88436390D01*
X173574173Y-88436390D02*
X173669411Y-88388771D01*
X173669411Y-88388771D02*
X174050363Y-88388771D01*
X173145601Y-88912580D02*
X172526554Y-88912580D01*
X172526554Y-88912580D02*
X172859887Y-88531628D01*
X172859887Y-88531628D02*
X172717030Y-88531628D01*
X172717030Y-88531628D02*
X172621792Y-88484009D01*
X172621792Y-88484009D02*
X172574173Y-88436390D01*
X172574173Y-88436390D02*
X172526554Y-88341152D01*
X172526554Y-88341152D02*
X172526554Y-88103057D01*
X172526554Y-88103057D02*
X172574173Y-88007819D01*
X172574173Y-88007819D02*
X172621792Y-87960200D01*
X172621792Y-87960200D02*
X172717030Y-87912580D01*
X172717030Y-87912580D02*
X173002744Y-87912580D01*
X173002744Y-87912580D02*
X173097982Y-87960200D01*
X173097982Y-87960200D02*
X173145601Y-88007819D01*
X117573550Y-106067304D02*
X117540217Y-106105400D01*
X117540217Y-106105400D02*
X117440217Y-106143495D01*
X117440217Y-106143495D02*
X117373550Y-106143495D01*
X117373550Y-106143495D02*
X117273550Y-106105400D01*
X117273550Y-106105400D02*
X117206884Y-106029209D01*
X117206884Y-106029209D02*
X117173550Y-105953019D01*
X117173550Y-105953019D02*
X117140217Y-105800638D01*
X117140217Y-105800638D02*
X117140217Y-105686352D01*
X117140217Y-105686352D02*
X117173550Y-105533971D01*
X117173550Y-105533971D02*
X117206884Y-105457780D01*
X117206884Y-105457780D02*
X117273550Y-105381590D01*
X117273550Y-105381590D02*
X117373550Y-105343495D01*
X117373550Y-105343495D02*
X117440217Y-105343495D01*
X117440217Y-105343495D02*
X117540217Y-105381590D01*
X117540217Y-105381590D02*
X117573550Y-105419685D01*
X118006884Y-105343495D02*
X118140217Y-105343495D01*
X118140217Y-105343495D02*
X118206884Y-105381590D01*
X118206884Y-105381590D02*
X118273550Y-105457780D01*
X118273550Y-105457780D02*
X118306884Y-105610161D01*
X118306884Y-105610161D02*
X118306884Y-105876828D01*
X118306884Y-105876828D02*
X118273550Y-106029209D01*
X118273550Y-106029209D02*
X118206884Y-106105400D01*
X118206884Y-106105400D02*
X118140217Y-106143495D01*
X118140217Y-106143495D02*
X118006884Y-106143495D01*
X118006884Y-106143495D02*
X117940217Y-106105400D01*
X117940217Y-106105400D02*
X117873550Y-106029209D01*
X117873550Y-106029209D02*
X117840217Y-105876828D01*
X117840217Y-105876828D02*
X117840217Y-105610161D01*
X117840217Y-105610161D02*
X117873550Y-105457780D01*
X117873550Y-105457780D02*
X117940217Y-105381590D01*
X117940217Y-105381590D02*
X118006884Y-105343495D01*
X118606883Y-106143495D02*
X118606883Y-105343495D01*
X118606883Y-105343495D02*
X118840217Y-105914923D01*
X118840217Y-105914923D02*
X119073550Y-105343495D01*
X119073550Y-105343495D02*
X119073550Y-106143495D01*
X103396820Y-88242733D02*
X102634916Y-88242733D01*
X101825392Y-88385590D02*
X101682535Y-88337971D01*
X101682535Y-88337971D02*
X101634916Y-88290352D01*
X101634916Y-88290352D02*
X101587297Y-88195114D01*
X101587297Y-88195114D02*
X101587297Y-88052257D01*
X101587297Y-88052257D02*
X101634916Y-87957019D01*
X101634916Y-87957019D02*
X101682535Y-87909400D01*
X101682535Y-87909400D02*
X101777773Y-87861780D01*
X101777773Y-87861780D02*
X102158725Y-87861780D01*
X102158725Y-87861780D02*
X102158725Y-88861780D01*
X102158725Y-88861780D02*
X101825392Y-88861780D01*
X101825392Y-88861780D02*
X101730154Y-88814161D01*
X101730154Y-88814161D02*
X101682535Y-88766542D01*
X101682535Y-88766542D02*
X101634916Y-88671304D01*
X101634916Y-88671304D02*
X101634916Y-88576066D01*
X101634916Y-88576066D02*
X101682535Y-88480828D01*
X101682535Y-88480828D02*
X101730154Y-88433209D01*
X101730154Y-88433209D02*
X101825392Y-88385590D01*
X101825392Y-88385590D02*
X102158725Y-88385590D01*
X101206344Y-88147495D02*
X100730154Y-88147495D01*
X101301582Y-87861780D02*
X100968249Y-88861780D01*
X100968249Y-88861780D02*
X100634916Y-87861780D01*
X100444439Y-88861780D02*
X99873011Y-88861780D01*
X100158725Y-87861780D02*
X100158725Y-88861780D01*
X99682534Y-88861780D02*
X99111106Y-88861780D01*
X99396820Y-87861780D02*
X99396820Y-88861780D01*
X128085620Y-87861780D02*
X128085620Y-88861780D01*
X128085620Y-88861780D02*
X127704668Y-88861780D01*
X127704668Y-88861780D02*
X127609430Y-88814161D01*
X127609430Y-88814161D02*
X127561811Y-88766542D01*
X127561811Y-88766542D02*
X127514192Y-88671304D01*
X127514192Y-88671304D02*
X127514192Y-88528447D01*
X127514192Y-88528447D02*
X127561811Y-88433209D01*
X127561811Y-88433209D02*
X127609430Y-88385590D01*
X127609430Y-88385590D02*
X127704668Y-88337971D01*
X127704668Y-88337971D02*
X128085620Y-88337971D01*
X127180858Y-88861780D02*
X126942763Y-87861780D01*
X126942763Y-87861780D02*
X126752287Y-88576066D01*
X126752287Y-88576066D02*
X126561811Y-87861780D01*
X126561811Y-87861780D02*
X126323716Y-88861780D01*
X125371335Y-87861780D02*
X125704668Y-88337971D01*
X125942763Y-87861780D02*
X125942763Y-88861780D01*
X125942763Y-88861780D02*
X125561811Y-88861780D01*
X125561811Y-88861780D02*
X125466573Y-88814161D01*
X125466573Y-88814161D02*
X125418954Y-88766542D01*
X125418954Y-88766542D02*
X125371335Y-88671304D01*
X125371335Y-88671304D02*
X125371335Y-88528447D01*
X125371335Y-88528447D02*
X125418954Y-88433209D01*
X125418954Y-88433209D02*
X125466573Y-88385590D01*
X125466573Y-88385590D02*
X125561811Y-88337971D01*
X125561811Y-88337971D02*
X125942763Y-88337971D01*
X124514192Y-88861780D02*
X124704668Y-88861780D01*
X124704668Y-88861780D02*
X124799906Y-88814161D01*
X124799906Y-88814161D02*
X124847525Y-88766542D01*
X124847525Y-88766542D02*
X124942763Y-88623685D01*
X124942763Y-88623685D02*
X124990382Y-88433209D01*
X124990382Y-88433209D02*
X124990382Y-88052257D01*
X124990382Y-88052257D02*
X124942763Y-87957019D01*
X124942763Y-87957019D02*
X124895144Y-87909400D01*
X124895144Y-87909400D02*
X124799906Y-87861780D01*
X124799906Y-87861780D02*
X124609430Y-87861780D01*
X124609430Y-87861780D02*
X124514192Y-87909400D01*
X124514192Y-87909400D02*
X124466573Y-87957019D01*
X124466573Y-87957019D02*
X124418954Y-88052257D01*
X124418954Y-88052257D02*
X124418954Y-88290352D01*
X124418954Y-88290352D02*
X124466573Y-88385590D01*
X124466573Y-88385590D02*
X124514192Y-88433209D01*
X124514192Y-88433209D02*
X124609430Y-88480828D01*
X124609430Y-88480828D02*
X124799906Y-88480828D01*
X124799906Y-88480828D02*
X124895144Y-88433209D01*
X124895144Y-88433209D02*
X124942763Y-88385590D01*
X124942763Y-88385590D02*
X124990382Y-88290352D01*
X112161817Y-106105400D02*
X112261817Y-106143495D01*
X112261817Y-106143495D02*
X112428484Y-106143495D01*
X112428484Y-106143495D02*
X112495150Y-106105400D01*
X112495150Y-106105400D02*
X112528484Y-106067304D01*
X112528484Y-106067304D02*
X112561817Y-105991114D01*
X112561817Y-105991114D02*
X112561817Y-105914923D01*
X112561817Y-105914923D02*
X112528484Y-105838733D01*
X112528484Y-105838733D02*
X112495150Y-105800638D01*
X112495150Y-105800638D02*
X112428484Y-105762542D01*
X112428484Y-105762542D02*
X112295150Y-105724447D01*
X112295150Y-105724447D02*
X112228484Y-105686352D01*
X112228484Y-105686352D02*
X112195150Y-105648257D01*
X112195150Y-105648257D02*
X112161817Y-105572066D01*
X112161817Y-105572066D02*
X112161817Y-105495876D01*
X112161817Y-105495876D02*
X112195150Y-105419685D01*
X112195150Y-105419685D02*
X112228484Y-105381590D01*
X112228484Y-105381590D02*
X112295150Y-105343495D01*
X112295150Y-105343495D02*
X112461817Y-105343495D01*
X112461817Y-105343495D02*
X112561817Y-105381590D01*
X112861817Y-106143495D02*
X112861817Y-105343495D01*
X112861817Y-105343495D02*
X113028484Y-105343495D01*
X113028484Y-105343495D02*
X113128484Y-105381590D01*
X113128484Y-105381590D02*
X113195151Y-105457780D01*
X113195151Y-105457780D02*
X113228484Y-105533971D01*
X113228484Y-105533971D02*
X113261817Y-105686352D01*
X113261817Y-105686352D02*
X113261817Y-105800638D01*
X113261817Y-105800638D02*
X113228484Y-105953019D01*
X113228484Y-105953019D02*
X113195151Y-106029209D01*
X113195151Y-106029209D02*
X113128484Y-106105400D01*
X113128484Y-106105400D02*
X113028484Y-106143495D01*
X113028484Y-106143495D02*
X112861817Y-106143495D01*
X113528484Y-105914923D02*
X113861817Y-105914923D01*
X113461817Y-106143495D02*
X113695151Y-105343495D01*
X113695151Y-105343495D02*
X113928484Y-106143495D01*
X107505684Y-97723495D02*
X107972350Y-97723495D01*
X107972350Y-97723495D02*
X107672350Y-98523495D01*
X115644750Y-97888561D02*
X115644750Y-98421895D01*
X115478084Y-97583800D02*
X115311417Y-98155228D01*
X115311417Y-98155228D02*
X115744750Y-98155228D01*
X109621817Y-106156200D02*
X109721817Y-106194295D01*
X109721817Y-106194295D02*
X109888484Y-106194295D01*
X109888484Y-106194295D02*
X109955150Y-106156200D01*
X109955150Y-106156200D02*
X109988484Y-106118104D01*
X109988484Y-106118104D02*
X110021817Y-106041914D01*
X110021817Y-106041914D02*
X110021817Y-105965723D01*
X110021817Y-105965723D02*
X109988484Y-105889533D01*
X109988484Y-105889533D02*
X109955150Y-105851438D01*
X109955150Y-105851438D02*
X109888484Y-105813342D01*
X109888484Y-105813342D02*
X109755150Y-105775247D01*
X109755150Y-105775247D02*
X109688484Y-105737152D01*
X109688484Y-105737152D02*
X109655150Y-105699057D01*
X109655150Y-105699057D02*
X109621817Y-105622866D01*
X109621817Y-105622866D02*
X109621817Y-105546676D01*
X109621817Y-105546676D02*
X109655150Y-105470485D01*
X109655150Y-105470485D02*
X109688484Y-105432390D01*
X109688484Y-105432390D02*
X109755150Y-105394295D01*
X109755150Y-105394295D02*
X109921817Y-105394295D01*
X109921817Y-105394295D02*
X110021817Y-105432390D01*
X110721817Y-106118104D02*
X110688484Y-106156200D01*
X110688484Y-106156200D02*
X110588484Y-106194295D01*
X110588484Y-106194295D02*
X110521817Y-106194295D01*
X110521817Y-106194295D02*
X110421817Y-106156200D01*
X110421817Y-106156200D02*
X110355151Y-106080009D01*
X110355151Y-106080009D02*
X110321817Y-106003819D01*
X110321817Y-106003819D02*
X110288484Y-105851438D01*
X110288484Y-105851438D02*
X110288484Y-105737152D01*
X110288484Y-105737152D02*
X110321817Y-105584771D01*
X110321817Y-105584771D02*
X110355151Y-105508580D01*
X110355151Y-105508580D02*
X110421817Y-105432390D01*
X110421817Y-105432390D02*
X110521817Y-105394295D01*
X110521817Y-105394295D02*
X110588484Y-105394295D01*
X110588484Y-105394295D02*
X110688484Y-105432390D01*
X110688484Y-105432390D02*
X110721817Y-105470485D01*
X111355151Y-106194295D02*
X111021817Y-106194295D01*
X111021817Y-106194295D02*
X111021817Y-105394295D01*
X115135150Y-106143495D02*
X114901817Y-105762542D01*
X114735150Y-106143495D02*
X114735150Y-105343495D01*
X114735150Y-105343495D02*
X115001817Y-105343495D01*
X115001817Y-105343495D02*
X115068484Y-105381590D01*
X115068484Y-105381590D02*
X115101817Y-105419685D01*
X115101817Y-105419685D02*
X115135150Y-105495876D01*
X115135150Y-105495876D02*
X115135150Y-105610161D01*
X115135150Y-105610161D02*
X115101817Y-105686352D01*
X115101817Y-105686352D02*
X115068484Y-105724447D01*
X115068484Y-105724447D02*
X115001817Y-105762542D01*
X115001817Y-105762542D02*
X114735150Y-105762542D01*
X115435150Y-105724447D02*
X115668484Y-105724447D01*
X115768484Y-106143495D02*
X115435150Y-106143495D01*
X115435150Y-106143495D02*
X115435150Y-105343495D01*
X115435150Y-105343495D02*
X115768484Y-105343495D01*
X116301817Y-105724447D02*
X116068483Y-105724447D01*
X116068483Y-106143495D02*
X116068483Y-105343495D01*
X116068483Y-105343495D02*
X116401817Y-105343495D01*
X182198866Y-110783220D02*
X182198866Y-110021316D01*
X182579819Y-110402268D02*
X181817914Y-110402268D01*
X182056009Y-109211792D02*
X182103628Y-109068935D01*
X182103628Y-109068935D02*
X182151247Y-109021316D01*
X182151247Y-109021316D02*
X182246485Y-108973697D01*
X182246485Y-108973697D02*
X182389342Y-108973697D01*
X182389342Y-108973697D02*
X182484580Y-109021316D01*
X182484580Y-109021316D02*
X182532200Y-109068935D01*
X182532200Y-109068935D02*
X182579819Y-109164173D01*
X182579819Y-109164173D02*
X182579819Y-109545125D01*
X182579819Y-109545125D02*
X181579819Y-109545125D01*
X181579819Y-109545125D02*
X181579819Y-109211792D01*
X181579819Y-109211792D02*
X181627438Y-109116554D01*
X181627438Y-109116554D02*
X181675057Y-109068935D01*
X181675057Y-109068935D02*
X181770295Y-109021316D01*
X181770295Y-109021316D02*
X181865533Y-109021316D01*
X181865533Y-109021316D02*
X181960771Y-109068935D01*
X181960771Y-109068935D02*
X182008390Y-109116554D01*
X182008390Y-109116554D02*
X182056009Y-109211792D01*
X182056009Y-109211792D02*
X182056009Y-109545125D01*
X182294104Y-108592744D02*
X182294104Y-108116554D01*
X182579819Y-108687982D02*
X181579819Y-108354649D01*
X181579819Y-108354649D02*
X182579819Y-108021316D01*
X181579819Y-107830839D02*
X181579819Y-107259411D01*
X182579819Y-107545125D02*
X181579819Y-107545125D01*
X181579819Y-107068934D02*
X181579819Y-106497506D01*
X182579819Y-106783220D02*
X181579819Y-106783220D01*
X98293417Y-95856523D02*
X98626750Y-95856523D01*
X98226750Y-96085095D02*
X98460084Y-95285095D01*
X98460084Y-95285095D02*
X98693417Y-96085095D01*
X98926750Y-95551761D02*
X98926750Y-96085095D01*
X98926750Y-95627952D02*
X98960084Y-95589857D01*
X98960084Y-95589857D02*
X99026750Y-95551761D01*
X99026750Y-95551761D02*
X99126750Y-95551761D01*
X99126750Y-95551761D02*
X99193417Y-95589857D01*
X99193417Y-95589857D02*
X99226750Y-95666047D01*
X99226750Y-95666047D02*
X99226750Y-96085095D01*
X99860083Y-96085095D02*
X99860083Y-95666047D01*
X99860083Y-95666047D02*
X99826750Y-95589857D01*
X99826750Y-95589857D02*
X99760083Y-95551761D01*
X99760083Y-95551761D02*
X99626750Y-95551761D01*
X99626750Y-95551761D02*
X99560083Y-95589857D01*
X99860083Y-96047000D02*
X99793417Y-96085095D01*
X99793417Y-96085095D02*
X99626750Y-96085095D01*
X99626750Y-96085095D02*
X99560083Y-96047000D01*
X99560083Y-96047000D02*
X99526750Y-95970809D01*
X99526750Y-95970809D02*
X99526750Y-95894619D01*
X99526750Y-95894619D02*
X99560083Y-95818428D01*
X99560083Y-95818428D02*
X99626750Y-95780333D01*
X99626750Y-95780333D02*
X99793417Y-95780333D01*
X99793417Y-95780333D02*
X99860083Y-95742238D01*
X100293416Y-96085095D02*
X100226750Y-96047000D01*
X100226750Y-96047000D02*
X100193416Y-95970809D01*
X100193416Y-95970809D02*
X100193416Y-95285095D01*
X100660083Y-96085095D02*
X100593417Y-96047000D01*
X100593417Y-96047000D02*
X100560083Y-96008904D01*
X100560083Y-96008904D02*
X100526750Y-95932714D01*
X100526750Y-95932714D02*
X100526750Y-95704142D01*
X100526750Y-95704142D02*
X100560083Y-95627952D01*
X100560083Y-95627952D02*
X100593417Y-95589857D01*
X100593417Y-95589857D02*
X100660083Y-95551761D01*
X100660083Y-95551761D02*
X100760083Y-95551761D01*
X100760083Y-95551761D02*
X100826750Y-95589857D01*
X100826750Y-95589857D02*
X100860083Y-95627952D01*
X100860083Y-95627952D02*
X100893417Y-95704142D01*
X100893417Y-95704142D02*
X100893417Y-95932714D01*
X100893417Y-95932714D02*
X100860083Y-96008904D01*
X100860083Y-96008904D02*
X100826750Y-96047000D01*
X100826750Y-96047000D02*
X100760083Y-96085095D01*
X100760083Y-96085095D02*
X100660083Y-96085095D01*
X101493416Y-95551761D02*
X101493416Y-96199380D01*
X101493416Y-96199380D02*
X101460083Y-96275571D01*
X101460083Y-96275571D02*
X101426750Y-96313666D01*
X101426750Y-96313666D02*
X101360083Y-96351761D01*
X101360083Y-96351761D02*
X101260083Y-96351761D01*
X101260083Y-96351761D02*
X101193416Y-96313666D01*
X101493416Y-96047000D02*
X101426750Y-96085095D01*
X101426750Y-96085095D02*
X101293416Y-96085095D01*
X101293416Y-96085095D02*
X101226750Y-96047000D01*
X101226750Y-96047000D02*
X101193416Y-96008904D01*
X101193416Y-96008904D02*
X101160083Y-95932714D01*
X101160083Y-95932714D02*
X101160083Y-95704142D01*
X101160083Y-95704142D02*
X101193416Y-95627952D01*
X101193416Y-95627952D02*
X101226750Y-95589857D01*
X101226750Y-95589857D02*
X101293416Y-95551761D01*
X101293416Y-95551761D02*
X101426750Y-95551761D01*
X101426750Y-95551761D02*
X101493416Y-95589857D01*
X102360082Y-96085095D02*
X102360082Y-95285095D01*
X102693415Y-95551761D02*
X102693415Y-96085095D01*
X102693415Y-95627952D02*
X102726749Y-95589857D01*
X102726749Y-95589857D02*
X102793415Y-95551761D01*
X102793415Y-95551761D02*
X102893415Y-95551761D01*
X102893415Y-95551761D02*
X102960082Y-95589857D01*
X102960082Y-95589857D02*
X102993415Y-95666047D01*
X102993415Y-95666047D02*
X102993415Y-96085095D01*
X110564750Y-97672695D02*
X110431417Y-97672695D01*
X110431417Y-97672695D02*
X110364750Y-97710790D01*
X110364750Y-97710790D02*
X110331417Y-97748885D01*
X110331417Y-97748885D02*
X110264750Y-97863171D01*
X110264750Y-97863171D02*
X110231417Y-98015552D01*
X110231417Y-98015552D02*
X110231417Y-98320314D01*
X110231417Y-98320314D02*
X110264750Y-98396504D01*
X110264750Y-98396504D02*
X110298084Y-98434600D01*
X110298084Y-98434600D02*
X110364750Y-98472695D01*
X110364750Y-98472695D02*
X110498084Y-98472695D01*
X110498084Y-98472695D02*
X110564750Y-98434600D01*
X110564750Y-98434600D02*
X110598084Y-98396504D01*
X110598084Y-98396504D02*
X110631417Y-98320314D01*
X110631417Y-98320314D02*
X110631417Y-98129838D01*
X110631417Y-98129838D02*
X110598084Y-98053647D01*
X110598084Y-98053647D02*
X110564750Y-98015552D01*
X110564750Y-98015552D02*
X110498084Y-97977457D01*
X110498084Y-97977457D02*
X110364750Y-97977457D01*
X110364750Y-97977457D02*
X110298084Y-98015552D01*
X110298084Y-98015552D02*
X110264750Y-98053647D01*
X110264750Y-98053647D02*
X110231417Y-98129838D01*
X110813620Y-87760180D02*
X110813620Y-88760180D01*
X110813620Y-88760180D02*
X110432668Y-88760180D01*
X110432668Y-88760180D02*
X110337430Y-88712561D01*
X110337430Y-88712561D02*
X110289811Y-88664942D01*
X110289811Y-88664942D02*
X110242192Y-88569704D01*
X110242192Y-88569704D02*
X110242192Y-88426847D01*
X110242192Y-88426847D02*
X110289811Y-88331609D01*
X110289811Y-88331609D02*
X110337430Y-88283990D01*
X110337430Y-88283990D02*
X110432668Y-88236371D01*
X110432668Y-88236371D02*
X110813620Y-88236371D01*
X109908858Y-88760180D02*
X109670763Y-87760180D01*
X109670763Y-87760180D02*
X109480287Y-88474466D01*
X109480287Y-88474466D02*
X109289811Y-87760180D01*
X109289811Y-87760180D02*
X109051716Y-88760180D01*
X108099335Y-87760180D02*
X108432668Y-88236371D01*
X108670763Y-87760180D02*
X108670763Y-88760180D01*
X108670763Y-88760180D02*
X108289811Y-88760180D01*
X108289811Y-88760180D02*
X108194573Y-88712561D01*
X108194573Y-88712561D02*
X108146954Y-88664942D01*
X108146954Y-88664942D02*
X108099335Y-88569704D01*
X108099335Y-88569704D02*
X108099335Y-88426847D01*
X108099335Y-88426847D02*
X108146954Y-88331609D01*
X108146954Y-88331609D02*
X108194573Y-88283990D01*
X108194573Y-88283990D02*
X108289811Y-88236371D01*
X108289811Y-88236371D02*
X108670763Y-88236371D01*
X107766001Y-88760180D02*
X107099335Y-88760180D01*
X107099335Y-88760180D02*
X107527906Y-87760180D01*
X169386020Y-88344333D02*
X168624116Y-88344333D01*
X167814592Y-88487190D02*
X167671735Y-88439571D01*
X167671735Y-88439571D02*
X167624116Y-88391952D01*
X167624116Y-88391952D02*
X167576497Y-88296714D01*
X167576497Y-88296714D02*
X167576497Y-88153857D01*
X167576497Y-88153857D02*
X167624116Y-88058619D01*
X167624116Y-88058619D02*
X167671735Y-88011000D01*
X167671735Y-88011000D02*
X167766973Y-87963380D01*
X167766973Y-87963380D02*
X168147925Y-87963380D01*
X168147925Y-87963380D02*
X168147925Y-88963380D01*
X168147925Y-88963380D02*
X167814592Y-88963380D01*
X167814592Y-88963380D02*
X167719354Y-88915761D01*
X167719354Y-88915761D02*
X167671735Y-88868142D01*
X167671735Y-88868142D02*
X167624116Y-88772904D01*
X167624116Y-88772904D02*
X167624116Y-88677666D01*
X167624116Y-88677666D02*
X167671735Y-88582428D01*
X167671735Y-88582428D02*
X167719354Y-88534809D01*
X167719354Y-88534809D02*
X167814592Y-88487190D01*
X167814592Y-88487190D02*
X168147925Y-88487190D01*
X167195544Y-88249095D02*
X166719354Y-88249095D01*
X167290782Y-87963380D02*
X166957449Y-88963380D01*
X166957449Y-88963380D02*
X166624116Y-87963380D01*
X166433639Y-88963380D02*
X165862211Y-88963380D01*
X166147925Y-87963380D02*
X166147925Y-88963380D01*
X165671734Y-88963380D02*
X165100306Y-88963380D01*
X165386020Y-87963380D02*
X165386020Y-88963380D01*
X153282420Y-88344333D02*
X152520516Y-88344333D01*
X151710992Y-88487190D02*
X151568135Y-88439571D01*
X151568135Y-88439571D02*
X151520516Y-88391952D01*
X151520516Y-88391952D02*
X151472897Y-88296714D01*
X151472897Y-88296714D02*
X151472897Y-88153857D01*
X151472897Y-88153857D02*
X151520516Y-88058619D01*
X151520516Y-88058619D02*
X151568135Y-88011000D01*
X151568135Y-88011000D02*
X151663373Y-87963380D01*
X151663373Y-87963380D02*
X152044325Y-87963380D01*
X152044325Y-87963380D02*
X152044325Y-88963380D01*
X152044325Y-88963380D02*
X151710992Y-88963380D01*
X151710992Y-88963380D02*
X151615754Y-88915761D01*
X151615754Y-88915761D02*
X151568135Y-88868142D01*
X151568135Y-88868142D02*
X151520516Y-88772904D01*
X151520516Y-88772904D02*
X151520516Y-88677666D01*
X151520516Y-88677666D02*
X151568135Y-88582428D01*
X151568135Y-88582428D02*
X151615754Y-88534809D01*
X151615754Y-88534809D02*
X151710992Y-88487190D01*
X151710992Y-88487190D02*
X152044325Y-88487190D01*
X151091944Y-88249095D02*
X150615754Y-88249095D01*
X151187182Y-87963380D02*
X150853849Y-88963380D01*
X150853849Y-88963380D02*
X150520516Y-87963380D01*
X150330039Y-88963380D02*
X149758611Y-88963380D01*
X150044325Y-87963380D02*
X150044325Y-88963380D01*
X149568134Y-88963380D02*
X148996706Y-88963380D01*
X149282420Y-87963380D02*
X149282420Y-88963380D01*
X120821220Y-88395133D02*
X120059316Y-88395133D01*
X119249792Y-88537990D02*
X119106935Y-88490371D01*
X119106935Y-88490371D02*
X119059316Y-88442752D01*
X119059316Y-88442752D02*
X119011697Y-88347514D01*
X119011697Y-88347514D02*
X119011697Y-88204657D01*
X119011697Y-88204657D02*
X119059316Y-88109419D01*
X119059316Y-88109419D02*
X119106935Y-88061800D01*
X119106935Y-88061800D02*
X119202173Y-88014180D01*
X119202173Y-88014180D02*
X119583125Y-88014180D01*
X119583125Y-88014180D02*
X119583125Y-89014180D01*
X119583125Y-89014180D02*
X119249792Y-89014180D01*
X119249792Y-89014180D02*
X119154554Y-88966561D01*
X119154554Y-88966561D02*
X119106935Y-88918942D01*
X119106935Y-88918942D02*
X119059316Y-88823704D01*
X119059316Y-88823704D02*
X119059316Y-88728466D01*
X119059316Y-88728466D02*
X119106935Y-88633228D01*
X119106935Y-88633228D02*
X119154554Y-88585609D01*
X119154554Y-88585609D02*
X119249792Y-88537990D01*
X119249792Y-88537990D02*
X119583125Y-88537990D01*
X118630744Y-88299895D02*
X118154554Y-88299895D01*
X118725982Y-88014180D02*
X118392649Y-89014180D01*
X118392649Y-89014180D02*
X118059316Y-88014180D01*
X117868839Y-89014180D02*
X117297411Y-89014180D01*
X117583125Y-88014180D02*
X117583125Y-89014180D01*
X117106934Y-89014180D02*
X116535506Y-89014180D01*
X116821220Y-88014180D02*
X116821220Y-89014180D01*
X135908820Y-88344333D02*
X135146916Y-88344333D01*
X134337392Y-88487190D02*
X134194535Y-88439571D01*
X134194535Y-88439571D02*
X134146916Y-88391952D01*
X134146916Y-88391952D02*
X134099297Y-88296714D01*
X134099297Y-88296714D02*
X134099297Y-88153857D01*
X134099297Y-88153857D02*
X134146916Y-88058619D01*
X134146916Y-88058619D02*
X134194535Y-88011000D01*
X134194535Y-88011000D02*
X134289773Y-87963380D01*
X134289773Y-87963380D02*
X134670725Y-87963380D01*
X134670725Y-87963380D02*
X134670725Y-88963380D01*
X134670725Y-88963380D02*
X134337392Y-88963380D01*
X134337392Y-88963380D02*
X134242154Y-88915761D01*
X134242154Y-88915761D02*
X134194535Y-88868142D01*
X134194535Y-88868142D02*
X134146916Y-88772904D01*
X134146916Y-88772904D02*
X134146916Y-88677666D01*
X134146916Y-88677666D02*
X134194535Y-88582428D01*
X134194535Y-88582428D02*
X134242154Y-88534809D01*
X134242154Y-88534809D02*
X134337392Y-88487190D01*
X134337392Y-88487190D02*
X134670725Y-88487190D01*
X133718344Y-88249095D02*
X133242154Y-88249095D01*
X133813582Y-87963380D02*
X133480249Y-88963380D01*
X133480249Y-88963380D02*
X133146916Y-87963380D01*
X132956439Y-88963380D02*
X132385011Y-88963380D01*
X132670725Y-87963380D02*
X132670725Y-88963380D01*
X132194534Y-88963380D02*
X131623106Y-88963380D01*
X131908820Y-87963380D02*
X131908820Y-88963380D01*
X105233950Y-98020552D02*
X105167284Y-97982457D01*
X105167284Y-97982457D02*
X105133950Y-97944361D01*
X105133950Y-97944361D02*
X105100617Y-97868171D01*
X105100617Y-97868171D02*
X105100617Y-97830076D01*
X105100617Y-97830076D02*
X105133950Y-97753885D01*
X105133950Y-97753885D02*
X105167284Y-97715790D01*
X105167284Y-97715790D02*
X105233950Y-97677695D01*
X105233950Y-97677695D02*
X105367284Y-97677695D01*
X105367284Y-97677695D02*
X105433950Y-97715790D01*
X105433950Y-97715790D02*
X105467284Y-97753885D01*
X105467284Y-97753885D02*
X105500617Y-97830076D01*
X105500617Y-97830076D02*
X105500617Y-97868171D01*
X105500617Y-97868171D02*
X105467284Y-97944361D01*
X105467284Y-97944361D02*
X105433950Y-97982457D01*
X105433950Y-97982457D02*
X105367284Y-98020552D01*
X105367284Y-98020552D02*
X105233950Y-98020552D01*
X105233950Y-98020552D02*
X105167284Y-98058647D01*
X105167284Y-98058647D02*
X105133950Y-98096742D01*
X105133950Y-98096742D02*
X105100617Y-98172933D01*
X105100617Y-98172933D02*
X105100617Y-98325314D01*
X105100617Y-98325314D02*
X105133950Y-98401504D01*
X105133950Y-98401504D02*
X105167284Y-98439600D01*
X105167284Y-98439600D02*
X105233950Y-98477695D01*
X105233950Y-98477695D02*
X105367284Y-98477695D01*
X105367284Y-98477695D02*
X105433950Y-98439600D01*
X105433950Y-98439600D02*
X105467284Y-98401504D01*
X105467284Y-98401504D02*
X105500617Y-98325314D01*
X105500617Y-98325314D02*
X105500617Y-98172933D01*
X105500617Y-98172933D02*
X105467284Y-98096742D01*
X105467284Y-98096742D02*
X105433950Y-98058647D01*
X105433950Y-98058647D02*
X105367284Y-98020552D01*
X107329417Y-105432390D02*
X107262750Y-105394295D01*
X107262750Y-105394295D02*
X107162750Y-105394295D01*
X107162750Y-105394295D02*
X107062750Y-105432390D01*
X107062750Y-105432390D02*
X106996084Y-105508580D01*
X106996084Y-105508580D02*
X106962750Y-105584771D01*
X106962750Y-105584771D02*
X106929417Y-105737152D01*
X106929417Y-105737152D02*
X106929417Y-105851438D01*
X106929417Y-105851438D02*
X106962750Y-106003819D01*
X106962750Y-106003819D02*
X106996084Y-106080009D01*
X106996084Y-106080009D02*
X107062750Y-106156200D01*
X107062750Y-106156200D02*
X107162750Y-106194295D01*
X107162750Y-106194295D02*
X107229417Y-106194295D01*
X107229417Y-106194295D02*
X107329417Y-106156200D01*
X107329417Y-106156200D02*
X107362750Y-106118104D01*
X107362750Y-106118104D02*
X107362750Y-105851438D01*
X107362750Y-105851438D02*
X107229417Y-105851438D01*
X107662750Y-106194295D02*
X107662750Y-105394295D01*
X107662750Y-105394295D02*
X108062750Y-106194295D01*
X108062750Y-106194295D02*
X108062750Y-105394295D01*
X108396083Y-106194295D02*
X108396083Y-105394295D01*
X108396083Y-105394295D02*
X108562750Y-105394295D01*
X108562750Y-105394295D02*
X108662750Y-105432390D01*
X108662750Y-105432390D02*
X108729417Y-105508580D01*
X108729417Y-105508580D02*
X108762750Y-105584771D01*
X108762750Y-105584771D02*
X108796083Y-105737152D01*
X108796083Y-105737152D02*
X108796083Y-105851438D01*
X108796083Y-105851438D02*
X108762750Y-106003819D01*
X108762750Y-106003819D02*
X108729417Y-106080009D01*
X108729417Y-106080009D02*
X108662750Y-106156200D01*
X108662750Y-106156200D02*
X108562750Y-106194295D01*
X108562750Y-106194295D02*
X108396083Y-106194295D01*
X160648420Y-87963380D02*
X160648420Y-88963380D01*
X160648420Y-88963380D02*
X160267468Y-88963380D01*
X160267468Y-88963380D02*
X160172230Y-88915761D01*
X160172230Y-88915761D02*
X160124611Y-88868142D01*
X160124611Y-88868142D02*
X160076992Y-88772904D01*
X160076992Y-88772904D02*
X160076992Y-88630047D01*
X160076992Y-88630047D02*
X160124611Y-88534809D01*
X160124611Y-88534809D02*
X160172230Y-88487190D01*
X160172230Y-88487190D02*
X160267468Y-88439571D01*
X160267468Y-88439571D02*
X160648420Y-88439571D01*
X159743658Y-88963380D02*
X159505563Y-87963380D01*
X159505563Y-87963380D02*
X159315087Y-88677666D01*
X159315087Y-88677666D02*
X159124611Y-87963380D01*
X159124611Y-87963380D02*
X158886516Y-88963380D01*
X157934135Y-87963380D02*
X158267468Y-88439571D01*
X158505563Y-87963380D02*
X158505563Y-88963380D01*
X158505563Y-88963380D02*
X158124611Y-88963380D01*
X158124611Y-88963380D02*
X158029373Y-88915761D01*
X158029373Y-88915761D02*
X157981754Y-88868142D01*
X157981754Y-88868142D02*
X157934135Y-88772904D01*
X157934135Y-88772904D02*
X157934135Y-88630047D01*
X157934135Y-88630047D02*
X157981754Y-88534809D01*
X157981754Y-88534809D02*
X158029373Y-88487190D01*
X158029373Y-88487190D02*
X158124611Y-88439571D01*
X158124611Y-88439571D02*
X158505563Y-88439571D01*
X157076992Y-88630047D02*
X157076992Y-87963380D01*
X157315087Y-89011000D02*
X157553182Y-88296714D01*
X157553182Y-88296714D02*
X156934135Y-88296714D01*
X201138866Y-111213220D02*
X201138866Y-110451316D01*
X200996009Y-109641792D02*
X201043628Y-109498935D01*
X201043628Y-109498935D02*
X201091247Y-109451316D01*
X201091247Y-109451316D02*
X201186485Y-109403697D01*
X201186485Y-109403697D02*
X201329342Y-109403697D01*
X201329342Y-109403697D02*
X201424580Y-109451316D01*
X201424580Y-109451316D02*
X201472200Y-109498935D01*
X201472200Y-109498935D02*
X201519819Y-109594173D01*
X201519819Y-109594173D02*
X201519819Y-109975125D01*
X201519819Y-109975125D02*
X200519819Y-109975125D01*
X200519819Y-109975125D02*
X200519819Y-109641792D01*
X200519819Y-109641792D02*
X200567438Y-109546554D01*
X200567438Y-109546554D02*
X200615057Y-109498935D01*
X200615057Y-109498935D02*
X200710295Y-109451316D01*
X200710295Y-109451316D02*
X200805533Y-109451316D01*
X200805533Y-109451316D02*
X200900771Y-109498935D01*
X200900771Y-109498935D02*
X200948390Y-109546554D01*
X200948390Y-109546554D02*
X200996009Y-109641792D01*
X200996009Y-109641792D02*
X200996009Y-109975125D01*
X201234104Y-109022744D02*
X201234104Y-108546554D01*
X201519819Y-109117982D02*
X200519819Y-108784649D01*
X200519819Y-108784649D02*
X201519819Y-108451316D01*
X200519819Y-108260839D02*
X200519819Y-107689411D01*
X201519819Y-107975125D02*
X200519819Y-107975125D01*
X200519819Y-107498934D02*
X200519819Y-106927506D01*
X201519819Y-107213220D02*
X200519819Y-107213220D01*
X200577220Y-88141133D02*
X199815316Y-88141133D01*
X199005792Y-88283990D02*
X198862935Y-88236371D01*
X198862935Y-88236371D02*
X198815316Y-88188752D01*
X198815316Y-88188752D02*
X198767697Y-88093514D01*
X198767697Y-88093514D02*
X198767697Y-87950657D01*
X198767697Y-87950657D02*
X198815316Y-87855419D01*
X198815316Y-87855419D02*
X198862935Y-87807800D01*
X198862935Y-87807800D02*
X198958173Y-87760180D01*
X198958173Y-87760180D02*
X199339125Y-87760180D01*
X199339125Y-87760180D02*
X199339125Y-88760180D01*
X199339125Y-88760180D02*
X199005792Y-88760180D01*
X199005792Y-88760180D02*
X198910554Y-88712561D01*
X198910554Y-88712561D02*
X198862935Y-88664942D01*
X198862935Y-88664942D02*
X198815316Y-88569704D01*
X198815316Y-88569704D02*
X198815316Y-88474466D01*
X198815316Y-88474466D02*
X198862935Y-88379228D01*
X198862935Y-88379228D02*
X198910554Y-88331609D01*
X198910554Y-88331609D02*
X199005792Y-88283990D01*
X199005792Y-88283990D02*
X199339125Y-88283990D01*
X198386744Y-88045895D02*
X197910554Y-88045895D01*
X198481982Y-87760180D02*
X198148649Y-88760180D01*
X198148649Y-88760180D02*
X197815316Y-87760180D01*
X197624839Y-88760180D02*
X197053411Y-88760180D01*
X197339125Y-87760180D02*
X197339125Y-88760180D01*
X196862934Y-88760180D02*
X196291506Y-88760180D01*
X196577220Y-87760180D02*
X196577220Y-88760180D01*
X122372617Y-105914923D02*
X122705950Y-105914923D01*
X122305950Y-106143495D02*
X122539284Y-105343495D01*
X122539284Y-105343495D02*
X122772617Y-106143495D01*
X123005950Y-106143495D02*
X123005950Y-105343495D01*
X123005950Y-105343495D02*
X123172617Y-105343495D01*
X123172617Y-105343495D02*
X123272617Y-105381590D01*
X123272617Y-105381590D02*
X123339284Y-105457780D01*
X123339284Y-105457780D02*
X123372617Y-105533971D01*
X123372617Y-105533971D02*
X123405950Y-105686352D01*
X123405950Y-105686352D02*
X123405950Y-105800638D01*
X123405950Y-105800638D02*
X123372617Y-105953019D01*
X123372617Y-105953019D02*
X123339284Y-106029209D01*
X123339284Y-106029209D02*
X123272617Y-106105400D01*
X123272617Y-106105400D02*
X123172617Y-106143495D01*
X123172617Y-106143495D02*
X123005950Y-106143495D01*
X124072617Y-106143495D02*
X123672617Y-106143495D01*
X123872617Y-106143495D02*
X123872617Y-105343495D01*
X123872617Y-105343495D02*
X123805950Y-105457780D01*
X123805950Y-105457780D02*
X123739284Y-105533971D01*
X123739284Y-105533971D02*
X123672617Y-105572066D01*
X120340617Y-97647285D02*
X120373950Y-97609190D01*
X120373950Y-97609190D02*
X120440617Y-97571095D01*
X120440617Y-97571095D02*
X120607284Y-97571095D01*
X120607284Y-97571095D02*
X120673950Y-97609190D01*
X120673950Y-97609190D02*
X120707284Y-97647285D01*
X120707284Y-97647285D02*
X120740617Y-97723476D01*
X120740617Y-97723476D02*
X120740617Y-97799666D01*
X120740617Y-97799666D02*
X120707284Y-97913952D01*
X120707284Y-97913952D02*
X120307284Y-98371095D01*
X120307284Y-98371095D02*
X120740617Y-98371095D01*
X113036484Y-97621895D02*
X112703150Y-97621895D01*
X112703150Y-97621895D02*
X112669817Y-98002847D01*
X112669817Y-98002847D02*
X112703150Y-97964752D01*
X112703150Y-97964752D02*
X112769817Y-97926657D01*
X112769817Y-97926657D02*
X112936484Y-97926657D01*
X112936484Y-97926657D02*
X113003150Y-97964752D01*
X113003150Y-97964752D02*
X113036484Y-98002847D01*
X113036484Y-98002847D02*
X113069817Y-98079038D01*
X113069817Y-98079038D02*
X113069817Y-98269514D01*
X113069817Y-98269514D02*
X113036484Y-98345704D01*
X113036484Y-98345704D02*
X113003150Y-98383800D01*
X113003150Y-98383800D02*
X112936484Y-98421895D01*
X112936484Y-98421895D02*
X112769817Y-98421895D01*
X112769817Y-98421895D02*
X112703150Y-98383800D01*
X112703150Y-98383800D02*
X112669817Y-98345704D01*
X143274820Y-87861780D02*
X143274820Y-88861780D01*
X143274820Y-88861780D02*
X142893868Y-88861780D01*
X142893868Y-88861780D02*
X142798630Y-88814161D01*
X142798630Y-88814161D02*
X142751011Y-88766542D01*
X142751011Y-88766542D02*
X142703392Y-88671304D01*
X142703392Y-88671304D02*
X142703392Y-88528447D01*
X142703392Y-88528447D02*
X142751011Y-88433209D01*
X142751011Y-88433209D02*
X142798630Y-88385590D01*
X142798630Y-88385590D02*
X142893868Y-88337971D01*
X142893868Y-88337971D02*
X143274820Y-88337971D01*
X142370058Y-88861780D02*
X142131963Y-87861780D01*
X142131963Y-87861780D02*
X141941487Y-88576066D01*
X141941487Y-88576066D02*
X141751011Y-87861780D01*
X141751011Y-87861780D02*
X141512916Y-88861780D01*
X140560535Y-87861780D02*
X140893868Y-88337971D01*
X141131963Y-87861780D02*
X141131963Y-88861780D01*
X141131963Y-88861780D02*
X140751011Y-88861780D01*
X140751011Y-88861780D02*
X140655773Y-88814161D01*
X140655773Y-88814161D02*
X140608154Y-88766542D01*
X140608154Y-88766542D02*
X140560535Y-88671304D01*
X140560535Y-88671304D02*
X140560535Y-88528447D01*
X140560535Y-88528447D02*
X140608154Y-88433209D01*
X140608154Y-88433209D02*
X140655773Y-88385590D01*
X140655773Y-88385590D02*
X140751011Y-88337971D01*
X140751011Y-88337971D02*
X141131963Y-88337971D01*
X139655773Y-88861780D02*
X140131963Y-88861780D01*
X140131963Y-88861780D02*
X140179582Y-88385590D01*
X140179582Y-88385590D02*
X140131963Y-88433209D01*
X140131963Y-88433209D02*
X140036725Y-88480828D01*
X140036725Y-88480828D02*
X139798630Y-88480828D01*
X139798630Y-88480828D02*
X139703392Y-88433209D01*
X139703392Y-88433209D02*
X139655773Y-88385590D01*
X139655773Y-88385590D02*
X139608154Y-88290352D01*
X139608154Y-88290352D02*
X139608154Y-88052257D01*
X139608154Y-88052257D02*
X139655773Y-87957019D01*
X139655773Y-87957019D02*
X139703392Y-87909400D01*
X139703392Y-87909400D02*
X139798630Y-87861780D01*
X139798630Y-87861780D02*
X140036725Y-87861780D01*
X140036725Y-87861780D02*
X140131963Y-87909400D01*
X140131963Y-87909400D02*
X140179582Y-87957019D01*
X119832617Y-105914923D02*
X120165950Y-105914923D01*
X119765950Y-106143495D02*
X119999284Y-105343495D01*
X119999284Y-105343495D02*
X120232617Y-106143495D01*
X120465950Y-106143495D02*
X120465950Y-105343495D01*
X120465950Y-105343495D02*
X120632617Y-105343495D01*
X120632617Y-105343495D02*
X120732617Y-105381590D01*
X120732617Y-105381590D02*
X120799284Y-105457780D01*
X120799284Y-105457780D02*
X120832617Y-105533971D01*
X120832617Y-105533971D02*
X120865950Y-105686352D01*
X120865950Y-105686352D02*
X120865950Y-105800638D01*
X120865950Y-105800638D02*
X120832617Y-105953019D01*
X120832617Y-105953019D02*
X120799284Y-106029209D01*
X120799284Y-106029209D02*
X120732617Y-106105400D01*
X120732617Y-106105400D02*
X120632617Y-106143495D01*
X120632617Y-106143495D02*
X120465950Y-106143495D01*
X121299284Y-105343495D02*
X121365950Y-105343495D01*
X121365950Y-105343495D02*
X121432617Y-105381590D01*
X121432617Y-105381590D02*
X121465950Y-105419685D01*
X121465950Y-105419685D02*
X121499284Y-105495876D01*
X121499284Y-105495876D02*
X121532617Y-105648257D01*
X121532617Y-105648257D02*
X121532617Y-105838733D01*
X121532617Y-105838733D02*
X121499284Y-105991114D01*
X121499284Y-105991114D02*
X121465950Y-106067304D01*
X121465950Y-106067304D02*
X121432617Y-106105400D01*
X121432617Y-106105400D02*
X121365950Y-106143495D01*
X121365950Y-106143495D02*
X121299284Y-106143495D01*
X121299284Y-106143495D02*
X121232617Y-106105400D01*
X121232617Y-106105400D02*
X121199284Y-106067304D01*
X121199284Y-106067304D02*
X121165950Y-105991114D01*
X121165950Y-105991114D02*
X121132617Y-105838733D01*
X121132617Y-105838733D02*
X121132617Y-105648257D01*
X121132617Y-105648257D02*
X121165950Y-105495876D01*
X121165950Y-105495876D02*
X121199284Y-105419685D01*
X121199284Y-105419685D02*
X121232617Y-105381590D01*
X121232617Y-105381590D02*
X121299284Y-105343495D01*
X186505620Y-88242733D02*
X185743716Y-88242733D01*
X184934192Y-88385590D02*
X184791335Y-88337971D01*
X184791335Y-88337971D02*
X184743716Y-88290352D01*
X184743716Y-88290352D02*
X184696097Y-88195114D01*
X184696097Y-88195114D02*
X184696097Y-88052257D01*
X184696097Y-88052257D02*
X184743716Y-87957019D01*
X184743716Y-87957019D02*
X184791335Y-87909400D01*
X184791335Y-87909400D02*
X184886573Y-87861780D01*
X184886573Y-87861780D02*
X185267525Y-87861780D01*
X185267525Y-87861780D02*
X185267525Y-88861780D01*
X185267525Y-88861780D02*
X184934192Y-88861780D01*
X184934192Y-88861780D02*
X184838954Y-88814161D01*
X184838954Y-88814161D02*
X184791335Y-88766542D01*
X184791335Y-88766542D02*
X184743716Y-88671304D01*
X184743716Y-88671304D02*
X184743716Y-88576066D01*
X184743716Y-88576066D02*
X184791335Y-88480828D01*
X184791335Y-88480828D02*
X184838954Y-88433209D01*
X184838954Y-88433209D02*
X184934192Y-88385590D01*
X184934192Y-88385590D02*
X185267525Y-88385590D01*
X184315144Y-88147495D02*
X183838954Y-88147495D01*
X184410382Y-87861780D02*
X184077049Y-88861780D01*
X184077049Y-88861780D02*
X183743716Y-87861780D01*
X183553239Y-88861780D02*
X182981811Y-88861780D01*
X183267525Y-87861780D02*
X183267525Y-88861780D01*
X182791334Y-88861780D02*
X182219906Y-88861780D01*
X182505620Y-87861780D02*
X182505620Y-88861780D01*
X123331417Y-98371095D02*
X122931417Y-98371095D01*
X123131417Y-98371095D02*
X123131417Y-97571095D01*
X123131417Y-97571095D02*
X123064750Y-97685380D01*
X123064750Y-97685380D02*
X122998084Y-97761571D01*
X122998084Y-97761571D02*
X122931417Y-97799666D01*
X95929220Y-87861780D02*
X95929220Y-88861780D01*
X95929220Y-88861780D02*
X95548268Y-88861780D01*
X95548268Y-88861780D02*
X95453030Y-88814161D01*
X95453030Y-88814161D02*
X95405411Y-88766542D01*
X95405411Y-88766542D02*
X95357792Y-88671304D01*
X95357792Y-88671304D02*
X95357792Y-88528447D01*
X95357792Y-88528447D02*
X95405411Y-88433209D01*
X95405411Y-88433209D02*
X95453030Y-88385590D01*
X95453030Y-88385590D02*
X95548268Y-88337971D01*
X95548268Y-88337971D02*
X95929220Y-88337971D01*
X95024458Y-88861780D02*
X94786363Y-87861780D01*
X94786363Y-87861780D02*
X94595887Y-88576066D01*
X94595887Y-88576066D02*
X94405411Y-87861780D01*
X94405411Y-87861780D02*
X94167316Y-88861780D01*
X93214935Y-87861780D02*
X93548268Y-88337971D01*
X93786363Y-87861780D02*
X93786363Y-88861780D01*
X93786363Y-88861780D02*
X93405411Y-88861780D01*
X93405411Y-88861780D02*
X93310173Y-88814161D01*
X93310173Y-88814161D02*
X93262554Y-88766542D01*
X93262554Y-88766542D02*
X93214935Y-88671304D01*
X93214935Y-88671304D02*
X93214935Y-88528447D01*
X93214935Y-88528447D02*
X93262554Y-88433209D01*
X93262554Y-88433209D02*
X93310173Y-88385590D01*
X93310173Y-88385590D02*
X93405411Y-88337971D01*
X93405411Y-88337971D02*
X93786363Y-88337971D01*
X92643506Y-88433209D02*
X92738744Y-88480828D01*
X92738744Y-88480828D02*
X92786363Y-88528447D01*
X92786363Y-88528447D02*
X92833982Y-88623685D01*
X92833982Y-88623685D02*
X92833982Y-88671304D01*
X92833982Y-88671304D02*
X92786363Y-88766542D01*
X92786363Y-88766542D02*
X92738744Y-88814161D01*
X92738744Y-88814161D02*
X92643506Y-88861780D01*
X92643506Y-88861780D02*
X92453030Y-88861780D01*
X92453030Y-88861780D02*
X92357792Y-88814161D01*
X92357792Y-88814161D02*
X92310173Y-88766542D01*
X92310173Y-88766542D02*
X92262554Y-88671304D01*
X92262554Y-88671304D02*
X92262554Y-88623685D01*
X92262554Y-88623685D02*
X92310173Y-88528447D01*
X92310173Y-88528447D02*
X92357792Y-88480828D01*
X92357792Y-88480828D02*
X92453030Y-88433209D01*
X92453030Y-88433209D02*
X92643506Y-88433209D01*
X92643506Y-88433209D02*
X92738744Y-88385590D01*
X92738744Y-88385590D02*
X92786363Y-88337971D01*
X92786363Y-88337971D02*
X92833982Y-88242733D01*
X92833982Y-88242733D02*
X92833982Y-88052257D01*
X92833982Y-88052257D02*
X92786363Y-87957019D01*
X92786363Y-87957019D02*
X92738744Y-87909400D01*
X92738744Y-87909400D02*
X92643506Y-87861780D01*
X92643506Y-87861780D02*
X92453030Y-87861780D01*
X92453030Y-87861780D02*
X92357792Y-87909400D01*
X92357792Y-87909400D02*
X92310173Y-87957019D01*
X92310173Y-87957019D02*
X92262554Y-88052257D01*
X92262554Y-88052257D02*
X92262554Y-88242733D01*
X92262554Y-88242733D02*
X92310173Y-88337971D01*
X92310173Y-88337971D02*
X92357792Y-88385590D01*
X92357792Y-88385590D02*
X92453030Y-88433209D01*
X105213284Y-105394295D02*
X104879950Y-105394295D01*
X104879950Y-105394295D02*
X104846617Y-105775247D01*
X104846617Y-105775247D02*
X104879950Y-105737152D01*
X104879950Y-105737152D02*
X104946617Y-105699057D01*
X104946617Y-105699057D02*
X105113284Y-105699057D01*
X105113284Y-105699057D02*
X105179950Y-105737152D01*
X105179950Y-105737152D02*
X105213284Y-105775247D01*
X105213284Y-105775247D02*
X105246617Y-105851438D01*
X105246617Y-105851438D02*
X105246617Y-106041914D01*
X105246617Y-106041914D02*
X105213284Y-106118104D01*
X105213284Y-106118104D02*
X105179950Y-106156200D01*
X105179950Y-106156200D02*
X105113284Y-106194295D01*
X105113284Y-106194295D02*
X104946617Y-106194295D01*
X104946617Y-106194295D02*
X104879950Y-106156200D01*
X104879950Y-106156200D02*
X104846617Y-106118104D01*
X105446617Y-105394295D02*
X105679951Y-106194295D01*
X105679951Y-106194295D02*
X105913284Y-105394295D01*
X117767284Y-97621895D02*
X118200617Y-97621895D01*
X118200617Y-97621895D02*
X117967284Y-97926657D01*
X117967284Y-97926657D02*
X118067284Y-97926657D01*
X118067284Y-97926657D02*
X118133950Y-97964752D01*
X118133950Y-97964752D02*
X118167284Y-98002847D01*
X118167284Y-98002847D02*
X118200617Y-98079038D01*
X118200617Y-98079038D02*
X118200617Y-98269514D01*
X118200617Y-98269514D02*
X118167284Y-98345704D01*
X118167284Y-98345704D02*
X118133950Y-98383800D01*
X118133950Y-98383800D02*
X118067284Y-98421895D01*
X118067284Y-98421895D02*
X117867284Y-98421895D01*
X117867284Y-98421895D02*
X117800617Y-98383800D01*
X117800617Y-98383800D02*
X117767284Y-98345704D01*
D11*
X139443518Y-83764362D02*
X138173518Y-83764362D01*
X139322565Y-82433885D02*
X139383042Y-82494361D01*
X139383042Y-82494361D02*
X139443518Y-82675790D01*
X139443518Y-82675790D02*
X139443518Y-82796742D01*
X139443518Y-82796742D02*
X139383042Y-82978171D01*
X139383042Y-82978171D02*
X139262089Y-83099123D01*
X139262089Y-83099123D02*
X139141137Y-83159600D01*
X139141137Y-83159600D02*
X138899232Y-83220076D01*
X138899232Y-83220076D02*
X138717803Y-83220076D01*
X138717803Y-83220076D02*
X138475899Y-83159600D01*
X138475899Y-83159600D02*
X138354946Y-83099123D01*
X138354946Y-83099123D02*
X138233994Y-82978171D01*
X138233994Y-82978171D02*
X138173518Y-82796742D01*
X138173518Y-82796742D02*
X138173518Y-82675790D01*
X138173518Y-82675790D02*
X138233994Y-82494361D01*
X138233994Y-82494361D02*
X138294470Y-82433885D01*
X138173518Y-81284838D02*
X138173518Y-81889600D01*
X138173518Y-81889600D02*
X138778280Y-81950076D01*
X138778280Y-81950076D02*
X138717803Y-81889600D01*
X138717803Y-81889600D02*
X138657327Y-81768647D01*
X138657327Y-81768647D02*
X138657327Y-81466266D01*
X138657327Y-81466266D02*
X138717803Y-81345314D01*
X138717803Y-81345314D02*
X138778280Y-81284838D01*
X138778280Y-81284838D02*
X138899232Y-81224361D01*
X138899232Y-81224361D02*
X139201613Y-81224361D01*
X139201613Y-81224361D02*
X139322565Y-81284838D01*
X139322565Y-81284838D02*
X139383042Y-81345314D01*
X139383042Y-81345314D02*
X139443518Y-81466266D01*
X139443518Y-81466266D02*
X139443518Y-81768647D01*
X139443518Y-81768647D02*
X139383042Y-81889600D01*
X139383042Y-81889600D02*
X139322565Y-81950076D01*
D12*
X194538490Y-82606190D02*
X194562300Y-82629999D01*
X194562300Y-82629999D02*
X194586109Y-82701428D01*
X194586109Y-82701428D02*
X194586109Y-82749047D01*
X194586109Y-82749047D02*
X194562300Y-82820475D01*
X194562300Y-82820475D02*
X194514680Y-82868094D01*
X194514680Y-82868094D02*
X194467061Y-82891904D01*
X194467061Y-82891904D02*
X194371823Y-82915713D01*
X194371823Y-82915713D02*
X194300395Y-82915713D01*
X194300395Y-82915713D02*
X194205157Y-82891904D01*
X194205157Y-82891904D02*
X194157538Y-82868094D01*
X194157538Y-82868094D02*
X194109919Y-82820475D01*
X194109919Y-82820475D02*
X194086109Y-82749047D01*
X194086109Y-82749047D02*
X194086109Y-82701428D01*
X194086109Y-82701428D02*
X194109919Y-82629999D01*
X194109919Y-82629999D02*
X194133728Y-82606190D01*
X194252776Y-82463332D02*
X194252776Y-82272856D01*
X194586109Y-82391904D02*
X194157538Y-82391904D01*
X194157538Y-82391904D02*
X194109919Y-82368094D01*
X194109919Y-82368094D02*
X194086109Y-82320475D01*
X194086109Y-82320475D02*
X194086109Y-82272856D01*
X194586109Y-81844285D02*
X194586109Y-82129999D01*
X194586109Y-81987142D02*
X194086109Y-81987142D01*
X194086109Y-81987142D02*
X194157538Y-82034761D01*
X194157538Y-82034761D02*
X194205157Y-82082380D01*
X194205157Y-82082380D02*
X194228966Y-82129999D01*
D11*
X107146718Y-83713562D02*
X105876718Y-83713562D01*
X107025765Y-82383085D02*
X107086242Y-82443561D01*
X107086242Y-82443561D02*
X107146718Y-82624990D01*
X107146718Y-82624990D02*
X107146718Y-82745942D01*
X107146718Y-82745942D02*
X107086242Y-82927371D01*
X107086242Y-82927371D02*
X106965289Y-83048323D01*
X106965289Y-83048323D02*
X106844337Y-83108800D01*
X106844337Y-83108800D02*
X106602432Y-83169276D01*
X106602432Y-83169276D02*
X106421003Y-83169276D01*
X106421003Y-83169276D02*
X106179099Y-83108800D01*
X106179099Y-83108800D02*
X106058146Y-83048323D01*
X106058146Y-83048323D02*
X105937194Y-82927371D01*
X105937194Y-82927371D02*
X105876718Y-82745942D01*
X105876718Y-82745942D02*
X105876718Y-82624990D01*
X105876718Y-82624990D02*
X105937194Y-82443561D01*
X105937194Y-82443561D02*
X105997670Y-82383085D01*
X105876718Y-81959752D02*
X105876718Y-81113085D01*
X105876718Y-81113085D02*
X107146718Y-81657371D01*
D12*
X101956666Y-102666109D02*
X101790000Y-102428014D01*
X101670952Y-102666109D02*
X101670952Y-102166109D01*
X101670952Y-102166109D02*
X101861428Y-102166109D01*
X101861428Y-102166109D02*
X101909047Y-102189919D01*
X101909047Y-102189919D02*
X101932857Y-102213728D01*
X101932857Y-102213728D02*
X101956666Y-102261347D01*
X101956666Y-102261347D02*
X101956666Y-102332776D01*
X101956666Y-102332776D02*
X101932857Y-102380395D01*
X101932857Y-102380395D02*
X101909047Y-102404204D01*
X101909047Y-102404204D02*
X101861428Y-102428014D01*
X101861428Y-102428014D02*
X101670952Y-102428014D01*
X102432857Y-102666109D02*
X102147143Y-102666109D01*
X102290000Y-102666109D02*
X102290000Y-102166109D01*
X102290000Y-102166109D02*
X102242381Y-102237538D01*
X102242381Y-102237538D02*
X102194762Y-102285157D01*
X102194762Y-102285157D02*
X102147143Y-102308966D01*
D10*
X120744819Y-104603333D02*
X121459104Y-104603333D01*
X121459104Y-104603333D02*
X121601961Y-104650952D01*
X121601961Y-104650952D02*
X121697200Y-104746190D01*
X121697200Y-104746190D02*
X121744819Y-104889047D01*
X121744819Y-104889047D02*
X121744819Y-104984285D01*
X121744819Y-104127142D02*
X120744819Y-104127142D01*
X120744819Y-104127142D02*
X120744819Y-103746190D01*
X120744819Y-103746190D02*
X120792438Y-103650952D01*
X120792438Y-103650952D02*
X120840057Y-103603333D01*
X120840057Y-103603333D02*
X120935295Y-103555714D01*
X120935295Y-103555714D02*
X121078152Y-103555714D01*
X121078152Y-103555714D02*
X121173390Y-103603333D01*
X121173390Y-103603333D02*
X121221009Y-103650952D01*
X121221009Y-103650952D02*
X121268628Y-103746190D01*
X121268628Y-103746190D02*
X121268628Y-104127142D01*
X120840057Y-103174761D02*
X120792438Y-103127142D01*
X120792438Y-103127142D02*
X120744819Y-103031904D01*
X120744819Y-103031904D02*
X120744819Y-102793809D01*
X120744819Y-102793809D02*
X120792438Y-102698571D01*
X120792438Y-102698571D02*
X120840057Y-102650952D01*
X120840057Y-102650952D02*
X120935295Y-102603333D01*
X120935295Y-102603333D02*
X121030533Y-102603333D01*
X121030533Y-102603333D02*
X121173390Y-102650952D01*
X121173390Y-102650952D02*
X121744819Y-103222380D01*
X121744819Y-103222380D02*
X121744819Y-102603333D01*
D12*
X114568490Y-82246190D02*
X114592300Y-82269999D01*
X114592300Y-82269999D02*
X114616109Y-82341428D01*
X114616109Y-82341428D02*
X114616109Y-82389047D01*
X114616109Y-82389047D02*
X114592300Y-82460475D01*
X114592300Y-82460475D02*
X114544680Y-82508094D01*
X114544680Y-82508094D02*
X114497061Y-82531904D01*
X114497061Y-82531904D02*
X114401823Y-82555713D01*
X114401823Y-82555713D02*
X114330395Y-82555713D01*
X114330395Y-82555713D02*
X114235157Y-82531904D01*
X114235157Y-82531904D02*
X114187538Y-82508094D01*
X114187538Y-82508094D02*
X114139919Y-82460475D01*
X114139919Y-82460475D02*
X114116109Y-82389047D01*
X114116109Y-82389047D02*
X114116109Y-82341428D01*
X114116109Y-82341428D02*
X114139919Y-82269999D01*
X114139919Y-82269999D02*
X114163728Y-82246190D01*
X114282776Y-82103332D02*
X114282776Y-81912856D01*
X114616109Y-82031904D02*
X114187538Y-82031904D01*
X114187538Y-82031904D02*
X114139919Y-82008094D01*
X114139919Y-82008094D02*
X114116109Y-81960475D01*
X114116109Y-81960475D02*
X114116109Y-81912856D01*
X114116109Y-81793809D02*
X114116109Y-81484285D01*
X114116109Y-81484285D02*
X114306585Y-81650952D01*
X114306585Y-81650952D02*
X114306585Y-81579523D01*
X114306585Y-81579523D02*
X114330395Y-81531904D01*
X114330395Y-81531904D02*
X114354204Y-81508095D01*
X114354204Y-81508095D02*
X114401823Y-81484285D01*
X114401823Y-81484285D02*
X114520871Y-81484285D01*
X114520871Y-81484285D02*
X114568490Y-81508095D01*
X114568490Y-81508095D02*
X114592300Y-81531904D01*
X114592300Y-81531904D02*
X114616109Y-81579523D01*
X114616109Y-81579523D02*
X114616109Y-81722380D01*
X114616109Y-81722380D02*
X114592300Y-81769999D01*
X114592300Y-81769999D02*
X114568490Y-81793809D01*
X182543333Y-97256109D02*
X182543333Y-97613252D01*
X182543333Y-97613252D02*
X182519524Y-97684680D01*
X182519524Y-97684680D02*
X182471905Y-97732300D01*
X182471905Y-97732300D02*
X182400476Y-97756109D01*
X182400476Y-97756109D02*
X182352857Y-97756109D01*
X182995714Y-97422776D02*
X182995714Y-97756109D01*
X182876666Y-97232300D02*
X182757619Y-97589442D01*
X182757619Y-97589442D02*
X183067142Y-97589442D01*
D10*
X197598571Y-93594700D02*
X198741429Y-93594700D01*
X185298571Y-93594700D02*
X186441429Y-93594700D01*
X185870000Y-94166128D02*
X185870000Y-93023271D01*
D12*
X82453490Y-82276190D02*
X82477300Y-82299999D01*
X82477300Y-82299999D02*
X82501109Y-82371428D01*
X82501109Y-82371428D02*
X82501109Y-82419047D01*
X82501109Y-82419047D02*
X82477300Y-82490475D01*
X82477300Y-82490475D02*
X82429680Y-82538094D01*
X82429680Y-82538094D02*
X82382061Y-82561904D01*
X82382061Y-82561904D02*
X82286823Y-82585713D01*
X82286823Y-82585713D02*
X82215395Y-82585713D01*
X82215395Y-82585713D02*
X82120157Y-82561904D01*
X82120157Y-82561904D02*
X82072538Y-82538094D01*
X82072538Y-82538094D02*
X82024919Y-82490475D01*
X82024919Y-82490475D02*
X82001109Y-82419047D01*
X82001109Y-82419047D02*
X82001109Y-82371428D01*
X82001109Y-82371428D02*
X82024919Y-82299999D01*
X82024919Y-82299999D02*
X82048728Y-82276190D01*
X82167776Y-82133332D02*
X82167776Y-81942856D01*
X82501109Y-82061904D02*
X82072538Y-82061904D01*
X82072538Y-82061904D02*
X82024919Y-82038094D01*
X82024919Y-82038094D02*
X82001109Y-81990475D01*
X82001109Y-81990475D02*
X82001109Y-81942856D01*
X82215395Y-81704761D02*
X82191585Y-81752380D01*
X82191585Y-81752380D02*
X82167776Y-81776190D01*
X82167776Y-81776190D02*
X82120157Y-81799999D01*
X82120157Y-81799999D02*
X82096347Y-81799999D01*
X82096347Y-81799999D02*
X82048728Y-81776190D01*
X82048728Y-81776190D02*
X82024919Y-81752380D01*
X82024919Y-81752380D02*
X82001109Y-81704761D01*
X82001109Y-81704761D02*
X82001109Y-81609523D01*
X82001109Y-81609523D02*
X82024919Y-81561904D01*
X82024919Y-81561904D02*
X82048728Y-81538095D01*
X82048728Y-81538095D02*
X82096347Y-81514285D01*
X82096347Y-81514285D02*
X82120157Y-81514285D01*
X82120157Y-81514285D02*
X82167776Y-81538095D01*
X82167776Y-81538095D02*
X82191585Y-81561904D01*
X82191585Y-81561904D02*
X82215395Y-81609523D01*
X82215395Y-81609523D02*
X82215395Y-81704761D01*
X82215395Y-81704761D02*
X82239204Y-81752380D01*
X82239204Y-81752380D02*
X82263014Y-81776190D01*
X82263014Y-81776190D02*
X82310633Y-81799999D01*
X82310633Y-81799999D02*
X82405871Y-81799999D01*
X82405871Y-81799999D02*
X82453490Y-81776190D01*
X82453490Y-81776190D02*
X82477300Y-81752380D01*
X82477300Y-81752380D02*
X82501109Y-81704761D01*
X82501109Y-81704761D02*
X82501109Y-81609523D01*
X82501109Y-81609523D02*
X82477300Y-81561904D01*
X82477300Y-81561904D02*
X82453490Y-81538095D01*
X82453490Y-81538095D02*
X82405871Y-81514285D01*
X82405871Y-81514285D02*
X82310633Y-81514285D01*
X82310633Y-81514285D02*
X82263014Y-81538095D01*
X82263014Y-81538095D02*
X82239204Y-81561904D01*
X82239204Y-81561904D02*
X82215395Y-81609523D01*
D10*
X171025595Y-91999819D02*
X171025595Y-92809342D01*
X171025595Y-92809342D02*
X171073214Y-92904580D01*
X171073214Y-92904580D02*
X171120833Y-92952200D01*
X171120833Y-92952200D02*
X171216071Y-92999819D01*
X171216071Y-92999819D02*
X171406547Y-92999819D01*
X171406547Y-92999819D02*
X171501785Y-92952200D01*
X171501785Y-92952200D02*
X171549404Y-92904580D01*
X171549404Y-92904580D02*
X171597023Y-92809342D01*
X171597023Y-92809342D02*
X171597023Y-91999819D01*
X172025595Y-92095057D02*
X172073214Y-92047438D01*
X172073214Y-92047438D02*
X172168452Y-91999819D01*
X172168452Y-91999819D02*
X172406547Y-91999819D01*
X172406547Y-91999819D02*
X172501785Y-92047438D01*
X172501785Y-92047438D02*
X172549404Y-92095057D01*
X172549404Y-92095057D02*
X172597023Y-92190295D01*
X172597023Y-92190295D02*
X172597023Y-92285533D01*
X172597023Y-92285533D02*
X172549404Y-92428390D01*
X172549404Y-92428390D02*
X171977976Y-92999819D01*
X171977976Y-92999819D02*
X172597023Y-92999819D01*
D12*
X209383333Y-54742509D02*
X209383333Y-55099652D01*
X209383333Y-55099652D02*
X209359524Y-55171080D01*
X209359524Y-55171080D02*
X209311905Y-55218700D01*
X209311905Y-55218700D02*
X209240476Y-55242509D01*
X209240476Y-55242509D02*
X209192857Y-55242509D01*
X209835714Y-54742509D02*
X209740476Y-54742509D01*
X209740476Y-54742509D02*
X209692857Y-54766319D01*
X209692857Y-54766319D02*
X209669047Y-54790128D01*
X209669047Y-54790128D02*
X209621428Y-54861557D01*
X209621428Y-54861557D02*
X209597619Y-54956795D01*
X209597619Y-54956795D02*
X209597619Y-55147271D01*
X209597619Y-55147271D02*
X209621428Y-55194890D01*
X209621428Y-55194890D02*
X209645238Y-55218700D01*
X209645238Y-55218700D02*
X209692857Y-55242509D01*
X209692857Y-55242509D02*
X209788095Y-55242509D01*
X209788095Y-55242509D02*
X209835714Y-55218700D01*
X209835714Y-55218700D02*
X209859523Y-55194890D01*
X209859523Y-55194890D02*
X209883333Y-55147271D01*
X209883333Y-55147271D02*
X209883333Y-55028223D01*
X209883333Y-55028223D02*
X209859523Y-54980604D01*
X209859523Y-54980604D02*
X209835714Y-54956795D01*
X209835714Y-54956795D02*
X209788095Y-54932985D01*
X209788095Y-54932985D02*
X209692857Y-54932985D01*
X209692857Y-54932985D02*
X209645238Y-54956795D01*
X209645238Y-54956795D02*
X209621428Y-54980604D01*
X209621428Y-54980604D02*
X209597619Y-55028223D01*
X162198490Y-84699523D02*
X162222300Y-84723332D01*
X162222300Y-84723332D02*
X162246109Y-84794761D01*
X162246109Y-84794761D02*
X162246109Y-84842380D01*
X162246109Y-84842380D02*
X162222300Y-84913808D01*
X162222300Y-84913808D02*
X162174680Y-84961427D01*
X162174680Y-84961427D02*
X162127061Y-84985237D01*
X162127061Y-84985237D02*
X162031823Y-85009046D01*
X162031823Y-85009046D02*
X161960395Y-85009046D01*
X161960395Y-85009046D02*
X161865157Y-84985237D01*
X161865157Y-84985237D02*
X161817538Y-84961427D01*
X161817538Y-84961427D02*
X161769919Y-84913808D01*
X161769919Y-84913808D02*
X161746109Y-84842380D01*
X161746109Y-84842380D02*
X161746109Y-84794761D01*
X161746109Y-84794761D02*
X161769919Y-84723332D01*
X161769919Y-84723332D02*
X161793728Y-84699523D01*
X162246109Y-84485237D02*
X161746109Y-84485237D01*
X161936585Y-84485237D02*
X161912776Y-84437618D01*
X161912776Y-84437618D02*
X161912776Y-84342380D01*
X161912776Y-84342380D02*
X161936585Y-84294761D01*
X161936585Y-84294761D02*
X161960395Y-84270951D01*
X161960395Y-84270951D02*
X162008014Y-84247142D01*
X162008014Y-84247142D02*
X162150871Y-84247142D01*
X162150871Y-84247142D02*
X162198490Y-84270951D01*
X162198490Y-84270951D02*
X162222300Y-84294761D01*
X162222300Y-84294761D02*
X162246109Y-84342380D01*
X162246109Y-84342380D02*
X162246109Y-84437618D01*
X162246109Y-84437618D02*
X162222300Y-84485237D01*
X161746109Y-83818570D02*
X161746109Y-83913808D01*
X161746109Y-83913808D02*
X161769919Y-83961427D01*
X161769919Y-83961427D02*
X161793728Y-83985237D01*
X161793728Y-83985237D02*
X161865157Y-84032856D01*
X161865157Y-84032856D02*
X161960395Y-84056665D01*
X161960395Y-84056665D02*
X162150871Y-84056665D01*
X162150871Y-84056665D02*
X162198490Y-84032856D01*
X162198490Y-84032856D02*
X162222300Y-84009046D01*
X162222300Y-84009046D02*
X162246109Y-83961427D01*
X162246109Y-83961427D02*
X162246109Y-83866189D01*
X162246109Y-83866189D02*
X162222300Y-83818570D01*
X162222300Y-83818570D02*
X162198490Y-83794761D01*
X162198490Y-83794761D02*
X162150871Y-83770951D01*
X162150871Y-83770951D02*
X162031823Y-83770951D01*
X162031823Y-83770951D02*
X161984204Y-83794761D01*
X161984204Y-83794761D02*
X161960395Y-83818570D01*
X161960395Y-83818570D02*
X161936585Y-83866189D01*
X161936585Y-83866189D02*
X161936585Y-83961427D01*
X161936585Y-83961427D02*
X161960395Y-84009046D01*
X161960395Y-84009046D02*
X161984204Y-84032856D01*
X161984204Y-84032856D02*
X162031823Y-84056665D01*
X132755238Y-108556109D02*
X132755238Y-108913252D01*
X132755238Y-108913252D02*
X132731429Y-108984680D01*
X132731429Y-108984680D02*
X132683810Y-109032300D01*
X132683810Y-109032300D02*
X132612381Y-109056109D01*
X132612381Y-109056109D02*
X132564762Y-109056109D01*
X133255238Y-109056109D02*
X132969524Y-109056109D01*
X133112381Y-109056109D02*
X133112381Y-108556109D01*
X133112381Y-108556109D02*
X133064762Y-108627538D01*
X133064762Y-108627538D02*
X133017143Y-108675157D01*
X133017143Y-108675157D02*
X132969524Y-108698966D01*
X133540952Y-108770395D02*
X133493333Y-108746585D01*
X133493333Y-108746585D02*
X133469523Y-108722776D01*
X133469523Y-108722776D02*
X133445714Y-108675157D01*
X133445714Y-108675157D02*
X133445714Y-108651347D01*
X133445714Y-108651347D02*
X133469523Y-108603728D01*
X133469523Y-108603728D02*
X133493333Y-108579919D01*
X133493333Y-108579919D02*
X133540952Y-108556109D01*
X133540952Y-108556109D02*
X133636190Y-108556109D01*
X133636190Y-108556109D02*
X133683809Y-108579919D01*
X133683809Y-108579919D02*
X133707618Y-108603728D01*
X133707618Y-108603728D02*
X133731428Y-108651347D01*
X133731428Y-108651347D02*
X133731428Y-108675157D01*
X133731428Y-108675157D02*
X133707618Y-108722776D01*
X133707618Y-108722776D02*
X133683809Y-108746585D01*
X133683809Y-108746585D02*
X133636190Y-108770395D01*
X133636190Y-108770395D02*
X133540952Y-108770395D01*
X133540952Y-108770395D02*
X133493333Y-108794204D01*
X133493333Y-108794204D02*
X133469523Y-108818014D01*
X133469523Y-108818014D02*
X133445714Y-108865633D01*
X133445714Y-108865633D02*
X133445714Y-108960871D01*
X133445714Y-108960871D02*
X133469523Y-109008490D01*
X133469523Y-109008490D02*
X133493333Y-109032300D01*
X133493333Y-109032300D02*
X133540952Y-109056109D01*
X133540952Y-109056109D02*
X133636190Y-109056109D01*
X133636190Y-109056109D02*
X133683809Y-109032300D01*
X133683809Y-109032300D02*
X133707618Y-109008490D01*
X133707618Y-109008490D02*
X133731428Y-108960871D01*
X133731428Y-108960871D02*
X133731428Y-108865633D01*
X133731428Y-108865633D02*
X133707618Y-108818014D01*
X133707618Y-108818014D02*
X133683809Y-108794204D01*
X133683809Y-108794204D02*
X133636190Y-108770395D01*
X178938490Y-84689523D02*
X178962300Y-84713332D01*
X178962300Y-84713332D02*
X178986109Y-84784761D01*
X178986109Y-84784761D02*
X178986109Y-84832380D01*
X178986109Y-84832380D02*
X178962300Y-84903808D01*
X178962300Y-84903808D02*
X178914680Y-84951427D01*
X178914680Y-84951427D02*
X178867061Y-84975237D01*
X178867061Y-84975237D02*
X178771823Y-84999046D01*
X178771823Y-84999046D02*
X178700395Y-84999046D01*
X178700395Y-84999046D02*
X178605157Y-84975237D01*
X178605157Y-84975237D02*
X178557538Y-84951427D01*
X178557538Y-84951427D02*
X178509919Y-84903808D01*
X178509919Y-84903808D02*
X178486109Y-84832380D01*
X178486109Y-84832380D02*
X178486109Y-84784761D01*
X178486109Y-84784761D02*
X178509919Y-84713332D01*
X178509919Y-84713332D02*
X178533728Y-84689523D01*
X178986109Y-84475237D02*
X178486109Y-84475237D01*
X178676585Y-84475237D02*
X178652776Y-84427618D01*
X178652776Y-84427618D02*
X178652776Y-84332380D01*
X178652776Y-84332380D02*
X178676585Y-84284761D01*
X178676585Y-84284761D02*
X178700395Y-84260951D01*
X178700395Y-84260951D02*
X178748014Y-84237142D01*
X178748014Y-84237142D02*
X178890871Y-84237142D01*
X178890871Y-84237142D02*
X178938490Y-84260951D01*
X178938490Y-84260951D02*
X178962300Y-84284761D01*
X178962300Y-84284761D02*
X178986109Y-84332380D01*
X178986109Y-84332380D02*
X178986109Y-84427618D01*
X178986109Y-84427618D02*
X178962300Y-84475237D01*
X178533728Y-84046665D02*
X178509919Y-84022856D01*
X178509919Y-84022856D02*
X178486109Y-83975237D01*
X178486109Y-83975237D02*
X178486109Y-83856189D01*
X178486109Y-83856189D02*
X178509919Y-83808570D01*
X178509919Y-83808570D02*
X178533728Y-83784761D01*
X178533728Y-83784761D02*
X178581347Y-83760951D01*
X178581347Y-83760951D02*
X178628966Y-83760951D01*
X178628966Y-83760951D02*
X178700395Y-83784761D01*
X178700395Y-83784761D02*
X178986109Y-84070475D01*
X178986109Y-84070475D02*
X178986109Y-83760951D01*
X194558490Y-84769523D02*
X194582300Y-84793332D01*
X194582300Y-84793332D02*
X194606109Y-84864761D01*
X194606109Y-84864761D02*
X194606109Y-84912380D01*
X194606109Y-84912380D02*
X194582300Y-84983808D01*
X194582300Y-84983808D02*
X194534680Y-85031427D01*
X194534680Y-85031427D02*
X194487061Y-85055237D01*
X194487061Y-85055237D02*
X194391823Y-85079046D01*
X194391823Y-85079046D02*
X194320395Y-85079046D01*
X194320395Y-85079046D02*
X194225157Y-85055237D01*
X194225157Y-85055237D02*
X194177538Y-85031427D01*
X194177538Y-85031427D02*
X194129919Y-84983808D01*
X194129919Y-84983808D02*
X194106109Y-84912380D01*
X194106109Y-84912380D02*
X194106109Y-84864761D01*
X194106109Y-84864761D02*
X194129919Y-84793332D01*
X194129919Y-84793332D02*
X194153728Y-84769523D01*
X194606109Y-84555237D02*
X194106109Y-84555237D01*
X194296585Y-84555237D02*
X194272776Y-84507618D01*
X194272776Y-84507618D02*
X194272776Y-84412380D01*
X194272776Y-84412380D02*
X194296585Y-84364761D01*
X194296585Y-84364761D02*
X194320395Y-84340951D01*
X194320395Y-84340951D02*
X194368014Y-84317142D01*
X194368014Y-84317142D02*
X194510871Y-84317142D01*
X194510871Y-84317142D02*
X194558490Y-84340951D01*
X194558490Y-84340951D02*
X194582300Y-84364761D01*
X194582300Y-84364761D02*
X194606109Y-84412380D01*
X194606109Y-84412380D02*
X194606109Y-84507618D01*
X194606109Y-84507618D02*
X194582300Y-84555237D01*
X194606109Y-83840951D02*
X194606109Y-84126665D01*
X194606109Y-83983808D02*
X194106109Y-83983808D01*
X194106109Y-83983808D02*
X194177538Y-84031427D01*
X194177538Y-84031427D02*
X194225157Y-84079046D01*
X194225157Y-84079046D02*
X194248966Y-84126665D01*
X146828490Y-82646190D02*
X146852300Y-82669999D01*
X146852300Y-82669999D02*
X146876109Y-82741428D01*
X146876109Y-82741428D02*
X146876109Y-82789047D01*
X146876109Y-82789047D02*
X146852300Y-82860475D01*
X146852300Y-82860475D02*
X146804680Y-82908094D01*
X146804680Y-82908094D02*
X146757061Y-82931904D01*
X146757061Y-82931904D02*
X146661823Y-82955713D01*
X146661823Y-82955713D02*
X146590395Y-82955713D01*
X146590395Y-82955713D02*
X146495157Y-82931904D01*
X146495157Y-82931904D02*
X146447538Y-82908094D01*
X146447538Y-82908094D02*
X146399919Y-82860475D01*
X146399919Y-82860475D02*
X146376109Y-82789047D01*
X146376109Y-82789047D02*
X146376109Y-82741428D01*
X146376109Y-82741428D02*
X146399919Y-82669999D01*
X146399919Y-82669999D02*
X146423728Y-82646190D01*
X146542776Y-82503332D02*
X146542776Y-82312856D01*
X146876109Y-82431904D02*
X146447538Y-82431904D01*
X146447538Y-82431904D02*
X146399919Y-82408094D01*
X146399919Y-82408094D02*
X146376109Y-82360475D01*
X146376109Y-82360475D02*
X146376109Y-82312856D01*
X146376109Y-82193809D02*
X146376109Y-81860476D01*
X146376109Y-81860476D02*
X146876109Y-82074761D01*
D10*
X163250476Y-96344818D02*
X163250476Y-97059103D01*
X163250476Y-97059103D02*
X163202857Y-97201960D01*
X163202857Y-97201960D02*
X163107619Y-97297199D01*
X163107619Y-97297199D02*
X162964762Y-97344818D01*
X162964762Y-97344818D02*
X162869524Y-97344818D01*
X164250476Y-97344818D02*
X163679048Y-97344818D01*
X163964762Y-97344818D02*
X163964762Y-96344818D01*
X163964762Y-96344818D02*
X163869524Y-96487675D01*
X163869524Y-96487675D02*
X163774286Y-96582913D01*
X163774286Y-96582913D02*
X163679048Y-96630532D01*
X165155238Y-96344818D02*
X164679048Y-96344818D01*
X164679048Y-96344818D02*
X164631429Y-96821008D01*
X164631429Y-96821008D02*
X164679048Y-96773389D01*
X164679048Y-96773389D02*
X164774286Y-96725770D01*
X164774286Y-96725770D02*
X165012381Y-96725770D01*
X165012381Y-96725770D02*
X165107619Y-96773389D01*
X165107619Y-96773389D02*
X165155238Y-96821008D01*
X165155238Y-96821008D02*
X165202857Y-96916246D01*
X165202857Y-96916246D02*
X165202857Y-97154341D01*
X165202857Y-97154341D02*
X165155238Y-97249579D01*
X165155238Y-97249579D02*
X165107619Y-97297199D01*
X165107619Y-97297199D02*
X165012381Y-97344818D01*
X165012381Y-97344818D02*
X164774286Y-97344818D01*
X164774286Y-97344818D02*
X164679048Y-97297199D01*
X164679048Y-97297199D02*
X164631429Y-97249579D01*
D11*
X124355918Y-83764362D02*
X123085918Y-83764362D01*
X124234965Y-82433885D02*
X124295442Y-82494361D01*
X124295442Y-82494361D02*
X124355918Y-82675790D01*
X124355918Y-82675790D02*
X124355918Y-82796742D01*
X124355918Y-82796742D02*
X124295442Y-82978171D01*
X124295442Y-82978171D02*
X124174489Y-83099123D01*
X124174489Y-83099123D02*
X124053537Y-83159600D01*
X124053537Y-83159600D02*
X123811632Y-83220076D01*
X123811632Y-83220076D02*
X123630203Y-83220076D01*
X123630203Y-83220076D02*
X123388299Y-83159600D01*
X123388299Y-83159600D02*
X123267346Y-83099123D01*
X123267346Y-83099123D02*
X123146394Y-82978171D01*
X123146394Y-82978171D02*
X123085918Y-82796742D01*
X123085918Y-82796742D02*
X123085918Y-82675790D01*
X123085918Y-82675790D02*
X123146394Y-82494361D01*
X123146394Y-82494361D02*
X123206870Y-82433885D01*
X123085918Y-81345314D02*
X123085918Y-81587219D01*
X123085918Y-81587219D02*
X123146394Y-81708171D01*
X123146394Y-81708171D02*
X123206870Y-81768647D01*
X123206870Y-81768647D02*
X123388299Y-81889600D01*
X123388299Y-81889600D02*
X123630203Y-81950076D01*
X123630203Y-81950076D02*
X124114013Y-81950076D01*
X124114013Y-81950076D02*
X124234965Y-81889600D01*
X124234965Y-81889600D02*
X124295442Y-81829123D01*
X124295442Y-81829123D02*
X124355918Y-81708171D01*
X124355918Y-81708171D02*
X124355918Y-81466266D01*
X124355918Y-81466266D02*
X124295442Y-81345314D01*
X124295442Y-81345314D02*
X124234965Y-81284838D01*
X124234965Y-81284838D02*
X124114013Y-81224361D01*
X124114013Y-81224361D02*
X123811632Y-81224361D01*
X123811632Y-81224361D02*
X123690680Y-81284838D01*
X123690680Y-81284838D02*
X123630203Y-81345314D01*
X123630203Y-81345314D02*
X123569727Y-81466266D01*
X123569727Y-81466266D02*
X123569727Y-81708171D01*
X123569727Y-81708171D02*
X123630203Y-81829123D01*
X123630203Y-81829123D02*
X123690680Y-81889600D01*
X123690680Y-81889600D02*
X123811632Y-81950076D01*
D12*
X85895238Y-94956109D02*
X85895238Y-95313252D01*
X85895238Y-95313252D02*
X85871429Y-95384680D01*
X85871429Y-95384680D02*
X85823810Y-95432300D01*
X85823810Y-95432300D02*
X85752381Y-95456109D01*
X85752381Y-95456109D02*
X85704762Y-95456109D01*
X86395238Y-95456109D02*
X86109524Y-95456109D01*
X86252381Y-95456109D02*
X86252381Y-94956109D01*
X86252381Y-94956109D02*
X86204762Y-95027538D01*
X86204762Y-95027538D02*
X86157143Y-95075157D01*
X86157143Y-95075157D02*
X86109524Y-95098966D01*
X86704761Y-94956109D02*
X86752380Y-94956109D01*
X86752380Y-94956109D02*
X86799999Y-94979919D01*
X86799999Y-94979919D02*
X86823809Y-95003728D01*
X86823809Y-95003728D02*
X86847618Y-95051347D01*
X86847618Y-95051347D02*
X86871428Y-95146585D01*
X86871428Y-95146585D02*
X86871428Y-95265633D01*
X86871428Y-95265633D02*
X86847618Y-95360871D01*
X86847618Y-95360871D02*
X86823809Y-95408490D01*
X86823809Y-95408490D02*
X86799999Y-95432300D01*
X86799999Y-95432300D02*
X86752380Y-95456109D01*
X86752380Y-95456109D02*
X86704761Y-95456109D01*
X86704761Y-95456109D02*
X86657142Y-95432300D01*
X86657142Y-95432300D02*
X86633333Y-95408490D01*
X86633333Y-95408490D02*
X86609523Y-95360871D01*
X86609523Y-95360871D02*
X86585714Y-95265633D01*
X86585714Y-95265633D02*
X86585714Y-95146585D01*
X86585714Y-95146585D02*
X86609523Y-95051347D01*
X86609523Y-95051347D02*
X86633333Y-95003728D01*
X86633333Y-95003728D02*
X86657142Y-94979919D01*
X86657142Y-94979919D02*
X86704761Y-94956109D01*
D11*
X156829118Y-83815162D02*
X155559118Y-83815162D01*
X156708165Y-82484685D02*
X156768642Y-82545161D01*
X156768642Y-82545161D02*
X156829118Y-82726590D01*
X156829118Y-82726590D02*
X156829118Y-82847542D01*
X156829118Y-82847542D02*
X156768642Y-83028971D01*
X156768642Y-83028971D02*
X156647689Y-83149923D01*
X156647689Y-83149923D02*
X156526737Y-83210400D01*
X156526737Y-83210400D02*
X156284832Y-83270876D01*
X156284832Y-83270876D02*
X156103403Y-83270876D01*
X156103403Y-83270876D02*
X155861499Y-83210400D01*
X155861499Y-83210400D02*
X155740546Y-83149923D01*
X155740546Y-83149923D02*
X155619594Y-83028971D01*
X155619594Y-83028971D02*
X155559118Y-82847542D01*
X155559118Y-82847542D02*
X155559118Y-82726590D01*
X155559118Y-82726590D02*
X155619594Y-82545161D01*
X155619594Y-82545161D02*
X155680070Y-82484685D01*
X155982451Y-81396114D02*
X156829118Y-81396114D01*
X155498642Y-81698495D02*
X156405784Y-82000876D01*
X156405784Y-82000876D02*
X156405784Y-81214685D01*
D12*
X146868490Y-84639523D02*
X146892300Y-84663332D01*
X146892300Y-84663332D02*
X146916109Y-84734761D01*
X146916109Y-84734761D02*
X146916109Y-84782380D01*
X146916109Y-84782380D02*
X146892300Y-84853808D01*
X146892300Y-84853808D02*
X146844680Y-84901427D01*
X146844680Y-84901427D02*
X146797061Y-84925237D01*
X146797061Y-84925237D02*
X146701823Y-84949046D01*
X146701823Y-84949046D02*
X146630395Y-84949046D01*
X146630395Y-84949046D02*
X146535157Y-84925237D01*
X146535157Y-84925237D02*
X146487538Y-84901427D01*
X146487538Y-84901427D02*
X146439919Y-84853808D01*
X146439919Y-84853808D02*
X146416109Y-84782380D01*
X146416109Y-84782380D02*
X146416109Y-84734761D01*
X146416109Y-84734761D02*
X146439919Y-84663332D01*
X146439919Y-84663332D02*
X146463728Y-84639523D01*
X146916109Y-84425237D02*
X146416109Y-84425237D01*
X146606585Y-84425237D02*
X146582776Y-84377618D01*
X146582776Y-84377618D02*
X146582776Y-84282380D01*
X146582776Y-84282380D02*
X146606585Y-84234761D01*
X146606585Y-84234761D02*
X146630395Y-84210951D01*
X146630395Y-84210951D02*
X146678014Y-84187142D01*
X146678014Y-84187142D02*
X146820871Y-84187142D01*
X146820871Y-84187142D02*
X146868490Y-84210951D01*
X146868490Y-84210951D02*
X146892300Y-84234761D01*
X146892300Y-84234761D02*
X146916109Y-84282380D01*
X146916109Y-84282380D02*
X146916109Y-84377618D01*
X146916109Y-84377618D02*
X146892300Y-84425237D01*
X146416109Y-84020475D02*
X146416109Y-83687142D01*
X146416109Y-83687142D02*
X146916109Y-83901427D01*
D10*
X116914819Y-104583333D02*
X117629104Y-104583333D01*
X117629104Y-104583333D02*
X117771961Y-104630952D01*
X117771961Y-104630952D02*
X117867200Y-104726190D01*
X117867200Y-104726190D02*
X117914819Y-104869047D01*
X117914819Y-104869047D02*
X117914819Y-104964285D01*
X117914819Y-104107142D02*
X116914819Y-104107142D01*
X116914819Y-104107142D02*
X116914819Y-103726190D01*
X116914819Y-103726190D02*
X116962438Y-103630952D01*
X116962438Y-103630952D02*
X117010057Y-103583333D01*
X117010057Y-103583333D02*
X117105295Y-103535714D01*
X117105295Y-103535714D02*
X117248152Y-103535714D01*
X117248152Y-103535714D02*
X117343390Y-103583333D01*
X117343390Y-103583333D02*
X117391009Y-103630952D01*
X117391009Y-103630952D02*
X117438628Y-103726190D01*
X117438628Y-103726190D02*
X117438628Y-104107142D01*
X117914819Y-102583333D02*
X117914819Y-103154761D01*
X117914819Y-102869047D02*
X116914819Y-102869047D01*
X116914819Y-102869047D02*
X117057676Y-102964285D01*
X117057676Y-102964285D02*
X117152914Y-103059523D01*
X117152914Y-103059523D02*
X117200533Y-103154761D01*
D12*
X178908490Y-82436190D02*
X178932300Y-82459999D01*
X178932300Y-82459999D02*
X178956109Y-82531428D01*
X178956109Y-82531428D02*
X178956109Y-82579047D01*
X178956109Y-82579047D02*
X178932300Y-82650475D01*
X178932300Y-82650475D02*
X178884680Y-82698094D01*
X178884680Y-82698094D02*
X178837061Y-82721904D01*
X178837061Y-82721904D02*
X178741823Y-82745713D01*
X178741823Y-82745713D02*
X178670395Y-82745713D01*
X178670395Y-82745713D02*
X178575157Y-82721904D01*
X178575157Y-82721904D02*
X178527538Y-82698094D01*
X178527538Y-82698094D02*
X178479919Y-82650475D01*
X178479919Y-82650475D02*
X178456109Y-82579047D01*
X178456109Y-82579047D02*
X178456109Y-82531428D01*
X178456109Y-82531428D02*
X178479919Y-82459999D01*
X178479919Y-82459999D02*
X178503728Y-82436190D01*
X178622776Y-82293332D02*
X178622776Y-82102856D01*
X178956109Y-82221904D02*
X178527538Y-82221904D01*
X178527538Y-82221904D02*
X178479919Y-82198094D01*
X178479919Y-82198094D02*
X178456109Y-82150475D01*
X178456109Y-82150475D02*
X178456109Y-82102856D01*
X178503728Y-81959999D02*
X178479919Y-81936190D01*
X178479919Y-81936190D02*
X178456109Y-81888571D01*
X178456109Y-81888571D02*
X178456109Y-81769523D01*
X178456109Y-81769523D02*
X178479919Y-81721904D01*
X178479919Y-81721904D02*
X178503728Y-81698095D01*
X178503728Y-81698095D02*
X178551347Y-81674285D01*
X178551347Y-81674285D02*
X178598966Y-81674285D01*
X178598966Y-81674285D02*
X178670395Y-81698095D01*
X178670395Y-81698095D02*
X178956109Y-81983809D01*
X178956109Y-81983809D02*
X178956109Y-81674285D01*
D10*
X107747733Y-102256019D02*
X107414400Y-101779828D01*
X107176305Y-102256019D02*
X107176305Y-101256019D01*
X107176305Y-101256019D02*
X107557257Y-101256019D01*
X107557257Y-101256019D02*
X107652495Y-101303638D01*
X107652495Y-101303638D02*
X107700114Y-101351257D01*
X107700114Y-101351257D02*
X107747733Y-101446495D01*
X107747733Y-101446495D02*
X107747733Y-101589352D01*
X107747733Y-101589352D02*
X107700114Y-101684590D01*
X107700114Y-101684590D02*
X107652495Y-101732209D01*
X107652495Y-101732209D02*
X107557257Y-101779828D01*
X107557257Y-101779828D02*
X107176305Y-101779828D01*
X108081067Y-101256019D02*
X108700114Y-101256019D01*
X108700114Y-101256019D02*
X108366781Y-101636971D01*
X108366781Y-101636971D02*
X108509638Y-101636971D01*
X108509638Y-101636971D02*
X108604876Y-101684590D01*
X108604876Y-101684590D02*
X108652495Y-101732209D01*
X108652495Y-101732209D02*
X108700114Y-101827447D01*
X108700114Y-101827447D02*
X108700114Y-102065542D01*
X108700114Y-102065542D02*
X108652495Y-102160780D01*
X108652495Y-102160780D02*
X108604876Y-102208400D01*
X108604876Y-102208400D02*
X108509638Y-102256019D01*
X108509638Y-102256019D02*
X108223924Y-102256019D01*
X108223924Y-102256019D02*
X108128686Y-102208400D01*
X108128686Y-102208400D02*
X108081067Y-102160780D01*
X106479300Y-97668619D02*
X106479300Y-97906714D01*
X106241205Y-97811476D02*
X106479300Y-97906714D01*
X106479300Y-97906714D02*
X106717395Y-97811476D01*
X106336443Y-98097190D02*
X106479300Y-97906714D01*
X106479300Y-97906714D02*
X106622157Y-98097190D01*
X106479300Y-97668619D02*
X106479300Y-97906714D01*
X106241205Y-97811476D02*
X106479300Y-97906714D01*
X106479300Y-97906714D02*
X106717395Y-97811476D01*
X106336443Y-98097190D02*
X106479300Y-97906714D01*
X106479300Y-97906714D02*
X106622157Y-98097190D01*
D12*
X144460933Y-54894909D02*
X144460933Y-55252052D01*
X144460933Y-55252052D02*
X144437124Y-55323480D01*
X144437124Y-55323480D02*
X144389505Y-55371100D01*
X144389505Y-55371100D02*
X144318076Y-55394909D01*
X144318076Y-55394909D02*
X144270457Y-55394909D01*
X144675219Y-54942528D02*
X144699028Y-54918719D01*
X144699028Y-54918719D02*
X144746647Y-54894909D01*
X144746647Y-54894909D02*
X144865695Y-54894909D01*
X144865695Y-54894909D02*
X144913314Y-54918719D01*
X144913314Y-54918719D02*
X144937123Y-54942528D01*
X144937123Y-54942528D02*
X144960933Y-54990147D01*
X144960933Y-54990147D02*
X144960933Y-55037766D01*
X144960933Y-55037766D02*
X144937123Y-55109195D01*
X144937123Y-55109195D02*
X144651409Y-55394909D01*
X144651409Y-55394909D02*
X144960933Y-55394909D01*
D10*
X205660476Y-93144819D02*
X205660476Y-93859104D01*
X205660476Y-93859104D02*
X205612857Y-94001961D01*
X205612857Y-94001961D02*
X205517619Y-94097200D01*
X205517619Y-94097200D02*
X205374762Y-94144819D01*
X205374762Y-94144819D02*
X205279524Y-94144819D01*
X206660476Y-94144819D02*
X206089048Y-94144819D01*
X206374762Y-94144819D02*
X206374762Y-93144819D01*
X206374762Y-93144819D02*
X206279524Y-93287676D01*
X206279524Y-93287676D02*
X206184286Y-93382914D01*
X206184286Y-93382914D02*
X206089048Y-93430533D01*
X206993810Y-93144819D02*
X207660476Y-93144819D01*
X207660476Y-93144819D02*
X207231905Y-94144819D01*
X205490476Y-101544819D02*
X205490476Y-102259104D01*
X205490476Y-102259104D02*
X205442857Y-102401961D01*
X205442857Y-102401961D02*
X205347619Y-102497200D01*
X205347619Y-102497200D02*
X205204762Y-102544819D01*
X205204762Y-102544819D02*
X205109524Y-102544819D01*
X206490476Y-102544819D02*
X205919048Y-102544819D01*
X206204762Y-102544819D02*
X206204762Y-101544819D01*
X206204762Y-101544819D02*
X206109524Y-101687676D01*
X206109524Y-101687676D02*
X206014286Y-101782914D01*
X206014286Y-101782914D02*
X205919048Y-101830533D01*
X207347619Y-101544819D02*
X207157143Y-101544819D01*
X207157143Y-101544819D02*
X207061905Y-101592438D01*
X207061905Y-101592438D02*
X207014286Y-101640057D01*
X207014286Y-101640057D02*
X206919048Y-101782914D01*
X206919048Y-101782914D02*
X206871429Y-101973390D01*
X206871429Y-101973390D02*
X206871429Y-102354342D01*
X206871429Y-102354342D02*
X206919048Y-102449580D01*
X206919048Y-102449580D02*
X206966667Y-102497200D01*
X206966667Y-102497200D02*
X207061905Y-102544819D01*
X207061905Y-102544819D02*
X207252381Y-102544819D01*
X207252381Y-102544819D02*
X207347619Y-102497200D01*
X207347619Y-102497200D02*
X207395238Y-102449580D01*
X207395238Y-102449580D02*
X207442857Y-102354342D01*
X207442857Y-102354342D02*
X207442857Y-102116247D01*
X207442857Y-102116247D02*
X207395238Y-102021009D01*
X207395238Y-102021009D02*
X207347619Y-101973390D01*
X207347619Y-101973390D02*
X207252381Y-101925771D01*
X207252381Y-101925771D02*
X207061905Y-101925771D01*
X207061905Y-101925771D02*
X206966667Y-101973390D01*
X206966667Y-101973390D02*
X206919048Y-102021009D01*
X206919048Y-102021009D02*
X206871429Y-102116247D01*
D12*
X82428490Y-84709523D02*
X82452300Y-84733332D01*
X82452300Y-84733332D02*
X82476109Y-84804761D01*
X82476109Y-84804761D02*
X82476109Y-84852380D01*
X82476109Y-84852380D02*
X82452300Y-84923808D01*
X82452300Y-84923808D02*
X82404680Y-84971427D01*
X82404680Y-84971427D02*
X82357061Y-84995237D01*
X82357061Y-84995237D02*
X82261823Y-85019046D01*
X82261823Y-85019046D02*
X82190395Y-85019046D01*
X82190395Y-85019046D02*
X82095157Y-84995237D01*
X82095157Y-84995237D02*
X82047538Y-84971427D01*
X82047538Y-84971427D02*
X81999919Y-84923808D01*
X81999919Y-84923808D02*
X81976109Y-84852380D01*
X81976109Y-84852380D02*
X81976109Y-84804761D01*
X81976109Y-84804761D02*
X81999919Y-84733332D01*
X81999919Y-84733332D02*
X82023728Y-84709523D01*
X82476109Y-84495237D02*
X81976109Y-84495237D01*
X82166585Y-84495237D02*
X82142776Y-84447618D01*
X82142776Y-84447618D02*
X82142776Y-84352380D01*
X82142776Y-84352380D02*
X82166585Y-84304761D01*
X82166585Y-84304761D02*
X82190395Y-84280951D01*
X82190395Y-84280951D02*
X82238014Y-84257142D01*
X82238014Y-84257142D02*
X82380871Y-84257142D01*
X82380871Y-84257142D02*
X82428490Y-84280951D01*
X82428490Y-84280951D02*
X82452300Y-84304761D01*
X82452300Y-84304761D02*
X82476109Y-84352380D01*
X82476109Y-84352380D02*
X82476109Y-84447618D01*
X82476109Y-84447618D02*
X82452300Y-84495237D01*
X82190395Y-83971427D02*
X82166585Y-84019046D01*
X82166585Y-84019046D02*
X82142776Y-84042856D01*
X82142776Y-84042856D02*
X82095157Y-84066665D01*
X82095157Y-84066665D02*
X82071347Y-84066665D01*
X82071347Y-84066665D02*
X82023728Y-84042856D01*
X82023728Y-84042856D02*
X81999919Y-84019046D01*
X81999919Y-84019046D02*
X81976109Y-83971427D01*
X81976109Y-83971427D02*
X81976109Y-83876189D01*
X81976109Y-83876189D02*
X81999919Y-83828570D01*
X81999919Y-83828570D02*
X82023728Y-83804761D01*
X82023728Y-83804761D02*
X82071347Y-83780951D01*
X82071347Y-83780951D02*
X82095157Y-83780951D01*
X82095157Y-83780951D02*
X82142776Y-83804761D01*
X82142776Y-83804761D02*
X82166585Y-83828570D01*
X82166585Y-83828570D02*
X82190395Y-83876189D01*
X82190395Y-83876189D02*
X82190395Y-83971427D01*
X82190395Y-83971427D02*
X82214204Y-84019046D01*
X82214204Y-84019046D02*
X82238014Y-84042856D01*
X82238014Y-84042856D02*
X82285633Y-84066665D01*
X82285633Y-84066665D02*
X82380871Y-84066665D01*
X82380871Y-84066665D02*
X82428490Y-84042856D01*
X82428490Y-84042856D02*
X82452300Y-84019046D01*
X82452300Y-84019046D02*
X82476109Y-83971427D01*
X82476109Y-83971427D02*
X82476109Y-83876189D01*
X82476109Y-83876189D02*
X82452300Y-83828570D01*
X82452300Y-83828570D02*
X82428490Y-83804761D01*
X82428490Y-83804761D02*
X82380871Y-83780951D01*
X82380871Y-83780951D02*
X82285633Y-83780951D01*
X82285633Y-83780951D02*
X82238014Y-83804761D01*
X82238014Y-83804761D02*
X82214204Y-83828570D01*
X82214204Y-83828570D02*
X82190395Y-83876189D01*
X95499047Y-98511109D02*
X95499047Y-98915871D01*
X95499047Y-98915871D02*
X95522857Y-98963490D01*
X95522857Y-98963490D02*
X95546666Y-98987300D01*
X95546666Y-98987300D02*
X95594285Y-99011109D01*
X95594285Y-99011109D02*
X95689523Y-99011109D01*
X95689523Y-99011109D02*
X95737142Y-98987300D01*
X95737142Y-98987300D02*
X95760952Y-98963490D01*
X95760952Y-98963490D02*
X95784761Y-98915871D01*
X95784761Y-98915871D02*
X95784761Y-98511109D01*
X96284762Y-99011109D02*
X95999048Y-99011109D01*
X96141905Y-99011109D02*
X96141905Y-98511109D01*
X96141905Y-98511109D02*
X96094286Y-98582538D01*
X96094286Y-98582538D02*
X96046667Y-98630157D01*
X96046667Y-98630157D02*
X95999048Y-98653966D01*
X129868490Y-84579523D02*
X129892300Y-84603332D01*
X129892300Y-84603332D02*
X129916109Y-84674761D01*
X129916109Y-84674761D02*
X129916109Y-84722380D01*
X129916109Y-84722380D02*
X129892300Y-84793808D01*
X129892300Y-84793808D02*
X129844680Y-84841427D01*
X129844680Y-84841427D02*
X129797061Y-84865237D01*
X129797061Y-84865237D02*
X129701823Y-84889046D01*
X129701823Y-84889046D02*
X129630395Y-84889046D01*
X129630395Y-84889046D02*
X129535157Y-84865237D01*
X129535157Y-84865237D02*
X129487538Y-84841427D01*
X129487538Y-84841427D02*
X129439919Y-84793808D01*
X129439919Y-84793808D02*
X129416109Y-84722380D01*
X129416109Y-84722380D02*
X129416109Y-84674761D01*
X129416109Y-84674761D02*
X129439919Y-84603332D01*
X129439919Y-84603332D02*
X129463728Y-84579523D01*
X129916109Y-84365237D02*
X129416109Y-84365237D01*
X129606585Y-84365237D02*
X129582776Y-84317618D01*
X129582776Y-84317618D02*
X129582776Y-84222380D01*
X129582776Y-84222380D02*
X129606585Y-84174761D01*
X129606585Y-84174761D02*
X129630395Y-84150951D01*
X129630395Y-84150951D02*
X129678014Y-84127142D01*
X129678014Y-84127142D02*
X129820871Y-84127142D01*
X129820871Y-84127142D02*
X129868490Y-84150951D01*
X129868490Y-84150951D02*
X129892300Y-84174761D01*
X129892300Y-84174761D02*
X129916109Y-84222380D01*
X129916109Y-84222380D02*
X129916109Y-84317618D01*
X129916109Y-84317618D02*
X129892300Y-84365237D01*
X129416109Y-83674761D02*
X129416109Y-83912856D01*
X129416109Y-83912856D02*
X129654204Y-83936665D01*
X129654204Y-83936665D02*
X129630395Y-83912856D01*
X129630395Y-83912856D02*
X129606585Y-83865237D01*
X129606585Y-83865237D02*
X129606585Y-83746189D01*
X129606585Y-83746189D02*
X129630395Y-83698570D01*
X129630395Y-83698570D02*
X129654204Y-83674761D01*
X129654204Y-83674761D02*
X129701823Y-83650951D01*
X129701823Y-83650951D02*
X129820871Y-83650951D01*
X129820871Y-83650951D02*
X129868490Y-83674761D01*
X129868490Y-83674761D02*
X129892300Y-83698570D01*
X129892300Y-83698570D02*
X129916109Y-83746189D01*
X129916109Y-83746189D02*
X129916109Y-83865237D01*
X129916109Y-83865237D02*
X129892300Y-83912856D01*
X129892300Y-83912856D02*
X129868490Y-83936665D01*
D11*
X189125918Y-83815162D02*
X187855918Y-83815162D01*
X189004965Y-82484685D02*
X189065442Y-82545161D01*
X189065442Y-82545161D02*
X189125918Y-82726590D01*
X189125918Y-82726590D02*
X189125918Y-82847542D01*
X189125918Y-82847542D02*
X189065442Y-83028971D01*
X189065442Y-83028971D02*
X188944489Y-83149923D01*
X188944489Y-83149923D02*
X188823537Y-83210400D01*
X188823537Y-83210400D02*
X188581632Y-83270876D01*
X188581632Y-83270876D02*
X188400203Y-83270876D01*
X188400203Y-83270876D02*
X188158299Y-83210400D01*
X188158299Y-83210400D02*
X188037346Y-83149923D01*
X188037346Y-83149923D02*
X187916394Y-83028971D01*
X187916394Y-83028971D02*
X187855918Y-82847542D01*
X187855918Y-82847542D02*
X187855918Y-82726590D01*
X187855918Y-82726590D02*
X187916394Y-82545161D01*
X187916394Y-82545161D02*
X187976870Y-82484685D01*
X187976870Y-82000876D02*
X187916394Y-81940400D01*
X187916394Y-81940400D02*
X187855918Y-81819447D01*
X187855918Y-81819447D02*
X187855918Y-81517066D01*
X187855918Y-81517066D02*
X187916394Y-81396114D01*
X187916394Y-81396114D02*
X187976870Y-81335638D01*
X187976870Y-81335638D02*
X188097822Y-81275161D01*
X188097822Y-81275161D02*
X188218775Y-81275161D01*
X188218775Y-81275161D02*
X188400203Y-81335638D01*
X188400203Y-81335638D02*
X189125918Y-82061352D01*
X189125918Y-82061352D02*
X189125918Y-81275161D01*
D12*
X97578490Y-83176190D02*
X97602300Y-83199999D01*
X97602300Y-83199999D02*
X97626109Y-83271428D01*
X97626109Y-83271428D02*
X97626109Y-83319047D01*
X97626109Y-83319047D02*
X97602300Y-83390475D01*
X97602300Y-83390475D02*
X97554680Y-83438094D01*
X97554680Y-83438094D02*
X97507061Y-83461904D01*
X97507061Y-83461904D02*
X97411823Y-83485713D01*
X97411823Y-83485713D02*
X97340395Y-83485713D01*
X97340395Y-83485713D02*
X97245157Y-83461904D01*
X97245157Y-83461904D02*
X97197538Y-83438094D01*
X97197538Y-83438094D02*
X97149919Y-83390475D01*
X97149919Y-83390475D02*
X97126109Y-83319047D01*
X97126109Y-83319047D02*
X97126109Y-83271428D01*
X97126109Y-83271428D02*
X97149919Y-83199999D01*
X97149919Y-83199999D02*
X97173728Y-83176190D01*
X97292776Y-83033332D02*
X97292776Y-82842856D01*
X97626109Y-82961904D02*
X97197538Y-82961904D01*
X97197538Y-82961904D02*
X97149919Y-82938094D01*
X97149919Y-82938094D02*
X97126109Y-82890475D01*
X97126109Y-82890475D02*
X97126109Y-82842856D01*
X97292776Y-82461904D02*
X97626109Y-82461904D01*
X97102300Y-82580952D02*
X97459442Y-82699999D01*
X97459442Y-82699999D02*
X97459442Y-82390476D01*
D11*
X204225518Y-83916762D02*
X202955518Y-83916762D01*
X204104565Y-82586285D02*
X204165042Y-82646761D01*
X204165042Y-82646761D02*
X204225518Y-82828190D01*
X204225518Y-82828190D02*
X204225518Y-82949142D01*
X204225518Y-82949142D02*
X204165042Y-83130571D01*
X204165042Y-83130571D02*
X204044089Y-83251523D01*
X204044089Y-83251523D02*
X203923137Y-83312000D01*
X203923137Y-83312000D02*
X203681232Y-83372476D01*
X203681232Y-83372476D02*
X203499803Y-83372476D01*
X203499803Y-83372476D02*
X203257899Y-83312000D01*
X203257899Y-83312000D02*
X203136946Y-83251523D01*
X203136946Y-83251523D02*
X203015994Y-83130571D01*
X203015994Y-83130571D02*
X202955518Y-82949142D01*
X202955518Y-82949142D02*
X202955518Y-82828190D01*
X202955518Y-82828190D02*
X203015994Y-82646761D01*
X203015994Y-82646761D02*
X203076470Y-82586285D01*
X204225518Y-81376761D02*
X204225518Y-82102476D01*
X204225518Y-81739619D02*
X202955518Y-81739619D01*
X202955518Y-81739619D02*
X203136946Y-81860571D01*
X203136946Y-81860571D02*
X203257899Y-81981523D01*
X203257899Y-81981523D02*
X203318375Y-82102476D01*
D10*
X154474876Y-96354818D02*
X154474876Y-97069103D01*
X154474876Y-97069103D02*
X154427257Y-97211960D01*
X154427257Y-97211960D02*
X154332019Y-97307199D01*
X154332019Y-97307199D02*
X154189162Y-97354818D01*
X154189162Y-97354818D02*
X154093924Y-97354818D01*
X155474876Y-97354818D02*
X154903448Y-97354818D01*
X155189162Y-97354818D02*
X155189162Y-96354818D01*
X155189162Y-96354818D02*
X155093924Y-96497675D01*
X155093924Y-96497675D02*
X154998686Y-96592913D01*
X154998686Y-96592913D02*
X154903448Y-96640532D01*
X156332019Y-96688151D02*
X156332019Y-97354818D01*
X156093924Y-96307199D02*
X155855829Y-97021484D01*
X155855829Y-97021484D02*
X156474876Y-97021484D01*
D12*
X177023733Y-54945709D02*
X177023733Y-55302852D01*
X177023733Y-55302852D02*
X176999924Y-55374280D01*
X176999924Y-55374280D02*
X176952305Y-55421900D01*
X176952305Y-55421900D02*
X176880876Y-55445709D01*
X176880876Y-55445709D02*
X176833257Y-55445709D01*
X177523733Y-55445709D02*
X177238019Y-55445709D01*
X177380876Y-55445709D02*
X177380876Y-54945709D01*
X177380876Y-54945709D02*
X177333257Y-55017138D01*
X177333257Y-55017138D02*
X177285638Y-55064757D01*
X177285638Y-55064757D02*
X177238019Y-55088566D01*
X85775238Y-98746109D02*
X85775238Y-99103252D01*
X85775238Y-99103252D02*
X85751429Y-99174680D01*
X85751429Y-99174680D02*
X85703810Y-99222300D01*
X85703810Y-99222300D02*
X85632381Y-99246109D01*
X85632381Y-99246109D02*
X85584762Y-99246109D01*
X86275238Y-99246109D02*
X85989524Y-99246109D01*
X86132381Y-99246109D02*
X86132381Y-98746109D01*
X86132381Y-98746109D02*
X86084762Y-98817538D01*
X86084762Y-98817538D02*
X86037143Y-98865157D01*
X86037143Y-98865157D02*
X85989524Y-98888966D01*
X86751428Y-99246109D02*
X86465714Y-99246109D01*
X86608571Y-99246109D02*
X86608571Y-98746109D01*
X86608571Y-98746109D02*
X86560952Y-98817538D01*
X86560952Y-98817538D02*
X86513333Y-98865157D01*
X86513333Y-98865157D02*
X86465714Y-98888966D01*
D10*
X171583333Y-100204819D02*
X171250000Y-99728628D01*
X171011905Y-100204819D02*
X171011905Y-99204819D01*
X171011905Y-99204819D02*
X171392857Y-99204819D01*
X171392857Y-99204819D02*
X171488095Y-99252438D01*
X171488095Y-99252438D02*
X171535714Y-99300057D01*
X171535714Y-99300057D02*
X171583333Y-99395295D01*
X171583333Y-99395295D02*
X171583333Y-99538152D01*
X171583333Y-99538152D02*
X171535714Y-99633390D01*
X171535714Y-99633390D02*
X171488095Y-99681009D01*
X171488095Y-99681009D02*
X171392857Y-99728628D01*
X171392857Y-99728628D02*
X171011905Y-99728628D01*
X171964286Y-99300057D02*
X172011905Y-99252438D01*
X172011905Y-99252438D02*
X172107143Y-99204819D01*
X172107143Y-99204819D02*
X172345238Y-99204819D01*
X172345238Y-99204819D02*
X172440476Y-99252438D01*
X172440476Y-99252438D02*
X172488095Y-99300057D01*
X172488095Y-99300057D02*
X172535714Y-99395295D01*
X172535714Y-99395295D02*
X172535714Y-99490533D01*
X172535714Y-99490533D02*
X172488095Y-99633390D01*
X172488095Y-99633390D02*
X171916667Y-100204819D01*
X171916667Y-100204819D02*
X172535714Y-100204819D01*
D11*
X91945518Y-83662762D02*
X90675518Y-83662762D01*
X91824565Y-82332285D02*
X91885042Y-82392761D01*
X91885042Y-82392761D02*
X91945518Y-82574190D01*
X91945518Y-82574190D02*
X91945518Y-82695142D01*
X91945518Y-82695142D02*
X91885042Y-82876571D01*
X91885042Y-82876571D02*
X91764089Y-82997523D01*
X91764089Y-82997523D02*
X91643137Y-83058000D01*
X91643137Y-83058000D02*
X91401232Y-83118476D01*
X91401232Y-83118476D02*
X91219803Y-83118476D01*
X91219803Y-83118476D02*
X90977899Y-83058000D01*
X90977899Y-83058000D02*
X90856946Y-82997523D01*
X90856946Y-82997523D02*
X90735994Y-82876571D01*
X90735994Y-82876571D02*
X90675518Y-82695142D01*
X90675518Y-82695142D02*
X90675518Y-82574190D01*
X90675518Y-82574190D02*
X90735994Y-82392761D01*
X90735994Y-82392761D02*
X90796470Y-82332285D01*
X91219803Y-81606571D02*
X91159327Y-81727523D01*
X91159327Y-81727523D02*
X91098851Y-81788000D01*
X91098851Y-81788000D02*
X90977899Y-81848476D01*
X90977899Y-81848476D02*
X90917422Y-81848476D01*
X90917422Y-81848476D02*
X90796470Y-81788000D01*
X90796470Y-81788000D02*
X90735994Y-81727523D01*
X90735994Y-81727523D02*
X90675518Y-81606571D01*
X90675518Y-81606571D02*
X90675518Y-81364666D01*
X90675518Y-81364666D02*
X90735994Y-81243714D01*
X90735994Y-81243714D02*
X90796470Y-81183238D01*
X90796470Y-81183238D02*
X90917422Y-81122761D01*
X90917422Y-81122761D02*
X90977899Y-81122761D01*
X90977899Y-81122761D02*
X91098851Y-81183238D01*
X91098851Y-81183238D02*
X91159327Y-81243714D01*
X91159327Y-81243714D02*
X91219803Y-81364666D01*
X91219803Y-81364666D02*
X91219803Y-81606571D01*
X91219803Y-81606571D02*
X91280280Y-81727523D01*
X91280280Y-81727523D02*
X91340756Y-81788000D01*
X91340756Y-81788000D02*
X91461708Y-81848476D01*
X91461708Y-81848476D02*
X91703613Y-81848476D01*
X91703613Y-81848476D02*
X91824565Y-81788000D01*
X91824565Y-81788000D02*
X91885042Y-81727523D01*
X91885042Y-81727523D02*
X91945518Y-81606571D01*
X91945518Y-81606571D02*
X91945518Y-81364666D01*
X91945518Y-81364666D02*
X91885042Y-81243714D01*
X91885042Y-81243714D02*
X91824565Y-81183238D01*
X91824565Y-81183238D02*
X91703613Y-81122761D01*
X91703613Y-81122761D02*
X91461708Y-81122761D01*
X91461708Y-81122761D02*
X91340756Y-81183238D01*
X91340756Y-81183238D02*
X91280280Y-81243714D01*
X91280280Y-81243714D02*
X91219803Y-81364666D01*
D12*
X114628490Y-84629523D02*
X114652300Y-84653332D01*
X114652300Y-84653332D02*
X114676109Y-84724761D01*
X114676109Y-84724761D02*
X114676109Y-84772380D01*
X114676109Y-84772380D02*
X114652300Y-84843808D01*
X114652300Y-84843808D02*
X114604680Y-84891427D01*
X114604680Y-84891427D02*
X114557061Y-84915237D01*
X114557061Y-84915237D02*
X114461823Y-84939046D01*
X114461823Y-84939046D02*
X114390395Y-84939046D01*
X114390395Y-84939046D02*
X114295157Y-84915237D01*
X114295157Y-84915237D02*
X114247538Y-84891427D01*
X114247538Y-84891427D02*
X114199919Y-84843808D01*
X114199919Y-84843808D02*
X114176109Y-84772380D01*
X114176109Y-84772380D02*
X114176109Y-84724761D01*
X114176109Y-84724761D02*
X114199919Y-84653332D01*
X114199919Y-84653332D02*
X114223728Y-84629523D01*
X114676109Y-84415237D02*
X114176109Y-84415237D01*
X114366585Y-84415237D02*
X114342776Y-84367618D01*
X114342776Y-84367618D02*
X114342776Y-84272380D01*
X114342776Y-84272380D02*
X114366585Y-84224761D01*
X114366585Y-84224761D02*
X114390395Y-84200951D01*
X114390395Y-84200951D02*
X114438014Y-84177142D01*
X114438014Y-84177142D02*
X114580871Y-84177142D01*
X114580871Y-84177142D02*
X114628490Y-84200951D01*
X114628490Y-84200951D02*
X114652300Y-84224761D01*
X114652300Y-84224761D02*
X114676109Y-84272380D01*
X114676109Y-84272380D02*
X114676109Y-84367618D01*
X114676109Y-84367618D02*
X114652300Y-84415237D01*
X114176109Y-84010475D02*
X114176109Y-83700951D01*
X114176109Y-83700951D02*
X114366585Y-83867618D01*
X114366585Y-83867618D02*
X114366585Y-83796189D01*
X114366585Y-83796189D02*
X114390395Y-83748570D01*
X114390395Y-83748570D02*
X114414204Y-83724761D01*
X114414204Y-83724761D02*
X114461823Y-83700951D01*
X114461823Y-83700951D02*
X114580871Y-83700951D01*
X114580871Y-83700951D02*
X114628490Y-83724761D01*
X114628490Y-83724761D02*
X114652300Y-83748570D01*
X114652300Y-83748570D02*
X114676109Y-83796189D01*
X114676109Y-83796189D02*
X114676109Y-83939046D01*
X114676109Y-83939046D02*
X114652300Y-83986665D01*
X114652300Y-83986665D02*
X114628490Y-84010475D01*
X127748333Y-100811109D02*
X127748333Y-101168252D01*
X127748333Y-101168252D02*
X127724524Y-101239680D01*
X127724524Y-101239680D02*
X127676905Y-101287300D01*
X127676905Y-101287300D02*
X127605476Y-101311109D01*
X127605476Y-101311109D02*
X127557857Y-101311109D01*
X127986428Y-101311109D02*
X127986428Y-100811109D01*
X127986428Y-100811109D02*
X128176904Y-100811109D01*
X128176904Y-100811109D02*
X128224523Y-100834919D01*
X128224523Y-100834919D02*
X128248333Y-100858728D01*
X128248333Y-100858728D02*
X128272142Y-100906347D01*
X128272142Y-100906347D02*
X128272142Y-100977776D01*
X128272142Y-100977776D02*
X128248333Y-101025395D01*
X128248333Y-101025395D02*
X128224523Y-101049204D01*
X128224523Y-101049204D02*
X128176904Y-101073014D01*
X128176904Y-101073014D02*
X127986428Y-101073014D01*
X128438809Y-100811109D02*
X128748333Y-100811109D01*
X128748333Y-100811109D02*
X128581666Y-101001585D01*
X128581666Y-101001585D02*
X128653095Y-101001585D01*
X128653095Y-101001585D02*
X128700714Y-101025395D01*
X128700714Y-101025395D02*
X128724523Y-101049204D01*
X128724523Y-101049204D02*
X128748333Y-101096823D01*
X128748333Y-101096823D02*
X128748333Y-101215871D01*
X128748333Y-101215871D02*
X128724523Y-101263490D01*
X128724523Y-101263490D02*
X128700714Y-101287300D01*
X128700714Y-101287300D02*
X128653095Y-101311109D01*
X128653095Y-101311109D02*
X128510238Y-101311109D01*
X128510238Y-101311109D02*
X128462619Y-101287300D01*
X128462619Y-101287300D02*
X128438809Y-101263490D01*
D10*
X111199633Y-102276820D02*
X110866300Y-101800629D01*
X110628205Y-102276820D02*
X110628205Y-101276820D01*
X110628205Y-101276820D02*
X111009157Y-101276820D01*
X111009157Y-101276820D02*
X111104395Y-101324439D01*
X111104395Y-101324439D02*
X111152014Y-101372058D01*
X111152014Y-101372058D02*
X111199633Y-101467296D01*
X111199633Y-101467296D02*
X111199633Y-101610153D01*
X111199633Y-101610153D02*
X111152014Y-101705391D01*
X111152014Y-101705391D02*
X111104395Y-101753010D01*
X111104395Y-101753010D02*
X111009157Y-101800629D01*
X111009157Y-101800629D02*
X110628205Y-101800629D01*
X112056776Y-101610153D02*
X112056776Y-102276820D01*
X111818681Y-101229201D02*
X111580586Y-101943486D01*
X111580586Y-101943486D02*
X112199633Y-101943486D01*
X109931200Y-97689420D02*
X109931200Y-97927515D01*
X109693105Y-97832277D02*
X109931200Y-97927515D01*
X109931200Y-97927515D02*
X110169295Y-97832277D01*
X109788343Y-98117991D02*
X109931200Y-97927515D01*
X109931200Y-97927515D02*
X110074057Y-98117991D01*
X109931200Y-97689420D02*
X109931200Y-97927515D01*
X109693105Y-97832277D02*
X109931200Y-97927515D01*
X109931200Y-97927515D02*
X110169295Y-97832277D01*
X109788343Y-98117991D02*
X109931200Y-97927515D01*
X109931200Y-97927515D02*
X110074057Y-98117991D01*
D11*
X171815118Y-83815162D02*
X170545118Y-83815162D01*
X171694165Y-82484685D02*
X171754642Y-82545161D01*
X171754642Y-82545161D02*
X171815118Y-82726590D01*
X171815118Y-82726590D02*
X171815118Y-82847542D01*
X171815118Y-82847542D02*
X171754642Y-83028971D01*
X171754642Y-83028971D02*
X171633689Y-83149923D01*
X171633689Y-83149923D02*
X171512737Y-83210400D01*
X171512737Y-83210400D02*
X171270832Y-83270876D01*
X171270832Y-83270876D02*
X171089403Y-83270876D01*
X171089403Y-83270876D02*
X170847499Y-83210400D01*
X170847499Y-83210400D02*
X170726546Y-83149923D01*
X170726546Y-83149923D02*
X170605594Y-83028971D01*
X170605594Y-83028971D02*
X170545118Y-82847542D01*
X170545118Y-82847542D02*
X170545118Y-82726590D01*
X170545118Y-82726590D02*
X170605594Y-82545161D01*
X170605594Y-82545161D02*
X170666070Y-82484685D01*
X170545118Y-82061352D02*
X170545118Y-81275161D01*
X170545118Y-81275161D02*
X171028927Y-81698495D01*
X171028927Y-81698495D02*
X171028927Y-81517066D01*
X171028927Y-81517066D02*
X171089403Y-81396114D01*
X171089403Y-81396114D02*
X171149880Y-81335638D01*
X171149880Y-81335638D02*
X171270832Y-81275161D01*
X171270832Y-81275161D02*
X171573213Y-81275161D01*
X171573213Y-81275161D02*
X171694165Y-81335638D01*
X171694165Y-81335638D02*
X171754642Y-81396114D01*
X171754642Y-81396114D02*
X171815118Y-81517066D01*
X171815118Y-81517066D02*
X171815118Y-81879923D01*
X171815118Y-81879923D02*
X171754642Y-82000876D01*
X171754642Y-82000876D02*
X171694165Y-82061352D01*
D12*
X97503490Y-85309523D02*
X97527300Y-85333332D01*
X97527300Y-85333332D02*
X97551109Y-85404761D01*
X97551109Y-85404761D02*
X97551109Y-85452380D01*
X97551109Y-85452380D02*
X97527300Y-85523808D01*
X97527300Y-85523808D02*
X97479680Y-85571427D01*
X97479680Y-85571427D02*
X97432061Y-85595237D01*
X97432061Y-85595237D02*
X97336823Y-85619046D01*
X97336823Y-85619046D02*
X97265395Y-85619046D01*
X97265395Y-85619046D02*
X97170157Y-85595237D01*
X97170157Y-85595237D02*
X97122538Y-85571427D01*
X97122538Y-85571427D02*
X97074919Y-85523808D01*
X97074919Y-85523808D02*
X97051109Y-85452380D01*
X97051109Y-85452380D02*
X97051109Y-85404761D01*
X97051109Y-85404761D02*
X97074919Y-85333332D01*
X97074919Y-85333332D02*
X97098728Y-85309523D01*
X97551109Y-85095237D02*
X97051109Y-85095237D01*
X97241585Y-85095237D02*
X97217776Y-85047618D01*
X97217776Y-85047618D02*
X97217776Y-84952380D01*
X97217776Y-84952380D02*
X97241585Y-84904761D01*
X97241585Y-84904761D02*
X97265395Y-84880951D01*
X97265395Y-84880951D02*
X97313014Y-84857142D01*
X97313014Y-84857142D02*
X97455871Y-84857142D01*
X97455871Y-84857142D02*
X97503490Y-84880951D01*
X97503490Y-84880951D02*
X97527300Y-84904761D01*
X97527300Y-84904761D02*
X97551109Y-84952380D01*
X97551109Y-84952380D02*
X97551109Y-85047618D01*
X97551109Y-85047618D02*
X97527300Y-85095237D01*
X97217776Y-84428570D02*
X97551109Y-84428570D01*
X97027300Y-84547618D02*
X97384442Y-84666665D01*
X97384442Y-84666665D02*
X97384442Y-84357142D01*
X129868490Y-82216190D02*
X129892300Y-82239999D01*
X129892300Y-82239999D02*
X129916109Y-82311428D01*
X129916109Y-82311428D02*
X129916109Y-82359047D01*
X129916109Y-82359047D02*
X129892300Y-82430475D01*
X129892300Y-82430475D02*
X129844680Y-82478094D01*
X129844680Y-82478094D02*
X129797061Y-82501904D01*
X129797061Y-82501904D02*
X129701823Y-82525713D01*
X129701823Y-82525713D02*
X129630395Y-82525713D01*
X129630395Y-82525713D02*
X129535157Y-82501904D01*
X129535157Y-82501904D02*
X129487538Y-82478094D01*
X129487538Y-82478094D02*
X129439919Y-82430475D01*
X129439919Y-82430475D02*
X129416109Y-82359047D01*
X129416109Y-82359047D02*
X129416109Y-82311428D01*
X129416109Y-82311428D02*
X129439919Y-82239999D01*
X129439919Y-82239999D02*
X129463728Y-82216190D01*
X129582776Y-82073332D02*
X129582776Y-81882856D01*
X129916109Y-82001904D02*
X129487538Y-82001904D01*
X129487538Y-82001904D02*
X129439919Y-81978094D01*
X129439919Y-81978094D02*
X129416109Y-81930475D01*
X129416109Y-81930475D02*
X129416109Y-81882856D01*
X129416109Y-81478095D02*
X129416109Y-81716190D01*
X129416109Y-81716190D02*
X129654204Y-81739999D01*
X129654204Y-81739999D02*
X129630395Y-81716190D01*
X129630395Y-81716190D02*
X129606585Y-81668571D01*
X129606585Y-81668571D02*
X129606585Y-81549523D01*
X129606585Y-81549523D02*
X129630395Y-81501904D01*
X129630395Y-81501904D02*
X129654204Y-81478095D01*
X129654204Y-81478095D02*
X129701823Y-81454285D01*
X129701823Y-81454285D02*
X129820871Y-81454285D01*
X129820871Y-81454285D02*
X129868490Y-81478095D01*
X129868490Y-81478095D02*
X129892300Y-81501904D01*
X129892300Y-81501904D02*
X129916109Y-81549523D01*
X129916109Y-81549523D02*
X129916109Y-81668571D01*
X129916109Y-81668571D02*
X129892300Y-81716190D01*
X129892300Y-81716190D02*
X129868490Y-81739999D01*
D10*
X145699276Y-96354818D02*
X145699276Y-97069103D01*
X145699276Y-97069103D02*
X145651657Y-97211960D01*
X145651657Y-97211960D02*
X145556419Y-97307199D01*
X145556419Y-97307199D02*
X145413562Y-97354818D01*
X145413562Y-97354818D02*
X145318324Y-97354818D01*
X146699276Y-97354818D02*
X146127848Y-97354818D01*
X146413562Y-97354818D02*
X146413562Y-96354818D01*
X146413562Y-96354818D02*
X146318324Y-96497675D01*
X146318324Y-96497675D02*
X146223086Y-96592913D01*
X146223086Y-96592913D02*
X146127848Y-96640532D01*
X147032610Y-96354818D02*
X147651657Y-96354818D01*
X147651657Y-96354818D02*
X147318324Y-96735770D01*
X147318324Y-96735770D02*
X147461181Y-96735770D01*
X147461181Y-96735770D02*
X147556419Y-96783389D01*
X147556419Y-96783389D02*
X147604038Y-96831008D01*
X147604038Y-96831008D02*
X147651657Y-96926246D01*
X147651657Y-96926246D02*
X147651657Y-97164341D01*
X147651657Y-97164341D02*
X147604038Y-97259579D01*
X147604038Y-97259579D02*
X147556419Y-97307199D01*
X147556419Y-97307199D02*
X147461181Y-97354818D01*
X147461181Y-97354818D02*
X147175467Y-97354818D01*
X147175467Y-97354818D02*
X147080229Y-97307199D01*
X147080229Y-97307199D02*
X147032610Y-97259579D01*
X136923676Y-96354818D02*
X136923676Y-97069103D01*
X136923676Y-97069103D02*
X136876057Y-97211960D01*
X136876057Y-97211960D02*
X136780819Y-97307199D01*
X136780819Y-97307199D02*
X136637962Y-97354818D01*
X136637962Y-97354818D02*
X136542724Y-97354818D01*
X137923676Y-97354818D02*
X137352248Y-97354818D01*
X137637962Y-97354818D02*
X137637962Y-96354818D01*
X137637962Y-96354818D02*
X137542724Y-96497675D01*
X137542724Y-96497675D02*
X137447486Y-96592913D01*
X137447486Y-96592913D02*
X137352248Y-96640532D01*
X138304629Y-96450056D02*
X138352248Y-96402437D01*
X138352248Y-96402437D02*
X138447486Y-96354818D01*
X138447486Y-96354818D02*
X138685581Y-96354818D01*
X138685581Y-96354818D02*
X138780819Y-96402437D01*
X138780819Y-96402437D02*
X138828438Y-96450056D01*
X138828438Y-96450056D02*
X138876057Y-96545294D01*
X138876057Y-96545294D02*
X138876057Y-96640532D01*
X138876057Y-96640532D02*
X138828438Y-96783389D01*
X138828438Y-96783389D02*
X138257010Y-97354818D01*
X138257010Y-97354818D02*
X138876057Y-97354818D01*
D12*
X112253733Y-55402909D02*
X112253733Y-55760052D01*
X112253733Y-55760052D02*
X112229924Y-55831480D01*
X112229924Y-55831480D02*
X112182305Y-55879100D01*
X112182305Y-55879100D02*
X112110876Y-55902909D01*
X112110876Y-55902909D02*
X112063257Y-55902909D01*
X112444209Y-55402909D02*
X112777542Y-55402909D01*
X112777542Y-55402909D02*
X112563257Y-55902909D01*
X162168490Y-82296190D02*
X162192300Y-82319999D01*
X162192300Y-82319999D02*
X162216109Y-82391428D01*
X162216109Y-82391428D02*
X162216109Y-82439047D01*
X162216109Y-82439047D02*
X162192300Y-82510475D01*
X162192300Y-82510475D02*
X162144680Y-82558094D01*
X162144680Y-82558094D02*
X162097061Y-82581904D01*
X162097061Y-82581904D02*
X162001823Y-82605713D01*
X162001823Y-82605713D02*
X161930395Y-82605713D01*
X161930395Y-82605713D02*
X161835157Y-82581904D01*
X161835157Y-82581904D02*
X161787538Y-82558094D01*
X161787538Y-82558094D02*
X161739919Y-82510475D01*
X161739919Y-82510475D02*
X161716109Y-82439047D01*
X161716109Y-82439047D02*
X161716109Y-82391428D01*
X161716109Y-82391428D02*
X161739919Y-82319999D01*
X161739919Y-82319999D02*
X161763728Y-82296190D01*
X161882776Y-82153332D02*
X161882776Y-81962856D01*
X162216109Y-82081904D02*
X161787538Y-82081904D01*
X161787538Y-82081904D02*
X161739919Y-82058094D01*
X161739919Y-82058094D02*
X161716109Y-82010475D01*
X161716109Y-82010475D02*
X161716109Y-81962856D01*
X161716109Y-81581904D02*
X161716109Y-81677142D01*
X161716109Y-81677142D02*
X161739919Y-81724761D01*
X161739919Y-81724761D02*
X161763728Y-81748571D01*
X161763728Y-81748571D02*
X161835157Y-81796190D01*
X161835157Y-81796190D02*
X161930395Y-81819999D01*
X161930395Y-81819999D02*
X162120871Y-81819999D01*
X162120871Y-81819999D02*
X162168490Y-81796190D01*
X162168490Y-81796190D02*
X162192300Y-81772380D01*
X162192300Y-81772380D02*
X162216109Y-81724761D01*
X162216109Y-81724761D02*
X162216109Y-81629523D01*
X162216109Y-81629523D02*
X162192300Y-81581904D01*
X162192300Y-81581904D02*
X162168490Y-81558095D01*
X162168490Y-81558095D02*
X162120871Y-81534285D01*
X162120871Y-81534285D02*
X162001823Y-81534285D01*
X162001823Y-81534285D02*
X161954204Y-81558095D01*
X161954204Y-81558095D02*
X161930395Y-81581904D01*
X161930395Y-81581904D02*
X161906585Y-81629523D01*
X161906585Y-81629523D02*
X161906585Y-81724761D01*
X161906585Y-81724761D02*
X161930395Y-81772380D01*
X161930395Y-81772380D02*
X161954204Y-81796190D01*
X161954204Y-81796190D02*
X162001823Y-81819999D01*
D13*
%TO.C,IC5*%
X137369200Y-80074600D02*
X140369200Y-80074600D01*
X137369200Y-84974600D02*
X140369200Y-84974600D01*
D12*
X143069200Y-84429600D02*
X143069200Y-84429600D01*
X143069200Y-84524600D02*
X143069200Y-84524600D01*
X143069200Y-84429600D02*
G75*
G02*
X143069200Y-84524600I0J-47500D01*
G01*
X143069200Y-84524600D02*
G75*
G02*
X143069200Y-84429600I0J47500D01*
G01*
D14*
%TO.C,Cf1*%
X197111252Y-81611800D02*
X196588748Y-81611800D01*
X197111252Y-83081800D02*
X196588748Y-83081800D01*
D13*
%TO.C,IC7*%
X105072400Y-80023800D02*
X108072400Y-80023800D01*
X105072400Y-84923800D02*
X108072400Y-84923800D01*
D12*
X110772400Y-84378800D02*
X110772400Y-84378800D01*
X110772400Y-84473800D02*
X110772400Y-84473800D01*
X110772400Y-84378800D02*
G75*
G02*
X110772400Y-84473800I0J-47500D01*
G01*
X110772400Y-84473800D02*
G75*
G02*
X110772400Y-84378800I0J47500D01*
G01*
D14*
%TO.C,R1*%
X99585000Y-101082936D02*
X99585000Y-101537064D01*
X101055000Y-101082936D02*
X101055000Y-101537064D01*
%TO.C,JP2*%
X122090000Y-104470000D02*
X122090000Y-103070000D01*
X122790000Y-102370000D02*
X123390000Y-102370000D01*
X123390000Y-105170000D02*
X122790000Y-105170000D01*
X124090000Y-103070000D02*
X124090000Y-104470000D01*
X122090000Y-103070000D02*
G75*
G02*
X122790000Y-102370000I700000J0D01*
G01*
X122790000Y-105170000D02*
G75*
G02*
X122090000Y-104470000I-1J699999D01*
G01*
X123390000Y-102370000D02*
G75*
G02*
X124090000Y-103070000I0J-700000D01*
G01*
X124090000Y-104470000D02*
G75*
G02*
X123390000Y-105170000I-699999J-1D01*
G01*
%TO.C,Cf3*%
X117202852Y-81357800D02*
X116680348Y-81357800D01*
X117202852Y-82827800D02*
X116680348Y-82827800D01*
%TO.C,J4*%
X183910000Y-111840000D02*
X183910000Y-97530000D01*
X186120000Y-94320000D02*
X185450000Y-94320000D01*
X193060000Y-94320000D02*
X190270000Y-94320000D01*
X198080000Y-94320000D02*
X197680000Y-94320000D01*
X199630000Y-111840000D02*
X183910000Y-111840000D01*
X199630000Y-111840000D02*
X199630000Y-97530000D01*
X183910000Y-97530000D02*
G75*
G02*
X185450253Y-94322431I4110000J0D01*
G01*
X198088715Y-94321605D02*
G75*
G02*
X199630000Y-97530000I-2568716J-3208396D01*
G01*
%TO.C,Cf8*%
X84843252Y-81357800D02*
X84320748Y-81357800D01*
X84843252Y-82827800D02*
X84320748Y-82827800D01*
%TO.C,U2*%
X171787500Y-93385000D02*
X170287500Y-93385000D01*
X171787500Y-93385000D02*
X173287500Y-93385000D01*
X171787500Y-96605000D02*
X170287500Y-96605000D01*
X171787500Y-96605000D02*
X173287500Y-96605000D01*
X169575000Y-93560000D02*
X169335000Y-93230000D01*
X169815000Y-93230000D01*
X169575000Y-93560000D01*
G36*
X169575000Y-93560000D02*
G01*
X169335000Y-93230000D01*
X169815000Y-93230000D01*
X169575000Y-93560000D01*
G37*
D15*
%TO.C,J6*%
X179646000Y-53992000D02*
X179646000Y-77492000D01*
X179646000Y-77492000D02*
X210646000Y-77492000D01*
X210646000Y-53992000D02*
X179646000Y-53992000D01*
X210646000Y-77492000D02*
X210646000Y-53992000D01*
D13*
X206496000Y-78192000D02*
G75*
G02*
X206296000Y-78192000I-100000J0D01*
G01*
X206296000Y-78192000D02*
G75*
G02*
X206496000Y-78192000I100000J0D01*
G01*
D14*
%TO.C,Cb6*%
X164671552Y-83745400D02*
X164149048Y-83745400D01*
X164671552Y-85215400D02*
X164149048Y-85215400D01*
D15*
%TO.C,J18*%
X134170000Y-102780000D02*
X167070000Y-102780000D01*
X134170000Y-111880000D02*
X134170000Y-102780000D01*
X167070000Y-102780000D02*
X167070000Y-111880000D01*
X167070000Y-111880000D02*
X134170000Y-111880000D01*
D13*
X139290000Y-112480000D02*
G75*
G02*
X139090000Y-112480000I-100000J0D01*
G01*
X139090000Y-112480000D02*
G75*
G02*
X139290000Y-112480000I100000J0D01*
G01*
D14*
%TO.C,Cf11*%
X164841252Y-78055000D02*
X164318748Y-78055000D01*
X164841252Y-79525000D02*
X164318748Y-79525000D01*
%TO.C,Cf12*%
X145265000Y-79538748D02*
X145265000Y-80061252D01*
X146735000Y-79538748D02*
X146735000Y-80061252D01*
%TO.C,Cb2*%
X181435552Y-83694600D02*
X180913048Y-83694600D01*
X181435552Y-85164600D02*
X180913048Y-85164600D01*
%TO.C,Cb1*%
X197111252Y-83897800D02*
X196588748Y-83897800D01*
X197111252Y-85367800D02*
X196588748Y-85367800D01*
%TO.C,Cf7*%
X149257652Y-81307000D02*
X148735148Y-81307000D01*
X149257652Y-82777000D02*
X148735148Y-82777000D01*
D16*
%TO.C,J15*%
X160351600Y-91962999D02*
X160351600Y-93951632D01*
X160351600Y-94948367D02*
X160351600Y-100979999D01*
X160351600Y-100979999D02*
X167768400Y-100979999D01*
X167768400Y-91962999D02*
X160351600Y-91962999D01*
X167768400Y-93951632D02*
X167768400Y-91962999D01*
X167768400Y-100979999D02*
X167768400Y-94948367D01*
D13*
%TO.C,IC6*%
X122281600Y-80074600D02*
X125281600Y-80074600D01*
X122281600Y-84974600D02*
X125281600Y-84974600D01*
D12*
X127981600Y-84429600D02*
X127981600Y-84429600D01*
X127981600Y-84524600D02*
X127981600Y-84524600D01*
X127981600Y-84429600D02*
G75*
G02*
X127981600Y-84524600I0J-47500D01*
G01*
X127981600Y-84524600D02*
G75*
G02*
X127981600Y-84429600I0J47500D01*
G01*
D16*
%TO.C,J10*%
X82210000Y-88841600D02*
X82210000Y-96258400D01*
X82210000Y-96258400D02*
X88241632Y-96258400D01*
X88241632Y-88841600D02*
X82210000Y-88841600D01*
X89238367Y-96258400D02*
X91227000Y-96258400D01*
X91227000Y-88841600D02*
X89238367Y-88841600D01*
X91227000Y-96258400D02*
X91227000Y-88841600D01*
D13*
%TO.C,IC4*%
X154754800Y-80125400D02*
X157754800Y-80125400D01*
X154754800Y-85025400D02*
X157754800Y-85025400D01*
D12*
X160454800Y-84480400D02*
X160454800Y-84480400D01*
X160454800Y-84575400D02*
X160454800Y-84575400D01*
X160454800Y-84480400D02*
G75*
G02*
X160454800Y-84575400I0J-47500D01*
G01*
X160454800Y-84575400D02*
G75*
G02*
X160454800Y-84480400I0J47500D01*
G01*
D14*
%TO.C,Cb7*%
X149359252Y-83643800D02*
X148836748Y-83643800D01*
X149359252Y-85113800D02*
X148836748Y-85113800D01*
%TO.C,JP1*%
X118260000Y-104450000D02*
X118260000Y-103050000D01*
X118960000Y-102350000D02*
X119560000Y-102350000D01*
X119560000Y-105150000D02*
X118960000Y-105150000D01*
X120260000Y-103050000D02*
X120260000Y-104450000D01*
X118260000Y-103050000D02*
G75*
G02*
X118960000Y-102350000I700000J0D01*
G01*
X118960000Y-105150000D02*
G75*
G02*
X118260000Y-104450000I-1J699999D01*
G01*
X119560000Y-102350000D02*
G75*
G02*
X120260000Y-103050000I0J-700000D01*
G01*
X120260000Y-104450000D02*
G75*
G02*
X119560000Y-105150000I-699999J-1D01*
G01*
%TO.C,Cf14*%
X117186252Y-78290000D02*
X116663748Y-78290000D01*
X117186252Y-79760000D02*
X116663748Y-79760000D01*
%TO.C,Cf2*%
X181414052Y-81459400D02*
X180891548Y-81459400D01*
X181414052Y-82929400D02*
X180891548Y-82929400D01*
%TO.C,LED1*%
X82100000Y-105740000D02*
X82300000Y-105740000D01*
X82100000Y-111910000D02*
X82100000Y-105740000D01*
X83110000Y-111910000D02*
X82100000Y-111910000D01*
X87320000Y-105740000D02*
X87120000Y-105740000D01*
X87320000Y-110960000D02*
X87130000Y-110960000D01*
X87320000Y-110960000D02*
X87320000Y-105740000D01*
D16*
%TO.C,R3*%
X107514704Y-98473800D02*
X108314096Y-98473800D01*
X107514704Y-105128600D02*
X108314096Y-105128600D01*
D15*
%TO.C,J2*%
X114862000Y-53992000D02*
X114862000Y-77492000D01*
X114862000Y-77492000D02*
X145862000Y-77492000D01*
X145862000Y-53992000D02*
X114862000Y-53992000D01*
X145862000Y-77492000D02*
X145862000Y-53992000D01*
D13*
X141712000Y-78192000D02*
G75*
G02*
X141512000Y-78192000I-100000J0D01*
G01*
X141512000Y-78192000D02*
G75*
G02*
X141712000Y-78192000I100000J0D01*
G01*
D16*
%TO.C,J17*%
X201192999Y-87671600D02*
X201192999Y-95088400D01*
X201192999Y-95088400D02*
X203181632Y-95088400D01*
X203181632Y-87671600D02*
X201192999Y-87671600D01*
X204178367Y-95088400D02*
X210209999Y-95088400D01*
X210209999Y-87671600D02*
X204178367Y-87671600D01*
X210209999Y-95088400D02*
X210209999Y-87671600D01*
D14*
%TO.C,Cf13*%
X132361252Y-78340000D02*
X131838748Y-78340000D01*
X132361252Y-79810000D02*
X131838748Y-79810000D01*
D16*
%TO.C,J16*%
X201192999Y-95801600D02*
X201192999Y-103218400D01*
X201192999Y-103218400D02*
X203181632Y-103218400D01*
X203181632Y-95801600D02*
X201192999Y-95801600D01*
X204178367Y-103218400D02*
X210209999Y-103218400D01*
X210209999Y-95801600D02*
X204178367Y-95801600D01*
X210209999Y-103218400D02*
X210209999Y-95801600D01*
D14*
%TO.C,J9*%
X103960000Y-96962000D02*
X103960000Y-95632000D01*
X105290000Y-96962000D02*
X103960000Y-96962000D01*
X106560000Y-94302000D02*
X124400000Y-94302000D01*
X106560000Y-96962000D02*
X106560000Y-94302000D01*
X106560000Y-96962000D02*
X124400000Y-96962000D01*
X124400000Y-96962000D02*
X124400000Y-94302000D01*
%TO.C,LED2*%
X88330000Y-105740000D02*
X88530000Y-105740000D01*
X88330000Y-111910000D02*
X88330000Y-105740000D01*
X89340000Y-111910000D02*
X88330000Y-111910000D01*
X93550000Y-105740000D02*
X93350000Y-105740000D01*
X93550000Y-110960000D02*
X93360000Y-110960000D01*
X93550000Y-110960000D02*
X93550000Y-105740000D01*
%TO.C,Cf10*%
X181493752Y-78405000D02*
X180971248Y-78405000D01*
X181493752Y-79875000D02*
X180971248Y-79875000D01*
%TO.C,Cb8*%
X84864752Y-83643800D02*
X84342248Y-83643800D01*
X84864752Y-85113800D02*
X84342248Y-85113800D01*
%TO.C,U1*%
X95880000Y-99625000D02*
X94380000Y-99625000D01*
X95880000Y-99625000D02*
X97380000Y-99625000D01*
X95880000Y-102845000D02*
X94380000Y-102845000D01*
X95880000Y-102845000D02*
X97380000Y-102845000D01*
X93667500Y-99800000D02*
X93427500Y-99470000D01*
X93907500Y-99470000D01*
X93667500Y-99800000D01*
G36*
X93667500Y-99800000D02*
G01*
X93427500Y-99470000D01*
X93907500Y-99470000D01*
X93667500Y-99800000D01*
G37*
%TO.C,Cb5*%
X132362752Y-83643800D02*
X131840248Y-83643800D01*
X132362752Y-85113800D02*
X131840248Y-85113800D01*
D13*
%TO.C,IC2*%
X187051600Y-80125400D02*
X190051600Y-80125400D01*
X187051600Y-85025400D02*
X190051600Y-85025400D01*
D12*
X192751600Y-84480400D02*
X192751600Y-84480400D01*
X192751600Y-84575400D02*
X192751600Y-84575400D01*
X192751600Y-84480400D02*
G75*
G02*
X192751600Y-84575400I0J-47500D01*
G01*
X192751600Y-84575400D02*
G75*
G02*
X192751600Y-84480400I0J47500D01*
G01*
D14*
%TO.C,Cf4*%
X100032452Y-82170600D02*
X99509948Y-82170600D01*
X100032452Y-83640600D02*
X99509948Y-83640600D01*
%TO.C,Cf15*%
X100061252Y-78390000D02*
X99538748Y-78390000D01*
X100061252Y-79860000D02*
X99538748Y-79860000D01*
D13*
%TO.C,IC1*%
X202151200Y-80227000D02*
X205151200Y-80227000D01*
X202151200Y-85127000D02*
X205151200Y-85127000D01*
D12*
X207851200Y-84582000D02*
X207851200Y-84582000D01*
X207851200Y-84677000D02*
X207851200Y-84677000D01*
X207851200Y-84582000D02*
G75*
G02*
X207851200Y-84677000I0J-47500D01*
G01*
X207851200Y-84677000D02*
G75*
G02*
X207851200Y-84582000I0J47500D01*
G01*
D14*
%TO.C,Cf16*%
X84861252Y-78265000D02*
X84338748Y-78265000D01*
X84861252Y-79735000D02*
X84338748Y-79735000D01*
D16*
%TO.C,J14*%
X151576000Y-91972999D02*
X151576000Y-93961632D01*
X151576000Y-94958367D02*
X151576000Y-100989999D01*
X151576000Y-100989999D02*
X158992800Y-100989999D01*
X158992800Y-91972999D02*
X151576000Y-91972999D01*
X158992800Y-93961632D02*
X158992800Y-91972999D01*
X158992800Y-100989999D02*
X158992800Y-94958367D01*
D15*
%TO.C,J1*%
X147235600Y-53992000D02*
X147235600Y-77492000D01*
X147235600Y-77492000D02*
X178235600Y-77492000D01*
X178235600Y-53992000D02*
X147235600Y-53992000D01*
X178235600Y-77492000D02*
X178235600Y-53992000D01*
D13*
X174085600Y-78192000D02*
G75*
G02*
X173885600Y-78192000I-100000J0D01*
G01*
X173885600Y-78192000D02*
G75*
G02*
X174085600Y-78192000I100000J0D01*
G01*
D16*
%TO.C,J11*%
X82210000Y-96881600D02*
X82210000Y-104298400D01*
X82210000Y-104298400D02*
X88241632Y-104298400D01*
X88241632Y-96881600D02*
X82210000Y-96881600D01*
X89238367Y-104298400D02*
X91227000Y-104298400D01*
X91227000Y-96881600D02*
X89238367Y-96881600D01*
X91227000Y-104298400D02*
X91227000Y-96881600D01*
D14*
%TO.C,R2*%
X171977064Y-97245000D02*
X171522936Y-97245000D01*
X171977064Y-98715000D02*
X171522936Y-98715000D01*
%TO.C,Cf9*%
X197143752Y-78265000D02*
X196621248Y-78265000D01*
X197143752Y-79735000D02*
X196621248Y-79735000D01*
D13*
%TO.C,IC8*%
X89871200Y-79973000D02*
X92871200Y-79973000D01*
X89871200Y-84873000D02*
X92871200Y-84873000D01*
D12*
X95571200Y-84328000D02*
X95571200Y-84328000D01*
X95571200Y-84423000D02*
X95571200Y-84423000D01*
X95571200Y-84328000D02*
G75*
G02*
X95571200Y-84423000I0J-47500D01*
G01*
X95571200Y-84423000D02*
G75*
G02*
X95571200Y-84328000I0J47500D01*
G01*
D14*
%TO.C,Cb3*%
X117202852Y-83643800D02*
X116680348Y-83643800D01*
X117202852Y-85113800D02*
X116680348Y-85113800D01*
%TO.C,JP3*%
X126300000Y-99680000D02*
X126300000Y-99080000D01*
X126850000Y-100880000D02*
X127450000Y-100880000D01*
X126950000Y-98380000D02*
X129750000Y-98380000D01*
X127150000Y-100580000D02*
X126850000Y-100880000D01*
X127150000Y-100580000D02*
X127450000Y-100880000D01*
X129750000Y-100380000D02*
X126950000Y-100380000D01*
X130400000Y-99080000D02*
X130400000Y-99680000D01*
X126300000Y-99080000D02*
G75*
G02*
X127000000Y-98380000I699999J1D01*
G01*
X127000000Y-100380000D02*
G75*
G02*
X126300000Y-99680000I-1J699999D01*
G01*
X129700000Y-98380000D02*
G75*
G02*
X130400000Y-99080000I0J-700000D01*
G01*
X130400000Y-99680000D02*
G75*
G02*
X129700000Y-100380000I-700000J0D01*
G01*
D16*
%TO.C,R4*%
X110966604Y-98494601D02*
X111765996Y-98494601D01*
X110966604Y-105149401D02*
X111765996Y-105149401D01*
D13*
%TO.C,IC3*%
X169740800Y-80125400D02*
X172740800Y-80125400D01*
X169740800Y-85025400D02*
X172740800Y-85025400D01*
D12*
X175440800Y-84480400D02*
X175440800Y-84480400D01*
X175440800Y-84575400D02*
X175440800Y-84575400D01*
X175440800Y-84480400D02*
G75*
G02*
X175440800Y-84575400I0J-47500D01*
G01*
X175440800Y-84575400D02*
G75*
G02*
X175440800Y-84480400I0J47500D01*
G01*
D14*
%TO.C,Cb4*%
X100104752Y-84304200D02*
X99582248Y-84304200D01*
X100104752Y-85774200D02*
X99582248Y-85774200D01*
%TO.C,Cf5*%
X132362752Y-81408600D02*
X131840248Y-81408600D01*
X132362752Y-82878600D02*
X131840248Y-82878600D01*
D16*
%TO.C,J13*%
X142800400Y-91972999D02*
X142800400Y-93961632D01*
X142800400Y-94958367D02*
X142800400Y-100989999D01*
X142800400Y-100989999D02*
X150217200Y-100989999D01*
X150217200Y-91972999D02*
X142800400Y-91972999D01*
X150217200Y-93961632D02*
X150217200Y-91972999D01*
X150217200Y-100989999D02*
X150217200Y-94958367D01*
%TO.C,J12*%
X134024800Y-91972999D02*
X134024800Y-93961632D01*
X134024800Y-94958367D02*
X134024800Y-100989999D01*
X134024800Y-100989999D02*
X141441600Y-100989999D01*
X141441600Y-91972999D02*
X134024800Y-91972999D01*
X141441600Y-93961632D02*
X141441600Y-91972999D01*
X141441600Y-100989999D02*
X141441600Y-94958367D01*
D15*
%TO.C,J7*%
X82502400Y-53839600D02*
X82502400Y-77339600D01*
X82502400Y-77339600D02*
X113502400Y-77339600D01*
X113502400Y-53839600D02*
X82502400Y-53839600D01*
X113502400Y-77339600D02*
X113502400Y-53839600D01*
D13*
X109352400Y-78039600D02*
G75*
G02*
X109152400Y-78039600I-100000J0D01*
G01*
X109152400Y-78039600D02*
G75*
G02*
X109352400Y-78039600I100000J0D01*
G01*
D14*
%TO.C,Cf6*%
X164599252Y-81408600D02*
X164076748Y-81408600D01*
X164599252Y-82878600D02*
X164076748Y-82878600D01*
%TO.C,J3*%
X103960000Y-109662000D02*
X103960000Y-108332000D01*
X105290000Y-109662000D02*
X103960000Y-109662000D01*
X106560000Y-107002000D02*
X124400000Y-107002000D01*
X106560000Y-109662000D02*
X106560000Y-107002000D01*
X106560000Y-109662000D02*
X124400000Y-109662000D01*
X124400000Y-109662000D02*
X124400000Y-107002000D01*
%TD*%
M02*
