%TF.GenerationSoftware,KiCad,Pcbnew,8.0.3*%
%TF.CreationDate,2024-11-15T02:32:15-08:00*%
%TF.ProjectId,Power_Distribution,506f7765-725f-4446-9973-747269627574,rev?*%
%TF.SameCoordinates,Original*%
%TF.FileFunction,Drillmap*%
%TF.FilePolarity,Positive*%
%FSLAX45Y45*%
G04 Gerber Fmt 4.5, Leading zero omitted, Abs format (unit mm)*
G04 Created by KiCad (PCBNEW 8.0.3) date 2024-11-15 02:32:15*
%MOMM*%
%LPD*%
G01*
G04 APERTURE LIST*
%ADD10C,0.100000*%
%ADD11C,0.200000*%
%ADD12C,0.172720*%
%ADD13C,0.210000*%
%ADD14C,0.220000*%
G04 APERTURE END LIST*
D10*
X14568154Y-8906776D02*
X30240624Y-8906776D01*
X30240624Y-14977646D01*
X14568154Y-14977646D01*
X14568154Y-8906776D01*
D11*
D10*
X15321600Y-11994200D02*
X15361600Y-12034200D01*
X15361600Y-11994200D02*
X15321600Y-12034200D01*
X15448600Y-12451400D02*
X15488600Y-12491400D01*
X15488600Y-12451400D02*
X15448600Y-12491400D01*
X15728000Y-11968800D02*
X15768000Y-12008800D01*
X15768000Y-11968800D02*
X15728000Y-12008800D01*
X15864382Y-12461841D02*
X15904382Y-12501841D01*
X15904382Y-12461841D02*
X15864382Y-12501841D01*
X16165610Y-11124241D02*
X16205610Y-11164241D01*
X16205610Y-11124241D02*
X16165610Y-11164241D01*
X16542500Y-12732500D02*
X16582500Y-12772500D01*
X16582500Y-12732500D02*
X16542500Y-12772500D01*
X16780000Y-11615000D02*
X16820000Y-11655000D01*
X16820000Y-11615000D02*
X16780000Y-11655000D01*
X16947200Y-11841800D02*
X16987200Y-11881800D01*
X16987200Y-11841800D02*
X16947200Y-11881800D01*
X17302800Y-11841800D02*
X17342800Y-11881800D01*
X17342800Y-11841800D02*
X17302800Y-11881800D01*
X17449020Y-11308022D02*
X17489020Y-11348022D01*
X17489020Y-11308022D02*
X17449020Y-11348022D01*
X17882500Y-12732500D02*
X17922500Y-12772500D01*
X17922500Y-12732500D02*
X17882500Y-12772500D01*
X18295000Y-11670000D02*
X18335000Y-11710000D01*
X18335000Y-11670000D02*
X18295000Y-11710000D01*
X18445800Y-12019600D02*
X18485800Y-12059600D01*
X18485800Y-12019600D02*
X18445800Y-12059600D01*
X18801400Y-11841800D02*
X18841400Y-11881800D01*
X18841400Y-11841800D02*
X18801400Y-11881800D01*
X18959452Y-11250885D02*
X18999452Y-11290885D01*
X18999452Y-11250885D02*
X18959452Y-11290885D01*
X19175000Y-12727500D02*
X19215000Y-12767500D01*
X19215000Y-12727500D02*
X19175000Y-12767500D01*
X19900000Y-11665000D02*
X19940000Y-11705000D01*
X19940000Y-11665000D02*
X19900000Y-11705000D01*
X19919000Y-11943400D02*
X19959000Y-11983400D01*
X19959000Y-11943400D02*
X19919000Y-11983400D01*
X20300000Y-11841800D02*
X20340000Y-11881800D01*
X20340000Y-11841800D02*
X20300000Y-11881800D01*
X20478517Y-11269949D02*
X20518517Y-11309949D01*
X20518517Y-11269949D02*
X20478517Y-11309949D01*
X20610000Y-12732500D02*
X20650000Y-12772500D01*
X20650000Y-12732500D02*
X20610000Y-12772500D01*
X21265200Y-12730800D02*
X21305200Y-12770800D01*
X21305200Y-12730800D02*
X21265200Y-12770800D01*
X21417600Y-11333800D02*
X21457600Y-11373800D01*
X21457600Y-11333800D02*
X21417600Y-11373800D01*
X23642500Y-12465000D02*
X23682500Y-12505000D01*
X23682500Y-12465000D02*
X23642500Y-12505000D01*
X23805200Y-11918000D02*
X23845200Y-11958000D01*
X23845200Y-11918000D02*
X23805200Y-11958000D01*
X23812500Y-11090000D02*
X23852500Y-11130000D01*
X23852500Y-11090000D02*
X23812500Y-11130000D01*
X24083045Y-12836433D02*
X24123045Y-12876433D01*
X24123045Y-12836433D02*
X24083045Y-12876433D01*
X24592600Y-11918000D02*
X24632600Y-11958000D01*
X24632600Y-11918000D02*
X24592600Y-11958000D01*
X24592600Y-12465000D02*
X24632600Y-12505000D01*
X24632600Y-12465000D02*
X24592600Y-12505000D01*
X25342500Y-12797500D02*
X25382500Y-12837500D01*
X25382500Y-12797500D02*
X25342500Y-12837500D01*
X25347500Y-12922500D02*
X25387500Y-12962500D01*
X25387500Y-12922500D02*
X25347500Y-12962500D01*
X25385000Y-11967500D02*
X25425000Y-12007500D01*
X25425000Y-11967500D02*
X25385000Y-12007500D01*
X25583200Y-12070400D02*
X25623200Y-12110400D01*
X25623200Y-12070400D02*
X25583200Y-12110400D01*
X25735600Y-12797500D02*
X25775600Y-12837500D01*
X25775600Y-12797500D02*
X25735600Y-12837500D01*
X25888000Y-12146600D02*
X25928000Y-12186600D01*
X25928000Y-12146600D02*
X25888000Y-12186600D01*
X26792500Y-12977500D02*
X26832500Y-13017500D01*
X26832500Y-12977500D02*
X26792500Y-13017500D01*
X26832500Y-12797500D02*
X26872500Y-12837500D01*
X26872500Y-12797500D02*
X26832500Y-12837500D01*
X26925000Y-12017500D02*
X26965000Y-12057500D01*
X26965000Y-12017500D02*
X26925000Y-12057500D01*
X27610120Y-12797500D02*
X27650120Y-12837500D01*
X27650120Y-12797500D02*
X27610120Y-12837500D01*
X27635520Y-12055160D02*
X27675520Y-12095160D01*
X27675520Y-12055160D02*
X27635520Y-12095160D01*
X28040000Y-12802500D02*
X28080000Y-12842500D01*
X28080000Y-12802500D02*
X28040000Y-12842500D01*
X28235000Y-12922500D02*
X28275000Y-12962500D01*
X28275000Y-12922500D02*
X28235000Y-12962500D01*
X28415000Y-11987500D02*
X28455000Y-12027500D01*
X28455000Y-11987500D02*
X28415000Y-12027500D01*
X15077500Y-13618000D02*
G75*
G02*
X14977500Y-13618000I-50000J0D01*
G01*
X14977500Y-13618000D02*
G75*
G02*
X15077500Y-13618000I50000J0D01*
G01*
X15077500Y-13872000D02*
G75*
G02*
X14977500Y-13872000I-50000J0D01*
G01*
X14977500Y-13872000D02*
G75*
G02*
X15077500Y-13872000I50000J0D01*
G01*
X15077500Y-14126000D02*
G75*
G02*
X14977500Y-14126000I-50000J0D01*
G01*
X14977500Y-14126000D02*
G75*
G02*
X15077500Y-14126000I50000J0D01*
G01*
X15077500Y-14380000D02*
G75*
G02*
X14977500Y-14380000I-50000J0D01*
G01*
X14977500Y-14380000D02*
G75*
G02*
X15077500Y-14380000I50000J0D01*
G01*
X29905000Y-13582500D02*
G75*
G02*
X29805000Y-13582500I-50000J0D01*
G01*
X29805000Y-13582500D02*
G75*
G02*
X29905000Y-13582500I50000J0D01*
G01*
X29905000Y-13836500D02*
G75*
G02*
X29805000Y-13836500I-50000J0D01*
G01*
X29805000Y-13836500D02*
G75*
G02*
X29905000Y-13836500I50000J0D01*
G01*
X29905000Y-14090500D02*
G75*
G02*
X29805000Y-14090500I-50000J0D01*
G01*
X29805000Y-14090500D02*
G75*
G02*
X29905000Y-14090500I50000J0D01*
G01*
X29905000Y-14344500D02*
G75*
G02*
X29805000Y-14344500I-50000J0D01*
G01*
X29805000Y-14344500D02*
G75*
G02*
X29905000Y-14344500I50000J0D01*
G01*
X29943300Y-11783600D02*
G75*
G02*
X29843300Y-11783600I-50000J0D01*
G01*
X29843300Y-11783600D02*
G75*
G02*
X29943300Y-11783600I50000J0D01*
G01*
X29943300Y-12037600D02*
G75*
G02*
X29843300Y-12037600I-50000J0D01*
G01*
X29843300Y-12037600D02*
G75*
G02*
X29943300Y-12037600I50000J0D01*
G01*
D12*
X21844000Y-13082640D02*
X21844000Y-13255360D01*
X21757640Y-13169000D02*
X21930360Y-13169000D01*
X21844000Y-14098640D02*
X21844000Y-14271360D01*
X21757640Y-14185000D02*
X21930360Y-14185000D01*
X22860000Y-13082640D02*
X22860000Y-13255360D01*
X22773640Y-13169000D02*
X22946360Y-13169000D01*
X22860000Y-14098640D02*
X22860000Y-14271360D01*
X22773640Y-14185000D02*
X22946360Y-14185000D01*
D13*
X16130447Y-9390297D02*
X16130447Y-9241803D01*
X15981953Y-9241803D01*
X15981953Y-9390297D01*
X16130447Y-9390297D01*
X16880447Y-10790297D02*
X16880447Y-10641803D01*
X16731953Y-10641803D01*
X16731953Y-10790297D01*
X16880447Y-10790297D01*
X17630447Y-9390297D02*
X17630447Y-9241803D01*
X17481953Y-9241803D01*
X17481953Y-9390297D01*
X17630447Y-9390297D01*
X18380447Y-10790297D02*
X18380447Y-10641803D01*
X18231953Y-10641803D01*
X18231953Y-10790297D01*
X18380447Y-10790297D01*
X19130447Y-9390297D02*
X19130447Y-9241803D01*
X18981953Y-9241803D01*
X18981953Y-9390297D01*
X19130447Y-9390297D01*
X19880447Y-10790297D02*
X19880447Y-10641803D01*
X19731953Y-10641803D01*
X19731953Y-10790297D01*
X19880447Y-10790297D01*
X20630447Y-9390297D02*
X20630447Y-9241803D01*
X20481953Y-9241803D01*
X20481953Y-9390297D01*
X20630447Y-9390297D01*
X21380447Y-10790297D02*
X21380447Y-10641803D01*
X21231953Y-10641803D01*
X21231953Y-10790297D01*
X21380447Y-10790297D01*
X24101247Y-9396047D02*
X24101247Y-9247553D01*
X23952753Y-9247553D01*
X23952753Y-9396047D01*
X24101247Y-9396047D01*
X24851247Y-10796047D02*
X24851247Y-10647553D01*
X24702753Y-10647553D01*
X24702753Y-10796047D01*
X24851247Y-10796047D01*
X25601247Y-9396047D02*
X25601247Y-9247553D01*
X25452753Y-9247553D01*
X25452753Y-9396047D01*
X25601247Y-9396047D01*
X26351247Y-10796047D02*
X26351247Y-10647553D01*
X26202753Y-10647553D01*
X26202753Y-10796047D01*
X26351247Y-10796047D01*
X27101247Y-9396047D02*
X27101247Y-9247553D01*
X26952753Y-9247553D01*
X26952753Y-9396047D01*
X27101247Y-9396047D01*
X27851247Y-10796047D02*
X27851247Y-10647553D01*
X27702753Y-10647553D01*
X27702753Y-10796047D01*
X27851247Y-10796047D01*
X28601247Y-9396047D02*
X28601247Y-9247553D01*
X28452753Y-9247553D01*
X28452753Y-9396047D01*
X28601247Y-9396047D01*
X29351247Y-10796047D02*
X29351247Y-10647553D01*
X29202753Y-10647553D01*
X29202753Y-10796047D01*
X29351247Y-10796047D01*
D14*
X15005000Y-9492500D02*
X15115000Y-9382500D01*
X15005000Y-9272500D01*
X14895000Y-9382500D01*
X15005000Y-9492500D01*
X15005000Y-12992500D02*
X15115000Y-12882500D01*
X15005000Y-12772500D01*
X14895000Y-12882500D01*
X15005000Y-12992500D01*
X15005000Y-12992500D02*
X15115000Y-12882500D01*
X15005000Y-12772500D01*
X14895000Y-12882500D01*
X15005000Y-12992500D01*
X29855000Y-9492500D02*
X29965000Y-9382500D01*
X29855000Y-9272500D01*
X29745000Y-9382500D01*
X29855000Y-9492500D01*
X29855000Y-12992500D02*
X29965000Y-12882500D01*
X29855000Y-12772500D01*
X29745000Y-12882500D01*
X29855000Y-12992500D01*
D11*
X14823931Y-15294130D02*
X14823931Y-15094130D01*
X14823931Y-15094130D02*
X14871550Y-15094130D01*
X14871550Y-15094130D02*
X14900121Y-15103654D01*
X14900121Y-15103654D02*
X14919169Y-15122701D01*
X14919169Y-15122701D02*
X14928693Y-15141749D01*
X14928693Y-15141749D02*
X14938216Y-15179844D01*
X14938216Y-15179844D02*
X14938216Y-15208416D01*
X14938216Y-15208416D02*
X14928693Y-15246511D01*
X14928693Y-15246511D02*
X14919169Y-15265558D01*
X14919169Y-15265558D02*
X14900121Y-15284606D01*
X14900121Y-15284606D02*
X14871550Y-15294130D01*
X14871550Y-15294130D02*
X14823931Y-15294130D01*
X15023931Y-15294130D02*
X15023931Y-15160796D01*
X15023931Y-15198892D02*
X15033454Y-15179844D01*
X15033454Y-15179844D02*
X15042978Y-15170320D01*
X15042978Y-15170320D02*
X15062026Y-15160796D01*
X15062026Y-15160796D02*
X15081074Y-15160796D01*
X15147740Y-15294130D02*
X15147740Y-15160796D01*
X15147740Y-15094130D02*
X15138216Y-15103654D01*
X15138216Y-15103654D02*
X15147740Y-15113177D01*
X15147740Y-15113177D02*
X15157264Y-15103654D01*
X15157264Y-15103654D02*
X15147740Y-15094130D01*
X15147740Y-15094130D02*
X15147740Y-15113177D01*
X15271550Y-15294130D02*
X15252502Y-15284606D01*
X15252502Y-15284606D02*
X15242978Y-15265558D01*
X15242978Y-15265558D02*
X15242978Y-15094130D01*
X15376312Y-15294130D02*
X15357264Y-15284606D01*
X15357264Y-15284606D02*
X15347740Y-15265558D01*
X15347740Y-15265558D02*
X15347740Y-15094130D01*
X15604883Y-15294130D02*
X15604883Y-15094130D01*
X15604883Y-15094130D02*
X15671550Y-15236987D01*
X15671550Y-15236987D02*
X15738216Y-15094130D01*
X15738216Y-15094130D02*
X15738216Y-15294130D01*
X15919169Y-15294130D02*
X15919169Y-15189368D01*
X15919169Y-15189368D02*
X15909645Y-15170320D01*
X15909645Y-15170320D02*
X15890597Y-15160796D01*
X15890597Y-15160796D02*
X15852502Y-15160796D01*
X15852502Y-15160796D02*
X15833454Y-15170320D01*
X15919169Y-15284606D02*
X15900121Y-15294130D01*
X15900121Y-15294130D02*
X15852502Y-15294130D01*
X15852502Y-15294130D02*
X15833454Y-15284606D01*
X15833454Y-15284606D02*
X15823931Y-15265558D01*
X15823931Y-15265558D02*
X15823931Y-15246511D01*
X15823931Y-15246511D02*
X15833454Y-15227463D01*
X15833454Y-15227463D02*
X15852502Y-15217939D01*
X15852502Y-15217939D02*
X15900121Y-15217939D01*
X15900121Y-15217939D02*
X15919169Y-15208416D01*
X16014407Y-15160796D02*
X16014407Y-15360796D01*
X16014407Y-15170320D02*
X16033454Y-15160796D01*
X16033454Y-15160796D02*
X16071550Y-15160796D01*
X16071550Y-15160796D02*
X16090597Y-15170320D01*
X16090597Y-15170320D02*
X16100121Y-15179844D01*
X16100121Y-15179844D02*
X16109645Y-15198892D01*
X16109645Y-15198892D02*
X16109645Y-15256035D01*
X16109645Y-15256035D02*
X16100121Y-15275082D01*
X16100121Y-15275082D02*
X16090597Y-15284606D01*
X16090597Y-15284606D02*
X16071550Y-15294130D01*
X16071550Y-15294130D02*
X16033454Y-15294130D01*
X16033454Y-15294130D02*
X16014407Y-15284606D01*
X16195359Y-15275082D02*
X16204883Y-15284606D01*
X16204883Y-15284606D02*
X16195359Y-15294130D01*
X16195359Y-15294130D02*
X16185835Y-15284606D01*
X16185835Y-15284606D02*
X16195359Y-15275082D01*
X16195359Y-15275082D02*
X16195359Y-15294130D01*
X16195359Y-15170320D02*
X16204883Y-15179844D01*
X16204883Y-15179844D02*
X16195359Y-15189368D01*
X16195359Y-15189368D02*
X16185835Y-15179844D01*
X16185835Y-15179844D02*
X16195359Y-15170320D01*
X16195359Y-15170320D02*
X16195359Y-15189368D01*
D10*
X14523154Y-15602646D02*
X14563154Y-15642646D01*
X14563154Y-15602646D02*
X14523154Y-15642646D01*
D11*
X14862026Y-15514130D02*
X14881074Y-15514130D01*
X14881074Y-15514130D02*
X14900121Y-15523654D01*
X14900121Y-15523654D02*
X14909645Y-15533177D01*
X14909645Y-15533177D02*
X14919169Y-15552225D01*
X14919169Y-15552225D02*
X14928693Y-15590320D01*
X14928693Y-15590320D02*
X14928693Y-15637939D01*
X14928693Y-15637939D02*
X14919169Y-15676035D01*
X14919169Y-15676035D02*
X14909645Y-15695082D01*
X14909645Y-15695082D02*
X14900121Y-15704606D01*
X14900121Y-15704606D02*
X14881074Y-15714130D01*
X14881074Y-15714130D02*
X14862026Y-15714130D01*
X14862026Y-15714130D02*
X14842978Y-15704606D01*
X14842978Y-15704606D02*
X14833454Y-15695082D01*
X14833454Y-15695082D02*
X14823931Y-15676035D01*
X14823931Y-15676035D02*
X14814407Y-15637939D01*
X14814407Y-15637939D02*
X14814407Y-15590320D01*
X14814407Y-15590320D02*
X14823931Y-15552225D01*
X14823931Y-15552225D02*
X14833454Y-15533177D01*
X14833454Y-15533177D02*
X14842978Y-15523654D01*
X14842978Y-15523654D02*
X14862026Y-15514130D01*
X15014407Y-15695082D02*
X15023931Y-15704606D01*
X15023931Y-15704606D02*
X15014407Y-15714130D01*
X15014407Y-15714130D02*
X15004883Y-15704606D01*
X15004883Y-15704606D02*
X15014407Y-15695082D01*
X15014407Y-15695082D02*
X15014407Y-15714130D01*
X15195359Y-15580796D02*
X15195359Y-15714130D01*
X15147740Y-15504606D02*
X15100121Y-15647463D01*
X15100121Y-15647463D02*
X15223931Y-15647463D01*
X15338216Y-15514130D02*
X15357264Y-15514130D01*
X15357264Y-15514130D02*
X15376312Y-15523654D01*
X15376312Y-15523654D02*
X15385835Y-15533177D01*
X15385835Y-15533177D02*
X15395359Y-15552225D01*
X15395359Y-15552225D02*
X15404883Y-15590320D01*
X15404883Y-15590320D02*
X15404883Y-15637939D01*
X15404883Y-15637939D02*
X15395359Y-15676035D01*
X15395359Y-15676035D02*
X15385835Y-15695082D01*
X15385835Y-15695082D02*
X15376312Y-15704606D01*
X15376312Y-15704606D02*
X15357264Y-15714130D01*
X15357264Y-15714130D02*
X15338216Y-15714130D01*
X15338216Y-15714130D02*
X15319169Y-15704606D01*
X15319169Y-15704606D02*
X15309645Y-15695082D01*
X15309645Y-15695082D02*
X15300121Y-15676035D01*
X15300121Y-15676035D02*
X15290597Y-15637939D01*
X15290597Y-15637939D02*
X15290597Y-15590320D01*
X15290597Y-15590320D02*
X15300121Y-15552225D01*
X15300121Y-15552225D02*
X15309645Y-15533177D01*
X15309645Y-15533177D02*
X15319169Y-15523654D01*
X15319169Y-15523654D02*
X15338216Y-15514130D01*
X15528693Y-15514130D02*
X15547740Y-15514130D01*
X15547740Y-15514130D02*
X15566788Y-15523654D01*
X15566788Y-15523654D02*
X15576312Y-15533177D01*
X15576312Y-15533177D02*
X15585835Y-15552225D01*
X15585835Y-15552225D02*
X15595359Y-15590320D01*
X15595359Y-15590320D02*
X15595359Y-15637939D01*
X15595359Y-15637939D02*
X15585835Y-15676035D01*
X15585835Y-15676035D02*
X15576312Y-15695082D01*
X15576312Y-15695082D02*
X15566788Y-15704606D01*
X15566788Y-15704606D02*
X15547740Y-15714130D01*
X15547740Y-15714130D02*
X15528693Y-15714130D01*
X15528693Y-15714130D02*
X15509645Y-15704606D01*
X15509645Y-15704606D02*
X15500121Y-15695082D01*
X15500121Y-15695082D02*
X15490597Y-15676035D01*
X15490597Y-15676035D02*
X15481074Y-15637939D01*
X15481074Y-15637939D02*
X15481074Y-15590320D01*
X15481074Y-15590320D02*
X15490597Y-15552225D01*
X15490597Y-15552225D02*
X15500121Y-15533177D01*
X15500121Y-15533177D02*
X15509645Y-15523654D01*
X15509645Y-15523654D02*
X15528693Y-15514130D01*
X15681074Y-15714130D02*
X15681074Y-15580796D01*
X15681074Y-15599844D02*
X15690597Y-15590320D01*
X15690597Y-15590320D02*
X15709645Y-15580796D01*
X15709645Y-15580796D02*
X15738216Y-15580796D01*
X15738216Y-15580796D02*
X15757264Y-15590320D01*
X15757264Y-15590320D02*
X15766788Y-15609368D01*
X15766788Y-15609368D02*
X15766788Y-15714130D01*
X15766788Y-15609368D02*
X15776312Y-15590320D01*
X15776312Y-15590320D02*
X15795359Y-15580796D01*
X15795359Y-15580796D02*
X15823931Y-15580796D01*
X15823931Y-15580796D02*
X15842978Y-15590320D01*
X15842978Y-15590320D02*
X15852502Y-15609368D01*
X15852502Y-15609368D02*
X15852502Y-15714130D01*
X15947740Y-15714130D02*
X15947740Y-15580796D01*
X15947740Y-15599844D02*
X15957264Y-15590320D01*
X15957264Y-15590320D02*
X15976312Y-15580796D01*
X15976312Y-15580796D02*
X16004883Y-15580796D01*
X16004883Y-15580796D02*
X16023931Y-15590320D01*
X16023931Y-15590320D02*
X16033455Y-15609368D01*
X16033455Y-15609368D02*
X16033455Y-15714130D01*
X16033455Y-15609368D02*
X16042978Y-15590320D01*
X16042978Y-15590320D02*
X16062026Y-15580796D01*
X16062026Y-15580796D02*
X16090597Y-15580796D01*
X16090597Y-15580796D02*
X16109645Y-15590320D01*
X16109645Y-15590320D02*
X16119169Y-15609368D01*
X16119169Y-15609368D02*
X16119169Y-15714130D01*
X16509645Y-15504606D02*
X16338217Y-15761749D01*
X16766788Y-15514130D02*
X16785836Y-15514130D01*
X16785836Y-15514130D02*
X16804883Y-15523654D01*
X16804883Y-15523654D02*
X16814407Y-15533177D01*
X16814407Y-15533177D02*
X16823931Y-15552225D01*
X16823931Y-15552225D02*
X16833455Y-15590320D01*
X16833455Y-15590320D02*
X16833455Y-15637939D01*
X16833455Y-15637939D02*
X16823931Y-15676035D01*
X16823931Y-15676035D02*
X16814407Y-15695082D01*
X16814407Y-15695082D02*
X16804883Y-15704606D01*
X16804883Y-15704606D02*
X16785836Y-15714130D01*
X16785836Y-15714130D02*
X16766788Y-15714130D01*
X16766788Y-15714130D02*
X16747740Y-15704606D01*
X16747740Y-15704606D02*
X16738217Y-15695082D01*
X16738217Y-15695082D02*
X16728693Y-15676035D01*
X16728693Y-15676035D02*
X16719169Y-15637939D01*
X16719169Y-15637939D02*
X16719169Y-15590320D01*
X16719169Y-15590320D02*
X16728693Y-15552225D01*
X16728693Y-15552225D02*
X16738217Y-15533177D01*
X16738217Y-15533177D02*
X16747740Y-15523654D01*
X16747740Y-15523654D02*
X16766788Y-15514130D01*
X16919169Y-15695082D02*
X16928693Y-15704606D01*
X16928693Y-15704606D02*
X16919169Y-15714130D01*
X16919169Y-15714130D02*
X16909645Y-15704606D01*
X16909645Y-15704606D02*
X16919169Y-15695082D01*
X16919169Y-15695082D02*
X16919169Y-15714130D01*
X17052502Y-15514130D02*
X17071550Y-15514130D01*
X17071550Y-15514130D02*
X17090598Y-15523654D01*
X17090598Y-15523654D02*
X17100121Y-15533177D01*
X17100121Y-15533177D02*
X17109645Y-15552225D01*
X17109645Y-15552225D02*
X17119169Y-15590320D01*
X17119169Y-15590320D02*
X17119169Y-15637939D01*
X17119169Y-15637939D02*
X17109645Y-15676035D01*
X17109645Y-15676035D02*
X17100121Y-15695082D01*
X17100121Y-15695082D02*
X17090598Y-15704606D01*
X17090598Y-15704606D02*
X17071550Y-15714130D01*
X17071550Y-15714130D02*
X17052502Y-15714130D01*
X17052502Y-15714130D02*
X17033455Y-15704606D01*
X17033455Y-15704606D02*
X17023931Y-15695082D01*
X17023931Y-15695082D02*
X17014407Y-15676035D01*
X17014407Y-15676035D02*
X17004883Y-15637939D01*
X17004883Y-15637939D02*
X17004883Y-15590320D01*
X17004883Y-15590320D02*
X17014407Y-15552225D01*
X17014407Y-15552225D02*
X17023931Y-15533177D01*
X17023931Y-15533177D02*
X17033455Y-15523654D01*
X17033455Y-15523654D02*
X17052502Y-15514130D01*
X17309645Y-15714130D02*
X17195360Y-15714130D01*
X17252502Y-15714130D02*
X17252502Y-15514130D01*
X17252502Y-15514130D02*
X17233455Y-15542701D01*
X17233455Y-15542701D02*
X17214407Y-15561749D01*
X17214407Y-15561749D02*
X17195360Y-15571273D01*
X17490598Y-15514130D02*
X17395360Y-15514130D01*
X17395360Y-15514130D02*
X17385836Y-15609368D01*
X17385836Y-15609368D02*
X17395360Y-15599844D01*
X17395360Y-15599844D02*
X17414407Y-15590320D01*
X17414407Y-15590320D02*
X17462026Y-15590320D01*
X17462026Y-15590320D02*
X17481074Y-15599844D01*
X17481074Y-15599844D02*
X17490598Y-15609368D01*
X17490598Y-15609368D02*
X17500121Y-15628416D01*
X17500121Y-15628416D02*
X17500121Y-15676035D01*
X17500121Y-15676035D02*
X17490598Y-15695082D01*
X17490598Y-15695082D02*
X17481074Y-15704606D01*
X17481074Y-15704606D02*
X17462026Y-15714130D01*
X17462026Y-15714130D02*
X17414407Y-15714130D01*
X17414407Y-15714130D02*
X17395360Y-15704606D01*
X17395360Y-15704606D02*
X17385836Y-15695082D01*
X17566788Y-15514130D02*
X17700121Y-15514130D01*
X17700121Y-15514130D02*
X17614407Y-15714130D01*
X17766788Y-15514130D02*
X17766788Y-15552225D01*
X17842979Y-15514130D02*
X17842979Y-15552225D01*
X18138217Y-15790320D02*
X18128693Y-15780796D01*
X18128693Y-15780796D02*
X18109645Y-15752225D01*
X18109645Y-15752225D02*
X18100122Y-15733177D01*
X18100122Y-15733177D02*
X18090598Y-15704606D01*
X18090598Y-15704606D02*
X18081074Y-15656987D01*
X18081074Y-15656987D02*
X18081074Y-15618892D01*
X18081074Y-15618892D02*
X18090598Y-15571273D01*
X18090598Y-15571273D02*
X18100122Y-15542701D01*
X18100122Y-15542701D02*
X18109645Y-15523654D01*
X18109645Y-15523654D02*
X18128693Y-15495082D01*
X18128693Y-15495082D02*
X18138217Y-15485558D01*
X18300122Y-15580796D02*
X18300122Y-15714130D01*
X18252502Y-15504606D02*
X18204883Y-15647463D01*
X18204883Y-15647463D02*
X18328693Y-15647463D01*
X18385836Y-15514130D02*
X18509645Y-15514130D01*
X18509645Y-15514130D02*
X18442979Y-15590320D01*
X18442979Y-15590320D02*
X18471550Y-15590320D01*
X18471550Y-15590320D02*
X18490598Y-15599844D01*
X18490598Y-15599844D02*
X18500122Y-15609368D01*
X18500122Y-15609368D02*
X18509645Y-15628416D01*
X18509645Y-15628416D02*
X18509645Y-15676035D01*
X18509645Y-15676035D02*
X18500122Y-15695082D01*
X18500122Y-15695082D02*
X18490598Y-15704606D01*
X18490598Y-15704606D02*
X18471550Y-15714130D01*
X18471550Y-15714130D02*
X18414407Y-15714130D01*
X18414407Y-15714130D02*
X18395360Y-15704606D01*
X18395360Y-15704606D02*
X18385836Y-15695082D01*
X18747741Y-15714130D02*
X18747741Y-15514130D01*
X18833455Y-15714130D02*
X18833455Y-15609368D01*
X18833455Y-15609368D02*
X18823931Y-15590320D01*
X18823931Y-15590320D02*
X18804884Y-15580796D01*
X18804884Y-15580796D02*
X18776312Y-15580796D01*
X18776312Y-15580796D02*
X18757264Y-15590320D01*
X18757264Y-15590320D02*
X18747741Y-15599844D01*
X18957264Y-15714130D02*
X18938217Y-15704606D01*
X18938217Y-15704606D02*
X18928693Y-15695082D01*
X18928693Y-15695082D02*
X18919169Y-15676035D01*
X18919169Y-15676035D02*
X18919169Y-15618892D01*
X18919169Y-15618892D02*
X18928693Y-15599844D01*
X18928693Y-15599844D02*
X18938217Y-15590320D01*
X18938217Y-15590320D02*
X18957264Y-15580796D01*
X18957264Y-15580796D02*
X18985836Y-15580796D01*
X18985836Y-15580796D02*
X19004884Y-15590320D01*
X19004884Y-15590320D02*
X19014407Y-15599844D01*
X19014407Y-15599844D02*
X19023931Y-15618892D01*
X19023931Y-15618892D02*
X19023931Y-15676035D01*
X19023931Y-15676035D02*
X19014407Y-15695082D01*
X19014407Y-15695082D02*
X19004884Y-15704606D01*
X19004884Y-15704606D02*
X18985836Y-15714130D01*
X18985836Y-15714130D02*
X18957264Y-15714130D01*
X19138217Y-15714130D02*
X19119169Y-15704606D01*
X19119169Y-15704606D02*
X19109645Y-15685558D01*
X19109645Y-15685558D02*
X19109645Y-15514130D01*
X19290598Y-15704606D02*
X19271550Y-15714130D01*
X19271550Y-15714130D02*
X19233455Y-15714130D01*
X19233455Y-15714130D02*
X19214407Y-15704606D01*
X19214407Y-15704606D02*
X19204884Y-15685558D01*
X19204884Y-15685558D02*
X19204884Y-15609368D01*
X19204884Y-15609368D02*
X19214407Y-15590320D01*
X19214407Y-15590320D02*
X19233455Y-15580796D01*
X19233455Y-15580796D02*
X19271550Y-15580796D01*
X19271550Y-15580796D02*
X19290598Y-15590320D01*
X19290598Y-15590320D02*
X19300122Y-15609368D01*
X19300122Y-15609368D02*
X19300122Y-15628416D01*
X19300122Y-15628416D02*
X19204884Y-15647463D01*
X19376312Y-15704606D02*
X19395360Y-15714130D01*
X19395360Y-15714130D02*
X19433455Y-15714130D01*
X19433455Y-15714130D02*
X19452503Y-15704606D01*
X19452503Y-15704606D02*
X19462026Y-15685558D01*
X19462026Y-15685558D02*
X19462026Y-15676035D01*
X19462026Y-15676035D02*
X19452503Y-15656987D01*
X19452503Y-15656987D02*
X19433455Y-15647463D01*
X19433455Y-15647463D02*
X19404884Y-15647463D01*
X19404884Y-15647463D02*
X19385836Y-15637939D01*
X19385836Y-15637939D02*
X19376312Y-15618892D01*
X19376312Y-15618892D02*
X19376312Y-15609368D01*
X19376312Y-15609368D02*
X19385836Y-15590320D01*
X19385836Y-15590320D02*
X19404884Y-15580796D01*
X19404884Y-15580796D02*
X19433455Y-15580796D01*
X19433455Y-15580796D02*
X19452503Y-15590320D01*
X19528693Y-15790320D02*
X19538217Y-15780796D01*
X19538217Y-15780796D02*
X19557265Y-15752225D01*
X19557265Y-15752225D02*
X19566788Y-15733177D01*
X19566788Y-15733177D02*
X19576312Y-15704606D01*
X19576312Y-15704606D02*
X19585836Y-15656987D01*
X19585836Y-15656987D02*
X19585836Y-15618892D01*
X19585836Y-15618892D02*
X19576312Y-15571273D01*
X19576312Y-15571273D02*
X19566788Y-15542701D01*
X19566788Y-15542701D02*
X19557265Y-15523654D01*
X19557265Y-15523654D02*
X19538217Y-15495082D01*
X19538217Y-15495082D02*
X19528693Y-15485558D01*
D10*
X14563154Y-15886646D02*
G75*
G02*
X14463154Y-15886646I-50000J0D01*
G01*
X14463154Y-15886646D02*
G75*
G02*
X14563154Y-15886646I50000J0D01*
G01*
D11*
X14928693Y-15978130D02*
X14814407Y-15978130D01*
X14871550Y-15978130D02*
X14871550Y-15778130D01*
X14871550Y-15778130D02*
X14852502Y-15806701D01*
X14852502Y-15806701D02*
X14833454Y-15825749D01*
X14833454Y-15825749D02*
X14814407Y-15835273D01*
X15014407Y-15959082D02*
X15023931Y-15968606D01*
X15023931Y-15968606D02*
X15014407Y-15978130D01*
X15014407Y-15978130D02*
X15004883Y-15968606D01*
X15004883Y-15968606D02*
X15014407Y-15959082D01*
X15014407Y-15959082D02*
X15014407Y-15978130D01*
X15147740Y-15778130D02*
X15166788Y-15778130D01*
X15166788Y-15778130D02*
X15185835Y-15787654D01*
X15185835Y-15787654D02*
X15195359Y-15797177D01*
X15195359Y-15797177D02*
X15204883Y-15816225D01*
X15204883Y-15816225D02*
X15214407Y-15854320D01*
X15214407Y-15854320D02*
X15214407Y-15901939D01*
X15214407Y-15901939D02*
X15204883Y-15940035D01*
X15204883Y-15940035D02*
X15195359Y-15959082D01*
X15195359Y-15959082D02*
X15185835Y-15968606D01*
X15185835Y-15968606D02*
X15166788Y-15978130D01*
X15166788Y-15978130D02*
X15147740Y-15978130D01*
X15147740Y-15978130D02*
X15128693Y-15968606D01*
X15128693Y-15968606D02*
X15119169Y-15959082D01*
X15119169Y-15959082D02*
X15109645Y-15940035D01*
X15109645Y-15940035D02*
X15100121Y-15901939D01*
X15100121Y-15901939D02*
X15100121Y-15854320D01*
X15100121Y-15854320D02*
X15109645Y-15816225D01*
X15109645Y-15816225D02*
X15119169Y-15797177D01*
X15119169Y-15797177D02*
X15128693Y-15787654D01*
X15128693Y-15787654D02*
X15147740Y-15778130D01*
X15338216Y-15778130D02*
X15357264Y-15778130D01*
X15357264Y-15778130D02*
X15376312Y-15787654D01*
X15376312Y-15787654D02*
X15385835Y-15797177D01*
X15385835Y-15797177D02*
X15395359Y-15816225D01*
X15395359Y-15816225D02*
X15404883Y-15854320D01*
X15404883Y-15854320D02*
X15404883Y-15901939D01*
X15404883Y-15901939D02*
X15395359Y-15940035D01*
X15395359Y-15940035D02*
X15385835Y-15959082D01*
X15385835Y-15959082D02*
X15376312Y-15968606D01*
X15376312Y-15968606D02*
X15357264Y-15978130D01*
X15357264Y-15978130D02*
X15338216Y-15978130D01*
X15338216Y-15978130D02*
X15319169Y-15968606D01*
X15319169Y-15968606D02*
X15309645Y-15959082D01*
X15309645Y-15959082D02*
X15300121Y-15940035D01*
X15300121Y-15940035D02*
X15290597Y-15901939D01*
X15290597Y-15901939D02*
X15290597Y-15854320D01*
X15290597Y-15854320D02*
X15300121Y-15816225D01*
X15300121Y-15816225D02*
X15309645Y-15797177D01*
X15309645Y-15797177D02*
X15319169Y-15787654D01*
X15319169Y-15787654D02*
X15338216Y-15778130D01*
X15528693Y-15778130D02*
X15547740Y-15778130D01*
X15547740Y-15778130D02*
X15566788Y-15787654D01*
X15566788Y-15787654D02*
X15576312Y-15797177D01*
X15576312Y-15797177D02*
X15585835Y-15816225D01*
X15585835Y-15816225D02*
X15595359Y-15854320D01*
X15595359Y-15854320D02*
X15595359Y-15901939D01*
X15595359Y-15901939D02*
X15585835Y-15940035D01*
X15585835Y-15940035D02*
X15576312Y-15959082D01*
X15576312Y-15959082D02*
X15566788Y-15968606D01*
X15566788Y-15968606D02*
X15547740Y-15978130D01*
X15547740Y-15978130D02*
X15528693Y-15978130D01*
X15528693Y-15978130D02*
X15509645Y-15968606D01*
X15509645Y-15968606D02*
X15500121Y-15959082D01*
X15500121Y-15959082D02*
X15490597Y-15940035D01*
X15490597Y-15940035D02*
X15481074Y-15901939D01*
X15481074Y-15901939D02*
X15481074Y-15854320D01*
X15481074Y-15854320D02*
X15490597Y-15816225D01*
X15490597Y-15816225D02*
X15500121Y-15797177D01*
X15500121Y-15797177D02*
X15509645Y-15787654D01*
X15509645Y-15787654D02*
X15528693Y-15778130D01*
X15681074Y-15978130D02*
X15681074Y-15844796D01*
X15681074Y-15863844D02*
X15690597Y-15854320D01*
X15690597Y-15854320D02*
X15709645Y-15844796D01*
X15709645Y-15844796D02*
X15738216Y-15844796D01*
X15738216Y-15844796D02*
X15757264Y-15854320D01*
X15757264Y-15854320D02*
X15766788Y-15873368D01*
X15766788Y-15873368D02*
X15766788Y-15978130D01*
X15766788Y-15873368D02*
X15776312Y-15854320D01*
X15776312Y-15854320D02*
X15795359Y-15844796D01*
X15795359Y-15844796D02*
X15823931Y-15844796D01*
X15823931Y-15844796D02*
X15842978Y-15854320D01*
X15842978Y-15854320D02*
X15852502Y-15873368D01*
X15852502Y-15873368D02*
X15852502Y-15978130D01*
X15947740Y-15978130D02*
X15947740Y-15844796D01*
X15947740Y-15863844D02*
X15957264Y-15854320D01*
X15957264Y-15854320D02*
X15976312Y-15844796D01*
X15976312Y-15844796D02*
X16004883Y-15844796D01*
X16004883Y-15844796D02*
X16023931Y-15854320D01*
X16023931Y-15854320D02*
X16033455Y-15873368D01*
X16033455Y-15873368D02*
X16033455Y-15978130D01*
X16033455Y-15873368D02*
X16042978Y-15854320D01*
X16042978Y-15854320D02*
X16062026Y-15844796D01*
X16062026Y-15844796D02*
X16090597Y-15844796D01*
X16090597Y-15844796D02*
X16109645Y-15854320D01*
X16109645Y-15854320D02*
X16119169Y-15873368D01*
X16119169Y-15873368D02*
X16119169Y-15978130D01*
X16509645Y-15768606D02*
X16338217Y-16025749D01*
X16766788Y-15778130D02*
X16785836Y-15778130D01*
X16785836Y-15778130D02*
X16804883Y-15787654D01*
X16804883Y-15787654D02*
X16814407Y-15797177D01*
X16814407Y-15797177D02*
X16823931Y-15816225D01*
X16823931Y-15816225D02*
X16833455Y-15854320D01*
X16833455Y-15854320D02*
X16833455Y-15901939D01*
X16833455Y-15901939D02*
X16823931Y-15940035D01*
X16823931Y-15940035D02*
X16814407Y-15959082D01*
X16814407Y-15959082D02*
X16804883Y-15968606D01*
X16804883Y-15968606D02*
X16785836Y-15978130D01*
X16785836Y-15978130D02*
X16766788Y-15978130D01*
X16766788Y-15978130D02*
X16747740Y-15968606D01*
X16747740Y-15968606D02*
X16738217Y-15959082D01*
X16738217Y-15959082D02*
X16728693Y-15940035D01*
X16728693Y-15940035D02*
X16719169Y-15901939D01*
X16719169Y-15901939D02*
X16719169Y-15854320D01*
X16719169Y-15854320D02*
X16728693Y-15816225D01*
X16728693Y-15816225D02*
X16738217Y-15797177D01*
X16738217Y-15797177D02*
X16747740Y-15787654D01*
X16747740Y-15787654D02*
X16766788Y-15778130D01*
X16919169Y-15959082D02*
X16928693Y-15968606D01*
X16928693Y-15968606D02*
X16919169Y-15978130D01*
X16919169Y-15978130D02*
X16909645Y-15968606D01*
X16909645Y-15968606D02*
X16919169Y-15959082D01*
X16919169Y-15959082D02*
X16919169Y-15978130D01*
X17052502Y-15778130D02*
X17071550Y-15778130D01*
X17071550Y-15778130D02*
X17090598Y-15787654D01*
X17090598Y-15787654D02*
X17100121Y-15797177D01*
X17100121Y-15797177D02*
X17109645Y-15816225D01*
X17109645Y-15816225D02*
X17119169Y-15854320D01*
X17119169Y-15854320D02*
X17119169Y-15901939D01*
X17119169Y-15901939D02*
X17109645Y-15940035D01*
X17109645Y-15940035D02*
X17100121Y-15959082D01*
X17100121Y-15959082D02*
X17090598Y-15968606D01*
X17090598Y-15968606D02*
X17071550Y-15978130D01*
X17071550Y-15978130D02*
X17052502Y-15978130D01*
X17052502Y-15978130D02*
X17033455Y-15968606D01*
X17033455Y-15968606D02*
X17023931Y-15959082D01*
X17023931Y-15959082D02*
X17014407Y-15940035D01*
X17014407Y-15940035D02*
X17004883Y-15901939D01*
X17004883Y-15901939D02*
X17004883Y-15854320D01*
X17004883Y-15854320D02*
X17014407Y-15816225D01*
X17014407Y-15816225D02*
X17023931Y-15797177D01*
X17023931Y-15797177D02*
X17033455Y-15787654D01*
X17033455Y-15787654D02*
X17052502Y-15778130D01*
X17185836Y-15778130D02*
X17309645Y-15778130D01*
X17309645Y-15778130D02*
X17242979Y-15854320D01*
X17242979Y-15854320D02*
X17271550Y-15854320D01*
X17271550Y-15854320D02*
X17290598Y-15863844D01*
X17290598Y-15863844D02*
X17300121Y-15873368D01*
X17300121Y-15873368D02*
X17309645Y-15892416D01*
X17309645Y-15892416D02*
X17309645Y-15940035D01*
X17309645Y-15940035D02*
X17300121Y-15959082D01*
X17300121Y-15959082D02*
X17290598Y-15968606D01*
X17290598Y-15968606D02*
X17271550Y-15978130D01*
X17271550Y-15978130D02*
X17214407Y-15978130D01*
X17214407Y-15978130D02*
X17195360Y-15968606D01*
X17195360Y-15968606D02*
X17185836Y-15959082D01*
X17404883Y-15978130D02*
X17442979Y-15978130D01*
X17442979Y-15978130D02*
X17462026Y-15968606D01*
X17462026Y-15968606D02*
X17471550Y-15959082D01*
X17471550Y-15959082D02*
X17490598Y-15930511D01*
X17490598Y-15930511D02*
X17500121Y-15892416D01*
X17500121Y-15892416D02*
X17500121Y-15816225D01*
X17500121Y-15816225D02*
X17490598Y-15797177D01*
X17490598Y-15797177D02*
X17481074Y-15787654D01*
X17481074Y-15787654D02*
X17462026Y-15778130D01*
X17462026Y-15778130D02*
X17423931Y-15778130D01*
X17423931Y-15778130D02*
X17404883Y-15787654D01*
X17404883Y-15787654D02*
X17395360Y-15797177D01*
X17395360Y-15797177D02*
X17385836Y-15816225D01*
X17385836Y-15816225D02*
X17385836Y-15863844D01*
X17385836Y-15863844D02*
X17395360Y-15882892D01*
X17395360Y-15882892D02*
X17404883Y-15892416D01*
X17404883Y-15892416D02*
X17423931Y-15901939D01*
X17423931Y-15901939D02*
X17462026Y-15901939D01*
X17462026Y-15901939D02*
X17481074Y-15892416D01*
X17481074Y-15892416D02*
X17490598Y-15882892D01*
X17490598Y-15882892D02*
X17500121Y-15863844D01*
X17671550Y-15844796D02*
X17671550Y-15978130D01*
X17623931Y-15768606D02*
X17576312Y-15911463D01*
X17576312Y-15911463D02*
X17700121Y-15911463D01*
X17766788Y-15778130D02*
X17766788Y-15816225D01*
X17842979Y-15778130D02*
X17842979Y-15816225D01*
X18138217Y-16054320D02*
X18128693Y-16044796D01*
X18128693Y-16044796D02*
X18109645Y-16016225D01*
X18109645Y-16016225D02*
X18100122Y-15997177D01*
X18100122Y-15997177D02*
X18090598Y-15968606D01*
X18090598Y-15968606D02*
X18081074Y-15920987D01*
X18081074Y-15920987D02*
X18081074Y-15882892D01*
X18081074Y-15882892D02*
X18090598Y-15835273D01*
X18090598Y-15835273D02*
X18100122Y-15806701D01*
X18100122Y-15806701D02*
X18109645Y-15787654D01*
X18109645Y-15787654D02*
X18128693Y-15759082D01*
X18128693Y-15759082D02*
X18138217Y-15749558D01*
X18319169Y-15978130D02*
X18204883Y-15978130D01*
X18262026Y-15978130D02*
X18262026Y-15778130D01*
X18262026Y-15778130D02*
X18242979Y-15806701D01*
X18242979Y-15806701D02*
X18223931Y-15825749D01*
X18223931Y-15825749D02*
X18204883Y-15835273D01*
X18442979Y-15778130D02*
X18462026Y-15778130D01*
X18462026Y-15778130D02*
X18481074Y-15787654D01*
X18481074Y-15787654D02*
X18490598Y-15797177D01*
X18490598Y-15797177D02*
X18500122Y-15816225D01*
X18500122Y-15816225D02*
X18509645Y-15854320D01*
X18509645Y-15854320D02*
X18509645Y-15901939D01*
X18509645Y-15901939D02*
X18500122Y-15940035D01*
X18500122Y-15940035D02*
X18490598Y-15959082D01*
X18490598Y-15959082D02*
X18481074Y-15968606D01*
X18481074Y-15968606D02*
X18462026Y-15978130D01*
X18462026Y-15978130D02*
X18442979Y-15978130D01*
X18442979Y-15978130D02*
X18423931Y-15968606D01*
X18423931Y-15968606D02*
X18414407Y-15959082D01*
X18414407Y-15959082D02*
X18404883Y-15940035D01*
X18404883Y-15940035D02*
X18395360Y-15901939D01*
X18395360Y-15901939D02*
X18395360Y-15854320D01*
X18395360Y-15854320D02*
X18404883Y-15816225D01*
X18404883Y-15816225D02*
X18414407Y-15797177D01*
X18414407Y-15797177D02*
X18423931Y-15787654D01*
X18423931Y-15787654D02*
X18442979Y-15778130D01*
X18747741Y-15978130D02*
X18747741Y-15778130D01*
X18833455Y-15978130D02*
X18833455Y-15873368D01*
X18833455Y-15873368D02*
X18823931Y-15854320D01*
X18823931Y-15854320D02*
X18804884Y-15844796D01*
X18804884Y-15844796D02*
X18776312Y-15844796D01*
X18776312Y-15844796D02*
X18757264Y-15854320D01*
X18757264Y-15854320D02*
X18747741Y-15863844D01*
X18957264Y-15978130D02*
X18938217Y-15968606D01*
X18938217Y-15968606D02*
X18928693Y-15959082D01*
X18928693Y-15959082D02*
X18919169Y-15940035D01*
X18919169Y-15940035D02*
X18919169Y-15882892D01*
X18919169Y-15882892D02*
X18928693Y-15863844D01*
X18928693Y-15863844D02*
X18938217Y-15854320D01*
X18938217Y-15854320D02*
X18957264Y-15844796D01*
X18957264Y-15844796D02*
X18985836Y-15844796D01*
X18985836Y-15844796D02*
X19004884Y-15854320D01*
X19004884Y-15854320D02*
X19014407Y-15863844D01*
X19014407Y-15863844D02*
X19023931Y-15882892D01*
X19023931Y-15882892D02*
X19023931Y-15940035D01*
X19023931Y-15940035D02*
X19014407Y-15959082D01*
X19014407Y-15959082D02*
X19004884Y-15968606D01*
X19004884Y-15968606D02*
X18985836Y-15978130D01*
X18985836Y-15978130D02*
X18957264Y-15978130D01*
X19138217Y-15978130D02*
X19119169Y-15968606D01*
X19119169Y-15968606D02*
X19109645Y-15949558D01*
X19109645Y-15949558D02*
X19109645Y-15778130D01*
X19290598Y-15968606D02*
X19271550Y-15978130D01*
X19271550Y-15978130D02*
X19233455Y-15978130D01*
X19233455Y-15978130D02*
X19214407Y-15968606D01*
X19214407Y-15968606D02*
X19204884Y-15949558D01*
X19204884Y-15949558D02*
X19204884Y-15873368D01*
X19204884Y-15873368D02*
X19214407Y-15854320D01*
X19214407Y-15854320D02*
X19233455Y-15844796D01*
X19233455Y-15844796D02*
X19271550Y-15844796D01*
X19271550Y-15844796D02*
X19290598Y-15854320D01*
X19290598Y-15854320D02*
X19300122Y-15873368D01*
X19300122Y-15873368D02*
X19300122Y-15892416D01*
X19300122Y-15892416D02*
X19204884Y-15911463D01*
X19376312Y-15968606D02*
X19395360Y-15978130D01*
X19395360Y-15978130D02*
X19433455Y-15978130D01*
X19433455Y-15978130D02*
X19452503Y-15968606D01*
X19452503Y-15968606D02*
X19462026Y-15949558D01*
X19462026Y-15949558D02*
X19462026Y-15940035D01*
X19462026Y-15940035D02*
X19452503Y-15920987D01*
X19452503Y-15920987D02*
X19433455Y-15911463D01*
X19433455Y-15911463D02*
X19404884Y-15911463D01*
X19404884Y-15911463D02*
X19385836Y-15901939D01*
X19385836Y-15901939D02*
X19376312Y-15882892D01*
X19376312Y-15882892D02*
X19376312Y-15873368D01*
X19376312Y-15873368D02*
X19385836Y-15854320D01*
X19385836Y-15854320D02*
X19404884Y-15844796D01*
X19404884Y-15844796D02*
X19433455Y-15844796D01*
X19433455Y-15844796D02*
X19452503Y-15854320D01*
X19528693Y-16054320D02*
X19538217Y-16044796D01*
X19538217Y-16044796D02*
X19557265Y-16016225D01*
X19557265Y-16016225D02*
X19566788Y-15997177D01*
X19566788Y-15997177D02*
X19576312Y-15968606D01*
X19576312Y-15968606D02*
X19585836Y-15920987D01*
X19585836Y-15920987D02*
X19585836Y-15882892D01*
X19585836Y-15882892D02*
X19576312Y-15835273D01*
X19576312Y-15835273D02*
X19566788Y-15806701D01*
X19566788Y-15806701D02*
X19557265Y-15787654D01*
X19557265Y-15787654D02*
X19538217Y-15759082D01*
X19538217Y-15759082D02*
X19528693Y-15749558D01*
D12*
X14476794Y-16064286D02*
X14476794Y-16237006D01*
X14390434Y-16150646D02*
X14563154Y-16150646D01*
D11*
X14928693Y-16242130D02*
X14814407Y-16242130D01*
X14871550Y-16242130D02*
X14871550Y-16042130D01*
X14871550Y-16042130D02*
X14852502Y-16070701D01*
X14852502Y-16070701D02*
X14833454Y-16089749D01*
X14833454Y-16089749D02*
X14814407Y-16099273D01*
X15014407Y-16223082D02*
X15023931Y-16232606D01*
X15023931Y-16232606D02*
X15014407Y-16242130D01*
X15014407Y-16242130D02*
X15004883Y-16232606D01*
X15004883Y-16232606D02*
X15014407Y-16223082D01*
X15014407Y-16223082D02*
X15014407Y-16242130D01*
X15090597Y-16042130D02*
X15223931Y-16042130D01*
X15223931Y-16042130D02*
X15138216Y-16242130D01*
X15290597Y-16061177D02*
X15300121Y-16051654D01*
X15300121Y-16051654D02*
X15319169Y-16042130D01*
X15319169Y-16042130D02*
X15366788Y-16042130D01*
X15366788Y-16042130D02*
X15385835Y-16051654D01*
X15385835Y-16051654D02*
X15395359Y-16061177D01*
X15395359Y-16061177D02*
X15404883Y-16080225D01*
X15404883Y-16080225D02*
X15404883Y-16099273D01*
X15404883Y-16099273D02*
X15395359Y-16127844D01*
X15395359Y-16127844D02*
X15281074Y-16242130D01*
X15281074Y-16242130D02*
X15404883Y-16242130D01*
X15471550Y-16042130D02*
X15604883Y-16042130D01*
X15604883Y-16042130D02*
X15519169Y-16242130D01*
X15681074Y-16242130D02*
X15681074Y-16108796D01*
X15681074Y-16127844D02*
X15690597Y-16118320D01*
X15690597Y-16118320D02*
X15709645Y-16108796D01*
X15709645Y-16108796D02*
X15738216Y-16108796D01*
X15738216Y-16108796D02*
X15757264Y-16118320D01*
X15757264Y-16118320D02*
X15766788Y-16137368D01*
X15766788Y-16137368D02*
X15766788Y-16242130D01*
X15766788Y-16137368D02*
X15776312Y-16118320D01*
X15776312Y-16118320D02*
X15795359Y-16108796D01*
X15795359Y-16108796D02*
X15823931Y-16108796D01*
X15823931Y-16108796D02*
X15842978Y-16118320D01*
X15842978Y-16118320D02*
X15852502Y-16137368D01*
X15852502Y-16137368D02*
X15852502Y-16242130D01*
X15947740Y-16242130D02*
X15947740Y-16108796D01*
X15947740Y-16127844D02*
X15957264Y-16118320D01*
X15957264Y-16118320D02*
X15976312Y-16108796D01*
X15976312Y-16108796D02*
X16004883Y-16108796D01*
X16004883Y-16108796D02*
X16023931Y-16118320D01*
X16023931Y-16118320D02*
X16033455Y-16137368D01*
X16033455Y-16137368D02*
X16033455Y-16242130D01*
X16033455Y-16137368D02*
X16042978Y-16118320D01*
X16042978Y-16118320D02*
X16062026Y-16108796D01*
X16062026Y-16108796D02*
X16090597Y-16108796D01*
X16090597Y-16108796D02*
X16109645Y-16118320D01*
X16109645Y-16118320D02*
X16119169Y-16137368D01*
X16119169Y-16137368D02*
X16119169Y-16242130D01*
X16509645Y-16032606D02*
X16338217Y-16289749D01*
X16766788Y-16042130D02*
X16785836Y-16042130D01*
X16785836Y-16042130D02*
X16804883Y-16051654D01*
X16804883Y-16051654D02*
X16814407Y-16061177D01*
X16814407Y-16061177D02*
X16823931Y-16080225D01*
X16823931Y-16080225D02*
X16833455Y-16118320D01*
X16833455Y-16118320D02*
X16833455Y-16165939D01*
X16833455Y-16165939D02*
X16823931Y-16204035D01*
X16823931Y-16204035D02*
X16814407Y-16223082D01*
X16814407Y-16223082D02*
X16804883Y-16232606D01*
X16804883Y-16232606D02*
X16785836Y-16242130D01*
X16785836Y-16242130D02*
X16766788Y-16242130D01*
X16766788Y-16242130D02*
X16747740Y-16232606D01*
X16747740Y-16232606D02*
X16738217Y-16223082D01*
X16738217Y-16223082D02*
X16728693Y-16204035D01*
X16728693Y-16204035D02*
X16719169Y-16165939D01*
X16719169Y-16165939D02*
X16719169Y-16118320D01*
X16719169Y-16118320D02*
X16728693Y-16080225D01*
X16728693Y-16080225D02*
X16738217Y-16061177D01*
X16738217Y-16061177D02*
X16747740Y-16051654D01*
X16747740Y-16051654D02*
X16766788Y-16042130D01*
X16919169Y-16223082D02*
X16928693Y-16232606D01*
X16928693Y-16232606D02*
X16919169Y-16242130D01*
X16919169Y-16242130D02*
X16909645Y-16232606D01*
X16909645Y-16232606D02*
X16919169Y-16223082D01*
X16919169Y-16223082D02*
X16919169Y-16242130D01*
X17052502Y-16042130D02*
X17071550Y-16042130D01*
X17071550Y-16042130D02*
X17090598Y-16051654D01*
X17090598Y-16051654D02*
X17100121Y-16061177D01*
X17100121Y-16061177D02*
X17109645Y-16080225D01*
X17109645Y-16080225D02*
X17119169Y-16118320D01*
X17119169Y-16118320D02*
X17119169Y-16165939D01*
X17119169Y-16165939D02*
X17109645Y-16204035D01*
X17109645Y-16204035D02*
X17100121Y-16223082D01*
X17100121Y-16223082D02*
X17090598Y-16232606D01*
X17090598Y-16232606D02*
X17071550Y-16242130D01*
X17071550Y-16242130D02*
X17052502Y-16242130D01*
X17052502Y-16242130D02*
X17033455Y-16232606D01*
X17033455Y-16232606D02*
X17023931Y-16223082D01*
X17023931Y-16223082D02*
X17014407Y-16204035D01*
X17014407Y-16204035D02*
X17004883Y-16165939D01*
X17004883Y-16165939D02*
X17004883Y-16118320D01*
X17004883Y-16118320D02*
X17014407Y-16080225D01*
X17014407Y-16080225D02*
X17023931Y-16061177D01*
X17023931Y-16061177D02*
X17033455Y-16051654D01*
X17033455Y-16051654D02*
X17052502Y-16042130D01*
X17290598Y-16042130D02*
X17252502Y-16042130D01*
X17252502Y-16042130D02*
X17233455Y-16051654D01*
X17233455Y-16051654D02*
X17223931Y-16061177D01*
X17223931Y-16061177D02*
X17204883Y-16089749D01*
X17204883Y-16089749D02*
X17195360Y-16127844D01*
X17195360Y-16127844D02*
X17195360Y-16204035D01*
X17195360Y-16204035D02*
X17204883Y-16223082D01*
X17204883Y-16223082D02*
X17214407Y-16232606D01*
X17214407Y-16232606D02*
X17233455Y-16242130D01*
X17233455Y-16242130D02*
X17271550Y-16242130D01*
X17271550Y-16242130D02*
X17290598Y-16232606D01*
X17290598Y-16232606D02*
X17300121Y-16223082D01*
X17300121Y-16223082D02*
X17309645Y-16204035D01*
X17309645Y-16204035D02*
X17309645Y-16156416D01*
X17309645Y-16156416D02*
X17300121Y-16137368D01*
X17300121Y-16137368D02*
X17290598Y-16127844D01*
X17290598Y-16127844D02*
X17271550Y-16118320D01*
X17271550Y-16118320D02*
X17233455Y-16118320D01*
X17233455Y-16118320D02*
X17214407Y-16127844D01*
X17214407Y-16127844D02*
X17204883Y-16137368D01*
X17204883Y-16137368D02*
X17195360Y-16156416D01*
X17423931Y-16127844D02*
X17404883Y-16118320D01*
X17404883Y-16118320D02*
X17395360Y-16108796D01*
X17395360Y-16108796D02*
X17385836Y-16089749D01*
X17385836Y-16089749D02*
X17385836Y-16080225D01*
X17385836Y-16080225D02*
X17395360Y-16061177D01*
X17395360Y-16061177D02*
X17404883Y-16051654D01*
X17404883Y-16051654D02*
X17423931Y-16042130D01*
X17423931Y-16042130D02*
X17462026Y-16042130D01*
X17462026Y-16042130D02*
X17481074Y-16051654D01*
X17481074Y-16051654D02*
X17490598Y-16061177D01*
X17490598Y-16061177D02*
X17500121Y-16080225D01*
X17500121Y-16080225D02*
X17500121Y-16089749D01*
X17500121Y-16089749D02*
X17490598Y-16108796D01*
X17490598Y-16108796D02*
X17481074Y-16118320D01*
X17481074Y-16118320D02*
X17462026Y-16127844D01*
X17462026Y-16127844D02*
X17423931Y-16127844D01*
X17423931Y-16127844D02*
X17404883Y-16137368D01*
X17404883Y-16137368D02*
X17395360Y-16146892D01*
X17395360Y-16146892D02*
X17385836Y-16165939D01*
X17385836Y-16165939D02*
X17385836Y-16204035D01*
X17385836Y-16204035D02*
X17395360Y-16223082D01*
X17395360Y-16223082D02*
X17404883Y-16232606D01*
X17404883Y-16232606D02*
X17423931Y-16242130D01*
X17423931Y-16242130D02*
X17462026Y-16242130D01*
X17462026Y-16242130D02*
X17481074Y-16232606D01*
X17481074Y-16232606D02*
X17490598Y-16223082D01*
X17490598Y-16223082D02*
X17500121Y-16204035D01*
X17500121Y-16204035D02*
X17500121Y-16165939D01*
X17500121Y-16165939D02*
X17490598Y-16146892D01*
X17490598Y-16146892D02*
X17481074Y-16137368D01*
X17481074Y-16137368D02*
X17462026Y-16127844D01*
X17623931Y-16042130D02*
X17642979Y-16042130D01*
X17642979Y-16042130D02*
X17662026Y-16051654D01*
X17662026Y-16051654D02*
X17671550Y-16061177D01*
X17671550Y-16061177D02*
X17681074Y-16080225D01*
X17681074Y-16080225D02*
X17690598Y-16118320D01*
X17690598Y-16118320D02*
X17690598Y-16165939D01*
X17690598Y-16165939D02*
X17681074Y-16204035D01*
X17681074Y-16204035D02*
X17671550Y-16223082D01*
X17671550Y-16223082D02*
X17662026Y-16232606D01*
X17662026Y-16232606D02*
X17642979Y-16242130D01*
X17642979Y-16242130D02*
X17623931Y-16242130D01*
X17623931Y-16242130D02*
X17604883Y-16232606D01*
X17604883Y-16232606D02*
X17595360Y-16223082D01*
X17595360Y-16223082D02*
X17585836Y-16204035D01*
X17585836Y-16204035D02*
X17576312Y-16165939D01*
X17576312Y-16165939D02*
X17576312Y-16118320D01*
X17576312Y-16118320D02*
X17585836Y-16080225D01*
X17585836Y-16080225D02*
X17595360Y-16061177D01*
X17595360Y-16061177D02*
X17604883Y-16051654D01*
X17604883Y-16051654D02*
X17623931Y-16042130D01*
X17766788Y-16042130D02*
X17766788Y-16080225D01*
X17842979Y-16042130D02*
X17842979Y-16080225D01*
X18138217Y-16318320D02*
X18128693Y-16308796D01*
X18128693Y-16308796D02*
X18109645Y-16280225D01*
X18109645Y-16280225D02*
X18100122Y-16261177D01*
X18100122Y-16261177D02*
X18090598Y-16232606D01*
X18090598Y-16232606D02*
X18081074Y-16184987D01*
X18081074Y-16184987D02*
X18081074Y-16146892D01*
X18081074Y-16146892D02*
X18090598Y-16099273D01*
X18090598Y-16099273D02*
X18100122Y-16070701D01*
X18100122Y-16070701D02*
X18109645Y-16051654D01*
X18109645Y-16051654D02*
X18128693Y-16023082D01*
X18128693Y-16023082D02*
X18138217Y-16013558D01*
X18300122Y-16108796D02*
X18300122Y-16242130D01*
X18252502Y-16032606D02*
X18204883Y-16175463D01*
X18204883Y-16175463D02*
X18328693Y-16175463D01*
X18557264Y-16242130D02*
X18557264Y-16042130D01*
X18642979Y-16242130D02*
X18642979Y-16137368D01*
X18642979Y-16137368D02*
X18633455Y-16118320D01*
X18633455Y-16118320D02*
X18614407Y-16108796D01*
X18614407Y-16108796D02*
X18585836Y-16108796D01*
X18585836Y-16108796D02*
X18566788Y-16118320D01*
X18566788Y-16118320D02*
X18557264Y-16127844D01*
X18766788Y-16242130D02*
X18747741Y-16232606D01*
X18747741Y-16232606D02*
X18738217Y-16223082D01*
X18738217Y-16223082D02*
X18728693Y-16204035D01*
X18728693Y-16204035D02*
X18728693Y-16146892D01*
X18728693Y-16146892D02*
X18738217Y-16127844D01*
X18738217Y-16127844D02*
X18747741Y-16118320D01*
X18747741Y-16118320D02*
X18766788Y-16108796D01*
X18766788Y-16108796D02*
X18795360Y-16108796D01*
X18795360Y-16108796D02*
X18814407Y-16118320D01*
X18814407Y-16118320D02*
X18823931Y-16127844D01*
X18823931Y-16127844D02*
X18833455Y-16146892D01*
X18833455Y-16146892D02*
X18833455Y-16204035D01*
X18833455Y-16204035D02*
X18823931Y-16223082D01*
X18823931Y-16223082D02*
X18814407Y-16232606D01*
X18814407Y-16232606D02*
X18795360Y-16242130D01*
X18795360Y-16242130D02*
X18766788Y-16242130D01*
X18947741Y-16242130D02*
X18928693Y-16232606D01*
X18928693Y-16232606D02*
X18919169Y-16213558D01*
X18919169Y-16213558D02*
X18919169Y-16042130D01*
X19100122Y-16232606D02*
X19081074Y-16242130D01*
X19081074Y-16242130D02*
X19042979Y-16242130D01*
X19042979Y-16242130D02*
X19023931Y-16232606D01*
X19023931Y-16232606D02*
X19014407Y-16213558D01*
X19014407Y-16213558D02*
X19014407Y-16137368D01*
X19014407Y-16137368D02*
X19023931Y-16118320D01*
X19023931Y-16118320D02*
X19042979Y-16108796D01*
X19042979Y-16108796D02*
X19081074Y-16108796D01*
X19081074Y-16108796D02*
X19100122Y-16118320D01*
X19100122Y-16118320D02*
X19109645Y-16137368D01*
X19109645Y-16137368D02*
X19109645Y-16156416D01*
X19109645Y-16156416D02*
X19014407Y-16175463D01*
X19185836Y-16232606D02*
X19204884Y-16242130D01*
X19204884Y-16242130D02*
X19242979Y-16242130D01*
X19242979Y-16242130D02*
X19262026Y-16232606D01*
X19262026Y-16232606D02*
X19271550Y-16213558D01*
X19271550Y-16213558D02*
X19271550Y-16204035D01*
X19271550Y-16204035D02*
X19262026Y-16184987D01*
X19262026Y-16184987D02*
X19242979Y-16175463D01*
X19242979Y-16175463D02*
X19214407Y-16175463D01*
X19214407Y-16175463D02*
X19195360Y-16165939D01*
X19195360Y-16165939D02*
X19185836Y-16146892D01*
X19185836Y-16146892D02*
X19185836Y-16137368D01*
X19185836Y-16137368D02*
X19195360Y-16118320D01*
X19195360Y-16118320D02*
X19214407Y-16108796D01*
X19214407Y-16108796D02*
X19242979Y-16108796D01*
X19242979Y-16108796D02*
X19262026Y-16118320D01*
X19338217Y-16318320D02*
X19347741Y-16308796D01*
X19347741Y-16308796D02*
X19366788Y-16280225D01*
X19366788Y-16280225D02*
X19376312Y-16261177D01*
X19376312Y-16261177D02*
X19385836Y-16232606D01*
X19385836Y-16232606D02*
X19395360Y-16184987D01*
X19395360Y-16184987D02*
X19395360Y-16146892D01*
X19395360Y-16146892D02*
X19385836Y-16099273D01*
X19385836Y-16099273D02*
X19376312Y-16070701D01*
X19376312Y-16070701D02*
X19366788Y-16051654D01*
X19366788Y-16051654D02*
X19347741Y-16023082D01*
X19347741Y-16023082D02*
X19338217Y-16013558D01*
X14533865Y-16514077D02*
X14533865Y-16372655D01*
X14392442Y-16372655D01*
X14392442Y-16514077D01*
X14533865Y-16514077D01*
X14814407Y-16353897D02*
X14823931Y-16344374D01*
X14823931Y-16344374D02*
X14842978Y-16334850D01*
X14842978Y-16334850D02*
X14890597Y-16334850D01*
X14890597Y-16334850D02*
X14909645Y-16344374D01*
X14909645Y-16344374D02*
X14919169Y-16353897D01*
X14919169Y-16353897D02*
X14928693Y-16372945D01*
X14928693Y-16372945D02*
X14928693Y-16391993D01*
X14928693Y-16391993D02*
X14919169Y-16420564D01*
X14919169Y-16420564D02*
X14804883Y-16534850D01*
X14804883Y-16534850D02*
X14928693Y-16534850D01*
X15014407Y-16515802D02*
X15023931Y-16525326D01*
X15023931Y-16525326D02*
X15014407Y-16534850D01*
X15014407Y-16534850D02*
X15004883Y-16525326D01*
X15004883Y-16525326D02*
X15014407Y-16515802D01*
X15014407Y-16515802D02*
X15014407Y-16534850D01*
X15214407Y-16534850D02*
X15100121Y-16534850D01*
X15157264Y-16534850D02*
X15157264Y-16334850D01*
X15157264Y-16334850D02*
X15138216Y-16363421D01*
X15138216Y-16363421D02*
X15119169Y-16382469D01*
X15119169Y-16382469D02*
X15100121Y-16391993D01*
X15338216Y-16334850D02*
X15357264Y-16334850D01*
X15357264Y-16334850D02*
X15376312Y-16344374D01*
X15376312Y-16344374D02*
X15385835Y-16353897D01*
X15385835Y-16353897D02*
X15395359Y-16372945D01*
X15395359Y-16372945D02*
X15404883Y-16411040D01*
X15404883Y-16411040D02*
X15404883Y-16458659D01*
X15404883Y-16458659D02*
X15395359Y-16496755D01*
X15395359Y-16496755D02*
X15385835Y-16515802D01*
X15385835Y-16515802D02*
X15376312Y-16525326D01*
X15376312Y-16525326D02*
X15357264Y-16534850D01*
X15357264Y-16534850D02*
X15338216Y-16534850D01*
X15338216Y-16534850D02*
X15319169Y-16525326D01*
X15319169Y-16525326D02*
X15309645Y-16515802D01*
X15309645Y-16515802D02*
X15300121Y-16496755D01*
X15300121Y-16496755D02*
X15290597Y-16458659D01*
X15290597Y-16458659D02*
X15290597Y-16411040D01*
X15290597Y-16411040D02*
X15300121Y-16372945D01*
X15300121Y-16372945D02*
X15309645Y-16353897D01*
X15309645Y-16353897D02*
X15319169Y-16344374D01*
X15319169Y-16344374D02*
X15338216Y-16334850D01*
X15528693Y-16334850D02*
X15547740Y-16334850D01*
X15547740Y-16334850D02*
X15566788Y-16344374D01*
X15566788Y-16344374D02*
X15576312Y-16353897D01*
X15576312Y-16353897D02*
X15585835Y-16372945D01*
X15585835Y-16372945D02*
X15595359Y-16411040D01*
X15595359Y-16411040D02*
X15595359Y-16458659D01*
X15595359Y-16458659D02*
X15585835Y-16496755D01*
X15585835Y-16496755D02*
X15576312Y-16515802D01*
X15576312Y-16515802D02*
X15566788Y-16525326D01*
X15566788Y-16525326D02*
X15547740Y-16534850D01*
X15547740Y-16534850D02*
X15528693Y-16534850D01*
X15528693Y-16534850D02*
X15509645Y-16525326D01*
X15509645Y-16525326D02*
X15500121Y-16515802D01*
X15500121Y-16515802D02*
X15490597Y-16496755D01*
X15490597Y-16496755D02*
X15481074Y-16458659D01*
X15481074Y-16458659D02*
X15481074Y-16411040D01*
X15481074Y-16411040D02*
X15490597Y-16372945D01*
X15490597Y-16372945D02*
X15500121Y-16353897D01*
X15500121Y-16353897D02*
X15509645Y-16344374D01*
X15509645Y-16344374D02*
X15528693Y-16334850D01*
X15681074Y-16534850D02*
X15681074Y-16401516D01*
X15681074Y-16420564D02*
X15690597Y-16411040D01*
X15690597Y-16411040D02*
X15709645Y-16401516D01*
X15709645Y-16401516D02*
X15738216Y-16401516D01*
X15738216Y-16401516D02*
X15757264Y-16411040D01*
X15757264Y-16411040D02*
X15766788Y-16430088D01*
X15766788Y-16430088D02*
X15766788Y-16534850D01*
X15766788Y-16430088D02*
X15776312Y-16411040D01*
X15776312Y-16411040D02*
X15795359Y-16401516D01*
X15795359Y-16401516D02*
X15823931Y-16401516D01*
X15823931Y-16401516D02*
X15842978Y-16411040D01*
X15842978Y-16411040D02*
X15852502Y-16430088D01*
X15852502Y-16430088D02*
X15852502Y-16534850D01*
X15947740Y-16534850D02*
X15947740Y-16401516D01*
X15947740Y-16420564D02*
X15957264Y-16411040D01*
X15957264Y-16411040D02*
X15976312Y-16401516D01*
X15976312Y-16401516D02*
X16004883Y-16401516D01*
X16004883Y-16401516D02*
X16023931Y-16411040D01*
X16023931Y-16411040D02*
X16033455Y-16430088D01*
X16033455Y-16430088D02*
X16033455Y-16534850D01*
X16033455Y-16430088D02*
X16042978Y-16411040D01*
X16042978Y-16411040D02*
X16062026Y-16401516D01*
X16062026Y-16401516D02*
X16090597Y-16401516D01*
X16090597Y-16401516D02*
X16109645Y-16411040D01*
X16109645Y-16411040D02*
X16119169Y-16430088D01*
X16119169Y-16430088D02*
X16119169Y-16534850D01*
X16509645Y-16325326D02*
X16338217Y-16582469D01*
X16766788Y-16334850D02*
X16785836Y-16334850D01*
X16785836Y-16334850D02*
X16804883Y-16344374D01*
X16804883Y-16344374D02*
X16814407Y-16353897D01*
X16814407Y-16353897D02*
X16823931Y-16372945D01*
X16823931Y-16372945D02*
X16833455Y-16411040D01*
X16833455Y-16411040D02*
X16833455Y-16458659D01*
X16833455Y-16458659D02*
X16823931Y-16496755D01*
X16823931Y-16496755D02*
X16814407Y-16515802D01*
X16814407Y-16515802D02*
X16804883Y-16525326D01*
X16804883Y-16525326D02*
X16785836Y-16534850D01*
X16785836Y-16534850D02*
X16766788Y-16534850D01*
X16766788Y-16534850D02*
X16747740Y-16525326D01*
X16747740Y-16525326D02*
X16738217Y-16515802D01*
X16738217Y-16515802D02*
X16728693Y-16496755D01*
X16728693Y-16496755D02*
X16719169Y-16458659D01*
X16719169Y-16458659D02*
X16719169Y-16411040D01*
X16719169Y-16411040D02*
X16728693Y-16372945D01*
X16728693Y-16372945D02*
X16738217Y-16353897D01*
X16738217Y-16353897D02*
X16747740Y-16344374D01*
X16747740Y-16344374D02*
X16766788Y-16334850D01*
X16919169Y-16515802D02*
X16928693Y-16525326D01*
X16928693Y-16525326D02*
X16919169Y-16534850D01*
X16919169Y-16534850D02*
X16909645Y-16525326D01*
X16909645Y-16525326D02*
X16919169Y-16515802D01*
X16919169Y-16515802D02*
X16919169Y-16534850D01*
X17052502Y-16334850D02*
X17071550Y-16334850D01*
X17071550Y-16334850D02*
X17090598Y-16344374D01*
X17090598Y-16344374D02*
X17100121Y-16353897D01*
X17100121Y-16353897D02*
X17109645Y-16372945D01*
X17109645Y-16372945D02*
X17119169Y-16411040D01*
X17119169Y-16411040D02*
X17119169Y-16458659D01*
X17119169Y-16458659D02*
X17109645Y-16496755D01*
X17109645Y-16496755D02*
X17100121Y-16515802D01*
X17100121Y-16515802D02*
X17090598Y-16525326D01*
X17090598Y-16525326D02*
X17071550Y-16534850D01*
X17071550Y-16534850D02*
X17052502Y-16534850D01*
X17052502Y-16534850D02*
X17033455Y-16525326D01*
X17033455Y-16525326D02*
X17023931Y-16515802D01*
X17023931Y-16515802D02*
X17014407Y-16496755D01*
X17014407Y-16496755D02*
X17004883Y-16458659D01*
X17004883Y-16458659D02*
X17004883Y-16411040D01*
X17004883Y-16411040D02*
X17014407Y-16372945D01*
X17014407Y-16372945D02*
X17023931Y-16353897D01*
X17023931Y-16353897D02*
X17033455Y-16344374D01*
X17033455Y-16344374D02*
X17052502Y-16334850D01*
X17233455Y-16420564D02*
X17214407Y-16411040D01*
X17214407Y-16411040D02*
X17204883Y-16401516D01*
X17204883Y-16401516D02*
X17195360Y-16382469D01*
X17195360Y-16382469D02*
X17195360Y-16372945D01*
X17195360Y-16372945D02*
X17204883Y-16353897D01*
X17204883Y-16353897D02*
X17214407Y-16344374D01*
X17214407Y-16344374D02*
X17233455Y-16334850D01*
X17233455Y-16334850D02*
X17271550Y-16334850D01*
X17271550Y-16334850D02*
X17290598Y-16344374D01*
X17290598Y-16344374D02*
X17300121Y-16353897D01*
X17300121Y-16353897D02*
X17309645Y-16372945D01*
X17309645Y-16372945D02*
X17309645Y-16382469D01*
X17309645Y-16382469D02*
X17300121Y-16401516D01*
X17300121Y-16401516D02*
X17290598Y-16411040D01*
X17290598Y-16411040D02*
X17271550Y-16420564D01*
X17271550Y-16420564D02*
X17233455Y-16420564D01*
X17233455Y-16420564D02*
X17214407Y-16430088D01*
X17214407Y-16430088D02*
X17204883Y-16439612D01*
X17204883Y-16439612D02*
X17195360Y-16458659D01*
X17195360Y-16458659D02*
X17195360Y-16496755D01*
X17195360Y-16496755D02*
X17204883Y-16515802D01*
X17204883Y-16515802D02*
X17214407Y-16525326D01*
X17214407Y-16525326D02*
X17233455Y-16534850D01*
X17233455Y-16534850D02*
X17271550Y-16534850D01*
X17271550Y-16534850D02*
X17290598Y-16525326D01*
X17290598Y-16525326D02*
X17300121Y-16515802D01*
X17300121Y-16515802D02*
X17309645Y-16496755D01*
X17309645Y-16496755D02*
X17309645Y-16458659D01*
X17309645Y-16458659D02*
X17300121Y-16439612D01*
X17300121Y-16439612D02*
X17290598Y-16430088D01*
X17290598Y-16430088D02*
X17271550Y-16420564D01*
X17385836Y-16353897D02*
X17395360Y-16344374D01*
X17395360Y-16344374D02*
X17414407Y-16334850D01*
X17414407Y-16334850D02*
X17462026Y-16334850D01*
X17462026Y-16334850D02*
X17481074Y-16344374D01*
X17481074Y-16344374D02*
X17490598Y-16353897D01*
X17490598Y-16353897D02*
X17500121Y-16372945D01*
X17500121Y-16372945D02*
X17500121Y-16391993D01*
X17500121Y-16391993D02*
X17490598Y-16420564D01*
X17490598Y-16420564D02*
X17376312Y-16534850D01*
X17376312Y-16534850D02*
X17500121Y-16534850D01*
X17566788Y-16334850D02*
X17700121Y-16334850D01*
X17700121Y-16334850D02*
X17614407Y-16534850D01*
X17766788Y-16334850D02*
X17766788Y-16372945D01*
X17842979Y-16334850D02*
X17842979Y-16372945D01*
X18138217Y-16611040D02*
X18128693Y-16601516D01*
X18128693Y-16601516D02*
X18109645Y-16572945D01*
X18109645Y-16572945D02*
X18100122Y-16553897D01*
X18100122Y-16553897D02*
X18090598Y-16525326D01*
X18090598Y-16525326D02*
X18081074Y-16477707D01*
X18081074Y-16477707D02*
X18081074Y-16439612D01*
X18081074Y-16439612D02*
X18090598Y-16391993D01*
X18090598Y-16391993D02*
X18100122Y-16363421D01*
X18100122Y-16363421D02*
X18109645Y-16344374D01*
X18109645Y-16344374D02*
X18128693Y-16315802D01*
X18128693Y-16315802D02*
X18138217Y-16306278D01*
X18319169Y-16534850D02*
X18204883Y-16534850D01*
X18262026Y-16534850D02*
X18262026Y-16334850D01*
X18262026Y-16334850D02*
X18242979Y-16363421D01*
X18242979Y-16363421D02*
X18223931Y-16382469D01*
X18223931Y-16382469D02*
X18204883Y-16391993D01*
X18490598Y-16334850D02*
X18452502Y-16334850D01*
X18452502Y-16334850D02*
X18433455Y-16344374D01*
X18433455Y-16344374D02*
X18423931Y-16353897D01*
X18423931Y-16353897D02*
X18404883Y-16382469D01*
X18404883Y-16382469D02*
X18395360Y-16420564D01*
X18395360Y-16420564D02*
X18395360Y-16496755D01*
X18395360Y-16496755D02*
X18404883Y-16515802D01*
X18404883Y-16515802D02*
X18414407Y-16525326D01*
X18414407Y-16525326D02*
X18433455Y-16534850D01*
X18433455Y-16534850D02*
X18471550Y-16534850D01*
X18471550Y-16534850D02*
X18490598Y-16525326D01*
X18490598Y-16525326D02*
X18500122Y-16515802D01*
X18500122Y-16515802D02*
X18509645Y-16496755D01*
X18509645Y-16496755D02*
X18509645Y-16449136D01*
X18509645Y-16449136D02*
X18500122Y-16430088D01*
X18500122Y-16430088D02*
X18490598Y-16420564D01*
X18490598Y-16420564D02*
X18471550Y-16411040D01*
X18471550Y-16411040D02*
X18433455Y-16411040D01*
X18433455Y-16411040D02*
X18414407Y-16420564D01*
X18414407Y-16420564D02*
X18404883Y-16430088D01*
X18404883Y-16430088D02*
X18395360Y-16449136D01*
X18747741Y-16534850D02*
X18747741Y-16334850D01*
X18833455Y-16534850D02*
X18833455Y-16430088D01*
X18833455Y-16430088D02*
X18823931Y-16411040D01*
X18823931Y-16411040D02*
X18804884Y-16401516D01*
X18804884Y-16401516D02*
X18776312Y-16401516D01*
X18776312Y-16401516D02*
X18757264Y-16411040D01*
X18757264Y-16411040D02*
X18747741Y-16420564D01*
X18957264Y-16534850D02*
X18938217Y-16525326D01*
X18938217Y-16525326D02*
X18928693Y-16515802D01*
X18928693Y-16515802D02*
X18919169Y-16496755D01*
X18919169Y-16496755D02*
X18919169Y-16439612D01*
X18919169Y-16439612D02*
X18928693Y-16420564D01*
X18928693Y-16420564D02*
X18938217Y-16411040D01*
X18938217Y-16411040D02*
X18957264Y-16401516D01*
X18957264Y-16401516D02*
X18985836Y-16401516D01*
X18985836Y-16401516D02*
X19004884Y-16411040D01*
X19004884Y-16411040D02*
X19014407Y-16420564D01*
X19014407Y-16420564D02*
X19023931Y-16439612D01*
X19023931Y-16439612D02*
X19023931Y-16496755D01*
X19023931Y-16496755D02*
X19014407Y-16515802D01*
X19014407Y-16515802D02*
X19004884Y-16525326D01*
X19004884Y-16525326D02*
X18985836Y-16534850D01*
X18985836Y-16534850D02*
X18957264Y-16534850D01*
X19138217Y-16534850D02*
X19119169Y-16525326D01*
X19119169Y-16525326D02*
X19109645Y-16506278D01*
X19109645Y-16506278D02*
X19109645Y-16334850D01*
X19290598Y-16525326D02*
X19271550Y-16534850D01*
X19271550Y-16534850D02*
X19233455Y-16534850D01*
X19233455Y-16534850D02*
X19214407Y-16525326D01*
X19214407Y-16525326D02*
X19204884Y-16506278D01*
X19204884Y-16506278D02*
X19204884Y-16430088D01*
X19204884Y-16430088D02*
X19214407Y-16411040D01*
X19214407Y-16411040D02*
X19233455Y-16401516D01*
X19233455Y-16401516D02*
X19271550Y-16401516D01*
X19271550Y-16401516D02*
X19290598Y-16411040D01*
X19290598Y-16411040D02*
X19300122Y-16430088D01*
X19300122Y-16430088D02*
X19300122Y-16449136D01*
X19300122Y-16449136D02*
X19204884Y-16468183D01*
X19376312Y-16525326D02*
X19395360Y-16534850D01*
X19395360Y-16534850D02*
X19433455Y-16534850D01*
X19433455Y-16534850D02*
X19452503Y-16525326D01*
X19452503Y-16525326D02*
X19462026Y-16506278D01*
X19462026Y-16506278D02*
X19462026Y-16496755D01*
X19462026Y-16496755D02*
X19452503Y-16477707D01*
X19452503Y-16477707D02*
X19433455Y-16468183D01*
X19433455Y-16468183D02*
X19404884Y-16468183D01*
X19404884Y-16468183D02*
X19385836Y-16458659D01*
X19385836Y-16458659D02*
X19376312Y-16439612D01*
X19376312Y-16439612D02*
X19376312Y-16430088D01*
X19376312Y-16430088D02*
X19385836Y-16411040D01*
X19385836Y-16411040D02*
X19404884Y-16401516D01*
X19404884Y-16401516D02*
X19433455Y-16401516D01*
X19433455Y-16401516D02*
X19452503Y-16411040D01*
X19528693Y-16611040D02*
X19538217Y-16601516D01*
X19538217Y-16601516D02*
X19557265Y-16572945D01*
X19557265Y-16572945D02*
X19566788Y-16553897D01*
X19566788Y-16553897D02*
X19576312Y-16525326D01*
X19576312Y-16525326D02*
X19585836Y-16477707D01*
X19585836Y-16477707D02*
X19585836Y-16439612D01*
X19585836Y-16439612D02*
X19576312Y-16391993D01*
X19576312Y-16391993D02*
X19566788Y-16363421D01*
X19566788Y-16363421D02*
X19557265Y-16344374D01*
X19557265Y-16344374D02*
X19538217Y-16315802D01*
X19538217Y-16315802D02*
X19528693Y-16306278D01*
X14463154Y-16863366D02*
X14563154Y-16763366D01*
X14463154Y-16663366D01*
X14363154Y-16763366D01*
X14463154Y-16863366D01*
X14814407Y-16673897D02*
X14823931Y-16664374D01*
X14823931Y-16664374D02*
X14842978Y-16654850D01*
X14842978Y-16654850D02*
X14890597Y-16654850D01*
X14890597Y-16654850D02*
X14909645Y-16664374D01*
X14909645Y-16664374D02*
X14919169Y-16673897D01*
X14919169Y-16673897D02*
X14928693Y-16692945D01*
X14928693Y-16692945D02*
X14928693Y-16711993D01*
X14928693Y-16711993D02*
X14919169Y-16740564D01*
X14919169Y-16740564D02*
X14804883Y-16854850D01*
X14804883Y-16854850D02*
X14928693Y-16854850D01*
X15014407Y-16835802D02*
X15023931Y-16845326D01*
X15023931Y-16845326D02*
X15014407Y-16854850D01*
X15014407Y-16854850D02*
X15004883Y-16845326D01*
X15004883Y-16845326D02*
X15014407Y-16835802D01*
X15014407Y-16835802D02*
X15014407Y-16854850D01*
X15100121Y-16673897D02*
X15109645Y-16664374D01*
X15109645Y-16664374D02*
X15128693Y-16654850D01*
X15128693Y-16654850D02*
X15176312Y-16654850D01*
X15176312Y-16654850D02*
X15195359Y-16664374D01*
X15195359Y-16664374D02*
X15204883Y-16673897D01*
X15204883Y-16673897D02*
X15214407Y-16692945D01*
X15214407Y-16692945D02*
X15214407Y-16711993D01*
X15214407Y-16711993D02*
X15204883Y-16740564D01*
X15204883Y-16740564D02*
X15090597Y-16854850D01*
X15090597Y-16854850D02*
X15214407Y-16854850D01*
X15338216Y-16654850D02*
X15357264Y-16654850D01*
X15357264Y-16654850D02*
X15376312Y-16664374D01*
X15376312Y-16664374D02*
X15385835Y-16673897D01*
X15385835Y-16673897D02*
X15395359Y-16692945D01*
X15395359Y-16692945D02*
X15404883Y-16731040D01*
X15404883Y-16731040D02*
X15404883Y-16778659D01*
X15404883Y-16778659D02*
X15395359Y-16816755D01*
X15395359Y-16816755D02*
X15385835Y-16835802D01*
X15385835Y-16835802D02*
X15376312Y-16845326D01*
X15376312Y-16845326D02*
X15357264Y-16854850D01*
X15357264Y-16854850D02*
X15338216Y-16854850D01*
X15338216Y-16854850D02*
X15319169Y-16845326D01*
X15319169Y-16845326D02*
X15309645Y-16835802D01*
X15309645Y-16835802D02*
X15300121Y-16816755D01*
X15300121Y-16816755D02*
X15290597Y-16778659D01*
X15290597Y-16778659D02*
X15290597Y-16731040D01*
X15290597Y-16731040D02*
X15300121Y-16692945D01*
X15300121Y-16692945D02*
X15309645Y-16673897D01*
X15309645Y-16673897D02*
X15319169Y-16664374D01*
X15319169Y-16664374D02*
X15338216Y-16654850D01*
X15528693Y-16654850D02*
X15547740Y-16654850D01*
X15547740Y-16654850D02*
X15566788Y-16664374D01*
X15566788Y-16664374D02*
X15576312Y-16673897D01*
X15576312Y-16673897D02*
X15585835Y-16692945D01*
X15585835Y-16692945D02*
X15595359Y-16731040D01*
X15595359Y-16731040D02*
X15595359Y-16778659D01*
X15595359Y-16778659D02*
X15585835Y-16816755D01*
X15585835Y-16816755D02*
X15576312Y-16835802D01*
X15576312Y-16835802D02*
X15566788Y-16845326D01*
X15566788Y-16845326D02*
X15547740Y-16854850D01*
X15547740Y-16854850D02*
X15528693Y-16854850D01*
X15528693Y-16854850D02*
X15509645Y-16845326D01*
X15509645Y-16845326D02*
X15500121Y-16835802D01*
X15500121Y-16835802D02*
X15490597Y-16816755D01*
X15490597Y-16816755D02*
X15481074Y-16778659D01*
X15481074Y-16778659D02*
X15481074Y-16731040D01*
X15481074Y-16731040D02*
X15490597Y-16692945D01*
X15490597Y-16692945D02*
X15500121Y-16673897D01*
X15500121Y-16673897D02*
X15509645Y-16664374D01*
X15509645Y-16664374D02*
X15528693Y-16654850D01*
X15681074Y-16854850D02*
X15681074Y-16721516D01*
X15681074Y-16740564D02*
X15690597Y-16731040D01*
X15690597Y-16731040D02*
X15709645Y-16721516D01*
X15709645Y-16721516D02*
X15738216Y-16721516D01*
X15738216Y-16721516D02*
X15757264Y-16731040D01*
X15757264Y-16731040D02*
X15766788Y-16750088D01*
X15766788Y-16750088D02*
X15766788Y-16854850D01*
X15766788Y-16750088D02*
X15776312Y-16731040D01*
X15776312Y-16731040D02*
X15795359Y-16721516D01*
X15795359Y-16721516D02*
X15823931Y-16721516D01*
X15823931Y-16721516D02*
X15842978Y-16731040D01*
X15842978Y-16731040D02*
X15852502Y-16750088D01*
X15852502Y-16750088D02*
X15852502Y-16854850D01*
X15947740Y-16854850D02*
X15947740Y-16721516D01*
X15947740Y-16740564D02*
X15957264Y-16731040D01*
X15957264Y-16731040D02*
X15976312Y-16721516D01*
X15976312Y-16721516D02*
X16004883Y-16721516D01*
X16004883Y-16721516D02*
X16023931Y-16731040D01*
X16023931Y-16731040D02*
X16033455Y-16750088D01*
X16033455Y-16750088D02*
X16033455Y-16854850D01*
X16033455Y-16750088D02*
X16042978Y-16731040D01*
X16042978Y-16731040D02*
X16062026Y-16721516D01*
X16062026Y-16721516D02*
X16090597Y-16721516D01*
X16090597Y-16721516D02*
X16109645Y-16731040D01*
X16109645Y-16731040D02*
X16119169Y-16750088D01*
X16119169Y-16750088D02*
X16119169Y-16854850D01*
X16509645Y-16645326D02*
X16338217Y-16902469D01*
X16766788Y-16654850D02*
X16785836Y-16654850D01*
X16785836Y-16654850D02*
X16804883Y-16664374D01*
X16804883Y-16664374D02*
X16814407Y-16673897D01*
X16814407Y-16673897D02*
X16823931Y-16692945D01*
X16823931Y-16692945D02*
X16833455Y-16731040D01*
X16833455Y-16731040D02*
X16833455Y-16778659D01*
X16833455Y-16778659D02*
X16823931Y-16816755D01*
X16823931Y-16816755D02*
X16814407Y-16835802D01*
X16814407Y-16835802D02*
X16804883Y-16845326D01*
X16804883Y-16845326D02*
X16785836Y-16854850D01*
X16785836Y-16854850D02*
X16766788Y-16854850D01*
X16766788Y-16854850D02*
X16747740Y-16845326D01*
X16747740Y-16845326D02*
X16738217Y-16835802D01*
X16738217Y-16835802D02*
X16728693Y-16816755D01*
X16728693Y-16816755D02*
X16719169Y-16778659D01*
X16719169Y-16778659D02*
X16719169Y-16731040D01*
X16719169Y-16731040D02*
X16728693Y-16692945D01*
X16728693Y-16692945D02*
X16738217Y-16673897D01*
X16738217Y-16673897D02*
X16747740Y-16664374D01*
X16747740Y-16664374D02*
X16766788Y-16654850D01*
X16919169Y-16835802D02*
X16928693Y-16845326D01*
X16928693Y-16845326D02*
X16919169Y-16854850D01*
X16919169Y-16854850D02*
X16909645Y-16845326D01*
X16909645Y-16845326D02*
X16919169Y-16835802D01*
X16919169Y-16835802D02*
X16919169Y-16854850D01*
X17052502Y-16654850D02*
X17071550Y-16654850D01*
X17071550Y-16654850D02*
X17090598Y-16664374D01*
X17090598Y-16664374D02*
X17100121Y-16673897D01*
X17100121Y-16673897D02*
X17109645Y-16692945D01*
X17109645Y-16692945D02*
X17119169Y-16731040D01*
X17119169Y-16731040D02*
X17119169Y-16778659D01*
X17119169Y-16778659D02*
X17109645Y-16816755D01*
X17109645Y-16816755D02*
X17100121Y-16835802D01*
X17100121Y-16835802D02*
X17090598Y-16845326D01*
X17090598Y-16845326D02*
X17071550Y-16854850D01*
X17071550Y-16854850D02*
X17052502Y-16854850D01*
X17052502Y-16854850D02*
X17033455Y-16845326D01*
X17033455Y-16845326D02*
X17023931Y-16835802D01*
X17023931Y-16835802D02*
X17014407Y-16816755D01*
X17014407Y-16816755D02*
X17004883Y-16778659D01*
X17004883Y-16778659D02*
X17004883Y-16731040D01*
X17004883Y-16731040D02*
X17014407Y-16692945D01*
X17014407Y-16692945D02*
X17023931Y-16673897D01*
X17023931Y-16673897D02*
X17033455Y-16664374D01*
X17033455Y-16664374D02*
X17052502Y-16654850D01*
X17233455Y-16740564D02*
X17214407Y-16731040D01*
X17214407Y-16731040D02*
X17204883Y-16721516D01*
X17204883Y-16721516D02*
X17195360Y-16702469D01*
X17195360Y-16702469D02*
X17195360Y-16692945D01*
X17195360Y-16692945D02*
X17204883Y-16673897D01*
X17204883Y-16673897D02*
X17214407Y-16664374D01*
X17214407Y-16664374D02*
X17233455Y-16654850D01*
X17233455Y-16654850D02*
X17271550Y-16654850D01*
X17271550Y-16654850D02*
X17290598Y-16664374D01*
X17290598Y-16664374D02*
X17300121Y-16673897D01*
X17300121Y-16673897D02*
X17309645Y-16692945D01*
X17309645Y-16692945D02*
X17309645Y-16702469D01*
X17309645Y-16702469D02*
X17300121Y-16721516D01*
X17300121Y-16721516D02*
X17290598Y-16731040D01*
X17290598Y-16731040D02*
X17271550Y-16740564D01*
X17271550Y-16740564D02*
X17233455Y-16740564D01*
X17233455Y-16740564D02*
X17214407Y-16750088D01*
X17214407Y-16750088D02*
X17204883Y-16759612D01*
X17204883Y-16759612D02*
X17195360Y-16778659D01*
X17195360Y-16778659D02*
X17195360Y-16816755D01*
X17195360Y-16816755D02*
X17204883Y-16835802D01*
X17204883Y-16835802D02*
X17214407Y-16845326D01*
X17214407Y-16845326D02*
X17233455Y-16854850D01*
X17233455Y-16854850D02*
X17271550Y-16854850D01*
X17271550Y-16854850D02*
X17290598Y-16845326D01*
X17290598Y-16845326D02*
X17300121Y-16835802D01*
X17300121Y-16835802D02*
X17309645Y-16816755D01*
X17309645Y-16816755D02*
X17309645Y-16778659D01*
X17309645Y-16778659D02*
X17300121Y-16759612D01*
X17300121Y-16759612D02*
X17290598Y-16750088D01*
X17290598Y-16750088D02*
X17271550Y-16740564D01*
X17481074Y-16654850D02*
X17442979Y-16654850D01*
X17442979Y-16654850D02*
X17423931Y-16664374D01*
X17423931Y-16664374D02*
X17414407Y-16673897D01*
X17414407Y-16673897D02*
X17395360Y-16702469D01*
X17395360Y-16702469D02*
X17385836Y-16740564D01*
X17385836Y-16740564D02*
X17385836Y-16816755D01*
X17385836Y-16816755D02*
X17395360Y-16835802D01*
X17395360Y-16835802D02*
X17404883Y-16845326D01*
X17404883Y-16845326D02*
X17423931Y-16854850D01*
X17423931Y-16854850D02*
X17462026Y-16854850D01*
X17462026Y-16854850D02*
X17481074Y-16845326D01*
X17481074Y-16845326D02*
X17490598Y-16835802D01*
X17490598Y-16835802D02*
X17500121Y-16816755D01*
X17500121Y-16816755D02*
X17500121Y-16769136D01*
X17500121Y-16769136D02*
X17490598Y-16750088D01*
X17490598Y-16750088D02*
X17481074Y-16740564D01*
X17481074Y-16740564D02*
X17462026Y-16731040D01*
X17462026Y-16731040D02*
X17423931Y-16731040D01*
X17423931Y-16731040D02*
X17404883Y-16740564D01*
X17404883Y-16740564D02*
X17395360Y-16750088D01*
X17395360Y-16750088D02*
X17385836Y-16769136D01*
X17671550Y-16654850D02*
X17633455Y-16654850D01*
X17633455Y-16654850D02*
X17614407Y-16664374D01*
X17614407Y-16664374D02*
X17604883Y-16673897D01*
X17604883Y-16673897D02*
X17585836Y-16702469D01*
X17585836Y-16702469D02*
X17576312Y-16740564D01*
X17576312Y-16740564D02*
X17576312Y-16816755D01*
X17576312Y-16816755D02*
X17585836Y-16835802D01*
X17585836Y-16835802D02*
X17595360Y-16845326D01*
X17595360Y-16845326D02*
X17614407Y-16854850D01*
X17614407Y-16854850D02*
X17652502Y-16854850D01*
X17652502Y-16854850D02*
X17671550Y-16845326D01*
X17671550Y-16845326D02*
X17681074Y-16835802D01*
X17681074Y-16835802D02*
X17690598Y-16816755D01*
X17690598Y-16816755D02*
X17690598Y-16769136D01*
X17690598Y-16769136D02*
X17681074Y-16750088D01*
X17681074Y-16750088D02*
X17671550Y-16740564D01*
X17671550Y-16740564D02*
X17652502Y-16731040D01*
X17652502Y-16731040D02*
X17614407Y-16731040D01*
X17614407Y-16731040D02*
X17595360Y-16740564D01*
X17595360Y-16740564D02*
X17585836Y-16750088D01*
X17585836Y-16750088D02*
X17576312Y-16769136D01*
X17766788Y-16654850D02*
X17766788Y-16692945D01*
X17842979Y-16654850D02*
X17842979Y-16692945D01*
X18138217Y-16931040D02*
X18128693Y-16921517D01*
X18128693Y-16921517D02*
X18109645Y-16892945D01*
X18109645Y-16892945D02*
X18100122Y-16873898D01*
X18100122Y-16873898D02*
X18090598Y-16845326D01*
X18090598Y-16845326D02*
X18081074Y-16797707D01*
X18081074Y-16797707D02*
X18081074Y-16759612D01*
X18081074Y-16759612D02*
X18090598Y-16711993D01*
X18090598Y-16711993D02*
X18100122Y-16683421D01*
X18100122Y-16683421D02*
X18109645Y-16664374D01*
X18109645Y-16664374D02*
X18128693Y-16635802D01*
X18128693Y-16635802D02*
X18138217Y-16626278D01*
X18309645Y-16654850D02*
X18214407Y-16654850D01*
X18214407Y-16654850D02*
X18204883Y-16750088D01*
X18204883Y-16750088D02*
X18214407Y-16740564D01*
X18214407Y-16740564D02*
X18233455Y-16731040D01*
X18233455Y-16731040D02*
X18281074Y-16731040D01*
X18281074Y-16731040D02*
X18300122Y-16740564D01*
X18300122Y-16740564D02*
X18309645Y-16750088D01*
X18309645Y-16750088D02*
X18319169Y-16769136D01*
X18319169Y-16769136D02*
X18319169Y-16816755D01*
X18319169Y-16816755D02*
X18309645Y-16835802D01*
X18309645Y-16835802D02*
X18300122Y-16845326D01*
X18300122Y-16845326D02*
X18281074Y-16854850D01*
X18281074Y-16854850D02*
X18233455Y-16854850D01*
X18233455Y-16854850D02*
X18214407Y-16845326D01*
X18214407Y-16845326D02*
X18204883Y-16835802D01*
X18557264Y-16854850D02*
X18557264Y-16654850D01*
X18642979Y-16854850D02*
X18642979Y-16750088D01*
X18642979Y-16750088D02*
X18633455Y-16731040D01*
X18633455Y-16731040D02*
X18614407Y-16721516D01*
X18614407Y-16721516D02*
X18585836Y-16721516D01*
X18585836Y-16721516D02*
X18566788Y-16731040D01*
X18566788Y-16731040D02*
X18557264Y-16740564D01*
X18766788Y-16854850D02*
X18747741Y-16845326D01*
X18747741Y-16845326D02*
X18738217Y-16835802D01*
X18738217Y-16835802D02*
X18728693Y-16816755D01*
X18728693Y-16816755D02*
X18728693Y-16759612D01*
X18728693Y-16759612D02*
X18738217Y-16740564D01*
X18738217Y-16740564D02*
X18747741Y-16731040D01*
X18747741Y-16731040D02*
X18766788Y-16721516D01*
X18766788Y-16721516D02*
X18795360Y-16721516D01*
X18795360Y-16721516D02*
X18814407Y-16731040D01*
X18814407Y-16731040D02*
X18823931Y-16740564D01*
X18823931Y-16740564D02*
X18833455Y-16759612D01*
X18833455Y-16759612D02*
X18833455Y-16816755D01*
X18833455Y-16816755D02*
X18823931Y-16835802D01*
X18823931Y-16835802D02*
X18814407Y-16845326D01*
X18814407Y-16845326D02*
X18795360Y-16854850D01*
X18795360Y-16854850D02*
X18766788Y-16854850D01*
X18947741Y-16854850D02*
X18928693Y-16845326D01*
X18928693Y-16845326D02*
X18919169Y-16826278D01*
X18919169Y-16826278D02*
X18919169Y-16654850D01*
X19100122Y-16845326D02*
X19081074Y-16854850D01*
X19081074Y-16854850D02*
X19042979Y-16854850D01*
X19042979Y-16854850D02*
X19023931Y-16845326D01*
X19023931Y-16845326D02*
X19014407Y-16826278D01*
X19014407Y-16826278D02*
X19014407Y-16750088D01*
X19014407Y-16750088D02*
X19023931Y-16731040D01*
X19023931Y-16731040D02*
X19042979Y-16721516D01*
X19042979Y-16721516D02*
X19081074Y-16721516D01*
X19081074Y-16721516D02*
X19100122Y-16731040D01*
X19100122Y-16731040D02*
X19109645Y-16750088D01*
X19109645Y-16750088D02*
X19109645Y-16769136D01*
X19109645Y-16769136D02*
X19014407Y-16788183D01*
X19185836Y-16845326D02*
X19204884Y-16854850D01*
X19204884Y-16854850D02*
X19242979Y-16854850D01*
X19242979Y-16854850D02*
X19262026Y-16845326D01*
X19262026Y-16845326D02*
X19271550Y-16826278D01*
X19271550Y-16826278D02*
X19271550Y-16816755D01*
X19271550Y-16816755D02*
X19262026Y-16797707D01*
X19262026Y-16797707D02*
X19242979Y-16788183D01*
X19242979Y-16788183D02*
X19214407Y-16788183D01*
X19214407Y-16788183D02*
X19195360Y-16778659D01*
X19195360Y-16778659D02*
X19185836Y-16759612D01*
X19185836Y-16759612D02*
X19185836Y-16750088D01*
X19185836Y-16750088D02*
X19195360Y-16731040D01*
X19195360Y-16731040D02*
X19214407Y-16721516D01*
X19214407Y-16721516D02*
X19242979Y-16721516D01*
X19242979Y-16721516D02*
X19262026Y-16731040D01*
X19338217Y-16931040D02*
X19347741Y-16921517D01*
X19347741Y-16921517D02*
X19366788Y-16892945D01*
X19366788Y-16892945D02*
X19376312Y-16873898D01*
X19376312Y-16873898D02*
X19385836Y-16845326D01*
X19385836Y-16845326D02*
X19395360Y-16797707D01*
X19395360Y-16797707D02*
X19395360Y-16759612D01*
X19395360Y-16759612D02*
X19385836Y-16711993D01*
X19385836Y-16711993D02*
X19376312Y-16683421D01*
X19376312Y-16683421D02*
X19366788Y-16664374D01*
X19366788Y-16664374D02*
X19347741Y-16635802D01*
X19347741Y-16635802D02*
X19338217Y-16626278D01*
M02*
