M48
; DRILL file {KiCad 8.0.3} date 2024-11-15T02:32:16-0800
; FORMAT={-:-/ absolute / inch / decimal}
; #@! TF.CreationDate,2024-11-15T02:32:16-08:00
; #@! TF.GenerationSoftware,Kicad,Pcbnew,8.0.3
; #@! TF.FileFunction,Plated,1,2,PTH
FMAT,2
INCH
; #@! TA.AperFunction,Plated,PTH,ViaDrill
T1C0.0157
; #@! TA.AperFunction,Plated,PTH,ComponentDrill
T2C0.0394
; #@! TA.AperFunction,Plated,PTH,ComponentDrill
T3C0.0680
; #@! TA.AperFunction,Plated,PTH,ComponentDrill
T4C0.0827
; #@! TA.AperFunction,Plated,PTH,ComponentDrill
T5C0.0866
%
G90
G05
T1
X6.04Y-4.73
X6.09Y-4.91
X6.2Y-4.72
X6.2537Y-4.9141
X6.3723Y-4.3875
X6.5207Y-5.0207
X6.6142Y-4.5807
X6.68Y-4.67
X6.82Y-4.67
X6.8776Y-4.4599
X7.0482Y-5.0207
X7.2106Y-4.6024
X7.27Y-4.74
X7.41Y-4.67
X7.4722Y-4.4374
X7.5571Y-5.0187
X7.8425Y-4.6004
X7.85Y-4.71
X8.0Y-4.67
X8.0703Y-4.4449
X8.122Y-5.0207
X8.38Y-5.02
X8.44Y-4.47
X9.3159Y-4.9154
X9.38Y-4.7
X9.3829Y-4.374
X9.4894Y-5.0616
X9.69Y-4.7
X9.69Y-4.9154
X9.9852Y-5.0463
X9.9872Y-5.0955
X10.002Y-4.7195
X10.08Y-4.76
X10.14Y-5.0463
X10.2Y-4.79
X10.5561Y-5.1171
X10.5719Y-5.0463
X10.6083Y-4.7392
X10.878Y-5.0463
X10.888Y-4.754
X11.0472Y-5.0482
X11.124Y-5.0955
X11.1949Y-4.7274
T2
X5.9163Y-5.3614
X5.9163Y-5.4614
X5.9163Y-5.5614
X5.9163Y-5.6614
X11.7539Y-5.3474
X11.7539Y-5.4474
X11.7539Y-5.5474
X11.7539Y-5.6474
X11.769Y-4.6392
X11.769Y-4.7392
T3
X8.6Y-5.1846
X8.6Y-5.5846
X9.0Y-5.1846
X9.0Y-5.5846
T4
X6.3213Y-3.6677
X6.6166Y-4.2189
X6.9119Y-3.6677
X7.2072Y-4.2189
X7.5024Y-3.6677
X7.7977Y-4.2189
X8.093Y-3.6677
X8.3883Y-4.2189
X9.4594Y-3.67
X9.7547Y-4.2212
X10.05Y-3.67
X10.3453Y-4.2212
X10.6406Y-3.67
X10.9358Y-4.2212
X11.2311Y-3.67
X11.5264Y-4.2212
T5
X5.9075Y-3.6939
X5.9075Y-5.0719
X5.9075Y-5.0719
X11.7539Y-3.6939
X11.7539Y-5.0719
M30
