%TF.GenerationSoftware,KiCad,Pcbnew,8.0.3*%
%TF.CreationDate,2024-11-15T02:32:19-08:00*%
%TF.ProjectId,Power_Distribution,506f7765-725f-4446-9973-747269627574,rev?*%
%TF.SameCoordinates,Original*%
%TF.FileFunction,Legend,Top*%
%TF.FilePolarity,Positive*%
%FSLAX46Y46*%
G04 Gerber Fmt 4.6, Leading zero omitted, Abs format (unit mm)*
G04 Created by KiCad (PCBNEW 8.0.3) date 2024-11-15 02:32:19*
%MOMM*%
%LPD*%
G01*
G04 APERTURE LIST*
%ADD10C,0.500000*%
%ADD11C,0.150000*%
%ADD12C,0.254000*%
%ADD13C,0.120000*%
%ADD14C,0.200000*%
%ADD15C,0.100000*%
%ADD16C,0.127000*%
%ADD17C,0.152400*%
%ADD18C,0.508000*%
G04 APERTURE END LIST*
D10*
X159713899Y-140684168D02*
X159981756Y-140827025D01*
X159981756Y-140827025D02*
X160457947Y-140827025D01*
X160457947Y-140827025D02*
X160666280Y-140684168D01*
X160666280Y-140684168D02*
X160779375Y-140541310D01*
X160779375Y-140541310D02*
X160910327Y-140255596D01*
X160910327Y-140255596D02*
X160946042Y-139969882D01*
X160946042Y-139969882D02*
X160886518Y-139684168D01*
X160886518Y-139684168D02*
X160809137Y-139541310D01*
X160809137Y-139541310D02*
X160636518Y-139398453D01*
X160636518Y-139398453D02*
X160273423Y-139255596D01*
X160273423Y-139255596D02*
X160100804Y-139112739D01*
X160100804Y-139112739D02*
X160023423Y-138969882D01*
X160023423Y-138969882D02*
X159963899Y-138684168D01*
X159963899Y-138684168D02*
X159999613Y-138398453D01*
X159999613Y-138398453D02*
X160130566Y-138112739D01*
X160130566Y-138112739D02*
X160243661Y-137969882D01*
X160243661Y-137969882D02*
X160451994Y-137827025D01*
X160451994Y-137827025D02*
X160928185Y-137827025D01*
X160928185Y-137827025D02*
X161196042Y-137969882D01*
X161660328Y-138827025D02*
X162422232Y-138827025D01*
X162071042Y-137827025D02*
X161749613Y-140398453D01*
X161749613Y-140398453D02*
X161809137Y-140684168D01*
X161809137Y-140684168D02*
X161981756Y-140827025D01*
X161981756Y-140827025D02*
X162172232Y-140827025D01*
X163696042Y-140827025D02*
X163892470Y-139255596D01*
X163892470Y-139255596D02*
X163832946Y-138969882D01*
X163832946Y-138969882D02*
X163660327Y-138827025D01*
X163660327Y-138827025D02*
X163279375Y-138827025D01*
X163279375Y-138827025D02*
X163071042Y-138969882D01*
X163713899Y-140684168D02*
X163505566Y-140827025D01*
X163505566Y-140827025D02*
X163029375Y-140827025D01*
X163029375Y-140827025D02*
X162856756Y-140684168D01*
X162856756Y-140684168D02*
X162797232Y-140398453D01*
X162797232Y-140398453D02*
X162832946Y-140112739D01*
X162832946Y-140112739D02*
X162963899Y-139827025D01*
X162963899Y-139827025D02*
X163172232Y-139684168D01*
X163172232Y-139684168D02*
X163648423Y-139684168D01*
X163648423Y-139684168D02*
X163856756Y-139541310D01*
X164898423Y-138827025D02*
X164648423Y-140827025D01*
X164862709Y-139112739D02*
X164975804Y-138969882D01*
X164975804Y-138969882D02*
X165184137Y-138827025D01*
X165184137Y-138827025D02*
X165469851Y-138827025D01*
X165469851Y-138827025D02*
X165642470Y-138969882D01*
X165642470Y-138969882D02*
X165701994Y-139255596D01*
X165701994Y-139255596D02*
X165505566Y-140827025D01*
X166422233Y-138827025D02*
X167184137Y-138827025D01*
X166457947Y-140827025D02*
X166779375Y-138255596D01*
X166779375Y-138255596D02*
X166910328Y-137969882D01*
X166910328Y-137969882D02*
X167118661Y-137827025D01*
X167118661Y-137827025D02*
X167309137Y-137827025D01*
X167886518Y-140827025D02*
X167713899Y-140684168D01*
X167713899Y-140684168D02*
X167636518Y-140541310D01*
X167636518Y-140541310D02*
X167576994Y-140255596D01*
X167576994Y-140255596D02*
X167684137Y-139398453D01*
X167684137Y-139398453D02*
X167815090Y-139112739D01*
X167815090Y-139112739D02*
X167928185Y-138969882D01*
X167928185Y-138969882D02*
X168136518Y-138827025D01*
X168136518Y-138827025D02*
X168422232Y-138827025D01*
X168422232Y-138827025D02*
X168594851Y-138969882D01*
X168594851Y-138969882D02*
X168672232Y-139112739D01*
X168672232Y-139112739D02*
X168731756Y-139398453D01*
X168731756Y-139398453D02*
X168624613Y-140255596D01*
X168624613Y-140255596D02*
X168493661Y-140541310D01*
X168493661Y-140541310D02*
X168380566Y-140684168D01*
X168380566Y-140684168D02*
X168172232Y-140827025D01*
X168172232Y-140827025D02*
X167886518Y-140827025D01*
X169410328Y-140827025D02*
X169660328Y-138827025D01*
X169588899Y-139398453D02*
X169719852Y-139112739D01*
X169719852Y-139112739D02*
X169832947Y-138969882D01*
X169832947Y-138969882D02*
X170041280Y-138827025D01*
X170041280Y-138827025D02*
X170231756Y-138827025D01*
X171505566Y-140827025D02*
X171880566Y-137827025D01*
X171523423Y-140684168D02*
X171315090Y-140827025D01*
X171315090Y-140827025D02*
X170934137Y-140827025D01*
X170934137Y-140827025D02*
X170761518Y-140684168D01*
X170761518Y-140684168D02*
X170684137Y-140541310D01*
X170684137Y-140541310D02*
X170624613Y-140255596D01*
X170624613Y-140255596D02*
X170731756Y-139398453D01*
X170731756Y-139398453D02*
X170862709Y-139112739D01*
X170862709Y-139112739D02*
X170975804Y-138969882D01*
X170975804Y-138969882D02*
X171184137Y-138827025D01*
X171184137Y-138827025D02*
X171565090Y-138827025D01*
X171565090Y-138827025D02*
X171737709Y-138969882D01*
X175124614Y-140827025D02*
X174636519Y-139398453D01*
X173981757Y-140827025D02*
X174356757Y-137827025D01*
X174356757Y-137827025D02*
X175118662Y-137827025D01*
X175118662Y-137827025D02*
X175291281Y-137969882D01*
X175291281Y-137969882D02*
X175368662Y-138112739D01*
X175368662Y-138112739D02*
X175428185Y-138398453D01*
X175428185Y-138398453D02*
X175374614Y-138827025D01*
X175374614Y-138827025D02*
X175243662Y-139112739D01*
X175243662Y-139112739D02*
X175130566Y-139255596D01*
X175130566Y-139255596D02*
X174922233Y-139398453D01*
X174922233Y-139398453D02*
X174160328Y-139398453D01*
X176267471Y-140827025D02*
X176094852Y-140684168D01*
X176094852Y-140684168D02*
X176017471Y-140541310D01*
X176017471Y-140541310D02*
X175957947Y-140255596D01*
X175957947Y-140255596D02*
X176065090Y-139398453D01*
X176065090Y-139398453D02*
X176196043Y-139112739D01*
X176196043Y-139112739D02*
X176309138Y-138969882D01*
X176309138Y-138969882D02*
X176517471Y-138827025D01*
X176517471Y-138827025D02*
X176803185Y-138827025D01*
X176803185Y-138827025D02*
X176975804Y-138969882D01*
X176975804Y-138969882D02*
X177053185Y-139112739D01*
X177053185Y-139112739D02*
X177112709Y-139398453D01*
X177112709Y-139398453D02*
X177005566Y-140255596D01*
X177005566Y-140255596D02*
X176874614Y-140541310D01*
X176874614Y-140541310D02*
X176761519Y-140684168D01*
X176761519Y-140684168D02*
X176553185Y-140827025D01*
X176553185Y-140827025D02*
X176267471Y-140827025D01*
X177791281Y-140827025D02*
X178166281Y-137827025D01*
X178023424Y-138969882D02*
X178231757Y-138827025D01*
X178231757Y-138827025D02*
X178612709Y-138827025D01*
X178612709Y-138827025D02*
X178785328Y-138969882D01*
X178785328Y-138969882D02*
X178862709Y-139112739D01*
X178862709Y-139112739D02*
X178922233Y-139398453D01*
X178922233Y-139398453D02*
X178815090Y-140255596D01*
X178815090Y-140255596D02*
X178684138Y-140541310D01*
X178684138Y-140541310D02*
X178571043Y-140684168D01*
X178571043Y-140684168D02*
X178362709Y-140827025D01*
X178362709Y-140827025D02*
X177981757Y-140827025D01*
X177981757Y-140827025D02*
X177809138Y-140684168D01*
X179886519Y-140827025D02*
X179713900Y-140684168D01*
X179713900Y-140684168D02*
X179636519Y-140541310D01*
X179636519Y-140541310D02*
X179576995Y-140255596D01*
X179576995Y-140255596D02*
X179684138Y-139398453D01*
X179684138Y-139398453D02*
X179815091Y-139112739D01*
X179815091Y-139112739D02*
X179928186Y-138969882D01*
X179928186Y-138969882D02*
X180136519Y-138827025D01*
X180136519Y-138827025D02*
X180422233Y-138827025D01*
X180422233Y-138827025D02*
X180594852Y-138969882D01*
X180594852Y-138969882D02*
X180672233Y-139112739D01*
X180672233Y-139112739D02*
X180731757Y-139398453D01*
X180731757Y-139398453D02*
X180624614Y-140255596D01*
X180624614Y-140255596D02*
X180493662Y-140541310D01*
X180493662Y-140541310D02*
X180380567Y-140684168D01*
X180380567Y-140684168D02*
X180172233Y-140827025D01*
X180172233Y-140827025D02*
X179886519Y-140827025D01*
X181332948Y-140684168D02*
X181600805Y-140827025D01*
X181600805Y-140827025D02*
X182076996Y-140827025D01*
X182076996Y-140827025D02*
X182285329Y-140684168D01*
X182285329Y-140684168D02*
X182398424Y-140541310D01*
X182398424Y-140541310D02*
X182529376Y-140255596D01*
X182529376Y-140255596D02*
X182565091Y-139969882D01*
X182565091Y-139969882D02*
X182505567Y-139684168D01*
X182505567Y-139684168D02*
X182428186Y-139541310D01*
X182428186Y-139541310D02*
X182255567Y-139398453D01*
X182255567Y-139398453D02*
X181892472Y-139255596D01*
X181892472Y-139255596D02*
X181719853Y-139112739D01*
X181719853Y-139112739D02*
X181642472Y-138969882D01*
X181642472Y-138969882D02*
X181582948Y-138684168D01*
X181582948Y-138684168D02*
X181618662Y-138398453D01*
X181618662Y-138398453D02*
X181749615Y-138112739D01*
X181749615Y-138112739D02*
X181862710Y-137969882D01*
X181862710Y-137969882D02*
X182071043Y-137827025D01*
X182071043Y-137827025D02*
X182547234Y-137827025D01*
X182547234Y-137827025D02*
X182815091Y-137969882D01*
X184422234Y-138827025D02*
X184172234Y-140827025D01*
X183565091Y-138827025D02*
X183368662Y-140398453D01*
X183368662Y-140398453D02*
X183428186Y-140684168D01*
X183428186Y-140684168D02*
X183600805Y-140827025D01*
X183600805Y-140827025D02*
X183886519Y-140827025D01*
X183886519Y-140827025D02*
X184094853Y-140684168D01*
X184094853Y-140684168D02*
X184207948Y-140541310D01*
X185124615Y-140827025D02*
X185499615Y-137827025D01*
X185356758Y-138969882D02*
X185565091Y-138827025D01*
X185565091Y-138827025D02*
X185946043Y-138827025D01*
X185946043Y-138827025D02*
X186118662Y-138969882D01*
X186118662Y-138969882D02*
X186196043Y-139112739D01*
X186196043Y-139112739D02*
X186255567Y-139398453D01*
X186255567Y-139398453D02*
X186148424Y-140255596D01*
X186148424Y-140255596D02*
X186017472Y-140541310D01*
X186017472Y-140541310D02*
X185904377Y-140684168D01*
X185904377Y-140684168D02*
X185696043Y-140827025D01*
X185696043Y-140827025D02*
X185315091Y-140827025D01*
X185315091Y-140827025D02*
X185142472Y-140684168D01*
X188701996Y-138112739D02*
X188815092Y-137969882D01*
X188815092Y-137969882D02*
X189023425Y-137827025D01*
X189023425Y-137827025D02*
X189499616Y-137827025D01*
X189499616Y-137827025D02*
X189672235Y-137969882D01*
X189672235Y-137969882D02*
X189749616Y-138112739D01*
X189749616Y-138112739D02*
X189809139Y-138398453D01*
X189809139Y-138398453D02*
X189773425Y-138684168D01*
X189773425Y-138684168D02*
X189624616Y-139112739D01*
X189624616Y-139112739D02*
X188267473Y-140827025D01*
X188267473Y-140827025D02*
X189505568Y-140827025D01*
X191118663Y-137827025D02*
X191309139Y-137827025D01*
X191309139Y-137827025D02*
X191481758Y-137969882D01*
X191481758Y-137969882D02*
X191559139Y-138112739D01*
X191559139Y-138112739D02*
X191618663Y-138398453D01*
X191618663Y-138398453D02*
X191642473Y-138969882D01*
X191642473Y-138969882D02*
X191553187Y-139684168D01*
X191553187Y-139684168D02*
X191386520Y-140255596D01*
X191386520Y-140255596D02*
X191255568Y-140541310D01*
X191255568Y-140541310D02*
X191142473Y-140684168D01*
X191142473Y-140684168D02*
X190934139Y-140827025D01*
X190934139Y-140827025D02*
X190743663Y-140827025D01*
X190743663Y-140827025D02*
X190571044Y-140684168D01*
X190571044Y-140684168D02*
X190493663Y-140541310D01*
X190493663Y-140541310D02*
X190434139Y-140255596D01*
X190434139Y-140255596D02*
X190410330Y-139684168D01*
X190410330Y-139684168D02*
X190499616Y-138969882D01*
X190499616Y-138969882D02*
X190666282Y-138398453D01*
X190666282Y-138398453D02*
X190797235Y-138112739D01*
X190797235Y-138112739D02*
X190910330Y-137969882D01*
X190910330Y-137969882D02*
X191118663Y-137827025D01*
X192511520Y-138112739D02*
X192624616Y-137969882D01*
X192624616Y-137969882D02*
X192832949Y-137827025D01*
X192832949Y-137827025D02*
X193309140Y-137827025D01*
X193309140Y-137827025D02*
X193481759Y-137969882D01*
X193481759Y-137969882D02*
X193559140Y-138112739D01*
X193559140Y-138112739D02*
X193618663Y-138398453D01*
X193618663Y-138398453D02*
X193582949Y-138684168D01*
X193582949Y-138684168D02*
X193434140Y-139112739D01*
X193434140Y-139112739D02*
X192076997Y-140827025D01*
X192076997Y-140827025D02*
X193315092Y-140827025D01*
X195279378Y-138827025D02*
X195029378Y-140827025D01*
X194946044Y-137684168D02*
X194201997Y-139827025D01*
X194201997Y-139827025D02*
X195440092Y-139827025D01*
X196219854Y-139684168D02*
X197743664Y-139684168D01*
X198797234Y-138112739D02*
X198910330Y-137969882D01*
X198910330Y-137969882D02*
X199118663Y-137827025D01*
X199118663Y-137827025D02*
X199594854Y-137827025D01*
X199594854Y-137827025D02*
X199767473Y-137969882D01*
X199767473Y-137969882D02*
X199844854Y-138112739D01*
X199844854Y-138112739D02*
X199904377Y-138398453D01*
X199904377Y-138398453D02*
X199868663Y-138684168D01*
X199868663Y-138684168D02*
X199719854Y-139112739D01*
X199719854Y-139112739D02*
X198362711Y-140827025D01*
X198362711Y-140827025D02*
X199600806Y-140827025D01*
X201213901Y-137827025D02*
X201404377Y-137827025D01*
X201404377Y-137827025D02*
X201576996Y-137969882D01*
X201576996Y-137969882D02*
X201654377Y-138112739D01*
X201654377Y-138112739D02*
X201713901Y-138398453D01*
X201713901Y-138398453D02*
X201737711Y-138969882D01*
X201737711Y-138969882D02*
X201648425Y-139684168D01*
X201648425Y-139684168D02*
X201481758Y-140255596D01*
X201481758Y-140255596D02*
X201350806Y-140541310D01*
X201350806Y-140541310D02*
X201237711Y-140684168D01*
X201237711Y-140684168D02*
X201029377Y-140827025D01*
X201029377Y-140827025D02*
X200838901Y-140827025D01*
X200838901Y-140827025D02*
X200666282Y-140684168D01*
X200666282Y-140684168D02*
X200588901Y-140541310D01*
X200588901Y-140541310D02*
X200529377Y-140255596D01*
X200529377Y-140255596D02*
X200505568Y-139684168D01*
X200505568Y-139684168D02*
X200594854Y-138969882D01*
X200594854Y-138969882D02*
X200761520Y-138398453D01*
X200761520Y-138398453D02*
X200892473Y-138112739D01*
X200892473Y-138112739D02*
X201005568Y-137969882D01*
X201005568Y-137969882D02*
X201213901Y-137827025D01*
X202606758Y-138112739D02*
X202719854Y-137969882D01*
X202719854Y-137969882D02*
X202928187Y-137827025D01*
X202928187Y-137827025D02*
X203404378Y-137827025D01*
X203404378Y-137827025D02*
X203576997Y-137969882D01*
X203576997Y-137969882D02*
X203654378Y-138112739D01*
X203654378Y-138112739D02*
X203713901Y-138398453D01*
X203713901Y-138398453D02*
X203678187Y-138684168D01*
X203678187Y-138684168D02*
X203529378Y-139112739D01*
X203529378Y-139112739D02*
X202172235Y-140827025D01*
X202172235Y-140827025D02*
X203410330Y-140827025D01*
X205594854Y-137827025D02*
X204642473Y-137827025D01*
X204642473Y-137827025D02*
X204368663Y-139255596D01*
X204368663Y-139255596D02*
X204481759Y-139112739D01*
X204481759Y-139112739D02*
X204690092Y-138969882D01*
X204690092Y-138969882D02*
X205166282Y-138969882D01*
X205166282Y-138969882D02*
X205338901Y-139112739D01*
X205338901Y-139112739D02*
X205416282Y-139255596D01*
X205416282Y-139255596D02*
X205475806Y-139541310D01*
X205475806Y-139541310D02*
X205386520Y-140255596D01*
X205386520Y-140255596D02*
X205255568Y-140541310D01*
X205255568Y-140541310D02*
X205142473Y-140684168D01*
X205142473Y-140684168D02*
X204934140Y-140827025D01*
X204934140Y-140827025D02*
X204457949Y-140827025D01*
X204457949Y-140827025D02*
X204285330Y-140684168D01*
X204285330Y-140684168D02*
X204207949Y-140541310D01*
X175237708Y-145514000D02*
X175505565Y-145656857D01*
X175505565Y-145656857D02*
X175981756Y-145656857D01*
X175981756Y-145656857D02*
X176190089Y-145514000D01*
X176190089Y-145514000D02*
X176303184Y-145371142D01*
X176303184Y-145371142D02*
X176434136Y-145085428D01*
X176434136Y-145085428D02*
X176469851Y-144799714D01*
X176469851Y-144799714D02*
X176410327Y-144514000D01*
X176410327Y-144514000D02*
X176332946Y-144371142D01*
X176332946Y-144371142D02*
X176160327Y-144228285D01*
X176160327Y-144228285D02*
X175797232Y-144085428D01*
X175797232Y-144085428D02*
X175624613Y-143942571D01*
X175624613Y-143942571D02*
X175547232Y-143799714D01*
X175547232Y-143799714D02*
X175487708Y-143514000D01*
X175487708Y-143514000D02*
X175523422Y-143228285D01*
X175523422Y-143228285D02*
X175654375Y-142942571D01*
X175654375Y-142942571D02*
X175767470Y-142799714D01*
X175767470Y-142799714D02*
X175975803Y-142656857D01*
X175975803Y-142656857D02*
X176451994Y-142656857D01*
X176451994Y-142656857D02*
X176719851Y-142799714D01*
X177184137Y-143656857D02*
X177946041Y-143656857D01*
X177594851Y-142656857D02*
X177273422Y-145228285D01*
X177273422Y-145228285D02*
X177332946Y-145514000D01*
X177332946Y-145514000D02*
X177505565Y-145656857D01*
X177505565Y-145656857D02*
X177696041Y-145656857D01*
X179219851Y-145656857D02*
X179416279Y-144085428D01*
X179416279Y-144085428D02*
X179356755Y-143799714D01*
X179356755Y-143799714D02*
X179184136Y-143656857D01*
X179184136Y-143656857D02*
X178803184Y-143656857D01*
X178803184Y-143656857D02*
X178594851Y-143799714D01*
X179237708Y-145514000D02*
X179029375Y-145656857D01*
X179029375Y-145656857D02*
X178553184Y-145656857D01*
X178553184Y-145656857D02*
X178380565Y-145514000D01*
X178380565Y-145514000D02*
X178321041Y-145228285D01*
X178321041Y-145228285D02*
X178356755Y-144942571D01*
X178356755Y-144942571D02*
X178487708Y-144656857D01*
X178487708Y-144656857D02*
X178696041Y-144514000D01*
X178696041Y-144514000D02*
X179172232Y-144514000D01*
X179172232Y-144514000D02*
X179380565Y-144371142D01*
X180231756Y-143656857D02*
X180457946Y-145656857D01*
X181184137Y-143656857D02*
X180457946Y-145656857D01*
X180457946Y-145656857D02*
X180178184Y-146371142D01*
X180178184Y-146371142D02*
X180065089Y-146514000D01*
X180065089Y-146514000D02*
X179856756Y-146656857D01*
X183404376Y-142656857D02*
X183505566Y-145656857D01*
X183505566Y-145656857D02*
X184154376Y-143514000D01*
X184154376Y-143514000D02*
X184267471Y-145656857D01*
X184267471Y-145656857D02*
X185118661Y-142656857D01*
X186362709Y-145656857D02*
X186559137Y-144085428D01*
X186559137Y-144085428D02*
X186499613Y-143799714D01*
X186499613Y-143799714D02*
X186326994Y-143656857D01*
X186326994Y-143656857D02*
X185946042Y-143656857D01*
X185946042Y-143656857D02*
X185737709Y-143799714D01*
X186380566Y-145514000D02*
X186172233Y-145656857D01*
X186172233Y-145656857D02*
X185696042Y-145656857D01*
X185696042Y-145656857D02*
X185523423Y-145514000D01*
X185523423Y-145514000D02*
X185463899Y-145228285D01*
X185463899Y-145228285D02*
X185499613Y-144942571D01*
X185499613Y-144942571D02*
X185630566Y-144656857D01*
X185630566Y-144656857D02*
X185838899Y-144514000D01*
X185838899Y-144514000D02*
X186315090Y-144514000D01*
X186315090Y-144514000D02*
X186523423Y-144371142D01*
X187374614Y-143656857D02*
X187600804Y-145656857D01*
X187600804Y-145656857D02*
X188326995Y-143656857D01*
X188898424Y-143656857D02*
X189124614Y-145656857D01*
X189850805Y-143656857D02*
X189124614Y-145656857D01*
X189124614Y-145656857D02*
X188844852Y-146371142D01*
X188844852Y-146371142D02*
X188731757Y-146514000D01*
X188731757Y-146514000D02*
X188523424Y-146656857D01*
X190422234Y-143656857D02*
X190648424Y-145656857D01*
X191374615Y-143656857D02*
X190648424Y-145656857D01*
X190648424Y-145656857D02*
X190368662Y-146371142D01*
X190368662Y-146371142D02*
X190255567Y-146514000D01*
X190255567Y-146514000D02*
X190047234Y-146656857D01*
X191946044Y-143656857D02*
X192172234Y-145656857D01*
X192898425Y-143656857D02*
X192172234Y-145656857D01*
X192172234Y-145656857D02*
X191892472Y-146371142D01*
X191892472Y-146371142D02*
X191779377Y-146514000D01*
X191779377Y-146514000D02*
X191571044Y-146656857D01*
D11*
X276957066Y-126800780D02*
X276909447Y-126848400D01*
X276909447Y-126848400D02*
X276766590Y-126896019D01*
X276766590Y-126896019D02*
X276671352Y-126896019D01*
X276671352Y-126896019D02*
X276528495Y-126848400D01*
X276528495Y-126848400D02*
X276433257Y-126753161D01*
X276433257Y-126753161D02*
X276385638Y-126657923D01*
X276385638Y-126657923D02*
X276338019Y-126467447D01*
X276338019Y-126467447D02*
X276338019Y-126324590D01*
X276338019Y-126324590D02*
X276385638Y-126134114D01*
X276385638Y-126134114D02*
X276433257Y-126038876D01*
X276433257Y-126038876D02*
X276528495Y-125943638D01*
X276528495Y-125943638D02*
X276671352Y-125896019D01*
X276671352Y-125896019D02*
X276766590Y-125896019D01*
X276766590Y-125896019D02*
X276909447Y-125943638D01*
X276909447Y-125943638D02*
X276957066Y-125991257D01*
X277147543Y-126991257D02*
X277909447Y-126991257D01*
X278147543Y-126896019D02*
X278147543Y-125896019D01*
X278147543Y-126276971D02*
X278242781Y-126229352D01*
X278242781Y-126229352D02*
X278433257Y-126229352D01*
X278433257Y-126229352D02*
X278528495Y-126276971D01*
X278528495Y-126276971D02*
X278576114Y-126324590D01*
X278576114Y-126324590D02*
X278623733Y-126419828D01*
X278623733Y-126419828D02*
X278623733Y-126705542D01*
X278623733Y-126705542D02*
X278576114Y-126800780D01*
X278576114Y-126800780D02*
X278528495Y-126848400D01*
X278528495Y-126848400D02*
X278433257Y-126896019D01*
X278433257Y-126896019D02*
X278242781Y-126896019D01*
X278242781Y-126896019D02*
X278147543Y-126848400D01*
X278957067Y-126229352D02*
X279195162Y-126896019D01*
X279433257Y-126229352D02*
X279195162Y-126896019D01*
X279195162Y-126896019D02*
X279099924Y-127134114D01*
X279099924Y-127134114D02*
X279052305Y-127181733D01*
X279052305Y-127181733D02*
X278957067Y-127229352D01*
X279814210Y-126229352D02*
X279814210Y-127229352D01*
X279814210Y-126276971D02*
X279909448Y-126229352D01*
X279909448Y-126229352D02*
X280099924Y-126229352D01*
X280099924Y-126229352D02*
X280195162Y-126276971D01*
X280195162Y-126276971D02*
X280242781Y-126324590D01*
X280242781Y-126324590D02*
X280290400Y-126419828D01*
X280290400Y-126419828D02*
X280290400Y-126705542D01*
X280290400Y-126705542D02*
X280242781Y-126800780D01*
X280242781Y-126800780D02*
X280195162Y-126848400D01*
X280195162Y-126848400D02*
X280099924Y-126896019D01*
X280099924Y-126896019D02*
X279909448Y-126896019D01*
X279909448Y-126896019D02*
X279814210Y-126848400D01*
X280671353Y-125991257D02*
X280718972Y-125943638D01*
X280718972Y-125943638D02*
X280814210Y-125896019D01*
X280814210Y-125896019D02*
X281052305Y-125896019D01*
X281052305Y-125896019D02*
X281147543Y-125943638D01*
X281147543Y-125943638D02*
X281195162Y-125991257D01*
X281195162Y-125991257D02*
X281242781Y-126086495D01*
X281242781Y-126086495D02*
X281242781Y-126181733D01*
X281242781Y-126181733D02*
X281195162Y-126324590D01*
X281195162Y-126324590D02*
X280623734Y-126896019D01*
X280623734Y-126896019D02*
X281242781Y-126896019D01*
D12*
X176136318Y-116800262D02*
X174866318Y-116800262D01*
X176015365Y-115469785D02*
X176075842Y-115530261D01*
X176075842Y-115530261D02*
X176136318Y-115711690D01*
X176136318Y-115711690D02*
X176136318Y-115832642D01*
X176136318Y-115832642D02*
X176075842Y-116014071D01*
X176075842Y-116014071D02*
X175954889Y-116135023D01*
X175954889Y-116135023D02*
X175833937Y-116195500D01*
X175833937Y-116195500D02*
X175592032Y-116255976D01*
X175592032Y-116255976D02*
X175410603Y-116255976D01*
X175410603Y-116255976D02*
X175168699Y-116195500D01*
X175168699Y-116195500D02*
X175047746Y-116135023D01*
X175047746Y-116135023D02*
X174926794Y-116014071D01*
X174926794Y-116014071D02*
X174866318Y-115832642D01*
X174866318Y-115832642D02*
X174866318Y-115711690D01*
X174866318Y-115711690D02*
X174926794Y-115530261D01*
X174926794Y-115530261D02*
X174987270Y-115469785D01*
X174987270Y-114985976D02*
X174926794Y-114925500D01*
X174926794Y-114925500D02*
X174866318Y-114804547D01*
X174866318Y-114804547D02*
X174866318Y-114502166D01*
X174866318Y-114502166D02*
X174926794Y-114381214D01*
X174926794Y-114381214D02*
X174987270Y-114320738D01*
X174987270Y-114320738D02*
X175108222Y-114260261D01*
X175108222Y-114260261D02*
X175229175Y-114260261D01*
X175229175Y-114260261D02*
X175410603Y-114320738D01*
X175410603Y-114320738D02*
X176136318Y-115046452D01*
X176136318Y-115046452D02*
X176136318Y-114260261D01*
D11*
X167330666Y-122787580D02*
X167283047Y-122835200D01*
X167283047Y-122835200D02*
X167140190Y-122882819D01*
X167140190Y-122882819D02*
X167044952Y-122882819D01*
X167044952Y-122882819D02*
X166902095Y-122835200D01*
X166902095Y-122835200D02*
X166806857Y-122739961D01*
X166806857Y-122739961D02*
X166759238Y-122644723D01*
X166759238Y-122644723D02*
X166711619Y-122454247D01*
X166711619Y-122454247D02*
X166711619Y-122311390D01*
X166711619Y-122311390D02*
X166759238Y-122120914D01*
X166759238Y-122120914D02*
X166806857Y-122025676D01*
X166806857Y-122025676D02*
X166902095Y-121930438D01*
X166902095Y-121930438D02*
X167044952Y-121882819D01*
X167044952Y-121882819D02*
X167140190Y-121882819D01*
X167140190Y-121882819D02*
X167283047Y-121930438D01*
X167283047Y-121930438D02*
X167330666Y-121978057D01*
X167521143Y-122978057D02*
X168283047Y-122978057D01*
X168521143Y-122882819D02*
X168521143Y-121882819D01*
X168521143Y-122263771D02*
X168616381Y-122216152D01*
X168616381Y-122216152D02*
X168806857Y-122216152D01*
X168806857Y-122216152D02*
X168902095Y-122263771D01*
X168902095Y-122263771D02*
X168949714Y-122311390D01*
X168949714Y-122311390D02*
X168997333Y-122406628D01*
X168997333Y-122406628D02*
X168997333Y-122692342D01*
X168997333Y-122692342D02*
X168949714Y-122787580D01*
X168949714Y-122787580D02*
X168902095Y-122835200D01*
X168902095Y-122835200D02*
X168806857Y-122882819D01*
X168806857Y-122882819D02*
X168616381Y-122882819D01*
X168616381Y-122882819D02*
X168521143Y-122835200D01*
X169330667Y-122216152D02*
X169568762Y-122882819D01*
X169806857Y-122216152D02*
X169568762Y-122882819D01*
X169568762Y-122882819D02*
X169473524Y-123120914D01*
X169473524Y-123120914D02*
X169425905Y-123168533D01*
X169425905Y-123168533D02*
X169330667Y-123216152D01*
X170187810Y-122216152D02*
X170187810Y-123216152D01*
X170187810Y-122263771D02*
X170283048Y-122216152D01*
X170283048Y-122216152D02*
X170473524Y-122216152D01*
X170473524Y-122216152D02*
X170568762Y-122263771D01*
X170568762Y-122263771D02*
X170616381Y-122311390D01*
X170616381Y-122311390D02*
X170664000Y-122406628D01*
X170664000Y-122406628D02*
X170664000Y-122692342D01*
X170664000Y-122692342D02*
X170616381Y-122787580D01*
X170616381Y-122787580D02*
X170568762Y-122835200D01*
X170568762Y-122835200D02*
X170473524Y-122882819D01*
X170473524Y-122882819D02*
X170283048Y-122882819D01*
X170283048Y-122882819D02*
X170187810Y-122835200D01*
X171521143Y-121882819D02*
X171330667Y-121882819D01*
X171330667Y-121882819D02*
X171235429Y-121930438D01*
X171235429Y-121930438D02*
X171187810Y-121978057D01*
X171187810Y-121978057D02*
X171092572Y-122120914D01*
X171092572Y-122120914D02*
X171044953Y-122311390D01*
X171044953Y-122311390D02*
X171044953Y-122692342D01*
X171044953Y-122692342D02*
X171092572Y-122787580D01*
X171092572Y-122787580D02*
X171140191Y-122835200D01*
X171140191Y-122835200D02*
X171235429Y-122882819D01*
X171235429Y-122882819D02*
X171425905Y-122882819D01*
X171425905Y-122882819D02*
X171521143Y-122835200D01*
X171521143Y-122835200D02*
X171568762Y-122787580D01*
X171568762Y-122787580D02*
X171616381Y-122692342D01*
X171616381Y-122692342D02*
X171616381Y-122454247D01*
X171616381Y-122454247D02*
X171568762Y-122359009D01*
X171568762Y-122359009D02*
X171521143Y-122311390D01*
X171521143Y-122311390D02*
X171425905Y-122263771D01*
X171425905Y-122263771D02*
X171235429Y-122263771D01*
X171235429Y-122263771D02*
X171140191Y-122311390D01*
X171140191Y-122311390D02*
X171092572Y-122359009D01*
X171092572Y-122359009D02*
X171044953Y-122454247D01*
X158204856Y-122240080D02*
X158157237Y-122287700D01*
X158157237Y-122287700D02*
X158014380Y-122335319D01*
X158014380Y-122335319D02*
X157919142Y-122335319D01*
X157919142Y-122335319D02*
X157776285Y-122287700D01*
X157776285Y-122287700D02*
X157681047Y-122192461D01*
X157681047Y-122192461D02*
X157633428Y-122097223D01*
X157633428Y-122097223D02*
X157585809Y-121906747D01*
X157585809Y-121906747D02*
X157585809Y-121763890D01*
X157585809Y-121763890D02*
X157633428Y-121573414D01*
X157633428Y-121573414D02*
X157681047Y-121478176D01*
X157681047Y-121478176D02*
X157776285Y-121382938D01*
X157776285Y-121382938D02*
X157919142Y-121335319D01*
X157919142Y-121335319D02*
X158014380Y-121335319D01*
X158014380Y-121335319D02*
X158157237Y-121382938D01*
X158157237Y-121382938D02*
X158204856Y-121430557D01*
X158395333Y-122430557D02*
X159157237Y-122430557D01*
X159252476Y-121668652D02*
X159633428Y-121668652D01*
X159395333Y-122335319D02*
X159395333Y-121478176D01*
X159395333Y-121478176D02*
X159442952Y-121382938D01*
X159442952Y-121382938D02*
X159538190Y-121335319D01*
X159538190Y-121335319D02*
X159633428Y-121335319D01*
X159966762Y-122335319D02*
X159966762Y-121668652D01*
X159966762Y-121335319D02*
X159919143Y-121382938D01*
X159919143Y-121382938D02*
X159966762Y-121430557D01*
X159966762Y-121430557D02*
X160014381Y-121382938D01*
X160014381Y-121382938D02*
X159966762Y-121335319D01*
X159966762Y-121335319D02*
X159966762Y-121430557D01*
X160585809Y-122335319D02*
X160490571Y-122287700D01*
X160490571Y-122287700D02*
X160442952Y-122192461D01*
X160442952Y-122192461D02*
X160442952Y-121335319D01*
X160823905Y-121668652D02*
X161204857Y-121668652D01*
X160966762Y-121335319D02*
X160966762Y-122192461D01*
X160966762Y-122192461D02*
X161014381Y-122287700D01*
X161014381Y-122287700D02*
X161109619Y-122335319D01*
X161109619Y-122335319D02*
X161204857Y-122335319D01*
X161919143Y-122287700D02*
X161823905Y-122335319D01*
X161823905Y-122335319D02*
X161633429Y-122335319D01*
X161633429Y-122335319D02*
X161538191Y-122287700D01*
X161538191Y-122287700D02*
X161490572Y-122192461D01*
X161490572Y-122192461D02*
X161490572Y-121811509D01*
X161490572Y-121811509D02*
X161538191Y-121716271D01*
X161538191Y-121716271D02*
X161633429Y-121668652D01*
X161633429Y-121668652D02*
X161823905Y-121668652D01*
X161823905Y-121668652D02*
X161919143Y-121716271D01*
X161919143Y-121716271D02*
X161966762Y-121811509D01*
X161966762Y-121811509D02*
X161966762Y-121906747D01*
X161966762Y-121906747D02*
X161490572Y-122001985D01*
X162395334Y-122335319D02*
X162395334Y-121668652D01*
X162395334Y-121859128D02*
X162442953Y-121763890D01*
X162442953Y-121763890D02*
X162490572Y-121716271D01*
X162490572Y-121716271D02*
X162585810Y-121668652D01*
X162585810Y-121668652D02*
X162681048Y-121668652D01*
X163538191Y-122335319D02*
X162966763Y-122335319D01*
X163252477Y-122335319D02*
X163252477Y-121335319D01*
X163252477Y-121335319D02*
X163157239Y-121478176D01*
X163157239Y-121478176D02*
X163062001Y-121573414D01*
X163062001Y-121573414D02*
X162966763Y-121621033D01*
D12*
X206136318Y-116800262D02*
X204866318Y-116800262D01*
X206015365Y-115469785D02*
X206075842Y-115530261D01*
X206075842Y-115530261D02*
X206136318Y-115711690D01*
X206136318Y-115711690D02*
X206136318Y-115832642D01*
X206136318Y-115832642D02*
X206075842Y-116014071D01*
X206075842Y-116014071D02*
X205954889Y-116135023D01*
X205954889Y-116135023D02*
X205833937Y-116195500D01*
X205833937Y-116195500D02*
X205592032Y-116255976D01*
X205592032Y-116255976D02*
X205410603Y-116255976D01*
X205410603Y-116255976D02*
X205168699Y-116195500D01*
X205168699Y-116195500D02*
X205047746Y-116135023D01*
X205047746Y-116135023D02*
X204926794Y-116014071D01*
X204926794Y-116014071D02*
X204866318Y-115832642D01*
X204866318Y-115832642D02*
X204866318Y-115711690D01*
X204866318Y-115711690D02*
X204926794Y-115530261D01*
X204926794Y-115530261D02*
X204987270Y-115469785D01*
X205289651Y-114381214D02*
X206136318Y-114381214D01*
X204805842Y-114683595D02*
X205712984Y-114985976D01*
X205712984Y-114985976D02*
X205712984Y-114199785D01*
D11*
X235378666Y-98514819D02*
X235378666Y-99229104D01*
X235378666Y-99229104D02*
X235331047Y-99371961D01*
X235331047Y-99371961D02*
X235235809Y-99467200D01*
X235235809Y-99467200D02*
X235092952Y-99514819D01*
X235092952Y-99514819D02*
X234997714Y-99514819D01*
X235807238Y-98610057D02*
X235854857Y-98562438D01*
X235854857Y-98562438D02*
X235950095Y-98514819D01*
X235950095Y-98514819D02*
X236188190Y-98514819D01*
X236188190Y-98514819D02*
X236283428Y-98562438D01*
X236283428Y-98562438D02*
X236331047Y-98610057D01*
X236331047Y-98610057D02*
X236378666Y-98705295D01*
X236378666Y-98705295D02*
X236378666Y-98800533D01*
X236378666Y-98800533D02*
X236331047Y-98943390D01*
X236331047Y-98943390D02*
X235759619Y-99514819D01*
X235759619Y-99514819D02*
X236378666Y-99514819D01*
X197048666Y-125327580D02*
X197001047Y-125375200D01*
X197001047Y-125375200D02*
X196858190Y-125422819D01*
X196858190Y-125422819D02*
X196762952Y-125422819D01*
X196762952Y-125422819D02*
X196620095Y-125375200D01*
X196620095Y-125375200D02*
X196524857Y-125279961D01*
X196524857Y-125279961D02*
X196477238Y-125184723D01*
X196477238Y-125184723D02*
X196429619Y-124994247D01*
X196429619Y-124994247D02*
X196429619Y-124851390D01*
X196429619Y-124851390D02*
X196477238Y-124660914D01*
X196477238Y-124660914D02*
X196524857Y-124565676D01*
X196524857Y-124565676D02*
X196620095Y-124470438D01*
X196620095Y-124470438D02*
X196762952Y-124422819D01*
X196762952Y-124422819D02*
X196858190Y-124422819D01*
X196858190Y-124422819D02*
X197001047Y-124470438D01*
X197001047Y-124470438D02*
X197048666Y-124518057D01*
X197239143Y-125518057D02*
X198001047Y-125518057D01*
X198239143Y-125422819D02*
X198239143Y-124422819D01*
X198239143Y-124803771D02*
X198334381Y-124756152D01*
X198334381Y-124756152D02*
X198524857Y-124756152D01*
X198524857Y-124756152D02*
X198620095Y-124803771D01*
X198620095Y-124803771D02*
X198667714Y-124851390D01*
X198667714Y-124851390D02*
X198715333Y-124946628D01*
X198715333Y-124946628D02*
X198715333Y-125232342D01*
X198715333Y-125232342D02*
X198667714Y-125327580D01*
X198667714Y-125327580D02*
X198620095Y-125375200D01*
X198620095Y-125375200D02*
X198524857Y-125422819D01*
X198524857Y-125422819D02*
X198334381Y-125422819D01*
X198334381Y-125422819D02*
X198239143Y-125375200D01*
X199048667Y-124756152D02*
X199286762Y-125422819D01*
X199524857Y-124756152D02*
X199286762Y-125422819D01*
X199286762Y-125422819D02*
X199191524Y-125660914D01*
X199191524Y-125660914D02*
X199143905Y-125708533D01*
X199143905Y-125708533D02*
X199048667Y-125756152D01*
X199905810Y-124756152D02*
X199905810Y-125756152D01*
X199905810Y-124803771D02*
X200001048Y-124756152D01*
X200001048Y-124756152D02*
X200191524Y-124756152D01*
X200191524Y-124756152D02*
X200286762Y-124803771D01*
X200286762Y-124803771D02*
X200334381Y-124851390D01*
X200334381Y-124851390D02*
X200382000Y-124946628D01*
X200382000Y-124946628D02*
X200382000Y-125232342D01*
X200382000Y-125232342D02*
X200334381Y-125327580D01*
X200334381Y-125327580D02*
X200286762Y-125375200D01*
X200286762Y-125375200D02*
X200191524Y-125422819D01*
X200191524Y-125422819D02*
X200001048Y-125422819D01*
X200001048Y-125422819D02*
X199905810Y-125375200D01*
X200953429Y-124851390D02*
X200858191Y-124803771D01*
X200858191Y-124803771D02*
X200810572Y-124756152D01*
X200810572Y-124756152D02*
X200762953Y-124660914D01*
X200762953Y-124660914D02*
X200762953Y-124613295D01*
X200762953Y-124613295D02*
X200810572Y-124518057D01*
X200810572Y-124518057D02*
X200858191Y-124470438D01*
X200858191Y-124470438D02*
X200953429Y-124422819D01*
X200953429Y-124422819D02*
X201143905Y-124422819D01*
X201143905Y-124422819D02*
X201239143Y-124470438D01*
X201239143Y-124470438D02*
X201286762Y-124518057D01*
X201286762Y-124518057D02*
X201334381Y-124613295D01*
X201334381Y-124613295D02*
X201334381Y-124660914D01*
X201334381Y-124660914D02*
X201286762Y-124756152D01*
X201286762Y-124756152D02*
X201239143Y-124803771D01*
X201239143Y-124803771D02*
X201143905Y-124851390D01*
X201143905Y-124851390D02*
X200953429Y-124851390D01*
X200953429Y-124851390D02*
X200858191Y-124899009D01*
X200858191Y-124899009D02*
X200810572Y-124946628D01*
X200810572Y-124946628D02*
X200762953Y-125041866D01*
X200762953Y-125041866D02*
X200762953Y-125232342D01*
X200762953Y-125232342D02*
X200810572Y-125327580D01*
X200810572Y-125327580D02*
X200858191Y-125375200D01*
X200858191Y-125375200D02*
X200953429Y-125422819D01*
X200953429Y-125422819D02*
X201143905Y-125422819D01*
X201143905Y-125422819D02*
X201239143Y-125375200D01*
X201239143Y-125375200D02*
X201286762Y-125327580D01*
X201286762Y-125327580D02*
X201334381Y-125232342D01*
X201334381Y-125232342D02*
X201334381Y-125041866D01*
X201334381Y-125041866D02*
X201286762Y-124946628D01*
X201286762Y-124946628D02*
X201239143Y-124899009D01*
X201239143Y-124899009D02*
X201143905Y-124851390D01*
X282912856Y-122297580D02*
X282865237Y-122345200D01*
X282865237Y-122345200D02*
X282722380Y-122392819D01*
X282722380Y-122392819D02*
X282627142Y-122392819D01*
X282627142Y-122392819D02*
X282484285Y-122345200D01*
X282484285Y-122345200D02*
X282389047Y-122249961D01*
X282389047Y-122249961D02*
X282341428Y-122154723D01*
X282341428Y-122154723D02*
X282293809Y-121964247D01*
X282293809Y-121964247D02*
X282293809Y-121821390D01*
X282293809Y-121821390D02*
X282341428Y-121630914D01*
X282341428Y-121630914D02*
X282389047Y-121535676D01*
X282389047Y-121535676D02*
X282484285Y-121440438D01*
X282484285Y-121440438D02*
X282627142Y-121392819D01*
X282627142Y-121392819D02*
X282722380Y-121392819D01*
X282722380Y-121392819D02*
X282865237Y-121440438D01*
X282865237Y-121440438D02*
X282912856Y-121488057D01*
X283103333Y-122488057D02*
X283865237Y-122488057D01*
X283960476Y-121726152D02*
X284341428Y-121726152D01*
X284103333Y-122392819D02*
X284103333Y-121535676D01*
X284103333Y-121535676D02*
X284150952Y-121440438D01*
X284150952Y-121440438D02*
X284246190Y-121392819D01*
X284246190Y-121392819D02*
X284341428Y-121392819D01*
X284674762Y-122392819D02*
X284674762Y-121726152D01*
X284674762Y-121392819D02*
X284627143Y-121440438D01*
X284627143Y-121440438D02*
X284674762Y-121488057D01*
X284674762Y-121488057D02*
X284722381Y-121440438D01*
X284722381Y-121440438D02*
X284674762Y-121392819D01*
X284674762Y-121392819D02*
X284674762Y-121488057D01*
X285293809Y-122392819D02*
X285198571Y-122345200D01*
X285198571Y-122345200D02*
X285150952Y-122249961D01*
X285150952Y-122249961D02*
X285150952Y-121392819D01*
X285531905Y-121726152D02*
X285912857Y-121726152D01*
X285674762Y-121392819D02*
X285674762Y-122249961D01*
X285674762Y-122249961D02*
X285722381Y-122345200D01*
X285722381Y-122345200D02*
X285817619Y-122392819D01*
X285817619Y-122392819D02*
X285912857Y-122392819D01*
X286627143Y-122345200D02*
X286531905Y-122392819D01*
X286531905Y-122392819D02*
X286341429Y-122392819D01*
X286341429Y-122392819D02*
X286246191Y-122345200D01*
X286246191Y-122345200D02*
X286198572Y-122249961D01*
X286198572Y-122249961D02*
X286198572Y-121869009D01*
X286198572Y-121869009D02*
X286246191Y-121773771D01*
X286246191Y-121773771D02*
X286341429Y-121726152D01*
X286341429Y-121726152D02*
X286531905Y-121726152D01*
X286531905Y-121726152D02*
X286627143Y-121773771D01*
X286627143Y-121773771D02*
X286674762Y-121869009D01*
X286674762Y-121869009D02*
X286674762Y-121964247D01*
X286674762Y-121964247D02*
X286198572Y-122059485D01*
X287103334Y-122392819D02*
X287103334Y-121726152D01*
X287103334Y-121916628D02*
X287150953Y-121821390D01*
X287150953Y-121821390D02*
X287198572Y-121773771D01*
X287198572Y-121773771D02*
X287293810Y-121726152D01*
X287293810Y-121726152D02*
X287389048Y-121726152D01*
X287865239Y-121821390D02*
X287770001Y-121773771D01*
X287770001Y-121773771D02*
X287722382Y-121726152D01*
X287722382Y-121726152D02*
X287674763Y-121630914D01*
X287674763Y-121630914D02*
X287674763Y-121583295D01*
X287674763Y-121583295D02*
X287722382Y-121488057D01*
X287722382Y-121488057D02*
X287770001Y-121440438D01*
X287770001Y-121440438D02*
X287865239Y-121392819D01*
X287865239Y-121392819D02*
X288055715Y-121392819D01*
X288055715Y-121392819D02*
X288150953Y-121440438D01*
X288150953Y-121440438D02*
X288198572Y-121488057D01*
X288198572Y-121488057D02*
X288246191Y-121583295D01*
X288246191Y-121583295D02*
X288246191Y-121630914D01*
X288246191Y-121630914D02*
X288198572Y-121726152D01*
X288198572Y-121726152D02*
X288150953Y-121773771D01*
X288150953Y-121773771D02*
X288055715Y-121821390D01*
X288055715Y-121821390D02*
X287865239Y-121821390D01*
X287865239Y-121821390D02*
X287770001Y-121869009D01*
X287770001Y-121869009D02*
X287722382Y-121916628D01*
X287722382Y-121916628D02*
X287674763Y-122011866D01*
X287674763Y-122011866D02*
X287674763Y-122202342D01*
X287674763Y-122202342D02*
X287722382Y-122297580D01*
X287722382Y-122297580D02*
X287770001Y-122345200D01*
X287770001Y-122345200D02*
X287865239Y-122392819D01*
X287865239Y-122392819D02*
X288055715Y-122392819D01*
X288055715Y-122392819D02*
X288150953Y-122345200D01*
X288150953Y-122345200D02*
X288198572Y-122297580D01*
X288198572Y-122297580D02*
X288246191Y-122202342D01*
X288246191Y-122202342D02*
X288246191Y-122011866D01*
X288246191Y-122011866D02*
X288198572Y-121916628D01*
X288198572Y-121916628D02*
X288150953Y-121869009D01*
X288150953Y-121869009D02*
X288055715Y-121821390D01*
X267912856Y-122297580D02*
X267865237Y-122345200D01*
X267865237Y-122345200D02*
X267722380Y-122392819D01*
X267722380Y-122392819D02*
X267627142Y-122392819D01*
X267627142Y-122392819D02*
X267484285Y-122345200D01*
X267484285Y-122345200D02*
X267389047Y-122249961D01*
X267389047Y-122249961D02*
X267341428Y-122154723D01*
X267341428Y-122154723D02*
X267293809Y-121964247D01*
X267293809Y-121964247D02*
X267293809Y-121821390D01*
X267293809Y-121821390D02*
X267341428Y-121630914D01*
X267341428Y-121630914D02*
X267389047Y-121535676D01*
X267389047Y-121535676D02*
X267484285Y-121440438D01*
X267484285Y-121440438D02*
X267627142Y-121392819D01*
X267627142Y-121392819D02*
X267722380Y-121392819D01*
X267722380Y-121392819D02*
X267865237Y-121440438D01*
X267865237Y-121440438D02*
X267912856Y-121488057D01*
X268103333Y-122488057D02*
X268865237Y-122488057D01*
X268960476Y-121726152D02*
X269341428Y-121726152D01*
X269103333Y-122392819D02*
X269103333Y-121535676D01*
X269103333Y-121535676D02*
X269150952Y-121440438D01*
X269150952Y-121440438D02*
X269246190Y-121392819D01*
X269246190Y-121392819D02*
X269341428Y-121392819D01*
X269674762Y-122392819D02*
X269674762Y-121726152D01*
X269674762Y-121392819D02*
X269627143Y-121440438D01*
X269627143Y-121440438D02*
X269674762Y-121488057D01*
X269674762Y-121488057D02*
X269722381Y-121440438D01*
X269722381Y-121440438D02*
X269674762Y-121392819D01*
X269674762Y-121392819D02*
X269674762Y-121488057D01*
X270293809Y-122392819D02*
X270198571Y-122345200D01*
X270198571Y-122345200D02*
X270150952Y-122249961D01*
X270150952Y-122249961D02*
X270150952Y-121392819D01*
X270531905Y-121726152D02*
X270912857Y-121726152D01*
X270674762Y-121392819D02*
X270674762Y-122249961D01*
X270674762Y-122249961D02*
X270722381Y-122345200D01*
X270722381Y-122345200D02*
X270817619Y-122392819D01*
X270817619Y-122392819D02*
X270912857Y-122392819D01*
X271627143Y-122345200D02*
X271531905Y-122392819D01*
X271531905Y-122392819D02*
X271341429Y-122392819D01*
X271341429Y-122392819D02*
X271246191Y-122345200D01*
X271246191Y-122345200D02*
X271198572Y-122249961D01*
X271198572Y-122249961D02*
X271198572Y-121869009D01*
X271198572Y-121869009D02*
X271246191Y-121773771D01*
X271246191Y-121773771D02*
X271341429Y-121726152D01*
X271341429Y-121726152D02*
X271531905Y-121726152D01*
X271531905Y-121726152D02*
X271627143Y-121773771D01*
X271627143Y-121773771D02*
X271674762Y-121869009D01*
X271674762Y-121869009D02*
X271674762Y-121964247D01*
X271674762Y-121964247D02*
X271198572Y-122059485D01*
X272103334Y-122392819D02*
X272103334Y-121726152D01*
X272103334Y-121916628D02*
X272150953Y-121821390D01*
X272150953Y-121821390D02*
X272198572Y-121773771D01*
X272198572Y-121773771D02*
X272293810Y-121726152D01*
X272293810Y-121726152D02*
X272389048Y-121726152D01*
X272627144Y-121392819D02*
X273293810Y-121392819D01*
X273293810Y-121392819D02*
X272865239Y-122392819D01*
D12*
X270844318Y-116857762D02*
X269574318Y-116857762D01*
X270723365Y-115527285D02*
X270783842Y-115587761D01*
X270783842Y-115587761D02*
X270844318Y-115769190D01*
X270844318Y-115769190D02*
X270844318Y-115890142D01*
X270844318Y-115890142D02*
X270783842Y-116071571D01*
X270783842Y-116071571D02*
X270662889Y-116192523D01*
X270662889Y-116192523D02*
X270541937Y-116253000D01*
X270541937Y-116253000D02*
X270300032Y-116313476D01*
X270300032Y-116313476D02*
X270118603Y-116313476D01*
X270118603Y-116313476D02*
X269876699Y-116253000D01*
X269876699Y-116253000D02*
X269755746Y-116192523D01*
X269755746Y-116192523D02*
X269634794Y-116071571D01*
X269634794Y-116071571D02*
X269574318Y-115890142D01*
X269574318Y-115890142D02*
X269574318Y-115769190D01*
X269574318Y-115769190D02*
X269634794Y-115587761D01*
X269634794Y-115587761D02*
X269695270Y-115527285D01*
X269574318Y-115103952D02*
X269574318Y-114257285D01*
X269574318Y-114257285D02*
X270844318Y-114801571D01*
D11*
X149941666Y-145584819D02*
X149941666Y-146299104D01*
X149941666Y-146299104D02*
X149894047Y-146441961D01*
X149894047Y-146441961D02*
X149798809Y-146537200D01*
X149798809Y-146537200D02*
X149655952Y-146584819D01*
X149655952Y-146584819D02*
X149560714Y-146584819D01*
X150322619Y-145584819D02*
X150941666Y-145584819D01*
X150941666Y-145584819D02*
X150608333Y-145965771D01*
X150608333Y-145965771D02*
X150751190Y-145965771D01*
X150751190Y-145965771D02*
X150846428Y-146013390D01*
X150846428Y-146013390D02*
X150894047Y-146061009D01*
X150894047Y-146061009D02*
X150941666Y-146156247D01*
X150941666Y-146156247D02*
X150941666Y-146394342D01*
X150941666Y-146394342D02*
X150894047Y-146489580D01*
X150894047Y-146489580D02*
X150846428Y-146537200D01*
X150846428Y-146537200D02*
X150751190Y-146584819D01*
X150751190Y-146584819D02*
X150465476Y-146584819D01*
X150465476Y-146584819D02*
X150370238Y-146537200D01*
X150370238Y-146537200D02*
X150322619Y-146489580D01*
X203204856Y-122240080D02*
X203157237Y-122287700D01*
X203157237Y-122287700D02*
X203014380Y-122335319D01*
X203014380Y-122335319D02*
X202919142Y-122335319D01*
X202919142Y-122335319D02*
X202776285Y-122287700D01*
X202776285Y-122287700D02*
X202681047Y-122192461D01*
X202681047Y-122192461D02*
X202633428Y-122097223D01*
X202633428Y-122097223D02*
X202585809Y-121906747D01*
X202585809Y-121906747D02*
X202585809Y-121763890D01*
X202585809Y-121763890D02*
X202633428Y-121573414D01*
X202633428Y-121573414D02*
X202681047Y-121478176D01*
X202681047Y-121478176D02*
X202776285Y-121382938D01*
X202776285Y-121382938D02*
X202919142Y-121335319D01*
X202919142Y-121335319D02*
X203014380Y-121335319D01*
X203014380Y-121335319D02*
X203157237Y-121382938D01*
X203157237Y-121382938D02*
X203204856Y-121430557D01*
X203395333Y-122430557D02*
X204157237Y-122430557D01*
X204252476Y-121668652D02*
X204633428Y-121668652D01*
X204395333Y-122335319D02*
X204395333Y-121478176D01*
X204395333Y-121478176D02*
X204442952Y-121382938D01*
X204442952Y-121382938D02*
X204538190Y-121335319D01*
X204538190Y-121335319D02*
X204633428Y-121335319D01*
X204966762Y-122335319D02*
X204966762Y-121668652D01*
X204966762Y-121335319D02*
X204919143Y-121382938D01*
X204919143Y-121382938D02*
X204966762Y-121430557D01*
X204966762Y-121430557D02*
X205014381Y-121382938D01*
X205014381Y-121382938D02*
X204966762Y-121335319D01*
X204966762Y-121335319D02*
X204966762Y-121430557D01*
X205585809Y-122335319D02*
X205490571Y-122287700D01*
X205490571Y-122287700D02*
X205442952Y-122192461D01*
X205442952Y-122192461D02*
X205442952Y-121335319D01*
X205823905Y-121668652D02*
X206204857Y-121668652D01*
X205966762Y-121335319D02*
X205966762Y-122192461D01*
X205966762Y-122192461D02*
X206014381Y-122287700D01*
X206014381Y-122287700D02*
X206109619Y-122335319D01*
X206109619Y-122335319D02*
X206204857Y-122335319D01*
X206919143Y-122287700D02*
X206823905Y-122335319D01*
X206823905Y-122335319D02*
X206633429Y-122335319D01*
X206633429Y-122335319D02*
X206538191Y-122287700D01*
X206538191Y-122287700D02*
X206490572Y-122192461D01*
X206490572Y-122192461D02*
X206490572Y-121811509D01*
X206490572Y-121811509D02*
X206538191Y-121716271D01*
X206538191Y-121716271D02*
X206633429Y-121668652D01*
X206633429Y-121668652D02*
X206823905Y-121668652D01*
X206823905Y-121668652D02*
X206919143Y-121716271D01*
X206919143Y-121716271D02*
X206966762Y-121811509D01*
X206966762Y-121811509D02*
X206966762Y-121906747D01*
X206966762Y-121906747D02*
X206490572Y-122001985D01*
X207395334Y-122335319D02*
X207395334Y-121668652D01*
X207395334Y-121859128D02*
X207442953Y-121763890D01*
X207442953Y-121763890D02*
X207490572Y-121716271D01*
X207490572Y-121716271D02*
X207585810Y-121668652D01*
X207585810Y-121668652D02*
X207681048Y-121668652D01*
X208442953Y-121668652D02*
X208442953Y-122335319D01*
X208204858Y-121287700D02*
X207966763Y-122001985D01*
X207966763Y-122001985D02*
X208585810Y-122001985D01*
X259024666Y-127105580D02*
X258977047Y-127153200D01*
X258977047Y-127153200D02*
X258834190Y-127200819D01*
X258834190Y-127200819D02*
X258738952Y-127200819D01*
X258738952Y-127200819D02*
X258596095Y-127153200D01*
X258596095Y-127153200D02*
X258500857Y-127057961D01*
X258500857Y-127057961D02*
X258453238Y-126962723D01*
X258453238Y-126962723D02*
X258405619Y-126772247D01*
X258405619Y-126772247D02*
X258405619Y-126629390D01*
X258405619Y-126629390D02*
X258453238Y-126438914D01*
X258453238Y-126438914D02*
X258500857Y-126343676D01*
X258500857Y-126343676D02*
X258596095Y-126248438D01*
X258596095Y-126248438D02*
X258738952Y-126200819D01*
X258738952Y-126200819D02*
X258834190Y-126200819D01*
X258834190Y-126200819D02*
X258977047Y-126248438D01*
X258977047Y-126248438D02*
X259024666Y-126296057D01*
X259215143Y-127296057D02*
X259977047Y-127296057D01*
X260215143Y-127200819D02*
X260215143Y-126200819D01*
X260215143Y-126581771D02*
X260310381Y-126534152D01*
X260310381Y-126534152D02*
X260500857Y-126534152D01*
X260500857Y-126534152D02*
X260596095Y-126581771D01*
X260596095Y-126581771D02*
X260643714Y-126629390D01*
X260643714Y-126629390D02*
X260691333Y-126724628D01*
X260691333Y-126724628D02*
X260691333Y-127010342D01*
X260691333Y-127010342D02*
X260643714Y-127105580D01*
X260643714Y-127105580D02*
X260596095Y-127153200D01*
X260596095Y-127153200D02*
X260500857Y-127200819D01*
X260500857Y-127200819D02*
X260310381Y-127200819D01*
X260310381Y-127200819D02*
X260215143Y-127153200D01*
X261024667Y-126534152D02*
X261262762Y-127200819D01*
X261500857Y-126534152D02*
X261262762Y-127200819D01*
X261262762Y-127200819D02*
X261167524Y-127438914D01*
X261167524Y-127438914D02*
X261119905Y-127486533D01*
X261119905Y-127486533D02*
X261024667Y-127534152D01*
X261881810Y-126534152D02*
X261881810Y-127534152D01*
X261881810Y-126581771D02*
X261977048Y-126534152D01*
X261977048Y-126534152D02*
X262167524Y-126534152D01*
X262167524Y-126534152D02*
X262262762Y-126581771D01*
X262262762Y-126581771D02*
X262310381Y-126629390D01*
X262310381Y-126629390D02*
X262358000Y-126724628D01*
X262358000Y-126724628D02*
X262358000Y-127010342D01*
X262358000Y-127010342D02*
X262310381Y-127105580D01*
X262310381Y-127105580D02*
X262262762Y-127153200D01*
X262262762Y-127153200D02*
X262167524Y-127200819D01*
X262167524Y-127200819D02*
X261977048Y-127200819D01*
X261977048Y-127200819D02*
X261881810Y-127153200D01*
X262691334Y-126200819D02*
X263310381Y-126200819D01*
X263310381Y-126200819D02*
X262977048Y-126581771D01*
X262977048Y-126581771D02*
X263119905Y-126581771D01*
X263119905Y-126581771D02*
X263215143Y-126629390D01*
X263215143Y-126629390D02*
X263262762Y-126677009D01*
X263262762Y-126677009D02*
X263310381Y-126772247D01*
X263310381Y-126772247D02*
X263310381Y-127010342D01*
X263310381Y-127010342D02*
X263262762Y-127105580D01*
X263262762Y-127105580D02*
X263215143Y-127153200D01*
X263215143Y-127153200D02*
X263119905Y-127200819D01*
X263119905Y-127200819D02*
X262834191Y-127200819D01*
X262834191Y-127200819D02*
X262738953Y-127153200D01*
X262738953Y-127153200D02*
X262691334Y-127105580D01*
X156384666Y-97244819D02*
X156384666Y-97959104D01*
X156384666Y-97959104D02*
X156337047Y-98101961D01*
X156337047Y-98101961D02*
X156241809Y-98197200D01*
X156241809Y-98197200D02*
X156098952Y-98244819D01*
X156098952Y-98244819D02*
X156003714Y-98244819D01*
X157384666Y-98244819D02*
X156813238Y-98244819D01*
X157098952Y-98244819D02*
X157098952Y-97244819D01*
X157098952Y-97244819D02*
X157003714Y-97387676D01*
X157003714Y-97387676D02*
X156908476Y-97482914D01*
X156908476Y-97482914D02*
X156813238Y-97530533D01*
X188204856Y-122240080D02*
X188157237Y-122287700D01*
X188157237Y-122287700D02*
X188014380Y-122335319D01*
X188014380Y-122335319D02*
X187919142Y-122335319D01*
X187919142Y-122335319D02*
X187776285Y-122287700D01*
X187776285Y-122287700D02*
X187681047Y-122192461D01*
X187681047Y-122192461D02*
X187633428Y-122097223D01*
X187633428Y-122097223D02*
X187585809Y-121906747D01*
X187585809Y-121906747D02*
X187585809Y-121763890D01*
X187585809Y-121763890D02*
X187633428Y-121573414D01*
X187633428Y-121573414D02*
X187681047Y-121478176D01*
X187681047Y-121478176D02*
X187776285Y-121382938D01*
X187776285Y-121382938D02*
X187919142Y-121335319D01*
X187919142Y-121335319D02*
X188014380Y-121335319D01*
X188014380Y-121335319D02*
X188157237Y-121382938D01*
X188157237Y-121382938D02*
X188204856Y-121430557D01*
X188395333Y-122430557D02*
X189157237Y-122430557D01*
X189252476Y-121668652D02*
X189633428Y-121668652D01*
X189395333Y-122335319D02*
X189395333Y-121478176D01*
X189395333Y-121478176D02*
X189442952Y-121382938D01*
X189442952Y-121382938D02*
X189538190Y-121335319D01*
X189538190Y-121335319D02*
X189633428Y-121335319D01*
X189966762Y-122335319D02*
X189966762Y-121668652D01*
X189966762Y-121335319D02*
X189919143Y-121382938D01*
X189919143Y-121382938D02*
X189966762Y-121430557D01*
X189966762Y-121430557D02*
X190014381Y-121382938D01*
X190014381Y-121382938D02*
X189966762Y-121335319D01*
X189966762Y-121335319D02*
X189966762Y-121430557D01*
X190585809Y-122335319D02*
X190490571Y-122287700D01*
X190490571Y-122287700D02*
X190442952Y-122192461D01*
X190442952Y-122192461D02*
X190442952Y-121335319D01*
X190823905Y-121668652D02*
X191204857Y-121668652D01*
X190966762Y-121335319D02*
X190966762Y-122192461D01*
X190966762Y-122192461D02*
X191014381Y-122287700D01*
X191014381Y-122287700D02*
X191109619Y-122335319D01*
X191109619Y-122335319D02*
X191204857Y-122335319D01*
X191919143Y-122287700D02*
X191823905Y-122335319D01*
X191823905Y-122335319D02*
X191633429Y-122335319D01*
X191633429Y-122335319D02*
X191538191Y-122287700D01*
X191538191Y-122287700D02*
X191490572Y-122192461D01*
X191490572Y-122192461D02*
X191490572Y-121811509D01*
X191490572Y-121811509D02*
X191538191Y-121716271D01*
X191538191Y-121716271D02*
X191633429Y-121668652D01*
X191633429Y-121668652D02*
X191823905Y-121668652D01*
X191823905Y-121668652D02*
X191919143Y-121716271D01*
X191919143Y-121716271D02*
X191966762Y-121811509D01*
X191966762Y-121811509D02*
X191966762Y-121906747D01*
X191966762Y-121906747D02*
X191490572Y-122001985D01*
X192395334Y-122335319D02*
X192395334Y-121668652D01*
X192395334Y-121859128D02*
X192442953Y-121763890D01*
X192442953Y-121763890D02*
X192490572Y-121716271D01*
X192490572Y-121716271D02*
X192585810Y-121668652D01*
X192585810Y-121668652D02*
X192681048Y-121668652D01*
X192919144Y-121335319D02*
X193538191Y-121335319D01*
X193538191Y-121335319D02*
X193204858Y-121716271D01*
X193204858Y-121716271D02*
X193347715Y-121716271D01*
X193347715Y-121716271D02*
X193442953Y-121763890D01*
X193442953Y-121763890D02*
X193490572Y-121811509D01*
X193490572Y-121811509D02*
X193538191Y-121906747D01*
X193538191Y-121906747D02*
X193538191Y-122144842D01*
X193538191Y-122144842D02*
X193490572Y-122240080D01*
X193490572Y-122240080D02*
X193442953Y-122287700D01*
X193442953Y-122287700D02*
X193347715Y-122335319D01*
X193347715Y-122335319D02*
X193062001Y-122335319D01*
X193062001Y-122335319D02*
X192966763Y-122287700D01*
X192966763Y-122287700D02*
X192919144Y-122240080D01*
D12*
X191136318Y-116800262D02*
X189866318Y-116800262D01*
X191015365Y-115469785D02*
X191075842Y-115530261D01*
X191075842Y-115530261D02*
X191136318Y-115711690D01*
X191136318Y-115711690D02*
X191136318Y-115832642D01*
X191136318Y-115832642D02*
X191075842Y-116014071D01*
X191075842Y-116014071D02*
X190954889Y-116135023D01*
X190954889Y-116135023D02*
X190833937Y-116195500D01*
X190833937Y-116195500D02*
X190592032Y-116255976D01*
X190592032Y-116255976D02*
X190410603Y-116255976D01*
X190410603Y-116255976D02*
X190168699Y-116195500D01*
X190168699Y-116195500D02*
X190047746Y-116135023D01*
X190047746Y-116135023D02*
X189926794Y-116014071D01*
X189926794Y-116014071D02*
X189866318Y-115832642D01*
X189866318Y-115832642D02*
X189866318Y-115711690D01*
X189866318Y-115711690D02*
X189926794Y-115530261D01*
X189926794Y-115530261D02*
X189987270Y-115469785D01*
X189866318Y-115046452D02*
X189866318Y-114260261D01*
X189866318Y-114260261D02*
X190350127Y-114683595D01*
X190350127Y-114683595D02*
X190350127Y-114502166D01*
X190350127Y-114502166D02*
X190410603Y-114381214D01*
X190410603Y-114381214D02*
X190471080Y-114320738D01*
X190471080Y-114320738D02*
X190592032Y-114260261D01*
X190592032Y-114260261D02*
X190894413Y-114260261D01*
X190894413Y-114260261D02*
X191015365Y-114320738D01*
X191015365Y-114320738D02*
X191075842Y-114381214D01*
X191075842Y-114381214D02*
X191136318Y-114502166D01*
X191136318Y-114502166D02*
X191136318Y-114865023D01*
X191136318Y-114865023D02*
X191075842Y-114985976D01*
X191075842Y-114985976D02*
X191015365Y-115046452D01*
D11*
X298216666Y-132949819D02*
X298216666Y-133664104D01*
X298216666Y-133664104D02*
X298169047Y-133806961D01*
X298169047Y-133806961D02*
X298073809Y-133902200D01*
X298073809Y-133902200D02*
X297930952Y-133949819D01*
X297930952Y-133949819D02*
X297835714Y-133949819D01*
X299169047Y-132949819D02*
X298692857Y-132949819D01*
X298692857Y-132949819D02*
X298645238Y-133426009D01*
X298645238Y-133426009D02*
X298692857Y-133378390D01*
X298692857Y-133378390D02*
X298788095Y-133330771D01*
X298788095Y-133330771D02*
X299026190Y-133330771D01*
X299026190Y-133330771D02*
X299121428Y-133378390D01*
X299121428Y-133378390D02*
X299169047Y-133426009D01*
X299169047Y-133426009D02*
X299216666Y-133521247D01*
X299216666Y-133521247D02*
X299216666Y-133759342D01*
X299216666Y-133759342D02*
X299169047Y-133854580D01*
X299169047Y-133854580D02*
X299121428Y-133902200D01*
X299121428Y-133902200D02*
X299026190Y-133949819D01*
X299026190Y-133949819D02*
X298788095Y-133949819D01*
X298788095Y-133949819D02*
X298692857Y-133902200D01*
X298692857Y-133902200D02*
X298645238Y-133854580D01*
D12*
X285844318Y-116857762D02*
X284574318Y-116857762D01*
X285723365Y-115527285D02*
X285783842Y-115587761D01*
X285783842Y-115587761D02*
X285844318Y-115769190D01*
X285844318Y-115769190D02*
X285844318Y-115890142D01*
X285844318Y-115890142D02*
X285783842Y-116071571D01*
X285783842Y-116071571D02*
X285662889Y-116192523D01*
X285662889Y-116192523D02*
X285541937Y-116253000D01*
X285541937Y-116253000D02*
X285300032Y-116313476D01*
X285300032Y-116313476D02*
X285118603Y-116313476D01*
X285118603Y-116313476D02*
X284876699Y-116253000D01*
X284876699Y-116253000D02*
X284755746Y-116192523D01*
X284755746Y-116192523D02*
X284634794Y-116071571D01*
X284634794Y-116071571D02*
X284574318Y-115890142D01*
X284574318Y-115890142D02*
X284574318Y-115769190D01*
X284574318Y-115769190D02*
X284634794Y-115587761D01*
X284634794Y-115587761D02*
X284695270Y-115527285D01*
X285118603Y-114801571D02*
X285058127Y-114922523D01*
X285058127Y-114922523D02*
X284997651Y-114983000D01*
X284997651Y-114983000D02*
X284876699Y-115043476D01*
X284876699Y-115043476D02*
X284816222Y-115043476D01*
X284816222Y-115043476D02*
X284695270Y-114983000D01*
X284695270Y-114983000D02*
X284634794Y-114922523D01*
X284634794Y-114922523D02*
X284574318Y-114801571D01*
X284574318Y-114801571D02*
X284574318Y-114559666D01*
X284574318Y-114559666D02*
X284634794Y-114438714D01*
X284634794Y-114438714D02*
X284695270Y-114378238D01*
X284695270Y-114378238D02*
X284816222Y-114317761D01*
X284816222Y-114317761D02*
X284876699Y-114317761D01*
X284876699Y-114317761D02*
X284997651Y-114378238D01*
X284997651Y-114378238D02*
X285058127Y-114438714D01*
X285058127Y-114438714D02*
X285118603Y-114559666D01*
X285118603Y-114559666D02*
X285118603Y-114801571D01*
X285118603Y-114801571D02*
X285179080Y-114922523D01*
X285179080Y-114922523D02*
X285239556Y-114983000D01*
X285239556Y-114983000D02*
X285360508Y-115043476D01*
X285360508Y-115043476D02*
X285602413Y-115043476D01*
X285602413Y-115043476D02*
X285723365Y-114983000D01*
X285723365Y-114983000D02*
X285783842Y-114922523D01*
X285783842Y-114922523D02*
X285844318Y-114801571D01*
X285844318Y-114801571D02*
X285844318Y-114559666D01*
X285844318Y-114559666D02*
X285783842Y-114438714D01*
X285783842Y-114438714D02*
X285723365Y-114378238D01*
X285723365Y-114378238D02*
X285602413Y-114317761D01*
X285602413Y-114317761D02*
X285360508Y-114317761D01*
X285360508Y-114317761D02*
X285239556Y-114378238D01*
X285239556Y-114378238D02*
X285179080Y-114438714D01*
X285179080Y-114438714D02*
X285118603Y-114559666D01*
X240844318Y-116857762D02*
X239574318Y-116857762D01*
X240723365Y-115527285D02*
X240783842Y-115587761D01*
X240783842Y-115587761D02*
X240844318Y-115769190D01*
X240844318Y-115769190D02*
X240844318Y-115890142D01*
X240844318Y-115890142D02*
X240783842Y-116071571D01*
X240783842Y-116071571D02*
X240662889Y-116192523D01*
X240662889Y-116192523D02*
X240541937Y-116253000D01*
X240541937Y-116253000D02*
X240300032Y-116313476D01*
X240300032Y-116313476D02*
X240118603Y-116313476D01*
X240118603Y-116313476D02*
X239876699Y-116253000D01*
X239876699Y-116253000D02*
X239755746Y-116192523D01*
X239755746Y-116192523D02*
X239634794Y-116071571D01*
X239634794Y-116071571D02*
X239574318Y-115890142D01*
X239574318Y-115890142D02*
X239574318Y-115769190D01*
X239574318Y-115769190D02*
X239634794Y-115587761D01*
X239634794Y-115587761D02*
X239695270Y-115527285D01*
X239574318Y-114378238D02*
X239574318Y-114983000D01*
X239574318Y-114983000D02*
X240179080Y-115043476D01*
X240179080Y-115043476D02*
X240118603Y-114983000D01*
X240118603Y-114983000D02*
X240058127Y-114862047D01*
X240058127Y-114862047D02*
X240058127Y-114559666D01*
X240058127Y-114559666D02*
X240118603Y-114438714D01*
X240118603Y-114438714D02*
X240179080Y-114378238D01*
X240179080Y-114378238D02*
X240300032Y-114317761D01*
X240300032Y-114317761D02*
X240602413Y-114317761D01*
X240602413Y-114317761D02*
X240723365Y-114378238D01*
X240723365Y-114378238D02*
X240783842Y-114438714D01*
X240783842Y-114438714D02*
X240844318Y-114559666D01*
X240844318Y-114559666D02*
X240844318Y-114862047D01*
X240844318Y-114862047D02*
X240783842Y-114983000D01*
X240783842Y-114983000D02*
X240723365Y-115043476D01*
D11*
X173204856Y-122240080D02*
X173157237Y-122287700D01*
X173157237Y-122287700D02*
X173014380Y-122335319D01*
X173014380Y-122335319D02*
X172919142Y-122335319D01*
X172919142Y-122335319D02*
X172776285Y-122287700D01*
X172776285Y-122287700D02*
X172681047Y-122192461D01*
X172681047Y-122192461D02*
X172633428Y-122097223D01*
X172633428Y-122097223D02*
X172585809Y-121906747D01*
X172585809Y-121906747D02*
X172585809Y-121763890D01*
X172585809Y-121763890D02*
X172633428Y-121573414D01*
X172633428Y-121573414D02*
X172681047Y-121478176D01*
X172681047Y-121478176D02*
X172776285Y-121382938D01*
X172776285Y-121382938D02*
X172919142Y-121335319D01*
X172919142Y-121335319D02*
X173014380Y-121335319D01*
X173014380Y-121335319D02*
X173157237Y-121382938D01*
X173157237Y-121382938D02*
X173204856Y-121430557D01*
X173395333Y-122430557D02*
X174157237Y-122430557D01*
X174252476Y-121668652D02*
X174633428Y-121668652D01*
X174395333Y-122335319D02*
X174395333Y-121478176D01*
X174395333Y-121478176D02*
X174442952Y-121382938D01*
X174442952Y-121382938D02*
X174538190Y-121335319D01*
X174538190Y-121335319D02*
X174633428Y-121335319D01*
X174966762Y-122335319D02*
X174966762Y-121668652D01*
X174966762Y-121335319D02*
X174919143Y-121382938D01*
X174919143Y-121382938D02*
X174966762Y-121430557D01*
X174966762Y-121430557D02*
X175014381Y-121382938D01*
X175014381Y-121382938D02*
X174966762Y-121335319D01*
X174966762Y-121335319D02*
X174966762Y-121430557D01*
X175585809Y-122335319D02*
X175490571Y-122287700D01*
X175490571Y-122287700D02*
X175442952Y-122192461D01*
X175442952Y-122192461D02*
X175442952Y-121335319D01*
X175823905Y-121668652D02*
X176204857Y-121668652D01*
X175966762Y-121335319D02*
X175966762Y-122192461D01*
X175966762Y-122192461D02*
X176014381Y-122287700D01*
X176014381Y-122287700D02*
X176109619Y-122335319D01*
X176109619Y-122335319D02*
X176204857Y-122335319D01*
X176919143Y-122287700D02*
X176823905Y-122335319D01*
X176823905Y-122335319D02*
X176633429Y-122335319D01*
X176633429Y-122335319D02*
X176538191Y-122287700D01*
X176538191Y-122287700D02*
X176490572Y-122192461D01*
X176490572Y-122192461D02*
X176490572Y-121811509D01*
X176490572Y-121811509D02*
X176538191Y-121716271D01*
X176538191Y-121716271D02*
X176633429Y-121668652D01*
X176633429Y-121668652D02*
X176823905Y-121668652D01*
X176823905Y-121668652D02*
X176919143Y-121716271D01*
X176919143Y-121716271D02*
X176966762Y-121811509D01*
X176966762Y-121811509D02*
X176966762Y-121906747D01*
X176966762Y-121906747D02*
X176490572Y-122001985D01*
X177395334Y-122335319D02*
X177395334Y-121668652D01*
X177395334Y-121859128D02*
X177442953Y-121763890D01*
X177442953Y-121763890D02*
X177490572Y-121716271D01*
X177490572Y-121716271D02*
X177585810Y-121668652D01*
X177585810Y-121668652D02*
X177681048Y-121668652D01*
X177966763Y-121430557D02*
X178014382Y-121382938D01*
X178014382Y-121382938D02*
X178109620Y-121335319D01*
X178109620Y-121335319D02*
X178347715Y-121335319D01*
X178347715Y-121335319D02*
X178442953Y-121382938D01*
X178442953Y-121382938D02*
X178490572Y-121430557D01*
X178490572Y-121430557D02*
X178538191Y-121525795D01*
X178538191Y-121525795D02*
X178538191Y-121621033D01*
X178538191Y-121621033D02*
X178490572Y-121763890D01*
X178490572Y-121763890D02*
X177919144Y-122335319D01*
X177919144Y-122335319D02*
X178538191Y-122335319D01*
X184348666Y-126089580D02*
X184301047Y-126137200D01*
X184301047Y-126137200D02*
X184158190Y-126184819D01*
X184158190Y-126184819D02*
X184062952Y-126184819D01*
X184062952Y-126184819D02*
X183920095Y-126137200D01*
X183920095Y-126137200D02*
X183824857Y-126041961D01*
X183824857Y-126041961D02*
X183777238Y-125946723D01*
X183777238Y-125946723D02*
X183729619Y-125756247D01*
X183729619Y-125756247D02*
X183729619Y-125613390D01*
X183729619Y-125613390D02*
X183777238Y-125422914D01*
X183777238Y-125422914D02*
X183824857Y-125327676D01*
X183824857Y-125327676D02*
X183920095Y-125232438D01*
X183920095Y-125232438D02*
X184062952Y-125184819D01*
X184062952Y-125184819D02*
X184158190Y-125184819D01*
X184158190Y-125184819D02*
X184301047Y-125232438D01*
X184301047Y-125232438D02*
X184348666Y-125280057D01*
X184539143Y-126280057D02*
X185301047Y-126280057D01*
X185539143Y-126184819D02*
X185539143Y-125184819D01*
X185539143Y-125565771D02*
X185634381Y-125518152D01*
X185634381Y-125518152D02*
X185824857Y-125518152D01*
X185824857Y-125518152D02*
X185920095Y-125565771D01*
X185920095Y-125565771D02*
X185967714Y-125613390D01*
X185967714Y-125613390D02*
X186015333Y-125708628D01*
X186015333Y-125708628D02*
X186015333Y-125994342D01*
X186015333Y-125994342D02*
X185967714Y-126089580D01*
X185967714Y-126089580D02*
X185920095Y-126137200D01*
X185920095Y-126137200D02*
X185824857Y-126184819D01*
X185824857Y-126184819D02*
X185634381Y-126184819D01*
X185634381Y-126184819D02*
X185539143Y-126137200D01*
X186348667Y-125518152D02*
X186586762Y-126184819D01*
X186824857Y-125518152D02*
X186586762Y-126184819D01*
X186586762Y-126184819D02*
X186491524Y-126422914D01*
X186491524Y-126422914D02*
X186443905Y-126470533D01*
X186443905Y-126470533D02*
X186348667Y-126518152D01*
X187205810Y-125518152D02*
X187205810Y-126518152D01*
X187205810Y-125565771D02*
X187301048Y-125518152D01*
X187301048Y-125518152D02*
X187491524Y-125518152D01*
X187491524Y-125518152D02*
X187586762Y-125565771D01*
X187586762Y-125565771D02*
X187634381Y-125613390D01*
X187634381Y-125613390D02*
X187682000Y-125708628D01*
X187682000Y-125708628D02*
X187682000Y-125994342D01*
X187682000Y-125994342D02*
X187634381Y-126089580D01*
X187634381Y-126089580D02*
X187586762Y-126137200D01*
X187586762Y-126137200D02*
X187491524Y-126184819D01*
X187491524Y-126184819D02*
X187301048Y-126184819D01*
X187301048Y-126184819D02*
X187205810Y-126137200D01*
X188015334Y-125184819D02*
X188682000Y-125184819D01*
X188682000Y-125184819D02*
X188253429Y-126184819D01*
X223516665Y-136224819D02*
X223516665Y-136939104D01*
X223516665Y-136939104D02*
X223469046Y-137081961D01*
X223469046Y-137081961D02*
X223373808Y-137177200D01*
X223373808Y-137177200D02*
X223230951Y-137224819D01*
X223230951Y-137224819D02*
X223135713Y-137224819D01*
X224421427Y-136558152D02*
X224421427Y-137224819D01*
X224183332Y-136177200D02*
X223945237Y-136891485D01*
X223945237Y-136891485D02*
X224564284Y-136891485D01*
X297216666Y-126079819D02*
X296883333Y-125603628D01*
X296645238Y-126079819D02*
X296645238Y-125079819D01*
X296645238Y-125079819D02*
X297026190Y-125079819D01*
X297026190Y-125079819D02*
X297121428Y-125127438D01*
X297121428Y-125127438D02*
X297169047Y-125175057D01*
X297169047Y-125175057D02*
X297216666Y-125270295D01*
X297216666Y-125270295D02*
X297216666Y-125413152D01*
X297216666Y-125413152D02*
X297169047Y-125508390D01*
X297169047Y-125508390D02*
X297121428Y-125556009D01*
X297121428Y-125556009D02*
X297026190Y-125603628D01*
X297026190Y-125603628D02*
X296645238Y-125603628D01*
X297645238Y-125556009D02*
X297978571Y-125556009D01*
X298121428Y-126079819D02*
X297645238Y-126079819D01*
X297645238Y-126079819D02*
X297645238Y-125079819D01*
X297645238Y-125079819D02*
X298121428Y-125079819D01*
X298883333Y-125556009D02*
X298550000Y-125556009D01*
X298550000Y-126079819D02*
X298550000Y-125079819D01*
X298550000Y-125079819D02*
X299026190Y-125079819D01*
X299550000Y-125079819D02*
X299550000Y-125317914D01*
X299311905Y-125222676D02*
X299550000Y-125317914D01*
X299550000Y-125317914D02*
X299788095Y-125222676D01*
X299407143Y-125508390D02*
X299550000Y-125317914D01*
X299550000Y-125317914D02*
X299692857Y-125508390D01*
X300311905Y-125079819D02*
X300311905Y-125317914D01*
X300073810Y-125222676D02*
X300311905Y-125317914D01*
X300311905Y-125317914D02*
X300550000Y-125222676D01*
X300169048Y-125508390D02*
X300311905Y-125317914D01*
X300311905Y-125317914D02*
X300454762Y-125508390D01*
X246070666Y-124819580D02*
X246023047Y-124867200D01*
X246023047Y-124867200D02*
X245880190Y-124914819D01*
X245880190Y-124914819D02*
X245784952Y-124914819D01*
X245784952Y-124914819D02*
X245642095Y-124867200D01*
X245642095Y-124867200D02*
X245546857Y-124771961D01*
X245546857Y-124771961D02*
X245499238Y-124676723D01*
X245499238Y-124676723D02*
X245451619Y-124486247D01*
X245451619Y-124486247D02*
X245451619Y-124343390D01*
X245451619Y-124343390D02*
X245499238Y-124152914D01*
X245499238Y-124152914D02*
X245546857Y-124057676D01*
X245546857Y-124057676D02*
X245642095Y-123962438D01*
X245642095Y-123962438D02*
X245784952Y-123914819D01*
X245784952Y-123914819D02*
X245880190Y-123914819D01*
X245880190Y-123914819D02*
X246023047Y-123962438D01*
X246023047Y-123962438D02*
X246070666Y-124010057D01*
X246261143Y-125010057D02*
X247023047Y-125010057D01*
X247261143Y-124914819D02*
X247261143Y-123914819D01*
X247261143Y-124295771D02*
X247356381Y-124248152D01*
X247356381Y-124248152D02*
X247546857Y-124248152D01*
X247546857Y-124248152D02*
X247642095Y-124295771D01*
X247642095Y-124295771D02*
X247689714Y-124343390D01*
X247689714Y-124343390D02*
X247737333Y-124438628D01*
X247737333Y-124438628D02*
X247737333Y-124724342D01*
X247737333Y-124724342D02*
X247689714Y-124819580D01*
X247689714Y-124819580D02*
X247642095Y-124867200D01*
X247642095Y-124867200D02*
X247546857Y-124914819D01*
X247546857Y-124914819D02*
X247356381Y-124914819D01*
X247356381Y-124914819D02*
X247261143Y-124867200D01*
X248070667Y-124248152D02*
X248308762Y-124914819D01*
X248546857Y-124248152D02*
X248308762Y-124914819D01*
X248308762Y-124914819D02*
X248213524Y-125152914D01*
X248213524Y-125152914D02*
X248165905Y-125200533D01*
X248165905Y-125200533D02*
X248070667Y-125248152D01*
X248927810Y-124248152D02*
X248927810Y-125248152D01*
X248927810Y-124295771D02*
X249023048Y-124248152D01*
X249023048Y-124248152D02*
X249213524Y-124248152D01*
X249213524Y-124248152D02*
X249308762Y-124295771D01*
X249308762Y-124295771D02*
X249356381Y-124343390D01*
X249356381Y-124343390D02*
X249404000Y-124438628D01*
X249404000Y-124438628D02*
X249404000Y-124724342D01*
X249404000Y-124724342D02*
X249356381Y-124819580D01*
X249356381Y-124819580D02*
X249308762Y-124867200D01*
X249308762Y-124867200D02*
X249213524Y-124914819D01*
X249213524Y-124914819D02*
X249023048Y-124914819D01*
X249023048Y-124914819D02*
X248927810Y-124867200D01*
X250261143Y-124248152D02*
X250261143Y-124914819D01*
X250023048Y-123867200D02*
X249784953Y-124581485D01*
X249784953Y-124581485D02*
X250404000Y-124581485D01*
X252912856Y-122297580D02*
X252865237Y-122345200D01*
X252865237Y-122345200D02*
X252722380Y-122392819D01*
X252722380Y-122392819D02*
X252627142Y-122392819D01*
X252627142Y-122392819D02*
X252484285Y-122345200D01*
X252484285Y-122345200D02*
X252389047Y-122249961D01*
X252389047Y-122249961D02*
X252341428Y-122154723D01*
X252341428Y-122154723D02*
X252293809Y-121964247D01*
X252293809Y-121964247D02*
X252293809Y-121821390D01*
X252293809Y-121821390D02*
X252341428Y-121630914D01*
X252341428Y-121630914D02*
X252389047Y-121535676D01*
X252389047Y-121535676D02*
X252484285Y-121440438D01*
X252484285Y-121440438D02*
X252627142Y-121392819D01*
X252627142Y-121392819D02*
X252722380Y-121392819D01*
X252722380Y-121392819D02*
X252865237Y-121440438D01*
X252865237Y-121440438D02*
X252912856Y-121488057D01*
X253103333Y-122488057D02*
X253865237Y-122488057D01*
X253960476Y-121726152D02*
X254341428Y-121726152D01*
X254103333Y-122392819D02*
X254103333Y-121535676D01*
X254103333Y-121535676D02*
X254150952Y-121440438D01*
X254150952Y-121440438D02*
X254246190Y-121392819D01*
X254246190Y-121392819D02*
X254341428Y-121392819D01*
X254674762Y-122392819D02*
X254674762Y-121726152D01*
X254674762Y-121392819D02*
X254627143Y-121440438D01*
X254627143Y-121440438D02*
X254674762Y-121488057D01*
X254674762Y-121488057D02*
X254722381Y-121440438D01*
X254722381Y-121440438D02*
X254674762Y-121392819D01*
X254674762Y-121392819D02*
X254674762Y-121488057D01*
X255293809Y-122392819D02*
X255198571Y-122345200D01*
X255198571Y-122345200D02*
X255150952Y-122249961D01*
X255150952Y-122249961D02*
X255150952Y-121392819D01*
X255531905Y-121726152D02*
X255912857Y-121726152D01*
X255674762Y-121392819D02*
X255674762Y-122249961D01*
X255674762Y-122249961D02*
X255722381Y-122345200D01*
X255722381Y-122345200D02*
X255817619Y-122392819D01*
X255817619Y-122392819D02*
X255912857Y-122392819D01*
X256627143Y-122345200D02*
X256531905Y-122392819D01*
X256531905Y-122392819D02*
X256341429Y-122392819D01*
X256341429Y-122392819D02*
X256246191Y-122345200D01*
X256246191Y-122345200D02*
X256198572Y-122249961D01*
X256198572Y-122249961D02*
X256198572Y-121869009D01*
X256198572Y-121869009D02*
X256246191Y-121773771D01*
X256246191Y-121773771D02*
X256341429Y-121726152D01*
X256341429Y-121726152D02*
X256531905Y-121726152D01*
X256531905Y-121726152D02*
X256627143Y-121773771D01*
X256627143Y-121773771D02*
X256674762Y-121869009D01*
X256674762Y-121869009D02*
X256674762Y-121964247D01*
X256674762Y-121964247D02*
X256198572Y-122059485D01*
X257103334Y-122392819D02*
X257103334Y-121726152D01*
X257103334Y-121916628D02*
X257150953Y-121821390D01*
X257150953Y-121821390D02*
X257198572Y-121773771D01*
X257198572Y-121773771D02*
X257293810Y-121726152D01*
X257293810Y-121726152D02*
X257389048Y-121726152D01*
X258150953Y-121392819D02*
X257960477Y-121392819D01*
X257960477Y-121392819D02*
X257865239Y-121440438D01*
X257865239Y-121440438D02*
X257817620Y-121488057D01*
X257817620Y-121488057D02*
X257722382Y-121630914D01*
X257722382Y-121630914D02*
X257674763Y-121821390D01*
X257674763Y-121821390D02*
X257674763Y-122202342D01*
X257674763Y-122202342D02*
X257722382Y-122297580D01*
X257722382Y-122297580D02*
X257770001Y-122345200D01*
X257770001Y-122345200D02*
X257865239Y-122392819D01*
X257865239Y-122392819D02*
X258055715Y-122392819D01*
X258055715Y-122392819D02*
X258150953Y-122345200D01*
X258150953Y-122345200D02*
X258198572Y-122297580D01*
X258198572Y-122297580D02*
X258246191Y-122202342D01*
X258246191Y-122202342D02*
X258246191Y-121964247D01*
X258246191Y-121964247D02*
X258198572Y-121869009D01*
X258198572Y-121869009D02*
X258150953Y-121821390D01*
X258150953Y-121821390D02*
X258055715Y-121773771D01*
X258055715Y-121773771D02*
X257865239Y-121773771D01*
X257865239Y-121773771D02*
X257770001Y-121821390D01*
X257770001Y-121821390D02*
X257722382Y-121869009D01*
X257722382Y-121869009D02*
X257674763Y-121964247D01*
X237912856Y-122297580D02*
X237865237Y-122345200D01*
X237865237Y-122345200D02*
X237722380Y-122392819D01*
X237722380Y-122392819D02*
X237627142Y-122392819D01*
X237627142Y-122392819D02*
X237484285Y-122345200D01*
X237484285Y-122345200D02*
X237389047Y-122249961D01*
X237389047Y-122249961D02*
X237341428Y-122154723D01*
X237341428Y-122154723D02*
X237293809Y-121964247D01*
X237293809Y-121964247D02*
X237293809Y-121821390D01*
X237293809Y-121821390D02*
X237341428Y-121630914D01*
X237341428Y-121630914D02*
X237389047Y-121535676D01*
X237389047Y-121535676D02*
X237484285Y-121440438D01*
X237484285Y-121440438D02*
X237627142Y-121392819D01*
X237627142Y-121392819D02*
X237722380Y-121392819D01*
X237722380Y-121392819D02*
X237865237Y-121440438D01*
X237865237Y-121440438D02*
X237912856Y-121488057D01*
X238103333Y-122488057D02*
X238865237Y-122488057D01*
X238960476Y-121726152D02*
X239341428Y-121726152D01*
X239103333Y-122392819D02*
X239103333Y-121535676D01*
X239103333Y-121535676D02*
X239150952Y-121440438D01*
X239150952Y-121440438D02*
X239246190Y-121392819D01*
X239246190Y-121392819D02*
X239341428Y-121392819D01*
X239674762Y-122392819D02*
X239674762Y-121726152D01*
X239674762Y-121392819D02*
X239627143Y-121440438D01*
X239627143Y-121440438D02*
X239674762Y-121488057D01*
X239674762Y-121488057D02*
X239722381Y-121440438D01*
X239722381Y-121440438D02*
X239674762Y-121392819D01*
X239674762Y-121392819D02*
X239674762Y-121488057D01*
X240293809Y-122392819D02*
X240198571Y-122345200D01*
X240198571Y-122345200D02*
X240150952Y-122249961D01*
X240150952Y-122249961D02*
X240150952Y-121392819D01*
X240531905Y-121726152D02*
X240912857Y-121726152D01*
X240674762Y-121392819D02*
X240674762Y-122249961D01*
X240674762Y-122249961D02*
X240722381Y-122345200D01*
X240722381Y-122345200D02*
X240817619Y-122392819D01*
X240817619Y-122392819D02*
X240912857Y-122392819D01*
X241627143Y-122345200D02*
X241531905Y-122392819D01*
X241531905Y-122392819D02*
X241341429Y-122392819D01*
X241341429Y-122392819D02*
X241246191Y-122345200D01*
X241246191Y-122345200D02*
X241198572Y-122249961D01*
X241198572Y-122249961D02*
X241198572Y-121869009D01*
X241198572Y-121869009D02*
X241246191Y-121773771D01*
X241246191Y-121773771D02*
X241341429Y-121726152D01*
X241341429Y-121726152D02*
X241531905Y-121726152D01*
X241531905Y-121726152D02*
X241627143Y-121773771D01*
X241627143Y-121773771D02*
X241674762Y-121869009D01*
X241674762Y-121869009D02*
X241674762Y-121964247D01*
X241674762Y-121964247D02*
X241198572Y-122059485D01*
X242103334Y-122392819D02*
X242103334Y-121726152D01*
X242103334Y-121916628D02*
X242150953Y-121821390D01*
X242150953Y-121821390D02*
X242198572Y-121773771D01*
X242198572Y-121773771D02*
X242293810Y-121726152D01*
X242293810Y-121726152D02*
X242389048Y-121726152D01*
X243198572Y-121392819D02*
X242722382Y-121392819D01*
X242722382Y-121392819D02*
X242674763Y-121869009D01*
X242674763Y-121869009D02*
X242722382Y-121821390D01*
X242722382Y-121821390D02*
X242817620Y-121773771D01*
X242817620Y-121773771D02*
X243055715Y-121773771D01*
X243055715Y-121773771D02*
X243150953Y-121821390D01*
X243150953Y-121821390D02*
X243198572Y-121869009D01*
X243198572Y-121869009D02*
X243246191Y-121964247D01*
X243246191Y-121964247D02*
X243246191Y-122202342D01*
X243246191Y-122202342D02*
X243198572Y-122297580D01*
X243198572Y-122297580D02*
X243150953Y-122345200D01*
X243150953Y-122345200D02*
X243055715Y-122392819D01*
X243055715Y-122392819D02*
X242817620Y-122392819D01*
X242817620Y-122392819D02*
X242722382Y-122345200D01*
X242722382Y-122345200D02*
X242674763Y-122297580D01*
X297599666Y-123600819D02*
X297266333Y-123124628D01*
X297028238Y-123600819D02*
X297028238Y-122600819D01*
X297028238Y-122600819D02*
X297409190Y-122600819D01*
X297409190Y-122600819D02*
X297504428Y-122648438D01*
X297504428Y-122648438D02*
X297552047Y-122696057D01*
X297552047Y-122696057D02*
X297599666Y-122791295D01*
X297599666Y-122791295D02*
X297599666Y-122934152D01*
X297599666Y-122934152D02*
X297552047Y-123029390D01*
X297552047Y-123029390D02*
X297504428Y-123077009D01*
X297504428Y-123077009D02*
X297409190Y-123124628D01*
X297409190Y-123124628D02*
X297028238Y-123124628D01*
X298028238Y-123077009D02*
X298361571Y-123077009D01*
X298504428Y-123600819D02*
X298028238Y-123600819D01*
X298028238Y-123600819D02*
X298028238Y-122600819D01*
X298028238Y-122600819D02*
X298504428Y-122600819D01*
X299266333Y-123077009D02*
X298933000Y-123077009D01*
X298933000Y-123600819D02*
X298933000Y-122600819D01*
X298933000Y-122600819D02*
X299409190Y-122600819D01*
X299933000Y-122600819D02*
X299933000Y-122838914D01*
X299694905Y-122743676D02*
X299933000Y-122838914D01*
X299933000Y-122838914D02*
X300171095Y-122743676D01*
X299790143Y-123029390D02*
X299933000Y-122838914D01*
X299933000Y-122838914D02*
X300075857Y-123029390D01*
X300694905Y-122600819D02*
X300694905Y-122838914D01*
X300456810Y-122743676D02*
X300694905Y-122838914D01*
X300694905Y-122838914D02*
X300933000Y-122743676D01*
X300552048Y-123029390D02*
X300694905Y-122838914D01*
X300694905Y-122838914D02*
X300837762Y-123029390D01*
X148716666Y-126079819D02*
X148383333Y-125603628D01*
X148145238Y-126079819D02*
X148145238Y-125079819D01*
X148145238Y-125079819D02*
X148526190Y-125079819D01*
X148526190Y-125079819D02*
X148621428Y-125127438D01*
X148621428Y-125127438D02*
X148669047Y-125175057D01*
X148669047Y-125175057D02*
X148716666Y-125270295D01*
X148716666Y-125270295D02*
X148716666Y-125413152D01*
X148716666Y-125413152D02*
X148669047Y-125508390D01*
X148669047Y-125508390D02*
X148621428Y-125556009D01*
X148621428Y-125556009D02*
X148526190Y-125603628D01*
X148526190Y-125603628D02*
X148145238Y-125603628D01*
X149145238Y-125556009D02*
X149478571Y-125556009D01*
X149621428Y-126079819D02*
X149145238Y-126079819D01*
X149145238Y-126079819D02*
X149145238Y-125079819D01*
X149145238Y-125079819D02*
X149621428Y-125079819D01*
X150383333Y-125556009D02*
X150050000Y-125556009D01*
X150050000Y-126079819D02*
X150050000Y-125079819D01*
X150050000Y-125079819D02*
X150526190Y-125079819D01*
X151050000Y-125079819D02*
X151050000Y-125317914D01*
X150811905Y-125222676D02*
X151050000Y-125317914D01*
X151050000Y-125317914D02*
X151288095Y-125222676D01*
X150907143Y-125508390D02*
X151050000Y-125317914D01*
X151050000Y-125317914D02*
X151192857Y-125508390D01*
X151811905Y-125079819D02*
X151811905Y-125317914D01*
X151573810Y-125222676D02*
X151811905Y-125317914D01*
X151811905Y-125317914D02*
X152050000Y-125222676D01*
X151669048Y-125508390D02*
X151811905Y-125317914D01*
X151811905Y-125317914D02*
X151954762Y-125508390D01*
X291333466Y-126851580D02*
X291285847Y-126899200D01*
X291285847Y-126899200D02*
X291142990Y-126946819D01*
X291142990Y-126946819D02*
X291047752Y-126946819D01*
X291047752Y-126946819D02*
X290904895Y-126899200D01*
X290904895Y-126899200D02*
X290809657Y-126803961D01*
X290809657Y-126803961D02*
X290762038Y-126708723D01*
X290762038Y-126708723D02*
X290714419Y-126518247D01*
X290714419Y-126518247D02*
X290714419Y-126375390D01*
X290714419Y-126375390D02*
X290762038Y-126184914D01*
X290762038Y-126184914D02*
X290809657Y-126089676D01*
X290809657Y-126089676D02*
X290904895Y-125994438D01*
X290904895Y-125994438D02*
X291047752Y-125946819D01*
X291047752Y-125946819D02*
X291142990Y-125946819D01*
X291142990Y-125946819D02*
X291285847Y-125994438D01*
X291285847Y-125994438D02*
X291333466Y-126042057D01*
X291523943Y-127042057D02*
X292285847Y-127042057D01*
X292523943Y-126946819D02*
X292523943Y-125946819D01*
X292523943Y-126327771D02*
X292619181Y-126280152D01*
X292619181Y-126280152D02*
X292809657Y-126280152D01*
X292809657Y-126280152D02*
X292904895Y-126327771D01*
X292904895Y-126327771D02*
X292952514Y-126375390D01*
X292952514Y-126375390D02*
X293000133Y-126470628D01*
X293000133Y-126470628D02*
X293000133Y-126756342D01*
X293000133Y-126756342D02*
X292952514Y-126851580D01*
X292952514Y-126851580D02*
X292904895Y-126899200D01*
X292904895Y-126899200D02*
X292809657Y-126946819D01*
X292809657Y-126946819D02*
X292619181Y-126946819D01*
X292619181Y-126946819D02*
X292523943Y-126899200D01*
X293333467Y-126280152D02*
X293571562Y-126946819D01*
X293809657Y-126280152D02*
X293571562Y-126946819D01*
X293571562Y-126946819D02*
X293476324Y-127184914D01*
X293476324Y-127184914D02*
X293428705Y-127232533D01*
X293428705Y-127232533D02*
X293333467Y-127280152D01*
X294190610Y-126280152D02*
X294190610Y-127280152D01*
X294190610Y-126327771D02*
X294285848Y-126280152D01*
X294285848Y-126280152D02*
X294476324Y-126280152D01*
X294476324Y-126280152D02*
X294571562Y-126327771D01*
X294571562Y-126327771D02*
X294619181Y-126375390D01*
X294619181Y-126375390D02*
X294666800Y-126470628D01*
X294666800Y-126470628D02*
X294666800Y-126756342D01*
X294666800Y-126756342D02*
X294619181Y-126851580D01*
X294619181Y-126851580D02*
X294571562Y-126899200D01*
X294571562Y-126899200D02*
X294476324Y-126946819D01*
X294476324Y-126946819D02*
X294285848Y-126946819D01*
X294285848Y-126946819D02*
X294190610Y-126899200D01*
X295619181Y-126946819D02*
X295047753Y-126946819D01*
X295333467Y-126946819D02*
X295333467Y-125946819D01*
X295333467Y-125946819D02*
X295238229Y-126089676D01*
X295238229Y-126089676D02*
X295142991Y-126184914D01*
X295142991Y-126184914D02*
X295047753Y-126232533D01*
X297216666Y-91079819D02*
X296883333Y-90603628D01*
X296645238Y-91079819D02*
X296645238Y-90079819D01*
X296645238Y-90079819D02*
X297026190Y-90079819D01*
X297026190Y-90079819D02*
X297121428Y-90127438D01*
X297121428Y-90127438D02*
X297169047Y-90175057D01*
X297169047Y-90175057D02*
X297216666Y-90270295D01*
X297216666Y-90270295D02*
X297216666Y-90413152D01*
X297216666Y-90413152D02*
X297169047Y-90508390D01*
X297169047Y-90508390D02*
X297121428Y-90556009D01*
X297121428Y-90556009D02*
X297026190Y-90603628D01*
X297026190Y-90603628D02*
X296645238Y-90603628D01*
X297645238Y-90556009D02*
X297978571Y-90556009D01*
X298121428Y-91079819D02*
X297645238Y-91079819D01*
X297645238Y-91079819D02*
X297645238Y-90079819D01*
X297645238Y-90079819D02*
X298121428Y-90079819D01*
X298883333Y-90556009D02*
X298550000Y-90556009D01*
X298550000Y-91079819D02*
X298550000Y-90079819D01*
X298550000Y-90079819D02*
X299026190Y-90079819D01*
X299550000Y-90079819D02*
X299550000Y-90317914D01*
X299311905Y-90222676D02*
X299550000Y-90317914D01*
X299550000Y-90317914D02*
X299788095Y-90222676D01*
X299407143Y-90508390D02*
X299550000Y-90317914D01*
X299550000Y-90317914D02*
X299692857Y-90508390D01*
X300311905Y-90079819D02*
X300311905Y-90317914D01*
X300073810Y-90222676D02*
X300311905Y-90317914D01*
X300311905Y-90317914D02*
X300550000Y-90222676D01*
X300169048Y-90508390D02*
X300311905Y-90317914D01*
X300311905Y-90317914D02*
X300454762Y-90508390D01*
D12*
X255844318Y-116857762D02*
X254574318Y-116857762D01*
X255723365Y-115527285D02*
X255783842Y-115587761D01*
X255783842Y-115587761D02*
X255844318Y-115769190D01*
X255844318Y-115769190D02*
X255844318Y-115890142D01*
X255844318Y-115890142D02*
X255783842Y-116071571D01*
X255783842Y-116071571D02*
X255662889Y-116192523D01*
X255662889Y-116192523D02*
X255541937Y-116253000D01*
X255541937Y-116253000D02*
X255300032Y-116313476D01*
X255300032Y-116313476D02*
X255118603Y-116313476D01*
X255118603Y-116313476D02*
X254876699Y-116253000D01*
X254876699Y-116253000D02*
X254755746Y-116192523D01*
X254755746Y-116192523D02*
X254634794Y-116071571D01*
X254634794Y-116071571D02*
X254574318Y-115890142D01*
X254574318Y-115890142D02*
X254574318Y-115769190D01*
X254574318Y-115769190D02*
X254634794Y-115587761D01*
X254634794Y-115587761D02*
X254695270Y-115527285D01*
X254574318Y-114438714D02*
X254574318Y-114680619D01*
X254574318Y-114680619D02*
X254634794Y-114801571D01*
X254634794Y-114801571D02*
X254695270Y-114862047D01*
X254695270Y-114862047D02*
X254876699Y-114983000D01*
X254876699Y-114983000D02*
X255118603Y-115043476D01*
X255118603Y-115043476D02*
X255602413Y-115043476D01*
X255602413Y-115043476D02*
X255723365Y-114983000D01*
X255723365Y-114983000D02*
X255783842Y-114922523D01*
X255783842Y-114922523D02*
X255844318Y-114801571D01*
X255844318Y-114801571D02*
X255844318Y-114559666D01*
X255844318Y-114559666D02*
X255783842Y-114438714D01*
X255783842Y-114438714D02*
X255723365Y-114378238D01*
X255723365Y-114378238D02*
X255602413Y-114317761D01*
X255602413Y-114317761D02*
X255300032Y-114317761D01*
X255300032Y-114317761D02*
X255179080Y-114378238D01*
X255179080Y-114378238D02*
X255118603Y-114438714D01*
X255118603Y-114438714D02*
X255058127Y-114559666D01*
X255058127Y-114559666D02*
X255058127Y-114801571D01*
X255058127Y-114801571D02*
X255118603Y-114922523D01*
X255118603Y-114922523D02*
X255179080Y-114983000D01*
X255179080Y-114983000D02*
X255300032Y-115043476D01*
D11*
X148716666Y-91079819D02*
X148383333Y-90603628D01*
X148145238Y-91079819D02*
X148145238Y-90079819D01*
X148145238Y-90079819D02*
X148526190Y-90079819D01*
X148526190Y-90079819D02*
X148621428Y-90127438D01*
X148621428Y-90127438D02*
X148669047Y-90175057D01*
X148669047Y-90175057D02*
X148716666Y-90270295D01*
X148716666Y-90270295D02*
X148716666Y-90413152D01*
X148716666Y-90413152D02*
X148669047Y-90508390D01*
X148669047Y-90508390D02*
X148621428Y-90556009D01*
X148621428Y-90556009D02*
X148526190Y-90603628D01*
X148526190Y-90603628D02*
X148145238Y-90603628D01*
X149145238Y-90556009D02*
X149478571Y-90556009D01*
X149621428Y-91079819D02*
X149145238Y-91079819D01*
X149145238Y-91079819D02*
X149145238Y-90079819D01*
X149145238Y-90079819D02*
X149621428Y-90079819D01*
X150383333Y-90556009D02*
X150050000Y-90556009D01*
X150050000Y-91079819D02*
X150050000Y-90079819D01*
X150050000Y-90079819D02*
X150526190Y-90079819D01*
X151050000Y-90079819D02*
X151050000Y-90317914D01*
X150811905Y-90222676D02*
X151050000Y-90317914D01*
X151050000Y-90317914D02*
X151288095Y-90222676D01*
X150907143Y-90508390D02*
X151050000Y-90317914D01*
X151050000Y-90317914D02*
X151192857Y-90508390D01*
X151811905Y-90079819D02*
X151811905Y-90317914D01*
X151573810Y-90222676D02*
X151811905Y-90317914D01*
X151811905Y-90317914D02*
X152050000Y-90222676D01*
X151669048Y-90508390D02*
X151811905Y-90317914D01*
X151811905Y-90317914D02*
X151954762Y-90508390D01*
X151836666Y-119739580D02*
X151789047Y-119787200D01*
X151789047Y-119787200D02*
X151646190Y-119834819D01*
X151646190Y-119834819D02*
X151550952Y-119834819D01*
X151550952Y-119834819D02*
X151408095Y-119787200D01*
X151408095Y-119787200D02*
X151312857Y-119691961D01*
X151312857Y-119691961D02*
X151265238Y-119596723D01*
X151265238Y-119596723D02*
X151217619Y-119406247D01*
X151217619Y-119406247D02*
X151217619Y-119263390D01*
X151217619Y-119263390D02*
X151265238Y-119072914D01*
X151265238Y-119072914D02*
X151312857Y-118977676D01*
X151312857Y-118977676D02*
X151408095Y-118882438D01*
X151408095Y-118882438D02*
X151550952Y-118834819D01*
X151550952Y-118834819D02*
X151646190Y-118834819D01*
X151646190Y-118834819D02*
X151789047Y-118882438D01*
X151789047Y-118882438D02*
X151836666Y-118930057D01*
X152027143Y-119930057D02*
X152789047Y-119930057D01*
X153027143Y-119834819D02*
X153027143Y-118834819D01*
X153027143Y-119215771D02*
X153122381Y-119168152D01*
X153122381Y-119168152D02*
X153312857Y-119168152D01*
X153312857Y-119168152D02*
X153408095Y-119215771D01*
X153408095Y-119215771D02*
X153455714Y-119263390D01*
X153455714Y-119263390D02*
X153503333Y-119358628D01*
X153503333Y-119358628D02*
X153503333Y-119644342D01*
X153503333Y-119644342D02*
X153455714Y-119739580D01*
X153455714Y-119739580D02*
X153408095Y-119787200D01*
X153408095Y-119787200D02*
X153312857Y-119834819D01*
X153312857Y-119834819D02*
X153122381Y-119834819D01*
X153122381Y-119834819D02*
X153027143Y-119787200D01*
X153836667Y-119168152D02*
X154074762Y-119834819D01*
X154312857Y-119168152D02*
X154074762Y-119834819D01*
X154074762Y-119834819D02*
X153979524Y-120072914D01*
X153979524Y-120072914D02*
X153931905Y-120120533D01*
X153931905Y-120120533D02*
X153836667Y-120168152D01*
X154693810Y-119168152D02*
X154693810Y-120168152D01*
X154693810Y-119215771D02*
X154789048Y-119168152D01*
X154789048Y-119168152D02*
X154979524Y-119168152D01*
X154979524Y-119168152D02*
X155074762Y-119215771D01*
X155074762Y-119215771D02*
X155122381Y-119263390D01*
X155122381Y-119263390D02*
X155170000Y-119358628D01*
X155170000Y-119358628D02*
X155170000Y-119644342D01*
X155170000Y-119644342D02*
X155122381Y-119739580D01*
X155122381Y-119739580D02*
X155074762Y-119787200D01*
X155074762Y-119787200D02*
X154979524Y-119834819D01*
X154979524Y-119834819D02*
X154789048Y-119834819D01*
X154789048Y-119834819D02*
X154693810Y-119787200D01*
X156074762Y-118834819D02*
X155598572Y-118834819D01*
X155598572Y-118834819D02*
X155550953Y-119311009D01*
X155550953Y-119311009D02*
X155598572Y-119263390D01*
X155598572Y-119263390D02*
X155693810Y-119215771D01*
X155693810Y-119215771D02*
X155931905Y-119215771D01*
X155931905Y-119215771D02*
X156027143Y-119263390D01*
X156027143Y-119263390D02*
X156074762Y-119311009D01*
X156074762Y-119311009D02*
X156122381Y-119406247D01*
X156122381Y-119406247D02*
X156122381Y-119644342D01*
X156122381Y-119644342D02*
X156074762Y-119739580D01*
X156074762Y-119739580D02*
X156027143Y-119787200D01*
X156027143Y-119787200D02*
X155931905Y-119834819D01*
X155931905Y-119834819D02*
X155693810Y-119834819D01*
X155693810Y-119834819D02*
X155598572Y-119787200D01*
X155598572Y-119787200D02*
X155550953Y-119739580D01*
D12*
X161136318Y-116800262D02*
X159866318Y-116800262D01*
X161015365Y-115469785D02*
X161075842Y-115530261D01*
X161075842Y-115530261D02*
X161136318Y-115711690D01*
X161136318Y-115711690D02*
X161136318Y-115832642D01*
X161136318Y-115832642D02*
X161075842Y-116014071D01*
X161075842Y-116014071D02*
X160954889Y-116135023D01*
X160954889Y-116135023D02*
X160833937Y-116195500D01*
X160833937Y-116195500D02*
X160592032Y-116255976D01*
X160592032Y-116255976D02*
X160410603Y-116255976D01*
X160410603Y-116255976D02*
X160168699Y-116195500D01*
X160168699Y-116195500D02*
X160047746Y-116135023D01*
X160047746Y-116135023D02*
X159926794Y-116014071D01*
X159926794Y-116014071D02*
X159866318Y-115832642D01*
X159866318Y-115832642D02*
X159866318Y-115711690D01*
X159866318Y-115711690D02*
X159926794Y-115530261D01*
X159926794Y-115530261D02*
X159987270Y-115469785D01*
X161136318Y-114260261D02*
X161136318Y-114985976D01*
X161136318Y-114623119D02*
X159866318Y-114623119D01*
X159866318Y-114623119D02*
X160047746Y-114744071D01*
X160047746Y-114744071D02*
X160168699Y-114865023D01*
X160168699Y-114865023D02*
X160229175Y-114985976D01*
D13*
%TO.C,C_byp2*%
X277950600Y-123262848D02*
X277950600Y-123785352D01*
X276480600Y-123262848D02*
X276480600Y-123785352D01*
D14*
%TO.C,IC2*%
X174062000Y-113110500D02*
X177062000Y-113110500D01*
X174062000Y-118010500D02*
X177062000Y-118010500D01*
D15*
X179762000Y-117465500D02*
X179762000Y-117465500D01*
X179762000Y-117560500D02*
X179762000Y-117560500D01*
X179762000Y-117465500D02*
G75*
G02*
X179762000Y-117560500I0J-47500D01*
G01*
X179762000Y-117560500D02*
G75*
G02*
X179762000Y-117465500I0J47500D01*
G01*
D13*
%TO.C,C_byp6*%
X167413000Y-119394248D02*
X167413000Y-119916752D01*
X168883000Y-119394248D02*
X168883000Y-119916752D01*
%TO.C,C_filter1*%
X160300748Y-122825500D02*
X160823252Y-122825500D01*
X160300748Y-124295500D02*
X160823252Y-124295500D01*
D14*
%TO.C,IC4*%
X204062000Y-113110500D02*
X207062000Y-113110500D01*
X204062000Y-118010500D02*
X207062000Y-118010500D01*
D15*
X209762000Y-117465500D02*
X209762000Y-117465500D01*
X209762000Y-117560500D02*
X209762000Y-117560500D01*
X209762000Y-117465500D02*
G75*
G02*
X209762000Y-117560500I0J-47500D01*
G01*
X209762000Y-117560500D02*
G75*
G02*
X209762000Y-117465500I0J47500D01*
G01*
D16*
%TO.C,J2*%
X233720000Y-90638000D02*
X295520000Y-90638000D01*
X233720000Y-109138000D02*
X233720000Y-90638000D01*
X295520000Y-90638000D02*
X295520000Y-109138000D01*
X295520000Y-109138000D02*
X233720000Y-109138000D01*
D14*
X240220000Y-90038000D02*
G75*
G02*
X240020000Y-90038000I-100000J0D01*
G01*
X240020000Y-90038000D02*
G75*
G02*
X240220000Y-90038000I100000J0D01*
G01*
D13*
%TO.C,C_byp8*%
X198147000Y-122166748D02*
X198147000Y-122689252D01*
X199617000Y-122166748D02*
X199617000Y-122689252D01*
%TO.C,C_filter8*%
X285008748Y-122883000D02*
X285531252Y-122883000D01*
X285008748Y-124353000D02*
X285531252Y-124353000D01*
%TO.C,C_filter7*%
X270008748Y-122883000D02*
X270531252Y-122883000D01*
X270008748Y-124353000D02*
X270531252Y-124353000D01*
D14*
%TO.C,IC7*%
X268770000Y-113168000D02*
X271770000Y-113168000D01*
X268770000Y-118068000D02*
X271770000Y-118068000D01*
D15*
X274470000Y-117523000D02*
X274470000Y-117523000D01*
X274470000Y-117618000D02*
X274470000Y-117618000D01*
X274470000Y-117523000D02*
G75*
G02*
X274470000Y-117618000I0J-47500D01*
G01*
X274470000Y-117618000D02*
G75*
G02*
X274470000Y-117523000I0J47500D01*
G01*
D13*
%TO.C,J3*%
X148945000Y-142530000D02*
X148945000Y-134850000D01*
X151605000Y-134850000D02*
X148945000Y-134850000D01*
X151605000Y-142530000D02*
X148945000Y-142530000D01*
X151605000Y-142530000D02*
X151605000Y-134850000D01*
X151605000Y-143800000D02*
X151605000Y-145130000D01*
X151605000Y-145130000D02*
X150275000Y-145130000D01*
%TO.C,C_filter4*%
X205300748Y-122825500D02*
X205823252Y-122825500D01*
X205300748Y-124295500D02*
X205823252Y-124295500D01*
%TO.C,C_byp3*%
X259107000Y-123944748D02*
X259107000Y-124467252D01*
X260577000Y-123944748D02*
X260577000Y-124467252D01*
D16*
%TO.C,J1*%
X154012000Y-90580500D02*
X215812000Y-90580500D01*
X154012000Y-109080500D02*
X154012000Y-90580500D01*
X215812000Y-90580500D02*
X215812000Y-109080500D01*
X215812000Y-109080500D02*
X154012000Y-109080500D01*
D14*
X160512000Y-89980500D02*
G75*
G02*
X160312000Y-89980500I-100000J0D01*
G01*
X160312000Y-89980500D02*
G75*
G02*
X160512000Y-89980500I100000J0D01*
G01*
D13*
%TO.C,C_filter3*%
X190300748Y-122825500D02*
X190823252Y-122825500D01*
X190300748Y-124295500D02*
X190823252Y-124295500D01*
D14*
%TO.C,IC3*%
X189062000Y-113110500D02*
X192062000Y-113110500D01*
X189062000Y-118010500D02*
X192062000Y-118010500D01*
D15*
X194762000Y-117465500D02*
X194762000Y-117465500D01*
X194762000Y-117560500D02*
X194762000Y-117560500D01*
X194762000Y-117465500D02*
G75*
G02*
X194762000Y-117560500I0J-47500D01*
G01*
X194762000Y-117560500D02*
G75*
G02*
X194762000Y-117465500I0J47500D01*
G01*
D13*
%TO.C,J5*%
X297220000Y-134495000D02*
X298550000Y-134495000D01*
X297220000Y-135825000D02*
X297220000Y-134495000D01*
X297220000Y-137095000D02*
X297220000Y-144775000D01*
X297220000Y-137095000D02*
X299880000Y-137095000D01*
X297220000Y-144775000D02*
X299880000Y-144775000D01*
X299880000Y-137095000D02*
X299880000Y-144775000D01*
D14*
%TO.C,IC8*%
X283770000Y-113168000D02*
X286770000Y-113168000D01*
X283770000Y-118068000D02*
X286770000Y-118068000D01*
D15*
X289470000Y-117523000D02*
X289470000Y-117523000D01*
X289470000Y-117618000D02*
X289470000Y-117618000D01*
X289470000Y-117523000D02*
G75*
G02*
X289470000Y-117618000I0J-47500D01*
G01*
X289470000Y-117618000D02*
G75*
G02*
X289470000Y-117523000I0J47500D01*
G01*
D14*
%TO.C,IC5*%
X238770000Y-113168000D02*
X241770000Y-113168000D01*
X238770000Y-118068000D02*
X241770000Y-118068000D01*
D15*
X244470000Y-117523000D02*
X244470000Y-117523000D01*
X244470000Y-117618000D02*
X244470000Y-117618000D01*
X244470000Y-117523000D02*
G75*
G02*
X244470000Y-117618000I0J-47500D01*
G01*
X244470000Y-117618000D02*
G75*
G02*
X244470000Y-117523000I0J47500D01*
G01*
D13*
%TO.C,C_filter2*%
X175300748Y-122825500D02*
X175823252Y-122825500D01*
X175300748Y-124295500D02*
X175823252Y-124295500D01*
%TO.C,C_byp7*%
X184177000Y-122674748D02*
X184177000Y-123197252D01*
X185647000Y-122674748D02*
X185647000Y-123197252D01*
D17*
%TO.C,J4*%
X213232998Y-129963001D02*
X213232998Y-148716999D01*
X213232998Y-148716999D02*
X234467001Y-148716999D01*
X234467001Y-129963001D02*
X213232998Y-129963001D01*
X234467001Y-148716999D02*
X234467001Y-129963001D01*
D18*
X212978999Y-131690000D02*
G75*
G02*
X212216999Y-131690000I-381000J0D01*
G01*
X212216999Y-131690000D02*
G75*
G02*
X212978999Y-131690000I381000J0D01*
G01*
D13*
%TO.C,C_byp4*%
X245645000Y-121404748D02*
X245645000Y-121927252D01*
X247115000Y-121404748D02*
X247115000Y-121927252D01*
%TO.C,C_filter6*%
X255008748Y-122883000D02*
X255531252Y-122883000D01*
X255008748Y-124353000D02*
X255531252Y-124353000D01*
%TO.C,C_filter5*%
X240008748Y-122883000D02*
X240531252Y-122883000D01*
X240008748Y-124353000D02*
X240531252Y-124353000D01*
%TO.C,REF\u002A\u002A*%
X297603000Y-119106000D02*
X297603000Y-116506000D01*
X297603000Y-121706000D02*
X297603000Y-120376000D01*
X298933000Y-121706000D02*
X297603000Y-121706000D01*
X300263000Y-116506000D02*
X297603000Y-116506000D01*
X300263000Y-119106000D02*
X297603000Y-119106000D01*
X300263000Y-119106000D02*
X300263000Y-116506000D01*
%TO.C,C_byp1*%
X292682600Y-123335148D02*
X292682600Y-123857652D01*
X291212600Y-123335148D02*
X291212600Y-123857652D01*
D14*
%TO.C,IC6*%
X253770000Y-113168000D02*
X256770000Y-113168000D01*
X253770000Y-118068000D02*
X256770000Y-118068000D01*
D15*
X259470000Y-117523000D02*
X259470000Y-117523000D01*
X259470000Y-117618000D02*
X259470000Y-117618000D01*
X259470000Y-117523000D02*
G75*
G02*
X259470000Y-117618000I0J-47500D01*
G01*
X259470000Y-117618000D02*
G75*
G02*
X259470000Y-117523000I0J47500D01*
G01*
D13*
%TO.C,C_byp5*%
X152681000Y-122166748D02*
X152681000Y-122689252D01*
X154151000Y-122166748D02*
X154151000Y-122689252D01*
D14*
%TO.C,IC1*%
X159062000Y-113110500D02*
X162062000Y-113110500D01*
X159062000Y-118010500D02*
X162062000Y-118010500D01*
D15*
X164762000Y-117465500D02*
X164762000Y-117465500D01*
X164762000Y-117560500D02*
X164762000Y-117560500D01*
X164762000Y-117465500D02*
G75*
G02*
X164762000Y-117560500I0J-47500D01*
G01*
X164762000Y-117560500D02*
G75*
G02*
X164762000Y-117465500I0J47500D01*
G01*
%TD*%
M02*
