%TF.GenerationSoftware,KiCad,Pcbnew,8.0.3*%
%TF.CreationDate,2024-11-15T02:32:19-08:00*%
%TF.ProjectId,Power_Distribution,506f7765-725f-4446-9973-747269627574,rev?*%
%TF.SameCoordinates,Original*%
%TF.FileFunction,Soldermask,Top*%
%TF.FilePolarity,Negative*%
%FSLAX46Y46*%
G04 Gerber Fmt 4.6, Leading zero omitted, Abs format (unit mm)*
G04 Created by KiCad (PCBNEW 8.0.3) date 2024-11-15 02:32:19*
%MOMM*%
%LPD*%
G01*
G04 APERTURE LIST*
G04 Aperture macros list*
%AMRoundRect*
0 Rectangle with rounded corners*
0 $1 Rounding radius*
0 $2 $3 $4 $5 $6 $7 $8 $9 X,Y pos of 4 corners*
0 Add a 4 corners polygon primitive as box body*
4,1,4,$2,$3,$4,$5,$6,$7,$8,$9,$2,$3,0*
0 Add four circle primitives for the rounded corners*
1,1,$1+$1,$2,$3*
1,1,$1+$1,$4,$5*
1,1,$1+$1,$6,$7*
1,1,$1+$1,$8,$9*
0 Add four rect primitives between the rounded corners*
20,1,$1+$1,$2,$3,$4,$5,0*
20,1,$1+$1,$4,$5,$6,$7,0*
20,1,$1+$1,$6,$7,$8,$9,0*
20,1,$1+$1,$8,$9,$2,$3,0*%
G04 Aperture macros list end*
%ADD10RoundRect,0.250000X-0.475000X0.337500X-0.475000X-0.337500X0.475000X-0.337500X0.475000X0.337500X0*%
%ADD11R,1.750000X0.650000*%
%ADD12RoundRect,0.250000X-0.337500X-0.475000X0.337500X-0.475000X0.337500X0.475000X-0.337500X0.475000X0*%
%ADD13RoundRect,0.102000X-1.558000X-1.558000X1.558000X-1.558000X1.558000X1.558000X-1.558000X1.558000X0*%
%ADD14C,3.320000*%
%ADD15R,1.700000X1.700000*%
%ADD16O,1.700000X1.700000*%
%ADD17C,2.600000*%
%ADD18C,2.235200*%
%ADD19C,4.400000*%
G04 APERTURE END LIST*
D10*
%TO.C,C_byp2*%
X277215600Y-122486600D03*
X277215600Y-124561600D03*
%TD*%
D11*
%TO.C,IC2*%
X178362000Y-117465500D03*
X178362000Y-116195500D03*
X178362000Y-114925500D03*
X178362000Y-113655500D03*
X172762000Y-113655500D03*
X172762000Y-114925500D03*
X172762000Y-116195500D03*
X172762000Y-117465500D03*
%TD*%
D10*
%TO.C,C_byp6*%
X168148000Y-118618000D03*
X168148000Y-120693000D03*
%TD*%
D12*
%TO.C,C_filter1*%
X159524500Y-123560500D03*
X161599500Y-123560500D03*
%TD*%
D11*
%TO.C,IC4*%
X208362000Y-117465500D03*
X208362000Y-116195500D03*
X208362000Y-114925500D03*
X208362000Y-113655500D03*
X202762000Y-113655500D03*
X202762000Y-114925500D03*
X202762000Y-116195500D03*
X202762000Y-117465500D03*
%TD*%
D13*
%TO.C,J2*%
X240270000Y-93218000D03*
D14*
X247770000Y-107218000D03*
X255270000Y-93218000D03*
X262770000Y-107218000D03*
X270270000Y-93218000D03*
X277770000Y-107218000D03*
X285270000Y-93218000D03*
X292770000Y-107218000D03*
%TD*%
D10*
%TO.C,C_byp8*%
X198882000Y-121390500D03*
X198882000Y-123465500D03*
%TD*%
D12*
%TO.C,C_filter8*%
X284232500Y-123618000D03*
X286307500Y-123618000D03*
%TD*%
%TO.C,C_filter7*%
X269232500Y-123618000D03*
X271307500Y-123618000D03*
%TD*%
D11*
%TO.C,IC7*%
X273070000Y-117523000D03*
X273070000Y-116253000D03*
X273070000Y-114983000D03*
X273070000Y-113713000D03*
X267470000Y-113713000D03*
X267470000Y-114983000D03*
X267470000Y-116253000D03*
X267470000Y-117523000D03*
%TD*%
D15*
%TO.C,J3*%
X150275000Y-143800000D03*
D16*
X150275000Y-141260000D03*
X150275000Y-138720000D03*
X150275000Y-136180000D03*
%TD*%
D12*
%TO.C,C_filter4*%
X204524500Y-123560500D03*
X206599500Y-123560500D03*
%TD*%
D10*
%TO.C,C_byp3*%
X259842000Y-123168500D03*
X259842000Y-125243500D03*
%TD*%
D13*
%TO.C,J1*%
X160562000Y-93160500D03*
D14*
X168062000Y-107160500D03*
X175562000Y-93160500D03*
X183062000Y-107160500D03*
X190562000Y-93160500D03*
X198062000Y-107160500D03*
X205562000Y-93160500D03*
X213062000Y-107160500D03*
%TD*%
D12*
%TO.C,C_filter3*%
X189524500Y-123560500D03*
X191599500Y-123560500D03*
%TD*%
D11*
%TO.C,IC3*%
X193362000Y-117465500D03*
X193362000Y-116195500D03*
X193362000Y-114925500D03*
X193362000Y-113655500D03*
X187762000Y-113655500D03*
X187762000Y-114925500D03*
X187762000Y-116195500D03*
X187762000Y-117465500D03*
%TD*%
D15*
%TO.C,J5*%
X298550000Y-135825000D03*
D16*
X298550000Y-138365000D03*
X298550000Y-140905000D03*
X298550000Y-143445000D03*
%TD*%
D11*
%TO.C,IC8*%
X288070000Y-117523000D03*
X288070000Y-116253000D03*
X288070000Y-114983000D03*
X288070000Y-113713000D03*
X282470000Y-113713000D03*
X282470000Y-114983000D03*
X282470000Y-116253000D03*
X282470000Y-117523000D03*
%TD*%
%TO.C,IC5*%
X243070000Y-117523000D03*
X243070000Y-116253000D03*
X243070000Y-114983000D03*
X243070000Y-113713000D03*
X237470000Y-113713000D03*
X237470000Y-114983000D03*
X237470000Y-116253000D03*
X237470000Y-117523000D03*
%TD*%
D17*
%TO.C,*%
X150050000Y-128825000D03*
%TD*%
D12*
%TO.C,C_filter2*%
X174524500Y-123560500D03*
X176599500Y-123560500D03*
%TD*%
D10*
%TO.C,C_byp7*%
X184912000Y-121898500D03*
X184912000Y-123973500D03*
%TD*%
D18*
%TO.C,J4*%
X218440000Y-131690000D03*
X218440000Y-141850000D03*
X228600000Y-131690000D03*
X228600000Y-141850000D03*
%TD*%
D17*
%TO.C,REF\u002A\u002A*%
X298550000Y-128825000D03*
D19*
X298550000Y-128825000D03*
%TD*%
D10*
%TO.C,C_byp4*%
X246380000Y-120628500D03*
X246380000Y-122703500D03*
%TD*%
D12*
%TO.C,C_filter6*%
X254232500Y-123618000D03*
X256307500Y-123618000D03*
%TD*%
%TO.C,C_filter5*%
X239232500Y-123618000D03*
X241307500Y-123618000D03*
%TD*%
D15*
%TO.C,REF\u002A\u002A*%
X298933000Y-120376000D03*
D16*
X298933000Y-117836000D03*
%TD*%
D17*
%TO.C,REF\u002A\u002A*%
X150050000Y-128825000D03*
D19*
X150050000Y-128825000D03*
%TD*%
D10*
%TO.C,C_byp1*%
X291947600Y-122558900D03*
X291947600Y-124633900D03*
%TD*%
D17*
%TO.C,REF\u002A\u002A*%
X298550000Y-93825000D03*
D19*
X298550000Y-93825000D03*
%TD*%
D11*
%TO.C,IC6*%
X258070000Y-117523000D03*
X258070000Y-116253000D03*
X258070000Y-114983000D03*
X258070000Y-113713000D03*
X252470000Y-113713000D03*
X252470000Y-114983000D03*
X252470000Y-116253000D03*
X252470000Y-117523000D03*
%TD*%
D17*
%TO.C,REF\u002A\u002A*%
X150050000Y-93825000D03*
D19*
X150050000Y-93825000D03*
%TD*%
D10*
%TO.C,C_byp5*%
X153416000Y-121390500D03*
X153416000Y-123465500D03*
%TD*%
D11*
%TO.C,IC1*%
X163362000Y-117465500D03*
X163362000Y-116195500D03*
X163362000Y-114925500D03*
X163362000Y-113655500D03*
X157762000Y-113655500D03*
X157762000Y-114925500D03*
X157762000Y-116195500D03*
X157762000Y-117465500D03*
%TD*%
M02*
