%TF.GenerationSoftware,KiCad,Pcbnew,8.0.3*%
%TF.CreationDate,2024-11-15T02:32:15-08:00*%
%TF.ProjectId,Power_Distribution,506f7765-725f-4446-9973-747269627574,rev?*%
%TF.SameCoordinates,Original*%
%TF.FileFunction,Drillmap*%
%TF.FilePolarity,Positive*%
%FSLAX45Y45*%
G04 Gerber Fmt 4.5, Leading zero omitted, Abs format (unit mm)*
G04 Created by KiCad (PCBNEW 8.0.3) date 2024-11-15 02:32:15*
%MOMM*%
%LPD*%
G01*
G04 APERTURE LIST*
%ADD10C,0.100000*%
%ADD11C,0.200000*%
G04 APERTURE END LIST*
D10*
X14568154Y-8906776D02*
X30240624Y-8906776D01*
X30240624Y-14977646D01*
X14568154Y-14977646D01*
X14568154Y-8906776D01*
D11*
X14823931Y-15294130D02*
X14823931Y-15094130D01*
X14823931Y-15094130D02*
X14871550Y-15094130D01*
X14871550Y-15094130D02*
X14900121Y-15103654D01*
X14900121Y-15103654D02*
X14919169Y-15122701D01*
X14919169Y-15122701D02*
X14928693Y-15141749D01*
X14928693Y-15141749D02*
X14938216Y-15179844D01*
X14938216Y-15179844D02*
X14938216Y-15208416D01*
X14938216Y-15208416D02*
X14928693Y-15246511D01*
X14928693Y-15246511D02*
X14919169Y-15265558D01*
X14919169Y-15265558D02*
X14900121Y-15284606D01*
X14900121Y-15284606D02*
X14871550Y-15294130D01*
X14871550Y-15294130D02*
X14823931Y-15294130D01*
X15023931Y-15294130D02*
X15023931Y-15160796D01*
X15023931Y-15198892D02*
X15033454Y-15179844D01*
X15033454Y-15179844D02*
X15042978Y-15170320D01*
X15042978Y-15170320D02*
X15062026Y-15160796D01*
X15062026Y-15160796D02*
X15081074Y-15160796D01*
X15147740Y-15294130D02*
X15147740Y-15160796D01*
X15147740Y-15094130D02*
X15138216Y-15103654D01*
X15138216Y-15103654D02*
X15147740Y-15113177D01*
X15147740Y-15113177D02*
X15157264Y-15103654D01*
X15157264Y-15103654D02*
X15147740Y-15094130D01*
X15147740Y-15094130D02*
X15147740Y-15113177D01*
X15271550Y-15294130D02*
X15252502Y-15284606D01*
X15252502Y-15284606D02*
X15242978Y-15265558D01*
X15242978Y-15265558D02*
X15242978Y-15094130D01*
X15376312Y-15294130D02*
X15357264Y-15284606D01*
X15357264Y-15284606D02*
X15347740Y-15265558D01*
X15347740Y-15265558D02*
X15347740Y-15094130D01*
X15604883Y-15294130D02*
X15604883Y-15094130D01*
X15604883Y-15094130D02*
X15671550Y-15236987D01*
X15671550Y-15236987D02*
X15738216Y-15094130D01*
X15738216Y-15094130D02*
X15738216Y-15294130D01*
X15919169Y-15294130D02*
X15919169Y-15189368D01*
X15919169Y-15189368D02*
X15909645Y-15170320D01*
X15909645Y-15170320D02*
X15890597Y-15160796D01*
X15890597Y-15160796D02*
X15852502Y-15160796D01*
X15852502Y-15160796D02*
X15833454Y-15170320D01*
X15919169Y-15284606D02*
X15900121Y-15294130D01*
X15900121Y-15294130D02*
X15852502Y-15294130D01*
X15852502Y-15294130D02*
X15833454Y-15284606D01*
X15833454Y-15284606D02*
X15823931Y-15265558D01*
X15823931Y-15265558D02*
X15823931Y-15246511D01*
X15823931Y-15246511D02*
X15833454Y-15227463D01*
X15833454Y-15227463D02*
X15852502Y-15217939D01*
X15852502Y-15217939D02*
X15900121Y-15217939D01*
X15900121Y-15217939D02*
X15919169Y-15208416D01*
X16014407Y-15160796D02*
X16014407Y-15360796D01*
X16014407Y-15170320D02*
X16033454Y-15160796D01*
X16033454Y-15160796D02*
X16071550Y-15160796D01*
X16071550Y-15160796D02*
X16090597Y-15170320D01*
X16090597Y-15170320D02*
X16100121Y-15179844D01*
X16100121Y-15179844D02*
X16109645Y-15198892D01*
X16109645Y-15198892D02*
X16109645Y-15256035D01*
X16109645Y-15256035D02*
X16100121Y-15275082D01*
X16100121Y-15275082D02*
X16090597Y-15284606D01*
X16090597Y-15284606D02*
X16071550Y-15294130D01*
X16071550Y-15294130D02*
X16033454Y-15294130D01*
X16033454Y-15294130D02*
X16014407Y-15284606D01*
X16195359Y-15275082D02*
X16204883Y-15284606D01*
X16204883Y-15284606D02*
X16195359Y-15294130D01*
X16195359Y-15294130D02*
X16185835Y-15284606D01*
X16185835Y-15284606D02*
X16195359Y-15275082D01*
X16195359Y-15275082D02*
X16195359Y-15294130D01*
X16195359Y-15170320D02*
X16204883Y-15179844D01*
X16204883Y-15179844D02*
X16195359Y-15189368D01*
X16195359Y-15189368D02*
X16185835Y-15179844D01*
X16185835Y-15179844D02*
X16195359Y-15170320D01*
X16195359Y-15170320D02*
X16195359Y-15189368D01*
M02*
