%TF.GenerationSoftware,KiCad,Pcbnew,8.0.3*%
%TF.CreationDate,2024-11-15T02:32:19-08:00*%
%TF.ProjectId,Power_Distribution,506f7765-725f-4446-9973-747269627574,rev?*%
%TF.SameCoordinates,Original*%
%TF.FileFunction,Soldermask,Bot*%
%TF.FilePolarity,Negative*%
%FSLAX46Y46*%
G04 Gerber Fmt 4.6, Leading zero omitted, Abs format (unit mm)*
G04 Created by KiCad (PCBNEW 8.0.3) date 2024-11-15 02:32:19*
%MOMM*%
%LPD*%
G01*
G04 APERTURE LIST*
G04 Aperture macros list*
%AMRoundRect*
0 Rectangle with rounded corners*
0 $1 Rounding radius*
0 $2 $3 $4 $5 $6 $7 $8 $9 X,Y pos of 4 corners*
0 Add a 4 corners polygon primitive as box body*
4,1,4,$2,$3,$4,$5,$6,$7,$8,$9,$2,$3,0*
0 Add four circle primitives for the rounded corners*
1,1,$1+$1,$2,$3*
1,1,$1+$1,$4,$5*
1,1,$1+$1,$6,$7*
1,1,$1+$1,$8,$9*
0 Add four rect primitives between the rounded corners*
20,1,$1+$1,$2,$3,$4,$5,0*
20,1,$1+$1,$4,$5,$6,$7,0*
20,1,$1+$1,$6,$7,$8,$9,0*
20,1,$1+$1,$8,$9,$2,$3,0*%
G04 Aperture macros list end*
%ADD10RoundRect,0.102000X-1.558000X-1.558000X1.558000X-1.558000X1.558000X1.558000X-1.558000X1.558000X0*%
%ADD11C,3.320000*%
%ADD12R,1.700000X1.700000*%
%ADD13O,1.700000X1.700000*%
%ADD14C,2.600000*%
%ADD15C,2.235200*%
%ADD16C,4.400000*%
G04 APERTURE END LIST*
D10*
%TO.C,J2*%
X240270000Y-93218000D03*
D11*
X247770000Y-107218000D03*
X255270000Y-93218000D03*
X262770000Y-107218000D03*
X270270000Y-93218000D03*
X277770000Y-107218000D03*
X285270000Y-93218000D03*
X292770000Y-107218000D03*
%TD*%
D12*
%TO.C,J3*%
X150275000Y-143800000D03*
D13*
X150275000Y-141260000D03*
X150275000Y-138720000D03*
X150275000Y-136180000D03*
%TD*%
D10*
%TO.C,J1*%
X160562000Y-93160500D03*
D11*
X168062000Y-107160500D03*
X175562000Y-93160500D03*
X183062000Y-107160500D03*
X190562000Y-93160500D03*
X198062000Y-107160500D03*
X205562000Y-93160500D03*
X213062000Y-107160500D03*
%TD*%
D12*
%TO.C,J5*%
X298550000Y-135825000D03*
D13*
X298550000Y-138365000D03*
X298550000Y-140905000D03*
X298550000Y-143445000D03*
%TD*%
D14*
%TO.C,*%
X150050000Y-128825000D03*
%TD*%
D15*
%TO.C,J4*%
X218440000Y-131690000D03*
X218440000Y-141850000D03*
X228600000Y-131690000D03*
X228600000Y-141850000D03*
%TD*%
D14*
%TO.C,REF\u002A\u002A*%
X298550000Y-128825000D03*
D16*
X298550000Y-128825000D03*
%TD*%
D12*
%TO.C,REF\u002A\u002A*%
X298933000Y-120376000D03*
D13*
X298933000Y-117836000D03*
%TD*%
D14*
%TO.C,REF\u002A\u002A*%
X150050000Y-128825000D03*
D16*
X150050000Y-128825000D03*
%TD*%
%TO.C,*%
X298550000Y-128825000D03*
%TD*%
D14*
%TO.C,REF\u002A\u002A*%
X298550000Y-93825000D03*
D16*
X298550000Y-93825000D03*
%TD*%
D14*
%TO.C,REF\u002A\u002A*%
X150050000Y-93825000D03*
D16*
X150050000Y-93825000D03*
%TD*%
%TO.C,*%
X150050000Y-128825000D03*
%TD*%
M02*
