%TF.GenerationSoftware,KiCad,Pcbnew,7.0.2-0*%
%TF.CreationDate,2024-06-30T17:20:26-07:00*%
%TF.ProjectId,Robosub_Power,526f626f-7375-4625-9f50-6f7765722e6b,rev?*%
%TF.SameCoordinates,Original*%
%TF.FileFunction,Paste,Top*%
%TF.FilePolarity,Positive*%
%FSLAX46Y46*%
G04 Gerber Fmt 4.6, Leading zero omitted, Abs format (unit mm)*
G04 Created by KiCad (PCBNEW 7.0.2-0) date 2024-06-30 17:20:26*
%MOMM*%
%LPD*%
G01*
G04 APERTURE LIST*
G04 Aperture macros list*
%AMRoundRect*
0 Rectangle with rounded corners*
0 $1 Rounding radius*
0 $2 $3 $4 $5 $6 $7 $8 $9 X,Y pos of 4 corners*
0 Add a 4 corners polygon primitive as box body*
4,1,4,$2,$3,$4,$5,$6,$7,$8,$9,$2,$3,0*
0 Add four circle primitives for the rounded corners*
1,1,$1+$1,$2,$3*
1,1,$1+$1,$4,$5*
1,1,$1+$1,$6,$7*
1,1,$1+$1,$8,$9*
0 Add four rect primitives between the rounded corners*
20,1,$1+$1,$2,$3,$4,$5,0*
20,1,$1+$1,$4,$5,$6,$7,0*
20,1,$1+$1,$6,$7,$8,$9,0*
20,1,$1+$1,$8,$9,$2,$3,0*%
G04 Aperture macros list end*
%ADD10C,0.010000*%
%ADD11RoundRect,0.250000X0.375000X0.625000X-0.375000X0.625000X-0.375000X-0.625000X0.375000X-0.625000X0*%
%ADD12R,0.220000X0.760000*%
%ADD13RoundRect,0.381000X0.381000X-0.762000X0.381000X0.762000X-0.381000X0.762000X-0.381000X-0.762000X0*%
%ADD14RoundRect,0.250000X-0.450000X0.350000X-0.450000X-0.350000X0.450000X-0.350000X0.450000X0.350000X0*%
%ADD15R,2.057400X5.511800*%
%ADD16R,0.558800X1.320800*%
%ADD17RoundRect,0.250000X0.350000X0.450000X-0.350000X0.450000X-0.350000X-0.450000X0.350000X-0.450000X0*%
%ADD18RoundRect,0.250000X-0.537500X-1.450000X0.537500X-1.450000X0.537500X1.450000X-0.537500X1.450000X0*%
%ADD19RoundRect,0.042000X-0.258000X0.943000X-0.258000X-0.943000X0.258000X-0.943000X0.258000X0.943000X0*%
%ADD20RoundRect,0.250000X-0.650000X1.000000X-0.650000X-1.000000X0.650000X-1.000000X0.650000X1.000000X0*%
%ADD21RoundRect,0.040600X0.249400X-0.564400X0.249400X0.564400X-0.249400X0.564400X-0.249400X-0.564400X0*%
%ADD22RoundRect,0.250000X0.450000X-0.350000X0.450000X0.350000X-0.450000X0.350000X-0.450000X-0.350000X0*%
%ADD23RoundRect,0.249999X-0.450001X-1.425001X0.450001X-1.425001X0.450001X1.425001X-0.450001X1.425001X0*%
%ADD24R,1.397000X1.219200*%
%ADD25RoundRect,0.250000X-0.337500X-0.475000X0.337500X-0.475000X0.337500X0.475000X-0.337500X0.475000X0*%
%ADD26R,4.445000X8.128000*%
%ADD27R,1.143000X0.990600*%
%ADD28R,5.207000X3.098800*%
%ADD29RoundRect,0.250000X-0.475000X0.337500X-0.475000X-0.337500X0.475000X-0.337500X0.475000X0.337500X0*%
G04 APERTURE END LIST*
%TO.C,U1*%
D10*
X230775000Y-145200000D02*
X229825000Y-145200000D01*
X229825000Y-144630000D01*
X230775000Y-144630000D01*
X230775000Y-145200000D01*
G36*
X230775000Y-145200000D02*
G01*
X229825000Y-145200000D01*
X229825000Y-144630000D01*
X230775000Y-144630000D01*
X230775000Y-145200000D01*
G37*
%TO.C,U4*%
G36*
X240900000Y-175304008D02*
G01*
X240500000Y-175304008D01*
X240500000Y-174553997D01*
X240900000Y-174553997D01*
X240900000Y-175304008D01*
G37*
G36*
X242170000Y-175304008D02*
G01*
X241770000Y-175304008D01*
X241770000Y-174553997D01*
X242170000Y-174553997D01*
X242170000Y-175304008D01*
G37*
G36*
X243440000Y-175304008D02*
G01*
X243040000Y-175304008D01*
X243040000Y-174553997D01*
X243440000Y-174553997D01*
X243440000Y-175304008D01*
G37*
G36*
X244710000Y-175304008D02*
G01*
X244310000Y-175304008D01*
X244310000Y-174553997D01*
X244710000Y-174553997D01*
X244710000Y-175304008D01*
G37*
G36*
X240949999Y-169495005D02*
G01*
X240450001Y-169495005D01*
X240450001Y-168744994D01*
X240949999Y-168744994D01*
X240949999Y-169495005D01*
G37*
G36*
X242219999Y-169495005D02*
G01*
X241720001Y-169495005D01*
X241720001Y-168744994D01*
X242219999Y-168744994D01*
X242219999Y-169495005D01*
G37*
G36*
X243489999Y-169495005D02*
G01*
X242990001Y-169495005D01*
X242990001Y-168744994D01*
X243489999Y-168744994D01*
X243489999Y-169495005D01*
G37*
G36*
X244759999Y-169495005D02*
G01*
X244260001Y-169495005D01*
X244260001Y-168744994D01*
X244759999Y-168744994D01*
X244759999Y-169495005D01*
G37*
%TO.C,U6*%
G36*
X282390000Y-175604008D02*
G01*
X281990000Y-175604008D01*
X281990000Y-174853997D01*
X282390000Y-174853997D01*
X282390000Y-175604008D01*
G37*
G36*
X283660000Y-175604008D02*
G01*
X283260000Y-175604008D01*
X283260000Y-174853997D01*
X283660000Y-174853997D01*
X283660000Y-175604008D01*
G37*
G36*
X284930000Y-175604008D02*
G01*
X284530000Y-175604008D01*
X284530000Y-174853997D01*
X284930000Y-174853997D01*
X284930000Y-175604008D01*
G37*
G36*
X286200000Y-175604008D02*
G01*
X285800000Y-175604008D01*
X285800000Y-174853997D01*
X286200000Y-174853997D01*
X286200000Y-175604008D01*
G37*
G36*
X282439999Y-169795005D02*
G01*
X281940001Y-169795005D01*
X281940001Y-169044994D01*
X282439999Y-169044994D01*
X282439999Y-169795005D01*
G37*
G36*
X283709999Y-169795005D02*
G01*
X283210001Y-169795005D01*
X283210001Y-169044994D01*
X283709999Y-169044994D01*
X283709999Y-169795005D01*
G37*
G36*
X284979999Y-169795005D02*
G01*
X284480001Y-169795005D01*
X284480001Y-169044994D01*
X284979999Y-169044994D01*
X284979999Y-169795005D01*
G37*
G36*
X286249999Y-169795005D02*
G01*
X285750001Y-169795005D01*
X285750001Y-169044994D01*
X286249999Y-169044994D01*
X286249999Y-169795005D01*
G37*
%TO.C,U5*%
G36*
X261595000Y-175479507D02*
G01*
X261195000Y-175479507D01*
X261195000Y-174729496D01*
X261595000Y-174729496D01*
X261595000Y-175479507D01*
G37*
G36*
X262865000Y-175479507D02*
G01*
X262465000Y-175479507D01*
X262465000Y-174729496D01*
X262865000Y-174729496D01*
X262865000Y-175479507D01*
G37*
G36*
X264135000Y-175479507D02*
G01*
X263735000Y-175479507D01*
X263735000Y-174729496D01*
X264135000Y-174729496D01*
X264135000Y-175479507D01*
G37*
G36*
X265405000Y-175479507D02*
G01*
X265005000Y-175479507D01*
X265005000Y-174729496D01*
X265405000Y-174729496D01*
X265405000Y-175479507D01*
G37*
G36*
X261644999Y-169670504D02*
G01*
X261145001Y-169670504D01*
X261145001Y-168920493D01*
X261644999Y-168920493D01*
X261644999Y-169670504D01*
G37*
G36*
X262914999Y-169670504D02*
G01*
X262415001Y-169670504D01*
X262415001Y-168920493D01*
X262914999Y-168920493D01*
X262914999Y-169670504D01*
G37*
G36*
X264184999Y-169670504D02*
G01*
X263685001Y-169670504D01*
X263685001Y-168920493D01*
X264184999Y-168920493D01*
X264184999Y-169670504D01*
G37*
G36*
X265454999Y-169670504D02*
G01*
X264955001Y-169670504D01*
X264955001Y-168920493D01*
X265454999Y-168920493D01*
X265454999Y-169670504D01*
G37*
%TD*%
D11*
%TO.C,D3*%
X267500000Y-147600000D03*
X264700000Y-147600000D03*
%TD*%
D12*
%TO.C,U1*%
X229500000Y-145900000D03*
X229900000Y-145900000D03*
X230300000Y-145900000D03*
X230700000Y-145900000D03*
X231100000Y-145900000D03*
X231100000Y-143930000D03*
X230700000Y-143930000D03*
X230300000Y-143930000D03*
X229900000Y-143930000D03*
X229500000Y-143930000D03*
%TD*%
D11*
%TO.C,D2*%
X267300000Y-141200000D03*
X264500000Y-141200000D03*
%TD*%
D13*
%TO.C,U4*%
X241182600Y-172075301D03*
X244027400Y-172075301D03*
%TD*%
D14*
%TO.C,R6*%
X300500000Y-166800000D03*
X300500000Y-168800000D03*
%TD*%
D15*
%TO.C,L1*%
X294819300Y-161300000D03*
X290780700Y-161300000D03*
%TD*%
D16*
%TO.C,U7*%
X252847500Y-140816000D03*
X254752500Y-140816000D03*
X253800000Y-138784000D03*
%TD*%
D17*
%TO.C,R11*%
X259400000Y-147500000D03*
X257400000Y-147500000D03*
%TD*%
D18*
%TO.C,C3*%
X290762500Y-155900000D03*
X295037500Y-155900000D03*
%TD*%
D19*
%TO.C,U3*%
X303105000Y-158625000D03*
X301835000Y-158625000D03*
X300565000Y-158625000D03*
X299295000Y-158625000D03*
X299295000Y-163575000D03*
X300565000Y-163575000D03*
X301835000Y-163575000D03*
X303105000Y-163575000D03*
%TD*%
D17*
%TO.C,R7*%
X259500000Y-137500000D03*
X257500000Y-137500000D03*
%TD*%
D20*
%TO.C,D1*%
X303200000Y-172000000D03*
X303200000Y-176000000D03*
%TD*%
D21*
%TO.C,U2*%
X244450000Y-144755000D03*
X245400000Y-144755000D03*
X246350000Y-144755000D03*
X246350000Y-142245000D03*
X245400000Y-142245000D03*
X244450000Y-142245000D03*
%TD*%
D22*
%TO.C,R2*%
X234000000Y-146700000D03*
X234000000Y-144700000D03*
%TD*%
D13*
%TO.C,U6*%
X282672600Y-172375301D03*
X285517400Y-172375301D03*
%TD*%
D23*
%TO.C,R9*%
X289750000Y-169200000D03*
X295850000Y-169200000D03*
%TD*%
D24*
%TO.C,C5*%
X313791800Y-189800000D03*
X318008200Y-189800000D03*
%TD*%
D25*
%TO.C,C2*%
X245662500Y-140000000D03*
X247737500Y-140000000D03*
%TD*%
D26*
%TO.C,WSLP59312L000FEA_2*%
X235513400Y-154400000D03*
X224286600Y-154400000D03*
%TD*%
D13*
%TO.C,U5*%
X261877600Y-172250800D03*
X264722400Y-172250800D03*
%TD*%
D17*
%TO.C,R10*%
X259500000Y-140500000D03*
X257500000Y-140500000D03*
%TD*%
%TO.C,R8*%
X259400000Y-144600000D03*
X257400000Y-144600000D03*
%TD*%
D27*
%TO.C,CR1*%
X315900000Y-176940002D03*
X315900000Y-175100000D03*
D28*
X311912200Y-176020001D03*
%TD*%
D14*
%TO.C,R3*%
X242300000Y-142500000D03*
X242300000Y-144500000D03*
%TD*%
D16*
%TO.C,U8*%
X252847500Y-147932000D03*
X254752500Y-147932000D03*
X253800000Y-145900000D03*
%TD*%
D18*
%TO.C,C4*%
X290762500Y-151800000D03*
X295037500Y-151800000D03*
%TD*%
D24*
%TO.C,C6*%
X214408200Y-176100000D03*
X210191800Y-176100000D03*
%TD*%
D29*
%TO.C,C1*%
X226700000Y-142362500D03*
X226700000Y-144437500D03*
%TD*%
D26*
%TO.C,WSLP59312L000FEA_1*%
X235513400Y-163400000D03*
X224286600Y-163400000D03*
%TD*%
D14*
%TO.C,R1*%
X234000000Y-140700000D03*
X234000000Y-142700000D03*
%TD*%
D22*
%TO.C,R5*%
X299200000Y-155200000D03*
X299200000Y-153200000D03*
%TD*%
D14*
%TO.C,R4*%
X303100000Y-150700000D03*
X303100000Y-152700000D03*
%TD*%
M02*
