%TF.GenerationSoftware,KiCad,Pcbnew,8.0.3*%
%TF.CreationDate,2025-06-04T14:18:53-07:00*%
%TF.ProjectId,Power_Distribution,506f7765-725f-4446-9973-747269627574,rev?*%
%TF.SameCoordinates,Original*%
%TF.FileFunction,Soldermask,Bot*%
%TF.FilePolarity,Negative*%
%FSLAX46Y46*%
G04 Gerber Fmt 4.6, Leading zero omitted, Abs format (unit mm)*
G04 Created by KiCad (PCBNEW 8.0.3) date 2025-06-04 14:18:53*
%MOMM*%
%LPD*%
G01*
G04 APERTURE LIST*
G04 Aperture macros list*
%AMRoundRect*
0 Rectangle with rounded corners*
0 $1 Rounding radius*
0 $2 $3 $4 $5 $6 $7 $8 $9 X,Y pos of 4 corners*
0 Add a 4 corners polygon primitive as box body*
4,1,4,$2,$3,$4,$5,$6,$7,$8,$9,$2,$3,0*
0 Add four circle primitives for the rounded corners*
1,1,$1+$1,$2,$3*
1,1,$1+$1,$4,$5*
1,1,$1+$1,$6,$7*
1,1,$1+$1,$8,$9*
0 Add four rect primitives between the rounded corners*
20,1,$1+$1,$2,$3,$4,$5,0*
20,1,$1+$1,$4,$5,$6,$7,0*
20,1,$1+$1,$6,$7,$8,$9,0*
20,1,$1+$1,$8,$9,$2,$3,0*%
G04 Aperture macros list end*
%ADD10R,0.900000X2.000000*%
%ADD11RoundRect,1.025000X1.025000X1.025000X-1.025000X1.025000X-1.025000X-1.025000X1.025000X-1.025000X0*%
%ADD12C,4.100000*%
%ADD13R,2.300000X1.300000*%
%ADD14RoundRect,0.102000X1.500000X1.500000X-1.500000X1.500000X-1.500000X-1.500000X1.500000X-1.500000X0*%
%ADD15C,3.204000*%
%ADD16RoundRect,0.102000X-0.754000X-0.754000X0.754000X-0.754000X0.754000X0.754000X-0.754000X0.754000X0*%
%ADD17C,1.712000*%
%ADD18C,3.200000*%
%ADD19C,1.066800*%
%ADD20C,1.574800*%
%ADD21R,1.700000X1.700000*%
%ADD22O,1.700000X1.700000*%
%ADD23RoundRect,0.250000X0.550000X0.250000X-0.550000X0.250000X-0.550000X-0.250000X0.550000X-0.250000X0*%
G04 APERTURE END LIST*
D10*
%TO.C,J4*%
X198520000Y-101380000D03*
X185020000Y-101380000D03*
D11*
X195370000Y-95380000D03*
D12*
X188170000Y-95380000D03*
D13*
X191770000Y-99030000D03*
%TD*%
D14*
%TO.C,J6*%
X206396000Y-75492000D03*
D15*
X198896000Y-62992000D03*
X191396000Y-75492000D03*
X183896000Y-62992000D03*
%TD*%
D16*
%TO.C,J18*%
X139190000Y-108750000D03*
D17*
X139190000Y-106210000D03*
X141730000Y-108750000D03*
X141730000Y-106210000D03*
X144270000Y-108750000D03*
X144270000Y-106210000D03*
X146810000Y-108750000D03*
X146810000Y-106210000D03*
X149350000Y-108750000D03*
X149350000Y-106210000D03*
X151890000Y-108750000D03*
X151890000Y-106210000D03*
X154430000Y-108750000D03*
X154430000Y-106210000D03*
X156970000Y-108750000D03*
X156970000Y-106210000D03*
X159510000Y-108750000D03*
X159510000Y-106210000D03*
X162050000Y-108750000D03*
X162050000Y-106210000D03*
%TD*%
D18*
%TO.C,H2*%
X97840000Y-107540000D03*
%TD*%
D19*
%TO.C,J15*%
X161059998Y-94449999D03*
X167060002Y-94449999D03*
D20*
X164060000Y-98389999D03*
X164060000Y-95390000D03*
%TD*%
D19*
%TO.C,J10*%
X88740000Y-89549998D03*
X88740000Y-95550002D03*
D20*
X84800000Y-92550000D03*
X87799999Y-92550000D03*
%TD*%
D14*
%TO.C,J2*%
X141612000Y-75492000D03*
D15*
X134112000Y-62992000D03*
X126612000Y-75492000D03*
X119112000Y-62992000D03*
%TD*%
D19*
%TO.C,J17*%
X203679999Y-94380002D03*
X203679999Y-88379998D03*
D20*
X207619999Y-91380000D03*
X204620000Y-91380000D03*
%TD*%
D19*
%TO.C,J16*%
X203679999Y-102510002D03*
X203679999Y-96509998D03*
D20*
X207619999Y-99510000D03*
X204620000Y-99510000D03*
%TD*%
D21*
%TO.C,J9*%
X105290000Y-95632000D03*
D22*
X107830000Y-95632000D03*
X110370000Y-95632000D03*
X112910000Y-95632000D03*
X115450000Y-95632000D03*
X117990000Y-95632000D03*
X120530000Y-95632000D03*
X123070000Y-95632000D03*
%TD*%
D19*
%TO.C,J14*%
X152284398Y-94459999D03*
X158284402Y-94459999D03*
D20*
X155284400Y-98399999D03*
X155284400Y-95400000D03*
%TD*%
D18*
%TO.C,H3*%
X129840000Y-107540000D03*
%TD*%
D14*
%TO.C,J1*%
X173985600Y-75492000D03*
D15*
X166485600Y-62992000D03*
X158985600Y-75492000D03*
X151485600Y-62992000D03*
%TD*%
D19*
%TO.C,J11*%
X88740000Y-97589998D03*
X88740000Y-103590002D03*
D20*
X84800000Y-100590000D03*
X87799999Y-100590000D03*
%TD*%
D18*
%TO.C,H4*%
X177840000Y-107540000D03*
%TD*%
D19*
%TO.C,J13*%
X143508798Y-94459999D03*
X149508802Y-94459999D03*
D20*
X146508800Y-98399999D03*
X146508800Y-95400000D03*
%TD*%
D19*
%TO.C,J12*%
X134733198Y-94459999D03*
X140733202Y-94459999D03*
D20*
X137733200Y-98399999D03*
X137733200Y-95400000D03*
%TD*%
D14*
%TO.C,J7*%
X109252400Y-75339600D03*
D15*
X101752400Y-62839600D03*
X94252400Y-75339600D03*
X86752400Y-62839600D03*
%TD*%
D21*
%TO.C,J3*%
X105290000Y-108332000D03*
D22*
X107830000Y-108332000D03*
X110370000Y-108332000D03*
X112910000Y-108332000D03*
X115450000Y-108332000D03*
X117990000Y-108332000D03*
X120530000Y-108332000D03*
X123070000Y-108332000D03*
%TD*%
D23*
%TO.C,LED8*%
X142391112Y-54150000D03*
X142391112Y-57450000D03*
X137391112Y-54150000D03*
X137391112Y-57450000D03*
%TD*%
%TO.C,LED9*%
X129394724Y-54150000D03*
X129394724Y-57450000D03*
X124394724Y-54150000D03*
X124394724Y-57450000D03*
%TD*%
%TO.C,LED3*%
X207373052Y-54150000D03*
X207373052Y-57450000D03*
X202373052Y-54150000D03*
X202373052Y-57450000D03*
%TD*%
%TO.C,LED4*%
X194376664Y-54150000D03*
X194376664Y-57450000D03*
X189376664Y-54150000D03*
X189376664Y-57450000D03*
%TD*%
%TO.C,LED6*%
X168383888Y-54150000D03*
X168383888Y-57450000D03*
X163383888Y-54150000D03*
X163383888Y-57450000D03*
%TD*%
%TO.C,LED5*%
X181380276Y-54150000D03*
X181380276Y-57450000D03*
X176380276Y-54150000D03*
X176380276Y-57450000D03*
%TD*%
%TO.C,LED11*%
X103401948Y-54150000D03*
X103401948Y-57450000D03*
X98401948Y-54150000D03*
X98401948Y-57450000D03*
%TD*%
%TO.C,LED12*%
X90405552Y-54150000D03*
X90405552Y-57450000D03*
X85405552Y-54150000D03*
X85405552Y-57450000D03*
%TD*%
%TO.C,LED10*%
X116398336Y-54150000D03*
X116398336Y-57450000D03*
X111398336Y-54150000D03*
X111398336Y-57450000D03*
%TD*%
%TO.C,LED7*%
X155387500Y-54150000D03*
X155387500Y-57450000D03*
X150387500Y-54150000D03*
X150387500Y-57450000D03*
%TD*%
M02*
