%TF.GenerationSoftware,KiCad,Pcbnew,8.0.3*%
%TF.CreationDate,2025-06-04T14:18:53-07:00*%
%TF.ProjectId,Power_Distribution,506f7765-725f-4446-9973-747269627574,rev?*%
%TF.SameCoordinates,Original*%
%TF.FileFunction,Copper,L1,Top*%
%TF.FilePolarity,Positive*%
%FSLAX46Y46*%
G04 Gerber Fmt 4.6, Leading zero omitted, Abs format (unit mm)*
G04 Created by KiCad (PCBNEW 8.0.3) date 2025-06-04 14:18:53*
%MOMM*%
%LPD*%
G01*
G04 APERTURE LIST*
G04 Aperture macros list*
%AMRoundRect*
0 Rectangle with rounded corners*
0 $1 Rounding radius*
0 $2 $3 $4 $5 $6 $7 $8 $9 X,Y pos of 4 corners*
0 Add a 4 corners polygon primitive as box body*
4,1,4,$2,$3,$4,$5,$6,$7,$8,$9,$2,$3,0*
0 Add four circle primitives for the rounded corners*
1,1,$1+$1,$2,$3*
1,1,$1+$1,$4,$5*
1,1,$1+$1,$6,$7*
1,1,$1+$1,$8,$9*
0 Add four rect primitives between the rounded corners*
20,1,$1+$1,$2,$3,$4,$5,0*
20,1,$1+$1,$4,$5,$6,$7,0*
20,1,$1+$1,$6,$7,$8,$9,0*
20,1,$1+$1,$8,$9,$2,$3,0*%
%AMFreePoly0*
4,1,19,0.500000,-0.750000,0.000000,-0.750000,0.000000,-0.744911,-0.071157,-0.744911,-0.207708,-0.704816,-0.327430,-0.627875,-0.420627,-0.520320,-0.479746,-0.390866,-0.500000,-0.250000,-0.500000,0.250000,-0.479746,0.390866,-0.420627,0.520320,-0.327430,0.627875,-0.207708,0.704816,-0.071157,0.744911,0.000000,0.744911,0.000000,0.750000,0.500000,0.750000,0.500000,-0.750000,0.500000,-0.750000,
$1*%
%AMFreePoly1*
4,1,19,0.000000,0.744911,0.071157,0.744911,0.207708,0.704816,0.327430,0.627875,0.420627,0.520320,0.479746,0.390866,0.500000,0.250000,0.500000,-0.250000,0.479746,-0.390866,0.420627,-0.520320,0.327430,-0.627875,0.207708,-0.704816,0.071157,-0.744911,0.000000,-0.744911,0.000000,-0.750000,-0.500000,-0.750000,-0.500000,0.750000,0.000000,0.750000,0.000000,0.744911,0.000000,0.744911,
$1*%
%AMFreePoly2*
4,1,19,0.550000,-0.750000,0.000000,-0.750000,0.000000,-0.744911,-0.071157,-0.744911,-0.207708,-0.704816,-0.327430,-0.627875,-0.420627,-0.520320,-0.479746,-0.390866,-0.500000,-0.250000,-0.500000,0.250000,-0.479746,0.390866,-0.420627,0.520320,-0.327430,0.627875,-0.207708,0.704816,-0.071157,0.744911,0.000000,0.744911,0.000000,0.750000,0.550000,0.750000,0.550000,-0.750000,0.550000,-0.750000,
$1*%
%AMFreePoly3*
4,1,19,0.000000,0.744911,0.071157,0.744911,0.207708,0.704816,0.327430,0.627875,0.420627,0.520320,0.479746,0.390866,0.500000,0.250000,0.500000,-0.250000,0.479746,-0.390866,0.420627,-0.520320,0.327430,-0.627875,0.207708,-0.704816,0.071157,-0.744911,0.000000,-0.744911,0.000000,-0.750000,-0.550000,-0.750000,-0.550000,0.750000,0.000000,0.750000,0.000000,0.744911,0.000000,0.744911,
$1*%
G04 Aperture macros list end*
%TA.AperFunction,EtchedComponent*%
%ADD10C,0.000000*%
%TD*%
%TA.AperFunction,SMDPad,CuDef*%
%ADD11R,1.750000X0.650000*%
%TD*%
%TA.AperFunction,SMDPad,CuDef*%
%ADD12RoundRect,0.250000X0.337500X0.475000X-0.337500X0.475000X-0.337500X-0.475000X0.337500X-0.475000X0*%
%TD*%
%TA.AperFunction,SMDPad,CuDef*%
%ADD13RoundRect,0.250000X-0.450000X0.350000X-0.450000X-0.350000X0.450000X-0.350000X0.450000X0.350000X0*%
%TD*%
%TA.AperFunction,SMDPad,CuDef*%
%ADD14FreePoly0,90.000000*%
%TD*%
%TA.AperFunction,SMDPad,CuDef*%
%ADD15FreePoly1,90.000000*%
%TD*%
%TA.AperFunction,ComponentPad*%
%ADD16R,0.900000X2.000000*%
%TD*%
%TA.AperFunction,ComponentPad*%
%ADD17RoundRect,1.025000X1.025000X1.025000X-1.025000X1.025000X-1.025000X-1.025000X1.025000X-1.025000X0*%
%TD*%
%TA.AperFunction,ComponentPad*%
%ADD18C,4.100000*%
%TD*%
%TA.AperFunction,ComponentPad*%
%ADD19R,2.300000X1.300000*%
%TD*%
%TA.AperFunction,SMDPad,CuDef*%
%ADD20RoundRect,0.100000X-0.712500X-0.100000X0.712500X-0.100000X0.712500X0.100000X-0.712500X0.100000X0*%
%TD*%
%TA.AperFunction,ComponentPad*%
%ADD21R,3.000000X3.000000*%
%TD*%
%TA.AperFunction,ComponentPad*%
%ADD22C,3.000000*%
%TD*%
%TA.AperFunction,ComponentPad*%
%ADD23R,1.508000X1.508000*%
%TD*%
%TA.AperFunction,ComponentPad*%
%ADD24C,1.508000*%
%TD*%
%TA.AperFunction,SMDPad,CuDef*%
%ADD25RoundRect,0.250000X-0.475000X0.337500X-0.475000X-0.337500X0.475000X-0.337500X0.475000X0.337500X0*%
%TD*%
%TA.AperFunction,ComponentPad*%
%ADD26C,1.574800*%
%TD*%
%TA.AperFunction,SMDPad,CuDef*%
%ADD27RoundRect,0.250000X0.250000X-0.550000X0.250000X0.550000X-0.250000X0.550000X-0.250000X-0.550000X0*%
%TD*%
%TA.AperFunction,SMDPad,CuDef*%
%ADD28R,0.711200X0.457200*%
%TD*%
%TA.AperFunction,ComponentPad*%
%ADD29R,1.700000X1.700000*%
%TD*%
%TA.AperFunction,ComponentPad*%
%ADD30O,1.700000X1.700000*%
%TD*%
%TA.AperFunction,SMDPad,CuDef*%
%ADD31RoundRect,0.250000X0.350000X0.450000X-0.350000X0.450000X-0.350000X-0.450000X0.350000X-0.450000X0*%
%TD*%
%TA.AperFunction,SMDPad,CuDef*%
%ADD32FreePoly2,0.000000*%
%TD*%
%TA.AperFunction,SMDPad,CuDef*%
%ADD33R,1.000000X1.500000*%
%TD*%
%TA.AperFunction,SMDPad,CuDef*%
%ADD34FreePoly3,0.000000*%
%TD*%
%TA.AperFunction,ViaPad*%
%ADD35C,0.800000*%
%TD*%
%TA.AperFunction,ViaPad*%
%ADD36C,0.900000*%
%TD*%
%TA.AperFunction,Conductor*%
%ADD37C,0.304800*%
%TD*%
%TA.AperFunction,Conductor*%
%ADD38C,2.500000*%
%TD*%
%TA.AperFunction,Conductor*%
%ADD39C,7.500000*%
%TD*%
%TA.AperFunction,Conductor*%
%ADD40C,7.000000*%
%TD*%
G04 APERTURE END LIST*
D10*
%TA.AperFunction,EtchedComponent*%
%TO.C,JP2*%
G36*
X122890000Y-104020000D02*
G01*
X122490000Y-104020000D01*
X122490000Y-103520000D01*
X122890000Y-103520000D01*
X122890000Y-104020000D01*
G37*
%TD.AperFunction*%
%TA.AperFunction,EtchedComponent*%
G36*
X123690000Y-104020000D02*
G01*
X123290000Y-104020000D01*
X123290000Y-103520000D01*
X123690000Y-103520000D01*
X123690000Y-104020000D01*
G37*
%TD.AperFunction*%
%TA.AperFunction,EtchedComponent*%
%TO.C,JP1*%
G36*
X119060000Y-104000000D02*
G01*
X118660000Y-104000000D01*
X118660000Y-103500000D01*
X119060000Y-103500000D01*
X119060000Y-104000000D01*
G37*
%TD.AperFunction*%
%TA.AperFunction,EtchedComponent*%
G36*
X119860000Y-104000000D02*
G01*
X119460000Y-104000000D01*
X119460000Y-103500000D01*
X119860000Y-103500000D01*
X119860000Y-104000000D01*
G37*
%TD.AperFunction*%
%TA.AperFunction,EtchedComponent*%
%TO.C,JP3*%
G36*
X127950000Y-99180000D02*
G01*
X127450000Y-99180000D01*
X127450000Y-98780000D01*
X127950000Y-98780000D01*
X127950000Y-99180000D01*
G37*
%TD.AperFunction*%
%TA.AperFunction,EtchedComponent*%
G36*
X127950000Y-99980000D02*
G01*
X127450000Y-99980000D01*
X127450000Y-99580000D01*
X127950000Y-99580000D01*
X127950000Y-99980000D01*
G37*
%TD.AperFunction*%
%TD*%
D11*
%TO.P,IC5,1,IP+_1*%
%TO.N,+BATT*%
X141669200Y-84429600D03*
%TO.P,IC5,2,IP+_2*%
X141669200Y-83159600D03*
%TO.P,IC5,3,IP-_1*%
%TO.N,PWR5*%
X141669200Y-81889600D03*
%TO.P,IC5,4,IP-_2*%
X141669200Y-80619600D03*
%TO.P,IC5,5,GND*%
%TO.N,GND*%
X136069200Y-80619600D03*
%TO.P,IC5,6,FILTER*%
%TO.N,Net-(IC5-FILTER)*%
X136069200Y-81889600D03*
%TO.P,IC5,7,VIOUT*%
%TO.N,VIout5*%
X136069200Y-83159600D03*
%TO.P,IC5,8,VCC*%
%TO.N,5V*%
X136069200Y-84429600D03*
%TD*%
D12*
%TO.P,Cf1,1*%
%TO.N,Net-(IC1-FILTER)*%
X197887500Y-82346800D03*
%TO.P,Cf1,2*%
%TO.N,GND*%
X195812500Y-82346800D03*
%TD*%
D11*
%TO.P,IC7,1,IP+_1*%
%TO.N,+BATT*%
X109372400Y-84378800D03*
%TO.P,IC7,2,IP+_2*%
X109372400Y-83108800D03*
%TO.P,IC7,3,IP-_1*%
%TO.N,PWR7*%
X109372400Y-81838800D03*
%TO.P,IC7,4,IP-_2*%
X109372400Y-80568800D03*
%TO.P,IC7,5,GND*%
%TO.N,GND*%
X103772400Y-80568800D03*
%TO.P,IC7,6,FILTER*%
%TO.N,Net-(IC7-FILTER)*%
X103772400Y-81838800D03*
%TO.P,IC7,7,VIOUT*%
%TO.N,VIout7*%
X103772400Y-83108800D03*
%TO.P,IC7,8,VCC*%
%TO.N,5V*%
X103772400Y-84378800D03*
%TD*%
D13*
%TO.P,R1,1*%
%TO.N,+3.3V*%
X100320000Y-100310000D03*
%TO.P,R1,2*%
%TO.N,GND*%
X100320000Y-102310000D03*
%TD*%
D14*
%TO.P,JP2,1,A*%
%TO.N,COM*%
X123090000Y-104420000D03*
D15*
%TO.P,JP2,2,B*%
%TO.N,GND*%
X123090000Y-103120000D03*
%TD*%
D12*
%TO.P,Cf3,1*%
%TO.N,Net-(IC6-FILTER)*%
X117979100Y-82092800D03*
%TO.P,Cf3,2*%
%TO.N,GND*%
X115904100Y-82092800D03*
%TD*%
D16*
%TO.P,J4,*%
%TO.N,*%
X198520000Y-101380000D03*
X185020000Y-101380000D03*
D17*
%TO.P,J4,1,Pin_1*%
%TO.N,-BATT*%
X195370000Y-95380000D03*
D18*
%TO.P,J4,2,Pin_2*%
%TO.N,+BATT*%
X188170000Y-95380000D03*
D19*
%TO.P,J4,3*%
%TO.N,N/C*%
X191770000Y-99030000D03*
%TD*%
D12*
%TO.P,Cf8,1*%
%TO.N,Net-(IC8-FILTER)*%
X85619500Y-82092800D03*
%TO.P,Cf8,2*%
%TO.N,GND*%
X83544500Y-82092800D03*
%TD*%
D20*
%TO.P,U2,1,SDA*%
%TO.N,SDA*%
X169675000Y-94020000D03*
%TO.P,U2,2,SCL*%
%TO.N,SCL*%
X169675000Y-94670000D03*
%TO.P,U2,3,Alert*%
%TO.N,unconnected-(U2-Alert-Pad3)*%
X169675000Y-95320000D03*
%TO.P,U2,4,GND*%
%TO.N,GND*%
X169675000Y-95970000D03*
%TO.P,U2,5,A2*%
%TO.N,+3.3V*%
X173900000Y-95970000D03*
%TO.P,U2,6,A1*%
%TO.N,GND*%
X173900000Y-95320000D03*
%TO.P,U2,7,A0*%
%TO.N,+3.3V*%
X173900000Y-94670000D03*
%TO.P,U2,8,V_{DD}*%
X173900000Y-94020000D03*
%TD*%
D21*
%TO.P,J6,1,1*%
%TO.N,PWR1*%
X206396000Y-75492000D03*
D22*
%TO.P,J6,2,2*%
%TO.N,-BATT*%
X198896000Y-62992000D03*
%TO.P,J6,3,3*%
%TO.N,PWR2*%
X191396000Y-75492000D03*
%TO.P,J6,4,4*%
%TO.N,-BATT*%
X183896000Y-62992000D03*
%TD*%
D12*
%TO.P,Cb6,1*%
%TO.N,5V*%
X165447800Y-84480400D03*
%TO.P,Cb6,2*%
%TO.N,GND*%
X163372800Y-84480400D03*
%TD*%
D23*
%TO.P,J18,1,1*%
%TO.N,PWM0*%
X139190000Y-108750000D03*
D24*
%TO.P,J18,2,2*%
%TO.N,SCL*%
X139190000Y-106210000D03*
%TO.P,J18,3,3*%
%TO.N,PWM1*%
X141730000Y-108750000D03*
%TO.P,J18,4,4*%
%TO.N,SDA*%
X141730000Y-106210000D03*
%TO.P,J18,5,5*%
%TO.N,PWM2*%
X144270000Y-108750000D03*
%TO.P,J18,6,6*%
%TO.N,toNEO_CTRL_MOOD*%
X144270000Y-106210000D03*
%TO.P,J18,7,7*%
%TO.N,PWM3*%
X146810000Y-108750000D03*
%TO.P,J18,8,8*%
%TO.N,outNEO_CTRL_MOOD*%
X146810000Y-106210000D03*
%TO.P,J18,9,9*%
%TO.N,PWM4*%
X149350000Y-108750000D03*
%TO.P,J18,10,10*%
%TO.N,unconnected-(J18-Pad10)*%
X149350000Y-106210000D03*
%TO.P,J18,11,11*%
%TO.N,PWM5*%
X151890000Y-108750000D03*
%TO.P,J18,12,12*%
%TO.N,GND*%
X151890000Y-106210000D03*
%TO.P,J18,13,13*%
%TO.N,PWM6*%
X154430000Y-108750000D03*
%TO.P,J18,14,14*%
%TO.N,5V*%
X154430000Y-106210000D03*
%TO.P,J18,15,15*%
%TO.N,PWM7*%
X156970000Y-108750000D03*
%TO.P,J18,16,16*%
%TO.N,5V*%
X156970000Y-106210000D03*
%TO.P,J18,17,17*%
%TO.N,unconnected-(J18-Pad17)*%
X159510000Y-108750000D03*
%TO.P,J18,18,18*%
%TO.N,+3.3V*%
X159510000Y-106210000D03*
%TO.P,J18,19,19*%
%TO.N,unconnected-(J18-Pad19)*%
X162050000Y-108750000D03*
%TO.P,J18,20,20*%
%TO.N,GND*%
X162050000Y-106210000D03*
%TD*%
D12*
%TO.P,Cf11,1*%
%TO.N,VIout3*%
X165617500Y-78790000D03*
%TO.P,Cf11,2*%
%TO.N,GND*%
X163542500Y-78790000D03*
%TD*%
D25*
%TO.P,Cf12,1*%
%TO.N,VIout4*%
X146000000Y-78762500D03*
%TO.P,Cf12,2*%
%TO.N,GND*%
X146000000Y-80837500D03*
%TD*%
D12*
%TO.P,Cb2,1*%
%TO.N,5V*%
X182211800Y-84429600D03*
%TO.P,Cb2,2*%
%TO.N,GND*%
X180136800Y-84429600D03*
%TD*%
%TO.P,Cb1,1*%
%TO.N,5V*%
X197887500Y-84632800D03*
%TO.P,Cb1,2*%
%TO.N,GND*%
X195812500Y-84632800D03*
%TD*%
%TO.P,Cf7,1*%
%TO.N,Net-(IC4-FILTER)*%
X150033900Y-82042000D03*
%TO.P,Cf7,2*%
%TO.N,GND*%
X147958900Y-82042000D03*
%TD*%
D26*
%TO.P,J15,1,1*%
%TO.N,PWM6*%
X164060000Y-98389999D03*
%TO.P,J15,2,2*%
%TO.N,GND*%
X164060000Y-95390000D03*
%TD*%
D11*
%TO.P,IC6,1,IP+_1*%
%TO.N,+BATT*%
X126581600Y-84429600D03*
%TO.P,IC6,2,IP+_2*%
X126581600Y-83159600D03*
%TO.P,IC6,3,IP-_1*%
%TO.N,PWR6*%
X126581600Y-81889600D03*
%TO.P,IC6,4,IP-_2*%
X126581600Y-80619600D03*
%TO.P,IC6,5,GND*%
%TO.N,GND*%
X120981600Y-80619600D03*
%TO.P,IC6,6,FILTER*%
%TO.N,Net-(IC6-FILTER)*%
X120981600Y-81889600D03*
%TO.P,IC6,7,VIOUT*%
%TO.N,VIout6*%
X120981600Y-83159600D03*
%TO.P,IC6,8,VCC*%
%TO.N,5V*%
X120981600Y-84429600D03*
%TD*%
D26*
%TO.P,J10,1,1*%
%TO.N,PWM0*%
X84800000Y-92550000D03*
%TO.P,J10,2,2*%
%TO.N,GND*%
X87799999Y-92550000D03*
%TD*%
D11*
%TO.P,IC4,1,IP+_1*%
%TO.N,+BATT*%
X159054800Y-84480400D03*
%TO.P,IC4,2,IP+_2*%
X159054800Y-83210400D03*
%TO.P,IC4,3,IP-_1*%
%TO.N,PWR4*%
X159054800Y-81940400D03*
%TO.P,IC4,4,IP-_2*%
X159054800Y-80670400D03*
%TO.P,IC4,5,GND*%
%TO.N,GND*%
X153454800Y-80670400D03*
%TO.P,IC4,6,FILTER*%
%TO.N,Net-(IC4-FILTER)*%
X153454800Y-81940400D03*
%TO.P,IC4,7,VIOUT*%
%TO.N,VIout4*%
X153454800Y-83210400D03*
%TO.P,IC4,8,VCC*%
%TO.N,5V*%
X153454800Y-84480400D03*
%TD*%
D12*
%TO.P,Cb7,1*%
%TO.N,5V*%
X150135500Y-84378800D03*
%TO.P,Cb7,2*%
%TO.N,GND*%
X148060500Y-84378800D03*
%TD*%
D14*
%TO.P,JP1,1,A*%
%TO.N,REF*%
X119260000Y-104400000D03*
D15*
%TO.P,JP1,2,B*%
%TO.N,+3.3V*%
X119260000Y-103100000D03*
%TD*%
D12*
%TO.P,Cf14,1*%
%TO.N,VIout6*%
X117962500Y-79025000D03*
%TO.P,Cf14,2*%
%TO.N,GND*%
X115887500Y-79025000D03*
%TD*%
%TO.P,Cf2,1*%
%TO.N,Net-(IC2-FILTER)*%
X182190300Y-82194400D03*
%TO.P,Cf2,2*%
%TO.N,GND*%
X180115300Y-82194400D03*
%TD*%
D27*
%TO.P,LED1,1,VSS*%
%TO.N,GND*%
X83060000Y-110850000D03*
%TO.P,LED1,2,DIN*%
%TO.N,toNEO_CTRL_MOOD*%
X86360000Y-110850000D03*
%TO.P,LED1,3,VDD*%
%TO.N,5V*%
X83060000Y-105850000D03*
%TO.P,LED1,4,DOUT*%
%TO.N,Net-(LED1-DOUT)*%
X86360000Y-105850000D03*
%TD*%
D28*
%TO.P,R3,1*%
%TO.N,VIout1*%
X107012700Y-99001201D03*
%TO.P,R3,2*%
%TO.N,VIout2*%
X107012700Y-99801201D03*
%TO.P,R3,3*%
%TO.N,VIout3*%
X107012700Y-100601200D03*
%TO.P,R3,4*%
%TO.N,VIout4*%
X107012700Y-101401201D03*
%TO.P,R3,5*%
%TO.N,VIout5*%
X107012700Y-102201199D03*
%TO.P,R3,6*%
%TO.N,VIout6*%
X107012700Y-103001200D03*
%TO.P,R3,7*%
%TO.N,VIout7*%
X107012700Y-103801201D03*
%TO.P,R3,8*%
%TO.N,VIout8*%
X107012700Y-104601199D03*
%TO.P,R3,9*%
%TO.N,VIout8Div*%
X108816100Y-104601199D03*
%TO.P,R3,10*%
%TO.N,VIout7Div*%
X108816100Y-103801199D03*
%TO.P,R3,11*%
%TO.N,VIout6Div*%
X108816100Y-103001200D03*
%TO.P,R3,12*%
%TO.N,VIout5Div*%
X108816100Y-102201199D03*
%TO.P,R3,13*%
%TO.N,VIout4Div*%
X108816100Y-101401201D03*
%TO.P,R3,14*%
%TO.N,VIout3Div*%
X108816100Y-100601200D03*
%TO.P,R3,15*%
%TO.N,VIout2Div*%
X108816100Y-99801199D03*
%TO.P,R3,16*%
%TO.N,VIout1Div*%
X108816100Y-99001201D03*
%TD*%
D21*
%TO.P,J2,1,1*%
%TO.N,PWR5*%
X141612000Y-75492000D03*
D22*
%TO.P,J2,2,2*%
%TO.N,-BATT*%
X134112000Y-62992000D03*
%TO.P,J2,3,3*%
%TO.N,PWR6*%
X126612000Y-75492000D03*
%TO.P,J2,4,4*%
%TO.N,-BATT*%
X119112000Y-62992000D03*
%TD*%
D26*
%TO.P,J17,1,1*%
%TO.N,PWM7*%
X207619999Y-91380000D03*
%TO.P,J17,2,2*%
%TO.N,GND*%
X204620000Y-91380000D03*
%TD*%
D12*
%TO.P,Cf13,1*%
%TO.N,VIout5*%
X133137500Y-79075000D03*
%TO.P,Cf13,2*%
%TO.N,GND*%
X131062500Y-79075000D03*
%TD*%
D26*
%TO.P,J16,1,1*%
%TO.N,PWM3*%
X207619999Y-99510000D03*
%TO.P,J16,2,2*%
%TO.N,GND*%
X204620000Y-99510000D03*
%TD*%
D29*
%TO.P,J9,1,Pin_1*%
%TO.N,VIout8Div*%
X105290000Y-95632000D03*
D30*
%TO.P,J9,2,Pin_2*%
%TO.N,VIout7Div*%
X107830000Y-95632000D03*
%TO.P,J9,3,Pin_3*%
%TO.N,VIout6Div*%
X110370000Y-95632000D03*
%TO.P,J9,4,Pin_4*%
%TO.N,VIout5Div*%
X112910000Y-95632000D03*
%TO.P,J9,5,Pin_5*%
%TO.N,VIout4Div*%
X115450000Y-95632000D03*
%TO.P,J9,6,Pin_6*%
%TO.N,VIout3Div*%
X117990000Y-95632000D03*
%TO.P,J9,7,Pin_7*%
%TO.N,VIout2Div*%
X120530000Y-95632000D03*
%TO.P,J9,8,Pin_8*%
%TO.N,VIout1Div*%
X123070000Y-95632000D03*
%TD*%
D27*
%TO.P,LED2,1,VSS*%
%TO.N,GND*%
X89290000Y-110850000D03*
%TO.P,LED2,2,DIN*%
%TO.N,Net-(LED1-DOUT)*%
X92590000Y-110850000D03*
%TO.P,LED2,3,VDD*%
%TO.N,5V*%
X89290000Y-105850000D03*
%TO.P,LED2,4,DOUT*%
%TO.N,Net-(LED2-DOUT)*%
X92590000Y-105850000D03*
%TD*%
D12*
%TO.P,Cf10,1*%
%TO.N,VIout2*%
X182270000Y-79140000D03*
%TO.P,Cf10,2*%
%TO.N,GND*%
X180195000Y-79140000D03*
%TD*%
%TO.P,Cb8,1*%
%TO.N,5V*%
X85641000Y-84378800D03*
%TO.P,Cb8,2*%
%TO.N,GND*%
X83566000Y-84378800D03*
%TD*%
D20*
%TO.P,U1,1,SDA*%
%TO.N,SDA*%
X93767500Y-100260000D03*
%TO.P,U1,2,SCL*%
%TO.N,SCL*%
X93767500Y-100910000D03*
%TO.P,U1,3,Alert*%
%TO.N,unconnected-(U1-Alert-Pad3)*%
X93767500Y-101560000D03*
%TO.P,U1,4,GND*%
%TO.N,GND*%
X93767500Y-102210000D03*
%TO.P,U1,5,A2*%
X97992500Y-102210000D03*
%TO.P,U1,6,A1*%
%TO.N,+3.3V*%
X97992500Y-101560000D03*
%TO.P,U1,7,A0*%
X97992500Y-100910000D03*
%TO.P,U1,8,V_{DD}*%
X97992500Y-100260000D03*
%TD*%
D12*
%TO.P,Cb5,1*%
%TO.N,5V*%
X133139000Y-84378800D03*
%TO.P,Cb5,2*%
%TO.N,GND*%
X131064000Y-84378800D03*
%TD*%
D11*
%TO.P,IC2,1,IP+_1*%
%TO.N,+BATT*%
X191351600Y-84480400D03*
%TO.P,IC2,2,IP+_2*%
X191351600Y-83210400D03*
%TO.P,IC2,3,IP-_1*%
%TO.N,PWR2*%
X191351600Y-81940400D03*
%TO.P,IC2,4,IP-_2*%
X191351600Y-80670400D03*
%TO.P,IC2,5,GND*%
%TO.N,GND*%
X185751600Y-80670400D03*
%TO.P,IC2,6,FILTER*%
%TO.N,Net-(IC2-FILTER)*%
X185751600Y-81940400D03*
%TO.P,IC2,7,VIOUT*%
%TO.N,VIout2*%
X185751600Y-83210400D03*
%TO.P,IC2,8,VCC*%
%TO.N,5V*%
X185751600Y-84480400D03*
%TD*%
D12*
%TO.P,Cf4,1*%
%TO.N,Net-(IC7-FILTER)*%
X100808700Y-82905600D03*
%TO.P,Cf4,2*%
%TO.N,GND*%
X98733700Y-82905600D03*
%TD*%
%TO.P,Cf15,1*%
%TO.N,VIout7*%
X100837500Y-79125000D03*
%TO.P,Cf15,2*%
%TO.N,GND*%
X98762500Y-79125000D03*
%TD*%
D11*
%TO.P,IC1,1,IP+_1*%
%TO.N,+BATT*%
X206451200Y-84582000D03*
%TO.P,IC1,2,IP+_2*%
X206451200Y-83312000D03*
%TO.P,IC1,3,IP-_1*%
%TO.N,PWR1*%
X206451200Y-82042000D03*
%TO.P,IC1,4,IP-_2*%
X206451200Y-80772000D03*
%TO.P,IC1,5,GND*%
%TO.N,GND*%
X200851200Y-80772000D03*
%TO.P,IC1,6,FILTER*%
%TO.N,Net-(IC1-FILTER)*%
X200851200Y-82042000D03*
%TO.P,IC1,7,VIOUT*%
%TO.N,VIout1*%
X200851200Y-83312000D03*
%TO.P,IC1,8,VCC*%
%TO.N,5V*%
X200851200Y-84582000D03*
%TD*%
D12*
%TO.P,Cf16,1*%
%TO.N,VIout8*%
X85637500Y-79000000D03*
%TO.P,Cf16,2*%
%TO.N,GND*%
X83562500Y-79000000D03*
%TD*%
D26*
%TO.P,J14,1,1*%
%TO.N,PWM2*%
X155284400Y-98399999D03*
%TO.P,J14,2,2*%
%TO.N,GND*%
X155284400Y-95400000D03*
%TD*%
D21*
%TO.P,J1,1,1*%
%TO.N,PWR3*%
X173985600Y-75492000D03*
D22*
%TO.P,J1,2,2*%
%TO.N,-BATT*%
X166485600Y-62992000D03*
%TO.P,J1,3,3*%
%TO.N,PWR4*%
X158985600Y-75492000D03*
%TO.P,J1,4,4*%
%TO.N,-BATT*%
X151485600Y-62992000D03*
%TD*%
D26*
%TO.P,J11,1,1*%
%TO.N,PWM4*%
X84800000Y-100590000D03*
%TO.P,J11,2,2*%
%TO.N,GND*%
X87799999Y-100590000D03*
%TD*%
D31*
%TO.P,R2,1*%
%TO.N,+3.3V*%
X172750000Y-97980000D03*
%TO.P,R2,2*%
%TO.N,GND*%
X170750000Y-97980000D03*
%TD*%
D12*
%TO.P,Cf9,1*%
%TO.N,VIout1*%
X197920000Y-79000000D03*
%TO.P,Cf9,2*%
%TO.N,GND*%
X195845000Y-79000000D03*
%TD*%
D11*
%TO.P,IC8,1,IP+_1*%
%TO.N,+BATT*%
X94171200Y-84328000D03*
%TO.P,IC8,2,IP+_2*%
X94171200Y-83058000D03*
%TO.P,IC8,3,IP-_1*%
%TO.N,PWR8*%
X94171200Y-81788000D03*
%TO.P,IC8,4,IP-_2*%
X94171200Y-80518000D03*
%TO.P,IC8,5,GND*%
%TO.N,GND*%
X88571200Y-80518000D03*
%TO.P,IC8,6,FILTER*%
%TO.N,Net-(IC8-FILTER)*%
X88571200Y-81788000D03*
%TO.P,IC8,7,VIOUT*%
%TO.N,VIout8*%
X88571200Y-83058000D03*
%TO.P,IC8,8,VCC*%
%TO.N,5V*%
X88571200Y-84328000D03*
%TD*%
D12*
%TO.P,Cb3,1*%
%TO.N,5V*%
X117979100Y-84378800D03*
%TO.P,Cb3,2*%
%TO.N,GND*%
X115904100Y-84378800D03*
%TD*%
D32*
%TO.P,JP3,1,A*%
%TO.N,Net-(J3-Pin_1)*%
X127050000Y-99380000D03*
D33*
%TO.P,JP3,2,C*%
%TO.N,+3.3V*%
X128350000Y-99380000D03*
D34*
%TO.P,JP3,3,B*%
%TO.N,5V*%
X129650000Y-99380000D03*
%TD*%
D28*
%TO.P,R4,1*%
%TO.N,VIout1Div*%
X110464600Y-99022002D03*
%TO.P,R4,2*%
%TO.N,VIout2Div*%
X110464600Y-99822002D03*
%TO.P,R4,3*%
%TO.N,VIout3Div*%
X110464600Y-100622001D03*
%TO.P,R4,4*%
%TO.N,VIout4Div*%
X110464600Y-101422002D03*
%TO.P,R4,5*%
%TO.N,VIout5Div*%
X110464600Y-102222000D03*
%TO.P,R4,6*%
%TO.N,VIout6Div*%
X110464600Y-103022001D03*
%TO.P,R4,7*%
%TO.N,VIout7Div*%
X110464600Y-103822002D03*
%TO.P,R4,8*%
%TO.N,VIout8Div*%
X110464600Y-104622000D03*
%TO.P,R4,9*%
%TO.N,GND*%
X112268000Y-104622000D03*
%TO.P,R4,10*%
X112268000Y-103822000D03*
%TO.P,R4,11*%
X112268000Y-103022001D03*
%TO.P,R4,12*%
X112268000Y-102222000D03*
%TO.P,R4,13*%
X112268000Y-101422002D03*
%TO.P,R4,14*%
X112268000Y-100622001D03*
%TO.P,R4,15*%
X112268000Y-99822000D03*
%TO.P,R4,16*%
X112268000Y-99022002D03*
%TD*%
D11*
%TO.P,IC3,1,IP+_1*%
%TO.N,+BATT*%
X174040800Y-84480400D03*
%TO.P,IC3,2,IP+_2*%
X174040800Y-83210400D03*
%TO.P,IC3,3,IP-_1*%
%TO.N,PWR3*%
X174040800Y-81940400D03*
%TO.P,IC3,4,IP-_2*%
X174040800Y-80670400D03*
%TO.P,IC3,5,GND*%
%TO.N,GND*%
X168440800Y-80670400D03*
%TO.P,IC3,6,FILTER*%
%TO.N,Net-(IC3-FILTER)*%
X168440800Y-81940400D03*
%TO.P,IC3,7,VIOUT*%
%TO.N,VIout3*%
X168440800Y-83210400D03*
%TO.P,IC3,8,VCC*%
%TO.N,5V*%
X168440800Y-84480400D03*
%TD*%
D12*
%TO.P,Cb4,1*%
%TO.N,5V*%
X100881000Y-85039200D03*
%TO.P,Cb4,2*%
%TO.N,GND*%
X98806000Y-85039200D03*
%TD*%
%TO.P,Cf5,1*%
%TO.N,Net-(IC5-FILTER)*%
X133139000Y-82143600D03*
%TO.P,Cf5,2*%
%TO.N,GND*%
X131064000Y-82143600D03*
%TD*%
D26*
%TO.P,J13,1,1*%
%TO.N,PWM5*%
X146508800Y-98399999D03*
%TO.P,J13,2,2*%
%TO.N,GND*%
X146508800Y-95400000D03*
%TD*%
%TO.P,J12,1,1*%
%TO.N,PWM1*%
X137733200Y-98399999D03*
%TO.P,J12,2,2*%
%TO.N,GND*%
X137733200Y-95400000D03*
%TD*%
D21*
%TO.P,J7,1,1*%
%TO.N,PWR7*%
X109252400Y-75339600D03*
D22*
%TO.P,J7,2,2*%
%TO.N,-BATT*%
X101752400Y-62839600D03*
%TO.P,J7,3,3*%
%TO.N,PWR8*%
X94252400Y-75339600D03*
%TO.P,J7,4,4*%
%TO.N,-BATT*%
X86752400Y-62839600D03*
%TD*%
D12*
%TO.P,Cf6,1*%
%TO.N,Net-(IC3-FILTER)*%
X165375500Y-82143600D03*
%TO.P,Cf6,2*%
%TO.N,GND*%
X163300500Y-82143600D03*
%TD*%
D29*
%TO.P,J3,1,Pin_1*%
%TO.N,Net-(J3-Pin_1)*%
X105290000Y-108332000D03*
D30*
%TO.P,J3,2,Pin_2*%
%TO.N,GND*%
X107830000Y-108332000D03*
%TO.P,J3,3,Pin_3*%
%TO.N,SCL*%
X110370000Y-108332000D03*
%TO.P,J3,4,Pin_4*%
%TO.N,SDA*%
X112910000Y-108332000D03*
%TO.P,J3,5,Pin_5*%
%TO.N,REF*%
X115450000Y-108332000D03*
%TO.P,J3,6,Pin_6*%
%TO.N,COM*%
X117990000Y-108332000D03*
%TO.P,J3,7,Pin_7*%
%TO.N,AD0*%
X120530000Y-108332000D03*
%TO.P,J3,8,Pin_8*%
%TO.N,AD1*%
X123070000Y-108332000D03*
%TD*%
D35*
%TO.N,GND*%
X169672000Y-97790000D03*
%TO.N,Net-(LED2-DOUT)*%
X93218000Y-107188000D03*
%TO.N,VIout8*%
X90594000Y-83058000D03*
%TO.N,GND*%
X197104000Y-86106000D03*
%TO.N,5V*%
X149248000Y-84521188D03*
%TO.N,VIout6*%
X122269010Y-82650398D03*
%TO.N,GND*%
X115570000Y-80518000D03*
%TO.N,VIout8Div*%
X108204000Y-105156000D03*
%TO.N,VIout4*%
X142420000Y-71734400D03*
%TO.N,VIout3*%
X112802043Y-83856538D03*
%TO.N,VIout5*%
X111822541Y-82457594D03*
%TO.N,VIout1Div*%
X110744000Y-98298000D03*
%TO.N,GND*%
X168230000Y-96520000D03*
X132588000Y-80619600D03*
X188804070Y-78145490D03*
X105218600Y-81276111D03*
X104143470Y-105305012D03*
X155873740Y-77121997D03*
X176977200Y-78497200D03*
X123802800Y-80578167D03*
X161515600Y-78296545D03*
X151890000Y-102280000D03*
X101070500Y-80568800D03*
X144510401Y-84557258D03*
X94780000Y-103480000D03*
X89360000Y-98900000D03*
X169954400Y-78328190D03*
X170720000Y-99917300D03*
X92334823Y-80830000D03*
X101356800Y-97372912D03*
X144160000Y-82390000D03*
X194606842Y-77481444D03*
X89300000Y-107880000D03*
X137305515Y-81039872D03*
%TO.N,5V*%
X138362100Y-107400567D03*
X114339633Y-80014633D03*
X129275000Y-79600000D03*
X95295964Y-110268000D03*
X161820000Y-77110000D03*
X91911132Y-107321132D03*
X106066146Y-79271341D03*
X188990365Y-77122626D03*
X193650000Y-77180000D03*
X139780000Y-78360000D03*
D36*
X195047404Y-85903266D03*
D35*
X155984400Y-75570034D03*
X171206565Y-77014831D03*
X202450000Y-55560000D03*
X92170000Y-84100000D03*
X132740000Y-101150000D03*
X100881000Y-85039200D03*
X124660000Y-79440000D03*
X176120000Y-77610000D03*
%TO.N,VIout1*%
X133110000Y-94310000D03*
X192010000Y-73360000D03*
X144360000Y-85560000D03*
X188210000Y-73460000D03*
%TO.N,VIout2*%
X186520000Y-78490000D03*
X120157362Y-77360464D03*
X183670000Y-77930000D03*
X133900000Y-73245600D03*
X181845027Y-72910896D03*
X130930000Y-73650400D03*
X189010000Y-79420000D03*
X109560000Y-94250000D03*
%TO.N,VIout3*%
X108190627Y-94227558D03*
X167250000Y-78350000D03*
X164820000Y-72434400D03*
%TO.N,VIout4*%
X147463873Y-80504331D03*
X105719818Y-97327406D03*
X112750000Y-82840000D03*
X143979431Y-73932400D03*
X149255905Y-83244957D03*
%TO.N,VIout5*%
X117017133Y-77337133D03*
X113430000Y-77310000D03*
X104087072Y-94282302D03*
%TO.N,VIout6*%
X103084871Y-94327124D03*
X118540262Y-77925262D03*
X122400000Y-79825000D03*
%TO.N,VIout7*%
X103772400Y-83108800D03*
X102081700Y-94335124D03*
%TO.N,VIout8*%
X90600000Y-79800000D03*
X101080000Y-94390000D03*
%TO.N,SDA*%
X114086672Y-102675600D03*
X96480000Y-100340000D03*
X141730000Y-101020000D03*
X142080000Y-97080000D03*
%TO.N,COM*%
X118040000Y-105550000D03*
%TO.N,SCL*%
X96460000Y-101450000D03*
X136168312Y-100238800D03*
X103490000Y-108550000D03*
%TO.N,REF*%
X115845600Y-104513697D03*
%TO.N,PWM0*%
X139302040Y-110860400D03*
%TO.N,PWM4*%
X149390000Y-111440000D03*
%TO.N,PWM2*%
X144141043Y-99288999D03*
%TO.N,PWM6*%
X153942684Y-98794420D03*
%TO.N,PWM3*%
X147175586Y-111077895D03*
%TO.N,PWM7*%
X156980000Y-110990000D03*
%TO.N,+3.3V*%
X121125000Y-103825000D03*
D36*
X105196568Y-105319860D03*
D35*
X113193017Y-105235075D03*
X132260000Y-104325600D03*
X128500000Y-101020000D03*
X125311800Y-103431704D03*
%TO.N,Net-(J3-Pin_1)*%
X127080000Y-101020000D03*
X126040000Y-105090000D03*
X109275223Y-107368800D03*
%TO.N,VIout5Div*%
X113284000Y-100584000D03*
X111278290Y-102081710D03*
X113284000Y-99060000D03*
%TO.N,Net-(LED2-DOUT)*%
X197333052Y-67490000D03*
X92220000Y-67650000D03*
%TO.N,VIout7Div*%
X107968302Y-103766000D03*
%TO.N,VIout6Div*%
X111252000Y-103124000D03*
%TO.N,VIout1Div*%
X114808000Y-99060000D03*
%TO.N,VIout3Div*%
X109762890Y-100566310D03*
%TO.N,outNEO_CTRL_MOOD*%
X91240000Y-100250000D03*
X109435287Y-109647819D03*
X91192473Y-67608947D03*
X103120000Y-109530000D03*
X134924400Y-109534400D03*
X148110000Y-109720000D03*
X138210000Y-110180000D03*
X84080000Y-59070000D03*
%TO.N,toNEO_CTRL_MOOD*%
X144357360Y-111577815D03*
%TD*%
D37*
%TO.N,PWM7*%
X207619999Y-91380000D02*
X207619999Y-94434801D01*
X207619999Y-94434801D02*
X191064800Y-110990000D01*
X191064800Y-110990000D02*
X156980000Y-110990000D01*
%TO.N,VIout5*%
X136069200Y-83159600D02*
X136619200Y-83159600D01*
X138057915Y-80399915D02*
X136733000Y-79075000D01*
X136733000Y-79075000D02*
X133137500Y-79075000D01*
X136619200Y-83159600D02*
X138057915Y-81720885D01*
X138057915Y-81720885D02*
X138057915Y-80399915D01*
%TO.N,VIout1*%
X200879200Y-79000000D02*
X202078600Y-80199400D01*
X201676000Y-83312000D02*
X200851200Y-83312000D01*
X202078600Y-80199400D02*
X202078600Y-82909400D01*
X202078600Y-82909400D02*
X201676000Y-83312000D01*
%TO.N,VIout2*%
X124118226Y-73399600D02*
X120157362Y-77360464D01*
%TO.N,VIout6*%
X119655431Y-77925262D02*
X121555169Y-79825000D01*
%TO.N,VIout2*%
X130930000Y-73650400D02*
X130679200Y-73399600D01*
X130679200Y-73399600D02*
X124118226Y-73399600D01*
%TO.N,5V*%
X106676800Y-82024400D02*
X104322400Y-84378800D01*
X106676800Y-79881995D02*
X106676800Y-82024400D01*
X106066146Y-79271341D02*
X106676800Y-79881995D01*
%TO.N,VIout7*%
X104233400Y-79125000D02*
X100837500Y-79125000D01*
%TO.N,5V*%
X104322400Y-84378800D02*
X103772400Y-84378800D01*
%TO.N,VIout7*%
X103772400Y-83108800D02*
X104449966Y-83108800D01*
X104449966Y-83108800D02*
X106172000Y-81386766D01*
X106172000Y-81386766D02*
X106172000Y-81063600D01*
X106172000Y-81063600D02*
X104233400Y-79125000D01*
%TO.N,VIout1*%
X109179501Y-96834400D02*
X113408051Y-96834400D01*
X114127000Y-95254549D02*
X114127000Y-96115451D01*
X114127000Y-96115451D02*
X113408051Y-96834400D01*
X107050590Y-98963311D02*
X109179501Y-96834400D01*
%TO.N,VIout4Div*%
X108108100Y-101353601D02*
X108108100Y-98619697D01*
X108816100Y-101401201D02*
X108155700Y-101401201D01*
X113685200Y-97396800D02*
X115450000Y-95632000D01*
X108155700Y-101401201D02*
X108108100Y-101353601D01*
X108108100Y-98619697D02*
X109330997Y-97396800D01*
X109330997Y-97396800D02*
X113685200Y-97396800D01*
%TO.N,VIout3*%
X105156000Y-99404900D02*
X106352300Y-100601200D01*
X105156000Y-98854105D02*
X105156000Y-99404900D01*
X105962905Y-98047200D02*
X105156000Y-98854105D01*
%TO.N,VIout2*%
X106304700Y-98552000D02*
X107320700Y-97536000D01*
%TO.N,VIout3*%
X106068605Y-98047200D02*
X105962905Y-98047200D01*
X108190627Y-94227558D02*
X107533991Y-94227558D01*
X106627600Y-95133949D02*
X106627600Y-97488205D01*
X107533991Y-94227558D02*
X106627600Y-95133949D01*
X106352300Y-100601200D02*
X107012700Y-100601200D01*
%TO.N,VIout2*%
X106457100Y-99801201D02*
X106172000Y-99516101D01*
%TO.N,VIout3*%
X106627600Y-97488205D02*
X106068605Y-98047200D01*
%TO.N,VIout2*%
X106172000Y-99516101D02*
X106172000Y-98552000D01*
X109167600Y-96064400D02*
X107696000Y-97536000D01*
X106172000Y-98552000D02*
X106304700Y-98552000D01*
X107320700Y-97536000D02*
X107696000Y-97536000D01*
%TO.N,VIout4*%
X104947406Y-97327406D02*
X105719818Y-97327406D01*
X104591872Y-99717767D02*
X104591872Y-97682940D01*
X107012700Y-101401201D02*
X106275306Y-101401201D01*
X106275306Y-101401201D02*
X104591872Y-99717767D01*
X104591872Y-97682940D02*
X104947406Y-97327406D01*
%TO.N,+3.3V*%
X113193017Y-105235075D02*
X115328092Y-103100000D01*
X119260000Y-103100000D02*
X115328092Y-103100000D01*
%TO.N,GND*%
X107830000Y-106480000D02*
X107830000Y-108332000D01*
%TO.N,VIout3*%
X170267380Y-77572590D02*
X166834910Y-77572590D01*
%TO.N,GND*%
X168440800Y-79841790D02*
X169954400Y-78328190D01*
%TO.N,VIout3*%
X166834910Y-77572590D02*
X165617500Y-78790000D01*
X170274790Y-77580000D02*
X170267380Y-77572590D01*
%TO.N,GND*%
X168440800Y-80670400D02*
X168440800Y-79841790D01*
%TO.N,VIout3*%
X170710000Y-77580000D02*
X170274790Y-77580000D01*
X170710000Y-77580000D02*
X170710000Y-81491200D01*
%TO.N,GND*%
X188276510Y-78145490D02*
X188804070Y-78145490D01*
X185751600Y-80670400D02*
X188276510Y-78145490D01*
%TO.N,SCL*%
X139997304Y-100238800D02*
X136168312Y-100238800D01*
X142985905Y-97250199D02*
X139997304Y-100238800D01*
X168144800Y-95395140D02*
X168144800Y-95459096D01*
X168144800Y-95459096D02*
X166353697Y-97250199D01*
X169675000Y-94670000D02*
X168869940Y-94670000D01*
X166353697Y-97250199D02*
X142985905Y-97250199D01*
X168869940Y-94670000D02*
X168144800Y-95395140D01*
%TO.N,SDA*%
X166080645Y-96745399D02*
X168806044Y-94020000D01*
%TO.N,PWM0*%
X107388442Y-111023600D02*
X94666607Y-111023600D01*
X94666607Y-111023600D02*
X94540364Y-110897357D01*
%TO.N,outNEO_CTRL_MOOD*%
X109435287Y-109647819D02*
X130497817Y-109647819D01*
X130611236Y-109534400D02*
X134924400Y-109534400D01*
X130497817Y-109647819D02*
X130611236Y-109534400D01*
%TO.N,GND*%
X169675000Y-97787000D02*
X169868000Y-97980000D01*
X169868000Y-97980000D02*
X170750000Y-97980000D01*
X169675000Y-95970000D02*
X169675000Y-97787000D01*
X169675000Y-97787000D02*
X169672000Y-97790000D01*
%TO.N,Net-(LED2-DOUT)*%
X93218000Y-107188000D02*
X93218000Y-106478000D01*
X93218000Y-106478000D02*
X92590000Y-105850000D01*
%TO.N,VIout8*%
X90594000Y-83058000D02*
X88571200Y-83058000D01*
%TO.N,5V*%
X156235200Y-75820834D02*
X155984400Y-75570034D01*
X156628400Y-76442295D02*
X156235200Y-76049095D01*
X156715200Y-81770000D02*
X156715200Y-77933096D01*
%TO.N,VIout1*%
X157220000Y-82515200D02*
X157220000Y-77724000D01*
X157133200Y-74724710D02*
X157133200Y-77637200D01*
%TO.N,5V*%
X156715200Y-77933096D02*
X156628400Y-77846296D01*
X154004800Y-84480400D02*
X156715200Y-81770000D01*
%TO.N,VIout4*%
X147463873Y-80488873D02*
X147463873Y-80504331D01*
%TO.N,GND*%
X155873740Y-78801460D02*
X155873740Y-77121997D01*
%TO.N,5V*%
X156235200Y-76049095D02*
X156235200Y-75820834D01*
X156628400Y-77846296D02*
X156628400Y-76442295D01*
%TO.N,VIout4*%
X146000000Y-79025000D02*
X147463873Y-80488873D01*
%TO.N,GND*%
X154004800Y-80670400D02*
X155873740Y-78801460D01*
%TO.N,VIout1*%
X158218310Y-73639600D02*
X157133200Y-74724710D01*
X159752890Y-73639600D02*
X158218310Y-73639600D01*
X157133200Y-77637200D02*
X157220000Y-77724000D01*
%TO.N,VIout2*%
X181565923Y-73190000D02*
X181845027Y-72910896D01*
X176047095Y-73134800D02*
X176102295Y-73190000D01*
X144284475Y-73190000D02*
X157954014Y-73190000D01*
X160017185Y-73190000D02*
X170732904Y-73190000D01*
X170732904Y-73190000D02*
X170788104Y-73134800D01*
X170788104Y-73134800D02*
X176047095Y-73134800D01*
X159961986Y-73134800D02*
X160017185Y-73190000D01*
X144271275Y-73176800D02*
X144284475Y-73190000D01*
X157954014Y-73190000D02*
X158009214Y-73134800D01*
%TO.N,VIout1*%
X175838000Y-73639600D02*
X170997200Y-73639600D01*
%TO.N,VIout2*%
X158009214Y-73134800D02*
X159961986Y-73134800D01*
X133968800Y-73176800D02*
X144271275Y-73176800D01*
X176102295Y-73190000D02*
X181565923Y-73190000D01*
X133900000Y-73245600D02*
X133968800Y-73176800D01*
%TO.N,VIout1*%
X170942000Y-73694800D02*
X172133200Y-73694800D01*
X159808090Y-73694800D02*
X170942000Y-73694800D01*
X170997200Y-73639600D02*
X170942000Y-73694800D01*
%TO.N,5V*%
X193650000Y-84350000D02*
X193650000Y-77180000D01*
X197416980Y-86861600D02*
X196161600Y-86861600D01*
X196161600Y-86861600D02*
X193650000Y-84350000D01*
X197887500Y-86391080D02*
X197416980Y-86861600D01*
X197887500Y-84632800D02*
X197887500Y-86391080D01*
%TO.N,GND*%
X195812500Y-84814500D02*
X197104000Y-86106000D01*
%TO.N,5V*%
X149248000Y-84521188D02*
X149993112Y-84521188D01*
%TO.N,VIout6*%
X121490802Y-82650398D02*
X120981600Y-83159600D01*
X122269010Y-82650398D02*
X121490802Y-82650398D01*
%TO.N,GND*%
X115570000Y-80518000D02*
X115570000Y-81758700D01*
X115570000Y-80518000D02*
X115570000Y-79342500D01*
%TO.N,VIout4*%
X112750000Y-82840000D02*
X112750000Y-79970000D01*
X113069644Y-79502146D02*
X114442800Y-78128990D01*
X114442800Y-78084454D02*
X120642054Y-71885200D01*
X112750000Y-79970000D02*
X113069644Y-79650356D01*
X113069644Y-79650356D02*
X113069644Y-79502146D01*
X114442800Y-78128990D02*
X114442800Y-78084454D01*
X120642054Y-71885200D02*
X132169257Y-71885200D01*
X142169200Y-71985200D02*
X142420000Y-71734400D01*
X132169257Y-71885200D02*
X132269257Y-71985200D01*
X132269257Y-71985200D02*
X142169200Y-71985200D01*
%TO.N,outNEO_CTRL_MOOD*%
X84080000Y-62786890D02*
X88902057Y-67608947D01*
X88902057Y-67608947D02*
X91192473Y-67608947D01*
X84080000Y-59070000D02*
X84080000Y-62786890D01*
%TO.N,PWM0*%
X84800000Y-95411456D02*
X94540364Y-105151820D01*
%TO.N,PWM4*%
X94035564Y-105453356D02*
X94035564Y-111106454D01*
%TO.N,PWM0*%
X94540364Y-105151820D02*
X94540364Y-110897357D01*
%TO.N,5V*%
X135277245Y-110505019D02*
X109080223Y-110505019D01*
%TO.N,PWM0*%
X84800000Y-92550000D02*
X84800000Y-95411456D01*
X107388442Y-111023600D02*
X107476042Y-111111200D01*
%TO.N,5V*%
X95419564Y-110391600D02*
X95295964Y-110268000D01*
X109080223Y-110505019D02*
X108966804Y-110391600D01*
%TO.N,PWM4*%
X86911002Y-102701002D02*
X91283210Y-102701002D01*
%TO.N,5V*%
X108966804Y-110391600D02*
X95419564Y-110391600D01*
X138364264Y-107418000D02*
X135277245Y-110505019D01*
%TO.N,PWM4*%
X94035564Y-111106454D02*
X94545111Y-111616000D01*
%TO.N,PWM0*%
X107476042Y-111111200D02*
X139051240Y-111111200D01*
%TO.N,5V*%
X153222000Y-107418000D02*
X138364264Y-107418000D01*
%TO.N,outNEO_CTRL_MOOD*%
X91240000Y-100250000D02*
X91240000Y-101137560D01*
%TO.N,5V*%
X154430000Y-106210000D02*
X153222000Y-107418000D01*
%TO.N,PWM4*%
X91283210Y-102701002D02*
X94035564Y-105453356D01*
%TO.N,PWM0*%
X139051240Y-111111200D02*
X139302040Y-110860400D01*
%TO.N,outNEO_CTRL_MOOD*%
X95548449Y-105446009D02*
X99036009Y-105446009D01*
X91240000Y-101137560D02*
X95548449Y-105446009D01*
X99036009Y-105446009D02*
X103120000Y-109530000D01*
%TO.N,PWM4*%
X84800000Y-100590000D02*
X86911002Y-102701002D01*
%TO.N,+3.3V*%
X105196568Y-105319860D02*
X105196568Y-105186568D01*
X105196568Y-105186568D02*
X100320000Y-100310000D01*
%TO.N,GND*%
X101148458Y-102310000D02*
X104143470Y-105305012D01*
X105073397Y-106194557D02*
X104862396Y-106194557D01*
X104862396Y-106194557D02*
X104143470Y-105475631D01*
X105302840Y-106424000D02*
X105073397Y-106194557D01*
%TO.N,VIout8Div*%
X108287500Y-105129799D02*
X108261299Y-105156000D01*
%TO.N,GND*%
X102318458Y-103480000D02*
X104143470Y-105305012D01*
%TO.N,+3.3V*%
X100865945Y-100310000D02*
X100865945Y-100918525D01*
%TO.N,GND*%
X104143470Y-105475631D02*
X104143470Y-105305012D01*
X112730000Y-106407200D02*
X112713200Y-106424000D01*
X100320000Y-102310000D02*
X101148458Y-102310000D01*
X94780000Y-103480000D02*
X102318458Y-103480000D01*
%TO.N,VIout8Div*%
X108261299Y-105156000D02*
X108204000Y-105156000D01*
%TO.N,GND*%
X112713200Y-106424000D02*
X105302840Y-106424000D01*
%TO.N,VIout8*%
X101080000Y-94390000D02*
X101080000Y-94412800D01*
X101080000Y-94412800D02*
X102425200Y-95758000D01*
X102425200Y-95758000D02*
X102425200Y-101663200D01*
X106793702Y-104382201D02*
X107012700Y-104601199D01*
X102425200Y-101663200D02*
X105144201Y-104382201D01*
X105144201Y-104382201D02*
X106793702Y-104382201D01*
%TO.N,VIout7*%
X105881256Y-103801201D02*
X107012700Y-103801201D01*
X105881256Y-103801201D02*
X102930000Y-100849945D01*
X102930000Y-100849945D02*
X102930000Y-95310000D01*
X102930000Y-95310000D02*
X102081700Y-94461700D01*
X102081700Y-94461700D02*
X102081700Y-94335124D01*
%TO.N,VIout6*%
X103084871Y-94327124D02*
X103434800Y-94677053D01*
X103434800Y-94677053D02*
X103434800Y-100083700D01*
X103434800Y-100083700D02*
X106352300Y-103001200D01*
X106352300Y-103001200D02*
X107012700Y-103001200D01*
%TO.N,VIout5*%
X104087072Y-94282302D02*
X104087072Y-99935971D01*
X106352300Y-102201199D02*
X107012700Y-102201199D01*
X104087072Y-99935971D02*
X106352300Y-102201199D01*
%TO.N,VIout3*%
X116962843Y-76322843D02*
X120895686Y-72390000D01*
X113574444Y-79711242D02*
X114947600Y-78338086D01*
X114947600Y-78338086D02*
X114947600Y-78293550D01*
X114947600Y-78293550D02*
X116918307Y-76322843D01*
X116918307Y-76322843D02*
X116962843Y-76322843D01*
%TO.N,GND*%
X120981600Y-80619600D02*
X117377300Y-80619600D01*
X117377300Y-80619600D02*
X116291717Y-79534017D01*
%TO.N,VIout2*%
X109560000Y-94250000D02*
X109167600Y-94642400D01*
X109167600Y-94642400D02*
X109167600Y-96064400D01*
%TO.N,VIout5*%
X121385362Y-72894800D02*
X117017133Y-77263029D01*
%TO.N,5V*%
X115268066Y-85557800D02*
X114317366Y-84607100D01*
%TO.N,VIout4*%
X146000000Y-78762500D02*
X146000000Y-75952969D01*
%TO.N,VIout1*%
X159752890Y-73639600D02*
X159808090Y-73694800D01*
%TO.N,VIout5*%
X131751065Y-72894800D02*
X121385362Y-72894800D01*
%TO.N,5V*%
X114317366Y-84607100D02*
X114317366Y-80036900D01*
%TO.N,VIout3*%
X120895686Y-72390000D02*
X131960161Y-72390000D01*
%TO.N,VIout5*%
X133137500Y-79075000D02*
X133137500Y-74281235D01*
%TO.N,VIout3*%
X113574444Y-83084137D02*
X113574444Y-79711242D01*
%TO.N,VIout5*%
X117017133Y-77263029D02*
X117017133Y-77337133D01*
%TO.N,VIout1*%
X147210000Y-85640000D02*
X154095200Y-85640000D01*
X154095200Y-85640000D02*
X157220000Y-82515200D01*
%TO.N,5V*%
X114317366Y-80036900D02*
X114339633Y-80014633D01*
X117979100Y-84378800D02*
X116800100Y-85557800D01*
X116800100Y-85557800D02*
X115268066Y-85557800D01*
%TO.N,VIout3*%
X131960161Y-72390000D02*
X132060161Y-72490000D01*
%TO.N,VIout1*%
X144360000Y-85560000D02*
X147130000Y-85560000D01*
%TO.N,VIout3*%
X132060161Y-72490000D02*
X164764400Y-72490000D01*
%TO.N,VIout4*%
X146000000Y-75952969D02*
X143979431Y-73932400D01*
%TO.N,VIout5*%
X133137500Y-74281235D02*
X131751065Y-72894800D01*
%TO.N,VIout1*%
X172133200Y-73694800D02*
X172133200Y-73639600D01*
X175838000Y-73639600D02*
X175838000Y-73694800D01*
X182301275Y-73513200D02*
X188156800Y-73513200D01*
X175838000Y-73694800D02*
X181839096Y-73694800D01*
X181839096Y-73694800D02*
X181860696Y-73673200D01*
X182141275Y-73673200D02*
X182301275Y-73513200D01*
%TO.N,VIout3*%
X112802043Y-83856538D02*
X113574444Y-83084137D01*
%TO.N,VIout1*%
X181860696Y-73673200D02*
X182141275Y-73673200D01*
X188156800Y-73513200D02*
X188210000Y-73460000D01*
%TO.N,VIout3*%
X164764400Y-72490000D02*
X164820000Y-72434400D01*
%TO.N,VIout1*%
X147130000Y-85560000D02*
X147210000Y-85640000D01*
%TO.N,VIout2*%
X107012700Y-99801201D02*
X106523700Y-99801201D01*
%TO.N,VIout5Div*%
X110464600Y-102222000D02*
X111138000Y-102222000D01*
X111138000Y-102222000D02*
X111278290Y-102081710D01*
%TO.N,VIout1Div*%
X110464600Y-99022002D02*
X110464600Y-98577400D01*
X110464600Y-98577400D02*
X110744000Y-98298000D01*
%TO.N,VIout2Div*%
X111239200Y-99707802D02*
X111125000Y-99822002D01*
X111798202Y-98307600D02*
X111239200Y-98866602D01*
X120530000Y-95632000D02*
X117854400Y-98307600D01*
X111239200Y-98866602D02*
X111239200Y-99707802D01*
X110464600Y-99822002D02*
X111125000Y-99822002D01*
X117854400Y-98307600D02*
X111798202Y-98307600D01*
%TO.N,VIout1Div*%
X123070000Y-95632000D02*
X119642000Y-99060000D01*
X119642000Y-99060000D02*
X114808000Y-99060000D01*
%TO.N,VIout1*%
X133110000Y-94310000D02*
X115071549Y-94310000D01*
X115071549Y-94310000D02*
X114127000Y-95254549D01*
%TO.N,GND*%
X124554924Y-103120000D02*
X124998820Y-102676104D01*
X197183264Y-80772000D02*
X194606842Y-78195578D01*
X174712499Y-95320000D02*
X175064900Y-95672401D01*
X155334999Y-95450599D02*
X163999401Y-95450599D01*
X131064000Y-82143600D02*
X131064000Y-84378800D01*
X149330500Y-80670400D02*
X153454800Y-80670400D01*
X181639300Y-80670400D02*
X185751600Y-80670400D01*
X133564936Y-102432800D02*
X133137736Y-102860000D01*
X85119300Y-80518000D02*
X83544500Y-82092800D01*
X122911552Y-106407200D02*
X112730000Y-106407200D01*
X181639300Y-80670400D02*
X179230406Y-80670400D01*
X101070500Y-80568800D02*
X98733700Y-82905600D01*
X89290000Y-110850000D02*
X89290000Y-107890000D01*
X93767500Y-102210000D02*
X97992500Y-102210000D01*
X172471550Y-99917300D02*
X170720000Y-99917300D01*
X195812500Y-82346800D02*
X197387300Y-80772000D01*
X146559399Y-95450599D02*
X155233801Y-95450599D01*
X147958900Y-82042000D02*
X144508000Y-82042000D01*
X136935643Y-80670000D02*
X137305515Y-81039872D01*
X88571200Y-80518000D02*
X88883200Y-80830000D01*
X179230406Y-80670400D02*
X177057206Y-78497200D01*
X177057206Y-78497200D02*
X176977200Y-78497200D01*
X163300500Y-82143600D02*
X163300500Y-84408100D01*
X137783799Y-95450599D02*
X146458201Y-95450599D01*
X124454600Y-104864152D02*
X122911552Y-106407200D01*
X123698767Y-80682200D02*
X123802800Y-80578167D01*
X84314000Y-109596000D02*
X88036000Y-109596000D01*
X121044200Y-80682200D02*
X123698767Y-80682200D01*
X124998820Y-102676104D02*
X127146104Y-102676104D01*
X136119600Y-80670000D02*
X136935643Y-80670000D01*
X144160000Y-84206857D02*
X144510401Y-84557258D01*
X127146104Y-102676104D02*
X127330000Y-102860000D01*
X127044504Y-102574504D02*
X124956736Y-102574504D01*
X112268000Y-99022002D02*
X112268000Y-105945200D01*
X164773700Y-80670400D02*
X163637162Y-80670400D01*
X163542500Y-78790000D02*
X162009055Y-78790000D01*
X133137736Y-102860000D02*
X127330000Y-102860000D01*
X180195000Y-79140000D02*
X177620000Y-79140000D01*
X100206300Y-80568800D02*
X101070500Y-80568800D01*
X97992500Y-102210000D02*
X100220000Y-102210000D01*
X161515600Y-78548838D02*
X161515600Y-78296545D01*
X83544500Y-82092800D02*
X83544500Y-84357300D01*
X83601300Y-79000000D02*
X85119300Y-80518000D01*
X169675000Y-95970000D02*
X168780000Y-95970000D01*
X194606842Y-78195578D02*
X194606842Y-77481444D01*
X89360000Y-98900000D02*
X91223567Y-97036433D01*
X147958900Y-82042000D02*
X149330500Y-80670400D01*
X91223567Y-97036433D02*
X101020321Y-97036433D01*
X175064900Y-95672401D02*
X175064900Y-97323950D01*
X112268000Y-105945200D02*
X112730000Y-106407200D01*
X98733700Y-82905600D02*
X98733700Y-84966900D01*
X151890000Y-102280000D02*
X133747736Y-102280000D01*
X89290000Y-107890000D02*
X89300000Y-107880000D01*
X83060000Y-110850000D02*
X84314000Y-109596000D01*
X101020321Y-97036433D02*
X101356800Y-97372912D01*
X88036000Y-109596000D02*
X89290000Y-110850000D01*
X132588000Y-80619600D02*
X131064000Y-82143600D01*
X104511289Y-80568800D02*
X105218600Y-81276111D01*
X177620000Y-79140000D02*
X176977200Y-78497200D01*
X180115300Y-82194400D02*
X180115300Y-84408100D01*
X133594936Y-102432800D02*
X133564936Y-102432800D01*
X103772400Y-80568800D02*
X104511289Y-80568800D01*
X88883200Y-80830000D02*
X92334823Y-80830000D01*
X163300500Y-82143600D02*
X164773700Y-80670400D01*
X136069200Y-80619600D02*
X132588000Y-80619600D01*
X180115300Y-82194400D02*
X181639300Y-80670400D01*
X164773700Y-80670400D02*
X168440800Y-80670400D01*
X147204500Y-82042000D02*
X146000000Y-80837500D01*
X98762500Y-79125000D02*
X100206300Y-80568800D01*
X88571200Y-80518000D02*
X85119300Y-80518000D01*
X147958900Y-82042000D02*
X147958900Y-84277200D01*
X195812500Y-82346800D02*
X195812500Y-84632800D01*
X103772400Y-80568800D02*
X101070500Y-80568800D01*
X124956736Y-102574504D02*
X124454600Y-103076640D01*
X173900000Y-95320000D02*
X174712499Y-95320000D01*
X162009055Y-78790000D02*
X161515600Y-78296545D01*
X127330000Y-102860000D02*
X127044504Y-102574504D01*
X133747736Y-102280000D02*
X133594936Y-102432800D01*
X144508000Y-82042000D02*
X144160000Y-82390000D01*
X131062500Y-79094100D02*
X132588000Y-80619600D01*
X124454600Y-103076640D02*
X124454600Y-104864152D01*
X197387300Y-80772000D02*
X197183264Y-80772000D01*
X175064900Y-97323950D02*
X172471550Y-99917300D01*
X197387300Y-80772000D02*
X200851200Y-80772000D01*
X163637162Y-80670400D02*
X161515600Y-78548838D01*
X147958900Y-82042000D02*
X147204500Y-82042000D01*
X144160000Y-82390000D02*
X144160000Y-84206857D01*
X123090000Y-103120000D02*
X124554924Y-103120000D01*
X115904100Y-82092800D02*
X115904100Y-84378800D01*
X168780000Y-95970000D02*
X168230000Y-96520000D01*
%TO.N,5V*%
X121819600Y-84429600D02*
X120981600Y-84429600D01*
X139830000Y-81218800D02*
X139830000Y-79580000D01*
X188990365Y-77122626D02*
X188940539Y-77072800D01*
X195058420Y-68344000D02*
X197686791Y-68344000D01*
X139830000Y-78410000D02*
X139780000Y-78360000D01*
X197887500Y-84632800D02*
X200800400Y-84632800D01*
X89290000Y-105850000D02*
X88036000Y-104596000D01*
X136069200Y-84429600D02*
X136907200Y-84429600D01*
X161915169Y-77014831D02*
X171206565Y-77014831D01*
X133139000Y-84378800D02*
X131960000Y-85557800D01*
X133139000Y-84378800D02*
X136018400Y-84378800D01*
X153128800Y-84378800D02*
X153454800Y-84704800D01*
X103772400Y-84378800D02*
X101541400Y-84378800D01*
X120981600Y-84429600D02*
X118029900Y-84429600D01*
X129275000Y-84475000D02*
X129275000Y-79600000D01*
X161360000Y-77110000D02*
X161820000Y-77110000D01*
X136907200Y-84429600D02*
X139830000Y-81506800D01*
X162637800Y-85557800D02*
X160750000Y-83670000D01*
X139830000Y-81506800D02*
X139830000Y-79580000D01*
X188783600Y-74618820D02*
X195058420Y-68344000D01*
X84314000Y-104596000D02*
X83060000Y-105850000D01*
X160750000Y-77720000D02*
X161360000Y-77110000D01*
X164370400Y-85557800D02*
X162637800Y-85557800D01*
X182211800Y-84429600D02*
X185700800Y-84429600D01*
X153454800Y-84704800D02*
X153454800Y-84480400D01*
X139830000Y-79580000D02*
X139830000Y-78410000D01*
X161820000Y-77110000D02*
X161915169Y-77014831D01*
X179408600Y-85608600D02*
X176120000Y-82320000D01*
X179408600Y-85608600D02*
X181032800Y-85608600D01*
X124660000Y-79440000D02*
X124660000Y-81589200D01*
X117979100Y-84378800D02*
X120930800Y-84378800D01*
X176657200Y-77072800D02*
X176120000Y-77610000D01*
X165447800Y-84480400D02*
X168440800Y-84480400D01*
X197686791Y-68344000D02*
X202450000Y-63580791D01*
X182211800Y-84429600D02*
X181032800Y-85608600D01*
X188940539Y-77072800D02*
X176657200Y-77072800D01*
X124660000Y-81589200D02*
X121819600Y-84429600D01*
X131420000Y-101150000D02*
X132740000Y-101150000D01*
X160750000Y-83670000D02*
X160750000Y-77720000D01*
X176120000Y-82320000D02*
X176120000Y-77610000D01*
X136069200Y-84429600D02*
X133189800Y-84429600D01*
X90761132Y-107321132D02*
X91911132Y-107321132D01*
X88036000Y-104596000D02*
X84314000Y-104596000D01*
X136619200Y-84429600D02*
X139830000Y-81218800D01*
X91942000Y-84328000D02*
X92170000Y-84100000D01*
X85641000Y-84378800D02*
X88520400Y-84378800D01*
X165447800Y-84480400D02*
X164370400Y-85557800D01*
X101541400Y-84378800D02*
X100881000Y-85039200D01*
X129650000Y-99380000D02*
X131420000Y-101150000D01*
X131960000Y-85557800D02*
X130357800Y-85557800D01*
X188990365Y-77122626D02*
X188783600Y-76915861D01*
X202450000Y-63580791D02*
X202450000Y-55560000D01*
X88571200Y-84328000D02*
X91942000Y-84328000D01*
X89290000Y-105850000D02*
X90761132Y-107321132D01*
X150135500Y-84378800D02*
X153128800Y-84378800D01*
X188783600Y-76915861D02*
X188783600Y-74618820D01*
X130357800Y-85557800D02*
X129275000Y-84475000D01*
%TO.N,Net-(IC1-FILTER)*%
X200546400Y-82346800D02*
X200851200Y-82042000D01*
X197887500Y-82346800D02*
X200546400Y-82346800D01*
%TO.N,Net-(IC2-FILTER)*%
X185497600Y-82194400D02*
X185751600Y-81940400D01*
X182190300Y-82194400D02*
X185497600Y-82194400D01*
%TO.N,Net-(IC6-FILTER)*%
X120778400Y-82092800D02*
X120981600Y-81889600D01*
X117979100Y-82092800D02*
X120778400Y-82092800D01*
%TO.N,Net-(IC7-FILTER)*%
X100808700Y-82905600D02*
X101875500Y-81838800D01*
X101875500Y-81838800D02*
X103772400Y-81838800D01*
%TO.N,Net-(IC5-FILTER)*%
X133139000Y-82143600D02*
X135815200Y-82143600D01*
X135815200Y-82143600D02*
X136069200Y-81889600D01*
%TO.N,Net-(IC3-FILTER)*%
X165375500Y-82143600D02*
X168237600Y-82143600D01*
X168237600Y-82143600D02*
X168440800Y-81940400D01*
%TO.N,Net-(IC4-FILTER)*%
X150033900Y-82042000D02*
X153353200Y-82042000D01*
%TO.N,Net-(IC8-FILTER)*%
X85619500Y-82092800D02*
X88266400Y-82092800D01*
X88266400Y-82092800D02*
X88571200Y-81788000D01*
D38*
%TO.N,PWR1*%
X206451200Y-80772000D02*
X206451200Y-75547200D01*
D37*
%TO.N,VIout1*%
X197920000Y-79000000D02*
X200879200Y-79000000D01*
X192280000Y-73360000D02*
X197920000Y-79000000D01*
X192010000Y-73360000D02*
X192280000Y-73360000D01*
D38*
%TO.N,+BATT*%
X126870000Y-89870000D02*
X126870000Y-84170000D01*
D39*
X142240000Y-89870000D02*
X126870000Y-89870000D01*
D38*
X173844600Y-83715400D02*
X174040800Y-83715400D01*
X197252379Y-89683200D02*
X197094179Y-89525000D01*
X109523477Y-89626523D02*
X109523477Y-83646523D01*
D39*
X109280000Y-89870000D02*
X98351434Y-89870000D01*
D38*
X126870000Y-84170000D02*
X126364600Y-83664600D01*
X94171200Y-83563000D02*
X94171200Y-85689766D01*
D39*
X142343399Y-89973399D02*
X142240000Y-89870000D01*
D38*
X109280000Y-89870000D02*
X109523477Y-89626523D01*
X158290000Y-84570000D02*
X159144600Y-83715400D01*
X197094179Y-89525000D02*
X190500000Y-89525000D01*
D39*
X173530000Y-89870000D02*
X158290000Y-89870000D01*
D38*
X158290000Y-89870000D02*
X158290000Y-84570000D01*
X109490754Y-83613800D02*
X109372400Y-83613800D01*
X190500000Y-89525000D02*
X188875000Y-89525000D01*
X109523477Y-83646523D02*
X109490754Y-83613800D01*
X159144600Y-83715400D02*
X159054800Y-83715400D01*
X94171200Y-85689766D02*
X98282943Y-89801509D01*
D39*
X144827130Y-90118800D02*
X144681729Y-89973399D01*
D40*
X182660000Y-89870000D02*
X179370000Y-89870000D01*
D39*
X179370000Y-89870000D02*
X173530000Y-89870000D01*
D38*
X126364600Y-83664600D02*
X126581600Y-83664600D01*
X206451200Y-83817000D02*
X204901399Y-83817000D01*
X198945821Y-89525000D02*
X198787621Y-89683200D01*
D39*
X98351434Y-89870000D02*
X98282943Y-89801509D01*
X144681729Y-89973399D02*
X142343399Y-89973399D01*
D40*
X190500000Y-89525000D02*
X188170000Y-91855000D01*
D39*
X147504990Y-90118800D02*
X144827130Y-90118800D01*
D38*
X199193399Y-89525000D02*
X198945821Y-89525000D01*
D40*
X188170000Y-91855000D02*
X188170000Y-95380000D01*
D38*
X198787621Y-89683200D02*
X197252379Y-89683200D01*
D39*
X126870000Y-89870000D02*
X109280000Y-89870000D01*
D38*
X204901399Y-83817000D02*
X199193399Y-89525000D01*
D39*
X158290000Y-89870000D02*
X158186601Y-89973399D01*
D38*
X141604600Y-83664600D02*
X141669200Y-83664600D01*
X173530000Y-89870000D02*
X173530000Y-84030000D01*
X173530000Y-84030000D02*
X173844600Y-83715400D01*
X142240000Y-84300000D02*
X141604600Y-83664600D01*
X191704600Y-86695400D02*
X191704600Y-84068400D01*
X191704600Y-84068400D02*
X191351600Y-83715400D01*
D39*
X158186601Y-89973399D02*
X147650391Y-89973399D01*
D38*
X188875000Y-89525000D02*
X191704600Y-86695400D01*
X142240000Y-89870000D02*
X142240000Y-84300000D01*
D39*
X147650391Y-89973399D02*
X147504990Y-90118800D01*
D40*
X188170000Y-95380000D02*
X182660000Y-89870000D01*
D38*
%TO.N,PWR2*%
X191351600Y-80670400D02*
X191351600Y-75536400D01*
D37*
%TO.N,VIout2*%
X183670000Y-79080000D02*
X183610000Y-79140000D01*
X189010000Y-80502000D02*
X186301600Y-83210400D01*
X183670000Y-77930000D02*
X183670000Y-79080000D01*
X189010000Y-79420000D02*
X189010000Y-80502000D01*
X182270000Y-79140000D02*
X183610000Y-79140000D01*
X107012700Y-99801201D02*
X106457100Y-99801201D01*
X185870000Y-79140000D02*
X186520000Y-78490000D01*
X183610000Y-79140000D02*
X185870000Y-79140000D01*
D38*
%TO.N,PWR3*%
X173866000Y-80495600D02*
X173866000Y-75722000D01*
X174040800Y-80670400D02*
X173866000Y-80495600D01*
D37*
%TO.N,VIout3*%
X168990800Y-83210400D02*
X170710000Y-81491200D01*
X167250000Y-78350000D02*
X166057500Y-78350000D01*
%TO.N,VIout4*%
X149290462Y-83210400D02*
X153454800Y-83210400D01*
X149255905Y-83244957D02*
X149290462Y-83210400D01*
D38*
%TO.N,PWR4*%
X159054800Y-80670400D02*
X159054800Y-75561200D01*
%TO.N,PWR5*%
X141683200Y-80605600D02*
X141683200Y-75563200D01*
X141669200Y-80619600D02*
X141683200Y-80605600D01*
D37*
%TO.N,VIout5*%
X111550000Y-79190000D02*
X111550000Y-82185053D01*
X111550000Y-82185053D02*
X111822541Y-82457594D01*
X113430000Y-77310000D02*
X111550000Y-79190000D01*
D38*
%TO.N,PWR6*%
X126581600Y-80619600D02*
X126581600Y-75522400D01*
D37*
%TO.N,VIout6*%
X119655431Y-77925262D02*
X118540262Y-77925262D01*
X118540262Y-78447238D02*
X118540262Y-77925262D01*
X122400000Y-79825000D02*
X121555169Y-79825000D01*
X117962500Y-79025000D02*
X118540262Y-78447238D01*
D38*
%TO.N,PWR7*%
X109372400Y-80568800D02*
X109372400Y-75459600D01*
%TO.N,PWR8*%
X94171200Y-80518000D02*
X94171200Y-75420800D01*
D37*
%TO.N,VIout8*%
X88853200Y-79000000D02*
X89653200Y-79800000D01*
X89653200Y-79800000D02*
X90600000Y-79800000D01*
X107012700Y-104601199D02*
X106690884Y-104601199D01*
X85637500Y-79000000D02*
X88853200Y-79000000D01*
%TO.N,SDA*%
X93767500Y-100260000D02*
X96400000Y-100260000D01*
X142414601Y-96745399D02*
X142080000Y-97080000D01*
X141730000Y-101020000D02*
X133828580Y-101020000D01*
X133828580Y-101020000D02*
X133495600Y-101352980D01*
X169675000Y-94020000D02*
X168806044Y-94020000D01*
X133495600Y-101462980D02*
X133052980Y-101905600D01*
X114856672Y-101905600D02*
X114086672Y-102675600D01*
X133052980Y-101905600D02*
X114856672Y-101905600D01*
X96400000Y-100260000D02*
X96480000Y-100340000D01*
X166080645Y-96745399D02*
X142414601Y-96745399D01*
X133495600Y-101352980D02*
X133495600Y-101462980D01*
%TO.N,COM*%
X121960000Y-105550000D02*
X118040000Y-105550000D01*
X123090000Y-104420000D02*
X121960000Y-105550000D01*
%TO.N,SCL*%
X104087600Y-109147600D02*
X104087600Y-109534400D01*
X104186183Y-109632983D02*
X108381542Y-109632983D01*
X104087600Y-109534400D02*
X104186183Y-109632983D01*
X93767500Y-100910000D02*
X95920000Y-100910000D01*
X108381542Y-109632983D02*
X109682525Y-108332000D01*
X103490000Y-108550000D02*
X104087600Y-109147600D01*
X95920000Y-100910000D02*
X96460000Y-101450000D01*
%TO.N,REF*%
X119260000Y-104400000D02*
X115959297Y-104400000D01*
X115959297Y-104400000D02*
X115845600Y-104513697D01*
%TO.N,PWM4*%
X143770195Y-110822215D02*
X145851326Y-110822215D01*
X94545111Y-111616000D02*
X142976410Y-111616000D01*
X148996505Y-111833495D02*
X149390000Y-111440000D01*
X145851326Y-110822215D02*
X146862606Y-111833495D01*
X142976410Y-111616000D02*
X143770195Y-110822215D01*
X146862606Y-111833495D02*
X148996505Y-111833495D01*
%TO.N,PWM2*%
X148481900Y-98038820D02*
X146980921Y-99539799D01*
X146980921Y-99539799D02*
X144391843Y-99539799D01*
X154616843Y-98399999D02*
X154255664Y-98038820D01*
X144391843Y-99539799D02*
X144141043Y-99288999D01*
X155284400Y-98399999D02*
X154616843Y-98399999D01*
X154255664Y-98038820D02*
X148481900Y-98038820D01*
%TO.N,PWM6*%
X154812279Y-99539799D02*
X154066900Y-98794420D01*
X154066900Y-98794420D02*
X153942684Y-98794420D01*
X162910200Y-99539799D02*
X154812279Y-99539799D01*
X164060000Y-98389999D02*
X162910200Y-99539799D01*
%TO.N,PWM3*%
X207619999Y-100623551D02*
X196497950Y-111745600D01*
X196497950Y-111745600D02*
X156667020Y-111745600D01*
X207619999Y-99510000D02*
X207619999Y-100623551D01*
X155593917Y-110672497D02*
X147670927Y-110672497D01*
X156667020Y-111745600D02*
X155593917Y-110672497D01*
X147670927Y-110672497D02*
X147265529Y-111077895D01*
X147265529Y-111077895D02*
X147175586Y-111077895D01*
%TO.N,+3.3V*%
X120400000Y-103100000D02*
X121125000Y-103825000D01*
X97992500Y-100910000D02*
X97992500Y-101560000D01*
X167684320Y-101884400D02*
X170407020Y-99161700D01*
X126205696Y-104325600D02*
X125311800Y-103431704D01*
X172268300Y-99161700D02*
X172750000Y-98680000D01*
X173094940Y-95970000D02*
X172735100Y-95610160D01*
X120400000Y-103100000D02*
X119737400Y-103100000D01*
X97992500Y-100260000D02*
X97992500Y-100910000D01*
X172735100Y-95610160D02*
X172735100Y-94994900D01*
X132260000Y-104325600D02*
X126205696Y-104325600D01*
X170407020Y-99161700D02*
X172268300Y-99161700D01*
X128350000Y-99380000D02*
X128350000Y-100870000D01*
X119260000Y-103100000D02*
X120400000Y-103100000D01*
X172750000Y-97980000D02*
X172750000Y-97120000D01*
X173060000Y-94670000D02*
X173900000Y-94670000D01*
X159510000Y-101884400D02*
X157068800Y-104325600D01*
X172750000Y-97120000D02*
X173900000Y-95970000D01*
X100320000Y-100310000D02*
X98042500Y-100310000D01*
X172750000Y-98680000D02*
X172750000Y-97980000D01*
X128350000Y-100870000D02*
X128500000Y-101020000D01*
X159510000Y-106210000D02*
X159510000Y-101884400D01*
X172735100Y-94994900D02*
X173060000Y-94670000D01*
X173900000Y-95970000D02*
X173094940Y-95970000D01*
X159510000Y-101884400D02*
X167684320Y-101884400D01*
X173900000Y-94670000D02*
X173900000Y-94020000D01*
X157068800Y-104325600D02*
X132260000Y-104325600D01*
%TO.N,Net-(J3-Pin_1)*%
X109592223Y-107051800D02*
X124078200Y-107051800D01*
X127080000Y-101020000D02*
X127080000Y-99410000D01*
X124078200Y-107051800D02*
X126040000Y-105090000D01*
X109592223Y-107051800D02*
X109275223Y-107368800D01*
%TO.N,VIout5Div*%
X108816100Y-102201199D02*
X110443799Y-102201199D01*
X113284000Y-100584000D02*
X113284000Y-99060000D01*
%TO.N,Net-(LED1-DOUT)*%
X87634400Y-107124400D02*
X89664400Y-107124400D01*
X86360000Y-105850000D02*
X87634400Y-107124400D01*
X89664400Y-107124400D02*
X92590000Y-110050000D01*
X92590000Y-110050000D02*
X92590000Y-110850000D01*
%TO.N,Net-(LED2-DOUT)*%
X138812980Y-69005600D02*
X140328580Y-67490000D01*
X93575600Y-69005600D02*
X138812980Y-69005600D01*
X140328580Y-67490000D02*
X197333052Y-67490000D01*
X92220000Y-67650000D02*
X93575600Y-69005600D01*
%TO.N,VIout7Div*%
X108816100Y-103801199D02*
X108003501Y-103801199D01*
X108816100Y-103801199D02*
X110443797Y-103801199D01*
X108003501Y-103801199D02*
X107968302Y-103766000D01*
%TO.N,VIout6Div*%
X110464600Y-103022001D02*
X111150001Y-103022001D01*
X108816100Y-103001200D02*
X110443799Y-103001200D01*
X111150001Y-103022001D02*
X111252000Y-103124000D01*
%TO.N,VIout2Div*%
X108816100Y-99801199D02*
X110443797Y-99801199D01*
%TO.N,VIout1Div*%
X108816100Y-99001201D02*
X110443799Y-99001201D01*
%TO.N,VIout8Div*%
X108816100Y-104601199D02*
X108287500Y-105129799D01*
X108816100Y-104601199D02*
X110443799Y-104601199D01*
%TO.N,VIout4Div*%
X108816100Y-101401201D02*
X110443799Y-101401201D01*
%TO.N,VIout3Div*%
X108816100Y-100601200D02*
X110443799Y-100601200D01*
%TO.N,outNEO_CTRL_MOOD*%
X138210000Y-110180000D02*
X138285200Y-110104800D01*
X138285200Y-110104800D02*
X147725200Y-110104800D01*
X147725200Y-110104800D02*
X148110000Y-109720000D01*
%TO.N,toNEO_CTRL_MOOD*%
X87630800Y-112120800D02*
X143814375Y-112120800D01*
X86360000Y-110850000D02*
X87630800Y-112120800D01*
X143814375Y-112120800D02*
X144357360Y-111577815D01*
%TD*%
M02*
