%TF.GenerationSoftware,KiCad,Pcbnew,8.0.3*%
%TF.CreationDate,2025-06-03T13:48:53-07:00*%
%TF.ProjectId,Power_Distribution,506f7765-725f-4446-9973-747269627574,rev?*%
%TF.SameCoordinates,Original*%
%TF.FileFunction,Drillmap*%
%TF.FilePolarity,Positive*%
%FSLAX45Y45*%
G04 Gerber Fmt 4.5, Leading zero omitted, Abs format (unit mm)*
G04 Created by KiCad (PCBNEW 8.0.3) date 2025-06-03 13:48:53*
%MOMM*%
%LPD*%
G01*
G04 APERTURE LIST*
%ADD10C,0.100000*%
%ADD11C,0.200000*%
%ADD12C,0.106680*%
%ADD13C,0.320000*%
G04 APERTURE END LIST*
D10*
X8153640Y-5227320D02*
X21153640Y-5227320D01*
X21153640Y-11227320D01*
X8153640Y-11227320D01*
X8153640Y-5227320D01*
D11*
D12*
X8820660Y-8901660D02*
X8927340Y-9008340D01*
X8927340Y-8901660D02*
X8820660Y-9008340D01*
X8820660Y-9501660D02*
X8927340Y-9608340D01*
X8927340Y-9501660D02*
X8820660Y-9608340D01*
X8820660Y-9705660D02*
X8927340Y-9812340D01*
X8927340Y-9705660D02*
X8820660Y-9812340D01*
X8820660Y-10305660D02*
X8927340Y-10412340D01*
X8927340Y-10305660D02*
X8820660Y-10412340D01*
X13419980Y-9392660D02*
X13526660Y-9499340D01*
X13526660Y-9392660D02*
X13419980Y-9499340D01*
X14019980Y-9392660D02*
X14126660Y-9499340D01*
X14126660Y-9392660D02*
X14019980Y-9499340D01*
X14297540Y-9392660D02*
X14404220Y-9499340D01*
X14404220Y-9392660D02*
X14297540Y-9499340D01*
X14897540Y-9392660D02*
X15004220Y-9499340D01*
X15004220Y-9392660D02*
X14897540Y-9499340D01*
X15175100Y-9392660D02*
X15281780Y-9499340D01*
X15281780Y-9392660D02*
X15175100Y-9499340D01*
X15775100Y-9392660D02*
X15881780Y-9499340D01*
X15881780Y-9392660D02*
X15775100Y-9499340D01*
X16052660Y-9391660D02*
X16159340Y-9498340D01*
X16159340Y-9391660D02*
X16052660Y-9498340D01*
X16652660Y-9391660D02*
X16759340Y-9498340D01*
X16759340Y-9391660D02*
X16652660Y-9498340D01*
X20314660Y-8784660D02*
X20421340Y-8891340D01*
X20421340Y-8784660D02*
X20314660Y-8891340D01*
X20314660Y-9384660D02*
X20421340Y-9491340D01*
X20421340Y-9384660D02*
X20314660Y-9491340D01*
X20314660Y-9597660D02*
X20421340Y-9704340D01*
X20421340Y-9597660D02*
X20314660Y-9704340D01*
X20314660Y-10197660D02*
X20421340Y-10304340D01*
X20421340Y-10197660D02*
X20314660Y-10304340D01*
D13*
X9944000Y-10754000D02*
G75*
G02*
X9624000Y-10754000I-160000J0D01*
G01*
X9624000Y-10754000D02*
G75*
G02*
X9944000Y-10754000I160000J0D01*
G01*
X13144000Y-10754000D02*
G75*
G02*
X12824000Y-10754000I-160000J0D01*
G01*
X12824000Y-10754000D02*
G75*
G02*
X13144000Y-10754000I160000J0D01*
G01*
X17944000Y-10754000D02*
G75*
G02*
X17624000Y-10754000I-160000J0D01*
G01*
X17624000Y-10754000D02*
G75*
G02*
X17944000Y-10754000I160000J0D01*
G01*
D11*
X8409417Y-11543804D02*
X8409417Y-11343804D01*
X8409417Y-11343804D02*
X8457036Y-11343804D01*
X8457036Y-11343804D02*
X8485607Y-11353328D01*
X8485607Y-11353328D02*
X8504655Y-11372375D01*
X8504655Y-11372375D02*
X8514179Y-11391423D01*
X8514179Y-11391423D02*
X8523703Y-11429518D01*
X8523703Y-11429518D02*
X8523703Y-11458089D01*
X8523703Y-11458089D02*
X8514179Y-11496185D01*
X8514179Y-11496185D02*
X8504655Y-11515232D01*
X8504655Y-11515232D02*
X8485607Y-11534280D01*
X8485607Y-11534280D02*
X8457036Y-11543804D01*
X8457036Y-11543804D02*
X8409417Y-11543804D01*
X8609417Y-11543804D02*
X8609417Y-11410470D01*
X8609417Y-11448566D02*
X8618941Y-11429518D01*
X8618941Y-11429518D02*
X8628464Y-11419994D01*
X8628464Y-11419994D02*
X8647512Y-11410470D01*
X8647512Y-11410470D02*
X8666560Y-11410470D01*
X8733226Y-11543804D02*
X8733226Y-11410470D01*
X8733226Y-11343804D02*
X8723703Y-11353328D01*
X8723703Y-11353328D02*
X8733226Y-11362851D01*
X8733226Y-11362851D02*
X8742750Y-11353328D01*
X8742750Y-11353328D02*
X8733226Y-11343804D01*
X8733226Y-11343804D02*
X8733226Y-11362851D01*
X8857036Y-11543804D02*
X8837988Y-11534280D01*
X8837988Y-11534280D02*
X8828464Y-11515232D01*
X8828464Y-11515232D02*
X8828464Y-11343804D01*
X8961798Y-11543804D02*
X8942750Y-11534280D01*
X8942750Y-11534280D02*
X8933226Y-11515232D01*
X8933226Y-11515232D02*
X8933226Y-11343804D01*
X9190369Y-11543804D02*
X9190369Y-11343804D01*
X9190369Y-11343804D02*
X9257036Y-11486661D01*
X9257036Y-11486661D02*
X9323703Y-11343804D01*
X9323703Y-11343804D02*
X9323703Y-11543804D01*
X9504655Y-11543804D02*
X9504655Y-11439042D01*
X9504655Y-11439042D02*
X9495131Y-11419994D01*
X9495131Y-11419994D02*
X9476084Y-11410470D01*
X9476084Y-11410470D02*
X9437988Y-11410470D01*
X9437988Y-11410470D02*
X9418941Y-11419994D01*
X9504655Y-11534280D02*
X9485607Y-11543804D01*
X9485607Y-11543804D02*
X9437988Y-11543804D01*
X9437988Y-11543804D02*
X9418941Y-11534280D01*
X9418941Y-11534280D02*
X9409417Y-11515232D01*
X9409417Y-11515232D02*
X9409417Y-11496185D01*
X9409417Y-11496185D02*
X9418941Y-11477137D01*
X9418941Y-11477137D02*
X9437988Y-11467613D01*
X9437988Y-11467613D02*
X9485607Y-11467613D01*
X9485607Y-11467613D02*
X9504655Y-11458089D01*
X9599893Y-11410470D02*
X9599893Y-11610470D01*
X9599893Y-11419994D02*
X9618941Y-11410470D01*
X9618941Y-11410470D02*
X9657036Y-11410470D01*
X9657036Y-11410470D02*
X9676084Y-11419994D01*
X9676084Y-11419994D02*
X9685607Y-11429518D01*
X9685607Y-11429518D02*
X9695131Y-11448566D01*
X9695131Y-11448566D02*
X9695131Y-11505708D01*
X9695131Y-11505708D02*
X9685607Y-11524756D01*
X9685607Y-11524756D02*
X9676084Y-11534280D01*
X9676084Y-11534280D02*
X9657036Y-11543804D01*
X9657036Y-11543804D02*
X9618941Y-11543804D01*
X9618941Y-11543804D02*
X9599893Y-11534280D01*
X9780845Y-11524756D02*
X9790369Y-11534280D01*
X9790369Y-11534280D02*
X9780845Y-11543804D01*
X9780845Y-11543804D02*
X9771322Y-11534280D01*
X9771322Y-11534280D02*
X9780845Y-11524756D01*
X9780845Y-11524756D02*
X9780845Y-11543804D01*
X9780845Y-11419994D02*
X9790369Y-11429518D01*
X9790369Y-11429518D02*
X9780845Y-11439042D01*
X9780845Y-11439042D02*
X9771322Y-11429518D01*
X9771322Y-11429518D02*
X9780845Y-11419994D01*
X9780845Y-11419994D02*
X9780845Y-11439042D01*
D12*
X8041960Y-11818980D02*
X8148640Y-11925660D01*
X8148640Y-11818980D02*
X8041960Y-11925660D01*
D11*
X8514179Y-11963804D02*
X8399893Y-11963804D01*
X8457036Y-11963804D02*
X8457036Y-11763804D01*
X8457036Y-11763804D02*
X8437988Y-11792375D01*
X8437988Y-11792375D02*
X8418941Y-11811423D01*
X8418941Y-11811423D02*
X8399893Y-11820947D01*
X8599893Y-11944756D02*
X8609417Y-11954280D01*
X8609417Y-11954280D02*
X8599893Y-11963804D01*
X8599893Y-11963804D02*
X8590369Y-11954280D01*
X8590369Y-11954280D02*
X8599893Y-11944756D01*
X8599893Y-11944756D02*
X8599893Y-11963804D01*
X8733226Y-11763804D02*
X8752274Y-11763804D01*
X8752274Y-11763804D02*
X8771322Y-11773328D01*
X8771322Y-11773328D02*
X8780845Y-11782851D01*
X8780845Y-11782851D02*
X8790369Y-11801899D01*
X8790369Y-11801899D02*
X8799893Y-11839994D01*
X8799893Y-11839994D02*
X8799893Y-11887613D01*
X8799893Y-11887613D02*
X8790369Y-11925708D01*
X8790369Y-11925708D02*
X8780845Y-11944756D01*
X8780845Y-11944756D02*
X8771322Y-11954280D01*
X8771322Y-11954280D02*
X8752274Y-11963804D01*
X8752274Y-11963804D02*
X8733226Y-11963804D01*
X8733226Y-11963804D02*
X8714179Y-11954280D01*
X8714179Y-11954280D02*
X8704655Y-11944756D01*
X8704655Y-11944756D02*
X8695131Y-11925708D01*
X8695131Y-11925708D02*
X8685607Y-11887613D01*
X8685607Y-11887613D02*
X8685607Y-11839994D01*
X8685607Y-11839994D02*
X8695131Y-11801899D01*
X8695131Y-11801899D02*
X8704655Y-11782851D01*
X8704655Y-11782851D02*
X8714179Y-11773328D01*
X8714179Y-11773328D02*
X8733226Y-11763804D01*
X8971322Y-11763804D02*
X8933226Y-11763804D01*
X8933226Y-11763804D02*
X8914179Y-11773328D01*
X8914179Y-11773328D02*
X8904655Y-11782851D01*
X8904655Y-11782851D02*
X8885607Y-11811423D01*
X8885607Y-11811423D02*
X8876084Y-11849518D01*
X8876084Y-11849518D02*
X8876084Y-11925708D01*
X8876084Y-11925708D02*
X8885607Y-11944756D01*
X8885607Y-11944756D02*
X8895131Y-11954280D01*
X8895131Y-11954280D02*
X8914179Y-11963804D01*
X8914179Y-11963804D02*
X8952274Y-11963804D01*
X8952274Y-11963804D02*
X8971322Y-11954280D01*
X8971322Y-11954280D02*
X8980845Y-11944756D01*
X8980845Y-11944756D02*
X8990369Y-11925708D01*
X8990369Y-11925708D02*
X8990369Y-11878089D01*
X8990369Y-11878089D02*
X8980845Y-11859042D01*
X8980845Y-11859042D02*
X8971322Y-11849518D01*
X8971322Y-11849518D02*
X8952274Y-11839994D01*
X8952274Y-11839994D02*
X8914179Y-11839994D01*
X8914179Y-11839994D02*
X8895131Y-11849518D01*
X8895131Y-11849518D02*
X8885607Y-11859042D01*
X8885607Y-11859042D02*
X8876084Y-11878089D01*
X9057036Y-11763804D02*
X9190369Y-11763804D01*
X9190369Y-11763804D02*
X9104655Y-11963804D01*
X9266560Y-11963804D02*
X9266560Y-11830470D01*
X9266560Y-11849518D02*
X9276084Y-11839994D01*
X9276084Y-11839994D02*
X9295131Y-11830470D01*
X9295131Y-11830470D02*
X9323703Y-11830470D01*
X9323703Y-11830470D02*
X9342750Y-11839994D01*
X9342750Y-11839994D02*
X9352274Y-11859042D01*
X9352274Y-11859042D02*
X9352274Y-11963804D01*
X9352274Y-11859042D02*
X9361798Y-11839994D01*
X9361798Y-11839994D02*
X9380845Y-11830470D01*
X9380845Y-11830470D02*
X9409417Y-11830470D01*
X9409417Y-11830470D02*
X9428465Y-11839994D01*
X9428465Y-11839994D02*
X9437988Y-11859042D01*
X9437988Y-11859042D02*
X9437988Y-11963804D01*
X9533226Y-11963804D02*
X9533226Y-11830470D01*
X9533226Y-11849518D02*
X9542750Y-11839994D01*
X9542750Y-11839994D02*
X9561798Y-11830470D01*
X9561798Y-11830470D02*
X9590369Y-11830470D01*
X9590369Y-11830470D02*
X9609417Y-11839994D01*
X9609417Y-11839994D02*
X9618941Y-11859042D01*
X9618941Y-11859042D02*
X9618941Y-11963804D01*
X9618941Y-11859042D02*
X9628465Y-11839994D01*
X9628465Y-11839994D02*
X9647512Y-11830470D01*
X9647512Y-11830470D02*
X9676084Y-11830470D01*
X9676084Y-11830470D02*
X9695131Y-11839994D01*
X9695131Y-11839994D02*
X9704655Y-11859042D01*
X9704655Y-11859042D02*
X9704655Y-11963804D01*
X10095131Y-11754280D02*
X9923703Y-12011423D01*
X10352274Y-11763804D02*
X10371322Y-11763804D01*
X10371322Y-11763804D02*
X10390369Y-11773328D01*
X10390369Y-11773328D02*
X10399893Y-11782851D01*
X10399893Y-11782851D02*
X10409417Y-11801899D01*
X10409417Y-11801899D02*
X10418941Y-11839994D01*
X10418941Y-11839994D02*
X10418941Y-11887613D01*
X10418941Y-11887613D02*
X10409417Y-11925708D01*
X10409417Y-11925708D02*
X10399893Y-11944756D01*
X10399893Y-11944756D02*
X10390369Y-11954280D01*
X10390369Y-11954280D02*
X10371322Y-11963804D01*
X10371322Y-11963804D02*
X10352274Y-11963804D01*
X10352274Y-11963804D02*
X10333227Y-11954280D01*
X10333227Y-11954280D02*
X10323703Y-11944756D01*
X10323703Y-11944756D02*
X10314179Y-11925708D01*
X10314179Y-11925708D02*
X10304655Y-11887613D01*
X10304655Y-11887613D02*
X10304655Y-11839994D01*
X10304655Y-11839994D02*
X10314179Y-11801899D01*
X10314179Y-11801899D02*
X10323703Y-11782851D01*
X10323703Y-11782851D02*
X10333227Y-11773328D01*
X10333227Y-11773328D02*
X10352274Y-11763804D01*
X10504655Y-11944756D02*
X10514179Y-11954280D01*
X10514179Y-11954280D02*
X10504655Y-11963804D01*
X10504655Y-11963804D02*
X10495131Y-11954280D01*
X10495131Y-11954280D02*
X10504655Y-11944756D01*
X10504655Y-11944756D02*
X10504655Y-11963804D01*
X10637988Y-11763804D02*
X10657036Y-11763804D01*
X10657036Y-11763804D02*
X10676084Y-11773328D01*
X10676084Y-11773328D02*
X10685608Y-11782851D01*
X10685608Y-11782851D02*
X10695131Y-11801899D01*
X10695131Y-11801899D02*
X10704655Y-11839994D01*
X10704655Y-11839994D02*
X10704655Y-11887613D01*
X10704655Y-11887613D02*
X10695131Y-11925708D01*
X10695131Y-11925708D02*
X10685608Y-11944756D01*
X10685608Y-11944756D02*
X10676084Y-11954280D01*
X10676084Y-11954280D02*
X10657036Y-11963804D01*
X10657036Y-11963804D02*
X10637988Y-11963804D01*
X10637988Y-11963804D02*
X10618941Y-11954280D01*
X10618941Y-11954280D02*
X10609417Y-11944756D01*
X10609417Y-11944756D02*
X10599893Y-11925708D01*
X10599893Y-11925708D02*
X10590369Y-11887613D01*
X10590369Y-11887613D02*
X10590369Y-11839994D01*
X10590369Y-11839994D02*
X10599893Y-11801899D01*
X10599893Y-11801899D02*
X10609417Y-11782851D01*
X10609417Y-11782851D02*
X10618941Y-11773328D01*
X10618941Y-11773328D02*
X10637988Y-11763804D01*
X10876084Y-11830470D02*
X10876084Y-11963804D01*
X10828465Y-11754280D02*
X10780846Y-11897137D01*
X10780846Y-11897137D02*
X10904655Y-11897137D01*
X10971322Y-11782851D02*
X10980846Y-11773328D01*
X10980846Y-11773328D02*
X10999893Y-11763804D01*
X10999893Y-11763804D02*
X11047512Y-11763804D01*
X11047512Y-11763804D02*
X11066560Y-11773328D01*
X11066560Y-11773328D02*
X11076084Y-11782851D01*
X11076084Y-11782851D02*
X11085608Y-11801899D01*
X11085608Y-11801899D02*
X11085608Y-11820947D01*
X11085608Y-11820947D02*
X11076084Y-11849518D01*
X11076084Y-11849518D02*
X10961798Y-11963804D01*
X10961798Y-11963804D02*
X11085608Y-11963804D01*
X11209417Y-11763804D02*
X11228465Y-11763804D01*
X11228465Y-11763804D02*
X11247512Y-11773328D01*
X11247512Y-11773328D02*
X11257036Y-11782851D01*
X11257036Y-11782851D02*
X11266560Y-11801899D01*
X11266560Y-11801899D02*
X11276084Y-11839994D01*
X11276084Y-11839994D02*
X11276084Y-11887613D01*
X11276084Y-11887613D02*
X11266560Y-11925708D01*
X11266560Y-11925708D02*
X11257036Y-11944756D01*
X11257036Y-11944756D02*
X11247512Y-11954280D01*
X11247512Y-11954280D02*
X11228465Y-11963804D01*
X11228465Y-11963804D02*
X11209417Y-11963804D01*
X11209417Y-11963804D02*
X11190369Y-11954280D01*
X11190369Y-11954280D02*
X11180846Y-11944756D01*
X11180846Y-11944756D02*
X11171322Y-11925708D01*
X11171322Y-11925708D02*
X11161798Y-11887613D01*
X11161798Y-11887613D02*
X11161798Y-11839994D01*
X11161798Y-11839994D02*
X11171322Y-11801899D01*
X11171322Y-11801899D02*
X11180846Y-11782851D01*
X11180846Y-11782851D02*
X11190369Y-11773328D01*
X11190369Y-11773328D02*
X11209417Y-11763804D01*
X11352274Y-11763804D02*
X11352274Y-11801899D01*
X11428465Y-11763804D02*
X11428465Y-11801899D01*
X11723703Y-12039994D02*
X11714179Y-12030470D01*
X11714179Y-12030470D02*
X11695131Y-12001899D01*
X11695131Y-12001899D02*
X11685608Y-11982851D01*
X11685608Y-11982851D02*
X11676084Y-11954280D01*
X11676084Y-11954280D02*
X11666560Y-11906661D01*
X11666560Y-11906661D02*
X11666560Y-11868566D01*
X11666560Y-11868566D02*
X11676084Y-11820947D01*
X11676084Y-11820947D02*
X11685608Y-11792375D01*
X11685608Y-11792375D02*
X11695131Y-11773328D01*
X11695131Y-11773328D02*
X11714179Y-11744756D01*
X11714179Y-11744756D02*
X11723703Y-11735232D01*
X11904655Y-11963804D02*
X11790369Y-11963804D01*
X11847512Y-11963804D02*
X11847512Y-11763804D01*
X11847512Y-11763804D02*
X11828465Y-11792375D01*
X11828465Y-11792375D02*
X11809417Y-11811423D01*
X11809417Y-11811423D02*
X11790369Y-11820947D01*
X12076084Y-11763804D02*
X12037988Y-11763804D01*
X12037988Y-11763804D02*
X12018941Y-11773328D01*
X12018941Y-11773328D02*
X12009417Y-11782851D01*
X12009417Y-11782851D02*
X11990369Y-11811423D01*
X11990369Y-11811423D02*
X11980846Y-11849518D01*
X11980846Y-11849518D02*
X11980846Y-11925708D01*
X11980846Y-11925708D02*
X11990369Y-11944756D01*
X11990369Y-11944756D02*
X11999893Y-11954280D01*
X11999893Y-11954280D02*
X12018941Y-11963804D01*
X12018941Y-11963804D02*
X12057036Y-11963804D01*
X12057036Y-11963804D02*
X12076084Y-11954280D01*
X12076084Y-11954280D02*
X12085608Y-11944756D01*
X12085608Y-11944756D02*
X12095131Y-11925708D01*
X12095131Y-11925708D02*
X12095131Y-11878089D01*
X12095131Y-11878089D02*
X12085608Y-11859042D01*
X12085608Y-11859042D02*
X12076084Y-11849518D01*
X12076084Y-11849518D02*
X12057036Y-11839994D01*
X12057036Y-11839994D02*
X12018941Y-11839994D01*
X12018941Y-11839994D02*
X11999893Y-11849518D01*
X11999893Y-11849518D02*
X11990369Y-11859042D01*
X11990369Y-11859042D02*
X11980846Y-11878089D01*
X12333227Y-11963804D02*
X12333227Y-11763804D01*
X12418941Y-11963804D02*
X12418941Y-11859042D01*
X12418941Y-11859042D02*
X12409417Y-11839994D01*
X12409417Y-11839994D02*
X12390370Y-11830470D01*
X12390370Y-11830470D02*
X12361798Y-11830470D01*
X12361798Y-11830470D02*
X12342750Y-11839994D01*
X12342750Y-11839994D02*
X12333227Y-11849518D01*
X12542750Y-11963804D02*
X12523703Y-11954280D01*
X12523703Y-11954280D02*
X12514179Y-11944756D01*
X12514179Y-11944756D02*
X12504655Y-11925708D01*
X12504655Y-11925708D02*
X12504655Y-11868566D01*
X12504655Y-11868566D02*
X12514179Y-11849518D01*
X12514179Y-11849518D02*
X12523703Y-11839994D01*
X12523703Y-11839994D02*
X12542750Y-11830470D01*
X12542750Y-11830470D02*
X12571322Y-11830470D01*
X12571322Y-11830470D02*
X12590370Y-11839994D01*
X12590370Y-11839994D02*
X12599893Y-11849518D01*
X12599893Y-11849518D02*
X12609417Y-11868566D01*
X12609417Y-11868566D02*
X12609417Y-11925708D01*
X12609417Y-11925708D02*
X12599893Y-11944756D01*
X12599893Y-11944756D02*
X12590370Y-11954280D01*
X12590370Y-11954280D02*
X12571322Y-11963804D01*
X12571322Y-11963804D02*
X12542750Y-11963804D01*
X12723703Y-11963804D02*
X12704655Y-11954280D01*
X12704655Y-11954280D02*
X12695131Y-11935232D01*
X12695131Y-11935232D02*
X12695131Y-11763804D01*
X12876084Y-11954280D02*
X12857036Y-11963804D01*
X12857036Y-11963804D02*
X12818941Y-11963804D01*
X12818941Y-11963804D02*
X12799893Y-11954280D01*
X12799893Y-11954280D02*
X12790370Y-11935232D01*
X12790370Y-11935232D02*
X12790370Y-11859042D01*
X12790370Y-11859042D02*
X12799893Y-11839994D01*
X12799893Y-11839994D02*
X12818941Y-11830470D01*
X12818941Y-11830470D02*
X12857036Y-11830470D01*
X12857036Y-11830470D02*
X12876084Y-11839994D01*
X12876084Y-11839994D02*
X12885608Y-11859042D01*
X12885608Y-11859042D02*
X12885608Y-11878089D01*
X12885608Y-11878089D02*
X12790370Y-11897137D01*
X12961798Y-11954280D02*
X12980846Y-11963804D01*
X12980846Y-11963804D02*
X13018941Y-11963804D01*
X13018941Y-11963804D02*
X13037989Y-11954280D01*
X13037989Y-11954280D02*
X13047512Y-11935232D01*
X13047512Y-11935232D02*
X13047512Y-11925708D01*
X13047512Y-11925708D02*
X13037989Y-11906661D01*
X13037989Y-11906661D02*
X13018941Y-11897137D01*
X13018941Y-11897137D02*
X12990370Y-11897137D01*
X12990370Y-11897137D02*
X12971322Y-11887613D01*
X12971322Y-11887613D02*
X12961798Y-11868566D01*
X12961798Y-11868566D02*
X12961798Y-11859042D01*
X12961798Y-11859042D02*
X12971322Y-11839994D01*
X12971322Y-11839994D02*
X12990370Y-11830470D01*
X12990370Y-11830470D02*
X13018941Y-11830470D01*
X13018941Y-11830470D02*
X13037989Y-11839994D01*
X13114179Y-12039994D02*
X13123703Y-12030470D01*
X13123703Y-12030470D02*
X13142751Y-12001899D01*
X13142751Y-12001899D02*
X13152274Y-11982851D01*
X13152274Y-11982851D02*
X13161798Y-11954280D01*
X13161798Y-11954280D02*
X13171322Y-11906661D01*
X13171322Y-11906661D02*
X13171322Y-11868566D01*
X13171322Y-11868566D02*
X13161798Y-11820947D01*
X13161798Y-11820947D02*
X13152274Y-11792375D01*
X13152274Y-11792375D02*
X13142751Y-11773328D01*
X13142751Y-11773328D02*
X13123703Y-11744756D01*
X13123703Y-11744756D02*
X13114179Y-11735232D01*
X13476084Y-12039994D02*
X13466560Y-12030470D01*
X13466560Y-12030470D02*
X13447512Y-12001899D01*
X13447512Y-12001899D02*
X13437989Y-11982851D01*
X13437989Y-11982851D02*
X13428465Y-11954280D01*
X13428465Y-11954280D02*
X13418941Y-11906661D01*
X13418941Y-11906661D02*
X13418941Y-11868566D01*
X13418941Y-11868566D02*
X13428465Y-11820947D01*
X13428465Y-11820947D02*
X13437989Y-11792375D01*
X13437989Y-11792375D02*
X13447512Y-11773328D01*
X13447512Y-11773328D02*
X13466560Y-11744756D01*
X13466560Y-11744756D02*
X13476084Y-11735232D01*
X13552274Y-11830470D02*
X13552274Y-11963804D01*
X13552274Y-11849518D02*
X13561798Y-11839994D01*
X13561798Y-11839994D02*
X13580846Y-11830470D01*
X13580846Y-11830470D02*
X13609417Y-11830470D01*
X13609417Y-11830470D02*
X13628465Y-11839994D01*
X13628465Y-11839994D02*
X13637989Y-11859042D01*
X13637989Y-11859042D02*
X13637989Y-11963804D01*
X13761798Y-11963804D02*
X13742751Y-11954280D01*
X13742751Y-11954280D02*
X13733227Y-11944756D01*
X13733227Y-11944756D02*
X13723703Y-11925708D01*
X13723703Y-11925708D02*
X13723703Y-11868566D01*
X13723703Y-11868566D02*
X13733227Y-11849518D01*
X13733227Y-11849518D02*
X13742751Y-11839994D01*
X13742751Y-11839994D02*
X13761798Y-11830470D01*
X13761798Y-11830470D02*
X13790370Y-11830470D01*
X13790370Y-11830470D02*
X13809417Y-11839994D01*
X13809417Y-11839994D02*
X13818941Y-11849518D01*
X13818941Y-11849518D02*
X13828465Y-11868566D01*
X13828465Y-11868566D02*
X13828465Y-11925708D01*
X13828465Y-11925708D02*
X13818941Y-11944756D01*
X13818941Y-11944756D02*
X13809417Y-11954280D01*
X13809417Y-11954280D02*
X13790370Y-11963804D01*
X13790370Y-11963804D02*
X13761798Y-11963804D01*
X13885608Y-11830470D02*
X13961798Y-11830470D01*
X13914179Y-11763804D02*
X13914179Y-11935232D01*
X13914179Y-11935232D02*
X13923703Y-11954280D01*
X13923703Y-11954280D02*
X13942751Y-11963804D01*
X13942751Y-11963804D02*
X13961798Y-11963804D01*
X14180846Y-11830470D02*
X14180846Y-12030470D01*
X14180846Y-11839994D02*
X14199893Y-11830470D01*
X14199893Y-11830470D02*
X14237989Y-11830470D01*
X14237989Y-11830470D02*
X14257036Y-11839994D01*
X14257036Y-11839994D02*
X14266560Y-11849518D01*
X14266560Y-11849518D02*
X14276084Y-11868566D01*
X14276084Y-11868566D02*
X14276084Y-11925708D01*
X14276084Y-11925708D02*
X14266560Y-11944756D01*
X14266560Y-11944756D02*
X14257036Y-11954280D01*
X14257036Y-11954280D02*
X14237989Y-11963804D01*
X14237989Y-11963804D02*
X14199893Y-11963804D01*
X14199893Y-11963804D02*
X14180846Y-11954280D01*
X14390370Y-11963804D02*
X14371322Y-11954280D01*
X14371322Y-11954280D02*
X14361798Y-11935232D01*
X14361798Y-11935232D02*
X14361798Y-11763804D01*
X14552274Y-11963804D02*
X14552274Y-11859042D01*
X14552274Y-11859042D02*
X14542751Y-11839994D01*
X14542751Y-11839994D02*
X14523703Y-11830470D01*
X14523703Y-11830470D02*
X14485608Y-11830470D01*
X14485608Y-11830470D02*
X14466560Y-11839994D01*
X14552274Y-11954280D02*
X14533227Y-11963804D01*
X14533227Y-11963804D02*
X14485608Y-11963804D01*
X14485608Y-11963804D02*
X14466560Y-11954280D01*
X14466560Y-11954280D02*
X14457036Y-11935232D01*
X14457036Y-11935232D02*
X14457036Y-11916185D01*
X14457036Y-11916185D02*
X14466560Y-11897137D01*
X14466560Y-11897137D02*
X14485608Y-11887613D01*
X14485608Y-11887613D02*
X14533227Y-11887613D01*
X14533227Y-11887613D02*
X14552274Y-11878089D01*
X14618941Y-11830470D02*
X14695132Y-11830470D01*
X14647513Y-11763804D02*
X14647513Y-11935232D01*
X14647513Y-11935232D02*
X14657036Y-11954280D01*
X14657036Y-11954280D02*
X14676084Y-11963804D01*
X14676084Y-11963804D02*
X14695132Y-11963804D01*
X14837989Y-11954280D02*
X14818941Y-11963804D01*
X14818941Y-11963804D02*
X14780846Y-11963804D01*
X14780846Y-11963804D02*
X14761798Y-11954280D01*
X14761798Y-11954280D02*
X14752274Y-11935232D01*
X14752274Y-11935232D02*
X14752274Y-11859042D01*
X14752274Y-11859042D02*
X14761798Y-11839994D01*
X14761798Y-11839994D02*
X14780846Y-11830470D01*
X14780846Y-11830470D02*
X14818941Y-11830470D01*
X14818941Y-11830470D02*
X14837989Y-11839994D01*
X14837989Y-11839994D02*
X14847513Y-11859042D01*
X14847513Y-11859042D02*
X14847513Y-11878089D01*
X14847513Y-11878089D02*
X14752274Y-11897137D01*
X15018941Y-11963804D02*
X15018941Y-11763804D01*
X15018941Y-11954280D02*
X14999894Y-11963804D01*
X14999894Y-11963804D02*
X14961798Y-11963804D01*
X14961798Y-11963804D02*
X14942751Y-11954280D01*
X14942751Y-11954280D02*
X14933227Y-11944756D01*
X14933227Y-11944756D02*
X14923703Y-11925708D01*
X14923703Y-11925708D02*
X14923703Y-11868566D01*
X14923703Y-11868566D02*
X14933227Y-11849518D01*
X14933227Y-11849518D02*
X14942751Y-11839994D01*
X14942751Y-11839994D02*
X14961798Y-11830470D01*
X14961798Y-11830470D02*
X14999894Y-11830470D01*
X14999894Y-11830470D02*
X15018941Y-11839994D01*
X15095132Y-12039994D02*
X15104655Y-12030470D01*
X15104655Y-12030470D02*
X15123703Y-12001899D01*
X15123703Y-12001899D02*
X15133227Y-11982851D01*
X15133227Y-11982851D02*
X15142751Y-11954280D01*
X15142751Y-11954280D02*
X15152274Y-11906661D01*
X15152274Y-11906661D02*
X15152274Y-11868566D01*
X15152274Y-11868566D02*
X15142751Y-11820947D01*
X15142751Y-11820947D02*
X15133227Y-11792375D01*
X15133227Y-11792375D02*
X15123703Y-11773328D01*
X15123703Y-11773328D02*
X15104655Y-11744756D01*
X15104655Y-11744756D02*
X15095132Y-11735232D01*
X8148640Y-12136320D02*
G75*
G02*
X7948640Y-12136320I-100000J0D01*
G01*
X7948640Y-12136320D02*
G75*
G02*
X8148640Y-12136320I100000J0D01*
G01*
X8390369Y-12027804D02*
X8514179Y-12027804D01*
X8514179Y-12027804D02*
X8447512Y-12103994D01*
X8447512Y-12103994D02*
X8476084Y-12103994D01*
X8476084Y-12103994D02*
X8495131Y-12113518D01*
X8495131Y-12113518D02*
X8504655Y-12123042D01*
X8504655Y-12123042D02*
X8514179Y-12142089D01*
X8514179Y-12142089D02*
X8514179Y-12189708D01*
X8514179Y-12189708D02*
X8504655Y-12208756D01*
X8504655Y-12208756D02*
X8495131Y-12218280D01*
X8495131Y-12218280D02*
X8476084Y-12227804D01*
X8476084Y-12227804D02*
X8418941Y-12227804D01*
X8418941Y-12227804D02*
X8399893Y-12218280D01*
X8399893Y-12218280D02*
X8390369Y-12208756D01*
X8599893Y-12208756D02*
X8609417Y-12218280D01*
X8609417Y-12218280D02*
X8599893Y-12227804D01*
X8599893Y-12227804D02*
X8590369Y-12218280D01*
X8590369Y-12218280D02*
X8599893Y-12208756D01*
X8599893Y-12208756D02*
X8599893Y-12227804D01*
X8685607Y-12046851D02*
X8695131Y-12037328D01*
X8695131Y-12037328D02*
X8714179Y-12027804D01*
X8714179Y-12027804D02*
X8761798Y-12027804D01*
X8761798Y-12027804D02*
X8780845Y-12037328D01*
X8780845Y-12037328D02*
X8790369Y-12046851D01*
X8790369Y-12046851D02*
X8799893Y-12065899D01*
X8799893Y-12065899D02*
X8799893Y-12084947D01*
X8799893Y-12084947D02*
X8790369Y-12113518D01*
X8790369Y-12113518D02*
X8676084Y-12227804D01*
X8676084Y-12227804D02*
X8799893Y-12227804D01*
X8923703Y-12027804D02*
X8942750Y-12027804D01*
X8942750Y-12027804D02*
X8961798Y-12037328D01*
X8961798Y-12037328D02*
X8971322Y-12046851D01*
X8971322Y-12046851D02*
X8980845Y-12065899D01*
X8980845Y-12065899D02*
X8990369Y-12103994D01*
X8990369Y-12103994D02*
X8990369Y-12151613D01*
X8990369Y-12151613D02*
X8980845Y-12189708D01*
X8980845Y-12189708D02*
X8971322Y-12208756D01*
X8971322Y-12208756D02*
X8961798Y-12218280D01*
X8961798Y-12218280D02*
X8942750Y-12227804D01*
X8942750Y-12227804D02*
X8923703Y-12227804D01*
X8923703Y-12227804D02*
X8904655Y-12218280D01*
X8904655Y-12218280D02*
X8895131Y-12208756D01*
X8895131Y-12208756D02*
X8885607Y-12189708D01*
X8885607Y-12189708D02*
X8876084Y-12151613D01*
X8876084Y-12151613D02*
X8876084Y-12103994D01*
X8876084Y-12103994D02*
X8885607Y-12065899D01*
X8885607Y-12065899D02*
X8895131Y-12046851D01*
X8895131Y-12046851D02*
X8904655Y-12037328D01*
X8904655Y-12037328D02*
X8923703Y-12027804D01*
X9114179Y-12027804D02*
X9133226Y-12027804D01*
X9133226Y-12027804D02*
X9152274Y-12037328D01*
X9152274Y-12037328D02*
X9161798Y-12046851D01*
X9161798Y-12046851D02*
X9171322Y-12065899D01*
X9171322Y-12065899D02*
X9180845Y-12103994D01*
X9180845Y-12103994D02*
X9180845Y-12151613D01*
X9180845Y-12151613D02*
X9171322Y-12189708D01*
X9171322Y-12189708D02*
X9161798Y-12208756D01*
X9161798Y-12208756D02*
X9152274Y-12218280D01*
X9152274Y-12218280D02*
X9133226Y-12227804D01*
X9133226Y-12227804D02*
X9114179Y-12227804D01*
X9114179Y-12227804D02*
X9095131Y-12218280D01*
X9095131Y-12218280D02*
X9085607Y-12208756D01*
X9085607Y-12208756D02*
X9076084Y-12189708D01*
X9076084Y-12189708D02*
X9066560Y-12151613D01*
X9066560Y-12151613D02*
X9066560Y-12103994D01*
X9066560Y-12103994D02*
X9076084Y-12065899D01*
X9076084Y-12065899D02*
X9085607Y-12046851D01*
X9085607Y-12046851D02*
X9095131Y-12037328D01*
X9095131Y-12037328D02*
X9114179Y-12027804D01*
X9266560Y-12227804D02*
X9266560Y-12094470D01*
X9266560Y-12113518D02*
X9276084Y-12103994D01*
X9276084Y-12103994D02*
X9295131Y-12094470D01*
X9295131Y-12094470D02*
X9323703Y-12094470D01*
X9323703Y-12094470D02*
X9342750Y-12103994D01*
X9342750Y-12103994D02*
X9352274Y-12123042D01*
X9352274Y-12123042D02*
X9352274Y-12227804D01*
X9352274Y-12123042D02*
X9361798Y-12103994D01*
X9361798Y-12103994D02*
X9380845Y-12094470D01*
X9380845Y-12094470D02*
X9409417Y-12094470D01*
X9409417Y-12094470D02*
X9428465Y-12103994D01*
X9428465Y-12103994D02*
X9437988Y-12123042D01*
X9437988Y-12123042D02*
X9437988Y-12227804D01*
X9533226Y-12227804D02*
X9533226Y-12094470D01*
X9533226Y-12113518D02*
X9542750Y-12103994D01*
X9542750Y-12103994D02*
X9561798Y-12094470D01*
X9561798Y-12094470D02*
X9590369Y-12094470D01*
X9590369Y-12094470D02*
X9609417Y-12103994D01*
X9609417Y-12103994D02*
X9618941Y-12123042D01*
X9618941Y-12123042D02*
X9618941Y-12227804D01*
X9618941Y-12123042D02*
X9628465Y-12103994D01*
X9628465Y-12103994D02*
X9647512Y-12094470D01*
X9647512Y-12094470D02*
X9676084Y-12094470D01*
X9676084Y-12094470D02*
X9695131Y-12103994D01*
X9695131Y-12103994D02*
X9704655Y-12123042D01*
X9704655Y-12123042D02*
X9704655Y-12227804D01*
X10095131Y-12018280D02*
X9923703Y-12275423D01*
X10352274Y-12027804D02*
X10371322Y-12027804D01*
X10371322Y-12027804D02*
X10390369Y-12037328D01*
X10390369Y-12037328D02*
X10399893Y-12046851D01*
X10399893Y-12046851D02*
X10409417Y-12065899D01*
X10409417Y-12065899D02*
X10418941Y-12103994D01*
X10418941Y-12103994D02*
X10418941Y-12151613D01*
X10418941Y-12151613D02*
X10409417Y-12189708D01*
X10409417Y-12189708D02*
X10399893Y-12208756D01*
X10399893Y-12208756D02*
X10390369Y-12218280D01*
X10390369Y-12218280D02*
X10371322Y-12227804D01*
X10371322Y-12227804D02*
X10352274Y-12227804D01*
X10352274Y-12227804D02*
X10333227Y-12218280D01*
X10333227Y-12218280D02*
X10323703Y-12208756D01*
X10323703Y-12208756D02*
X10314179Y-12189708D01*
X10314179Y-12189708D02*
X10304655Y-12151613D01*
X10304655Y-12151613D02*
X10304655Y-12103994D01*
X10304655Y-12103994D02*
X10314179Y-12065899D01*
X10314179Y-12065899D02*
X10323703Y-12046851D01*
X10323703Y-12046851D02*
X10333227Y-12037328D01*
X10333227Y-12037328D02*
X10352274Y-12027804D01*
X10504655Y-12208756D02*
X10514179Y-12218280D01*
X10514179Y-12218280D02*
X10504655Y-12227804D01*
X10504655Y-12227804D02*
X10495131Y-12218280D01*
X10495131Y-12218280D02*
X10504655Y-12208756D01*
X10504655Y-12208756D02*
X10504655Y-12227804D01*
X10704655Y-12227804D02*
X10590369Y-12227804D01*
X10647512Y-12227804D02*
X10647512Y-12027804D01*
X10647512Y-12027804D02*
X10628465Y-12056375D01*
X10628465Y-12056375D02*
X10609417Y-12075423D01*
X10609417Y-12075423D02*
X10590369Y-12084947D01*
X10780846Y-12046851D02*
X10790369Y-12037328D01*
X10790369Y-12037328D02*
X10809417Y-12027804D01*
X10809417Y-12027804D02*
X10857036Y-12027804D01*
X10857036Y-12027804D02*
X10876084Y-12037328D01*
X10876084Y-12037328D02*
X10885608Y-12046851D01*
X10885608Y-12046851D02*
X10895131Y-12065899D01*
X10895131Y-12065899D02*
X10895131Y-12084947D01*
X10895131Y-12084947D02*
X10885608Y-12113518D01*
X10885608Y-12113518D02*
X10771322Y-12227804D01*
X10771322Y-12227804D02*
X10895131Y-12227804D01*
X11066560Y-12027804D02*
X11028465Y-12027804D01*
X11028465Y-12027804D02*
X11009417Y-12037328D01*
X11009417Y-12037328D02*
X10999893Y-12046851D01*
X10999893Y-12046851D02*
X10980846Y-12075423D01*
X10980846Y-12075423D02*
X10971322Y-12113518D01*
X10971322Y-12113518D02*
X10971322Y-12189708D01*
X10971322Y-12189708D02*
X10980846Y-12208756D01*
X10980846Y-12208756D02*
X10990369Y-12218280D01*
X10990369Y-12218280D02*
X11009417Y-12227804D01*
X11009417Y-12227804D02*
X11047512Y-12227804D01*
X11047512Y-12227804D02*
X11066560Y-12218280D01*
X11066560Y-12218280D02*
X11076084Y-12208756D01*
X11076084Y-12208756D02*
X11085608Y-12189708D01*
X11085608Y-12189708D02*
X11085608Y-12142089D01*
X11085608Y-12142089D02*
X11076084Y-12123042D01*
X11076084Y-12123042D02*
X11066560Y-12113518D01*
X11066560Y-12113518D02*
X11047512Y-12103994D01*
X11047512Y-12103994D02*
X11009417Y-12103994D01*
X11009417Y-12103994D02*
X10990369Y-12113518D01*
X10990369Y-12113518D02*
X10980846Y-12123042D01*
X10980846Y-12123042D02*
X10971322Y-12142089D01*
X11209417Y-12027804D02*
X11228465Y-12027804D01*
X11228465Y-12027804D02*
X11247512Y-12037328D01*
X11247512Y-12037328D02*
X11257036Y-12046851D01*
X11257036Y-12046851D02*
X11266560Y-12065899D01*
X11266560Y-12065899D02*
X11276084Y-12103994D01*
X11276084Y-12103994D02*
X11276084Y-12151613D01*
X11276084Y-12151613D02*
X11266560Y-12189708D01*
X11266560Y-12189708D02*
X11257036Y-12208756D01*
X11257036Y-12208756D02*
X11247512Y-12218280D01*
X11247512Y-12218280D02*
X11228465Y-12227804D01*
X11228465Y-12227804D02*
X11209417Y-12227804D01*
X11209417Y-12227804D02*
X11190369Y-12218280D01*
X11190369Y-12218280D02*
X11180846Y-12208756D01*
X11180846Y-12208756D02*
X11171322Y-12189708D01*
X11171322Y-12189708D02*
X11161798Y-12151613D01*
X11161798Y-12151613D02*
X11161798Y-12103994D01*
X11161798Y-12103994D02*
X11171322Y-12065899D01*
X11171322Y-12065899D02*
X11180846Y-12046851D01*
X11180846Y-12046851D02*
X11190369Y-12037328D01*
X11190369Y-12037328D02*
X11209417Y-12027804D01*
X11352274Y-12027804D02*
X11352274Y-12065899D01*
X11428465Y-12027804D02*
X11428465Y-12065899D01*
X11723703Y-12303994D02*
X11714179Y-12294470D01*
X11714179Y-12294470D02*
X11695131Y-12265899D01*
X11695131Y-12265899D02*
X11685608Y-12246851D01*
X11685608Y-12246851D02*
X11676084Y-12218280D01*
X11676084Y-12218280D02*
X11666560Y-12170661D01*
X11666560Y-12170661D02*
X11666560Y-12132566D01*
X11666560Y-12132566D02*
X11676084Y-12084947D01*
X11676084Y-12084947D02*
X11685608Y-12056375D01*
X11685608Y-12056375D02*
X11695131Y-12037328D01*
X11695131Y-12037328D02*
X11714179Y-12008756D01*
X11714179Y-12008756D02*
X11723703Y-11999232D01*
X11780846Y-12027804D02*
X11904655Y-12027804D01*
X11904655Y-12027804D02*
X11837988Y-12103994D01*
X11837988Y-12103994D02*
X11866560Y-12103994D01*
X11866560Y-12103994D02*
X11885608Y-12113518D01*
X11885608Y-12113518D02*
X11895131Y-12123042D01*
X11895131Y-12123042D02*
X11904655Y-12142089D01*
X11904655Y-12142089D02*
X11904655Y-12189708D01*
X11904655Y-12189708D02*
X11895131Y-12208756D01*
X11895131Y-12208756D02*
X11885608Y-12218280D01*
X11885608Y-12218280D02*
X11866560Y-12227804D01*
X11866560Y-12227804D02*
X11809417Y-12227804D01*
X11809417Y-12227804D02*
X11790369Y-12218280D01*
X11790369Y-12218280D02*
X11780846Y-12208756D01*
X12142750Y-12227804D02*
X12142750Y-12027804D01*
X12228465Y-12227804D02*
X12228465Y-12123042D01*
X12228465Y-12123042D02*
X12218941Y-12103994D01*
X12218941Y-12103994D02*
X12199893Y-12094470D01*
X12199893Y-12094470D02*
X12171322Y-12094470D01*
X12171322Y-12094470D02*
X12152274Y-12103994D01*
X12152274Y-12103994D02*
X12142750Y-12113518D01*
X12352274Y-12227804D02*
X12333227Y-12218280D01*
X12333227Y-12218280D02*
X12323703Y-12208756D01*
X12323703Y-12208756D02*
X12314179Y-12189708D01*
X12314179Y-12189708D02*
X12314179Y-12132566D01*
X12314179Y-12132566D02*
X12323703Y-12113518D01*
X12323703Y-12113518D02*
X12333227Y-12103994D01*
X12333227Y-12103994D02*
X12352274Y-12094470D01*
X12352274Y-12094470D02*
X12380846Y-12094470D01*
X12380846Y-12094470D02*
X12399893Y-12103994D01*
X12399893Y-12103994D02*
X12409417Y-12113518D01*
X12409417Y-12113518D02*
X12418941Y-12132566D01*
X12418941Y-12132566D02*
X12418941Y-12189708D01*
X12418941Y-12189708D02*
X12409417Y-12208756D01*
X12409417Y-12208756D02*
X12399893Y-12218280D01*
X12399893Y-12218280D02*
X12380846Y-12227804D01*
X12380846Y-12227804D02*
X12352274Y-12227804D01*
X12533227Y-12227804D02*
X12514179Y-12218280D01*
X12514179Y-12218280D02*
X12504655Y-12199232D01*
X12504655Y-12199232D02*
X12504655Y-12027804D01*
X12685608Y-12218280D02*
X12666560Y-12227804D01*
X12666560Y-12227804D02*
X12628465Y-12227804D01*
X12628465Y-12227804D02*
X12609417Y-12218280D01*
X12609417Y-12218280D02*
X12599893Y-12199232D01*
X12599893Y-12199232D02*
X12599893Y-12123042D01*
X12599893Y-12123042D02*
X12609417Y-12103994D01*
X12609417Y-12103994D02*
X12628465Y-12094470D01*
X12628465Y-12094470D02*
X12666560Y-12094470D01*
X12666560Y-12094470D02*
X12685608Y-12103994D01*
X12685608Y-12103994D02*
X12695131Y-12123042D01*
X12695131Y-12123042D02*
X12695131Y-12142089D01*
X12695131Y-12142089D02*
X12599893Y-12161137D01*
X12771322Y-12218280D02*
X12790370Y-12227804D01*
X12790370Y-12227804D02*
X12828465Y-12227804D01*
X12828465Y-12227804D02*
X12847512Y-12218280D01*
X12847512Y-12218280D02*
X12857036Y-12199232D01*
X12857036Y-12199232D02*
X12857036Y-12189708D01*
X12857036Y-12189708D02*
X12847512Y-12170661D01*
X12847512Y-12170661D02*
X12828465Y-12161137D01*
X12828465Y-12161137D02*
X12799893Y-12161137D01*
X12799893Y-12161137D02*
X12780846Y-12151613D01*
X12780846Y-12151613D02*
X12771322Y-12132566D01*
X12771322Y-12132566D02*
X12771322Y-12123042D01*
X12771322Y-12123042D02*
X12780846Y-12103994D01*
X12780846Y-12103994D02*
X12799893Y-12094470D01*
X12799893Y-12094470D02*
X12828465Y-12094470D01*
X12828465Y-12094470D02*
X12847512Y-12103994D01*
X12923703Y-12303994D02*
X12933227Y-12294470D01*
X12933227Y-12294470D02*
X12952274Y-12265899D01*
X12952274Y-12265899D02*
X12961798Y-12246851D01*
X12961798Y-12246851D02*
X12971322Y-12218280D01*
X12971322Y-12218280D02*
X12980846Y-12170661D01*
X12980846Y-12170661D02*
X12980846Y-12132566D01*
X12980846Y-12132566D02*
X12971322Y-12084947D01*
X12971322Y-12084947D02*
X12961798Y-12056375D01*
X12961798Y-12056375D02*
X12952274Y-12037328D01*
X12952274Y-12037328D02*
X12933227Y-12008756D01*
X12933227Y-12008756D02*
X12923703Y-11999232D01*
X13285608Y-12303994D02*
X13276084Y-12294470D01*
X13276084Y-12294470D02*
X13257036Y-12265899D01*
X13257036Y-12265899D02*
X13247512Y-12246851D01*
X13247512Y-12246851D02*
X13237989Y-12218280D01*
X13237989Y-12218280D02*
X13228465Y-12170661D01*
X13228465Y-12170661D02*
X13228465Y-12132566D01*
X13228465Y-12132566D02*
X13237989Y-12084947D01*
X13237989Y-12084947D02*
X13247512Y-12056375D01*
X13247512Y-12056375D02*
X13257036Y-12037328D01*
X13257036Y-12037328D02*
X13276084Y-12008756D01*
X13276084Y-12008756D02*
X13285608Y-11999232D01*
X13361798Y-12094470D02*
X13361798Y-12227804D01*
X13361798Y-12113518D02*
X13371322Y-12103994D01*
X13371322Y-12103994D02*
X13390370Y-12094470D01*
X13390370Y-12094470D02*
X13418941Y-12094470D01*
X13418941Y-12094470D02*
X13437989Y-12103994D01*
X13437989Y-12103994D02*
X13447512Y-12123042D01*
X13447512Y-12123042D02*
X13447512Y-12227804D01*
X13571322Y-12227804D02*
X13552274Y-12218280D01*
X13552274Y-12218280D02*
X13542751Y-12208756D01*
X13542751Y-12208756D02*
X13533227Y-12189708D01*
X13533227Y-12189708D02*
X13533227Y-12132566D01*
X13533227Y-12132566D02*
X13542751Y-12113518D01*
X13542751Y-12113518D02*
X13552274Y-12103994D01*
X13552274Y-12103994D02*
X13571322Y-12094470D01*
X13571322Y-12094470D02*
X13599893Y-12094470D01*
X13599893Y-12094470D02*
X13618941Y-12103994D01*
X13618941Y-12103994D02*
X13628465Y-12113518D01*
X13628465Y-12113518D02*
X13637989Y-12132566D01*
X13637989Y-12132566D02*
X13637989Y-12189708D01*
X13637989Y-12189708D02*
X13628465Y-12208756D01*
X13628465Y-12208756D02*
X13618941Y-12218280D01*
X13618941Y-12218280D02*
X13599893Y-12227804D01*
X13599893Y-12227804D02*
X13571322Y-12227804D01*
X13695132Y-12094470D02*
X13771322Y-12094470D01*
X13723703Y-12027804D02*
X13723703Y-12199232D01*
X13723703Y-12199232D02*
X13733227Y-12218280D01*
X13733227Y-12218280D02*
X13752274Y-12227804D01*
X13752274Y-12227804D02*
X13771322Y-12227804D01*
X13990370Y-12094470D02*
X13990370Y-12294470D01*
X13990370Y-12103994D02*
X14009417Y-12094470D01*
X14009417Y-12094470D02*
X14047513Y-12094470D01*
X14047513Y-12094470D02*
X14066560Y-12103994D01*
X14066560Y-12103994D02*
X14076084Y-12113518D01*
X14076084Y-12113518D02*
X14085608Y-12132566D01*
X14085608Y-12132566D02*
X14085608Y-12189708D01*
X14085608Y-12189708D02*
X14076084Y-12208756D01*
X14076084Y-12208756D02*
X14066560Y-12218280D01*
X14066560Y-12218280D02*
X14047513Y-12227804D01*
X14047513Y-12227804D02*
X14009417Y-12227804D01*
X14009417Y-12227804D02*
X13990370Y-12218280D01*
X14199893Y-12227804D02*
X14180846Y-12218280D01*
X14180846Y-12218280D02*
X14171322Y-12199232D01*
X14171322Y-12199232D02*
X14171322Y-12027804D01*
X14361798Y-12227804D02*
X14361798Y-12123042D01*
X14361798Y-12123042D02*
X14352274Y-12103994D01*
X14352274Y-12103994D02*
X14333227Y-12094470D01*
X14333227Y-12094470D02*
X14295132Y-12094470D01*
X14295132Y-12094470D02*
X14276084Y-12103994D01*
X14361798Y-12218280D02*
X14342751Y-12227804D01*
X14342751Y-12227804D02*
X14295132Y-12227804D01*
X14295132Y-12227804D02*
X14276084Y-12218280D01*
X14276084Y-12218280D02*
X14266560Y-12199232D01*
X14266560Y-12199232D02*
X14266560Y-12180185D01*
X14266560Y-12180185D02*
X14276084Y-12161137D01*
X14276084Y-12161137D02*
X14295132Y-12151613D01*
X14295132Y-12151613D02*
X14342751Y-12151613D01*
X14342751Y-12151613D02*
X14361798Y-12142089D01*
X14428465Y-12094470D02*
X14504655Y-12094470D01*
X14457036Y-12027804D02*
X14457036Y-12199232D01*
X14457036Y-12199232D02*
X14466560Y-12218280D01*
X14466560Y-12218280D02*
X14485608Y-12227804D01*
X14485608Y-12227804D02*
X14504655Y-12227804D01*
X14647513Y-12218280D02*
X14628465Y-12227804D01*
X14628465Y-12227804D02*
X14590370Y-12227804D01*
X14590370Y-12227804D02*
X14571322Y-12218280D01*
X14571322Y-12218280D02*
X14561798Y-12199232D01*
X14561798Y-12199232D02*
X14561798Y-12123042D01*
X14561798Y-12123042D02*
X14571322Y-12103994D01*
X14571322Y-12103994D02*
X14590370Y-12094470D01*
X14590370Y-12094470D02*
X14628465Y-12094470D01*
X14628465Y-12094470D02*
X14647513Y-12103994D01*
X14647513Y-12103994D02*
X14657036Y-12123042D01*
X14657036Y-12123042D02*
X14657036Y-12142089D01*
X14657036Y-12142089D02*
X14561798Y-12161137D01*
X14828465Y-12227804D02*
X14828465Y-12027804D01*
X14828465Y-12218280D02*
X14809417Y-12227804D01*
X14809417Y-12227804D02*
X14771322Y-12227804D01*
X14771322Y-12227804D02*
X14752274Y-12218280D01*
X14752274Y-12218280D02*
X14742751Y-12208756D01*
X14742751Y-12208756D02*
X14733227Y-12189708D01*
X14733227Y-12189708D02*
X14733227Y-12132566D01*
X14733227Y-12132566D02*
X14742751Y-12113518D01*
X14742751Y-12113518D02*
X14752274Y-12103994D01*
X14752274Y-12103994D02*
X14771322Y-12094470D01*
X14771322Y-12094470D02*
X14809417Y-12094470D01*
X14809417Y-12094470D02*
X14828465Y-12103994D01*
X14904655Y-12303994D02*
X14914179Y-12294470D01*
X14914179Y-12294470D02*
X14933227Y-12265899D01*
X14933227Y-12265899D02*
X14942751Y-12246851D01*
X14942751Y-12246851D02*
X14952274Y-12218280D01*
X14952274Y-12218280D02*
X14961798Y-12170661D01*
X14961798Y-12170661D02*
X14961798Y-12132566D01*
X14961798Y-12132566D02*
X14952274Y-12084947D01*
X14952274Y-12084947D02*
X14942751Y-12056375D01*
X14942751Y-12056375D02*
X14933227Y-12037328D01*
X14933227Y-12037328D02*
X14914179Y-12008756D01*
X14914179Y-12008756D02*
X14904655Y-11999232D01*
M02*
