M48
; DRILL file {KiCad 8.0.3} date 2025-06-03T13:48:54-0700
; FORMAT={-:-/ absolute / inch / decimal}
; #@! TF.CreationDate,2025-06-03T13:48:54-07:00
; #@! TF.GenerationSoftware,Kicad,Pcbnew,8.0.3
; #@! TF.FileFunction,Plated,1,2,PTH
FMAT,2
INCH
; #@! TA.AperFunction,Plated,PTH,ViaDrill
T1C0.0157
; #@! TA.AperFunction,Plated,PTH,ViaDrill
T2C0.0236
; #@! TA.AperFunction,Plated,PTH,ComponentDrill
T3C0.0236
; #@! TA.AperFunction,Plated,PTH,ComponentDrill
T4C0.0394
; #@! TA.AperFunction,Plated,PTH,ComponentDrill
T5C0.0420
; #@! TA.AperFunction,Plated,PTH,ComponentDrill
T6C0.0787
; #@! TA.AperFunction,Plated,PTH,ComponentDrill
T7C0.1063
%
G90
G05
T1
X3.3102Y-2.3256
X3.4871Y-3.27
X3.5157Y-4.2472
X3.5181Y-3.8937
X3.5669Y-3.1417
X3.5902Y-2.6638
X3.5921Y-3.9469
X3.6185Y-4.2252
X3.6287Y-3.311
X3.6307Y-2.6634
X3.6352Y-3.1823
X3.6724Y-4.1714
X3.7315Y-4.074
X3.7389Y-4.3408
X3.7976Y-3.9941
X3.7984Y-3.9504
X3.9717Y-3.348
X3.9792Y-3.172
X3.9795Y-3.7161
X3.9904Y-3.8336
X4.019Y-3.714
X4.0585Y-3.7137
X4.0598Y-4.3122
X4.0744Y-4.2736
X4.0855Y-3.272
X4.0979Y-3.7119
X4.1017Y-4.1459
X4.14Y-4.1
X4.1425Y-3.1998
X4.1682Y-3.8365
X4.1758Y-3.1209
X4.2507Y-4.0853
X4.2595Y-3.7097
X4.3022Y-4.2271
X4.3085Y-4.3168
X4.3134Y-3.7106
X4.32Y-3.87
X4.32Y-3.9607
X4.349Y-3.8974
X4.38Y-4.02
X4.38Y-4.06
X4.4025Y-3.2464
X4.439Y-3.2614
X4.4405Y-3.3009
X4.4588Y-4.1455
X4.46Y-3.9
X4.46Y-3.96
X4.4657Y-3.0437
X4.4916Y-4.0423
X4.5007Y-3.1493
X4.52Y-3.9
X4.5609Y-4.1147
X4.5799Y-3.1327
X4.6055Y-3.0433
X4.6472Y-4.1555
X4.6669Y-3.0679
X4.7299Y-3.0465
X4.7631Y-3.274
X4.7687Y-4.0876
X4.8189Y-3.1427
X4.8741Y-3.1724
X4.9079Y-3.1276
X4.9335Y-4.0721
X4.9622Y-4.1374
X5.0031Y-3.9772
X5.0591Y-3.9772
X5.0896Y-3.1339
X5.1547Y-2.8934
X5.2071Y-4.1073
X5.22Y-3.174
X5.226Y-3.9823
X5.2406Y-3.713
X5.2717Y-2.8815
X5.312Y-4.3124
X5.361Y-3.9464
X5.4057Y-3.1905
X5.4413Y-4.3378
X5.4473Y-4.2284
X5.4843Y-4.3646
X5.5031Y-3.085
X5.5799Y-3.9772
X5.5937Y-3.822
X5.6071Y-2.8244
X5.6685Y-2.9087
X5.6748Y-3.909
X5.6756Y-3.2437
X5.6834Y-4.3928
X5.6835Y-3.3685
X5.6894Y-3.329
X5.7943Y-4.3731
X5.8061Y-3.1693
X5.8311Y-4.3197
X5.8762Y-3.2774
X5.8815Y-4.3874
X5.9108Y-3.322
X5.9799Y-4.0268
X6.0607Y-3.8895
X6.1411Y-2.9752
X6.1414Y-3.0357
X6.1803Y-4.3697
X6.3589Y-3.0825
X6.3709Y-3.0358
X6.489Y-2.8539
X6.5846Y-3.0846
X6.6232Y-3.8
X6.6932Y-3.0838
X6.7213Y-3.9338
X6.7224Y-3.8575
X6.7404Y-3.0321
X6.9339Y-3.0555
X6.9676Y-3.0904
X7.1594Y-2.8728
X7.2311Y-3.0681
X7.3433Y-3.0902
X7.4098Y-2.8921
X7.4318Y-3.0781
X7.4406Y-3.0363
X7.4413Y-3.1268
X7.5594Y-2.8882
X7.624Y-3.0386
X7.6617Y-3.0505
X7.7092Y-3.332
X7.769Y-2.6571
X7.9705Y-2.1874
T2
X4.1432Y-4.1452
X7.679Y-3.382
T4
X4.1453Y-3.765
X4.1453Y-4.265
X4.2453Y-3.765
X4.2453Y-4.265
X4.3453Y-3.765
X4.3453Y-4.265
X4.4453Y-3.765
X4.4453Y-4.265
X4.5453Y-3.765
X4.5453Y-4.265
X4.6453Y-3.765
X4.6453Y-4.265
X4.7453Y-3.765
X4.7453Y-4.265
X4.8453Y-3.765
X4.8453Y-4.265
X5.4799Y-4.1815
X5.4799Y-4.2815
X5.5799Y-4.1815
X5.5799Y-4.2815
X5.6799Y-4.1815
X5.6799Y-4.2815
X5.7799Y-4.1815
X5.7799Y-4.2815
X5.8799Y-4.1815
X5.8799Y-4.2815
X5.9799Y-4.1815
X5.9799Y-4.2815
X6.0799Y-4.1815
X6.0799Y-4.2815
X6.1799Y-4.1815
X6.1799Y-4.2815
X6.2799Y-4.1815
X6.2799Y-4.2815
X6.3799Y-4.1815
X6.3799Y-4.2815
T5
X3.3386Y-3.6437
X3.3386Y-3.9602
X3.4567Y-3.6437
X3.4567Y-3.9602
X5.4226Y-3.7559
X5.4226Y-3.874
X5.7681Y-3.7559
X5.7681Y-3.874
X6.1136Y-3.7559
X6.1136Y-3.874
X6.4591Y-3.7555
X6.4591Y-3.8736
X8.0559Y-3.5976
X8.0559Y-3.9177
X8.174Y-3.5976
X8.174Y-3.9177
T6
X3.4154Y-2.474
X3.7107Y-2.9661
X4.006Y-2.474
X4.3013Y-2.9661
X4.6894Y-2.48
X4.9847Y-2.9721
X5.28Y-2.48
X5.5753Y-2.9721
X5.964Y-2.48
X6.2593Y-2.9721
X6.5546Y-2.48
X6.8498Y-2.9721
X7.24Y-2.48
X7.5353Y-2.9721
X7.8306Y-2.48
X8.1258Y-2.9721
T7
X7.4083Y-3.7551
X7.6917Y-3.7551
T3
G00X7.2843Y-4.013
M15
G01X7.2843Y-3.9697
M16
G05
G00X7.8157Y-4.013
M15
G01X7.8157Y-3.9697
M16
G05
T4
G00X7.5697Y-3.8988
M15
G01X7.5303Y-3.8988
M16
G05
M30
