%TF.GenerationSoftware,KiCad,Pcbnew,7.0.2-0*%
%TF.CreationDate,2024-05-03T02:11:47-07:00*%
%TF.ProjectId,EE156_2_Layer,45453135-365f-4325-9f4c-617965722e6b,rev?*%
%TF.SameCoordinates,Original*%
%TF.FileFunction,Soldermask,Top*%
%TF.FilePolarity,Negative*%
%FSLAX46Y46*%
G04 Gerber Fmt 4.6, Leading zero omitted, Abs format (unit mm)*
G04 Created by KiCad (PCBNEW 7.0.2-0) date 2024-05-03 02:11:47*
%MOMM*%
%LPD*%
G01*
G04 APERTURE LIST*
G04 Aperture macros list*
%AMRoundRect*
0 Rectangle with rounded corners*
0 $1 Rounding radius*
0 $2 $3 $4 $5 $6 $7 $8 $9 X,Y pos of 4 corners*
0 Add a 4 corners polygon primitive as box body*
4,1,4,$2,$3,$4,$5,$6,$7,$8,$9,$2,$3,0*
0 Add four circle primitives for the rounded corners*
1,1,$1+$1,$2,$3*
1,1,$1+$1,$4,$5*
1,1,$1+$1,$6,$7*
1,1,$1+$1,$8,$9*
0 Add four rect primitives between the rounded corners*
20,1,$1+$1,$2,$3,$4,$5,0*
20,1,$1+$1,$4,$5,$6,$7,0*
20,1,$1+$1,$6,$7,$8,$9,0*
20,1,$1+$1,$8,$9,$2,$3,0*%
G04 Aperture macros list end*
%ADD10RoundRect,0.249999X-0.450001X-1.425001X0.450001X-1.425001X0.450001X1.425001X-0.450001X1.425001X0*%
%ADD11C,2.004000*%
%ADD12RoundRect,0.250000X-0.350000X-0.450000X0.350000X-0.450000X0.350000X0.450000X-0.350000X0.450000X0*%
%ADD13RoundRect,0.250000X0.375000X0.625000X-0.375000X0.625000X-0.375000X-0.625000X0.375000X-0.625000X0*%
%ADD14R,1.000000X1.500000*%
%ADD15RoundRect,0.102000X0.110000X-0.380000X0.110000X0.380000X-0.110000X0.380000X-0.110000X-0.380000X0*%
%ADD16RoundRect,0.102000X0.750000X-0.450000X0.750000X0.450000X-0.750000X0.450000X-0.750000X-0.450000X0*%
%ADD17R,0.499999X0.850011*%
%ADD18R,0.599999X0.799998*%
%ADD19RoundRect,0.381000X0.381000X-0.762000X0.381000X0.762000X-0.381000X0.762000X-0.381000X-0.762000X0*%
%ADD20RoundRect,0.250000X-0.450000X0.350000X-0.450000X-0.350000X0.450000X-0.350000X0.450000X0.350000X0*%
%ADD21R,2.057400X5.511800*%
%ADD22R,0.558800X1.320800*%
%ADD23RoundRect,0.250000X-0.537500X-1.450000X0.537500X-1.450000X0.537500X1.450000X-0.537500X1.450000X0*%
%ADD24RoundRect,0.144000X-0.258000X0.943000X-0.258000X-0.943000X0.258000X-0.943000X0.258000X0.943000X0*%
%ADD25RoundRect,0.250000X-0.650000X1.000000X-0.650000X-1.000000X0.650000X-1.000000X0.650000X1.000000X0*%
%ADD26RoundRect,0.142600X0.249400X-0.564400X0.249400X0.564400X-0.249400X0.564400X-0.249400X-0.564400X0*%
%ADD27C,3.200000*%
%ADD28RoundRect,0.250000X0.450000X-0.350000X0.450000X0.350000X-0.450000X0.350000X-0.450000X-0.350000X0*%
%ADD29R,1.397000X1.219200*%
%ADD30RoundRect,0.250000X-0.337500X-0.475000X0.337500X-0.475000X0.337500X0.475000X-0.337500X0.475000X0*%
%ADD31R,4.445000X8.128000*%
%ADD32R,1.143000X0.990600*%
%ADD33R,5.207000X3.098800*%
%ADD34R,1.700000X1.700000*%
%ADD35O,1.700000X1.700000*%
%ADD36RoundRect,0.250000X-0.475000X0.337500X-0.475000X-0.337500X0.475000X-0.337500X0.475000X0.337500X0*%
G04 APERTURE END LIST*
%TO.C,U4*%
G36*
X244810001Y-173250001D02*
G01*
X240400001Y-173250001D01*
X240400001Y-168700001D01*
X244809999Y-168700001D01*
X244810001Y-173250001D01*
G37*
%TO.C,U6*%
G36*
X286300001Y-173550001D02*
G01*
X281890001Y-173550001D01*
X281890001Y-169000001D01*
X286299999Y-169000001D01*
X286300001Y-173550001D01*
G37*
%TO.C,U5*%
G36*
X265505001Y-173425500D02*
G01*
X261095001Y-173425500D01*
X261095001Y-168875500D01*
X265504999Y-168875500D01*
X265505001Y-173425500D01*
G37*
%TD*%
D10*
%TO.C,R9*%
X289750000Y-169200000D03*
X295850000Y-169200000D03*
%TD*%
D11*
%TO.C,J6*%
X271800000Y-190517500D03*
X271800000Y-180617500D03*
X266800000Y-190517500D03*
X266800000Y-180617500D03*
%TD*%
D12*
%TO.C,R7*%
X256900000Y-139900000D03*
X258900000Y-139900000D03*
%TD*%
D13*
%TO.C,D3*%
X259400000Y-144300000D03*
X256600000Y-144300000D03*
%TD*%
D11*
%TO.C,J2*%
X205882500Y-151400000D03*
X215782500Y-151400000D03*
X205882500Y-146400000D03*
X215782500Y-146400000D03*
%TD*%
D14*
%TO.C,JP5*%
X228000000Y-136300000D03*
X229300000Y-136300000D03*
%TD*%
D11*
%TO.C,J8*%
X247100000Y-190517500D03*
X247100000Y-180617500D03*
X242100000Y-190517500D03*
X242100000Y-180617500D03*
%TD*%
D15*
%TO.C,U1*%
X229500000Y-145900000D03*
X229900000Y-145900000D03*
X230300000Y-145900000D03*
X230700000Y-145900000D03*
X231100000Y-145900000D03*
X231100000Y-143930000D03*
X230700000Y-143930000D03*
X230300000Y-143930000D03*
X229900000Y-143930000D03*
X229500000Y-143930000D03*
D16*
X230300000Y-144915000D03*
%TD*%
D13*
%TO.C,D2*%
X256500000Y-137000000D03*
X259300000Y-137000000D03*
%TD*%
D11*
%TO.C,J9*%
X234750000Y-190517500D03*
X234750000Y-180617500D03*
X229750000Y-190517500D03*
X229750000Y-180617500D03*
%TD*%
D17*
%TO.C,U4*%
X240700000Y-174924002D03*
X241970000Y-174924002D03*
X243240000Y-174924002D03*
X244510000Y-174924002D03*
D18*
X244510000Y-169100000D03*
X243240000Y-169100000D03*
X241970000Y-169100000D03*
X240700000Y-169100000D03*
D19*
X241182600Y-172075301D03*
X244027400Y-172075301D03*
%TD*%
D20*
%TO.C,R6*%
X300500000Y-166800000D03*
X300500000Y-168800000D03*
%TD*%
D21*
%TO.C,L1*%
X290780700Y-161300000D03*
X294819300Y-161300000D03*
%TD*%
D11*
%TO.C,J5*%
X283900000Y-190517500D03*
X283900000Y-180617500D03*
X278900000Y-190517500D03*
X278900000Y-180617500D03*
%TD*%
D22*
%TO.C,U7*%
X252847500Y-140816000D03*
X254752500Y-140816000D03*
X253800000Y-138784000D03*
%TD*%
D23*
%TO.C,C3*%
X290762500Y-155900000D03*
X295037500Y-155900000D03*
%TD*%
D24*
%TO.C,U3*%
X303105000Y-158625000D03*
X301835000Y-158625000D03*
X300565000Y-158625000D03*
X299295000Y-158625000D03*
X299295000Y-163575000D03*
X300565000Y-163575000D03*
X301835000Y-163575000D03*
X303105000Y-163575000D03*
%TD*%
D25*
%TO.C,D1*%
X303200000Y-172000000D03*
X303200000Y-176000000D03*
%TD*%
D26*
%TO.C,U2*%
X244450000Y-144755000D03*
X245400000Y-144755000D03*
X246350000Y-144755000D03*
X246350000Y-142245000D03*
X245400000Y-142245000D03*
X244450000Y-142245000D03*
%TD*%
D27*
%TO.C,H3*%
X315500000Y-183000000D03*
%TD*%
D11*
%TO.C,J1*%
X205882500Y-163800000D03*
X215782500Y-163800000D03*
X205882500Y-158800000D03*
X215782500Y-158800000D03*
%TD*%
D27*
%TO.C,H2*%
X315500000Y-138000000D03*
%TD*%
D28*
%TO.C,R2*%
X234000000Y-146700000D03*
X234000000Y-144700000D03*
%TD*%
D17*
%TO.C,U6*%
X282190000Y-175224002D03*
X283460000Y-175224002D03*
X284730000Y-175224002D03*
X286000000Y-175224002D03*
D18*
X286000000Y-169400000D03*
X284730000Y-169400000D03*
X283460000Y-169400000D03*
X282190000Y-169400000D03*
D19*
X282672600Y-172375301D03*
X285517400Y-172375301D03*
%TD*%
D29*
%TO.C,C5*%
X318008200Y-189800000D03*
X313791800Y-189800000D03*
%TD*%
D14*
%TO.C,JP4*%
X229350000Y-138900000D03*
X228050000Y-138900000D03*
%TD*%
D30*
%TO.C,C2*%
X245662500Y-140000000D03*
X247737500Y-140000000D03*
%TD*%
D31*
%TO.C,WSLP59312L000FEA_2*%
X235513400Y-154400000D03*
X224286600Y-154400000D03*
%TD*%
D27*
%TO.C,H4*%
X210500000Y-183000000D03*
%TD*%
D17*
%TO.C,U5*%
X261395000Y-175099501D03*
X262665000Y-175099501D03*
X263935000Y-175099501D03*
X265205000Y-175099501D03*
D18*
X265205000Y-169275499D03*
X263935000Y-169275499D03*
X262665000Y-169275499D03*
X261395000Y-169275499D03*
D19*
X261877600Y-172250800D03*
X264722400Y-172250800D03*
%TD*%
D11*
%TO.C,J7*%
X259450000Y-190517500D03*
X259450000Y-180617500D03*
X254450000Y-190517500D03*
X254450000Y-180617500D03*
%TD*%
D12*
%TO.C,R8*%
X257000000Y-146900000D03*
X259000000Y-146900000D03*
%TD*%
D32*
%TO.C,CR1*%
X315900000Y-176940002D03*
X315900000Y-175100000D03*
D33*
X311912200Y-176020001D03*
%TD*%
D34*
%TO.C,J14*%
X233100000Y-135600000D03*
D35*
X235640000Y-135600000D03*
X238180000Y-135600000D03*
X240720000Y-135600000D03*
%TD*%
D20*
%TO.C,R3*%
X242300000Y-142500000D03*
X242300000Y-144500000D03*
%TD*%
D11*
%TO.C,J3*%
X308600000Y-190517500D03*
X308600000Y-180617500D03*
X303600000Y-190517500D03*
X303600000Y-180617500D03*
%TD*%
D22*
%TO.C,U8*%
X252847500Y-147932000D03*
X254752500Y-147932000D03*
X253800000Y-145900000D03*
%TD*%
D11*
%TO.C,J10*%
X222400000Y-190517500D03*
X222400000Y-180617500D03*
X217400000Y-190517500D03*
X217400000Y-180617500D03*
%TD*%
D23*
%TO.C,C4*%
X290762500Y-151800000D03*
X295037500Y-151800000D03*
%TD*%
D29*
%TO.C,C6*%
X210191800Y-176100000D03*
X214408200Y-176100000D03*
%TD*%
D36*
%TO.C,C1*%
X226700000Y-142362500D03*
X226700000Y-144437500D03*
%TD*%
D31*
%TO.C,WSLP59312L000FEA_1*%
X224286600Y-163400000D03*
X235513400Y-163400000D03*
%TD*%
D20*
%TO.C,R1*%
X234000000Y-140700000D03*
X234000000Y-142700000D03*
%TD*%
D27*
%TO.C,H1*%
X210500000Y-138000000D03*
%TD*%
D28*
%TO.C,R5*%
X299200000Y-155200000D03*
X299200000Y-153200000D03*
%TD*%
D11*
%TO.C,J4*%
X296250000Y-190517500D03*
X296250000Y-180617500D03*
X291250000Y-190517500D03*
X291250000Y-180617500D03*
%TD*%
D20*
%TO.C,R4*%
X303100000Y-150700000D03*
X303100000Y-152700000D03*
%TD*%
M02*
