%TF.GenerationSoftware,KiCad,Pcbnew,8.0.3*%
%TF.CreationDate,2025-02-12T02:25:24-08:00*%
%TF.ProjectId,MLU_Breakout,4d4c555f-4272-4656-916b-6f75742e6b69,rev?*%
%TF.SameCoordinates,Original*%
%TF.FileFunction,Drillmap*%
%TF.FilePolarity,Positive*%
%FSLAX45Y45*%
G04 Gerber Fmt 4.5, Leading zero omitted, Abs format (unit mm)*
G04 Created by KiCad (PCBNEW 8.0.3) date 2025-02-12 02:25:24*
%MOMM*%
%LPD*%
G01*
G04 APERTURE LIST*
%ADD10C,0.050000*%
%ADD11C,0.200000*%
%ADD12C,0.100000*%
%ADD13C,0.110000*%
G04 APERTURE END LIST*
D10*
X13711840Y-6141760D02*
X20271840Y-6141760D01*
X20271840Y-13621760D01*
X13711840Y-13621760D01*
X13711840Y-6141760D01*
D11*
D12*
X14095000Y-8525000D02*
X14125000Y-8555000D01*
X14125000Y-8525000D02*
X14095000Y-8555000D01*
X14273492Y-11999048D02*
X14303492Y-12029048D01*
X14303492Y-11999048D02*
X14273492Y-12029048D01*
X14345000Y-12045000D02*
X14375000Y-12075000D01*
X14375000Y-12045000D02*
X14345000Y-12075000D01*
X14445000Y-8645000D02*
X14475000Y-8675000D01*
X14475000Y-8645000D02*
X14445000Y-8675000D01*
X14525000Y-10745000D02*
X14555000Y-10775000D01*
X14555000Y-10745000D02*
X14525000Y-10775000D01*
X14605000Y-9385000D02*
X14635000Y-9415000D01*
X14635000Y-9385000D02*
X14605000Y-9415000D01*
X14645342Y-11196385D02*
X14675342Y-11226385D01*
X14675342Y-11196385D02*
X14645342Y-11226385D01*
X14754873Y-11993646D02*
X14784873Y-12023646D01*
X14784873Y-11993646D02*
X14754873Y-12023646D01*
X14765000Y-11705000D02*
X14795000Y-11735000D01*
X14795000Y-11705000D02*
X14765000Y-11735000D01*
X14785000Y-9905000D02*
X14815000Y-9935000D01*
X14815000Y-9905000D02*
X14785000Y-9935000D01*
X14905000Y-11345000D02*
X14935000Y-11375000D01*
X14935000Y-11345000D02*
X14905000Y-11375000D01*
X15025000Y-11945000D02*
X15055000Y-11975000D01*
X15055000Y-11945000D02*
X15025000Y-11975000D01*
X15165000Y-9632930D02*
X15195000Y-9662930D01*
X15195000Y-9632930D02*
X15165000Y-9662930D01*
X15225000Y-11245000D02*
X15255000Y-11275000D01*
X15255000Y-11245000D02*
X15225000Y-11275000D01*
X15245000Y-8745000D02*
X15275000Y-8775000D01*
X15275000Y-8745000D02*
X15245000Y-8775000D01*
X15325304Y-9466019D02*
X15355304Y-9496019D01*
X15355304Y-9466019D02*
X15325304Y-9496019D01*
X15365000Y-8405000D02*
X15395000Y-8435000D01*
X15395000Y-8405000D02*
X15365000Y-8435000D01*
X15405000Y-11985000D02*
X15435000Y-12015000D01*
X15435000Y-11985000D02*
X15405000Y-12015000D01*
X15445000Y-8745000D02*
X15475000Y-8775000D01*
X15475000Y-8745000D02*
X15445000Y-8775000D01*
X15445000Y-10405000D02*
X15475000Y-10435000D01*
X15475000Y-10405000D02*
X15445000Y-10435000D01*
X15484973Y-11510000D02*
X15514973Y-11540000D01*
X15514973Y-11510000D02*
X15484973Y-11540000D01*
X15505000Y-10585000D02*
X15535000Y-10615000D01*
X15535000Y-10585000D02*
X15505000Y-10615000D01*
X15565000Y-10645000D02*
X15595000Y-10675000D01*
X15595000Y-10645000D02*
X15565000Y-10675000D01*
X15620000Y-11924653D02*
X15650000Y-11954653D01*
X15650000Y-11924653D02*
X15620000Y-11954653D01*
X15636881Y-11344957D02*
X15666881Y-11374957D01*
X15666881Y-11344957D02*
X15636881Y-11374957D01*
X15685000Y-12825000D02*
X15715000Y-12855000D01*
X15715000Y-12825000D02*
X15685000Y-12855000D01*
X15825000Y-11945000D02*
X15855000Y-11975000D01*
X15855000Y-11945000D02*
X15825000Y-11975000D01*
X15840000Y-9825000D02*
X15870000Y-9855000D01*
X15870000Y-9825000D02*
X15840000Y-9855000D01*
X15865000Y-11225000D02*
X15895000Y-11255000D01*
X15895000Y-11225000D02*
X15865000Y-11255000D01*
X15885000Y-9965000D02*
X15915000Y-9995000D01*
X15915000Y-9965000D02*
X15885000Y-9995000D01*
X15905000Y-9685000D02*
X15935000Y-9715000D01*
X15935000Y-9685000D02*
X15905000Y-9715000D01*
X15925000Y-8765000D02*
X15955000Y-8795000D01*
X15955000Y-8765000D02*
X15925000Y-8795000D01*
X15925000Y-11305000D02*
X15955000Y-11335000D01*
X15955000Y-11305000D02*
X15925000Y-11335000D01*
X15985000Y-8305000D02*
X16015000Y-8335000D01*
X16015000Y-8305000D02*
X15985000Y-8335000D01*
X16056930Y-10930964D02*
X16086930Y-10960964D01*
X16086930Y-10930964D02*
X16056930Y-10960964D01*
X16060000Y-12006144D02*
X16090000Y-12036144D01*
X16090000Y-12006144D02*
X16060000Y-12036144D01*
X16105000Y-8225000D02*
X16135000Y-8255000D01*
X16135000Y-8225000D02*
X16105000Y-8255000D01*
X16125000Y-11945000D02*
X16155000Y-11975000D01*
X16155000Y-11945000D02*
X16125000Y-11975000D01*
X16139180Y-10952411D02*
X16169180Y-10982411D01*
X16169180Y-10952411D02*
X16139180Y-10982411D01*
X16143020Y-9996472D02*
X16173020Y-10026472D01*
X16173020Y-9996472D02*
X16143020Y-10026472D01*
X16165000Y-9905000D02*
X16195000Y-9935000D01*
X16195000Y-9905000D02*
X16165000Y-9935000D01*
X16185000Y-8505000D02*
X16215000Y-8535000D01*
X16215000Y-8505000D02*
X16185000Y-8535000D01*
X16195403Y-10716727D02*
X16225403Y-10746727D01*
X16225403Y-10716727D02*
X16195403Y-10746727D01*
X16208364Y-8679872D02*
X16238364Y-8709872D01*
X16238364Y-8679872D02*
X16208364Y-8709872D01*
X16225000Y-7805000D02*
X16255000Y-7835000D01*
X16255000Y-7805000D02*
X16225000Y-7835000D01*
X16225000Y-8845000D02*
X16255000Y-8875000D01*
X16255000Y-8845000D02*
X16225000Y-8875000D01*
X16280000Y-10725000D02*
X16310000Y-10755000D01*
X16310000Y-10725000D02*
X16280000Y-10755000D01*
X16285000Y-9485000D02*
X16315000Y-9515000D01*
X16315000Y-9485000D02*
X16285000Y-9515000D01*
X16285000Y-9996472D02*
X16315000Y-10026472D01*
X16315000Y-9996472D02*
X16285000Y-10026472D01*
X16305000Y-11945000D02*
X16335000Y-11975000D01*
X16335000Y-11945000D02*
X16305000Y-11975000D01*
X16605000Y-12825000D02*
X16635000Y-12855000D01*
X16635000Y-12825000D02*
X16605000Y-12855000D01*
X16647692Y-11495934D02*
X16677692Y-11525934D01*
X16677692Y-11495934D02*
X16647692Y-11525934D01*
X16666883Y-8878552D02*
X16696883Y-8908552D01*
X16696883Y-8878552D02*
X16666883Y-8908552D01*
X16675813Y-10382263D02*
X16705813Y-10412263D01*
X16705813Y-10382263D02*
X16675813Y-10412263D01*
X16705000Y-9845000D02*
X16735000Y-9875000D01*
X16735000Y-9845000D02*
X16705000Y-9875000D01*
X16712692Y-11429683D02*
X16742692Y-11459683D01*
X16742692Y-11429683D02*
X16712692Y-11459683D01*
X16721987Y-8943272D02*
X16751987Y-8973272D01*
X16751987Y-8943272D02*
X16721987Y-8973272D01*
X16725000Y-9485000D02*
X16755000Y-9515000D01*
X16755000Y-9485000D02*
X16725000Y-9515000D01*
X16725000Y-10225000D02*
X16755000Y-10255000D01*
X16755000Y-10225000D02*
X16725000Y-10255000D01*
X16770962Y-10699038D02*
X16800962Y-10729038D01*
X16800962Y-10699038D02*
X16770962Y-10729038D01*
X16785000Y-10045000D02*
X16815000Y-10075000D01*
X16815000Y-10045000D02*
X16785000Y-10075000D01*
X16785000Y-11385000D02*
X16815000Y-11415000D01*
X16815000Y-11385000D02*
X16785000Y-11415000D01*
X16789000Y-11959246D02*
X16819000Y-11989246D01*
X16819000Y-11959246D02*
X16789000Y-11989246D01*
X16805000Y-7605000D02*
X16835000Y-7635000D01*
X16835000Y-7605000D02*
X16805000Y-7635000D01*
X16805000Y-8925000D02*
X16835000Y-8955000D01*
X16835000Y-8925000D02*
X16805000Y-8955000D01*
X16825000Y-7345000D02*
X16855000Y-7375000D01*
X16855000Y-7345000D02*
X16825000Y-7375000D01*
X16825000Y-10845000D02*
X16855000Y-10875000D01*
X16855000Y-10845000D02*
X16825000Y-10875000D01*
X16845000Y-7865000D02*
X16875000Y-7895000D01*
X16875000Y-7865000D02*
X16845000Y-7895000D01*
X16845000Y-11305000D02*
X16875000Y-11335000D01*
X16875000Y-11305000D02*
X16845000Y-11335000D01*
X16845000Y-11785000D02*
X16875000Y-11815000D01*
X16875000Y-11785000D02*
X16845000Y-11815000D01*
X16849770Y-9832292D02*
X16879770Y-9862292D01*
X16879770Y-9832292D02*
X16849770Y-9862292D01*
X16885000Y-8365000D02*
X16915000Y-8395000D01*
X16915000Y-8365000D02*
X16885000Y-8395000D01*
X16885000Y-10765000D02*
X16915000Y-10795000D01*
X16915000Y-10765000D02*
X16885000Y-10795000D01*
X16905000Y-7105000D02*
X16935000Y-7135000D01*
X16935000Y-7105000D02*
X16905000Y-7135000D01*
X16905000Y-8125000D02*
X16935000Y-8155000D01*
X16935000Y-8125000D02*
X16905000Y-8155000D01*
X16905000Y-11245000D02*
X16935000Y-11275000D01*
X16935000Y-11245000D02*
X16905000Y-11275000D01*
X16937989Y-8582909D02*
X16967989Y-8612909D01*
X16967989Y-8582909D02*
X16937989Y-8612909D01*
X16965000Y-11045000D02*
X16995000Y-11075000D01*
X16995000Y-11045000D02*
X16965000Y-11075000D01*
X16965000Y-11145000D02*
X16995000Y-11175000D01*
X16995000Y-11145000D02*
X16965000Y-11175000D01*
X16970000Y-9127737D02*
X17000000Y-9157737D01*
X17000000Y-9127737D02*
X16970000Y-9157737D01*
X16979770Y-9846841D02*
X17009770Y-9876841D01*
X17009770Y-9846841D02*
X16979770Y-9876841D01*
X16985000Y-12905000D02*
X17015000Y-12935000D01*
X17015000Y-12905000D02*
X16985000Y-12935000D01*
X17045000Y-11885000D02*
X17075000Y-11915000D01*
X17075000Y-11885000D02*
X17045000Y-11915000D01*
X17079077Y-9259077D02*
X17109077Y-9289077D01*
X17109077Y-9259077D02*
X17079077Y-9289077D01*
X17083569Y-12736772D02*
X17113569Y-12766772D01*
X17113569Y-12736772D02*
X17083569Y-12766772D01*
X17318100Y-12744972D02*
X17348100Y-12774972D01*
X17348100Y-12744972D02*
X17318100Y-12774972D01*
X17375930Y-12124491D02*
X17405930Y-12154491D01*
X17405930Y-12124491D02*
X17375930Y-12154491D01*
X17389760Y-12699258D02*
X17419760Y-12729258D01*
X17419760Y-12699258D02*
X17389760Y-12729258D01*
X17405000Y-8945000D02*
X17435000Y-8975000D01*
X17435000Y-8945000D02*
X17405000Y-8975000D01*
X17414048Y-11561274D02*
X17444048Y-11591274D01*
X17444048Y-11561274D02*
X17414048Y-11591274D01*
X17443555Y-12766360D02*
X17473555Y-12796360D01*
X17473555Y-12766360D02*
X17443555Y-12796360D01*
X17465000Y-9625000D02*
X17495000Y-9655000D01*
X17495000Y-9625000D02*
X17465000Y-9655000D01*
X17465000Y-10545000D02*
X17495000Y-10575000D01*
X17495000Y-10545000D02*
X17465000Y-10575000D01*
X17465000Y-12645000D02*
X17495000Y-12675000D01*
X17495000Y-12645000D02*
X17465000Y-12675000D01*
X17505000Y-9325000D02*
X17535000Y-9355000D01*
X17535000Y-9325000D02*
X17505000Y-9355000D01*
X17505000Y-11105000D02*
X17535000Y-11135000D01*
X17535000Y-11105000D02*
X17505000Y-11135000D01*
X17545000Y-10645000D02*
X17575000Y-10675000D01*
X17575000Y-10645000D02*
X17545000Y-10675000D01*
X17645000Y-8945000D02*
X17675000Y-8975000D01*
X17675000Y-8945000D02*
X17645000Y-8975000D01*
X17645000Y-11645000D02*
X17675000Y-11675000D01*
X17675000Y-11645000D02*
X17645000Y-11675000D01*
X17725000Y-7665000D02*
X17755000Y-7695000D01*
X17755000Y-7665000D02*
X17725000Y-7695000D01*
X17742362Y-8905707D02*
X17772362Y-8935707D01*
X17772362Y-8905707D02*
X17742362Y-8935707D01*
X17745000Y-9505000D02*
X17775000Y-9535000D01*
X17775000Y-9505000D02*
X17745000Y-9535000D01*
X17749046Y-8820970D02*
X17779046Y-8850970D01*
X17779046Y-8820970D02*
X17749046Y-8850970D01*
X17765000Y-8725000D02*
X17795000Y-8755000D01*
X17795000Y-8725000D02*
X17765000Y-8755000D01*
X17765000Y-11785000D02*
X17795000Y-11815000D01*
X17795000Y-11785000D02*
X17765000Y-11815000D01*
X17765000Y-12125000D02*
X17795000Y-12155000D01*
X17795000Y-12125000D02*
X17765000Y-12155000D01*
X17769716Y-12915280D02*
X17799716Y-12945280D01*
X17799716Y-12915280D02*
X17769716Y-12945280D01*
X17790000Y-7865000D02*
X17820000Y-7895000D01*
X17820000Y-7865000D02*
X17790000Y-7895000D01*
X17805000Y-11005000D02*
X17835000Y-11035000D01*
X17835000Y-11005000D02*
X17805000Y-11035000D01*
X17845000Y-9745000D02*
X17875000Y-9775000D01*
X17875000Y-9745000D02*
X17845000Y-9775000D01*
X17848370Y-12895000D02*
X17878370Y-12925000D01*
X17878370Y-12895000D02*
X17848370Y-12925000D01*
X17865000Y-12314055D02*
X17895000Y-12344055D01*
X17895000Y-12314055D02*
X17865000Y-12344055D01*
X17883571Y-12456566D02*
X17913571Y-12486566D01*
X17913571Y-12456566D02*
X17883571Y-12486566D01*
X17905000Y-11245000D02*
X17935000Y-11275000D01*
X17935000Y-11245000D02*
X17905000Y-11275000D01*
X17932842Y-12904465D02*
X17962842Y-12934465D01*
X17962842Y-12904465D02*
X17932842Y-12934465D01*
X17945000Y-11605000D02*
X17975000Y-11635000D01*
X17975000Y-11605000D02*
X17945000Y-11635000D01*
X18005000Y-12125000D02*
X18035000Y-12155000D01*
X18035000Y-12125000D02*
X18005000Y-12155000D01*
X18005000Y-12525000D02*
X18035000Y-12555000D01*
X18035000Y-12525000D02*
X18005000Y-12555000D01*
X18022634Y-9298604D02*
X18052634Y-9328604D01*
X18052634Y-9298604D02*
X18022634Y-9328604D01*
X18029038Y-9470000D02*
X18059038Y-9500000D01*
X18059038Y-9470000D02*
X18029038Y-9500000D01*
X18070962Y-12959038D02*
X18100962Y-12989038D01*
X18100962Y-12959038D02*
X18070962Y-12989038D01*
X18135098Y-12903571D02*
X18165098Y-12933571D01*
X18165098Y-12903571D02*
X18135098Y-12933571D01*
X18185000Y-9885000D02*
X18215000Y-9915000D01*
X18215000Y-9885000D02*
X18185000Y-9915000D01*
X18185000Y-10885000D02*
X18215000Y-10915000D01*
X18215000Y-10885000D02*
X18185000Y-10915000D01*
X18185000Y-12525000D02*
X18215000Y-12555000D01*
X18215000Y-12525000D02*
X18185000Y-12555000D01*
X18265000Y-12265000D02*
X18295000Y-12295000D01*
X18295000Y-12265000D02*
X18265000Y-12295000D01*
X18285000Y-10265000D02*
X18315000Y-10295000D01*
X18315000Y-10265000D02*
X18285000Y-10295000D01*
X18285000Y-11125000D02*
X18315000Y-11155000D01*
X18315000Y-11125000D02*
X18285000Y-11155000D01*
X18285000Y-12645000D02*
X18315000Y-12675000D01*
X18315000Y-12645000D02*
X18285000Y-12675000D01*
X18325000Y-11965000D02*
X18355000Y-11995000D01*
X18355000Y-11965000D02*
X18325000Y-11995000D01*
X18400460Y-12795000D02*
X18430460Y-12825000D01*
X18430460Y-12795000D02*
X18400460Y-12825000D01*
X18421102Y-12116669D02*
X18451102Y-12146669D01*
X18451102Y-12116669D02*
X18421102Y-12146669D01*
X18482814Y-11962362D02*
X18512814Y-11992362D01*
X18512814Y-11962362D02*
X18482814Y-11992362D01*
X18520962Y-11069038D02*
X18550962Y-11099038D01*
X18550962Y-11069038D02*
X18520962Y-11099038D01*
X18525000Y-10125000D02*
X18555000Y-10155000D01*
X18555000Y-10125000D02*
X18525000Y-10155000D01*
X18545000Y-12305000D02*
X18575000Y-12335000D01*
X18575000Y-12305000D02*
X18545000Y-12335000D01*
X18563382Y-11935276D02*
X18593382Y-11965276D01*
X18593382Y-11935276D02*
X18563382Y-11965276D01*
X18565000Y-12605000D02*
X18595000Y-12635000D01*
X18595000Y-12605000D02*
X18565000Y-12635000D01*
X18905000Y-12345000D02*
X18935000Y-12375000D01*
X18935000Y-12345000D02*
X18905000Y-12375000D01*
X18905000Y-12485000D02*
X18935000Y-12515000D01*
X18935000Y-12485000D02*
X18905000Y-12515000D01*
X18905000Y-12625000D02*
X18935000Y-12655000D01*
X18935000Y-12625000D02*
X18905000Y-12655000D01*
X18945000Y-11225000D02*
X18975000Y-11255000D01*
X18975000Y-11225000D02*
X18945000Y-11255000D01*
X18945000Y-11525000D02*
X18975000Y-11555000D01*
X18975000Y-11525000D02*
X18945000Y-11555000D01*
X19010000Y-11791924D02*
X19040000Y-11821924D01*
X19040000Y-11791924D02*
X19010000Y-11821924D01*
X19015706Y-11177822D02*
X19045706Y-11207822D01*
X19045706Y-11177822D02*
X19015706Y-11207822D01*
X19021000Y-10489043D02*
X19051000Y-10519043D01*
X19051000Y-10489043D02*
X19021000Y-10519043D01*
X19025000Y-8805000D02*
X19055000Y-8835000D01*
X19055000Y-8805000D02*
X19025000Y-8835000D01*
X19072742Y-11552406D02*
X19102742Y-11582406D01*
X19102742Y-11552406D02*
X19072742Y-11582406D01*
X19089038Y-8960962D02*
X19119038Y-8990962D01*
X19119038Y-8960962D02*
X19089038Y-8990962D01*
X19114276Y-9952150D02*
X19144276Y-9982150D01*
X19144276Y-9952150D02*
X19114276Y-9982150D01*
X19196273Y-8933195D02*
X19226273Y-8963195D01*
X19226273Y-8933195D02*
X19196273Y-8963195D01*
X19205000Y-8225000D02*
X19235000Y-8255000D01*
X19235000Y-8225000D02*
X19205000Y-8255000D01*
X19205000Y-9925000D02*
X19235000Y-9955000D01*
X19235000Y-9925000D02*
X19205000Y-9955000D01*
X19285000Y-10565000D02*
X19315000Y-10595000D01*
X19315000Y-10565000D02*
X19285000Y-10595000D01*
X19320000Y-8862978D02*
X19350000Y-8892978D01*
X19350000Y-8862978D02*
X19320000Y-8892978D01*
X19320000Y-8987978D02*
X19350000Y-9017978D01*
X19350000Y-8987978D02*
X19320000Y-9017978D01*
X19345000Y-9945000D02*
X19375000Y-9975000D01*
X19375000Y-9945000D02*
X19345000Y-9975000D01*
X19400000Y-9456968D02*
X19430000Y-9486968D01*
X19430000Y-9456968D02*
X19400000Y-9486968D01*
X19400000Y-9539433D02*
X19430000Y-9569433D01*
X19430000Y-9539433D02*
X19400000Y-9569433D01*
X19414448Y-10160398D02*
X19444448Y-10190398D01*
X19444448Y-10160398D02*
X19414448Y-10190398D01*
X19425000Y-10625000D02*
X19455000Y-10655000D01*
X19455000Y-10625000D02*
X19425000Y-10655000D01*
X19472025Y-10217975D02*
X19502025Y-10247975D01*
X19502025Y-10217975D02*
X19472025Y-10247975D01*
X19505000Y-10685000D02*
X19535000Y-10715000D01*
X19535000Y-10685000D02*
X19505000Y-10715000D01*
X17891000Y-6927080D02*
G75*
G02*
X17811000Y-6927080I-40000J0D01*
G01*
X17811000Y-6927080D02*
G75*
G02*
X17891000Y-6927080I40000J0D01*
G01*
X18136160Y-8151080D02*
G75*
G02*
X18056160Y-8151080I-40000J0D01*
G01*
X18056160Y-8151080D02*
G75*
G02*
X18136160Y-8151080I40000J0D01*
G01*
X18136160Y-8351080D02*
G75*
G02*
X18056160Y-8351080I-40000J0D01*
G01*
X18056160Y-8351080D02*
G75*
G02*
X18136160Y-8351080I40000J0D01*
G01*
X18145000Y-6927080D02*
G75*
G02*
X18065000Y-6927080I-40000J0D01*
G01*
X18065000Y-6927080D02*
G75*
G02*
X18145000Y-6927080I40000J0D01*
G01*
X18336160Y-8151080D02*
G75*
G02*
X18256160Y-8151080I-40000J0D01*
G01*
X18256160Y-8151080D02*
G75*
G02*
X18336160Y-8151080I40000J0D01*
G01*
X18336160Y-8351080D02*
G75*
G02*
X18256160Y-8351080I-40000J0D01*
G01*
X18256160Y-8351080D02*
G75*
G02*
X18336160Y-8351080I40000J0D01*
G01*
X18536160Y-8151080D02*
G75*
G02*
X18456160Y-8151080I-40000J0D01*
G01*
X18456160Y-8151080D02*
G75*
G02*
X18536160Y-8151080I40000J0D01*
G01*
X18536160Y-8351080D02*
G75*
G02*
X18456160Y-8351080I-40000J0D01*
G01*
X18456160Y-8351080D02*
G75*
G02*
X18536160Y-8351080I40000J0D01*
G01*
X14979000Y-7994470D02*
X14979000Y-8093530D01*
X14929470Y-8044000D02*
X15028530Y-8044000D01*
X14979000Y-8248470D02*
X14979000Y-8347530D01*
X14929470Y-8298000D02*
X15028530Y-8298000D01*
X14979000Y-8502470D02*
X14979000Y-8601530D01*
X14929470Y-8552000D02*
X15028530Y-8552000D01*
X14979000Y-8756470D02*
X14979000Y-8855530D01*
X14929470Y-8806000D02*
X15028530Y-8806000D01*
X14979000Y-9010470D02*
X14979000Y-9109530D01*
X14929470Y-9060000D02*
X15028530Y-9060000D01*
X14979000Y-9264470D02*
X14979000Y-9363530D01*
X14929470Y-9314000D02*
X15028530Y-9314000D01*
X14979000Y-9518470D02*
X14979000Y-9617530D01*
X14929470Y-9568000D02*
X15028530Y-9568000D01*
X14979000Y-9772470D02*
X14979000Y-9871530D01*
X14929470Y-9822000D02*
X15028530Y-9822000D01*
X14979000Y-10026470D02*
X14979000Y-10125530D01*
X14929470Y-10076000D02*
X15028530Y-10076000D01*
X15741000Y-7994470D02*
X15741000Y-8093530D01*
X15691470Y-8044000D02*
X15790530Y-8044000D01*
X15741000Y-8248470D02*
X15741000Y-8347530D01*
X15691470Y-8298000D02*
X15790530Y-8298000D01*
X15741000Y-8502470D02*
X15741000Y-8601530D01*
X15691470Y-8552000D02*
X15790530Y-8552000D01*
X15741000Y-8756470D02*
X15741000Y-8855530D01*
X15691470Y-8806000D02*
X15790530Y-8806000D01*
X15741000Y-9010470D02*
X15741000Y-9109530D01*
X15691470Y-9060000D02*
X15790530Y-9060000D01*
X15741000Y-9264470D02*
X15741000Y-9363530D01*
X15691470Y-9314000D02*
X15790530Y-9314000D01*
X15741000Y-9518470D02*
X15741000Y-9617530D01*
X15691470Y-9568000D02*
X15790530Y-9568000D01*
X15741000Y-9772470D02*
X15741000Y-9871530D01*
X15691470Y-9822000D02*
X15790530Y-9822000D01*
X15741000Y-10026470D02*
X15741000Y-10125530D01*
X15691470Y-10076000D02*
X15790530Y-10076000D01*
X14181356Y-13135356D02*
X14181356Y-13064644D01*
X14110644Y-13064644D01*
X14110644Y-13135356D01*
X14181356Y-13135356D01*
X14181356Y-13389356D02*
X14181356Y-13318644D01*
X14110644Y-13318644D01*
X14110644Y-13389356D01*
X14181356Y-13389356D01*
X14255356Y-7675356D02*
X14255356Y-7604644D01*
X14184644Y-7604644D01*
X14184644Y-7675356D01*
X14255356Y-7675356D01*
X14255356Y-7929356D02*
X14255356Y-7858644D01*
X14184644Y-7858644D01*
X14184644Y-7929356D01*
X14255356Y-7929356D01*
X14255356Y-8183356D02*
X14255356Y-8112644D01*
X14184644Y-8112644D01*
X14184644Y-8183356D01*
X14255356Y-8183356D01*
X14255356Y-8437356D02*
X14255356Y-8366644D01*
X14184644Y-8366644D01*
X14184644Y-8437356D01*
X14255356Y-8437356D01*
X14255356Y-8691356D02*
X14255356Y-8620644D01*
X14184644Y-8620644D01*
X14184644Y-8691356D01*
X14255356Y-8691356D01*
X14255356Y-8945356D02*
X14255356Y-8874644D01*
X14184644Y-8874644D01*
X14184644Y-8945356D01*
X14255356Y-8945356D01*
X14255356Y-9199356D02*
X14255356Y-9128644D01*
X14184644Y-9128644D01*
X14184644Y-9199356D01*
X14255356Y-9199356D01*
X14255356Y-9453356D02*
X14255356Y-9382644D01*
X14184644Y-9382644D01*
X14184644Y-9453356D01*
X14255356Y-9453356D01*
X14255356Y-9707356D02*
X14255356Y-9636644D01*
X14184644Y-9636644D01*
X14184644Y-9707356D01*
X14255356Y-9707356D01*
X14255356Y-9961356D02*
X14255356Y-9890644D01*
X14184644Y-9890644D01*
X14184644Y-9961356D01*
X14255356Y-9961356D01*
X14255356Y-10215356D02*
X14255356Y-10144644D01*
X14184644Y-10144644D01*
X14184644Y-10215356D01*
X14255356Y-10215356D01*
X14255356Y-10469356D02*
X14255356Y-10398644D01*
X14184644Y-10398644D01*
X14184644Y-10469356D01*
X14255356Y-10469356D01*
X14255356Y-10723356D02*
X14255356Y-10652644D01*
X14184644Y-10652644D01*
X14184644Y-10723356D01*
X14255356Y-10723356D01*
X14255356Y-10977356D02*
X14255356Y-10906644D01*
X14184644Y-10906644D01*
X14184644Y-10977356D01*
X14255356Y-10977356D01*
X14255356Y-11231356D02*
X14255356Y-11160644D01*
X14184644Y-11160644D01*
X14184644Y-11231356D01*
X14255356Y-11231356D01*
X14255356Y-11485356D02*
X14255356Y-11414644D01*
X14184644Y-11414644D01*
X14184644Y-11485356D01*
X14255356Y-11485356D01*
X14255356Y-11739356D02*
X14255356Y-11668644D01*
X14184644Y-11668644D01*
X14184644Y-11739356D01*
X14255356Y-11739356D01*
X14435356Y-13135356D02*
X14435356Y-13064644D01*
X14364644Y-13064644D01*
X14364644Y-13135356D01*
X14435356Y-13135356D01*
X14435356Y-13389356D02*
X14435356Y-13318644D01*
X14364644Y-13318644D01*
X14364644Y-13389356D01*
X14435356Y-13389356D01*
X14675356Y-12235356D02*
X14675356Y-12164644D01*
X14604644Y-12164644D01*
X14604644Y-12235356D01*
X14675356Y-12235356D01*
X14675356Y-12489356D02*
X14675356Y-12418644D01*
X14604644Y-12418644D01*
X14604644Y-12489356D01*
X14675356Y-12489356D01*
X14675356Y-12743356D02*
X14675356Y-12672644D01*
X14604644Y-12672644D01*
X14604644Y-12743356D01*
X14675356Y-12743356D01*
X14689356Y-13135356D02*
X14689356Y-13064644D01*
X14618644Y-13064644D01*
X14618644Y-13135356D01*
X14689356Y-13135356D01*
X14689356Y-13389356D02*
X14689356Y-13318644D01*
X14618644Y-13318644D01*
X14618644Y-13389356D01*
X14689356Y-13389356D01*
X14929356Y-12235356D02*
X14929356Y-12164644D01*
X14858644Y-12164644D01*
X14858644Y-12235356D01*
X14929356Y-12235356D01*
X14929356Y-12489356D02*
X14929356Y-12418644D01*
X14858644Y-12418644D01*
X14858644Y-12489356D01*
X14929356Y-12489356D01*
X14929356Y-12743356D02*
X14929356Y-12672644D01*
X14858644Y-12672644D01*
X14858644Y-12743356D01*
X14929356Y-12743356D01*
X14943356Y-13135356D02*
X14943356Y-13064644D01*
X14872644Y-13064644D01*
X14872644Y-13135356D01*
X14943356Y-13135356D01*
X14943356Y-13389356D02*
X14943356Y-13318644D01*
X14872644Y-13318644D01*
X14872644Y-13389356D01*
X14943356Y-13389356D01*
X15141356Y-11692856D02*
X15141356Y-11622144D01*
X15070644Y-11622144D01*
X15070644Y-11692856D01*
X15141356Y-11692856D01*
X15197356Y-13135356D02*
X15197356Y-13064644D01*
X15126644Y-13064644D01*
X15126644Y-13135356D01*
X15197356Y-13135356D01*
X15197356Y-13389356D02*
X15197356Y-13318644D01*
X15126644Y-13318644D01*
X15126644Y-13389356D01*
X15197356Y-13389356D01*
X15262856Y-10935356D02*
X15262856Y-10864644D01*
X15192144Y-10864644D01*
X15192144Y-10935356D01*
X15262856Y-10935356D01*
X15295356Y-12235356D02*
X15295356Y-12164644D01*
X15224644Y-12164644D01*
X15224644Y-12235356D01*
X15295356Y-12235356D01*
X15295356Y-12489356D02*
X15295356Y-12418644D01*
X15224644Y-12418644D01*
X15224644Y-12489356D01*
X15295356Y-12489356D01*
X15295356Y-12743356D02*
X15295356Y-12672644D01*
X15224644Y-12672644D01*
X15224644Y-12743356D01*
X15295356Y-12743356D01*
X15395356Y-11692856D02*
X15395356Y-11622144D01*
X15324644Y-11622144D01*
X15324644Y-11692856D01*
X15395356Y-11692856D01*
X15451356Y-13135356D02*
X15451356Y-13064644D01*
X15380644Y-13064644D01*
X15380644Y-13135356D01*
X15451356Y-13135356D01*
X15451356Y-13389356D02*
X15451356Y-13318644D01*
X15380644Y-13318644D01*
X15380644Y-13389356D01*
X15451356Y-13389356D01*
X15516856Y-10935356D02*
X15516856Y-10864644D01*
X15446144Y-10864644D01*
X15446144Y-10935356D01*
X15516856Y-10935356D01*
X15549356Y-12235356D02*
X15549356Y-12164644D01*
X15478644Y-12164644D01*
X15478644Y-12235356D01*
X15549356Y-12235356D01*
X15549356Y-12489356D02*
X15549356Y-12418644D01*
X15478644Y-12418644D01*
X15478644Y-12489356D01*
X15549356Y-12489356D01*
X15549356Y-12743356D02*
X15549356Y-12672644D01*
X15478644Y-12672644D01*
X15478644Y-12743356D01*
X15549356Y-12743356D01*
X15649356Y-11692856D02*
X15649356Y-11622144D01*
X15578644Y-11622144D01*
X15578644Y-11692856D01*
X15649356Y-11692856D01*
X15705356Y-13135356D02*
X15705356Y-13064644D01*
X15634644Y-13064644D01*
X15634644Y-13135356D01*
X15705356Y-13135356D01*
X15705356Y-13389356D02*
X15705356Y-13318644D01*
X15634644Y-13318644D01*
X15634644Y-13389356D01*
X15705356Y-13389356D01*
X15770856Y-10935356D02*
X15770856Y-10864644D01*
X15700144Y-10864644D01*
X15700144Y-10935356D01*
X15770856Y-10935356D01*
X15903356Y-11692856D02*
X15903356Y-11622144D01*
X15832644Y-11622144D01*
X15832644Y-11692856D01*
X15903356Y-11692856D01*
X15915356Y-12235356D02*
X15915356Y-12164644D01*
X15844644Y-12164644D01*
X15844644Y-12235356D01*
X15915356Y-12235356D01*
X15915356Y-12489356D02*
X15915356Y-12418644D01*
X15844644Y-12418644D01*
X15844644Y-12489356D01*
X15915356Y-12489356D01*
X15915356Y-12743356D02*
X15915356Y-12672644D01*
X15844644Y-12672644D01*
X15844644Y-12743356D01*
X15915356Y-12743356D01*
X15959356Y-13135356D02*
X15959356Y-13064644D01*
X15888644Y-13064644D01*
X15888644Y-13135356D01*
X15959356Y-13135356D01*
X15959356Y-13389356D02*
X15959356Y-13318644D01*
X15888644Y-13318644D01*
X15888644Y-13389356D01*
X15959356Y-13389356D01*
X16169356Y-12235356D02*
X16169356Y-12164644D01*
X16098644Y-12164644D01*
X16098644Y-12235356D01*
X16169356Y-12235356D01*
X16169356Y-12489356D02*
X16169356Y-12418644D01*
X16098644Y-12418644D01*
X16098644Y-12489356D01*
X16169356Y-12489356D01*
X16169356Y-12743356D02*
X16169356Y-12672644D01*
X16098644Y-12672644D01*
X16098644Y-12743356D01*
X16169356Y-12743356D01*
X16213356Y-13135356D02*
X16213356Y-13064644D01*
X16142644Y-13064644D01*
X16142644Y-13135356D01*
X16213356Y-13135356D01*
X16213356Y-13389356D02*
X16213356Y-13318644D01*
X16142644Y-13318644D01*
X16142644Y-13389356D01*
X16213356Y-13389356D01*
X16467356Y-13135356D02*
X16467356Y-13064644D01*
X16396644Y-13064644D01*
X16396644Y-13135356D01*
X16467356Y-13135356D01*
X16467356Y-13389356D02*
X16467356Y-13318644D01*
X16396644Y-13318644D01*
X16396644Y-13389356D01*
X16467356Y-13389356D01*
X16535356Y-12235356D02*
X16535356Y-12164644D01*
X16464644Y-12164644D01*
X16464644Y-12235356D01*
X16535356Y-12235356D01*
X16535356Y-12489356D02*
X16535356Y-12418644D01*
X16464644Y-12418644D01*
X16464644Y-12489356D01*
X16535356Y-12489356D01*
X16535356Y-12743356D02*
X16535356Y-12672644D01*
X16464644Y-12672644D01*
X16464644Y-12743356D01*
X16535356Y-12743356D01*
X16721356Y-13135356D02*
X16721356Y-13064644D01*
X16650644Y-13064644D01*
X16650644Y-13135356D01*
X16721356Y-13135356D01*
X16721356Y-13389356D02*
X16721356Y-13318644D01*
X16650644Y-13318644D01*
X16650644Y-13389356D01*
X16721356Y-13389356D01*
X16789356Y-12235356D02*
X16789356Y-12164644D01*
X16718644Y-12164644D01*
X16718644Y-12235356D01*
X16789356Y-12235356D01*
X16789356Y-12489356D02*
X16789356Y-12418644D01*
X16718644Y-12418644D01*
X16718644Y-12489356D01*
X16789356Y-12489356D01*
X16789356Y-12743356D02*
X16789356Y-12672644D01*
X16718644Y-12672644D01*
X16718644Y-12743356D01*
X16789356Y-12743356D01*
X16975356Y-13135356D02*
X16975356Y-13064644D01*
X16904644Y-13064644D01*
X16904644Y-13135356D01*
X16975356Y-13135356D01*
X16975356Y-13389356D02*
X16975356Y-13318644D01*
X16904644Y-13318644D01*
X16904644Y-13389356D01*
X16975356Y-13389356D01*
X17229356Y-13135356D02*
X17229356Y-13064644D01*
X17158644Y-13064644D01*
X17158644Y-13135356D01*
X17229356Y-13135356D01*
X17229356Y-13389356D02*
X17229356Y-13318644D01*
X17158644Y-13318644D01*
X17158644Y-13389356D01*
X17229356Y-13389356D01*
X17483356Y-13135356D02*
X17483356Y-13064644D01*
X17412644Y-13064644D01*
X17412644Y-13135356D01*
X17483356Y-13135356D01*
X17483356Y-13389356D02*
X17483356Y-13318644D01*
X17412644Y-13318644D01*
X17412644Y-13389356D01*
X17483356Y-13389356D01*
X17737356Y-13135356D02*
X17737356Y-13064644D01*
X17666644Y-13064644D01*
X17666644Y-13135356D01*
X17737356Y-13135356D01*
X17737356Y-13389356D02*
X17737356Y-13318644D01*
X17666644Y-13318644D01*
X17666644Y-13389356D01*
X17737356Y-13389356D01*
X17991356Y-13135356D02*
X17991356Y-13064644D01*
X17920644Y-13064644D01*
X17920644Y-13135356D01*
X17991356Y-13135356D01*
X17991356Y-13389356D02*
X17991356Y-13318644D01*
X17920644Y-13318644D01*
X17920644Y-13389356D01*
X17991356Y-13389356D01*
X18245356Y-13135356D02*
X18245356Y-13064644D01*
X18174644Y-13064644D01*
X18174644Y-13135356D01*
X18245356Y-13135356D01*
X18245356Y-13389356D02*
X18245356Y-13318644D01*
X18174644Y-13318644D01*
X18174644Y-13389356D01*
X18245356Y-13389356D01*
X18499356Y-13135356D02*
X18499356Y-13064644D01*
X18428644Y-13064644D01*
X18428644Y-13135356D01*
X18499356Y-13135356D01*
X18499356Y-13389356D02*
X18499356Y-13318644D01*
X18428644Y-13318644D01*
X18428644Y-13389356D01*
X18499356Y-13389356D01*
X18753356Y-13135356D02*
X18753356Y-13064644D01*
X18682644Y-13064644D01*
X18682644Y-13135356D01*
X18753356Y-13135356D01*
X18753356Y-13389356D02*
X18753356Y-13318644D01*
X18682644Y-13318644D01*
X18682644Y-13389356D01*
X18753356Y-13389356D01*
X19007356Y-13135356D02*
X19007356Y-13064644D01*
X18936644Y-13064644D01*
X18936644Y-13135356D01*
X19007356Y-13135356D01*
X19007356Y-13389356D02*
X19007356Y-13318644D01*
X18936644Y-13318644D01*
X18936644Y-13389356D01*
X19007356Y-13389356D01*
X19121356Y-10815356D02*
X19121356Y-10744644D01*
X19050644Y-10744644D01*
X19050644Y-10815356D01*
X19121356Y-10815356D01*
X19163856Y-12415356D02*
X19163856Y-12344644D01*
X19093144Y-12344644D01*
X19093144Y-12415356D01*
X19163856Y-12415356D01*
X19261356Y-13135356D02*
X19261356Y-13064644D01*
X19190644Y-13064644D01*
X19190644Y-13135356D01*
X19261356Y-13135356D01*
X19261356Y-13389356D02*
X19261356Y-13318644D01*
X19190644Y-13318644D01*
X19190644Y-13389356D01*
X19261356Y-13389356D01*
X19375356Y-10815356D02*
X19375356Y-10744644D01*
X19304644Y-10744644D01*
X19304644Y-10815356D01*
X19375356Y-10815356D01*
X19417856Y-12415356D02*
X19417856Y-12344644D01*
X19347144Y-12344644D01*
X19347144Y-12415356D01*
X19417856Y-12415356D01*
X19421356Y-6521356D02*
X19421356Y-6450644D01*
X19350644Y-6450644D01*
X19350644Y-6521356D01*
X19421356Y-6521356D01*
X19421356Y-6775356D02*
X19421356Y-6704644D01*
X19350644Y-6704644D01*
X19350644Y-6775356D01*
X19421356Y-6775356D01*
X19515356Y-13135356D02*
X19515356Y-13064644D01*
X19444644Y-13064644D01*
X19444644Y-13135356D01*
X19515356Y-13135356D01*
X19515356Y-13389356D02*
X19515356Y-13318644D01*
X19444644Y-13318644D01*
X19444644Y-13389356D01*
X19515356Y-13389356D01*
X19675356Y-6521356D02*
X19675356Y-6450644D01*
X19604644Y-6450644D01*
X19604644Y-6521356D01*
X19675356Y-6521356D01*
X19675356Y-6775356D02*
X19675356Y-6704644D01*
X19604644Y-6704644D01*
X19604644Y-6775356D01*
X19675356Y-6775356D01*
X19769356Y-13135356D02*
X19769356Y-13064644D01*
X19698644Y-13064644D01*
X19698644Y-13135356D01*
X19769356Y-13135356D01*
X19769356Y-13389356D02*
X19769356Y-13318644D01*
X19698644Y-13318644D01*
X19698644Y-13389356D01*
X19769356Y-13389356D01*
X20015356Y-7293356D02*
X20015356Y-7222644D01*
X19944644Y-7222644D01*
X19944644Y-7293356D01*
X20015356Y-7293356D01*
X20015356Y-7547356D02*
X20015356Y-7476644D01*
X19944644Y-7476644D01*
X19944644Y-7547356D01*
X20015356Y-7547356D01*
X20015356Y-7801356D02*
X20015356Y-7730644D01*
X19944644Y-7730644D01*
X19944644Y-7801356D01*
X20015356Y-7801356D01*
X20015356Y-8055356D02*
X20015356Y-7984644D01*
X19944644Y-7984644D01*
X19944644Y-8055356D01*
X20015356Y-8055356D01*
X20015356Y-8309356D02*
X20015356Y-8238644D01*
X19944644Y-8238644D01*
X19944644Y-8309356D01*
X20015356Y-8309356D01*
X20015356Y-8563356D02*
X20015356Y-8492644D01*
X19944644Y-8492644D01*
X19944644Y-8563356D01*
X20015356Y-8563356D01*
X20021056Y-10620356D02*
X20021056Y-10549644D01*
X19950344Y-10549644D01*
X19950344Y-10620356D01*
X20021056Y-10620356D01*
X20021056Y-10874356D02*
X20021056Y-10803644D01*
X19950344Y-10803644D01*
X19950344Y-10874356D01*
X20021056Y-10874356D01*
X20021056Y-11128356D02*
X20021056Y-11057644D01*
X19950344Y-11057644D01*
X19950344Y-11128356D01*
X20021056Y-11128356D01*
X20021056Y-11382356D02*
X20021056Y-11311644D01*
X19950344Y-11311644D01*
X19950344Y-11382356D01*
X20021056Y-11382356D01*
X20021056Y-11636356D02*
X20021056Y-11565644D01*
X19950344Y-11565644D01*
X19950344Y-11636356D01*
X20021056Y-11636356D01*
X20021056Y-11890356D02*
X20021056Y-11819644D01*
X19950344Y-11819644D01*
X19950344Y-11890356D01*
X20021056Y-11890356D01*
X20021056Y-12144356D02*
X20021056Y-12073644D01*
X19950344Y-12073644D01*
X19950344Y-12144356D01*
X20021056Y-12144356D01*
X20021056Y-12398356D02*
X20021056Y-12327644D01*
X19950344Y-12327644D01*
X19950344Y-12398356D01*
X20021056Y-12398356D01*
X20021056Y-12652356D02*
X20021056Y-12581644D01*
X19950344Y-12581644D01*
X19950344Y-12652356D01*
X20021056Y-12652356D01*
X20023356Y-13135356D02*
X20023356Y-13064644D01*
X19952644Y-13064644D01*
X19952644Y-13135356D01*
X20023356Y-13135356D01*
X20023356Y-13389356D02*
X20023356Y-13318644D01*
X19952644Y-13318644D01*
X19952644Y-13389356D01*
X20023356Y-13389356D01*
X20023556Y-9215356D02*
X20023556Y-9144644D01*
X19952844Y-9144644D01*
X19952844Y-9215356D01*
X20023556Y-9215356D01*
X20023556Y-9469356D02*
X20023556Y-9398644D01*
X19952844Y-9398644D01*
X19952844Y-9469356D01*
X20023556Y-9469356D01*
X20023556Y-9723356D02*
X20023556Y-9652644D01*
X19952844Y-9652644D01*
X19952844Y-9723356D01*
X20023556Y-9723356D01*
X20023556Y-9977356D02*
X20023556Y-9906644D01*
X19952844Y-9906644D01*
X19952844Y-9977356D01*
X20023556Y-9977356D01*
D13*
X17216000Y-6909080D02*
X17271000Y-6854080D01*
X17216000Y-6799080D01*
X17161000Y-6854080D01*
X17216000Y-6909080D01*
X17216000Y-7163080D02*
X17271000Y-7108080D01*
X17216000Y-7053080D01*
X17161000Y-7108080D01*
X17216000Y-7163080D01*
X17216000Y-7417080D02*
X17271000Y-7362080D01*
X17216000Y-7307080D01*
X17161000Y-7362080D01*
X17216000Y-7417080D01*
X17216000Y-7671080D02*
X17271000Y-7616080D01*
X17216000Y-7561080D01*
X17161000Y-7616080D01*
X17216000Y-7671080D01*
X17216000Y-7925080D02*
X17271000Y-7870080D01*
X17216000Y-7815080D01*
X17161000Y-7870080D01*
X17216000Y-7925080D01*
X17216000Y-8179080D02*
X17271000Y-8124080D01*
X17216000Y-8069080D01*
X17161000Y-8124080D01*
X17216000Y-8179080D01*
X17216000Y-8433080D02*
X17271000Y-8378080D01*
X17216000Y-8323080D01*
X17161000Y-8378080D01*
X17216000Y-8433080D01*
X17216000Y-8687080D02*
X17271000Y-8632080D01*
X17216000Y-8577080D01*
X17161000Y-8632080D01*
X17216000Y-8687080D01*
X17216000Y-8941080D02*
X17271000Y-8886080D01*
X17216000Y-8831080D01*
X17161000Y-8886080D01*
X17216000Y-8941080D01*
X17216000Y-9195080D02*
X17271000Y-9140080D01*
X17216000Y-9085080D01*
X17161000Y-9140080D01*
X17216000Y-9195080D01*
X17216000Y-9449080D02*
X17271000Y-9394080D01*
X17216000Y-9339080D01*
X17161000Y-9394080D01*
X17216000Y-9449080D01*
X17216000Y-9703080D02*
X17271000Y-9648080D01*
X17216000Y-9593080D01*
X17161000Y-9648080D01*
X17216000Y-9703080D01*
X17216000Y-9957080D02*
X17271000Y-9902080D01*
X17216000Y-9847080D01*
X17161000Y-9902080D01*
X17216000Y-9957080D01*
X17216000Y-10211080D02*
X17271000Y-10156080D01*
X17216000Y-10101080D01*
X17161000Y-10156080D01*
X17216000Y-10211080D01*
X17216000Y-10465080D02*
X17271000Y-10410080D01*
X17216000Y-10355080D01*
X17161000Y-10410080D01*
X17216000Y-10465080D01*
X17216000Y-10719080D02*
X17271000Y-10664080D01*
X17216000Y-10609080D01*
X17161000Y-10664080D01*
X17216000Y-10719080D01*
X17216000Y-10973080D02*
X17271000Y-10918080D01*
X17216000Y-10863080D01*
X17161000Y-10918080D01*
X17216000Y-10973080D01*
X17216000Y-11227080D02*
X17271000Y-11172080D01*
X17216000Y-11117080D01*
X17161000Y-11172080D01*
X17216000Y-11227080D01*
X17216000Y-11481080D02*
X17271000Y-11426080D01*
X17216000Y-11371080D01*
X17161000Y-11426080D01*
X17216000Y-11481080D01*
X17216000Y-11735080D02*
X17271000Y-11680080D01*
X17216000Y-11625080D01*
X17161000Y-11680080D01*
X17216000Y-11735080D01*
X17216000Y-11989080D02*
X17271000Y-11934080D01*
X17216000Y-11879080D01*
X17161000Y-11934080D01*
X17216000Y-11989080D01*
X17216000Y-12243080D02*
X17271000Y-12188080D01*
X17216000Y-12133080D01*
X17161000Y-12188080D01*
X17216000Y-12243080D01*
X17216000Y-12497080D02*
X17271000Y-12442080D01*
X17216000Y-12387080D01*
X17161000Y-12442080D01*
X17216000Y-12497080D01*
X17216000Y-12751080D02*
X17271000Y-12696080D01*
X17216000Y-12641080D01*
X17161000Y-12696080D01*
X17216000Y-12751080D01*
X17470000Y-11481080D02*
X17525000Y-11426080D01*
X17470000Y-11371080D01*
X17415000Y-11426080D01*
X17470000Y-11481080D01*
X17521080Y-7539000D02*
X17576080Y-7484000D01*
X17521080Y-7429000D01*
X17466080Y-7484000D01*
X17521080Y-7539000D01*
X17521080Y-7793000D02*
X17576080Y-7738000D01*
X17521080Y-7683000D01*
X17466080Y-7738000D01*
X17521080Y-7793000D01*
X17521080Y-8047000D02*
X17576080Y-7992000D01*
X17521080Y-7937000D01*
X17466080Y-7992000D01*
X17521080Y-8047000D01*
X17521080Y-8301000D02*
X17576080Y-8246000D01*
X17521080Y-8191000D01*
X17466080Y-8246000D01*
X17521080Y-8301000D01*
X17521080Y-8555000D02*
X17576080Y-8500000D01*
X17521080Y-8445000D01*
X17466080Y-8500000D01*
X17521080Y-8555000D01*
X17724000Y-11481080D02*
X17779000Y-11426080D01*
X17724000Y-11371080D01*
X17669000Y-11426080D01*
X17724000Y-11481080D01*
X17978000Y-11481080D02*
X18033000Y-11426080D01*
X17978000Y-11371080D01*
X17923000Y-11426080D01*
X17978000Y-11481080D01*
X18232000Y-11481080D02*
X18287000Y-11426080D01*
X18232000Y-11371080D01*
X18177000Y-11426080D01*
X18232000Y-11481080D01*
X18486000Y-7163080D02*
X18541000Y-7108080D01*
X18486000Y-7053080D01*
X18431000Y-7108080D01*
X18486000Y-7163080D01*
X18486000Y-11481080D02*
X18541000Y-11426080D01*
X18486000Y-11371080D01*
X18431000Y-11426080D01*
X18486000Y-11481080D01*
X18740000Y-6909080D02*
X18795000Y-6854080D01*
X18740000Y-6799080D01*
X18685000Y-6854080D01*
X18740000Y-6909080D01*
X18740000Y-7163080D02*
X18795000Y-7108080D01*
X18740000Y-7053080D01*
X18685000Y-7108080D01*
X18740000Y-7163080D01*
X18740000Y-7417080D02*
X18795000Y-7362080D01*
X18740000Y-7307080D01*
X18685000Y-7362080D01*
X18740000Y-7417080D01*
X18740000Y-7671080D02*
X18795000Y-7616080D01*
X18740000Y-7561080D01*
X18685000Y-7616080D01*
X18740000Y-7671080D01*
X18740000Y-7925080D02*
X18795000Y-7870080D01*
X18740000Y-7815080D01*
X18685000Y-7870080D01*
X18740000Y-7925080D01*
X18740000Y-8179080D02*
X18795000Y-8124080D01*
X18740000Y-8069080D01*
X18685000Y-8124080D01*
X18740000Y-8179080D01*
X18740000Y-8433080D02*
X18795000Y-8378080D01*
X18740000Y-8323080D01*
X18685000Y-8378080D01*
X18740000Y-8433080D01*
X18740000Y-8687080D02*
X18795000Y-8632080D01*
X18740000Y-8577080D01*
X18685000Y-8632080D01*
X18740000Y-8687080D01*
X18740000Y-8941080D02*
X18795000Y-8886080D01*
X18740000Y-8831080D01*
X18685000Y-8886080D01*
X18740000Y-8941080D01*
X18740000Y-9195080D02*
X18795000Y-9140080D01*
X18740000Y-9085080D01*
X18685000Y-9140080D01*
X18740000Y-9195080D01*
X18740000Y-9449080D02*
X18795000Y-9394080D01*
X18740000Y-9339080D01*
X18685000Y-9394080D01*
X18740000Y-9449080D01*
X18740000Y-9703080D02*
X18795000Y-9648080D01*
X18740000Y-9593080D01*
X18685000Y-9648080D01*
X18740000Y-9703080D01*
X18740000Y-9957080D02*
X18795000Y-9902080D01*
X18740000Y-9847080D01*
X18685000Y-9902080D01*
X18740000Y-9957080D01*
X18740000Y-10211080D02*
X18795000Y-10156080D01*
X18740000Y-10101080D01*
X18685000Y-10156080D01*
X18740000Y-10211080D01*
X18740000Y-10465080D02*
X18795000Y-10410080D01*
X18740000Y-10355080D01*
X18685000Y-10410080D01*
X18740000Y-10465080D01*
X18740000Y-10719080D02*
X18795000Y-10664080D01*
X18740000Y-10609080D01*
X18685000Y-10664080D01*
X18740000Y-10719080D01*
X18740000Y-10973080D02*
X18795000Y-10918080D01*
X18740000Y-10863080D01*
X18685000Y-10918080D01*
X18740000Y-10973080D01*
X18740000Y-11227080D02*
X18795000Y-11172080D01*
X18740000Y-11117080D01*
X18685000Y-11172080D01*
X18740000Y-11227080D01*
X18740000Y-11481080D02*
X18795000Y-11426080D01*
X18740000Y-11371080D01*
X18685000Y-11426080D01*
X18740000Y-11481080D01*
X18740000Y-11735080D02*
X18795000Y-11680080D01*
X18740000Y-11625080D01*
X18685000Y-11680080D01*
X18740000Y-11735080D01*
X18740000Y-11989080D02*
X18795000Y-11934080D01*
X18740000Y-11879080D01*
X18685000Y-11934080D01*
X18740000Y-11989080D01*
X18740000Y-12243080D02*
X18795000Y-12188080D01*
X18740000Y-12133080D01*
X18685000Y-12188080D01*
X18740000Y-12243080D01*
X18740000Y-12497080D02*
X18795000Y-12442080D01*
X18740000Y-12387080D01*
X18685000Y-12442080D01*
X18740000Y-12497080D01*
X18740000Y-12751080D02*
X18795000Y-12696080D01*
X18740000Y-12641080D01*
X18685000Y-12696080D01*
X18740000Y-12751080D01*
D11*
X13970117Y-13935744D02*
X13970117Y-13735744D01*
X13970117Y-13735744D02*
X14017736Y-13735744D01*
X14017736Y-13735744D02*
X14046307Y-13745268D01*
X14046307Y-13745268D02*
X14065355Y-13764315D01*
X14065355Y-13764315D02*
X14074879Y-13783363D01*
X14074879Y-13783363D02*
X14084402Y-13821458D01*
X14084402Y-13821458D02*
X14084402Y-13850029D01*
X14084402Y-13850029D02*
X14074879Y-13888125D01*
X14074879Y-13888125D02*
X14065355Y-13907172D01*
X14065355Y-13907172D02*
X14046307Y-13926220D01*
X14046307Y-13926220D02*
X14017736Y-13935744D01*
X14017736Y-13935744D02*
X13970117Y-13935744D01*
X14170117Y-13935744D02*
X14170117Y-13802410D01*
X14170117Y-13840506D02*
X14179641Y-13821458D01*
X14179641Y-13821458D02*
X14189164Y-13811934D01*
X14189164Y-13811934D02*
X14208212Y-13802410D01*
X14208212Y-13802410D02*
X14227260Y-13802410D01*
X14293926Y-13935744D02*
X14293926Y-13802410D01*
X14293926Y-13735744D02*
X14284402Y-13745268D01*
X14284402Y-13745268D02*
X14293926Y-13754791D01*
X14293926Y-13754791D02*
X14303450Y-13745268D01*
X14303450Y-13745268D02*
X14293926Y-13735744D01*
X14293926Y-13735744D02*
X14293926Y-13754791D01*
X14417736Y-13935744D02*
X14398688Y-13926220D01*
X14398688Y-13926220D02*
X14389164Y-13907172D01*
X14389164Y-13907172D02*
X14389164Y-13735744D01*
X14522498Y-13935744D02*
X14503450Y-13926220D01*
X14503450Y-13926220D02*
X14493926Y-13907172D01*
X14493926Y-13907172D02*
X14493926Y-13735744D01*
X14751069Y-13935744D02*
X14751069Y-13735744D01*
X14751069Y-13735744D02*
X14817736Y-13878601D01*
X14817736Y-13878601D02*
X14884402Y-13735744D01*
X14884402Y-13735744D02*
X14884402Y-13935744D01*
X15065355Y-13935744D02*
X15065355Y-13830982D01*
X15065355Y-13830982D02*
X15055831Y-13811934D01*
X15055831Y-13811934D02*
X15036783Y-13802410D01*
X15036783Y-13802410D02*
X14998688Y-13802410D01*
X14998688Y-13802410D02*
X14979641Y-13811934D01*
X15065355Y-13926220D02*
X15046307Y-13935744D01*
X15046307Y-13935744D02*
X14998688Y-13935744D01*
X14998688Y-13935744D02*
X14979641Y-13926220D01*
X14979641Y-13926220D02*
X14970117Y-13907172D01*
X14970117Y-13907172D02*
X14970117Y-13888125D01*
X14970117Y-13888125D02*
X14979641Y-13869077D01*
X14979641Y-13869077D02*
X14998688Y-13859553D01*
X14998688Y-13859553D02*
X15046307Y-13859553D01*
X15046307Y-13859553D02*
X15065355Y-13850029D01*
X15160593Y-13802410D02*
X15160593Y-14002410D01*
X15160593Y-13811934D02*
X15179641Y-13802410D01*
X15179641Y-13802410D02*
X15217736Y-13802410D01*
X15217736Y-13802410D02*
X15236783Y-13811934D01*
X15236783Y-13811934D02*
X15246307Y-13821458D01*
X15246307Y-13821458D02*
X15255831Y-13840506D01*
X15255831Y-13840506D02*
X15255831Y-13897648D01*
X15255831Y-13897648D02*
X15246307Y-13916696D01*
X15246307Y-13916696D02*
X15236783Y-13926220D01*
X15236783Y-13926220D02*
X15217736Y-13935744D01*
X15217736Y-13935744D02*
X15179641Y-13935744D01*
X15179641Y-13935744D02*
X15160593Y-13926220D01*
X15341545Y-13916696D02*
X15351069Y-13926220D01*
X15351069Y-13926220D02*
X15341545Y-13935744D01*
X15341545Y-13935744D02*
X15332022Y-13926220D01*
X15332022Y-13926220D02*
X15341545Y-13916696D01*
X15341545Y-13916696D02*
X15341545Y-13935744D01*
X15341545Y-13811934D02*
X15351069Y-13821458D01*
X15351069Y-13821458D02*
X15341545Y-13830982D01*
X15341545Y-13830982D02*
X15332022Y-13821458D01*
X15332022Y-13821458D02*
X15341545Y-13811934D01*
X15341545Y-13811934D02*
X15341545Y-13830982D01*
D12*
X13679340Y-14249260D02*
X13709340Y-14279260D01*
X13709340Y-14249260D02*
X13679340Y-14279260D01*
D11*
X14008212Y-14155744D02*
X14027260Y-14155744D01*
X14027260Y-14155744D02*
X14046307Y-14165268D01*
X14046307Y-14165268D02*
X14055831Y-14174791D01*
X14055831Y-14174791D02*
X14065355Y-14193839D01*
X14065355Y-14193839D02*
X14074879Y-14231934D01*
X14074879Y-14231934D02*
X14074879Y-14279553D01*
X14074879Y-14279553D02*
X14065355Y-14317648D01*
X14065355Y-14317648D02*
X14055831Y-14336696D01*
X14055831Y-14336696D02*
X14046307Y-14346220D01*
X14046307Y-14346220D02*
X14027260Y-14355744D01*
X14027260Y-14355744D02*
X14008212Y-14355744D01*
X14008212Y-14355744D02*
X13989164Y-14346220D01*
X13989164Y-14346220D02*
X13979641Y-14336696D01*
X13979641Y-14336696D02*
X13970117Y-14317648D01*
X13970117Y-14317648D02*
X13960593Y-14279553D01*
X13960593Y-14279553D02*
X13960593Y-14231934D01*
X13960593Y-14231934D02*
X13970117Y-14193839D01*
X13970117Y-14193839D02*
X13979641Y-14174791D01*
X13979641Y-14174791D02*
X13989164Y-14165268D01*
X13989164Y-14165268D02*
X14008212Y-14155744D01*
X14160593Y-14336696D02*
X14170117Y-14346220D01*
X14170117Y-14346220D02*
X14160593Y-14355744D01*
X14160593Y-14355744D02*
X14151069Y-14346220D01*
X14151069Y-14346220D02*
X14160593Y-14336696D01*
X14160593Y-14336696D02*
X14160593Y-14355744D01*
X14236783Y-14155744D02*
X14360593Y-14155744D01*
X14360593Y-14155744D02*
X14293926Y-14231934D01*
X14293926Y-14231934D02*
X14322498Y-14231934D01*
X14322498Y-14231934D02*
X14341545Y-14241458D01*
X14341545Y-14241458D02*
X14351069Y-14250982D01*
X14351069Y-14250982D02*
X14360593Y-14270029D01*
X14360593Y-14270029D02*
X14360593Y-14317648D01*
X14360593Y-14317648D02*
X14351069Y-14336696D01*
X14351069Y-14336696D02*
X14341545Y-14346220D01*
X14341545Y-14346220D02*
X14322498Y-14355744D01*
X14322498Y-14355744D02*
X14265355Y-14355744D01*
X14265355Y-14355744D02*
X14246307Y-14346220D01*
X14246307Y-14346220D02*
X14236783Y-14336696D01*
X14484402Y-14155744D02*
X14503450Y-14155744D01*
X14503450Y-14155744D02*
X14522498Y-14165268D01*
X14522498Y-14165268D02*
X14532022Y-14174791D01*
X14532022Y-14174791D02*
X14541545Y-14193839D01*
X14541545Y-14193839D02*
X14551069Y-14231934D01*
X14551069Y-14231934D02*
X14551069Y-14279553D01*
X14551069Y-14279553D02*
X14541545Y-14317648D01*
X14541545Y-14317648D02*
X14532022Y-14336696D01*
X14532022Y-14336696D02*
X14522498Y-14346220D01*
X14522498Y-14346220D02*
X14503450Y-14355744D01*
X14503450Y-14355744D02*
X14484402Y-14355744D01*
X14484402Y-14355744D02*
X14465355Y-14346220D01*
X14465355Y-14346220D02*
X14455831Y-14336696D01*
X14455831Y-14336696D02*
X14446307Y-14317648D01*
X14446307Y-14317648D02*
X14436783Y-14279553D01*
X14436783Y-14279553D02*
X14436783Y-14231934D01*
X14436783Y-14231934D02*
X14446307Y-14193839D01*
X14446307Y-14193839D02*
X14455831Y-14174791D01*
X14455831Y-14174791D02*
X14465355Y-14165268D01*
X14465355Y-14165268D02*
X14484402Y-14155744D01*
X14674879Y-14155744D02*
X14693926Y-14155744D01*
X14693926Y-14155744D02*
X14712974Y-14165268D01*
X14712974Y-14165268D02*
X14722498Y-14174791D01*
X14722498Y-14174791D02*
X14732022Y-14193839D01*
X14732022Y-14193839D02*
X14741545Y-14231934D01*
X14741545Y-14231934D02*
X14741545Y-14279553D01*
X14741545Y-14279553D02*
X14732022Y-14317648D01*
X14732022Y-14317648D02*
X14722498Y-14336696D01*
X14722498Y-14336696D02*
X14712974Y-14346220D01*
X14712974Y-14346220D02*
X14693926Y-14355744D01*
X14693926Y-14355744D02*
X14674879Y-14355744D01*
X14674879Y-14355744D02*
X14655831Y-14346220D01*
X14655831Y-14346220D02*
X14646307Y-14336696D01*
X14646307Y-14336696D02*
X14636783Y-14317648D01*
X14636783Y-14317648D02*
X14627260Y-14279553D01*
X14627260Y-14279553D02*
X14627260Y-14231934D01*
X14627260Y-14231934D02*
X14636783Y-14193839D01*
X14636783Y-14193839D02*
X14646307Y-14174791D01*
X14646307Y-14174791D02*
X14655831Y-14165268D01*
X14655831Y-14165268D02*
X14674879Y-14155744D01*
X14827260Y-14355744D02*
X14827260Y-14222410D01*
X14827260Y-14241458D02*
X14836783Y-14231934D01*
X14836783Y-14231934D02*
X14855831Y-14222410D01*
X14855831Y-14222410D02*
X14884403Y-14222410D01*
X14884403Y-14222410D02*
X14903450Y-14231934D01*
X14903450Y-14231934D02*
X14912974Y-14250982D01*
X14912974Y-14250982D02*
X14912974Y-14355744D01*
X14912974Y-14250982D02*
X14922498Y-14231934D01*
X14922498Y-14231934D02*
X14941545Y-14222410D01*
X14941545Y-14222410D02*
X14970117Y-14222410D01*
X14970117Y-14222410D02*
X14989164Y-14231934D01*
X14989164Y-14231934D02*
X14998688Y-14250982D01*
X14998688Y-14250982D02*
X14998688Y-14355744D01*
X15093926Y-14355744D02*
X15093926Y-14222410D01*
X15093926Y-14241458D02*
X15103450Y-14231934D01*
X15103450Y-14231934D02*
X15122498Y-14222410D01*
X15122498Y-14222410D02*
X15151069Y-14222410D01*
X15151069Y-14222410D02*
X15170117Y-14231934D01*
X15170117Y-14231934D02*
X15179641Y-14250982D01*
X15179641Y-14250982D02*
X15179641Y-14355744D01*
X15179641Y-14250982D02*
X15189164Y-14231934D01*
X15189164Y-14231934D02*
X15208212Y-14222410D01*
X15208212Y-14222410D02*
X15236783Y-14222410D01*
X15236783Y-14222410D02*
X15255831Y-14231934D01*
X15255831Y-14231934D02*
X15265355Y-14250982D01*
X15265355Y-14250982D02*
X15265355Y-14355744D01*
X15655831Y-14146220D02*
X15484403Y-14403363D01*
X15912974Y-14155744D02*
X15932022Y-14155744D01*
X15932022Y-14155744D02*
X15951069Y-14165268D01*
X15951069Y-14165268D02*
X15960593Y-14174791D01*
X15960593Y-14174791D02*
X15970117Y-14193839D01*
X15970117Y-14193839D02*
X15979641Y-14231934D01*
X15979641Y-14231934D02*
X15979641Y-14279553D01*
X15979641Y-14279553D02*
X15970117Y-14317648D01*
X15970117Y-14317648D02*
X15960593Y-14336696D01*
X15960593Y-14336696D02*
X15951069Y-14346220D01*
X15951069Y-14346220D02*
X15932022Y-14355744D01*
X15932022Y-14355744D02*
X15912974Y-14355744D01*
X15912974Y-14355744D02*
X15893926Y-14346220D01*
X15893926Y-14346220D02*
X15884403Y-14336696D01*
X15884403Y-14336696D02*
X15874879Y-14317648D01*
X15874879Y-14317648D02*
X15865355Y-14279553D01*
X15865355Y-14279553D02*
X15865355Y-14231934D01*
X15865355Y-14231934D02*
X15874879Y-14193839D01*
X15874879Y-14193839D02*
X15884403Y-14174791D01*
X15884403Y-14174791D02*
X15893926Y-14165268D01*
X15893926Y-14165268D02*
X15912974Y-14155744D01*
X16065355Y-14336696D02*
X16074879Y-14346220D01*
X16074879Y-14346220D02*
X16065355Y-14355744D01*
X16065355Y-14355744D02*
X16055831Y-14346220D01*
X16055831Y-14346220D02*
X16065355Y-14336696D01*
X16065355Y-14336696D02*
X16065355Y-14355744D01*
X16198688Y-14155744D02*
X16217736Y-14155744D01*
X16217736Y-14155744D02*
X16236784Y-14165268D01*
X16236784Y-14165268D02*
X16246307Y-14174791D01*
X16246307Y-14174791D02*
X16255831Y-14193839D01*
X16255831Y-14193839D02*
X16265355Y-14231934D01*
X16265355Y-14231934D02*
X16265355Y-14279553D01*
X16265355Y-14279553D02*
X16255831Y-14317648D01*
X16255831Y-14317648D02*
X16246307Y-14336696D01*
X16246307Y-14336696D02*
X16236784Y-14346220D01*
X16236784Y-14346220D02*
X16217736Y-14355744D01*
X16217736Y-14355744D02*
X16198688Y-14355744D01*
X16198688Y-14355744D02*
X16179641Y-14346220D01*
X16179641Y-14346220D02*
X16170117Y-14336696D01*
X16170117Y-14336696D02*
X16160593Y-14317648D01*
X16160593Y-14317648D02*
X16151069Y-14279553D01*
X16151069Y-14279553D02*
X16151069Y-14231934D01*
X16151069Y-14231934D02*
X16160593Y-14193839D01*
X16160593Y-14193839D02*
X16170117Y-14174791D01*
X16170117Y-14174791D02*
X16179641Y-14165268D01*
X16179641Y-14165268D02*
X16198688Y-14155744D01*
X16455831Y-14355744D02*
X16341546Y-14355744D01*
X16398688Y-14355744D02*
X16398688Y-14155744D01*
X16398688Y-14155744D02*
X16379641Y-14184315D01*
X16379641Y-14184315D02*
X16360593Y-14203363D01*
X16360593Y-14203363D02*
X16341546Y-14212887D01*
X16646307Y-14355744D02*
X16532022Y-14355744D01*
X16589165Y-14355744D02*
X16589165Y-14155744D01*
X16589165Y-14155744D02*
X16570117Y-14184315D01*
X16570117Y-14184315D02*
X16551069Y-14203363D01*
X16551069Y-14203363D02*
X16532022Y-14212887D01*
X16760593Y-14241458D02*
X16741546Y-14231934D01*
X16741546Y-14231934D02*
X16732022Y-14222410D01*
X16732022Y-14222410D02*
X16722498Y-14203363D01*
X16722498Y-14203363D02*
X16722498Y-14193839D01*
X16722498Y-14193839D02*
X16732022Y-14174791D01*
X16732022Y-14174791D02*
X16741546Y-14165268D01*
X16741546Y-14165268D02*
X16760593Y-14155744D01*
X16760593Y-14155744D02*
X16798689Y-14155744D01*
X16798689Y-14155744D02*
X16817736Y-14165268D01*
X16817736Y-14165268D02*
X16827260Y-14174791D01*
X16827260Y-14174791D02*
X16836784Y-14193839D01*
X16836784Y-14193839D02*
X16836784Y-14203363D01*
X16836784Y-14203363D02*
X16827260Y-14222410D01*
X16827260Y-14222410D02*
X16817736Y-14231934D01*
X16817736Y-14231934D02*
X16798689Y-14241458D01*
X16798689Y-14241458D02*
X16760593Y-14241458D01*
X16760593Y-14241458D02*
X16741546Y-14250982D01*
X16741546Y-14250982D02*
X16732022Y-14260506D01*
X16732022Y-14260506D02*
X16722498Y-14279553D01*
X16722498Y-14279553D02*
X16722498Y-14317648D01*
X16722498Y-14317648D02*
X16732022Y-14336696D01*
X16732022Y-14336696D02*
X16741546Y-14346220D01*
X16741546Y-14346220D02*
X16760593Y-14355744D01*
X16760593Y-14355744D02*
X16798689Y-14355744D01*
X16798689Y-14355744D02*
X16817736Y-14346220D01*
X16817736Y-14346220D02*
X16827260Y-14336696D01*
X16827260Y-14336696D02*
X16836784Y-14317648D01*
X16836784Y-14317648D02*
X16836784Y-14279553D01*
X16836784Y-14279553D02*
X16827260Y-14260506D01*
X16827260Y-14260506D02*
X16817736Y-14250982D01*
X16817736Y-14250982D02*
X16798689Y-14241458D01*
X16912974Y-14155744D02*
X16912974Y-14193839D01*
X16989165Y-14155744D02*
X16989165Y-14193839D01*
X17284403Y-14431934D02*
X17274879Y-14422410D01*
X17274879Y-14422410D02*
X17255831Y-14393839D01*
X17255831Y-14393839D02*
X17246308Y-14374791D01*
X17246308Y-14374791D02*
X17236784Y-14346220D01*
X17236784Y-14346220D02*
X17227260Y-14298601D01*
X17227260Y-14298601D02*
X17227260Y-14260506D01*
X17227260Y-14260506D02*
X17236784Y-14212887D01*
X17236784Y-14212887D02*
X17246308Y-14184315D01*
X17246308Y-14184315D02*
X17255831Y-14165268D01*
X17255831Y-14165268D02*
X17274879Y-14136696D01*
X17274879Y-14136696D02*
X17284403Y-14127172D01*
X17465355Y-14355744D02*
X17351070Y-14355744D01*
X17408212Y-14355744D02*
X17408212Y-14155744D01*
X17408212Y-14155744D02*
X17389165Y-14184315D01*
X17389165Y-14184315D02*
X17370117Y-14203363D01*
X17370117Y-14203363D02*
X17351070Y-14212887D01*
X17636784Y-14155744D02*
X17598689Y-14155744D01*
X17598689Y-14155744D02*
X17579641Y-14165268D01*
X17579641Y-14165268D02*
X17570117Y-14174791D01*
X17570117Y-14174791D02*
X17551070Y-14203363D01*
X17551070Y-14203363D02*
X17541546Y-14241458D01*
X17541546Y-14241458D02*
X17541546Y-14317648D01*
X17541546Y-14317648D02*
X17551070Y-14336696D01*
X17551070Y-14336696D02*
X17560593Y-14346220D01*
X17560593Y-14346220D02*
X17579641Y-14355744D01*
X17579641Y-14355744D02*
X17617736Y-14355744D01*
X17617736Y-14355744D02*
X17636784Y-14346220D01*
X17636784Y-14346220D02*
X17646308Y-14336696D01*
X17646308Y-14336696D02*
X17655831Y-14317648D01*
X17655831Y-14317648D02*
X17655831Y-14270029D01*
X17655831Y-14270029D02*
X17646308Y-14250982D01*
X17646308Y-14250982D02*
X17636784Y-14241458D01*
X17636784Y-14241458D02*
X17617736Y-14231934D01*
X17617736Y-14231934D02*
X17579641Y-14231934D01*
X17579641Y-14231934D02*
X17560593Y-14241458D01*
X17560593Y-14241458D02*
X17551070Y-14250982D01*
X17551070Y-14250982D02*
X17541546Y-14270029D01*
X17722498Y-14155744D02*
X17846308Y-14155744D01*
X17846308Y-14155744D02*
X17779641Y-14231934D01*
X17779641Y-14231934D02*
X17808212Y-14231934D01*
X17808212Y-14231934D02*
X17827260Y-14241458D01*
X17827260Y-14241458D02*
X17836784Y-14250982D01*
X17836784Y-14250982D02*
X17846308Y-14270029D01*
X17846308Y-14270029D02*
X17846308Y-14317648D01*
X17846308Y-14317648D02*
X17836784Y-14336696D01*
X17836784Y-14336696D02*
X17827260Y-14346220D01*
X17827260Y-14346220D02*
X17808212Y-14355744D01*
X17808212Y-14355744D02*
X17751070Y-14355744D01*
X17751070Y-14355744D02*
X17732022Y-14346220D01*
X17732022Y-14346220D02*
X17722498Y-14336696D01*
X18084403Y-14355744D02*
X18084403Y-14155744D01*
X18170117Y-14355744D02*
X18170117Y-14250982D01*
X18170117Y-14250982D02*
X18160593Y-14231934D01*
X18160593Y-14231934D02*
X18141546Y-14222410D01*
X18141546Y-14222410D02*
X18112974Y-14222410D01*
X18112974Y-14222410D02*
X18093927Y-14231934D01*
X18093927Y-14231934D02*
X18084403Y-14241458D01*
X18293927Y-14355744D02*
X18274879Y-14346220D01*
X18274879Y-14346220D02*
X18265355Y-14336696D01*
X18265355Y-14336696D02*
X18255832Y-14317648D01*
X18255832Y-14317648D02*
X18255832Y-14260506D01*
X18255832Y-14260506D02*
X18265355Y-14241458D01*
X18265355Y-14241458D02*
X18274879Y-14231934D01*
X18274879Y-14231934D02*
X18293927Y-14222410D01*
X18293927Y-14222410D02*
X18322498Y-14222410D01*
X18322498Y-14222410D02*
X18341546Y-14231934D01*
X18341546Y-14231934D02*
X18351070Y-14241458D01*
X18351070Y-14241458D02*
X18360593Y-14260506D01*
X18360593Y-14260506D02*
X18360593Y-14317648D01*
X18360593Y-14317648D02*
X18351070Y-14336696D01*
X18351070Y-14336696D02*
X18341546Y-14346220D01*
X18341546Y-14346220D02*
X18322498Y-14355744D01*
X18322498Y-14355744D02*
X18293927Y-14355744D01*
X18474879Y-14355744D02*
X18455832Y-14346220D01*
X18455832Y-14346220D02*
X18446308Y-14327172D01*
X18446308Y-14327172D02*
X18446308Y-14155744D01*
X18627260Y-14346220D02*
X18608213Y-14355744D01*
X18608213Y-14355744D02*
X18570117Y-14355744D01*
X18570117Y-14355744D02*
X18551070Y-14346220D01*
X18551070Y-14346220D02*
X18541546Y-14327172D01*
X18541546Y-14327172D02*
X18541546Y-14250982D01*
X18541546Y-14250982D02*
X18551070Y-14231934D01*
X18551070Y-14231934D02*
X18570117Y-14222410D01*
X18570117Y-14222410D02*
X18608213Y-14222410D01*
X18608213Y-14222410D02*
X18627260Y-14231934D01*
X18627260Y-14231934D02*
X18636784Y-14250982D01*
X18636784Y-14250982D02*
X18636784Y-14270029D01*
X18636784Y-14270029D02*
X18541546Y-14289077D01*
X18712974Y-14346220D02*
X18732022Y-14355744D01*
X18732022Y-14355744D02*
X18770117Y-14355744D01*
X18770117Y-14355744D02*
X18789165Y-14346220D01*
X18789165Y-14346220D02*
X18798689Y-14327172D01*
X18798689Y-14327172D02*
X18798689Y-14317648D01*
X18798689Y-14317648D02*
X18789165Y-14298601D01*
X18789165Y-14298601D02*
X18770117Y-14289077D01*
X18770117Y-14289077D02*
X18741546Y-14289077D01*
X18741546Y-14289077D02*
X18722498Y-14279553D01*
X18722498Y-14279553D02*
X18712974Y-14260506D01*
X18712974Y-14260506D02*
X18712974Y-14250982D01*
X18712974Y-14250982D02*
X18722498Y-14231934D01*
X18722498Y-14231934D02*
X18741546Y-14222410D01*
X18741546Y-14222410D02*
X18770117Y-14222410D01*
X18770117Y-14222410D02*
X18789165Y-14231934D01*
X18865355Y-14431934D02*
X18874879Y-14422410D01*
X18874879Y-14422410D02*
X18893927Y-14393839D01*
X18893927Y-14393839D02*
X18903451Y-14374791D01*
X18903451Y-14374791D02*
X18912974Y-14346220D01*
X18912974Y-14346220D02*
X18922498Y-14298601D01*
X18922498Y-14298601D02*
X18922498Y-14260506D01*
X18922498Y-14260506D02*
X18912974Y-14212887D01*
X18912974Y-14212887D02*
X18903451Y-14184315D01*
X18903451Y-14184315D02*
X18893927Y-14165268D01*
X18893927Y-14165268D02*
X18874879Y-14136696D01*
X18874879Y-14136696D02*
X18865355Y-14127172D01*
D12*
X13709340Y-14528260D02*
G75*
G02*
X13629340Y-14528260I-40000J0D01*
G01*
X13629340Y-14528260D02*
G75*
G02*
X13709340Y-14528260I40000J0D01*
G01*
D11*
X14008212Y-14419744D02*
X14027260Y-14419744D01*
X14027260Y-14419744D02*
X14046307Y-14429268D01*
X14046307Y-14429268D02*
X14055831Y-14438791D01*
X14055831Y-14438791D02*
X14065355Y-14457839D01*
X14065355Y-14457839D02*
X14074879Y-14495934D01*
X14074879Y-14495934D02*
X14074879Y-14543553D01*
X14074879Y-14543553D02*
X14065355Y-14581648D01*
X14065355Y-14581648D02*
X14055831Y-14600696D01*
X14055831Y-14600696D02*
X14046307Y-14610220D01*
X14046307Y-14610220D02*
X14027260Y-14619744D01*
X14027260Y-14619744D02*
X14008212Y-14619744D01*
X14008212Y-14619744D02*
X13989164Y-14610220D01*
X13989164Y-14610220D02*
X13979641Y-14600696D01*
X13979641Y-14600696D02*
X13970117Y-14581648D01*
X13970117Y-14581648D02*
X13960593Y-14543553D01*
X13960593Y-14543553D02*
X13960593Y-14495934D01*
X13960593Y-14495934D02*
X13970117Y-14457839D01*
X13970117Y-14457839D02*
X13979641Y-14438791D01*
X13979641Y-14438791D02*
X13989164Y-14429268D01*
X13989164Y-14429268D02*
X14008212Y-14419744D01*
X14160593Y-14600696D02*
X14170117Y-14610220D01*
X14170117Y-14610220D02*
X14160593Y-14619744D01*
X14160593Y-14619744D02*
X14151069Y-14610220D01*
X14151069Y-14610220D02*
X14160593Y-14600696D01*
X14160593Y-14600696D02*
X14160593Y-14619744D01*
X14284402Y-14505458D02*
X14265355Y-14495934D01*
X14265355Y-14495934D02*
X14255831Y-14486410D01*
X14255831Y-14486410D02*
X14246307Y-14467363D01*
X14246307Y-14467363D02*
X14246307Y-14457839D01*
X14246307Y-14457839D02*
X14255831Y-14438791D01*
X14255831Y-14438791D02*
X14265355Y-14429268D01*
X14265355Y-14429268D02*
X14284402Y-14419744D01*
X14284402Y-14419744D02*
X14322498Y-14419744D01*
X14322498Y-14419744D02*
X14341545Y-14429268D01*
X14341545Y-14429268D02*
X14351069Y-14438791D01*
X14351069Y-14438791D02*
X14360593Y-14457839D01*
X14360593Y-14457839D02*
X14360593Y-14467363D01*
X14360593Y-14467363D02*
X14351069Y-14486410D01*
X14351069Y-14486410D02*
X14341545Y-14495934D01*
X14341545Y-14495934D02*
X14322498Y-14505458D01*
X14322498Y-14505458D02*
X14284402Y-14505458D01*
X14284402Y-14505458D02*
X14265355Y-14514982D01*
X14265355Y-14514982D02*
X14255831Y-14524506D01*
X14255831Y-14524506D02*
X14246307Y-14543553D01*
X14246307Y-14543553D02*
X14246307Y-14581648D01*
X14246307Y-14581648D02*
X14255831Y-14600696D01*
X14255831Y-14600696D02*
X14265355Y-14610220D01*
X14265355Y-14610220D02*
X14284402Y-14619744D01*
X14284402Y-14619744D02*
X14322498Y-14619744D01*
X14322498Y-14619744D02*
X14341545Y-14610220D01*
X14341545Y-14610220D02*
X14351069Y-14600696D01*
X14351069Y-14600696D02*
X14360593Y-14581648D01*
X14360593Y-14581648D02*
X14360593Y-14543553D01*
X14360593Y-14543553D02*
X14351069Y-14524506D01*
X14351069Y-14524506D02*
X14341545Y-14514982D01*
X14341545Y-14514982D02*
X14322498Y-14505458D01*
X14484402Y-14419744D02*
X14503450Y-14419744D01*
X14503450Y-14419744D02*
X14522498Y-14429268D01*
X14522498Y-14429268D02*
X14532022Y-14438791D01*
X14532022Y-14438791D02*
X14541545Y-14457839D01*
X14541545Y-14457839D02*
X14551069Y-14495934D01*
X14551069Y-14495934D02*
X14551069Y-14543553D01*
X14551069Y-14543553D02*
X14541545Y-14581648D01*
X14541545Y-14581648D02*
X14532022Y-14600696D01*
X14532022Y-14600696D02*
X14522498Y-14610220D01*
X14522498Y-14610220D02*
X14503450Y-14619744D01*
X14503450Y-14619744D02*
X14484402Y-14619744D01*
X14484402Y-14619744D02*
X14465355Y-14610220D01*
X14465355Y-14610220D02*
X14455831Y-14600696D01*
X14455831Y-14600696D02*
X14446307Y-14581648D01*
X14446307Y-14581648D02*
X14436783Y-14543553D01*
X14436783Y-14543553D02*
X14436783Y-14495934D01*
X14436783Y-14495934D02*
X14446307Y-14457839D01*
X14446307Y-14457839D02*
X14455831Y-14438791D01*
X14455831Y-14438791D02*
X14465355Y-14429268D01*
X14465355Y-14429268D02*
X14484402Y-14419744D01*
X14674879Y-14419744D02*
X14693926Y-14419744D01*
X14693926Y-14419744D02*
X14712974Y-14429268D01*
X14712974Y-14429268D02*
X14722498Y-14438791D01*
X14722498Y-14438791D02*
X14732022Y-14457839D01*
X14732022Y-14457839D02*
X14741545Y-14495934D01*
X14741545Y-14495934D02*
X14741545Y-14543553D01*
X14741545Y-14543553D02*
X14732022Y-14581648D01*
X14732022Y-14581648D02*
X14722498Y-14600696D01*
X14722498Y-14600696D02*
X14712974Y-14610220D01*
X14712974Y-14610220D02*
X14693926Y-14619744D01*
X14693926Y-14619744D02*
X14674879Y-14619744D01*
X14674879Y-14619744D02*
X14655831Y-14610220D01*
X14655831Y-14610220D02*
X14646307Y-14600696D01*
X14646307Y-14600696D02*
X14636783Y-14581648D01*
X14636783Y-14581648D02*
X14627260Y-14543553D01*
X14627260Y-14543553D02*
X14627260Y-14495934D01*
X14627260Y-14495934D02*
X14636783Y-14457839D01*
X14636783Y-14457839D02*
X14646307Y-14438791D01*
X14646307Y-14438791D02*
X14655831Y-14429268D01*
X14655831Y-14429268D02*
X14674879Y-14419744D01*
X14827260Y-14619744D02*
X14827260Y-14486410D01*
X14827260Y-14505458D02*
X14836783Y-14495934D01*
X14836783Y-14495934D02*
X14855831Y-14486410D01*
X14855831Y-14486410D02*
X14884403Y-14486410D01*
X14884403Y-14486410D02*
X14903450Y-14495934D01*
X14903450Y-14495934D02*
X14912974Y-14514982D01*
X14912974Y-14514982D02*
X14912974Y-14619744D01*
X14912974Y-14514982D02*
X14922498Y-14495934D01*
X14922498Y-14495934D02*
X14941545Y-14486410D01*
X14941545Y-14486410D02*
X14970117Y-14486410D01*
X14970117Y-14486410D02*
X14989164Y-14495934D01*
X14989164Y-14495934D02*
X14998688Y-14514982D01*
X14998688Y-14514982D02*
X14998688Y-14619744D01*
X15093926Y-14619744D02*
X15093926Y-14486410D01*
X15093926Y-14505458D02*
X15103450Y-14495934D01*
X15103450Y-14495934D02*
X15122498Y-14486410D01*
X15122498Y-14486410D02*
X15151069Y-14486410D01*
X15151069Y-14486410D02*
X15170117Y-14495934D01*
X15170117Y-14495934D02*
X15179641Y-14514982D01*
X15179641Y-14514982D02*
X15179641Y-14619744D01*
X15179641Y-14514982D02*
X15189164Y-14495934D01*
X15189164Y-14495934D02*
X15208212Y-14486410D01*
X15208212Y-14486410D02*
X15236783Y-14486410D01*
X15236783Y-14486410D02*
X15255831Y-14495934D01*
X15255831Y-14495934D02*
X15265355Y-14514982D01*
X15265355Y-14514982D02*
X15265355Y-14619744D01*
X15655831Y-14410220D02*
X15484403Y-14667363D01*
X15912974Y-14419744D02*
X15932022Y-14419744D01*
X15932022Y-14419744D02*
X15951069Y-14429268D01*
X15951069Y-14429268D02*
X15960593Y-14438791D01*
X15960593Y-14438791D02*
X15970117Y-14457839D01*
X15970117Y-14457839D02*
X15979641Y-14495934D01*
X15979641Y-14495934D02*
X15979641Y-14543553D01*
X15979641Y-14543553D02*
X15970117Y-14581648D01*
X15970117Y-14581648D02*
X15960593Y-14600696D01*
X15960593Y-14600696D02*
X15951069Y-14610220D01*
X15951069Y-14610220D02*
X15932022Y-14619744D01*
X15932022Y-14619744D02*
X15912974Y-14619744D01*
X15912974Y-14619744D02*
X15893926Y-14610220D01*
X15893926Y-14610220D02*
X15884403Y-14600696D01*
X15884403Y-14600696D02*
X15874879Y-14581648D01*
X15874879Y-14581648D02*
X15865355Y-14543553D01*
X15865355Y-14543553D02*
X15865355Y-14495934D01*
X15865355Y-14495934D02*
X15874879Y-14457839D01*
X15874879Y-14457839D02*
X15884403Y-14438791D01*
X15884403Y-14438791D02*
X15893926Y-14429268D01*
X15893926Y-14429268D02*
X15912974Y-14419744D01*
X16065355Y-14600696D02*
X16074879Y-14610220D01*
X16074879Y-14610220D02*
X16065355Y-14619744D01*
X16065355Y-14619744D02*
X16055831Y-14610220D01*
X16055831Y-14610220D02*
X16065355Y-14600696D01*
X16065355Y-14600696D02*
X16065355Y-14619744D01*
X16198688Y-14419744D02*
X16217736Y-14419744D01*
X16217736Y-14419744D02*
X16236784Y-14429268D01*
X16236784Y-14429268D02*
X16246307Y-14438791D01*
X16246307Y-14438791D02*
X16255831Y-14457839D01*
X16255831Y-14457839D02*
X16265355Y-14495934D01*
X16265355Y-14495934D02*
X16265355Y-14543553D01*
X16265355Y-14543553D02*
X16255831Y-14581648D01*
X16255831Y-14581648D02*
X16246307Y-14600696D01*
X16246307Y-14600696D02*
X16236784Y-14610220D01*
X16236784Y-14610220D02*
X16217736Y-14619744D01*
X16217736Y-14619744D02*
X16198688Y-14619744D01*
X16198688Y-14619744D02*
X16179641Y-14610220D01*
X16179641Y-14610220D02*
X16170117Y-14600696D01*
X16170117Y-14600696D02*
X16160593Y-14581648D01*
X16160593Y-14581648D02*
X16151069Y-14543553D01*
X16151069Y-14543553D02*
X16151069Y-14495934D01*
X16151069Y-14495934D02*
X16160593Y-14457839D01*
X16160593Y-14457839D02*
X16170117Y-14438791D01*
X16170117Y-14438791D02*
X16179641Y-14429268D01*
X16179641Y-14429268D02*
X16198688Y-14419744D01*
X16332022Y-14419744D02*
X16455831Y-14419744D01*
X16455831Y-14419744D02*
X16389165Y-14495934D01*
X16389165Y-14495934D02*
X16417736Y-14495934D01*
X16417736Y-14495934D02*
X16436784Y-14505458D01*
X16436784Y-14505458D02*
X16446307Y-14514982D01*
X16446307Y-14514982D02*
X16455831Y-14534029D01*
X16455831Y-14534029D02*
X16455831Y-14581648D01*
X16455831Y-14581648D02*
X16446307Y-14600696D01*
X16446307Y-14600696D02*
X16436784Y-14610220D01*
X16436784Y-14610220D02*
X16417736Y-14619744D01*
X16417736Y-14619744D02*
X16360593Y-14619744D01*
X16360593Y-14619744D02*
X16341546Y-14610220D01*
X16341546Y-14610220D02*
X16332022Y-14600696D01*
X16646307Y-14619744D02*
X16532022Y-14619744D01*
X16589165Y-14619744D02*
X16589165Y-14419744D01*
X16589165Y-14419744D02*
X16570117Y-14448315D01*
X16570117Y-14448315D02*
X16551069Y-14467363D01*
X16551069Y-14467363D02*
X16532022Y-14476887D01*
X16827260Y-14419744D02*
X16732022Y-14419744D01*
X16732022Y-14419744D02*
X16722498Y-14514982D01*
X16722498Y-14514982D02*
X16732022Y-14505458D01*
X16732022Y-14505458D02*
X16751069Y-14495934D01*
X16751069Y-14495934D02*
X16798689Y-14495934D01*
X16798689Y-14495934D02*
X16817736Y-14505458D01*
X16817736Y-14505458D02*
X16827260Y-14514982D01*
X16827260Y-14514982D02*
X16836784Y-14534029D01*
X16836784Y-14534029D02*
X16836784Y-14581648D01*
X16836784Y-14581648D02*
X16827260Y-14600696D01*
X16827260Y-14600696D02*
X16817736Y-14610220D01*
X16817736Y-14610220D02*
X16798689Y-14619744D01*
X16798689Y-14619744D02*
X16751069Y-14619744D01*
X16751069Y-14619744D02*
X16732022Y-14610220D01*
X16732022Y-14610220D02*
X16722498Y-14600696D01*
X16912974Y-14419744D02*
X16912974Y-14457839D01*
X16989165Y-14419744D02*
X16989165Y-14457839D01*
X17284403Y-14695934D02*
X17274879Y-14686410D01*
X17274879Y-14686410D02*
X17255831Y-14657839D01*
X17255831Y-14657839D02*
X17246308Y-14638791D01*
X17246308Y-14638791D02*
X17236784Y-14610220D01*
X17236784Y-14610220D02*
X17227260Y-14562601D01*
X17227260Y-14562601D02*
X17227260Y-14524506D01*
X17227260Y-14524506D02*
X17236784Y-14476887D01*
X17236784Y-14476887D02*
X17246308Y-14448315D01*
X17246308Y-14448315D02*
X17255831Y-14429268D01*
X17255831Y-14429268D02*
X17274879Y-14400696D01*
X17274879Y-14400696D02*
X17284403Y-14391172D01*
X17389165Y-14505458D02*
X17370117Y-14495934D01*
X17370117Y-14495934D02*
X17360593Y-14486410D01*
X17360593Y-14486410D02*
X17351070Y-14467363D01*
X17351070Y-14467363D02*
X17351070Y-14457839D01*
X17351070Y-14457839D02*
X17360593Y-14438791D01*
X17360593Y-14438791D02*
X17370117Y-14429268D01*
X17370117Y-14429268D02*
X17389165Y-14419744D01*
X17389165Y-14419744D02*
X17427260Y-14419744D01*
X17427260Y-14419744D02*
X17446308Y-14429268D01*
X17446308Y-14429268D02*
X17455831Y-14438791D01*
X17455831Y-14438791D02*
X17465355Y-14457839D01*
X17465355Y-14457839D02*
X17465355Y-14467363D01*
X17465355Y-14467363D02*
X17455831Y-14486410D01*
X17455831Y-14486410D02*
X17446308Y-14495934D01*
X17446308Y-14495934D02*
X17427260Y-14505458D01*
X17427260Y-14505458D02*
X17389165Y-14505458D01*
X17389165Y-14505458D02*
X17370117Y-14514982D01*
X17370117Y-14514982D02*
X17360593Y-14524506D01*
X17360593Y-14524506D02*
X17351070Y-14543553D01*
X17351070Y-14543553D02*
X17351070Y-14581648D01*
X17351070Y-14581648D02*
X17360593Y-14600696D01*
X17360593Y-14600696D02*
X17370117Y-14610220D01*
X17370117Y-14610220D02*
X17389165Y-14619744D01*
X17389165Y-14619744D02*
X17427260Y-14619744D01*
X17427260Y-14619744D02*
X17446308Y-14610220D01*
X17446308Y-14610220D02*
X17455831Y-14600696D01*
X17455831Y-14600696D02*
X17465355Y-14581648D01*
X17465355Y-14581648D02*
X17465355Y-14543553D01*
X17465355Y-14543553D02*
X17455831Y-14524506D01*
X17455831Y-14524506D02*
X17446308Y-14514982D01*
X17446308Y-14514982D02*
X17427260Y-14505458D01*
X17703451Y-14619744D02*
X17703451Y-14419744D01*
X17789165Y-14619744D02*
X17789165Y-14514982D01*
X17789165Y-14514982D02*
X17779641Y-14495934D01*
X17779641Y-14495934D02*
X17760593Y-14486410D01*
X17760593Y-14486410D02*
X17732022Y-14486410D01*
X17732022Y-14486410D02*
X17712974Y-14495934D01*
X17712974Y-14495934D02*
X17703451Y-14505458D01*
X17912974Y-14619744D02*
X17893927Y-14610220D01*
X17893927Y-14610220D02*
X17884403Y-14600696D01*
X17884403Y-14600696D02*
X17874879Y-14581648D01*
X17874879Y-14581648D02*
X17874879Y-14524506D01*
X17874879Y-14524506D02*
X17884403Y-14505458D01*
X17884403Y-14505458D02*
X17893927Y-14495934D01*
X17893927Y-14495934D02*
X17912974Y-14486410D01*
X17912974Y-14486410D02*
X17941546Y-14486410D01*
X17941546Y-14486410D02*
X17960593Y-14495934D01*
X17960593Y-14495934D02*
X17970117Y-14505458D01*
X17970117Y-14505458D02*
X17979641Y-14524506D01*
X17979641Y-14524506D02*
X17979641Y-14581648D01*
X17979641Y-14581648D02*
X17970117Y-14600696D01*
X17970117Y-14600696D02*
X17960593Y-14610220D01*
X17960593Y-14610220D02*
X17941546Y-14619744D01*
X17941546Y-14619744D02*
X17912974Y-14619744D01*
X18093927Y-14619744D02*
X18074879Y-14610220D01*
X18074879Y-14610220D02*
X18065355Y-14591172D01*
X18065355Y-14591172D02*
X18065355Y-14419744D01*
X18246308Y-14610220D02*
X18227260Y-14619744D01*
X18227260Y-14619744D02*
X18189165Y-14619744D01*
X18189165Y-14619744D02*
X18170117Y-14610220D01*
X18170117Y-14610220D02*
X18160593Y-14591172D01*
X18160593Y-14591172D02*
X18160593Y-14514982D01*
X18160593Y-14514982D02*
X18170117Y-14495934D01*
X18170117Y-14495934D02*
X18189165Y-14486410D01*
X18189165Y-14486410D02*
X18227260Y-14486410D01*
X18227260Y-14486410D02*
X18246308Y-14495934D01*
X18246308Y-14495934D02*
X18255832Y-14514982D01*
X18255832Y-14514982D02*
X18255832Y-14534029D01*
X18255832Y-14534029D02*
X18160593Y-14553077D01*
X18332022Y-14610220D02*
X18351070Y-14619744D01*
X18351070Y-14619744D02*
X18389165Y-14619744D01*
X18389165Y-14619744D02*
X18408213Y-14610220D01*
X18408213Y-14610220D02*
X18417736Y-14591172D01*
X18417736Y-14591172D02*
X18417736Y-14581648D01*
X18417736Y-14581648D02*
X18408213Y-14562601D01*
X18408213Y-14562601D02*
X18389165Y-14553077D01*
X18389165Y-14553077D02*
X18360593Y-14553077D01*
X18360593Y-14553077D02*
X18341546Y-14543553D01*
X18341546Y-14543553D02*
X18332022Y-14524506D01*
X18332022Y-14524506D02*
X18332022Y-14514982D01*
X18332022Y-14514982D02*
X18341546Y-14495934D01*
X18341546Y-14495934D02*
X18360593Y-14486410D01*
X18360593Y-14486410D02*
X18389165Y-14486410D01*
X18389165Y-14486410D02*
X18408213Y-14495934D01*
X18484403Y-14695934D02*
X18493927Y-14686410D01*
X18493927Y-14686410D02*
X18512974Y-14657839D01*
X18512974Y-14657839D02*
X18522498Y-14638791D01*
X18522498Y-14638791D02*
X18532022Y-14610220D01*
X18532022Y-14610220D02*
X18541546Y-14562601D01*
X18541546Y-14562601D02*
X18541546Y-14524506D01*
X18541546Y-14524506D02*
X18532022Y-14476887D01*
X18532022Y-14476887D02*
X18522498Y-14448315D01*
X18522498Y-14448315D02*
X18512974Y-14429268D01*
X18512974Y-14429268D02*
X18493927Y-14400696D01*
X18493927Y-14400696D02*
X18484403Y-14391172D01*
D12*
X13659810Y-14742730D02*
X13659810Y-14841790D01*
X13610280Y-14792260D02*
X13709340Y-14792260D01*
D11*
X14008212Y-14683744D02*
X14027260Y-14683744D01*
X14027260Y-14683744D02*
X14046307Y-14693268D01*
X14046307Y-14693268D02*
X14055831Y-14702791D01*
X14055831Y-14702791D02*
X14065355Y-14721839D01*
X14065355Y-14721839D02*
X14074879Y-14759934D01*
X14074879Y-14759934D02*
X14074879Y-14807553D01*
X14074879Y-14807553D02*
X14065355Y-14845648D01*
X14065355Y-14845648D02*
X14055831Y-14864696D01*
X14055831Y-14864696D02*
X14046307Y-14874220D01*
X14046307Y-14874220D02*
X14027260Y-14883744D01*
X14027260Y-14883744D02*
X14008212Y-14883744D01*
X14008212Y-14883744D02*
X13989164Y-14874220D01*
X13989164Y-14874220D02*
X13979641Y-14864696D01*
X13979641Y-14864696D02*
X13970117Y-14845648D01*
X13970117Y-14845648D02*
X13960593Y-14807553D01*
X13960593Y-14807553D02*
X13960593Y-14759934D01*
X13960593Y-14759934D02*
X13970117Y-14721839D01*
X13970117Y-14721839D02*
X13979641Y-14702791D01*
X13979641Y-14702791D02*
X13989164Y-14693268D01*
X13989164Y-14693268D02*
X14008212Y-14683744D01*
X14160593Y-14864696D02*
X14170117Y-14874220D01*
X14170117Y-14874220D02*
X14160593Y-14883744D01*
X14160593Y-14883744D02*
X14151069Y-14874220D01*
X14151069Y-14874220D02*
X14160593Y-14864696D01*
X14160593Y-14864696D02*
X14160593Y-14883744D01*
X14265355Y-14883744D02*
X14303450Y-14883744D01*
X14303450Y-14883744D02*
X14322498Y-14874220D01*
X14322498Y-14874220D02*
X14332022Y-14864696D01*
X14332022Y-14864696D02*
X14351069Y-14836125D01*
X14351069Y-14836125D02*
X14360593Y-14798029D01*
X14360593Y-14798029D02*
X14360593Y-14721839D01*
X14360593Y-14721839D02*
X14351069Y-14702791D01*
X14351069Y-14702791D02*
X14341545Y-14693268D01*
X14341545Y-14693268D02*
X14322498Y-14683744D01*
X14322498Y-14683744D02*
X14284402Y-14683744D01*
X14284402Y-14683744D02*
X14265355Y-14693268D01*
X14265355Y-14693268D02*
X14255831Y-14702791D01*
X14255831Y-14702791D02*
X14246307Y-14721839D01*
X14246307Y-14721839D02*
X14246307Y-14769458D01*
X14246307Y-14769458D02*
X14255831Y-14788506D01*
X14255831Y-14788506D02*
X14265355Y-14798029D01*
X14265355Y-14798029D02*
X14284402Y-14807553D01*
X14284402Y-14807553D02*
X14322498Y-14807553D01*
X14322498Y-14807553D02*
X14341545Y-14798029D01*
X14341545Y-14798029D02*
X14351069Y-14788506D01*
X14351069Y-14788506D02*
X14360593Y-14769458D01*
X14455831Y-14883744D02*
X14493926Y-14883744D01*
X14493926Y-14883744D02*
X14512974Y-14874220D01*
X14512974Y-14874220D02*
X14522498Y-14864696D01*
X14522498Y-14864696D02*
X14541545Y-14836125D01*
X14541545Y-14836125D02*
X14551069Y-14798029D01*
X14551069Y-14798029D02*
X14551069Y-14721839D01*
X14551069Y-14721839D02*
X14541545Y-14702791D01*
X14541545Y-14702791D02*
X14532022Y-14693268D01*
X14532022Y-14693268D02*
X14512974Y-14683744D01*
X14512974Y-14683744D02*
X14474879Y-14683744D01*
X14474879Y-14683744D02*
X14455831Y-14693268D01*
X14455831Y-14693268D02*
X14446307Y-14702791D01*
X14446307Y-14702791D02*
X14436783Y-14721839D01*
X14436783Y-14721839D02*
X14436783Y-14769458D01*
X14436783Y-14769458D02*
X14446307Y-14788506D01*
X14446307Y-14788506D02*
X14455831Y-14798029D01*
X14455831Y-14798029D02*
X14474879Y-14807553D01*
X14474879Y-14807553D02*
X14512974Y-14807553D01*
X14512974Y-14807553D02*
X14532022Y-14798029D01*
X14532022Y-14798029D02*
X14541545Y-14788506D01*
X14541545Y-14788506D02*
X14551069Y-14769458D01*
X14741545Y-14883744D02*
X14627260Y-14883744D01*
X14684402Y-14883744D02*
X14684402Y-14683744D01*
X14684402Y-14683744D02*
X14665355Y-14712315D01*
X14665355Y-14712315D02*
X14646307Y-14731363D01*
X14646307Y-14731363D02*
X14627260Y-14740887D01*
X14827260Y-14883744D02*
X14827260Y-14750410D01*
X14827260Y-14769458D02*
X14836783Y-14759934D01*
X14836783Y-14759934D02*
X14855831Y-14750410D01*
X14855831Y-14750410D02*
X14884403Y-14750410D01*
X14884403Y-14750410D02*
X14903450Y-14759934D01*
X14903450Y-14759934D02*
X14912974Y-14778982D01*
X14912974Y-14778982D02*
X14912974Y-14883744D01*
X14912974Y-14778982D02*
X14922498Y-14759934D01*
X14922498Y-14759934D02*
X14941545Y-14750410D01*
X14941545Y-14750410D02*
X14970117Y-14750410D01*
X14970117Y-14750410D02*
X14989164Y-14759934D01*
X14989164Y-14759934D02*
X14998688Y-14778982D01*
X14998688Y-14778982D02*
X14998688Y-14883744D01*
X15093926Y-14883744D02*
X15093926Y-14750410D01*
X15093926Y-14769458D02*
X15103450Y-14759934D01*
X15103450Y-14759934D02*
X15122498Y-14750410D01*
X15122498Y-14750410D02*
X15151069Y-14750410D01*
X15151069Y-14750410D02*
X15170117Y-14759934D01*
X15170117Y-14759934D02*
X15179641Y-14778982D01*
X15179641Y-14778982D02*
X15179641Y-14883744D01*
X15179641Y-14778982D02*
X15189164Y-14759934D01*
X15189164Y-14759934D02*
X15208212Y-14750410D01*
X15208212Y-14750410D02*
X15236783Y-14750410D01*
X15236783Y-14750410D02*
X15255831Y-14759934D01*
X15255831Y-14759934D02*
X15265355Y-14778982D01*
X15265355Y-14778982D02*
X15265355Y-14883744D01*
X15655831Y-14674220D02*
X15484403Y-14931363D01*
X15912974Y-14683744D02*
X15932022Y-14683744D01*
X15932022Y-14683744D02*
X15951069Y-14693268D01*
X15951069Y-14693268D02*
X15960593Y-14702791D01*
X15960593Y-14702791D02*
X15970117Y-14721839D01*
X15970117Y-14721839D02*
X15979641Y-14759934D01*
X15979641Y-14759934D02*
X15979641Y-14807553D01*
X15979641Y-14807553D02*
X15970117Y-14845648D01*
X15970117Y-14845648D02*
X15960593Y-14864696D01*
X15960593Y-14864696D02*
X15951069Y-14874220D01*
X15951069Y-14874220D02*
X15932022Y-14883744D01*
X15932022Y-14883744D02*
X15912974Y-14883744D01*
X15912974Y-14883744D02*
X15893926Y-14874220D01*
X15893926Y-14874220D02*
X15884403Y-14864696D01*
X15884403Y-14864696D02*
X15874879Y-14845648D01*
X15874879Y-14845648D02*
X15865355Y-14807553D01*
X15865355Y-14807553D02*
X15865355Y-14759934D01*
X15865355Y-14759934D02*
X15874879Y-14721839D01*
X15874879Y-14721839D02*
X15884403Y-14702791D01*
X15884403Y-14702791D02*
X15893926Y-14693268D01*
X15893926Y-14693268D02*
X15912974Y-14683744D01*
X16065355Y-14864696D02*
X16074879Y-14874220D01*
X16074879Y-14874220D02*
X16065355Y-14883744D01*
X16065355Y-14883744D02*
X16055831Y-14874220D01*
X16055831Y-14874220D02*
X16065355Y-14864696D01*
X16065355Y-14864696D02*
X16065355Y-14883744D01*
X16198688Y-14683744D02*
X16217736Y-14683744D01*
X16217736Y-14683744D02*
X16236784Y-14693268D01*
X16236784Y-14693268D02*
X16246307Y-14702791D01*
X16246307Y-14702791D02*
X16255831Y-14721839D01*
X16255831Y-14721839D02*
X16265355Y-14759934D01*
X16265355Y-14759934D02*
X16265355Y-14807553D01*
X16265355Y-14807553D02*
X16255831Y-14845648D01*
X16255831Y-14845648D02*
X16246307Y-14864696D01*
X16246307Y-14864696D02*
X16236784Y-14874220D01*
X16236784Y-14874220D02*
X16217736Y-14883744D01*
X16217736Y-14883744D02*
X16198688Y-14883744D01*
X16198688Y-14883744D02*
X16179641Y-14874220D01*
X16179641Y-14874220D02*
X16170117Y-14864696D01*
X16170117Y-14864696D02*
X16160593Y-14845648D01*
X16160593Y-14845648D02*
X16151069Y-14807553D01*
X16151069Y-14807553D02*
X16151069Y-14759934D01*
X16151069Y-14759934D02*
X16160593Y-14721839D01*
X16160593Y-14721839D02*
X16170117Y-14702791D01*
X16170117Y-14702791D02*
X16179641Y-14693268D01*
X16179641Y-14693268D02*
X16198688Y-14683744D01*
X16332022Y-14683744D02*
X16455831Y-14683744D01*
X16455831Y-14683744D02*
X16389165Y-14759934D01*
X16389165Y-14759934D02*
X16417736Y-14759934D01*
X16417736Y-14759934D02*
X16436784Y-14769458D01*
X16436784Y-14769458D02*
X16446307Y-14778982D01*
X16446307Y-14778982D02*
X16455831Y-14798029D01*
X16455831Y-14798029D02*
X16455831Y-14845648D01*
X16455831Y-14845648D02*
X16446307Y-14864696D01*
X16446307Y-14864696D02*
X16436784Y-14874220D01*
X16436784Y-14874220D02*
X16417736Y-14883744D01*
X16417736Y-14883744D02*
X16360593Y-14883744D01*
X16360593Y-14883744D02*
X16341546Y-14874220D01*
X16341546Y-14874220D02*
X16332022Y-14864696D01*
X16551069Y-14883744D02*
X16589165Y-14883744D01*
X16589165Y-14883744D02*
X16608212Y-14874220D01*
X16608212Y-14874220D02*
X16617736Y-14864696D01*
X16617736Y-14864696D02*
X16636784Y-14836125D01*
X16636784Y-14836125D02*
X16646307Y-14798029D01*
X16646307Y-14798029D02*
X16646307Y-14721839D01*
X16646307Y-14721839D02*
X16636784Y-14702791D01*
X16636784Y-14702791D02*
X16627260Y-14693268D01*
X16627260Y-14693268D02*
X16608212Y-14683744D01*
X16608212Y-14683744D02*
X16570117Y-14683744D01*
X16570117Y-14683744D02*
X16551069Y-14693268D01*
X16551069Y-14693268D02*
X16541546Y-14702791D01*
X16541546Y-14702791D02*
X16532022Y-14721839D01*
X16532022Y-14721839D02*
X16532022Y-14769458D01*
X16532022Y-14769458D02*
X16541546Y-14788506D01*
X16541546Y-14788506D02*
X16551069Y-14798029D01*
X16551069Y-14798029D02*
X16570117Y-14807553D01*
X16570117Y-14807553D02*
X16608212Y-14807553D01*
X16608212Y-14807553D02*
X16627260Y-14798029D01*
X16627260Y-14798029D02*
X16636784Y-14788506D01*
X16636784Y-14788506D02*
X16646307Y-14769458D01*
X16770117Y-14683744D02*
X16789165Y-14683744D01*
X16789165Y-14683744D02*
X16808212Y-14693268D01*
X16808212Y-14693268D02*
X16817736Y-14702791D01*
X16817736Y-14702791D02*
X16827260Y-14721839D01*
X16827260Y-14721839D02*
X16836784Y-14759934D01*
X16836784Y-14759934D02*
X16836784Y-14807553D01*
X16836784Y-14807553D02*
X16827260Y-14845648D01*
X16827260Y-14845648D02*
X16817736Y-14864696D01*
X16817736Y-14864696D02*
X16808212Y-14874220D01*
X16808212Y-14874220D02*
X16789165Y-14883744D01*
X16789165Y-14883744D02*
X16770117Y-14883744D01*
X16770117Y-14883744D02*
X16751069Y-14874220D01*
X16751069Y-14874220D02*
X16741546Y-14864696D01*
X16741546Y-14864696D02*
X16732022Y-14845648D01*
X16732022Y-14845648D02*
X16722498Y-14807553D01*
X16722498Y-14807553D02*
X16722498Y-14759934D01*
X16722498Y-14759934D02*
X16732022Y-14721839D01*
X16732022Y-14721839D02*
X16741546Y-14702791D01*
X16741546Y-14702791D02*
X16751069Y-14693268D01*
X16751069Y-14693268D02*
X16770117Y-14683744D01*
X16912974Y-14683744D02*
X16912974Y-14721839D01*
X16989165Y-14683744D02*
X16989165Y-14721839D01*
X17284403Y-14959934D02*
X17274879Y-14950410D01*
X17274879Y-14950410D02*
X17255831Y-14921839D01*
X17255831Y-14921839D02*
X17246308Y-14902791D01*
X17246308Y-14902791D02*
X17236784Y-14874220D01*
X17236784Y-14874220D02*
X17227260Y-14826601D01*
X17227260Y-14826601D02*
X17227260Y-14788506D01*
X17227260Y-14788506D02*
X17236784Y-14740887D01*
X17236784Y-14740887D02*
X17246308Y-14712315D01*
X17246308Y-14712315D02*
X17255831Y-14693268D01*
X17255831Y-14693268D02*
X17274879Y-14664696D01*
X17274879Y-14664696D02*
X17284403Y-14655172D01*
X17465355Y-14883744D02*
X17351070Y-14883744D01*
X17408212Y-14883744D02*
X17408212Y-14683744D01*
X17408212Y-14683744D02*
X17389165Y-14712315D01*
X17389165Y-14712315D02*
X17370117Y-14731363D01*
X17370117Y-14731363D02*
X17351070Y-14740887D01*
X17579641Y-14769458D02*
X17560593Y-14759934D01*
X17560593Y-14759934D02*
X17551070Y-14750410D01*
X17551070Y-14750410D02*
X17541546Y-14731363D01*
X17541546Y-14731363D02*
X17541546Y-14721839D01*
X17541546Y-14721839D02*
X17551070Y-14702791D01*
X17551070Y-14702791D02*
X17560593Y-14693268D01*
X17560593Y-14693268D02*
X17579641Y-14683744D01*
X17579641Y-14683744D02*
X17617736Y-14683744D01*
X17617736Y-14683744D02*
X17636784Y-14693268D01*
X17636784Y-14693268D02*
X17646308Y-14702791D01*
X17646308Y-14702791D02*
X17655831Y-14721839D01*
X17655831Y-14721839D02*
X17655831Y-14731363D01*
X17655831Y-14731363D02*
X17646308Y-14750410D01*
X17646308Y-14750410D02*
X17636784Y-14759934D01*
X17636784Y-14759934D02*
X17617736Y-14769458D01*
X17617736Y-14769458D02*
X17579641Y-14769458D01*
X17579641Y-14769458D02*
X17560593Y-14778982D01*
X17560593Y-14778982D02*
X17551070Y-14788506D01*
X17551070Y-14788506D02*
X17541546Y-14807553D01*
X17541546Y-14807553D02*
X17541546Y-14845648D01*
X17541546Y-14845648D02*
X17551070Y-14864696D01*
X17551070Y-14864696D02*
X17560593Y-14874220D01*
X17560593Y-14874220D02*
X17579641Y-14883744D01*
X17579641Y-14883744D02*
X17617736Y-14883744D01*
X17617736Y-14883744D02*
X17636784Y-14874220D01*
X17636784Y-14874220D02*
X17646308Y-14864696D01*
X17646308Y-14864696D02*
X17655831Y-14845648D01*
X17655831Y-14845648D02*
X17655831Y-14807553D01*
X17655831Y-14807553D02*
X17646308Y-14788506D01*
X17646308Y-14788506D02*
X17636784Y-14778982D01*
X17636784Y-14778982D02*
X17617736Y-14769458D01*
X17893927Y-14883744D02*
X17893927Y-14683744D01*
X17979641Y-14883744D02*
X17979641Y-14778982D01*
X17979641Y-14778982D02*
X17970117Y-14759934D01*
X17970117Y-14759934D02*
X17951070Y-14750410D01*
X17951070Y-14750410D02*
X17922498Y-14750410D01*
X17922498Y-14750410D02*
X17903451Y-14759934D01*
X17903451Y-14759934D02*
X17893927Y-14769458D01*
X18103451Y-14883744D02*
X18084403Y-14874220D01*
X18084403Y-14874220D02*
X18074879Y-14864696D01*
X18074879Y-14864696D02*
X18065355Y-14845648D01*
X18065355Y-14845648D02*
X18065355Y-14788506D01*
X18065355Y-14788506D02*
X18074879Y-14769458D01*
X18074879Y-14769458D02*
X18084403Y-14759934D01*
X18084403Y-14759934D02*
X18103451Y-14750410D01*
X18103451Y-14750410D02*
X18132022Y-14750410D01*
X18132022Y-14750410D02*
X18151070Y-14759934D01*
X18151070Y-14759934D02*
X18160593Y-14769458D01*
X18160593Y-14769458D02*
X18170117Y-14788506D01*
X18170117Y-14788506D02*
X18170117Y-14845648D01*
X18170117Y-14845648D02*
X18160593Y-14864696D01*
X18160593Y-14864696D02*
X18151070Y-14874220D01*
X18151070Y-14874220D02*
X18132022Y-14883744D01*
X18132022Y-14883744D02*
X18103451Y-14883744D01*
X18284403Y-14883744D02*
X18265355Y-14874220D01*
X18265355Y-14874220D02*
X18255832Y-14855172D01*
X18255832Y-14855172D02*
X18255832Y-14683744D01*
X18436784Y-14874220D02*
X18417736Y-14883744D01*
X18417736Y-14883744D02*
X18379641Y-14883744D01*
X18379641Y-14883744D02*
X18360593Y-14874220D01*
X18360593Y-14874220D02*
X18351070Y-14855172D01*
X18351070Y-14855172D02*
X18351070Y-14778982D01*
X18351070Y-14778982D02*
X18360593Y-14759934D01*
X18360593Y-14759934D02*
X18379641Y-14750410D01*
X18379641Y-14750410D02*
X18417736Y-14750410D01*
X18417736Y-14750410D02*
X18436784Y-14759934D01*
X18436784Y-14759934D02*
X18446308Y-14778982D01*
X18446308Y-14778982D02*
X18446308Y-14798029D01*
X18446308Y-14798029D02*
X18351070Y-14817077D01*
X18522498Y-14874220D02*
X18541546Y-14883744D01*
X18541546Y-14883744D02*
X18579641Y-14883744D01*
X18579641Y-14883744D02*
X18598689Y-14874220D01*
X18598689Y-14874220D02*
X18608213Y-14855172D01*
X18608213Y-14855172D02*
X18608213Y-14845648D01*
X18608213Y-14845648D02*
X18598689Y-14826601D01*
X18598689Y-14826601D02*
X18579641Y-14817077D01*
X18579641Y-14817077D02*
X18551070Y-14817077D01*
X18551070Y-14817077D02*
X18532022Y-14807553D01*
X18532022Y-14807553D02*
X18522498Y-14788506D01*
X18522498Y-14788506D02*
X18522498Y-14778982D01*
X18522498Y-14778982D02*
X18532022Y-14759934D01*
X18532022Y-14759934D02*
X18551070Y-14750410D01*
X18551070Y-14750410D02*
X18579641Y-14750410D01*
X18579641Y-14750410D02*
X18598689Y-14759934D01*
X18674879Y-14959934D02*
X18684403Y-14950410D01*
X18684403Y-14950410D02*
X18703451Y-14921839D01*
X18703451Y-14921839D02*
X18712974Y-14902791D01*
X18712974Y-14902791D02*
X18722498Y-14874220D01*
X18722498Y-14874220D02*
X18732022Y-14826601D01*
X18732022Y-14826601D02*
X18732022Y-14788506D01*
X18732022Y-14788506D02*
X18722498Y-14740887D01*
X18722498Y-14740887D02*
X18712974Y-14712315D01*
X18712974Y-14712315D02*
X18703451Y-14693268D01*
X18703451Y-14693268D02*
X18684403Y-14664696D01*
X18684403Y-14664696D02*
X18674879Y-14655172D01*
D12*
X13694696Y-15091616D02*
X13694696Y-15020904D01*
X13623984Y-15020904D01*
X13623984Y-15091616D01*
X13694696Y-15091616D01*
D11*
X14074879Y-15147744D02*
X13960593Y-15147744D01*
X14017736Y-15147744D02*
X14017736Y-14947744D01*
X14017736Y-14947744D02*
X13998688Y-14976315D01*
X13998688Y-14976315D02*
X13979641Y-14995363D01*
X13979641Y-14995363D02*
X13960593Y-15004887D01*
X14160593Y-15128696D02*
X14170117Y-15138220D01*
X14170117Y-15138220D02*
X14160593Y-15147744D01*
X14160593Y-15147744D02*
X14151069Y-15138220D01*
X14151069Y-15138220D02*
X14160593Y-15128696D01*
X14160593Y-15128696D02*
X14160593Y-15147744D01*
X14293926Y-14947744D02*
X14312974Y-14947744D01*
X14312974Y-14947744D02*
X14332022Y-14957268D01*
X14332022Y-14957268D02*
X14341545Y-14966791D01*
X14341545Y-14966791D02*
X14351069Y-14985839D01*
X14351069Y-14985839D02*
X14360593Y-15023934D01*
X14360593Y-15023934D02*
X14360593Y-15071553D01*
X14360593Y-15071553D02*
X14351069Y-15109648D01*
X14351069Y-15109648D02*
X14341545Y-15128696D01*
X14341545Y-15128696D02*
X14332022Y-15138220D01*
X14332022Y-15138220D02*
X14312974Y-15147744D01*
X14312974Y-15147744D02*
X14293926Y-15147744D01*
X14293926Y-15147744D02*
X14274879Y-15138220D01*
X14274879Y-15138220D02*
X14265355Y-15128696D01*
X14265355Y-15128696D02*
X14255831Y-15109648D01*
X14255831Y-15109648D02*
X14246307Y-15071553D01*
X14246307Y-15071553D02*
X14246307Y-15023934D01*
X14246307Y-15023934D02*
X14255831Y-14985839D01*
X14255831Y-14985839D02*
X14265355Y-14966791D01*
X14265355Y-14966791D02*
X14274879Y-14957268D01*
X14274879Y-14957268D02*
X14293926Y-14947744D01*
X14484402Y-14947744D02*
X14503450Y-14947744D01*
X14503450Y-14947744D02*
X14522498Y-14957268D01*
X14522498Y-14957268D02*
X14532022Y-14966791D01*
X14532022Y-14966791D02*
X14541545Y-14985839D01*
X14541545Y-14985839D02*
X14551069Y-15023934D01*
X14551069Y-15023934D02*
X14551069Y-15071553D01*
X14551069Y-15071553D02*
X14541545Y-15109648D01*
X14541545Y-15109648D02*
X14532022Y-15128696D01*
X14532022Y-15128696D02*
X14522498Y-15138220D01*
X14522498Y-15138220D02*
X14503450Y-15147744D01*
X14503450Y-15147744D02*
X14484402Y-15147744D01*
X14484402Y-15147744D02*
X14465355Y-15138220D01*
X14465355Y-15138220D02*
X14455831Y-15128696D01*
X14455831Y-15128696D02*
X14446307Y-15109648D01*
X14446307Y-15109648D02*
X14436783Y-15071553D01*
X14436783Y-15071553D02*
X14436783Y-15023934D01*
X14436783Y-15023934D02*
X14446307Y-14985839D01*
X14446307Y-14985839D02*
X14455831Y-14966791D01*
X14455831Y-14966791D02*
X14465355Y-14957268D01*
X14465355Y-14957268D02*
X14484402Y-14947744D01*
X14674879Y-14947744D02*
X14693926Y-14947744D01*
X14693926Y-14947744D02*
X14712974Y-14957268D01*
X14712974Y-14957268D02*
X14722498Y-14966791D01*
X14722498Y-14966791D02*
X14732022Y-14985839D01*
X14732022Y-14985839D02*
X14741545Y-15023934D01*
X14741545Y-15023934D02*
X14741545Y-15071553D01*
X14741545Y-15071553D02*
X14732022Y-15109648D01*
X14732022Y-15109648D02*
X14722498Y-15128696D01*
X14722498Y-15128696D02*
X14712974Y-15138220D01*
X14712974Y-15138220D02*
X14693926Y-15147744D01*
X14693926Y-15147744D02*
X14674879Y-15147744D01*
X14674879Y-15147744D02*
X14655831Y-15138220D01*
X14655831Y-15138220D02*
X14646307Y-15128696D01*
X14646307Y-15128696D02*
X14636783Y-15109648D01*
X14636783Y-15109648D02*
X14627260Y-15071553D01*
X14627260Y-15071553D02*
X14627260Y-15023934D01*
X14627260Y-15023934D02*
X14636783Y-14985839D01*
X14636783Y-14985839D02*
X14646307Y-14966791D01*
X14646307Y-14966791D02*
X14655831Y-14957268D01*
X14655831Y-14957268D02*
X14674879Y-14947744D01*
X14827260Y-15147744D02*
X14827260Y-15014410D01*
X14827260Y-15033458D02*
X14836783Y-15023934D01*
X14836783Y-15023934D02*
X14855831Y-15014410D01*
X14855831Y-15014410D02*
X14884403Y-15014410D01*
X14884403Y-15014410D02*
X14903450Y-15023934D01*
X14903450Y-15023934D02*
X14912974Y-15042982D01*
X14912974Y-15042982D02*
X14912974Y-15147744D01*
X14912974Y-15042982D02*
X14922498Y-15023934D01*
X14922498Y-15023934D02*
X14941545Y-15014410D01*
X14941545Y-15014410D02*
X14970117Y-15014410D01*
X14970117Y-15014410D02*
X14989164Y-15023934D01*
X14989164Y-15023934D02*
X14998688Y-15042982D01*
X14998688Y-15042982D02*
X14998688Y-15147744D01*
X15093926Y-15147744D02*
X15093926Y-15014410D01*
X15093926Y-15033458D02*
X15103450Y-15023934D01*
X15103450Y-15023934D02*
X15122498Y-15014410D01*
X15122498Y-15014410D02*
X15151069Y-15014410D01*
X15151069Y-15014410D02*
X15170117Y-15023934D01*
X15170117Y-15023934D02*
X15179641Y-15042982D01*
X15179641Y-15042982D02*
X15179641Y-15147744D01*
X15179641Y-15042982D02*
X15189164Y-15023934D01*
X15189164Y-15023934D02*
X15208212Y-15014410D01*
X15208212Y-15014410D02*
X15236783Y-15014410D01*
X15236783Y-15014410D02*
X15255831Y-15023934D01*
X15255831Y-15023934D02*
X15265355Y-15042982D01*
X15265355Y-15042982D02*
X15265355Y-15147744D01*
X15655831Y-14938220D02*
X15484403Y-15195363D01*
X15912974Y-14947744D02*
X15932022Y-14947744D01*
X15932022Y-14947744D02*
X15951069Y-14957268D01*
X15951069Y-14957268D02*
X15960593Y-14966791D01*
X15960593Y-14966791D02*
X15970117Y-14985839D01*
X15970117Y-14985839D02*
X15979641Y-15023934D01*
X15979641Y-15023934D02*
X15979641Y-15071553D01*
X15979641Y-15071553D02*
X15970117Y-15109648D01*
X15970117Y-15109648D02*
X15960593Y-15128696D01*
X15960593Y-15128696D02*
X15951069Y-15138220D01*
X15951069Y-15138220D02*
X15932022Y-15147744D01*
X15932022Y-15147744D02*
X15912974Y-15147744D01*
X15912974Y-15147744D02*
X15893926Y-15138220D01*
X15893926Y-15138220D02*
X15884403Y-15128696D01*
X15884403Y-15128696D02*
X15874879Y-15109648D01*
X15874879Y-15109648D02*
X15865355Y-15071553D01*
X15865355Y-15071553D02*
X15865355Y-15023934D01*
X15865355Y-15023934D02*
X15874879Y-14985839D01*
X15874879Y-14985839D02*
X15884403Y-14966791D01*
X15884403Y-14966791D02*
X15893926Y-14957268D01*
X15893926Y-14957268D02*
X15912974Y-14947744D01*
X16065355Y-15128696D02*
X16074879Y-15138220D01*
X16074879Y-15138220D02*
X16065355Y-15147744D01*
X16065355Y-15147744D02*
X16055831Y-15138220D01*
X16055831Y-15138220D02*
X16065355Y-15128696D01*
X16065355Y-15128696D02*
X16065355Y-15147744D01*
X16198688Y-14947744D02*
X16217736Y-14947744D01*
X16217736Y-14947744D02*
X16236784Y-14957268D01*
X16236784Y-14957268D02*
X16246307Y-14966791D01*
X16246307Y-14966791D02*
X16255831Y-14985839D01*
X16255831Y-14985839D02*
X16265355Y-15023934D01*
X16265355Y-15023934D02*
X16265355Y-15071553D01*
X16265355Y-15071553D02*
X16255831Y-15109648D01*
X16255831Y-15109648D02*
X16246307Y-15128696D01*
X16246307Y-15128696D02*
X16236784Y-15138220D01*
X16236784Y-15138220D02*
X16217736Y-15147744D01*
X16217736Y-15147744D02*
X16198688Y-15147744D01*
X16198688Y-15147744D02*
X16179641Y-15138220D01*
X16179641Y-15138220D02*
X16170117Y-15128696D01*
X16170117Y-15128696D02*
X16160593Y-15109648D01*
X16160593Y-15109648D02*
X16151069Y-15071553D01*
X16151069Y-15071553D02*
X16151069Y-15023934D01*
X16151069Y-15023934D02*
X16160593Y-14985839D01*
X16160593Y-14985839D02*
X16170117Y-14966791D01*
X16170117Y-14966791D02*
X16179641Y-14957268D01*
X16179641Y-14957268D02*
X16198688Y-14947744D01*
X16332022Y-14947744D02*
X16455831Y-14947744D01*
X16455831Y-14947744D02*
X16389165Y-15023934D01*
X16389165Y-15023934D02*
X16417736Y-15023934D01*
X16417736Y-15023934D02*
X16436784Y-15033458D01*
X16436784Y-15033458D02*
X16446307Y-15042982D01*
X16446307Y-15042982D02*
X16455831Y-15062029D01*
X16455831Y-15062029D02*
X16455831Y-15109648D01*
X16455831Y-15109648D02*
X16446307Y-15128696D01*
X16446307Y-15128696D02*
X16436784Y-15138220D01*
X16436784Y-15138220D02*
X16417736Y-15147744D01*
X16417736Y-15147744D02*
X16360593Y-15147744D01*
X16360593Y-15147744D02*
X16341546Y-15138220D01*
X16341546Y-15138220D02*
X16332022Y-15128696D01*
X16551069Y-15147744D02*
X16589165Y-15147744D01*
X16589165Y-15147744D02*
X16608212Y-15138220D01*
X16608212Y-15138220D02*
X16617736Y-15128696D01*
X16617736Y-15128696D02*
X16636784Y-15100125D01*
X16636784Y-15100125D02*
X16646307Y-15062029D01*
X16646307Y-15062029D02*
X16646307Y-14985839D01*
X16646307Y-14985839D02*
X16636784Y-14966791D01*
X16636784Y-14966791D02*
X16627260Y-14957268D01*
X16627260Y-14957268D02*
X16608212Y-14947744D01*
X16608212Y-14947744D02*
X16570117Y-14947744D01*
X16570117Y-14947744D02*
X16551069Y-14957268D01*
X16551069Y-14957268D02*
X16541546Y-14966791D01*
X16541546Y-14966791D02*
X16532022Y-14985839D01*
X16532022Y-14985839D02*
X16532022Y-15033458D01*
X16532022Y-15033458D02*
X16541546Y-15052506D01*
X16541546Y-15052506D02*
X16551069Y-15062029D01*
X16551069Y-15062029D02*
X16570117Y-15071553D01*
X16570117Y-15071553D02*
X16608212Y-15071553D01*
X16608212Y-15071553D02*
X16627260Y-15062029D01*
X16627260Y-15062029D02*
X16636784Y-15052506D01*
X16636784Y-15052506D02*
X16646307Y-15033458D01*
X16817736Y-15014410D02*
X16817736Y-15147744D01*
X16770117Y-14938220D02*
X16722498Y-15081077D01*
X16722498Y-15081077D02*
X16846308Y-15081077D01*
X16912974Y-14947744D02*
X16912974Y-14985839D01*
X16989165Y-14947744D02*
X16989165Y-14985839D01*
X17284403Y-15223934D02*
X17274879Y-15214410D01*
X17274879Y-15214410D02*
X17255831Y-15185839D01*
X17255831Y-15185839D02*
X17246308Y-15166791D01*
X17246308Y-15166791D02*
X17236784Y-15138220D01*
X17236784Y-15138220D02*
X17227260Y-15090601D01*
X17227260Y-15090601D02*
X17227260Y-15052506D01*
X17227260Y-15052506D02*
X17236784Y-15004887D01*
X17236784Y-15004887D02*
X17246308Y-14976315D01*
X17246308Y-14976315D02*
X17255831Y-14957268D01*
X17255831Y-14957268D02*
X17274879Y-14928696D01*
X17274879Y-14928696D02*
X17284403Y-14919172D01*
X17465355Y-15147744D02*
X17351070Y-15147744D01*
X17408212Y-15147744D02*
X17408212Y-14947744D01*
X17408212Y-14947744D02*
X17389165Y-14976315D01*
X17389165Y-14976315D02*
X17370117Y-14995363D01*
X17370117Y-14995363D02*
X17351070Y-15004887D01*
X17541546Y-14966791D02*
X17551070Y-14957268D01*
X17551070Y-14957268D02*
X17570117Y-14947744D01*
X17570117Y-14947744D02*
X17617736Y-14947744D01*
X17617736Y-14947744D02*
X17636784Y-14957268D01*
X17636784Y-14957268D02*
X17646308Y-14966791D01*
X17646308Y-14966791D02*
X17655831Y-14985839D01*
X17655831Y-14985839D02*
X17655831Y-15004887D01*
X17655831Y-15004887D02*
X17646308Y-15033458D01*
X17646308Y-15033458D02*
X17532022Y-15147744D01*
X17532022Y-15147744D02*
X17655831Y-15147744D01*
X17722498Y-14947744D02*
X17846308Y-14947744D01*
X17846308Y-14947744D02*
X17779641Y-15023934D01*
X17779641Y-15023934D02*
X17808212Y-15023934D01*
X17808212Y-15023934D02*
X17827260Y-15033458D01*
X17827260Y-15033458D02*
X17836784Y-15042982D01*
X17836784Y-15042982D02*
X17846308Y-15062029D01*
X17846308Y-15062029D02*
X17846308Y-15109648D01*
X17846308Y-15109648D02*
X17836784Y-15128696D01*
X17836784Y-15128696D02*
X17827260Y-15138220D01*
X17827260Y-15138220D02*
X17808212Y-15147744D01*
X17808212Y-15147744D02*
X17751070Y-15147744D01*
X17751070Y-15147744D02*
X17732022Y-15138220D01*
X17732022Y-15138220D02*
X17722498Y-15128696D01*
X18084403Y-15147744D02*
X18084403Y-14947744D01*
X18170117Y-15147744D02*
X18170117Y-15042982D01*
X18170117Y-15042982D02*
X18160593Y-15023934D01*
X18160593Y-15023934D02*
X18141546Y-15014410D01*
X18141546Y-15014410D02*
X18112974Y-15014410D01*
X18112974Y-15014410D02*
X18093927Y-15023934D01*
X18093927Y-15023934D02*
X18084403Y-15033458D01*
X18293927Y-15147744D02*
X18274879Y-15138220D01*
X18274879Y-15138220D02*
X18265355Y-15128696D01*
X18265355Y-15128696D02*
X18255832Y-15109648D01*
X18255832Y-15109648D02*
X18255832Y-15052506D01*
X18255832Y-15052506D02*
X18265355Y-15033458D01*
X18265355Y-15033458D02*
X18274879Y-15023934D01*
X18274879Y-15023934D02*
X18293927Y-15014410D01*
X18293927Y-15014410D02*
X18322498Y-15014410D01*
X18322498Y-15014410D02*
X18341546Y-15023934D01*
X18341546Y-15023934D02*
X18351070Y-15033458D01*
X18351070Y-15033458D02*
X18360593Y-15052506D01*
X18360593Y-15052506D02*
X18360593Y-15109648D01*
X18360593Y-15109648D02*
X18351070Y-15128696D01*
X18351070Y-15128696D02*
X18341546Y-15138220D01*
X18341546Y-15138220D02*
X18322498Y-15147744D01*
X18322498Y-15147744D02*
X18293927Y-15147744D01*
X18474879Y-15147744D02*
X18455832Y-15138220D01*
X18455832Y-15138220D02*
X18446308Y-15119172D01*
X18446308Y-15119172D02*
X18446308Y-14947744D01*
X18627260Y-15138220D02*
X18608213Y-15147744D01*
X18608213Y-15147744D02*
X18570117Y-15147744D01*
X18570117Y-15147744D02*
X18551070Y-15138220D01*
X18551070Y-15138220D02*
X18541546Y-15119172D01*
X18541546Y-15119172D02*
X18541546Y-15042982D01*
X18541546Y-15042982D02*
X18551070Y-15023934D01*
X18551070Y-15023934D02*
X18570117Y-15014410D01*
X18570117Y-15014410D02*
X18608213Y-15014410D01*
X18608213Y-15014410D02*
X18627260Y-15023934D01*
X18627260Y-15023934D02*
X18636784Y-15042982D01*
X18636784Y-15042982D02*
X18636784Y-15062029D01*
X18636784Y-15062029D02*
X18541546Y-15081077D01*
X18712974Y-15138220D02*
X18732022Y-15147744D01*
X18732022Y-15147744D02*
X18770117Y-15147744D01*
X18770117Y-15147744D02*
X18789165Y-15138220D01*
X18789165Y-15138220D02*
X18798689Y-15119172D01*
X18798689Y-15119172D02*
X18798689Y-15109648D01*
X18798689Y-15109648D02*
X18789165Y-15090601D01*
X18789165Y-15090601D02*
X18770117Y-15081077D01*
X18770117Y-15081077D02*
X18741546Y-15081077D01*
X18741546Y-15081077D02*
X18722498Y-15071553D01*
X18722498Y-15071553D02*
X18712974Y-15052506D01*
X18712974Y-15052506D02*
X18712974Y-15042982D01*
X18712974Y-15042982D02*
X18722498Y-15023934D01*
X18722498Y-15023934D02*
X18741546Y-15014410D01*
X18741546Y-15014410D02*
X18770117Y-15014410D01*
X18770117Y-15014410D02*
X18789165Y-15023934D01*
X18865355Y-15223934D02*
X18874879Y-15214410D01*
X18874879Y-15214410D02*
X18893927Y-15185839D01*
X18893927Y-15185839D02*
X18903451Y-15166791D01*
X18903451Y-15166791D02*
X18912974Y-15138220D01*
X18912974Y-15138220D02*
X18922498Y-15090601D01*
X18922498Y-15090601D02*
X18922498Y-15052506D01*
X18922498Y-15052506D02*
X18912974Y-15004887D01*
X18912974Y-15004887D02*
X18903451Y-14976315D01*
X18903451Y-14976315D02*
X18893927Y-14957268D01*
X18893927Y-14957268D02*
X18874879Y-14928696D01*
X18874879Y-14928696D02*
X18865355Y-14919172D01*
D13*
X13654340Y-15375260D02*
X13709340Y-15320260D01*
X13654340Y-15265260D01*
X13599340Y-15320260D01*
X13654340Y-15375260D01*
D11*
X14074879Y-15411744D02*
X13960593Y-15411744D01*
X14017736Y-15411744D02*
X14017736Y-15211744D01*
X14017736Y-15211744D02*
X13998688Y-15240315D01*
X13998688Y-15240315D02*
X13979641Y-15259363D01*
X13979641Y-15259363D02*
X13960593Y-15268887D01*
X14160593Y-15392696D02*
X14170117Y-15402220D01*
X14170117Y-15402220D02*
X14160593Y-15411744D01*
X14160593Y-15411744D02*
X14151069Y-15402220D01*
X14151069Y-15402220D02*
X14160593Y-15392696D01*
X14160593Y-15392696D02*
X14160593Y-15411744D01*
X14360593Y-15411744D02*
X14246307Y-15411744D01*
X14303450Y-15411744D02*
X14303450Y-15211744D01*
X14303450Y-15211744D02*
X14284402Y-15240315D01*
X14284402Y-15240315D02*
X14265355Y-15259363D01*
X14265355Y-15259363D02*
X14246307Y-15268887D01*
X14484402Y-15211744D02*
X14503450Y-15211744D01*
X14503450Y-15211744D02*
X14522498Y-15221268D01*
X14522498Y-15221268D02*
X14532022Y-15230791D01*
X14532022Y-15230791D02*
X14541545Y-15249839D01*
X14541545Y-15249839D02*
X14551069Y-15287934D01*
X14551069Y-15287934D02*
X14551069Y-15335553D01*
X14551069Y-15335553D02*
X14541545Y-15373648D01*
X14541545Y-15373648D02*
X14532022Y-15392696D01*
X14532022Y-15392696D02*
X14522498Y-15402220D01*
X14522498Y-15402220D02*
X14503450Y-15411744D01*
X14503450Y-15411744D02*
X14484402Y-15411744D01*
X14484402Y-15411744D02*
X14465355Y-15402220D01*
X14465355Y-15402220D02*
X14455831Y-15392696D01*
X14455831Y-15392696D02*
X14446307Y-15373648D01*
X14446307Y-15373648D02*
X14436783Y-15335553D01*
X14436783Y-15335553D02*
X14436783Y-15287934D01*
X14436783Y-15287934D02*
X14446307Y-15249839D01*
X14446307Y-15249839D02*
X14455831Y-15230791D01*
X14455831Y-15230791D02*
X14465355Y-15221268D01*
X14465355Y-15221268D02*
X14484402Y-15211744D01*
X14674879Y-15211744D02*
X14693926Y-15211744D01*
X14693926Y-15211744D02*
X14712974Y-15221268D01*
X14712974Y-15221268D02*
X14722498Y-15230791D01*
X14722498Y-15230791D02*
X14732022Y-15249839D01*
X14732022Y-15249839D02*
X14741545Y-15287934D01*
X14741545Y-15287934D02*
X14741545Y-15335553D01*
X14741545Y-15335553D02*
X14732022Y-15373648D01*
X14732022Y-15373648D02*
X14722498Y-15392696D01*
X14722498Y-15392696D02*
X14712974Y-15402220D01*
X14712974Y-15402220D02*
X14693926Y-15411744D01*
X14693926Y-15411744D02*
X14674879Y-15411744D01*
X14674879Y-15411744D02*
X14655831Y-15402220D01*
X14655831Y-15402220D02*
X14646307Y-15392696D01*
X14646307Y-15392696D02*
X14636783Y-15373648D01*
X14636783Y-15373648D02*
X14627260Y-15335553D01*
X14627260Y-15335553D02*
X14627260Y-15287934D01*
X14627260Y-15287934D02*
X14636783Y-15249839D01*
X14636783Y-15249839D02*
X14646307Y-15230791D01*
X14646307Y-15230791D02*
X14655831Y-15221268D01*
X14655831Y-15221268D02*
X14674879Y-15211744D01*
X14827260Y-15411744D02*
X14827260Y-15278410D01*
X14827260Y-15297458D02*
X14836783Y-15287934D01*
X14836783Y-15287934D02*
X14855831Y-15278410D01*
X14855831Y-15278410D02*
X14884403Y-15278410D01*
X14884403Y-15278410D02*
X14903450Y-15287934D01*
X14903450Y-15287934D02*
X14912974Y-15306982D01*
X14912974Y-15306982D02*
X14912974Y-15411744D01*
X14912974Y-15306982D02*
X14922498Y-15287934D01*
X14922498Y-15287934D02*
X14941545Y-15278410D01*
X14941545Y-15278410D02*
X14970117Y-15278410D01*
X14970117Y-15278410D02*
X14989164Y-15287934D01*
X14989164Y-15287934D02*
X14998688Y-15306982D01*
X14998688Y-15306982D02*
X14998688Y-15411744D01*
X15093926Y-15411744D02*
X15093926Y-15278410D01*
X15093926Y-15297458D02*
X15103450Y-15287934D01*
X15103450Y-15287934D02*
X15122498Y-15278410D01*
X15122498Y-15278410D02*
X15151069Y-15278410D01*
X15151069Y-15278410D02*
X15170117Y-15287934D01*
X15170117Y-15287934D02*
X15179641Y-15306982D01*
X15179641Y-15306982D02*
X15179641Y-15411744D01*
X15179641Y-15306982D02*
X15189164Y-15287934D01*
X15189164Y-15287934D02*
X15208212Y-15278410D01*
X15208212Y-15278410D02*
X15236783Y-15278410D01*
X15236783Y-15278410D02*
X15255831Y-15287934D01*
X15255831Y-15287934D02*
X15265355Y-15306982D01*
X15265355Y-15306982D02*
X15265355Y-15411744D01*
X15655831Y-15202220D02*
X15484403Y-15459363D01*
X15912974Y-15211744D02*
X15932022Y-15211744D01*
X15932022Y-15211744D02*
X15951069Y-15221268D01*
X15951069Y-15221268D02*
X15960593Y-15230791D01*
X15960593Y-15230791D02*
X15970117Y-15249839D01*
X15970117Y-15249839D02*
X15979641Y-15287934D01*
X15979641Y-15287934D02*
X15979641Y-15335553D01*
X15979641Y-15335553D02*
X15970117Y-15373648D01*
X15970117Y-15373648D02*
X15960593Y-15392696D01*
X15960593Y-15392696D02*
X15951069Y-15402220D01*
X15951069Y-15402220D02*
X15932022Y-15411744D01*
X15932022Y-15411744D02*
X15912974Y-15411744D01*
X15912974Y-15411744D02*
X15893926Y-15402220D01*
X15893926Y-15402220D02*
X15884403Y-15392696D01*
X15884403Y-15392696D02*
X15874879Y-15373648D01*
X15874879Y-15373648D02*
X15865355Y-15335553D01*
X15865355Y-15335553D02*
X15865355Y-15287934D01*
X15865355Y-15287934D02*
X15874879Y-15249839D01*
X15874879Y-15249839D02*
X15884403Y-15230791D01*
X15884403Y-15230791D02*
X15893926Y-15221268D01*
X15893926Y-15221268D02*
X15912974Y-15211744D01*
X16065355Y-15392696D02*
X16074879Y-15402220D01*
X16074879Y-15402220D02*
X16065355Y-15411744D01*
X16065355Y-15411744D02*
X16055831Y-15402220D01*
X16055831Y-15402220D02*
X16065355Y-15392696D01*
X16065355Y-15392696D02*
X16065355Y-15411744D01*
X16198688Y-15211744D02*
X16217736Y-15211744D01*
X16217736Y-15211744D02*
X16236784Y-15221268D01*
X16236784Y-15221268D02*
X16246307Y-15230791D01*
X16246307Y-15230791D02*
X16255831Y-15249839D01*
X16255831Y-15249839D02*
X16265355Y-15287934D01*
X16265355Y-15287934D02*
X16265355Y-15335553D01*
X16265355Y-15335553D02*
X16255831Y-15373648D01*
X16255831Y-15373648D02*
X16246307Y-15392696D01*
X16246307Y-15392696D02*
X16236784Y-15402220D01*
X16236784Y-15402220D02*
X16217736Y-15411744D01*
X16217736Y-15411744D02*
X16198688Y-15411744D01*
X16198688Y-15411744D02*
X16179641Y-15402220D01*
X16179641Y-15402220D02*
X16170117Y-15392696D01*
X16170117Y-15392696D02*
X16160593Y-15373648D01*
X16160593Y-15373648D02*
X16151069Y-15335553D01*
X16151069Y-15335553D02*
X16151069Y-15287934D01*
X16151069Y-15287934D02*
X16160593Y-15249839D01*
X16160593Y-15249839D02*
X16170117Y-15230791D01*
X16170117Y-15230791D02*
X16179641Y-15221268D01*
X16179641Y-15221268D02*
X16198688Y-15211744D01*
X16436784Y-15278410D02*
X16436784Y-15411744D01*
X16389165Y-15202220D02*
X16341546Y-15345077D01*
X16341546Y-15345077D02*
X16465355Y-15345077D01*
X16522498Y-15211744D02*
X16646307Y-15211744D01*
X16646307Y-15211744D02*
X16579641Y-15287934D01*
X16579641Y-15287934D02*
X16608212Y-15287934D01*
X16608212Y-15287934D02*
X16627260Y-15297458D01*
X16627260Y-15297458D02*
X16636784Y-15306982D01*
X16636784Y-15306982D02*
X16646307Y-15326029D01*
X16646307Y-15326029D02*
X16646307Y-15373648D01*
X16646307Y-15373648D02*
X16636784Y-15392696D01*
X16636784Y-15392696D02*
X16627260Y-15402220D01*
X16627260Y-15402220D02*
X16608212Y-15411744D01*
X16608212Y-15411744D02*
X16551069Y-15411744D01*
X16551069Y-15411744D02*
X16532022Y-15402220D01*
X16532022Y-15402220D02*
X16522498Y-15392696D01*
X16712974Y-15211744D02*
X16836784Y-15211744D01*
X16836784Y-15211744D02*
X16770117Y-15287934D01*
X16770117Y-15287934D02*
X16798689Y-15287934D01*
X16798689Y-15287934D02*
X16817736Y-15297458D01*
X16817736Y-15297458D02*
X16827260Y-15306982D01*
X16827260Y-15306982D02*
X16836784Y-15326029D01*
X16836784Y-15326029D02*
X16836784Y-15373648D01*
X16836784Y-15373648D02*
X16827260Y-15392696D01*
X16827260Y-15392696D02*
X16817736Y-15402220D01*
X16817736Y-15402220D02*
X16798689Y-15411744D01*
X16798689Y-15411744D02*
X16741546Y-15411744D01*
X16741546Y-15411744D02*
X16722498Y-15402220D01*
X16722498Y-15402220D02*
X16712974Y-15392696D01*
X16912974Y-15211744D02*
X16912974Y-15249839D01*
X16989165Y-15211744D02*
X16989165Y-15249839D01*
X17284403Y-15487934D02*
X17274879Y-15478410D01*
X17274879Y-15478410D02*
X17255831Y-15449839D01*
X17255831Y-15449839D02*
X17246308Y-15430791D01*
X17246308Y-15430791D02*
X17236784Y-15402220D01*
X17236784Y-15402220D02*
X17227260Y-15354601D01*
X17227260Y-15354601D02*
X17227260Y-15316506D01*
X17227260Y-15316506D02*
X17236784Y-15268887D01*
X17236784Y-15268887D02*
X17246308Y-15240315D01*
X17246308Y-15240315D02*
X17255831Y-15221268D01*
X17255831Y-15221268D02*
X17274879Y-15192696D01*
X17274879Y-15192696D02*
X17284403Y-15183172D01*
X17455831Y-15211744D02*
X17360593Y-15211744D01*
X17360593Y-15211744D02*
X17351070Y-15306982D01*
X17351070Y-15306982D02*
X17360593Y-15297458D01*
X17360593Y-15297458D02*
X17379641Y-15287934D01*
X17379641Y-15287934D02*
X17427260Y-15287934D01*
X17427260Y-15287934D02*
X17446308Y-15297458D01*
X17446308Y-15297458D02*
X17455831Y-15306982D01*
X17455831Y-15306982D02*
X17465355Y-15326029D01*
X17465355Y-15326029D02*
X17465355Y-15373648D01*
X17465355Y-15373648D02*
X17455831Y-15392696D01*
X17455831Y-15392696D02*
X17446308Y-15402220D01*
X17446308Y-15402220D02*
X17427260Y-15411744D01*
X17427260Y-15411744D02*
X17379641Y-15411744D01*
X17379641Y-15411744D02*
X17360593Y-15402220D01*
X17360593Y-15402220D02*
X17351070Y-15392696D01*
X17560593Y-15411744D02*
X17598689Y-15411744D01*
X17598689Y-15411744D02*
X17617736Y-15402220D01*
X17617736Y-15402220D02*
X17627260Y-15392696D01*
X17627260Y-15392696D02*
X17646308Y-15364125D01*
X17646308Y-15364125D02*
X17655831Y-15326029D01*
X17655831Y-15326029D02*
X17655831Y-15249839D01*
X17655831Y-15249839D02*
X17646308Y-15230791D01*
X17646308Y-15230791D02*
X17636784Y-15221268D01*
X17636784Y-15221268D02*
X17617736Y-15211744D01*
X17617736Y-15211744D02*
X17579641Y-15211744D01*
X17579641Y-15211744D02*
X17560593Y-15221268D01*
X17560593Y-15221268D02*
X17551070Y-15230791D01*
X17551070Y-15230791D02*
X17541546Y-15249839D01*
X17541546Y-15249839D02*
X17541546Y-15297458D01*
X17541546Y-15297458D02*
X17551070Y-15316506D01*
X17551070Y-15316506D02*
X17560593Y-15326029D01*
X17560593Y-15326029D02*
X17579641Y-15335553D01*
X17579641Y-15335553D02*
X17617736Y-15335553D01*
X17617736Y-15335553D02*
X17636784Y-15326029D01*
X17636784Y-15326029D02*
X17646308Y-15316506D01*
X17646308Y-15316506D02*
X17655831Y-15297458D01*
X17893927Y-15411744D02*
X17893927Y-15211744D01*
X17979641Y-15411744D02*
X17979641Y-15306982D01*
X17979641Y-15306982D02*
X17970117Y-15287934D01*
X17970117Y-15287934D02*
X17951070Y-15278410D01*
X17951070Y-15278410D02*
X17922498Y-15278410D01*
X17922498Y-15278410D02*
X17903451Y-15287934D01*
X17903451Y-15287934D02*
X17893927Y-15297458D01*
X18103451Y-15411744D02*
X18084403Y-15402220D01*
X18084403Y-15402220D02*
X18074879Y-15392696D01*
X18074879Y-15392696D02*
X18065355Y-15373648D01*
X18065355Y-15373648D02*
X18065355Y-15316506D01*
X18065355Y-15316506D02*
X18074879Y-15297458D01*
X18074879Y-15297458D02*
X18084403Y-15287934D01*
X18084403Y-15287934D02*
X18103451Y-15278410D01*
X18103451Y-15278410D02*
X18132022Y-15278410D01*
X18132022Y-15278410D02*
X18151070Y-15287934D01*
X18151070Y-15287934D02*
X18160593Y-15297458D01*
X18160593Y-15297458D02*
X18170117Y-15316506D01*
X18170117Y-15316506D02*
X18170117Y-15373648D01*
X18170117Y-15373648D02*
X18160593Y-15392696D01*
X18160593Y-15392696D02*
X18151070Y-15402220D01*
X18151070Y-15402220D02*
X18132022Y-15411744D01*
X18132022Y-15411744D02*
X18103451Y-15411744D01*
X18284403Y-15411744D02*
X18265355Y-15402220D01*
X18265355Y-15402220D02*
X18255832Y-15383172D01*
X18255832Y-15383172D02*
X18255832Y-15211744D01*
X18436784Y-15402220D02*
X18417736Y-15411744D01*
X18417736Y-15411744D02*
X18379641Y-15411744D01*
X18379641Y-15411744D02*
X18360593Y-15402220D01*
X18360593Y-15402220D02*
X18351070Y-15383172D01*
X18351070Y-15383172D02*
X18351070Y-15306982D01*
X18351070Y-15306982D02*
X18360593Y-15287934D01*
X18360593Y-15287934D02*
X18379641Y-15278410D01*
X18379641Y-15278410D02*
X18417736Y-15278410D01*
X18417736Y-15278410D02*
X18436784Y-15287934D01*
X18436784Y-15287934D02*
X18446308Y-15306982D01*
X18446308Y-15306982D02*
X18446308Y-15326029D01*
X18446308Y-15326029D02*
X18351070Y-15345077D01*
X18522498Y-15402220D02*
X18541546Y-15411744D01*
X18541546Y-15411744D02*
X18579641Y-15411744D01*
X18579641Y-15411744D02*
X18598689Y-15402220D01*
X18598689Y-15402220D02*
X18608213Y-15383172D01*
X18608213Y-15383172D02*
X18608213Y-15373648D01*
X18608213Y-15373648D02*
X18598689Y-15354601D01*
X18598689Y-15354601D02*
X18579641Y-15345077D01*
X18579641Y-15345077D02*
X18551070Y-15345077D01*
X18551070Y-15345077D02*
X18532022Y-15335553D01*
X18532022Y-15335553D02*
X18522498Y-15316506D01*
X18522498Y-15316506D02*
X18522498Y-15306982D01*
X18522498Y-15306982D02*
X18532022Y-15287934D01*
X18532022Y-15287934D02*
X18551070Y-15278410D01*
X18551070Y-15278410D02*
X18579641Y-15278410D01*
X18579641Y-15278410D02*
X18598689Y-15287934D01*
X18674879Y-15487934D02*
X18684403Y-15478410D01*
X18684403Y-15478410D02*
X18703451Y-15449839D01*
X18703451Y-15449839D02*
X18712974Y-15430791D01*
X18712974Y-15430791D02*
X18722498Y-15402220D01*
X18722498Y-15402220D02*
X18732022Y-15354601D01*
X18732022Y-15354601D02*
X18732022Y-15316506D01*
X18732022Y-15316506D02*
X18722498Y-15268887D01*
X18722498Y-15268887D02*
X18712974Y-15240315D01*
X18712974Y-15240315D02*
X18703451Y-15221268D01*
X18703451Y-15221268D02*
X18684403Y-15192696D01*
X18684403Y-15192696D02*
X18674879Y-15183172D01*
M02*
