%TF.GenerationSoftware,KiCad,Pcbnew,8.0.3*%
%TF.CreationDate,2025-02-12T02:25:28-08:00*%
%TF.ProjectId,MLU_Breakout,4d4c555f-4272-4656-916b-6f75742e6b69,rev?*%
%TF.SameCoordinates,Original*%
%TF.FileFunction,Legend,Top*%
%TF.FilePolarity,Positive*%
%FSLAX46Y46*%
G04 Gerber Fmt 4.6, Leading zero omitted, Abs format (unit mm)*
G04 Created by KiCad (PCBNEW 8.0.3) date 2025-02-12 02:25:28*
%MOMM*%
%LPD*%
G01*
G04 APERTURE LIST*
%ADD10C,0.100000*%
%ADD11C,0.200000*%
%ADD12C,0.150000*%
%ADD13C,0.080430*%
%ADD14C,0.127000*%
%ADD15C,0.120000*%
%ADD16C,0.152400*%
G04 APERTURE END LIST*
D10*
X138056265Y-68824800D02*
X138199122Y-68872419D01*
X138199122Y-68872419D02*
X138437217Y-68872419D01*
X138437217Y-68872419D02*
X138532455Y-68824800D01*
X138532455Y-68824800D02*
X138580074Y-68777180D01*
X138580074Y-68777180D02*
X138627693Y-68681942D01*
X138627693Y-68681942D02*
X138627693Y-68586704D01*
X138627693Y-68586704D02*
X138580074Y-68491466D01*
X138580074Y-68491466D02*
X138532455Y-68443847D01*
X138532455Y-68443847D02*
X138437217Y-68396228D01*
X138437217Y-68396228D02*
X138246741Y-68348609D01*
X138246741Y-68348609D02*
X138151503Y-68300990D01*
X138151503Y-68300990D02*
X138103884Y-68253371D01*
X138103884Y-68253371D02*
X138056265Y-68158133D01*
X138056265Y-68158133D02*
X138056265Y-68062895D01*
X138056265Y-68062895D02*
X138103884Y-67967657D01*
X138103884Y-67967657D02*
X138151503Y-67920038D01*
X138151503Y-67920038D02*
X138246741Y-67872419D01*
X138246741Y-67872419D02*
X138484836Y-67872419D01*
X138484836Y-67872419D02*
X138627693Y-67920038D01*
X138913408Y-68205752D02*
X139294360Y-68205752D01*
X139056265Y-67872419D02*
X139056265Y-68729561D01*
X139056265Y-68729561D02*
X139103884Y-68824800D01*
X139103884Y-68824800D02*
X139199122Y-68872419D01*
X139199122Y-68872419D02*
X139294360Y-68872419D01*
X140056265Y-68872419D02*
X140056265Y-68348609D01*
X140056265Y-68348609D02*
X140008646Y-68253371D01*
X140008646Y-68253371D02*
X139913408Y-68205752D01*
X139913408Y-68205752D02*
X139722932Y-68205752D01*
X139722932Y-68205752D02*
X139627694Y-68253371D01*
X140056265Y-68824800D02*
X139961027Y-68872419D01*
X139961027Y-68872419D02*
X139722932Y-68872419D01*
X139722932Y-68872419D02*
X139627694Y-68824800D01*
X139627694Y-68824800D02*
X139580075Y-68729561D01*
X139580075Y-68729561D02*
X139580075Y-68634323D01*
X139580075Y-68634323D02*
X139627694Y-68539085D01*
X139627694Y-68539085D02*
X139722932Y-68491466D01*
X139722932Y-68491466D02*
X139961027Y-68491466D01*
X139961027Y-68491466D02*
X140056265Y-68443847D01*
X140532456Y-68205752D02*
X140532456Y-68872419D01*
X140532456Y-68300990D02*
X140580075Y-68253371D01*
X140580075Y-68253371D02*
X140675313Y-68205752D01*
X140675313Y-68205752D02*
X140818170Y-68205752D01*
X140818170Y-68205752D02*
X140913408Y-68253371D01*
X140913408Y-68253371D02*
X140961027Y-68348609D01*
X140961027Y-68348609D02*
X140961027Y-68872419D01*
X141294361Y-68205752D02*
X141675313Y-68205752D01*
X141437218Y-68872419D02*
X141437218Y-68015276D01*
X141437218Y-68015276D02*
X141484837Y-67920038D01*
X141484837Y-67920038D02*
X141580075Y-67872419D01*
X141580075Y-67872419D02*
X141675313Y-67872419D01*
X142151504Y-68872419D02*
X142056266Y-68824800D01*
X142056266Y-68824800D02*
X142008647Y-68777180D01*
X142008647Y-68777180D02*
X141961028Y-68681942D01*
X141961028Y-68681942D02*
X141961028Y-68396228D01*
X141961028Y-68396228D02*
X142008647Y-68300990D01*
X142008647Y-68300990D02*
X142056266Y-68253371D01*
X142056266Y-68253371D02*
X142151504Y-68205752D01*
X142151504Y-68205752D02*
X142294361Y-68205752D01*
X142294361Y-68205752D02*
X142389599Y-68253371D01*
X142389599Y-68253371D02*
X142437218Y-68300990D01*
X142437218Y-68300990D02*
X142484837Y-68396228D01*
X142484837Y-68396228D02*
X142484837Y-68681942D01*
X142484837Y-68681942D02*
X142437218Y-68777180D01*
X142437218Y-68777180D02*
X142389599Y-68824800D01*
X142389599Y-68824800D02*
X142294361Y-68872419D01*
X142294361Y-68872419D02*
X142151504Y-68872419D01*
X142913409Y-68872419D02*
X142913409Y-68205752D01*
X142913409Y-68396228D02*
X142961028Y-68300990D01*
X142961028Y-68300990D02*
X143008647Y-68253371D01*
X143008647Y-68253371D02*
X143103885Y-68205752D01*
X143103885Y-68205752D02*
X143199123Y-68205752D01*
X143961028Y-68872419D02*
X143961028Y-67872419D01*
X143961028Y-68824800D02*
X143865790Y-68872419D01*
X143865790Y-68872419D02*
X143675314Y-68872419D01*
X143675314Y-68872419D02*
X143580076Y-68824800D01*
X143580076Y-68824800D02*
X143532457Y-68777180D01*
X143532457Y-68777180D02*
X143484838Y-68681942D01*
X143484838Y-68681942D02*
X143484838Y-68396228D01*
X143484838Y-68396228D02*
X143532457Y-68300990D01*
X143532457Y-68300990D02*
X143580076Y-68253371D01*
X143580076Y-68253371D02*
X143675314Y-68205752D01*
X143675314Y-68205752D02*
X143865790Y-68205752D01*
X143865790Y-68205752D02*
X143961028Y-68253371D01*
X145770552Y-68872419D02*
X145437219Y-68396228D01*
X145199124Y-68872419D02*
X145199124Y-67872419D01*
X145199124Y-67872419D02*
X145580076Y-67872419D01*
X145580076Y-67872419D02*
X145675314Y-67920038D01*
X145675314Y-67920038D02*
X145722933Y-67967657D01*
X145722933Y-67967657D02*
X145770552Y-68062895D01*
X145770552Y-68062895D02*
X145770552Y-68205752D01*
X145770552Y-68205752D02*
X145722933Y-68300990D01*
X145722933Y-68300990D02*
X145675314Y-68348609D01*
X145675314Y-68348609D02*
X145580076Y-68396228D01*
X145580076Y-68396228D02*
X145199124Y-68396228D01*
X146341981Y-68872419D02*
X146246743Y-68824800D01*
X146246743Y-68824800D02*
X146199124Y-68777180D01*
X146199124Y-68777180D02*
X146151505Y-68681942D01*
X146151505Y-68681942D02*
X146151505Y-68396228D01*
X146151505Y-68396228D02*
X146199124Y-68300990D01*
X146199124Y-68300990D02*
X146246743Y-68253371D01*
X146246743Y-68253371D02*
X146341981Y-68205752D01*
X146341981Y-68205752D02*
X146484838Y-68205752D01*
X146484838Y-68205752D02*
X146580076Y-68253371D01*
X146580076Y-68253371D02*
X146627695Y-68300990D01*
X146627695Y-68300990D02*
X146675314Y-68396228D01*
X146675314Y-68396228D02*
X146675314Y-68681942D01*
X146675314Y-68681942D02*
X146627695Y-68777180D01*
X146627695Y-68777180D02*
X146580076Y-68824800D01*
X146580076Y-68824800D02*
X146484838Y-68872419D01*
X146484838Y-68872419D02*
X146341981Y-68872419D01*
X147103886Y-68872419D02*
X147103886Y-67872419D01*
X147103886Y-68253371D02*
X147199124Y-68205752D01*
X147199124Y-68205752D02*
X147389600Y-68205752D01*
X147389600Y-68205752D02*
X147484838Y-68253371D01*
X147484838Y-68253371D02*
X147532457Y-68300990D01*
X147532457Y-68300990D02*
X147580076Y-68396228D01*
X147580076Y-68396228D02*
X147580076Y-68681942D01*
X147580076Y-68681942D02*
X147532457Y-68777180D01*
X147532457Y-68777180D02*
X147484838Y-68824800D01*
X147484838Y-68824800D02*
X147389600Y-68872419D01*
X147389600Y-68872419D02*
X147199124Y-68872419D01*
X147199124Y-68872419D02*
X147103886Y-68824800D01*
X148151505Y-68872419D02*
X148056267Y-68824800D01*
X148056267Y-68824800D02*
X148008648Y-68777180D01*
X148008648Y-68777180D02*
X147961029Y-68681942D01*
X147961029Y-68681942D02*
X147961029Y-68396228D01*
X147961029Y-68396228D02*
X148008648Y-68300990D01*
X148008648Y-68300990D02*
X148056267Y-68253371D01*
X148056267Y-68253371D02*
X148151505Y-68205752D01*
X148151505Y-68205752D02*
X148294362Y-68205752D01*
X148294362Y-68205752D02*
X148389600Y-68253371D01*
X148389600Y-68253371D02*
X148437219Y-68300990D01*
X148437219Y-68300990D02*
X148484838Y-68396228D01*
X148484838Y-68396228D02*
X148484838Y-68681942D01*
X148484838Y-68681942D02*
X148437219Y-68777180D01*
X148437219Y-68777180D02*
X148389600Y-68824800D01*
X148389600Y-68824800D02*
X148294362Y-68872419D01*
X148294362Y-68872419D02*
X148151505Y-68872419D01*
X148865791Y-68824800D02*
X148961029Y-68872419D01*
X148961029Y-68872419D02*
X149151505Y-68872419D01*
X149151505Y-68872419D02*
X149246743Y-68824800D01*
X149246743Y-68824800D02*
X149294362Y-68729561D01*
X149294362Y-68729561D02*
X149294362Y-68681942D01*
X149294362Y-68681942D02*
X149246743Y-68586704D01*
X149246743Y-68586704D02*
X149151505Y-68539085D01*
X149151505Y-68539085D02*
X149008648Y-68539085D01*
X149008648Y-68539085D02*
X148913410Y-68491466D01*
X148913410Y-68491466D02*
X148865791Y-68396228D01*
X148865791Y-68396228D02*
X148865791Y-68348609D01*
X148865791Y-68348609D02*
X148913410Y-68253371D01*
X148913410Y-68253371D02*
X149008648Y-68205752D01*
X149008648Y-68205752D02*
X149151505Y-68205752D01*
X149151505Y-68205752D02*
X149246743Y-68253371D01*
X150151505Y-68205752D02*
X150151505Y-68872419D01*
X149722934Y-68205752D02*
X149722934Y-68729561D01*
X149722934Y-68729561D02*
X149770553Y-68824800D01*
X149770553Y-68824800D02*
X149865791Y-68872419D01*
X149865791Y-68872419D02*
X150008648Y-68872419D01*
X150008648Y-68872419D02*
X150103886Y-68824800D01*
X150103886Y-68824800D02*
X150151505Y-68777180D01*
X150627696Y-68872419D02*
X150627696Y-67872419D01*
X150627696Y-68253371D02*
X150722934Y-68205752D01*
X150722934Y-68205752D02*
X150913410Y-68205752D01*
X150913410Y-68205752D02*
X151008648Y-68253371D01*
X151008648Y-68253371D02*
X151056267Y-68300990D01*
X151056267Y-68300990D02*
X151103886Y-68396228D01*
X151103886Y-68396228D02*
X151103886Y-68681942D01*
X151103886Y-68681942D02*
X151056267Y-68777180D01*
X151056267Y-68777180D02*
X151008648Y-68824800D01*
X151008648Y-68824800D02*
X150913410Y-68872419D01*
X150913410Y-68872419D02*
X150722934Y-68872419D01*
X150722934Y-68872419D02*
X150627696Y-68824800D01*
X152341982Y-67872419D02*
X152246744Y-68062895D01*
X152722934Y-67967657D02*
X152770553Y-67920038D01*
X152770553Y-67920038D02*
X152865791Y-67872419D01*
X152865791Y-67872419D02*
X153103886Y-67872419D01*
X153103886Y-67872419D02*
X153199124Y-67920038D01*
X153199124Y-67920038D02*
X153246743Y-67967657D01*
X153246743Y-67967657D02*
X153294362Y-68062895D01*
X153294362Y-68062895D02*
X153294362Y-68158133D01*
X153294362Y-68158133D02*
X153246743Y-68300990D01*
X153246743Y-68300990D02*
X152675315Y-68872419D01*
X152675315Y-68872419D02*
X153294362Y-68872419D01*
X154199124Y-67872419D02*
X153722934Y-67872419D01*
X153722934Y-67872419D02*
X153675315Y-68348609D01*
X153675315Y-68348609D02*
X153722934Y-68300990D01*
X153722934Y-68300990D02*
X153818172Y-68253371D01*
X153818172Y-68253371D02*
X154056267Y-68253371D01*
X154056267Y-68253371D02*
X154151505Y-68300990D01*
X154151505Y-68300990D02*
X154199124Y-68348609D01*
X154199124Y-68348609D02*
X154246743Y-68443847D01*
X154246743Y-68443847D02*
X154246743Y-68681942D01*
X154246743Y-68681942D02*
X154199124Y-68777180D01*
X154199124Y-68777180D02*
X154151505Y-68824800D01*
X154151505Y-68824800D02*
X154056267Y-68872419D01*
X154056267Y-68872419D02*
X153818172Y-68872419D01*
X153818172Y-68872419D02*
X153722934Y-68824800D01*
X153722934Y-68824800D02*
X153675315Y-68777180D01*
X137980074Y-62233030D02*
X138170550Y-63033030D01*
X138170550Y-63033030D02*
X138322931Y-62461601D01*
X138322931Y-62461601D02*
X138475312Y-63033030D01*
X138475312Y-63033030D02*
X138665789Y-62233030D01*
X139275313Y-62994935D02*
X139199122Y-63033030D01*
X139199122Y-63033030D02*
X139046741Y-63033030D01*
X139046741Y-63033030D02*
X138970551Y-62994935D01*
X138970551Y-62994935D02*
X138932455Y-62918744D01*
X138932455Y-62918744D02*
X138932455Y-62613982D01*
X138932455Y-62613982D02*
X138970551Y-62537792D01*
X138970551Y-62537792D02*
X139046741Y-62499696D01*
X139046741Y-62499696D02*
X139199122Y-62499696D01*
X139199122Y-62499696D02*
X139275313Y-62537792D01*
X139275313Y-62537792D02*
X139313408Y-62613982D01*
X139313408Y-62613982D02*
X139313408Y-62690173D01*
X139313408Y-62690173D02*
X138932455Y-62766363D01*
X140608646Y-63033030D02*
X140608646Y-62613982D01*
X140608646Y-62613982D02*
X140570551Y-62537792D01*
X140570551Y-62537792D02*
X140494360Y-62499696D01*
X140494360Y-62499696D02*
X140341979Y-62499696D01*
X140341979Y-62499696D02*
X140265789Y-62537792D01*
X140608646Y-62994935D02*
X140532455Y-63033030D01*
X140532455Y-63033030D02*
X140341979Y-63033030D01*
X140341979Y-63033030D02*
X140265789Y-62994935D01*
X140265789Y-62994935D02*
X140227693Y-62918744D01*
X140227693Y-62918744D02*
X140227693Y-62842554D01*
X140227693Y-62842554D02*
X140265789Y-62766363D01*
X140265789Y-62766363D02*
X140341979Y-62728268D01*
X140341979Y-62728268D02*
X140532455Y-62728268D01*
X140532455Y-62728268D02*
X140608646Y-62690173D01*
X140989599Y-63033030D02*
X140989599Y-62499696D01*
X140989599Y-62652077D02*
X141027694Y-62575887D01*
X141027694Y-62575887D02*
X141065789Y-62537792D01*
X141065789Y-62537792D02*
X141141980Y-62499696D01*
X141141980Y-62499696D02*
X141218170Y-62499696D01*
X141789599Y-62994935D02*
X141713408Y-63033030D01*
X141713408Y-63033030D02*
X141561027Y-63033030D01*
X141561027Y-63033030D02*
X141484837Y-62994935D01*
X141484837Y-62994935D02*
X141446741Y-62918744D01*
X141446741Y-62918744D02*
X141446741Y-62613982D01*
X141446741Y-62613982D02*
X141484837Y-62537792D01*
X141484837Y-62537792D02*
X141561027Y-62499696D01*
X141561027Y-62499696D02*
X141713408Y-62499696D01*
X141713408Y-62499696D02*
X141789599Y-62537792D01*
X141789599Y-62537792D02*
X141827694Y-62613982D01*
X141827694Y-62613982D02*
X141827694Y-62690173D01*
X141827694Y-62690173D02*
X141446741Y-62766363D01*
X142665789Y-62499696D02*
X142970551Y-62499696D01*
X142780075Y-62233030D02*
X142780075Y-62918744D01*
X142780075Y-62918744D02*
X142818170Y-62994935D01*
X142818170Y-62994935D02*
X142894360Y-63033030D01*
X142894360Y-63033030D02*
X142970551Y-63033030D01*
X143237218Y-63033030D02*
X143237218Y-62499696D01*
X143237218Y-62233030D02*
X143199122Y-62271125D01*
X143199122Y-62271125D02*
X143237218Y-62309220D01*
X143237218Y-62309220D02*
X143275313Y-62271125D01*
X143275313Y-62271125D02*
X143237218Y-62233030D01*
X143237218Y-62233030D02*
X143237218Y-62309220D01*
X143922932Y-62994935D02*
X143846741Y-63033030D01*
X143846741Y-63033030D02*
X143694360Y-63033030D01*
X143694360Y-63033030D02*
X143618170Y-62994935D01*
X143618170Y-62994935D02*
X143580074Y-62918744D01*
X143580074Y-62918744D02*
X143580074Y-62613982D01*
X143580074Y-62613982D02*
X143618170Y-62537792D01*
X143618170Y-62537792D02*
X143694360Y-62499696D01*
X143694360Y-62499696D02*
X143846741Y-62499696D01*
X143846741Y-62499696D02*
X143922932Y-62537792D01*
X143922932Y-62537792D02*
X143961027Y-62613982D01*
X143961027Y-62613982D02*
X143961027Y-62690173D01*
X143961027Y-62690173D02*
X143580074Y-62766363D01*
X144646741Y-63033030D02*
X144646741Y-62233030D01*
X144646741Y-62994935D02*
X144570550Y-63033030D01*
X144570550Y-63033030D02*
X144418169Y-63033030D01*
X144418169Y-63033030D02*
X144341979Y-62994935D01*
X144341979Y-62994935D02*
X144303884Y-62956839D01*
X144303884Y-62956839D02*
X144265788Y-62880649D01*
X144265788Y-62880649D02*
X144265788Y-62652077D01*
X144265788Y-62652077D02*
X144303884Y-62575887D01*
X144303884Y-62575887D02*
X144341979Y-62537792D01*
X144341979Y-62537792D02*
X144418169Y-62499696D01*
X144418169Y-62499696D02*
X144570550Y-62499696D01*
X144570550Y-62499696D02*
X144646741Y-62537792D01*
X145522932Y-62499696D02*
X145827694Y-62499696D01*
X145637218Y-62233030D02*
X145637218Y-62918744D01*
X145637218Y-62918744D02*
X145675313Y-62994935D01*
X145675313Y-62994935D02*
X145751503Y-63033030D01*
X145751503Y-63033030D02*
X145827694Y-63033030D01*
X146208646Y-63033030D02*
X146132456Y-62994935D01*
X146132456Y-62994935D02*
X146094361Y-62956839D01*
X146094361Y-62956839D02*
X146056265Y-62880649D01*
X146056265Y-62880649D02*
X146056265Y-62652077D01*
X146056265Y-62652077D02*
X146094361Y-62575887D01*
X146094361Y-62575887D02*
X146132456Y-62537792D01*
X146132456Y-62537792D02*
X146208646Y-62499696D01*
X146208646Y-62499696D02*
X146322932Y-62499696D01*
X146322932Y-62499696D02*
X146399123Y-62537792D01*
X146399123Y-62537792D02*
X146437218Y-62575887D01*
X146437218Y-62575887D02*
X146475313Y-62652077D01*
X146475313Y-62652077D02*
X146475313Y-62880649D01*
X146475313Y-62880649D02*
X146437218Y-62956839D01*
X146437218Y-62956839D02*
X146399123Y-62994935D01*
X146399123Y-62994935D02*
X146322932Y-63033030D01*
X146322932Y-63033030D02*
X146208646Y-63033030D01*
X147313409Y-62499696D02*
X147618171Y-62499696D01*
X147427695Y-62233030D02*
X147427695Y-62918744D01*
X147427695Y-62918744D02*
X147465790Y-62994935D01*
X147465790Y-62994935D02*
X147541980Y-63033030D01*
X147541980Y-63033030D02*
X147618171Y-63033030D01*
X147884838Y-63033030D02*
X147884838Y-62233030D01*
X148227695Y-63033030D02*
X148227695Y-62613982D01*
X148227695Y-62613982D02*
X148189600Y-62537792D01*
X148189600Y-62537792D02*
X148113409Y-62499696D01*
X148113409Y-62499696D02*
X147999123Y-62499696D01*
X147999123Y-62499696D02*
X147922933Y-62537792D01*
X147922933Y-62537792D02*
X147884838Y-62575887D01*
X148913410Y-62994935D02*
X148837219Y-63033030D01*
X148837219Y-63033030D02*
X148684838Y-63033030D01*
X148684838Y-63033030D02*
X148608648Y-62994935D01*
X148608648Y-62994935D02*
X148570552Y-62918744D01*
X148570552Y-62918744D02*
X148570552Y-62613982D01*
X148570552Y-62613982D02*
X148608648Y-62537792D01*
X148608648Y-62537792D02*
X148684838Y-62499696D01*
X148684838Y-62499696D02*
X148837219Y-62499696D01*
X148837219Y-62499696D02*
X148913410Y-62537792D01*
X148913410Y-62537792D02*
X148951505Y-62613982D01*
X148951505Y-62613982D02*
X148951505Y-62690173D01*
X148951505Y-62690173D02*
X148570552Y-62766363D01*
X150018171Y-63033030D02*
X149941981Y-62994935D01*
X149941981Y-62994935D02*
X149903886Y-62956839D01*
X149903886Y-62956839D02*
X149865790Y-62880649D01*
X149865790Y-62880649D02*
X149865790Y-62652077D01*
X149865790Y-62652077D02*
X149903886Y-62575887D01*
X149903886Y-62575887D02*
X149941981Y-62537792D01*
X149941981Y-62537792D02*
X150018171Y-62499696D01*
X150018171Y-62499696D02*
X150132457Y-62499696D01*
X150132457Y-62499696D02*
X150208648Y-62537792D01*
X150208648Y-62537792D02*
X150246743Y-62575887D01*
X150246743Y-62575887D02*
X150284838Y-62652077D01*
X150284838Y-62652077D02*
X150284838Y-62880649D01*
X150284838Y-62880649D02*
X150246743Y-62956839D01*
X150246743Y-62956839D02*
X150208648Y-62994935D01*
X150208648Y-62994935D02*
X150132457Y-63033030D01*
X150132457Y-63033030D02*
X150018171Y-63033030D01*
X150970553Y-62994935D02*
X150894362Y-63033030D01*
X150894362Y-63033030D02*
X150741981Y-63033030D01*
X150741981Y-63033030D02*
X150665791Y-62994935D01*
X150665791Y-62994935D02*
X150627696Y-62956839D01*
X150627696Y-62956839D02*
X150589600Y-62880649D01*
X150589600Y-62880649D02*
X150589600Y-62652077D01*
X150589600Y-62652077D02*
X150627696Y-62575887D01*
X150627696Y-62575887D02*
X150665791Y-62537792D01*
X150665791Y-62537792D02*
X150741981Y-62499696D01*
X150741981Y-62499696D02*
X150894362Y-62499696D01*
X150894362Y-62499696D02*
X150970553Y-62537792D01*
X151618172Y-62994935D02*
X151541981Y-63033030D01*
X151541981Y-63033030D02*
X151389600Y-63033030D01*
X151389600Y-63033030D02*
X151313410Y-62994935D01*
X151313410Y-62994935D02*
X151275314Y-62918744D01*
X151275314Y-62918744D02*
X151275314Y-62613982D01*
X151275314Y-62613982D02*
X151313410Y-62537792D01*
X151313410Y-62537792D02*
X151389600Y-62499696D01*
X151389600Y-62499696D02*
X151541981Y-62499696D01*
X151541981Y-62499696D02*
X151618172Y-62537792D01*
X151618172Y-62537792D02*
X151656267Y-62613982D01*
X151656267Y-62613982D02*
X151656267Y-62690173D01*
X151656267Y-62690173D02*
X151275314Y-62766363D01*
X152341981Y-63033030D02*
X152341981Y-62613982D01*
X152341981Y-62613982D02*
X152303886Y-62537792D01*
X152303886Y-62537792D02*
X152227695Y-62499696D01*
X152227695Y-62499696D02*
X152075314Y-62499696D01*
X152075314Y-62499696D02*
X151999124Y-62537792D01*
X152341981Y-62994935D02*
X152265790Y-63033030D01*
X152265790Y-63033030D02*
X152075314Y-63033030D01*
X152075314Y-63033030D02*
X151999124Y-62994935D01*
X151999124Y-62994935D02*
X151961028Y-62918744D01*
X151961028Y-62918744D02*
X151961028Y-62842554D01*
X151961028Y-62842554D02*
X151999124Y-62766363D01*
X151999124Y-62766363D02*
X152075314Y-62728268D01*
X152075314Y-62728268D02*
X152265790Y-62728268D01*
X152265790Y-62728268D02*
X152341981Y-62690173D01*
X152722934Y-62499696D02*
X152722934Y-63033030D01*
X152722934Y-62575887D02*
X152761029Y-62537792D01*
X152761029Y-62537792D02*
X152837219Y-62499696D01*
X152837219Y-62499696D02*
X152951505Y-62499696D01*
X152951505Y-62499696D02*
X153027696Y-62537792D01*
X153027696Y-62537792D02*
X153065791Y-62613982D01*
X153065791Y-62613982D02*
X153065791Y-63033030D01*
X153446744Y-62956839D02*
X153484839Y-62994935D01*
X153484839Y-62994935D02*
X153446744Y-63033030D01*
X153446744Y-63033030D02*
X153408648Y-62994935D01*
X153408648Y-62994935D02*
X153446744Y-62956839D01*
X153446744Y-62956839D02*
X153446744Y-63033030D01*
X138018169Y-64092413D02*
X138399122Y-64092413D01*
X137941979Y-64320985D02*
X138208646Y-63520985D01*
X138208646Y-63520985D02*
X138475312Y-64320985D01*
X138741979Y-63787651D02*
X138741979Y-64320985D01*
X138741979Y-63863842D02*
X138780074Y-63825747D01*
X138780074Y-63825747D02*
X138856264Y-63787651D01*
X138856264Y-63787651D02*
X138970550Y-63787651D01*
X138970550Y-63787651D02*
X139046741Y-63825747D01*
X139046741Y-63825747D02*
X139084836Y-63901937D01*
X139084836Y-63901937D02*
X139084836Y-64320985D01*
X139808646Y-64320985D02*
X139808646Y-63520985D01*
X139808646Y-64282890D02*
X139732455Y-64320985D01*
X139732455Y-64320985D02*
X139580074Y-64320985D01*
X139580074Y-64320985D02*
X139503884Y-64282890D01*
X139503884Y-64282890D02*
X139465789Y-64244794D01*
X139465789Y-64244794D02*
X139427693Y-64168604D01*
X139427693Y-64168604D02*
X139427693Y-63940032D01*
X139427693Y-63940032D02*
X139465789Y-63863842D01*
X139465789Y-63863842D02*
X139503884Y-63825747D01*
X139503884Y-63825747D02*
X139580074Y-63787651D01*
X139580074Y-63787651D02*
X139732455Y-63787651D01*
X139732455Y-63787651D02*
X139808646Y-63825747D01*
X140722932Y-63787651D02*
X140875313Y-64320985D01*
X140875313Y-64320985D02*
X141027694Y-63940032D01*
X141027694Y-63940032D02*
X141180075Y-64320985D01*
X141180075Y-64320985D02*
X141332456Y-63787651D01*
X141637218Y-64320985D02*
X141637218Y-63520985D01*
X141980075Y-64320985D02*
X141980075Y-63901937D01*
X141980075Y-63901937D02*
X141941980Y-63825747D01*
X141941980Y-63825747D02*
X141865789Y-63787651D01*
X141865789Y-63787651D02*
X141751503Y-63787651D01*
X141751503Y-63787651D02*
X141675313Y-63825747D01*
X141675313Y-63825747D02*
X141637218Y-63863842D01*
X142665790Y-64282890D02*
X142589599Y-64320985D01*
X142589599Y-64320985D02*
X142437218Y-64320985D01*
X142437218Y-64320985D02*
X142361028Y-64282890D01*
X142361028Y-64282890D02*
X142322932Y-64206699D01*
X142322932Y-64206699D02*
X142322932Y-63901937D01*
X142322932Y-63901937D02*
X142361028Y-63825747D01*
X142361028Y-63825747D02*
X142437218Y-63787651D01*
X142437218Y-63787651D02*
X142589599Y-63787651D01*
X142589599Y-63787651D02*
X142665790Y-63825747D01*
X142665790Y-63825747D02*
X142703885Y-63901937D01*
X142703885Y-63901937D02*
X142703885Y-63978128D01*
X142703885Y-63978128D02*
X142322932Y-64054318D01*
X143046742Y-63787651D02*
X143046742Y-64320985D01*
X143046742Y-63863842D02*
X143084837Y-63825747D01*
X143084837Y-63825747D02*
X143161027Y-63787651D01*
X143161027Y-63787651D02*
X143275313Y-63787651D01*
X143275313Y-63787651D02*
X143351504Y-63825747D01*
X143351504Y-63825747D02*
X143389599Y-63901937D01*
X143389599Y-63901937D02*
X143389599Y-64320985D01*
X144303885Y-63787651D02*
X144456266Y-64320985D01*
X144456266Y-64320985D02*
X144608647Y-63940032D01*
X144608647Y-63940032D02*
X144761028Y-64320985D01*
X144761028Y-64320985D02*
X144913409Y-63787651D01*
X145522933Y-64282890D02*
X145446742Y-64320985D01*
X145446742Y-64320985D02*
X145294361Y-64320985D01*
X145294361Y-64320985D02*
X145218171Y-64282890D01*
X145218171Y-64282890D02*
X145180075Y-64206699D01*
X145180075Y-64206699D02*
X145180075Y-63901937D01*
X145180075Y-63901937D02*
X145218171Y-63825747D01*
X145218171Y-63825747D02*
X145294361Y-63787651D01*
X145294361Y-63787651D02*
X145446742Y-63787651D01*
X145446742Y-63787651D02*
X145522933Y-63825747D01*
X145522933Y-63825747D02*
X145561028Y-63901937D01*
X145561028Y-63901937D02*
X145561028Y-63978128D01*
X145561028Y-63978128D02*
X145180075Y-64054318D01*
X146856266Y-63787651D02*
X146856266Y-64435270D01*
X146856266Y-64435270D02*
X146818171Y-64511461D01*
X146818171Y-64511461D02*
X146780075Y-64549556D01*
X146780075Y-64549556D02*
X146703885Y-64587651D01*
X146703885Y-64587651D02*
X146589599Y-64587651D01*
X146589599Y-64587651D02*
X146513409Y-64549556D01*
X146856266Y-64282890D02*
X146780075Y-64320985D01*
X146780075Y-64320985D02*
X146627694Y-64320985D01*
X146627694Y-64320985D02*
X146551504Y-64282890D01*
X146551504Y-64282890D02*
X146513409Y-64244794D01*
X146513409Y-64244794D02*
X146475313Y-64168604D01*
X146475313Y-64168604D02*
X146475313Y-63940032D01*
X146475313Y-63940032D02*
X146513409Y-63863842D01*
X146513409Y-63863842D02*
X146551504Y-63825747D01*
X146551504Y-63825747D02*
X146627694Y-63787651D01*
X146627694Y-63787651D02*
X146780075Y-63787651D01*
X146780075Y-63787651D02*
X146856266Y-63825747D01*
X147351504Y-64320985D02*
X147275314Y-64282890D01*
X147275314Y-64282890D02*
X147237219Y-64244794D01*
X147237219Y-64244794D02*
X147199123Y-64168604D01*
X147199123Y-64168604D02*
X147199123Y-63940032D01*
X147199123Y-63940032D02*
X147237219Y-63863842D01*
X147237219Y-63863842D02*
X147275314Y-63825747D01*
X147275314Y-63825747D02*
X147351504Y-63787651D01*
X147351504Y-63787651D02*
X147465790Y-63787651D01*
X147465790Y-63787651D02*
X147541981Y-63825747D01*
X147541981Y-63825747D02*
X147580076Y-63863842D01*
X147580076Y-63863842D02*
X147618171Y-63940032D01*
X147618171Y-63940032D02*
X147618171Y-64168604D01*
X147618171Y-64168604D02*
X147580076Y-64244794D01*
X147580076Y-64244794D02*
X147541981Y-64282890D01*
X147541981Y-64282890D02*
X147465790Y-64320985D01*
X147465790Y-64320985D02*
X147351504Y-64320985D01*
X148570553Y-64320985D02*
X148570553Y-63520985D01*
X148570553Y-63825747D02*
X148646743Y-63787651D01*
X148646743Y-63787651D02*
X148799124Y-63787651D01*
X148799124Y-63787651D02*
X148875315Y-63825747D01*
X148875315Y-63825747D02*
X148913410Y-63863842D01*
X148913410Y-63863842D02*
X148951505Y-63940032D01*
X148951505Y-63940032D02*
X148951505Y-64168604D01*
X148951505Y-64168604D02*
X148913410Y-64244794D01*
X148913410Y-64244794D02*
X148875315Y-64282890D01*
X148875315Y-64282890D02*
X148799124Y-64320985D01*
X148799124Y-64320985D02*
X148646743Y-64320985D01*
X148646743Y-64320985D02*
X148570553Y-64282890D01*
X149637220Y-64320985D02*
X149637220Y-63901937D01*
X149637220Y-63901937D02*
X149599125Y-63825747D01*
X149599125Y-63825747D02*
X149522934Y-63787651D01*
X149522934Y-63787651D02*
X149370553Y-63787651D01*
X149370553Y-63787651D02*
X149294363Y-63825747D01*
X149637220Y-64282890D02*
X149561029Y-64320985D01*
X149561029Y-64320985D02*
X149370553Y-64320985D01*
X149370553Y-64320985D02*
X149294363Y-64282890D01*
X149294363Y-64282890D02*
X149256267Y-64206699D01*
X149256267Y-64206699D02*
X149256267Y-64130509D01*
X149256267Y-64130509D02*
X149294363Y-64054318D01*
X149294363Y-64054318D02*
X149370553Y-64016223D01*
X149370553Y-64016223D02*
X149561029Y-64016223D01*
X149561029Y-64016223D02*
X149637220Y-63978128D01*
X150361030Y-64282890D02*
X150284839Y-64320985D01*
X150284839Y-64320985D02*
X150132458Y-64320985D01*
X150132458Y-64320985D02*
X150056268Y-64282890D01*
X150056268Y-64282890D02*
X150018173Y-64244794D01*
X150018173Y-64244794D02*
X149980077Y-64168604D01*
X149980077Y-64168604D02*
X149980077Y-63940032D01*
X149980077Y-63940032D02*
X150018173Y-63863842D01*
X150018173Y-63863842D02*
X150056268Y-63825747D01*
X150056268Y-63825747D02*
X150132458Y-63787651D01*
X150132458Y-63787651D02*
X150284839Y-63787651D01*
X150284839Y-63787651D02*
X150361030Y-63825747D01*
X150703887Y-64320985D02*
X150703887Y-63520985D01*
X150780077Y-64016223D02*
X151008649Y-64320985D01*
X151008649Y-63787651D02*
X150703887Y-64092413D01*
X151846744Y-63787651D02*
X152151506Y-63787651D01*
X151961030Y-63520985D02*
X151961030Y-64206699D01*
X151961030Y-64206699D02*
X151999125Y-64282890D01*
X151999125Y-64282890D02*
X152075315Y-64320985D01*
X152075315Y-64320985D02*
X152151506Y-64320985D01*
X152532458Y-64320985D02*
X152456268Y-64282890D01*
X152456268Y-64282890D02*
X152418173Y-64244794D01*
X152418173Y-64244794D02*
X152380077Y-64168604D01*
X152380077Y-64168604D02*
X152380077Y-63940032D01*
X152380077Y-63940032D02*
X152418173Y-63863842D01*
X152418173Y-63863842D02*
X152456268Y-63825747D01*
X152456268Y-63825747D02*
X152532458Y-63787651D01*
X152532458Y-63787651D02*
X152646744Y-63787651D01*
X152646744Y-63787651D02*
X152722935Y-63825747D01*
X152722935Y-63825747D02*
X152761030Y-63863842D01*
X152761030Y-63863842D02*
X152799125Y-63940032D01*
X152799125Y-63940032D02*
X152799125Y-64168604D01*
X152799125Y-64168604D02*
X152761030Y-64244794D01*
X152761030Y-64244794D02*
X152722935Y-64282890D01*
X152722935Y-64282890D02*
X152646744Y-64320985D01*
X152646744Y-64320985D02*
X152532458Y-64320985D01*
X153637221Y-63787651D02*
X153941983Y-63787651D01*
X153751507Y-63520985D02*
X153751507Y-64206699D01*
X153751507Y-64206699D02*
X153789602Y-64282890D01*
X153789602Y-64282890D02*
X153865792Y-64320985D01*
X153865792Y-64320985D02*
X153941983Y-64320985D01*
X154208650Y-64320985D02*
X154208650Y-63520985D01*
X154551507Y-64320985D02*
X154551507Y-63901937D01*
X154551507Y-63901937D02*
X154513412Y-63825747D01*
X154513412Y-63825747D02*
X154437221Y-63787651D01*
X154437221Y-63787651D02*
X154322935Y-63787651D01*
X154322935Y-63787651D02*
X154246745Y-63825747D01*
X154246745Y-63825747D02*
X154208650Y-63863842D01*
X155237222Y-64282890D02*
X155161031Y-64320985D01*
X155161031Y-64320985D02*
X155008650Y-64320985D01*
X155008650Y-64320985D02*
X154932460Y-64282890D01*
X154932460Y-64282890D02*
X154894364Y-64206699D01*
X154894364Y-64206699D02*
X154894364Y-63901937D01*
X154894364Y-63901937D02*
X154932460Y-63825747D01*
X154932460Y-63825747D02*
X155008650Y-63787651D01*
X155008650Y-63787651D02*
X155161031Y-63787651D01*
X155161031Y-63787651D02*
X155237222Y-63825747D01*
X155237222Y-63825747D02*
X155275317Y-63901937D01*
X155275317Y-63901937D02*
X155275317Y-63978128D01*
X155275317Y-63978128D02*
X154894364Y-64054318D01*
X156189602Y-64282890D02*
X156265793Y-64320985D01*
X156265793Y-64320985D02*
X156418174Y-64320985D01*
X156418174Y-64320985D02*
X156494364Y-64282890D01*
X156494364Y-64282890D02*
X156532460Y-64206699D01*
X156532460Y-64206699D02*
X156532460Y-64168604D01*
X156532460Y-64168604D02*
X156494364Y-64092413D01*
X156494364Y-64092413D02*
X156418174Y-64054318D01*
X156418174Y-64054318D02*
X156303888Y-64054318D01*
X156303888Y-64054318D02*
X156227698Y-64016223D01*
X156227698Y-64016223D02*
X156189602Y-63940032D01*
X156189602Y-63940032D02*
X156189602Y-63901937D01*
X156189602Y-63901937D02*
X156227698Y-63825747D01*
X156227698Y-63825747D02*
X156303888Y-63787651D01*
X156303888Y-63787651D02*
X156418174Y-63787651D01*
X156418174Y-63787651D02*
X156494364Y-63825747D01*
X157180079Y-64282890D02*
X157103888Y-64320985D01*
X157103888Y-64320985D02*
X156951507Y-64320985D01*
X156951507Y-64320985D02*
X156875317Y-64282890D01*
X156875317Y-64282890D02*
X156837221Y-64206699D01*
X156837221Y-64206699D02*
X156837221Y-63901937D01*
X156837221Y-63901937D02*
X156875317Y-63825747D01*
X156875317Y-63825747D02*
X156951507Y-63787651D01*
X156951507Y-63787651D02*
X157103888Y-63787651D01*
X157103888Y-63787651D02*
X157180079Y-63825747D01*
X157180079Y-63825747D02*
X157218174Y-63901937D01*
X157218174Y-63901937D02*
X157218174Y-63978128D01*
X157218174Y-63978128D02*
X156837221Y-64054318D01*
X157903888Y-64320985D02*
X157903888Y-63901937D01*
X157903888Y-63901937D02*
X157865793Y-63825747D01*
X157865793Y-63825747D02*
X157789602Y-63787651D01*
X157789602Y-63787651D02*
X157637221Y-63787651D01*
X157637221Y-63787651D02*
X157561031Y-63825747D01*
X157903888Y-64282890D02*
X157827697Y-64320985D01*
X157827697Y-64320985D02*
X157637221Y-64320985D01*
X157637221Y-64320985D02*
X157561031Y-64282890D01*
X157561031Y-64282890D02*
X157522935Y-64206699D01*
X157522935Y-64206699D02*
X157522935Y-64130509D01*
X157522935Y-64130509D02*
X157561031Y-64054318D01*
X157561031Y-64054318D02*
X157637221Y-64016223D01*
X157637221Y-64016223D02*
X157827697Y-64016223D01*
X157827697Y-64016223D02*
X157903888Y-63978128D01*
X158322936Y-64282890D02*
X158322936Y-64320985D01*
X158322936Y-64320985D02*
X158284841Y-64397175D01*
X158284841Y-64397175D02*
X158246745Y-64435270D01*
X159199126Y-63787651D02*
X159351507Y-64320985D01*
X159351507Y-64320985D02*
X159503888Y-63940032D01*
X159503888Y-63940032D02*
X159656269Y-64320985D01*
X159656269Y-64320985D02*
X159808650Y-63787651D01*
X160113412Y-64320985D02*
X160113412Y-63520985D01*
X160456269Y-64320985D02*
X160456269Y-63901937D01*
X160456269Y-63901937D02*
X160418174Y-63825747D01*
X160418174Y-63825747D02*
X160341983Y-63787651D01*
X160341983Y-63787651D02*
X160227697Y-63787651D01*
X160227697Y-63787651D02*
X160151507Y-63825747D01*
X160151507Y-63825747D02*
X160113412Y-63863842D01*
X161141984Y-64282890D02*
X161065793Y-64320985D01*
X161065793Y-64320985D02*
X160913412Y-64320985D01*
X160913412Y-64320985D02*
X160837222Y-64282890D01*
X160837222Y-64282890D02*
X160799126Y-64206699D01*
X160799126Y-64206699D02*
X160799126Y-63901937D01*
X160799126Y-63901937D02*
X160837222Y-63825747D01*
X160837222Y-63825747D02*
X160913412Y-63787651D01*
X160913412Y-63787651D02*
X161065793Y-63787651D01*
X161065793Y-63787651D02*
X161141984Y-63825747D01*
X161141984Y-63825747D02*
X161180079Y-63901937D01*
X161180079Y-63901937D02*
X161180079Y-63978128D01*
X161180079Y-63978128D02*
X160799126Y-64054318D01*
X161408650Y-63787651D02*
X161713412Y-63787651D01*
X161522936Y-63520985D02*
X161522936Y-64206699D01*
X161522936Y-64206699D02*
X161561031Y-64282890D01*
X161561031Y-64282890D02*
X161637221Y-64320985D01*
X161637221Y-64320985D02*
X161713412Y-64320985D01*
X161980079Y-64320985D02*
X161980079Y-63520985D01*
X162322936Y-64320985D02*
X162322936Y-63901937D01*
X162322936Y-63901937D02*
X162284841Y-63825747D01*
X162284841Y-63825747D02*
X162208650Y-63787651D01*
X162208650Y-63787651D02*
X162094364Y-63787651D01*
X162094364Y-63787651D02*
X162018174Y-63825747D01*
X162018174Y-63825747D02*
X161980079Y-63863842D01*
X163008651Y-64282890D02*
X162932460Y-64320985D01*
X162932460Y-64320985D02*
X162780079Y-64320985D01*
X162780079Y-64320985D02*
X162703889Y-64282890D01*
X162703889Y-64282890D02*
X162665793Y-64206699D01*
X162665793Y-64206699D02*
X162665793Y-63901937D01*
X162665793Y-63901937D02*
X162703889Y-63825747D01*
X162703889Y-63825747D02*
X162780079Y-63787651D01*
X162780079Y-63787651D02*
X162932460Y-63787651D01*
X162932460Y-63787651D02*
X163008651Y-63825747D01*
X163008651Y-63825747D02*
X163046746Y-63901937D01*
X163046746Y-63901937D02*
X163046746Y-63978128D01*
X163046746Y-63978128D02*
X162665793Y-64054318D01*
X163389603Y-64320985D02*
X163389603Y-63787651D01*
X163389603Y-63940032D02*
X163427698Y-63863842D01*
X163427698Y-63863842D02*
X163465793Y-63825747D01*
X163465793Y-63825747D02*
X163541984Y-63787651D01*
X163541984Y-63787651D02*
X163618174Y-63787651D01*
X164494365Y-64320985D02*
X164494365Y-63787651D01*
X164494365Y-63520985D02*
X164456269Y-63559080D01*
X164456269Y-63559080D02*
X164494365Y-63597175D01*
X164494365Y-63597175D02*
X164532460Y-63559080D01*
X164532460Y-63559080D02*
X164494365Y-63520985D01*
X164494365Y-63520985D02*
X164494365Y-63597175D01*
X164761031Y-63787651D02*
X165065793Y-63787651D01*
X164875317Y-63520985D02*
X164875317Y-64206699D01*
X164875317Y-64206699D02*
X164913412Y-64282890D01*
X164913412Y-64282890D02*
X164989602Y-64320985D01*
X164989602Y-64320985D02*
X165065793Y-64320985D01*
X165941984Y-64320985D02*
X165941984Y-63787651D01*
X165941984Y-63520985D02*
X165903888Y-63559080D01*
X165903888Y-63559080D02*
X165941984Y-63597175D01*
X165941984Y-63597175D02*
X165980079Y-63559080D01*
X165980079Y-63559080D02*
X165941984Y-63520985D01*
X165941984Y-63520985D02*
X165941984Y-63597175D01*
X166284840Y-64282890D02*
X166361031Y-64320985D01*
X166361031Y-64320985D02*
X166513412Y-64320985D01*
X166513412Y-64320985D02*
X166589602Y-64282890D01*
X166589602Y-64282890D02*
X166627698Y-64206699D01*
X166627698Y-64206699D02*
X166627698Y-64168604D01*
X166627698Y-64168604D02*
X166589602Y-64092413D01*
X166589602Y-64092413D02*
X166513412Y-64054318D01*
X166513412Y-64054318D02*
X166399126Y-64054318D01*
X166399126Y-64054318D02*
X166322936Y-64016223D01*
X166322936Y-64016223D02*
X166284840Y-63940032D01*
X166284840Y-63940032D02*
X166284840Y-63901937D01*
X166284840Y-63901937D02*
X166322936Y-63825747D01*
X166322936Y-63825747D02*
X166399126Y-63787651D01*
X166399126Y-63787651D02*
X166513412Y-63787651D01*
X166513412Y-63787651D02*
X166589602Y-63825747D01*
X167465793Y-63787651D02*
X167770555Y-63787651D01*
X167580079Y-63520985D02*
X167580079Y-64206699D01*
X167580079Y-64206699D02*
X167618174Y-64282890D01*
X167618174Y-64282890D02*
X167694364Y-64320985D01*
X167694364Y-64320985D02*
X167770555Y-64320985D01*
X168151507Y-64320985D02*
X168075317Y-64282890D01*
X168075317Y-64282890D02*
X168037222Y-64244794D01*
X168037222Y-64244794D02*
X167999126Y-64168604D01*
X167999126Y-64168604D02*
X167999126Y-63940032D01*
X167999126Y-63940032D02*
X168037222Y-63863842D01*
X168037222Y-63863842D02*
X168075317Y-63825747D01*
X168075317Y-63825747D02*
X168151507Y-63787651D01*
X168151507Y-63787651D02*
X168265793Y-63787651D01*
X168265793Y-63787651D02*
X168341984Y-63825747D01*
X168341984Y-63825747D02*
X168380079Y-63863842D01*
X168380079Y-63863842D02*
X168418174Y-63940032D01*
X168418174Y-63940032D02*
X168418174Y-64168604D01*
X168418174Y-64168604D02*
X168380079Y-64244794D01*
X168380079Y-64244794D02*
X168341984Y-64282890D01*
X168341984Y-64282890D02*
X168265793Y-64320985D01*
X168265793Y-64320985D02*
X168151507Y-64320985D01*
X169332460Y-64282890D02*
X169408651Y-64320985D01*
X169408651Y-64320985D02*
X169561032Y-64320985D01*
X169561032Y-64320985D02*
X169637222Y-64282890D01*
X169637222Y-64282890D02*
X169675318Y-64206699D01*
X169675318Y-64206699D02*
X169675318Y-64168604D01*
X169675318Y-64168604D02*
X169637222Y-64092413D01*
X169637222Y-64092413D02*
X169561032Y-64054318D01*
X169561032Y-64054318D02*
X169446746Y-64054318D01*
X169446746Y-64054318D02*
X169370556Y-64016223D01*
X169370556Y-64016223D02*
X169332460Y-63940032D01*
X169332460Y-63940032D02*
X169332460Y-63901937D01*
X169332460Y-63901937D02*
X169370556Y-63825747D01*
X169370556Y-63825747D02*
X169446746Y-63787651D01*
X169446746Y-63787651D02*
X169561032Y-63787651D01*
X169561032Y-63787651D02*
X169637222Y-63825747D01*
X170361032Y-64320985D02*
X170361032Y-63901937D01*
X170361032Y-63901937D02*
X170322937Y-63825747D01*
X170322937Y-63825747D02*
X170246746Y-63787651D01*
X170246746Y-63787651D02*
X170094365Y-63787651D01*
X170094365Y-63787651D02*
X170018175Y-63825747D01*
X170361032Y-64282890D02*
X170284841Y-64320985D01*
X170284841Y-64320985D02*
X170094365Y-64320985D01*
X170094365Y-64320985D02*
X170018175Y-64282890D01*
X170018175Y-64282890D02*
X169980079Y-64206699D01*
X169980079Y-64206699D02*
X169980079Y-64130509D01*
X169980079Y-64130509D02*
X170018175Y-64054318D01*
X170018175Y-64054318D02*
X170094365Y-64016223D01*
X170094365Y-64016223D02*
X170284841Y-64016223D01*
X170284841Y-64016223D02*
X170361032Y-63978128D01*
X170741985Y-64320985D02*
X170741985Y-63787651D01*
X170741985Y-63520985D02*
X170703889Y-63559080D01*
X170703889Y-63559080D02*
X170741985Y-63597175D01*
X170741985Y-63597175D02*
X170780080Y-63559080D01*
X170780080Y-63559080D02*
X170741985Y-63520985D01*
X170741985Y-63520985D02*
X170741985Y-63597175D01*
X171237222Y-64320985D02*
X171161032Y-64282890D01*
X171161032Y-64282890D02*
X171122937Y-64206699D01*
X171122937Y-64206699D02*
X171122937Y-63520985D01*
X138170550Y-65608940D02*
X138094360Y-65570845D01*
X138094360Y-65570845D02*
X138056265Y-65532749D01*
X138056265Y-65532749D02*
X138018169Y-65456559D01*
X138018169Y-65456559D02*
X138018169Y-65227987D01*
X138018169Y-65227987D02*
X138056265Y-65151797D01*
X138056265Y-65151797D02*
X138094360Y-65113702D01*
X138094360Y-65113702D02*
X138170550Y-65075606D01*
X138170550Y-65075606D02*
X138284836Y-65075606D01*
X138284836Y-65075606D02*
X138361027Y-65113702D01*
X138361027Y-65113702D02*
X138399122Y-65151797D01*
X138399122Y-65151797D02*
X138437217Y-65227987D01*
X138437217Y-65227987D02*
X138437217Y-65456559D01*
X138437217Y-65456559D02*
X138399122Y-65532749D01*
X138399122Y-65532749D02*
X138361027Y-65570845D01*
X138361027Y-65570845D02*
X138284836Y-65608940D01*
X138284836Y-65608940D02*
X138170550Y-65608940D01*
X138780075Y-65608940D02*
X138780075Y-65075606D01*
X138780075Y-65227987D02*
X138818170Y-65151797D01*
X138818170Y-65151797D02*
X138856265Y-65113702D01*
X138856265Y-65113702D02*
X138932456Y-65075606D01*
X138932456Y-65075606D02*
X139008646Y-65075606D01*
X139770551Y-65075606D02*
X140075313Y-65075606D01*
X139884837Y-64808940D02*
X139884837Y-65494654D01*
X139884837Y-65494654D02*
X139922932Y-65570845D01*
X139922932Y-65570845D02*
X139999122Y-65608940D01*
X139999122Y-65608940D02*
X140075313Y-65608940D01*
X140456265Y-65608940D02*
X140380075Y-65570845D01*
X140380075Y-65570845D02*
X140341980Y-65532749D01*
X140341980Y-65532749D02*
X140303884Y-65456559D01*
X140303884Y-65456559D02*
X140303884Y-65227987D01*
X140303884Y-65227987D02*
X140341980Y-65151797D01*
X140341980Y-65151797D02*
X140380075Y-65113702D01*
X140380075Y-65113702D02*
X140456265Y-65075606D01*
X140456265Y-65075606D02*
X140570551Y-65075606D01*
X140570551Y-65075606D02*
X140646742Y-65113702D01*
X140646742Y-65113702D02*
X140684837Y-65151797D01*
X140684837Y-65151797D02*
X140722932Y-65227987D01*
X140722932Y-65227987D02*
X140722932Y-65456559D01*
X140722932Y-65456559D02*
X140684837Y-65532749D01*
X140684837Y-65532749D02*
X140646742Y-65570845D01*
X140646742Y-65570845D02*
X140570551Y-65608940D01*
X140570551Y-65608940D02*
X140456265Y-65608940D01*
X141599123Y-65075606D02*
X141751504Y-65608940D01*
X141751504Y-65608940D02*
X141903885Y-65227987D01*
X141903885Y-65227987D02*
X142056266Y-65608940D01*
X142056266Y-65608940D02*
X142208647Y-65075606D01*
X142856266Y-65608940D02*
X142856266Y-65189892D01*
X142856266Y-65189892D02*
X142818171Y-65113702D01*
X142818171Y-65113702D02*
X142741980Y-65075606D01*
X142741980Y-65075606D02*
X142589599Y-65075606D01*
X142589599Y-65075606D02*
X142513409Y-65113702D01*
X142856266Y-65570845D02*
X142780075Y-65608940D01*
X142780075Y-65608940D02*
X142589599Y-65608940D01*
X142589599Y-65608940D02*
X142513409Y-65570845D01*
X142513409Y-65570845D02*
X142475313Y-65494654D01*
X142475313Y-65494654D02*
X142475313Y-65418464D01*
X142475313Y-65418464D02*
X142513409Y-65342273D01*
X142513409Y-65342273D02*
X142589599Y-65304178D01*
X142589599Y-65304178D02*
X142780075Y-65304178D01*
X142780075Y-65304178D02*
X142856266Y-65266083D01*
X143122933Y-65075606D02*
X143427695Y-65075606D01*
X143237219Y-64808940D02*
X143237219Y-65494654D01*
X143237219Y-65494654D02*
X143275314Y-65570845D01*
X143275314Y-65570845D02*
X143351504Y-65608940D01*
X143351504Y-65608940D02*
X143427695Y-65608940D01*
X144037219Y-65570845D02*
X143961028Y-65608940D01*
X143961028Y-65608940D02*
X143808647Y-65608940D01*
X143808647Y-65608940D02*
X143732457Y-65570845D01*
X143732457Y-65570845D02*
X143694362Y-65532749D01*
X143694362Y-65532749D02*
X143656266Y-65456559D01*
X143656266Y-65456559D02*
X143656266Y-65227987D01*
X143656266Y-65227987D02*
X143694362Y-65151797D01*
X143694362Y-65151797D02*
X143732457Y-65113702D01*
X143732457Y-65113702D02*
X143808647Y-65075606D01*
X143808647Y-65075606D02*
X143961028Y-65075606D01*
X143961028Y-65075606D02*
X144037219Y-65113702D01*
X144380076Y-65608940D02*
X144380076Y-64808940D01*
X144722933Y-65608940D02*
X144722933Y-65189892D01*
X144722933Y-65189892D02*
X144684838Y-65113702D01*
X144684838Y-65113702D02*
X144608647Y-65075606D01*
X144608647Y-65075606D02*
X144494361Y-65075606D01*
X144494361Y-65075606D02*
X144418171Y-65113702D01*
X144418171Y-65113702D02*
X144380076Y-65151797D01*
X145713410Y-65608940D02*
X145713410Y-65075606D01*
X145713410Y-64808940D02*
X145675314Y-64847035D01*
X145675314Y-64847035D02*
X145713410Y-64885130D01*
X145713410Y-64885130D02*
X145751505Y-64847035D01*
X145751505Y-64847035D02*
X145713410Y-64808940D01*
X145713410Y-64808940D02*
X145713410Y-64885130D01*
X145980076Y-65075606D02*
X146284838Y-65075606D01*
X146094362Y-64808940D02*
X146094362Y-65494654D01*
X146094362Y-65494654D02*
X146132457Y-65570845D01*
X146132457Y-65570845D02*
X146208647Y-65608940D01*
X146208647Y-65608940D02*
X146284838Y-65608940D01*
X147084838Y-65075606D02*
X147237219Y-65608940D01*
X147237219Y-65608940D02*
X147389600Y-65227987D01*
X147389600Y-65227987D02*
X147541981Y-65608940D01*
X147541981Y-65608940D02*
X147694362Y-65075606D01*
X148303886Y-65570845D02*
X148227695Y-65608940D01*
X148227695Y-65608940D02*
X148075314Y-65608940D01*
X148075314Y-65608940D02*
X147999124Y-65570845D01*
X147999124Y-65570845D02*
X147961028Y-65494654D01*
X147961028Y-65494654D02*
X147961028Y-65189892D01*
X147961028Y-65189892D02*
X147999124Y-65113702D01*
X147999124Y-65113702D02*
X148075314Y-65075606D01*
X148075314Y-65075606D02*
X148227695Y-65075606D01*
X148227695Y-65075606D02*
X148303886Y-65113702D01*
X148303886Y-65113702D02*
X148341981Y-65189892D01*
X148341981Y-65189892D02*
X148341981Y-65266083D01*
X148341981Y-65266083D02*
X147961028Y-65342273D01*
X149637219Y-65608940D02*
X149637219Y-65189892D01*
X149637219Y-65189892D02*
X149599124Y-65113702D01*
X149599124Y-65113702D02*
X149522933Y-65075606D01*
X149522933Y-65075606D02*
X149370552Y-65075606D01*
X149370552Y-65075606D02*
X149294362Y-65113702D01*
X149637219Y-65570845D02*
X149561028Y-65608940D01*
X149561028Y-65608940D02*
X149370552Y-65608940D01*
X149370552Y-65608940D02*
X149294362Y-65570845D01*
X149294362Y-65570845D02*
X149256266Y-65494654D01*
X149256266Y-65494654D02*
X149256266Y-65418464D01*
X149256266Y-65418464D02*
X149294362Y-65342273D01*
X149294362Y-65342273D02*
X149370552Y-65304178D01*
X149370552Y-65304178D02*
X149561028Y-65304178D01*
X149561028Y-65304178D02*
X149637219Y-65266083D01*
X150018172Y-65608940D02*
X150018172Y-65075606D01*
X150018172Y-65227987D02*
X150056267Y-65151797D01*
X150056267Y-65151797D02*
X150094362Y-65113702D01*
X150094362Y-65113702D02*
X150170553Y-65075606D01*
X150170553Y-65075606D02*
X150246743Y-65075606D01*
X150818172Y-65570845D02*
X150741981Y-65608940D01*
X150741981Y-65608940D02*
X150589600Y-65608940D01*
X150589600Y-65608940D02*
X150513410Y-65570845D01*
X150513410Y-65570845D02*
X150475314Y-65494654D01*
X150475314Y-65494654D02*
X150475314Y-65189892D01*
X150475314Y-65189892D02*
X150513410Y-65113702D01*
X150513410Y-65113702D02*
X150589600Y-65075606D01*
X150589600Y-65075606D02*
X150741981Y-65075606D01*
X150741981Y-65075606D02*
X150818172Y-65113702D01*
X150818172Y-65113702D02*
X150856267Y-65189892D01*
X150856267Y-65189892D02*
X150856267Y-65266083D01*
X150856267Y-65266083D02*
X150475314Y-65342273D01*
X152151505Y-65075606D02*
X152151505Y-65723225D01*
X152151505Y-65723225D02*
X152113410Y-65799416D01*
X152113410Y-65799416D02*
X152075314Y-65837511D01*
X152075314Y-65837511D02*
X151999124Y-65875606D01*
X151999124Y-65875606D02*
X151884838Y-65875606D01*
X151884838Y-65875606D02*
X151808648Y-65837511D01*
X152151505Y-65570845D02*
X152075314Y-65608940D01*
X152075314Y-65608940D02*
X151922933Y-65608940D01*
X151922933Y-65608940D02*
X151846743Y-65570845D01*
X151846743Y-65570845D02*
X151808648Y-65532749D01*
X151808648Y-65532749D02*
X151770552Y-65456559D01*
X151770552Y-65456559D02*
X151770552Y-65227987D01*
X151770552Y-65227987D02*
X151808648Y-65151797D01*
X151808648Y-65151797D02*
X151846743Y-65113702D01*
X151846743Y-65113702D02*
X151922933Y-65075606D01*
X151922933Y-65075606D02*
X152075314Y-65075606D01*
X152075314Y-65075606D02*
X152151505Y-65113702D01*
X152646743Y-65608940D02*
X152570553Y-65570845D01*
X152570553Y-65570845D02*
X152532458Y-65532749D01*
X152532458Y-65532749D02*
X152494362Y-65456559D01*
X152494362Y-65456559D02*
X152494362Y-65227987D01*
X152494362Y-65227987D02*
X152532458Y-65151797D01*
X152532458Y-65151797D02*
X152570553Y-65113702D01*
X152570553Y-65113702D02*
X152646743Y-65075606D01*
X152646743Y-65075606D02*
X152761029Y-65075606D01*
X152761029Y-65075606D02*
X152837220Y-65113702D01*
X152837220Y-65113702D02*
X152875315Y-65151797D01*
X152875315Y-65151797D02*
X152913410Y-65227987D01*
X152913410Y-65227987D02*
X152913410Y-65456559D01*
X152913410Y-65456559D02*
X152875315Y-65532749D01*
X152875315Y-65532749D02*
X152837220Y-65570845D01*
X152837220Y-65570845D02*
X152761029Y-65608940D01*
X152761029Y-65608940D02*
X152646743Y-65608940D01*
X153256268Y-65608940D02*
X153256268Y-65075606D01*
X153256268Y-64808940D02*
X153218172Y-64847035D01*
X153218172Y-64847035D02*
X153256268Y-64885130D01*
X153256268Y-64885130D02*
X153294363Y-64847035D01*
X153294363Y-64847035D02*
X153256268Y-64808940D01*
X153256268Y-64808940D02*
X153256268Y-64885130D01*
X153637220Y-65075606D02*
X153637220Y-65608940D01*
X153637220Y-65151797D02*
X153675315Y-65113702D01*
X153675315Y-65113702D02*
X153751505Y-65075606D01*
X153751505Y-65075606D02*
X153865791Y-65075606D01*
X153865791Y-65075606D02*
X153941982Y-65113702D01*
X153941982Y-65113702D02*
X153980077Y-65189892D01*
X153980077Y-65189892D02*
X153980077Y-65608940D01*
X154703887Y-65075606D02*
X154703887Y-65723225D01*
X154703887Y-65723225D02*
X154665792Y-65799416D01*
X154665792Y-65799416D02*
X154627696Y-65837511D01*
X154627696Y-65837511D02*
X154551506Y-65875606D01*
X154551506Y-65875606D02*
X154437220Y-65875606D01*
X154437220Y-65875606D02*
X154361030Y-65837511D01*
X154703887Y-65570845D02*
X154627696Y-65608940D01*
X154627696Y-65608940D02*
X154475315Y-65608940D01*
X154475315Y-65608940D02*
X154399125Y-65570845D01*
X154399125Y-65570845D02*
X154361030Y-65532749D01*
X154361030Y-65532749D02*
X154322934Y-65456559D01*
X154322934Y-65456559D02*
X154322934Y-65227987D01*
X154322934Y-65227987D02*
X154361030Y-65151797D01*
X154361030Y-65151797D02*
X154399125Y-65113702D01*
X154399125Y-65113702D02*
X154475315Y-65075606D01*
X154475315Y-65075606D02*
X154627696Y-65075606D01*
X154627696Y-65075606D02*
X154703887Y-65113702D01*
X155694364Y-65608940D02*
X155694364Y-64808940D01*
X155694364Y-65113702D02*
X155770554Y-65075606D01*
X155770554Y-65075606D02*
X155922935Y-65075606D01*
X155922935Y-65075606D02*
X155999126Y-65113702D01*
X155999126Y-65113702D02*
X156037221Y-65151797D01*
X156037221Y-65151797D02*
X156075316Y-65227987D01*
X156075316Y-65227987D02*
X156075316Y-65456559D01*
X156075316Y-65456559D02*
X156037221Y-65532749D01*
X156037221Y-65532749D02*
X155999126Y-65570845D01*
X155999126Y-65570845D02*
X155922935Y-65608940D01*
X155922935Y-65608940D02*
X155770554Y-65608940D01*
X155770554Y-65608940D02*
X155694364Y-65570845D01*
X156761031Y-65608940D02*
X156761031Y-65189892D01*
X156761031Y-65189892D02*
X156722936Y-65113702D01*
X156722936Y-65113702D02*
X156646745Y-65075606D01*
X156646745Y-65075606D02*
X156494364Y-65075606D01*
X156494364Y-65075606D02*
X156418174Y-65113702D01*
X156761031Y-65570845D02*
X156684840Y-65608940D01*
X156684840Y-65608940D02*
X156494364Y-65608940D01*
X156494364Y-65608940D02*
X156418174Y-65570845D01*
X156418174Y-65570845D02*
X156380078Y-65494654D01*
X156380078Y-65494654D02*
X156380078Y-65418464D01*
X156380078Y-65418464D02*
X156418174Y-65342273D01*
X156418174Y-65342273D02*
X156494364Y-65304178D01*
X156494364Y-65304178D02*
X156684840Y-65304178D01*
X156684840Y-65304178D02*
X156761031Y-65266083D01*
X157484841Y-65570845D02*
X157408650Y-65608940D01*
X157408650Y-65608940D02*
X157256269Y-65608940D01*
X157256269Y-65608940D02*
X157180079Y-65570845D01*
X157180079Y-65570845D02*
X157141984Y-65532749D01*
X157141984Y-65532749D02*
X157103888Y-65456559D01*
X157103888Y-65456559D02*
X157103888Y-65227987D01*
X157103888Y-65227987D02*
X157141984Y-65151797D01*
X157141984Y-65151797D02*
X157180079Y-65113702D01*
X157180079Y-65113702D02*
X157256269Y-65075606D01*
X157256269Y-65075606D02*
X157408650Y-65075606D01*
X157408650Y-65075606D02*
X157484841Y-65113702D01*
X157827698Y-65608940D02*
X157827698Y-64808940D01*
X157903888Y-65304178D02*
X158132460Y-65608940D01*
X158132460Y-65075606D02*
X157827698Y-65380368D01*
X158970555Y-65075606D02*
X159275317Y-65075606D01*
X159084841Y-65608940D02*
X159084841Y-64923225D01*
X159084841Y-64923225D02*
X159122936Y-64847035D01*
X159122936Y-64847035D02*
X159199126Y-64808940D01*
X159199126Y-64808940D02*
X159275317Y-64808940D01*
X159541984Y-65608940D02*
X159541984Y-65075606D01*
X159541984Y-65227987D02*
X159580079Y-65151797D01*
X159580079Y-65151797D02*
X159618174Y-65113702D01*
X159618174Y-65113702D02*
X159694365Y-65075606D01*
X159694365Y-65075606D02*
X159770555Y-65075606D01*
X160151507Y-65608940D02*
X160075317Y-65570845D01*
X160075317Y-65570845D02*
X160037222Y-65532749D01*
X160037222Y-65532749D02*
X159999126Y-65456559D01*
X159999126Y-65456559D02*
X159999126Y-65227987D01*
X159999126Y-65227987D02*
X160037222Y-65151797D01*
X160037222Y-65151797D02*
X160075317Y-65113702D01*
X160075317Y-65113702D02*
X160151507Y-65075606D01*
X160151507Y-65075606D02*
X160265793Y-65075606D01*
X160265793Y-65075606D02*
X160341984Y-65113702D01*
X160341984Y-65113702D02*
X160380079Y-65151797D01*
X160380079Y-65151797D02*
X160418174Y-65227987D01*
X160418174Y-65227987D02*
X160418174Y-65456559D01*
X160418174Y-65456559D02*
X160380079Y-65532749D01*
X160380079Y-65532749D02*
X160341984Y-65570845D01*
X160341984Y-65570845D02*
X160265793Y-65608940D01*
X160265793Y-65608940D02*
X160151507Y-65608940D01*
X160761032Y-65608940D02*
X160761032Y-65075606D01*
X160761032Y-65151797D02*
X160799127Y-65113702D01*
X160799127Y-65113702D02*
X160875317Y-65075606D01*
X160875317Y-65075606D02*
X160989603Y-65075606D01*
X160989603Y-65075606D02*
X161065794Y-65113702D01*
X161065794Y-65113702D02*
X161103889Y-65189892D01*
X161103889Y-65189892D02*
X161103889Y-65608940D01*
X161103889Y-65189892D02*
X161141984Y-65113702D01*
X161141984Y-65113702D02*
X161218175Y-65075606D01*
X161218175Y-65075606D02*
X161332460Y-65075606D01*
X161332460Y-65075606D02*
X161408651Y-65113702D01*
X161408651Y-65113702D02*
X161446746Y-65189892D01*
X161446746Y-65189892D02*
X161446746Y-65608940D01*
X162361032Y-65075606D02*
X162513413Y-65608940D01*
X162513413Y-65608940D02*
X162665794Y-65227987D01*
X162665794Y-65227987D02*
X162818175Y-65608940D01*
X162818175Y-65608940D02*
X162970556Y-65075606D01*
X163275318Y-65608940D02*
X163275318Y-64808940D01*
X163618175Y-65608940D02*
X163618175Y-65189892D01*
X163618175Y-65189892D02*
X163580080Y-65113702D01*
X163580080Y-65113702D02*
X163503889Y-65075606D01*
X163503889Y-65075606D02*
X163389603Y-65075606D01*
X163389603Y-65075606D02*
X163313413Y-65113702D01*
X163313413Y-65113702D02*
X163275318Y-65151797D01*
X164303890Y-65570845D02*
X164227699Y-65608940D01*
X164227699Y-65608940D02*
X164075318Y-65608940D01*
X164075318Y-65608940D02*
X163999128Y-65570845D01*
X163999128Y-65570845D02*
X163961032Y-65494654D01*
X163961032Y-65494654D02*
X163961032Y-65189892D01*
X163961032Y-65189892D02*
X163999128Y-65113702D01*
X163999128Y-65113702D02*
X164075318Y-65075606D01*
X164075318Y-65075606D02*
X164227699Y-65075606D01*
X164227699Y-65075606D02*
X164303890Y-65113702D01*
X164303890Y-65113702D02*
X164341985Y-65189892D01*
X164341985Y-65189892D02*
X164341985Y-65266083D01*
X164341985Y-65266083D02*
X163961032Y-65342273D01*
X164684842Y-65075606D02*
X164684842Y-65608940D01*
X164684842Y-65151797D02*
X164722937Y-65113702D01*
X164722937Y-65113702D02*
X164799127Y-65075606D01*
X164799127Y-65075606D02*
X164913413Y-65075606D01*
X164913413Y-65075606D02*
X164989604Y-65113702D01*
X164989604Y-65113702D02*
X165027699Y-65189892D01*
X165027699Y-65189892D02*
X165027699Y-65608940D01*
X165751509Y-65570845D02*
X165675318Y-65608940D01*
X165675318Y-65608940D02*
X165522937Y-65608940D01*
X165522937Y-65608940D02*
X165446747Y-65570845D01*
X165446747Y-65570845D02*
X165408652Y-65532749D01*
X165408652Y-65532749D02*
X165370556Y-65456559D01*
X165370556Y-65456559D02*
X165370556Y-65227987D01*
X165370556Y-65227987D02*
X165408652Y-65151797D01*
X165408652Y-65151797D02*
X165446747Y-65113702D01*
X165446747Y-65113702D02*
X165522937Y-65075606D01*
X165522937Y-65075606D02*
X165675318Y-65075606D01*
X165675318Y-65075606D02*
X165751509Y-65113702D01*
X166399128Y-65570845D02*
X166322937Y-65608940D01*
X166322937Y-65608940D02*
X166170556Y-65608940D01*
X166170556Y-65608940D02*
X166094366Y-65570845D01*
X166094366Y-65570845D02*
X166056270Y-65494654D01*
X166056270Y-65494654D02*
X166056270Y-65189892D01*
X166056270Y-65189892D02*
X166094366Y-65113702D01*
X166094366Y-65113702D02*
X166170556Y-65075606D01*
X166170556Y-65075606D02*
X166322937Y-65075606D01*
X166322937Y-65075606D02*
X166399128Y-65113702D01*
X166399128Y-65113702D02*
X166437223Y-65189892D01*
X166437223Y-65189892D02*
X166437223Y-65266083D01*
X166437223Y-65266083D02*
X166056270Y-65342273D01*
X167313413Y-65075606D02*
X167465794Y-65608940D01*
X167465794Y-65608940D02*
X167618175Y-65227987D01*
X167618175Y-65227987D02*
X167770556Y-65608940D01*
X167770556Y-65608940D02*
X167922937Y-65075606D01*
X168532461Y-65570845D02*
X168456270Y-65608940D01*
X168456270Y-65608940D02*
X168303889Y-65608940D01*
X168303889Y-65608940D02*
X168227699Y-65570845D01*
X168227699Y-65570845D02*
X168189603Y-65494654D01*
X168189603Y-65494654D02*
X168189603Y-65189892D01*
X168189603Y-65189892D02*
X168227699Y-65113702D01*
X168227699Y-65113702D02*
X168303889Y-65075606D01*
X168303889Y-65075606D02*
X168456270Y-65075606D01*
X168456270Y-65075606D02*
X168532461Y-65113702D01*
X168532461Y-65113702D02*
X168570556Y-65189892D01*
X168570556Y-65189892D02*
X168570556Y-65266083D01*
X168570556Y-65266083D02*
X168189603Y-65342273D01*
X169865794Y-65570845D02*
X169789603Y-65608940D01*
X169789603Y-65608940D02*
X169637222Y-65608940D01*
X169637222Y-65608940D02*
X169561032Y-65570845D01*
X169561032Y-65570845D02*
X169522937Y-65532749D01*
X169522937Y-65532749D02*
X169484841Y-65456559D01*
X169484841Y-65456559D02*
X169484841Y-65227987D01*
X169484841Y-65227987D02*
X169522937Y-65151797D01*
X169522937Y-65151797D02*
X169561032Y-65113702D01*
X169561032Y-65113702D02*
X169637222Y-65075606D01*
X169637222Y-65075606D02*
X169789603Y-65075606D01*
X169789603Y-65075606D02*
X169865794Y-65113702D01*
X170551508Y-65608940D02*
X170551508Y-65189892D01*
X170551508Y-65189892D02*
X170513413Y-65113702D01*
X170513413Y-65113702D02*
X170437222Y-65075606D01*
X170437222Y-65075606D02*
X170284841Y-65075606D01*
X170284841Y-65075606D02*
X170208651Y-65113702D01*
X170551508Y-65570845D02*
X170475317Y-65608940D01*
X170475317Y-65608940D02*
X170284841Y-65608940D01*
X170284841Y-65608940D02*
X170208651Y-65570845D01*
X170208651Y-65570845D02*
X170170555Y-65494654D01*
X170170555Y-65494654D02*
X170170555Y-65418464D01*
X170170555Y-65418464D02*
X170208651Y-65342273D01*
X170208651Y-65342273D02*
X170284841Y-65304178D01*
X170284841Y-65304178D02*
X170475317Y-65304178D01*
X170475317Y-65304178D02*
X170551508Y-65266083D01*
X170932461Y-65608940D02*
X170932461Y-65075606D01*
X170932461Y-65151797D02*
X170970556Y-65113702D01*
X170970556Y-65113702D02*
X171046746Y-65075606D01*
X171046746Y-65075606D02*
X171161032Y-65075606D01*
X171161032Y-65075606D02*
X171237223Y-65113702D01*
X171237223Y-65113702D02*
X171275318Y-65189892D01*
X171275318Y-65189892D02*
X171275318Y-65608940D01*
X171275318Y-65189892D02*
X171313413Y-65113702D01*
X171313413Y-65113702D02*
X171389604Y-65075606D01*
X171389604Y-65075606D02*
X171503889Y-65075606D01*
X171503889Y-65075606D02*
X171580080Y-65113702D01*
X171580080Y-65113702D02*
X171618175Y-65189892D01*
X171618175Y-65189892D02*
X171618175Y-65608940D01*
X172303890Y-65570845D02*
X172227699Y-65608940D01*
X172227699Y-65608940D02*
X172075318Y-65608940D01*
X172075318Y-65608940D02*
X171999128Y-65570845D01*
X171999128Y-65570845D02*
X171961032Y-65494654D01*
X171961032Y-65494654D02*
X171961032Y-65189892D01*
X171961032Y-65189892D02*
X171999128Y-65113702D01*
X171999128Y-65113702D02*
X172075318Y-65075606D01*
X172075318Y-65075606D02*
X172227699Y-65075606D01*
X172227699Y-65075606D02*
X172303890Y-65113702D01*
X172303890Y-65113702D02*
X172341985Y-65189892D01*
X172341985Y-65189892D02*
X172341985Y-65266083D01*
X172341985Y-65266083D02*
X171961032Y-65342273D01*
X138056265Y-66592133D02*
X138665789Y-66592133D01*
X139046741Y-66592133D02*
X139656265Y-66592133D01*
X140875312Y-66096895D02*
X140875312Y-66668323D01*
X140875312Y-66668323D02*
X140837217Y-66782609D01*
X140837217Y-66782609D02*
X140761026Y-66858800D01*
X140761026Y-66858800D02*
X140646741Y-66896895D01*
X140646741Y-66896895D02*
X140570550Y-66896895D01*
X141370550Y-66896895D02*
X141294360Y-66858800D01*
X141294360Y-66858800D02*
X141256265Y-66820704D01*
X141256265Y-66820704D02*
X141218169Y-66744514D01*
X141218169Y-66744514D02*
X141218169Y-66515942D01*
X141218169Y-66515942D02*
X141256265Y-66439752D01*
X141256265Y-66439752D02*
X141294360Y-66401657D01*
X141294360Y-66401657D02*
X141370550Y-66363561D01*
X141370550Y-66363561D02*
X141484836Y-66363561D01*
X141484836Y-66363561D02*
X141561027Y-66401657D01*
X141561027Y-66401657D02*
X141599122Y-66439752D01*
X141599122Y-66439752D02*
X141637217Y-66515942D01*
X141637217Y-66515942D02*
X141637217Y-66744514D01*
X141637217Y-66744514D02*
X141599122Y-66820704D01*
X141599122Y-66820704D02*
X141561027Y-66858800D01*
X141561027Y-66858800D02*
X141484836Y-66896895D01*
X141484836Y-66896895D02*
X141370550Y-66896895D01*
X141980075Y-66896895D02*
X141980075Y-66096895D01*
X142322932Y-66896895D02*
X142322932Y-66477847D01*
X142322932Y-66477847D02*
X142284837Y-66401657D01*
X142284837Y-66401657D02*
X142208646Y-66363561D01*
X142208646Y-66363561D02*
X142094360Y-66363561D01*
X142094360Y-66363561D02*
X142018170Y-66401657D01*
X142018170Y-66401657D02*
X141980075Y-66439752D01*
X142703885Y-66363561D02*
X142703885Y-66896895D01*
X142703885Y-66439752D02*
X142741980Y-66401657D01*
X142741980Y-66401657D02*
X142818170Y-66363561D01*
X142818170Y-66363561D02*
X142932456Y-66363561D01*
X142932456Y-66363561D02*
X143008647Y-66401657D01*
X143008647Y-66401657D02*
X143046742Y-66477847D01*
X143046742Y-66477847D02*
X143046742Y-66896895D01*
X144303885Y-66477847D02*
X144037219Y-66477847D01*
X144037219Y-66896895D02*
X144037219Y-66096895D01*
X144037219Y-66096895D02*
X144418171Y-66096895D01*
X144722933Y-66820704D02*
X144761028Y-66858800D01*
X144761028Y-66858800D02*
X144722933Y-66896895D01*
X144722933Y-66896895D02*
X144684837Y-66858800D01*
X144684837Y-66858800D02*
X144722933Y-66820704D01*
X144722933Y-66820704D02*
X144722933Y-66896895D01*
X145713409Y-66896895D02*
X145713409Y-66096895D01*
X146170552Y-66896895D02*
X145827694Y-66439752D01*
X146170552Y-66096895D02*
X145713409Y-66554038D01*
X146818171Y-66858800D02*
X146741980Y-66896895D01*
X146741980Y-66896895D02*
X146589599Y-66896895D01*
X146589599Y-66896895D02*
X146513409Y-66858800D01*
X146513409Y-66858800D02*
X146475313Y-66782609D01*
X146475313Y-66782609D02*
X146475313Y-66477847D01*
X146475313Y-66477847D02*
X146513409Y-66401657D01*
X146513409Y-66401657D02*
X146589599Y-66363561D01*
X146589599Y-66363561D02*
X146741980Y-66363561D01*
X146741980Y-66363561D02*
X146818171Y-66401657D01*
X146818171Y-66401657D02*
X146856266Y-66477847D01*
X146856266Y-66477847D02*
X146856266Y-66554038D01*
X146856266Y-66554038D02*
X146475313Y-66630228D01*
X147199123Y-66363561D02*
X147199123Y-66896895D01*
X147199123Y-66439752D02*
X147237218Y-66401657D01*
X147237218Y-66401657D02*
X147313408Y-66363561D01*
X147313408Y-66363561D02*
X147427694Y-66363561D01*
X147427694Y-66363561D02*
X147503885Y-66401657D01*
X147503885Y-66401657D02*
X147541980Y-66477847D01*
X147541980Y-66477847D02*
X147541980Y-66896895D01*
X147922933Y-66363561D02*
X147922933Y-66896895D01*
X147922933Y-66439752D02*
X147961028Y-66401657D01*
X147961028Y-66401657D02*
X148037218Y-66363561D01*
X148037218Y-66363561D02*
X148151504Y-66363561D01*
X148151504Y-66363561D02*
X148227695Y-66401657D01*
X148227695Y-66401657D02*
X148265790Y-66477847D01*
X148265790Y-66477847D02*
X148265790Y-66896895D01*
X148951505Y-66858800D02*
X148875314Y-66896895D01*
X148875314Y-66896895D02*
X148722933Y-66896895D01*
X148722933Y-66896895D02*
X148646743Y-66858800D01*
X148646743Y-66858800D02*
X148608647Y-66782609D01*
X148608647Y-66782609D02*
X148608647Y-66477847D01*
X148608647Y-66477847D02*
X148646743Y-66401657D01*
X148646743Y-66401657D02*
X148722933Y-66363561D01*
X148722933Y-66363561D02*
X148875314Y-66363561D01*
X148875314Y-66363561D02*
X148951505Y-66401657D01*
X148951505Y-66401657D02*
X148989600Y-66477847D01*
X148989600Y-66477847D02*
X148989600Y-66554038D01*
X148989600Y-66554038D02*
X148608647Y-66630228D01*
X149675314Y-66896895D02*
X149675314Y-66096895D01*
X149675314Y-66858800D02*
X149599123Y-66896895D01*
X149599123Y-66896895D02*
X149446742Y-66896895D01*
X149446742Y-66896895D02*
X149370552Y-66858800D01*
X149370552Y-66858800D02*
X149332457Y-66820704D01*
X149332457Y-66820704D02*
X149294361Y-66744514D01*
X149294361Y-66744514D02*
X149294361Y-66515942D01*
X149294361Y-66515942D02*
X149332457Y-66439752D01*
X149332457Y-66439752D02*
X149370552Y-66401657D01*
X149370552Y-66401657D02*
X149446742Y-66363561D01*
X149446742Y-66363561D02*
X149599123Y-66363561D01*
X149599123Y-66363561D02*
X149675314Y-66401657D01*
X149980076Y-66363561D02*
X150170552Y-66896895D01*
X150361029Y-66363561D02*
X150170552Y-66896895D01*
X150170552Y-66896895D02*
X150094362Y-67087371D01*
X150094362Y-67087371D02*
X150056267Y-67125466D01*
X150056267Y-67125466D02*
X149980076Y-67163561D01*
X140503884Y-127672419D02*
X140503884Y-126672419D01*
X140503884Y-126672419D02*
X140884836Y-126672419D01*
X140884836Y-126672419D02*
X140980074Y-126720038D01*
X140980074Y-126720038D02*
X141027693Y-126767657D01*
X141027693Y-126767657D02*
X141075312Y-126862895D01*
X141075312Y-126862895D02*
X141075312Y-127005752D01*
X141075312Y-127005752D02*
X141027693Y-127100990D01*
X141027693Y-127100990D02*
X140980074Y-127148609D01*
X140980074Y-127148609D02*
X140884836Y-127196228D01*
X140884836Y-127196228D02*
X140503884Y-127196228D01*
X141408646Y-126672419D02*
X141646741Y-127672419D01*
X141646741Y-127672419D02*
X141837217Y-126958133D01*
X141837217Y-126958133D02*
X142027693Y-127672419D01*
X142027693Y-127672419D02*
X142265789Y-126672419D01*
X142646741Y-127672419D02*
X142646741Y-126672419D01*
X142646741Y-126672419D02*
X142980074Y-127386704D01*
X142980074Y-127386704D02*
X143313407Y-126672419D01*
X143313407Y-126672419D02*
X143313407Y-127672419D01*
X144313407Y-127672419D02*
X143741979Y-127672419D01*
X144027693Y-127672419D02*
X144027693Y-126672419D01*
X144027693Y-126672419D02*
X143932455Y-126815276D01*
X143932455Y-126815276D02*
X143837217Y-126910514D01*
X143837217Y-126910514D02*
X143741979Y-126958133D01*
X142027693Y-121520038D02*
X141932455Y-121472419D01*
X141932455Y-121472419D02*
X141789598Y-121472419D01*
X141789598Y-121472419D02*
X141646741Y-121520038D01*
X141646741Y-121520038D02*
X141551503Y-121615276D01*
X141551503Y-121615276D02*
X141503884Y-121710514D01*
X141503884Y-121710514D02*
X141456265Y-121900990D01*
X141456265Y-121900990D02*
X141456265Y-122043847D01*
X141456265Y-122043847D02*
X141503884Y-122234323D01*
X141503884Y-122234323D02*
X141551503Y-122329561D01*
X141551503Y-122329561D02*
X141646741Y-122424800D01*
X141646741Y-122424800D02*
X141789598Y-122472419D01*
X141789598Y-122472419D02*
X141884836Y-122472419D01*
X141884836Y-122472419D02*
X142027693Y-122424800D01*
X142027693Y-122424800D02*
X142075312Y-122377180D01*
X142075312Y-122377180D02*
X142075312Y-122043847D01*
X142075312Y-122043847D02*
X141884836Y-122043847D01*
X142503884Y-122472419D02*
X142503884Y-121472419D01*
X142503884Y-121472419D02*
X143075312Y-122472419D01*
X143075312Y-122472419D02*
X143075312Y-121472419D01*
X143551503Y-122472419D02*
X143551503Y-121472419D01*
X143551503Y-121472419D02*
X143789598Y-121472419D01*
X143789598Y-121472419D02*
X143932455Y-121520038D01*
X143932455Y-121520038D02*
X144027693Y-121615276D01*
X144027693Y-121615276D02*
X144075312Y-121710514D01*
X144075312Y-121710514D02*
X144122931Y-121900990D01*
X144122931Y-121900990D02*
X144122931Y-122043847D01*
X144122931Y-122043847D02*
X144075312Y-122234323D01*
X144075312Y-122234323D02*
X144027693Y-122329561D01*
X144027693Y-122329561D02*
X143932455Y-122424800D01*
X143932455Y-122424800D02*
X143789598Y-122472419D01*
X143789598Y-122472419D02*
X143551503Y-122472419D01*
D11*
X151320863Y-106467219D02*
X150844673Y-106467219D01*
X150844673Y-106467219D02*
X150844673Y-105467219D01*
X152035149Y-106419600D02*
X151939911Y-106467219D01*
X151939911Y-106467219D02*
X151749435Y-106467219D01*
X151749435Y-106467219D02*
X151654197Y-106419600D01*
X151654197Y-106419600D02*
X151606578Y-106324361D01*
X151606578Y-106324361D02*
X151606578Y-105943409D01*
X151606578Y-105943409D02*
X151654197Y-105848171D01*
X151654197Y-105848171D02*
X151749435Y-105800552D01*
X151749435Y-105800552D02*
X151939911Y-105800552D01*
X151939911Y-105800552D02*
X152035149Y-105848171D01*
X152035149Y-105848171D02*
X152082768Y-105943409D01*
X152082768Y-105943409D02*
X152082768Y-106038647D01*
X152082768Y-106038647D02*
X151606578Y-106133885D01*
X152939911Y-106467219D02*
X152939911Y-105943409D01*
X152939911Y-105943409D02*
X152892292Y-105848171D01*
X152892292Y-105848171D02*
X152797054Y-105800552D01*
X152797054Y-105800552D02*
X152606578Y-105800552D01*
X152606578Y-105800552D02*
X152511340Y-105848171D01*
X152939911Y-106419600D02*
X152844673Y-106467219D01*
X152844673Y-106467219D02*
X152606578Y-106467219D01*
X152606578Y-106467219D02*
X152511340Y-106419600D01*
X152511340Y-106419600D02*
X152463721Y-106324361D01*
X152463721Y-106324361D02*
X152463721Y-106229123D01*
X152463721Y-106229123D02*
X152511340Y-106133885D01*
X152511340Y-106133885D02*
X152606578Y-106086266D01*
X152606578Y-106086266D02*
X152844673Y-106086266D01*
X152844673Y-106086266D02*
X152939911Y-106038647D01*
X153416102Y-106467219D02*
X153416102Y-105467219D01*
X153511340Y-106086266D02*
X153797054Y-106467219D01*
X153797054Y-105800552D02*
X153416102Y-106181504D01*
X154987531Y-106467219D02*
X154987531Y-105467219D01*
X154987531Y-105467219D02*
X155225626Y-105467219D01*
X155225626Y-105467219D02*
X155368483Y-105514838D01*
X155368483Y-105514838D02*
X155463721Y-105610076D01*
X155463721Y-105610076D02*
X155511340Y-105705314D01*
X155511340Y-105705314D02*
X155558959Y-105895790D01*
X155558959Y-105895790D02*
X155558959Y-106038647D01*
X155558959Y-106038647D02*
X155511340Y-106229123D01*
X155511340Y-106229123D02*
X155463721Y-106324361D01*
X155463721Y-106324361D02*
X155368483Y-106419600D01*
X155368483Y-106419600D02*
X155225626Y-106467219D01*
X155225626Y-106467219D02*
X154987531Y-106467219D01*
X156368483Y-106419600D02*
X156273245Y-106467219D01*
X156273245Y-106467219D02*
X156082769Y-106467219D01*
X156082769Y-106467219D02*
X155987531Y-106419600D01*
X155987531Y-106419600D02*
X155939912Y-106324361D01*
X155939912Y-106324361D02*
X155939912Y-105943409D01*
X155939912Y-105943409D02*
X155987531Y-105848171D01*
X155987531Y-105848171D02*
X156082769Y-105800552D01*
X156082769Y-105800552D02*
X156273245Y-105800552D01*
X156273245Y-105800552D02*
X156368483Y-105848171D01*
X156368483Y-105848171D02*
X156416102Y-105943409D01*
X156416102Y-105943409D02*
X156416102Y-106038647D01*
X156416102Y-106038647D02*
X155939912Y-106133885D01*
X156701817Y-105800552D02*
X157082769Y-105800552D01*
X156844674Y-105467219D02*
X156844674Y-106324361D01*
X156844674Y-106324361D02*
X156892293Y-106419600D01*
X156892293Y-106419600D02*
X156987531Y-106467219D01*
X156987531Y-106467219D02*
X157082769Y-106467219D01*
X157797055Y-106419600D02*
X157701817Y-106467219D01*
X157701817Y-106467219D02*
X157511341Y-106467219D01*
X157511341Y-106467219D02*
X157416103Y-106419600D01*
X157416103Y-106419600D02*
X157368484Y-106324361D01*
X157368484Y-106324361D02*
X157368484Y-105943409D01*
X157368484Y-105943409D02*
X157416103Y-105848171D01*
X157416103Y-105848171D02*
X157511341Y-105800552D01*
X157511341Y-105800552D02*
X157701817Y-105800552D01*
X157701817Y-105800552D02*
X157797055Y-105848171D01*
X157797055Y-105848171D02*
X157844674Y-105943409D01*
X157844674Y-105943409D02*
X157844674Y-106038647D01*
X157844674Y-106038647D02*
X157368484Y-106133885D01*
X158701817Y-106419600D02*
X158606579Y-106467219D01*
X158606579Y-106467219D02*
X158416103Y-106467219D01*
X158416103Y-106467219D02*
X158320865Y-106419600D01*
X158320865Y-106419600D02*
X158273246Y-106371980D01*
X158273246Y-106371980D02*
X158225627Y-106276742D01*
X158225627Y-106276742D02*
X158225627Y-105991028D01*
X158225627Y-105991028D02*
X158273246Y-105895790D01*
X158273246Y-105895790D02*
X158320865Y-105848171D01*
X158320865Y-105848171D02*
X158416103Y-105800552D01*
X158416103Y-105800552D02*
X158606579Y-105800552D01*
X158606579Y-105800552D02*
X158701817Y-105848171D01*
X158987532Y-105800552D02*
X159368484Y-105800552D01*
X159130389Y-105467219D02*
X159130389Y-106324361D01*
X159130389Y-106324361D02*
X159178008Y-106419600D01*
X159178008Y-106419600D02*
X159273246Y-106467219D01*
X159273246Y-106467219D02*
X159368484Y-106467219D01*
D12*
X148996779Y-111936065D02*
X149330112Y-111936065D01*
X149472969Y-112459875D02*
X148996779Y-112459875D01*
X148996779Y-112459875D02*
X148996779Y-111459875D01*
X148996779Y-111459875D02*
X149472969Y-111459875D01*
X149853922Y-112412256D02*
X149996779Y-112459875D01*
X149996779Y-112459875D02*
X150234874Y-112459875D01*
X150234874Y-112459875D02*
X150330112Y-112412256D01*
X150330112Y-112412256D02*
X150377731Y-112364636D01*
X150377731Y-112364636D02*
X150425350Y-112269398D01*
X150425350Y-112269398D02*
X150425350Y-112174160D01*
X150425350Y-112174160D02*
X150377731Y-112078922D01*
X150377731Y-112078922D02*
X150330112Y-112031303D01*
X150330112Y-112031303D02*
X150234874Y-111983684D01*
X150234874Y-111983684D02*
X150044398Y-111936065D01*
X150044398Y-111936065D02*
X149949160Y-111888446D01*
X149949160Y-111888446D02*
X149901541Y-111840827D01*
X149901541Y-111840827D02*
X149853922Y-111745589D01*
X149853922Y-111745589D02*
X149853922Y-111650351D01*
X149853922Y-111650351D02*
X149901541Y-111555113D01*
X149901541Y-111555113D02*
X149949160Y-111507494D01*
X149949160Y-111507494D02*
X150044398Y-111459875D01*
X150044398Y-111459875D02*
X150282493Y-111459875D01*
X150282493Y-111459875D02*
X150425350Y-111507494D01*
X151425350Y-112364636D02*
X151377731Y-112412256D01*
X151377731Y-112412256D02*
X151234874Y-112459875D01*
X151234874Y-112459875D02*
X151139636Y-112459875D01*
X151139636Y-112459875D02*
X150996779Y-112412256D01*
X150996779Y-112412256D02*
X150901541Y-112317017D01*
X150901541Y-112317017D02*
X150853922Y-112221779D01*
X150853922Y-112221779D02*
X150806303Y-112031303D01*
X150806303Y-112031303D02*
X150806303Y-111888446D01*
X150806303Y-111888446D02*
X150853922Y-111697970D01*
X150853922Y-111697970D02*
X150901541Y-111602732D01*
X150901541Y-111602732D02*
X150996779Y-111507494D01*
X150996779Y-111507494D02*
X151139636Y-111459875D01*
X151139636Y-111459875D02*
X151234874Y-111459875D01*
X151234874Y-111459875D02*
X151377731Y-111507494D01*
X151377731Y-111507494D02*
X151425350Y-111555113D01*
X152472970Y-111459875D02*
X153044398Y-111459875D01*
X152758684Y-112459875D02*
X152758684Y-111459875D01*
X153758684Y-112412256D02*
X153663446Y-112459875D01*
X153663446Y-112459875D02*
X153472970Y-112459875D01*
X153472970Y-112459875D02*
X153377732Y-112412256D01*
X153377732Y-112412256D02*
X153330113Y-112317017D01*
X153330113Y-112317017D02*
X153330113Y-111936065D01*
X153330113Y-111936065D02*
X153377732Y-111840827D01*
X153377732Y-111840827D02*
X153472970Y-111793208D01*
X153472970Y-111793208D02*
X153663446Y-111793208D01*
X153663446Y-111793208D02*
X153758684Y-111840827D01*
X153758684Y-111840827D02*
X153806303Y-111936065D01*
X153806303Y-111936065D02*
X153806303Y-112031303D01*
X153806303Y-112031303D02*
X153330113Y-112126541D01*
X154234875Y-112459875D02*
X154234875Y-111793208D01*
X154234875Y-111888446D02*
X154282494Y-111840827D01*
X154282494Y-111840827D02*
X154377732Y-111793208D01*
X154377732Y-111793208D02*
X154520589Y-111793208D01*
X154520589Y-111793208D02*
X154615827Y-111840827D01*
X154615827Y-111840827D02*
X154663446Y-111936065D01*
X154663446Y-111936065D02*
X154663446Y-112459875D01*
X154663446Y-111936065D02*
X154711065Y-111840827D01*
X154711065Y-111840827D02*
X154806303Y-111793208D01*
X154806303Y-111793208D02*
X154949160Y-111793208D01*
X154949160Y-111793208D02*
X155044399Y-111840827D01*
X155044399Y-111840827D02*
X155092018Y-111936065D01*
X155092018Y-111936065D02*
X155092018Y-112459875D01*
X155568208Y-111793208D02*
X155568208Y-112793208D01*
X155568208Y-111840827D02*
X155663446Y-111793208D01*
X155663446Y-111793208D02*
X155853922Y-111793208D01*
X155853922Y-111793208D02*
X155949160Y-111840827D01*
X155949160Y-111840827D02*
X155996779Y-111888446D01*
X155996779Y-111888446D02*
X156044398Y-111983684D01*
X156044398Y-111983684D02*
X156044398Y-112269398D01*
X156044398Y-112269398D02*
X155996779Y-112364636D01*
X155996779Y-112364636D02*
X155949160Y-112412256D01*
X155949160Y-112412256D02*
X155853922Y-112459875D01*
X155853922Y-112459875D02*
X155663446Y-112459875D01*
X155663446Y-112459875D02*
X155568208Y-112412256D01*
X156853922Y-112412256D02*
X156758684Y-112459875D01*
X156758684Y-112459875D02*
X156568208Y-112459875D01*
X156568208Y-112459875D02*
X156472970Y-112412256D01*
X156472970Y-112412256D02*
X156425351Y-112317017D01*
X156425351Y-112317017D02*
X156425351Y-111936065D01*
X156425351Y-111936065D02*
X156472970Y-111840827D01*
X156472970Y-111840827D02*
X156568208Y-111793208D01*
X156568208Y-111793208D02*
X156758684Y-111793208D01*
X156758684Y-111793208D02*
X156853922Y-111840827D01*
X156853922Y-111840827D02*
X156901541Y-111936065D01*
X156901541Y-111936065D02*
X156901541Y-112031303D01*
X156901541Y-112031303D02*
X156425351Y-112126541D01*
X157330113Y-112459875D02*
X157330113Y-111793208D01*
X157330113Y-111983684D02*
X157377732Y-111888446D01*
X157377732Y-111888446D02*
X157425351Y-111840827D01*
X157425351Y-111840827D02*
X157520589Y-111793208D01*
X157520589Y-111793208D02*
X157615827Y-111793208D01*
X158377732Y-112459875D02*
X158377732Y-111936065D01*
X158377732Y-111936065D02*
X158330113Y-111840827D01*
X158330113Y-111840827D02*
X158234875Y-111793208D01*
X158234875Y-111793208D02*
X158044399Y-111793208D01*
X158044399Y-111793208D02*
X157949161Y-111840827D01*
X158377732Y-112412256D02*
X158282494Y-112459875D01*
X158282494Y-112459875D02*
X158044399Y-112459875D01*
X158044399Y-112459875D02*
X157949161Y-112412256D01*
X157949161Y-112412256D02*
X157901542Y-112317017D01*
X157901542Y-112317017D02*
X157901542Y-112221779D01*
X157901542Y-112221779D02*
X157949161Y-112126541D01*
X157949161Y-112126541D02*
X158044399Y-112078922D01*
X158044399Y-112078922D02*
X158282494Y-112078922D01*
X158282494Y-112078922D02*
X158377732Y-112031303D01*
X158711066Y-111793208D02*
X159092018Y-111793208D01*
X158853923Y-111459875D02*
X158853923Y-112317017D01*
X158853923Y-112317017D02*
X158901542Y-112412256D01*
X158901542Y-112412256D02*
X158996780Y-112459875D01*
X158996780Y-112459875D02*
X159092018Y-112459875D01*
X159853923Y-111793208D02*
X159853923Y-112459875D01*
X159425352Y-111793208D02*
X159425352Y-112317017D01*
X159425352Y-112317017D02*
X159472971Y-112412256D01*
X159472971Y-112412256D02*
X159568209Y-112459875D01*
X159568209Y-112459875D02*
X159711066Y-112459875D01*
X159711066Y-112459875D02*
X159806304Y-112412256D01*
X159806304Y-112412256D02*
X159853923Y-112364636D01*
X160330114Y-112459875D02*
X160330114Y-111793208D01*
X160330114Y-111983684D02*
X160377733Y-111888446D01*
X160377733Y-111888446D02*
X160425352Y-111840827D01*
X160425352Y-111840827D02*
X160520590Y-111793208D01*
X160520590Y-111793208D02*
X160615828Y-111793208D01*
X161330114Y-112412256D02*
X161234876Y-112459875D01*
X161234876Y-112459875D02*
X161044400Y-112459875D01*
X161044400Y-112459875D02*
X160949162Y-112412256D01*
X160949162Y-112412256D02*
X160901543Y-112317017D01*
X160901543Y-112317017D02*
X160901543Y-111936065D01*
X160901543Y-111936065D02*
X160949162Y-111840827D01*
X160949162Y-111840827D02*
X161044400Y-111793208D01*
X161044400Y-111793208D02*
X161234876Y-111793208D01*
X161234876Y-111793208D02*
X161330114Y-111840827D01*
X161330114Y-111840827D02*
X161377733Y-111936065D01*
X161377733Y-111936065D02*
X161377733Y-112031303D01*
X161377733Y-112031303D02*
X160901543Y-112126541D01*
X149282493Y-114450771D02*
X149234874Y-114403152D01*
X149234874Y-114403152D02*
X149139636Y-114260295D01*
X149139636Y-114260295D02*
X149092017Y-114165057D01*
X149092017Y-114165057D02*
X149044398Y-114022200D01*
X149044398Y-114022200D02*
X148996779Y-113784104D01*
X148996779Y-113784104D02*
X148996779Y-113593628D01*
X148996779Y-113593628D02*
X149044398Y-113355533D01*
X149044398Y-113355533D02*
X149092017Y-113212676D01*
X149092017Y-113212676D02*
X149139636Y-113117438D01*
X149139636Y-113117438D02*
X149234874Y-112974580D01*
X149234874Y-112974580D02*
X149282493Y-112926961D01*
X149615827Y-114022200D02*
X149711065Y-114069819D01*
X149711065Y-114069819D02*
X149901541Y-114069819D01*
X149901541Y-114069819D02*
X149996779Y-114022200D01*
X149996779Y-114022200D02*
X150044398Y-113926961D01*
X150044398Y-113926961D02*
X150044398Y-113879342D01*
X150044398Y-113879342D02*
X149996779Y-113784104D01*
X149996779Y-113784104D02*
X149901541Y-113736485D01*
X149901541Y-113736485D02*
X149758684Y-113736485D01*
X149758684Y-113736485D02*
X149663446Y-113688866D01*
X149663446Y-113688866D02*
X149615827Y-113593628D01*
X149615827Y-113593628D02*
X149615827Y-113546009D01*
X149615827Y-113546009D02*
X149663446Y-113450771D01*
X149663446Y-113450771D02*
X149758684Y-113403152D01*
X149758684Y-113403152D02*
X149901541Y-113403152D01*
X149901541Y-113403152D02*
X149996779Y-113450771D01*
X150472970Y-113403152D02*
X150472970Y-114403152D01*
X150472970Y-113450771D02*
X150568208Y-113403152D01*
X150568208Y-113403152D02*
X150758684Y-113403152D01*
X150758684Y-113403152D02*
X150853922Y-113450771D01*
X150853922Y-113450771D02*
X150901541Y-113498390D01*
X150901541Y-113498390D02*
X150949160Y-113593628D01*
X150949160Y-113593628D02*
X150949160Y-113879342D01*
X150949160Y-113879342D02*
X150901541Y-113974580D01*
X150901541Y-113974580D02*
X150853922Y-114022200D01*
X150853922Y-114022200D02*
X150758684Y-114069819D01*
X150758684Y-114069819D02*
X150568208Y-114069819D01*
X150568208Y-114069819D02*
X150472970Y-114022200D01*
X151520589Y-114069819D02*
X151425351Y-114022200D01*
X151425351Y-114022200D02*
X151377732Y-113926961D01*
X151377732Y-113926961D02*
X151377732Y-113069819D01*
X151901542Y-114069819D02*
X151901542Y-113403152D01*
X151901542Y-113069819D02*
X151853923Y-113117438D01*
X151853923Y-113117438D02*
X151901542Y-113165057D01*
X151901542Y-113165057D02*
X151949161Y-113117438D01*
X151949161Y-113117438D02*
X151901542Y-113069819D01*
X151901542Y-113069819D02*
X151901542Y-113165057D01*
X152234875Y-113403152D02*
X152615827Y-113403152D01*
X152377732Y-113069819D02*
X152377732Y-113926961D01*
X152377732Y-113926961D02*
X152425351Y-114022200D01*
X152425351Y-114022200D02*
X152520589Y-114069819D01*
X152520589Y-114069819D02*
X152615827Y-114069819D01*
X152901542Y-114022200D02*
X152996780Y-114069819D01*
X152996780Y-114069819D02*
X153187256Y-114069819D01*
X153187256Y-114069819D02*
X153282494Y-114022200D01*
X153282494Y-114022200D02*
X153330113Y-113926961D01*
X153330113Y-113926961D02*
X153330113Y-113879342D01*
X153330113Y-113879342D02*
X153282494Y-113784104D01*
X153282494Y-113784104D02*
X153187256Y-113736485D01*
X153187256Y-113736485D02*
X153044399Y-113736485D01*
X153044399Y-113736485D02*
X152949161Y-113688866D01*
X152949161Y-113688866D02*
X152901542Y-113593628D01*
X152901542Y-113593628D02*
X152901542Y-113546009D01*
X152901542Y-113546009D02*
X152949161Y-113450771D01*
X152949161Y-113450771D02*
X153044399Y-113403152D01*
X153044399Y-113403152D02*
X153187256Y-113403152D01*
X153187256Y-113403152D02*
X153282494Y-113450771D01*
X154520590Y-114069819D02*
X154520590Y-113403152D01*
X154520590Y-113069819D02*
X154472971Y-113117438D01*
X154472971Y-113117438D02*
X154520590Y-113165057D01*
X154520590Y-113165057D02*
X154568209Y-113117438D01*
X154568209Y-113117438D02*
X154520590Y-113069819D01*
X154520590Y-113069819D02*
X154520590Y-113165057D01*
X154996780Y-113403152D02*
X154996780Y-114069819D01*
X154996780Y-113498390D02*
X155044399Y-113450771D01*
X155044399Y-113450771D02*
X155139637Y-113403152D01*
X155139637Y-113403152D02*
X155282494Y-113403152D01*
X155282494Y-113403152D02*
X155377732Y-113450771D01*
X155377732Y-113450771D02*
X155425351Y-113546009D01*
X155425351Y-113546009D02*
X155425351Y-114069819D01*
X155758685Y-113403152D02*
X156139637Y-113403152D01*
X155901542Y-113069819D02*
X155901542Y-113926961D01*
X155901542Y-113926961D02*
X155949161Y-114022200D01*
X155949161Y-114022200D02*
X156044399Y-114069819D01*
X156044399Y-114069819D02*
X156139637Y-114069819D01*
X156615828Y-114069819D02*
X156520590Y-114022200D01*
X156520590Y-114022200D02*
X156472971Y-113974580D01*
X156472971Y-113974580D02*
X156425352Y-113879342D01*
X156425352Y-113879342D02*
X156425352Y-113593628D01*
X156425352Y-113593628D02*
X156472971Y-113498390D01*
X156472971Y-113498390D02*
X156520590Y-113450771D01*
X156520590Y-113450771D02*
X156615828Y-113403152D01*
X156615828Y-113403152D02*
X156758685Y-113403152D01*
X156758685Y-113403152D02*
X156853923Y-113450771D01*
X156853923Y-113450771D02*
X156901542Y-113498390D01*
X156901542Y-113498390D02*
X156949161Y-113593628D01*
X156949161Y-113593628D02*
X156949161Y-113879342D01*
X156949161Y-113879342D02*
X156901542Y-113974580D01*
X156901542Y-113974580D02*
X156853923Y-114022200D01*
X156853923Y-114022200D02*
X156758685Y-114069819D01*
X156758685Y-114069819D02*
X156615828Y-114069819D01*
X157996781Y-113403152D02*
X158377733Y-113403152D01*
X158139638Y-113069819D02*
X158139638Y-113926961D01*
X158139638Y-113926961D02*
X158187257Y-114022200D01*
X158187257Y-114022200D02*
X158282495Y-114069819D01*
X158282495Y-114069819D02*
X158377733Y-114069819D01*
X158615829Y-113403152D02*
X158806305Y-114069819D01*
X158806305Y-114069819D02*
X158996781Y-113593628D01*
X158996781Y-113593628D02*
X159187257Y-114069819D01*
X159187257Y-114069819D02*
X159377733Y-113403152D01*
X159901543Y-114069819D02*
X159806305Y-114022200D01*
X159806305Y-114022200D02*
X159758686Y-113974580D01*
X159758686Y-113974580D02*
X159711067Y-113879342D01*
X159711067Y-113879342D02*
X159711067Y-113593628D01*
X159711067Y-113593628D02*
X159758686Y-113498390D01*
X159758686Y-113498390D02*
X159806305Y-113450771D01*
X159806305Y-113450771D02*
X159901543Y-113403152D01*
X159901543Y-113403152D02*
X160044400Y-113403152D01*
X160044400Y-113403152D02*
X160139638Y-113450771D01*
X160139638Y-113450771D02*
X160187257Y-113498390D01*
X160187257Y-113498390D02*
X160234876Y-113593628D01*
X160234876Y-113593628D02*
X160234876Y-113879342D01*
X160234876Y-113879342D02*
X160187257Y-113974580D01*
X160187257Y-113974580D02*
X160139638Y-114022200D01*
X160139638Y-114022200D02*
X160044400Y-114069819D01*
X160044400Y-114069819D02*
X159901543Y-114069819D01*
X160568210Y-114450771D02*
X160615829Y-114403152D01*
X160615829Y-114403152D02*
X160711067Y-114260295D01*
X160711067Y-114260295D02*
X160758686Y-114165057D01*
X160758686Y-114165057D02*
X160806305Y-114022200D01*
X160806305Y-114022200D02*
X160853924Y-113784104D01*
X160853924Y-113784104D02*
X160853924Y-113593628D01*
X160853924Y-113593628D02*
X160806305Y-113355533D01*
X160806305Y-113355533D02*
X160758686Y-113212676D01*
X160758686Y-113212676D02*
X160711067Y-113117438D01*
X160711067Y-113117438D02*
X160615829Y-112974580D01*
X160615829Y-112974580D02*
X160568210Y-112926961D01*
D13*
X166549634Y-95081168D02*
X166549634Y-95341608D01*
X166549634Y-95341608D02*
X166564954Y-95372248D01*
X166564954Y-95372248D02*
X166580274Y-95387569D01*
X166580274Y-95387569D02*
X166610914Y-95402889D01*
X166610914Y-95402889D02*
X166672194Y-95402889D01*
X166672194Y-95402889D02*
X166702834Y-95387569D01*
X166702834Y-95387569D02*
X166718154Y-95372248D01*
X166718154Y-95372248D02*
X166733474Y-95341608D01*
X166733474Y-95341608D02*
X166733474Y-95081168D01*
X166856035Y-95081168D02*
X167055195Y-95081168D01*
X167055195Y-95081168D02*
X166947955Y-95203728D01*
X166947955Y-95203728D02*
X166993915Y-95203728D01*
X166993915Y-95203728D02*
X167024555Y-95219048D01*
X167024555Y-95219048D02*
X167039875Y-95234368D01*
X167039875Y-95234368D02*
X167055195Y-95265008D01*
X167055195Y-95265008D02*
X167055195Y-95341608D01*
X167055195Y-95341608D02*
X167039875Y-95372248D01*
X167039875Y-95372248D02*
X167024555Y-95387569D01*
X167024555Y-95387569D02*
X166993915Y-95402889D01*
X166993915Y-95402889D02*
X166901995Y-95402889D01*
X166901995Y-95402889D02*
X166871355Y-95387569D01*
X166871355Y-95387569D02*
X166856035Y-95372248D01*
D12*
X145663095Y-110767319D02*
X145663095Y-111576842D01*
X145663095Y-111576842D02*
X145710714Y-111672080D01*
X145710714Y-111672080D02*
X145758333Y-111719700D01*
X145758333Y-111719700D02*
X145853571Y-111767319D01*
X145853571Y-111767319D02*
X146044047Y-111767319D01*
X146044047Y-111767319D02*
X146139285Y-111719700D01*
X146139285Y-111719700D02*
X146186904Y-111672080D01*
X146186904Y-111672080D02*
X146234523Y-111576842D01*
X146234523Y-111576842D02*
X146234523Y-110767319D01*
X146663095Y-110862557D02*
X146710714Y-110814938D01*
X146710714Y-110814938D02*
X146805952Y-110767319D01*
X146805952Y-110767319D02*
X147044047Y-110767319D01*
X147044047Y-110767319D02*
X147139285Y-110814938D01*
X147139285Y-110814938D02*
X147186904Y-110862557D01*
X147186904Y-110862557D02*
X147234523Y-110957795D01*
X147234523Y-110957795D02*
X147234523Y-111053033D01*
X147234523Y-111053033D02*
X147186904Y-111195890D01*
X147186904Y-111195890D02*
X146615476Y-111767319D01*
X146615476Y-111767319D02*
X147234523Y-111767319D01*
X145609523Y-101124819D02*
X145276190Y-100648628D01*
X145038095Y-101124819D02*
X145038095Y-100124819D01*
X145038095Y-100124819D02*
X145419047Y-100124819D01*
X145419047Y-100124819D02*
X145514285Y-100172438D01*
X145514285Y-100172438D02*
X145561904Y-100220057D01*
X145561904Y-100220057D02*
X145609523Y-100315295D01*
X145609523Y-100315295D02*
X145609523Y-100458152D01*
X145609523Y-100458152D02*
X145561904Y-100553390D01*
X145561904Y-100553390D02*
X145514285Y-100601009D01*
X145514285Y-100601009D02*
X145419047Y-100648628D01*
X145419047Y-100648628D02*
X145038095Y-100648628D01*
X146038095Y-101124819D02*
X146038095Y-100124819D01*
X146038095Y-100124819D02*
X146609523Y-101124819D01*
X146609523Y-101124819D02*
X146609523Y-100124819D01*
X147609523Y-101124819D02*
X147038095Y-101124819D01*
X147323809Y-101124819D02*
X147323809Y-100124819D01*
X147323809Y-100124819D02*
X147228571Y-100267676D01*
X147228571Y-100267676D02*
X147133333Y-100362914D01*
X147133333Y-100362914D02*
X147038095Y-100410533D01*
X166833333Y-103054819D02*
X166500000Y-102578628D01*
X166261905Y-103054819D02*
X166261905Y-102054819D01*
X166261905Y-102054819D02*
X166642857Y-102054819D01*
X166642857Y-102054819D02*
X166738095Y-102102438D01*
X166738095Y-102102438D02*
X166785714Y-102150057D01*
X166785714Y-102150057D02*
X166833333Y-102245295D01*
X166833333Y-102245295D02*
X166833333Y-102388152D01*
X166833333Y-102388152D02*
X166785714Y-102483390D01*
X166785714Y-102483390D02*
X166738095Y-102531009D01*
X166738095Y-102531009D02*
X166642857Y-102578628D01*
X166642857Y-102578628D02*
X166261905Y-102578628D01*
X167166667Y-102054819D02*
X167833333Y-102054819D01*
X167833333Y-102054819D02*
X167404762Y-103054819D01*
X161233333Y-97654819D02*
X160900000Y-97178628D01*
X160661905Y-97654819D02*
X160661905Y-96654819D01*
X160661905Y-96654819D02*
X161042857Y-96654819D01*
X161042857Y-96654819D02*
X161138095Y-96702438D01*
X161138095Y-96702438D02*
X161185714Y-96750057D01*
X161185714Y-96750057D02*
X161233333Y-96845295D01*
X161233333Y-96845295D02*
X161233333Y-96988152D01*
X161233333Y-96988152D02*
X161185714Y-97083390D01*
X161185714Y-97083390D02*
X161138095Y-97131009D01*
X161138095Y-97131009D02*
X161042857Y-97178628D01*
X161042857Y-97178628D02*
X160661905Y-97178628D01*
X162090476Y-96654819D02*
X161900000Y-96654819D01*
X161900000Y-96654819D02*
X161804762Y-96702438D01*
X161804762Y-96702438D02*
X161757143Y-96750057D01*
X161757143Y-96750057D02*
X161661905Y-96892914D01*
X161661905Y-96892914D02*
X161614286Y-97083390D01*
X161614286Y-97083390D02*
X161614286Y-97464342D01*
X161614286Y-97464342D02*
X161661905Y-97559580D01*
X161661905Y-97559580D02*
X161709524Y-97607200D01*
X161709524Y-97607200D02*
X161804762Y-97654819D01*
X161804762Y-97654819D02*
X161995238Y-97654819D01*
X161995238Y-97654819D02*
X162090476Y-97607200D01*
X162090476Y-97607200D02*
X162138095Y-97559580D01*
X162138095Y-97559580D02*
X162185714Y-97464342D01*
X162185714Y-97464342D02*
X162185714Y-97226247D01*
X162185714Y-97226247D02*
X162138095Y-97131009D01*
X162138095Y-97131009D02*
X162090476Y-97083390D01*
X162090476Y-97083390D02*
X161995238Y-97035771D01*
X161995238Y-97035771D02*
X161804762Y-97035771D01*
X161804762Y-97035771D02*
X161709524Y-97083390D01*
X161709524Y-97083390D02*
X161661905Y-97131009D01*
X161661905Y-97131009D02*
X161614286Y-97226247D01*
X190833333Y-83654819D02*
X190500000Y-83178628D01*
X190261905Y-83654819D02*
X190261905Y-82654819D01*
X190261905Y-82654819D02*
X190642857Y-82654819D01*
X190642857Y-82654819D02*
X190738095Y-82702438D01*
X190738095Y-82702438D02*
X190785714Y-82750057D01*
X190785714Y-82750057D02*
X190833333Y-82845295D01*
X190833333Y-82845295D02*
X190833333Y-82988152D01*
X190833333Y-82988152D02*
X190785714Y-83083390D01*
X190785714Y-83083390D02*
X190738095Y-83131009D01*
X190738095Y-83131009D02*
X190642857Y-83178628D01*
X190642857Y-83178628D02*
X190261905Y-83178628D01*
X191738095Y-82654819D02*
X191261905Y-82654819D01*
X191261905Y-82654819D02*
X191214286Y-83131009D01*
X191214286Y-83131009D02*
X191261905Y-83083390D01*
X191261905Y-83083390D02*
X191357143Y-83035771D01*
X191357143Y-83035771D02*
X191595238Y-83035771D01*
X191595238Y-83035771D02*
X191690476Y-83083390D01*
X191690476Y-83083390D02*
X191738095Y-83131009D01*
X191738095Y-83131009D02*
X191785714Y-83226247D01*
X191785714Y-83226247D02*
X191785714Y-83464342D01*
X191785714Y-83464342D02*
X191738095Y-83559580D01*
X191738095Y-83559580D02*
X191690476Y-83607200D01*
X191690476Y-83607200D02*
X191595238Y-83654819D01*
X191595238Y-83654819D02*
X191357143Y-83654819D01*
X191357143Y-83654819D02*
X191261905Y-83607200D01*
X191261905Y-83607200D02*
X191214286Y-83559580D01*
X193233333Y-83654819D02*
X192900000Y-83178628D01*
X192661905Y-83654819D02*
X192661905Y-82654819D01*
X192661905Y-82654819D02*
X193042857Y-82654819D01*
X193042857Y-82654819D02*
X193138095Y-82702438D01*
X193138095Y-82702438D02*
X193185714Y-82750057D01*
X193185714Y-82750057D02*
X193233333Y-82845295D01*
X193233333Y-82845295D02*
X193233333Y-82988152D01*
X193233333Y-82988152D02*
X193185714Y-83083390D01*
X193185714Y-83083390D02*
X193138095Y-83131009D01*
X193138095Y-83131009D02*
X193042857Y-83178628D01*
X193042857Y-83178628D02*
X192661905Y-83178628D01*
X194090476Y-82988152D02*
X194090476Y-83654819D01*
X193852381Y-82607200D02*
X193614286Y-83321485D01*
X193614286Y-83321485D02*
X194233333Y-83321485D01*
X192233333Y-89804819D02*
X191900000Y-89328628D01*
X191661905Y-89804819D02*
X191661905Y-88804819D01*
X191661905Y-88804819D02*
X192042857Y-88804819D01*
X192042857Y-88804819D02*
X192138095Y-88852438D01*
X192138095Y-88852438D02*
X192185714Y-88900057D01*
X192185714Y-88900057D02*
X192233333Y-88995295D01*
X192233333Y-88995295D02*
X192233333Y-89138152D01*
X192233333Y-89138152D02*
X192185714Y-89233390D01*
X192185714Y-89233390D02*
X192138095Y-89281009D01*
X192138095Y-89281009D02*
X192042857Y-89328628D01*
X192042857Y-89328628D02*
X191661905Y-89328628D01*
X192566667Y-88804819D02*
X193185714Y-88804819D01*
X193185714Y-88804819D02*
X192852381Y-89185771D01*
X192852381Y-89185771D02*
X192995238Y-89185771D01*
X192995238Y-89185771D02*
X193090476Y-89233390D01*
X193090476Y-89233390D02*
X193138095Y-89281009D01*
X193138095Y-89281009D02*
X193185714Y-89376247D01*
X193185714Y-89376247D02*
X193185714Y-89614342D01*
X193185714Y-89614342D02*
X193138095Y-89709580D01*
X193138095Y-89709580D02*
X193090476Y-89757200D01*
X193090476Y-89757200D02*
X192995238Y-89804819D01*
X192995238Y-89804819D02*
X192709524Y-89804819D01*
X192709524Y-89804819D02*
X192614286Y-89757200D01*
X192614286Y-89757200D02*
X192566667Y-89709580D01*
X177433333Y-122254819D02*
X177100000Y-121778628D01*
X176861905Y-122254819D02*
X176861905Y-121254819D01*
X176861905Y-121254819D02*
X177242857Y-121254819D01*
X177242857Y-121254819D02*
X177338095Y-121302438D01*
X177338095Y-121302438D02*
X177385714Y-121350057D01*
X177385714Y-121350057D02*
X177433333Y-121445295D01*
X177433333Y-121445295D02*
X177433333Y-121588152D01*
X177433333Y-121588152D02*
X177385714Y-121683390D01*
X177385714Y-121683390D02*
X177338095Y-121731009D01*
X177338095Y-121731009D02*
X177242857Y-121778628D01*
X177242857Y-121778628D02*
X176861905Y-121778628D01*
X177814286Y-121350057D02*
X177861905Y-121302438D01*
X177861905Y-121302438D02*
X177957143Y-121254819D01*
X177957143Y-121254819D02*
X178195238Y-121254819D01*
X178195238Y-121254819D02*
X178290476Y-121302438D01*
X178290476Y-121302438D02*
X178338095Y-121350057D01*
X178338095Y-121350057D02*
X178385714Y-121445295D01*
X178385714Y-121445295D02*
X178385714Y-121540533D01*
X178385714Y-121540533D02*
X178338095Y-121683390D01*
X178338095Y-121683390D02*
X177766667Y-122254819D01*
X177766667Y-122254819D02*
X178385714Y-122254819D01*
X175233333Y-122254819D02*
X174900000Y-121778628D01*
X174661905Y-122254819D02*
X174661905Y-121254819D01*
X174661905Y-121254819D02*
X175042857Y-121254819D01*
X175042857Y-121254819D02*
X175138095Y-121302438D01*
X175138095Y-121302438D02*
X175185714Y-121350057D01*
X175185714Y-121350057D02*
X175233333Y-121445295D01*
X175233333Y-121445295D02*
X175233333Y-121588152D01*
X175233333Y-121588152D02*
X175185714Y-121683390D01*
X175185714Y-121683390D02*
X175138095Y-121731009D01*
X175138095Y-121731009D02*
X175042857Y-121778628D01*
X175042857Y-121778628D02*
X174661905Y-121778628D01*
X176185714Y-122254819D02*
X175614286Y-122254819D01*
X175900000Y-122254819D02*
X175900000Y-121254819D01*
X175900000Y-121254819D02*
X175804762Y-121397676D01*
X175804762Y-121397676D02*
X175709524Y-121492914D01*
X175709524Y-121492914D02*
X175614286Y-121540533D01*
X145366666Y-89054819D02*
X145366666Y-89769104D01*
X145366666Y-89769104D02*
X145319047Y-89911961D01*
X145319047Y-89911961D02*
X145223809Y-90007200D01*
X145223809Y-90007200D02*
X145080952Y-90054819D01*
X145080952Y-90054819D02*
X144985714Y-90054819D01*
X145842857Y-90054819D02*
X145842857Y-89054819D01*
X145842857Y-89054819D02*
X146223809Y-89054819D01*
X146223809Y-89054819D02*
X146319047Y-89102438D01*
X146319047Y-89102438D02*
X146366666Y-89150057D01*
X146366666Y-89150057D02*
X146414285Y-89245295D01*
X146414285Y-89245295D02*
X146414285Y-89388152D01*
X146414285Y-89388152D02*
X146366666Y-89483390D01*
X146366666Y-89483390D02*
X146319047Y-89531009D01*
X146319047Y-89531009D02*
X146223809Y-89578628D01*
X146223809Y-89578628D02*
X145842857Y-89578628D01*
X146747619Y-89054819D02*
X147366666Y-89054819D01*
X147366666Y-89054819D02*
X147033333Y-89435771D01*
X147033333Y-89435771D02*
X147176190Y-89435771D01*
X147176190Y-89435771D02*
X147271428Y-89483390D01*
X147271428Y-89483390D02*
X147319047Y-89531009D01*
X147319047Y-89531009D02*
X147366666Y-89626247D01*
X147366666Y-89626247D02*
X147366666Y-89864342D01*
X147366666Y-89864342D02*
X147319047Y-89959580D01*
X147319047Y-89959580D02*
X147271428Y-90007200D01*
X147271428Y-90007200D02*
X147176190Y-90054819D01*
X147176190Y-90054819D02*
X146890476Y-90054819D01*
X146890476Y-90054819D02*
X146795238Y-90007200D01*
X146795238Y-90007200D02*
X146747619Y-89959580D01*
X181166666Y-122854819D02*
X181166666Y-123569104D01*
X181166666Y-123569104D02*
X181119047Y-123711961D01*
X181119047Y-123711961D02*
X181023809Y-123807200D01*
X181023809Y-123807200D02*
X180880952Y-123854819D01*
X180880952Y-123854819D02*
X180785714Y-123854819D01*
X181642857Y-123854819D02*
X181642857Y-122854819D01*
X181642857Y-122854819D02*
X182023809Y-122854819D01*
X182023809Y-122854819D02*
X182119047Y-122902438D01*
X182119047Y-122902438D02*
X182166666Y-122950057D01*
X182166666Y-122950057D02*
X182214285Y-123045295D01*
X182214285Y-123045295D02*
X182214285Y-123188152D01*
X182214285Y-123188152D02*
X182166666Y-123283390D01*
X182166666Y-123283390D02*
X182119047Y-123331009D01*
X182119047Y-123331009D02*
X182023809Y-123378628D01*
X182023809Y-123378628D02*
X181642857Y-123378628D01*
X182595238Y-122950057D02*
X182642857Y-122902438D01*
X182642857Y-122902438D02*
X182738095Y-122854819D01*
X182738095Y-122854819D02*
X182976190Y-122854819D01*
X182976190Y-122854819D02*
X183071428Y-122902438D01*
X183071428Y-122902438D02*
X183119047Y-122950057D01*
X183119047Y-122950057D02*
X183166666Y-123045295D01*
X183166666Y-123045295D02*
X183166666Y-123140533D01*
X183166666Y-123140533D02*
X183119047Y-123283390D01*
X183119047Y-123283390D02*
X182547619Y-123854819D01*
X182547619Y-123854819D02*
X183166666Y-123854819D01*
X181166666Y-118654819D02*
X181166666Y-119369104D01*
X181166666Y-119369104D02*
X181119047Y-119511961D01*
X181119047Y-119511961D02*
X181023809Y-119607200D01*
X181023809Y-119607200D02*
X180880952Y-119654819D01*
X180880952Y-119654819D02*
X180785714Y-119654819D01*
X181642857Y-119654819D02*
X181642857Y-118654819D01*
X181642857Y-118654819D02*
X182023809Y-118654819D01*
X182023809Y-118654819D02*
X182119047Y-118702438D01*
X182119047Y-118702438D02*
X182166666Y-118750057D01*
X182166666Y-118750057D02*
X182214285Y-118845295D01*
X182214285Y-118845295D02*
X182214285Y-118988152D01*
X182214285Y-118988152D02*
X182166666Y-119083390D01*
X182166666Y-119083390D02*
X182119047Y-119131009D01*
X182119047Y-119131009D02*
X182023809Y-119178628D01*
X182023809Y-119178628D02*
X181642857Y-119178628D01*
X183166666Y-119654819D02*
X182595238Y-119654819D01*
X182880952Y-119654819D02*
X182880952Y-118654819D01*
X182880952Y-118654819D02*
X182785714Y-118797676D01*
X182785714Y-118797676D02*
X182690476Y-118892914D01*
X182690476Y-118892914D02*
X182595238Y-118940533D01*
X192233333Y-70959580D02*
X192185714Y-71007200D01*
X192185714Y-71007200D02*
X192042857Y-71054819D01*
X192042857Y-71054819D02*
X191947619Y-71054819D01*
X191947619Y-71054819D02*
X191804762Y-71007200D01*
X191804762Y-71007200D02*
X191709524Y-70911961D01*
X191709524Y-70911961D02*
X191661905Y-70816723D01*
X191661905Y-70816723D02*
X191614286Y-70626247D01*
X191614286Y-70626247D02*
X191614286Y-70483390D01*
X191614286Y-70483390D02*
X191661905Y-70292914D01*
X191661905Y-70292914D02*
X191709524Y-70197676D01*
X191709524Y-70197676D02*
X191804762Y-70102438D01*
X191804762Y-70102438D02*
X191947619Y-70054819D01*
X191947619Y-70054819D02*
X192042857Y-70054819D01*
X192042857Y-70054819D02*
X192185714Y-70102438D01*
X192185714Y-70102438D02*
X192233333Y-70150057D01*
X193090476Y-70388152D02*
X193090476Y-71054819D01*
X192852381Y-70007200D02*
X192614286Y-70721485D01*
X192614286Y-70721485D02*
X193233333Y-70721485D01*
X160870833Y-79079580D02*
X160823214Y-79127200D01*
X160823214Y-79127200D02*
X160680357Y-79174819D01*
X160680357Y-79174819D02*
X160585119Y-79174819D01*
X160585119Y-79174819D02*
X160442262Y-79127200D01*
X160442262Y-79127200D02*
X160347024Y-79031961D01*
X160347024Y-79031961D02*
X160299405Y-78936723D01*
X160299405Y-78936723D02*
X160251786Y-78746247D01*
X160251786Y-78746247D02*
X160251786Y-78603390D01*
X160251786Y-78603390D02*
X160299405Y-78412914D01*
X160299405Y-78412914D02*
X160347024Y-78317676D01*
X160347024Y-78317676D02*
X160442262Y-78222438D01*
X160442262Y-78222438D02*
X160585119Y-78174819D01*
X160585119Y-78174819D02*
X160680357Y-78174819D01*
X160680357Y-78174819D02*
X160823214Y-78222438D01*
X160823214Y-78222438D02*
X160870833Y-78270057D01*
X161204167Y-78174819D02*
X161823214Y-78174819D01*
X161823214Y-78174819D02*
X161489881Y-78555771D01*
X161489881Y-78555771D02*
X161632738Y-78555771D01*
X161632738Y-78555771D02*
X161727976Y-78603390D01*
X161727976Y-78603390D02*
X161775595Y-78651009D01*
X161775595Y-78651009D02*
X161823214Y-78746247D01*
X161823214Y-78746247D02*
X161823214Y-78984342D01*
X161823214Y-78984342D02*
X161775595Y-79079580D01*
X161775595Y-79079580D02*
X161727976Y-79127200D01*
X161727976Y-79127200D02*
X161632738Y-79174819D01*
X161632738Y-79174819D02*
X161347024Y-79174819D01*
X161347024Y-79174819D02*
X161251786Y-79127200D01*
X161251786Y-79127200D02*
X161204167Y-79079580D01*
X146433333Y-79159580D02*
X146385714Y-79207200D01*
X146385714Y-79207200D02*
X146242857Y-79254819D01*
X146242857Y-79254819D02*
X146147619Y-79254819D01*
X146147619Y-79254819D02*
X146004762Y-79207200D01*
X146004762Y-79207200D02*
X145909524Y-79111961D01*
X145909524Y-79111961D02*
X145861905Y-79016723D01*
X145861905Y-79016723D02*
X145814286Y-78826247D01*
X145814286Y-78826247D02*
X145814286Y-78683390D01*
X145814286Y-78683390D02*
X145861905Y-78492914D01*
X145861905Y-78492914D02*
X145909524Y-78397676D01*
X145909524Y-78397676D02*
X146004762Y-78302438D01*
X146004762Y-78302438D02*
X146147619Y-78254819D01*
X146147619Y-78254819D02*
X146242857Y-78254819D01*
X146242857Y-78254819D02*
X146385714Y-78302438D01*
X146385714Y-78302438D02*
X146433333Y-78350057D01*
X146814286Y-78350057D02*
X146861905Y-78302438D01*
X146861905Y-78302438D02*
X146957143Y-78254819D01*
X146957143Y-78254819D02*
X147195238Y-78254819D01*
X147195238Y-78254819D02*
X147290476Y-78302438D01*
X147290476Y-78302438D02*
X147338095Y-78350057D01*
X147338095Y-78350057D02*
X147385714Y-78445295D01*
X147385714Y-78445295D02*
X147385714Y-78540533D01*
X147385714Y-78540533D02*
X147338095Y-78683390D01*
X147338095Y-78683390D02*
X146766667Y-79254819D01*
X146766667Y-79254819D02*
X147385714Y-79254819D01*
X146433333Y-84589580D02*
X146385714Y-84637200D01*
X146385714Y-84637200D02*
X146242857Y-84684819D01*
X146242857Y-84684819D02*
X146147619Y-84684819D01*
X146147619Y-84684819D02*
X146004762Y-84637200D01*
X146004762Y-84637200D02*
X145909524Y-84541961D01*
X145909524Y-84541961D02*
X145861905Y-84446723D01*
X145861905Y-84446723D02*
X145814286Y-84256247D01*
X145814286Y-84256247D02*
X145814286Y-84113390D01*
X145814286Y-84113390D02*
X145861905Y-83922914D01*
X145861905Y-83922914D02*
X145909524Y-83827676D01*
X145909524Y-83827676D02*
X146004762Y-83732438D01*
X146004762Y-83732438D02*
X146147619Y-83684819D01*
X146147619Y-83684819D02*
X146242857Y-83684819D01*
X146242857Y-83684819D02*
X146385714Y-83732438D01*
X146385714Y-83732438D02*
X146433333Y-83780057D01*
X147385714Y-84684819D02*
X146814286Y-84684819D01*
X147100000Y-84684819D02*
X147100000Y-83684819D01*
X147100000Y-83684819D02*
X147004762Y-83827676D01*
X147004762Y-83827676D02*
X146909524Y-83922914D01*
X146909524Y-83922914D02*
X146814286Y-83970533D01*
X194796666Y-61984819D02*
X194796666Y-62699104D01*
X194796666Y-62699104D02*
X194749047Y-62841961D01*
X194749047Y-62841961D02*
X194653809Y-62937200D01*
X194653809Y-62937200D02*
X194510952Y-62984819D01*
X194510952Y-62984819D02*
X194415714Y-62984819D01*
X195177619Y-61984819D02*
X195844285Y-61984819D01*
X195844285Y-61984819D02*
X195415714Y-62984819D01*
X152838095Y-90054819D02*
X152838095Y-90864342D01*
X152838095Y-90864342D02*
X152885714Y-90959580D01*
X152885714Y-90959580D02*
X152933333Y-91007200D01*
X152933333Y-91007200D02*
X153028571Y-91054819D01*
X153028571Y-91054819D02*
X153219047Y-91054819D01*
X153219047Y-91054819D02*
X153314285Y-91007200D01*
X153314285Y-91007200D02*
X153361904Y-90959580D01*
X153361904Y-90959580D02*
X153409523Y-90864342D01*
X153409523Y-90864342D02*
X153409523Y-90054819D01*
X154409523Y-91054819D02*
X153838095Y-91054819D01*
X154123809Y-91054819D02*
X154123809Y-90054819D01*
X154123809Y-90054819D02*
X154028571Y-90197676D01*
X154028571Y-90197676D02*
X153933333Y-90292914D01*
X153933333Y-90292914D02*
X153838095Y-90340533D01*
X149790000Y-78383519D02*
X149790000Y-78621614D01*
X149551905Y-78526376D02*
X149790000Y-78621614D01*
X149790000Y-78621614D02*
X150028095Y-78526376D01*
X149647143Y-78812090D02*
X149790000Y-78621614D01*
X149790000Y-78621614D02*
X149932857Y-78812090D01*
X149790000Y-78383519D02*
X149790000Y-78621614D01*
X149551905Y-78526376D02*
X149790000Y-78621614D01*
X149790000Y-78621614D02*
X150028095Y-78526376D01*
X149647143Y-78812090D02*
X149790000Y-78621614D01*
X149790000Y-78621614D02*
X149932857Y-78812090D01*
X191854819Y-96361904D02*
X192664342Y-96361904D01*
X192664342Y-96361904D02*
X192759580Y-96314285D01*
X192759580Y-96314285D02*
X192807200Y-96266666D01*
X192807200Y-96266666D02*
X192854819Y-96171428D01*
X192854819Y-96171428D02*
X192854819Y-95980952D01*
X192854819Y-95980952D02*
X192807200Y-95885714D01*
X192807200Y-95885714D02*
X192759580Y-95838095D01*
X192759580Y-95838095D02*
X192664342Y-95790476D01*
X192664342Y-95790476D02*
X191854819Y-95790476D01*
X191854819Y-94838095D02*
X191854819Y-95314285D01*
X191854819Y-95314285D02*
X192331009Y-95361904D01*
X192331009Y-95361904D02*
X192283390Y-95314285D01*
X192283390Y-95314285D02*
X192235771Y-95219047D01*
X192235771Y-95219047D02*
X192235771Y-94980952D01*
X192235771Y-94980952D02*
X192283390Y-94885714D01*
X192283390Y-94885714D02*
X192331009Y-94838095D01*
X192331009Y-94838095D02*
X192426247Y-94790476D01*
X192426247Y-94790476D02*
X192664342Y-94790476D01*
X192664342Y-94790476D02*
X192759580Y-94838095D01*
X192759580Y-94838095D02*
X192807200Y-94885714D01*
X192807200Y-94885714D02*
X192854819Y-94980952D01*
X192854819Y-94980952D02*
X192854819Y-95219047D01*
X192854819Y-95219047D02*
X192807200Y-95314285D01*
X192807200Y-95314285D02*
X192759580Y-95361904D01*
X176745619Y-82594523D02*
X177555142Y-82594523D01*
X177555142Y-82594523D02*
X177650380Y-82546904D01*
X177650380Y-82546904D02*
X177698000Y-82499285D01*
X177698000Y-82499285D02*
X177745619Y-82404047D01*
X177745619Y-82404047D02*
X177745619Y-82213571D01*
X177745619Y-82213571D02*
X177698000Y-82118333D01*
X177698000Y-82118333D02*
X177650380Y-82070714D01*
X177650380Y-82070714D02*
X177555142Y-82023095D01*
X177555142Y-82023095D02*
X176745619Y-82023095D01*
X177698000Y-81594523D02*
X177745619Y-81451666D01*
X177745619Y-81451666D02*
X177745619Y-81213571D01*
X177745619Y-81213571D02*
X177698000Y-81118333D01*
X177698000Y-81118333D02*
X177650380Y-81070714D01*
X177650380Y-81070714D02*
X177555142Y-81023095D01*
X177555142Y-81023095D02*
X177459904Y-81023095D01*
X177459904Y-81023095D02*
X177364666Y-81070714D01*
X177364666Y-81070714D02*
X177317047Y-81118333D01*
X177317047Y-81118333D02*
X177269428Y-81213571D01*
X177269428Y-81213571D02*
X177221809Y-81404047D01*
X177221809Y-81404047D02*
X177174190Y-81499285D01*
X177174190Y-81499285D02*
X177126571Y-81546904D01*
X177126571Y-81546904D02*
X177031333Y-81594523D01*
X177031333Y-81594523D02*
X176936095Y-81594523D01*
X176936095Y-81594523D02*
X176840857Y-81546904D01*
X176840857Y-81546904D02*
X176793238Y-81499285D01*
X176793238Y-81499285D02*
X176745619Y-81404047D01*
X176745619Y-81404047D02*
X176745619Y-81165952D01*
X176745619Y-81165952D02*
X176793238Y-81023095D01*
X177221809Y-80261190D02*
X177269428Y-80118333D01*
X177269428Y-80118333D02*
X177317047Y-80070714D01*
X177317047Y-80070714D02*
X177412285Y-80023095D01*
X177412285Y-80023095D02*
X177555142Y-80023095D01*
X177555142Y-80023095D02*
X177650380Y-80070714D01*
X177650380Y-80070714D02*
X177698000Y-80118333D01*
X177698000Y-80118333D02*
X177745619Y-80213571D01*
X177745619Y-80213571D02*
X177745619Y-80594523D01*
X177745619Y-80594523D02*
X176745619Y-80594523D01*
X176745619Y-80594523D02*
X176745619Y-80261190D01*
X176745619Y-80261190D02*
X176793238Y-80165952D01*
X176793238Y-80165952D02*
X176840857Y-80118333D01*
X176840857Y-80118333D02*
X176936095Y-80070714D01*
X176936095Y-80070714D02*
X177031333Y-80070714D01*
X177031333Y-80070714D02*
X177126571Y-80118333D01*
X177126571Y-80118333D02*
X177174190Y-80165952D01*
X177174190Y-80165952D02*
X177221809Y-80261190D01*
X177221809Y-80261190D02*
X177221809Y-80594523D01*
X177745619Y-78832618D02*
X176745619Y-78832618D01*
X177221809Y-78832618D02*
X177221809Y-78261190D01*
X177745619Y-78261190D02*
X176745619Y-78261190D01*
X177745619Y-77642142D02*
X177698000Y-77737380D01*
X177698000Y-77737380D02*
X177650380Y-77784999D01*
X177650380Y-77784999D02*
X177555142Y-77832618D01*
X177555142Y-77832618D02*
X177269428Y-77832618D01*
X177269428Y-77832618D02*
X177174190Y-77784999D01*
X177174190Y-77784999D02*
X177126571Y-77737380D01*
X177126571Y-77737380D02*
X177078952Y-77642142D01*
X177078952Y-77642142D02*
X177078952Y-77499285D01*
X177078952Y-77499285D02*
X177126571Y-77404047D01*
X177126571Y-77404047D02*
X177174190Y-77356428D01*
X177174190Y-77356428D02*
X177269428Y-77308809D01*
X177269428Y-77308809D02*
X177555142Y-77308809D01*
X177555142Y-77308809D02*
X177650380Y-77356428D01*
X177650380Y-77356428D02*
X177698000Y-77404047D01*
X177698000Y-77404047D02*
X177745619Y-77499285D01*
X177745619Y-77499285D02*
X177745619Y-77642142D01*
X177698000Y-76927856D02*
X177745619Y-76832618D01*
X177745619Y-76832618D02*
X177745619Y-76642142D01*
X177745619Y-76642142D02*
X177698000Y-76546904D01*
X177698000Y-76546904D02*
X177602761Y-76499285D01*
X177602761Y-76499285D02*
X177555142Y-76499285D01*
X177555142Y-76499285D02*
X177459904Y-76546904D01*
X177459904Y-76546904D02*
X177412285Y-76642142D01*
X177412285Y-76642142D02*
X177412285Y-76784999D01*
X177412285Y-76784999D02*
X177364666Y-76880237D01*
X177364666Y-76880237D02*
X177269428Y-76927856D01*
X177269428Y-76927856D02*
X177221809Y-76927856D01*
X177221809Y-76927856D02*
X177126571Y-76880237D01*
X177126571Y-76880237D02*
X177078952Y-76784999D01*
X177078952Y-76784999D02*
X177078952Y-76642142D01*
X177078952Y-76642142D02*
X177126571Y-76546904D01*
X177078952Y-76213570D02*
X177078952Y-75832618D01*
X176745619Y-76070713D02*
X177602761Y-76070713D01*
X177602761Y-76070713D02*
X177698000Y-76023094D01*
X177698000Y-76023094D02*
X177745619Y-75927856D01*
X177745619Y-75927856D02*
X177745619Y-75832618D01*
X180234819Y-124999847D02*
X179234819Y-124999847D01*
X179234819Y-124999847D02*
X179949104Y-124666514D01*
X179949104Y-124666514D02*
X179234819Y-124333181D01*
X179234819Y-124333181D02*
X180234819Y-124333181D01*
X180234819Y-123856990D02*
X179568152Y-123856990D01*
X179234819Y-123856990D02*
X179282438Y-123904609D01*
X179282438Y-123904609D02*
X179330057Y-123856990D01*
X179330057Y-123856990D02*
X179282438Y-123809371D01*
X179282438Y-123809371D02*
X179234819Y-123856990D01*
X179234819Y-123856990D02*
X179330057Y-123856990D01*
X180187200Y-122952229D02*
X180234819Y-123047467D01*
X180234819Y-123047467D02*
X180234819Y-123237943D01*
X180234819Y-123237943D02*
X180187200Y-123333181D01*
X180187200Y-123333181D02*
X180139580Y-123380800D01*
X180139580Y-123380800D02*
X180044342Y-123428419D01*
X180044342Y-123428419D02*
X179758628Y-123428419D01*
X179758628Y-123428419D02*
X179663390Y-123380800D01*
X179663390Y-123380800D02*
X179615771Y-123333181D01*
X179615771Y-123333181D02*
X179568152Y-123237943D01*
X179568152Y-123237943D02*
X179568152Y-123047467D01*
X179568152Y-123047467D02*
X179615771Y-122952229D01*
X180234819Y-122523657D02*
X179568152Y-122523657D01*
X179758628Y-122523657D02*
X179663390Y-122476038D01*
X179663390Y-122476038D02*
X179615771Y-122428419D01*
X179615771Y-122428419D02*
X179568152Y-122333181D01*
X179568152Y-122333181D02*
X179568152Y-122237943D01*
X180234819Y-121761752D02*
X180187200Y-121856990D01*
X180187200Y-121856990D02*
X180139580Y-121904609D01*
X180139580Y-121904609D02*
X180044342Y-121952228D01*
X180044342Y-121952228D02*
X179758628Y-121952228D01*
X179758628Y-121952228D02*
X179663390Y-121904609D01*
X179663390Y-121904609D02*
X179615771Y-121856990D01*
X179615771Y-121856990D02*
X179568152Y-121761752D01*
X179568152Y-121761752D02*
X179568152Y-121618895D01*
X179568152Y-121618895D02*
X179615771Y-121523657D01*
X179615771Y-121523657D02*
X179663390Y-121476038D01*
X179663390Y-121476038D02*
X179758628Y-121428419D01*
X179758628Y-121428419D02*
X180044342Y-121428419D01*
X180044342Y-121428419D02*
X180139580Y-121476038D01*
X180139580Y-121476038D02*
X180187200Y-121523657D01*
X180187200Y-121523657D02*
X180234819Y-121618895D01*
X180234819Y-121618895D02*
X180234819Y-121761752D01*
X180187200Y-120285561D02*
X180234819Y-120142704D01*
X180234819Y-120142704D02*
X180234819Y-119904609D01*
X180234819Y-119904609D02*
X180187200Y-119809371D01*
X180187200Y-119809371D02*
X180139580Y-119761752D01*
X180139580Y-119761752D02*
X180044342Y-119714133D01*
X180044342Y-119714133D02*
X179949104Y-119714133D01*
X179949104Y-119714133D02*
X179853866Y-119761752D01*
X179853866Y-119761752D02*
X179806247Y-119809371D01*
X179806247Y-119809371D02*
X179758628Y-119904609D01*
X179758628Y-119904609D02*
X179711009Y-120095085D01*
X179711009Y-120095085D02*
X179663390Y-120190323D01*
X179663390Y-120190323D02*
X179615771Y-120237942D01*
X179615771Y-120237942D02*
X179520533Y-120285561D01*
X179520533Y-120285561D02*
X179425295Y-120285561D01*
X179425295Y-120285561D02*
X179330057Y-120237942D01*
X179330057Y-120237942D02*
X179282438Y-120190323D01*
X179282438Y-120190323D02*
X179234819Y-120095085D01*
X179234819Y-120095085D02*
X179234819Y-119856990D01*
X179234819Y-119856990D02*
X179282438Y-119714133D01*
X180234819Y-119285561D02*
X179234819Y-119285561D01*
X179234819Y-119285561D02*
X179234819Y-119047466D01*
X179234819Y-119047466D02*
X179282438Y-118904609D01*
X179282438Y-118904609D02*
X179377676Y-118809371D01*
X179377676Y-118809371D02*
X179472914Y-118761752D01*
X179472914Y-118761752D02*
X179663390Y-118714133D01*
X179663390Y-118714133D02*
X179806247Y-118714133D01*
X179806247Y-118714133D02*
X179996723Y-118761752D01*
X179996723Y-118761752D02*
X180091961Y-118809371D01*
X180091961Y-118809371D02*
X180187200Y-118904609D01*
X180187200Y-118904609D02*
X180234819Y-119047466D01*
X180234819Y-119047466D02*
X180234819Y-119285561D01*
X178518095Y-70535619D02*
X178518095Y-71345142D01*
X178518095Y-71345142D02*
X178565714Y-71440380D01*
X178565714Y-71440380D02*
X178613333Y-71488000D01*
X178613333Y-71488000D02*
X178708571Y-71535619D01*
X178708571Y-71535619D02*
X178899047Y-71535619D01*
X178899047Y-71535619D02*
X178994285Y-71488000D01*
X178994285Y-71488000D02*
X179041904Y-71440380D01*
X179041904Y-71440380D02*
X179089523Y-71345142D01*
X179089523Y-71345142D02*
X179089523Y-70535619D01*
X179518095Y-71488000D02*
X179660952Y-71535619D01*
X179660952Y-71535619D02*
X179899047Y-71535619D01*
X179899047Y-71535619D02*
X179994285Y-71488000D01*
X179994285Y-71488000D02*
X180041904Y-71440380D01*
X180041904Y-71440380D02*
X180089523Y-71345142D01*
X180089523Y-71345142D02*
X180089523Y-71249904D01*
X180089523Y-71249904D02*
X180041904Y-71154666D01*
X180041904Y-71154666D02*
X179994285Y-71107047D01*
X179994285Y-71107047D02*
X179899047Y-71059428D01*
X179899047Y-71059428D02*
X179708571Y-71011809D01*
X179708571Y-71011809D02*
X179613333Y-70964190D01*
X179613333Y-70964190D02*
X179565714Y-70916571D01*
X179565714Y-70916571D02*
X179518095Y-70821333D01*
X179518095Y-70821333D02*
X179518095Y-70726095D01*
X179518095Y-70726095D02*
X179565714Y-70630857D01*
X179565714Y-70630857D02*
X179613333Y-70583238D01*
X179613333Y-70583238D02*
X179708571Y-70535619D01*
X179708571Y-70535619D02*
X179946666Y-70535619D01*
X179946666Y-70535619D02*
X180089523Y-70583238D01*
X180851428Y-71011809D02*
X180994285Y-71059428D01*
X180994285Y-71059428D02*
X181041904Y-71107047D01*
X181041904Y-71107047D02*
X181089523Y-71202285D01*
X181089523Y-71202285D02*
X181089523Y-71345142D01*
X181089523Y-71345142D02*
X181041904Y-71440380D01*
X181041904Y-71440380D02*
X180994285Y-71488000D01*
X180994285Y-71488000D02*
X180899047Y-71535619D01*
X180899047Y-71535619D02*
X180518095Y-71535619D01*
X180518095Y-71535619D02*
X180518095Y-70535619D01*
X180518095Y-70535619D02*
X180851428Y-70535619D01*
X180851428Y-70535619D02*
X180946666Y-70583238D01*
X180946666Y-70583238D02*
X180994285Y-70630857D01*
X180994285Y-70630857D02*
X181041904Y-70726095D01*
X181041904Y-70726095D02*
X181041904Y-70821333D01*
X181041904Y-70821333D02*
X180994285Y-70916571D01*
X180994285Y-70916571D02*
X180946666Y-70964190D01*
X180946666Y-70964190D02*
X180851428Y-71011809D01*
X180851428Y-71011809D02*
X180518095Y-71011809D01*
X180199456Y-85616809D02*
X180532789Y-85616809D01*
X180675646Y-86140619D02*
X180199456Y-86140619D01*
X180199456Y-86140619D02*
X180199456Y-85140619D01*
X180199456Y-85140619D02*
X180675646Y-85140619D01*
X180961361Y-85473952D02*
X181342313Y-85473952D01*
X181104218Y-85140619D02*
X181104218Y-85997761D01*
X181104218Y-85997761D02*
X181151837Y-86093000D01*
X181151837Y-86093000D02*
X181247075Y-86140619D01*
X181247075Y-86140619D02*
X181342313Y-86140619D01*
X181675647Y-86140619D02*
X181675647Y-85140619D01*
X182104218Y-86140619D02*
X182104218Y-85616809D01*
X182104218Y-85616809D02*
X182056599Y-85521571D01*
X182056599Y-85521571D02*
X181961361Y-85473952D01*
X181961361Y-85473952D02*
X181818504Y-85473952D01*
X181818504Y-85473952D02*
X181723266Y-85521571D01*
X181723266Y-85521571D02*
X181675647Y-85569190D01*
X182961361Y-86093000D02*
X182866123Y-86140619D01*
X182866123Y-86140619D02*
X182675647Y-86140619D01*
X182675647Y-86140619D02*
X182580409Y-86093000D01*
X182580409Y-86093000D02*
X182532790Y-85997761D01*
X182532790Y-85997761D02*
X182532790Y-85616809D01*
X182532790Y-85616809D02*
X182580409Y-85521571D01*
X182580409Y-85521571D02*
X182675647Y-85473952D01*
X182675647Y-85473952D02*
X182866123Y-85473952D01*
X182866123Y-85473952D02*
X182961361Y-85521571D01*
X182961361Y-85521571D02*
X183008980Y-85616809D01*
X183008980Y-85616809D02*
X183008980Y-85712047D01*
X183008980Y-85712047D02*
X182532790Y-85807285D01*
X183437552Y-86140619D02*
X183437552Y-85473952D01*
X183437552Y-85664428D02*
X183485171Y-85569190D01*
X183485171Y-85569190D02*
X183532790Y-85521571D01*
X183532790Y-85521571D02*
X183628028Y-85473952D01*
X183628028Y-85473952D02*
X183723266Y-85473952D01*
X184056600Y-85473952D02*
X184056600Y-86140619D01*
X184056600Y-85569190D02*
X184104219Y-85521571D01*
X184104219Y-85521571D02*
X184199457Y-85473952D01*
X184199457Y-85473952D02*
X184342314Y-85473952D01*
X184342314Y-85473952D02*
X184437552Y-85521571D01*
X184437552Y-85521571D02*
X184485171Y-85616809D01*
X184485171Y-85616809D02*
X184485171Y-86140619D01*
X185342314Y-86093000D02*
X185247076Y-86140619D01*
X185247076Y-86140619D02*
X185056600Y-86140619D01*
X185056600Y-86140619D02*
X184961362Y-86093000D01*
X184961362Y-86093000D02*
X184913743Y-85997761D01*
X184913743Y-85997761D02*
X184913743Y-85616809D01*
X184913743Y-85616809D02*
X184961362Y-85521571D01*
X184961362Y-85521571D02*
X185056600Y-85473952D01*
X185056600Y-85473952D02*
X185247076Y-85473952D01*
X185247076Y-85473952D02*
X185342314Y-85521571D01*
X185342314Y-85521571D02*
X185389933Y-85616809D01*
X185389933Y-85616809D02*
X185389933Y-85712047D01*
X185389933Y-85712047D02*
X184913743Y-85807285D01*
X185675648Y-85473952D02*
X186056600Y-85473952D01*
X185818505Y-85140619D02*
X185818505Y-85997761D01*
X185818505Y-85997761D02*
X185866124Y-86093000D01*
X185866124Y-86093000D02*
X185961362Y-86140619D01*
X185961362Y-86140619D02*
X186056600Y-86140619D01*
X178576666Y-95526833D02*
X178576666Y-94826833D01*
X178576666Y-94826833D02*
X178743333Y-94826833D01*
X178743333Y-94826833D02*
X178843333Y-94860166D01*
X178843333Y-94860166D02*
X178910000Y-94926833D01*
X178910000Y-94926833D02*
X178943333Y-94993500D01*
X178943333Y-94993500D02*
X178976666Y-95126833D01*
X178976666Y-95126833D02*
X178976666Y-95226833D01*
X178976666Y-95226833D02*
X178943333Y-95360166D01*
X178943333Y-95360166D02*
X178910000Y-95426833D01*
X178910000Y-95426833D02*
X178843333Y-95493500D01*
X178843333Y-95493500D02*
X178743333Y-95526833D01*
X178743333Y-95526833D02*
X178576666Y-95526833D01*
X179176666Y-94826833D02*
X179410000Y-95526833D01*
X179410000Y-95526833D02*
X179643333Y-94826833D01*
X180076666Y-94826833D02*
X180076666Y-95326833D01*
X180076666Y-95326833D02*
X180043333Y-95426833D01*
X180043333Y-95426833D02*
X179976666Y-95493500D01*
X179976666Y-95493500D02*
X179876666Y-95526833D01*
X179876666Y-95526833D02*
X179810000Y-95526833D01*
X180709999Y-94826833D02*
X180576666Y-94826833D01*
X180576666Y-94826833D02*
X180509999Y-94860166D01*
X180509999Y-94860166D02*
X180476666Y-94893500D01*
X180476666Y-94893500D02*
X180409999Y-94993500D01*
X180409999Y-94993500D02*
X180376666Y-95126833D01*
X180376666Y-95126833D02*
X180376666Y-95393500D01*
X180376666Y-95393500D02*
X180409999Y-95460166D01*
X180409999Y-95460166D02*
X180443333Y-95493500D01*
X180443333Y-95493500D02*
X180509999Y-95526833D01*
X180509999Y-95526833D02*
X180643333Y-95526833D01*
X180643333Y-95526833D02*
X180709999Y-95493500D01*
X180709999Y-95493500D02*
X180743333Y-95460166D01*
X180743333Y-95460166D02*
X180776666Y-95393500D01*
X180776666Y-95393500D02*
X180776666Y-95226833D01*
X180776666Y-95226833D02*
X180743333Y-95160166D01*
X180743333Y-95160166D02*
X180709999Y-95126833D01*
X180709999Y-95126833D02*
X180643333Y-95093500D01*
X180643333Y-95093500D02*
X180509999Y-95093500D01*
X180509999Y-95093500D02*
X180443333Y-95126833D01*
X180443333Y-95126833D02*
X180409999Y-95160166D01*
X180409999Y-95160166D02*
X180376666Y-95226833D01*
X181043333Y-95326833D02*
X181376666Y-95326833D01*
X180976666Y-95526833D02*
X181210000Y-94826833D01*
X181210000Y-94826833D02*
X181443333Y-95526833D01*
X176696666Y-96796833D02*
X176696666Y-96096833D01*
X176696666Y-96096833D02*
X176930000Y-96596833D01*
X176930000Y-96596833D02*
X177163333Y-96096833D01*
X177163333Y-96096833D02*
X177163333Y-96796833D01*
X177496666Y-96796833D02*
X177496666Y-96096833D01*
X177829999Y-96796833D02*
X177829999Y-96096833D01*
X177829999Y-96096833D02*
X178063333Y-96596833D01*
X178063333Y-96596833D02*
X178296666Y-96096833D01*
X178296666Y-96096833D02*
X178296666Y-96796833D01*
X178563333Y-96096833D02*
X179029999Y-96796833D01*
X179029999Y-96096833D02*
X178563333Y-96796833D01*
X179696666Y-96796833D02*
X179463333Y-96463500D01*
X179296666Y-96796833D02*
X179296666Y-96096833D01*
X179296666Y-96096833D02*
X179563333Y-96096833D01*
X179563333Y-96096833D02*
X179630000Y-96130166D01*
X179630000Y-96130166D02*
X179663333Y-96163500D01*
X179663333Y-96163500D02*
X179696666Y-96230166D01*
X179696666Y-96230166D02*
X179696666Y-96330166D01*
X179696666Y-96330166D02*
X179663333Y-96396833D01*
X179663333Y-96396833D02*
X179630000Y-96430166D01*
X179630000Y-96430166D02*
X179563333Y-96463500D01*
X179563333Y-96463500D02*
X179296666Y-96463500D01*
X179896666Y-96096833D02*
X180296666Y-96096833D01*
X180096666Y-96796833D02*
X180096666Y-96096833D01*
X180896666Y-96796833D02*
X180496666Y-96796833D01*
X180696666Y-96796833D02*
X180696666Y-96096833D01*
X180696666Y-96096833D02*
X180629999Y-96196833D01*
X180629999Y-96196833D02*
X180563333Y-96263500D01*
X180563333Y-96263500D02*
X180496666Y-96296833D01*
X181330000Y-96096833D02*
X181396666Y-96096833D01*
X181396666Y-96096833D02*
X181463333Y-96130166D01*
X181463333Y-96130166D02*
X181496666Y-96163500D01*
X181496666Y-96163500D02*
X181530000Y-96230166D01*
X181530000Y-96230166D02*
X181563333Y-96363500D01*
X181563333Y-96363500D02*
X181563333Y-96530166D01*
X181563333Y-96530166D02*
X181530000Y-96663500D01*
X181530000Y-96663500D02*
X181496666Y-96730166D01*
X181496666Y-96730166D02*
X181463333Y-96763500D01*
X181463333Y-96763500D02*
X181396666Y-96796833D01*
X181396666Y-96796833D02*
X181330000Y-96796833D01*
X181330000Y-96796833D02*
X181263333Y-96763500D01*
X181263333Y-96763500D02*
X181230000Y-96730166D01*
X181230000Y-96730166D02*
X181196666Y-96663500D01*
X181196666Y-96663500D02*
X181163333Y-96530166D01*
X181163333Y-96530166D02*
X181163333Y-96363500D01*
X181163333Y-96363500D02*
X181196666Y-96230166D01*
X181196666Y-96230166D02*
X181230000Y-96163500D01*
X181230000Y-96163500D02*
X181263333Y-96130166D01*
X181263333Y-96130166D02*
X181330000Y-96096833D01*
X182163333Y-96096833D02*
X182030000Y-96096833D01*
X182030000Y-96096833D02*
X181963333Y-96130166D01*
X181963333Y-96130166D02*
X181930000Y-96163500D01*
X181930000Y-96163500D02*
X181863333Y-96263500D01*
X181863333Y-96263500D02*
X181830000Y-96396833D01*
X181830000Y-96396833D02*
X181830000Y-96663500D01*
X181830000Y-96663500D02*
X181863333Y-96730166D01*
X181863333Y-96730166D02*
X181896667Y-96763500D01*
X181896667Y-96763500D02*
X181963333Y-96796833D01*
X181963333Y-96796833D02*
X182096667Y-96796833D01*
X182096667Y-96796833D02*
X182163333Y-96763500D01*
X182163333Y-96763500D02*
X182196667Y-96730166D01*
X182196667Y-96730166D02*
X182230000Y-96663500D01*
X182230000Y-96663500D02*
X182230000Y-96496833D01*
X182230000Y-96496833D02*
X182196667Y-96430166D01*
X182196667Y-96430166D02*
X182163333Y-96396833D01*
X182163333Y-96396833D02*
X182096667Y-96363500D01*
X182096667Y-96363500D02*
X181963333Y-96363500D01*
X181963333Y-96363500D02*
X181896667Y-96396833D01*
X181896667Y-96396833D02*
X181863333Y-96430166D01*
X181863333Y-96430166D02*
X181830000Y-96496833D01*
X182496667Y-96163500D02*
X182530000Y-96130166D01*
X182530000Y-96130166D02*
X182596667Y-96096833D01*
X182596667Y-96096833D02*
X182763334Y-96096833D01*
X182763334Y-96096833D02*
X182830000Y-96130166D01*
X182830000Y-96130166D02*
X182863334Y-96163500D01*
X182863334Y-96163500D02*
X182896667Y-96230166D01*
X182896667Y-96230166D02*
X182896667Y-96296833D01*
X182896667Y-96296833D02*
X182863334Y-96396833D01*
X182863334Y-96396833D02*
X182463334Y-96796833D01*
X182463334Y-96796833D02*
X182896667Y-96796833D01*
D14*
%TO.C,U3*%
X165730000Y-95740000D02*
X168330000Y-95740000D01*
X165730000Y-98510000D02*
X168330000Y-98510000D01*
D11*
X168680000Y-96125000D02*
G75*
G02*
X168580000Y-96125000I-50000J0D01*
G01*
X168580000Y-96125000D02*
G75*
G02*
X168680000Y-96125000I50000J0D01*
G01*
D15*
%TO.C,J10*%
X132100000Y-76020000D02*
X138100000Y-76020000D01*
X132100000Y-76780000D02*
X132100000Y-76020000D01*
X132100000Y-78560000D02*
X138100000Y-78560000D01*
X132100000Y-79320000D02*
X132100000Y-78560000D01*
X132100000Y-81100000D02*
X138100000Y-81100000D01*
X132100000Y-81860000D02*
X132100000Y-81100000D01*
X132100000Y-83640000D02*
X138100000Y-83640000D01*
X132100000Y-84400000D02*
X132100000Y-83640000D01*
X132100000Y-86180000D02*
X138100000Y-86180000D01*
X132100000Y-86940000D02*
X132100000Y-86180000D01*
X132100000Y-88720000D02*
X138100000Y-88720000D01*
X132100000Y-89480000D02*
X132100000Y-88720000D01*
X132100000Y-91260000D02*
X138100000Y-91260000D01*
X132100000Y-92020000D02*
X132100000Y-91260000D01*
X132100000Y-93800000D02*
X138100000Y-93800000D01*
X132100000Y-94560000D02*
X132100000Y-93800000D01*
X132100000Y-96340000D02*
X138100000Y-96340000D01*
X132100000Y-97100000D02*
X132100000Y-96340000D01*
X132100000Y-98880000D02*
X138100000Y-98880000D01*
X132100000Y-99640000D02*
X132100000Y-98880000D01*
X132100000Y-101420000D02*
X138100000Y-101420000D01*
X132100000Y-102180000D02*
X132100000Y-101420000D01*
X132100000Y-103960000D02*
X138100000Y-103960000D01*
X132100000Y-104720000D02*
X132100000Y-103960000D01*
X132100000Y-106500000D02*
X138100000Y-106500000D01*
X132100000Y-107260000D02*
X132100000Y-106500000D01*
X132100000Y-109040000D02*
X138100000Y-109040000D01*
X132100000Y-109800000D02*
X132100000Y-109040000D01*
X132100000Y-111580000D02*
X138100000Y-111580000D01*
X132100000Y-112340000D02*
X132100000Y-111580000D01*
X132100000Y-114120000D02*
X138100000Y-114120000D01*
X132100000Y-114880000D02*
X132100000Y-114120000D01*
X132100000Y-116660000D02*
X138100000Y-116660000D01*
X132100000Y-117420000D02*
X132100000Y-116660000D01*
X138100000Y-75070000D02*
X138100000Y-118370000D01*
X138100000Y-76780000D02*
X132100000Y-76780000D01*
X138100000Y-79320000D02*
X132100000Y-79320000D01*
X138100000Y-81860000D02*
X132100000Y-81860000D01*
X138100000Y-84400000D02*
X132100000Y-84400000D01*
X138100000Y-86940000D02*
X132100000Y-86940000D01*
X138100000Y-89480000D02*
X132100000Y-89480000D01*
X138100000Y-92020000D02*
X132100000Y-92020000D01*
X138100000Y-94560000D02*
X132100000Y-94560000D01*
X138100000Y-97100000D02*
X132100000Y-97100000D01*
X138100000Y-99640000D02*
X132100000Y-99640000D01*
X138100000Y-102180000D02*
X132100000Y-102180000D01*
X138100000Y-104720000D02*
X132100000Y-104720000D01*
X138100000Y-107260000D02*
X132100000Y-107260000D01*
X138100000Y-109800000D02*
X132100000Y-109800000D01*
X138100000Y-112340000D02*
X132100000Y-112340000D01*
X138100000Y-114880000D02*
X132100000Y-114880000D01*
X138100000Y-116760000D02*
X132100000Y-116760000D01*
X138100000Y-116880000D02*
X132100000Y-116880000D01*
X138100000Y-117000000D02*
X132100000Y-117000000D01*
X138100000Y-117120000D02*
X132100000Y-117120000D01*
X138100000Y-117240000D02*
X132100000Y-117240000D01*
X138100000Y-117360000D02*
X132100000Y-117360000D01*
X138100000Y-117420000D02*
X132100000Y-117420000D01*
X138100000Y-118370000D02*
X140760000Y-118370000D01*
X140760000Y-75070000D02*
X138100000Y-75070000D01*
X140760000Y-77670000D02*
X138100000Y-77670000D01*
X140760000Y-80210000D02*
X138100000Y-80210000D01*
X140760000Y-82750000D02*
X138100000Y-82750000D01*
X140760000Y-85290000D02*
X138100000Y-85290000D01*
X140760000Y-87830000D02*
X138100000Y-87830000D01*
X140760000Y-90370000D02*
X138100000Y-90370000D01*
X140760000Y-92910000D02*
X138100000Y-92910000D01*
X140760000Y-95450000D02*
X138100000Y-95450000D01*
X140760000Y-97990000D02*
X138100000Y-97990000D01*
X140760000Y-100530000D02*
X138100000Y-100530000D01*
X140760000Y-103070000D02*
X138100000Y-103070000D01*
X140760000Y-105610000D02*
X138100000Y-105610000D01*
X140760000Y-108150000D02*
X138100000Y-108150000D01*
X140760000Y-110690000D02*
X138100000Y-110690000D01*
X140760000Y-113230000D02*
X138100000Y-113230000D01*
X140760000Y-115770000D02*
X138100000Y-115770000D01*
X140760000Y-118370000D02*
X140760000Y-75070000D01*
X141090000Y-116660000D02*
X140760000Y-116660000D01*
X141090000Y-117420000D02*
X140760000Y-117420000D01*
X141157071Y-76020000D02*
X140760000Y-76020000D01*
X141157071Y-76780000D02*
X140760000Y-76780000D01*
X141157071Y-78560000D02*
X140760000Y-78560000D01*
X141157071Y-79320000D02*
X140760000Y-79320000D01*
X141157071Y-81100000D02*
X140760000Y-81100000D01*
X141157071Y-81860000D02*
X140760000Y-81860000D01*
X141157071Y-83640000D02*
X140760000Y-83640000D01*
X141157071Y-84400000D02*
X140760000Y-84400000D01*
X141157071Y-86180000D02*
X140760000Y-86180000D01*
X141157071Y-86940000D02*
X140760000Y-86940000D01*
X141157071Y-88720000D02*
X140760000Y-88720000D01*
X141157071Y-89480000D02*
X140760000Y-89480000D01*
X141157071Y-91260000D02*
X140760000Y-91260000D01*
X141157071Y-92020000D02*
X140760000Y-92020000D01*
X141157071Y-93800000D02*
X140760000Y-93800000D01*
X141157071Y-94560000D02*
X140760000Y-94560000D01*
X141157071Y-96340000D02*
X140760000Y-96340000D01*
X141157071Y-97100000D02*
X140760000Y-97100000D01*
X141157071Y-98880000D02*
X140760000Y-98880000D01*
X141157071Y-99640000D02*
X140760000Y-99640000D01*
X141157071Y-101420000D02*
X140760000Y-101420000D01*
X141157071Y-102180000D02*
X140760000Y-102180000D01*
X141157071Y-103960000D02*
X140760000Y-103960000D01*
X141157071Y-104720000D02*
X140760000Y-104720000D01*
X141157071Y-106500000D02*
X140760000Y-106500000D01*
X141157071Y-107260000D02*
X140760000Y-107260000D01*
X141157071Y-109040000D02*
X140760000Y-109040000D01*
X141157071Y-109800000D02*
X140760000Y-109800000D01*
X141157071Y-111580000D02*
X140760000Y-111580000D01*
X141157071Y-112340000D02*
X140760000Y-112340000D01*
X141157071Y-114120000D02*
X140760000Y-114120000D01*
X141157071Y-114880000D02*
X140760000Y-114880000D01*
X143470000Y-117040000D02*
X143470000Y-118310000D01*
X143470000Y-118310000D02*
X142200000Y-118310000D01*
%TO.C,U2*%
X144815000Y-111312500D02*
X144815000Y-112812500D01*
X144815000Y-111312500D02*
X144815000Y-109812500D01*
X148035000Y-111312500D02*
X148035000Y-112812500D01*
X148035000Y-111312500D02*
X148035000Y-109812500D01*
X144990000Y-113525000D02*
X144660000Y-113765000D01*
X144660000Y-113285000D01*
X144990000Y-113525000D01*
G36*
X144990000Y-113525000D02*
G01*
X144660000Y-113765000D01*
X144660000Y-113285000D01*
X144990000Y-113525000D01*
G37*
%TO.C,RN1*%
X145800000Y-99550000D02*
X146800000Y-99550000D01*
X145800000Y-96190000D02*
X146800000Y-96190000D01*
%TO.C,R7*%
X166772936Y-99865000D02*
X167227064Y-99865000D01*
X166772936Y-101335000D02*
X167227064Y-101335000D01*
%TO.C,R6*%
X164135000Y-96972936D02*
X164135000Y-97427064D01*
X162665000Y-96972936D02*
X162665000Y-97427064D01*
%TO.C,R5*%
X191785000Y-85572936D02*
X191785000Y-86027064D01*
X190315000Y-85572936D02*
X190315000Y-86027064D01*
%TO.C,R4*%
X194135000Y-85572936D02*
X194135000Y-86027064D01*
X192665000Y-85572936D02*
X192665000Y-86027064D01*
%TO.C,R3*%
X192172936Y-90265000D02*
X192627064Y-90265000D01*
X192172936Y-91735000D02*
X192627064Y-91735000D01*
%TO.C,R2*%
X178335000Y-124172936D02*
X178335000Y-124627064D01*
X176865000Y-124172936D02*
X176865000Y-124627064D01*
%TO.C,R1*%
X176135000Y-124172936D02*
X176135000Y-124627064D01*
X174665000Y-124172936D02*
X174665000Y-124627064D01*
%TO.C,JP3*%
X146500000Y-94750000D02*
X145900000Y-94750000D01*
X147700000Y-94200000D02*
X147700000Y-93600000D01*
X145200000Y-94100000D02*
X145200000Y-91300000D01*
X147400000Y-93900000D02*
X147700000Y-94200000D01*
X147400000Y-93900000D02*
X147700000Y-93600000D01*
X147200000Y-91300000D02*
X147200000Y-94100000D01*
X145900000Y-90650000D02*
X146500000Y-90650000D01*
X145900000Y-94750000D02*
G75*
G02*
X145200000Y-94050000I-1J699999D01*
G01*
X147200000Y-94050000D02*
G75*
G02*
X146500000Y-94750000I-699999J-1D01*
G01*
X145200000Y-91350000D02*
G75*
G02*
X145900000Y-90650000I700000J0D01*
G01*
X146500000Y-90650000D02*
G75*
G02*
X147200000Y-91350000I0J-700000D01*
G01*
%TO.C,JP2*%
X185350000Y-125100000D02*
X185350000Y-125700000D01*
X184800000Y-123900000D02*
X184200000Y-123900000D01*
X184700000Y-126400000D02*
X181900000Y-126400000D01*
X184500000Y-124200000D02*
X184800000Y-123900000D01*
X184500000Y-124200000D02*
X184200000Y-123900000D01*
X181900000Y-124400000D02*
X184700000Y-124400000D01*
X181250000Y-125700000D02*
X181250000Y-125100000D01*
X185350000Y-125700000D02*
G75*
G02*
X184650000Y-126400000I-699999J-1D01*
G01*
X184650000Y-124400000D02*
G75*
G02*
X185350000Y-125100000I1J-699999D01*
G01*
X181950000Y-126400000D02*
G75*
G02*
X181250000Y-125700000I0J700000D01*
G01*
X181250000Y-125100000D02*
G75*
G02*
X181950000Y-124400000I700000J0D01*
G01*
%TO.C,JP1*%
X185350000Y-120900000D02*
X185350000Y-121500000D01*
X184800000Y-119700000D02*
X184200000Y-119700000D01*
X184700000Y-122200000D02*
X181900000Y-122200000D01*
X184500000Y-120000000D02*
X184800000Y-119700000D01*
X184500000Y-120000000D02*
X184200000Y-119700000D01*
X181900000Y-120200000D02*
X184700000Y-120200000D01*
X181250000Y-121500000D02*
X181250000Y-120900000D01*
X185350000Y-121500000D02*
G75*
G02*
X184650000Y-122200000I-699999J-1D01*
G01*
X184650000Y-120200000D02*
G75*
G02*
X185350000Y-120900000I1J-699999D01*
G01*
X181950000Y-122200000D02*
G75*
G02*
X181250000Y-121500000I0J700000D01*
G01*
X181250000Y-120900000D02*
G75*
G02*
X181950000Y-120200000I700000J0D01*
G01*
%TO.C,J5*%
X152330000Y-117905000D02*
X160010000Y-117905000D01*
X152330000Y-117905000D02*
X152330000Y-115245000D01*
X160010000Y-117905000D02*
X160010000Y-115245000D01*
X149730000Y-116575000D02*
X149730000Y-115245000D01*
X149730000Y-115245000D02*
X151060000Y-115245000D01*
X152330000Y-115245000D02*
X160010000Y-115245000D01*
%TO.C,J2*%
X150945000Y-110330000D02*
X150945000Y-109000000D01*
X152275000Y-110330000D02*
X150945000Y-110330000D01*
X153545000Y-110330000D02*
X158685000Y-110330000D01*
X153545000Y-110330000D02*
X153545000Y-107670000D01*
X158685000Y-110330000D02*
X158685000Y-107670000D01*
X153545000Y-107670000D02*
X158685000Y-107670000D01*
%TO.C,C4*%
X191135000Y-69138748D02*
X191135000Y-69661252D01*
X189665000Y-69138748D02*
X189665000Y-69661252D01*
%TO.C,C3*%
X160776248Y-79665000D02*
X161298752Y-79665000D01*
X160776248Y-81135000D02*
X161298752Y-81135000D01*
%TO.C,C2*%
X146746267Y-80800000D02*
X146453733Y-80800000D01*
X146746267Y-79780000D02*
X146453733Y-79780000D01*
%TO.C,C1*%
X146746267Y-83310000D02*
X146453733Y-83310000D01*
X146746267Y-82290000D02*
X146453733Y-82290000D01*
%TO.C,J7*%
X192530000Y-63530000D02*
X193860000Y-63530000D01*
X192530000Y-64860000D02*
X192530000Y-63530000D01*
X192530000Y-66130000D02*
X192530000Y-68730000D01*
X192530000Y-66130000D02*
X195130000Y-66130000D01*
X192530000Y-68730000D02*
X197730000Y-68730000D01*
X195130000Y-63530000D02*
X197730000Y-63530000D01*
X195130000Y-66130000D02*
X195130000Y-63530000D01*
X197730000Y-63530000D02*
X197730000Y-68730000D01*
%TO.C,J20*%
X163670000Y-120670000D02*
X165000000Y-120670000D01*
X163670000Y-122000000D02*
X163670000Y-120670000D01*
X163670000Y-123270000D02*
X163670000Y-128410000D01*
X163670000Y-123270000D02*
X166270000Y-123270000D01*
X163670000Y-128410000D02*
X168870000Y-128410000D01*
X166270000Y-120670000D02*
X168870000Y-120670000D01*
X166270000Y-123270000D02*
X166270000Y-120670000D01*
X168870000Y-120670000D02*
X168870000Y-128410000D01*
%TO.C,J19*%
X151270000Y-120670000D02*
X152600000Y-120670000D01*
X151270000Y-122000000D02*
X151270000Y-120670000D01*
X151270000Y-123270000D02*
X151270000Y-128410000D01*
X151270000Y-123270000D02*
X153870000Y-123270000D01*
X151270000Y-128410000D02*
X156470000Y-128410000D01*
X153870000Y-120670000D02*
X156470000Y-120670000D01*
X153870000Y-123270000D02*
X153870000Y-120670000D01*
X156470000Y-120670000D02*
X156470000Y-128410000D01*
%TO.C,J18*%
X157470000Y-120670000D02*
X158800000Y-120670000D01*
X157470000Y-122000000D02*
X157470000Y-120670000D01*
X157470000Y-123270000D02*
X157470000Y-128410000D01*
X157470000Y-123270000D02*
X160070000Y-123270000D01*
X157470000Y-128410000D02*
X162670000Y-128410000D01*
X160070000Y-120670000D02*
X162670000Y-120670000D01*
X160070000Y-123270000D02*
X160070000Y-120670000D01*
X162670000Y-120670000D02*
X162670000Y-128410000D01*
%TO.C,J17*%
X145070000Y-120670000D02*
X146400000Y-120670000D01*
X145070000Y-122000000D02*
X145070000Y-120670000D01*
X145070000Y-123270000D02*
X145070000Y-128410000D01*
X145070000Y-123270000D02*
X147670000Y-123270000D01*
X145070000Y-128410000D02*
X150270000Y-128410000D01*
X147670000Y-120670000D02*
X150270000Y-120670000D01*
X147670000Y-123270000D02*
X147670000Y-120670000D01*
X150270000Y-120670000D02*
X150270000Y-128410000D01*
D16*
%TO.C,U1*%
X149917000Y-78789000D02*
X149917000Y-79357960D01*
X149917000Y-81522040D02*
X149917000Y-81905439D01*
X149917000Y-84054561D02*
X149917000Y-84445439D01*
X149917000Y-86594561D02*
X149917000Y-86985439D01*
X149917000Y-89134561D02*
X149917000Y-89525439D01*
X149917000Y-91674561D02*
X149917000Y-92065439D01*
X149917000Y-94214561D02*
X149917000Y-94605439D01*
X149917000Y-96754561D02*
X149917000Y-97145439D01*
X149917000Y-99294561D02*
X149917000Y-99685439D01*
X149917000Y-101834561D02*
X149917000Y-102411000D01*
X149917000Y-102411000D02*
X157283000Y-102411000D01*
X157283000Y-78789000D02*
X149917000Y-78789000D01*
X157283000Y-79365439D02*
X157283000Y-78789000D01*
X157283000Y-81905439D02*
X157283000Y-81514561D01*
X157283000Y-84445439D02*
X157283000Y-84054561D01*
X157283000Y-86985439D02*
X157283000Y-86594561D01*
X157283000Y-89525439D02*
X157283000Y-89134561D01*
X157283000Y-92065439D02*
X157283000Y-91674561D01*
X157283000Y-94605439D02*
X157283000Y-94214561D01*
X157283000Y-97145439D02*
X157283000Y-96754561D01*
X157283000Y-99685439D02*
X157283000Y-99294561D01*
X157283000Y-102411000D02*
X157283000Y-101834561D01*
D15*
%TO.C,U5*%
X190790000Y-95600000D02*
X190790000Y-97100000D01*
X190790000Y-95600000D02*
X190790000Y-94100000D01*
X194010000Y-95600000D02*
X194010000Y-97100000D01*
X194010000Y-95600000D02*
X194010000Y-94100000D01*
X190965000Y-97812500D02*
X190635000Y-98052500D01*
X190635000Y-97572500D01*
X190965000Y-97812500D01*
G36*
X190965000Y-97812500D02*
G01*
X190635000Y-98052500D01*
X190635000Y-97572500D01*
X190965000Y-97812500D01*
G37*
D12*
%TO.C,U4*%
X170890000Y-67270800D02*
X188670000Y-67270800D01*
X170890000Y-128230800D02*
X170890000Y-67270800D01*
X173430000Y-90130800D02*
X173430000Y-102830800D01*
X173430000Y-102830800D02*
X186130000Y-102830800D01*
X173430000Y-115530800D02*
X173430000Y-128230800D01*
X173940800Y-73570000D02*
X176480800Y-73570000D01*
X173940800Y-86270000D02*
X173940800Y-73570000D01*
X174700000Y-126960800D02*
X174700000Y-128230800D01*
X175970000Y-66000800D02*
X183590000Y-66000800D01*
X175970000Y-67270800D02*
X175970000Y-66000800D01*
X175970000Y-72350800D02*
X175970000Y-67270800D01*
X175970000Y-72350800D02*
X183590000Y-72350800D01*
X176480800Y-73570000D02*
X176480800Y-76110000D01*
X176480800Y-73570000D02*
X176480800Y-86270000D01*
X176480800Y-76110000D02*
X173940800Y-76110000D01*
X176480800Y-86270000D02*
X173940800Y-86270000D01*
X178510000Y-107910800D02*
X181050000Y-107910800D01*
X178510000Y-111720800D02*
X178510000Y-107910800D01*
X179881600Y-80500800D02*
X179881600Y-84500800D01*
X179881600Y-84500800D02*
X186131600Y-84500800D01*
X181050000Y-107910800D02*
X181050000Y-111720800D01*
X181050000Y-111720800D02*
X178510000Y-111720800D01*
X183590000Y-66000800D02*
X183590000Y-67270800D01*
X183590000Y-72350800D02*
X183590000Y-67270800D01*
X184860000Y-126960800D02*
X174700000Y-126960800D01*
X184860000Y-128230800D02*
X184860000Y-126960800D01*
X185881600Y-80500800D02*
X179881600Y-80500800D01*
X186130000Y-90130800D02*
X173430000Y-90130800D01*
X186130000Y-102830800D02*
X186130000Y-90130800D01*
X186130000Y-115530800D02*
X173430000Y-115530800D01*
X186130000Y-128230800D02*
X186130000Y-115530800D01*
X186131600Y-80500800D02*
X185881600Y-80500800D01*
X186131600Y-84500800D02*
X186131600Y-80500800D01*
X188670000Y-67270800D02*
X188670000Y-128230800D01*
X188670000Y-128230800D02*
X170890000Y-128230800D01*
X180678026Y-109815800D02*
G75*
G02*
X178881974Y-109815800I-898026J0D01*
G01*
X178881974Y-109815800D02*
G75*
G02*
X180678026Y-109815800I898026J0D01*
G01*
D10*
X179706000Y-99931800D02*
X179325000Y-100185800D01*
X179071000Y-99931800D01*
X179452000Y-99677800D01*
X179706000Y-99931800D01*
G36*
X179706000Y-99931800D02*
G01*
X179325000Y-100185800D01*
X179071000Y-99931800D01*
X179452000Y-99677800D01*
X179706000Y-99931800D01*
G37*
X179833000Y-99169800D02*
X179452000Y-99423800D01*
X179198000Y-99169800D01*
X179579000Y-98915800D01*
X179833000Y-99169800D01*
G36*
X179833000Y-99169800D02*
G01*
X179452000Y-99423800D01*
X179198000Y-99169800D01*
X179579000Y-98915800D01*
X179833000Y-99169800D01*
G37*
X180087000Y-100312800D02*
X179706000Y-100566800D01*
X179452000Y-100312800D01*
X179833000Y-100058800D01*
X180087000Y-100312800D01*
G36*
X180087000Y-100312800D02*
G01*
X179706000Y-100566800D01*
X179452000Y-100312800D01*
X179833000Y-100058800D01*
X180087000Y-100312800D01*
G37*
X180214000Y-99550800D02*
X179833000Y-99804800D01*
X179579000Y-99550800D01*
X179960000Y-99296800D01*
X180214000Y-99550800D01*
G36*
X180214000Y-99550800D02*
G01*
X179833000Y-99804800D01*
X179579000Y-99550800D01*
X179960000Y-99296800D01*
X180214000Y-99550800D01*
G37*
X180341000Y-98788800D02*
X179960000Y-99042800D01*
X179706000Y-98788800D01*
X180087000Y-98534800D01*
X180341000Y-98788800D01*
G36*
X180341000Y-98788800D02*
G01*
X179960000Y-99042800D01*
X179706000Y-98788800D01*
X180087000Y-98534800D01*
X180341000Y-98788800D01*
G37*
X180468000Y-100693800D02*
X180087000Y-100947800D01*
X179833000Y-100693800D01*
X180214000Y-100439800D01*
X180468000Y-100693800D01*
G36*
X180468000Y-100693800D02*
G01*
X180087000Y-100947800D01*
X179833000Y-100693800D01*
X180214000Y-100439800D01*
X180468000Y-100693800D01*
G37*
X180722000Y-99169800D02*
X180341000Y-99423800D01*
X180087000Y-99169800D01*
X180468000Y-98915800D01*
X180722000Y-99169800D01*
G36*
X180722000Y-99169800D02*
G01*
X180341000Y-99423800D01*
X180087000Y-99169800D01*
X180468000Y-98915800D01*
X180722000Y-99169800D01*
G37*
X180849000Y-98407800D02*
X180468000Y-98661800D01*
X180214000Y-98407800D01*
X180595000Y-98153800D01*
X180849000Y-98407800D01*
G36*
X180849000Y-98407800D02*
G01*
X180468000Y-98661800D01*
X180214000Y-98407800D01*
X180595000Y-98153800D01*
X180849000Y-98407800D01*
G37*
D15*
%TO.C,J1*%
X140130000Y-129890000D02*
X141460000Y-129890000D01*
X140130000Y-131000000D02*
X140130000Y-129890000D01*
X140130000Y-135000000D02*
X201210000Y-135000000D01*
X140130000Y-143630000D02*
X140130000Y-135000000D01*
X140130000Y-143630000D02*
X201210000Y-143630000D01*
X140250000Y-143630000D02*
X140250000Y-135000000D01*
X140368095Y-143630000D02*
X140368095Y-135000000D01*
X140486190Y-143630000D02*
X140486190Y-135000000D01*
X140604285Y-143630000D02*
X140604285Y-135000000D01*
X140722380Y-143630000D02*
X140722380Y-135000000D01*
X140840475Y-143630000D02*
X140840475Y-135000000D01*
X140958570Y-143630000D02*
X140958570Y-135000000D01*
X141076665Y-143630000D02*
X141076665Y-135000000D01*
X141100000Y-132490000D02*
X141100000Y-132110000D01*
X141100000Y-135000000D02*
X141100000Y-134590000D01*
X141194760Y-143630000D02*
X141194760Y-135000000D01*
X141312855Y-143630000D02*
X141312855Y-135000000D01*
X141430950Y-143630000D02*
X141430950Y-135000000D01*
X141549045Y-143630000D02*
X141549045Y-135000000D01*
X141667140Y-143630000D02*
X141667140Y-135000000D01*
X141785235Y-143630000D02*
X141785235Y-135000000D01*
X141820000Y-132490000D02*
X141820000Y-132110000D01*
X141820000Y-135000000D02*
X141820000Y-134590000D01*
X141903330Y-143630000D02*
X141903330Y-135000000D01*
X142021425Y-143630000D02*
X142021425Y-135000000D01*
X142139520Y-143630000D02*
X142139520Y-135000000D01*
X142257615Y-143630000D02*
X142257615Y-135000000D01*
X142375710Y-143630000D02*
X142375710Y-135000000D01*
X142493805Y-143630000D02*
X142493805Y-135000000D01*
X142611900Y-143630000D02*
X142611900Y-135000000D01*
X142730000Y-143630000D02*
X142730000Y-135000000D01*
X143640000Y-132490000D02*
X143640000Y-132050000D01*
X143640000Y-135000000D02*
X143640000Y-134590000D01*
X144360000Y-132490000D02*
X144360000Y-132050000D01*
X144360000Y-135000000D02*
X144360000Y-134590000D01*
X145270000Y-143630000D02*
X145270000Y-135000000D01*
X146180000Y-132490000D02*
X146180000Y-132050000D01*
X146180000Y-135000000D02*
X146180000Y-134590000D01*
X146900000Y-132490000D02*
X146900000Y-132050000D01*
X146900000Y-135000000D02*
X146900000Y-134590000D01*
X147810000Y-143630000D02*
X147810000Y-135000000D01*
X148720000Y-132490000D02*
X148720000Y-132050000D01*
X148720000Y-135000000D02*
X148720000Y-134590000D01*
X149440000Y-132490000D02*
X149440000Y-132050000D01*
X149440000Y-135000000D02*
X149440000Y-134590000D01*
X150350000Y-143630000D02*
X150350000Y-135000000D01*
X151260000Y-132490000D02*
X151260000Y-132050000D01*
X151260000Y-135000000D02*
X151260000Y-134590000D01*
X151980000Y-132490000D02*
X151980000Y-132050000D01*
X151980000Y-135000000D02*
X151980000Y-134590000D01*
X152890000Y-143630000D02*
X152890000Y-135000000D01*
X153800000Y-132490000D02*
X153800000Y-132050000D01*
X153800000Y-135000000D02*
X153800000Y-134590000D01*
X154520000Y-132490000D02*
X154520000Y-132050000D01*
X154520000Y-135000000D02*
X154520000Y-134590000D01*
X155430000Y-143630000D02*
X155430000Y-135000000D01*
X156340000Y-132490000D02*
X156340000Y-132050000D01*
X156340000Y-135000000D02*
X156340000Y-134590000D01*
X157060000Y-132490000D02*
X157060000Y-132050000D01*
X157060000Y-135000000D02*
X157060000Y-134590000D01*
X157970000Y-143630000D02*
X157970000Y-135000000D01*
X158880000Y-132490000D02*
X158880000Y-132050000D01*
X158880000Y-135000000D02*
X158880000Y-134590000D01*
X159600000Y-132490000D02*
X159600000Y-132050000D01*
X159600000Y-135000000D02*
X159600000Y-134590000D01*
X160510000Y-143630000D02*
X160510000Y-135000000D01*
X161420000Y-132490000D02*
X161420000Y-132050000D01*
X161420000Y-135000000D02*
X161420000Y-134590000D01*
X162140000Y-132490000D02*
X162140000Y-132050000D01*
X162140000Y-135000000D02*
X162140000Y-134590000D01*
X163050000Y-143630000D02*
X163050000Y-135000000D01*
X163960000Y-132490000D02*
X163960000Y-132050000D01*
X163960000Y-135000000D02*
X163960000Y-134590000D01*
X164680000Y-132490000D02*
X164680000Y-132050000D01*
X164680000Y-135000000D02*
X164680000Y-134590000D01*
X165590000Y-143630000D02*
X165590000Y-135000000D01*
X166500000Y-132490000D02*
X166500000Y-132050000D01*
X166500000Y-135000000D02*
X166500000Y-134590000D01*
X167220000Y-132490000D02*
X167220000Y-132050000D01*
X167220000Y-135000000D02*
X167220000Y-134590000D01*
X168130000Y-143630000D02*
X168130000Y-135000000D01*
X169040000Y-132490000D02*
X169040000Y-132050000D01*
X169040000Y-135000000D02*
X169040000Y-134590000D01*
X169760000Y-132490000D02*
X169760000Y-132050000D01*
X169760000Y-135000000D02*
X169760000Y-134590000D01*
X170670000Y-143630000D02*
X170670000Y-135000000D01*
X171580000Y-132490000D02*
X171580000Y-132050000D01*
X171580000Y-135000000D02*
X171580000Y-134590000D01*
X172300000Y-132490000D02*
X172300000Y-132050000D01*
X172300000Y-135000000D02*
X172300000Y-134590000D01*
X173210000Y-143630000D02*
X173210000Y-135000000D01*
X174120000Y-132490000D02*
X174120000Y-132050000D01*
X174120000Y-135000000D02*
X174120000Y-134590000D01*
X174840000Y-132490000D02*
X174840000Y-132050000D01*
X174840000Y-135000000D02*
X174840000Y-134590000D01*
X175750000Y-143630000D02*
X175750000Y-135000000D01*
X176660000Y-132490000D02*
X176660000Y-132050000D01*
X176660000Y-135000000D02*
X176660000Y-134590000D01*
X177380000Y-132490000D02*
X177380000Y-132050000D01*
X177380000Y-135000000D02*
X177380000Y-134590000D01*
X178290000Y-143630000D02*
X178290000Y-135000000D01*
X179200000Y-132490000D02*
X179200000Y-132050000D01*
X179200000Y-135000000D02*
X179200000Y-134590000D01*
X179920000Y-132490000D02*
X179920000Y-132050000D01*
X179920000Y-135000000D02*
X179920000Y-134590000D01*
X180830000Y-143630000D02*
X180830000Y-135000000D01*
X181740000Y-132490000D02*
X181740000Y-132050000D01*
X181740000Y-135000000D02*
X181740000Y-134590000D01*
X182460000Y-132490000D02*
X182460000Y-132050000D01*
X182460000Y-135000000D02*
X182460000Y-134590000D01*
X183370000Y-143630000D02*
X183370000Y-135000000D01*
X184280000Y-132490000D02*
X184280000Y-132050000D01*
X184280000Y-135000000D02*
X184280000Y-134590000D01*
X185000000Y-132490000D02*
X185000000Y-132050000D01*
X185000000Y-135000000D02*
X185000000Y-134590000D01*
X185910000Y-143630000D02*
X185910000Y-135000000D01*
X186820000Y-132490000D02*
X186820000Y-132050000D01*
X186820000Y-135000000D02*
X186820000Y-134590000D01*
X187540000Y-132490000D02*
X187540000Y-132050000D01*
X187540000Y-135000000D02*
X187540000Y-134590000D01*
X188450000Y-143630000D02*
X188450000Y-135000000D01*
X189360000Y-132490000D02*
X189360000Y-132050000D01*
X189360000Y-135000000D02*
X189360000Y-134590000D01*
X190080000Y-132490000D02*
X190080000Y-132050000D01*
X190080000Y-135000000D02*
X190080000Y-134590000D01*
X190990000Y-143630000D02*
X190990000Y-135000000D01*
X191900000Y-132490000D02*
X191900000Y-132050000D01*
X191900000Y-135000000D02*
X191900000Y-134590000D01*
X192620000Y-132490000D02*
X192620000Y-132050000D01*
X192620000Y-135000000D02*
X192620000Y-134590000D01*
X193530000Y-143630000D02*
X193530000Y-135000000D01*
X194440000Y-132490000D02*
X194440000Y-132050000D01*
X194440000Y-135000000D02*
X194440000Y-134590000D01*
X195160000Y-132490000D02*
X195160000Y-132050000D01*
X195160000Y-135000000D02*
X195160000Y-134590000D01*
X196070000Y-143630000D02*
X196070000Y-135000000D01*
X196980000Y-132490000D02*
X196980000Y-132050000D01*
X196980000Y-135000000D02*
X196980000Y-134590000D01*
X197700000Y-132490000D02*
X197700000Y-132050000D01*
X197700000Y-135000000D02*
X197700000Y-134590000D01*
X198610000Y-143630000D02*
X198610000Y-135000000D01*
X199520000Y-132490000D02*
X199520000Y-132050000D01*
X199520000Y-135000000D02*
X199520000Y-134590000D01*
X200240000Y-132490000D02*
X200240000Y-132050000D01*
X200240000Y-135000000D02*
X200240000Y-134590000D01*
X201210000Y-143630000D02*
X201210000Y-135000000D01*
%TD*%
M02*
