%TF.GenerationSoftware,KiCad,Pcbnew,8.0.3*%
%TF.CreationDate,2025-02-12T02:25:28-08:00*%
%TF.ProjectId,MLU_Breakout,4d4c555f-4272-4656-916b-6f75742e6b69,rev?*%
%TF.SameCoordinates,Original*%
%TF.FileFunction,Paste,Top*%
%TF.FilePolarity,Positive*%
%FSLAX46Y46*%
G04 Gerber Fmt 4.6, Leading zero omitted, Abs format (unit mm)*
G04 Created by KiCad (PCBNEW 8.0.3) date 2025-02-12 02:25:28*
%MOMM*%
%LPD*%
G01*
G04 APERTURE LIST*
G04 Aperture macros list*
%AMRoundRect*
0 Rectangle with rounded corners*
0 $1 Rounding radius*
0 $2 $3 $4 $5 $6 $7 $8 $9 X,Y pos of 4 corners*
0 Add a 4 corners polygon primitive as box body*
4,1,4,$2,$3,$4,$5,$6,$7,$8,$9,$2,$3,0*
0 Add four circle primitives for the rounded corners*
1,1,$1+$1,$2,$3*
1,1,$1+$1,$4,$5*
1,1,$1+$1,$6,$7*
1,1,$1+$1,$8,$9*
0 Add four rect primitives between the rounded corners*
20,1,$1+$1,$2,$3,$4,$5,0*
20,1,$1+$1,$4,$5,$6,$7,0*
20,1,$1+$1,$6,$7,$8,$9,0*
20,1,$1+$1,$8,$9,$2,$3,0*%
G04 Aperture macros list end*
%ADD10RoundRect,0.056250X-0.188750X-0.168750X0.188750X-0.168750X0.188750X0.168750X-0.188750X0.168750X0*%
%ADD11RoundRect,0.100000X0.100000X-0.712500X0.100000X0.712500X-0.100000X0.712500X-0.100000X-0.712500X0*%
%ADD12R,0.700000X0.640000*%
%ADD13R,0.700000X0.500000*%
%ADD14RoundRect,0.250000X-0.350000X-0.450000X0.350000X-0.450000X0.350000X0.450000X-0.350000X0.450000X0*%
%ADD15RoundRect,0.250000X-0.450000X0.350000X-0.450000X-0.350000X0.450000X-0.350000X0.450000X0.350000X0*%
%ADD16RoundRect,0.250000X-0.475000X0.337500X-0.475000X-0.337500X0.475000X-0.337500X0.475000X0.337500X0*%
%ADD17RoundRect,0.250000X-0.337500X-0.475000X0.337500X-0.475000X0.337500X0.475000X-0.337500X0.475000X0*%
%ADD18RoundRect,0.237500X0.300000X0.237500X-0.300000X0.237500X-0.300000X-0.237500X0.300000X-0.237500X0*%
G04 APERTURE END LIST*
D10*
%TO.C,U3*%
X168000000Y-96150000D03*
X168000000Y-96800000D03*
X168000000Y-97450000D03*
X168000000Y-98100000D03*
X166060000Y-98100000D03*
X166060000Y-97450000D03*
X166060000Y-96800000D03*
X166060000Y-96150000D03*
%TD*%
D11*
%TO.C,U2*%
X145450000Y-113425000D03*
X146100000Y-113425000D03*
X146750000Y-113425000D03*
X147400000Y-113425000D03*
X147400000Y-109200000D03*
X146750000Y-109200000D03*
X146100000Y-109200000D03*
X145450000Y-109200000D03*
%TD*%
D12*
%TO.C,RN1*%
X147000000Y-99140000D03*
D13*
X147000000Y-98270000D03*
X147000000Y-97470000D03*
D12*
X147000000Y-96600000D03*
X145600000Y-96600000D03*
D13*
X145600000Y-97470000D03*
X145600000Y-98270000D03*
D12*
X145600000Y-99140000D03*
%TD*%
D14*
%TO.C,R7*%
X166000000Y-100600000D03*
X168000000Y-100600000D03*
%TD*%
D15*
%TO.C,R6*%
X163400000Y-96200000D03*
X163400000Y-98200000D03*
%TD*%
%TO.C,R5*%
X191050000Y-84800000D03*
X191050000Y-86800000D03*
%TD*%
%TO.C,R4*%
X193400000Y-84800000D03*
X193400000Y-86800000D03*
%TD*%
D14*
%TO.C,R3*%
X191400000Y-91000000D03*
X193400000Y-91000000D03*
%TD*%
D15*
%TO.C,R2*%
X177600000Y-123400000D03*
X177600000Y-125400000D03*
%TD*%
%TO.C,R1*%
X175400000Y-123400000D03*
X175400000Y-125400000D03*
%TD*%
D16*
%TO.C,C4*%
X190400000Y-68362500D03*
X190400000Y-70437500D03*
%TD*%
D17*
%TO.C,C3*%
X160000000Y-80400000D03*
X162075000Y-80400000D03*
%TD*%
D18*
%TO.C,C2*%
X147462500Y-80290000D03*
X145737500Y-80290000D03*
%TD*%
%TO.C,C1*%
X147462500Y-82800000D03*
X145737500Y-82800000D03*
%TD*%
D11*
%TO.C,U5*%
X191425000Y-97712500D03*
X192075000Y-97712500D03*
X192725000Y-97712500D03*
X193375000Y-97712500D03*
X193375000Y-93487500D03*
X192725000Y-93487500D03*
X192075000Y-93487500D03*
X191425000Y-93487500D03*
%TD*%
M02*
