M48
; DRILL file {KiCad 8.0.3} date 2025-06-03T15:00:19-0700
; FORMAT={-:-/ absolute / inch / decimal}
; #@! TF.CreationDate,2025-06-03T15:00:19-07:00
; #@! TF.GenerationSoftware,Kicad,Pcbnew,8.0.3
; #@! TF.FileFunction,Plated,1,2,PTH
FMAT,2
INCH
; #@! TA.AperFunction,Plated,PTH,ViaDrill
T1C0.0157
; #@! TA.AperFunction,Plated,PTH,ComponentDrill
T2C0.0197
; #@! TA.AperFunction,Plated,PTH,ComponentDrill
T3C0.0236
; #@! TA.AperFunction,Plated,PTH,ComponentDrill
T4C0.0280
; #@! TA.AperFunction,Plated,PTH,ViaDrill
T5C0.0315
; #@! TA.AperFunction,Plated,PTH,ComponentDrill
T6C0.0350
; #@! TA.AperFunction,Plated,PTH,ComponentDrill
T7C0.0362
; #@! TA.AperFunction,Plated,PTH,ViaDrill
T8C0.0394
; #@! TA.AperFunction,Plated,PTH,ComponentDrill
T9C0.0394
; #@! TA.AperFunction,Plated,PTH,ComponentDrill
T10C0.0420
; #@! TA.AperFunction,Plated,PTH,ComponentDrill
T11C0.0472
; #@! TA.AperFunction,Plated,PTH,ComponentDrill
T12C0.0728
; #@! TA.AperFunction,Plated,PTH,ComponentDrill
T13C0.0748
; #@! TA.AperFunction,Plated,PTH,ComponentDrill
T14C0.0787
; #@! TA.AperFunction,Plated,PTH,ComponentDrill
T15C0.0906
; #@! TA.AperFunction,Plated,PTH,ComponentDrill
T16C0.0970
; #@! TA.AperFunction,Plated,PTH,ComponentDrill
T17C0.1063
%
G90
G05
T1
X6.1161Y-6.2126
X6.1611Y-3.9751
X6.1634Y-4.1083
X6.1682Y-4.0629
X6.1821Y-4.3898
X6.184Y-2.3
X6.2411Y-3.9843
X6.246Y-3.904
X6.248Y-3.9439
X6.2579Y-4.4941
X6.266Y-2.322
X6.2992Y-4.6053
X6.3031Y-4.5659
X6.3031Y-4.6919
X6.3041Y-4.6476
X6.3177Y-6.1
X6.3268Y-6.2106
X6.3811Y-6.1685
X6.5128Y-4.6506
X6.5148Y-4.6988
X6.5394Y-4.6181
X6.54Y-3.276
X6.5709Y-4.5886
X6.5791Y-6.1079
X6.5827Y-6.2146
X6.598Y-3.276
X6.612Y-3.586
X6.616Y-2.314
X6.6569Y-3.5957
X6.6579Y-6.1835
X6.658Y-3.722
X6.673Y-3.4615
X6.678Y-3.534
X6.6867Y-3.6923
X6.6959Y-3.4293
X6.6962Y-3.5996
X6.6988Y-3.1831
X6.7Y-3.39
X6.7297Y-2.1744
X6.7707Y-2.4307
X6.7711Y-3.4347
X6.8105Y-3.436
X6.824Y-3.398
X6.8248Y-2.3376
X6.826Y-6.1039
X6.8406Y-6.2146
X6.842Y-2.738
X6.88Y-2.402
X6.886Y-2.686
X6.8868Y-2.4852
X6.8929Y-6.1677
X6.9009Y-4.7866
X6.9268Y-4.8733
X6.9281Y-3.8181
X6.9729Y-3.814
X7.003Y-3.7835
X7.0282Y-4.183
X7.0447Y-3.2165
X7.06Y-3.8
X7.062Y-3.354
X7.0627Y-3.3146
X7.0856Y-4.1888
X7.0878Y-6.1039
X7.0925Y-6.2087
X7.098Y-2.888
X7.1Y-3.192
X7.1112Y-5.2756
X7.1198Y-4.2362
X7.12Y-2.456
X7.122Y-2.514
X7.1251Y-3.0271
X7.13Y-2.952
X7.1377Y-3.313
X7.138Y-2.832
X7.144Y-3.352
X7.16Y-2.456
X7.16Y-4.218
X7.1615Y-2.5139
X7.1724Y-6.1815
X7.192Y-2.976
X7.1955Y-3.0544
X7.1982Y-3.015
X7.2018Y-3.1634
X7.204Y-2.522
X7.206Y-2.458
X7.2078Y-3.2922
X7.22Y-3.332
X7.2345Y-4.1634
X7.24Y-4.776
X7.2405Y-2.4891
X7.2455Y-4.1255
X7.2479Y-4.8172
X7.2479Y-4.2006
X7.25Y-4.24
X7.2581Y-2.1391
X7.26Y-3.168
X7.2805Y-3.4252
X7.2963Y-2.1294
X7.3005Y-3.2807
X7.3031Y-4.1393
X7.3051Y-4.9685
X7.306Y-3.482
X7.312Y-3.692
X7.324Y-4.2
X7.334Y-3.4289
X7.34Y-3.284
X7.3425Y-6.1039
X7.344Y-4.234
X7.3477Y-2.5022
X7.3484Y-6.2126
X7.362Y-3.674
X7.3693Y-3.5335
X7.3773Y-3.7216
X7.396Y-3.26
X7.4045Y-5.1781
X7.4064Y-4.1061
X7.4213Y-6.1815
X7.4391Y-3.8386
X7.454Y-3.264
X7.4561Y-4.8959
X7.4596Y-5.1112
X7.4754Y-3.6988
X7.4762Y-4.107
X7.4793Y-5.1654
X7.5276Y-5.0984
X7.5404Y-4.8839
X7.5541Y-3.4567
X7.572Y-2.19
X7.588Y-2.12
X7.5972Y-6.0961
X7.6016Y-5.2333
X7.6024Y-6.2185
X7.6083Y-3.4587
X7.6148Y-5.0607
X7.6193Y-5.4111
X7.6193Y-5.4766
X7.6228Y-5.1326
X7.6407Y-5.7628
X7.644Y-5.56
X7.646Y-2.254
X7.6506Y-3.4301
X7.654Y-5.056
X7.656Y-4.93
X7.656Y-5.166
X7.6657Y-6.1685
X7.6699Y-4.7576
X7.687Y-5.1296
X7.6903Y-5.0715
X7.6951Y-4.9353
X7.6952Y-5.1707
X7.696Y-4.7873
X7.7024Y-5.5033
X7.7175Y-3.625
X7.7221Y-5.3949
X7.7277Y-5.2471
X7.7283Y-5.7657
X7.7324Y-3.5884
X7.7351Y-4.7932
X7.738Y-5.572
X7.7436Y-5.3474
X7.7497Y-5.1034
X7.754Y-5.3093
X7.7757Y-5.2461
X7.7874Y-4.9549
X7.7963Y-3.0896
X7.8043Y-5.3401
X7.8071Y-5.0896
X7.808Y-2.198
X7.8113Y-5.2975
X7.8133Y-5.2581
X7.846Y-5.136
X7.852Y-2.12
X7.8531Y-6.0961
X7.8543Y-5.7854
X7.8553Y-5.7244
X7.8596Y-5.8771
X7.86Y-4.938
X7.8616Y-5.8291
X7.862Y-5.3923
X7.8622Y-6.2126
X7.8627Y-5.4508
X7.8691Y-5.5453
X7.8881Y-5.7649
X7.8887Y-5.0181
X7.889Y-5.3567
X7.8927Y-5.8048
X7.8937Y-5.9262
X7.894Y-5.638
X7.896Y-2.256
X7.9065Y-5.7261
X7.9169Y-5.8592
X7.9169Y-5.6821
X7.9307Y-6.1705
X7.9364Y-5.4203
X7.956Y-4.808
X7.9665Y-5.4872
X7.9671Y-5.7986
X7.9774Y-5.8376
X7.9783Y-5.7589
X7.9872Y-5.5561
X7.9892Y-5.188
X7.9902Y-5.1171
X7.992Y-5.682
X8.0016Y-4.9907
X8.0079Y-5.0689
X8.0214Y-5.3327
X8.0246Y-5.4882
X8.026Y-5.022
X8.0382Y-5.4451
X8.0551Y-5.2195
X8.0596Y-5.6233
X8.0778Y-5.3248
X8.08Y-2.184
X8.0836Y-5.491
X8.0837Y-3.5797
X8.0894Y-3.6418
X8.0945Y-4.436
X8.1087Y-6.1012
X8.1089Y-5.6423
X8.1122Y-5.9016
X8.1162Y-4.4823
X8.1173Y-3.8572
X8.1183Y-5.2329
X8.1201Y-6.2165
X8.122Y-2.118
X8.126Y-3.6274
X8.1357Y-5.2717
X8.1378Y-5.5295
X8.1407Y-3.889
X8.144Y-5.7266
X8.15Y-2.262
X8.1722Y-4.0817
X8.1732Y-5.1417
X8.1822Y-3.6074
X8.1874Y-6.1717
X8.1876Y-5.698
X8.189Y-4.2618
X8.1949Y-5.3622
X8.2021Y-5.4313
X8.2037Y-5.5177
X8.2461Y-5.3878
X8.2483Y-5.698
X8.2591Y-5.5418
X8.2687Y-3.6181
X8.2874Y-5.8287
X8.288Y-3.836
X8.2885Y-3.8781
X8.2993Y-5.8664
X8.3071Y-5.3278
X8.314Y-2.192
X8.3174Y-5.9015
X8.3612Y-5.3573
X8.3612Y-5.8623
X8.3626Y-6.0921
X8.368Y-2.116
X8.373Y-5.5345
X8.374Y-6.2185
X8.3757Y-4.0794
X8.398Y-2.262
X8.3997Y-5.8336
X8.4035Y-5.7943
X8.4045Y-5.562
X8.4161Y-5.4966
X8.4223Y-5.6989
X8.428Y-3.854
X8.4382Y-6.1697
X8.4409Y-5.436
X8.443Y-5.5897
X8.4675Y-5.6329
X8.4946Y-5.4954
X8.501Y-5.6729
X8.504Y-3.898
X8.5453Y-5.5177
X8.5591Y-5.7707
X8.563Y-5.8159
X8.5641Y-5.7302
X8.5689Y-6.0128
X8.584Y-2.182
X8.6008Y-5.6326
X8.6102Y-6.0961
X8.623Y-6.0079
X8.627Y-5.662
X8.628Y-6.2165
X8.628Y-2.122
X8.652Y-2.26
X8.6581Y-5.9715
X8.6594Y-5.814
X8.68Y-5.7114
X8.6835Y-6.0374
X8.6909Y-3.2736
X8.6929Y-3.0276
X8.6929Y-6.1665
X8.6935Y-5.9539
X8.712Y-3.998
X8.7126Y-3.4272
X8.7205Y-6.0165
X8.7264Y-5.7057
X8.7438Y-5.9846
X8.772Y-3.99
X8.7756Y-5.9596
X8.8031Y-2.9764
X8.816Y-2.192
X8.8297Y-5.7018
X8.83Y-3.99
X8.8435Y-5.5974
X8.8524Y-5.7717
X8.8571Y-5.7302
X8.8573Y-5.8238
X8.8748Y-6.089
X8.8878Y-6.2205
X8.888Y-2.116
X8.9023Y-3.9683
X8.904Y-2.258
X8.9193Y-5.7746
X8.9222Y-5.5994
X8.9252Y-5.7269
X8.9437Y-6.1697
X8.9459Y-5.8219
X8.9591Y-5.6913
X9.0591Y-5.6358
X9.092Y-2.18
X9.0965Y-5.6732
X9.1287Y-6.0949
X9.1417Y-6.2185
X9.1496Y-5.6378
X9.15Y-2.114
X9.158Y-2.256
X9.1831Y-5.8169
X9.1984Y-6.1646
X9.2098Y-5.6673
X9.2205Y-5.8386
X9.2756Y-5.8091
X9.2855Y-5.6387
X9.3018Y-5.7002
X9.3059Y-5.8375
X9.326Y-3.888
X9.3265Y-5.9424
X9.335Y-5.6575
X9.34Y-2.176
X9.35Y-6.0
X9.3799Y-5.8858
X9.3818Y-5.9282
X9.386Y-5.168
X9.3868Y-6.0148
X9.3898Y-6.0941
X9.3949Y-5.6382
X9.3976Y-5.7166
X9.3996Y-6.2165
X9.408Y-2.114
X9.412Y-2.26
X9.4145Y-5.9054
X9.4551Y-6.1634
X9.4776Y-5.5783
X9.4859Y-6.0038
X9.5009Y-4.0053
X9.54Y-5.9861
X9.5413Y-2.6575
X9.546Y-2.836
X9.5623Y-2.77
X9.5841Y-5.6879
X9.588Y-2.196
X9.602Y-3.846
X9.626Y-2.4646
X9.6299Y-2.5098
X9.63Y-5.7
X9.6398Y-2.5768
X9.6461Y-6.0882
X9.6535Y-6.2185
X9.6544Y-2.7745
X9.658Y-2.11
X9.67Y-2.254
X9.6752Y-2.5079
X9.7098Y-6.1634
X9.7234Y-5.5394
X9.744Y-5.6313
X9.7769Y-5.986
X9.7872Y-2.7568
X9.7894Y-5.5187
X9.8081Y-5.6447
X9.8367Y-5.5623
X9.855Y-2.18
X9.8644Y-5.4639
X9.89Y-5.134
X9.8976Y-6.0894
X9.904Y-2.116
X9.9075Y-6.2146
X9.916Y-5.332
X9.92Y-2.255
X9.9232Y-2.5322
X9.9701Y-6.1697
X9.9724Y-2.7869
X9.9793Y-5.6358
X9.9823Y-5.5704
X9.9824Y-5.4394
X9.9824Y-5.5054
X10.0215Y-2.964
X10.0344Y-6.0394
X10.038Y-5.326
X10.0542Y-2.5342
X10.065Y-2.128
X10.07Y-2.662
X10.0758Y-5.9685
X10.0767Y-4.9507
X10.0867Y-2.8529
X10.094Y-2.726
X10.11Y-2.18
X10.1158Y-5.3706
X10.1224Y-2.5929
X10.124Y-2.5039
X10.13Y-4.916
X10.132Y-5.23
X10.134Y-2.91
X10.1348Y-3.122
X10.1439Y-2.7654
X10.1524Y-6.0894
X10.1654Y-6.2205
X10.18Y-2.26
X10.196Y-2.816
X10.214Y-4.784
X10.2217Y-6.1634
X10.226Y-4.22
X10.2305Y-2.7644
X10.2443Y-2.981
X10.256Y-4.07
X10.26Y-2.88
X10.3031Y-2.0335
X10.311Y-3.189
X10.3366Y-5.226
X10.3528Y-3.2425
X10.372Y-3.3957
X10.3839Y-3.2146
X10.3878Y-3.9173
X10.3917Y-3.815
X10.3996Y-6.0787
T2
X7.0787Y-3.9402
X7.0787Y-3.9889
X7.1072Y-3.9009
X7.1072Y-4.0283
X7.1535Y-3.8858
X7.1535Y-4.0433
X7.206Y-3.8858
X7.206Y-4.0433
X7.2585Y-3.8858
X7.2585Y-4.0433
X7.311Y-3.8858
X7.311Y-4.0433
X7.3573Y-3.9009
X7.3573Y-4.0283
X7.3859Y-3.9402
X7.3859Y-3.9889
X7.4724Y-3.9402
X7.4724Y-3.9889
X7.5009Y-3.9009
X7.5009Y-4.0283
X7.5472Y-3.8858
X7.5472Y-4.0433
X7.5997Y-3.8858
X7.5997Y-4.0433
X7.6522Y-3.8858
X7.6522Y-4.0433
X7.7047Y-3.8858
X7.7047Y-4.0433
X7.751Y-3.9009
X7.751Y-4.0283
X7.7796Y-3.9402
X7.7796Y-3.9889
T4
X8.6874Y-5.6614
X8.6874Y-5.8884
X8.7874Y-5.6614
X8.7874Y-5.8884
X8.8874Y-5.6614
X8.8874Y-5.8884
T5
X7.7215Y-3.4941
X8.0587Y-4.9798
X8.0866Y-3.5039
X8.1333Y-4.5222
T6
X9.671Y-2.91
X9.673Y-2.3819
X10.0214Y-2.91
X10.0234Y-2.3819
T7
X6.6037Y-2.6585
X6.6037Y-2.7569
X6.6037Y-2.8356
X6.6037Y-2.9341
X6.7069Y-2.6585
X6.7069Y-2.7569
X6.7069Y-2.8356
X6.7069Y-2.9341
T8
X6.9724Y-4.6486
X10.2402Y-5.7047
X10.3243Y-2.159
T9
X6.2106Y-4.752
X6.2106Y-5.185
X6.2795Y-2.1555
X6.2795Y-2.2555
X6.3795Y-2.1555
X6.3795Y-2.2555
X6.4795Y-2.1555
X6.4795Y-2.2555
X6.5795Y-2.1555
X6.5795Y-2.2555
X6.6795Y-2.1555
X6.6795Y-2.2555
X6.7795Y-2.1555
X6.7795Y-2.2555
X6.8795Y-2.1555
X6.8795Y-2.2555
X6.9427Y-3.0886
X6.9427Y-3.5886
X6.9795Y-2.1555
X6.9795Y-2.2555
X7.0427Y-3.0886
X7.0427Y-3.5886
X7.0795Y-2.1555
X7.0795Y-2.2555
X7.1427Y-3.0886
X7.1427Y-3.5886
X7.1795Y-2.1555
X7.1795Y-2.2555
X7.2427Y-3.0886
X7.2427Y-3.5886
X7.3427Y-3.0886
X7.3427Y-3.5886
X7.3539Y-4.8071
X7.4291Y-4.8071
X7.4427Y-3.0886
X7.4427Y-3.5886
X7.5043Y-4.8071
X7.5427Y-3.0886
X7.5427Y-3.5886
X7.6427Y-3.0886
X7.6427Y-3.5886
X9.4775Y-5.1145
X9.5775Y-5.1145
X9.6775Y-5.1145
X10.0035Y-5.1118
X10.1035Y-5.1118
X10.2035Y-5.1118
T10
X6.31Y-3.393
X6.31Y-3.5112
X6.4281Y-3.393
X6.4281Y-3.5112
T11
X6.419Y-5.5357
X6.419Y-5.831
X7.089Y-5.5357
X7.089Y-5.831
T12
X9.1594Y-5.5492
X9.1594Y-5.7343
X9.1594Y-5.9193
T13
X6.4075Y-4.8701
X6.4075Y-5.0669
T15
X6.497Y-2.5376
X6.497Y-3.0549
X6.7207Y-2.5376
X6.7207Y-3.0549
T16
X6.1399Y-3.3084
X6.1399Y-3.5958
T17
X6.3799Y-4.0394
X6.3799Y-4.3228
X10.0125Y-4.1243
X10.0125Y-4.4077
X10.1378Y-3.4585
X10.1378Y-3.742
T3
G00X6.122Y-3.9154
M15
G01X6.1654Y-3.9154
M16
G05
G00X6.122Y-4.4469
M15
G01X6.1654Y-4.4469
M16
G05
G00X10.2704Y-4.0003
M15
G01X10.2271Y-4.0003
M16
G05
G00X10.2704Y-4.5317
M15
G01X10.2271Y-4.5317
M16
G05
G00X10.3957Y-3.3345
M15
G01X10.3523Y-3.3345
M16
G05
G00X10.3957Y-3.866
M15
G01X10.3523Y-3.866
M16
G05
T9
G00X10.1562Y-4.2463
M15
G01X10.1562Y-4.2857
M16
G05
G00X10.2815Y-3.5806
M15
G01X10.2815Y-3.6199
M16
G05
T14
G00X7.1535Y-3.9646
M15
G01X7.311Y-3.9646
M16
G05
G00X7.5472Y-3.9646
M15
G01X7.7047Y-3.9646
M16
G05
M30
