%TF.GenerationSoftware,KiCad,Pcbnew,8.0.3*%
%TF.CreationDate,2024-07-14T18:55:45-07:00*%
%TF.ProjectId,robosub_teensy,726f626f-7375-4625-9f74-65656e73792e,rev?*%
%TF.SameCoordinates,Original*%
%TF.FileFunction,Soldermask,Bot*%
%TF.FilePolarity,Negative*%
%FSLAX46Y46*%
G04 Gerber Fmt 4.6, Leading zero omitted, Abs format (unit mm)*
G04 Created by KiCad (PCBNEW 8.0.3) date 2024-07-14 18:55:45*
%MOMM*%
%LPD*%
G01*
G04 APERTURE LIST*
%ADD10O,1.700000X1.700000*%
%ADD11R,1.700000X1.700000*%
%ADD12R,1.000000X1.500000*%
%ADD13C,3.200000*%
%ADD14O,1.524000X1.524000*%
%ADD15C,1.524000*%
%ADD16C,1.300000*%
%ADD17R,1.300000X1.300000*%
%ADD18C,1.600000*%
%ADD19R,1.600000X1.600000*%
G04 APERTURE END LIST*
D10*
%TO.C,JP10*%
X169005000Y-181245000D03*
X169005000Y-178705000D03*
D11*
X169005000Y-176165000D03*
%TD*%
D10*
%TO.C,JP9*%
X165065000Y-181245000D03*
X165065000Y-178705000D03*
D11*
X165065000Y-176165000D03*
%TD*%
D10*
%TO.C,JP2*%
X145320000Y-181415000D03*
X145320000Y-178875000D03*
D11*
X145320000Y-176335000D03*
%TD*%
D10*
%TO.C,JP1*%
X141330000Y-181415000D03*
X141330000Y-178875000D03*
D11*
X141330000Y-176335000D03*
%TD*%
%TO.C,J25*%
X169145000Y-161315000D03*
D10*
X169145000Y-163855000D03*
X169145000Y-166395000D03*
X169145000Y-168935000D03*
%TD*%
D11*
%TO.C,J24*%
X165065000Y-161315000D03*
D10*
X165065000Y-163855000D03*
X165065000Y-166395000D03*
X165065000Y-168935000D03*
%TD*%
D11*
%TO.C,J21*%
X157285000Y-161360000D03*
D10*
X157285000Y-163900000D03*
X157285000Y-166440000D03*
X157285000Y-168980000D03*
%TD*%
D11*
%TO.C,J20*%
X153310000Y-161370000D03*
D10*
X153310000Y-163910000D03*
X153310000Y-166450000D03*
X153310000Y-168990000D03*
%TD*%
D11*
%TO.C,J19*%
X245760000Y-162100000D03*
D10*
X245760000Y-164640000D03*
X245760000Y-167180000D03*
X245760000Y-169720000D03*
%TD*%
D11*
%TO.C,J18*%
X241930000Y-162100000D03*
D10*
X241930000Y-164640000D03*
X241930000Y-167180000D03*
X241930000Y-169720000D03*
%TD*%
D11*
%TO.C,J14*%
X145455000Y-161270000D03*
D10*
X145455000Y-163810000D03*
X145455000Y-166350000D03*
X145455000Y-168890000D03*
%TD*%
D11*
%TO.C,J13*%
X141485000Y-161230000D03*
D10*
X141485000Y-163770000D03*
X141485000Y-166310000D03*
X141485000Y-168850000D03*
%TD*%
D12*
%TO.C,JP16*%
X214330000Y-174610000D03*
X213030000Y-174610000D03*
%TD*%
%TO.C,JP15*%
X214330000Y-169990000D03*
X213030000Y-169990000D03*
%TD*%
%TO.C,JP14*%
X223580000Y-174550000D03*
X222280000Y-174550000D03*
%TD*%
%TO.C,JP13*%
X223640000Y-170020000D03*
X222340000Y-170020000D03*
%TD*%
%TO.C,JP12*%
X232590000Y-174430000D03*
X231290000Y-174430000D03*
%TD*%
%TO.C,JP11*%
X232590000Y-169990000D03*
X231290000Y-169990000D03*
%TD*%
D13*
%TO.C,H2*%
X195750000Y-212200000D03*
%TD*%
D11*
%TO.C,J12*%
X130120000Y-215392000D03*
D10*
X130120000Y-217932000D03*
X132660000Y-215392000D03*
X132660000Y-217932000D03*
X135200000Y-215392000D03*
X135200000Y-217932000D03*
X137740000Y-215392000D03*
X137740000Y-217932000D03*
X140280000Y-215392000D03*
X140280000Y-217932000D03*
X142820000Y-215392000D03*
X142820000Y-217932000D03*
X145360000Y-215392000D03*
X145360000Y-217932000D03*
X147900000Y-215392000D03*
X147900000Y-217932000D03*
%TD*%
%TO.C,J11*%
X243100000Y-184255000D03*
X240560000Y-184255000D03*
X243100000Y-186795000D03*
X240560000Y-186795000D03*
X243100000Y-189335000D03*
X240560000Y-189335000D03*
X243100000Y-191875000D03*
X240560000Y-191875000D03*
X243100000Y-194415000D03*
X240560000Y-194415000D03*
X243100000Y-196955000D03*
X240560000Y-196955000D03*
X243100000Y-199495000D03*
X240560000Y-199495000D03*
X243100000Y-202035000D03*
D11*
X240560000Y-202035000D03*
%TD*%
%TO.C,J17*%
X177020000Y-218970000D03*
D10*
X177020000Y-216430000D03*
X174480000Y-218970000D03*
X174480000Y-216430000D03*
X171940000Y-218970000D03*
X171940000Y-216430000D03*
X169400000Y-218970000D03*
X169400000Y-216430000D03*
X166860000Y-218970000D03*
X166860000Y-216430000D03*
X164320000Y-218970000D03*
X164320000Y-216430000D03*
X161780000Y-218970000D03*
X161780000Y-216430000D03*
X159240000Y-218970000D03*
X159240000Y-216430000D03*
X156700000Y-218970000D03*
X156700000Y-216430000D03*
X154160000Y-218970000D03*
X154160000Y-216430000D03*
X151620000Y-218970000D03*
X151620000Y-216430000D03*
%TD*%
D11*
%TO.C,JP18*%
X231375000Y-198680000D03*
D10*
X231375000Y-201220000D03*
X231375000Y-203760000D03*
%TD*%
D11*
%TO.C,JP17*%
X226975000Y-198680000D03*
D10*
X226975000Y-201220000D03*
X226975000Y-203760000D03*
%TD*%
D11*
%TO.C,JP8*%
X185825000Y-181775000D03*
D10*
X185825000Y-184315000D03*
X185825000Y-186855000D03*
%TD*%
D11*
%TO.C,JP7*%
X181225000Y-181775000D03*
D10*
X181225000Y-184315000D03*
X181225000Y-186855000D03*
%TD*%
D11*
%TO.C,JP4*%
X208336224Y-203575000D03*
D10*
X208336224Y-201035000D03*
X208336224Y-198495000D03*
%TD*%
%TO.C,JP3*%
X212351020Y-198495000D03*
X212351020Y-201035000D03*
D11*
X212351020Y-203575000D03*
%TD*%
%TO.C,J27*%
X195100000Y-161525000D03*
D10*
X195100000Y-164065000D03*
X195100000Y-166605000D03*
X195100000Y-169145000D03*
X195100000Y-171685000D03*
X195100000Y-174225000D03*
%TD*%
D11*
%TO.C,J26*%
X190466666Y-161525000D03*
D10*
X190466666Y-164065000D03*
X190466666Y-166605000D03*
X190466666Y-169145000D03*
X190466666Y-171685000D03*
X190466666Y-174225000D03*
%TD*%
D11*
%TO.C,J23*%
X185833333Y-161525000D03*
D10*
X185833333Y-164065000D03*
X185833333Y-166605000D03*
X185833333Y-169145000D03*
X185833333Y-171685000D03*
X185833333Y-174225000D03*
%TD*%
D11*
%TO.C,J22*%
X181200000Y-161525000D03*
D10*
X181200000Y-164065000D03*
X181200000Y-166605000D03*
X181200000Y-169145000D03*
X181200000Y-171685000D03*
X181200000Y-174225000D03*
%TD*%
D11*
%TO.C,J10*%
X131600000Y-173560000D03*
D10*
X131600000Y-176100000D03*
X131600000Y-178640000D03*
X131600000Y-181180000D03*
X131600000Y-183720000D03*
X131600000Y-186260000D03*
%TD*%
D11*
%TO.C,J9*%
X216365816Y-209645000D03*
D10*
X216365816Y-212185000D03*
X216365816Y-214725000D03*
%TD*%
%TO.C,J8*%
X204321428Y-214725000D03*
X204321428Y-212185000D03*
D11*
X204321428Y-209645000D03*
%TD*%
%TO.C,J7*%
X220380612Y-209645000D03*
D10*
X220380612Y-212185000D03*
X220380612Y-214725000D03*
%TD*%
%TO.C,J6*%
X208336224Y-214725000D03*
X208336224Y-212185000D03*
D11*
X208336224Y-209645000D03*
%TD*%
D10*
%TO.C,J5*%
X224395408Y-214725000D03*
X224395408Y-212185000D03*
D11*
X224395408Y-209645000D03*
%TD*%
%TO.C,J4*%
X212351020Y-209645000D03*
D10*
X212351020Y-212185000D03*
X212351020Y-214725000D03*
%TD*%
%TO.C,J3*%
X228410204Y-214725000D03*
X228410204Y-212185000D03*
D11*
X228410204Y-209645000D03*
%TD*%
%TO.C,J2*%
X196400000Y-184745000D03*
D10*
X193860000Y-184745000D03*
%TD*%
%TO.C,J1*%
X232425000Y-214725000D03*
X232425000Y-212185000D03*
D11*
X232425000Y-209645000D03*
%TD*%
D14*
%TO.C,U2*%
X202230000Y-181500000D03*
X204770000Y-181500000D03*
X207310000Y-181500000D03*
X209850000Y-181500000D03*
X212390000Y-181500000D03*
X214930000Y-181500000D03*
X217470000Y-181500000D03*
X220010000Y-181500000D03*
X222550000Y-181500000D03*
X225090000Y-181500000D03*
X227630000Y-181500000D03*
X230170000Y-181500000D03*
X232710000Y-181500000D03*
X235250000Y-181500000D03*
X202230000Y-171340000D03*
X202230000Y-173880000D03*
X235250000Y-166260000D03*
X232710000Y-166260000D03*
X230170000Y-166260000D03*
X227630000Y-166260000D03*
X225090000Y-166260000D03*
X222550000Y-166260000D03*
X220010000Y-166260000D03*
X217470000Y-166260000D03*
X214930000Y-166260000D03*
X212390000Y-166260000D03*
X209850000Y-166260000D03*
X207310000Y-166260000D03*
X204770000Y-166260000D03*
X202230000Y-166260000D03*
D15*
X223820000Y-162450000D03*
X221280000Y-162450000D03*
X218740000Y-162450000D03*
X216200000Y-162450000D03*
X213660000Y-162450000D03*
X216200000Y-159910000D03*
X213660000Y-159910000D03*
X227020400Y-187192140D03*
X227020400Y-189772780D03*
X227020400Y-192310240D03*
D14*
X209850000Y-193184000D03*
X207310000Y-193184000D03*
X204770000Y-193184000D03*
D15*
X218740000Y-159910000D03*
X223820000Y-159910000D03*
%TD*%
D13*
%TO.C,H3*%
X240750000Y-212200000D03*
%TD*%
D16*
%TO.C,U1*%
X131805000Y-201340000D03*
X131805000Y-198800000D03*
X146045000Y-194888400D03*
X146045000Y-196888400D03*
X146045000Y-198888400D03*
X144045000Y-198888400D03*
X144045000Y-196888400D03*
D17*
X144045000Y-194888400D03*
D18*
X147534200Y-204639200D03*
X144994200Y-204639200D03*
X142454200Y-204639200D03*
X139914200Y-204639200D03*
D19*
X137374200Y-204639200D03*
D18*
X176795000Y-194990000D03*
X176795000Y-197530000D03*
X176795000Y-200070000D03*
X176795000Y-202610000D03*
X176795000Y-205150000D03*
X133615000Y-194990000D03*
X131075000Y-192450000D03*
X133615000Y-192450000D03*
X136155000Y-192450000D03*
X138695000Y-192450000D03*
X141235000Y-192450000D03*
X143775000Y-192450000D03*
X146315000Y-192450000D03*
X148855000Y-192450000D03*
X151395000Y-192450000D03*
X153935000Y-192450000D03*
X156475000Y-192450000D03*
X159015000Y-192450000D03*
X161555000Y-192450000D03*
X164095000Y-192450000D03*
X166635000Y-192450000D03*
X169175000Y-192450000D03*
X171715000Y-192450000D03*
X174255000Y-192450000D03*
X176795000Y-192450000D03*
X179335000Y-192450000D03*
X181875000Y-192450000D03*
X184415000Y-192450000D03*
X186955000Y-192450000D03*
X189495000Y-192450000D03*
X189495000Y-207690000D03*
X186955000Y-207690000D03*
X184415000Y-207690000D03*
X181875000Y-207690000D03*
X179335000Y-207690000D03*
X176795000Y-207690000D03*
X174255000Y-207690000D03*
X171715000Y-207690000D03*
X169175000Y-207690000D03*
X166635000Y-207690000D03*
X164095000Y-207690000D03*
X161555000Y-207690000D03*
X159015000Y-207690000D03*
X156475000Y-207690000D03*
X153935000Y-207690000D03*
X151395000Y-207690000D03*
X148855000Y-207690000D03*
X146315000Y-207690000D03*
X143775000Y-207690000D03*
X141235000Y-207690000D03*
X138695000Y-207690000D03*
X136155000Y-207690000D03*
X133615000Y-207690000D03*
D19*
X131075000Y-207690000D03*
%TD*%
D13*
%TO.C,H1*%
X135750000Y-167200000D03*
%TD*%
M02*
