M48
; DRILL file {KiCad 8.0.3} date 2025-02-02T18:29:43-0800
; FORMAT={-:-/ absolute / inch / decimal}
; #@! TF.CreationDate,2025-02-02T18:29:43-08:00
; #@! TF.GenerationSoftware,Kicad,Pcbnew,8.0.3
; #@! TF.FileFunction,Plated,1,2,PTH
FMAT,2
INCH
; #@! TA.AperFunction,Plated,PTH,ViaDrill
T1C0.0157
; #@! TA.AperFunction,Plated,PTH,ComponentDrill
T2C0.0394
; #@! TA.AperFunction,Plated,PTH,ComponentDrill
T3C0.0630
; #@! TA.AperFunction,Plated,PTH,ComponentDrill
T4C0.0787
%
G90
G05
T1
X3.368Y-3.168
X3.414Y-3.462
X3.598Y-3.482
X3.838Y-3.4123
X3.972Y-3.4366
X4.2Y-3.4366
X4.2413Y-3.9475
X4.2914Y-3.9754
X4.3278Y-4.2712
X4.43Y-4.264
X4.474Y-3.369
X4.53Y-4.242
X4.632Y-4.212
X4.636Y-3.4446
X4.683Y-4.1477
X4.802Y-4.13
X4.824Y-3.4306
X5.1Y-3.369
X5.1783Y-3.4944
X5.268Y-3.446
X5.6885Y-3.3962
X5.6973Y-3.4352
X5.7133Y-3.5107
X5.7149Y-3.4705
X5.716Y-3.556
X5.7737Y-3.422
X5.774Y-3.47
X5.782Y-3.602
X6.126Y-3.604
X6.1303Y-3.4065
X6.133Y-3.5651
X6.142Y-3.45
X6.1478Y-3.5285
X6.358Y-3.4121
X6.524Y-3.454
X6.71Y-3.458
X6.9969Y-3.3906
X7.172Y-3.456
X7.378Y-3.452
X7.618Y-3.402
X7.65Y-3.44
X7.712Y-3.45
T2
X3.528Y-3.8382
X3.528Y-3.9382
X3.528Y-4.0382
X3.528Y-4.1382
X3.528Y-4.2382
X3.528Y-4.3382
X3.748Y-3.842
X3.748Y-3.942
X4.1326Y-3.84
X4.1326Y-4.34
X4.2326Y-3.84
X4.2326Y-4.34
X4.3326Y-3.84
X4.3326Y-4.34
X4.4326Y-3.84
X4.4326Y-4.34
X4.5326Y-3.84
X4.5326Y-4.34
X4.6326Y-3.84
X4.6326Y-4.34
X4.7326Y-3.84
X4.7326Y-4.34
X4.8326Y-3.84
X4.8326Y-4.34
T3
X5.568Y-3.72
X5.568Y-4.12
X5.968Y-3.72
X5.968Y-4.12
T4
X3.4154Y-2.474
X3.7107Y-2.9661
X4.006Y-2.474
X4.3013Y-2.9661
X4.6894Y-2.48
X4.9847Y-2.9721
X5.28Y-2.48
X5.5753Y-2.9721
X5.964Y-2.48
X6.2593Y-2.9721
X6.5546Y-2.48
X6.8498Y-2.9721
X7.24Y-2.48
X7.5353Y-2.9721
X7.8306Y-2.48
X8.1258Y-2.9721
M30
