%TF.GenerationSoftware,KiCad,Pcbnew,8.0.3*%
%TF.CreationDate,2025-06-05T13:09:17-07:00*%
%TF.ProjectId,Power_ManagementV2,506f7765-725f-44d6-916e-6167656d656e,rev?*%
%TF.SameCoordinates,Original*%
%TF.FileFunction,Paste,Top*%
%TF.FilePolarity,Positive*%
%FSLAX46Y46*%
G04 Gerber Fmt 4.6, Leading zero omitted, Abs format (unit mm)*
G04 Created by KiCad (PCBNEW 8.0.3) date 2025-06-05 13:09:17*
%MOMM*%
%LPD*%
G01*
G04 APERTURE LIST*
G04 Aperture macros list*
%AMRoundRect*
0 Rectangle with rounded corners*
0 $1 Rounding radius*
0 $2 $3 $4 $5 $6 $7 $8 $9 X,Y pos of 4 corners*
0 Add a 4 corners polygon primitive as box body*
4,1,4,$2,$3,$4,$5,$6,$7,$8,$9,$2,$3,0*
0 Add four circle primitives for the rounded corners*
1,1,$1+$1,$2,$3*
1,1,$1+$1,$4,$5*
1,1,$1+$1,$6,$7*
1,1,$1+$1,$8,$9*
0 Add four rect primitives between the rounded corners*
20,1,$1+$1,$2,$3,$4,$5,0*
20,1,$1+$1,$4,$5,$6,$7,0*
20,1,$1+$1,$6,$7,$8,$9,0*
20,1,$1+$1,$8,$9,$2,$3,0*%
G04 Aperture macros list end*
%ADD10C,0.000000*%
%ADD11C,0.010000*%
%ADD12R,1.473200X0.355600*%
%ADD13RoundRect,0.250000X-0.250000X0.550000X-0.250000X-0.550000X0.250000X-0.550000X0.250000X0.550000X0*%
%ADD14RoundRect,0.100000X-0.650000X-0.100000X0.650000X-0.100000X0.650000X0.100000X-0.650000X0.100000X0*%
%ADD15R,0.990600X1.143000*%
%ADD16R,3.098800X5.207000*%
%ADD17RoundRect,0.250000X-0.262500X-0.450000X0.262500X-0.450000X0.262500X0.450000X-0.262500X0.450000X0*%
%ADD18RoundRect,0.250000X0.250000X-0.550000X0.250000X0.550000X-0.250000X0.550000X-0.250000X-0.550000X0*%
%ADD19RoundRect,0.237500X-0.287500X-0.237500X0.287500X-0.237500X0.287500X0.237500X-0.287500X0.237500X0*%
%ADD20RoundRect,0.250000X0.475000X-0.337500X0.475000X0.337500X-0.475000X0.337500X-0.475000X-0.337500X0*%
%ADD21RoundRect,0.250000X0.350000X0.450000X-0.350000X0.450000X-0.350000X-0.450000X0.350000X-0.450000X0*%
%ADD22RoundRect,0.250000X-0.450000X0.350000X-0.450000X-0.350000X0.450000X-0.350000X0.450000X0.350000X0*%
%ADD23RoundRect,0.250000X-0.337500X-0.475000X0.337500X-0.475000X0.337500X0.475000X-0.337500X0.475000X0*%
%ADD24RoundRect,0.250000X0.450000X-0.350000X0.450000X0.350000X-0.450000X0.350000X-0.450000X-0.350000X0*%
%ADD25R,2.500000X0.800000*%
%ADD26R,7.999995X10.100005*%
%ADD27RoundRect,0.250000X-0.350000X-0.450000X0.350000X-0.450000X0.350000X0.450000X-0.350000X0.450000X0*%
%ADD28R,1.168400X2.209800*%
%ADD29RoundRect,0.250000X-0.475000X0.337500X-0.475000X-0.337500X0.475000X-0.337500X0.475000X0.337500X0*%
%ADD30RoundRect,0.250000X0.262500X0.450000X-0.262500X0.450000X-0.262500X-0.450000X0.262500X-0.450000X0*%
%ADD31R,0.711200X1.701800*%
%ADD32R,6.553200X6.223000*%
%ADD33R,0.990600X2.997200*%
%ADD34R,10.337800X8.712200*%
%ADD35RoundRect,0.100000X-0.712500X-0.100000X0.712500X-0.100000X0.712500X0.100000X-0.712500X0.100000X0*%
%ADD36R,1.460500X0.355600*%
%ADD37R,0.355600X1.168400*%
%ADD38R,3.800000X2.000000*%
%ADD39R,0.711200X0.457200*%
%ADD40R,2.990000X1.340000*%
%ADD41R,0.533400X1.981200*%
%ADD42RoundRect,0.250000X0.650000X-1.000000X0.650000X1.000000X-0.650000X1.000000X-0.650000X-1.000000X0*%
%ADD43RoundRect,0.250000X-0.450000X0.262500X-0.450000X-0.262500X0.450000X-0.262500X0.450000X0.262500X0*%
%ADD44R,3.000000X2.475000*%
G04 APERTURE END LIST*
D10*
%TO.C,Q3*%
G36*
X230490703Y-88526397D02*
G01*
X233290698Y-88526397D01*
X233290702Y-87676398D01*
X234790699Y-87676398D01*
X234790699Y-97776404D01*
X233290702Y-97776404D01*
X233290698Y-96926405D01*
X230490703Y-96926405D01*
X230490697Y-97776404D01*
X226790704Y-97776404D01*
X226790704Y-87676398D01*
X230490697Y-87676398D01*
X230490703Y-88526397D01*
G37*
G36*
X223990701Y-97326400D02*
G01*
X221490701Y-97326400D01*
X221490701Y-96526400D01*
X223490700Y-96526402D01*
X223490700Y-96126402D01*
X221490701Y-96126400D01*
X221490701Y-95326402D01*
X223490700Y-95326402D01*
X223490700Y-94926402D01*
X221490701Y-94926402D01*
X221490701Y-94126403D01*
X223490700Y-94126402D01*
X223490700Y-93726402D01*
X221490701Y-93726402D01*
X221490701Y-92926402D01*
X223490700Y-92926402D01*
X223490700Y-92526402D01*
X221490701Y-92526402D01*
X221490701Y-91726402D01*
X223490700Y-91726402D01*
X223490700Y-91326402D01*
X221490701Y-91326402D01*
X221490701Y-90526402D01*
X223490700Y-90526402D01*
X223490700Y-90126402D01*
X221490701Y-90126402D01*
X221490701Y-89326402D01*
X223990701Y-89326402D01*
X223990701Y-97326400D01*
G37*
%TO.C,Q4*%
G36*
X230490703Y-102539795D02*
G01*
X233290698Y-102539795D01*
X233290702Y-101689796D01*
X234790699Y-101689796D01*
X234790699Y-111789802D01*
X233290702Y-111789802D01*
X233290698Y-110939803D01*
X230490703Y-110939803D01*
X230490697Y-111789802D01*
X226790704Y-111789802D01*
X226790704Y-101689796D01*
X230490697Y-101689796D01*
X230490703Y-102539795D01*
G37*
G36*
X223990701Y-111339798D02*
G01*
X221490701Y-111339798D01*
X221490701Y-110539798D01*
X223490700Y-110539800D01*
X223490700Y-110139800D01*
X221490701Y-110139798D01*
X221490701Y-109339800D01*
X223490700Y-109339800D01*
X223490700Y-108939800D01*
X221490701Y-108939800D01*
X221490701Y-108139801D01*
X223490700Y-108139800D01*
X223490700Y-107739800D01*
X221490701Y-107739800D01*
X221490701Y-106939800D01*
X223490700Y-106939800D01*
X223490700Y-106539800D01*
X221490701Y-106539800D01*
X221490701Y-105739800D01*
X223490700Y-105739800D01*
X223490700Y-105339800D01*
X221490701Y-105339800D01*
X221490701Y-104539800D01*
X223490700Y-104539800D01*
X223490700Y-104139800D01*
X221490701Y-104139800D01*
X221490701Y-103339800D01*
X223990701Y-103339800D01*
X223990701Y-111339798D01*
G37*
%TO.C,Q1*%
G36*
X230033503Y-65954796D02*
G01*
X232833498Y-65954796D01*
X232833502Y-65104797D01*
X234333499Y-65104797D01*
X234333499Y-75204803D01*
X232833502Y-75204803D01*
X232833498Y-74354804D01*
X230033503Y-74354804D01*
X230033497Y-75204803D01*
X226333504Y-75204803D01*
X226333504Y-65104797D01*
X230033497Y-65104797D01*
X230033503Y-65954796D01*
G37*
G36*
X223533501Y-74754799D02*
G01*
X221033501Y-74754799D01*
X221033501Y-73954799D01*
X223033500Y-73954801D01*
X223033500Y-73554801D01*
X221033501Y-73554799D01*
X221033501Y-72754801D01*
X223033500Y-72754801D01*
X223033500Y-72354801D01*
X221033501Y-72354801D01*
X221033501Y-71554802D01*
X223033500Y-71554801D01*
X223033500Y-71154801D01*
X221033501Y-71154801D01*
X221033501Y-70354801D01*
X223033500Y-70354801D01*
X223033500Y-69954801D01*
X221033501Y-69954801D01*
X221033501Y-69154801D01*
X223033500Y-69154801D01*
X223033500Y-68754801D01*
X221033501Y-68754801D01*
X221033501Y-67954801D01*
X223033500Y-67954801D01*
X223033500Y-67554801D01*
X221033501Y-67554801D01*
X221033501Y-66754801D01*
X223533501Y-66754801D01*
X223533501Y-74754799D01*
G37*
%TO.C,Q2*%
G36*
X225105903Y-77079996D02*
G01*
X227905898Y-77079996D01*
X227905902Y-76229997D01*
X229405899Y-76229997D01*
X229405899Y-86330003D01*
X227905902Y-86330003D01*
X227905898Y-85480004D01*
X225105903Y-85480004D01*
X225105897Y-86330003D01*
X221405904Y-86330003D01*
X221405904Y-76229997D01*
X225105897Y-76229997D01*
X225105903Y-77079996D01*
G37*
G36*
X218605901Y-85879999D02*
G01*
X216105901Y-85879999D01*
X216105901Y-85079999D01*
X218105900Y-85080001D01*
X218105900Y-84680001D01*
X216105901Y-84679999D01*
X216105901Y-83880001D01*
X218105900Y-83880001D01*
X218105900Y-83480001D01*
X216105901Y-83480001D01*
X216105901Y-82680002D01*
X218105900Y-82680001D01*
X218105900Y-82280001D01*
X216105901Y-82280001D01*
X216105901Y-81480001D01*
X218105900Y-81480001D01*
X218105900Y-81080001D01*
X216105901Y-81080001D01*
X216105901Y-80280001D01*
X218105900Y-80280001D01*
X218105900Y-79880001D01*
X216105901Y-79880001D01*
X216105901Y-79080001D01*
X218105900Y-79080001D01*
X218105900Y-78680001D01*
X216105901Y-78680001D01*
X216105901Y-77880001D01*
X218605901Y-77880001D01*
X218605901Y-85879999D01*
G37*
%TO.C,Q5*%
G36*
X225148602Y-114115995D02*
G01*
X227948597Y-114115995D01*
X227948601Y-113265996D01*
X229448598Y-113265996D01*
X229448598Y-123366002D01*
X227948601Y-123366002D01*
X227948597Y-122516003D01*
X225148602Y-122516003D01*
X225148596Y-123366002D01*
X221448603Y-123366002D01*
X221448603Y-113265996D01*
X225148596Y-113265996D01*
X225148602Y-114115995D01*
G37*
G36*
X218648600Y-122915998D02*
G01*
X216148600Y-122915998D01*
X216148600Y-122115998D01*
X218148599Y-122116000D01*
X218148599Y-121716000D01*
X216148600Y-121715998D01*
X216148600Y-120916000D01*
X218148599Y-120916000D01*
X218148599Y-120516000D01*
X216148600Y-120516000D01*
X216148600Y-119716001D01*
X218148599Y-119716000D01*
X218148599Y-119316000D01*
X216148600Y-119316000D01*
X216148600Y-118516000D01*
X218148599Y-118516000D01*
X218148599Y-118116000D01*
X216148600Y-118116000D01*
X216148600Y-117316000D01*
X218148599Y-117316000D01*
X218148599Y-116916000D01*
X216148600Y-116916000D01*
X216148600Y-116116000D01*
X218148599Y-116116000D01*
X218148599Y-115716000D01*
X216148600Y-115716000D01*
X216148600Y-114916000D01*
X218648600Y-114916000D01*
X218648600Y-122915998D01*
G37*
%TO.C,Q6*%
G36*
X230490703Y-125850795D02*
G01*
X233290698Y-125850795D01*
X233290702Y-125000796D01*
X234790699Y-125000796D01*
X234790699Y-135100802D01*
X233290702Y-135100802D01*
X233290698Y-134250803D01*
X230490703Y-134250803D01*
X230490697Y-135100802D01*
X226790704Y-135100802D01*
X226790704Y-125000796D01*
X230490697Y-125000796D01*
X230490703Y-125850795D01*
G37*
G36*
X223990701Y-134650798D02*
G01*
X221490701Y-134650798D01*
X221490701Y-133850798D01*
X223490700Y-133850800D01*
X223490700Y-133450800D01*
X221490701Y-133450798D01*
X221490701Y-132650800D01*
X223490700Y-132650800D01*
X223490700Y-132250800D01*
X221490701Y-132250800D01*
X221490701Y-131450801D01*
X223490700Y-131450800D01*
X223490700Y-131050800D01*
X221490701Y-131050800D01*
X221490701Y-130250800D01*
X223490700Y-130250800D01*
X223490700Y-129850800D01*
X221490701Y-129850800D01*
X221490701Y-129050800D01*
X223490700Y-129050800D01*
X223490700Y-128650800D01*
X221490701Y-128650800D01*
X221490701Y-127850800D01*
X223490700Y-127850800D01*
X223490700Y-127450800D01*
X221490701Y-127450800D01*
X221490701Y-126650800D01*
X223990701Y-126650800D01*
X223990701Y-134650798D01*
G37*
D11*
%TO.C,R14*%
X178252500Y-126240000D02*
X176872500Y-126240000D01*
X176872500Y-124860000D01*
X178252500Y-124860000D01*
X178252500Y-126240000D01*
G36*
X178252500Y-126240000D02*
G01*
X176872500Y-126240000D01*
X176872500Y-124860000D01*
X178252500Y-124860000D01*
X178252500Y-126240000D01*
G37*
X178252500Y-128540000D02*
X176872500Y-128540000D01*
X176872500Y-127160000D01*
X178252500Y-127160000D01*
X178252500Y-128540000D01*
G36*
X178252500Y-128540000D02*
G01*
X176872500Y-128540000D01*
X176872500Y-127160000D01*
X178252500Y-127160000D01*
X178252500Y-128540000D01*
G37*
X178252500Y-130840000D02*
X176872500Y-130840000D01*
X176872500Y-129460000D01*
X178252500Y-129460000D01*
X178252500Y-130840000D01*
G36*
X178252500Y-130840000D02*
G01*
X176872500Y-130840000D01*
X176872500Y-129460000D01*
X178252500Y-129460000D01*
X178252500Y-130840000D01*
G37*
X180322500Y-126240000D02*
X178942500Y-126240000D01*
X178942500Y-124860000D01*
X180322500Y-124860000D01*
X180322500Y-126240000D01*
G36*
X180322500Y-126240000D02*
G01*
X178942500Y-126240000D01*
X178942500Y-124860000D01*
X180322500Y-124860000D01*
X180322500Y-126240000D01*
G37*
X180322500Y-128540000D02*
X178942500Y-128540000D01*
X178942500Y-127160000D01*
X180322500Y-127160000D01*
X180322500Y-128540000D01*
G36*
X180322500Y-128540000D02*
G01*
X178942500Y-128540000D01*
X178942500Y-127160000D01*
X180322500Y-127160000D01*
X180322500Y-128540000D01*
G37*
X180322500Y-130840000D02*
X178942500Y-130840000D01*
X178942500Y-129460000D01*
X180322500Y-129460000D01*
X180322500Y-130840000D01*
G36*
X180322500Y-130840000D02*
G01*
X178942500Y-130840000D01*
X178942500Y-129460000D01*
X180322500Y-129460000D01*
X180322500Y-130840000D01*
G37*
X182392500Y-126240000D02*
X181012500Y-126240000D01*
X181012500Y-124860000D01*
X182392500Y-124860000D01*
X182392500Y-126240000D01*
G36*
X182392500Y-126240000D02*
G01*
X181012500Y-126240000D01*
X181012500Y-124860000D01*
X182392500Y-124860000D01*
X182392500Y-126240000D01*
G37*
X182392500Y-128540000D02*
X181012500Y-128540000D01*
X181012500Y-127160000D01*
X182392500Y-127160000D01*
X182392500Y-128540000D01*
G36*
X182392500Y-128540000D02*
G01*
X181012500Y-128540000D01*
X181012500Y-127160000D01*
X182392500Y-127160000D01*
X182392500Y-128540000D01*
G37*
X182392500Y-130840000D02*
X181012500Y-130840000D01*
X181012500Y-129460000D01*
X182392500Y-129460000D01*
X182392500Y-130840000D01*
G36*
X182392500Y-130840000D02*
G01*
X181012500Y-130840000D01*
X181012500Y-129460000D01*
X182392500Y-129460000D01*
X182392500Y-130840000D01*
G37*
X184462500Y-126240000D02*
X183082500Y-126240000D01*
X183082500Y-124860000D01*
X184462500Y-124860000D01*
X184462500Y-126240000D01*
G36*
X184462500Y-126240000D02*
G01*
X183082500Y-126240000D01*
X183082500Y-124860000D01*
X184462500Y-124860000D01*
X184462500Y-126240000D01*
G37*
X184462500Y-128540000D02*
X183082500Y-128540000D01*
X183082500Y-127160000D01*
X184462500Y-127160000D01*
X184462500Y-128540000D01*
G36*
X184462500Y-128540000D02*
G01*
X183082500Y-128540000D01*
X183082500Y-127160000D01*
X184462500Y-127160000D01*
X184462500Y-128540000D01*
G37*
X184462500Y-130840000D02*
X183082500Y-130840000D01*
X183082500Y-129460000D01*
X184462500Y-129460000D01*
X184462500Y-130840000D01*
G36*
X184462500Y-130840000D02*
G01*
X183082500Y-130840000D01*
X183082500Y-129460000D01*
X184462500Y-129460000D01*
X184462500Y-130840000D01*
G37*
%TD*%
D12*
%TO.C,U15*%
X196329300Y-134040880D03*
X196329300Y-134691120D03*
X196329300Y-135341360D03*
X196329300Y-135991600D03*
X196329300Y-136641840D03*
X196329300Y-137292080D03*
X196329300Y-137942320D03*
X202171300Y-137942320D03*
X202171300Y-137292080D03*
X202171300Y-136641840D03*
X202171300Y-135991600D03*
X202171300Y-135341360D03*
X202171300Y-134691120D03*
X202171300Y-134040880D03*
%TD*%
D13*
%TO.C,LED18*%
X263139322Y-52200000D03*
X259839322Y-52200000D03*
X263139322Y-57200000D03*
X259839322Y-57200000D03*
%TD*%
D14*
%TO.C,U9*%
X203365000Y-142175000D03*
X203365000Y-142825000D03*
X203365000Y-143475000D03*
X206025000Y-143475000D03*
X206025000Y-142175000D03*
%TD*%
D15*
%TO.C,CR1*%
X168616402Y-96723200D03*
X166776400Y-96723200D03*
D16*
X167696401Y-100711000D03*
%TD*%
D17*
%TO.C,R5*%
X249485900Y-67002400D03*
X251310900Y-67002400D03*
%TD*%
D18*
%TO.C,LED1*%
X155793000Y-159750000D03*
X159093000Y-159750000D03*
X155793000Y-154750000D03*
X159093000Y-154750000D03*
%TD*%
D19*
%TO.C,D13*%
X251747400Y-150048200D03*
X253497400Y-150048200D03*
%TD*%
D20*
%TO.C,C6*%
X260148599Y-139211500D03*
X260148599Y-137136500D03*
%TD*%
D18*
%TO.C,LED5*%
X181798600Y-159750000D03*
X185098600Y-159750000D03*
X181798600Y-154750000D03*
X185098600Y-154750000D03*
%TD*%
D21*
%TO.C,R19*%
X242400000Y-143520400D03*
X240400000Y-143520400D03*
%TD*%
D14*
%TO.C,U12*%
X206990000Y-134700000D03*
X206990000Y-135350000D03*
X206990000Y-136000000D03*
X209650000Y-136000000D03*
X209650000Y-134700000D03*
%TD*%
D22*
%TO.C,R12*%
X259000000Y-77800000D03*
X259000000Y-79800000D03*
%TD*%
%TO.C,R13*%
X192350000Y-125575000D03*
X192350000Y-127575000D03*
%TD*%
D23*
%TO.C,C2*%
X259515700Y-133096000D03*
X261590700Y-133096000D03*
%TD*%
D18*
%TO.C,LED6*%
X188300000Y-159750000D03*
X191600000Y-159750000D03*
X188300000Y-154750000D03*
X191600000Y-154750000D03*
%TD*%
D24*
%TO.C,R1*%
X236220000Y-93370400D03*
X236220000Y-91370400D03*
%TD*%
D13*
%TO.C,LED28*%
X198924934Y-52200000D03*
X195624934Y-52200000D03*
X198924934Y-57200000D03*
X195624934Y-57200000D03*
%TD*%
D25*
%TO.C,Q3*%
X222740701Y-88526402D03*
X222740701Y-89726402D03*
X222740701Y-90926402D03*
X222740701Y-92126402D03*
X222740701Y-93326402D03*
X222740701Y-94526402D03*
X222740701Y-95726400D03*
X222740701Y-96926400D03*
D26*
X230790701Y-92726401D03*
%TD*%
D18*
%TO.C,LED10*%
X214305600Y-159750000D03*
X217605600Y-159750000D03*
X214305600Y-154750000D03*
X217605600Y-154750000D03*
%TD*%
D25*
%TO.C,Q4*%
X222740701Y-102539800D03*
X222740701Y-103739800D03*
X222740701Y-104939800D03*
X222740701Y-106139800D03*
X222740701Y-107339800D03*
X222740701Y-108539800D03*
X222740701Y-109739798D03*
X222740701Y-110939798D03*
D26*
X230790701Y-106739799D03*
%TD*%
D27*
%TO.C,R9*%
X256900000Y-60450000D03*
X258900000Y-60450000D03*
%TD*%
D18*
%TO.C,LED7*%
X194801400Y-159750000D03*
X198101400Y-159750000D03*
X194801400Y-154750000D03*
X198101400Y-154750000D03*
%TD*%
D20*
%TO.C,C4*%
X262459999Y-139186100D03*
X262459999Y-137111100D03*
%TD*%
D28*
%TO.C,C1*%
X240800000Y-61900000D03*
X240800000Y-66218000D03*
%TD*%
D18*
%TO.C,LED15*%
X246812600Y-159750000D03*
X250112600Y-159750000D03*
X246812600Y-154750000D03*
X250112600Y-154750000D03*
%TD*%
D29*
%TO.C,C8*%
X187550000Y-125525000D03*
X187550000Y-127600000D03*
%TD*%
%TO.C,C9*%
X190025000Y-125537500D03*
X190025000Y-127612500D03*
%TD*%
D30*
%TO.C,TH2*%
X255425700Y-63090800D03*
X253600700Y-63090800D03*
%TD*%
D18*
%TO.C,LED17*%
X259815400Y-159750000D03*
X263115400Y-159750000D03*
X259815400Y-154750000D03*
X263115400Y-154750000D03*
%TD*%
%TO.C,LED4*%
X175297200Y-159750000D03*
X178597200Y-159750000D03*
X175297200Y-154750000D03*
X178597200Y-154750000D03*
%TD*%
D19*
%TO.C,D5*%
X251803400Y-139837400D03*
X253553400Y-139837400D03*
%TD*%
D25*
%TO.C,Q1*%
X222283501Y-65954801D03*
X222283501Y-67154801D03*
X222283501Y-68354801D03*
X222283501Y-69554801D03*
X222283501Y-70754801D03*
X222283501Y-71954801D03*
X222283501Y-73154799D03*
X222283501Y-74354799D03*
D26*
X230333501Y-70154800D03*
%TD*%
D22*
%TO.C,R7*%
X236372400Y-102190800D03*
X236372400Y-104190800D03*
%TD*%
D18*
%TO.C,LED16*%
X253314000Y-159750000D03*
X256614000Y-159750000D03*
X253314000Y-154750000D03*
X256614000Y-154750000D03*
%TD*%
D31*
%TO.C,U4*%
X262450001Y-142593600D03*
D32*
X260150000Y-149350000D03*
D31*
X257849999Y-142593600D03*
%TD*%
D33*
%TO.C,U2*%
X240385600Y-117983000D03*
D34*
X242925600Y-106972100D03*
D33*
X245465600Y-117983000D03*
%TD*%
D18*
%TO.C,LED3*%
X168795800Y-159750000D03*
X172095800Y-159750000D03*
X168795800Y-154750000D03*
X172095800Y-154750000D03*
%TD*%
D27*
%TO.C,R10*%
X257000000Y-75800000D03*
X259000000Y-75800000D03*
%TD*%
D35*
%TO.C,U14*%
X207612500Y-100100000D03*
X207612500Y-100750000D03*
X207612500Y-101400000D03*
X207612500Y-102050000D03*
X211837500Y-102050000D03*
X211837500Y-101400000D03*
X211837500Y-100750000D03*
X211837500Y-100100000D03*
%TD*%
D19*
%TO.C,D6*%
X251800800Y-141488400D03*
X253550800Y-141488400D03*
%TD*%
D18*
%TO.C,LED8*%
X201302800Y-159750000D03*
X204602800Y-159750000D03*
X201302800Y-154750000D03*
X204602800Y-154750000D03*
%TD*%
D13*
%TO.C,LED20*%
X250296438Y-52200000D03*
X246996438Y-52200000D03*
X250296438Y-57200000D03*
X246996438Y-57200000D03*
%TD*%
D33*
%TO.C,U1*%
X245313200Y-81445100D03*
D34*
X242773200Y-92456000D03*
D33*
X240233200Y-81445100D03*
%TD*%
D18*
%TO.C,LED2*%
X162294400Y-159750000D03*
X165594400Y-159750000D03*
X162294400Y-154750000D03*
X165594400Y-154750000D03*
%TD*%
D21*
%TO.C,R8*%
X240436400Y-101142800D03*
X238436400Y-101142800D03*
%TD*%
D18*
%TO.C,LED12*%
X227308400Y-159750000D03*
X230608400Y-159750000D03*
X227308400Y-154750000D03*
X230608400Y-154750000D03*
%TD*%
D36*
%TO.C,U7*%
X198133750Y-145599999D03*
X198133750Y-146250000D03*
X198133750Y-146900001D03*
X198133750Y-147550000D03*
X198133750Y-148199999D03*
X198133750Y-148850000D03*
X198133750Y-149499999D03*
X203988450Y-149500001D03*
X203988450Y-148850000D03*
X203988450Y-148200001D03*
X203988450Y-147550000D03*
X203988450Y-146900001D03*
X203988450Y-146250000D03*
X203988450Y-145600001D03*
%TD*%
D23*
%TO.C,C7*%
X175369400Y-120091200D03*
X177444400Y-120091200D03*
%TD*%
D18*
%TO.C,LED9*%
X207804200Y-159750000D03*
X211104200Y-159750000D03*
X207804200Y-154750000D03*
X211104200Y-154750000D03*
%TD*%
D37*
%TO.C,U11*%
X201875000Y-129019200D03*
X201225001Y-129019200D03*
X200575002Y-129019200D03*
X200575002Y-130975000D03*
X201225001Y-130975000D03*
X201875000Y-130975000D03*
%TD*%
D13*
%TO.C,LED29*%
X192503496Y-52200000D03*
X189203496Y-52200000D03*
X192503496Y-57200000D03*
X189203496Y-57200000D03*
%TD*%
D38*
%TO.C,TP1*%
X244650000Y-99500000D03*
%TD*%
D20*
%TO.C,C5*%
X257799199Y-139233000D03*
X257799199Y-137158000D03*
%TD*%
D13*
%TO.C,LED27*%
X205346372Y-52200000D03*
X202046372Y-52200000D03*
X205346372Y-57200000D03*
X202046372Y-57200000D03*
%TD*%
D19*
%TO.C,D8*%
X251789400Y-144892000D03*
X253539400Y-144892000D03*
%TD*%
D22*
%TO.C,R2*%
X236220000Y-95231200D03*
X236220000Y-97231200D03*
%TD*%
D14*
%TO.C,U8*%
X198470000Y-140187500D03*
X198470000Y-140837500D03*
X198470000Y-141487500D03*
X201130000Y-141487500D03*
X201130000Y-140187500D03*
%TD*%
D25*
%TO.C,Q2*%
X217355901Y-77080001D03*
X217355901Y-78280001D03*
X217355901Y-79480001D03*
X217355901Y-80680001D03*
X217355901Y-81880001D03*
X217355901Y-83080001D03*
X217355901Y-84279999D03*
X217355901Y-85479999D03*
D26*
X225405901Y-81280000D03*
%TD*%
D29*
%TO.C,C3*%
X236321600Y-129467700D03*
X236321600Y-131542700D03*
%TD*%
D13*
%TO.C,LED21*%
X243875000Y-52200000D03*
X240575000Y-52200000D03*
X243875000Y-57200000D03*
X240575000Y-57200000D03*
%TD*%
%TO.C,LED22*%
X237453562Y-52200000D03*
X234153562Y-52200000D03*
X237453562Y-57200000D03*
X234153562Y-57200000D03*
%TD*%
D39*
%TO.C,R21*%
X242087400Y-151205999D03*
X242087400Y-150405999D03*
X242087400Y-149606000D03*
X242087400Y-148805999D03*
X242087400Y-148006001D03*
X242087400Y-147206000D03*
X242087400Y-146405999D03*
X242087400Y-145606001D03*
X240284000Y-145606001D03*
X240284000Y-146406001D03*
X240284000Y-147206000D03*
X240284000Y-148006001D03*
X240284000Y-148805999D03*
X240284000Y-149606000D03*
X240284000Y-150406001D03*
X240284000Y-151205999D03*
%TD*%
D17*
%TO.C,R4*%
X249485900Y-69542400D03*
X251310900Y-69542400D03*
%TD*%
D25*
%TO.C,Q5*%
X217398600Y-114116000D03*
X217398600Y-115316000D03*
X217398600Y-116516000D03*
X217398600Y-117716000D03*
X217398600Y-118916000D03*
X217398600Y-120116000D03*
X217398600Y-121315998D03*
X217398600Y-122515998D03*
D26*
X225448600Y-118315999D03*
%TD*%
D22*
%TO.C,R15*%
X192350000Y-129575000D03*
X192350000Y-131575000D03*
%TD*%
D19*
%TO.C,D7*%
X251803400Y-138161000D03*
X253553400Y-138161000D03*
%TD*%
%TO.C,D12*%
X251750000Y-151750000D03*
X253500000Y-151750000D03*
%TD*%
%TO.C,D11*%
X251772800Y-148321000D03*
X253522800Y-148321000D03*
%TD*%
D24*
%TO.C,R6*%
X236372400Y-108137200D03*
X236372400Y-106137200D03*
%TD*%
D25*
%TO.C,Q6*%
X222740701Y-125850800D03*
X222740701Y-127050800D03*
X222740701Y-128250800D03*
X222740701Y-129450800D03*
X222740701Y-130650800D03*
X222740701Y-131850800D03*
X222740701Y-133050798D03*
X222740701Y-134250798D03*
D26*
X230790701Y-130050799D03*
%TD*%
D40*
%TO.C,R14*%
X172907500Y-125310000D03*
X172907500Y-130390000D03*
%TD*%
D21*
%TO.C,R3*%
X240455200Y-98196400D03*
X238455200Y-98196400D03*
%TD*%
D41*
%TO.C,U3*%
X253299080Y-70787000D03*
X254569080Y-70787000D03*
X255839080Y-70787000D03*
X257109080Y-70787000D03*
X257109080Y-65859400D03*
X255839080Y-65859400D03*
X254569080Y-65859400D03*
X253299080Y-65859400D03*
%TD*%
D13*
%TO.C,LED25*%
X218189248Y-52200000D03*
X214889248Y-52200000D03*
X218189248Y-57200000D03*
X214889248Y-57200000D03*
%TD*%
%TO.C,LED26*%
X211767810Y-52200000D03*
X208467810Y-52200000D03*
X211767810Y-57200000D03*
X208467810Y-57200000D03*
%TD*%
D42*
%TO.C,D3*%
X175900000Y-115375000D03*
X175900000Y-111375000D03*
%TD*%
D13*
%TO.C,LED23*%
X231032124Y-52200000D03*
X227732124Y-52200000D03*
X231032124Y-57200000D03*
X227732124Y-57200000D03*
%TD*%
D18*
%TO.C,LED13*%
X233809800Y-159750000D03*
X237109800Y-159750000D03*
X233809800Y-154750000D03*
X237109800Y-154750000D03*
%TD*%
D19*
%TO.C,D4*%
X251803400Y-143215600D03*
X253553400Y-143215600D03*
%TD*%
D13*
%TO.C,LED19*%
X256717876Y-52200000D03*
X253417876Y-52200000D03*
X256717876Y-57200000D03*
X253417876Y-57200000D03*
%TD*%
D22*
%TO.C,R11*%
X258850000Y-62400000D03*
X258850000Y-64400000D03*
%TD*%
D18*
%TO.C,LED11*%
X220807000Y-159750000D03*
X224107000Y-159750000D03*
X220807000Y-154750000D03*
X224107000Y-154750000D03*
%TD*%
D19*
%TO.C,D10*%
X251772800Y-146593800D03*
X253522800Y-146593800D03*
%TD*%
D43*
%TO.C,TH1*%
X259517000Y-67387200D03*
X259517000Y-69212200D03*
%TD*%
D14*
%TO.C,U13*%
X207015000Y-137750000D03*
X207015000Y-138400000D03*
X207015000Y-139050000D03*
X209675000Y-139050000D03*
X209675000Y-137750000D03*
%TD*%
D44*
%TO.C,JP12*%
X168675000Y-130537500D03*
X168675000Y-125162500D03*
%TD*%
D22*
%TO.C,R16*%
X214425000Y-100075000D03*
X214425000Y-102075000D03*
%TD*%
D18*
%TO.C,LED14*%
X240311200Y-159750000D03*
X243611200Y-159750000D03*
X240311200Y-154750000D03*
X243611200Y-154750000D03*
%TD*%
D13*
%TO.C,LED24*%
X224610686Y-52200000D03*
X221310686Y-52200000D03*
X224610686Y-57200000D03*
X221310686Y-57200000D03*
%TD*%
M02*
