%TF.GenerationSoftware,KiCad,Pcbnew,8.0.3*%
%TF.CreationDate,2025-06-02T03:08:14-07:00*%
%TF.ProjectId,Power_ManagementV2,506f7765-725f-44d6-916e-6167656d656e,rev?*%
%TF.SameCoordinates,Original*%
%TF.FileFunction,Soldermask,Bot*%
%TF.FilePolarity,Negative*%
%FSLAX46Y46*%
G04 Gerber Fmt 4.6, Leading zero omitted, Abs format (unit mm)*
G04 Created by KiCad (PCBNEW 8.0.3) date 2025-06-02 03:08:14*
%MOMM*%
%LPD*%
G01*
G04 APERTURE LIST*
G04 Aperture macros list*
%AMRoundRect*
0 Rectangle with rounded corners*
0 $1 Rounding radius*
0 $2 $3 $4 $5 $6 $7 $8 $9 X,Y pos of 4 corners*
0 Add a 4 corners polygon primitive as box body*
4,1,4,$2,$3,$4,$5,$6,$7,$8,$9,$2,$3,0*
0 Add four circle primitives for the rounded corners*
1,1,$1+$1,$2,$3*
1,1,$1+$1,$4,$5*
1,1,$1+$1,$6,$7*
1,1,$1+$1,$8,$9*
0 Add four rect primitives between the rounded corners*
20,1,$1+$1,$2,$3,$4,$5,0*
20,1,$1+$1,$4,$5,$6,$7,0*
20,1,$1+$1,$6,$7,$8,$9,0*
20,1,$1+$1,$8,$9,$2,$3,0*%
%AMFreePoly0*
4,1,64,2.219304,2.963065,2.677052,2.853170,3.111972,2.673020,3.513357,2.427051,3.871321,2.121320,4.177052,1.763356,4.423021,1.361971,4.603171,0.927051,4.713066,0.469303,4.750001,0.000000,4.713066,-0.469303,4.603171,-0.927051,4.423021,-1.361971,4.177052,-1.763356,3.871321,-2.121320,3.513357,-2.427051,3.111972,-2.673020,2.677052,-2.853170,2.219304,-2.963065,1.750001,-3.000000,
-2.249999,-3.000000,-2.397706,-2.996361,-2.545055,-2.985454,-2.691689,-2.967306,-2.837251,-2.941960,-2.981388,-2.909478,-3.123751,-2.869938,-3.263995,-2.823437,-3.401780,-2.770088,-3.536770,-2.710019,-3.668639,-2.643376,-3.797067,-2.570322,-3.921743,-2.491033,-4.042363,-2.405702,-4.158636,-2.314536,-4.270279,-2.217755,-4.377022,-2.115595,-4.478605,-2.008303,-4.574782,-1.896139,-4.665320,-1.779377,
-4.750000,-1.658298,-4.750001,1.658297,-4.665322,1.779376,-4.574783,1.896139,-4.478606,2.008302,-4.377023,2.115594,-4.270281,2.217755,-4.158637,2.314535,-4.042365,2.405702,-3.921744,2.491033,-3.797069,2.570322,-3.668640,2.643376,-3.536771,2.710019,-3.401780,2.770087,-3.263996,2.823437,-3.123752,2.869937,-2.981389,2.909477,-2.837251,2.941959,-2.691689,2.967304,-2.545056,2.985452,
-2.397706,2.996359,-2.249999,2.999997,1.750001,3.000000,2.219304,2.963065,2.219304,2.963065,$1*%
%AMFreePoly1*
4,1,64,2.397707,2.996361,2.545056,2.985454,2.691689,2.967306,2.837251,2.941960,2.981388,2.909477,3.123751,2.869938,3.263995,2.823437,3.401779,2.770087,3.536770,2.710019,3.668639,2.643376,3.797067,2.570322,3.921742,2.491033,4.042363,2.405702,4.158635,2.314536,4.270278,2.217755,4.377021,2.115595,4.478604,2.008303,4.574782,1.896140,4.665320,1.779378,4.750000,1.658299,
4.750001,-1.658298,4.665321,-1.779377,4.574783,-1.896139,4.478606,-2.008303,4.377022,-2.115595,4.270280,-2.217755,4.158637,-2.314536,4.042364,-2.405702,3.921744,-2.491033,3.797068,-2.570322,3.668640,-2.643376,3.536771,-2.710019,3.401780,-2.770087,3.263996,-2.823437,3.123752,-2.869937,2.981389,-2.909477,2.837251,-2.941959,2.691689,-2.967305,2.545056,-2.985453,2.397707,-2.996360,
2.250000,-2.999998,-1.750001,-3.000000,-2.219304,-2.963065,-2.677051,-2.853170,-3.111972,-2.673020,-3.513356,-2.427051,-3.871321,-2.121320,-4.177051,-1.763356,-4.423020,-1.361971,-4.603170,-0.927051,-4.713066,-0.469303,-4.750001,0.000000,-4.713066,0.469303,-4.603170,0.927051,-4.423020,1.361971,-4.177051,1.763356,-3.871321,2.121320,-3.513356,2.427051,-3.111972,2.673020,-2.677051,2.853170,
-2.219304,2.963065,-1.750001,3.000000,2.250000,3.000000,2.397707,2.996361,2.397707,2.996361,$1*%
G04 Aperture macros list end*
%ADD10R,1.300000X2.300000*%
%ADD11C,4.100000*%
%ADD12RoundRect,1.025000X-1.025000X1.025000X-1.025000X-1.025000X1.025000X-1.025000X1.025000X1.025000X0*%
%ADD13R,2.000000X0.900000*%
%ADD14C,1.498600*%
%ADD15R,1.498600X1.498600*%
%ADD16C,1.574800*%
%ADD17C,2.971800*%
%ADD18C,3.200000*%
%ADD19R,1.500000X1.500000*%
%ADD20C,1.500000*%
%ADD21C,3.000000*%
%ADD22R,2.400000X2.400000*%
%ADD23C,2.400000*%
%ADD24RoundRect,0.102000X-0.754000X-0.754000X0.754000X-0.754000X0.754000X0.754000X-0.754000X0.754000X0*%
%ADD25C,1.712000*%
%ADD26C,1.400000*%
%ADD27R,3.500000X3.500000*%
%ADD28C,3.500000*%
%ADD29R,1.700000X1.700000*%
%ADD30O,1.700000X1.700000*%
%ADD31RoundRect,0.102000X0.609000X0.609000X-0.609000X0.609000X-0.609000X-0.609000X0.609000X-0.609000X0*%
%ADD32C,1.422000*%
%ADD33RoundRect,1.025000X1.025000X-1.025000X1.025000X1.025000X-1.025000X1.025000X-1.025000X-1.025000X0*%
%ADD34R,1.800000X1.800000*%
%ADD35C,1.800000*%
%ADD36RoundRect,1.300000X-2.000000X-0.000010X2.000000X-0.000010X2.000000X0.000010X-2.000000X0.000010X0*%
%ADD37FreePoly0,0.000000*%
%ADD38FreePoly1,0.000000*%
%ADD39C,2.979000*%
%ADD40RoundRect,0.102000X1.387500X1.387500X-1.387500X1.387500X-1.387500X-1.387500X1.387500X-1.387500X0*%
G04 APERTURE END LIST*
D10*
%TO.C,J2*%
X257967600Y-108356400D03*
D11*
X254317600Y-111956400D03*
D12*
X254317600Y-104756400D03*
D13*
X260317600Y-115106400D03*
X260317600Y-101606400D03*
%TD*%
D14*
%TO.C,D2*%
X254594480Y-60500000D03*
D15*
X245694320Y-60500000D03*
%TD*%
D16*
%TO.C,J9*%
X160274000Y-89183350D03*
X160274000Y-86183351D03*
X163273999Y-89183350D03*
X163273999Y-86183351D03*
D17*
X155953998Y-84033350D03*
X155953998Y-91333351D03*
%TD*%
D18*
%TO.C,H1*%
X191350000Y-73000000D03*
%TD*%
D19*
%TO.C,J7*%
X170355000Y-67525000D03*
D20*
X170355000Y-70025000D03*
X170355000Y-72025000D03*
X170355000Y-74525000D03*
X167735000Y-67525000D03*
X167735000Y-70025000D03*
X167735000Y-72025000D03*
X167735000Y-74525000D03*
D21*
X170705000Y-64455000D03*
X165025000Y-64455000D03*
X170705000Y-77595000D03*
X165025000Y-77595000D03*
%TD*%
D22*
%TO.C,C11*%
X163042600Y-140606846D03*
D23*
X163042600Y-148106846D03*
%TD*%
D14*
%TO.C,D1*%
X254543680Y-73915000D03*
D15*
X245643520Y-73915000D03*
%TD*%
D24*
%TO.C,J8*%
X159500000Y-57290000D03*
D25*
X159500000Y-54750000D03*
X162040000Y-57290000D03*
X162040000Y-54750000D03*
X164580000Y-57290000D03*
X164580000Y-54750000D03*
X167120000Y-57290000D03*
X167120000Y-54750000D03*
X169660000Y-57290000D03*
X169660000Y-54750000D03*
X172200000Y-57290000D03*
X172200000Y-54750000D03*
X174740000Y-57290000D03*
X174740000Y-54750000D03*
X177280000Y-57290000D03*
X177280000Y-54750000D03*
X179820000Y-57290000D03*
X179820000Y-54750000D03*
X182360000Y-57290000D03*
X182360000Y-54750000D03*
%TD*%
D18*
%TO.C,H2*%
X191350000Y-137000000D03*
%TD*%
D26*
%TO.C,J6*%
X157750000Y-131700000D03*
X157750000Y-120700000D03*
D27*
X162750000Y-128700000D03*
D28*
X162750000Y-123700000D03*
%TD*%
D18*
%TO.C,H4*%
X239350000Y-73000000D03*
%TD*%
D29*
%TO.C,J3*%
X194125000Y-78450000D03*
D30*
X191585000Y-78450000D03*
X189045000Y-78450000D03*
X186505000Y-78450000D03*
X183965000Y-78450000D03*
X181425000Y-78450000D03*
X178885000Y-78450000D03*
X176345000Y-78450000D03*
%TD*%
D31*
%TO.C,VR2*%
X225740400Y-149565600D03*
D32*
X223200400Y-149565600D03*
X220660400Y-149565600D03*
%TD*%
D22*
%TO.C,C10*%
X180060600Y-140606292D03*
D23*
X180060600Y-148106292D03*
%TD*%
D29*
%TO.C,J4*%
X194125000Y-91150000D03*
D30*
X191585000Y-91150000D03*
X189045000Y-91150000D03*
X186505000Y-91150000D03*
X183965000Y-91150000D03*
X181425000Y-91150000D03*
X178885000Y-91150000D03*
X176345000Y-91150000D03*
%TD*%
D31*
%TO.C,VR1*%
X225740400Y-143799800D03*
D32*
X223200400Y-143799800D03*
X220660400Y-143799800D03*
%TD*%
D18*
%TO.C,H3*%
X239350000Y-137000000D03*
%TD*%
D30*
%TO.C,PM2*%
X259170000Y-129840000D03*
X256630000Y-129840000D03*
D29*
X254090000Y-129840000D03*
%TD*%
D13*
%TO.C,J5*%
X156050000Y-112950000D03*
X156050000Y-99450000D03*
D33*
X162050000Y-102600000D03*
D11*
X162050000Y-109800000D03*
%TD*%
D34*
%TO.C,U5*%
X186790100Y-122099999D03*
D35*
X188700100Y-122099999D03*
X190610100Y-122099999D03*
D36*
X193700100Y-100700000D03*
D37*
X193950099Y-100700000D03*
D38*
X183450100Y-100700000D03*
%TD*%
D39*
%TO.C,S1*%
X232650000Y-140950000D03*
X232650000Y-145650000D03*
D40*
X232650000Y-150350000D03*
%TD*%
D30*
%TO.C,PM1*%
X245808300Y-129907700D03*
X243268300Y-129907700D03*
D29*
X240728300Y-129907700D03*
%TD*%
D10*
%TO.C,J1*%
X261149600Y-91446400D03*
D11*
X257499600Y-95046400D03*
D12*
X257499600Y-87846400D03*
D13*
X263499600Y-98196400D03*
X263499600Y-84696400D03*
%TD*%
M02*
