%TF.GenerationSoftware,KiCad,Pcbnew,8.0.3*%
%TF.CreationDate,2025-06-03T03:43:44-07:00*%
%TF.ProjectId,Power_Distribution,506f7765-725f-4446-9973-747269627574,rev?*%
%TF.SameCoordinates,Original*%
%TF.FileFunction,Drillmap*%
%TF.FilePolarity,Positive*%
%FSLAX45Y45*%
G04 Gerber Fmt 4.5, Leading zero omitted, Abs format (unit mm)*
G04 Created by KiCad (PCBNEW 8.0.3) date 2025-06-03 03:43:44*
%MOMM*%
%LPD*%
G01*
G04 APERTURE LIST*
%ADD10C,0.100000*%
%ADD11C,0.200000*%
%ADD12C,0.106680*%
%ADD13C,0.270000*%
G04 APERTURE END LIST*
D10*
X8153640Y-5227320D02*
X21153640Y-5227320D01*
X21153640Y-11227320D01*
X8153640Y-11227320D01*
X8153640Y-5227320D01*
D11*
D10*
X8388000Y-5887000D02*
X8428000Y-5927000D01*
X8428000Y-5887000D02*
X8388000Y-5927000D01*
X8837120Y-8285800D02*
X8877120Y-8325800D01*
X8877120Y-8285800D02*
X8837120Y-8325800D01*
X8910000Y-10768000D02*
X8950000Y-10808000D01*
X8950000Y-10768000D02*
X8910000Y-10808000D01*
X8916000Y-9870000D02*
X8956000Y-9910000D01*
X8956000Y-9870000D02*
X8916000Y-9910000D01*
X9040000Y-7960000D02*
X9080000Y-8000000D01*
X9080000Y-7960000D02*
X9040000Y-8000000D01*
X9099000Y-6746000D02*
X9139000Y-6786000D01*
X9139000Y-6746000D02*
X9099000Y-6786000D01*
X9104000Y-10005000D02*
X9144000Y-10045000D01*
X9144000Y-10005000D02*
X9104000Y-10045000D01*
X9171113Y-10712113D02*
X9211113Y-10752113D01*
X9211113Y-10712113D02*
X9171113Y-10752113D01*
X9197000Y-8390000D02*
X9237000Y-8430000D01*
X9237000Y-8390000D02*
X9197000Y-8430000D01*
X9202000Y-6745000D02*
X9242000Y-6785000D01*
X9242000Y-6745000D02*
X9202000Y-6785000D01*
X9213482Y-8063000D02*
X9253482Y-8103000D01*
X9253482Y-8063000D02*
X9213482Y-8103000D01*
X9307996Y-10575230D02*
X9347996Y-10615230D01*
X9347996Y-10575230D02*
X9307996Y-10615230D01*
X9458000Y-10328000D02*
X9498000Y-10368000D01*
X9498000Y-10328000D02*
X9458000Y-10368000D01*
X9476884Y-11005725D02*
X9516884Y-11045725D01*
X9516884Y-11005725D02*
X9476884Y-11045725D01*
X9626000Y-10125000D02*
X9666000Y-10165000D01*
X9666000Y-10125000D02*
X9626000Y-10165000D01*
X9628000Y-10014000D02*
X9668000Y-10054000D01*
X9668000Y-10014000D02*
X9628000Y-10054000D01*
X10068100Y-8483920D02*
X10108100Y-8523920D01*
X10108100Y-8483920D02*
X10068100Y-8523920D01*
X10087050Y-8036880D02*
X10127050Y-8076880D01*
X10127050Y-8036880D02*
X10087050Y-8076880D01*
X10088000Y-9419000D02*
X10128000Y-9459000D01*
X10128000Y-9419000D02*
X10088000Y-9459000D01*
X10115680Y-9717291D02*
X10155680Y-9757291D01*
X10155680Y-9717291D02*
X10115680Y-9757291D01*
X10188170Y-9413512D02*
X10228170Y-9453512D01*
X10228170Y-9413512D02*
X10188170Y-9453512D01*
X10288487Y-9412712D02*
X10328487Y-9452712D01*
X10328487Y-9412712D02*
X10288487Y-9452712D01*
X10292000Y-10933000D02*
X10332000Y-10973000D01*
X10332000Y-10933000D02*
X10292000Y-10973000D01*
X10329000Y-10835000D02*
X10369000Y-10875000D01*
X10369000Y-10835000D02*
X10329000Y-10875000D01*
X10357240Y-8290880D02*
X10397240Y-8330880D01*
X10397240Y-8290880D02*
X10357240Y-8330880D01*
X10388707Y-9408230D02*
X10428707Y-9448230D01*
X10428707Y-9408230D02*
X10388707Y-9448230D01*
X10418000Y-10498000D02*
X10458000Y-10538000D01*
X10458000Y-10498000D02*
X10418000Y-10538000D01*
X10501860Y-8107611D02*
X10541860Y-8147611D01*
X10541860Y-8107611D02*
X10501860Y-8147611D01*
X10572000Y-10410000D02*
X10612000Y-10450000D01*
X10612000Y-10410000D02*
X10572000Y-10450000D01*
X10573000Y-9736000D02*
X10613000Y-9776000D01*
X10613000Y-9736000D02*
X10573000Y-9776000D01*
X10586615Y-7907134D02*
X10626615Y-7947134D01*
X10626615Y-7907134D02*
X10586615Y-7947134D01*
X10635000Y-10524000D02*
X10675000Y-10564000D01*
X10675000Y-10524000D02*
X10635000Y-10564000D01*
X10799063Y-9402756D02*
X10839063Y-9442756D01*
X10839063Y-9402756D02*
X10799063Y-9442756D01*
X10883163Y-10479680D02*
X10923163Y-10519680D01*
X10923163Y-10479680D02*
X10883163Y-10519680D01*
X10907522Y-10716880D02*
X10947522Y-10756880D01*
X10947522Y-10716880D02*
X10907522Y-10756880D01*
X10923529Y-10944782D02*
X10963529Y-10984782D01*
X10963529Y-10944782D02*
X10923529Y-10984782D01*
X10936000Y-9405000D02*
X10976000Y-9445000D01*
X10976000Y-9405000D02*
X10936000Y-9445000D01*
X10962304Y-9993239D02*
X11002304Y-10033239D01*
X11002304Y-9993239D02*
X10962304Y-10033239D01*
X11012018Y-9855680D02*
X11052018Y-9895680D01*
X11052018Y-9855680D02*
X11012018Y-9895680D01*
X11154122Y-10480021D02*
X11194122Y-10520021D01*
X11194122Y-10480021D02*
X11154122Y-10520021D01*
X11162254Y-8225759D02*
X11202254Y-8265759D01*
X11202254Y-8225759D02*
X11162254Y-8265759D01*
X11255000Y-8264000D02*
X11295000Y-8304000D01*
X11295000Y-8264000D02*
X11255000Y-8304000D01*
X11258799Y-8364248D02*
X11298799Y-8404248D01*
X11298799Y-8364248D02*
X11258799Y-8404248D01*
X11305242Y-10509448D02*
X11345242Y-10549448D01*
X11345242Y-10509448D02*
X11305242Y-10549448D01*
X11323000Y-7711000D02*
X11363000Y-7751000D01*
X11363000Y-7711000D02*
X11323000Y-7751000D01*
X11374000Y-9910000D02*
X11414000Y-9950000D01*
X11414000Y-9910000D02*
X11374000Y-9950000D01*
X11388667Y-10247560D02*
X11428667Y-10287560D01*
X11428667Y-10247560D02*
X11388667Y-10287560D01*
X11411737Y-7979237D02*
X11451737Y-8019237D01*
X11451737Y-7979237D02*
X11411737Y-8019237D01*
X11564560Y-10431370D02*
X11604560Y-10471370D01*
X11604560Y-10431370D02*
X11564560Y-10471370D01*
X11612877Y-7937107D02*
X11652877Y-7977107D01*
X11652877Y-7937107D02*
X11612877Y-7977107D01*
X11678008Y-7710008D02*
X11718008Y-7750008D01*
X11718008Y-7710008D02*
X11678008Y-7750008D01*
X11784000Y-10535000D02*
X11824000Y-10575000D01*
X11824000Y-10535000D02*
X11784000Y-10575000D01*
X11834026Y-7772526D02*
X11874026Y-7812526D01*
X11874026Y-7772526D02*
X11834026Y-7812526D01*
X11994000Y-7718000D02*
X12034000Y-7758000D01*
X12034000Y-7718000D02*
X11994000Y-7758000D01*
X12078160Y-8295960D02*
X12118160Y-8335960D01*
X12118160Y-8295960D02*
X12078160Y-8335960D01*
X12092500Y-10362500D02*
X12132500Y-10402500D01*
X12132500Y-10362500D02*
X12092500Y-10402500D01*
X12220000Y-7962500D02*
X12260000Y-8002500D01*
X12260000Y-7962500D02*
X12220000Y-8002500D01*
X12360280Y-8037817D02*
X12400280Y-8077817D01*
X12400280Y-8037817D02*
X12360280Y-8077817D01*
X12446000Y-7924000D02*
X12486000Y-7964000D01*
X12486000Y-7924000D02*
X12446000Y-7964000D01*
X12511180Y-10323170D02*
X12551180Y-10363170D01*
X12551180Y-10323170D02*
X12511180Y-10363170D01*
X12584000Y-10489000D02*
X12624000Y-10529000D01*
X12624000Y-10489000D02*
X12584000Y-10529000D01*
X12688000Y-10082000D02*
X12728000Y-10122000D01*
X12728000Y-10082000D02*
X12688000Y-10122000D01*
X12830000Y-10082000D02*
X12870000Y-10122000D01*
X12870000Y-10082000D02*
X12830000Y-10122000D01*
X12907500Y-7940000D02*
X12947500Y-7980000D01*
X12947500Y-7940000D02*
X12907500Y-7980000D01*
X13073000Y-7329320D02*
X13113000Y-7369320D01*
X13113000Y-7329320D02*
X13073000Y-7369320D01*
X13206000Y-10412560D02*
X13246000Y-10452560D01*
X13246000Y-10412560D02*
X13206000Y-10452560D01*
X13238800Y-8041960D02*
X13278800Y-8081960D01*
X13278800Y-8041960D02*
X13238800Y-8081960D01*
X13254000Y-10095000D02*
X13294000Y-10135000D01*
X13294000Y-10095000D02*
X13254000Y-10135000D01*
X13291000Y-9411000D02*
X13331000Y-9451000D01*
X13331000Y-9411000D02*
X13291000Y-9451000D01*
X13370000Y-7299000D02*
X13410000Y-7339000D01*
X13410000Y-7299000D02*
X13370000Y-7339000D01*
X13472440Y-10933440D02*
X13512440Y-10973440D01*
X13512440Y-10933440D02*
X13472440Y-10973440D01*
X13596831Y-10003880D02*
X13636831Y-10043880D01*
X13636831Y-10003880D02*
X13596831Y-10043880D01*
X13710551Y-8083987D02*
X13750551Y-8123987D01*
X13750551Y-8083987D02*
X13710551Y-8123987D01*
X13801000Y-10998000D02*
X13841000Y-11038000D01*
X13841000Y-10998000D02*
X13801000Y-11038000D01*
X13816210Y-10720057D02*
X13856210Y-10760057D01*
X13856210Y-10720057D02*
X13816210Y-10760057D01*
X13910204Y-11066040D02*
X13950204Y-11106040D01*
X13950204Y-11066040D02*
X13910204Y-11106040D01*
X13958000Y-7816000D02*
X13998000Y-7856000D01*
X13998000Y-7816000D02*
X13958000Y-7856000D01*
X14153000Y-10082000D02*
X14193000Y-10122000D01*
X14193000Y-10082000D02*
X14153000Y-10122000D01*
X14188000Y-9688000D02*
X14228000Y-9728000D01*
X14228000Y-9688000D02*
X14188000Y-9728000D01*
X14222000Y-7154000D02*
X14262000Y-7194000D01*
X14262000Y-7154000D02*
X14222000Y-7194000D01*
X14378000Y-7368000D02*
X14418000Y-7408000D01*
X14418000Y-7368000D02*
X14378000Y-7408000D01*
X14394104Y-9908900D02*
X14434104Y-9948900D01*
X14434104Y-9908900D02*
X14394104Y-9948900D01*
X14396000Y-8219000D02*
X14436000Y-8259000D01*
X14436000Y-8219000D02*
X14396000Y-8259000D01*
X14415736Y-11137782D02*
X14455736Y-11177782D01*
X14455736Y-11137782D02*
X14415736Y-11177782D01*
X14416000Y-8536000D02*
X14456000Y-8576000D01*
X14456000Y-8536000D02*
X14416000Y-8576000D01*
X14431040Y-8435726D02*
X14471040Y-8475726D01*
X14471040Y-8435726D02*
X14431040Y-8475726D01*
X14697559Y-11087790D02*
X14737559Y-11127790D01*
X14737559Y-11087790D02*
X14697559Y-11127790D01*
X14727500Y-8030000D02*
X14767500Y-8070000D01*
X14767500Y-8030000D02*
X14727500Y-8070000D01*
X14791000Y-10952000D02*
X14831000Y-10992000D01*
X14831000Y-10952000D02*
X14791000Y-10992000D01*
X14905590Y-8304496D02*
X14945590Y-8344496D01*
X14945590Y-8304496D02*
X14905590Y-8344496D01*
X14919000Y-11124000D02*
X14959000Y-11164000D01*
X14959000Y-11124000D02*
X14919000Y-11164000D01*
X14993550Y-8417880D02*
X15033550Y-8457880D01*
X15033550Y-8417880D02*
X14993550Y-8457880D01*
X15169000Y-10208000D02*
X15209000Y-10248000D01*
X15209000Y-10208000D02*
X15169000Y-10248000D01*
X15374268Y-9859442D02*
X15414268Y-9899442D01*
X15414268Y-9859442D02*
X15374268Y-9899442D01*
X15578440Y-7537003D02*
X15618440Y-7577003D01*
X15618440Y-7537003D02*
X15578440Y-7577003D01*
X15579232Y-7690701D02*
X15619232Y-7730701D01*
X15619232Y-7690701D02*
X15579232Y-7730701D01*
X15678000Y-11079000D02*
X15718000Y-11119000D01*
X15718000Y-11079000D02*
X15678000Y-11119000D01*
X16131560Y-7809654D02*
X16171560Y-7849654D01*
X16171560Y-7809654D02*
X16131560Y-7849654D01*
X16162000Y-7691000D02*
X16202000Y-7731000D01*
X16202000Y-7691000D02*
X16162000Y-7731000D01*
X16462000Y-7229000D02*
X16502000Y-7269000D01*
X16502000Y-7229000D02*
X16462000Y-7269000D01*
X16705000Y-7815000D02*
X16745000Y-7855000D01*
X16745000Y-7815000D02*
X16705000Y-7855000D01*
X16803000Y-9632000D02*
X16843000Y-9672000D01*
X16843000Y-9632000D02*
X16803000Y-9672000D01*
X16980680Y-7812819D02*
X17020680Y-7852819D01*
X17020680Y-7812819D02*
X16980680Y-7852819D01*
X17052000Y-9971730D02*
X17092000Y-10011730D01*
X17092000Y-9971730D02*
X17052000Y-10011730D01*
X17055000Y-9778000D02*
X17095000Y-9818000D01*
X17095000Y-9778000D02*
X17055000Y-9818000D01*
X17100657Y-7681483D02*
X17140657Y-7721483D01*
X17140657Y-7681483D02*
X17100657Y-7721483D01*
X17592000Y-7741000D02*
X17632000Y-7781000D01*
X17632000Y-7741000D02*
X17592000Y-7781000D01*
X17677720Y-7829720D02*
X17717720Y-7869720D01*
X17717720Y-7829720D02*
X17677720Y-7869720D01*
X18165000Y-7277000D02*
X18205000Y-7317000D01*
X18205000Y-7277000D02*
X18165000Y-7317000D01*
X18347000Y-7773000D02*
X18387000Y-7813000D01*
X18387000Y-7773000D02*
X18347000Y-7813000D01*
X18632000Y-7829000D02*
X18672000Y-7869000D01*
X18672000Y-7829000D02*
X18632000Y-7869000D01*
X18801000Y-7326000D02*
X18841000Y-7366000D01*
X18841000Y-7326000D02*
X18801000Y-7366000D01*
X18856702Y-7798254D02*
X18896702Y-7838254D01*
X18896702Y-7798254D02*
X18856702Y-7838254D01*
X18879037Y-7692263D02*
X18919037Y-7732263D01*
X18919037Y-7692263D02*
X18879037Y-7732263D01*
X18881000Y-7922000D02*
X18921000Y-7962000D01*
X18921000Y-7922000D02*
X18881000Y-7962000D01*
X19181000Y-7316000D02*
X19221000Y-7356000D01*
X19221000Y-7316000D02*
X19181000Y-7356000D01*
X19345000Y-7698000D02*
X19385000Y-7738000D01*
X19385000Y-7698000D02*
X19345000Y-7738000D01*
X19440684Y-7728144D02*
X19480684Y-7768144D01*
X19480684Y-7728144D02*
X19440684Y-7768144D01*
X19561250Y-8443280D02*
X19601250Y-8483280D01*
X19601250Y-8443280D02*
X19561250Y-8483280D01*
X19713305Y-6729000D02*
X19753305Y-6769000D01*
X19753305Y-6729000D02*
X19713305Y-6769000D01*
X20225000Y-5536000D02*
X20265000Y-5576000D01*
X20265000Y-5536000D02*
X20225000Y-5576000D01*
X19534740Y-8590327D02*
G75*
G02*
X19474740Y-8590327I-30000J0D01*
G01*
X19474740Y-8590327D02*
G75*
G02*
X19534740Y-8590327I30000J0D01*
G01*
X18502000Y-10108000D02*
X18502000Y-10168000D01*
X18472000Y-10138000D02*
X18532000Y-10138000D01*
X18532000Y-10193000D02*
X18532000Y-10083000D01*
X18472000Y-10083000D02*
G75*
G02*
X18532000Y-10083000I30000J0D01*
G01*
X18472000Y-10083000D02*
X18472000Y-10193000D01*
X18472000Y-10193000D02*
G75*
G03*
X18532000Y-10193000I30000J0D01*
G01*
X19852000Y-10108000D02*
X19852000Y-10168000D01*
X19822000Y-10138000D02*
X19882000Y-10138000D01*
X19882000Y-10193000D02*
X19882000Y-10083000D01*
X19822000Y-10083000D02*
G75*
G02*
X19882000Y-10083000I30000J0D01*
G01*
X19822000Y-10083000D02*
X19822000Y-10193000D01*
X19822000Y-10193000D02*
G75*
G03*
X19882000Y-10193000I30000J0D01*
G01*
X10564356Y-9598556D02*
X10564356Y-9527844D01*
X10493644Y-9527844D01*
X10493644Y-9598556D01*
X10564356Y-9598556D01*
X10564356Y-10868556D02*
X10564356Y-10797844D01*
X10493644Y-10797844D01*
X10493644Y-10868556D01*
X10564356Y-10868556D01*
X10818356Y-9598556D02*
X10818356Y-9527844D01*
X10747644Y-9527844D01*
X10747644Y-9598556D01*
X10818356Y-9598556D01*
X10818356Y-10868556D02*
X10818356Y-10797844D01*
X10747644Y-10797844D01*
X10747644Y-10868556D01*
X10818356Y-10868556D01*
X11072356Y-9598556D02*
X11072356Y-9527844D01*
X11001644Y-9527844D01*
X11001644Y-9598556D01*
X11072356Y-9598556D01*
X11072356Y-10868556D02*
X11072356Y-10797844D01*
X11001644Y-10797844D01*
X11001644Y-10868556D01*
X11072356Y-10868556D01*
X11326356Y-9598556D02*
X11326356Y-9527844D01*
X11255644Y-9527844D01*
X11255644Y-9598556D01*
X11326356Y-9598556D01*
X11326356Y-10868556D02*
X11326356Y-10797844D01*
X11255644Y-10797844D01*
X11255644Y-10868556D01*
X11326356Y-10868556D01*
X11580356Y-9598556D02*
X11580356Y-9527844D01*
X11509644Y-9527844D01*
X11509644Y-9598556D01*
X11580356Y-9598556D01*
X11580356Y-10868556D02*
X11580356Y-10797844D01*
X11509644Y-10797844D01*
X11509644Y-10868556D01*
X11580356Y-10868556D01*
X11834356Y-9598556D02*
X11834356Y-9527844D01*
X11763644Y-9527844D01*
X11763644Y-9598556D01*
X11834356Y-9598556D01*
X11834356Y-10868556D02*
X11834356Y-10797844D01*
X11763644Y-10797844D01*
X11763644Y-10868556D01*
X11834356Y-10868556D01*
X12088356Y-9598556D02*
X12088356Y-9527844D01*
X12017644Y-9527844D01*
X12017644Y-9598556D01*
X12088356Y-9598556D01*
X12088356Y-10868556D02*
X12088356Y-10797844D01*
X12017644Y-10797844D01*
X12017644Y-10868556D01*
X12088356Y-10868556D01*
X12342356Y-9598556D02*
X12342356Y-9527844D01*
X12271644Y-9527844D01*
X12271644Y-9598556D01*
X12342356Y-9598556D01*
X12342356Y-10868556D02*
X12342356Y-10797844D01*
X12271644Y-10797844D01*
X12271644Y-10868556D01*
X12342356Y-10868556D01*
X13954356Y-10656356D02*
X13954356Y-10585644D01*
X13883644Y-10585644D01*
X13883644Y-10656356D01*
X13954356Y-10656356D01*
X13954356Y-10910356D02*
X13954356Y-10839644D01*
X13883644Y-10839644D01*
X13883644Y-10910356D01*
X13954356Y-10910356D01*
X14208356Y-10656356D02*
X14208356Y-10585644D01*
X14137644Y-10585644D01*
X14137644Y-10656356D01*
X14208356Y-10656356D01*
X14208356Y-10910356D02*
X14208356Y-10839644D01*
X14137644Y-10839644D01*
X14137644Y-10910356D01*
X14208356Y-10910356D01*
X14462356Y-10656356D02*
X14462356Y-10585644D01*
X14391644Y-10585644D01*
X14391644Y-10656356D01*
X14462356Y-10656356D01*
X14462356Y-10910356D02*
X14462356Y-10839644D01*
X14391644Y-10839644D01*
X14391644Y-10910356D01*
X14462356Y-10910356D01*
X14716356Y-10656356D02*
X14716356Y-10585644D01*
X14645644Y-10585644D01*
X14645644Y-10656356D01*
X14716356Y-10656356D01*
X14716356Y-10910356D02*
X14716356Y-10839644D01*
X14645644Y-10839644D01*
X14645644Y-10910356D01*
X14716356Y-10910356D01*
X14970356Y-10656356D02*
X14970356Y-10585644D01*
X14899644Y-10585644D01*
X14899644Y-10656356D01*
X14970356Y-10656356D01*
X14970356Y-10910356D02*
X14970356Y-10839644D01*
X14899644Y-10839644D01*
X14899644Y-10910356D01*
X14970356Y-10910356D01*
X15224356Y-10656356D02*
X15224356Y-10585644D01*
X15153644Y-10585644D01*
X15153644Y-10656356D01*
X15224356Y-10656356D01*
X15224356Y-10910356D02*
X15224356Y-10839644D01*
X15153644Y-10839644D01*
X15153644Y-10910356D01*
X15224356Y-10910356D01*
X15478356Y-10656356D02*
X15478356Y-10585644D01*
X15407644Y-10585644D01*
X15407644Y-10656356D01*
X15478356Y-10656356D01*
X15478356Y-10910356D02*
X15478356Y-10839644D01*
X15407644Y-10839644D01*
X15407644Y-10910356D01*
X15478356Y-10910356D01*
X15732356Y-10656356D02*
X15732356Y-10585644D01*
X15661644Y-10585644D01*
X15661644Y-10656356D01*
X15732356Y-10656356D01*
X15732356Y-10910356D02*
X15732356Y-10839644D01*
X15661644Y-10839644D01*
X15661644Y-10910356D01*
X15732356Y-10910356D01*
X15986356Y-10656356D02*
X15986356Y-10585644D01*
X15915644Y-10585644D01*
X15915644Y-10656356D01*
X15986356Y-10656356D01*
X15986356Y-10910356D02*
X15986356Y-10839644D01*
X15915644Y-10839644D01*
X15915644Y-10910356D01*
X15986356Y-10910356D01*
X16240356Y-10656356D02*
X16240356Y-10585644D01*
X16169644Y-10585644D01*
X16169644Y-10656356D01*
X16240356Y-10656356D01*
X16240356Y-10910356D02*
X16240356Y-10839644D01*
X16169644Y-10839644D01*
X16169644Y-10910356D01*
X16240356Y-10910356D01*
X19212356Y-9938356D02*
X19212356Y-9867644D01*
X19141644Y-9867644D01*
X19141644Y-9938356D01*
X19212356Y-9938356D01*
X19227000Y-9853000D02*
X19127000Y-9853000D01*
X19127000Y-9953000D02*
G75*
G02*
X19127000Y-9853000I0J50000D01*
G01*
X19127000Y-9953000D02*
X19227000Y-9953000D01*
X19227000Y-9953000D02*
G75*
G03*
X19227000Y-9853000I0J50000D01*
G01*
D12*
X8480000Y-9308340D02*
X8533340Y-9255000D01*
X8480000Y-9201660D01*
X8426660Y-9255000D01*
X8480000Y-9308340D01*
X8480000Y-10112340D02*
X8533340Y-10059000D01*
X8480000Y-10005660D01*
X8426660Y-10059000D01*
X8480000Y-10112340D01*
X8780000Y-9308340D02*
X8833340Y-9255000D01*
X8780000Y-9201660D01*
X8726660Y-9255000D01*
X8780000Y-9308340D01*
X8780000Y-10112340D02*
X8833340Y-10059000D01*
X8780000Y-10005660D01*
X8726660Y-10059000D01*
X8780000Y-10112340D01*
X13773320Y-9593340D02*
X13826660Y-9540000D01*
X13773320Y-9486660D01*
X13719980Y-9540000D01*
X13773320Y-9593340D01*
X13773320Y-9893340D02*
X13826660Y-9840000D01*
X13773320Y-9786660D01*
X13719980Y-9840000D01*
X13773320Y-9893340D01*
X14650880Y-9593340D02*
X14704220Y-9540000D01*
X14650880Y-9486660D01*
X14597540Y-9540000D01*
X14650880Y-9593340D01*
X14650880Y-9893340D02*
X14704220Y-9840000D01*
X14650880Y-9786660D01*
X14597540Y-9840000D01*
X14650880Y-9893340D01*
X15528440Y-9593340D02*
X15581780Y-9540000D01*
X15528440Y-9486660D01*
X15475100Y-9540000D01*
X15528440Y-9593340D01*
X15528440Y-9893340D02*
X15581780Y-9840000D01*
X15528440Y-9786660D01*
X15475100Y-9840000D01*
X15528440Y-9893340D01*
X16406000Y-9592340D02*
X16459340Y-9539000D01*
X16406000Y-9485660D01*
X16352660Y-9539000D01*
X16406000Y-9592340D01*
X16406000Y-9892340D02*
X16459340Y-9839000D01*
X16406000Y-9785660D01*
X16352660Y-9839000D01*
X16406000Y-9892340D01*
X20462000Y-9191340D02*
X20515340Y-9138000D01*
X20462000Y-9084660D01*
X20408660Y-9138000D01*
X20462000Y-9191340D01*
X20462000Y-10004340D02*
X20515340Y-9951000D01*
X20462000Y-9897660D01*
X20408660Y-9951000D01*
X20462000Y-10004340D01*
X20762000Y-9191340D02*
X20815340Y-9138000D01*
X20762000Y-9084660D01*
X20708660Y-9138000D01*
X20762000Y-9191340D01*
X20762000Y-10004340D02*
X20815340Y-9951000D01*
X20762000Y-9897660D01*
X20708660Y-9951000D01*
X20762000Y-10004340D01*
D11*
X8575240Y-6183960D02*
X8775240Y-6383960D01*
X8775240Y-6183960D02*
X8575240Y-6383960D01*
X8775240Y-6283960D02*
G75*
G02*
X8575240Y-6283960I-100000J0D01*
G01*
X8575240Y-6283960D02*
G75*
G02*
X8775240Y-6283960I100000J0D01*
G01*
X9325240Y-7433960D02*
X9525240Y-7633960D01*
X9525240Y-7433960D02*
X9325240Y-7633960D01*
X9525240Y-7533960D02*
G75*
G02*
X9325240Y-7533960I-100000J0D01*
G01*
X9325240Y-7533960D02*
G75*
G02*
X9525240Y-7533960I100000J0D01*
G01*
X10075240Y-6183960D02*
X10275240Y-6383960D01*
X10275240Y-6183960D02*
X10075240Y-6383960D01*
X10275240Y-6283960D02*
G75*
G02*
X10075240Y-6283960I-100000J0D01*
G01*
X10075240Y-6283960D02*
G75*
G02*
X10275240Y-6283960I100000J0D01*
G01*
X10825240Y-7433960D02*
X11025240Y-7633960D01*
X11025240Y-7433960D02*
X10825240Y-7633960D01*
X11025240Y-7533960D02*
G75*
G02*
X10825240Y-7533960I-100000J0D01*
G01*
X10825240Y-7533960D02*
G75*
G02*
X11025240Y-7533960I100000J0D01*
G01*
X11811200Y-6199200D02*
X12011200Y-6399200D01*
X12011200Y-6199200D02*
X11811200Y-6399200D01*
X12011200Y-6299200D02*
G75*
G02*
X11811200Y-6299200I-100000J0D01*
G01*
X11811200Y-6299200D02*
G75*
G02*
X12011200Y-6299200I100000J0D01*
G01*
X12561200Y-7449200D02*
X12761200Y-7649200D01*
X12761200Y-7449200D02*
X12561200Y-7649200D01*
X12761200Y-7549200D02*
G75*
G02*
X12561200Y-7549200I-100000J0D01*
G01*
X12561200Y-7549200D02*
G75*
G02*
X12761200Y-7549200I100000J0D01*
G01*
X13311200Y-6199200D02*
X13511200Y-6399200D01*
X13511200Y-6199200D02*
X13311200Y-6399200D01*
X13511200Y-6299200D02*
G75*
G02*
X13311200Y-6299200I-100000J0D01*
G01*
X13311200Y-6299200D02*
G75*
G02*
X13511200Y-6299200I100000J0D01*
G01*
X14061200Y-7449200D02*
X14261200Y-7649200D01*
X14261200Y-7449200D02*
X14061200Y-7649200D01*
X14261200Y-7549200D02*
G75*
G02*
X14061200Y-7549200I-100000J0D01*
G01*
X14061200Y-7549200D02*
G75*
G02*
X14261200Y-7549200I100000J0D01*
G01*
X15048560Y-6199200D02*
X15248560Y-6399200D01*
X15248560Y-6199200D02*
X15048560Y-6399200D01*
X15248560Y-6299200D02*
G75*
G02*
X15048560Y-6299200I-100000J0D01*
G01*
X15048560Y-6299200D02*
G75*
G02*
X15248560Y-6299200I100000J0D01*
G01*
X15798560Y-7449200D02*
X15998560Y-7649200D01*
X15998560Y-7449200D02*
X15798560Y-7649200D01*
X15998560Y-7549200D02*
G75*
G02*
X15798560Y-7549200I-100000J0D01*
G01*
X15798560Y-7549200D02*
G75*
G02*
X15998560Y-7549200I100000J0D01*
G01*
X16548560Y-6199200D02*
X16748560Y-6399200D01*
X16748560Y-6199200D02*
X16548560Y-6399200D01*
X16748560Y-6299200D02*
G75*
G02*
X16548560Y-6299200I-100000J0D01*
G01*
X16548560Y-6299200D02*
G75*
G02*
X16748560Y-6299200I100000J0D01*
G01*
X17298560Y-7449200D02*
X17498560Y-7649200D01*
X17498560Y-7449200D02*
X17298560Y-7649200D01*
X17498560Y-7549200D02*
G75*
G02*
X17298560Y-7549200I-100000J0D01*
G01*
X17298560Y-7549200D02*
G75*
G02*
X17498560Y-7549200I100000J0D01*
G01*
X18289600Y-6199200D02*
X18489600Y-6399200D01*
X18489600Y-6199200D02*
X18289600Y-6399200D01*
X18489600Y-6299200D02*
G75*
G02*
X18289600Y-6299200I-100000J0D01*
G01*
X18289600Y-6299200D02*
G75*
G02*
X18489600Y-6299200I100000J0D01*
G01*
X19039600Y-7449200D02*
X19239600Y-7649200D01*
X19239600Y-7449200D02*
X19039600Y-7649200D01*
X19239600Y-7549200D02*
G75*
G02*
X19039600Y-7549200I-100000J0D01*
G01*
X19039600Y-7549200D02*
G75*
G02*
X19239600Y-7549200I100000J0D01*
G01*
X19789600Y-6199200D02*
X19989600Y-6399200D01*
X19989600Y-6199200D02*
X19789600Y-6399200D01*
X19989600Y-6299200D02*
G75*
G02*
X19789600Y-6299200I-100000J0D01*
G01*
X19789600Y-6299200D02*
G75*
G02*
X19989600Y-6299200I100000J0D01*
G01*
X20539600Y-7449200D02*
X20739600Y-7649200D01*
X20739600Y-7449200D02*
X20539600Y-7649200D01*
X20739600Y-7549200D02*
G75*
G02*
X20539600Y-7549200I-100000J0D01*
G01*
X20539600Y-7549200D02*
G75*
G02*
X20739600Y-7549200I100000J0D01*
G01*
D13*
X18682000Y-9403000D02*
X18952000Y-9673000D01*
X18952000Y-9403000D02*
X18682000Y-9673000D01*
X18817000Y-9403000D02*
X18817000Y-9673000D01*
X18682000Y-9538000D02*
X18952000Y-9538000D01*
X19402000Y-9403000D02*
X19672000Y-9673000D01*
X19672000Y-9403000D02*
X19402000Y-9673000D01*
X19537000Y-9403000D02*
X19537000Y-9673000D01*
X19402000Y-9538000D02*
X19672000Y-9538000D01*
D11*
X8409417Y-11543804D02*
X8409417Y-11343804D01*
X8409417Y-11343804D02*
X8457036Y-11343804D01*
X8457036Y-11343804D02*
X8485607Y-11353328D01*
X8485607Y-11353328D02*
X8504655Y-11372375D01*
X8504655Y-11372375D02*
X8514179Y-11391423D01*
X8514179Y-11391423D02*
X8523703Y-11429518D01*
X8523703Y-11429518D02*
X8523703Y-11458089D01*
X8523703Y-11458089D02*
X8514179Y-11496185D01*
X8514179Y-11496185D02*
X8504655Y-11515232D01*
X8504655Y-11515232D02*
X8485607Y-11534280D01*
X8485607Y-11534280D02*
X8457036Y-11543804D01*
X8457036Y-11543804D02*
X8409417Y-11543804D01*
X8609417Y-11543804D02*
X8609417Y-11410470D01*
X8609417Y-11448566D02*
X8618941Y-11429518D01*
X8618941Y-11429518D02*
X8628464Y-11419994D01*
X8628464Y-11419994D02*
X8647512Y-11410470D01*
X8647512Y-11410470D02*
X8666560Y-11410470D01*
X8733226Y-11543804D02*
X8733226Y-11410470D01*
X8733226Y-11343804D02*
X8723703Y-11353328D01*
X8723703Y-11353328D02*
X8733226Y-11362851D01*
X8733226Y-11362851D02*
X8742750Y-11353328D01*
X8742750Y-11353328D02*
X8733226Y-11343804D01*
X8733226Y-11343804D02*
X8733226Y-11362851D01*
X8857036Y-11543804D02*
X8837988Y-11534280D01*
X8837988Y-11534280D02*
X8828464Y-11515232D01*
X8828464Y-11515232D02*
X8828464Y-11343804D01*
X8961798Y-11543804D02*
X8942750Y-11534280D01*
X8942750Y-11534280D02*
X8933226Y-11515232D01*
X8933226Y-11515232D02*
X8933226Y-11343804D01*
X9190369Y-11543804D02*
X9190369Y-11343804D01*
X9190369Y-11343804D02*
X9257036Y-11486661D01*
X9257036Y-11486661D02*
X9323703Y-11343804D01*
X9323703Y-11343804D02*
X9323703Y-11543804D01*
X9504655Y-11543804D02*
X9504655Y-11439042D01*
X9504655Y-11439042D02*
X9495131Y-11419994D01*
X9495131Y-11419994D02*
X9476084Y-11410470D01*
X9476084Y-11410470D02*
X9437988Y-11410470D01*
X9437988Y-11410470D02*
X9418941Y-11419994D01*
X9504655Y-11534280D02*
X9485607Y-11543804D01*
X9485607Y-11543804D02*
X9437988Y-11543804D01*
X9437988Y-11543804D02*
X9418941Y-11534280D01*
X9418941Y-11534280D02*
X9409417Y-11515232D01*
X9409417Y-11515232D02*
X9409417Y-11496185D01*
X9409417Y-11496185D02*
X9418941Y-11477137D01*
X9418941Y-11477137D02*
X9437988Y-11467613D01*
X9437988Y-11467613D02*
X9485607Y-11467613D01*
X9485607Y-11467613D02*
X9504655Y-11458089D01*
X9599893Y-11410470D02*
X9599893Y-11610470D01*
X9599893Y-11419994D02*
X9618941Y-11410470D01*
X9618941Y-11410470D02*
X9657036Y-11410470D01*
X9657036Y-11410470D02*
X9676084Y-11419994D01*
X9676084Y-11419994D02*
X9685607Y-11429518D01*
X9685607Y-11429518D02*
X9695131Y-11448566D01*
X9695131Y-11448566D02*
X9695131Y-11505708D01*
X9695131Y-11505708D02*
X9685607Y-11524756D01*
X9685607Y-11524756D02*
X9676084Y-11534280D01*
X9676084Y-11534280D02*
X9657036Y-11543804D01*
X9657036Y-11543804D02*
X9618941Y-11543804D01*
X9618941Y-11543804D02*
X9599893Y-11534280D01*
X9780845Y-11524756D02*
X9790369Y-11534280D01*
X9790369Y-11534280D02*
X9780845Y-11543804D01*
X9780845Y-11543804D02*
X9771322Y-11534280D01*
X9771322Y-11534280D02*
X9780845Y-11524756D01*
X9780845Y-11524756D02*
X9780845Y-11543804D01*
X9780845Y-11419994D02*
X9790369Y-11429518D01*
X9790369Y-11429518D02*
X9780845Y-11439042D01*
X9780845Y-11439042D02*
X9771322Y-11429518D01*
X9771322Y-11429518D02*
X9780845Y-11419994D01*
X9780845Y-11419994D02*
X9780845Y-11439042D01*
D10*
X8108640Y-11852320D02*
X8148640Y-11892320D01*
X8148640Y-11852320D02*
X8108640Y-11892320D01*
D11*
X8447512Y-11763804D02*
X8466560Y-11763804D01*
X8466560Y-11763804D02*
X8485607Y-11773328D01*
X8485607Y-11773328D02*
X8495131Y-11782851D01*
X8495131Y-11782851D02*
X8504655Y-11801899D01*
X8504655Y-11801899D02*
X8514179Y-11839994D01*
X8514179Y-11839994D02*
X8514179Y-11887613D01*
X8514179Y-11887613D02*
X8504655Y-11925708D01*
X8504655Y-11925708D02*
X8495131Y-11944756D01*
X8495131Y-11944756D02*
X8485607Y-11954280D01*
X8485607Y-11954280D02*
X8466560Y-11963804D01*
X8466560Y-11963804D02*
X8447512Y-11963804D01*
X8447512Y-11963804D02*
X8428464Y-11954280D01*
X8428464Y-11954280D02*
X8418941Y-11944756D01*
X8418941Y-11944756D02*
X8409417Y-11925708D01*
X8409417Y-11925708D02*
X8399893Y-11887613D01*
X8399893Y-11887613D02*
X8399893Y-11839994D01*
X8399893Y-11839994D02*
X8409417Y-11801899D01*
X8409417Y-11801899D02*
X8418941Y-11782851D01*
X8418941Y-11782851D02*
X8428464Y-11773328D01*
X8428464Y-11773328D02*
X8447512Y-11763804D01*
X8599893Y-11944756D02*
X8609417Y-11954280D01*
X8609417Y-11954280D02*
X8599893Y-11963804D01*
X8599893Y-11963804D02*
X8590369Y-11954280D01*
X8590369Y-11954280D02*
X8599893Y-11944756D01*
X8599893Y-11944756D02*
X8599893Y-11963804D01*
X8780845Y-11830470D02*
X8780845Y-11963804D01*
X8733226Y-11754280D02*
X8685607Y-11897137D01*
X8685607Y-11897137D02*
X8809417Y-11897137D01*
X8923703Y-11763804D02*
X8942750Y-11763804D01*
X8942750Y-11763804D02*
X8961798Y-11773328D01*
X8961798Y-11773328D02*
X8971322Y-11782851D01*
X8971322Y-11782851D02*
X8980845Y-11801899D01*
X8980845Y-11801899D02*
X8990369Y-11839994D01*
X8990369Y-11839994D02*
X8990369Y-11887613D01*
X8990369Y-11887613D02*
X8980845Y-11925708D01*
X8980845Y-11925708D02*
X8971322Y-11944756D01*
X8971322Y-11944756D02*
X8961798Y-11954280D01*
X8961798Y-11954280D02*
X8942750Y-11963804D01*
X8942750Y-11963804D02*
X8923703Y-11963804D01*
X8923703Y-11963804D02*
X8904655Y-11954280D01*
X8904655Y-11954280D02*
X8895131Y-11944756D01*
X8895131Y-11944756D02*
X8885607Y-11925708D01*
X8885607Y-11925708D02*
X8876084Y-11887613D01*
X8876084Y-11887613D02*
X8876084Y-11839994D01*
X8876084Y-11839994D02*
X8885607Y-11801899D01*
X8885607Y-11801899D02*
X8895131Y-11782851D01*
X8895131Y-11782851D02*
X8904655Y-11773328D01*
X8904655Y-11773328D02*
X8923703Y-11763804D01*
X9114179Y-11763804D02*
X9133226Y-11763804D01*
X9133226Y-11763804D02*
X9152274Y-11773328D01*
X9152274Y-11773328D02*
X9161798Y-11782851D01*
X9161798Y-11782851D02*
X9171322Y-11801899D01*
X9171322Y-11801899D02*
X9180845Y-11839994D01*
X9180845Y-11839994D02*
X9180845Y-11887613D01*
X9180845Y-11887613D02*
X9171322Y-11925708D01*
X9171322Y-11925708D02*
X9161798Y-11944756D01*
X9161798Y-11944756D02*
X9152274Y-11954280D01*
X9152274Y-11954280D02*
X9133226Y-11963804D01*
X9133226Y-11963804D02*
X9114179Y-11963804D01*
X9114179Y-11963804D02*
X9095131Y-11954280D01*
X9095131Y-11954280D02*
X9085607Y-11944756D01*
X9085607Y-11944756D02*
X9076084Y-11925708D01*
X9076084Y-11925708D02*
X9066560Y-11887613D01*
X9066560Y-11887613D02*
X9066560Y-11839994D01*
X9066560Y-11839994D02*
X9076084Y-11801899D01*
X9076084Y-11801899D02*
X9085607Y-11782851D01*
X9085607Y-11782851D02*
X9095131Y-11773328D01*
X9095131Y-11773328D02*
X9114179Y-11763804D01*
X9266560Y-11963804D02*
X9266560Y-11830470D01*
X9266560Y-11849518D02*
X9276084Y-11839994D01*
X9276084Y-11839994D02*
X9295131Y-11830470D01*
X9295131Y-11830470D02*
X9323703Y-11830470D01*
X9323703Y-11830470D02*
X9342750Y-11839994D01*
X9342750Y-11839994D02*
X9352274Y-11859042D01*
X9352274Y-11859042D02*
X9352274Y-11963804D01*
X9352274Y-11859042D02*
X9361798Y-11839994D01*
X9361798Y-11839994D02*
X9380845Y-11830470D01*
X9380845Y-11830470D02*
X9409417Y-11830470D01*
X9409417Y-11830470D02*
X9428465Y-11839994D01*
X9428465Y-11839994D02*
X9437988Y-11859042D01*
X9437988Y-11859042D02*
X9437988Y-11963804D01*
X9533226Y-11963804D02*
X9533226Y-11830470D01*
X9533226Y-11849518D02*
X9542750Y-11839994D01*
X9542750Y-11839994D02*
X9561798Y-11830470D01*
X9561798Y-11830470D02*
X9590369Y-11830470D01*
X9590369Y-11830470D02*
X9609417Y-11839994D01*
X9609417Y-11839994D02*
X9618941Y-11859042D01*
X9618941Y-11859042D02*
X9618941Y-11963804D01*
X9618941Y-11859042D02*
X9628465Y-11839994D01*
X9628465Y-11839994D02*
X9647512Y-11830470D01*
X9647512Y-11830470D02*
X9676084Y-11830470D01*
X9676084Y-11830470D02*
X9695131Y-11839994D01*
X9695131Y-11839994D02*
X9704655Y-11859042D01*
X9704655Y-11859042D02*
X9704655Y-11963804D01*
X10095131Y-11754280D02*
X9923703Y-12011423D01*
X10352274Y-11763804D02*
X10371322Y-11763804D01*
X10371322Y-11763804D02*
X10390369Y-11773328D01*
X10390369Y-11773328D02*
X10399893Y-11782851D01*
X10399893Y-11782851D02*
X10409417Y-11801899D01*
X10409417Y-11801899D02*
X10418941Y-11839994D01*
X10418941Y-11839994D02*
X10418941Y-11887613D01*
X10418941Y-11887613D02*
X10409417Y-11925708D01*
X10409417Y-11925708D02*
X10399893Y-11944756D01*
X10399893Y-11944756D02*
X10390369Y-11954280D01*
X10390369Y-11954280D02*
X10371322Y-11963804D01*
X10371322Y-11963804D02*
X10352274Y-11963804D01*
X10352274Y-11963804D02*
X10333227Y-11954280D01*
X10333227Y-11954280D02*
X10323703Y-11944756D01*
X10323703Y-11944756D02*
X10314179Y-11925708D01*
X10314179Y-11925708D02*
X10304655Y-11887613D01*
X10304655Y-11887613D02*
X10304655Y-11839994D01*
X10304655Y-11839994D02*
X10314179Y-11801899D01*
X10314179Y-11801899D02*
X10323703Y-11782851D01*
X10323703Y-11782851D02*
X10333227Y-11773328D01*
X10333227Y-11773328D02*
X10352274Y-11763804D01*
X10504655Y-11944756D02*
X10514179Y-11954280D01*
X10514179Y-11954280D02*
X10504655Y-11963804D01*
X10504655Y-11963804D02*
X10495131Y-11954280D01*
X10495131Y-11954280D02*
X10504655Y-11944756D01*
X10504655Y-11944756D02*
X10504655Y-11963804D01*
X10637988Y-11763804D02*
X10657036Y-11763804D01*
X10657036Y-11763804D02*
X10676084Y-11773328D01*
X10676084Y-11773328D02*
X10685608Y-11782851D01*
X10685608Y-11782851D02*
X10695131Y-11801899D01*
X10695131Y-11801899D02*
X10704655Y-11839994D01*
X10704655Y-11839994D02*
X10704655Y-11887613D01*
X10704655Y-11887613D02*
X10695131Y-11925708D01*
X10695131Y-11925708D02*
X10685608Y-11944756D01*
X10685608Y-11944756D02*
X10676084Y-11954280D01*
X10676084Y-11954280D02*
X10657036Y-11963804D01*
X10657036Y-11963804D02*
X10637988Y-11963804D01*
X10637988Y-11963804D02*
X10618941Y-11954280D01*
X10618941Y-11954280D02*
X10609417Y-11944756D01*
X10609417Y-11944756D02*
X10599893Y-11925708D01*
X10599893Y-11925708D02*
X10590369Y-11887613D01*
X10590369Y-11887613D02*
X10590369Y-11839994D01*
X10590369Y-11839994D02*
X10599893Y-11801899D01*
X10599893Y-11801899D02*
X10609417Y-11782851D01*
X10609417Y-11782851D02*
X10618941Y-11773328D01*
X10618941Y-11773328D02*
X10637988Y-11763804D01*
X10895131Y-11963804D02*
X10780846Y-11963804D01*
X10837988Y-11963804D02*
X10837988Y-11763804D01*
X10837988Y-11763804D02*
X10818941Y-11792375D01*
X10818941Y-11792375D02*
X10799893Y-11811423D01*
X10799893Y-11811423D02*
X10780846Y-11820947D01*
X11076084Y-11763804D02*
X10980846Y-11763804D01*
X10980846Y-11763804D02*
X10971322Y-11859042D01*
X10971322Y-11859042D02*
X10980846Y-11849518D01*
X10980846Y-11849518D02*
X10999893Y-11839994D01*
X10999893Y-11839994D02*
X11047512Y-11839994D01*
X11047512Y-11839994D02*
X11066560Y-11849518D01*
X11066560Y-11849518D02*
X11076084Y-11859042D01*
X11076084Y-11859042D02*
X11085608Y-11878089D01*
X11085608Y-11878089D02*
X11085608Y-11925708D01*
X11085608Y-11925708D02*
X11076084Y-11944756D01*
X11076084Y-11944756D02*
X11066560Y-11954280D01*
X11066560Y-11954280D02*
X11047512Y-11963804D01*
X11047512Y-11963804D02*
X10999893Y-11963804D01*
X10999893Y-11963804D02*
X10980846Y-11954280D01*
X10980846Y-11954280D02*
X10971322Y-11944756D01*
X11152274Y-11763804D02*
X11285607Y-11763804D01*
X11285607Y-11763804D02*
X11199893Y-11963804D01*
X11352274Y-11763804D02*
X11352274Y-11801899D01*
X11428465Y-11763804D02*
X11428465Y-11801899D01*
X11723703Y-12039994D02*
X11714179Y-12030470D01*
X11714179Y-12030470D02*
X11695131Y-12001899D01*
X11695131Y-12001899D02*
X11685608Y-11982851D01*
X11685608Y-11982851D02*
X11676084Y-11954280D01*
X11676084Y-11954280D02*
X11666560Y-11906661D01*
X11666560Y-11906661D02*
X11666560Y-11868566D01*
X11666560Y-11868566D02*
X11676084Y-11820947D01*
X11676084Y-11820947D02*
X11685608Y-11792375D01*
X11685608Y-11792375D02*
X11695131Y-11773328D01*
X11695131Y-11773328D02*
X11714179Y-11744756D01*
X11714179Y-11744756D02*
X11723703Y-11735232D01*
X11904655Y-11963804D02*
X11790369Y-11963804D01*
X11847512Y-11963804D02*
X11847512Y-11763804D01*
X11847512Y-11763804D02*
X11828465Y-11792375D01*
X11828465Y-11792375D02*
X11809417Y-11811423D01*
X11809417Y-11811423D02*
X11790369Y-11820947D01*
X11980846Y-11782851D02*
X11990369Y-11773328D01*
X11990369Y-11773328D02*
X12009417Y-11763804D01*
X12009417Y-11763804D02*
X12057036Y-11763804D01*
X12057036Y-11763804D02*
X12076084Y-11773328D01*
X12076084Y-11773328D02*
X12085608Y-11782851D01*
X12085608Y-11782851D02*
X12095131Y-11801899D01*
X12095131Y-11801899D02*
X12095131Y-11820947D01*
X12095131Y-11820947D02*
X12085608Y-11849518D01*
X12085608Y-11849518D02*
X11971322Y-11963804D01*
X11971322Y-11963804D02*
X12095131Y-11963804D01*
X12285608Y-11963804D02*
X12171322Y-11963804D01*
X12228465Y-11963804D02*
X12228465Y-11763804D01*
X12228465Y-11763804D02*
X12209417Y-11792375D01*
X12209417Y-11792375D02*
X12190369Y-11811423D01*
X12190369Y-11811423D02*
X12171322Y-11820947D01*
X12523703Y-11963804D02*
X12523703Y-11763804D01*
X12609417Y-11963804D02*
X12609417Y-11859042D01*
X12609417Y-11859042D02*
X12599893Y-11839994D01*
X12599893Y-11839994D02*
X12580846Y-11830470D01*
X12580846Y-11830470D02*
X12552274Y-11830470D01*
X12552274Y-11830470D02*
X12533227Y-11839994D01*
X12533227Y-11839994D02*
X12523703Y-11849518D01*
X12733227Y-11963804D02*
X12714179Y-11954280D01*
X12714179Y-11954280D02*
X12704655Y-11944756D01*
X12704655Y-11944756D02*
X12695131Y-11925708D01*
X12695131Y-11925708D02*
X12695131Y-11868566D01*
X12695131Y-11868566D02*
X12704655Y-11849518D01*
X12704655Y-11849518D02*
X12714179Y-11839994D01*
X12714179Y-11839994D02*
X12733227Y-11830470D01*
X12733227Y-11830470D02*
X12761798Y-11830470D01*
X12761798Y-11830470D02*
X12780846Y-11839994D01*
X12780846Y-11839994D02*
X12790370Y-11849518D01*
X12790370Y-11849518D02*
X12799893Y-11868566D01*
X12799893Y-11868566D02*
X12799893Y-11925708D01*
X12799893Y-11925708D02*
X12790370Y-11944756D01*
X12790370Y-11944756D02*
X12780846Y-11954280D01*
X12780846Y-11954280D02*
X12761798Y-11963804D01*
X12761798Y-11963804D02*
X12733227Y-11963804D01*
X12914179Y-11963804D02*
X12895131Y-11954280D01*
X12895131Y-11954280D02*
X12885608Y-11935232D01*
X12885608Y-11935232D02*
X12885608Y-11763804D01*
X13066560Y-11954280D02*
X13047512Y-11963804D01*
X13047512Y-11963804D02*
X13009417Y-11963804D01*
X13009417Y-11963804D02*
X12990370Y-11954280D01*
X12990370Y-11954280D02*
X12980846Y-11935232D01*
X12980846Y-11935232D02*
X12980846Y-11859042D01*
X12980846Y-11859042D02*
X12990370Y-11839994D01*
X12990370Y-11839994D02*
X13009417Y-11830470D01*
X13009417Y-11830470D02*
X13047512Y-11830470D01*
X13047512Y-11830470D02*
X13066560Y-11839994D01*
X13066560Y-11839994D02*
X13076084Y-11859042D01*
X13076084Y-11859042D02*
X13076084Y-11878089D01*
X13076084Y-11878089D02*
X12980846Y-11897137D01*
X13152274Y-11954280D02*
X13171322Y-11963804D01*
X13171322Y-11963804D02*
X13209417Y-11963804D01*
X13209417Y-11963804D02*
X13228465Y-11954280D01*
X13228465Y-11954280D02*
X13237989Y-11935232D01*
X13237989Y-11935232D02*
X13237989Y-11925708D01*
X13237989Y-11925708D02*
X13228465Y-11906661D01*
X13228465Y-11906661D02*
X13209417Y-11897137D01*
X13209417Y-11897137D02*
X13180846Y-11897137D01*
X13180846Y-11897137D02*
X13161798Y-11887613D01*
X13161798Y-11887613D02*
X13152274Y-11868566D01*
X13152274Y-11868566D02*
X13152274Y-11859042D01*
X13152274Y-11859042D02*
X13161798Y-11839994D01*
X13161798Y-11839994D02*
X13180846Y-11830470D01*
X13180846Y-11830470D02*
X13209417Y-11830470D01*
X13209417Y-11830470D02*
X13228465Y-11839994D01*
X13304655Y-12039994D02*
X13314179Y-12030470D01*
X13314179Y-12030470D02*
X13333227Y-12001899D01*
X13333227Y-12001899D02*
X13342751Y-11982851D01*
X13342751Y-11982851D02*
X13352274Y-11954280D01*
X13352274Y-11954280D02*
X13361798Y-11906661D01*
X13361798Y-11906661D02*
X13361798Y-11868566D01*
X13361798Y-11868566D02*
X13352274Y-11820947D01*
X13352274Y-11820947D02*
X13342751Y-11792375D01*
X13342751Y-11792375D02*
X13333227Y-11773328D01*
X13333227Y-11773328D02*
X13314179Y-11744756D01*
X13314179Y-11744756D02*
X13304655Y-11735232D01*
D10*
X8148640Y-12136320D02*
G75*
G02*
X8088640Y-12136320I-30000J0D01*
G01*
X8088640Y-12136320D02*
G75*
G02*
X8148640Y-12136320I30000J0D01*
G01*
D11*
X8447512Y-12027804D02*
X8466560Y-12027804D01*
X8466560Y-12027804D02*
X8485607Y-12037328D01*
X8485607Y-12037328D02*
X8495131Y-12046851D01*
X8495131Y-12046851D02*
X8504655Y-12065899D01*
X8504655Y-12065899D02*
X8514179Y-12103994D01*
X8514179Y-12103994D02*
X8514179Y-12151613D01*
X8514179Y-12151613D02*
X8504655Y-12189708D01*
X8504655Y-12189708D02*
X8495131Y-12208756D01*
X8495131Y-12208756D02*
X8485607Y-12218280D01*
X8485607Y-12218280D02*
X8466560Y-12227804D01*
X8466560Y-12227804D02*
X8447512Y-12227804D01*
X8447512Y-12227804D02*
X8428464Y-12218280D01*
X8428464Y-12218280D02*
X8418941Y-12208756D01*
X8418941Y-12208756D02*
X8409417Y-12189708D01*
X8409417Y-12189708D02*
X8399893Y-12151613D01*
X8399893Y-12151613D02*
X8399893Y-12103994D01*
X8399893Y-12103994D02*
X8409417Y-12065899D01*
X8409417Y-12065899D02*
X8418941Y-12046851D01*
X8418941Y-12046851D02*
X8428464Y-12037328D01*
X8428464Y-12037328D02*
X8447512Y-12027804D01*
X8599893Y-12208756D02*
X8609417Y-12218280D01*
X8609417Y-12218280D02*
X8599893Y-12227804D01*
X8599893Y-12227804D02*
X8590369Y-12218280D01*
X8590369Y-12218280D02*
X8599893Y-12208756D01*
X8599893Y-12208756D02*
X8599893Y-12227804D01*
X8780845Y-12027804D02*
X8742750Y-12027804D01*
X8742750Y-12027804D02*
X8723703Y-12037328D01*
X8723703Y-12037328D02*
X8714179Y-12046851D01*
X8714179Y-12046851D02*
X8695131Y-12075423D01*
X8695131Y-12075423D02*
X8685607Y-12113518D01*
X8685607Y-12113518D02*
X8685607Y-12189708D01*
X8685607Y-12189708D02*
X8695131Y-12208756D01*
X8695131Y-12208756D02*
X8704655Y-12218280D01*
X8704655Y-12218280D02*
X8723703Y-12227804D01*
X8723703Y-12227804D02*
X8761798Y-12227804D01*
X8761798Y-12227804D02*
X8780845Y-12218280D01*
X8780845Y-12218280D02*
X8790369Y-12208756D01*
X8790369Y-12208756D02*
X8799893Y-12189708D01*
X8799893Y-12189708D02*
X8799893Y-12142089D01*
X8799893Y-12142089D02*
X8790369Y-12123042D01*
X8790369Y-12123042D02*
X8780845Y-12113518D01*
X8780845Y-12113518D02*
X8761798Y-12103994D01*
X8761798Y-12103994D02*
X8723703Y-12103994D01*
X8723703Y-12103994D02*
X8704655Y-12113518D01*
X8704655Y-12113518D02*
X8695131Y-12123042D01*
X8695131Y-12123042D02*
X8685607Y-12142089D01*
X8923703Y-12027804D02*
X8942750Y-12027804D01*
X8942750Y-12027804D02*
X8961798Y-12037328D01*
X8961798Y-12037328D02*
X8971322Y-12046851D01*
X8971322Y-12046851D02*
X8980845Y-12065899D01*
X8980845Y-12065899D02*
X8990369Y-12103994D01*
X8990369Y-12103994D02*
X8990369Y-12151613D01*
X8990369Y-12151613D02*
X8980845Y-12189708D01*
X8980845Y-12189708D02*
X8971322Y-12208756D01*
X8971322Y-12208756D02*
X8961798Y-12218280D01*
X8961798Y-12218280D02*
X8942750Y-12227804D01*
X8942750Y-12227804D02*
X8923703Y-12227804D01*
X8923703Y-12227804D02*
X8904655Y-12218280D01*
X8904655Y-12218280D02*
X8895131Y-12208756D01*
X8895131Y-12208756D02*
X8885607Y-12189708D01*
X8885607Y-12189708D02*
X8876084Y-12151613D01*
X8876084Y-12151613D02*
X8876084Y-12103994D01*
X8876084Y-12103994D02*
X8885607Y-12065899D01*
X8885607Y-12065899D02*
X8895131Y-12046851D01*
X8895131Y-12046851D02*
X8904655Y-12037328D01*
X8904655Y-12037328D02*
X8923703Y-12027804D01*
X9114179Y-12027804D02*
X9133226Y-12027804D01*
X9133226Y-12027804D02*
X9152274Y-12037328D01*
X9152274Y-12037328D02*
X9161798Y-12046851D01*
X9161798Y-12046851D02*
X9171322Y-12065899D01*
X9171322Y-12065899D02*
X9180845Y-12103994D01*
X9180845Y-12103994D02*
X9180845Y-12151613D01*
X9180845Y-12151613D02*
X9171322Y-12189708D01*
X9171322Y-12189708D02*
X9161798Y-12208756D01*
X9161798Y-12208756D02*
X9152274Y-12218280D01*
X9152274Y-12218280D02*
X9133226Y-12227804D01*
X9133226Y-12227804D02*
X9114179Y-12227804D01*
X9114179Y-12227804D02*
X9095131Y-12218280D01*
X9095131Y-12218280D02*
X9085607Y-12208756D01*
X9085607Y-12208756D02*
X9076084Y-12189708D01*
X9076084Y-12189708D02*
X9066560Y-12151613D01*
X9066560Y-12151613D02*
X9066560Y-12103994D01*
X9066560Y-12103994D02*
X9076084Y-12065899D01*
X9076084Y-12065899D02*
X9085607Y-12046851D01*
X9085607Y-12046851D02*
X9095131Y-12037328D01*
X9095131Y-12037328D02*
X9114179Y-12027804D01*
X9266560Y-12227804D02*
X9266560Y-12094470D01*
X9266560Y-12113518D02*
X9276084Y-12103994D01*
X9276084Y-12103994D02*
X9295131Y-12094470D01*
X9295131Y-12094470D02*
X9323703Y-12094470D01*
X9323703Y-12094470D02*
X9342750Y-12103994D01*
X9342750Y-12103994D02*
X9352274Y-12123042D01*
X9352274Y-12123042D02*
X9352274Y-12227804D01*
X9352274Y-12123042D02*
X9361798Y-12103994D01*
X9361798Y-12103994D02*
X9380845Y-12094470D01*
X9380845Y-12094470D02*
X9409417Y-12094470D01*
X9409417Y-12094470D02*
X9428465Y-12103994D01*
X9428465Y-12103994D02*
X9437988Y-12123042D01*
X9437988Y-12123042D02*
X9437988Y-12227804D01*
X9533226Y-12227804D02*
X9533226Y-12094470D01*
X9533226Y-12113518D02*
X9542750Y-12103994D01*
X9542750Y-12103994D02*
X9561798Y-12094470D01*
X9561798Y-12094470D02*
X9590369Y-12094470D01*
X9590369Y-12094470D02*
X9609417Y-12103994D01*
X9609417Y-12103994D02*
X9618941Y-12123042D01*
X9618941Y-12123042D02*
X9618941Y-12227804D01*
X9618941Y-12123042D02*
X9628465Y-12103994D01*
X9628465Y-12103994D02*
X9647512Y-12094470D01*
X9647512Y-12094470D02*
X9676084Y-12094470D01*
X9676084Y-12094470D02*
X9695131Y-12103994D01*
X9695131Y-12103994D02*
X9704655Y-12123042D01*
X9704655Y-12123042D02*
X9704655Y-12227804D01*
X10095131Y-12018280D02*
X9923703Y-12275423D01*
X10352274Y-12027804D02*
X10371322Y-12027804D01*
X10371322Y-12027804D02*
X10390369Y-12037328D01*
X10390369Y-12037328D02*
X10399893Y-12046851D01*
X10399893Y-12046851D02*
X10409417Y-12065899D01*
X10409417Y-12065899D02*
X10418941Y-12103994D01*
X10418941Y-12103994D02*
X10418941Y-12151613D01*
X10418941Y-12151613D02*
X10409417Y-12189708D01*
X10409417Y-12189708D02*
X10399893Y-12208756D01*
X10399893Y-12208756D02*
X10390369Y-12218280D01*
X10390369Y-12218280D02*
X10371322Y-12227804D01*
X10371322Y-12227804D02*
X10352274Y-12227804D01*
X10352274Y-12227804D02*
X10333227Y-12218280D01*
X10333227Y-12218280D02*
X10323703Y-12208756D01*
X10323703Y-12208756D02*
X10314179Y-12189708D01*
X10314179Y-12189708D02*
X10304655Y-12151613D01*
X10304655Y-12151613D02*
X10304655Y-12103994D01*
X10304655Y-12103994D02*
X10314179Y-12065899D01*
X10314179Y-12065899D02*
X10323703Y-12046851D01*
X10323703Y-12046851D02*
X10333227Y-12037328D01*
X10333227Y-12037328D02*
X10352274Y-12027804D01*
X10504655Y-12208756D02*
X10514179Y-12218280D01*
X10514179Y-12218280D02*
X10504655Y-12227804D01*
X10504655Y-12227804D02*
X10495131Y-12218280D01*
X10495131Y-12218280D02*
X10504655Y-12208756D01*
X10504655Y-12208756D02*
X10504655Y-12227804D01*
X10637988Y-12027804D02*
X10657036Y-12027804D01*
X10657036Y-12027804D02*
X10676084Y-12037328D01*
X10676084Y-12037328D02*
X10685608Y-12046851D01*
X10685608Y-12046851D02*
X10695131Y-12065899D01*
X10695131Y-12065899D02*
X10704655Y-12103994D01*
X10704655Y-12103994D02*
X10704655Y-12151613D01*
X10704655Y-12151613D02*
X10695131Y-12189708D01*
X10695131Y-12189708D02*
X10685608Y-12208756D01*
X10685608Y-12208756D02*
X10676084Y-12218280D01*
X10676084Y-12218280D02*
X10657036Y-12227804D01*
X10657036Y-12227804D02*
X10637988Y-12227804D01*
X10637988Y-12227804D02*
X10618941Y-12218280D01*
X10618941Y-12218280D02*
X10609417Y-12208756D01*
X10609417Y-12208756D02*
X10599893Y-12189708D01*
X10599893Y-12189708D02*
X10590369Y-12151613D01*
X10590369Y-12151613D02*
X10590369Y-12103994D01*
X10590369Y-12103994D02*
X10599893Y-12065899D01*
X10599893Y-12065899D02*
X10609417Y-12046851D01*
X10609417Y-12046851D02*
X10618941Y-12037328D01*
X10618941Y-12037328D02*
X10637988Y-12027804D01*
X10780846Y-12046851D02*
X10790369Y-12037328D01*
X10790369Y-12037328D02*
X10809417Y-12027804D01*
X10809417Y-12027804D02*
X10857036Y-12027804D01*
X10857036Y-12027804D02*
X10876084Y-12037328D01*
X10876084Y-12037328D02*
X10885608Y-12046851D01*
X10885608Y-12046851D02*
X10895131Y-12065899D01*
X10895131Y-12065899D02*
X10895131Y-12084947D01*
X10895131Y-12084947D02*
X10885608Y-12113518D01*
X10885608Y-12113518D02*
X10771322Y-12227804D01*
X10771322Y-12227804D02*
X10895131Y-12227804D01*
X10961798Y-12027804D02*
X11085608Y-12027804D01*
X11085608Y-12027804D02*
X11018941Y-12103994D01*
X11018941Y-12103994D02*
X11047512Y-12103994D01*
X11047512Y-12103994D02*
X11066560Y-12113518D01*
X11066560Y-12113518D02*
X11076084Y-12123042D01*
X11076084Y-12123042D02*
X11085608Y-12142089D01*
X11085608Y-12142089D02*
X11085608Y-12189708D01*
X11085608Y-12189708D02*
X11076084Y-12208756D01*
X11076084Y-12208756D02*
X11066560Y-12218280D01*
X11066560Y-12218280D02*
X11047512Y-12227804D01*
X11047512Y-12227804D02*
X10990369Y-12227804D01*
X10990369Y-12227804D02*
X10971322Y-12218280D01*
X10971322Y-12218280D02*
X10961798Y-12208756D01*
X11257036Y-12027804D02*
X11218941Y-12027804D01*
X11218941Y-12027804D02*
X11199893Y-12037328D01*
X11199893Y-12037328D02*
X11190369Y-12046851D01*
X11190369Y-12046851D02*
X11171322Y-12075423D01*
X11171322Y-12075423D02*
X11161798Y-12113518D01*
X11161798Y-12113518D02*
X11161798Y-12189708D01*
X11161798Y-12189708D02*
X11171322Y-12208756D01*
X11171322Y-12208756D02*
X11180846Y-12218280D01*
X11180846Y-12218280D02*
X11199893Y-12227804D01*
X11199893Y-12227804D02*
X11237988Y-12227804D01*
X11237988Y-12227804D02*
X11257036Y-12218280D01*
X11257036Y-12218280D02*
X11266560Y-12208756D01*
X11266560Y-12208756D02*
X11276084Y-12189708D01*
X11276084Y-12189708D02*
X11276084Y-12142089D01*
X11276084Y-12142089D02*
X11266560Y-12123042D01*
X11266560Y-12123042D02*
X11257036Y-12113518D01*
X11257036Y-12113518D02*
X11237988Y-12103994D01*
X11237988Y-12103994D02*
X11199893Y-12103994D01*
X11199893Y-12103994D02*
X11180846Y-12113518D01*
X11180846Y-12113518D02*
X11171322Y-12123042D01*
X11171322Y-12123042D02*
X11161798Y-12142089D01*
X11352274Y-12027804D02*
X11352274Y-12065899D01*
X11428465Y-12027804D02*
X11428465Y-12065899D01*
X11723703Y-12303994D02*
X11714179Y-12294470D01*
X11714179Y-12294470D02*
X11695131Y-12265899D01*
X11695131Y-12265899D02*
X11685608Y-12246851D01*
X11685608Y-12246851D02*
X11676084Y-12218280D01*
X11676084Y-12218280D02*
X11666560Y-12170661D01*
X11666560Y-12170661D02*
X11666560Y-12132566D01*
X11666560Y-12132566D02*
X11676084Y-12084947D01*
X11676084Y-12084947D02*
X11685608Y-12056375D01*
X11685608Y-12056375D02*
X11695131Y-12037328D01*
X11695131Y-12037328D02*
X11714179Y-12008756D01*
X11714179Y-12008756D02*
X11723703Y-11999232D01*
X11904655Y-12227804D02*
X11790369Y-12227804D01*
X11847512Y-12227804D02*
X11847512Y-12027804D01*
X11847512Y-12027804D02*
X11828465Y-12056375D01*
X11828465Y-12056375D02*
X11809417Y-12075423D01*
X11809417Y-12075423D02*
X11790369Y-12084947D01*
X12142750Y-12227804D02*
X12142750Y-12027804D01*
X12228465Y-12227804D02*
X12228465Y-12123042D01*
X12228465Y-12123042D02*
X12218941Y-12103994D01*
X12218941Y-12103994D02*
X12199893Y-12094470D01*
X12199893Y-12094470D02*
X12171322Y-12094470D01*
X12171322Y-12094470D02*
X12152274Y-12103994D01*
X12152274Y-12103994D02*
X12142750Y-12113518D01*
X12352274Y-12227804D02*
X12333227Y-12218280D01*
X12333227Y-12218280D02*
X12323703Y-12208756D01*
X12323703Y-12208756D02*
X12314179Y-12189708D01*
X12314179Y-12189708D02*
X12314179Y-12132566D01*
X12314179Y-12132566D02*
X12323703Y-12113518D01*
X12323703Y-12113518D02*
X12333227Y-12103994D01*
X12333227Y-12103994D02*
X12352274Y-12094470D01*
X12352274Y-12094470D02*
X12380846Y-12094470D01*
X12380846Y-12094470D02*
X12399893Y-12103994D01*
X12399893Y-12103994D02*
X12409417Y-12113518D01*
X12409417Y-12113518D02*
X12418941Y-12132566D01*
X12418941Y-12132566D02*
X12418941Y-12189708D01*
X12418941Y-12189708D02*
X12409417Y-12208756D01*
X12409417Y-12208756D02*
X12399893Y-12218280D01*
X12399893Y-12218280D02*
X12380846Y-12227804D01*
X12380846Y-12227804D02*
X12352274Y-12227804D01*
X12533227Y-12227804D02*
X12514179Y-12218280D01*
X12514179Y-12218280D02*
X12504655Y-12199232D01*
X12504655Y-12199232D02*
X12504655Y-12027804D01*
X12685608Y-12218280D02*
X12666560Y-12227804D01*
X12666560Y-12227804D02*
X12628465Y-12227804D01*
X12628465Y-12227804D02*
X12609417Y-12218280D01*
X12609417Y-12218280D02*
X12599893Y-12199232D01*
X12599893Y-12199232D02*
X12599893Y-12123042D01*
X12599893Y-12123042D02*
X12609417Y-12103994D01*
X12609417Y-12103994D02*
X12628465Y-12094470D01*
X12628465Y-12094470D02*
X12666560Y-12094470D01*
X12666560Y-12094470D02*
X12685608Y-12103994D01*
X12685608Y-12103994D02*
X12695131Y-12123042D01*
X12695131Y-12123042D02*
X12695131Y-12142089D01*
X12695131Y-12142089D02*
X12599893Y-12161137D01*
X12761798Y-12303994D02*
X12771322Y-12294470D01*
X12771322Y-12294470D02*
X12790370Y-12265899D01*
X12790370Y-12265899D02*
X12799893Y-12246851D01*
X12799893Y-12246851D02*
X12809417Y-12218280D01*
X12809417Y-12218280D02*
X12818941Y-12170661D01*
X12818941Y-12170661D02*
X12818941Y-12132566D01*
X12818941Y-12132566D02*
X12809417Y-12084947D01*
X12809417Y-12084947D02*
X12799893Y-12056375D01*
X12799893Y-12056375D02*
X12790370Y-12037328D01*
X12790370Y-12037328D02*
X12771322Y-12008756D01*
X12771322Y-12008756D02*
X12761798Y-11999232D01*
D10*
X8118640Y-12370320D02*
X8118640Y-12430320D01*
X8088640Y-12400320D02*
X8148640Y-12400320D01*
D11*
X8447512Y-12291804D02*
X8466560Y-12291804D01*
X8466560Y-12291804D02*
X8485607Y-12301328D01*
X8485607Y-12301328D02*
X8495131Y-12310851D01*
X8495131Y-12310851D02*
X8504655Y-12329899D01*
X8504655Y-12329899D02*
X8514179Y-12367994D01*
X8514179Y-12367994D02*
X8514179Y-12415613D01*
X8514179Y-12415613D02*
X8504655Y-12453708D01*
X8504655Y-12453708D02*
X8495131Y-12472756D01*
X8495131Y-12472756D02*
X8485607Y-12482280D01*
X8485607Y-12482280D02*
X8466560Y-12491804D01*
X8466560Y-12491804D02*
X8447512Y-12491804D01*
X8447512Y-12491804D02*
X8428464Y-12482280D01*
X8428464Y-12482280D02*
X8418941Y-12472756D01*
X8418941Y-12472756D02*
X8409417Y-12453708D01*
X8409417Y-12453708D02*
X8399893Y-12415613D01*
X8399893Y-12415613D02*
X8399893Y-12367994D01*
X8399893Y-12367994D02*
X8409417Y-12329899D01*
X8409417Y-12329899D02*
X8418941Y-12310851D01*
X8418941Y-12310851D02*
X8428464Y-12301328D01*
X8428464Y-12301328D02*
X8447512Y-12291804D01*
X8599893Y-12472756D02*
X8609417Y-12482280D01*
X8609417Y-12482280D02*
X8599893Y-12491804D01*
X8599893Y-12491804D02*
X8590369Y-12482280D01*
X8590369Y-12482280D02*
X8599893Y-12472756D01*
X8599893Y-12472756D02*
X8599893Y-12491804D01*
X8780845Y-12291804D02*
X8742750Y-12291804D01*
X8742750Y-12291804D02*
X8723703Y-12301328D01*
X8723703Y-12301328D02*
X8714179Y-12310851D01*
X8714179Y-12310851D02*
X8695131Y-12339423D01*
X8695131Y-12339423D02*
X8685607Y-12377518D01*
X8685607Y-12377518D02*
X8685607Y-12453708D01*
X8685607Y-12453708D02*
X8695131Y-12472756D01*
X8695131Y-12472756D02*
X8704655Y-12482280D01*
X8704655Y-12482280D02*
X8723703Y-12491804D01*
X8723703Y-12491804D02*
X8761798Y-12491804D01*
X8761798Y-12491804D02*
X8780845Y-12482280D01*
X8780845Y-12482280D02*
X8790369Y-12472756D01*
X8790369Y-12472756D02*
X8799893Y-12453708D01*
X8799893Y-12453708D02*
X8799893Y-12406089D01*
X8799893Y-12406089D02*
X8790369Y-12387042D01*
X8790369Y-12387042D02*
X8780845Y-12377518D01*
X8780845Y-12377518D02*
X8761798Y-12367994D01*
X8761798Y-12367994D02*
X8723703Y-12367994D01*
X8723703Y-12367994D02*
X8704655Y-12377518D01*
X8704655Y-12377518D02*
X8695131Y-12387042D01*
X8695131Y-12387042D02*
X8685607Y-12406089D01*
X8923703Y-12291804D02*
X8942750Y-12291804D01*
X8942750Y-12291804D02*
X8961798Y-12301328D01*
X8961798Y-12301328D02*
X8971322Y-12310851D01*
X8971322Y-12310851D02*
X8980845Y-12329899D01*
X8980845Y-12329899D02*
X8990369Y-12367994D01*
X8990369Y-12367994D02*
X8990369Y-12415613D01*
X8990369Y-12415613D02*
X8980845Y-12453708D01*
X8980845Y-12453708D02*
X8971322Y-12472756D01*
X8971322Y-12472756D02*
X8961798Y-12482280D01*
X8961798Y-12482280D02*
X8942750Y-12491804D01*
X8942750Y-12491804D02*
X8923703Y-12491804D01*
X8923703Y-12491804D02*
X8904655Y-12482280D01*
X8904655Y-12482280D02*
X8895131Y-12472756D01*
X8895131Y-12472756D02*
X8885607Y-12453708D01*
X8885607Y-12453708D02*
X8876084Y-12415613D01*
X8876084Y-12415613D02*
X8876084Y-12367994D01*
X8876084Y-12367994D02*
X8885607Y-12329899D01*
X8885607Y-12329899D02*
X8895131Y-12310851D01*
X8895131Y-12310851D02*
X8904655Y-12301328D01*
X8904655Y-12301328D02*
X8923703Y-12291804D01*
X9114179Y-12291804D02*
X9133226Y-12291804D01*
X9133226Y-12291804D02*
X9152274Y-12301328D01*
X9152274Y-12301328D02*
X9161798Y-12310851D01*
X9161798Y-12310851D02*
X9171322Y-12329899D01*
X9171322Y-12329899D02*
X9180845Y-12367994D01*
X9180845Y-12367994D02*
X9180845Y-12415613D01*
X9180845Y-12415613D02*
X9171322Y-12453708D01*
X9171322Y-12453708D02*
X9161798Y-12472756D01*
X9161798Y-12472756D02*
X9152274Y-12482280D01*
X9152274Y-12482280D02*
X9133226Y-12491804D01*
X9133226Y-12491804D02*
X9114179Y-12491804D01*
X9114179Y-12491804D02*
X9095131Y-12482280D01*
X9095131Y-12482280D02*
X9085607Y-12472756D01*
X9085607Y-12472756D02*
X9076084Y-12453708D01*
X9076084Y-12453708D02*
X9066560Y-12415613D01*
X9066560Y-12415613D02*
X9066560Y-12367994D01*
X9066560Y-12367994D02*
X9076084Y-12329899D01*
X9076084Y-12329899D02*
X9085607Y-12310851D01*
X9085607Y-12310851D02*
X9095131Y-12301328D01*
X9095131Y-12301328D02*
X9114179Y-12291804D01*
X9266560Y-12491804D02*
X9266560Y-12358470D01*
X9266560Y-12377518D02*
X9276084Y-12367994D01*
X9276084Y-12367994D02*
X9295131Y-12358470D01*
X9295131Y-12358470D02*
X9323703Y-12358470D01*
X9323703Y-12358470D02*
X9342750Y-12367994D01*
X9342750Y-12367994D02*
X9352274Y-12387042D01*
X9352274Y-12387042D02*
X9352274Y-12491804D01*
X9352274Y-12387042D02*
X9361798Y-12367994D01*
X9361798Y-12367994D02*
X9380845Y-12358470D01*
X9380845Y-12358470D02*
X9409417Y-12358470D01*
X9409417Y-12358470D02*
X9428465Y-12367994D01*
X9428465Y-12367994D02*
X9437988Y-12387042D01*
X9437988Y-12387042D02*
X9437988Y-12491804D01*
X9533226Y-12491804D02*
X9533226Y-12358470D01*
X9533226Y-12377518D02*
X9542750Y-12367994D01*
X9542750Y-12367994D02*
X9561798Y-12358470D01*
X9561798Y-12358470D02*
X9590369Y-12358470D01*
X9590369Y-12358470D02*
X9609417Y-12367994D01*
X9609417Y-12367994D02*
X9618941Y-12387042D01*
X9618941Y-12387042D02*
X9618941Y-12491804D01*
X9618941Y-12387042D02*
X9628465Y-12367994D01*
X9628465Y-12367994D02*
X9647512Y-12358470D01*
X9647512Y-12358470D02*
X9676084Y-12358470D01*
X9676084Y-12358470D02*
X9695131Y-12367994D01*
X9695131Y-12367994D02*
X9704655Y-12387042D01*
X9704655Y-12387042D02*
X9704655Y-12491804D01*
X10095131Y-12282280D02*
X9923703Y-12539423D01*
X10352274Y-12291804D02*
X10371322Y-12291804D01*
X10371322Y-12291804D02*
X10390369Y-12301328D01*
X10390369Y-12301328D02*
X10399893Y-12310851D01*
X10399893Y-12310851D02*
X10409417Y-12329899D01*
X10409417Y-12329899D02*
X10418941Y-12367994D01*
X10418941Y-12367994D02*
X10418941Y-12415613D01*
X10418941Y-12415613D02*
X10409417Y-12453708D01*
X10409417Y-12453708D02*
X10399893Y-12472756D01*
X10399893Y-12472756D02*
X10390369Y-12482280D01*
X10390369Y-12482280D02*
X10371322Y-12491804D01*
X10371322Y-12491804D02*
X10352274Y-12491804D01*
X10352274Y-12491804D02*
X10333227Y-12482280D01*
X10333227Y-12482280D02*
X10323703Y-12472756D01*
X10323703Y-12472756D02*
X10314179Y-12453708D01*
X10314179Y-12453708D02*
X10304655Y-12415613D01*
X10304655Y-12415613D02*
X10304655Y-12367994D01*
X10304655Y-12367994D02*
X10314179Y-12329899D01*
X10314179Y-12329899D02*
X10323703Y-12310851D01*
X10323703Y-12310851D02*
X10333227Y-12301328D01*
X10333227Y-12301328D02*
X10352274Y-12291804D01*
X10504655Y-12472756D02*
X10514179Y-12482280D01*
X10514179Y-12482280D02*
X10504655Y-12491804D01*
X10504655Y-12491804D02*
X10495131Y-12482280D01*
X10495131Y-12482280D02*
X10504655Y-12472756D01*
X10504655Y-12472756D02*
X10504655Y-12491804D01*
X10637988Y-12291804D02*
X10657036Y-12291804D01*
X10657036Y-12291804D02*
X10676084Y-12301328D01*
X10676084Y-12301328D02*
X10685608Y-12310851D01*
X10685608Y-12310851D02*
X10695131Y-12329899D01*
X10695131Y-12329899D02*
X10704655Y-12367994D01*
X10704655Y-12367994D02*
X10704655Y-12415613D01*
X10704655Y-12415613D02*
X10695131Y-12453708D01*
X10695131Y-12453708D02*
X10685608Y-12472756D01*
X10685608Y-12472756D02*
X10676084Y-12482280D01*
X10676084Y-12482280D02*
X10657036Y-12491804D01*
X10657036Y-12491804D02*
X10637988Y-12491804D01*
X10637988Y-12491804D02*
X10618941Y-12482280D01*
X10618941Y-12482280D02*
X10609417Y-12472756D01*
X10609417Y-12472756D02*
X10599893Y-12453708D01*
X10599893Y-12453708D02*
X10590369Y-12415613D01*
X10590369Y-12415613D02*
X10590369Y-12367994D01*
X10590369Y-12367994D02*
X10599893Y-12329899D01*
X10599893Y-12329899D02*
X10609417Y-12310851D01*
X10609417Y-12310851D02*
X10618941Y-12301328D01*
X10618941Y-12301328D02*
X10637988Y-12291804D01*
X10780846Y-12310851D02*
X10790369Y-12301328D01*
X10790369Y-12301328D02*
X10809417Y-12291804D01*
X10809417Y-12291804D02*
X10857036Y-12291804D01*
X10857036Y-12291804D02*
X10876084Y-12301328D01*
X10876084Y-12301328D02*
X10885608Y-12310851D01*
X10885608Y-12310851D02*
X10895131Y-12329899D01*
X10895131Y-12329899D02*
X10895131Y-12348947D01*
X10895131Y-12348947D02*
X10885608Y-12377518D01*
X10885608Y-12377518D02*
X10771322Y-12491804D01*
X10771322Y-12491804D02*
X10895131Y-12491804D01*
X10961798Y-12291804D02*
X11085608Y-12291804D01*
X11085608Y-12291804D02*
X11018941Y-12367994D01*
X11018941Y-12367994D02*
X11047512Y-12367994D01*
X11047512Y-12367994D02*
X11066560Y-12377518D01*
X11066560Y-12377518D02*
X11076084Y-12387042D01*
X11076084Y-12387042D02*
X11085608Y-12406089D01*
X11085608Y-12406089D02*
X11085608Y-12453708D01*
X11085608Y-12453708D02*
X11076084Y-12472756D01*
X11076084Y-12472756D02*
X11066560Y-12482280D01*
X11066560Y-12482280D02*
X11047512Y-12491804D01*
X11047512Y-12491804D02*
X10990369Y-12491804D01*
X10990369Y-12491804D02*
X10971322Y-12482280D01*
X10971322Y-12482280D02*
X10961798Y-12472756D01*
X11257036Y-12291804D02*
X11218941Y-12291804D01*
X11218941Y-12291804D02*
X11199893Y-12301328D01*
X11199893Y-12301328D02*
X11190369Y-12310851D01*
X11190369Y-12310851D02*
X11171322Y-12339423D01*
X11171322Y-12339423D02*
X11161798Y-12377518D01*
X11161798Y-12377518D02*
X11161798Y-12453708D01*
X11161798Y-12453708D02*
X11171322Y-12472756D01*
X11171322Y-12472756D02*
X11180846Y-12482280D01*
X11180846Y-12482280D02*
X11199893Y-12491804D01*
X11199893Y-12491804D02*
X11237988Y-12491804D01*
X11237988Y-12491804D02*
X11257036Y-12482280D01*
X11257036Y-12482280D02*
X11266560Y-12472756D01*
X11266560Y-12472756D02*
X11276084Y-12453708D01*
X11276084Y-12453708D02*
X11276084Y-12406089D01*
X11276084Y-12406089D02*
X11266560Y-12387042D01*
X11266560Y-12387042D02*
X11257036Y-12377518D01*
X11257036Y-12377518D02*
X11237988Y-12367994D01*
X11237988Y-12367994D02*
X11199893Y-12367994D01*
X11199893Y-12367994D02*
X11180846Y-12377518D01*
X11180846Y-12377518D02*
X11171322Y-12387042D01*
X11171322Y-12387042D02*
X11161798Y-12406089D01*
X11352274Y-12291804D02*
X11352274Y-12329899D01*
X11428465Y-12291804D02*
X11428465Y-12329899D01*
X11723703Y-12567994D02*
X11714179Y-12558470D01*
X11714179Y-12558470D02*
X11695131Y-12529899D01*
X11695131Y-12529899D02*
X11685608Y-12510851D01*
X11685608Y-12510851D02*
X11676084Y-12482280D01*
X11676084Y-12482280D02*
X11666560Y-12434661D01*
X11666560Y-12434661D02*
X11666560Y-12396566D01*
X11666560Y-12396566D02*
X11676084Y-12348947D01*
X11676084Y-12348947D02*
X11685608Y-12320375D01*
X11685608Y-12320375D02*
X11695131Y-12301328D01*
X11695131Y-12301328D02*
X11714179Y-12272756D01*
X11714179Y-12272756D02*
X11723703Y-12263232D01*
X11837988Y-12291804D02*
X11857036Y-12291804D01*
X11857036Y-12291804D02*
X11876084Y-12301328D01*
X11876084Y-12301328D02*
X11885608Y-12310851D01*
X11885608Y-12310851D02*
X11895131Y-12329899D01*
X11895131Y-12329899D02*
X11904655Y-12367994D01*
X11904655Y-12367994D02*
X11904655Y-12415613D01*
X11904655Y-12415613D02*
X11895131Y-12453708D01*
X11895131Y-12453708D02*
X11885608Y-12472756D01*
X11885608Y-12472756D02*
X11876084Y-12482280D01*
X11876084Y-12482280D02*
X11857036Y-12491804D01*
X11857036Y-12491804D02*
X11837988Y-12491804D01*
X11837988Y-12491804D02*
X11818941Y-12482280D01*
X11818941Y-12482280D02*
X11809417Y-12472756D01*
X11809417Y-12472756D02*
X11799893Y-12453708D01*
X11799893Y-12453708D02*
X11790369Y-12415613D01*
X11790369Y-12415613D02*
X11790369Y-12367994D01*
X11790369Y-12367994D02*
X11799893Y-12329899D01*
X11799893Y-12329899D02*
X11809417Y-12310851D01*
X11809417Y-12310851D02*
X11818941Y-12301328D01*
X11818941Y-12301328D02*
X11837988Y-12291804D01*
X12142750Y-12491804D02*
X12142750Y-12291804D01*
X12228465Y-12491804D02*
X12228465Y-12387042D01*
X12228465Y-12387042D02*
X12218941Y-12367994D01*
X12218941Y-12367994D02*
X12199893Y-12358470D01*
X12199893Y-12358470D02*
X12171322Y-12358470D01*
X12171322Y-12358470D02*
X12152274Y-12367994D01*
X12152274Y-12367994D02*
X12142750Y-12377518D01*
X12352274Y-12491804D02*
X12333227Y-12482280D01*
X12333227Y-12482280D02*
X12323703Y-12472756D01*
X12323703Y-12472756D02*
X12314179Y-12453708D01*
X12314179Y-12453708D02*
X12314179Y-12396566D01*
X12314179Y-12396566D02*
X12323703Y-12377518D01*
X12323703Y-12377518D02*
X12333227Y-12367994D01*
X12333227Y-12367994D02*
X12352274Y-12358470D01*
X12352274Y-12358470D02*
X12380846Y-12358470D01*
X12380846Y-12358470D02*
X12399893Y-12367994D01*
X12399893Y-12367994D02*
X12409417Y-12377518D01*
X12409417Y-12377518D02*
X12418941Y-12396566D01*
X12418941Y-12396566D02*
X12418941Y-12453708D01*
X12418941Y-12453708D02*
X12409417Y-12472756D01*
X12409417Y-12472756D02*
X12399893Y-12482280D01*
X12399893Y-12482280D02*
X12380846Y-12491804D01*
X12380846Y-12491804D02*
X12352274Y-12491804D01*
X12533227Y-12491804D02*
X12514179Y-12482280D01*
X12514179Y-12482280D02*
X12504655Y-12463232D01*
X12504655Y-12463232D02*
X12504655Y-12291804D01*
X12685608Y-12482280D02*
X12666560Y-12491804D01*
X12666560Y-12491804D02*
X12628465Y-12491804D01*
X12628465Y-12491804D02*
X12609417Y-12482280D01*
X12609417Y-12482280D02*
X12599893Y-12463232D01*
X12599893Y-12463232D02*
X12599893Y-12387042D01*
X12599893Y-12387042D02*
X12609417Y-12367994D01*
X12609417Y-12367994D02*
X12628465Y-12358470D01*
X12628465Y-12358470D02*
X12666560Y-12358470D01*
X12666560Y-12358470D02*
X12685608Y-12367994D01*
X12685608Y-12367994D02*
X12695131Y-12387042D01*
X12695131Y-12387042D02*
X12695131Y-12406089D01*
X12695131Y-12406089D02*
X12599893Y-12425137D01*
X12771322Y-12482280D02*
X12790370Y-12491804D01*
X12790370Y-12491804D02*
X12828465Y-12491804D01*
X12828465Y-12491804D02*
X12847512Y-12482280D01*
X12847512Y-12482280D02*
X12857036Y-12463232D01*
X12857036Y-12463232D02*
X12857036Y-12453708D01*
X12857036Y-12453708D02*
X12847512Y-12434661D01*
X12847512Y-12434661D02*
X12828465Y-12425137D01*
X12828465Y-12425137D02*
X12799893Y-12425137D01*
X12799893Y-12425137D02*
X12780846Y-12415613D01*
X12780846Y-12415613D02*
X12771322Y-12396566D01*
X12771322Y-12396566D02*
X12771322Y-12387042D01*
X12771322Y-12387042D02*
X12780846Y-12367994D01*
X12780846Y-12367994D02*
X12799893Y-12358470D01*
X12799893Y-12358470D02*
X12828465Y-12358470D01*
X12828465Y-12358470D02*
X12847512Y-12367994D01*
X13095132Y-12415613D02*
X13247513Y-12415613D01*
X13171322Y-12491804D02*
X13171322Y-12339423D01*
X13485608Y-12310851D02*
X13495132Y-12301328D01*
X13495132Y-12301328D02*
X13514179Y-12291804D01*
X13514179Y-12291804D02*
X13561798Y-12291804D01*
X13561798Y-12291804D02*
X13580846Y-12301328D01*
X13580846Y-12301328D02*
X13590370Y-12310851D01*
X13590370Y-12310851D02*
X13599893Y-12329899D01*
X13599893Y-12329899D02*
X13599893Y-12348947D01*
X13599893Y-12348947D02*
X13590370Y-12377518D01*
X13590370Y-12377518D02*
X13476084Y-12491804D01*
X13476084Y-12491804D02*
X13599893Y-12491804D01*
X13828465Y-12482280D02*
X13847513Y-12491804D01*
X13847513Y-12491804D02*
X13885608Y-12491804D01*
X13885608Y-12491804D02*
X13904655Y-12482280D01*
X13904655Y-12482280D02*
X13914179Y-12463232D01*
X13914179Y-12463232D02*
X13914179Y-12453708D01*
X13914179Y-12453708D02*
X13904655Y-12434661D01*
X13904655Y-12434661D02*
X13885608Y-12425137D01*
X13885608Y-12425137D02*
X13857036Y-12425137D01*
X13857036Y-12425137D02*
X13837989Y-12415613D01*
X13837989Y-12415613D02*
X13828465Y-12396566D01*
X13828465Y-12396566D02*
X13828465Y-12387042D01*
X13828465Y-12387042D02*
X13837989Y-12367994D01*
X13837989Y-12367994D02*
X13857036Y-12358470D01*
X13857036Y-12358470D02*
X13885608Y-12358470D01*
X13885608Y-12358470D02*
X13904655Y-12367994D01*
X14028465Y-12491804D02*
X14009417Y-12482280D01*
X14009417Y-12482280D02*
X13999894Y-12463232D01*
X13999894Y-12463232D02*
X13999894Y-12291804D01*
X14133227Y-12491804D02*
X14114179Y-12482280D01*
X14114179Y-12482280D02*
X14104655Y-12472756D01*
X14104655Y-12472756D02*
X14095132Y-12453708D01*
X14095132Y-12453708D02*
X14095132Y-12396566D01*
X14095132Y-12396566D02*
X14104655Y-12377518D01*
X14104655Y-12377518D02*
X14114179Y-12367994D01*
X14114179Y-12367994D02*
X14133227Y-12358470D01*
X14133227Y-12358470D02*
X14161798Y-12358470D01*
X14161798Y-12358470D02*
X14180846Y-12367994D01*
X14180846Y-12367994D02*
X14190370Y-12377518D01*
X14190370Y-12377518D02*
X14199894Y-12396566D01*
X14199894Y-12396566D02*
X14199894Y-12453708D01*
X14199894Y-12453708D02*
X14190370Y-12472756D01*
X14190370Y-12472756D02*
X14180846Y-12482280D01*
X14180846Y-12482280D02*
X14161798Y-12491804D01*
X14161798Y-12491804D02*
X14133227Y-12491804D01*
X14257036Y-12358470D02*
X14333227Y-12358470D01*
X14285608Y-12291804D02*
X14285608Y-12463232D01*
X14285608Y-12463232D02*
X14295132Y-12482280D01*
X14295132Y-12482280D02*
X14314179Y-12491804D01*
X14314179Y-12491804D02*
X14333227Y-12491804D01*
X14390370Y-12482280D02*
X14409417Y-12491804D01*
X14409417Y-12491804D02*
X14447513Y-12491804D01*
X14447513Y-12491804D02*
X14466560Y-12482280D01*
X14466560Y-12482280D02*
X14476084Y-12463232D01*
X14476084Y-12463232D02*
X14476084Y-12453708D01*
X14476084Y-12453708D02*
X14466560Y-12434661D01*
X14466560Y-12434661D02*
X14447513Y-12425137D01*
X14447513Y-12425137D02*
X14418941Y-12425137D01*
X14418941Y-12425137D02*
X14399894Y-12415613D01*
X14399894Y-12415613D02*
X14390370Y-12396566D01*
X14390370Y-12396566D02*
X14390370Y-12387042D01*
X14390370Y-12387042D02*
X14399894Y-12367994D01*
X14399894Y-12367994D02*
X14418941Y-12358470D01*
X14418941Y-12358470D02*
X14447513Y-12358470D01*
X14447513Y-12358470D02*
X14466560Y-12367994D01*
X14542751Y-12567994D02*
X14552275Y-12558470D01*
X14552275Y-12558470D02*
X14571322Y-12529899D01*
X14571322Y-12529899D02*
X14580846Y-12510851D01*
X14580846Y-12510851D02*
X14590370Y-12482280D01*
X14590370Y-12482280D02*
X14599894Y-12434661D01*
X14599894Y-12434661D02*
X14599894Y-12396566D01*
X14599894Y-12396566D02*
X14590370Y-12348947D01*
X14590370Y-12348947D02*
X14580846Y-12320375D01*
X14580846Y-12320375D02*
X14571322Y-12301328D01*
X14571322Y-12301328D02*
X14552275Y-12272756D01*
X14552275Y-12272756D02*
X14542751Y-12263232D01*
D10*
X8133996Y-12699676D02*
X8133996Y-12628964D01*
X8063284Y-12628964D01*
X8063284Y-12699676D01*
X8133996Y-12699676D01*
D11*
X8514179Y-12755804D02*
X8399893Y-12755804D01*
X8457036Y-12755804D02*
X8457036Y-12555804D01*
X8457036Y-12555804D02*
X8437988Y-12584375D01*
X8437988Y-12584375D02*
X8418941Y-12603423D01*
X8418941Y-12603423D02*
X8399893Y-12612947D01*
X8599893Y-12736756D02*
X8609417Y-12746280D01*
X8609417Y-12746280D02*
X8599893Y-12755804D01*
X8599893Y-12755804D02*
X8590369Y-12746280D01*
X8590369Y-12746280D02*
X8599893Y-12736756D01*
X8599893Y-12736756D02*
X8599893Y-12755804D01*
X8733226Y-12555804D02*
X8752274Y-12555804D01*
X8752274Y-12555804D02*
X8771322Y-12565328D01*
X8771322Y-12565328D02*
X8780845Y-12574851D01*
X8780845Y-12574851D02*
X8790369Y-12593899D01*
X8790369Y-12593899D02*
X8799893Y-12631994D01*
X8799893Y-12631994D02*
X8799893Y-12679613D01*
X8799893Y-12679613D02*
X8790369Y-12717708D01*
X8790369Y-12717708D02*
X8780845Y-12736756D01*
X8780845Y-12736756D02*
X8771322Y-12746280D01*
X8771322Y-12746280D02*
X8752274Y-12755804D01*
X8752274Y-12755804D02*
X8733226Y-12755804D01*
X8733226Y-12755804D02*
X8714179Y-12746280D01*
X8714179Y-12746280D02*
X8704655Y-12736756D01*
X8704655Y-12736756D02*
X8695131Y-12717708D01*
X8695131Y-12717708D02*
X8685607Y-12679613D01*
X8685607Y-12679613D02*
X8685607Y-12631994D01*
X8685607Y-12631994D02*
X8695131Y-12593899D01*
X8695131Y-12593899D02*
X8704655Y-12574851D01*
X8704655Y-12574851D02*
X8714179Y-12565328D01*
X8714179Y-12565328D02*
X8733226Y-12555804D01*
X8923703Y-12555804D02*
X8942750Y-12555804D01*
X8942750Y-12555804D02*
X8961798Y-12565328D01*
X8961798Y-12565328D02*
X8971322Y-12574851D01*
X8971322Y-12574851D02*
X8980845Y-12593899D01*
X8980845Y-12593899D02*
X8990369Y-12631994D01*
X8990369Y-12631994D02*
X8990369Y-12679613D01*
X8990369Y-12679613D02*
X8980845Y-12717708D01*
X8980845Y-12717708D02*
X8971322Y-12736756D01*
X8971322Y-12736756D02*
X8961798Y-12746280D01*
X8961798Y-12746280D02*
X8942750Y-12755804D01*
X8942750Y-12755804D02*
X8923703Y-12755804D01*
X8923703Y-12755804D02*
X8904655Y-12746280D01*
X8904655Y-12746280D02*
X8895131Y-12736756D01*
X8895131Y-12736756D02*
X8885607Y-12717708D01*
X8885607Y-12717708D02*
X8876084Y-12679613D01*
X8876084Y-12679613D02*
X8876084Y-12631994D01*
X8876084Y-12631994D02*
X8885607Y-12593899D01*
X8885607Y-12593899D02*
X8895131Y-12574851D01*
X8895131Y-12574851D02*
X8904655Y-12565328D01*
X8904655Y-12565328D02*
X8923703Y-12555804D01*
X9114179Y-12555804D02*
X9133226Y-12555804D01*
X9133226Y-12555804D02*
X9152274Y-12565328D01*
X9152274Y-12565328D02*
X9161798Y-12574851D01*
X9161798Y-12574851D02*
X9171322Y-12593899D01*
X9171322Y-12593899D02*
X9180845Y-12631994D01*
X9180845Y-12631994D02*
X9180845Y-12679613D01*
X9180845Y-12679613D02*
X9171322Y-12717708D01*
X9171322Y-12717708D02*
X9161798Y-12736756D01*
X9161798Y-12736756D02*
X9152274Y-12746280D01*
X9152274Y-12746280D02*
X9133226Y-12755804D01*
X9133226Y-12755804D02*
X9114179Y-12755804D01*
X9114179Y-12755804D02*
X9095131Y-12746280D01*
X9095131Y-12746280D02*
X9085607Y-12736756D01*
X9085607Y-12736756D02*
X9076084Y-12717708D01*
X9076084Y-12717708D02*
X9066560Y-12679613D01*
X9066560Y-12679613D02*
X9066560Y-12631994D01*
X9066560Y-12631994D02*
X9076084Y-12593899D01*
X9076084Y-12593899D02*
X9085607Y-12574851D01*
X9085607Y-12574851D02*
X9095131Y-12565328D01*
X9095131Y-12565328D02*
X9114179Y-12555804D01*
X9266560Y-12755804D02*
X9266560Y-12622470D01*
X9266560Y-12641518D02*
X9276084Y-12631994D01*
X9276084Y-12631994D02*
X9295131Y-12622470D01*
X9295131Y-12622470D02*
X9323703Y-12622470D01*
X9323703Y-12622470D02*
X9342750Y-12631994D01*
X9342750Y-12631994D02*
X9352274Y-12651042D01*
X9352274Y-12651042D02*
X9352274Y-12755804D01*
X9352274Y-12651042D02*
X9361798Y-12631994D01*
X9361798Y-12631994D02*
X9380845Y-12622470D01*
X9380845Y-12622470D02*
X9409417Y-12622470D01*
X9409417Y-12622470D02*
X9428465Y-12631994D01*
X9428465Y-12631994D02*
X9437988Y-12651042D01*
X9437988Y-12651042D02*
X9437988Y-12755804D01*
X9533226Y-12755804D02*
X9533226Y-12622470D01*
X9533226Y-12641518D02*
X9542750Y-12631994D01*
X9542750Y-12631994D02*
X9561798Y-12622470D01*
X9561798Y-12622470D02*
X9590369Y-12622470D01*
X9590369Y-12622470D02*
X9609417Y-12631994D01*
X9609417Y-12631994D02*
X9618941Y-12651042D01*
X9618941Y-12651042D02*
X9618941Y-12755804D01*
X9618941Y-12651042D02*
X9628465Y-12631994D01*
X9628465Y-12631994D02*
X9647512Y-12622470D01*
X9647512Y-12622470D02*
X9676084Y-12622470D01*
X9676084Y-12622470D02*
X9695131Y-12631994D01*
X9695131Y-12631994D02*
X9704655Y-12651042D01*
X9704655Y-12651042D02*
X9704655Y-12755804D01*
X10095131Y-12546280D02*
X9923703Y-12803423D01*
X10352274Y-12555804D02*
X10371322Y-12555804D01*
X10371322Y-12555804D02*
X10390369Y-12565328D01*
X10390369Y-12565328D02*
X10399893Y-12574851D01*
X10399893Y-12574851D02*
X10409417Y-12593899D01*
X10409417Y-12593899D02*
X10418941Y-12631994D01*
X10418941Y-12631994D02*
X10418941Y-12679613D01*
X10418941Y-12679613D02*
X10409417Y-12717708D01*
X10409417Y-12717708D02*
X10399893Y-12736756D01*
X10399893Y-12736756D02*
X10390369Y-12746280D01*
X10390369Y-12746280D02*
X10371322Y-12755804D01*
X10371322Y-12755804D02*
X10352274Y-12755804D01*
X10352274Y-12755804D02*
X10333227Y-12746280D01*
X10333227Y-12746280D02*
X10323703Y-12736756D01*
X10323703Y-12736756D02*
X10314179Y-12717708D01*
X10314179Y-12717708D02*
X10304655Y-12679613D01*
X10304655Y-12679613D02*
X10304655Y-12631994D01*
X10304655Y-12631994D02*
X10314179Y-12593899D01*
X10314179Y-12593899D02*
X10323703Y-12574851D01*
X10323703Y-12574851D02*
X10333227Y-12565328D01*
X10333227Y-12565328D02*
X10352274Y-12555804D01*
X10504655Y-12736756D02*
X10514179Y-12746280D01*
X10514179Y-12746280D02*
X10504655Y-12755804D01*
X10504655Y-12755804D02*
X10495131Y-12746280D01*
X10495131Y-12746280D02*
X10504655Y-12736756D01*
X10504655Y-12736756D02*
X10504655Y-12755804D01*
X10637988Y-12555804D02*
X10657036Y-12555804D01*
X10657036Y-12555804D02*
X10676084Y-12565328D01*
X10676084Y-12565328D02*
X10685608Y-12574851D01*
X10685608Y-12574851D02*
X10695131Y-12593899D01*
X10695131Y-12593899D02*
X10704655Y-12631994D01*
X10704655Y-12631994D02*
X10704655Y-12679613D01*
X10704655Y-12679613D02*
X10695131Y-12717708D01*
X10695131Y-12717708D02*
X10685608Y-12736756D01*
X10685608Y-12736756D02*
X10676084Y-12746280D01*
X10676084Y-12746280D02*
X10657036Y-12755804D01*
X10657036Y-12755804D02*
X10637988Y-12755804D01*
X10637988Y-12755804D02*
X10618941Y-12746280D01*
X10618941Y-12746280D02*
X10609417Y-12736756D01*
X10609417Y-12736756D02*
X10599893Y-12717708D01*
X10599893Y-12717708D02*
X10590369Y-12679613D01*
X10590369Y-12679613D02*
X10590369Y-12631994D01*
X10590369Y-12631994D02*
X10599893Y-12593899D01*
X10599893Y-12593899D02*
X10609417Y-12574851D01*
X10609417Y-12574851D02*
X10618941Y-12565328D01*
X10618941Y-12565328D02*
X10637988Y-12555804D01*
X10771322Y-12555804D02*
X10895131Y-12555804D01*
X10895131Y-12555804D02*
X10828465Y-12631994D01*
X10828465Y-12631994D02*
X10857036Y-12631994D01*
X10857036Y-12631994D02*
X10876084Y-12641518D01*
X10876084Y-12641518D02*
X10885608Y-12651042D01*
X10885608Y-12651042D02*
X10895131Y-12670089D01*
X10895131Y-12670089D02*
X10895131Y-12717708D01*
X10895131Y-12717708D02*
X10885608Y-12736756D01*
X10885608Y-12736756D02*
X10876084Y-12746280D01*
X10876084Y-12746280D02*
X10857036Y-12755804D01*
X10857036Y-12755804D02*
X10799893Y-12755804D01*
X10799893Y-12755804D02*
X10780846Y-12746280D01*
X10780846Y-12746280D02*
X10771322Y-12736756D01*
X10990369Y-12755804D02*
X11028465Y-12755804D01*
X11028465Y-12755804D02*
X11047512Y-12746280D01*
X11047512Y-12746280D02*
X11057036Y-12736756D01*
X11057036Y-12736756D02*
X11076084Y-12708185D01*
X11076084Y-12708185D02*
X11085608Y-12670089D01*
X11085608Y-12670089D02*
X11085608Y-12593899D01*
X11085608Y-12593899D02*
X11076084Y-12574851D01*
X11076084Y-12574851D02*
X11066560Y-12565328D01*
X11066560Y-12565328D02*
X11047512Y-12555804D01*
X11047512Y-12555804D02*
X11009417Y-12555804D01*
X11009417Y-12555804D02*
X10990369Y-12565328D01*
X10990369Y-12565328D02*
X10980846Y-12574851D01*
X10980846Y-12574851D02*
X10971322Y-12593899D01*
X10971322Y-12593899D02*
X10971322Y-12641518D01*
X10971322Y-12641518D02*
X10980846Y-12660566D01*
X10980846Y-12660566D02*
X10990369Y-12670089D01*
X10990369Y-12670089D02*
X11009417Y-12679613D01*
X11009417Y-12679613D02*
X11047512Y-12679613D01*
X11047512Y-12679613D02*
X11066560Y-12670089D01*
X11066560Y-12670089D02*
X11076084Y-12660566D01*
X11076084Y-12660566D02*
X11085608Y-12641518D01*
X11257036Y-12622470D02*
X11257036Y-12755804D01*
X11209417Y-12546280D02*
X11161798Y-12689137D01*
X11161798Y-12689137D02*
X11285607Y-12689137D01*
X11352274Y-12555804D02*
X11352274Y-12593899D01*
X11428465Y-12555804D02*
X11428465Y-12593899D01*
X11723703Y-12831994D02*
X11714179Y-12822470D01*
X11714179Y-12822470D02*
X11695131Y-12793899D01*
X11695131Y-12793899D02*
X11685608Y-12774851D01*
X11685608Y-12774851D02*
X11676084Y-12746280D01*
X11676084Y-12746280D02*
X11666560Y-12698661D01*
X11666560Y-12698661D02*
X11666560Y-12660566D01*
X11666560Y-12660566D02*
X11676084Y-12612947D01*
X11676084Y-12612947D02*
X11685608Y-12584375D01*
X11685608Y-12584375D02*
X11695131Y-12565328D01*
X11695131Y-12565328D02*
X11714179Y-12536756D01*
X11714179Y-12536756D02*
X11723703Y-12527232D01*
X11780846Y-12555804D02*
X11904655Y-12555804D01*
X11904655Y-12555804D02*
X11837988Y-12631994D01*
X11837988Y-12631994D02*
X11866560Y-12631994D01*
X11866560Y-12631994D02*
X11885608Y-12641518D01*
X11885608Y-12641518D02*
X11895131Y-12651042D01*
X11895131Y-12651042D02*
X11904655Y-12670089D01*
X11904655Y-12670089D02*
X11904655Y-12717708D01*
X11904655Y-12717708D02*
X11895131Y-12736756D01*
X11895131Y-12736756D02*
X11885608Y-12746280D01*
X11885608Y-12746280D02*
X11866560Y-12755804D01*
X11866560Y-12755804D02*
X11809417Y-12755804D01*
X11809417Y-12755804D02*
X11790369Y-12746280D01*
X11790369Y-12746280D02*
X11780846Y-12736756D01*
X12076084Y-12555804D02*
X12037988Y-12555804D01*
X12037988Y-12555804D02*
X12018941Y-12565328D01*
X12018941Y-12565328D02*
X12009417Y-12574851D01*
X12009417Y-12574851D02*
X11990369Y-12603423D01*
X11990369Y-12603423D02*
X11980846Y-12641518D01*
X11980846Y-12641518D02*
X11980846Y-12717708D01*
X11980846Y-12717708D02*
X11990369Y-12736756D01*
X11990369Y-12736756D02*
X11999893Y-12746280D01*
X11999893Y-12746280D02*
X12018941Y-12755804D01*
X12018941Y-12755804D02*
X12057036Y-12755804D01*
X12057036Y-12755804D02*
X12076084Y-12746280D01*
X12076084Y-12746280D02*
X12085608Y-12736756D01*
X12085608Y-12736756D02*
X12095131Y-12717708D01*
X12095131Y-12717708D02*
X12095131Y-12670089D01*
X12095131Y-12670089D02*
X12085608Y-12651042D01*
X12085608Y-12651042D02*
X12076084Y-12641518D01*
X12076084Y-12641518D02*
X12057036Y-12631994D01*
X12057036Y-12631994D02*
X12018941Y-12631994D01*
X12018941Y-12631994D02*
X11999893Y-12641518D01*
X11999893Y-12641518D02*
X11990369Y-12651042D01*
X11990369Y-12651042D02*
X11980846Y-12670089D01*
X12333227Y-12755804D02*
X12333227Y-12555804D01*
X12418941Y-12755804D02*
X12418941Y-12651042D01*
X12418941Y-12651042D02*
X12409417Y-12631994D01*
X12409417Y-12631994D02*
X12390370Y-12622470D01*
X12390370Y-12622470D02*
X12361798Y-12622470D01*
X12361798Y-12622470D02*
X12342750Y-12631994D01*
X12342750Y-12631994D02*
X12333227Y-12641518D01*
X12542750Y-12755804D02*
X12523703Y-12746280D01*
X12523703Y-12746280D02*
X12514179Y-12736756D01*
X12514179Y-12736756D02*
X12504655Y-12717708D01*
X12504655Y-12717708D02*
X12504655Y-12660566D01*
X12504655Y-12660566D02*
X12514179Y-12641518D01*
X12514179Y-12641518D02*
X12523703Y-12631994D01*
X12523703Y-12631994D02*
X12542750Y-12622470D01*
X12542750Y-12622470D02*
X12571322Y-12622470D01*
X12571322Y-12622470D02*
X12590370Y-12631994D01*
X12590370Y-12631994D02*
X12599893Y-12641518D01*
X12599893Y-12641518D02*
X12609417Y-12660566D01*
X12609417Y-12660566D02*
X12609417Y-12717708D01*
X12609417Y-12717708D02*
X12599893Y-12736756D01*
X12599893Y-12736756D02*
X12590370Y-12746280D01*
X12590370Y-12746280D02*
X12571322Y-12755804D01*
X12571322Y-12755804D02*
X12542750Y-12755804D01*
X12723703Y-12755804D02*
X12704655Y-12746280D01*
X12704655Y-12746280D02*
X12695131Y-12727232D01*
X12695131Y-12727232D02*
X12695131Y-12555804D01*
X12876084Y-12746280D02*
X12857036Y-12755804D01*
X12857036Y-12755804D02*
X12818941Y-12755804D01*
X12818941Y-12755804D02*
X12799893Y-12746280D01*
X12799893Y-12746280D02*
X12790370Y-12727232D01*
X12790370Y-12727232D02*
X12790370Y-12651042D01*
X12790370Y-12651042D02*
X12799893Y-12631994D01*
X12799893Y-12631994D02*
X12818941Y-12622470D01*
X12818941Y-12622470D02*
X12857036Y-12622470D01*
X12857036Y-12622470D02*
X12876084Y-12631994D01*
X12876084Y-12631994D02*
X12885608Y-12651042D01*
X12885608Y-12651042D02*
X12885608Y-12670089D01*
X12885608Y-12670089D02*
X12790370Y-12689137D01*
X12961798Y-12746280D02*
X12980846Y-12755804D01*
X12980846Y-12755804D02*
X13018941Y-12755804D01*
X13018941Y-12755804D02*
X13037989Y-12746280D01*
X13037989Y-12746280D02*
X13047512Y-12727232D01*
X13047512Y-12727232D02*
X13047512Y-12717708D01*
X13047512Y-12717708D02*
X13037989Y-12698661D01*
X13037989Y-12698661D02*
X13018941Y-12689137D01*
X13018941Y-12689137D02*
X12990370Y-12689137D01*
X12990370Y-12689137D02*
X12971322Y-12679613D01*
X12971322Y-12679613D02*
X12961798Y-12660566D01*
X12961798Y-12660566D02*
X12961798Y-12651042D01*
X12961798Y-12651042D02*
X12971322Y-12631994D01*
X12971322Y-12631994D02*
X12990370Y-12622470D01*
X12990370Y-12622470D02*
X13018941Y-12622470D01*
X13018941Y-12622470D02*
X13037989Y-12631994D01*
X13285608Y-12679613D02*
X13437989Y-12679613D01*
X13361798Y-12755804D02*
X13361798Y-12603423D01*
X13790370Y-12755804D02*
X13676084Y-12755804D01*
X13733227Y-12755804D02*
X13733227Y-12555804D01*
X13733227Y-12555804D02*
X13714179Y-12584375D01*
X13714179Y-12584375D02*
X13695132Y-12603423D01*
X13695132Y-12603423D02*
X13676084Y-12612947D01*
X14018941Y-12746280D02*
X14037989Y-12755804D01*
X14037989Y-12755804D02*
X14076084Y-12755804D01*
X14076084Y-12755804D02*
X14095132Y-12746280D01*
X14095132Y-12746280D02*
X14104655Y-12727232D01*
X14104655Y-12727232D02*
X14104655Y-12717708D01*
X14104655Y-12717708D02*
X14095132Y-12698661D01*
X14095132Y-12698661D02*
X14076084Y-12689137D01*
X14076084Y-12689137D02*
X14047513Y-12689137D01*
X14047513Y-12689137D02*
X14028465Y-12679613D01*
X14028465Y-12679613D02*
X14018941Y-12660566D01*
X14018941Y-12660566D02*
X14018941Y-12651042D01*
X14018941Y-12651042D02*
X14028465Y-12631994D01*
X14028465Y-12631994D02*
X14047513Y-12622470D01*
X14047513Y-12622470D02*
X14076084Y-12622470D01*
X14076084Y-12622470D02*
X14095132Y-12631994D01*
X14218941Y-12755804D02*
X14199894Y-12746280D01*
X14199894Y-12746280D02*
X14190370Y-12727232D01*
X14190370Y-12727232D02*
X14190370Y-12555804D01*
X14323703Y-12755804D02*
X14304655Y-12746280D01*
X14304655Y-12746280D02*
X14295132Y-12736756D01*
X14295132Y-12736756D02*
X14285608Y-12717708D01*
X14285608Y-12717708D02*
X14285608Y-12660566D01*
X14285608Y-12660566D02*
X14295132Y-12641518D01*
X14295132Y-12641518D02*
X14304655Y-12631994D01*
X14304655Y-12631994D02*
X14323703Y-12622470D01*
X14323703Y-12622470D02*
X14352275Y-12622470D01*
X14352275Y-12622470D02*
X14371322Y-12631994D01*
X14371322Y-12631994D02*
X14380846Y-12641518D01*
X14380846Y-12641518D02*
X14390370Y-12660566D01*
X14390370Y-12660566D02*
X14390370Y-12717708D01*
X14390370Y-12717708D02*
X14380846Y-12736756D01*
X14380846Y-12736756D02*
X14371322Y-12746280D01*
X14371322Y-12746280D02*
X14352275Y-12755804D01*
X14352275Y-12755804D02*
X14323703Y-12755804D01*
X14447513Y-12622470D02*
X14523703Y-12622470D01*
X14476084Y-12555804D02*
X14476084Y-12727232D01*
X14476084Y-12727232D02*
X14485608Y-12746280D01*
X14485608Y-12746280D02*
X14504655Y-12755804D01*
X14504655Y-12755804D02*
X14523703Y-12755804D01*
X14571322Y-12831994D02*
X14580846Y-12822470D01*
X14580846Y-12822470D02*
X14599894Y-12793899D01*
X14599894Y-12793899D02*
X14609417Y-12774851D01*
X14609417Y-12774851D02*
X14618941Y-12746280D01*
X14618941Y-12746280D02*
X14628465Y-12698661D01*
X14628465Y-12698661D02*
X14628465Y-12660566D01*
X14628465Y-12660566D02*
X14618941Y-12612947D01*
X14618941Y-12612947D02*
X14609417Y-12584375D01*
X14609417Y-12584375D02*
X14599894Y-12565328D01*
X14599894Y-12565328D02*
X14580846Y-12536756D01*
X14580846Y-12536756D02*
X14571322Y-12527232D01*
D12*
X8095300Y-12981660D02*
X8148640Y-12928320D01*
X8095300Y-12874980D01*
X8041960Y-12928320D01*
X8095300Y-12981660D01*
D11*
X8514179Y-13019804D02*
X8399893Y-13019804D01*
X8457036Y-13019804D02*
X8457036Y-12819804D01*
X8457036Y-12819804D02*
X8437988Y-12848375D01*
X8437988Y-12848375D02*
X8418941Y-12867423D01*
X8418941Y-12867423D02*
X8399893Y-12876947D01*
X8599893Y-13000756D02*
X8609417Y-13010280D01*
X8609417Y-13010280D02*
X8599893Y-13019804D01*
X8599893Y-13019804D02*
X8590369Y-13010280D01*
X8590369Y-13010280D02*
X8599893Y-13000756D01*
X8599893Y-13000756D02*
X8599893Y-13019804D01*
X8733226Y-12819804D02*
X8752274Y-12819804D01*
X8752274Y-12819804D02*
X8771322Y-12829328D01*
X8771322Y-12829328D02*
X8780845Y-12838851D01*
X8780845Y-12838851D02*
X8790369Y-12857899D01*
X8790369Y-12857899D02*
X8799893Y-12895994D01*
X8799893Y-12895994D02*
X8799893Y-12943613D01*
X8799893Y-12943613D02*
X8790369Y-12981708D01*
X8790369Y-12981708D02*
X8780845Y-13000756D01*
X8780845Y-13000756D02*
X8771322Y-13010280D01*
X8771322Y-13010280D02*
X8752274Y-13019804D01*
X8752274Y-13019804D02*
X8733226Y-13019804D01*
X8733226Y-13019804D02*
X8714179Y-13010280D01*
X8714179Y-13010280D02*
X8704655Y-13000756D01*
X8704655Y-13000756D02*
X8695131Y-12981708D01*
X8695131Y-12981708D02*
X8685607Y-12943613D01*
X8685607Y-12943613D02*
X8685607Y-12895994D01*
X8685607Y-12895994D02*
X8695131Y-12857899D01*
X8695131Y-12857899D02*
X8704655Y-12838851D01*
X8704655Y-12838851D02*
X8714179Y-12829328D01*
X8714179Y-12829328D02*
X8733226Y-12819804D01*
X8971322Y-12819804D02*
X8933226Y-12819804D01*
X8933226Y-12819804D02*
X8914179Y-12829328D01*
X8914179Y-12829328D02*
X8904655Y-12838851D01*
X8904655Y-12838851D02*
X8885607Y-12867423D01*
X8885607Y-12867423D02*
X8876084Y-12905518D01*
X8876084Y-12905518D02*
X8876084Y-12981708D01*
X8876084Y-12981708D02*
X8885607Y-13000756D01*
X8885607Y-13000756D02*
X8895131Y-13010280D01*
X8895131Y-13010280D02*
X8914179Y-13019804D01*
X8914179Y-13019804D02*
X8952274Y-13019804D01*
X8952274Y-13019804D02*
X8971322Y-13010280D01*
X8971322Y-13010280D02*
X8980845Y-13000756D01*
X8980845Y-13000756D02*
X8990369Y-12981708D01*
X8990369Y-12981708D02*
X8990369Y-12934089D01*
X8990369Y-12934089D02*
X8980845Y-12915042D01*
X8980845Y-12915042D02*
X8971322Y-12905518D01*
X8971322Y-12905518D02*
X8952274Y-12895994D01*
X8952274Y-12895994D02*
X8914179Y-12895994D01*
X8914179Y-12895994D02*
X8895131Y-12905518D01*
X8895131Y-12905518D02*
X8885607Y-12915042D01*
X8885607Y-12915042D02*
X8876084Y-12934089D01*
X9057036Y-12819804D02*
X9190369Y-12819804D01*
X9190369Y-12819804D02*
X9104655Y-13019804D01*
X9266560Y-13019804D02*
X9266560Y-12886470D01*
X9266560Y-12905518D02*
X9276084Y-12895994D01*
X9276084Y-12895994D02*
X9295131Y-12886470D01*
X9295131Y-12886470D02*
X9323703Y-12886470D01*
X9323703Y-12886470D02*
X9342750Y-12895994D01*
X9342750Y-12895994D02*
X9352274Y-12915042D01*
X9352274Y-12915042D02*
X9352274Y-13019804D01*
X9352274Y-12915042D02*
X9361798Y-12895994D01*
X9361798Y-12895994D02*
X9380845Y-12886470D01*
X9380845Y-12886470D02*
X9409417Y-12886470D01*
X9409417Y-12886470D02*
X9428465Y-12895994D01*
X9428465Y-12895994D02*
X9437988Y-12915042D01*
X9437988Y-12915042D02*
X9437988Y-13019804D01*
X9533226Y-13019804D02*
X9533226Y-12886470D01*
X9533226Y-12905518D02*
X9542750Y-12895994D01*
X9542750Y-12895994D02*
X9561798Y-12886470D01*
X9561798Y-12886470D02*
X9590369Y-12886470D01*
X9590369Y-12886470D02*
X9609417Y-12895994D01*
X9609417Y-12895994D02*
X9618941Y-12915042D01*
X9618941Y-12915042D02*
X9618941Y-13019804D01*
X9618941Y-12915042D02*
X9628465Y-12895994D01*
X9628465Y-12895994D02*
X9647512Y-12886470D01*
X9647512Y-12886470D02*
X9676084Y-12886470D01*
X9676084Y-12886470D02*
X9695131Y-12895994D01*
X9695131Y-12895994D02*
X9704655Y-12915042D01*
X9704655Y-12915042D02*
X9704655Y-13019804D01*
X10095131Y-12810280D02*
X9923703Y-13067423D01*
X10352274Y-12819804D02*
X10371322Y-12819804D01*
X10371322Y-12819804D02*
X10390369Y-12829328D01*
X10390369Y-12829328D02*
X10399893Y-12838851D01*
X10399893Y-12838851D02*
X10409417Y-12857899D01*
X10409417Y-12857899D02*
X10418941Y-12895994D01*
X10418941Y-12895994D02*
X10418941Y-12943613D01*
X10418941Y-12943613D02*
X10409417Y-12981708D01*
X10409417Y-12981708D02*
X10399893Y-13000756D01*
X10399893Y-13000756D02*
X10390369Y-13010280D01*
X10390369Y-13010280D02*
X10371322Y-13019804D01*
X10371322Y-13019804D02*
X10352274Y-13019804D01*
X10352274Y-13019804D02*
X10333227Y-13010280D01*
X10333227Y-13010280D02*
X10323703Y-13000756D01*
X10323703Y-13000756D02*
X10314179Y-12981708D01*
X10314179Y-12981708D02*
X10304655Y-12943613D01*
X10304655Y-12943613D02*
X10304655Y-12895994D01*
X10304655Y-12895994D02*
X10314179Y-12857899D01*
X10314179Y-12857899D02*
X10323703Y-12838851D01*
X10323703Y-12838851D02*
X10333227Y-12829328D01*
X10333227Y-12829328D02*
X10352274Y-12819804D01*
X10504655Y-13000756D02*
X10514179Y-13010280D01*
X10514179Y-13010280D02*
X10504655Y-13019804D01*
X10504655Y-13019804D02*
X10495131Y-13010280D01*
X10495131Y-13010280D02*
X10504655Y-13000756D01*
X10504655Y-13000756D02*
X10504655Y-13019804D01*
X10637988Y-12819804D02*
X10657036Y-12819804D01*
X10657036Y-12819804D02*
X10676084Y-12829328D01*
X10676084Y-12829328D02*
X10685608Y-12838851D01*
X10685608Y-12838851D02*
X10695131Y-12857899D01*
X10695131Y-12857899D02*
X10704655Y-12895994D01*
X10704655Y-12895994D02*
X10704655Y-12943613D01*
X10704655Y-12943613D02*
X10695131Y-12981708D01*
X10695131Y-12981708D02*
X10685608Y-13000756D01*
X10685608Y-13000756D02*
X10676084Y-13010280D01*
X10676084Y-13010280D02*
X10657036Y-13019804D01*
X10657036Y-13019804D02*
X10637988Y-13019804D01*
X10637988Y-13019804D02*
X10618941Y-13010280D01*
X10618941Y-13010280D02*
X10609417Y-13000756D01*
X10609417Y-13000756D02*
X10599893Y-12981708D01*
X10599893Y-12981708D02*
X10590369Y-12943613D01*
X10590369Y-12943613D02*
X10590369Y-12895994D01*
X10590369Y-12895994D02*
X10599893Y-12857899D01*
X10599893Y-12857899D02*
X10609417Y-12838851D01*
X10609417Y-12838851D02*
X10618941Y-12829328D01*
X10618941Y-12829328D02*
X10637988Y-12819804D01*
X10876084Y-12886470D02*
X10876084Y-13019804D01*
X10828465Y-12810280D02*
X10780846Y-12953137D01*
X10780846Y-12953137D02*
X10904655Y-12953137D01*
X10971322Y-12838851D02*
X10980846Y-12829328D01*
X10980846Y-12829328D02*
X10999893Y-12819804D01*
X10999893Y-12819804D02*
X11047512Y-12819804D01*
X11047512Y-12819804D02*
X11066560Y-12829328D01*
X11066560Y-12829328D02*
X11076084Y-12838851D01*
X11076084Y-12838851D02*
X11085608Y-12857899D01*
X11085608Y-12857899D02*
X11085608Y-12876947D01*
X11085608Y-12876947D02*
X11076084Y-12905518D01*
X11076084Y-12905518D02*
X10961798Y-13019804D01*
X10961798Y-13019804D02*
X11085608Y-13019804D01*
X11209417Y-12819804D02*
X11228465Y-12819804D01*
X11228465Y-12819804D02*
X11247512Y-12829328D01*
X11247512Y-12829328D02*
X11257036Y-12838851D01*
X11257036Y-12838851D02*
X11266560Y-12857899D01*
X11266560Y-12857899D02*
X11276084Y-12895994D01*
X11276084Y-12895994D02*
X11276084Y-12943613D01*
X11276084Y-12943613D02*
X11266560Y-12981708D01*
X11266560Y-12981708D02*
X11257036Y-13000756D01*
X11257036Y-13000756D02*
X11247512Y-13010280D01*
X11247512Y-13010280D02*
X11228465Y-13019804D01*
X11228465Y-13019804D02*
X11209417Y-13019804D01*
X11209417Y-13019804D02*
X11190369Y-13010280D01*
X11190369Y-13010280D02*
X11180846Y-13000756D01*
X11180846Y-13000756D02*
X11171322Y-12981708D01*
X11171322Y-12981708D02*
X11161798Y-12943613D01*
X11161798Y-12943613D02*
X11161798Y-12895994D01*
X11161798Y-12895994D02*
X11171322Y-12857899D01*
X11171322Y-12857899D02*
X11180846Y-12838851D01*
X11180846Y-12838851D02*
X11190369Y-12829328D01*
X11190369Y-12829328D02*
X11209417Y-12819804D01*
X11352274Y-12819804D02*
X11352274Y-12857899D01*
X11428465Y-12819804D02*
X11428465Y-12857899D01*
X11723703Y-13095994D02*
X11714179Y-13086470D01*
X11714179Y-13086470D02*
X11695131Y-13057899D01*
X11695131Y-13057899D02*
X11685608Y-13038851D01*
X11685608Y-13038851D02*
X11676084Y-13010280D01*
X11676084Y-13010280D02*
X11666560Y-12962661D01*
X11666560Y-12962661D02*
X11666560Y-12924566D01*
X11666560Y-12924566D02*
X11676084Y-12876947D01*
X11676084Y-12876947D02*
X11685608Y-12848375D01*
X11685608Y-12848375D02*
X11695131Y-12829328D01*
X11695131Y-12829328D02*
X11714179Y-12800756D01*
X11714179Y-12800756D02*
X11723703Y-12791232D01*
X11904655Y-13019804D02*
X11790369Y-13019804D01*
X11847512Y-13019804D02*
X11847512Y-12819804D01*
X11847512Y-12819804D02*
X11828465Y-12848375D01*
X11828465Y-12848375D02*
X11809417Y-12867423D01*
X11809417Y-12867423D02*
X11790369Y-12876947D01*
X12076084Y-12819804D02*
X12037988Y-12819804D01*
X12037988Y-12819804D02*
X12018941Y-12829328D01*
X12018941Y-12829328D02*
X12009417Y-12838851D01*
X12009417Y-12838851D02*
X11990369Y-12867423D01*
X11990369Y-12867423D02*
X11980846Y-12905518D01*
X11980846Y-12905518D02*
X11980846Y-12981708D01*
X11980846Y-12981708D02*
X11990369Y-13000756D01*
X11990369Y-13000756D02*
X11999893Y-13010280D01*
X11999893Y-13010280D02*
X12018941Y-13019804D01*
X12018941Y-13019804D02*
X12057036Y-13019804D01*
X12057036Y-13019804D02*
X12076084Y-13010280D01*
X12076084Y-13010280D02*
X12085608Y-13000756D01*
X12085608Y-13000756D02*
X12095131Y-12981708D01*
X12095131Y-12981708D02*
X12095131Y-12934089D01*
X12095131Y-12934089D02*
X12085608Y-12915042D01*
X12085608Y-12915042D02*
X12076084Y-12905518D01*
X12076084Y-12905518D02*
X12057036Y-12895994D01*
X12057036Y-12895994D02*
X12018941Y-12895994D01*
X12018941Y-12895994D02*
X11999893Y-12905518D01*
X11999893Y-12905518D02*
X11990369Y-12915042D01*
X11990369Y-12915042D02*
X11980846Y-12934089D01*
X12333227Y-13019804D02*
X12333227Y-12819804D01*
X12418941Y-13019804D02*
X12418941Y-12915042D01*
X12418941Y-12915042D02*
X12409417Y-12895994D01*
X12409417Y-12895994D02*
X12390370Y-12886470D01*
X12390370Y-12886470D02*
X12361798Y-12886470D01*
X12361798Y-12886470D02*
X12342750Y-12895994D01*
X12342750Y-12895994D02*
X12333227Y-12905518D01*
X12542750Y-13019804D02*
X12523703Y-13010280D01*
X12523703Y-13010280D02*
X12514179Y-13000756D01*
X12514179Y-13000756D02*
X12504655Y-12981708D01*
X12504655Y-12981708D02*
X12504655Y-12924566D01*
X12504655Y-12924566D02*
X12514179Y-12905518D01*
X12514179Y-12905518D02*
X12523703Y-12895994D01*
X12523703Y-12895994D02*
X12542750Y-12886470D01*
X12542750Y-12886470D02*
X12571322Y-12886470D01*
X12571322Y-12886470D02*
X12590370Y-12895994D01*
X12590370Y-12895994D02*
X12599893Y-12905518D01*
X12599893Y-12905518D02*
X12609417Y-12924566D01*
X12609417Y-12924566D02*
X12609417Y-12981708D01*
X12609417Y-12981708D02*
X12599893Y-13000756D01*
X12599893Y-13000756D02*
X12590370Y-13010280D01*
X12590370Y-13010280D02*
X12571322Y-13019804D01*
X12571322Y-13019804D02*
X12542750Y-13019804D01*
X12723703Y-13019804D02*
X12704655Y-13010280D01*
X12704655Y-13010280D02*
X12695131Y-12991232D01*
X12695131Y-12991232D02*
X12695131Y-12819804D01*
X12876084Y-13010280D02*
X12857036Y-13019804D01*
X12857036Y-13019804D02*
X12818941Y-13019804D01*
X12818941Y-13019804D02*
X12799893Y-13010280D01*
X12799893Y-13010280D02*
X12790370Y-12991232D01*
X12790370Y-12991232D02*
X12790370Y-12915042D01*
X12790370Y-12915042D02*
X12799893Y-12895994D01*
X12799893Y-12895994D02*
X12818941Y-12886470D01*
X12818941Y-12886470D02*
X12857036Y-12886470D01*
X12857036Y-12886470D02*
X12876084Y-12895994D01*
X12876084Y-12895994D02*
X12885608Y-12915042D01*
X12885608Y-12915042D02*
X12885608Y-12934089D01*
X12885608Y-12934089D02*
X12790370Y-12953137D01*
X12961798Y-13010280D02*
X12980846Y-13019804D01*
X12980846Y-13019804D02*
X13018941Y-13019804D01*
X13018941Y-13019804D02*
X13037989Y-13010280D01*
X13037989Y-13010280D02*
X13047512Y-12991232D01*
X13047512Y-12991232D02*
X13047512Y-12981708D01*
X13047512Y-12981708D02*
X13037989Y-12962661D01*
X13037989Y-12962661D02*
X13018941Y-12953137D01*
X13018941Y-12953137D02*
X12990370Y-12953137D01*
X12990370Y-12953137D02*
X12971322Y-12943613D01*
X12971322Y-12943613D02*
X12961798Y-12924566D01*
X12961798Y-12924566D02*
X12961798Y-12915042D01*
X12961798Y-12915042D02*
X12971322Y-12895994D01*
X12971322Y-12895994D02*
X12990370Y-12886470D01*
X12990370Y-12886470D02*
X13018941Y-12886470D01*
X13018941Y-12886470D02*
X13037989Y-12895994D01*
X13114179Y-13095994D02*
X13123703Y-13086470D01*
X13123703Y-13086470D02*
X13142751Y-13057899D01*
X13142751Y-13057899D02*
X13152274Y-13038851D01*
X13152274Y-13038851D02*
X13161798Y-13010280D01*
X13161798Y-13010280D02*
X13171322Y-12962661D01*
X13171322Y-12962661D02*
X13171322Y-12924566D01*
X13171322Y-12924566D02*
X13161798Y-12876947D01*
X13161798Y-12876947D02*
X13152274Y-12848375D01*
X13152274Y-12848375D02*
X13142751Y-12829328D01*
X13142751Y-12829328D02*
X13123703Y-12800756D01*
X13123703Y-12800756D02*
X13114179Y-12791232D01*
X7948640Y-13092320D02*
X8148640Y-13292320D01*
X8148640Y-13092320D02*
X7948640Y-13292320D01*
X8148640Y-13192320D02*
G75*
G02*
X7948640Y-13192320I-100000J0D01*
G01*
X7948640Y-13192320D02*
G75*
G02*
X8148640Y-13192320I100000J0D01*
G01*
X8399893Y-13102851D02*
X8409417Y-13093328D01*
X8409417Y-13093328D02*
X8428464Y-13083804D01*
X8428464Y-13083804D02*
X8476084Y-13083804D01*
X8476084Y-13083804D02*
X8495131Y-13093328D01*
X8495131Y-13093328D02*
X8504655Y-13102851D01*
X8504655Y-13102851D02*
X8514179Y-13121899D01*
X8514179Y-13121899D02*
X8514179Y-13140947D01*
X8514179Y-13140947D02*
X8504655Y-13169518D01*
X8504655Y-13169518D02*
X8390369Y-13283804D01*
X8390369Y-13283804D02*
X8514179Y-13283804D01*
X8599893Y-13264756D02*
X8609417Y-13274280D01*
X8609417Y-13274280D02*
X8599893Y-13283804D01*
X8599893Y-13283804D02*
X8590369Y-13274280D01*
X8590369Y-13274280D02*
X8599893Y-13264756D01*
X8599893Y-13264756D02*
X8599893Y-13283804D01*
X8733226Y-13083804D02*
X8752274Y-13083804D01*
X8752274Y-13083804D02*
X8771322Y-13093328D01*
X8771322Y-13093328D02*
X8780845Y-13102851D01*
X8780845Y-13102851D02*
X8790369Y-13121899D01*
X8790369Y-13121899D02*
X8799893Y-13159994D01*
X8799893Y-13159994D02*
X8799893Y-13207613D01*
X8799893Y-13207613D02*
X8790369Y-13245708D01*
X8790369Y-13245708D02*
X8780845Y-13264756D01*
X8780845Y-13264756D02*
X8771322Y-13274280D01*
X8771322Y-13274280D02*
X8752274Y-13283804D01*
X8752274Y-13283804D02*
X8733226Y-13283804D01*
X8733226Y-13283804D02*
X8714179Y-13274280D01*
X8714179Y-13274280D02*
X8704655Y-13264756D01*
X8704655Y-13264756D02*
X8695131Y-13245708D01*
X8695131Y-13245708D02*
X8685607Y-13207613D01*
X8685607Y-13207613D02*
X8685607Y-13159994D01*
X8685607Y-13159994D02*
X8695131Y-13121899D01*
X8695131Y-13121899D02*
X8704655Y-13102851D01*
X8704655Y-13102851D02*
X8714179Y-13093328D01*
X8714179Y-13093328D02*
X8733226Y-13083804D01*
X8923703Y-13083804D02*
X8942750Y-13083804D01*
X8942750Y-13083804D02*
X8961798Y-13093328D01*
X8961798Y-13093328D02*
X8971322Y-13102851D01*
X8971322Y-13102851D02*
X8980845Y-13121899D01*
X8980845Y-13121899D02*
X8990369Y-13159994D01*
X8990369Y-13159994D02*
X8990369Y-13207613D01*
X8990369Y-13207613D02*
X8980845Y-13245708D01*
X8980845Y-13245708D02*
X8971322Y-13264756D01*
X8971322Y-13264756D02*
X8961798Y-13274280D01*
X8961798Y-13274280D02*
X8942750Y-13283804D01*
X8942750Y-13283804D02*
X8923703Y-13283804D01*
X8923703Y-13283804D02*
X8904655Y-13274280D01*
X8904655Y-13274280D02*
X8895131Y-13264756D01*
X8895131Y-13264756D02*
X8885607Y-13245708D01*
X8885607Y-13245708D02*
X8876084Y-13207613D01*
X8876084Y-13207613D02*
X8876084Y-13159994D01*
X8876084Y-13159994D02*
X8885607Y-13121899D01*
X8885607Y-13121899D02*
X8895131Y-13102851D01*
X8895131Y-13102851D02*
X8904655Y-13093328D01*
X8904655Y-13093328D02*
X8923703Y-13083804D01*
X9114179Y-13083804D02*
X9133226Y-13083804D01*
X9133226Y-13083804D02*
X9152274Y-13093328D01*
X9152274Y-13093328D02*
X9161798Y-13102851D01*
X9161798Y-13102851D02*
X9171322Y-13121899D01*
X9171322Y-13121899D02*
X9180845Y-13159994D01*
X9180845Y-13159994D02*
X9180845Y-13207613D01*
X9180845Y-13207613D02*
X9171322Y-13245708D01*
X9171322Y-13245708D02*
X9161798Y-13264756D01*
X9161798Y-13264756D02*
X9152274Y-13274280D01*
X9152274Y-13274280D02*
X9133226Y-13283804D01*
X9133226Y-13283804D02*
X9114179Y-13283804D01*
X9114179Y-13283804D02*
X9095131Y-13274280D01*
X9095131Y-13274280D02*
X9085607Y-13264756D01*
X9085607Y-13264756D02*
X9076084Y-13245708D01*
X9076084Y-13245708D02*
X9066560Y-13207613D01*
X9066560Y-13207613D02*
X9066560Y-13159994D01*
X9066560Y-13159994D02*
X9076084Y-13121899D01*
X9076084Y-13121899D02*
X9085607Y-13102851D01*
X9085607Y-13102851D02*
X9095131Y-13093328D01*
X9095131Y-13093328D02*
X9114179Y-13083804D01*
X9266560Y-13283804D02*
X9266560Y-13150470D01*
X9266560Y-13169518D02*
X9276084Y-13159994D01*
X9276084Y-13159994D02*
X9295131Y-13150470D01*
X9295131Y-13150470D02*
X9323703Y-13150470D01*
X9323703Y-13150470D02*
X9342750Y-13159994D01*
X9342750Y-13159994D02*
X9352274Y-13179042D01*
X9352274Y-13179042D02*
X9352274Y-13283804D01*
X9352274Y-13179042D02*
X9361798Y-13159994D01*
X9361798Y-13159994D02*
X9380845Y-13150470D01*
X9380845Y-13150470D02*
X9409417Y-13150470D01*
X9409417Y-13150470D02*
X9428465Y-13159994D01*
X9428465Y-13159994D02*
X9437988Y-13179042D01*
X9437988Y-13179042D02*
X9437988Y-13283804D01*
X9533226Y-13283804D02*
X9533226Y-13150470D01*
X9533226Y-13169518D02*
X9542750Y-13159994D01*
X9542750Y-13159994D02*
X9561798Y-13150470D01*
X9561798Y-13150470D02*
X9590369Y-13150470D01*
X9590369Y-13150470D02*
X9609417Y-13159994D01*
X9609417Y-13159994D02*
X9618941Y-13179042D01*
X9618941Y-13179042D02*
X9618941Y-13283804D01*
X9618941Y-13179042D02*
X9628465Y-13159994D01*
X9628465Y-13159994D02*
X9647512Y-13150470D01*
X9647512Y-13150470D02*
X9676084Y-13150470D01*
X9676084Y-13150470D02*
X9695131Y-13159994D01*
X9695131Y-13159994D02*
X9704655Y-13179042D01*
X9704655Y-13179042D02*
X9704655Y-13283804D01*
X10095131Y-13074280D02*
X9923703Y-13331423D01*
X10352274Y-13083804D02*
X10371322Y-13083804D01*
X10371322Y-13083804D02*
X10390369Y-13093328D01*
X10390369Y-13093328D02*
X10399893Y-13102851D01*
X10399893Y-13102851D02*
X10409417Y-13121899D01*
X10409417Y-13121899D02*
X10418941Y-13159994D01*
X10418941Y-13159994D02*
X10418941Y-13207613D01*
X10418941Y-13207613D02*
X10409417Y-13245708D01*
X10409417Y-13245708D02*
X10399893Y-13264756D01*
X10399893Y-13264756D02*
X10390369Y-13274280D01*
X10390369Y-13274280D02*
X10371322Y-13283804D01*
X10371322Y-13283804D02*
X10352274Y-13283804D01*
X10352274Y-13283804D02*
X10333227Y-13274280D01*
X10333227Y-13274280D02*
X10323703Y-13264756D01*
X10323703Y-13264756D02*
X10314179Y-13245708D01*
X10314179Y-13245708D02*
X10304655Y-13207613D01*
X10304655Y-13207613D02*
X10304655Y-13159994D01*
X10304655Y-13159994D02*
X10314179Y-13121899D01*
X10314179Y-13121899D02*
X10323703Y-13102851D01*
X10323703Y-13102851D02*
X10333227Y-13093328D01*
X10333227Y-13093328D02*
X10352274Y-13083804D01*
X10504655Y-13264756D02*
X10514179Y-13274280D01*
X10514179Y-13274280D02*
X10504655Y-13283804D01*
X10504655Y-13283804D02*
X10495131Y-13274280D01*
X10495131Y-13274280D02*
X10504655Y-13264756D01*
X10504655Y-13264756D02*
X10504655Y-13283804D01*
X10637988Y-13083804D02*
X10657036Y-13083804D01*
X10657036Y-13083804D02*
X10676084Y-13093328D01*
X10676084Y-13093328D02*
X10685608Y-13102851D01*
X10685608Y-13102851D02*
X10695131Y-13121899D01*
X10695131Y-13121899D02*
X10704655Y-13159994D01*
X10704655Y-13159994D02*
X10704655Y-13207613D01*
X10704655Y-13207613D02*
X10695131Y-13245708D01*
X10695131Y-13245708D02*
X10685608Y-13264756D01*
X10685608Y-13264756D02*
X10676084Y-13274280D01*
X10676084Y-13274280D02*
X10657036Y-13283804D01*
X10657036Y-13283804D02*
X10637988Y-13283804D01*
X10637988Y-13283804D02*
X10618941Y-13274280D01*
X10618941Y-13274280D02*
X10609417Y-13264756D01*
X10609417Y-13264756D02*
X10599893Y-13245708D01*
X10599893Y-13245708D02*
X10590369Y-13207613D01*
X10590369Y-13207613D02*
X10590369Y-13159994D01*
X10590369Y-13159994D02*
X10599893Y-13121899D01*
X10599893Y-13121899D02*
X10609417Y-13102851D01*
X10609417Y-13102851D02*
X10618941Y-13093328D01*
X10618941Y-13093328D02*
X10637988Y-13083804D01*
X10771322Y-13083804D02*
X10904655Y-13083804D01*
X10904655Y-13083804D02*
X10818941Y-13283804D01*
X11009417Y-13169518D02*
X10990369Y-13159994D01*
X10990369Y-13159994D02*
X10980846Y-13150470D01*
X10980846Y-13150470D02*
X10971322Y-13131423D01*
X10971322Y-13131423D02*
X10971322Y-13121899D01*
X10971322Y-13121899D02*
X10980846Y-13102851D01*
X10980846Y-13102851D02*
X10990369Y-13093328D01*
X10990369Y-13093328D02*
X11009417Y-13083804D01*
X11009417Y-13083804D02*
X11047512Y-13083804D01*
X11047512Y-13083804D02*
X11066560Y-13093328D01*
X11066560Y-13093328D02*
X11076084Y-13102851D01*
X11076084Y-13102851D02*
X11085608Y-13121899D01*
X11085608Y-13121899D02*
X11085608Y-13131423D01*
X11085608Y-13131423D02*
X11076084Y-13150470D01*
X11076084Y-13150470D02*
X11066560Y-13159994D01*
X11066560Y-13159994D02*
X11047512Y-13169518D01*
X11047512Y-13169518D02*
X11009417Y-13169518D01*
X11009417Y-13169518D02*
X10990369Y-13179042D01*
X10990369Y-13179042D02*
X10980846Y-13188566D01*
X10980846Y-13188566D02*
X10971322Y-13207613D01*
X10971322Y-13207613D02*
X10971322Y-13245708D01*
X10971322Y-13245708D02*
X10980846Y-13264756D01*
X10980846Y-13264756D02*
X10990369Y-13274280D01*
X10990369Y-13274280D02*
X11009417Y-13283804D01*
X11009417Y-13283804D02*
X11047512Y-13283804D01*
X11047512Y-13283804D02*
X11066560Y-13274280D01*
X11066560Y-13274280D02*
X11076084Y-13264756D01*
X11076084Y-13264756D02*
X11085608Y-13245708D01*
X11085608Y-13245708D02*
X11085608Y-13207613D01*
X11085608Y-13207613D02*
X11076084Y-13188566D01*
X11076084Y-13188566D02*
X11066560Y-13179042D01*
X11066560Y-13179042D02*
X11047512Y-13169518D01*
X11152274Y-13083804D02*
X11285607Y-13083804D01*
X11285607Y-13083804D02*
X11199893Y-13283804D01*
X11352274Y-13083804D02*
X11352274Y-13121899D01*
X11428465Y-13083804D02*
X11428465Y-13121899D01*
X11723703Y-13359994D02*
X11714179Y-13350470D01*
X11714179Y-13350470D02*
X11695131Y-13321899D01*
X11695131Y-13321899D02*
X11685608Y-13302851D01*
X11685608Y-13302851D02*
X11676084Y-13274280D01*
X11676084Y-13274280D02*
X11666560Y-13226661D01*
X11666560Y-13226661D02*
X11666560Y-13188566D01*
X11666560Y-13188566D02*
X11676084Y-13140947D01*
X11676084Y-13140947D02*
X11685608Y-13112375D01*
X11685608Y-13112375D02*
X11695131Y-13093328D01*
X11695131Y-13093328D02*
X11714179Y-13064756D01*
X11714179Y-13064756D02*
X11723703Y-13055232D01*
X11904655Y-13283804D02*
X11790369Y-13283804D01*
X11847512Y-13283804D02*
X11847512Y-13083804D01*
X11847512Y-13083804D02*
X11828465Y-13112375D01*
X11828465Y-13112375D02*
X11809417Y-13131423D01*
X11809417Y-13131423D02*
X11790369Y-13140947D01*
X12076084Y-13083804D02*
X12037988Y-13083804D01*
X12037988Y-13083804D02*
X12018941Y-13093328D01*
X12018941Y-13093328D02*
X12009417Y-13102851D01*
X12009417Y-13102851D02*
X11990369Y-13131423D01*
X11990369Y-13131423D02*
X11980846Y-13169518D01*
X11980846Y-13169518D02*
X11980846Y-13245708D01*
X11980846Y-13245708D02*
X11990369Y-13264756D01*
X11990369Y-13264756D02*
X11999893Y-13274280D01*
X11999893Y-13274280D02*
X12018941Y-13283804D01*
X12018941Y-13283804D02*
X12057036Y-13283804D01*
X12057036Y-13283804D02*
X12076084Y-13274280D01*
X12076084Y-13274280D02*
X12085608Y-13264756D01*
X12085608Y-13264756D02*
X12095131Y-13245708D01*
X12095131Y-13245708D02*
X12095131Y-13198089D01*
X12095131Y-13198089D02*
X12085608Y-13179042D01*
X12085608Y-13179042D02*
X12076084Y-13169518D01*
X12076084Y-13169518D02*
X12057036Y-13159994D01*
X12057036Y-13159994D02*
X12018941Y-13159994D01*
X12018941Y-13159994D02*
X11999893Y-13169518D01*
X11999893Y-13169518D02*
X11990369Y-13179042D01*
X11990369Y-13179042D02*
X11980846Y-13198089D01*
X12333227Y-13283804D02*
X12333227Y-13083804D01*
X12418941Y-13283804D02*
X12418941Y-13179042D01*
X12418941Y-13179042D02*
X12409417Y-13159994D01*
X12409417Y-13159994D02*
X12390370Y-13150470D01*
X12390370Y-13150470D02*
X12361798Y-13150470D01*
X12361798Y-13150470D02*
X12342750Y-13159994D01*
X12342750Y-13159994D02*
X12333227Y-13169518D01*
X12542750Y-13283804D02*
X12523703Y-13274280D01*
X12523703Y-13274280D02*
X12514179Y-13264756D01*
X12514179Y-13264756D02*
X12504655Y-13245708D01*
X12504655Y-13245708D02*
X12504655Y-13188566D01*
X12504655Y-13188566D02*
X12514179Y-13169518D01*
X12514179Y-13169518D02*
X12523703Y-13159994D01*
X12523703Y-13159994D02*
X12542750Y-13150470D01*
X12542750Y-13150470D02*
X12571322Y-13150470D01*
X12571322Y-13150470D02*
X12590370Y-13159994D01*
X12590370Y-13159994D02*
X12599893Y-13169518D01*
X12599893Y-13169518D02*
X12609417Y-13188566D01*
X12609417Y-13188566D02*
X12609417Y-13245708D01*
X12609417Y-13245708D02*
X12599893Y-13264756D01*
X12599893Y-13264756D02*
X12590370Y-13274280D01*
X12590370Y-13274280D02*
X12571322Y-13283804D01*
X12571322Y-13283804D02*
X12542750Y-13283804D01*
X12723703Y-13283804D02*
X12704655Y-13274280D01*
X12704655Y-13274280D02*
X12695131Y-13255232D01*
X12695131Y-13255232D02*
X12695131Y-13083804D01*
X12876084Y-13274280D02*
X12857036Y-13283804D01*
X12857036Y-13283804D02*
X12818941Y-13283804D01*
X12818941Y-13283804D02*
X12799893Y-13274280D01*
X12799893Y-13274280D02*
X12790370Y-13255232D01*
X12790370Y-13255232D02*
X12790370Y-13179042D01*
X12790370Y-13179042D02*
X12799893Y-13159994D01*
X12799893Y-13159994D02*
X12818941Y-13150470D01*
X12818941Y-13150470D02*
X12857036Y-13150470D01*
X12857036Y-13150470D02*
X12876084Y-13159994D01*
X12876084Y-13159994D02*
X12885608Y-13179042D01*
X12885608Y-13179042D02*
X12885608Y-13198089D01*
X12885608Y-13198089D02*
X12790370Y-13217137D01*
X12961798Y-13274280D02*
X12980846Y-13283804D01*
X12980846Y-13283804D02*
X13018941Y-13283804D01*
X13018941Y-13283804D02*
X13037989Y-13274280D01*
X13037989Y-13274280D02*
X13047512Y-13255232D01*
X13047512Y-13255232D02*
X13047512Y-13245708D01*
X13047512Y-13245708D02*
X13037989Y-13226661D01*
X13037989Y-13226661D02*
X13018941Y-13217137D01*
X13018941Y-13217137D02*
X12990370Y-13217137D01*
X12990370Y-13217137D02*
X12971322Y-13207613D01*
X12971322Y-13207613D02*
X12961798Y-13188566D01*
X12961798Y-13188566D02*
X12961798Y-13179042D01*
X12961798Y-13179042D02*
X12971322Y-13159994D01*
X12971322Y-13159994D02*
X12990370Y-13150470D01*
X12990370Y-13150470D02*
X13018941Y-13150470D01*
X13018941Y-13150470D02*
X13037989Y-13159994D01*
X13114179Y-13359994D02*
X13123703Y-13350470D01*
X13123703Y-13350470D02*
X13142751Y-13321899D01*
X13142751Y-13321899D02*
X13152274Y-13302851D01*
X13152274Y-13302851D02*
X13161798Y-13274280D01*
X13161798Y-13274280D02*
X13171322Y-13226661D01*
X13171322Y-13226661D02*
X13171322Y-13188566D01*
X13171322Y-13188566D02*
X13161798Y-13140947D01*
X13161798Y-13140947D02*
X13152274Y-13112375D01*
X13152274Y-13112375D02*
X13142751Y-13093328D01*
X13142751Y-13093328D02*
X13123703Y-13064756D01*
X13123703Y-13064756D02*
X13114179Y-13055232D01*
X7948640Y-13412320D02*
X8148640Y-13612320D01*
X8148640Y-13412320D02*
X7948640Y-13612320D01*
X8048640Y-13412320D02*
X8048640Y-13612320D01*
X7948640Y-13512320D02*
X8148640Y-13512320D01*
X8399893Y-13422851D02*
X8409417Y-13413328D01*
X8409417Y-13413328D02*
X8428464Y-13403804D01*
X8428464Y-13403804D02*
X8476084Y-13403804D01*
X8476084Y-13403804D02*
X8495131Y-13413328D01*
X8495131Y-13413328D02*
X8504655Y-13422851D01*
X8504655Y-13422851D02*
X8514179Y-13441899D01*
X8514179Y-13441899D02*
X8514179Y-13460947D01*
X8514179Y-13460947D02*
X8504655Y-13489518D01*
X8504655Y-13489518D02*
X8390369Y-13603804D01*
X8390369Y-13603804D02*
X8514179Y-13603804D01*
X8599893Y-13584756D02*
X8609417Y-13594280D01*
X8609417Y-13594280D02*
X8599893Y-13603804D01*
X8599893Y-13603804D02*
X8590369Y-13594280D01*
X8590369Y-13594280D02*
X8599893Y-13584756D01*
X8599893Y-13584756D02*
X8599893Y-13603804D01*
X8676084Y-13403804D02*
X8809417Y-13403804D01*
X8809417Y-13403804D02*
X8723703Y-13603804D01*
X8923703Y-13403804D02*
X8942750Y-13403804D01*
X8942750Y-13403804D02*
X8961798Y-13413328D01*
X8961798Y-13413328D02*
X8971322Y-13422851D01*
X8971322Y-13422851D02*
X8980845Y-13441899D01*
X8980845Y-13441899D02*
X8990369Y-13479994D01*
X8990369Y-13479994D02*
X8990369Y-13527613D01*
X8990369Y-13527613D02*
X8980845Y-13565708D01*
X8980845Y-13565708D02*
X8971322Y-13584756D01*
X8971322Y-13584756D02*
X8961798Y-13594280D01*
X8961798Y-13594280D02*
X8942750Y-13603804D01*
X8942750Y-13603804D02*
X8923703Y-13603804D01*
X8923703Y-13603804D02*
X8904655Y-13594280D01*
X8904655Y-13594280D02*
X8895131Y-13584756D01*
X8895131Y-13584756D02*
X8885607Y-13565708D01*
X8885607Y-13565708D02*
X8876084Y-13527613D01*
X8876084Y-13527613D02*
X8876084Y-13479994D01*
X8876084Y-13479994D02*
X8885607Y-13441899D01*
X8885607Y-13441899D02*
X8895131Y-13422851D01*
X8895131Y-13422851D02*
X8904655Y-13413328D01*
X8904655Y-13413328D02*
X8923703Y-13403804D01*
X9114179Y-13403804D02*
X9133226Y-13403804D01*
X9133226Y-13403804D02*
X9152274Y-13413328D01*
X9152274Y-13413328D02*
X9161798Y-13422851D01*
X9161798Y-13422851D02*
X9171322Y-13441899D01*
X9171322Y-13441899D02*
X9180845Y-13479994D01*
X9180845Y-13479994D02*
X9180845Y-13527613D01*
X9180845Y-13527613D02*
X9171322Y-13565708D01*
X9171322Y-13565708D02*
X9161798Y-13584756D01*
X9161798Y-13584756D02*
X9152274Y-13594280D01*
X9152274Y-13594280D02*
X9133226Y-13603804D01*
X9133226Y-13603804D02*
X9114179Y-13603804D01*
X9114179Y-13603804D02*
X9095131Y-13594280D01*
X9095131Y-13594280D02*
X9085607Y-13584756D01*
X9085607Y-13584756D02*
X9076084Y-13565708D01*
X9076084Y-13565708D02*
X9066560Y-13527613D01*
X9066560Y-13527613D02*
X9066560Y-13479994D01*
X9066560Y-13479994D02*
X9076084Y-13441899D01*
X9076084Y-13441899D02*
X9085607Y-13422851D01*
X9085607Y-13422851D02*
X9095131Y-13413328D01*
X9095131Y-13413328D02*
X9114179Y-13403804D01*
X9266560Y-13603804D02*
X9266560Y-13470470D01*
X9266560Y-13489518D02*
X9276084Y-13479994D01*
X9276084Y-13479994D02*
X9295131Y-13470470D01*
X9295131Y-13470470D02*
X9323703Y-13470470D01*
X9323703Y-13470470D02*
X9342750Y-13479994D01*
X9342750Y-13479994D02*
X9352274Y-13499042D01*
X9352274Y-13499042D02*
X9352274Y-13603804D01*
X9352274Y-13499042D02*
X9361798Y-13479994D01*
X9361798Y-13479994D02*
X9380845Y-13470470D01*
X9380845Y-13470470D02*
X9409417Y-13470470D01*
X9409417Y-13470470D02*
X9428465Y-13479994D01*
X9428465Y-13479994D02*
X9437988Y-13499042D01*
X9437988Y-13499042D02*
X9437988Y-13603804D01*
X9533226Y-13603804D02*
X9533226Y-13470470D01*
X9533226Y-13489518D02*
X9542750Y-13479994D01*
X9542750Y-13479994D02*
X9561798Y-13470470D01*
X9561798Y-13470470D02*
X9590369Y-13470470D01*
X9590369Y-13470470D02*
X9609417Y-13479994D01*
X9609417Y-13479994D02*
X9618941Y-13499042D01*
X9618941Y-13499042D02*
X9618941Y-13603804D01*
X9618941Y-13499042D02*
X9628465Y-13479994D01*
X9628465Y-13479994D02*
X9647512Y-13470470D01*
X9647512Y-13470470D02*
X9676084Y-13470470D01*
X9676084Y-13470470D02*
X9695131Y-13479994D01*
X9695131Y-13479994D02*
X9704655Y-13499042D01*
X9704655Y-13499042D02*
X9704655Y-13603804D01*
X10095131Y-13394280D02*
X9923703Y-13651423D01*
X10352274Y-13403804D02*
X10371322Y-13403804D01*
X10371322Y-13403804D02*
X10390369Y-13413328D01*
X10390369Y-13413328D02*
X10399893Y-13422851D01*
X10399893Y-13422851D02*
X10409417Y-13441899D01*
X10409417Y-13441899D02*
X10418941Y-13479994D01*
X10418941Y-13479994D02*
X10418941Y-13527613D01*
X10418941Y-13527613D02*
X10409417Y-13565708D01*
X10409417Y-13565708D02*
X10399893Y-13584756D01*
X10399893Y-13584756D02*
X10390369Y-13594280D01*
X10390369Y-13594280D02*
X10371322Y-13603804D01*
X10371322Y-13603804D02*
X10352274Y-13603804D01*
X10352274Y-13603804D02*
X10333227Y-13594280D01*
X10333227Y-13594280D02*
X10323703Y-13584756D01*
X10323703Y-13584756D02*
X10314179Y-13565708D01*
X10314179Y-13565708D02*
X10304655Y-13527613D01*
X10304655Y-13527613D02*
X10304655Y-13479994D01*
X10304655Y-13479994D02*
X10314179Y-13441899D01*
X10314179Y-13441899D02*
X10323703Y-13422851D01*
X10323703Y-13422851D02*
X10333227Y-13413328D01*
X10333227Y-13413328D02*
X10352274Y-13403804D01*
X10504655Y-13584756D02*
X10514179Y-13594280D01*
X10514179Y-13594280D02*
X10504655Y-13603804D01*
X10504655Y-13603804D02*
X10495131Y-13594280D01*
X10495131Y-13594280D02*
X10504655Y-13584756D01*
X10504655Y-13584756D02*
X10504655Y-13603804D01*
X10704655Y-13603804D02*
X10590369Y-13603804D01*
X10647512Y-13603804D02*
X10647512Y-13403804D01*
X10647512Y-13403804D02*
X10628465Y-13432375D01*
X10628465Y-13432375D02*
X10609417Y-13451423D01*
X10609417Y-13451423D02*
X10590369Y-13460947D01*
X10828465Y-13403804D02*
X10847512Y-13403804D01*
X10847512Y-13403804D02*
X10866560Y-13413328D01*
X10866560Y-13413328D02*
X10876084Y-13422851D01*
X10876084Y-13422851D02*
X10885608Y-13441899D01*
X10885608Y-13441899D02*
X10895131Y-13479994D01*
X10895131Y-13479994D02*
X10895131Y-13527613D01*
X10895131Y-13527613D02*
X10885608Y-13565708D01*
X10885608Y-13565708D02*
X10876084Y-13584756D01*
X10876084Y-13584756D02*
X10866560Y-13594280D01*
X10866560Y-13594280D02*
X10847512Y-13603804D01*
X10847512Y-13603804D02*
X10828465Y-13603804D01*
X10828465Y-13603804D02*
X10809417Y-13594280D01*
X10809417Y-13594280D02*
X10799893Y-13584756D01*
X10799893Y-13584756D02*
X10790369Y-13565708D01*
X10790369Y-13565708D02*
X10780846Y-13527613D01*
X10780846Y-13527613D02*
X10780846Y-13479994D01*
X10780846Y-13479994D02*
X10790369Y-13441899D01*
X10790369Y-13441899D02*
X10799893Y-13422851D01*
X10799893Y-13422851D02*
X10809417Y-13413328D01*
X10809417Y-13413328D02*
X10828465Y-13403804D01*
X11066560Y-13403804D02*
X11028465Y-13403804D01*
X11028465Y-13403804D02*
X11009417Y-13413328D01*
X11009417Y-13413328D02*
X10999893Y-13422851D01*
X10999893Y-13422851D02*
X10980846Y-13451423D01*
X10980846Y-13451423D02*
X10971322Y-13489518D01*
X10971322Y-13489518D02*
X10971322Y-13565708D01*
X10971322Y-13565708D02*
X10980846Y-13584756D01*
X10980846Y-13584756D02*
X10990369Y-13594280D01*
X10990369Y-13594280D02*
X11009417Y-13603804D01*
X11009417Y-13603804D02*
X11047512Y-13603804D01*
X11047512Y-13603804D02*
X11066560Y-13594280D01*
X11066560Y-13594280D02*
X11076084Y-13584756D01*
X11076084Y-13584756D02*
X11085608Y-13565708D01*
X11085608Y-13565708D02*
X11085608Y-13518089D01*
X11085608Y-13518089D02*
X11076084Y-13499042D01*
X11076084Y-13499042D02*
X11066560Y-13489518D01*
X11066560Y-13489518D02*
X11047512Y-13479994D01*
X11047512Y-13479994D02*
X11009417Y-13479994D01*
X11009417Y-13479994D02*
X10990369Y-13489518D01*
X10990369Y-13489518D02*
X10980846Y-13499042D01*
X10980846Y-13499042D02*
X10971322Y-13518089D01*
X11152274Y-13403804D02*
X11276084Y-13403804D01*
X11276084Y-13403804D02*
X11209417Y-13479994D01*
X11209417Y-13479994D02*
X11237988Y-13479994D01*
X11237988Y-13479994D02*
X11257036Y-13489518D01*
X11257036Y-13489518D02*
X11266560Y-13499042D01*
X11266560Y-13499042D02*
X11276084Y-13518089D01*
X11276084Y-13518089D02*
X11276084Y-13565708D01*
X11276084Y-13565708D02*
X11266560Y-13584756D01*
X11266560Y-13584756D02*
X11257036Y-13594280D01*
X11257036Y-13594280D02*
X11237988Y-13603804D01*
X11237988Y-13603804D02*
X11180846Y-13603804D01*
X11180846Y-13603804D02*
X11161798Y-13594280D01*
X11161798Y-13594280D02*
X11152274Y-13584756D01*
X11352274Y-13403804D02*
X11352274Y-13441899D01*
X11428465Y-13403804D02*
X11428465Y-13441899D01*
X11723703Y-13679994D02*
X11714179Y-13670470D01*
X11714179Y-13670470D02*
X11695131Y-13641899D01*
X11695131Y-13641899D02*
X11685608Y-13622851D01*
X11685608Y-13622851D02*
X11676084Y-13594280D01*
X11676084Y-13594280D02*
X11666560Y-13546661D01*
X11666560Y-13546661D02*
X11666560Y-13508566D01*
X11666560Y-13508566D02*
X11676084Y-13460947D01*
X11676084Y-13460947D02*
X11685608Y-13432375D01*
X11685608Y-13432375D02*
X11695131Y-13413328D01*
X11695131Y-13413328D02*
X11714179Y-13384756D01*
X11714179Y-13384756D02*
X11723703Y-13375232D01*
X11790369Y-13422851D02*
X11799893Y-13413328D01*
X11799893Y-13413328D02*
X11818941Y-13403804D01*
X11818941Y-13403804D02*
X11866560Y-13403804D01*
X11866560Y-13403804D02*
X11885608Y-13413328D01*
X11885608Y-13413328D02*
X11895131Y-13422851D01*
X11895131Y-13422851D02*
X11904655Y-13441899D01*
X11904655Y-13441899D02*
X11904655Y-13460947D01*
X11904655Y-13460947D02*
X11895131Y-13489518D01*
X11895131Y-13489518D02*
X11780846Y-13603804D01*
X11780846Y-13603804D02*
X11904655Y-13603804D01*
X12142750Y-13603804D02*
X12142750Y-13403804D01*
X12228465Y-13603804D02*
X12228465Y-13499042D01*
X12228465Y-13499042D02*
X12218941Y-13479994D01*
X12218941Y-13479994D02*
X12199893Y-13470470D01*
X12199893Y-13470470D02*
X12171322Y-13470470D01*
X12171322Y-13470470D02*
X12152274Y-13479994D01*
X12152274Y-13479994D02*
X12142750Y-13489518D01*
X12352274Y-13603804D02*
X12333227Y-13594280D01*
X12333227Y-13594280D02*
X12323703Y-13584756D01*
X12323703Y-13584756D02*
X12314179Y-13565708D01*
X12314179Y-13565708D02*
X12314179Y-13508566D01*
X12314179Y-13508566D02*
X12323703Y-13489518D01*
X12323703Y-13489518D02*
X12333227Y-13479994D01*
X12333227Y-13479994D02*
X12352274Y-13470470D01*
X12352274Y-13470470D02*
X12380846Y-13470470D01*
X12380846Y-13470470D02*
X12399893Y-13479994D01*
X12399893Y-13479994D02*
X12409417Y-13489518D01*
X12409417Y-13489518D02*
X12418941Y-13508566D01*
X12418941Y-13508566D02*
X12418941Y-13565708D01*
X12418941Y-13565708D02*
X12409417Y-13584756D01*
X12409417Y-13584756D02*
X12399893Y-13594280D01*
X12399893Y-13594280D02*
X12380846Y-13603804D01*
X12380846Y-13603804D02*
X12352274Y-13603804D01*
X12533227Y-13603804D02*
X12514179Y-13594280D01*
X12514179Y-13594280D02*
X12504655Y-13575232D01*
X12504655Y-13575232D02*
X12504655Y-13403804D01*
X12685608Y-13594280D02*
X12666560Y-13603804D01*
X12666560Y-13603804D02*
X12628465Y-13603804D01*
X12628465Y-13603804D02*
X12609417Y-13594280D01*
X12609417Y-13594280D02*
X12599893Y-13575232D01*
X12599893Y-13575232D02*
X12599893Y-13499042D01*
X12599893Y-13499042D02*
X12609417Y-13479994D01*
X12609417Y-13479994D02*
X12628465Y-13470470D01*
X12628465Y-13470470D02*
X12666560Y-13470470D01*
X12666560Y-13470470D02*
X12685608Y-13479994D01*
X12685608Y-13479994D02*
X12695131Y-13499042D01*
X12695131Y-13499042D02*
X12695131Y-13518089D01*
X12695131Y-13518089D02*
X12599893Y-13537137D01*
X12771322Y-13594280D02*
X12790370Y-13603804D01*
X12790370Y-13603804D02*
X12828465Y-13603804D01*
X12828465Y-13603804D02*
X12847512Y-13594280D01*
X12847512Y-13594280D02*
X12857036Y-13575232D01*
X12857036Y-13575232D02*
X12857036Y-13565708D01*
X12857036Y-13565708D02*
X12847512Y-13546661D01*
X12847512Y-13546661D02*
X12828465Y-13537137D01*
X12828465Y-13537137D02*
X12799893Y-13537137D01*
X12799893Y-13537137D02*
X12780846Y-13527613D01*
X12780846Y-13527613D02*
X12771322Y-13508566D01*
X12771322Y-13508566D02*
X12771322Y-13499042D01*
X12771322Y-13499042D02*
X12780846Y-13479994D01*
X12780846Y-13479994D02*
X12799893Y-13470470D01*
X12799893Y-13470470D02*
X12828465Y-13470470D01*
X12828465Y-13470470D02*
X12847512Y-13479994D01*
X12923703Y-13679994D02*
X12933227Y-13670470D01*
X12933227Y-13670470D02*
X12952274Y-13641899D01*
X12952274Y-13641899D02*
X12961798Y-13622851D01*
X12961798Y-13622851D02*
X12971322Y-13594280D01*
X12971322Y-13594280D02*
X12980846Y-13546661D01*
X12980846Y-13546661D02*
X12980846Y-13508566D01*
X12980846Y-13508566D02*
X12971322Y-13460947D01*
X12971322Y-13460947D02*
X12961798Y-13432375D01*
X12961798Y-13432375D02*
X12952274Y-13413328D01*
X12952274Y-13413328D02*
X12933227Y-13384756D01*
X12933227Y-13384756D02*
X12923703Y-13375232D01*
M02*
