%TF.GenerationSoftware,KiCad,Pcbnew,8.0.3*%
%TF.CreationDate,2025-02-02T18:29:45-08:00*%
%TF.ProjectId,Power_Distribution,506f7765-725f-4446-9973-747269627574,rev?*%
%TF.SameCoordinates,Original*%
%TF.FileFunction,Copper,L1,Top*%
%TF.FilePolarity,Positive*%
%FSLAX46Y46*%
G04 Gerber Fmt 4.6, Leading zero omitted, Abs format (unit mm)*
G04 Created by KiCad (PCBNEW 8.0.3) date 2025-02-02 18:29:45*
%MOMM*%
%LPD*%
G01*
G04 APERTURE LIST*
G04 Aperture macros list*
%AMRoundRect*
0 Rectangle with rounded corners*
0 $1 Rounding radius*
0 $2 $3 $4 $5 $6 $7 $8 $9 X,Y pos of 4 corners*
0 Add a 4 corners polygon primitive as box body*
4,1,4,$2,$3,$4,$5,$6,$7,$8,$9,$2,$3,0*
0 Add four circle primitives for the rounded corners*
1,1,$1+$1,$2,$3*
1,1,$1+$1,$4,$5*
1,1,$1+$1,$6,$7*
1,1,$1+$1,$8,$9*
0 Add four rect primitives between the rounded corners*
20,1,$1+$1,$2,$3,$4,$5,0*
20,1,$1+$1,$4,$5,$6,$7,0*
20,1,$1+$1,$6,$7,$8,$9,0*
20,1,$1+$1,$8,$9,$2,$3,0*%
G04 Aperture macros list end*
%TA.AperFunction,SMDPad,CuDef*%
%ADD10R,1.750000X0.650000*%
%TD*%
%TA.AperFunction,SMDPad,CuDef*%
%ADD11RoundRect,0.250000X0.337500X0.475000X-0.337500X0.475000X-0.337500X-0.475000X0.337500X-0.475000X0*%
%TD*%
%TA.AperFunction,ComponentPad*%
%ADD12R,1.950000X1.950000*%
%TD*%
%TA.AperFunction,ComponentPad*%
%ADD13C,1.950000*%
%TD*%
%TA.AperFunction,ComponentPad*%
%ADD14R,3.000000X3.000000*%
%TD*%
%TA.AperFunction,ComponentPad*%
%ADD15C,3.000000*%
%TD*%
%TA.AperFunction,ComponentPad*%
%ADD16R,1.700000X1.700000*%
%TD*%
%TA.AperFunction,ComponentPad*%
%ADD17O,1.700000X1.700000*%
%TD*%
%TA.AperFunction,ViaPad*%
%ADD18C,0.800000*%
%TD*%
%TA.AperFunction,Conductor*%
%ADD19C,0.508000*%
%TD*%
%TA.AperFunction,Conductor*%
%ADD20C,2.500000*%
%TD*%
%TA.AperFunction,Conductor*%
%ADD21C,0.635000*%
%TD*%
%TA.AperFunction,Conductor*%
%ADD22C,7.500000*%
%TD*%
G04 APERTURE END LIST*
D10*
%TO.P,IC5,1,IP+_1*%
%TO.N,+BATT*%
X141669200Y-84429600D03*
%TO.P,IC5,2,IP+_2*%
X141669200Y-83159600D03*
%TO.P,IC5,3,IP-_1*%
%TO.N,PWR5*%
X141669200Y-81889600D03*
%TO.P,IC5,4,IP-_2*%
X141669200Y-80619600D03*
%TO.P,IC5,5,GND*%
%TO.N,GND*%
X136069200Y-80619600D03*
%TO.P,IC5,6,FILTER*%
%TO.N,Net-(IC5-FILTER)*%
X136069200Y-81889600D03*
%TO.P,IC5,7,VIOUT*%
%TO.N,VIout5*%
X136069200Y-83159600D03*
%TO.P,IC5,8,VCC*%
%TO.N,5V*%
X136069200Y-84429600D03*
%TD*%
D11*
%TO.P,Cf1,1*%
%TO.N,Net-(IC1-FILTER)*%
X197887500Y-82346800D03*
%TO.P,Cf1,2*%
%TO.N,GND*%
X195812500Y-82346800D03*
%TD*%
D10*
%TO.P,IC7,1,IP+_1*%
%TO.N,+BATT*%
X109372400Y-84378800D03*
%TO.P,IC7,2,IP+_2*%
X109372400Y-83108800D03*
%TO.P,IC7,3,IP-_1*%
%TO.N,PWR7*%
X109372400Y-81838800D03*
%TO.P,IC7,4,IP-_2*%
X109372400Y-80568800D03*
%TO.P,IC7,5,GND*%
%TO.N,GND*%
X103772400Y-80568800D03*
%TO.P,IC7,6,FILTER*%
%TO.N,Net-(IC7-FILTER)*%
X103772400Y-81838800D03*
%TO.P,IC7,7,VIOUT*%
%TO.N,VIout7*%
X103772400Y-83108800D03*
%TO.P,IC7,8,VCC*%
%TO.N,5V*%
X103772400Y-84378800D03*
%TD*%
D11*
%TO.P,Cf3,1*%
%TO.N,Net-(IC6-FILTER)*%
X117979100Y-82092800D03*
%TO.P,Cf3,2*%
%TO.N,GND*%
X115904100Y-82092800D03*
%TD*%
D12*
%TO.P,J4,1_1,1*%
%TO.N,+BATT*%
X141427200Y-94488000D03*
%TO.P,J4,1_2,1*%
X141427200Y-104648000D03*
D13*
%TO.P,J4,2_1,2*%
%TO.N,-BATT*%
X151587200Y-94488000D03*
%TO.P,J4,2_2,2*%
X151587200Y-104648000D03*
%TD*%
D11*
%TO.P,Cf8,1*%
%TO.N,Net-(IC8-FILTER)*%
X85619500Y-82092800D03*
%TO.P,Cf8,2*%
%TO.N,GND*%
X83544500Y-82092800D03*
%TD*%
D14*
%TO.P,J6,1,1*%
%TO.N,PWR1*%
X206396000Y-75492000D03*
D15*
%TO.P,J6,2,2*%
%TO.N,-BATT*%
X198896000Y-62992000D03*
%TO.P,J6,3,3*%
%TO.N,PWR2*%
X191396000Y-75492000D03*
%TO.P,J6,4,4*%
%TO.N,-BATT*%
X183896000Y-62992000D03*
%TD*%
D11*
%TO.P,Cb6,1*%
%TO.N,5V*%
X165447800Y-84480400D03*
%TO.P,Cb6,2*%
%TO.N,GND*%
X163372800Y-84480400D03*
%TD*%
%TO.P,Cb2,1*%
%TO.N,5V*%
X182211800Y-84429600D03*
%TO.P,Cb2,2*%
%TO.N,GND*%
X180136800Y-84429600D03*
%TD*%
%TO.P,Cb1,1*%
%TO.N,5V*%
X197887500Y-84632800D03*
%TO.P,Cb1,2*%
%TO.N,GND*%
X195812500Y-84632800D03*
%TD*%
%TO.P,Cf7,1*%
%TO.N,Net-(IC4-FILTER)*%
X150033900Y-82042000D03*
%TO.P,Cf7,2*%
%TO.N,GND*%
X147958900Y-82042000D03*
%TD*%
D10*
%TO.P,IC6,1,IP+_1*%
%TO.N,+BATT*%
X126581600Y-84429600D03*
%TO.P,IC6,2,IP+_2*%
X126581600Y-83159600D03*
%TO.P,IC6,3,IP-_1*%
%TO.N,PWR6*%
X126581600Y-81889600D03*
%TO.P,IC6,4,IP-_2*%
X126581600Y-80619600D03*
%TO.P,IC6,5,GND*%
%TO.N,GND*%
X120981600Y-80619600D03*
%TO.P,IC6,6,FILTER*%
%TO.N,Net-(IC6-FILTER)*%
X120981600Y-81889600D03*
%TO.P,IC6,7,VIOUT*%
%TO.N,VIout6*%
X120981600Y-83159600D03*
%TO.P,IC6,8,VCC*%
%TO.N,5V*%
X120981600Y-84429600D03*
%TD*%
%TO.P,IC4,1,IP+_1*%
%TO.N,+BATT*%
X159054800Y-84480400D03*
%TO.P,IC4,2,IP+_2*%
X159054800Y-83210400D03*
%TO.P,IC4,3,IP-_1*%
%TO.N,PWR4*%
X159054800Y-81940400D03*
%TO.P,IC4,4,IP-_2*%
X159054800Y-80670400D03*
%TO.P,IC4,5,GND*%
%TO.N,GND*%
X153454800Y-80670400D03*
%TO.P,IC4,6,FILTER*%
%TO.N,Net-(IC4-FILTER)*%
X153454800Y-81940400D03*
%TO.P,IC4,7,VIOUT*%
%TO.N,VIout4*%
X153454800Y-83210400D03*
%TO.P,IC4,8,VCC*%
%TO.N,5V*%
X153454800Y-84480400D03*
%TD*%
D11*
%TO.P,Cb7,1*%
%TO.N,5V*%
X150135500Y-84378800D03*
%TO.P,Cb7,2*%
%TO.N,GND*%
X148060500Y-84378800D03*
%TD*%
%TO.P,Cf2,1*%
%TO.N,Net-(IC2-FILTER)*%
X182190300Y-82194400D03*
%TO.P,Cf2,2*%
%TO.N,GND*%
X180115300Y-82194400D03*
%TD*%
D14*
%TO.P,J2,1,1*%
%TO.N,PWR5*%
X141612000Y-75492000D03*
D15*
%TO.P,J2,2,2*%
%TO.N,-BATT*%
X134112000Y-62992000D03*
%TO.P,J2,3,3*%
%TO.N,PWR6*%
X126612000Y-75492000D03*
%TO.P,J2,4,4*%
%TO.N,-BATT*%
X119112000Y-62992000D03*
%TD*%
D16*
%TO.P,J9,1,Pin_1*%
%TO.N,VIout8*%
X104967800Y-97536000D03*
D17*
%TO.P,J9,2,Pin_2*%
%TO.N,VIout7*%
X107507800Y-97536000D03*
%TO.P,J9,3,Pin_3*%
%TO.N,VIout6*%
X110047800Y-97536000D03*
%TO.P,J9,4,Pin_4*%
%TO.N,VIout5*%
X112587800Y-97536000D03*
%TO.P,J9,5,Pin_5*%
%TO.N,VIout4*%
X115127800Y-97536000D03*
%TO.P,J9,6,Pin_6*%
%TO.N,VIout3*%
X117667800Y-97536000D03*
%TO.P,J9,7,Pin_7*%
%TO.N,VIout2*%
X120207800Y-97536000D03*
%TO.P,J9,8,Pin_8*%
%TO.N,VIout1*%
X122747800Y-97536000D03*
%TD*%
D11*
%TO.P,Cb8,1*%
%TO.N,5V*%
X85641000Y-84378800D03*
%TO.P,Cb8,2*%
%TO.N,GND*%
X83566000Y-84378800D03*
%TD*%
%TO.P,Cb5,1*%
%TO.N,5V*%
X133139000Y-84378800D03*
%TO.P,Cb5,2*%
%TO.N,GND*%
X131064000Y-84378800D03*
%TD*%
D16*
%TO.P,J8,1,Pin_1*%
%TO.N,5V*%
X95199200Y-97586800D03*
D17*
%TO.P,J8,2,Pin_2*%
%TO.N,GND*%
X95199200Y-100126800D03*
%TD*%
D10*
%TO.P,IC2,1,IP+_1*%
%TO.N,+BATT*%
X191351600Y-84480400D03*
%TO.P,IC2,2,IP+_2*%
X191351600Y-83210400D03*
%TO.P,IC2,3,IP-_1*%
%TO.N,PWR2*%
X191351600Y-81940400D03*
%TO.P,IC2,4,IP-_2*%
X191351600Y-80670400D03*
%TO.P,IC2,5,GND*%
%TO.N,GND*%
X185751600Y-80670400D03*
%TO.P,IC2,6,FILTER*%
%TO.N,Net-(IC2-FILTER)*%
X185751600Y-81940400D03*
%TO.P,IC2,7,VIOUT*%
%TO.N,VIout2*%
X185751600Y-83210400D03*
%TO.P,IC2,8,VCC*%
%TO.N,5V*%
X185751600Y-84480400D03*
%TD*%
D11*
%TO.P,Cf4,1*%
%TO.N,Net-(IC7-FILTER)*%
X100808700Y-82905600D03*
%TO.P,Cf4,2*%
%TO.N,GND*%
X98733700Y-82905600D03*
%TD*%
D10*
%TO.P,IC1,1,IP+_1*%
%TO.N,+BATT*%
X206451200Y-84582000D03*
%TO.P,IC1,2,IP+_2*%
X206451200Y-83312000D03*
%TO.P,IC1,3,IP-_1*%
%TO.N,PWR1*%
X206451200Y-82042000D03*
%TO.P,IC1,4,IP-_2*%
X206451200Y-80772000D03*
%TO.P,IC1,5,GND*%
%TO.N,GND*%
X200851200Y-80772000D03*
%TO.P,IC1,6,FILTER*%
%TO.N,Net-(IC1-FILTER)*%
X200851200Y-82042000D03*
%TO.P,IC1,7,VIOUT*%
%TO.N,VIout1*%
X200851200Y-83312000D03*
%TO.P,IC1,8,VCC*%
%TO.N,5V*%
X200851200Y-84582000D03*
%TD*%
D16*
%TO.P,J5,1,Pin_1*%
%TO.N,SCL*%
X89611200Y-110190200D03*
D17*
%TO.P,J5,2,Pin_2*%
%TO.N,SDA*%
X89611200Y-107650200D03*
%TO.P,J5,3,Pin_3*%
%TO.N,REF*%
X89611200Y-105110200D03*
%TO.P,J5,4,Pin_4*%
%TO.N,COM*%
X89611200Y-102570200D03*
%TO.P,J5,5,Pin_5*%
%TO.N,AD0*%
X89611200Y-100030200D03*
%TO.P,J5,6,Pin_6*%
%TO.N,AD1*%
X89611200Y-97490200D03*
%TD*%
D14*
%TO.P,J1,1,1*%
%TO.N,PWR3*%
X173985600Y-75492000D03*
D15*
%TO.P,J1,2,2*%
%TO.N,-BATT*%
X166485600Y-62992000D03*
%TO.P,J1,3,3*%
%TO.N,PWR4*%
X158985600Y-75492000D03*
%TO.P,J1,4,4*%
%TO.N,-BATT*%
X151485600Y-62992000D03*
%TD*%
D10*
%TO.P,IC8,1,IP+_1*%
%TO.N,+BATT*%
X94171200Y-84328000D03*
%TO.P,IC8,2,IP+_2*%
X94171200Y-83058000D03*
%TO.P,IC8,3,IP-_1*%
%TO.N,PWR8*%
X94171200Y-81788000D03*
%TO.P,IC8,4,IP-_2*%
X94171200Y-80518000D03*
%TO.P,IC8,5,GND*%
%TO.N,GND*%
X88571200Y-80518000D03*
%TO.P,IC8,6,FILTER*%
%TO.N,Net-(IC8-FILTER)*%
X88571200Y-81788000D03*
%TO.P,IC8,7,VIOUT*%
%TO.N,VIout8*%
X88571200Y-83058000D03*
%TO.P,IC8,8,VCC*%
%TO.N,5V*%
X88571200Y-84328000D03*
%TD*%
D11*
%TO.P,Cb3,1*%
%TO.N,5V*%
X117979100Y-84378800D03*
%TO.P,Cb3,2*%
%TO.N,GND*%
X115904100Y-84378800D03*
%TD*%
D10*
%TO.P,IC3,1,IP+_1*%
%TO.N,+BATT*%
X174040800Y-84480400D03*
%TO.P,IC3,2,IP+_2*%
X174040800Y-83210400D03*
%TO.P,IC3,3,IP-_1*%
%TO.N,PWR3*%
X174040800Y-81940400D03*
%TO.P,IC3,4,IP-_2*%
X174040800Y-80670400D03*
%TO.P,IC3,5,GND*%
%TO.N,GND*%
X168440800Y-80670400D03*
%TO.P,IC3,6,FILTER*%
%TO.N,Net-(IC3-FILTER)*%
X168440800Y-81940400D03*
%TO.P,IC3,7,VIOUT*%
%TO.N,VIout3*%
X168440800Y-83210400D03*
%TO.P,IC3,8,VCC*%
%TO.N,5V*%
X168440800Y-84480400D03*
%TD*%
D11*
%TO.P,Cb4,1*%
%TO.N,5V*%
X100881000Y-85039200D03*
%TO.P,Cb4,2*%
%TO.N,GND*%
X98806000Y-85039200D03*
%TD*%
%TO.P,Cf5,1*%
%TO.N,Net-(IC5-FILTER)*%
X133139000Y-82143600D03*
%TO.P,Cf5,2*%
%TO.N,GND*%
X131064000Y-82143600D03*
%TD*%
D14*
%TO.P,J7,1,1*%
%TO.N,PWR7*%
X109252400Y-75339600D03*
D15*
%TO.P,J7,2,2*%
%TO.N,-BATT*%
X101752400Y-62839600D03*
%TO.P,J7,3,3*%
%TO.N,PWR8*%
X94252400Y-75339600D03*
%TO.P,J7,4,4*%
%TO.N,-BATT*%
X86752400Y-62839600D03*
%TD*%
D11*
%TO.P,Cf6,1*%
%TO.N,Net-(IC3-FILTER)*%
X165375500Y-82143600D03*
%TO.P,Cf6,2*%
%TO.N,GND*%
X163300500Y-82143600D03*
%TD*%
D16*
%TO.P,J3,1,Pin_1*%
%TO.N,5V*%
X104967800Y-110236000D03*
D17*
%TO.P,J3,2,Pin_2*%
%TO.N,GND*%
X107507800Y-110236000D03*
%TO.P,J3,3,Pin_3*%
%TO.N,SCL*%
X110047800Y-110236000D03*
%TO.P,J3,4,Pin_4*%
%TO.N,SDA*%
X112587800Y-110236000D03*
%TO.P,J3,5,Pin_5*%
%TO.N,REF*%
X115127800Y-110236000D03*
%TO.P,J3,6,Pin_6*%
%TO.N,COM*%
X117667800Y-110236000D03*
%TO.P,J3,7,Pin_7*%
%TO.N,AD0*%
X120207800Y-110236000D03*
%TO.P,J3,8,Pin_8*%
%TO.N,AD1*%
X122747800Y-110236000D03*
%TD*%
D18*
%TO.N,GND*%
X155708468Y-86525218D03*
X177722329Y-86122000D03*
X161493200Y-86668000D03*
X193497200Y-86410800D03*
X144488682Y-86263376D03*
X109002173Y-100973900D03*
X146651985Y-86918120D03*
X85547200Y-80467200D03*
X129540000Y-85572400D03*
X97485200Y-86671200D03*
X113639600Y-85572400D03*
%TO.N,5V*%
X86715600Y-87934800D03*
X182168800Y-87782400D03*
X133807200Y-87528400D03*
X100888800Y-87290000D03*
X144710327Y-87253995D03*
X146659600Y-88138000D03*
X165709600Y-87731600D03*
X107727767Y-100265900D03*
X117754400Y-87493200D03*
X194310000Y-87376000D03*
X156006800Y-87630000D03*
%TO.N,VIout1*%
X155600400Y-91541600D03*
X146862800Y-91490800D03*
X195884800Y-87630000D03*
%TO.N,VIout2*%
X145186400Y-90322400D03*
X187401200Y-87680800D03*
X155778871Y-90552990D03*
%TO.N,VIout3*%
X170434000Y-87833200D03*
X145117136Y-89172464D03*
X156154551Y-89622786D03*
%TO.N,VIout4*%
X145159387Y-88151080D03*
%TO.N,VIout5*%
X131527790Y-88757200D03*
%TO.N,VIout6*%
X122529600Y-87137600D03*
%TO.N,VIout7*%
X106680000Y-87290000D03*
%TO.N,VIout8*%
X91389200Y-88442800D03*
%TO.N,SDA*%
X112522000Y-108305600D03*
%TO.N,AD1*%
X121970800Y-104902000D03*
%TO.N,COM*%
X117652800Y-106984800D03*
%TO.N,SCL*%
X109925368Y-108489600D03*
%TO.N,REF*%
X115062000Y-107746800D03*
%TO.N,AD0*%
X118947477Y-105352800D03*
%TD*%
D19*
%TO.N,5V*%
X104967800Y-103025867D02*
X107727767Y-100265900D01*
X104967800Y-110236000D02*
X104967800Y-103025867D01*
%TO.N,GND*%
X107507800Y-102468273D02*
X109002173Y-100973900D01*
X107507800Y-110236000D02*
X107507800Y-102468273D01*
X162356800Y-84480400D02*
X161493200Y-85344000D01*
X144627600Y-84937600D02*
X144627600Y-82397600D01*
X97485200Y-82245200D02*
X97485200Y-82956400D01*
X195935600Y-82346800D02*
X195072000Y-82346800D01*
X168440800Y-80670400D02*
X162052000Y-80670400D01*
X113588800Y-84378800D02*
X113588800Y-85521600D01*
X178155600Y-84429600D02*
X177241200Y-85344000D01*
X85170100Y-80467200D02*
X85547200Y-80467200D01*
X97739200Y-82905600D02*
X98936900Y-82905600D01*
X161493200Y-82804000D02*
X161493200Y-85344000D01*
X177241200Y-85640871D02*
X177722329Y-86122000D01*
X113487200Y-82092800D02*
X113487200Y-84277200D01*
X83566000Y-84378800D02*
X83566000Y-82114300D01*
X129540000Y-85242400D02*
X129540000Y-85572400D01*
X130454400Y-80619600D02*
X136069200Y-80619600D01*
X162052000Y-80670400D02*
X161493200Y-81229200D01*
X86868000Y-80518000D02*
X88571200Y-80518000D01*
X161493200Y-85344000D02*
X161493200Y-86668000D01*
X147006905Y-86563200D02*
X155670486Y-86563200D01*
X130403600Y-80568800D02*
X130454400Y-80619600D01*
X178409600Y-80670400D02*
X185751600Y-80670400D01*
X99110800Y-80619600D02*
X97485200Y-82245200D01*
X97536000Y-85039200D02*
X97485200Y-85090000D01*
X161493200Y-81229200D02*
X161493200Y-82804000D01*
X162153600Y-82143600D02*
X161493200Y-82804000D01*
X83544500Y-82092800D02*
X85170100Y-80467200D01*
X129997200Y-80568800D02*
X130403600Y-80568800D01*
X194157600Y-81838800D02*
X194157600Y-83261200D01*
X177241200Y-85344000D02*
X177241200Y-83007200D01*
X163372800Y-84480400D02*
X162356800Y-84480400D01*
X195173600Y-80822800D02*
X200800400Y-80822800D01*
X180115300Y-82194400D02*
X178054000Y-82194400D01*
X194564000Y-84632800D02*
X194157600Y-85039200D01*
X114960400Y-80619600D02*
X113487200Y-82092800D01*
X145389600Y-80670400D02*
X153454800Y-80670400D01*
X115904100Y-84378800D02*
X113588800Y-84378800D01*
X195072000Y-82346800D02*
X194157600Y-83261200D01*
X130403600Y-84378800D02*
X129540000Y-85242400D01*
X155670486Y-86563200D02*
X155708468Y-86525218D01*
X177241200Y-83007200D02*
X177241200Y-81838800D01*
X194157600Y-85750400D02*
X193497200Y-86410800D01*
X145186400Y-84378800D02*
X144627600Y-84937600D01*
X97637600Y-82804000D02*
X97485200Y-82956400D01*
X120981600Y-80619600D02*
X114960400Y-80619600D01*
X131064000Y-82143600D02*
X130251200Y-82143600D01*
X113588800Y-85521600D02*
X113639600Y-85572400D01*
X113487200Y-82092800D02*
X115904100Y-82092800D01*
X144627600Y-81432400D02*
X145389600Y-80670400D01*
X129540000Y-85242400D02*
X129540000Y-82854800D01*
X148060500Y-84378800D02*
X145186400Y-84378800D01*
X144983200Y-82042000D02*
X144627600Y-82397600D01*
X130251200Y-82143600D02*
X129540000Y-82854800D01*
X144627600Y-86124458D02*
X144488682Y-86263376D01*
X144627600Y-82397600D02*
X144627600Y-81432400D01*
X113487200Y-84277200D02*
X113588800Y-84378800D01*
X195173600Y-80822800D02*
X194157600Y-81838800D01*
X178054000Y-82194400D02*
X177241200Y-83007200D01*
X177241200Y-85344000D02*
X177241200Y-85640871D01*
X144627600Y-84937600D02*
X144627600Y-86124458D01*
X131064000Y-84378800D02*
X130403600Y-84378800D01*
X97485200Y-85090000D02*
X97485200Y-86671200D01*
X129540000Y-82854800D02*
X129540000Y-81026000D01*
X129540000Y-81026000D02*
X129997200Y-80568800D01*
X146651985Y-86918120D02*
X147006905Y-86563200D01*
X98806000Y-85039200D02*
X97536000Y-85039200D01*
X85547200Y-80467200D02*
X86868000Y-80518000D01*
X180136800Y-84429600D02*
X178155600Y-84429600D01*
X103721600Y-80619600D02*
X99110800Y-80619600D01*
X97485200Y-82956400D02*
X97485200Y-85090000D01*
X177241200Y-81838800D02*
X178409600Y-80670400D01*
X147958900Y-82042000D02*
X144983200Y-82042000D01*
X97637600Y-82804000D02*
X97739200Y-82905600D01*
X194157600Y-83261200D02*
X194157600Y-85039200D01*
X195812500Y-84632800D02*
X194564000Y-84632800D01*
X194157600Y-85039200D02*
X194157600Y-85750400D01*
X163300500Y-82143600D02*
X162153600Y-82143600D01*
%TO.N,5V*%
X195747500Y-86772800D02*
X197887500Y-84632800D01*
X117979100Y-87268500D02*
X117754400Y-87493200D01*
X148659100Y-85855200D02*
X146713641Y-85855200D01*
X153454800Y-84480400D02*
X150237100Y-84480400D01*
X117789600Y-87528400D02*
X117754400Y-87493200D01*
X100888800Y-85047000D02*
X100888800Y-87290000D01*
X146612041Y-85956800D02*
X146007522Y-85956800D01*
X165709600Y-87731600D02*
X165709600Y-87211600D01*
X120981600Y-84429600D02*
X118029900Y-84429600D01*
X146659600Y-88138000D02*
X155498800Y-88138000D01*
X117979100Y-84378800D02*
X117979100Y-87268500D01*
X168440800Y-84480400D02*
X165447800Y-84480400D01*
X155498800Y-88138000D02*
X156006800Y-87630000D01*
X200851200Y-84582000D02*
X197938300Y-84582000D01*
X86715600Y-87934800D02*
X86715600Y-84378800D01*
X85641000Y-84378800D02*
X86715600Y-84378800D01*
X100881000Y-85039200D02*
X103112000Y-85039200D01*
X133807200Y-86691600D02*
X136069200Y-84429600D01*
X146713641Y-85855200D02*
X146612041Y-85956800D01*
X165447800Y-84480400D02*
X165447800Y-87469800D01*
X194310000Y-87376000D02*
X194913200Y-86772800D01*
X146007522Y-85956800D02*
X144710327Y-87253995D01*
X150135500Y-84378800D02*
X148659100Y-85855200D01*
X185751600Y-84480400D02*
X182262600Y-84480400D01*
X117882800Y-87528400D02*
X117789600Y-87528400D01*
X86715600Y-84378800D02*
X88520400Y-84378800D01*
X136069200Y-84429600D02*
X133189800Y-84429600D01*
X133807200Y-87528400D02*
X133807200Y-86691600D01*
X182211800Y-84429600D02*
X182211800Y-87739400D01*
X165447800Y-87469800D02*
X165709600Y-87731600D01*
X182211800Y-87739400D02*
X182168800Y-87782400D01*
X194913200Y-86772800D02*
X195747500Y-86772800D01*
X103112000Y-85039200D02*
X103772400Y-84378800D01*
%TO.N,Net-(IC1-FILTER)*%
X200546400Y-82346800D02*
X200851200Y-82042000D01*
X198010600Y-82346800D02*
X200546400Y-82346800D01*
%TO.N,Net-(IC2-FILTER)*%
X185751600Y-81940400D02*
X182444300Y-81940400D01*
%TO.N,Net-(IC6-FILTER)*%
X120981600Y-81889600D02*
X118182300Y-81889600D01*
%TO.N,Net-(IC7-FILTER)*%
X103772400Y-81838800D02*
X101854000Y-81838800D01*
X101854000Y-81838800D02*
X101011900Y-82680900D01*
%TO.N,Net-(IC5-FILTER)*%
X136069200Y-81889600D02*
X133393000Y-81889600D01*
%TO.N,Net-(IC3-FILTER)*%
X168237600Y-82143600D02*
X168440800Y-81940400D01*
X165375500Y-82143600D02*
X168237600Y-82143600D01*
%TO.N,Net-(IC4-FILTER)*%
X153454800Y-81940400D02*
X150135500Y-81940400D01*
%TO.N,Net-(IC8-FILTER)*%
X88571200Y-81788000D02*
X85924300Y-81788000D01*
D20*
%TO.N,PWR1*%
X206451200Y-80772000D02*
X206451200Y-75547200D01*
D21*
X206451200Y-82042000D02*
X206451200Y-80772000D01*
D19*
%TO.N,VIout1*%
X201689200Y-83312000D02*
X202184000Y-83806800D01*
X202184000Y-85357200D02*
X199911200Y-87630000D01*
X200851200Y-83312000D02*
X201689200Y-83312000D01*
X146913600Y-91541600D02*
X146862800Y-91490800D01*
X202184000Y-83806800D02*
X202184000Y-85357200D01*
X199911200Y-87630000D02*
X195884800Y-87630000D01*
X155600400Y-91541600D02*
X146913600Y-91541600D01*
D20*
%TO.N,+BATT*%
X191351600Y-89775600D02*
X188925200Y-92202000D01*
X126581600Y-91960000D02*
X126542800Y-91998800D01*
D22*
X138938000Y-104648000D02*
X133553200Y-99263200D01*
X141427200Y-99263200D02*
X141427200Y-104648000D01*
X143919000Y-104648000D02*
X148844000Y-99723000D01*
D20*
X94171200Y-83578000D02*
X94186200Y-83563000D01*
X109372400Y-84378800D02*
X109372400Y-91643200D01*
X141427200Y-83906600D02*
X141427200Y-94488000D01*
D22*
X160832800Y-92202000D02*
X171551600Y-92202000D01*
D20*
X206451200Y-84582000D02*
X206451200Y-92151200D01*
D22*
X141427200Y-104648000D02*
X138938000Y-104648000D01*
D20*
X191351600Y-84480400D02*
X191351600Y-83715400D01*
D22*
X109372400Y-91643200D02*
X94386400Y-91643200D01*
X141427200Y-104648000D02*
X143919000Y-104648000D01*
D20*
X94171200Y-84328000D02*
X94171200Y-83578000D01*
D22*
X171551600Y-92202000D02*
X188925200Y-92202000D01*
X126390400Y-91846400D02*
X109575600Y-91846400D01*
X148844000Y-99723000D02*
X141887000Y-99723000D01*
D20*
X159054800Y-90429402D02*
X160832800Y-92207402D01*
D22*
X141427200Y-94488000D02*
X138328400Y-94488000D01*
X141887000Y-99723000D02*
X141427200Y-99263200D01*
D20*
X126581600Y-84429600D02*
X126581600Y-91960000D01*
D22*
X141427200Y-99263200D02*
X133553200Y-99263200D01*
D20*
X159054800Y-84480400D02*
X159054800Y-90429402D01*
D22*
X159953600Y-93344755D02*
X159953600Y-93141555D01*
D20*
X174040800Y-84480400D02*
X174040800Y-89712800D01*
X206451200Y-84582000D02*
X206451200Y-83817000D01*
X109372400Y-84378800D02*
X109372400Y-83613800D01*
D22*
X109575600Y-91846400D02*
X109372400Y-91643200D01*
D20*
X94186200Y-83563000D02*
X94171200Y-83563000D01*
X94171200Y-84328000D02*
X94171200Y-91834400D01*
D22*
X138328400Y-94488000D02*
X133553200Y-99263200D01*
D20*
X174040800Y-89712800D02*
X171551600Y-92202000D01*
D22*
X188925200Y-92202000D02*
X194106800Y-92202000D01*
X160832800Y-92262355D02*
X160832800Y-92207402D01*
D20*
X141669200Y-84429600D02*
X141669200Y-83664600D01*
X206451200Y-92151200D02*
X206400400Y-92202000D01*
D22*
X148844000Y-99723000D02*
X153575355Y-99723000D01*
X143609000Y-94488000D02*
X148844000Y-99723000D01*
X153575355Y-99723000D02*
X159953600Y-93344755D01*
X126542800Y-91998800D02*
X126390400Y-91846400D01*
D20*
X126581600Y-84429600D02*
X126581600Y-83664600D01*
X94171200Y-91834400D02*
X94183200Y-91846400D01*
D22*
X194106800Y-92202000D02*
X206400400Y-92202000D01*
X159953600Y-93141555D02*
X160832800Y-92262355D01*
D20*
X141669200Y-83664600D02*
X141427200Y-83906600D01*
D22*
X160832800Y-92207402D02*
X160832800Y-92202000D01*
D20*
X174040800Y-84480400D02*
X174040800Y-83715400D01*
X191351600Y-84480400D02*
X191351600Y-89775600D01*
X159054800Y-84480400D02*
X159054800Y-83715400D01*
D22*
X141427200Y-94488000D02*
X141427200Y-99263200D01*
X141427200Y-94488000D02*
X143609000Y-94488000D01*
X133553200Y-99263200D02*
X133553200Y-99009200D01*
X133553200Y-99009200D02*
X126542800Y-91998800D01*
D21*
%TO.N,PWR2*%
X191351600Y-81940400D02*
X191351600Y-80670400D01*
D20*
X191351600Y-80670400D02*
X191351600Y-75536400D01*
D19*
%TO.N,VIout2*%
X145186400Y-90322400D02*
X145491200Y-90627200D01*
X186589600Y-83210400D02*
X187401200Y-84022000D01*
X187401200Y-84022000D02*
X187401200Y-87680800D01*
X185751600Y-83210400D02*
X186589600Y-83210400D01*
X145491200Y-90627200D02*
X155704661Y-90627200D01*
X155704661Y-90627200D02*
X155778871Y-90552990D01*
D20*
%TO.N,PWR3*%
X174040800Y-80670400D02*
X174040800Y-75547200D01*
D21*
X174040800Y-81940400D02*
X174040800Y-80670400D01*
D19*
%TO.N,VIout3*%
X155087214Y-89622786D02*
X156154551Y-89622786D01*
X154790800Y-89919200D02*
X155087214Y-89622786D01*
X145995464Y-89919200D02*
X154790800Y-89919200D01*
X170434000Y-84365600D02*
X170434000Y-87833200D01*
X168440800Y-83210400D02*
X169278800Y-83210400D01*
X145117136Y-89172464D02*
X145248728Y-89172464D01*
X169278800Y-83210400D02*
X170434000Y-84365600D01*
X145248728Y-89172464D02*
X145995464Y-89919200D01*
%TO.N,VIout4*%
X155792064Y-88846000D02*
X154761672Y-88846000D01*
X156049264Y-88588800D02*
X155792064Y-88846000D01*
X156260264Y-88588800D02*
X156049264Y-88588800D01*
X146405064Y-89211200D02*
X145344944Y-88151080D01*
X154761672Y-88846000D02*
X154396472Y-89211200D01*
X156864000Y-87985064D02*
X156260264Y-88588800D01*
X153454800Y-83210400D02*
X154837800Y-83210400D01*
X155930300Y-84302900D02*
X156864000Y-85236600D01*
X155930300Y-84302900D02*
X156921200Y-85293800D01*
X156864000Y-85236600D02*
X156864000Y-87985064D01*
X154396472Y-89211200D02*
X146405064Y-89211200D01*
X154837800Y-83210400D02*
X155930300Y-84302900D01*
X145344944Y-88151080D02*
X145159387Y-88151080D01*
D20*
%TO.N,PWR4*%
X159054800Y-80670400D02*
X159054800Y-75561200D01*
D21*
X159054800Y-81940400D02*
X159054800Y-80670400D01*
D20*
%TO.N,PWR5*%
X141669200Y-80619600D02*
X141669200Y-75549200D01*
D21*
X141669200Y-81889600D02*
X141669200Y-80619600D01*
D19*
%TO.N,VIout5*%
X133956934Y-88757200D02*
X131527790Y-88757200D01*
X137414000Y-83666400D02*
X137414000Y-85300134D01*
X137414000Y-85300134D02*
X133956934Y-88757200D01*
X136907200Y-83159600D02*
X137414000Y-83666400D01*
X136069200Y-83159600D02*
X136907200Y-83159600D01*
D21*
%TO.N,PWR6*%
X126581600Y-81889600D02*
X126581600Y-80619600D01*
D20*
X126581600Y-80619600D02*
X126581600Y-75522400D01*
D19*
%TO.N,VIout6*%
X122364600Y-83159600D02*
X122529600Y-83324600D01*
X122529600Y-83324600D02*
X122529600Y-87137600D01*
X120981600Y-83159600D02*
X122364600Y-83159600D01*
D21*
%TO.N,PWR7*%
X109372400Y-81838800D02*
X109372400Y-80568800D01*
D20*
X109372400Y-80568800D02*
X109372400Y-75459600D01*
D19*
%TO.N,VIout7*%
X103772400Y-83108800D02*
X105155400Y-83108800D01*
X105155400Y-83108800D02*
X106680000Y-84633400D01*
X106680000Y-84633400D02*
X106680000Y-87290000D01*
D21*
%TO.N,PWR8*%
X94171200Y-81788000D02*
X94171200Y-80518000D01*
D20*
X94171200Y-80518000D02*
X94171200Y-75420800D01*
D19*
%TO.N,VIout8*%
X89954200Y-83058000D02*
X91389200Y-84493000D01*
X91389200Y-84493000D02*
X91389200Y-88442800D01*
X88571200Y-83058000D02*
X89954200Y-83058000D01*
%TO.N,SDA*%
X112522000Y-108305600D02*
X112522000Y-110170200D01*
%TO.N,AD1*%
X121970800Y-104902000D02*
X122747800Y-105679000D01*
X122747800Y-105679000D02*
X122747800Y-110236000D01*
%TO.N,COM*%
X117667800Y-110236000D02*
X117667800Y-106999800D01*
X117667800Y-106999800D02*
X117652800Y-106984800D01*
%TO.N,SCL*%
X110047800Y-108612032D02*
X109925368Y-108489600D01*
X110047800Y-110236000D02*
X110047800Y-108612032D01*
%TO.N,REF*%
X115062000Y-107746800D02*
X115062000Y-110170200D01*
%TO.N,AD0*%
X120091200Y-107238800D02*
X120207800Y-107355400D01*
X120091200Y-106883200D02*
X120091200Y-107238800D01*
X120207800Y-107355400D02*
X120207800Y-110236000D01*
X118947477Y-105739477D02*
X120091200Y-106883200D01*
X118947477Y-105352800D02*
X118947477Y-105739477D01*
%TD*%
M02*
