%TF.GenerationSoftware,KiCad,Pcbnew,8.0.3*%
%TF.CreationDate,2025-02-02T18:29:42-08:00*%
%TF.ProjectId,Power_Distribution,506f7765-725f-4446-9973-747269627574,rev?*%
%TF.SameCoordinates,Original*%
%TF.FileFunction,Drillmap*%
%TF.FilePolarity,Positive*%
%FSLAX45Y45*%
G04 Gerber Fmt 4.5, Leading zero omitted, Abs format (unit mm)*
G04 Created by KiCad (PCBNEW 8.0.3) date 2025-02-02 18:29:42*
%MOMM*%
%LPD*%
G01*
G04 APERTURE LIST*
%ADD10C,0.100000*%
%ADD11C,0.200000*%
%ADD12C,0.320000*%
G04 APERTURE END LIST*
D10*
X8153640Y-5227320D02*
X21153640Y-5227320D01*
X21153640Y-11227320D01*
X8153640Y-11227320D01*
X8153640Y-5227320D01*
D11*
D12*
X9739000Y-10568960D02*
X10059000Y-10888960D01*
X10059000Y-10568960D02*
X9739000Y-10888960D01*
X12739000Y-10568960D02*
X13059000Y-10888960D01*
X13059000Y-10568960D02*
X12739000Y-10888960D01*
X17239000Y-10568960D02*
X17559000Y-10888960D01*
X17559000Y-10568960D02*
X17239000Y-10888960D01*
X18739000Y-10568960D02*
X19059000Y-10888960D01*
X19059000Y-10568960D02*
X18739000Y-10888960D01*
X20239000Y-10568960D02*
X20559000Y-10888960D01*
X20559000Y-10568960D02*
X20239000Y-10888960D01*
D11*
X8409417Y-11543804D02*
X8409417Y-11343804D01*
X8409417Y-11343804D02*
X8457036Y-11343804D01*
X8457036Y-11343804D02*
X8485607Y-11353328D01*
X8485607Y-11353328D02*
X8504655Y-11372375D01*
X8504655Y-11372375D02*
X8514179Y-11391423D01*
X8514179Y-11391423D02*
X8523703Y-11429518D01*
X8523703Y-11429518D02*
X8523703Y-11458089D01*
X8523703Y-11458089D02*
X8514179Y-11496185D01*
X8514179Y-11496185D02*
X8504655Y-11515232D01*
X8504655Y-11515232D02*
X8485607Y-11534280D01*
X8485607Y-11534280D02*
X8457036Y-11543804D01*
X8457036Y-11543804D02*
X8409417Y-11543804D01*
X8609417Y-11543804D02*
X8609417Y-11410470D01*
X8609417Y-11448566D02*
X8618941Y-11429518D01*
X8618941Y-11429518D02*
X8628464Y-11419994D01*
X8628464Y-11419994D02*
X8647512Y-11410470D01*
X8647512Y-11410470D02*
X8666560Y-11410470D01*
X8733226Y-11543804D02*
X8733226Y-11410470D01*
X8733226Y-11343804D02*
X8723703Y-11353328D01*
X8723703Y-11353328D02*
X8733226Y-11362851D01*
X8733226Y-11362851D02*
X8742750Y-11353328D01*
X8742750Y-11353328D02*
X8733226Y-11343804D01*
X8733226Y-11343804D02*
X8733226Y-11362851D01*
X8857036Y-11543804D02*
X8837988Y-11534280D01*
X8837988Y-11534280D02*
X8828464Y-11515232D01*
X8828464Y-11515232D02*
X8828464Y-11343804D01*
X8961798Y-11543804D02*
X8942750Y-11534280D01*
X8942750Y-11534280D02*
X8933226Y-11515232D01*
X8933226Y-11515232D02*
X8933226Y-11343804D01*
X9190369Y-11543804D02*
X9190369Y-11343804D01*
X9190369Y-11343804D02*
X9257036Y-11486661D01*
X9257036Y-11486661D02*
X9323703Y-11343804D01*
X9323703Y-11343804D02*
X9323703Y-11543804D01*
X9504655Y-11543804D02*
X9504655Y-11439042D01*
X9504655Y-11439042D02*
X9495131Y-11419994D01*
X9495131Y-11419994D02*
X9476084Y-11410470D01*
X9476084Y-11410470D02*
X9437988Y-11410470D01*
X9437988Y-11410470D02*
X9418941Y-11419994D01*
X9504655Y-11534280D02*
X9485607Y-11543804D01*
X9485607Y-11543804D02*
X9437988Y-11543804D01*
X9437988Y-11543804D02*
X9418941Y-11534280D01*
X9418941Y-11534280D02*
X9409417Y-11515232D01*
X9409417Y-11515232D02*
X9409417Y-11496185D01*
X9409417Y-11496185D02*
X9418941Y-11477137D01*
X9418941Y-11477137D02*
X9437988Y-11467613D01*
X9437988Y-11467613D02*
X9485607Y-11467613D01*
X9485607Y-11467613D02*
X9504655Y-11458089D01*
X9599893Y-11410470D02*
X9599893Y-11610470D01*
X9599893Y-11419994D02*
X9618941Y-11410470D01*
X9618941Y-11410470D02*
X9657036Y-11410470D01*
X9657036Y-11410470D02*
X9676084Y-11419994D01*
X9676084Y-11419994D02*
X9685607Y-11429518D01*
X9685607Y-11429518D02*
X9695131Y-11448566D01*
X9695131Y-11448566D02*
X9695131Y-11505708D01*
X9695131Y-11505708D02*
X9685607Y-11524756D01*
X9685607Y-11524756D02*
X9676084Y-11534280D01*
X9676084Y-11534280D02*
X9657036Y-11543804D01*
X9657036Y-11543804D02*
X9618941Y-11543804D01*
X9618941Y-11543804D02*
X9599893Y-11534280D01*
X9780845Y-11524756D02*
X9790369Y-11534280D01*
X9790369Y-11534280D02*
X9780845Y-11543804D01*
X9780845Y-11543804D02*
X9771322Y-11534280D01*
X9771322Y-11534280D02*
X9780845Y-11524756D01*
X9780845Y-11524756D02*
X9780845Y-11543804D01*
X9780845Y-11419994D02*
X9790369Y-11429518D01*
X9790369Y-11429518D02*
X9780845Y-11439042D01*
X9780845Y-11439042D02*
X9771322Y-11429518D01*
X9771322Y-11429518D02*
X9780845Y-11419994D01*
X9780845Y-11419994D02*
X9780845Y-11439042D01*
X7948640Y-11772320D02*
X8148640Y-11972320D01*
X8148640Y-11772320D02*
X7948640Y-11972320D01*
X8390369Y-11763804D02*
X8514179Y-11763804D01*
X8514179Y-11763804D02*
X8447512Y-11839994D01*
X8447512Y-11839994D02*
X8476084Y-11839994D01*
X8476084Y-11839994D02*
X8495131Y-11849518D01*
X8495131Y-11849518D02*
X8504655Y-11859042D01*
X8504655Y-11859042D02*
X8514179Y-11878089D01*
X8514179Y-11878089D02*
X8514179Y-11925708D01*
X8514179Y-11925708D02*
X8504655Y-11944756D01*
X8504655Y-11944756D02*
X8495131Y-11954280D01*
X8495131Y-11954280D02*
X8476084Y-11963804D01*
X8476084Y-11963804D02*
X8418941Y-11963804D01*
X8418941Y-11963804D02*
X8399893Y-11954280D01*
X8399893Y-11954280D02*
X8390369Y-11944756D01*
X8599893Y-11944756D02*
X8609417Y-11954280D01*
X8609417Y-11954280D02*
X8599893Y-11963804D01*
X8599893Y-11963804D02*
X8590369Y-11954280D01*
X8590369Y-11954280D02*
X8599893Y-11944756D01*
X8599893Y-11944756D02*
X8599893Y-11963804D01*
X8685607Y-11782851D02*
X8695131Y-11773328D01*
X8695131Y-11773328D02*
X8714179Y-11763804D01*
X8714179Y-11763804D02*
X8761798Y-11763804D01*
X8761798Y-11763804D02*
X8780845Y-11773328D01*
X8780845Y-11773328D02*
X8790369Y-11782851D01*
X8790369Y-11782851D02*
X8799893Y-11801899D01*
X8799893Y-11801899D02*
X8799893Y-11820947D01*
X8799893Y-11820947D02*
X8790369Y-11849518D01*
X8790369Y-11849518D02*
X8676084Y-11963804D01*
X8676084Y-11963804D02*
X8799893Y-11963804D01*
X8923703Y-11763804D02*
X8942750Y-11763804D01*
X8942750Y-11763804D02*
X8961798Y-11773328D01*
X8961798Y-11773328D02*
X8971322Y-11782851D01*
X8971322Y-11782851D02*
X8980845Y-11801899D01*
X8980845Y-11801899D02*
X8990369Y-11839994D01*
X8990369Y-11839994D02*
X8990369Y-11887613D01*
X8990369Y-11887613D02*
X8980845Y-11925708D01*
X8980845Y-11925708D02*
X8971322Y-11944756D01*
X8971322Y-11944756D02*
X8961798Y-11954280D01*
X8961798Y-11954280D02*
X8942750Y-11963804D01*
X8942750Y-11963804D02*
X8923703Y-11963804D01*
X8923703Y-11963804D02*
X8904655Y-11954280D01*
X8904655Y-11954280D02*
X8895131Y-11944756D01*
X8895131Y-11944756D02*
X8885607Y-11925708D01*
X8885607Y-11925708D02*
X8876084Y-11887613D01*
X8876084Y-11887613D02*
X8876084Y-11839994D01*
X8876084Y-11839994D02*
X8885607Y-11801899D01*
X8885607Y-11801899D02*
X8895131Y-11782851D01*
X8895131Y-11782851D02*
X8904655Y-11773328D01*
X8904655Y-11773328D02*
X8923703Y-11763804D01*
X9114179Y-11763804D02*
X9133226Y-11763804D01*
X9133226Y-11763804D02*
X9152274Y-11773328D01*
X9152274Y-11773328D02*
X9161798Y-11782851D01*
X9161798Y-11782851D02*
X9171322Y-11801899D01*
X9171322Y-11801899D02*
X9180845Y-11839994D01*
X9180845Y-11839994D02*
X9180845Y-11887613D01*
X9180845Y-11887613D02*
X9171322Y-11925708D01*
X9171322Y-11925708D02*
X9161798Y-11944756D01*
X9161798Y-11944756D02*
X9152274Y-11954280D01*
X9152274Y-11954280D02*
X9133226Y-11963804D01*
X9133226Y-11963804D02*
X9114179Y-11963804D01*
X9114179Y-11963804D02*
X9095131Y-11954280D01*
X9095131Y-11954280D02*
X9085607Y-11944756D01*
X9085607Y-11944756D02*
X9076084Y-11925708D01*
X9076084Y-11925708D02*
X9066560Y-11887613D01*
X9066560Y-11887613D02*
X9066560Y-11839994D01*
X9066560Y-11839994D02*
X9076084Y-11801899D01*
X9076084Y-11801899D02*
X9085607Y-11782851D01*
X9085607Y-11782851D02*
X9095131Y-11773328D01*
X9095131Y-11773328D02*
X9114179Y-11763804D01*
X9266560Y-11963804D02*
X9266560Y-11830470D01*
X9266560Y-11849518D02*
X9276084Y-11839994D01*
X9276084Y-11839994D02*
X9295131Y-11830470D01*
X9295131Y-11830470D02*
X9323703Y-11830470D01*
X9323703Y-11830470D02*
X9342750Y-11839994D01*
X9342750Y-11839994D02*
X9352274Y-11859042D01*
X9352274Y-11859042D02*
X9352274Y-11963804D01*
X9352274Y-11859042D02*
X9361798Y-11839994D01*
X9361798Y-11839994D02*
X9380845Y-11830470D01*
X9380845Y-11830470D02*
X9409417Y-11830470D01*
X9409417Y-11830470D02*
X9428465Y-11839994D01*
X9428465Y-11839994D02*
X9437988Y-11859042D01*
X9437988Y-11859042D02*
X9437988Y-11963804D01*
X9533226Y-11963804D02*
X9533226Y-11830470D01*
X9533226Y-11849518D02*
X9542750Y-11839994D01*
X9542750Y-11839994D02*
X9561798Y-11830470D01*
X9561798Y-11830470D02*
X9590369Y-11830470D01*
X9590369Y-11830470D02*
X9609417Y-11839994D01*
X9609417Y-11839994D02*
X9618941Y-11859042D01*
X9618941Y-11859042D02*
X9618941Y-11963804D01*
X9618941Y-11859042D02*
X9628465Y-11839994D01*
X9628465Y-11839994D02*
X9647512Y-11830470D01*
X9647512Y-11830470D02*
X9676084Y-11830470D01*
X9676084Y-11830470D02*
X9695131Y-11839994D01*
X9695131Y-11839994D02*
X9704655Y-11859042D01*
X9704655Y-11859042D02*
X9704655Y-11963804D01*
X10095131Y-11754280D02*
X9923703Y-12011423D01*
X10352274Y-11763804D02*
X10371322Y-11763804D01*
X10371322Y-11763804D02*
X10390369Y-11773328D01*
X10390369Y-11773328D02*
X10399893Y-11782851D01*
X10399893Y-11782851D02*
X10409417Y-11801899D01*
X10409417Y-11801899D02*
X10418941Y-11839994D01*
X10418941Y-11839994D02*
X10418941Y-11887613D01*
X10418941Y-11887613D02*
X10409417Y-11925708D01*
X10409417Y-11925708D02*
X10399893Y-11944756D01*
X10399893Y-11944756D02*
X10390369Y-11954280D01*
X10390369Y-11954280D02*
X10371322Y-11963804D01*
X10371322Y-11963804D02*
X10352274Y-11963804D01*
X10352274Y-11963804D02*
X10333227Y-11954280D01*
X10333227Y-11954280D02*
X10323703Y-11944756D01*
X10323703Y-11944756D02*
X10314179Y-11925708D01*
X10314179Y-11925708D02*
X10304655Y-11887613D01*
X10304655Y-11887613D02*
X10304655Y-11839994D01*
X10304655Y-11839994D02*
X10314179Y-11801899D01*
X10314179Y-11801899D02*
X10323703Y-11782851D01*
X10323703Y-11782851D02*
X10333227Y-11773328D01*
X10333227Y-11773328D02*
X10352274Y-11763804D01*
X10504655Y-11944756D02*
X10514179Y-11954280D01*
X10514179Y-11954280D02*
X10504655Y-11963804D01*
X10504655Y-11963804D02*
X10495131Y-11954280D01*
X10495131Y-11954280D02*
X10504655Y-11944756D01*
X10504655Y-11944756D02*
X10504655Y-11963804D01*
X10704655Y-11963804D02*
X10590369Y-11963804D01*
X10647512Y-11963804D02*
X10647512Y-11763804D01*
X10647512Y-11763804D02*
X10628465Y-11792375D01*
X10628465Y-11792375D02*
X10609417Y-11811423D01*
X10609417Y-11811423D02*
X10590369Y-11820947D01*
X10780846Y-11782851D02*
X10790369Y-11773328D01*
X10790369Y-11773328D02*
X10809417Y-11763804D01*
X10809417Y-11763804D02*
X10857036Y-11763804D01*
X10857036Y-11763804D02*
X10876084Y-11773328D01*
X10876084Y-11773328D02*
X10885608Y-11782851D01*
X10885608Y-11782851D02*
X10895131Y-11801899D01*
X10895131Y-11801899D02*
X10895131Y-11820947D01*
X10895131Y-11820947D02*
X10885608Y-11849518D01*
X10885608Y-11849518D02*
X10771322Y-11963804D01*
X10771322Y-11963804D02*
X10895131Y-11963804D01*
X11066560Y-11763804D02*
X11028465Y-11763804D01*
X11028465Y-11763804D02*
X11009417Y-11773328D01*
X11009417Y-11773328D02*
X10999893Y-11782851D01*
X10999893Y-11782851D02*
X10980846Y-11811423D01*
X10980846Y-11811423D02*
X10971322Y-11849518D01*
X10971322Y-11849518D02*
X10971322Y-11925708D01*
X10971322Y-11925708D02*
X10980846Y-11944756D01*
X10980846Y-11944756D02*
X10990369Y-11954280D01*
X10990369Y-11954280D02*
X11009417Y-11963804D01*
X11009417Y-11963804D02*
X11047512Y-11963804D01*
X11047512Y-11963804D02*
X11066560Y-11954280D01*
X11066560Y-11954280D02*
X11076084Y-11944756D01*
X11076084Y-11944756D02*
X11085608Y-11925708D01*
X11085608Y-11925708D02*
X11085608Y-11878089D01*
X11085608Y-11878089D02*
X11076084Y-11859042D01*
X11076084Y-11859042D02*
X11066560Y-11849518D01*
X11066560Y-11849518D02*
X11047512Y-11839994D01*
X11047512Y-11839994D02*
X11009417Y-11839994D01*
X11009417Y-11839994D02*
X10990369Y-11849518D01*
X10990369Y-11849518D02*
X10980846Y-11859042D01*
X10980846Y-11859042D02*
X10971322Y-11878089D01*
X11209417Y-11763804D02*
X11228465Y-11763804D01*
X11228465Y-11763804D02*
X11247512Y-11773328D01*
X11247512Y-11773328D02*
X11257036Y-11782851D01*
X11257036Y-11782851D02*
X11266560Y-11801899D01*
X11266560Y-11801899D02*
X11276084Y-11839994D01*
X11276084Y-11839994D02*
X11276084Y-11887613D01*
X11276084Y-11887613D02*
X11266560Y-11925708D01*
X11266560Y-11925708D02*
X11257036Y-11944756D01*
X11257036Y-11944756D02*
X11247512Y-11954280D01*
X11247512Y-11954280D02*
X11228465Y-11963804D01*
X11228465Y-11963804D02*
X11209417Y-11963804D01*
X11209417Y-11963804D02*
X11190369Y-11954280D01*
X11190369Y-11954280D02*
X11180846Y-11944756D01*
X11180846Y-11944756D02*
X11171322Y-11925708D01*
X11171322Y-11925708D02*
X11161798Y-11887613D01*
X11161798Y-11887613D02*
X11161798Y-11839994D01*
X11161798Y-11839994D02*
X11171322Y-11801899D01*
X11171322Y-11801899D02*
X11180846Y-11782851D01*
X11180846Y-11782851D02*
X11190369Y-11773328D01*
X11190369Y-11773328D02*
X11209417Y-11763804D01*
X11352274Y-11763804D02*
X11352274Y-11801899D01*
X11428465Y-11763804D02*
X11428465Y-11801899D01*
X11723703Y-12039994D02*
X11714179Y-12030470D01*
X11714179Y-12030470D02*
X11695131Y-12001899D01*
X11695131Y-12001899D02*
X11685608Y-11982851D01*
X11685608Y-11982851D02*
X11676084Y-11954280D01*
X11676084Y-11954280D02*
X11666560Y-11906661D01*
X11666560Y-11906661D02*
X11666560Y-11868566D01*
X11666560Y-11868566D02*
X11676084Y-11820947D01*
X11676084Y-11820947D02*
X11685608Y-11792375D01*
X11685608Y-11792375D02*
X11695131Y-11773328D01*
X11695131Y-11773328D02*
X11714179Y-11744756D01*
X11714179Y-11744756D02*
X11723703Y-11735232D01*
X11895131Y-11763804D02*
X11799893Y-11763804D01*
X11799893Y-11763804D02*
X11790369Y-11859042D01*
X11790369Y-11859042D02*
X11799893Y-11849518D01*
X11799893Y-11849518D02*
X11818941Y-11839994D01*
X11818941Y-11839994D02*
X11866560Y-11839994D01*
X11866560Y-11839994D02*
X11885608Y-11849518D01*
X11885608Y-11849518D02*
X11895131Y-11859042D01*
X11895131Y-11859042D02*
X11904655Y-11878089D01*
X11904655Y-11878089D02*
X11904655Y-11925708D01*
X11904655Y-11925708D02*
X11895131Y-11944756D01*
X11895131Y-11944756D02*
X11885608Y-11954280D01*
X11885608Y-11954280D02*
X11866560Y-11963804D01*
X11866560Y-11963804D02*
X11818941Y-11963804D01*
X11818941Y-11963804D02*
X11799893Y-11954280D01*
X11799893Y-11954280D02*
X11790369Y-11944756D01*
X12142750Y-11963804D02*
X12142750Y-11763804D01*
X12228465Y-11963804D02*
X12228465Y-11859042D01*
X12228465Y-11859042D02*
X12218941Y-11839994D01*
X12218941Y-11839994D02*
X12199893Y-11830470D01*
X12199893Y-11830470D02*
X12171322Y-11830470D01*
X12171322Y-11830470D02*
X12152274Y-11839994D01*
X12152274Y-11839994D02*
X12142750Y-11849518D01*
X12352274Y-11963804D02*
X12333227Y-11954280D01*
X12333227Y-11954280D02*
X12323703Y-11944756D01*
X12323703Y-11944756D02*
X12314179Y-11925708D01*
X12314179Y-11925708D02*
X12314179Y-11868566D01*
X12314179Y-11868566D02*
X12323703Y-11849518D01*
X12323703Y-11849518D02*
X12333227Y-11839994D01*
X12333227Y-11839994D02*
X12352274Y-11830470D01*
X12352274Y-11830470D02*
X12380846Y-11830470D01*
X12380846Y-11830470D02*
X12399893Y-11839994D01*
X12399893Y-11839994D02*
X12409417Y-11849518D01*
X12409417Y-11849518D02*
X12418941Y-11868566D01*
X12418941Y-11868566D02*
X12418941Y-11925708D01*
X12418941Y-11925708D02*
X12409417Y-11944756D01*
X12409417Y-11944756D02*
X12399893Y-11954280D01*
X12399893Y-11954280D02*
X12380846Y-11963804D01*
X12380846Y-11963804D02*
X12352274Y-11963804D01*
X12533227Y-11963804D02*
X12514179Y-11954280D01*
X12514179Y-11954280D02*
X12504655Y-11935232D01*
X12504655Y-11935232D02*
X12504655Y-11763804D01*
X12685608Y-11954280D02*
X12666560Y-11963804D01*
X12666560Y-11963804D02*
X12628465Y-11963804D01*
X12628465Y-11963804D02*
X12609417Y-11954280D01*
X12609417Y-11954280D02*
X12599893Y-11935232D01*
X12599893Y-11935232D02*
X12599893Y-11859042D01*
X12599893Y-11859042D02*
X12609417Y-11839994D01*
X12609417Y-11839994D02*
X12628465Y-11830470D01*
X12628465Y-11830470D02*
X12666560Y-11830470D01*
X12666560Y-11830470D02*
X12685608Y-11839994D01*
X12685608Y-11839994D02*
X12695131Y-11859042D01*
X12695131Y-11859042D02*
X12695131Y-11878089D01*
X12695131Y-11878089D02*
X12599893Y-11897137D01*
X12771322Y-11954280D02*
X12790370Y-11963804D01*
X12790370Y-11963804D02*
X12828465Y-11963804D01*
X12828465Y-11963804D02*
X12847512Y-11954280D01*
X12847512Y-11954280D02*
X12857036Y-11935232D01*
X12857036Y-11935232D02*
X12857036Y-11925708D01*
X12857036Y-11925708D02*
X12847512Y-11906661D01*
X12847512Y-11906661D02*
X12828465Y-11897137D01*
X12828465Y-11897137D02*
X12799893Y-11897137D01*
X12799893Y-11897137D02*
X12780846Y-11887613D01*
X12780846Y-11887613D02*
X12771322Y-11868566D01*
X12771322Y-11868566D02*
X12771322Y-11859042D01*
X12771322Y-11859042D02*
X12780846Y-11839994D01*
X12780846Y-11839994D02*
X12799893Y-11830470D01*
X12799893Y-11830470D02*
X12828465Y-11830470D01*
X12828465Y-11830470D02*
X12847512Y-11839994D01*
X12923703Y-12039994D02*
X12933227Y-12030470D01*
X12933227Y-12030470D02*
X12952274Y-12001899D01*
X12952274Y-12001899D02*
X12961798Y-11982851D01*
X12961798Y-11982851D02*
X12971322Y-11954280D01*
X12971322Y-11954280D02*
X12980846Y-11906661D01*
X12980846Y-11906661D02*
X12980846Y-11868566D01*
X12980846Y-11868566D02*
X12971322Y-11820947D01*
X12971322Y-11820947D02*
X12961798Y-11792375D01*
X12961798Y-11792375D02*
X12952274Y-11773328D01*
X12952274Y-11773328D02*
X12933227Y-11744756D01*
X12933227Y-11744756D02*
X12923703Y-11735232D01*
X13285608Y-12039994D02*
X13276084Y-12030470D01*
X13276084Y-12030470D02*
X13257036Y-12001899D01*
X13257036Y-12001899D02*
X13247512Y-11982851D01*
X13247512Y-11982851D02*
X13237989Y-11954280D01*
X13237989Y-11954280D02*
X13228465Y-11906661D01*
X13228465Y-11906661D02*
X13228465Y-11868566D01*
X13228465Y-11868566D02*
X13237989Y-11820947D01*
X13237989Y-11820947D02*
X13247512Y-11792375D01*
X13247512Y-11792375D02*
X13257036Y-11773328D01*
X13257036Y-11773328D02*
X13276084Y-11744756D01*
X13276084Y-11744756D02*
X13285608Y-11735232D01*
X13361798Y-11830470D02*
X13361798Y-11963804D01*
X13361798Y-11849518D02*
X13371322Y-11839994D01*
X13371322Y-11839994D02*
X13390370Y-11830470D01*
X13390370Y-11830470D02*
X13418941Y-11830470D01*
X13418941Y-11830470D02*
X13437989Y-11839994D01*
X13437989Y-11839994D02*
X13447512Y-11859042D01*
X13447512Y-11859042D02*
X13447512Y-11963804D01*
X13571322Y-11963804D02*
X13552274Y-11954280D01*
X13552274Y-11954280D02*
X13542751Y-11944756D01*
X13542751Y-11944756D02*
X13533227Y-11925708D01*
X13533227Y-11925708D02*
X13533227Y-11868566D01*
X13533227Y-11868566D02*
X13542751Y-11849518D01*
X13542751Y-11849518D02*
X13552274Y-11839994D01*
X13552274Y-11839994D02*
X13571322Y-11830470D01*
X13571322Y-11830470D02*
X13599893Y-11830470D01*
X13599893Y-11830470D02*
X13618941Y-11839994D01*
X13618941Y-11839994D02*
X13628465Y-11849518D01*
X13628465Y-11849518D02*
X13637989Y-11868566D01*
X13637989Y-11868566D02*
X13637989Y-11925708D01*
X13637989Y-11925708D02*
X13628465Y-11944756D01*
X13628465Y-11944756D02*
X13618941Y-11954280D01*
X13618941Y-11954280D02*
X13599893Y-11963804D01*
X13599893Y-11963804D02*
X13571322Y-11963804D01*
X13695132Y-11830470D02*
X13771322Y-11830470D01*
X13723703Y-11763804D02*
X13723703Y-11935232D01*
X13723703Y-11935232D02*
X13733227Y-11954280D01*
X13733227Y-11954280D02*
X13752274Y-11963804D01*
X13752274Y-11963804D02*
X13771322Y-11963804D01*
X13990370Y-11830470D02*
X13990370Y-12030470D01*
X13990370Y-11839994D02*
X14009417Y-11830470D01*
X14009417Y-11830470D02*
X14047513Y-11830470D01*
X14047513Y-11830470D02*
X14066560Y-11839994D01*
X14066560Y-11839994D02*
X14076084Y-11849518D01*
X14076084Y-11849518D02*
X14085608Y-11868566D01*
X14085608Y-11868566D02*
X14085608Y-11925708D01*
X14085608Y-11925708D02*
X14076084Y-11944756D01*
X14076084Y-11944756D02*
X14066560Y-11954280D01*
X14066560Y-11954280D02*
X14047513Y-11963804D01*
X14047513Y-11963804D02*
X14009417Y-11963804D01*
X14009417Y-11963804D02*
X13990370Y-11954280D01*
X14199893Y-11963804D02*
X14180846Y-11954280D01*
X14180846Y-11954280D02*
X14171322Y-11935232D01*
X14171322Y-11935232D02*
X14171322Y-11763804D01*
X14361798Y-11963804D02*
X14361798Y-11859042D01*
X14361798Y-11859042D02*
X14352274Y-11839994D01*
X14352274Y-11839994D02*
X14333227Y-11830470D01*
X14333227Y-11830470D02*
X14295132Y-11830470D01*
X14295132Y-11830470D02*
X14276084Y-11839994D01*
X14361798Y-11954280D02*
X14342751Y-11963804D01*
X14342751Y-11963804D02*
X14295132Y-11963804D01*
X14295132Y-11963804D02*
X14276084Y-11954280D01*
X14276084Y-11954280D02*
X14266560Y-11935232D01*
X14266560Y-11935232D02*
X14266560Y-11916185D01*
X14266560Y-11916185D02*
X14276084Y-11897137D01*
X14276084Y-11897137D02*
X14295132Y-11887613D01*
X14295132Y-11887613D02*
X14342751Y-11887613D01*
X14342751Y-11887613D02*
X14361798Y-11878089D01*
X14428465Y-11830470D02*
X14504655Y-11830470D01*
X14457036Y-11763804D02*
X14457036Y-11935232D01*
X14457036Y-11935232D02*
X14466560Y-11954280D01*
X14466560Y-11954280D02*
X14485608Y-11963804D01*
X14485608Y-11963804D02*
X14504655Y-11963804D01*
X14647513Y-11954280D02*
X14628465Y-11963804D01*
X14628465Y-11963804D02*
X14590370Y-11963804D01*
X14590370Y-11963804D02*
X14571322Y-11954280D01*
X14571322Y-11954280D02*
X14561798Y-11935232D01*
X14561798Y-11935232D02*
X14561798Y-11859042D01*
X14561798Y-11859042D02*
X14571322Y-11839994D01*
X14571322Y-11839994D02*
X14590370Y-11830470D01*
X14590370Y-11830470D02*
X14628465Y-11830470D01*
X14628465Y-11830470D02*
X14647513Y-11839994D01*
X14647513Y-11839994D02*
X14657036Y-11859042D01*
X14657036Y-11859042D02*
X14657036Y-11878089D01*
X14657036Y-11878089D02*
X14561798Y-11897137D01*
X14828465Y-11963804D02*
X14828465Y-11763804D01*
X14828465Y-11954280D02*
X14809417Y-11963804D01*
X14809417Y-11963804D02*
X14771322Y-11963804D01*
X14771322Y-11963804D02*
X14752274Y-11954280D01*
X14752274Y-11954280D02*
X14742751Y-11944756D01*
X14742751Y-11944756D02*
X14733227Y-11925708D01*
X14733227Y-11925708D02*
X14733227Y-11868566D01*
X14733227Y-11868566D02*
X14742751Y-11849518D01*
X14742751Y-11849518D02*
X14752274Y-11839994D01*
X14752274Y-11839994D02*
X14771322Y-11830470D01*
X14771322Y-11830470D02*
X14809417Y-11830470D01*
X14809417Y-11830470D02*
X14828465Y-11839994D01*
X14904655Y-12039994D02*
X14914179Y-12030470D01*
X14914179Y-12030470D02*
X14933227Y-12001899D01*
X14933227Y-12001899D02*
X14942751Y-11982851D01*
X14942751Y-11982851D02*
X14952274Y-11954280D01*
X14952274Y-11954280D02*
X14961798Y-11906661D01*
X14961798Y-11906661D02*
X14961798Y-11868566D01*
X14961798Y-11868566D02*
X14952274Y-11820947D01*
X14952274Y-11820947D02*
X14942751Y-11792375D01*
X14942751Y-11792375D02*
X14933227Y-11773328D01*
X14933227Y-11773328D02*
X14914179Y-11744756D01*
X14914179Y-11744756D02*
X14904655Y-11735232D01*
M02*
