%TF.GenerationSoftware,KiCad,Pcbnew,8.0.3*%
%TF.CreationDate,2025-02-02T18:29:45-08:00*%
%TF.ProjectId,Power_Distribution,506f7765-725f-4446-9973-747269627574,rev?*%
%TF.SameCoordinates,Original*%
%TF.FileFunction,Legend,Top*%
%TF.FilePolarity,Positive*%
%FSLAX46Y46*%
G04 Gerber Fmt 4.6, Leading zero omitted, Abs format (unit mm)*
G04 Created by KiCad (PCBNEW 8.0.3) date 2025-02-02 18:29:45*
%MOMM*%
%LPD*%
G01*
G04 APERTURE LIST*
%ADD10C,0.150000*%
%ADD11C,0.254000*%
%ADD12C,0.200000*%
%ADD13C,0.100000*%
%ADD14C,0.120000*%
%ADD15C,0.127000*%
G04 APERTURE END LIST*
D10*
X197659029Y-95414425D02*
X198420933Y-95414425D01*
X198420934Y-95414425D02*
X199182838Y-95414425D01*
X201182839Y-95652520D02*
X201182839Y-94223948D01*
X201659030Y-95414425D02*
X202420934Y-95414425D01*
X202420935Y-95414425D02*
X203182839Y-95414425D01*
X196135219Y-97024369D02*
X196897123Y-97024369D01*
X196897124Y-97024369D02*
X197659028Y-97024369D01*
X198373314Y-96929131D02*
X197897124Y-96929131D01*
X197897124Y-96929131D02*
X197897124Y-95929131D01*
X199944743Y-96929131D02*
X199468553Y-96929131D01*
X199468553Y-96929131D02*
X199468553Y-95929131D01*
X200039982Y-97024369D02*
X200801886Y-97024369D01*
X201278077Y-97262464D02*
X201278077Y-95833892D01*
X202468553Y-96929131D02*
X201992363Y-96929131D01*
X201992363Y-96929131D02*
X201992363Y-95929131D01*
X204039982Y-96929131D02*
X203563792Y-96929131D01*
X203563792Y-96929131D02*
X203563792Y-95929131D01*
X204135221Y-97024369D02*
X204897125Y-97024369D01*
X204897126Y-97024369D02*
X205659030Y-97024369D01*
X191801884Y-98443836D02*
X191849503Y-98491456D01*
X191849503Y-98491456D02*
X191801884Y-98539075D01*
X191801884Y-98539075D02*
X191754265Y-98491456D01*
X191754265Y-98491456D02*
X191801884Y-98443836D01*
X191801884Y-98443836D02*
X191801884Y-98539075D01*
X192278074Y-98443836D02*
X192325693Y-98491456D01*
X192325693Y-98491456D02*
X192278074Y-98539075D01*
X192278074Y-98539075D02*
X192230455Y-98491456D01*
X192230455Y-98491456D02*
X192278074Y-98443836D01*
X192278074Y-98443836D02*
X192278074Y-98539075D01*
X192754264Y-98443836D02*
X192801883Y-98491456D01*
X192801883Y-98491456D02*
X192754264Y-98539075D01*
X192754264Y-98539075D02*
X192706645Y-98491456D01*
X192706645Y-98491456D02*
X192754264Y-98443836D01*
X192754264Y-98443836D02*
X192754264Y-98539075D01*
X193516168Y-98872408D02*
X193278073Y-98872408D01*
X193278073Y-98872408D02*
X193278073Y-97443836D01*
X193278073Y-97443836D02*
X193516168Y-97443836D01*
X193897121Y-98158122D02*
X194659026Y-98158122D01*
X194278073Y-98539075D02*
X194278073Y-97777170D01*
X195420930Y-98920027D02*
X195373311Y-98872408D01*
X195373311Y-98872408D02*
X195278073Y-98729551D01*
X195278073Y-98729551D02*
X195230454Y-98634313D01*
X195230454Y-98634313D02*
X195182835Y-98491456D01*
X195182835Y-98491456D02*
X195135216Y-98253360D01*
X195135216Y-98253360D02*
X195135216Y-98062884D01*
X195135216Y-98062884D02*
X195182835Y-97824789D01*
X195182835Y-97824789D02*
X195230454Y-97681932D01*
X195230454Y-97681932D02*
X195278073Y-97586694D01*
X195278073Y-97586694D02*
X195373311Y-97443836D01*
X195373311Y-97443836D02*
X195420930Y-97396217D01*
X195563788Y-98634313D02*
X196325692Y-98634313D01*
X196325693Y-98634313D02*
X197087597Y-98634313D01*
X197087598Y-98634313D02*
X197849502Y-98634313D01*
X197849503Y-98634313D02*
X198611407Y-98634313D01*
X198611408Y-98634313D02*
X199373312Y-98634313D01*
X199373313Y-98634313D02*
X200135217Y-98634313D01*
X200135218Y-98634313D02*
X200897122Y-98634313D01*
X200897123Y-98634313D02*
X201659027Y-98634313D01*
X201659028Y-98634313D02*
X202420932Y-98634313D01*
X202420933Y-98634313D02*
X203182837Y-98634313D01*
X203182838Y-98634313D02*
X203944742Y-98634313D01*
X203944743Y-98634313D02*
X204706647Y-98634313D01*
X204849505Y-98920027D02*
X204897124Y-98872408D01*
X204897124Y-98872408D02*
X204992362Y-98729551D01*
X204992362Y-98729551D02*
X205039981Y-98634313D01*
X205039981Y-98634313D02*
X205087600Y-98491456D01*
X205087600Y-98491456D02*
X205135219Y-98253360D01*
X205135219Y-98253360D02*
X205135219Y-98062884D01*
X205135219Y-98062884D02*
X205087600Y-97824789D01*
X205087600Y-97824789D02*
X205039981Y-97681932D01*
X205039981Y-97681932D02*
X204992362Y-97586694D01*
X204992362Y-97586694D02*
X204897124Y-97443836D01*
X204897124Y-97443836D02*
X204849505Y-97396217D01*
X197706647Y-100053780D02*
X197659028Y-100101400D01*
X197659028Y-100101400D02*
X197516171Y-100149019D01*
X197516171Y-100149019D02*
X197420933Y-100149019D01*
X197420933Y-100149019D02*
X197278076Y-100101400D01*
X197278076Y-100101400D02*
X197182838Y-100006161D01*
X197182838Y-100006161D02*
X197135219Y-99910923D01*
X197135219Y-99910923D02*
X197087600Y-99720447D01*
X197087600Y-99720447D02*
X197087600Y-99577590D01*
X197087600Y-99577590D02*
X197135219Y-99387114D01*
X197135219Y-99387114D02*
X197182838Y-99291876D01*
X197182838Y-99291876D02*
X197278076Y-99196638D01*
X197278076Y-99196638D02*
X197420933Y-99149019D01*
X197420933Y-99149019D02*
X197516171Y-99149019D01*
X197516171Y-99149019D02*
X197659028Y-99196638D01*
X197659028Y-99196638D02*
X197706647Y-99244257D01*
X197897124Y-100244257D02*
X198659028Y-100244257D01*
X198659029Y-100244257D02*
X199420933Y-100244257D01*
X199420934Y-100244257D02*
X200182838Y-100244257D01*
X200182839Y-100244257D02*
X200944743Y-100244257D01*
X200944744Y-100244257D02*
X201706648Y-100244257D01*
X201706649Y-100244257D02*
X202468553Y-100244257D01*
X202468554Y-100244257D02*
X203230458Y-100244257D01*
X203230459Y-100244257D02*
X203992363Y-100244257D01*
X203992364Y-100244257D02*
X204754268Y-100244257D01*
X205706649Y-99101400D02*
X204849507Y-100387114D01*
X158277160Y-95119168D02*
X158420017Y-95166787D01*
X158420017Y-95166787D02*
X158658112Y-95166787D01*
X158658112Y-95166787D02*
X158753350Y-95119168D01*
X158753350Y-95119168D02*
X158800969Y-95071548D01*
X158800969Y-95071548D02*
X158848588Y-94976310D01*
X158848588Y-94976310D02*
X158848588Y-94881072D01*
X158848588Y-94881072D02*
X158800969Y-94785834D01*
X158800969Y-94785834D02*
X158753350Y-94738215D01*
X158753350Y-94738215D02*
X158658112Y-94690596D01*
X158658112Y-94690596D02*
X158467636Y-94642977D01*
X158467636Y-94642977D02*
X158372398Y-94595358D01*
X158372398Y-94595358D02*
X158324779Y-94547739D01*
X158324779Y-94547739D02*
X158277160Y-94452501D01*
X158277160Y-94452501D02*
X158277160Y-94357263D01*
X158277160Y-94357263D02*
X158324779Y-94262025D01*
X158324779Y-94262025D02*
X158372398Y-94214406D01*
X158372398Y-94214406D02*
X158467636Y-94166787D01*
X158467636Y-94166787D02*
X158705731Y-94166787D01*
X158705731Y-94166787D02*
X158848588Y-94214406D01*
X159134303Y-94500120D02*
X159515255Y-94500120D01*
X159277160Y-94166787D02*
X159277160Y-95023929D01*
X159277160Y-95023929D02*
X159324779Y-95119168D01*
X159324779Y-95119168D02*
X159420017Y-95166787D01*
X159420017Y-95166787D02*
X159515255Y-95166787D01*
X160277160Y-95166787D02*
X160277160Y-94642977D01*
X160277160Y-94642977D02*
X160229541Y-94547739D01*
X160229541Y-94547739D02*
X160134303Y-94500120D01*
X160134303Y-94500120D02*
X159943827Y-94500120D01*
X159943827Y-94500120D02*
X159848589Y-94547739D01*
X160277160Y-95119168D02*
X160181922Y-95166787D01*
X160181922Y-95166787D02*
X159943827Y-95166787D01*
X159943827Y-95166787D02*
X159848589Y-95119168D01*
X159848589Y-95119168D02*
X159800970Y-95023929D01*
X159800970Y-95023929D02*
X159800970Y-94928691D01*
X159800970Y-94928691D02*
X159848589Y-94833453D01*
X159848589Y-94833453D02*
X159943827Y-94785834D01*
X159943827Y-94785834D02*
X160181922Y-94785834D01*
X160181922Y-94785834D02*
X160277160Y-94738215D01*
X160753351Y-94500120D02*
X160753351Y-95166787D01*
X160753351Y-94595358D02*
X160800970Y-94547739D01*
X160800970Y-94547739D02*
X160896208Y-94500120D01*
X160896208Y-94500120D02*
X161039065Y-94500120D01*
X161039065Y-94500120D02*
X161134303Y-94547739D01*
X161134303Y-94547739D02*
X161181922Y-94642977D01*
X161181922Y-94642977D02*
X161181922Y-95166787D01*
X161515256Y-94500120D02*
X161896208Y-94500120D01*
X161658113Y-95166787D02*
X161658113Y-94309644D01*
X161658113Y-94309644D02*
X161705732Y-94214406D01*
X161705732Y-94214406D02*
X161800970Y-94166787D01*
X161800970Y-94166787D02*
X161896208Y-94166787D01*
X162372399Y-95166787D02*
X162277161Y-95119168D01*
X162277161Y-95119168D02*
X162229542Y-95071548D01*
X162229542Y-95071548D02*
X162181923Y-94976310D01*
X162181923Y-94976310D02*
X162181923Y-94690596D01*
X162181923Y-94690596D02*
X162229542Y-94595358D01*
X162229542Y-94595358D02*
X162277161Y-94547739D01*
X162277161Y-94547739D02*
X162372399Y-94500120D01*
X162372399Y-94500120D02*
X162515256Y-94500120D01*
X162515256Y-94500120D02*
X162610494Y-94547739D01*
X162610494Y-94547739D02*
X162658113Y-94595358D01*
X162658113Y-94595358D02*
X162705732Y-94690596D01*
X162705732Y-94690596D02*
X162705732Y-94976310D01*
X162705732Y-94976310D02*
X162658113Y-95071548D01*
X162658113Y-95071548D02*
X162610494Y-95119168D01*
X162610494Y-95119168D02*
X162515256Y-95166787D01*
X162515256Y-95166787D02*
X162372399Y-95166787D01*
X163134304Y-95166787D02*
X163134304Y-94500120D01*
X163134304Y-94690596D02*
X163181923Y-94595358D01*
X163181923Y-94595358D02*
X163229542Y-94547739D01*
X163229542Y-94547739D02*
X163324780Y-94500120D01*
X163324780Y-94500120D02*
X163420018Y-94500120D01*
X164181923Y-95166787D02*
X164181923Y-94166787D01*
X164181923Y-95119168D02*
X164086685Y-95166787D01*
X164086685Y-95166787D02*
X163896209Y-95166787D01*
X163896209Y-95166787D02*
X163800971Y-95119168D01*
X163800971Y-95119168D02*
X163753352Y-95071548D01*
X163753352Y-95071548D02*
X163705733Y-94976310D01*
X163705733Y-94976310D02*
X163705733Y-94690596D01*
X163705733Y-94690596D02*
X163753352Y-94595358D01*
X163753352Y-94595358D02*
X163800971Y-94547739D01*
X163800971Y-94547739D02*
X163896209Y-94500120D01*
X163896209Y-94500120D02*
X164086685Y-94500120D01*
X164086685Y-94500120D02*
X164181923Y-94547739D01*
X165991447Y-95166787D02*
X165658114Y-94690596D01*
X165420019Y-95166787D02*
X165420019Y-94166787D01*
X165420019Y-94166787D02*
X165800971Y-94166787D01*
X165800971Y-94166787D02*
X165896209Y-94214406D01*
X165896209Y-94214406D02*
X165943828Y-94262025D01*
X165943828Y-94262025D02*
X165991447Y-94357263D01*
X165991447Y-94357263D02*
X165991447Y-94500120D01*
X165991447Y-94500120D02*
X165943828Y-94595358D01*
X165943828Y-94595358D02*
X165896209Y-94642977D01*
X165896209Y-94642977D02*
X165800971Y-94690596D01*
X165800971Y-94690596D02*
X165420019Y-94690596D01*
X166562876Y-95166787D02*
X166467638Y-95119168D01*
X166467638Y-95119168D02*
X166420019Y-95071548D01*
X166420019Y-95071548D02*
X166372400Y-94976310D01*
X166372400Y-94976310D02*
X166372400Y-94690596D01*
X166372400Y-94690596D02*
X166420019Y-94595358D01*
X166420019Y-94595358D02*
X166467638Y-94547739D01*
X166467638Y-94547739D02*
X166562876Y-94500120D01*
X166562876Y-94500120D02*
X166705733Y-94500120D01*
X166705733Y-94500120D02*
X166800971Y-94547739D01*
X166800971Y-94547739D02*
X166848590Y-94595358D01*
X166848590Y-94595358D02*
X166896209Y-94690596D01*
X166896209Y-94690596D02*
X166896209Y-94976310D01*
X166896209Y-94976310D02*
X166848590Y-95071548D01*
X166848590Y-95071548D02*
X166800971Y-95119168D01*
X166800971Y-95119168D02*
X166705733Y-95166787D01*
X166705733Y-95166787D02*
X166562876Y-95166787D01*
X167324781Y-95166787D02*
X167324781Y-94166787D01*
X167324781Y-94547739D02*
X167420019Y-94500120D01*
X167420019Y-94500120D02*
X167610495Y-94500120D01*
X167610495Y-94500120D02*
X167705733Y-94547739D01*
X167705733Y-94547739D02*
X167753352Y-94595358D01*
X167753352Y-94595358D02*
X167800971Y-94690596D01*
X167800971Y-94690596D02*
X167800971Y-94976310D01*
X167800971Y-94976310D02*
X167753352Y-95071548D01*
X167753352Y-95071548D02*
X167705733Y-95119168D01*
X167705733Y-95119168D02*
X167610495Y-95166787D01*
X167610495Y-95166787D02*
X167420019Y-95166787D01*
X167420019Y-95166787D02*
X167324781Y-95119168D01*
X168372400Y-95166787D02*
X168277162Y-95119168D01*
X168277162Y-95119168D02*
X168229543Y-95071548D01*
X168229543Y-95071548D02*
X168181924Y-94976310D01*
X168181924Y-94976310D02*
X168181924Y-94690596D01*
X168181924Y-94690596D02*
X168229543Y-94595358D01*
X168229543Y-94595358D02*
X168277162Y-94547739D01*
X168277162Y-94547739D02*
X168372400Y-94500120D01*
X168372400Y-94500120D02*
X168515257Y-94500120D01*
X168515257Y-94500120D02*
X168610495Y-94547739D01*
X168610495Y-94547739D02*
X168658114Y-94595358D01*
X168658114Y-94595358D02*
X168705733Y-94690596D01*
X168705733Y-94690596D02*
X168705733Y-94976310D01*
X168705733Y-94976310D02*
X168658114Y-95071548D01*
X168658114Y-95071548D02*
X168610495Y-95119168D01*
X168610495Y-95119168D02*
X168515257Y-95166787D01*
X168515257Y-95166787D02*
X168372400Y-95166787D01*
X169086686Y-95119168D02*
X169181924Y-95166787D01*
X169181924Y-95166787D02*
X169372400Y-95166787D01*
X169372400Y-95166787D02*
X169467638Y-95119168D01*
X169467638Y-95119168D02*
X169515257Y-95023929D01*
X169515257Y-95023929D02*
X169515257Y-94976310D01*
X169515257Y-94976310D02*
X169467638Y-94881072D01*
X169467638Y-94881072D02*
X169372400Y-94833453D01*
X169372400Y-94833453D02*
X169229543Y-94833453D01*
X169229543Y-94833453D02*
X169134305Y-94785834D01*
X169134305Y-94785834D02*
X169086686Y-94690596D01*
X169086686Y-94690596D02*
X169086686Y-94642977D01*
X169086686Y-94642977D02*
X169134305Y-94547739D01*
X169134305Y-94547739D02*
X169229543Y-94500120D01*
X169229543Y-94500120D02*
X169372400Y-94500120D01*
X169372400Y-94500120D02*
X169467638Y-94547739D01*
X170372400Y-94500120D02*
X170372400Y-95166787D01*
X169943829Y-94500120D02*
X169943829Y-95023929D01*
X169943829Y-95023929D02*
X169991448Y-95119168D01*
X169991448Y-95119168D02*
X170086686Y-95166787D01*
X170086686Y-95166787D02*
X170229543Y-95166787D01*
X170229543Y-95166787D02*
X170324781Y-95119168D01*
X170324781Y-95119168D02*
X170372400Y-95071548D01*
X170848591Y-95166787D02*
X170848591Y-94166787D01*
X170848591Y-94547739D02*
X170943829Y-94500120D01*
X170943829Y-94500120D02*
X171134305Y-94500120D01*
X171134305Y-94500120D02*
X171229543Y-94547739D01*
X171229543Y-94547739D02*
X171277162Y-94595358D01*
X171277162Y-94595358D02*
X171324781Y-94690596D01*
X171324781Y-94690596D02*
X171324781Y-94976310D01*
X171324781Y-94976310D02*
X171277162Y-95071548D01*
X171277162Y-95071548D02*
X171229543Y-95119168D01*
X171229543Y-95119168D02*
X171134305Y-95166787D01*
X171134305Y-95166787D02*
X170943829Y-95166787D01*
X170943829Y-95166787D02*
X170848591Y-95119168D01*
X171800972Y-95119168D02*
X171800972Y-95166787D01*
X171800972Y-95166787D02*
X171753353Y-95262025D01*
X171753353Y-95262025D02*
X171705734Y-95309644D01*
X172848591Y-94166787D02*
X173420019Y-94166787D01*
X173134305Y-95166787D02*
X173134305Y-94166787D01*
X173753353Y-95166787D02*
X173753353Y-94166787D01*
X174181924Y-95166787D02*
X174181924Y-94642977D01*
X174181924Y-94642977D02*
X174134305Y-94547739D01*
X174134305Y-94547739D02*
X174039067Y-94500120D01*
X174039067Y-94500120D02*
X173896210Y-94500120D01*
X173896210Y-94500120D02*
X173800972Y-94547739D01*
X173800972Y-94547739D02*
X173753353Y-94595358D01*
X174658115Y-95166787D02*
X174658115Y-94500120D01*
X174658115Y-94690596D02*
X174705734Y-94595358D01*
X174705734Y-94595358D02*
X174753353Y-94547739D01*
X174753353Y-94547739D02*
X174848591Y-94500120D01*
X174848591Y-94500120D02*
X174943829Y-94500120D01*
X175705734Y-94500120D02*
X175705734Y-95166787D01*
X175277163Y-94500120D02*
X175277163Y-95023929D01*
X175277163Y-95023929D02*
X175324782Y-95119168D01*
X175324782Y-95119168D02*
X175420020Y-95166787D01*
X175420020Y-95166787D02*
X175562877Y-95166787D01*
X175562877Y-95166787D02*
X175658115Y-95119168D01*
X175658115Y-95119168D02*
X175705734Y-95071548D01*
X176134306Y-95119168D02*
X176229544Y-95166787D01*
X176229544Y-95166787D02*
X176420020Y-95166787D01*
X176420020Y-95166787D02*
X176515258Y-95119168D01*
X176515258Y-95119168D02*
X176562877Y-95023929D01*
X176562877Y-95023929D02*
X176562877Y-94976310D01*
X176562877Y-94976310D02*
X176515258Y-94881072D01*
X176515258Y-94881072D02*
X176420020Y-94833453D01*
X176420020Y-94833453D02*
X176277163Y-94833453D01*
X176277163Y-94833453D02*
X176181925Y-94785834D01*
X176181925Y-94785834D02*
X176134306Y-94690596D01*
X176134306Y-94690596D02*
X176134306Y-94642977D01*
X176134306Y-94642977D02*
X176181925Y-94547739D01*
X176181925Y-94547739D02*
X176277163Y-94500120D01*
X176277163Y-94500120D02*
X176420020Y-94500120D01*
X176420020Y-94500120D02*
X176515258Y-94547739D01*
X176848592Y-94500120D02*
X177229544Y-94500120D01*
X176991449Y-94166787D02*
X176991449Y-95023929D01*
X176991449Y-95023929D02*
X177039068Y-95119168D01*
X177039068Y-95119168D02*
X177134306Y-95166787D01*
X177134306Y-95166787D02*
X177229544Y-95166787D01*
X177943830Y-95119168D02*
X177848592Y-95166787D01*
X177848592Y-95166787D02*
X177658116Y-95166787D01*
X177658116Y-95166787D02*
X177562878Y-95119168D01*
X177562878Y-95119168D02*
X177515259Y-95023929D01*
X177515259Y-95023929D02*
X177515259Y-94642977D01*
X177515259Y-94642977D02*
X177562878Y-94547739D01*
X177562878Y-94547739D02*
X177658116Y-94500120D01*
X177658116Y-94500120D02*
X177848592Y-94500120D01*
X177848592Y-94500120D02*
X177943830Y-94547739D01*
X177943830Y-94547739D02*
X177991449Y-94642977D01*
X177991449Y-94642977D02*
X177991449Y-94738215D01*
X177991449Y-94738215D02*
X177515259Y-94833453D01*
X178420021Y-95166787D02*
X178420021Y-94500120D01*
X178420021Y-94690596D02*
X178467640Y-94595358D01*
X178467640Y-94595358D02*
X178515259Y-94547739D01*
X178515259Y-94547739D02*
X178610497Y-94500120D01*
X178610497Y-94500120D02*
X178705735Y-94500120D01*
X179800974Y-95166787D02*
X179800974Y-94166787D01*
X179800974Y-94166787D02*
X180181926Y-94166787D01*
X180181926Y-94166787D02*
X180277164Y-94214406D01*
X180277164Y-94214406D02*
X180324783Y-94262025D01*
X180324783Y-94262025D02*
X180372402Y-94357263D01*
X180372402Y-94357263D02*
X180372402Y-94500120D01*
X180372402Y-94500120D02*
X180324783Y-94595358D01*
X180324783Y-94595358D02*
X180277164Y-94642977D01*
X180277164Y-94642977D02*
X180181926Y-94690596D01*
X180181926Y-94690596D02*
X179800974Y-94690596D01*
X180943831Y-95166787D02*
X180848593Y-95119168D01*
X180848593Y-95119168D02*
X180800974Y-95071548D01*
X180800974Y-95071548D02*
X180753355Y-94976310D01*
X180753355Y-94976310D02*
X180753355Y-94690596D01*
X180753355Y-94690596D02*
X180800974Y-94595358D01*
X180800974Y-94595358D02*
X180848593Y-94547739D01*
X180848593Y-94547739D02*
X180943831Y-94500120D01*
X180943831Y-94500120D02*
X181086688Y-94500120D01*
X181086688Y-94500120D02*
X181181926Y-94547739D01*
X181181926Y-94547739D02*
X181229545Y-94595358D01*
X181229545Y-94595358D02*
X181277164Y-94690596D01*
X181277164Y-94690596D02*
X181277164Y-94976310D01*
X181277164Y-94976310D02*
X181229545Y-95071548D01*
X181229545Y-95071548D02*
X181181926Y-95119168D01*
X181181926Y-95119168D02*
X181086688Y-95166787D01*
X181086688Y-95166787D02*
X180943831Y-95166787D01*
X181610498Y-94500120D02*
X181800974Y-95166787D01*
X181800974Y-95166787D02*
X181991450Y-94690596D01*
X181991450Y-94690596D02*
X182181926Y-95166787D01*
X182181926Y-95166787D02*
X182372402Y-94500120D01*
X183134307Y-95119168D02*
X183039069Y-95166787D01*
X183039069Y-95166787D02*
X182848593Y-95166787D01*
X182848593Y-95166787D02*
X182753355Y-95119168D01*
X182753355Y-95119168D02*
X182705736Y-95023929D01*
X182705736Y-95023929D02*
X182705736Y-94642977D01*
X182705736Y-94642977D02*
X182753355Y-94547739D01*
X182753355Y-94547739D02*
X182848593Y-94500120D01*
X182848593Y-94500120D02*
X183039069Y-94500120D01*
X183039069Y-94500120D02*
X183134307Y-94547739D01*
X183134307Y-94547739D02*
X183181926Y-94642977D01*
X183181926Y-94642977D02*
X183181926Y-94738215D01*
X183181926Y-94738215D02*
X182705736Y-94833453D01*
X183610498Y-95166787D02*
X183610498Y-94500120D01*
X183610498Y-94690596D02*
X183658117Y-94595358D01*
X183658117Y-94595358D02*
X183705736Y-94547739D01*
X183705736Y-94547739D02*
X183800974Y-94500120D01*
X183800974Y-94500120D02*
X183896212Y-94500120D01*
X158277160Y-95776731D02*
X158277160Y-95967207D01*
X158658112Y-95776731D02*
X158658112Y-95967207D01*
X158943827Y-95776731D02*
X159515255Y-95776731D01*
X159229541Y-96776731D02*
X159229541Y-95776731D01*
X159848589Y-96776731D02*
X159848589Y-95776731D01*
X160277160Y-96776731D02*
X160277160Y-96252921D01*
X160277160Y-96252921D02*
X160229541Y-96157683D01*
X160229541Y-96157683D02*
X160134303Y-96110064D01*
X160134303Y-96110064D02*
X159991446Y-96110064D01*
X159991446Y-96110064D02*
X159896208Y-96157683D01*
X159896208Y-96157683D02*
X159848589Y-96205302D01*
X161134303Y-96729112D02*
X161039065Y-96776731D01*
X161039065Y-96776731D02*
X160848589Y-96776731D01*
X160848589Y-96776731D02*
X160753351Y-96729112D01*
X160753351Y-96729112D02*
X160705732Y-96633873D01*
X160705732Y-96633873D02*
X160705732Y-96252921D01*
X160705732Y-96252921D02*
X160753351Y-96157683D01*
X160753351Y-96157683D02*
X160848589Y-96110064D01*
X160848589Y-96110064D02*
X161039065Y-96110064D01*
X161039065Y-96110064D02*
X161134303Y-96157683D01*
X161134303Y-96157683D02*
X161181922Y-96252921D01*
X161181922Y-96252921D02*
X161181922Y-96348159D01*
X161181922Y-96348159D02*
X160705732Y-96443397D01*
X162324780Y-96729112D02*
X162420018Y-96776731D01*
X162420018Y-96776731D02*
X162610494Y-96776731D01*
X162610494Y-96776731D02*
X162705732Y-96729112D01*
X162705732Y-96729112D02*
X162753351Y-96633873D01*
X162753351Y-96633873D02*
X162753351Y-96586254D01*
X162753351Y-96586254D02*
X162705732Y-96491016D01*
X162705732Y-96491016D02*
X162610494Y-96443397D01*
X162610494Y-96443397D02*
X162467637Y-96443397D01*
X162467637Y-96443397D02*
X162372399Y-96395778D01*
X162372399Y-96395778D02*
X162324780Y-96300540D01*
X162324780Y-96300540D02*
X162324780Y-96252921D01*
X162324780Y-96252921D02*
X162372399Y-96157683D01*
X162372399Y-96157683D02*
X162467637Y-96110064D01*
X162467637Y-96110064D02*
X162610494Y-96110064D01*
X162610494Y-96110064D02*
X162705732Y-96157683D01*
X163562875Y-96729112D02*
X163467637Y-96776731D01*
X163467637Y-96776731D02*
X163277161Y-96776731D01*
X163277161Y-96776731D02*
X163181923Y-96729112D01*
X163181923Y-96729112D02*
X163134304Y-96633873D01*
X163134304Y-96633873D02*
X163134304Y-96252921D01*
X163134304Y-96252921D02*
X163181923Y-96157683D01*
X163181923Y-96157683D02*
X163277161Y-96110064D01*
X163277161Y-96110064D02*
X163467637Y-96110064D01*
X163467637Y-96110064D02*
X163562875Y-96157683D01*
X163562875Y-96157683D02*
X163610494Y-96252921D01*
X163610494Y-96252921D02*
X163610494Y-96348159D01*
X163610494Y-96348159D02*
X163134304Y-96443397D01*
X164467637Y-96776731D02*
X164467637Y-96252921D01*
X164467637Y-96252921D02*
X164420018Y-96157683D01*
X164420018Y-96157683D02*
X164324780Y-96110064D01*
X164324780Y-96110064D02*
X164134304Y-96110064D01*
X164134304Y-96110064D02*
X164039066Y-96157683D01*
X164467637Y-96729112D02*
X164372399Y-96776731D01*
X164372399Y-96776731D02*
X164134304Y-96776731D01*
X164134304Y-96776731D02*
X164039066Y-96729112D01*
X164039066Y-96729112D02*
X163991447Y-96633873D01*
X163991447Y-96633873D02*
X163991447Y-96538635D01*
X163991447Y-96538635D02*
X164039066Y-96443397D01*
X164039066Y-96443397D02*
X164134304Y-96395778D01*
X164134304Y-96395778D02*
X164372399Y-96395778D01*
X164372399Y-96395778D02*
X164467637Y-96348159D01*
X164991447Y-96729112D02*
X164991447Y-96776731D01*
X164991447Y-96776731D02*
X164943828Y-96871969D01*
X164943828Y-96871969D02*
X164896209Y-96919588D01*
X166324780Y-96776731D02*
X166229542Y-96729112D01*
X166229542Y-96729112D02*
X166181923Y-96681492D01*
X166181923Y-96681492D02*
X166134304Y-96586254D01*
X166134304Y-96586254D02*
X166134304Y-96300540D01*
X166134304Y-96300540D02*
X166181923Y-96205302D01*
X166181923Y-96205302D02*
X166229542Y-96157683D01*
X166229542Y-96157683D02*
X166324780Y-96110064D01*
X166324780Y-96110064D02*
X166467637Y-96110064D01*
X166467637Y-96110064D02*
X166562875Y-96157683D01*
X166562875Y-96157683D02*
X166610494Y-96205302D01*
X166610494Y-96205302D02*
X166658113Y-96300540D01*
X166658113Y-96300540D02*
X166658113Y-96586254D01*
X166658113Y-96586254D02*
X166610494Y-96681492D01*
X166610494Y-96681492D02*
X166562875Y-96729112D01*
X166562875Y-96729112D02*
X166467637Y-96776731D01*
X166467637Y-96776731D02*
X166324780Y-96776731D01*
X167086685Y-96110064D02*
X167086685Y-96776731D01*
X167086685Y-96205302D02*
X167134304Y-96157683D01*
X167134304Y-96157683D02*
X167229542Y-96110064D01*
X167229542Y-96110064D02*
X167372399Y-96110064D01*
X167372399Y-96110064D02*
X167467637Y-96157683D01*
X167467637Y-96157683D02*
X167515256Y-96252921D01*
X167515256Y-96252921D02*
X167515256Y-96776731D01*
X168420018Y-96729112D02*
X168324780Y-96776731D01*
X168324780Y-96776731D02*
X168134304Y-96776731D01*
X168134304Y-96776731D02*
X168039066Y-96729112D01*
X168039066Y-96729112D02*
X167991447Y-96681492D01*
X167991447Y-96681492D02*
X167943828Y-96586254D01*
X167943828Y-96586254D02*
X167943828Y-96300540D01*
X167943828Y-96300540D02*
X167991447Y-96205302D01*
X167991447Y-96205302D02*
X168039066Y-96157683D01*
X168039066Y-96157683D02*
X168134304Y-96110064D01*
X168134304Y-96110064D02*
X168324780Y-96110064D01*
X168324780Y-96110064D02*
X168420018Y-96157683D01*
X169229542Y-96729112D02*
X169134304Y-96776731D01*
X169134304Y-96776731D02*
X168943828Y-96776731D01*
X168943828Y-96776731D02*
X168848590Y-96729112D01*
X168848590Y-96729112D02*
X168800971Y-96633873D01*
X168800971Y-96633873D02*
X168800971Y-96252921D01*
X168800971Y-96252921D02*
X168848590Y-96157683D01*
X168848590Y-96157683D02*
X168943828Y-96110064D01*
X168943828Y-96110064D02*
X169134304Y-96110064D01*
X169134304Y-96110064D02*
X169229542Y-96157683D01*
X169229542Y-96157683D02*
X169277161Y-96252921D01*
X169277161Y-96252921D02*
X169277161Y-96348159D01*
X169277161Y-96348159D02*
X168800971Y-96443397D01*
X170467638Y-96776731D02*
X170467638Y-96110064D01*
X170467638Y-95776731D02*
X170420019Y-95824350D01*
X170420019Y-95824350D02*
X170467638Y-95871969D01*
X170467638Y-95871969D02*
X170515257Y-95824350D01*
X170515257Y-95824350D02*
X170467638Y-95776731D01*
X170467638Y-95776731D02*
X170467638Y-95871969D01*
X170800971Y-96110064D02*
X171181923Y-96110064D01*
X170943828Y-95776731D02*
X170943828Y-96633873D01*
X170943828Y-96633873D02*
X170991447Y-96729112D01*
X170991447Y-96729112D02*
X171086685Y-96776731D01*
X171086685Y-96776731D02*
X171181923Y-96776731D01*
X172705733Y-96729112D02*
X172610495Y-96776731D01*
X172610495Y-96776731D02*
X172420019Y-96776731D01*
X172420019Y-96776731D02*
X172324781Y-96729112D01*
X172324781Y-96729112D02*
X172277162Y-96681492D01*
X172277162Y-96681492D02*
X172229543Y-96586254D01*
X172229543Y-96586254D02*
X172229543Y-96300540D01*
X172229543Y-96300540D02*
X172277162Y-96205302D01*
X172277162Y-96205302D02*
X172324781Y-96157683D01*
X172324781Y-96157683D02*
X172420019Y-96110064D01*
X172420019Y-96110064D02*
X172610495Y-96110064D01*
X172610495Y-96110064D02*
X172705733Y-96157683D01*
X173562876Y-96776731D02*
X173562876Y-96252921D01*
X173562876Y-96252921D02*
X173515257Y-96157683D01*
X173515257Y-96157683D02*
X173420019Y-96110064D01*
X173420019Y-96110064D02*
X173229543Y-96110064D01*
X173229543Y-96110064D02*
X173134305Y-96157683D01*
X173562876Y-96729112D02*
X173467638Y-96776731D01*
X173467638Y-96776731D02*
X173229543Y-96776731D01*
X173229543Y-96776731D02*
X173134305Y-96729112D01*
X173134305Y-96729112D02*
X173086686Y-96633873D01*
X173086686Y-96633873D02*
X173086686Y-96538635D01*
X173086686Y-96538635D02*
X173134305Y-96443397D01*
X173134305Y-96443397D02*
X173229543Y-96395778D01*
X173229543Y-96395778D02*
X173467638Y-96395778D01*
X173467638Y-96395778D02*
X173562876Y-96348159D01*
X173991448Y-96729112D02*
X174086686Y-96776731D01*
X174086686Y-96776731D02*
X174277162Y-96776731D01*
X174277162Y-96776731D02*
X174372400Y-96729112D01*
X174372400Y-96729112D02*
X174420019Y-96633873D01*
X174420019Y-96633873D02*
X174420019Y-96586254D01*
X174420019Y-96586254D02*
X174372400Y-96491016D01*
X174372400Y-96491016D02*
X174277162Y-96443397D01*
X174277162Y-96443397D02*
X174134305Y-96443397D01*
X174134305Y-96443397D02*
X174039067Y-96395778D01*
X174039067Y-96395778D02*
X173991448Y-96300540D01*
X173991448Y-96300540D02*
X173991448Y-96252921D01*
X173991448Y-96252921D02*
X174039067Y-96157683D01*
X174039067Y-96157683D02*
X174134305Y-96110064D01*
X174134305Y-96110064D02*
X174277162Y-96110064D01*
X174277162Y-96110064D02*
X174372400Y-96157683D01*
X174705734Y-96110064D02*
X175086686Y-96110064D01*
X174848591Y-95776731D02*
X174848591Y-96633873D01*
X174848591Y-96633873D02*
X174896210Y-96729112D01*
X174896210Y-96729112D02*
X174991448Y-96776731D01*
X174991448Y-96776731D02*
X175086686Y-96776731D01*
X175372401Y-96729112D02*
X175467639Y-96776731D01*
X175467639Y-96776731D02*
X175658115Y-96776731D01*
X175658115Y-96776731D02*
X175753353Y-96729112D01*
X175753353Y-96729112D02*
X175800972Y-96633873D01*
X175800972Y-96633873D02*
X175800972Y-96586254D01*
X175800972Y-96586254D02*
X175753353Y-96491016D01*
X175753353Y-96491016D02*
X175658115Y-96443397D01*
X175658115Y-96443397D02*
X175515258Y-96443397D01*
X175515258Y-96443397D02*
X175420020Y-96395778D01*
X175420020Y-96395778D02*
X175372401Y-96300540D01*
X175372401Y-96300540D02*
X175372401Y-96252921D01*
X175372401Y-96252921D02*
X175420020Y-96157683D01*
X175420020Y-96157683D02*
X175515258Y-96110064D01*
X175515258Y-96110064D02*
X175658115Y-96110064D01*
X175658115Y-96110064D02*
X175753353Y-96157683D01*
X176991449Y-96776731D02*
X176991449Y-96110064D01*
X176991449Y-95776731D02*
X176943830Y-95824350D01*
X176943830Y-95824350D02*
X176991449Y-95871969D01*
X176991449Y-95871969D02*
X177039068Y-95824350D01*
X177039068Y-95824350D02*
X176991449Y-95776731D01*
X176991449Y-95776731D02*
X176991449Y-95871969D01*
X177324782Y-96110064D02*
X177705734Y-96110064D01*
X177467639Y-95776731D02*
X177467639Y-96633873D01*
X177467639Y-96633873D02*
X177515258Y-96729112D01*
X177515258Y-96729112D02*
X177610496Y-96776731D01*
X177610496Y-96776731D02*
X177705734Y-96776731D01*
X177991449Y-96729112D02*
X178086687Y-96776731D01*
X178086687Y-96776731D02*
X178277163Y-96776731D01*
X178277163Y-96776731D02*
X178372401Y-96729112D01*
X178372401Y-96729112D02*
X178420020Y-96633873D01*
X178420020Y-96633873D02*
X178420020Y-96586254D01*
X178420020Y-96586254D02*
X178372401Y-96491016D01*
X178372401Y-96491016D02*
X178277163Y-96443397D01*
X178277163Y-96443397D02*
X178134306Y-96443397D01*
X178134306Y-96443397D02*
X178039068Y-96395778D01*
X178039068Y-96395778D02*
X177991449Y-96300540D01*
X177991449Y-96300540D02*
X177991449Y-96252921D01*
X177991449Y-96252921D02*
X178039068Y-96157683D01*
X178039068Y-96157683D02*
X178134306Y-96110064D01*
X178134306Y-96110064D02*
X178277163Y-96110064D01*
X178277163Y-96110064D02*
X178372401Y-96157683D01*
X179562878Y-96729112D02*
X179658116Y-96776731D01*
X179658116Y-96776731D02*
X179848592Y-96776731D01*
X179848592Y-96776731D02*
X179943830Y-96729112D01*
X179943830Y-96729112D02*
X179991449Y-96633873D01*
X179991449Y-96633873D02*
X179991449Y-96586254D01*
X179991449Y-96586254D02*
X179943830Y-96491016D01*
X179943830Y-96491016D02*
X179848592Y-96443397D01*
X179848592Y-96443397D02*
X179705735Y-96443397D01*
X179705735Y-96443397D02*
X179610497Y-96395778D01*
X179610497Y-96395778D02*
X179562878Y-96300540D01*
X179562878Y-96300540D02*
X179562878Y-96252921D01*
X179562878Y-96252921D02*
X179610497Y-96157683D01*
X179610497Y-96157683D02*
X179705735Y-96110064D01*
X179705735Y-96110064D02*
X179848592Y-96110064D01*
X179848592Y-96110064D02*
X179943830Y-96157683D01*
X180420021Y-96110064D02*
X180420021Y-97110064D01*
X180420021Y-96157683D02*
X180515259Y-96110064D01*
X180515259Y-96110064D02*
X180705735Y-96110064D01*
X180705735Y-96110064D02*
X180800973Y-96157683D01*
X180800973Y-96157683D02*
X180848592Y-96205302D01*
X180848592Y-96205302D02*
X180896211Y-96300540D01*
X180896211Y-96300540D02*
X180896211Y-96586254D01*
X180896211Y-96586254D02*
X180848592Y-96681492D01*
X180848592Y-96681492D02*
X180800973Y-96729112D01*
X180800973Y-96729112D02*
X180705735Y-96776731D01*
X180705735Y-96776731D02*
X180515259Y-96776731D01*
X180515259Y-96776731D02*
X180420021Y-96729112D01*
X181705735Y-96729112D02*
X181610497Y-96776731D01*
X181610497Y-96776731D02*
X181420021Y-96776731D01*
X181420021Y-96776731D02*
X181324783Y-96729112D01*
X181324783Y-96729112D02*
X181277164Y-96633873D01*
X181277164Y-96633873D02*
X181277164Y-96252921D01*
X181277164Y-96252921D02*
X181324783Y-96157683D01*
X181324783Y-96157683D02*
X181420021Y-96110064D01*
X181420021Y-96110064D02*
X181610497Y-96110064D01*
X181610497Y-96110064D02*
X181705735Y-96157683D01*
X181705735Y-96157683D02*
X181753354Y-96252921D01*
X181753354Y-96252921D02*
X181753354Y-96348159D01*
X181753354Y-96348159D02*
X181277164Y-96443397D01*
X182324783Y-96776731D02*
X182229545Y-96729112D01*
X182229545Y-96729112D02*
X182181926Y-96633873D01*
X182181926Y-96633873D02*
X182181926Y-95776731D01*
X182848593Y-96776731D02*
X182753355Y-96729112D01*
X182753355Y-96729112D02*
X182705736Y-96633873D01*
X182705736Y-96633873D02*
X182705736Y-95776731D01*
X183277165Y-96729112D02*
X183277165Y-96776731D01*
X183277165Y-96776731D02*
X183229546Y-96871969D01*
X183229546Y-96871969D02*
X183181927Y-96919588D01*
X158324779Y-98386675D02*
X158324779Y-97386675D01*
X158753350Y-98386675D02*
X158753350Y-97862865D01*
X158753350Y-97862865D02*
X158705731Y-97767627D01*
X158705731Y-97767627D02*
X158610493Y-97720008D01*
X158610493Y-97720008D02*
X158467636Y-97720008D01*
X158467636Y-97720008D02*
X158372398Y-97767627D01*
X158372398Y-97767627D02*
X158324779Y-97815246D01*
X159372398Y-98386675D02*
X159277160Y-98339056D01*
X159277160Y-98339056D02*
X159229541Y-98291436D01*
X159229541Y-98291436D02*
X159181922Y-98196198D01*
X159181922Y-98196198D02*
X159181922Y-97910484D01*
X159181922Y-97910484D02*
X159229541Y-97815246D01*
X159229541Y-97815246D02*
X159277160Y-97767627D01*
X159277160Y-97767627D02*
X159372398Y-97720008D01*
X159372398Y-97720008D02*
X159515255Y-97720008D01*
X159515255Y-97720008D02*
X159610493Y-97767627D01*
X159610493Y-97767627D02*
X159658112Y-97815246D01*
X159658112Y-97815246D02*
X159705731Y-97910484D01*
X159705731Y-97910484D02*
X159705731Y-98196198D01*
X159705731Y-98196198D02*
X159658112Y-98291436D01*
X159658112Y-98291436D02*
X159610493Y-98339056D01*
X159610493Y-98339056D02*
X159515255Y-98386675D01*
X159515255Y-98386675D02*
X159372398Y-98386675D01*
X160277160Y-98386675D02*
X160181922Y-98339056D01*
X160181922Y-98339056D02*
X160134303Y-98243817D01*
X160134303Y-98243817D02*
X160134303Y-97386675D01*
X161086684Y-98386675D02*
X161086684Y-97386675D01*
X161086684Y-98339056D02*
X160991446Y-98386675D01*
X160991446Y-98386675D02*
X160800970Y-98386675D01*
X160800970Y-98386675D02*
X160705732Y-98339056D01*
X160705732Y-98339056D02*
X160658113Y-98291436D01*
X160658113Y-98291436D02*
X160610494Y-98196198D01*
X160610494Y-98196198D02*
X160610494Y-97910484D01*
X160610494Y-97910484D02*
X160658113Y-97815246D01*
X160658113Y-97815246D02*
X160705732Y-97767627D01*
X160705732Y-97767627D02*
X160800970Y-97720008D01*
X160800970Y-97720008D02*
X160991446Y-97720008D01*
X160991446Y-97720008D02*
X161086684Y-97767627D01*
X161515256Y-98339056D02*
X161610494Y-98386675D01*
X161610494Y-98386675D02*
X161800970Y-98386675D01*
X161800970Y-98386675D02*
X161896208Y-98339056D01*
X161896208Y-98339056D02*
X161943827Y-98243817D01*
X161943827Y-98243817D02*
X161943827Y-98196198D01*
X161943827Y-98196198D02*
X161896208Y-98100960D01*
X161896208Y-98100960D02*
X161800970Y-98053341D01*
X161800970Y-98053341D02*
X161658113Y-98053341D01*
X161658113Y-98053341D02*
X161562875Y-98005722D01*
X161562875Y-98005722D02*
X161515256Y-97910484D01*
X161515256Y-97910484D02*
X161515256Y-97862865D01*
X161515256Y-97862865D02*
X161562875Y-97767627D01*
X161562875Y-97767627D02*
X161658113Y-97720008D01*
X161658113Y-97720008D02*
X161800970Y-97720008D01*
X161800970Y-97720008D02*
X161896208Y-97767627D01*
X163277161Y-98386675D02*
X163181923Y-98339056D01*
X163181923Y-98339056D02*
X163134304Y-98291436D01*
X163134304Y-98291436D02*
X163086685Y-98196198D01*
X163086685Y-98196198D02*
X163086685Y-97910484D01*
X163086685Y-97910484D02*
X163134304Y-97815246D01*
X163134304Y-97815246D02*
X163181923Y-97767627D01*
X163181923Y-97767627D02*
X163277161Y-97720008D01*
X163277161Y-97720008D02*
X163420018Y-97720008D01*
X163420018Y-97720008D02*
X163515256Y-97767627D01*
X163515256Y-97767627D02*
X163562875Y-97815246D01*
X163562875Y-97815246D02*
X163610494Y-97910484D01*
X163610494Y-97910484D02*
X163610494Y-98196198D01*
X163610494Y-98196198D02*
X163562875Y-98291436D01*
X163562875Y-98291436D02*
X163515256Y-98339056D01*
X163515256Y-98339056D02*
X163420018Y-98386675D01*
X163420018Y-98386675D02*
X163277161Y-98386675D01*
X164039066Y-97720008D02*
X164039066Y-98386675D01*
X164039066Y-97815246D02*
X164086685Y-97767627D01*
X164086685Y-97767627D02*
X164181923Y-97720008D01*
X164181923Y-97720008D02*
X164324780Y-97720008D01*
X164324780Y-97720008D02*
X164420018Y-97767627D01*
X164420018Y-97767627D02*
X164467637Y-97862865D01*
X164467637Y-97862865D02*
X164467637Y-98386675D01*
X165324780Y-98339056D02*
X165229542Y-98386675D01*
X165229542Y-98386675D02*
X165039066Y-98386675D01*
X165039066Y-98386675D02*
X164943828Y-98339056D01*
X164943828Y-98339056D02*
X164896209Y-98243817D01*
X164896209Y-98243817D02*
X164896209Y-97862865D01*
X164896209Y-97862865D02*
X164943828Y-97767627D01*
X164943828Y-97767627D02*
X165039066Y-97720008D01*
X165039066Y-97720008D02*
X165229542Y-97720008D01*
X165229542Y-97720008D02*
X165324780Y-97767627D01*
X165324780Y-97767627D02*
X165372399Y-97862865D01*
X165372399Y-97862865D02*
X165372399Y-97958103D01*
X165372399Y-97958103D02*
X164896209Y-98053341D01*
X166562876Y-98386675D02*
X166562876Y-97720008D01*
X166562876Y-97386675D02*
X166515257Y-97434294D01*
X166515257Y-97434294D02*
X166562876Y-97481913D01*
X166562876Y-97481913D02*
X166610495Y-97434294D01*
X166610495Y-97434294D02*
X166562876Y-97386675D01*
X166562876Y-97386675D02*
X166562876Y-97481913D01*
X167039066Y-97720008D02*
X167039066Y-98386675D01*
X167039066Y-97815246D02*
X167086685Y-97767627D01*
X167086685Y-97767627D02*
X167181923Y-97720008D01*
X167181923Y-97720008D02*
X167324780Y-97720008D01*
X167324780Y-97720008D02*
X167420018Y-97767627D01*
X167420018Y-97767627D02*
X167467637Y-97862865D01*
X167467637Y-97862865D02*
X167467637Y-98386675D01*
X168705733Y-98386675D02*
X168705733Y-97720008D01*
X168705733Y-97386675D02*
X168658114Y-97434294D01*
X168658114Y-97434294D02*
X168705733Y-97481913D01*
X168705733Y-97481913D02*
X168753352Y-97434294D01*
X168753352Y-97434294D02*
X168705733Y-97386675D01*
X168705733Y-97386675D02*
X168705733Y-97481913D01*
X169039066Y-97720008D02*
X169420018Y-97720008D01*
X169181923Y-97386675D02*
X169181923Y-98243817D01*
X169181923Y-98243817D02*
X169229542Y-98339056D01*
X169229542Y-98339056D02*
X169324780Y-98386675D01*
X169324780Y-98386675D02*
X169420018Y-98386675D01*
X169705733Y-98339056D02*
X169800971Y-98386675D01*
X169800971Y-98386675D02*
X169991447Y-98386675D01*
X169991447Y-98386675D02*
X170086685Y-98339056D01*
X170086685Y-98339056D02*
X170134304Y-98243817D01*
X170134304Y-98243817D02*
X170134304Y-98196198D01*
X170134304Y-98196198D02*
X170086685Y-98100960D01*
X170086685Y-98100960D02*
X169991447Y-98053341D01*
X169991447Y-98053341D02*
X169848590Y-98053341D01*
X169848590Y-98053341D02*
X169753352Y-98005722D01*
X169753352Y-98005722D02*
X169705733Y-97910484D01*
X169705733Y-97910484D02*
X169705733Y-97862865D01*
X169705733Y-97862865D02*
X169753352Y-97767627D01*
X169753352Y-97767627D02*
X169848590Y-97720008D01*
X169848590Y-97720008D02*
X169991447Y-97720008D01*
X169991447Y-97720008D02*
X170086685Y-97767627D01*
X171324781Y-97720008D02*
X171324781Y-98386675D01*
X171324781Y-97815246D02*
X171372400Y-97767627D01*
X171372400Y-97767627D02*
X171467638Y-97720008D01*
X171467638Y-97720008D02*
X171610495Y-97720008D01*
X171610495Y-97720008D02*
X171705733Y-97767627D01*
X171705733Y-97767627D02*
X171753352Y-97862865D01*
X171753352Y-97862865D02*
X171753352Y-98386675D01*
X172610495Y-98339056D02*
X172515257Y-98386675D01*
X172515257Y-98386675D02*
X172324781Y-98386675D01*
X172324781Y-98386675D02*
X172229543Y-98339056D01*
X172229543Y-98339056D02*
X172181924Y-98243817D01*
X172181924Y-98243817D02*
X172181924Y-97862865D01*
X172181924Y-97862865D02*
X172229543Y-97767627D01*
X172229543Y-97767627D02*
X172324781Y-97720008D01*
X172324781Y-97720008D02*
X172515257Y-97720008D01*
X172515257Y-97720008D02*
X172610495Y-97767627D01*
X172610495Y-97767627D02*
X172658114Y-97862865D01*
X172658114Y-97862865D02*
X172658114Y-97958103D01*
X172658114Y-97958103D02*
X172181924Y-98053341D01*
X172943829Y-97720008D02*
X173324781Y-97720008D01*
X173086686Y-97386675D02*
X173086686Y-98243817D01*
X173086686Y-98243817D02*
X173134305Y-98339056D01*
X173134305Y-98339056D02*
X173229543Y-98386675D01*
X173229543Y-98386675D02*
X173324781Y-98386675D01*
X174562877Y-98386675D02*
X174467639Y-98339056D01*
X174467639Y-98339056D02*
X174420020Y-98291436D01*
X174420020Y-98291436D02*
X174372401Y-98196198D01*
X174372401Y-98196198D02*
X174372401Y-97910484D01*
X174372401Y-97910484D02*
X174420020Y-97815246D01*
X174420020Y-97815246D02*
X174467639Y-97767627D01*
X174467639Y-97767627D02*
X174562877Y-97720008D01*
X174562877Y-97720008D02*
X174705734Y-97720008D01*
X174705734Y-97720008D02*
X174800972Y-97767627D01*
X174800972Y-97767627D02*
X174848591Y-97815246D01*
X174848591Y-97815246D02*
X174896210Y-97910484D01*
X174896210Y-97910484D02*
X174896210Y-98196198D01*
X174896210Y-98196198D02*
X174848591Y-98291436D01*
X174848591Y-98291436D02*
X174800972Y-98339056D01*
X174800972Y-98339056D02*
X174705734Y-98386675D01*
X174705734Y-98386675D02*
X174562877Y-98386675D01*
X175181925Y-97720008D02*
X175562877Y-97720008D01*
X175324782Y-98386675D02*
X175324782Y-97529532D01*
X175324782Y-97529532D02*
X175372401Y-97434294D01*
X175372401Y-97434294D02*
X175467639Y-97386675D01*
X175467639Y-97386675D02*
X175562877Y-97386675D01*
X176562878Y-97720008D02*
X176753354Y-98386675D01*
X176753354Y-98386675D02*
X176943830Y-97910484D01*
X176943830Y-97910484D02*
X177134306Y-98386675D01*
X177134306Y-98386675D02*
X177324782Y-97720008D01*
X177848592Y-98386675D02*
X177753354Y-98339056D01*
X177753354Y-98339056D02*
X177705735Y-98291436D01*
X177705735Y-98291436D02*
X177658116Y-98196198D01*
X177658116Y-98196198D02*
X177658116Y-97910484D01*
X177658116Y-97910484D02*
X177705735Y-97815246D01*
X177705735Y-97815246D02*
X177753354Y-97767627D01*
X177753354Y-97767627D02*
X177848592Y-97720008D01*
X177848592Y-97720008D02*
X177991449Y-97720008D01*
X177991449Y-97720008D02*
X178086687Y-97767627D01*
X178086687Y-97767627D02*
X178134306Y-97815246D01*
X178134306Y-97815246D02*
X178181925Y-97910484D01*
X178181925Y-97910484D02*
X178181925Y-98196198D01*
X178181925Y-98196198D02*
X178134306Y-98291436D01*
X178134306Y-98291436D02*
X178086687Y-98339056D01*
X178086687Y-98339056D02*
X177991449Y-98386675D01*
X177991449Y-98386675D02*
X177848592Y-98386675D01*
X178610497Y-97720008D02*
X178610497Y-98386675D01*
X178610497Y-97815246D02*
X178658116Y-97767627D01*
X178658116Y-97767627D02*
X178753354Y-97720008D01*
X178753354Y-97720008D02*
X178896211Y-97720008D01*
X178896211Y-97720008D02*
X178991449Y-97767627D01*
X178991449Y-97767627D02*
X179039068Y-97862865D01*
X179039068Y-97862865D02*
X179039068Y-98386675D01*
X179943830Y-98386675D02*
X179943830Y-97386675D01*
X179943830Y-98339056D02*
X179848592Y-98386675D01*
X179848592Y-98386675D02*
X179658116Y-98386675D01*
X179658116Y-98386675D02*
X179562878Y-98339056D01*
X179562878Y-98339056D02*
X179515259Y-98291436D01*
X179515259Y-98291436D02*
X179467640Y-98196198D01*
X179467640Y-98196198D02*
X179467640Y-97910484D01*
X179467640Y-97910484D02*
X179515259Y-97815246D01*
X179515259Y-97815246D02*
X179562878Y-97767627D01*
X179562878Y-97767627D02*
X179658116Y-97720008D01*
X179658116Y-97720008D02*
X179848592Y-97720008D01*
X179848592Y-97720008D02*
X179943830Y-97767627D01*
X180800973Y-98339056D02*
X180705735Y-98386675D01*
X180705735Y-98386675D02*
X180515259Y-98386675D01*
X180515259Y-98386675D02*
X180420021Y-98339056D01*
X180420021Y-98339056D02*
X180372402Y-98243817D01*
X180372402Y-98243817D02*
X180372402Y-97862865D01*
X180372402Y-97862865D02*
X180420021Y-97767627D01*
X180420021Y-97767627D02*
X180515259Y-97720008D01*
X180515259Y-97720008D02*
X180705735Y-97720008D01*
X180705735Y-97720008D02*
X180800973Y-97767627D01*
X180800973Y-97767627D02*
X180848592Y-97862865D01*
X180848592Y-97862865D02*
X180848592Y-97958103D01*
X180848592Y-97958103D02*
X180372402Y-98053341D01*
X181277164Y-98386675D02*
X181277164Y-97720008D01*
X181277164Y-97910484D02*
X181324783Y-97815246D01*
X181324783Y-97815246D02*
X181372402Y-97767627D01*
X181372402Y-97767627D02*
X181467640Y-97720008D01*
X181467640Y-97720008D02*
X181562878Y-97720008D01*
X182515260Y-97720008D02*
X182896212Y-97720008D01*
X182658117Y-98386675D02*
X182658117Y-97529532D01*
X182658117Y-97529532D02*
X182705736Y-97434294D01*
X182705736Y-97434294D02*
X182800974Y-97386675D01*
X182800974Y-97386675D02*
X182896212Y-97386675D01*
X183372403Y-98386675D02*
X183277165Y-98339056D01*
X183277165Y-98339056D02*
X183229546Y-98291436D01*
X183229546Y-98291436D02*
X183181927Y-98196198D01*
X183181927Y-98196198D02*
X183181927Y-97910484D01*
X183181927Y-97910484D02*
X183229546Y-97815246D01*
X183229546Y-97815246D02*
X183277165Y-97767627D01*
X183277165Y-97767627D02*
X183372403Y-97720008D01*
X183372403Y-97720008D02*
X183515260Y-97720008D01*
X183515260Y-97720008D02*
X183610498Y-97767627D01*
X183610498Y-97767627D02*
X183658117Y-97815246D01*
X183658117Y-97815246D02*
X183705736Y-97910484D01*
X183705736Y-97910484D02*
X183705736Y-98196198D01*
X183705736Y-98196198D02*
X183658117Y-98291436D01*
X183658117Y-98291436D02*
X183610498Y-98339056D01*
X183610498Y-98339056D02*
X183515260Y-98386675D01*
X183515260Y-98386675D02*
X183372403Y-98386675D01*
X184134308Y-98386675D02*
X184134308Y-97720008D01*
X184134308Y-97910484D02*
X184181927Y-97815246D01*
X184181927Y-97815246D02*
X184229546Y-97767627D01*
X184229546Y-97767627D02*
X184324784Y-97720008D01*
X184324784Y-97720008D02*
X184420022Y-97720008D01*
X185134308Y-98339056D02*
X185039070Y-98386675D01*
X185039070Y-98386675D02*
X184848594Y-98386675D01*
X184848594Y-98386675D02*
X184753356Y-98339056D01*
X184753356Y-98339056D02*
X184705737Y-98243817D01*
X184705737Y-98243817D02*
X184705737Y-97862865D01*
X184705737Y-97862865D02*
X184753356Y-97767627D01*
X184753356Y-97767627D02*
X184848594Y-97720008D01*
X184848594Y-97720008D02*
X185039070Y-97720008D01*
X185039070Y-97720008D02*
X185134308Y-97767627D01*
X185134308Y-97767627D02*
X185181927Y-97862865D01*
X185181927Y-97862865D02*
X185181927Y-97958103D01*
X185181927Y-97958103D02*
X184705737Y-98053341D01*
X185515261Y-97720008D02*
X185753356Y-98386675D01*
X185753356Y-98386675D02*
X185991451Y-97720008D01*
X186753356Y-98339056D02*
X186658118Y-98386675D01*
X186658118Y-98386675D02*
X186467642Y-98386675D01*
X186467642Y-98386675D02*
X186372404Y-98339056D01*
X186372404Y-98339056D02*
X186324785Y-98243817D01*
X186324785Y-98243817D02*
X186324785Y-97862865D01*
X186324785Y-97862865D02*
X186372404Y-97767627D01*
X186372404Y-97767627D02*
X186467642Y-97720008D01*
X186467642Y-97720008D02*
X186658118Y-97720008D01*
X186658118Y-97720008D02*
X186753356Y-97767627D01*
X186753356Y-97767627D02*
X186800975Y-97862865D01*
X186800975Y-97862865D02*
X186800975Y-97958103D01*
X186800975Y-97958103D02*
X186324785Y-98053341D01*
X187229547Y-98386675D02*
X187229547Y-97720008D01*
X187229547Y-97910484D02*
X187277166Y-97815246D01*
X187277166Y-97815246D02*
X187324785Y-97767627D01*
X187324785Y-97767627D02*
X187420023Y-97720008D01*
X187420023Y-97720008D02*
X187515261Y-97720008D01*
X187848595Y-98291436D02*
X187896214Y-98339056D01*
X187896214Y-98339056D02*
X187848595Y-98386675D01*
X187848595Y-98386675D02*
X187800976Y-98339056D01*
X187800976Y-98339056D02*
X187848595Y-98291436D01*
X187848595Y-98291436D02*
X187848595Y-98386675D01*
X188277166Y-97386675D02*
X188277166Y-97577151D01*
X188658118Y-97386675D02*
X188658118Y-97577151D01*
X158324779Y-99615666D02*
X159086684Y-99615666D01*
X160610493Y-98996619D02*
X160610493Y-99710904D01*
X160610493Y-99710904D02*
X160562874Y-99853761D01*
X160562874Y-99853761D02*
X160467636Y-99949000D01*
X160467636Y-99949000D02*
X160324779Y-99996619D01*
X160324779Y-99996619D02*
X160229541Y-99996619D01*
X161515255Y-99996619D02*
X161515255Y-99472809D01*
X161515255Y-99472809D02*
X161467636Y-99377571D01*
X161467636Y-99377571D02*
X161372398Y-99329952D01*
X161372398Y-99329952D02*
X161181922Y-99329952D01*
X161181922Y-99329952D02*
X161086684Y-99377571D01*
X161515255Y-99949000D02*
X161420017Y-99996619D01*
X161420017Y-99996619D02*
X161181922Y-99996619D01*
X161181922Y-99996619D02*
X161086684Y-99949000D01*
X161086684Y-99949000D02*
X161039065Y-99853761D01*
X161039065Y-99853761D02*
X161039065Y-99758523D01*
X161039065Y-99758523D02*
X161086684Y-99663285D01*
X161086684Y-99663285D02*
X161181922Y-99615666D01*
X161181922Y-99615666D02*
X161420017Y-99615666D01*
X161420017Y-99615666D02*
X161515255Y-99568047D01*
X162420017Y-99949000D02*
X162324779Y-99996619D01*
X162324779Y-99996619D02*
X162134303Y-99996619D01*
X162134303Y-99996619D02*
X162039065Y-99949000D01*
X162039065Y-99949000D02*
X161991446Y-99901380D01*
X161991446Y-99901380D02*
X161943827Y-99806142D01*
X161943827Y-99806142D02*
X161943827Y-99520428D01*
X161943827Y-99520428D02*
X161991446Y-99425190D01*
X161991446Y-99425190D02*
X162039065Y-99377571D01*
X162039065Y-99377571D02*
X162134303Y-99329952D01*
X162134303Y-99329952D02*
X162324779Y-99329952D01*
X162324779Y-99329952D02*
X162420017Y-99377571D01*
X163277160Y-99329952D02*
X163277160Y-100329952D01*
X163277160Y-99949000D02*
X163181922Y-99996619D01*
X163181922Y-99996619D02*
X162991446Y-99996619D01*
X162991446Y-99996619D02*
X162896208Y-99949000D01*
X162896208Y-99949000D02*
X162848589Y-99901380D01*
X162848589Y-99901380D02*
X162800970Y-99806142D01*
X162800970Y-99806142D02*
X162800970Y-99520428D01*
X162800970Y-99520428D02*
X162848589Y-99425190D01*
X162848589Y-99425190D02*
X162896208Y-99377571D01*
X162896208Y-99377571D02*
X162991446Y-99329952D01*
X162991446Y-99329952D02*
X163181922Y-99329952D01*
X163181922Y-99329952D02*
X163277160Y-99377571D01*
X164181922Y-99329952D02*
X164181922Y-99996619D01*
X163753351Y-99329952D02*
X163753351Y-99853761D01*
X163753351Y-99853761D02*
X163800970Y-99949000D01*
X163800970Y-99949000D02*
X163896208Y-99996619D01*
X163896208Y-99996619D02*
X164039065Y-99996619D01*
X164039065Y-99996619D02*
X164134303Y-99949000D01*
X164134303Y-99949000D02*
X164181922Y-99901380D01*
X165039065Y-99949000D02*
X164943827Y-99996619D01*
X164943827Y-99996619D02*
X164753351Y-99996619D01*
X164753351Y-99996619D02*
X164658113Y-99949000D01*
X164658113Y-99949000D02*
X164610494Y-99853761D01*
X164610494Y-99853761D02*
X164610494Y-99472809D01*
X164610494Y-99472809D02*
X164658113Y-99377571D01*
X164658113Y-99377571D02*
X164753351Y-99329952D01*
X164753351Y-99329952D02*
X164943827Y-99329952D01*
X164943827Y-99329952D02*
X165039065Y-99377571D01*
X165039065Y-99377571D02*
X165086684Y-99472809D01*
X165086684Y-99472809D02*
X165086684Y-99568047D01*
X165086684Y-99568047D02*
X164610494Y-99663285D01*
X165467637Y-99949000D02*
X165562875Y-99996619D01*
X165562875Y-99996619D02*
X165753351Y-99996619D01*
X165753351Y-99996619D02*
X165848589Y-99949000D01*
X165848589Y-99949000D02*
X165896208Y-99853761D01*
X165896208Y-99853761D02*
X165896208Y-99806142D01*
X165896208Y-99806142D02*
X165848589Y-99710904D01*
X165848589Y-99710904D02*
X165753351Y-99663285D01*
X165753351Y-99663285D02*
X165610494Y-99663285D01*
X165610494Y-99663285D02*
X165515256Y-99615666D01*
X165515256Y-99615666D02*
X165467637Y-99520428D01*
X165467637Y-99520428D02*
X165467637Y-99472809D01*
X165467637Y-99472809D02*
X165515256Y-99377571D01*
X165515256Y-99377571D02*
X165610494Y-99329952D01*
X165610494Y-99329952D02*
X165753351Y-99329952D01*
X165753351Y-99329952D02*
X165848589Y-99377571D01*
X167658113Y-99901380D02*
X167610494Y-99949000D01*
X167610494Y-99949000D02*
X167467637Y-99996619D01*
X167467637Y-99996619D02*
X167372399Y-99996619D01*
X167372399Y-99996619D02*
X167229542Y-99949000D01*
X167229542Y-99949000D02*
X167134304Y-99853761D01*
X167134304Y-99853761D02*
X167086685Y-99758523D01*
X167086685Y-99758523D02*
X167039066Y-99568047D01*
X167039066Y-99568047D02*
X167039066Y-99425190D01*
X167039066Y-99425190D02*
X167086685Y-99234714D01*
X167086685Y-99234714D02*
X167134304Y-99139476D01*
X167134304Y-99139476D02*
X167229542Y-99044238D01*
X167229542Y-99044238D02*
X167372399Y-98996619D01*
X167372399Y-98996619D02*
X167467637Y-98996619D01*
X167467637Y-98996619D02*
X167610494Y-99044238D01*
X167610494Y-99044238D02*
X167658113Y-99091857D01*
X168229542Y-99996619D02*
X168134304Y-99949000D01*
X168134304Y-99949000D02*
X168086685Y-99901380D01*
X168086685Y-99901380D02*
X168039066Y-99806142D01*
X168039066Y-99806142D02*
X168039066Y-99520428D01*
X168039066Y-99520428D02*
X168086685Y-99425190D01*
X168086685Y-99425190D02*
X168134304Y-99377571D01*
X168134304Y-99377571D02*
X168229542Y-99329952D01*
X168229542Y-99329952D02*
X168372399Y-99329952D01*
X168372399Y-99329952D02*
X168467637Y-99377571D01*
X168467637Y-99377571D02*
X168515256Y-99425190D01*
X168515256Y-99425190D02*
X168562875Y-99520428D01*
X168562875Y-99520428D02*
X168562875Y-99806142D01*
X168562875Y-99806142D02*
X168515256Y-99901380D01*
X168515256Y-99901380D02*
X168467637Y-99949000D01*
X168467637Y-99949000D02*
X168372399Y-99996619D01*
X168372399Y-99996619D02*
X168229542Y-99996619D01*
X169420018Y-99329952D02*
X169420018Y-99996619D01*
X168991447Y-99329952D02*
X168991447Y-99853761D01*
X168991447Y-99853761D02*
X169039066Y-99949000D01*
X169039066Y-99949000D02*
X169134304Y-99996619D01*
X169134304Y-99996619D02*
X169277161Y-99996619D01*
X169277161Y-99996619D02*
X169372399Y-99949000D01*
X169372399Y-99949000D02*
X169420018Y-99901380D01*
X169848590Y-99949000D02*
X169943828Y-99996619D01*
X169943828Y-99996619D02*
X170134304Y-99996619D01*
X170134304Y-99996619D02*
X170229542Y-99949000D01*
X170229542Y-99949000D02*
X170277161Y-99853761D01*
X170277161Y-99853761D02*
X170277161Y-99806142D01*
X170277161Y-99806142D02*
X170229542Y-99710904D01*
X170229542Y-99710904D02*
X170134304Y-99663285D01*
X170134304Y-99663285D02*
X169991447Y-99663285D01*
X169991447Y-99663285D02*
X169896209Y-99615666D01*
X169896209Y-99615666D02*
X169848590Y-99520428D01*
X169848590Y-99520428D02*
X169848590Y-99472809D01*
X169848590Y-99472809D02*
X169896209Y-99377571D01*
X169896209Y-99377571D02*
X169991447Y-99329952D01*
X169991447Y-99329952D02*
X170134304Y-99329952D01*
X170134304Y-99329952D02*
X170229542Y-99377571D01*
X170562876Y-99329952D02*
X170943828Y-99329952D01*
X170705733Y-98996619D02*
X170705733Y-99853761D01*
X170705733Y-99853761D02*
X170753352Y-99949000D01*
X170753352Y-99949000D02*
X170848590Y-99996619D01*
X170848590Y-99996619D02*
X170943828Y-99996619D01*
X171658114Y-99949000D02*
X171562876Y-99996619D01*
X171562876Y-99996619D02*
X171372400Y-99996619D01*
X171372400Y-99996619D02*
X171277162Y-99949000D01*
X171277162Y-99949000D02*
X171229543Y-99853761D01*
X171229543Y-99853761D02*
X171229543Y-99472809D01*
X171229543Y-99472809D02*
X171277162Y-99377571D01*
X171277162Y-99377571D02*
X171372400Y-99329952D01*
X171372400Y-99329952D02*
X171562876Y-99329952D01*
X171562876Y-99329952D02*
X171658114Y-99377571D01*
X171658114Y-99377571D02*
X171705733Y-99472809D01*
X171705733Y-99472809D02*
X171705733Y-99568047D01*
X171705733Y-99568047D02*
X171229543Y-99663285D01*
X172562876Y-99996619D02*
X172562876Y-99472809D01*
X172562876Y-99472809D02*
X172515257Y-99377571D01*
X172515257Y-99377571D02*
X172420019Y-99329952D01*
X172420019Y-99329952D02*
X172229543Y-99329952D01*
X172229543Y-99329952D02*
X172134305Y-99377571D01*
X172562876Y-99949000D02*
X172467638Y-99996619D01*
X172467638Y-99996619D02*
X172229543Y-99996619D01*
X172229543Y-99996619D02*
X172134305Y-99949000D01*
X172134305Y-99949000D02*
X172086686Y-99853761D01*
X172086686Y-99853761D02*
X172086686Y-99758523D01*
X172086686Y-99758523D02*
X172134305Y-99663285D01*
X172134305Y-99663285D02*
X172229543Y-99615666D01*
X172229543Y-99615666D02*
X172467638Y-99615666D01*
X172467638Y-99615666D02*
X172562876Y-99568047D01*
X173467638Y-99329952D02*
X173467638Y-99996619D01*
X173039067Y-99329952D02*
X173039067Y-99853761D01*
X173039067Y-99853761D02*
X173086686Y-99949000D01*
X173086686Y-99949000D02*
X173181924Y-99996619D01*
X173181924Y-99996619D02*
X173324781Y-99996619D01*
X173324781Y-99996619D02*
X173420019Y-99949000D01*
X173420019Y-99949000D02*
X173467638Y-99901380D01*
X193008020Y-90401780D02*
X193008020Y-91401780D01*
X193008020Y-91401780D02*
X192627068Y-91401780D01*
X192627068Y-91401780D02*
X192531830Y-91354161D01*
X192531830Y-91354161D02*
X192484211Y-91306542D01*
X192484211Y-91306542D02*
X192436592Y-91211304D01*
X192436592Y-91211304D02*
X192436592Y-91068447D01*
X192436592Y-91068447D02*
X192484211Y-90973209D01*
X192484211Y-90973209D02*
X192531830Y-90925590D01*
X192531830Y-90925590D02*
X192627068Y-90877971D01*
X192627068Y-90877971D02*
X193008020Y-90877971D01*
X192103258Y-91401780D02*
X191865163Y-90401780D01*
X191865163Y-90401780D02*
X191674687Y-91116066D01*
X191674687Y-91116066D02*
X191484211Y-90401780D01*
X191484211Y-90401780D02*
X191246116Y-91401780D01*
X190293735Y-90401780D02*
X190627068Y-90877971D01*
X190865163Y-90401780D02*
X190865163Y-91401780D01*
X190865163Y-91401780D02*
X190484211Y-91401780D01*
X190484211Y-91401780D02*
X190388973Y-91354161D01*
X190388973Y-91354161D02*
X190341354Y-91306542D01*
X190341354Y-91306542D02*
X190293735Y-91211304D01*
X190293735Y-91211304D02*
X190293735Y-91068447D01*
X190293735Y-91068447D02*
X190341354Y-90973209D01*
X190341354Y-90973209D02*
X190388973Y-90925590D01*
X190388973Y-90925590D02*
X190484211Y-90877971D01*
X190484211Y-90877971D02*
X190865163Y-90877971D01*
X189912782Y-91306542D02*
X189865163Y-91354161D01*
X189865163Y-91354161D02*
X189769925Y-91401780D01*
X189769925Y-91401780D02*
X189531830Y-91401780D01*
X189531830Y-91401780D02*
X189436592Y-91354161D01*
X189436592Y-91354161D02*
X189388973Y-91306542D01*
X189388973Y-91306542D02*
X189341354Y-91211304D01*
X189341354Y-91211304D02*
X189341354Y-91116066D01*
X189341354Y-91116066D02*
X189388973Y-90973209D01*
X189388973Y-90973209D02*
X189960401Y-90401780D01*
X189960401Y-90401780D02*
X189341354Y-90401780D01*
X175990020Y-90452580D02*
X175990020Y-91452580D01*
X175990020Y-91452580D02*
X175609068Y-91452580D01*
X175609068Y-91452580D02*
X175513830Y-91404961D01*
X175513830Y-91404961D02*
X175466211Y-91357342D01*
X175466211Y-91357342D02*
X175418592Y-91262104D01*
X175418592Y-91262104D02*
X175418592Y-91119247D01*
X175418592Y-91119247D02*
X175466211Y-91024009D01*
X175466211Y-91024009D02*
X175513830Y-90976390D01*
X175513830Y-90976390D02*
X175609068Y-90928771D01*
X175609068Y-90928771D02*
X175990020Y-90928771D01*
X175085258Y-91452580D02*
X174847163Y-90452580D01*
X174847163Y-90452580D02*
X174656687Y-91166866D01*
X174656687Y-91166866D02*
X174466211Y-90452580D01*
X174466211Y-90452580D02*
X174228116Y-91452580D01*
X173275735Y-90452580D02*
X173609068Y-90928771D01*
X173847163Y-90452580D02*
X173847163Y-91452580D01*
X173847163Y-91452580D02*
X173466211Y-91452580D01*
X173466211Y-91452580D02*
X173370973Y-91404961D01*
X173370973Y-91404961D02*
X173323354Y-91357342D01*
X173323354Y-91357342D02*
X173275735Y-91262104D01*
X173275735Y-91262104D02*
X173275735Y-91119247D01*
X173275735Y-91119247D02*
X173323354Y-91024009D01*
X173323354Y-91024009D02*
X173370973Y-90976390D01*
X173370973Y-90976390D02*
X173466211Y-90928771D01*
X173466211Y-90928771D02*
X173847163Y-90928771D01*
X172942401Y-91452580D02*
X172323354Y-91452580D01*
X172323354Y-91452580D02*
X172656687Y-91071628D01*
X172656687Y-91071628D02*
X172513830Y-91071628D01*
X172513830Y-91071628D02*
X172418592Y-91024009D01*
X172418592Y-91024009D02*
X172370973Y-90976390D01*
X172370973Y-90976390D02*
X172323354Y-90881152D01*
X172323354Y-90881152D02*
X172323354Y-90643057D01*
X172323354Y-90643057D02*
X172370973Y-90547819D01*
X172370973Y-90547819D02*
X172418592Y-90500200D01*
X172418592Y-90500200D02*
X172513830Y-90452580D01*
X172513830Y-90452580D02*
X172799544Y-90452580D01*
X172799544Y-90452580D02*
X172894782Y-90500200D01*
X172894782Y-90500200D02*
X172942401Y-90547819D01*
X117251350Y-107971304D02*
X117218017Y-108009400D01*
X117218017Y-108009400D02*
X117118017Y-108047495D01*
X117118017Y-108047495D02*
X117051350Y-108047495D01*
X117051350Y-108047495D02*
X116951350Y-108009400D01*
X116951350Y-108009400D02*
X116884684Y-107933209D01*
X116884684Y-107933209D02*
X116851350Y-107857019D01*
X116851350Y-107857019D02*
X116818017Y-107704638D01*
X116818017Y-107704638D02*
X116818017Y-107590352D01*
X116818017Y-107590352D02*
X116851350Y-107437971D01*
X116851350Y-107437971D02*
X116884684Y-107361780D01*
X116884684Y-107361780D02*
X116951350Y-107285590D01*
X116951350Y-107285590D02*
X117051350Y-107247495D01*
X117051350Y-107247495D02*
X117118017Y-107247495D01*
X117118017Y-107247495D02*
X117218017Y-107285590D01*
X117218017Y-107285590D02*
X117251350Y-107323685D01*
X117684684Y-107247495D02*
X117818017Y-107247495D01*
X117818017Y-107247495D02*
X117884684Y-107285590D01*
X117884684Y-107285590D02*
X117951350Y-107361780D01*
X117951350Y-107361780D02*
X117984684Y-107514161D01*
X117984684Y-107514161D02*
X117984684Y-107780828D01*
X117984684Y-107780828D02*
X117951350Y-107933209D01*
X117951350Y-107933209D02*
X117884684Y-108009400D01*
X117884684Y-108009400D02*
X117818017Y-108047495D01*
X117818017Y-108047495D02*
X117684684Y-108047495D01*
X117684684Y-108047495D02*
X117618017Y-108009400D01*
X117618017Y-108009400D02*
X117551350Y-107933209D01*
X117551350Y-107933209D02*
X117518017Y-107780828D01*
X117518017Y-107780828D02*
X117518017Y-107514161D01*
X117518017Y-107514161D02*
X117551350Y-107361780D01*
X117551350Y-107361780D02*
X117618017Y-107285590D01*
X117618017Y-107285590D02*
X117684684Y-107247495D01*
X118284683Y-108047495D02*
X118284683Y-107247495D01*
X118284683Y-107247495D02*
X118518017Y-107818923D01*
X118518017Y-107818923D02*
X118751350Y-107247495D01*
X118751350Y-107247495D02*
X118751350Y-108047495D01*
X87143304Y-103022449D02*
X87181400Y-103055782D01*
X87181400Y-103055782D02*
X87219495Y-103155782D01*
X87219495Y-103155782D02*
X87219495Y-103222449D01*
X87219495Y-103222449D02*
X87181400Y-103322449D01*
X87181400Y-103322449D02*
X87105209Y-103389116D01*
X87105209Y-103389116D02*
X87029019Y-103422449D01*
X87029019Y-103422449D02*
X86876638Y-103455782D01*
X86876638Y-103455782D02*
X86762352Y-103455782D01*
X86762352Y-103455782D02*
X86609971Y-103422449D01*
X86609971Y-103422449D02*
X86533780Y-103389116D01*
X86533780Y-103389116D02*
X86457590Y-103322449D01*
X86457590Y-103322449D02*
X86419495Y-103222449D01*
X86419495Y-103222449D02*
X86419495Y-103155782D01*
X86419495Y-103155782D02*
X86457590Y-103055782D01*
X86457590Y-103055782D02*
X86495685Y-103022449D01*
X86419495Y-102589116D02*
X86419495Y-102455782D01*
X86419495Y-102455782D02*
X86457590Y-102389116D01*
X86457590Y-102389116D02*
X86533780Y-102322449D01*
X86533780Y-102322449D02*
X86686161Y-102289116D01*
X86686161Y-102289116D02*
X86952828Y-102289116D01*
X86952828Y-102289116D02*
X87105209Y-102322449D01*
X87105209Y-102322449D02*
X87181400Y-102389116D01*
X87181400Y-102389116D02*
X87219495Y-102455782D01*
X87219495Y-102455782D02*
X87219495Y-102589116D01*
X87219495Y-102589116D02*
X87181400Y-102655782D01*
X87181400Y-102655782D02*
X87105209Y-102722449D01*
X87105209Y-102722449D02*
X86952828Y-102755782D01*
X86952828Y-102755782D02*
X86686161Y-102755782D01*
X86686161Y-102755782D02*
X86533780Y-102722449D01*
X86533780Y-102722449D02*
X86457590Y-102655782D01*
X86457590Y-102655782D02*
X86419495Y-102589116D01*
X87219495Y-101989116D02*
X86419495Y-101989116D01*
X86419495Y-101989116D02*
X86990923Y-101755783D01*
X86990923Y-101755783D02*
X86419495Y-101522449D01*
X86419495Y-101522449D02*
X87219495Y-101522449D01*
X92109095Y-97546916D02*
X92109095Y-97880249D01*
X92109095Y-97880249D02*
X92490047Y-97913582D01*
X92490047Y-97913582D02*
X92451952Y-97880249D01*
X92451952Y-97880249D02*
X92413857Y-97813582D01*
X92413857Y-97813582D02*
X92413857Y-97646916D01*
X92413857Y-97646916D02*
X92451952Y-97580249D01*
X92451952Y-97580249D02*
X92490047Y-97546916D01*
X92490047Y-97546916D02*
X92566238Y-97513582D01*
X92566238Y-97513582D02*
X92756714Y-97513582D01*
X92756714Y-97513582D02*
X92832904Y-97546916D01*
X92832904Y-97546916D02*
X92871000Y-97580249D01*
X92871000Y-97580249D02*
X92909095Y-97646916D01*
X92909095Y-97646916D02*
X92909095Y-97813582D01*
X92909095Y-97813582D02*
X92871000Y-97880249D01*
X92871000Y-97880249D02*
X92832904Y-97913582D01*
X92109095Y-97313582D02*
X92909095Y-97080249D01*
X92909095Y-97080249D02*
X92109095Y-96846915D01*
X103193620Y-90782733D02*
X102431716Y-90782733D01*
X101622192Y-90925590D02*
X101479335Y-90877971D01*
X101479335Y-90877971D02*
X101431716Y-90830352D01*
X101431716Y-90830352D02*
X101384097Y-90735114D01*
X101384097Y-90735114D02*
X101384097Y-90592257D01*
X101384097Y-90592257D02*
X101431716Y-90497019D01*
X101431716Y-90497019D02*
X101479335Y-90449400D01*
X101479335Y-90449400D02*
X101574573Y-90401780D01*
X101574573Y-90401780D02*
X101955525Y-90401780D01*
X101955525Y-90401780D02*
X101955525Y-91401780D01*
X101955525Y-91401780D02*
X101622192Y-91401780D01*
X101622192Y-91401780D02*
X101526954Y-91354161D01*
X101526954Y-91354161D02*
X101479335Y-91306542D01*
X101479335Y-91306542D02*
X101431716Y-91211304D01*
X101431716Y-91211304D02*
X101431716Y-91116066D01*
X101431716Y-91116066D02*
X101479335Y-91020828D01*
X101479335Y-91020828D02*
X101526954Y-90973209D01*
X101526954Y-90973209D02*
X101622192Y-90925590D01*
X101622192Y-90925590D02*
X101955525Y-90925590D01*
X101003144Y-90687495D02*
X100526954Y-90687495D01*
X101098382Y-90401780D02*
X100765049Y-91401780D01*
X100765049Y-91401780D02*
X100431716Y-90401780D01*
X100241239Y-91401780D02*
X99669811Y-91401780D01*
X99955525Y-90401780D02*
X99955525Y-91401780D01*
X99479334Y-91401780D02*
X98907906Y-91401780D01*
X99193620Y-90401780D02*
X99193620Y-91401780D01*
X87232200Y-110974182D02*
X87270295Y-110874182D01*
X87270295Y-110874182D02*
X87270295Y-110707516D01*
X87270295Y-110707516D02*
X87232200Y-110640849D01*
X87232200Y-110640849D02*
X87194104Y-110607516D01*
X87194104Y-110607516D02*
X87117914Y-110574182D01*
X87117914Y-110574182D02*
X87041723Y-110574182D01*
X87041723Y-110574182D02*
X86965533Y-110607516D01*
X86965533Y-110607516D02*
X86927438Y-110640849D01*
X86927438Y-110640849D02*
X86889342Y-110707516D01*
X86889342Y-110707516D02*
X86851247Y-110840849D01*
X86851247Y-110840849D02*
X86813152Y-110907516D01*
X86813152Y-110907516D02*
X86775057Y-110940849D01*
X86775057Y-110940849D02*
X86698866Y-110974182D01*
X86698866Y-110974182D02*
X86622676Y-110974182D01*
X86622676Y-110974182D02*
X86546485Y-110940849D01*
X86546485Y-110940849D02*
X86508390Y-110907516D01*
X86508390Y-110907516D02*
X86470295Y-110840849D01*
X86470295Y-110840849D02*
X86470295Y-110674182D01*
X86470295Y-110674182D02*
X86508390Y-110574182D01*
X87194104Y-109874182D02*
X87232200Y-109907515D01*
X87232200Y-109907515D02*
X87270295Y-110007515D01*
X87270295Y-110007515D02*
X87270295Y-110074182D01*
X87270295Y-110074182D02*
X87232200Y-110174182D01*
X87232200Y-110174182D02*
X87156009Y-110240849D01*
X87156009Y-110240849D02*
X87079819Y-110274182D01*
X87079819Y-110274182D02*
X86927438Y-110307515D01*
X86927438Y-110307515D02*
X86813152Y-110307515D01*
X86813152Y-110307515D02*
X86660771Y-110274182D01*
X86660771Y-110274182D02*
X86584580Y-110240849D01*
X86584580Y-110240849D02*
X86508390Y-110174182D01*
X86508390Y-110174182D02*
X86470295Y-110074182D01*
X86470295Y-110074182D02*
X86470295Y-110007515D01*
X86470295Y-110007515D02*
X86508390Y-109907515D01*
X86508390Y-109907515D02*
X86546485Y-109874182D01*
X87270295Y-109240849D02*
X87270295Y-109574182D01*
X87270295Y-109574182D02*
X86470295Y-109574182D01*
X127882420Y-90401780D02*
X127882420Y-91401780D01*
X127882420Y-91401780D02*
X127501468Y-91401780D01*
X127501468Y-91401780D02*
X127406230Y-91354161D01*
X127406230Y-91354161D02*
X127358611Y-91306542D01*
X127358611Y-91306542D02*
X127310992Y-91211304D01*
X127310992Y-91211304D02*
X127310992Y-91068447D01*
X127310992Y-91068447D02*
X127358611Y-90973209D01*
X127358611Y-90973209D02*
X127406230Y-90925590D01*
X127406230Y-90925590D02*
X127501468Y-90877971D01*
X127501468Y-90877971D02*
X127882420Y-90877971D01*
X126977658Y-91401780D02*
X126739563Y-90401780D01*
X126739563Y-90401780D02*
X126549087Y-91116066D01*
X126549087Y-91116066D02*
X126358611Y-90401780D01*
X126358611Y-90401780D02*
X126120516Y-91401780D01*
X125168135Y-90401780D02*
X125501468Y-90877971D01*
X125739563Y-90401780D02*
X125739563Y-91401780D01*
X125739563Y-91401780D02*
X125358611Y-91401780D01*
X125358611Y-91401780D02*
X125263373Y-91354161D01*
X125263373Y-91354161D02*
X125215754Y-91306542D01*
X125215754Y-91306542D02*
X125168135Y-91211304D01*
X125168135Y-91211304D02*
X125168135Y-91068447D01*
X125168135Y-91068447D02*
X125215754Y-90973209D01*
X125215754Y-90973209D02*
X125263373Y-90925590D01*
X125263373Y-90925590D02*
X125358611Y-90877971D01*
X125358611Y-90877971D02*
X125739563Y-90877971D01*
X124310992Y-91401780D02*
X124501468Y-91401780D01*
X124501468Y-91401780D02*
X124596706Y-91354161D01*
X124596706Y-91354161D02*
X124644325Y-91306542D01*
X124644325Y-91306542D02*
X124739563Y-91163685D01*
X124739563Y-91163685D02*
X124787182Y-90973209D01*
X124787182Y-90973209D02*
X124787182Y-90592257D01*
X124787182Y-90592257D02*
X124739563Y-90497019D01*
X124739563Y-90497019D02*
X124691944Y-90449400D01*
X124691944Y-90449400D02*
X124596706Y-90401780D01*
X124596706Y-90401780D02*
X124406230Y-90401780D01*
X124406230Y-90401780D02*
X124310992Y-90449400D01*
X124310992Y-90449400D02*
X124263373Y-90497019D01*
X124263373Y-90497019D02*
X124215754Y-90592257D01*
X124215754Y-90592257D02*
X124215754Y-90830352D01*
X124215754Y-90830352D02*
X124263373Y-90925590D01*
X124263373Y-90925590D02*
X124310992Y-90973209D01*
X124310992Y-90973209D02*
X124406230Y-91020828D01*
X124406230Y-91020828D02*
X124596706Y-91020828D01*
X124596706Y-91020828D02*
X124691944Y-90973209D01*
X124691944Y-90973209D02*
X124739563Y-90925590D01*
X124739563Y-90925590D02*
X124787182Y-90830352D01*
X111839617Y-108009400D02*
X111939617Y-108047495D01*
X111939617Y-108047495D02*
X112106284Y-108047495D01*
X112106284Y-108047495D02*
X112172950Y-108009400D01*
X112172950Y-108009400D02*
X112206284Y-107971304D01*
X112206284Y-107971304D02*
X112239617Y-107895114D01*
X112239617Y-107895114D02*
X112239617Y-107818923D01*
X112239617Y-107818923D02*
X112206284Y-107742733D01*
X112206284Y-107742733D02*
X112172950Y-107704638D01*
X112172950Y-107704638D02*
X112106284Y-107666542D01*
X112106284Y-107666542D02*
X111972950Y-107628447D01*
X111972950Y-107628447D02*
X111906284Y-107590352D01*
X111906284Y-107590352D02*
X111872950Y-107552257D01*
X111872950Y-107552257D02*
X111839617Y-107476066D01*
X111839617Y-107476066D02*
X111839617Y-107399876D01*
X111839617Y-107399876D02*
X111872950Y-107323685D01*
X111872950Y-107323685D02*
X111906284Y-107285590D01*
X111906284Y-107285590D02*
X111972950Y-107247495D01*
X111972950Y-107247495D02*
X112139617Y-107247495D01*
X112139617Y-107247495D02*
X112239617Y-107285590D01*
X112539617Y-108047495D02*
X112539617Y-107247495D01*
X112539617Y-107247495D02*
X112706284Y-107247495D01*
X112706284Y-107247495D02*
X112806284Y-107285590D01*
X112806284Y-107285590D02*
X112872951Y-107361780D01*
X112872951Y-107361780D02*
X112906284Y-107437971D01*
X112906284Y-107437971D02*
X112939617Y-107590352D01*
X112939617Y-107590352D02*
X112939617Y-107704638D01*
X112939617Y-107704638D02*
X112906284Y-107857019D01*
X112906284Y-107857019D02*
X112872951Y-107933209D01*
X112872951Y-107933209D02*
X112806284Y-108009400D01*
X112806284Y-108009400D02*
X112706284Y-108047495D01*
X112706284Y-108047495D02*
X112539617Y-108047495D01*
X113206284Y-107818923D02*
X113539617Y-107818923D01*
X113139617Y-108047495D02*
X113372951Y-107247495D01*
X113372951Y-107247495D02*
X113606284Y-108047495D01*
X107183484Y-99627495D02*
X107650150Y-99627495D01*
X107650150Y-99627495D02*
X107350150Y-100427495D01*
X115322550Y-99792561D02*
X115322550Y-100325895D01*
X115155884Y-99487800D02*
X114989217Y-100059228D01*
X114989217Y-100059228D02*
X115422550Y-100059228D01*
X109299617Y-108060200D02*
X109399617Y-108098295D01*
X109399617Y-108098295D02*
X109566284Y-108098295D01*
X109566284Y-108098295D02*
X109632950Y-108060200D01*
X109632950Y-108060200D02*
X109666284Y-108022104D01*
X109666284Y-108022104D02*
X109699617Y-107945914D01*
X109699617Y-107945914D02*
X109699617Y-107869723D01*
X109699617Y-107869723D02*
X109666284Y-107793533D01*
X109666284Y-107793533D02*
X109632950Y-107755438D01*
X109632950Y-107755438D02*
X109566284Y-107717342D01*
X109566284Y-107717342D02*
X109432950Y-107679247D01*
X109432950Y-107679247D02*
X109366284Y-107641152D01*
X109366284Y-107641152D02*
X109332950Y-107603057D01*
X109332950Y-107603057D02*
X109299617Y-107526866D01*
X109299617Y-107526866D02*
X109299617Y-107450676D01*
X109299617Y-107450676D02*
X109332950Y-107374485D01*
X109332950Y-107374485D02*
X109366284Y-107336390D01*
X109366284Y-107336390D02*
X109432950Y-107298295D01*
X109432950Y-107298295D02*
X109599617Y-107298295D01*
X109599617Y-107298295D02*
X109699617Y-107336390D01*
X110399617Y-108022104D02*
X110366284Y-108060200D01*
X110366284Y-108060200D02*
X110266284Y-108098295D01*
X110266284Y-108098295D02*
X110199617Y-108098295D01*
X110199617Y-108098295D02*
X110099617Y-108060200D01*
X110099617Y-108060200D02*
X110032951Y-107984009D01*
X110032951Y-107984009D02*
X109999617Y-107907819D01*
X109999617Y-107907819D02*
X109966284Y-107755438D01*
X109966284Y-107755438D02*
X109966284Y-107641152D01*
X109966284Y-107641152D02*
X109999617Y-107488771D01*
X109999617Y-107488771D02*
X110032951Y-107412580D01*
X110032951Y-107412580D02*
X110099617Y-107336390D01*
X110099617Y-107336390D02*
X110199617Y-107298295D01*
X110199617Y-107298295D02*
X110266284Y-107298295D01*
X110266284Y-107298295D02*
X110366284Y-107336390D01*
X110366284Y-107336390D02*
X110399617Y-107374485D01*
X111032951Y-108098295D02*
X110699617Y-108098295D01*
X110699617Y-108098295D02*
X110699617Y-107298295D01*
X87181400Y-108434182D02*
X87219495Y-108334182D01*
X87219495Y-108334182D02*
X87219495Y-108167516D01*
X87219495Y-108167516D02*
X87181400Y-108100849D01*
X87181400Y-108100849D02*
X87143304Y-108067516D01*
X87143304Y-108067516D02*
X87067114Y-108034182D01*
X87067114Y-108034182D02*
X86990923Y-108034182D01*
X86990923Y-108034182D02*
X86914733Y-108067516D01*
X86914733Y-108067516D02*
X86876638Y-108100849D01*
X86876638Y-108100849D02*
X86838542Y-108167516D01*
X86838542Y-108167516D02*
X86800447Y-108300849D01*
X86800447Y-108300849D02*
X86762352Y-108367516D01*
X86762352Y-108367516D02*
X86724257Y-108400849D01*
X86724257Y-108400849D02*
X86648066Y-108434182D01*
X86648066Y-108434182D02*
X86571876Y-108434182D01*
X86571876Y-108434182D02*
X86495685Y-108400849D01*
X86495685Y-108400849D02*
X86457590Y-108367516D01*
X86457590Y-108367516D02*
X86419495Y-108300849D01*
X86419495Y-108300849D02*
X86419495Y-108134182D01*
X86419495Y-108134182D02*
X86457590Y-108034182D01*
X87219495Y-107734182D02*
X86419495Y-107734182D01*
X86419495Y-107734182D02*
X86419495Y-107567515D01*
X86419495Y-107567515D02*
X86457590Y-107467515D01*
X86457590Y-107467515D02*
X86533780Y-107400849D01*
X86533780Y-107400849D02*
X86609971Y-107367515D01*
X86609971Y-107367515D02*
X86762352Y-107334182D01*
X86762352Y-107334182D02*
X86876638Y-107334182D01*
X86876638Y-107334182D02*
X87029019Y-107367515D01*
X87029019Y-107367515D02*
X87105209Y-107400849D01*
X87105209Y-107400849D02*
X87181400Y-107467515D01*
X87181400Y-107467515D02*
X87219495Y-107567515D01*
X87219495Y-107567515D02*
X87219495Y-107734182D01*
X86990923Y-107067515D02*
X86990923Y-106734182D01*
X87219495Y-107134182D02*
X86419495Y-106900849D01*
X86419495Y-106900849D02*
X87219495Y-106667515D01*
X114812950Y-108047495D02*
X114579617Y-107666542D01*
X114412950Y-108047495D02*
X114412950Y-107247495D01*
X114412950Y-107247495D02*
X114679617Y-107247495D01*
X114679617Y-107247495D02*
X114746284Y-107285590D01*
X114746284Y-107285590D02*
X114779617Y-107323685D01*
X114779617Y-107323685D02*
X114812950Y-107399876D01*
X114812950Y-107399876D02*
X114812950Y-107514161D01*
X114812950Y-107514161D02*
X114779617Y-107590352D01*
X114779617Y-107590352D02*
X114746284Y-107628447D01*
X114746284Y-107628447D02*
X114679617Y-107666542D01*
X114679617Y-107666542D02*
X114412950Y-107666542D01*
X115112950Y-107628447D02*
X115346284Y-107628447D01*
X115446284Y-108047495D02*
X115112950Y-108047495D01*
X115112950Y-108047495D02*
X115112950Y-107247495D01*
X115112950Y-107247495D02*
X115446284Y-107247495D01*
X115979617Y-107628447D02*
X115746283Y-107628447D01*
X115746283Y-108047495D02*
X115746283Y-107247495D01*
X115746283Y-107247495D02*
X116079617Y-107247495D01*
X207435220Y-90300180D02*
X207435220Y-91300180D01*
X207435220Y-91300180D02*
X207054268Y-91300180D01*
X207054268Y-91300180D02*
X206959030Y-91252561D01*
X206959030Y-91252561D02*
X206911411Y-91204942D01*
X206911411Y-91204942D02*
X206863792Y-91109704D01*
X206863792Y-91109704D02*
X206863792Y-90966847D01*
X206863792Y-90966847D02*
X206911411Y-90871609D01*
X206911411Y-90871609D02*
X206959030Y-90823990D01*
X206959030Y-90823990D02*
X207054268Y-90776371D01*
X207054268Y-90776371D02*
X207435220Y-90776371D01*
X206530458Y-91300180D02*
X206292363Y-90300180D01*
X206292363Y-90300180D02*
X206101887Y-91014466D01*
X206101887Y-91014466D02*
X205911411Y-90300180D01*
X205911411Y-90300180D02*
X205673316Y-91300180D01*
X204720935Y-90300180D02*
X205054268Y-90776371D01*
X205292363Y-90300180D02*
X205292363Y-91300180D01*
X205292363Y-91300180D02*
X204911411Y-91300180D01*
X204911411Y-91300180D02*
X204816173Y-91252561D01*
X204816173Y-91252561D02*
X204768554Y-91204942D01*
X204768554Y-91204942D02*
X204720935Y-91109704D01*
X204720935Y-91109704D02*
X204720935Y-90966847D01*
X204720935Y-90966847D02*
X204768554Y-90871609D01*
X204768554Y-90871609D02*
X204816173Y-90823990D01*
X204816173Y-90823990D02*
X204911411Y-90776371D01*
X204911411Y-90776371D02*
X205292363Y-90776371D01*
X203768554Y-90300180D02*
X204339982Y-90300180D01*
X204054268Y-90300180D02*
X204054268Y-91300180D01*
X204054268Y-91300180D02*
X204149506Y-91157323D01*
X204149506Y-91157323D02*
X204244744Y-91062085D01*
X204244744Y-91062085D02*
X204339982Y-91014466D01*
X131045179Y-110740866D02*
X131807084Y-110740866D01*
X131426131Y-111121819D02*
X131426131Y-110359914D01*
X132616607Y-110598009D02*
X132759464Y-110645628D01*
X132759464Y-110645628D02*
X132807083Y-110693247D01*
X132807083Y-110693247D02*
X132854702Y-110788485D01*
X132854702Y-110788485D02*
X132854702Y-110931342D01*
X132854702Y-110931342D02*
X132807083Y-111026580D01*
X132807083Y-111026580D02*
X132759464Y-111074200D01*
X132759464Y-111074200D02*
X132664226Y-111121819D01*
X132664226Y-111121819D02*
X132283274Y-111121819D01*
X132283274Y-111121819D02*
X132283274Y-110121819D01*
X132283274Y-110121819D02*
X132616607Y-110121819D01*
X132616607Y-110121819D02*
X132711845Y-110169438D01*
X132711845Y-110169438D02*
X132759464Y-110217057D01*
X132759464Y-110217057D02*
X132807083Y-110312295D01*
X132807083Y-110312295D02*
X132807083Y-110407533D01*
X132807083Y-110407533D02*
X132759464Y-110502771D01*
X132759464Y-110502771D02*
X132711845Y-110550390D01*
X132711845Y-110550390D02*
X132616607Y-110598009D01*
X132616607Y-110598009D02*
X132283274Y-110598009D01*
X133235655Y-110836104D02*
X133711845Y-110836104D01*
X133140417Y-111121819D02*
X133473750Y-110121819D01*
X133473750Y-110121819D02*
X133807083Y-111121819D01*
X133997560Y-110121819D02*
X134568988Y-110121819D01*
X134283274Y-111121819D02*
X134283274Y-110121819D01*
X134759465Y-110121819D02*
X135330893Y-110121819D01*
X135045179Y-111121819D02*
X135045179Y-110121819D01*
X97971217Y-97760523D02*
X98304550Y-97760523D01*
X97904550Y-97989095D02*
X98137884Y-97189095D01*
X98137884Y-97189095D02*
X98371217Y-97989095D01*
X98604550Y-97455761D02*
X98604550Y-97989095D01*
X98604550Y-97531952D02*
X98637884Y-97493857D01*
X98637884Y-97493857D02*
X98704550Y-97455761D01*
X98704550Y-97455761D02*
X98804550Y-97455761D01*
X98804550Y-97455761D02*
X98871217Y-97493857D01*
X98871217Y-97493857D02*
X98904550Y-97570047D01*
X98904550Y-97570047D02*
X98904550Y-97989095D01*
X99537883Y-97989095D02*
X99537883Y-97570047D01*
X99537883Y-97570047D02*
X99504550Y-97493857D01*
X99504550Y-97493857D02*
X99437883Y-97455761D01*
X99437883Y-97455761D02*
X99304550Y-97455761D01*
X99304550Y-97455761D02*
X99237883Y-97493857D01*
X99537883Y-97951000D02*
X99471217Y-97989095D01*
X99471217Y-97989095D02*
X99304550Y-97989095D01*
X99304550Y-97989095D02*
X99237883Y-97951000D01*
X99237883Y-97951000D02*
X99204550Y-97874809D01*
X99204550Y-97874809D02*
X99204550Y-97798619D01*
X99204550Y-97798619D02*
X99237883Y-97722428D01*
X99237883Y-97722428D02*
X99304550Y-97684333D01*
X99304550Y-97684333D02*
X99471217Y-97684333D01*
X99471217Y-97684333D02*
X99537883Y-97646238D01*
X99971216Y-97989095D02*
X99904550Y-97951000D01*
X99904550Y-97951000D02*
X99871216Y-97874809D01*
X99871216Y-97874809D02*
X99871216Y-97189095D01*
X100337883Y-97989095D02*
X100271217Y-97951000D01*
X100271217Y-97951000D02*
X100237883Y-97912904D01*
X100237883Y-97912904D02*
X100204550Y-97836714D01*
X100204550Y-97836714D02*
X100204550Y-97608142D01*
X100204550Y-97608142D02*
X100237883Y-97531952D01*
X100237883Y-97531952D02*
X100271217Y-97493857D01*
X100271217Y-97493857D02*
X100337883Y-97455761D01*
X100337883Y-97455761D02*
X100437883Y-97455761D01*
X100437883Y-97455761D02*
X100504550Y-97493857D01*
X100504550Y-97493857D02*
X100537883Y-97531952D01*
X100537883Y-97531952D02*
X100571217Y-97608142D01*
X100571217Y-97608142D02*
X100571217Y-97836714D01*
X100571217Y-97836714D02*
X100537883Y-97912904D01*
X100537883Y-97912904D02*
X100504550Y-97951000D01*
X100504550Y-97951000D02*
X100437883Y-97989095D01*
X100437883Y-97989095D02*
X100337883Y-97989095D01*
X101171216Y-97455761D02*
X101171216Y-98103380D01*
X101171216Y-98103380D02*
X101137883Y-98179571D01*
X101137883Y-98179571D02*
X101104550Y-98217666D01*
X101104550Y-98217666D02*
X101037883Y-98255761D01*
X101037883Y-98255761D02*
X100937883Y-98255761D01*
X100937883Y-98255761D02*
X100871216Y-98217666D01*
X101171216Y-97951000D02*
X101104550Y-97989095D01*
X101104550Y-97989095D02*
X100971216Y-97989095D01*
X100971216Y-97989095D02*
X100904550Y-97951000D01*
X100904550Y-97951000D02*
X100871216Y-97912904D01*
X100871216Y-97912904D02*
X100837883Y-97836714D01*
X100837883Y-97836714D02*
X100837883Y-97608142D01*
X100837883Y-97608142D02*
X100871216Y-97531952D01*
X100871216Y-97531952D02*
X100904550Y-97493857D01*
X100904550Y-97493857D02*
X100971216Y-97455761D01*
X100971216Y-97455761D02*
X101104550Y-97455761D01*
X101104550Y-97455761D02*
X101171216Y-97493857D01*
X102037882Y-97989095D02*
X102037882Y-97189095D01*
X102371215Y-97455761D02*
X102371215Y-97989095D01*
X102371215Y-97531952D02*
X102404549Y-97493857D01*
X102404549Y-97493857D02*
X102471215Y-97455761D01*
X102471215Y-97455761D02*
X102571215Y-97455761D01*
X102571215Y-97455761D02*
X102637882Y-97493857D01*
X102637882Y-97493857D02*
X102671215Y-97570047D01*
X102671215Y-97570047D02*
X102671215Y-97989095D01*
X110242550Y-99576695D02*
X110109217Y-99576695D01*
X110109217Y-99576695D02*
X110042550Y-99614790D01*
X110042550Y-99614790D02*
X110009217Y-99652885D01*
X110009217Y-99652885D02*
X109942550Y-99767171D01*
X109942550Y-99767171D02*
X109909217Y-99919552D01*
X109909217Y-99919552D02*
X109909217Y-100224314D01*
X109909217Y-100224314D02*
X109942550Y-100300504D01*
X109942550Y-100300504D02*
X109975884Y-100338600D01*
X109975884Y-100338600D02*
X110042550Y-100376695D01*
X110042550Y-100376695D02*
X110175884Y-100376695D01*
X110175884Y-100376695D02*
X110242550Y-100338600D01*
X110242550Y-100338600D02*
X110275884Y-100300504D01*
X110275884Y-100300504D02*
X110309217Y-100224314D01*
X110309217Y-100224314D02*
X110309217Y-100033838D01*
X110309217Y-100033838D02*
X110275884Y-99957647D01*
X110275884Y-99957647D02*
X110242550Y-99919552D01*
X110242550Y-99919552D02*
X110175884Y-99881457D01*
X110175884Y-99881457D02*
X110042550Y-99881457D01*
X110042550Y-99881457D02*
X109975884Y-99919552D01*
X109975884Y-99919552D02*
X109942550Y-99957647D01*
X109942550Y-99957647D02*
X109909217Y-100033838D01*
X88207620Y-90782733D02*
X87445716Y-90782733D01*
X86636192Y-90925590D02*
X86493335Y-90877971D01*
X86493335Y-90877971D02*
X86445716Y-90830352D01*
X86445716Y-90830352D02*
X86398097Y-90735114D01*
X86398097Y-90735114D02*
X86398097Y-90592257D01*
X86398097Y-90592257D02*
X86445716Y-90497019D01*
X86445716Y-90497019D02*
X86493335Y-90449400D01*
X86493335Y-90449400D02*
X86588573Y-90401780D01*
X86588573Y-90401780D02*
X86969525Y-90401780D01*
X86969525Y-90401780D02*
X86969525Y-91401780D01*
X86969525Y-91401780D02*
X86636192Y-91401780D01*
X86636192Y-91401780D02*
X86540954Y-91354161D01*
X86540954Y-91354161D02*
X86493335Y-91306542D01*
X86493335Y-91306542D02*
X86445716Y-91211304D01*
X86445716Y-91211304D02*
X86445716Y-91116066D01*
X86445716Y-91116066D02*
X86493335Y-91020828D01*
X86493335Y-91020828D02*
X86540954Y-90973209D01*
X86540954Y-90973209D02*
X86636192Y-90925590D01*
X86636192Y-90925590D02*
X86969525Y-90925590D01*
X86017144Y-90687495D02*
X85540954Y-90687495D01*
X86112382Y-90401780D02*
X85779049Y-91401780D01*
X85779049Y-91401780D02*
X85445716Y-90401780D01*
X85255239Y-91401780D02*
X84683811Y-91401780D01*
X84969525Y-90401780D02*
X84969525Y-91401780D01*
X84493334Y-91401780D02*
X83921906Y-91401780D01*
X84207620Y-90401780D02*
X84207620Y-91401780D01*
X110610420Y-90300180D02*
X110610420Y-91300180D01*
X110610420Y-91300180D02*
X110229468Y-91300180D01*
X110229468Y-91300180D02*
X110134230Y-91252561D01*
X110134230Y-91252561D02*
X110086611Y-91204942D01*
X110086611Y-91204942D02*
X110038992Y-91109704D01*
X110038992Y-91109704D02*
X110038992Y-90966847D01*
X110038992Y-90966847D02*
X110086611Y-90871609D01*
X110086611Y-90871609D02*
X110134230Y-90823990D01*
X110134230Y-90823990D02*
X110229468Y-90776371D01*
X110229468Y-90776371D02*
X110610420Y-90776371D01*
X109705658Y-91300180D02*
X109467563Y-90300180D01*
X109467563Y-90300180D02*
X109277087Y-91014466D01*
X109277087Y-91014466D02*
X109086611Y-90300180D01*
X109086611Y-90300180D02*
X108848516Y-91300180D01*
X107896135Y-90300180D02*
X108229468Y-90776371D01*
X108467563Y-90300180D02*
X108467563Y-91300180D01*
X108467563Y-91300180D02*
X108086611Y-91300180D01*
X108086611Y-91300180D02*
X107991373Y-91252561D01*
X107991373Y-91252561D02*
X107943754Y-91204942D01*
X107943754Y-91204942D02*
X107896135Y-91109704D01*
X107896135Y-91109704D02*
X107896135Y-90966847D01*
X107896135Y-90966847D02*
X107943754Y-90871609D01*
X107943754Y-90871609D02*
X107991373Y-90823990D01*
X107991373Y-90823990D02*
X108086611Y-90776371D01*
X108086611Y-90776371D02*
X108467563Y-90776371D01*
X107562801Y-91300180D02*
X106896135Y-91300180D01*
X106896135Y-91300180D02*
X107324706Y-90300180D01*
X169182820Y-90884333D02*
X168420916Y-90884333D01*
X167611392Y-91027190D02*
X167468535Y-90979571D01*
X167468535Y-90979571D02*
X167420916Y-90931952D01*
X167420916Y-90931952D02*
X167373297Y-90836714D01*
X167373297Y-90836714D02*
X167373297Y-90693857D01*
X167373297Y-90693857D02*
X167420916Y-90598619D01*
X167420916Y-90598619D02*
X167468535Y-90551000D01*
X167468535Y-90551000D02*
X167563773Y-90503380D01*
X167563773Y-90503380D02*
X167944725Y-90503380D01*
X167944725Y-90503380D02*
X167944725Y-91503380D01*
X167944725Y-91503380D02*
X167611392Y-91503380D01*
X167611392Y-91503380D02*
X167516154Y-91455761D01*
X167516154Y-91455761D02*
X167468535Y-91408142D01*
X167468535Y-91408142D02*
X167420916Y-91312904D01*
X167420916Y-91312904D02*
X167420916Y-91217666D01*
X167420916Y-91217666D02*
X167468535Y-91122428D01*
X167468535Y-91122428D02*
X167516154Y-91074809D01*
X167516154Y-91074809D02*
X167611392Y-91027190D01*
X167611392Y-91027190D02*
X167944725Y-91027190D01*
X166992344Y-90789095D02*
X166516154Y-90789095D01*
X167087582Y-90503380D02*
X166754249Y-91503380D01*
X166754249Y-91503380D02*
X166420916Y-90503380D01*
X166230439Y-91503380D02*
X165659011Y-91503380D01*
X165944725Y-90503380D02*
X165944725Y-91503380D01*
X165468534Y-91503380D02*
X164897106Y-91503380D01*
X165182820Y-90503380D02*
X165182820Y-91503380D01*
X153079220Y-90884333D02*
X152317316Y-90884333D01*
X151507792Y-91027190D02*
X151364935Y-90979571D01*
X151364935Y-90979571D02*
X151317316Y-90931952D01*
X151317316Y-90931952D02*
X151269697Y-90836714D01*
X151269697Y-90836714D02*
X151269697Y-90693857D01*
X151269697Y-90693857D02*
X151317316Y-90598619D01*
X151317316Y-90598619D02*
X151364935Y-90551000D01*
X151364935Y-90551000D02*
X151460173Y-90503380D01*
X151460173Y-90503380D02*
X151841125Y-90503380D01*
X151841125Y-90503380D02*
X151841125Y-91503380D01*
X151841125Y-91503380D02*
X151507792Y-91503380D01*
X151507792Y-91503380D02*
X151412554Y-91455761D01*
X151412554Y-91455761D02*
X151364935Y-91408142D01*
X151364935Y-91408142D02*
X151317316Y-91312904D01*
X151317316Y-91312904D02*
X151317316Y-91217666D01*
X151317316Y-91217666D02*
X151364935Y-91122428D01*
X151364935Y-91122428D02*
X151412554Y-91074809D01*
X151412554Y-91074809D02*
X151507792Y-91027190D01*
X151507792Y-91027190D02*
X151841125Y-91027190D01*
X150888744Y-90789095D02*
X150412554Y-90789095D01*
X150983982Y-90503380D02*
X150650649Y-91503380D01*
X150650649Y-91503380D02*
X150317316Y-90503380D01*
X150126839Y-91503380D02*
X149555411Y-91503380D01*
X149841125Y-90503380D02*
X149841125Y-91503380D01*
X149364934Y-91503380D02*
X148793506Y-91503380D01*
X149079220Y-90503380D02*
X149079220Y-91503380D01*
X120618020Y-90935133D02*
X119856116Y-90935133D01*
X119046592Y-91077990D02*
X118903735Y-91030371D01*
X118903735Y-91030371D02*
X118856116Y-90982752D01*
X118856116Y-90982752D02*
X118808497Y-90887514D01*
X118808497Y-90887514D02*
X118808497Y-90744657D01*
X118808497Y-90744657D02*
X118856116Y-90649419D01*
X118856116Y-90649419D02*
X118903735Y-90601800D01*
X118903735Y-90601800D02*
X118998973Y-90554180D01*
X118998973Y-90554180D02*
X119379925Y-90554180D01*
X119379925Y-90554180D02*
X119379925Y-91554180D01*
X119379925Y-91554180D02*
X119046592Y-91554180D01*
X119046592Y-91554180D02*
X118951354Y-91506561D01*
X118951354Y-91506561D02*
X118903735Y-91458942D01*
X118903735Y-91458942D02*
X118856116Y-91363704D01*
X118856116Y-91363704D02*
X118856116Y-91268466D01*
X118856116Y-91268466D02*
X118903735Y-91173228D01*
X118903735Y-91173228D02*
X118951354Y-91125609D01*
X118951354Y-91125609D02*
X119046592Y-91077990D01*
X119046592Y-91077990D02*
X119379925Y-91077990D01*
X118427544Y-90839895D02*
X117951354Y-90839895D01*
X118522782Y-90554180D02*
X118189449Y-91554180D01*
X118189449Y-91554180D02*
X117856116Y-90554180D01*
X117665639Y-91554180D02*
X117094211Y-91554180D01*
X117379925Y-90554180D02*
X117379925Y-91554180D01*
X116903734Y-91554180D02*
X116332306Y-91554180D01*
X116618020Y-90554180D02*
X116618020Y-91554180D01*
X135705620Y-90884333D02*
X134943716Y-90884333D01*
X134134192Y-91027190D02*
X133991335Y-90979571D01*
X133991335Y-90979571D02*
X133943716Y-90931952D01*
X133943716Y-90931952D02*
X133896097Y-90836714D01*
X133896097Y-90836714D02*
X133896097Y-90693857D01*
X133896097Y-90693857D02*
X133943716Y-90598619D01*
X133943716Y-90598619D02*
X133991335Y-90551000D01*
X133991335Y-90551000D02*
X134086573Y-90503380D01*
X134086573Y-90503380D02*
X134467525Y-90503380D01*
X134467525Y-90503380D02*
X134467525Y-91503380D01*
X134467525Y-91503380D02*
X134134192Y-91503380D01*
X134134192Y-91503380D02*
X134038954Y-91455761D01*
X134038954Y-91455761D02*
X133991335Y-91408142D01*
X133991335Y-91408142D02*
X133943716Y-91312904D01*
X133943716Y-91312904D02*
X133943716Y-91217666D01*
X133943716Y-91217666D02*
X133991335Y-91122428D01*
X133991335Y-91122428D02*
X134038954Y-91074809D01*
X134038954Y-91074809D02*
X134134192Y-91027190D01*
X134134192Y-91027190D02*
X134467525Y-91027190D01*
X133515144Y-90789095D02*
X133038954Y-90789095D01*
X133610382Y-90503380D02*
X133277049Y-91503380D01*
X133277049Y-91503380D02*
X132943716Y-90503380D01*
X132753239Y-91503380D02*
X132181811Y-91503380D01*
X132467525Y-90503380D02*
X132467525Y-91503380D01*
X131991334Y-91503380D02*
X131419906Y-91503380D01*
X131705620Y-90503380D02*
X131705620Y-91503380D01*
X104911750Y-99924552D02*
X104845084Y-99886457D01*
X104845084Y-99886457D02*
X104811750Y-99848361D01*
X104811750Y-99848361D02*
X104778417Y-99772171D01*
X104778417Y-99772171D02*
X104778417Y-99734076D01*
X104778417Y-99734076D02*
X104811750Y-99657885D01*
X104811750Y-99657885D02*
X104845084Y-99619790D01*
X104845084Y-99619790D02*
X104911750Y-99581695D01*
X104911750Y-99581695D02*
X105045084Y-99581695D01*
X105045084Y-99581695D02*
X105111750Y-99619790D01*
X105111750Y-99619790D02*
X105145084Y-99657885D01*
X105145084Y-99657885D02*
X105178417Y-99734076D01*
X105178417Y-99734076D02*
X105178417Y-99772171D01*
X105178417Y-99772171D02*
X105145084Y-99848361D01*
X105145084Y-99848361D02*
X105111750Y-99886457D01*
X105111750Y-99886457D02*
X105045084Y-99924552D01*
X105045084Y-99924552D02*
X104911750Y-99924552D01*
X104911750Y-99924552D02*
X104845084Y-99962647D01*
X104845084Y-99962647D02*
X104811750Y-100000742D01*
X104811750Y-100000742D02*
X104778417Y-100076933D01*
X104778417Y-100076933D02*
X104778417Y-100229314D01*
X104778417Y-100229314D02*
X104811750Y-100305504D01*
X104811750Y-100305504D02*
X104845084Y-100343600D01*
X104845084Y-100343600D02*
X104911750Y-100381695D01*
X104911750Y-100381695D02*
X105045084Y-100381695D01*
X105045084Y-100381695D02*
X105111750Y-100343600D01*
X105111750Y-100343600D02*
X105145084Y-100305504D01*
X105145084Y-100305504D02*
X105178417Y-100229314D01*
X105178417Y-100229314D02*
X105178417Y-100076933D01*
X105178417Y-100076933D02*
X105145084Y-100000742D01*
X105145084Y-100000742D02*
X105111750Y-99962647D01*
X105111750Y-99962647D02*
X105045084Y-99924552D01*
X107007217Y-107336390D02*
X106940550Y-107298295D01*
X106940550Y-107298295D02*
X106840550Y-107298295D01*
X106840550Y-107298295D02*
X106740550Y-107336390D01*
X106740550Y-107336390D02*
X106673884Y-107412580D01*
X106673884Y-107412580D02*
X106640550Y-107488771D01*
X106640550Y-107488771D02*
X106607217Y-107641152D01*
X106607217Y-107641152D02*
X106607217Y-107755438D01*
X106607217Y-107755438D02*
X106640550Y-107907819D01*
X106640550Y-107907819D02*
X106673884Y-107984009D01*
X106673884Y-107984009D02*
X106740550Y-108060200D01*
X106740550Y-108060200D02*
X106840550Y-108098295D01*
X106840550Y-108098295D02*
X106907217Y-108098295D01*
X106907217Y-108098295D02*
X107007217Y-108060200D01*
X107007217Y-108060200D02*
X107040550Y-108022104D01*
X107040550Y-108022104D02*
X107040550Y-107755438D01*
X107040550Y-107755438D02*
X106907217Y-107755438D01*
X107340550Y-108098295D02*
X107340550Y-107298295D01*
X107340550Y-107298295D02*
X107740550Y-108098295D01*
X107740550Y-108098295D02*
X107740550Y-107298295D01*
X108073883Y-108098295D02*
X108073883Y-107298295D01*
X108073883Y-107298295D02*
X108240550Y-107298295D01*
X108240550Y-107298295D02*
X108340550Y-107336390D01*
X108340550Y-107336390D02*
X108407217Y-107412580D01*
X108407217Y-107412580D02*
X108440550Y-107488771D01*
X108440550Y-107488771D02*
X108473883Y-107641152D01*
X108473883Y-107641152D02*
X108473883Y-107755438D01*
X108473883Y-107755438D02*
X108440550Y-107907819D01*
X108440550Y-107907819D02*
X108407217Y-107984009D01*
X108407217Y-107984009D02*
X108340550Y-108060200D01*
X108340550Y-108060200D02*
X108240550Y-108098295D01*
X108240550Y-108098295D02*
X108073883Y-108098295D01*
X160445220Y-90503380D02*
X160445220Y-91503380D01*
X160445220Y-91503380D02*
X160064268Y-91503380D01*
X160064268Y-91503380D02*
X159969030Y-91455761D01*
X159969030Y-91455761D02*
X159921411Y-91408142D01*
X159921411Y-91408142D02*
X159873792Y-91312904D01*
X159873792Y-91312904D02*
X159873792Y-91170047D01*
X159873792Y-91170047D02*
X159921411Y-91074809D01*
X159921411Y-91074809D02*
X159969030Y-91027190D01*
X159969030Y-91027190D02*
X160064268Y-90979571D01*
X160064268Y-90979571D02*
X160445220Y-90979571D01*
X159540458Y-91503380D02*
X159302363Y-90503380D01*
X159302363Y-90503380D02*
X159111887Y-91217666D01*
X159111887Y-91217666D02*
X158921411Y-90503380D01*
X158921411Y-90503380D02*
X158683316Y-91503380D01*
X157730935Y-90503380D02*
X158064268Y-90979571D01*
X158302363Y-90503380D02*
X158302363Y-91503380D01*
X158302363Y-91503380D02*
X157921411Y-91503380D01*
X157921411Y-91503380D02*
X157826173Y-91455761D01*
X157826173Y-91455761D02*
X157778554Y-91408142D01*
X157778554Y-91408142D02*
X157730935Y-91312904D01*
X157730935Y-91312904D02*
X157730935Y-91170047D01*
X157730935Y-91170047D02*
X157778554Y-91074809D01*
X157778554Y-91074809D02*
X157826173Y-91027190D01*
X157826173Y-91027190D02*
X157921411Y-90979571D01*
X157921411Y-90979571D02*
X158302363Y-90979571D01*
X156873792Y-91170047D02*
X156873792Y-90503380D01*
X157111887Y-91551000D02*
X157349982Y-90836714D01*
X157349982Y-90836714D02*
X156730935Y-90836714D01*
X158223179Y-110486866D02*
X158985084Y-110486866D01*
X159794607Y-110344009D02*
X159937464Y-110391628D01*
X159937464Y-110391628D02*
X159985083Y-110439247D01*
X159985083Y-110439247D02*
X160032702Y-110534485D01*
X160032702Y-110534485D02*
X160032702Y-110677342D01*
X160032702Y-110677342D02*
X159985083Y-110772580D01*
X159985083Y-110772580D02*
X159937464Y-110820200D01*
X159937464Y-110820200D02*
X159842226Y-110867819D01*
X159842226Y-110867819D02*
X159461274Y-110867819D01*
X159461274Y-110867819D02*
X159461274Y-109867819D01*
X159461274Y-109867819D02*
X159794607Y-109867819D01*
X159794607Y-109867819D02*
X159889845Y-109915438D01*
X159889845Y-109915438D02*
X159937464Y-109963057D01*
X159937464Y-109963057D02*
X159985083Y-110058295D01*
X159985083Y-110058295D02*
X159985083Y-110153533D01*
X159985083Y-110153533D02*
X159937464Y-110248771D01*
X159937464Y-110248771D02*
X159889845Y-110296390D01*
X159889845Y-110296390D02*
X159794607Y-110344009D01*
X159794607Y-110344009D02*
X159461274Y-110344009D01*
X160413655Y-110582104D02*
X160889845Y-110582104D01*
X160318417Y-110867819D02*
X160651750Y-109867819D01*
X160651750Y-109867819D02*
X160985083Y-110867819D01*
X161175560Y-109867819D02*
X161746988Y-109867819D01*
X161461274Y-110867819D02*
X161461274Y-109867819D01*
X161937465Y-109867819D02*
X162508893Y-109867819D01*
X162223179Y-110867819D02*
X162223179Y-109867819D01*
X200374020Y-90681133D02*
X199612116Y-90681133D01*
X198802592Y-90823990D02*
X198659735Y-90776371D01*
X198659735Y-90776371D02*
X198612116Y-90728752D01*
X198612116Y-90728752D02*
X198564497Y-90633514D01*
X198564497Y-90633514D02*
X198564497Y-90490657D01*
X198564497Y-90490657D02*
X198612116Y-90395419D01*
X198612116Y-90395419D02*
X198659735Y-90347800D01*
X198659735Y-90347800D02*
X198754973Y-90300180D01*
X198754973Y-90300180D02*
X199135925Y-90300180D01*
X199135925Y-90300180D02*
X199135925Y-91300180D01*
X199135925Y-91300180D02*
X198802592Y-91300180D01*
X198802592Y-91300180D02*
X198707354Y-91252561D01*
X198707354Y-91252561D02*
X198659735Y-91204942D01*
X198659735Y-91204942D02*
X198612116Y-91109704D01*
X198612116Y-91109704D02*
X198612116Y-91014466D01*
X198612116Y-91014466D02*
X198659735Y-90919228D01*
X198659735Y-90919228D02*
X198707354Y-90871609D01*
X198707354Y-90871609D02*
X198802592Y-90823990D01*
X198802592Y-90823990D02*
X199135925Y-90823990D01*
X198183544Y-90585895D02*
X197707354Y-90585895D01*
X198278782Y-90300180D02*
X197945449Y-91300180D01*
X197945449Y-91300180D02*
X197612116Y-90300180D01*
X197421639Y-91300180D02*
X196850211Y-91300180D01*
X197135925Y-90300180D02*
X197135925Y-91300180D01*
X196659734Y-91300180D02*
X196088306Y-91300180D01*
X196374020Y-90300180D02*
X196374020Y-91300180D01*
X122050417Y-107818923D02*
X122383750Y-107818923D01*
X121983750Y-108047495D02*
X122217084Y-107247495D01*
X122217084Y-107247495D02*
X122450417Y-108047495D01*
X122683750Y-108047495D02*
X122683750Y-107247495D01*
X122683750Y-107247495D02*
X122850417Y-107247495D01*
X122850417Y-107247495D02*
X122950417Y-107285590D01*
X122950417Y-107285590D02*
X123017084Y-107361780D01*
X123017084Y-107361780D02*
X123050417Y-107437971D01*
X123050417Y-107437971D02*
X123083750Y-107590352D01*
X123083750Y-107590352D02*
X123083750Y-107704638D01*
X123083750Y-107704638D02*
X123050417Y-107857019D01*
X123050417Y-107857019D02*
X123017084Y-107933209D01*
X123017084Y-107933209D02*
X122950417Y-108009400D01*
X122950417Y-108009400D02*
X122850417Y-108047495D01*
X122850417Y-108047495D02*
X122683750Y-108047495D01*
X123750417Y-108047495D02*
X123350417Y-108047495D01*
X123550417Y-108047495D02*
X123550417Y-107247495D01*
X123550417Y-107247495D02*
X123483750Y-107361780D01*
X123483750Y-107361780D02*
X123417084Y-107437971D01*
X123417084Y-107437971D02*
X123350417Y-107476066D01*
X120018417Y-99551285D02*
X120051750Y-99513190D01*
X120051750Y-99513190D02*
X120118417Y-99475095D01*
X120118417Y-99475095D02*
X120285084Y-99475095D01*
X120285084Y-99475095D02*
X120351750Y-99513190D01*
X120351750Y-99513190D02*
X120385084Y-99551285D01*
X120385084Y-99551285D02*
X120418417Y-99627476D01*
X120418417Y-99627476D02*
X120418417Y-99703666D01*
X120418417Y-99703666D02*
X120385084Y-99817952D01*
X120385084Y-99817952D02*
X119985084Y-100275095D01*
X119985084Y-100275095D02*
X120418417Y-100275095D01*
X112714284Y-99525895D02*
X112380950Y-99525895D01*
X112380950Y-99525895D02*
X112347617Y-99906847D01*
X112347617Y-99906847D02*
X112380950Y-99868752D01*
X112380950Y-99868752D02*
X112447617Y-99830657D01*
X112447617Y-99830657D02*
X112614284Y-99830657D01*
X112614284Y-99830657D02*
X112680950Y-99868752D01*
X112680950Y-99868752D02*
X112714284Y-99906847D01*
X112714284Y-99906847D02*
X112747617Y-99983038D01*
X112747617Y-99983038D02*
X112747617Y-100173514D01*
X112747617Y-100173514D02*
X112714284Y-100249704D01*
X112714284Y-100249704D02*
X112680950Y-100287800D01*
X112680950Y-100287800D02*
X112614284Y-100325895D01*
X112614284Y-100325895D02*
X112447617Y-100325895D01*
X112447617Y-100325895D02*
X112380950Y-100287800D01*
X112380950Y-100287800D02*
X112347617Y-100249704D01*
X92096390Y-100764782D02*
X92058295Y-100831449D01*
X92058295Y-100831449D02*
X92058295Y-100931449D01*
X92058295Y-100931449D02*
X92096390Y-101031449D01*
X92096390Y-101031449D02*
X92172580Y-101098116D01*
X92172580Y-101098116D02*
X92248771Y-101131449D01*
X92248771Y-101131449D02*
X92401152Y-101164782D01*
X92401152Y-101164782D02*
X92515438Y-101164782D01*
X92515438Y-101164782D02*
X92667819Y-101131449D01*
X92667819Y-101131449D02*
X92744009Y-101098116D01*
X92744009Y-101098116D02*
X92820200Y-101031449D01*
X92820200Y-101031449D02*
X92858295Y-100931449D01*
X92858295Y-100931449D02*
X92858295Y-100864782D01*
X92858295Y-100864782D02*
X92820200Y-100764782D01*
X92820200Y-100764782D02*
X92782104Y-100731449D01*
X92782104Y-100731449D02*
X92515438Y-100731449D01*
X92515438Y-100731449D02*
X92515438Y-100864782D01*
X92858295Y-100431449D02*
X92058295Y-100431449D01*
X92058295Y-100431449D02*
X92858295Y-100031449D01*
X92858295Y-100031449D02*
X92058295Y-100031449D01*
X92858295Y-99698116D02*
X92058295Y-99698116D01*
X92058295Y-99698116D02*
X92058295Y-99531449D01*
X92058295Y-99531449D02*
X92096390Y-99431449D01*
X92096390Y-99431449D02*
X92172580Y-99364783D01*
X92172580Y-99364783D02*
X92248771Y-99331449D01*
X92248771Y-99331449D02*
X92401152Y-99298116D01*
X92401152Y-99298116D02*
X92515438Y-99298116D01*
X92515438Y-99298116D02*
X92667819Y-99331449D01*
X92667819Y-99331449D02*
X92744009Y-99364783D01*
X92744009Y-99364783D02*
X92820200Y-99431449D01*
X92820200Y-99431449D02*
X92858295Y-99531449D01*
X92858295Y-99531449D02*
X92858295Y-99698116D01*
X143071620Y-90401780D02*
X143071620Y-91401780D01*
X143071620Y-91401780D02*
X142690668Y-91401780D01*
X142690668Y-91401780D02*
X142595430Y-91354161D01*
X142595430Y-91354161D02*
X142547811Y-91306542D01*
X142547811Y-91306542D02*
X142500192Y-91211304D01*
X142500192Y-91211304D02*
X142500192Y-91068447D01*
X142500192Y-91068447D02*
X142547811Y-90973209D01*
X142547811Y-90973209D02*
X142595430Y-90925590D01*
X142595430Y-90925590D02*
X142690668Y-90877971D01*
X142690668Y-90877971D02*
X143071620Y-90877971D01*
X142166858Y-91401780D02*
X141928763Y-90401780D01*
X141928763Y-90401780D02*
X141738287Y-91116066D01*
X141738287Y-91116066D02*
X141547811Y-90401780D01*
X141547811Y-90401780D02*
X141309716Y-91401780D01*
X140357335Y-90401780D02*
X140690668Y-90877971D01*
X140928763Y-90401780D02*
X140928763Y-91401780D01*
X140928763Y-91401780D02*
X140547811Y-91401780D01*
X140547811Y-91401780D02*
X140452573Y-91354161D01*
X140452573Y-91354161D02*
X140404954Y-91306542D01*
X140404954Y-91306542D02*
X140357335Y-91211304D01*
X140357335Y-91211304D02*
X140357335Y-91068447D01*
X140357335Y-91068447D02*
X140404954Y-90973209D01*
X140404954Y-90973209D02*
X140452573Y-90925590D01*
X140452573Y-90925590D02*
X140547811Y-90877971D01*
X140547811Y-90877971D02*
X140928763Y-90877971D01*
X139452573Y-91401780D02*
X139928763Y-91401780D01*
X139928763Y-91401780D02*
X139976382Y-90925590D01*
X139976382Y-90925590D02*
X139928763Y-90973209D01*
X139928763Y-90973209D02*
X139833525Y-91020828D01*
X139833525Y-91020828D02*
X139595430Y-91020828D01*
X139595430Y-91020828D02*
X139500192Y-90973209D01*
X139500192Y-90973209D02*
X139452573Y-90925590D01*
X139452573Y-90925590D02*
X139404954Y-90830352D01*
X139404954Y-90830352D02*
X139404954Y-90592257D01*
X139404954Y-90592257D02*
X139452573Y-90497019D01*
X139452573Y-90497019D02*
X139500192Y-90449400D01*
X139500192Y-90449400D02*
X139595430Y-90401780D01*
X139595430Y-90401780D02*
X139833525Y-90401780D01*
X139833525Y-90401780D02*
X139928763Y-90449400D01*
X139928763Y-90449400D02*
X139976382Y-90497019D01*
X119510417Y-107818923D02*
X119843750Y-107818923D01*
X119443750Y-108047495D02*
X119677084Y-107247495D01*
X119677084Y-107247495D02*
X119910417Y-108047495D01*
X120143750Y-108047495D02*
X120143750Y-107247495D01*
X120143750Y-107247495D02*
X120310417Y-107247495D01*
X120310417Y-107247495D02*
X120410417Y-107285590D01*
X120410417Y-107285590D02*
X120477084Y-107361780D01*
X120477084Y-107361780D02*
X120510417Y-107437971D01*
X120510417Y-107437971D02*
X120543750Y-107590352D01*
X120543750Y-107590352D02*
X120543750Y-107704638D01*
X120543750Y-107704638D02*
X120510417Y-107857019D01*
X120510417Y-107857019D02*
X120477084Y-107933209D01*
X120477084Y-107933209D02*
X120410417Y-108009400D01*
X120410417Y-108009400D02*
X120310417Y-108047495D01*
X120310417Y-108047495D02*
X120143750Y-108047495D01*
X120977084Y-107247495D02*
X121043750Y-107247495D01*
X121043750Y-107247495D02*
X121110417Y-107285590D01*
X121110417Y-107285590D02*
X121143750Y-107323685D01*
X121143750Y-107323685D02*
X121177084Y-107399876D01*
X121177084Y-107399876D02*
X121210417Y-107552257D01*
X121210417Y-107552257D02*
X121210417Y-107742733D01*
X121210417Y-107742733D02*
X121177084Y-107895114D01*
X121177084Y-107895114D02*
X121143750Y-107971304D01*
X121143750Y-107971304D02*
X121110417Y-108009400D01*
X121110417Y-108009400D02*
X121043750Y-108047495D01*
X121043750Y-108047495D02*
X120977084Y-108047495D01*
X120977084Y-108047495D02*
X120910417Y-108009400D01*
X120910417Y-108009400D02*
X120877084Y-107971304D01*
X120877084Y-107971304D02*
X120843750Y-107895114D01*
X120843750Y-107895114D02*
X120810417Y-107742733D01*
X120810417Y-107742733D02*
X120810417Y-107552257D01*
X120810417Y-107552257D02*
X120843750Y-107399876D01*
X120843750Y-107399876D02*
X120877084Y-107323685D01*
X120877084Y-107323685D02*
X120910417Y-107285590D01*
X120910417Y-107285590D02*
X120977084Y-107247495D01*
X86990923Y-100763382D02*
X86990923Y-100430049D01*
X87219495Y-100830049D02*
X86419495Y-100596716D01*
X86419495Y-100596716D02*
X87219495Y-100363382D01*
X87219495Y-100130049D02*
X86419495Y-100130049D01*
X86419495Y-100130049D02*
X86419495Y-99963382D01*
X86419495Y-99963382D02*
X86457590Y-99863382D01*
X86457590Y-99863382D02*
X86533780Y-99796716D01*
X86533780Y-99796716D02*
X86609971Y-99763382D01*
X86609971Y-99763382D02*
X86762352Y-99730049D01*
X86762352Y-99730049D02*
X86876638Y-99730049D01*
X86876638Y-99730049D02*
X87029019Y-99763382D01*
X87029019Y-99763382D02*
X87105209Y-99796716D01*
X87105209Y-99796716D02*
X87181400Y-99863382D01*
X87181400Y-99863382D02*
X87219495Y-99963382D01*
X87219495Y-99963382D02*
X87219495Y-100130049D01*
X86419495Y-99296716D02*
X86419495Y-99230049D01*
X86419495Y-99230049D02*
X86457590Y-99163382D01*
X86457590Y-99163382D02*
X86495685Y-99130049D01*
X86495685Y-99130049D02*
X86571876Y-99096716D01*
X86571876Y-99096716D02*
X86724257Y-99063382D01*
X86724257Y-99063382D02*
X86914733Y-99063382D01*
X86914733Y-99063382D02*
X87067114Y-99096716D01*
X87067114Y-99096716D02*
X87143304Y-99130049D01*
X87143304Y-99130049D02*
X87181400Y-99163382D01*
X87181400Y-99163382D02*
X87219495Y-99230049D01*
X87219495Y-99230049D02*
X87219495Y-99296716D01*
X87219495Y-99296716D02*
X87181400Y-99363382D01*
X87181400Y-99363382D02*
X87143304Y-99396716D01*
X87143304Y-99396716D02*
X87067114Y-99430049D01*
X87067114Y-99430049D02*
X86914733Y-99463382D01*
X86914733Y-99463382D02*
X86724257Y-99463382D01*
X86724257Y-99463382D02*
X86571876Y-99430049D01*
X86571876Y-99430049D02*
X86495685Y-99396716D01*
X86495685Y-99396716D02*
X86457590Y-99363382D01*
X86457590Y-99363382D02*
X86419495Y-99296716D01*
X186302420Y-90782733D02*
X185540516Y-90782733D01*
X184730992Y-90925590D02*
X184588135Y-90877971D01*
X184588135Y-90877971D02*
X184540516Y-90830352D01*
X184540516Y-90830352D02*
X184492897Y-90735114D01*
X184492897Y-90735114D02*
X184492897Y-90592257D01*
X184492897Y-90592257D02*
X184540516Y-90497019D01*
X184540516Y-90497019D02*
X184588135Y-90449400D01*
X184588135Y-90449400D02*
X184683373Y-90401780D01*
X184683373Y-90401780D02*
X185064325Y-90401780D01*
X185064325Y-90401780D02*
X185064325Y-91401780D01*
X185064325Y-91401780D02*
X184730992Y-91401780D01*
X184730992Y-91401780D02*
X184635754Y-91354161D01*
X184635754Y-91354161D02*
X184588135Y-91306542D01*
X184588135Y-91306542D02*
X184540516Y-91211304D01*
X184540516Y-91211304D02*
X184540516Y-91116066D01*
X184540516Y-91116066D02*
X184588135Y-91020828D01*
X184588135Y-91020828D02*
X184635754Y-90973209D01*
X184635754Y-90973209D02*
X184730992Y-90925590D01*
X184730992Y-90925590D02*
X185064325Y-90925590D01*
X184111944Y-90687495D02*
X183635754Y-90687495D01*
X184207182Y-90401780D02*
X183873849Y-91401780D01*
X183873849Y-91401780D02*
X183540516Y-90401780D01*
X183350039Y-91401780D02*
X182778611Y-91401780D01*
X183064325Y-90401780D02*
X183064325Y-91401780D01*
X182588134Y-91401780D02*
X182016706Y-91401780D01*
X182302420Y-90401780D02*
X182302420Y-91401780D01*
X87219495Y-105460849D02*
X86838542Y-105694182D01*
X87219495Y-105860849D02*
X86419495Y-105860849D01*
X86419495Y-105860849D02*
X86419495Y-105594182D01*
X86419495Y-105594182D02*
X86457590Y-105527516D01*
X86457590Y-105527516D02*
X86495685Y-105494182D01*
X86495685Y-105494182D02*
X86571876Y-105460849D01*
X86571876Y-105460849D02*
X86686161Y-105460849D01*
X86686161Y-105460849D02*
X86762352Y-105494182D01*
X86762352Y-105494182D02*
X86800447Y-105527516D01*
X86800447Y-105527516D02*
X86838542Y-105594182D01*
X86838542Y-105594182D02*
X86838542Y-105860849D01*
X86800447Y-105160849D02*
X86800447Y-104927516D01*
X87219495Y-104827516D02*
X87219495Y-105160849D01*
X87219495Y-105160849D02*
X86419495Y-105160849D01*
X86419495Y-105160849D02*
X86419495Y-104827516D01*
X86800447Y-104294183D02*
X86800447Y-104527516D01*
X87219495Y-104527516D02*
X86419495Y-104527516D01*
X86419495Y-104527516D02*
X86419495Y-104194183D01*
X123009217Y-100275095D02*
X122609217Y-100275095D01*
X122809217Y-100275095D02*
X122809217Y-99475095D01*
X122809217Y-99475095D02*
X122742550Y-99589380D01*
X122742550Y-99589380D02*
X122675884Y-99665571D01*
X122675884Y-99665571D02*
X122609217Y-99703666D01*
X95726020Y-90401780D02*
X95726020Y-91401780D01*
X95726020Y-91401780D02*
X95345068Y-91401780D01*
X95345068Y-91401780D02*
X95249830Y-91354161D01*
X95249830Y-91354161D02*
X95202211Y-91306542D01*
X95202211Y-91306542D02*
X95154592Y-91211304D01*
X95154592Y-91211304D02*
X95154592Y-91068447D01*
X95154592Y-91068447D02*
X95202211Y-90973209D01*
X95202211Y-90973209D02*
X95249830Y-90925590D01*
X95249830Y-90925590D02*
X95345068Y-90877971D01*
X95345068Y-90877971D02*
X95726020Y-90877971D01*
X94821258Y-91401780D02*
X94583163Y-90401780D01*
X94583163Y-90401780D02*
X94392687Y-91116066D01*
X94392687Y-91116066D02*
X94202211Y-90401780D01*
X94202211Y-90401780D02*
X93964116Y-91401780D01*
X93011735Y-90401780D02*
X93345068Y-90877971D01*
X93583163Y-90401780D02*
X93583163Y-91401780D01*
X93583163Y-91401780D02*
X93202211Y-91401780D01*
X93202211Y-91401780D02*
X93106973Y-91354161D01*
X93106973Y-91354161D02*
X93059354Y-91306542D01*
X93059354Y-91306542D02*
X93011735Y-91211304D01*
X93011735Y-91211304D02*
X93011735Y-91068447D01*
X93011735Y-91068447D02*
X93059354Y-90973209D01*
X93059354Y-90973209D02*
X93106973Y-90925590D01*
X93106973Y-90925590D02*
X93202211Y-90877971D01*
X93202211Y-90877971D02*
X93583163Y-90877971D01*
X92440306Y-90973209D02*
X92535544Y-91020828D01*
X92535544Y-91020828D02*
X92583163Y-91068447D01*
X92583163Y-91068447D02*
X92630782Y-91163685D01*
X92630782Y-91163685D02*
X92630782Y-91211304D01*
X92630782Y-91211304D02*
X92583163Y-91306542D01*
X92583163Y-91306542D02*
X92535544Y-91354161D01*
X92535544Y-91354161D02*
X92440306Y-91401780D01*
X92440306Y-91401780D02*
X92249830Y-91401780D01*
X92249830Y-91401780D02*
X92154592Y-91354161D01*
X92154592Y-91354161D02*
X92106973Y-91306542D01*
X92106973Y-91306542D02*
X92059354Y-91211304D01*
X92059354Y-91211304D02*
X92059354Y-91163685D01*
X92059354Y-91163685D02*
X92106973Y-91068447D01*
X92106973Y-91068447D02*
X92154592Y-91020828D01*
X92154592Y-91020828D02*
X92249830Y-90973209D01*
X92249830Y-90973209D02*
X92440306Y-90973209D01*
X92440306Y-90973209D02*
X92535544Y-90925590D01*
X92535544Y-90925590D02*
X92583163Y-90877971D01*
X92583163Y-90877971D02*
X92630782Y-90782733D01*
X92630782Y-90782733D02*
X92630782Y-90592257D01*
X92630782Y-90592257D02*
X92583163Y-90497019D01*
X92583163Y-90497019D02*
X92535544Y-90449400D01*
X92535544Y-90449400D02*
X92440306Y-90401780D01*
X92440306Y-90401780D02*
X92249830Y-90401780D01*
X92249830Y-90401780D02*
X92154592Y-90449400D01*
X92154592Y-90449400D02*
X92106973Y-90497019D01*
X92106973Y-90497019D02*
X92059354Y-90592257D01*
X92059354Y-90592257D02*
X92059354Y-90782733D01*
X92059354Y-90782733D02*
X92106973Y-90877971D01*
X92106973Y-90877971D02*
X92154592Y-90925590D01*
X92154592Y-90925590D02*
X92249830Y-90973209D01*
X86990923Y-98223382D02*
X86990923Y-97890049D01*
X87219495Y-98290049D02*
X86419495Y-98056716D01*
X86419495Y-98056716D02*
X87219495Y-97823382D01*
X87219495Y-97590049D02*
X86419495Y-97590049D01*
X86419495Y-97590049D02*
X86419495Y-97423382D01*
X86419495Y-97423382D02*
X86457590Y-97323382D01*
X86457590Y-97323382D02*
X86533780Y-97256716D01*
X86533780Y-97256716D02*
X86609971Y-97223382D01*
X86609971Y-97223382D02*
X86762352Y-97190049D01*
X86762352Y-97190049D02*
X86876638Y-97190049D01*
X86876638Y-97190049D02*
X87029019Y-97223382D01*
X87029019Y-97223382D02*
X87105209Y-97256716D01*
X87105209Y-97256716D02*
X87181400Y-97323382D01*
X87181400Y-97323382D02*
X87219495Y-97423382D01*
X87219495Y-97423382D02*
X87219495Y-97590049D01*
X87219495Y-96523382D02*
X87219495Y-96923382D01*
X87219495Y-96723382D02*
X86419495Y-96723382D01*
X86419495Y-96723382D02*
X86533780Y-96790049D01*
X86533780Y-96790049D02*
X86609971Y-96856716D01*
X86609971Y-96856716D02*
X86648066Y-96923382D01*
X104891084Y-107298295D02*
X104557750Y-107298295D01*
X104557750Y-107298295D02*
X104524417Y-107679247D01*
X104524417Y-107679247D02*
X104557750Y-107641152D01*
X104557750Y-107641152D02*
X104624417Y-107603057D01*
X104624417Y-107603057D02*
X104791084Y-107603057D01*
X104791084Y-107603057D02*
X104857750Y-107641152D01*
X104857750Y-107641152D02*
X104891084Y-107679247D01*
X104891084Y-107679247D02*
X104924417Y-107755438D01*
X104924417Y-107755438D02*
X104924417Y-107945914D01*
X104924417Y-107945914D02*
X104891084Y-108022104D01*
X104891084Y-108022104D02*
X104857750Y-108060200D01*
X104857750Y-108060200D02*
X104791084Y-108098295D01*
X104791084Y-108098295D02*
X104624417Y-108098295D01*
X104624417Y-108098295D02*
X104557750Y-108060200D01*
X104557750Y-108060200D02*
X104524417Y-108022104D01*
X105124417Y-107298295D02*
X105357751Y-108098295D01*
X105357751Y-108098295D02*
X105591084Y-107298295D01*
X117445084Y-99525895D02*
X117878417Y-99525895D01*
X117878417Y-99525895D02*
X117645084Y-99830657D01*
X117645084Y-99830657D02*
X117745084Y-99830657D01*
X117745084Y-99830657D02*
X117811750Y-99868752D01*
X117811750Y-99868752D02*
X117845084Y-99906847D01*
X117845084Y-99906847D02*
X117878417Y-99983038D01*
X117878417Y-99983038D02*
X117878417Y-100173514D01*
X117878417Y-100173514D02*
X117845084Y-100249704D01*
X117845084Y-100249704D02*
X117811750Y-100287800D01*
X117811750Y-100287800D02*
X117745084Y-100325895D01*
X117745084Y-100325895D02*
X117545084Y-100325895D01*
X117545084Y-100325895D02*
X117478417Y-100287800D01*
X117478417Y-100287800D02*
X117445084Y-100249704D01*
D11*
X139443518Y-83764362D02*
X138173518Y-83764362D01*
X139322565Y-82433885D02*
X139383042Y-82494361D01*
X139383042Y-82494361D02*
X139443518Y-82675790D01*
X139443518Y-82675790D02*
X139443518Y-82796742D01*
X139443518Y-82796742D02*
X139383042Y-82978171D01*
X139383042Y-82978171D02*
X139262089Y-83099123D01*
X139262089Y-83099123D02*
X139141137Y-83159600D01*
X139141137Y-83159600D02*
X138899232Y-83220076D01*
X138899232Y-83220076D02*
X138717803Y-83220076D01*
X138717803Y-83220076D02*
X138475899Y-83159600D01*
X138475899Y-83159600D02*
X138354946Y-83099123D01*
X138354946Y-83099123D02*
X138233994Y-82978171D01*
X138233994Y-82978171D02*
X138173518Y-82796742D01*
X138173518Y-82796742D02*
X138173518Y-82675790D01*
X138173518Y-82675790D02*
X138233994Y-82494361D01*
X138233994Y-82494361D02*
X138294470Y-82433885D01*
X138173518Y-81284838D02*
X138173518Y-81889600D01*
X138173518Y-81889600D02*
X138778280Y-81950076D01*
X138778280Y-81950076D02*
X138717803Y-81889600D01*
X138717803Y-81889600D02*
X138657327Y-81768647D01*
X138657327Y-81768647D02*
X138657327Y-81466266D01*
X138657327Y-81466266D02*
X138717803Y-81345314D01*
X138717803Y-81345314D02*
X138778280Y-81284838D01*
X138778280Y-81284838D02*
X138899232Y-81224361D01*
X138899232Y-81224361D02*
X139201613Y-81224361D01*
X139201613Y-81224361D02*
X139322565Y-81284838D01*
X139322565Y-81284838D02*
X139383042Y-81345314D01*
X139383042Y-81345314D02*
X139443518Y-81466266D01*
X139443518Y-81466266D02*
X139443518Y-81768647D01*
X139443518Y-81768647D02*
X139383042Y-81889600D01*
X139383042Y-81889600D02*
X139322565Y-81950076D01*
D10*
X196426918Y-80877580D02*
X196379299Y-80925200D01*
X196379299Y-80925200D02*
X196236442Y-80972819D01*
X196236442Y-80972819D02*
X196141204Y-80972819D01*
X196141204Y-80972819D02*
X195998347Y-80925200D01*
X195998347Y-80925200D02*
X195903109Y-80829961D01*
X195903109Y-80829961D02*
X195855490Y-80734723D01*
X195855490Y-80734723D02*
X195807871Y-80544247D01*
X195807871Y-80544247D02*
X195807871Y-80401390D01*
X195807871Y-80401390D02*
X195855490Y-80210914D01*
X195855490Y-80210914D02*
X195903109Y-80115676D01*
X195903109Y-80115676D02*
X195998347Y-80020438D01*
X195998347Y-80020438D02*
X196141204Y-79972819D01*
X196141204Y-79972819D02*
X196236442Y-79972819D01*
X196236442Y-79972819D02*
X196379299Y-80020438D01*
X196379299Y-80020438D02*
X196426918Y-80068057D01*
X196712633Y-80306152D02*
X197093585Y-80306152D01*
X196855490Y-80972819D02*
X196855490Y-80115676D01*
X196855490Y-80115676D02*
X196903109Y-80020438D01*
X196903109Y-80020438D02*
X196998347Y-79972819D01*
X196998347Y-79972819D02*
X197093585Y-79972819D01*
X197950728Y-80972819D02*
X197379300Y-80972819D01*
X197665014Y-80972819D02*
X197665014Y-79972819D01*
X197665014Y-79972819D02*
X197569776Y-80115676D01*
X197569776Y-80115676D02*
X197474538Y-80210914D01*
X197474538Y-80210914D02*
X197379300Y-80258533D01*
D11*
X107146718Y-83713562D02*
X105876718Y-83713562D01*
X107025765Y-82383085D02*
X107086242Y-82443561D01*
X107086242Y-82443561D02*
X107146718Y-82624990D01*
X107146718Y-82624990D02*
X107146718Y-82745942D01*
X107146718Y-82745942D02*
X107086242Y-82927371D01*
X107086242Y-82927371D02*
X106965289Y-83048323D01*
X106965289Y-83048323D02*
X106844337Y-83108800D01*
X106844337Y-83108800D02*
X106602432Y-83169276D01*
X106602432Y-83169276D02*
X106421003Y-83169276D01*
X106421003Y-83169276D02*
X106179099Y-83108800D01*
X106179099Y-83108800D02*
X106058146Y-83048323D01*
X106058146Y-83048323D02*
X105937194Y-82927371D01*
X105937194Y-82927371D02*
X105876718Y-82745942D01*
X105876718Y-82745942D02*
X105876718Y-82624990D01*
X105876718Y-82624990D02*
X105937194Y-82443561D01*
X105937194Y-82443561D02*
X105997670Y-82383085D01*
X105876718Y-81959752D02*
X105876718Y-81113085D01*
X105876718Y-81113085D02*
X107146718Y-81657371D01*
D10*
X116438418Y-80775980D02*
X116390799Y-80823600D01*
X116390799Y-80823600D02*
X116247942Y-80871219D01*
X116247942Y-80871219D02*
X116152704Y-80871219D01*
X116152704Y-80871219D02*
X116009847Y-80823600D01*
X116009847Y-80823600D02*
X115914609Y-80728361D01*
X115914609Y-80728361D02*
X115866990Y-80633123D01*
X115866990Y-80633123D02*
X115819371Y-80442647D01*
X115819371Y-80442647D02*
X115819371Y-80299790D01*
X115819371Y-80299790D02*
X115866990Y-80109314D01*
X115866990Y-80109314D02*
X115914609Y-80014076D01*
X115914609Y-80014076D02*
X116009847Y-79918838D01*
X116009847Y-79918838D02*
X116152704Y-79871219D01*
X116152704Y-79871219D02*
X116247942Y-79871219D01*
X116247942Y-79871219D02*
X116390799Y-79918838D01*
X116390799Y-79918838D02*
X116438418Y-79966457D01*
X116724133Y-80204552D02*
X117105085Y-80204552D01*
X116866990Y-80871219D02*
X116866990Y-80014076D01*
X116866990Y-80014076D02*
X116914609Y-79918838D01*
X116914609Y-79918838D02*
X117009847Y-79871219D01*
X117009847Y-79871219D02*
X117105085Y-79871219D01*
X117343181Y-79871219D02*
X117962228Y-79871219D01*
X117962228Y-79871219D02*
X117628895Y-80252171D01*
X117628895Y-80252171D02*
X117771752Y-80252171D01*
X117771752Y-80252171D02*
X117866990Y-80299790D01*
X117866990Y-80299790D02*
X117914609Y-80347409D01*
X117914609Y-80347409D02*
X117962228Y-80442647D01*
X117962228Y-80442647D02*
X117962228Y-80680742D01*
X117962228Y-80680742D02*
X117914609Y-80775980D01*
X117914609Y-80775980D02*
X117866990Y-80823600D01*
X117866990Y-80823600D02*
X117771752Y-80871219D01*
X117771752Y-80871219D02*
X117486038Y-80871219D01*
X117486038Y-80871219D02*
X117390800Y-80823600D01*
X117390800Y-80823600D02*
X117343181Y-80775980D01*
X134540666Y-95212819D02*
X134540666Y-95927104D01*
X134540666Y-95927104D02*
X134493047Y-96069961D01*
X134493047Y-96069961D02*
X134397809Y-96165200D01*
X134397809Y-96165200D02*
X134254952Y-96212819D01*
X134254952Y-96212819D02*
X134159714Y-96212819D01*
X135445428Y-95546152D02*
X135445428Y-96212819D01*
X135207333Y-95165200D02*
X134969238Y-95879485D01*
X134969238Y-95879485D02*
X135588285Y-95879485D01*
X83418418Y-80725180D02*
X83370799Y-80772800D01*
X83370799Y-80772800D02*
X83227942Y-80820419D01*
X83227942Y-80820419D02*
X83132704Y-80820419D01*
X83132704Y-80820419D02*
X82989847Y-80772800D01*
X82989847Y-80772800D02*
X82894609Y-80677561D01*
X82894609Y-80677561D02*
X82846990Y-80582323D01*
X82846990Y-80582323D02*
X82799371Y-80391847D01*
X82799371Y-80391847D02*
X82799371Y-80248990D01*
X82799371Y-80248990D02*
X82846990Y-80058514D01*
X82846990Y-80058514D02*
X82894609Y-79963276D01*
X82894609Y-79963276D02*
X82989847Y-79868038D01*
X82989847Y-79868038D02*
X83132704Y-79820419D01*
X83132704Y-79820419D02*
X83227942Y-79820419D01*
X83227942Y-79820419D02*
X83370799Y-79868038D01*
X83370799Y-79868038D02*
X83418418Y-79915657D01*
X83704133Y-80153752D02*
X84085085Y-80153752D01*
X83846990Y-80820419D02*
X83846990Y-79963276D01*
X83846990Y-79963276D02*
X83894609Y-79868038D01*
X83894609Y-79868038D02*
X83989847Y-79820419D01*
X83989847Y-79820419D02*
X84085085Y-79820419D01*
X84561276Y-80248990D02*
X84466038Y-80201371D01*
X84466038Y-80201371D02*
X84418419Y-80153752D01*
X84418419Y-80153752D02*
X84370800Y-80058514D01*
X84370800Y-80058514D02*
X84370800Y-80010895D01*
X84370800Y-80010895D02*
X84418419Y-79915657D01*
X84418419Y-79915657D02*
X84466038Y-79868038D01*
X84466038Y-79868038D02*
X84561276Y-79820419D01*
X84561276Y-79820419D02*
X84751752Y-79820419D01*
X84751752Y-79820419D02*
X84846990Y-79868038D01*
X84846990Y-79868038D02*
X84894609Y-79915657D01*
X84894609Y-79915657D02*
X84942228Y-80010895D01*
X84942228Y-80010895D02*
X84942228Y-80058514D01*
X84942228Y-80058514D02*
X84894609Y-80153752D01*
X84894609Y-80153752D02*
X84846990Y-80201371D01*
X84846990Y-80201371D02*
X84751752Y-80248990D01*
X84751752Y-80248990D02*
X84561276Y-80248990D01*
X84561276Y-80248990D02*
X84466038Y-80296609D01*
X84466038Y-80296609D02*
X84418419Y-80344228D01*
X84418419Y-80344228D02*
X84370800Y-80439466D01*
X84370800Y-80439466D02*
X84370800Y-80629942D01*
X84370800Y-80629942D02*
X84418419Y-80725180D01*
X84418419Y-80725180D02*
X84466038Y-80772800D01*
X84466038Y-80772800D02*
X84561276Y-80820419D01*
X84561276Y-80820419D02*
X84751752Y-80820419D01*
X84751752Y-80820419D02*
X84846990Y-80772800D01*
X84846990Y-80772800D02*
X84894609Y-80725180D01*
X84894609Y-80725180D02*
X84942228Y-80629942D01*
X84942228Y-80629942D02*
X84942228Y-80439466D01*
X84942228Y-80439466D02*
X84894609Y-80344228D01*
X84894609Y-80344228D02*
X84846990Y-80296609D01*
X84846990Y-80296609D02*
X84751752Y-80248990D01*
X209216666Y-54471219D02*
X209216666Y-55185504D01*
X209216666Y-55185504D02*
X209169047Y-55328361D01*
X209169047Y-55328361D02*
X209073809Y-55423600D01*
X209073809Y-55423600D02*
X208930952Y-55471219D01*
X208930952Y-55471219D02*
X208835714Y-55471219D01*
X210121428Y-54471219D02*
X209930952Y-54471219D01*
X209930952Y-54471219D02*
X209835714Y-54518838D01*
X209835714Y-54518838D02*
X209788095Y-54566457D01*
X209788095Y-54566457D02*
X209692857Y-54709314D01*
X209692857Y-54709314D02*
X209645238Y-54899790D01*
X209645238Y-54899790D02*
X209645238Y-55280742D01*
X209645238Y-55280742D02*
X209692857Y-55375980D01*
X209692857Y-55375980D02*
X209740476Y-55423600D01*
X209740476Y-55423600D02*
X209835714Y-55471219D01*
X209835714Y-55471219D02*
X210026190Y-55471219D01*
X210026190Y-55471219D02*
X210121428Y-55423600D01*
X210121428Y-55423600D02*
X210169047Y-55375980D01*
X210169047Y-55375980D02*
X210216666Y-55280742D01*
X210216666Y-55280742D02*
X210216666Y-55042647D01*
X210216666Y-55042647D02*
X210169047Y-54947409D01*
X210169047Y-54947409D02*
X210121428Y-54899790D01*
X210121428Y-54899790D02*
X210026190Y-54852171D01*
X210026190Y-54852171D02*
X209835714Y-54852171D01*
X209835714Y-54852171D02*
X209740476Y-54899790D01*
X209740476Y-54899790D02*
X209692857Y-54947409D01*
X209692857Y-54947409D02*
X209645238Y-55042647D01*
X163791252Y-86519980D02*
X163743633Y-86567600D01*
X163743633Y-86567600D02*
X163600776Y-86615219D01*
X163600776Y-86615219D02*
X163505538Y-86615219D01*
X163505538Y-86615219D02*
X163362681Y-86567600D01*
X163362681Y-86567600D02*
X163267443Y-86472361D01*
X163267443Y-86472361D02*
X163219824Y-86377123D01*
X163219824Y-86377123D02*
X163172205Y-86186647D01*
X163172205Y-86186647D02*
X163172205Y-86043790D01*
X163172205Y-86043790D02*
X163219824Y-85853314D01*
X163219824Y-85853314D02*
X163267443Y-85758076D01*
X163267443Y-85758076D02*
X163362681Y-85662838D01*
X163362681Y-85662838D02*
X163505538Y-85615219D01*
X163505538Y-85615219D02*
X163600776Y-85615219D01*
X163600776Y-85615219D02*
X163743633Y-85662838D01*
X163743633Y-85662838D02*
X163791252Y-85710457D01*
X164219824Y-86615219D02*
X164219824Y-85615219D01*
X164219824Y-85996171D02*
X164315062Y-85948552D01*
X164315062Y-85948552D02*
X164505538Y-85948552D01*
X164505538Y-85948552D02*
X164600776Y-85996171D01*
X164600776Y-85996171D02*
X164648395Y-86043790D01*
X164648395Y-86043790D02*
X164696014Y-86139028D01*
X164696014Y-86139028D02*
X164696014Y-86424742D01*
X164696014Y-86424742D02*
X164648395Y-86519980D01*
X164648395Y-86519980D02*
X164600776Y-86567600D01*
X164600776Y-86567600D02*
X164505538Y-86615219D01*
X164505538Y-86615219D02*
X164315062Y-86615219D01*
X164315062Y-86615219D02*
X164219824Y-86567600D01*
X165553157Y-85615219D02*
X165362681Y-85615219D01*
X165362681Y-85615219D02*
X165267443Y-85662838D01*
X165267443Y-85662838D02*
X165219824Y-85710457D01*
X165219824Y-85710457D02*
X165124586Y-85853314D01*
X165124586Y-85853314D02*
X165076967Y-86043790D01*
X165076967Y-86043790D02*
X165076967Y-86424742D01*
X165076967Y-86424742D02*
X165124586Y-86519980D01*
X165124586Y-86519980D02*
X165172205Y-86567600D01*
X165172205Y-86567600D02*
X165267443Y-86615219D01*
X165267443Y-86615219D02*
X165457919Y-86615219D01*
X165457919Y-86615219D02*
X165553157Y-86567600D01*
X165553157Y-86567600D02*
X165600776Y-86519980D01*
X165600776Y-86519980D02*
X165648395Y-86424742D01*
X165648395Y-86424742D02*
X165648395Y-86186647D01*
X165648395Y-86186647D02*
X165600776Y-86091409D01*
X165600776Y-86091409D02*
X165553157Y-86043790D01*
X165553157Y-86043790D02*
X165457919Y-85996171D01*
X165457919Y-85996171D02*
X165267443Y-85996171D01*
X165267443Y-85996171D02*
X165172205Y-86043790D01*
X165172205Y-86043790D02*
X165124586Y-86091409D01*
X165124586Y-86091409D02*
X165076967Y-86186647D01*
X180555252Y-86469180D02*
X180507633Y-86516800D01*
X180507633Y-86516800D02*
X180364776Y-86564419D01*
X180364776Y-86564419D02*
X180269538Y-86564419D01*
X180269538Y-86564419D02*
X180126681Y-86516800D01*
X180126681Y-86516800D02*
X180031443Y-86421561D01*
X180031443Y-86421561D02*
X179983824Y-86326323D01*
X179983824Y-86326323D02*
X179936205Y-86135847D01*
X179936205Y-86135847D02*
X179936205Y-85992990D01*
X179936205Y-85992990D02*
X179983824Y-85802514D01*
X179983824Y-85802514D02*
X180031443Y-85707276D01*
X180031443Y-85707276D02*
X180126681Y-85612038D01*
X180126681Y-85612038D02*
X180269538Y-85564419D01*
X180269538Y-85564419D02*
X180364776Y-85564419D01*
X180364776Y-85564419D02*
X180507633Y-85612038D01*
X180507633Y-85612038D02*
X180555252Y-85659657D01*
X180983824Y-86564419D02*
X180983824Y-85564419D01*
X180983824Y-85945371D02*
X181079062Y-85897752D01*
X181079062Y-85897752D02*
X181269538Y-85897752D01*
X181269538Y-85897752D02*
X181364776Y-85945371D01*
X181364776Y-85945371D02*
X181412395Y-85992990D01*
X181412395Y-85992990D02*
X181460014Y-86088228D01*
X181460014Y-86088228D02*
X181460014Y-86373942D01*
X181460014Y-86373942D02*
X181412395Y-86469180D01*
X181412395Y-86469180D02*
X181364776Y-86516800D01*
X181364776Y-86516800D02*
X181269538Y-86564419D01*
X181269538Y-86564419D02*
X181079062Y-86564419D01*
X181079062Y-86564419D02*
X180983824Y-86516800D01*
X181840967Y-85659657D02*
X181888586Y-85612038D01*
X181888586Y-85612038D02*
X181983824Y-85564419D01*
X181983824Y-85564419D02*
X182221919Y-85564419D01*
X182221919Y-85564419D02*
X182317157Y-85612038D01*
X182317157Y-85612038D02*
X182364776Y-85659657D01*
X182364776Y-85659657D02*
X182412395Y-85754895D01*
X182412395Y-85754895D02*
X182412395Y-85850133D01*
X182412395Y-85850133D02*
X182364776Y-85992990D01*
X182364776Y-85992990D02*
X181793348Y-86564419D01*
X181793348Y-86564419D02*
X182412395Y-86564419D01*
X196230952Y-86672380D02*
X196183333Y-86720000D01*
X196183333Y-86720000D02*
X196040476Y-86767619D01*
X196040476Y-86767619D02*
X195945238Y-86767619D01*
X195945238Y-86767619D02*
X195802381Y-86720000D01*
X195802381Y-86720000D02*
X195707143Y-86624761D01*
X195707143Y-86624761D02*
X195659524Y-86529523D01*
X195659524Y-86529523D02*
X195611905Y-86339047D01*
X195611905Y-86339047D02*
X195611905Y-86196190D01*
X195611905Y-86196190D02*
X195659524Y-86005714D01*
X195659524Y-86005714D02*
X195707143Y-85910476D01*
X195707143Y-85910476D02*
X195802381Y-85815238D01*
X195802381Y-85815238D02*
X195945238Y-85767619D01*
X195945238Y-85767619D02*
X196040476Y-85767619D01*
X196040476Y-85767619D02*
X196183333Y-85815238D01*
X196183333Y-85815238D02*
X196230952Y-85862857D01*
X196659524Y-86767619D02*
X196659524Y-85767619D01*
X196659524Y-86148571D02*
X196754762Y-86100952D01*
X196754762Y-86100952D02*
X196945238Y-86100952D01*
X196945238Y-86100952D02*
X197040476Y-86148571D01*
X197040476Y-86148571D02*
X197088095Y-86196190D01*
X197088095Y-86196190D02*
X197135714Y-86291428D01*
X197135714Y-86291428D02*
X197135714Y-86577142D01*
X197135714Y-86577142D02*
X197088095Y-86672380D01*
X197088095Y-86672380D02*
X197040476Y-86720000D01*
X197040476Y-86720000D02*
X196945238Y-86767619D01*
X196945238Y-86767619D02*
X196754762Y-86767619D01*
X196754762Y-86767619D02*
X196659524Y-86720000D01*
X198088095Y-86767619D02*
X197516667Y-86767619D01*
X197802381Y-86767619D02*
X197802381Y-85767619D01*
X197802381Y-85767619D02*
X197707143Y-85910476D01*
X197707143Y-85910476D02*
X197611905Y-86005714D01*
X197611905Y-86005714D02*
X197516667Y-86053333D01*
X148645618Y-80623580D02*
X148597999Y-80671200D01*
X148597999Y-80671200D02*
X148455142Y-80718819D01*
X148455142Y-80718819D02*
X148359904Y-80718819D01*
X148359904Y-80718819D02*
X148217047Y-80671200D01*
X148217047Y-80671200D02*
X148121809Y-80575961D01*
X148121809Y-80575961D02*
X148074190Y-80480723D01*
X148074190Y-80480723D02*
X148026571Y-80290247D01*
X148026571Y-80290247D02*
X148026571Y-80147390D01*
X148026571Y-80147390D02*
X148074190Y-79956914D01*
X148074190Y-79956914D02*
X148121809Y-79861676D01*
X148121809Y-79861676D02*
X148217047Y-79766438D01*
X148217047Y-79766438D02*
X148359904Y-79718819D01*
X148359904Y-79718819D02*
X148455142Y-79718819D01*
X148455142Y-79718819D02*
X148597999Y-79766438D01*
X148597999Y-79766438D02*
X148645618Y-79814057D01*
X148931333Y-80052152D02*
X149312285Y-80052152D01*
X149074190Y-80718819D02*
X149074190Y-79861676D01*
X149074190Y-79861676D02*
X149121809Y-79766438D01*
X149121809Y-79766438D02*
X149217047Y-79718819D01*
X149217047Y-79718819D02*
X149312285Y-79718819D01*
X149550381Y-79718819D02*
X150217047Y-79718819D01*
X150217047Y-79718819D02*
X149788476Y-80718819D01*
D11*
X124355918Y-83764362D02*
X123085918Y-83764362D01*
X124234965Y-82433885D02*
X124295442Y-82494361D01*
X124295442Y-82494361D02*
X124355918Y-82675790D01*
X124355918Y-82675790D02*
X124355918Y-82796742D01*
X124355918Y-82796742D02*
X124295442Y-82978171D01*
X124295442Y-82978171D02*
X124174489Y-83099123D01*
X124174489Y-83099123D02*
X124053537Y-83159600D01*
X124053537Y-83159600D02*
X123811632Y-83220076D01*
X123811632Y-83220076D02*
X123630203Y-83220076D01*
X123630203Y-83220076D02*
X123388299Y-83159600D01*
X123388299Y-83159600D02*
X123267346Y-83099123D01*
X123267346Y-83099123D02*
X123146394Y-82978171D01*
X123146394Y-82978171D02*
X123085918Y-82796742D01*
X123085918Y-82796742D02*
X123085918Y-82675790D01*
X123085918Y-82675790D02*
X123146394Y-82494361D01*
X123146394Y-82494361D02*
X123206870Y-82433885D01*
X123085918Y-81345314D02*
X123085918Y-81587219D01*
X123085918Y-81587219D02*
X123146394Y-81708171D01*
X123146394Y-81708171D02*
X123206870Y-81768647D01*
X123206870Y-81768647D02*
X123388299Y-81889600D01*
X123388299Y-81889600D02*
X123630203Y-81950076D01*
X123630203Y-81950076D02*
X124114013Y-81950076D01*
X124114013Y-81950076D02*
X124234965Y-81889600D01*
X124234965Y-81889600D02*
X124295442Y-81829123D01*
X124295442Y-81829123D02*
X124355918Y-81708171D01*
X124355918Y-81708171D02*
X124355918Y-81466266D01*
X124355918Y-81466266D02*
X124295442Y-81345314D01*
X124295442Y-81345314D02*
X124234965Y-81284838D01*
X124234965Y-81284838D02*
X124114013Y-81224361D01*
X124114013Y-81224361D02*
X123811632Y-81224361D01*
X123811632Y-81224361D02*
X123690680Y-81284838D01*
X123690680Y-81284838D02*
X123630203Y-81345314D01*
X123630203Y-81345314D02*
X123569727Y-81466266D01*
X123569727Y-81466266D02*
X123569727Y-81708171D01*
X123569727Y-81708171D02*
X123630203Y-81829123D01*
X123630203Y-81829123D02*
X123690680Y-81889600D01*
X123690680Y-81889600D02*
X123811632Y-81950076D01*
X156829118Y-83815162D02*
X155559118Y-83815162D01*
X156708165Y-82484685D02*
X156768642Y-82545161D01*
X156768642Y-82545161D02*
X156829118Y-82726590D01*
X156829118Y-82726590D02*
X156829118Y-82847542D01*
X156829118Y-82847542D02*
X156768642Y-83028971D01*
X156768642Y-83028971D02*
X156647689Y-83149923D01*
X156647689Y-83149923D02*
X156526737Y-83210400D01*
X156526737Y-83210400D02*
X156284832Y-83270876D01*
X156284832Y-83270876D02*
X156103403Y-83270876D01*
X156103403Y-83270876D02*
X155861499Y-83210400D01*
X155861499Y-83210400D02*
X155740546Y-83149923D01*
X155740546Y-83149923D02*
X155619594Y-83028971D01*
X155619594Y-83028971D02*
X155559118Y-82847542D01*
X155559118Y-82847542D02*
X155559118Y-82726590D01*
X155559118Y-82726590D02*
X155619594Y-82545161D01*
X155619594Y-82545161D02*
X155680070Y-82484685D01*
X155982451Y-81396114D02*
X156829118Y-81396114D01*
X155498642Y-81698495D02*
X156405784Y-82000876D01*
X156405784Y-82000876D02*
X156405784Y-81214685D01*
D10*
X148478952Y-86418380D02*
X148431333Y-86466000D01*
X148431333Y-86466000D02*
X148288476Y-86513619D01*
X148288476Y-86513619D02*
X148193238Y-86513619D01*
X148193238Y-86513619D02*
X148050381Y-86466000D01*
X148050381Y-86466000D02*
X147955143Y-86370761D01*
X147955143Y-86370761D02*
X147907524Y-86275523D01*
X147907524Y-86275523D02*
X147859905Y-86085047D01*
X147859905Y-86085047D02*
X147859905Y-85942190D01*
X147859905Y-85942190D02*
X147907524Y-85751714D01*
X147907524Y-85751714D02*
X147955143Y-85656476D01*
X147955143Y-85656476D02*
X148050381Y-85561238D01*
X148050381Y-85561238D02*
X148193238Y-85513619D01*
X148193238Y-85513619D02*
X148288476Y-85513619D01*
X148288476Y-85513619D02*
X148431333Y-85561238D01*
X148431333Y-85561238D02*
X148478952Y-85608857D01*
X148907524Y-86513619D02*
X148907524Y-85513619D01*
X148907524Y-85894571D02*
X149002762Y-85846952D01*
X149002762Y-85846952D02*
X149193238Y-85846952D01*
X149193238Y-85846952D02*
X149288476Y-85894571D01*
X149288476Y-85894571D02*
X149336095Y-85942190D01*
X149336095Y-85942190D02*
X149383714Y-86037428D01*
X149383714Y-86037428D02*
X149383714Y-86323142D01*
X149383714Y-86323142D02*
X149336095Y-86418380D01*
X149336095Y-86418380D02*
X149288476Y-86466000D01*
X149288476Y-86466000D02*
X149193238Y-86513619D01*
X149193238Y-86513619D02*
X149002762Y-86513619D01*
X149002762Y-86513619D02*
X148907524Y-86466000D01*
X149717048Y-85513619D02*
X150383714Y-85513619D01*
X150383714Y-85513619D02*
X149955143Y-86513619D01*
X180598818Y-80623580D02*
X180551199Y-80671200D01*
X180551199Y-80671200D02*
X180408342Y-80718819D01*
X180408342Y-80718819D02*
X180313104Y-80718819D01*
X180313104Y-80718819D02*
X180170247Y-80671200D01*
X180170247Y-80671200D02*
X180075009Y-80575961D01*
X180075009Y-80575961D02*
X180027390Y-80480723D01*
X180027390Y-80480723D02*
X179979771Y-80290247D01*
X179979771Y-80290247D02*
X179979771Y-80147390D01*
X179979771Y-80147390D02*
X180027390Y-79956914D01*
X180027390Y-79956914D02*
X180075009Y-79861676D01*
X180075009Y-79861676D02*
X180170247Y-79766438D01*
X180170247Y-79766438D02*
X180313104Y-79718819D01*
X180313104Y-79718819D02*
X180408342Y-79718819D01*
X180408342Y-79718819D02*
X180551199Y-79766438D01*
X180551199Y-79766438D02*
X180598818Y-79814057D01*
X180884533Y-80052152D02*
X181265485Y-80052152D01*
X181027390Y-80718819D02*
X181027390Y-79861676D01*
X181027390Y-79861676D02*
X181075009Y-79766438D01*
X181075009Y-79766438D02*
X181170247Y-79718819D01*
X181170247Y-79718819D02*
X181265485Y-79718819D01*
X181551200Y-79814057D02*
X181598819Y-79766438D01*
X181598819Y-79766438D02*
X181694057Y-79718819D01*
X181694057Y-79718819D02*
X181932152Y-79718819D01*
X181932152Y-79718819D02*
X182027390Y-79766438D01*
X182027390Y-79766438D02*
X182075009Y-79814057D01*
X182075009Y-79814057D02*
X182122628Y-79909295D01*
X182122628Y-79909295D02*
X182122628Y-80004533D01*
X182122628Y-80004533D02*
X182075009Y-80147390D01*
X182075009Y-80147390D02*
X181503581Y-80718819D01*
X181503581Y-80718819D02*
X182122628Y-80718819D01*
X144294266Y-54623619D02*
X144294266Y-55337904D01*
X144294266Y-55337904D02*
X144246647Y-55480761D01*
X144246647Y-55480761D02*
X144151409Y-55576000D01*
X144151409Y-55576000D02*
X144008552Y-55623619D01*
X144008552Y-55623619D02*
X143913314Y-55623619D01*
X144722838Y-54718857D02*
X144770457Y-54671238D01*
X144770457Y-54671238D02*
X144865695Y-54623619D01*
X144865695Y-54623619D02*
X145103790Y-54623619D01*
X145103790Y-54623619D02*
X145199028Y-54671238D01*
X145199028Y-54671238D02*
X145246647Y-54718857D01*
X145246647Y-54718857D02*
X145294266Y-54814095D01*
X145294266Y-54814095D02*
X145294266Y-54909333D01*
X145294266Y-54909333D02*
X145246647Y-55052190D01*
X145246647Y-55052190D02*
X144675219Y-55623619D01*
X144675219Y-55623619D02*
X145294266Y-55623619D01*
X83984452Y-86418380D02*
X83936833Y-86466000D01*
X83936833Y-86466000D02*
X83793976Y-86513619D01*
X83793976Y-86513619D02*
X83698738Y-86513619D01*
X83698738Y-86513619D02*
X83555881Y-86466000D01*
X83555881Y-86466000D02*
X83460643Y-86370761D01*
X83460643Y-86370761D02*
X83413024Y-86275523D01*
X83413024Y-86275523D02*
X83365405Y-86085047D01*
X83365405Y-86085047D02*
X83365405Y-85942190D01*
X83365405Y-85942190D02*
X83413024Y-85751714D01*
X83413024Y-85751714D02*
X83460643Y-85656476D01*
X83460643Y-85656476D02*
X83555881Y-85561238D01*
X83555881Y-85561238D02*
X83698738Y-85513619D01*
X83698738Y-85513619D02*
X83793976Y-85513619D01*
X83793976Y-85513619D02*
X83936833Y-85561238D01*
X83936833Y-85561238D02*
X83984452Y-85608857D01*
X84413024Y-86513619D02*
X84413024Y-85513619D01*
X84413024Y-85894571D02*
X84508262Y-85846952D01*
X84508262Y-85846952D02*
X84698738Y-85846952D01*
X84698738Y-85846952D02*
X84793976Y-85894571D01*
X84793976Y-85894571D02*
X84841595Y-85942190D01*
X84841595Y-85942190D02*
X84889214Y-86037428D01*
X84889214Y-86037428D02*
X84889214Y-86323142D01*
X84889214Y-86323142D02*
X84841595Y-86418380D01*
X84841595Y-86418380D02*
X84793976Y-86466000D01*
X84793976Y-86466000D02*
X84698738Y-86513619D01*
X84698738Y-86513619D02*
X84508262Y-86513619D01*
X84508262Y-86513619D02*
X84413024Y-86466000D01*
X85460643Y-85942190D02*
X85365405Y-85894571D01*
X85365405Y-85894571D02*
X85317786Y-85846952D01*
X85317786Y-85846952D02*
X85270167Y-85751714D01*
X85270167Y-85751714D02*
X85270167Y-85704095D01*
X85270167Y-85704095D02*
X85317786Y-85608857D01*
X85317786Y-85608857D02*
X85365405Y-85561238D01*
X85365405Y-85561238D02*
X85460643Y-85513619D01*
X85460643Y-85513619D02*
X85651119Y-85513619D01*
X85651119Y-85513619D02*
X85746357Y-85561238D01*
X85746357Y-85561238D02*
X85793976Y-85608857D01*
X85793976Y-85608857D02*
X85841595Y-85704095D01*
X85841595Y-85704095D02*
X85841595Y-85751714D01*
X85841595Y-85751714D02*
X85793976Y-85846952D01*
X85793976Y-85846952D02*
X85746357Y-85894571D01*
X85746357Y-85894571D02*
X85651119Y-85942190D01*
X85651119Y-85942190D02*
X85460643Y-85942190D01*
X85460643Y-85942190D02*
X85365405Y-85989809D01*
X85365405Y-85989809D02*
X85317786Y-86037428D01*
X85317786Y-86037428D02*
X85270167Y-86132666D01*
X85270167Y-86132666D02*
X85270167Y-86323142D01*
X85270167Y-86323142D02*
X85317786Y-86418380D01*
X85317786Y-86418380D02*
X85365405Y-86466000D01*
X85365405Y-86466000D02*
X85460643Y-86513619D01*
X85460643Y-86513619D02*
X85651119Y-86513619D01*
X85651119Y-86513619D02*
X85746357Y-86466000D01*
X85746357Y-86466000D02*
X85793976Y-86418380D01*
X85793976Y-86418380D02*
X85841595Y-86323142D01*
X85841595Y-86323142D02*
X85841595Y-86132666D01*
X85841595Y-86132666D02*
X85793976Y-86037428D01*
X85793976Y-86037428D02*
X85746357Y-85989809D01*
X85746357Y-85989809D02*
X85651119Y-85942190D01*
X131482452Y-86418380D02*
X131434833Y-86466000D01*
X131434833Y-86466000D02*
X131291976Y-86513619D01*
X131291976Y-86513619D02*
X131196738Y-86513619D01*
X131196738Y-86513619D02*
X131053881Y-86466000D01*
X131053881Y-86466000D02*
X130958643Y-86370761D01*
X130958643Y-86370761D02*
X130911024Y-86275523D01*
X130911024Y-86275523D02*
X130863405Y-86085047D01*
X130863405Y-86085047D02*
X130863405Y-85942190D01*
X130863405Y-85942190D02*
X130911024Y-85751714D01*
X130911024Y-85751714D02*
X130958643Y-85656476D01*
X130958643Y-85656476D02*
X131053881Y-85561238D01*
X131053881Y-85561238D02*
X131196738Y-85513619D01*
X131196738Y-85513619D02*
X131291976Y-85513619D01*
X131291976Y-85513619D02*
X131434833Y-85561238D01*
X131434833Y-85561238D02*
X131482452Y-85608857D01*
X131911024Y-86513619D02*
X131911024Y-85513619D01*
X131911024Y-85894571D02*
X132006262Y-85846952D01*
X132006262Y-85846952D02*
X132196738Y-85846952D01*
X132196738Y-85846952D02*
X132291976Y-85894571D01*
X132291976Y-85894571D02*
X132339595Y-85942190D01*
X132339595Y-85942190D02*
X132387214Y-86037428D01*
X132387214Y-86037428D02*
X132387214Y-86323142D01*
X132387214Y-86323142D02*
X132339595Y-86418380D01*
X132339595Y-86418380D02*
X132291976Y-86466000D01*
X132291976Y-86466000D02*
X132196738Y-86513619D01*
X132196738Y-86513619D02*
X132006262Y-86513619D01*
X132006262Y-86513619D02*
X131911024Y-86466000D01*
X133291976Y-85513619D02*
X132815786Y-85513619D01*
X132815786Y-85513619D02*
X132768167Y-85989809D01*
X132768167Y-85989809D02*
X132815786Y-85942190D01*
X132815786Y-85942190D02*
X132911024Y-85894571D01*
X132911024Y-85894571D02*
X133149119Y-85894571D01*
X133149119Y-85894571D02*
X133244357Y-85942190D01*
X133244357Y-85942190D02*
X133291976Y-85989809D01*
X133291976Y-85989809D02*
X133339595Y-86085047D01*
X133339595Y-86085047D02*
X133339595Y-86323142D01*
X133339595Y-86323142D02*
X133291976Y-86418380D01*
X133291976Y-86418380D02*
X133244357Y-86466000D01*
X133244357Y-86466000D02*
X133149119Y-86513619D01*
X133149119Y-86513619D02*
X132911024Y-86513619D01*
X132911024Y-86513619D02*
X132815786Y-86466000D01*
X132815786Y-86466000D02*
X132768167Y-86418380D01*
D11*
X189125918Y-83815162D02*
X187855918Y-83815162D01*
X189004965Y-82484685D02*
X189065442Y-82545161D01*
X189065442Y-82545161D02*
X189125918Y-82726590D01*
X189125918Y-82726590D02*
X189125918Y-82847542D01*
X189125918Y-82847542D02*
X189065442Y-83028971D01*
X189065442Y-83028971D02*
X188944489Y-83149923D01*
X188944489Y-83149923D02*
X188823537Y-83210400D01*
X188823537Y-83210400D02*
X188581632Y-83270876D01*
X188581632Y-83270876D02*
X188400203Y-83270876D01*
X188400203Y-83270876D02*
X188158299Y-83210400D01*
X188158299Y-83210400D02*
X188037346Y-83149923D01*
X188037346Y-83149923D02*
X187916394Y-83028971D01*
X187916394Y-83028971D02*
X187855918Y-82847542D01*
X187855918Y-82847542D02*
X187855918Y-82726590D01*
X187855918Y-82726590D02*
X187916394Y-82545161D01*
X187916394Y-82545161D02*
X187976870Y-82484685D01*
X187976870Y-82000876D02*
X187916394Y-81940400D01*
X187916394Y-81940400D02*
X187855918Y-81819447D01*
X187855918Y-81819447D02*
X187855918Y-81517066D01*
X187855918Y-81517066D02*
X187916394Y-81396114D01*
X187916394Y-81396114D02*
X187976870Y-81335638D01*
X187976870Y-81335638D02*
X188097822Y-81275161D01*
X188097822Y-81275161D02*
X188218775Y-81275161D01*
X188218775Y-81275161D02*
X188400203Y-81335638D01*
X188400203Y-81335638D02*
X189125918Y-82061352D01*
X189125918Y-82061352D02*
X189125918Y-81275161D01*
D10*
X99217218Y-81487180D02*
X99169599Y-81534800D01*
X99169599Y-81534800D02*
X99026742Y-81582419D01*
X99026742Y-81582419D02*
X98931504Y-81582419D01*
X98931504Y-81582419D02*
X98788647Y-81534800D01*
X98788647Y-81534800D02*
X98693409Y-81439561D01*
X98693409Y-81439561D02*
X98645790Y-81344323D01*
X98645790Y-81344323D02*
X98598171Y-81153847D01*
X98598171Y-81153847D02*
X98598171Y-81010990D01*
X98598171Y-81010990D02*
X98645790Y-80820514D01*
X98645790Y-80820514D02*
X98693409Y-80725276D01*
X98693409Y-80725276D02*
X98788647Y-80630038D01*
X98788647Y-80630038D02*
X98931504Y-80582419D01*
X98931504Y-80582419D02*
X99026742Y-80582419D01*
X99026742Y-80582419D02*
X99169599Y-80630038D01*
X99169599Y-80630038D02*
X99217218Y-80677657D01*
X99502933Y-80915752D02*
X99883885Y-80915752D01*
X99645790Y-81582419D02*
X99645790Y-80725276D01*
X99645790Y-80725276D02*
X99693409Y-80630038D01*
X99693409Y-80630038D02*
X99788647Y-80582419D01*
X99788647Y-80582419D02*
X99883885Y-80582419D01*
X100645790Y-80915752D02*
X100645790Y-81582419D01*
X100407695Y-80534800D02*
X100169600Y-81249085D01*
X100169600Y-81249085D02*
X100788647Y-81249085D01*
D11*
X204225518Y-83916762D02*
X202955518Y-83916762D01*
X204104565Y-82586285D02*
X204165042Y-82646761D01*
X204165042Y-82646761D02*
X204225518Y-82828190D01*
X204225518Y-82828190D02*
X204225518Y-82949142D01*
X204225518Y-82949142D02*
X204165042Y-83130571D01*
X204165042Y-83130571D02*
X204044089Y-83251523D01*
X204044089Y-83251523D02*
X203923137Y-83312000D01*
X203923137Y-83312000D02*
X203681232Y-83372476D01*
X203681232Y-83372476D02*
X203499803Y-83372476D01*
X203499803Y-83372476D02*
X203257899Y-83312000D01*
X203257899Y-83312000D02*
X203136946Y-83251523D01*
X203136946Y-83251523D02*
X203015994Y-83130571D01*
X203015994Y-83130571D02*
X202955518Y-82949142D01*
X202955518Y-82949142D02*
X202955518Y-82828190D01*
X202955518Y-82828190D02*
X203015994Y-82646761D01*
X203015994Y-82646761D02*
X203076470Y-82586285D01*
X204225518Y-81376761D02*
X204225518Y-82102476D01*
X204225518Y-81739619D02*
X202955518Y-81739619D01*
X202955518Y-81739619D02*
X203136946Y-81860571D01*
X203136946Y-81860571D02*
X203257899Y-81981523D01*
X203257899Y-81981523D02*
X203318375Y-82102476D01*
D10*
X176857066Y-54674419D02*
X176857066Y-55388704D01*
X176857066Y-55388704D02*
X176809447Y-55531561D01*
X176809447Y-55531561D02*
X176714209Y-55626800D01*
X176714209Y-55626800D02*
X176571352Y-55674419D01*
X176571352Y-55674419D02*
X176476114Y-55674419D01*
X177857066Y-55674419D02*
X177285638Y-55674419D01*
X177571352Y-55674419D02*
X177571352Y-54674419D01*
X177571352Y-54674419D02*
X177476114Y-54817276D01*
X177476114Y-54817276D02*
X177380876Y-54912514D01*
X177380876Y-54912514D02*
X177285638Y-54960133D01*
D11*
X91945518Y-83662762D02*
X90675518Y-83662762D01*
X91824565Y-82332285D02*
X91885042Y-82392761D01*
X91885042Y-82392761D02*
X91945518Y-82574190D01*
X91945518Y-82574190D02*
X91945518Y-82695142D01*
X91945518Y-82695142D02*
X91885042Y-82876571D01*
X91885042Y-82876571D02*
X91764089Y-82997523D01*
X91764089Y-82997523D02*
X91643137Y-83058000D01*
X91643137Y-83058000D02*
X91401232Y-83118476D01*
X91401232Y-83118476D02*
X91219803Y-83118476D01*
X91219803Y-83118476D02*
X90977899Y-83058000D01*
X90977899Y-83058000D02*
X90856946Y-82997523D01*
X90856946Y-82997523D02*
X90735994Y-82876571D01*
X90735994Y-82876571D02*
X90675518Y-82695142D01*
X90675518Y-82695142D02*
X90675518Y-82574190D01*
X90675518Y-82574190D02*
X90735994Y-82392761D01*
X90735994Y-82392761D02*
X90796470Y-82332285D01*
X91219803Y-81606571D02*
X91159327Y-81727523D01*
X91159327Y-81727523D02*
X91098851Y-81788000D01*
X91098851Y-81788000D02*
X90977899Y-81848476D01*
X90977899Y-81848476D02*
X90917422Y-81848476D01*
X90917422Y-81848476D02*
X90796470Y-81788000D01*
X90796470Y-81788000D02*
X90735994Y-81727523D01*
X90735994Y-81727523D02*
X90675518Y-81606571D01*
X90675518Y-81606571D02*
X90675518Y-81364666D01*
X90675518Y-81364666D02*
X90735994Y-81243714D01*
X90735994Y-81243714D02*
X90796470Y-81183238D01*
X90796470Y-81183238D02*
X90917422Y-81122761D01*
X90917422Y-81122761D02*
X90977899Y-81122761D01*
X90977899Y-81122761D02*
X91098851Y-81183238D01*
X91098851Y-81183238D02*
X91159327Y-81243714D01*
X91159327Y-81243714D02*
X91219803Y-81364666D01*
X91219803Y-81364666D02*
X91219803Y-81606571D01*
X91219803Y-81606571D02*
X91280280Y-81727523D01*
X91280280Y-81727523D02*
X91340756Y-81788000D01*
X91340756Y-81788000D02*
X91461708Y-81848476D01*
X91461708Y-81848476D02*
X91703613Y-81848476D01*
X91703613Y-81848476D02*
X91824565Y-81788000D01*
X91824565Y-81788000D02*
X91885042Y-81727523D01*
X91885042Y-81727523D02*
X91945518Y-81606571D01*
X91945518Y-81606571D02*
X91945518Y-81364666D01*
X91945518Y-81364666D02*
X91885042Y-81243714D01*
X91885042Y-81243714D02*
X91824565Y-81183238D01*
X91824565Y-81183238D02*
X91703613Y-81122761D01*
X91703613Y-81122761D02*
X91461708Y-81122761D01*
X91461708Y-81122761D02*
X91340756Y-81183238D01*
X91340756Y-81183238D02*
X91280280Y-81243714D01*
X91280280Y-81243714D02*
X91219803Y-81364666D01*
D10*
X116322552Y-86418380D02*
X116274933Y-86466000D01*
X116274933Y-86466000D02*
X116132076Y-86513619D01*
X116132076Y-86513619D02*
X116036838Y-86513619D01*
X116036838Y-86513619D02*
X115893981Y-86466000D01*
X115893981Y-86466000D02*
X115798743Y-86370761D01*
X115798743Y-86370761D02*
X115751124Y-86275523D01*
X115751124Y-86275523D02*
X115703505Y-86085047D01*
X115703505Y-86085047D02*
X115703505Y-85942190D01*
X115703505Y-85942190D02*
X115751124Y-85751714D01*
X115751124Y-85751714D02*
X115798743Y-85656476D01*
X115798743Y-85656476D02*
X115893981Y-85561238D01*
X115893981Y-85561238D02*
X116036838Y-85513619D01*
X116036838Y-85513619D02*
X116132076Y-85513619D01*
X116132076Y-85513619D02*
X116274933Y-85561238D01*
X116274933Y-85561238D02*
X116322552Y-85608857D01*
X116751124Y-86513619D02*
X116751124Y-85513619D01*
X116751124Y-85894571D02*
X116846362Y-85846952D01*
X116846362Y-85846952D02*
X117036838Y-85846952D01*
X117036838Y-85846952D02*
X117132076Y-85894571D01*
X117132076Y-85894571D02*
X117179695Y-85942190D01*
X117179695Y-85942190D02*
X117227314Y-86037428D01*
X117227314Y-86037428D02*
X117227314Y-86323142D01*
X117227314Y-86323142D02*
X117179695Y-86418380D01*
X117179695Y-86418380D02*
X117132076Y-86466000D01*
X117132076Y-86466000D02*
X117036838Y-86513619D01*
X117036838Y-86513619D02*
X116846362Y-86513619D01*
X116846362Y-86513619D02*
X116751124Y-86466000D01*
X117560648Y-85513619D02*
X118179695Y-85513619D01*
X118179695Y-85513619D02*
X117846362Y-85894571D01*
X117846362Y-85894571D02*
X117989219Y-85894571D01*
X117989219Y-85894571D02*
X118084457Y-85942190D01*
X118084457Y-85942190D02*
X118132076Y-85989809D01*
X118132076Y-85989809D02*
X118179695Y-86085047D01*
X118179695Y-86085047D02*
X118179695Y-86323142D01*
X118179695Y-86323142D02*
X118132076Y-86418380D01*
X118132076Y-86418380D02*
X118084457Y-86466000D01*
X118084457Y-86466000D02*
X117989219Y-86513619D01*
X117989219Y-86513619D02*
X117703505Y-86513619D01*
X117703505Y-86513619D02*
X117608267Y-86466000D01*
X117608267Y-86466000D02*
X117560648Y-86418380D01*
D11*
X171815118Y-83815162D02*
X170545118Y-83815162D01*
X171694165Y-82484685D02*
X171754642Y-82545161D01*
X171754642Y-82545161D02*
X171815118Y-82726590D01*
X171815118Y-82726590D02*
X171815118Y-82847542D01*
X171815118Y-82847542D02*
X171754642Y-83028971D01*
X171754642Y-83028971D02*
X171633689Y-83149923D01*
X171633689Y-83149923D02*
X171512737Y-83210400D01*
X171512737Y-83210400D02*
X171270832Y-83270876D01*
X171270832Y-83270876D02*
X171089403Y-83270876D01*
X171089403Y-83270876D02*
X170847499Y-83210400D01*
X170847499Y-83210400D02*
X170726546Y-83149923D01*
X170726546Y-83149923D02*
X170605594Y-83028971D01*
X170605594Y-83028971D02*
X170545118Y-82847542D01*
X170545118Y-82847542D02*
X170545118Y-82726590D01*
X170545118Y-82726590D02*
X170605594Y-82545161D01*
X170605594Y-82545161D02*
X170666070Y-82484685D01*
X170545118Y-82061352D02*
X170545118Y-81275161D01*
X170545118Y-81275161D02*
X171028927Y-81698495D01*
X171028927Y-81698495D02*
X171028927Y-81517066D01*
X171028927Y-81517066D02*
X171089403Y-81396114D01*
X171089403Y-81396114D02*
X171149880Y-81335638D01*
X171149880Y-81335638D02*
X171270832Y-81275161D01*
X171270832Y-81275161D02*
X171573213Y-81275161D01*
X171573213Y-81275161D02*
X171694165Y-81335638D01*
X171694165Y-81335638D02*
X171754642Y-81396114D01*
X171754642Y-81396114D02*
X171815118Y-81517066D01*
X171815118Y-81517066D02*
X171815118Y-81879923D01*
X171815118Y-81879923D02*
X171754642Y-82000876D01*
X171754642Y-82000876D02*
X171694165Y-82061352D01*
D10*
X99224452Y-87078780D02*
X99176833Y-87126400D01*
X99176833Y-87126400D02*
X99033976Y-87174019D01*
X99033976Y-87174019D02*
X98938738Y-87174019D01*
X98938738Y-87174019D02*
X98795881Y-87126400D01*
X98795881Y-87126400D02*
X98700643Y-87031161D01*
X98700643Y-87031161D02*
X98653024Y-86935923D01*
X98653024Y-86935923D02*
X98605405Y-86745447D01*
X98605405Y-86745447D02*
X98605405Y-86602590D01*
X98605405Y-86602590D02*
X98653024Y-86412114D01*
X98653024Y-86412114D02*
X98700643Y-86316876D01*
X98700643Y-86316876D02*
X98795881Y-86221638D01*
X98795881Y-86221638D02*
X98938738Y-86174019D01*
X98938738Y-86174019D02*
X99033976Y-86174019D01*
X99033976Y-86174019D02*
X99176833Y-86221638D01*
X99176833Y-86221638D02*
X99224452Y-86269257D01*
X99653024Y-87174019D02*
X99653024Y-86174019D01*
X99653024Y-86554971D02*
X99748262Y-86507352D01*
X99748262Y-86507352D02*
X99938738Y-86507352D01*
X99938738Y-86507352D02*
X100033976Y-86554971D01*
X100033976Y-86554971D02*
X100081595Y-86602590D01*
X100081595Y-86602590D02*
X100129214Y-86697828D01*
X100129214Y-86697828D02*
X100129214Y-86983542D01*
X100129214Y-86983542D02*
X100081595Y-87078780D01*
X100081595Y-87078780D02*
X100033976Y-87126400D01*
X100033976Y-87126400D02*
X99938738Y-87174019D01*
X99938738Y-87174019D02*
X99748262Y-87174019D01*
X99748262Y-87174019D02*
X99653024Y-87126400D01*
X100986357Y-86507352D02*
X100986357Y-87174019D01*
X100748262Y-86126400D02*
X100510167Y-86840685D01*
X100510167Y-86840685D02*
X101129214Y-86840685D01*
X131678418Y-80674380D02*
X131630799Y-80722000D01*
X131630799Y-80722000D02*
X131487942Y-80769619D01*
X131487942Y-80769619D02*
X131392704Y-80769619D01*
X131392704Y-80769619D02*
X131249847Y-80722000D01*
X131249847Y-80722000D02*
X131154609Y-80626761D01*
X131154609Y-80626761D02*
X131106990Y-80531523D01*
X131106990Y-80531523D02*
X131059371Y-80341047D01*
X131059371Y-80341047D02*
X131059371Y-80198190D01*
X131059371Y-80198190D02*
X131106990Y-80007714D01*
X131106990Y-80007714D02*
X131154609Y-79912476D01*
X131154609Y-79912476D02*
X131249847Y-79817238D01*
X131249847Y-79817238D02*
X131392704Y-79769619D01*
X131392704Y-79769619D02*
X131487942Y-79769619D01*
X131487942Y-79769619D02*
X131630799Y-79817238D01*
X131630799Y-79817238D02*
X131678418Y-79864857D01*
X131964133Y-80102952D02*
X132345085Y-80102952D01*
X132106990Y-80769619D02*
X132106990Y-79912476D01*
X132106990Y-79912476D02*
X132154609Y-79817238D01*
X132154609Y-79817238D02*
X132249847Y-79769619D01*
X132249847Y-79769619D02*
X132345085Y-79769619D01*
X133154609Y-79769619D02*
X132678419Y-79769619D01*
X132678419Y-79769619D02*
X132630800Y-80245809D01*
X132630800Y-80245809D02*
X132678419Y-80198190D01*
X132678419Y-80198190D02*
X132773657Y-80150571D01*
X132773657Y-80150571D02*
X133011752Y-80150571D01*
X133011752Y-80150571D02*
X133106990Y-80198190D01*
X133106990Y-80198190D02*
X133154609Y-80245809D01*
X133154609Y-80245809D02*
X133202228Y-80341047D01*
X133202228Y-80341047D02*
X133202228Y-80579142D01*
X133202228Y-80579142D02*
X133154609Y-80674380D01*
X133154609Y-80674380D02*
X133106990Y-80722000D01*
X133106990Y-80722000D02*
X133011752Y-80769619D01*
X133011752Y-80769619D02*
X132773657Y-80769619D01*
X132773657Y-80769619D02*
X132678419Y-80722000D01*
X132678419Y-80722000D02*
X132630800Y-80674380D01*
X112087066Y-55131619D02*
X112087066Y-55845904D01*
X112087066Y-55845904D02*
X112039447Y-55988761D01*
X112039447Y-55988761D02*
X111944209Y-56084000D01*
X111944209Y-56084000D02*
X111801352Y-56131619D01*
X111801352Y-56131619D02*
X111706114Y-56131619D01*
X112468019Y-55131619D02*
X113134685Y-55131619D01*
X113134685Y-55131619D02*
X112706114Y-56131619D01*
X163936418Y-80877580D02*
X163888799Y-80925200D01*
X163888799Y-80925200D02*
X163745942Y-80972819D01*
X163745942Y-80972819D02*
X163650704Y-80972819D01*
X163650704Y-80972819D02*
X163507847Y-80925200D01*
X163507847Y-80925200D02*
X163412609Y-80829961D01*
X163412609Y-80829961D02*
X163364990Y-80734723D01*
X163364990Y-80734723D02*
X163317371Y-80544247D01*
X163317371Y-80544247D02*
X163317371Y-80401390D01*
X163317371Y-80401390D02*
X163364990Y-80210914D01*
X163364990Y-80210914D02*
X163412609Y-80115676D01*
X163412609Y-80115676D02*
X163507847Y-80020438D01*
X163507847Y-80020438D02*
X163650704Y-79972819D01*
X163650704Y-79972819D02*
X163745942Y-79972819D01*
X163745942Y-79972819D02*
X163888799Y-80020438D01*
X163888799Y-80020438D02*
X163936418Y-80068057D01*
X164222133Y-80306152D02*
X164603085Y-80306152D01*
X164364990Y-80972819D02*
X164364990Y-80115676D01*
X164364990Y-80115676D02*
X164412609Y-80020438D01*
X164412609Y-80020438D02*
X164507847Y-79972819D01*
X164507847Y-79972819D02*
X164603085Y-79972819D01*
X165364990Y-79972819D02*
X165174514Y-79972819D01*
X165174514Y-79972819D02*
X165079276Y-80020438D01*
X165079276Y-80020438D02*
X165031657Y-80068057D01*
X165031657Y-80068057D02*
X164936419Y-80210914D01*
X164936419Y-80210914D02*
X164888800Y-80401390D01*
X164888800Y-80401390D02*
X164888800Y-80782342D01*
X164888800Y-80782342D02*
X164936419Y-80877580D01*
X164936419Y-80877580D02*
X164984038Y-80925200D01*
X164984038Y-80925200D02*
X165079276Y-80972819D01*
X165079276Y-80972819D02*
X165269752Y-80972819D01*
X165269752Y-80972819D02*
X165364990Y-80925200D01*
X165364990Y-80925200D02*
X165412609Y-80877580D01*
X165412609Y-80877580D02*
X165460228Y-80782342D01*
X165460228Y-80782342D02*
X165460228Y-80544247D01*
X165460228Y-80544247D02*
X165412609Y-80449009D01*
X165412609Y-80449009D02*
X165364990Y-80401390D01*
X165364990Y-80401390D02*
X165269752Y-80353771D01*
X165269752Y-80353771D02*
X165079276Y-80353771D01*
X165079276Y-80353771D02*
X164984038Y-80401390D01*
X164984038Y-80401390D02*
X164936419Y-80449009D01*
X164936419Y-80449009D02*
X164888800Y-80544247D01*
D12*
%TO.C,IC5*%
X137369200Y-80074600D02*
X140369200Y-80074600D01*
X137369200Y-84974600D02*
X140369200Y-84974600D01*
D13*
X143069200Y-84429600D02*
X143069200Y-84429600D01*
X143069200Y-84524600D02*
X143069200Y-84524600D01*
X143069200Y-84429600D02*
G75*
G02*
X143069200Y-84524600I0J-47500D01*
G01*
X143069200Y-84524600D02*
G75*
G02*
X143069200Y-84429600I0J47500D01*
G01*
D14*
%TO.C,Cf1*%
X197111252Y-81611800D02*
X196588748Y-81611800D01*
X197111252Y-83081800D02*
X196588748Y-83081800D01*
D12*
%TO.C,IC7*%
X105072400Y-80023800D02*
X108072400Y-80023800D01*
X105072400Y-84923800D02*
X108072400Y-84923800D01*
D13*
X110772400Y-84378800D02*
X110772400Y-84378800D01*
X110772400Y-84473800D02*
X110772400Y-84473800D01*
X110772400Y-84378800D02*
G75*
G02*
X110772400Y-84473800I0J-47500D01*
G01*
X110772400Y-84473800D02*
G75*
G02*
X110772400Y-84378800I0J47500D01*
G01*
D14*
%TO.C,Cf3*%
X117202852Y-81357800D02*
X116680348Y-81357800D01*
X117202852Y-82827800D02*
X116680348Y-82827800D01*
D15*
%TO.C,J4*%
X136347200Y-111388000D02*
X136347200Y-92888000D01*
X156667200Y-92888000D02*
X136347200Y-92888000D01*
X156667200Y-92888000D02*
X156667200Y-111388000D01*
X156667200Y-111388000D02*
X136347200Y-111388000D01*
D12*
X135797200Y-94488000D02*
G75*
G02*
X135597200Y-94488000I-100000J0D01*
G01*
X135597200Y-94488000D02*
G75*
G02*
X135797200Y-94488000I100000J0D01*
G01*
D14*
%TO.C,Cf8*%
X84843252Y-81357800D02*
X84320748Y-81357800D01*
X84843252Y-82827800D02*
X84320748Y-82827800D01*
D15*
%TO.C,J6*%
X179646000Y-53992000D02*
X179646000Y-77492000D01*
X179646000Y-77492000D02*
X210646000Y-77492000D01*
X210646000Y-53992000D02*
X179646000Y-53992000D01*
X210646000Y-77492000D02*
X210646000Y-53992000D01*
D12*
X206496000Y-78192000D02*
G75*
G02*
X206296000Y-78192000I-100000J0D01*
G01*
X206296000Y-78192000D02*
G75*
G02*
X206496000Y-78192000I100000J0D01*
G01*
D14*
%TO.C,Cb6*%
X164671552Y-83745400D02*
X164149048Y-83745400D01*
X164671552Y-85215400D02*
X164149048Y-85215400D01*
%TO.C,Cb2*%
X181435552Y-83694600D02*
X180913048Y-83694600D01*
X181435552Y-85164600D02*
X180913048Y-85164600D01*
%TO.C,Cb1*%
X197111252Y-83897800D02*
X196588748Y-83897800D01*
X197111252Y-85367800D02*
X196588748Y-85367800D01*
%TO.C,Cf7*%
X149257652Y-81307000D02*
X148735148Y-81307000D01*
X149257652Y-82777000D02*
X148735148Y-82777000D01*
D12*
%TO.C,IC6*%
X122281600Y-80074600D02*
X125281600Y-80074600D01*
X122281600Y-84974600D02*
X125281600Y-84974600D01*
D13*
X127981600Y-84429600D02*
X127981600Y-84429600D01*
X127981600Y-84524600D02*
X127981600Y-84524600D01*
X127981600Y-84429600D02*
G75*
G02*
X127981600Y-84524600I0J-47500D01*
G01*
X127981600Y-84524600D02*
G75*
G02*
X127981600Y-84429600I0J47500D01*
G01*
D12*
%TO.C,IC4*%
X154754800Y-80125400D02*
X157754800Y-80125400D01*
X154754800Y-85025400D02*
X157754800Y-85025400D01*
D13*
X160454800Y-84480400D02*
X160454800Y-84480400D01*
X160454800Y-84575400D02*
X160454800Y-84575400D01*
X160454800Y-84480400D02*
G75*
G02*
X160454800Y-84575400I0J-47500D01*
G01*
X160454800Y-84575400D02*
G75*
G02*
X160454800Y-84480400I0J47500D01*
G01*
D14*
%TO.C,Cb7*%
X149359252Y-83643800D02*
X148836748Y-83643800D01*
X149359252Y-85113800D02*
X148836748Y-85113800D01*
%TO.C,Cf2*%
X181414052Y-81459400D02*
X180891548Y-81459400D01*
X181414052Y-82929400D02*
X180891548Y-82929400D01*
D15*
%TO.C,J2*%
X114862000Y-53992000D02*
X114862000Y-77492000D01*
X114862000Y-77492000D02*
X145862000Y-77492000D01*
X145862000Y-53992000D02*
X114862000Y-53992000D01*
X145862000Y-77492000D02*
X145862000Y-53992000D01*
D12*
X141712000Y-78192000D02*
G75*
G02*
X141512000Y-78192000I-100000J0D01*
G01*
X141512000Y-78192000D02*
G75*
G02*
X141712000Y-78192000I100000J0D01*
G01*
D14*
%TO.C,J9*%
X103637800Y-98866000D02*
X103637800Y-97536000D01*
X104967800Y-98866000D02*
X103637800Y-98866000D01*
X106237800Y-96206000D02*
X124077800Y-96206000D01*
X106237800Y-98866000D02*
X106237800Y-96206000D01*
X106237800Y-98866000D02*
X124077800Y-98866000D01*
X124077800Y-98866000D02*
X124077800Y-96206000D01*
%TO.C,Cb8*%
X84864752Y-83643800D02*
X84342248Y-83643800D01*
X84864752Y-85113800D02*
X84342248Y-85113800D01*
%TO.C,Cb5*%
X132362752Y-83643800D02*
X131840248Y-83643800D01*
X132362752Y-85113800D02*
X131840248Y-85113800D01*
D12*
%TO.C,IC2*%
X187051600Y-80125400D02*
X190051600Y-80125400D01*
X187051600Y-85025400D02*
X190051600Y-85025400D01*
D13*
X192751600Y-84480400D02*
X192751600Y-84480400D01*
X192751600Y-84575400D02*
X192751600Y-84575400D01*
X192751600Y-84480400D02*
G75*
G02*
X192751600Y-84575400I0J-47500D01*
G01*
X192751600Y-84575400D02*
G75*
G02*
X192751600Y-84480400I0J47500D01*
G01*
D14*
%TO.C,Cf4*%
X100032452Y-82170600D02*
X99509948Y-82170600D01*
X100032452Y-83640600D02*
X99509948Y-83640600D01*
D12*
%TO.C,IC1*%
X202151200Y-80227000D02*
X205151200Y-80227000D01*
X202151200Y-85127000D02*
X205151200Y-85127000D01*
D13*
X207851200Y-84582000D02*
X207851200Y-84582000D01*
X207851200Y-84677000D02*
X207851200Y-84677000D01*
X207851200Y-84582000D02*
G75*
G02*
X207851200Y-84677000I0J-47500D01*
G01*
X207851200Y-84677000D02*
G75*
G02*
X207851200Y-84582000I0J47500D01*
G01*
D15*
%TO.C,J1*%
X147235600Y-53992000D02*
X147235600Y-77492000D01*
X147235600Y-77492000D02*
X178235600Y-77492000D01*
X178235600Y-53992000D02*
X147235600Y-53992000D01*
X178235600Y-77492000D02*
X178235600Y-53992000D01*
D12*
X174085600Y-78192000D02*
G75*
G02*
X173885600Y-78192000I-100000J0D01*
G01*
X173885600Y-78192000D02*
G75*
G02*
X174085600Y-78192000I100000J0D01*
G01*
%TO.C,IC8*%
X89871200Y-79973000D02*
X92871200Y-79973000D01*
X89871200Y-84873000D02*
X92871200Y-84873000D01*
D13*
X95571200Y-84328000D02*
X95571200Y-84328000D01*
X95571200Y-84423000D02*
X95571200Y-84423000D01*
X95571200Y-84328000D02*
G75*
G02*
X95571200Y-84423000I0J-47500D01*
G01*
X95571200Y-84423000D02*
G75*
G02*
X95571200Y-84328000I0J47500D01*
G01*
D14*
%TO.C,Cb3*%
X117202852Y-83643800D02*
X116680348Y-83643800D01*
X117202852Y-85113800D02*
X116680348Y-85113800D01*
D12*
%TO.C,IC3*%
X169740800Y-80125400D02*
X172740800Y-80125400D01*
X169740800Y-85025400D02*
X172740800Y-85025400D01*
D13*
X175440800Y-84480400D02*
X175440800Y-84480400D01*
X175440800Y-84575400D02*
X175440800Y-84575400D01*
X175440800Y-84480400D02*
G75*
G02*
X175440800Y-84575400I0J-47500D01*
G01*
X175440800Y-84575400D02*
G75*
G02*
X175440800Y-84480400I0J47500D01*
G01*
D14*
%TO.C,Cb4*%
X100104752Y-84304200D02*
X99582248Y-84304200D01*
X100104752Y-85774200D02*
X99582248Y-85774200D01*
%TO.C,Cf5*%
X132362752Y-81408600D02*
X131840248Y-81408600D01*
X132362752Y-82878600D02*
X131840248Y-82878600D01*
D15*
%TO.C,J7*%
X82502400Y-53839600D02*
X82502400Y-77339600D01*
X82502400Y-77339600D02*
X113502400Y-77339600D01*
X113502400Y-53839600D02*
X82502400Y-53839600D01*
X113502400Y-77339600D02*
X113502400Y-53839600D01*
D12*
X109352400Y-78039600D02*
G75*
G02*
X109152400Y-78039600I-100000J0D01*
G01*
X109152400Y-78039600D02*
G75*
G02*
X109352400Y-78039600I100000J0D01*
G01*
D14*
%TO.C,Cf6*%
X164599252Y-81408600D02*
X164076748Y-81408600D01*
X164599252Y-82878600D02*
X164076748Y-82878600D01*
%TO.C,J3*%
X103637800Y-111566000D02*
X103637800Y-110236000D01*
X104967800Y-111566000D02*
X103637800Y-111566000D01*
X106237800Y-108906000D02*
X124077800Y-108906000D01*
X106237800Y-111566000D02*
X106237800Y-108906000D01*
X106237800Y-111566000D02*
X124077800Y-111566000D01*
X124077800Y-111566000D02*
X124077800Y-108906000D01*
%TD*%
M02*
