%TF.GenerationSoftware,KiCad,Pcbnew,8.0.3*%
%TF.CreationDate,2025-02-02T18:29:45-08:00*%
%TF.ProjectId,Power_Distribution,506f7765-725f-4446-9973-747269627574,rev?*%
%TF.SameCoordinates,Original*%
%TF.FileFunction,Copper,L2,Bot*%
%TF.FilePolarity,Positive*%
%FSLAX46Y46*%
G04 Gerber Fmt 4.6, Leading zero omitted, Abs format (unit mm)*
G04 Created by KiCad (PCBNEW 8.0.3) date 2025-02-02 18:29:45*
%MOMM*%
%LPD*%
G01*
G04 APERTURE LIST*
%TA.AperFunction,ComponentPad*%
%ADD10R,1.950000X1.950000*%
%TD*%
%TA.AperFunction,ComponentPad*%
%ADD11C,1.950000*%
%TD*%
%TA.AperFunction,ComponentPad*%
%ADD12R,3.000000X3.000000*%
%TD*%
%TA.AperFunction,ComponentPad*%
%ADD13C,3.000000*%
%TD*%
%TA.AperFunction,ComponentPad*%
%ADD14R,1.700000X1.700000*%
%TD*%
%TA.AperFunction,ComponentPad*%
%ADD15O,1.700000X1.700000*%
%TD*%
%TA.AperFunction,ViaPad*%
%ADD16C,0.800000*%
%TD*%
%TA.AperFunction,Conductor*%
%ADD17C,0.508000*%
%TD*%
%TA.AperFunction,Conductor*%
%ADD18C,7.500000*%
%TD*%
G04 APERTURE END LIST*
D10*
%TO.P,J4,1_1,1*%
%TO.N,+BATT*%
X141427200Y-94488000D03*
%TO.P,J4,1_2,1*%
X141427200Y-104648000D03*
D11*
%TO.P,J4,2_1,2*%
%TO.N,-BATT*%
X151587200Y-94488000D03*
%TO.P,J4,2_2,2*%
X151587200Y-104648000D03*
%TD*%
D12*
%TO.P,J6,1,1*%
%TO.N,PWR1*%
X206396000Y-75492000D03*
D13*
%TO.P,J6,2,2*%
%TO.N,-BATT*%
X198896000Y-62992000D03*
%TO.P,J6,3,3*%
%TO.N,PWR2*%
X191396000Y-75492000D03*
%TO.P,J6,4,4*%
%TO.N,-BATT*%
X183896000Y-62992000D03*
%TD*%
D12*
%TO.P,J2,1,1*%
%TO.N,PWR5*%
X141612000Y-75492000D03*
D13*
%TO.P,J2,2,2*%
%TO.N,-BATT*%
X134112000Y-62992000D03*
%TO.P,J2,3,3*%
%TO.N,PWR6*%
X126612000Y-75492000D03*
%TO.P,J2,4,4*%
%TO.N,-BATT*%
X119112000Y-62992000D03*
%TD*%
D14*
%TO.P,J9,1,Pin_1*%
%TO.N,VIout8*%
X104967800Y-97536000D03*
D15*
%TO.P,J9,2,Pin_2*%
%TO.N,VIout7*%
X107507800Y-97536000D03*
%TO.P,J9,3,Pin_3*%
%TO.N,VIout6*%
X110047800Y-97536000D03*
%TO.P,J9,4,Pin_4*%
%TO.N,VIout5*%
X112587800Y-97536000D03*
%TO.P,J9,5,Pin_5*%
%TO.N,VIout4*%
X115127800Y-97536000D03*
%TO.P,J9,6,Pin_6*%
%TO.N,VIout3*%
X117667800Y-97536000D03*
%TO.P,J9,7,Pin_7*%
%TO.N,VIout2*%
X120207800Y-97536000D03*
%TO.P,J9,8,Pin_8*%
%TO.N,VIout1*%
X122747800Y-97536000D03*
%TD*%
D14*
%TO.P,J8,1,Pin_1*%
%TO.N,5V*%
X95199200Y-97586800D03*
D15*
%TO.P,J8,2,Pin_2*%
%TO.N,GND*%
X95199200Y-100126800D03*
%TD*%
D14*
%TO.P,J5,1,Pin_1*%
%TO.N,SCL*%
X89611200Y-110190200D03*
D15*
%TO.P,J5,2,Pin_2*%
%TO.N,SDA*%
X89611200Y-107650200D03*
%TO.P,J5,3,Pin_3*%
%TO.N,REF*%
X89611200Y-105110200D03*
%TO.P,J5,4,Pin_4*%
%TO.N,COM*%
X89611200Y-102570200D03*
%TO.P,J5,5,Pin_5*%
%TO.N,AD0*%
X89611200Y-100030200D03*
%TO.P,J5,6,Pin_6*%
%TO.N,AD1*%
X89611200Y-97490200D03*
%TD*%
D12*
%TO.P,J1,1,1*%
%TO.N,PWR3*%
X173985600Y-75492000D03*
D13*
%TO.P,J1,2,2*%
%TO.N,-BATT*%
X166485600Y-62992000D03*
%TO.P,J1,3,3*%
%TO.N,PWR4*%
X158985600Y-75492000D03*
%TO.P,J1,4,4*%
%TO.N,-BATT*%
X151485600Y-62992000D03*
%TD*%
D12*
%TO.P,J7,1,1*%
%TO.N,PWR7*%
X109252400Y-75339600D03*
D13*
%TO.P,J7,2,2*%
%TO.N,-BATT*%
X101752400Y-62839600D03*
%TO.P,J7,3,3*%
%TO.N,PWR8*%
X94252400Y-75339600D03*
%TO.P,J7,4,4*%
%TO.N,-BATT*%
X86752400Y-62839600D03*
%TD*%
D14*
%TO.P,J3,1,Pin_1*%
%TO.N,5V*%
X104967800Y-110236000D03*
D15*
%TO.P,J3,2,Pin_2*%
%TO.N,GND*%
X107507800Y-110236000D03*
%TO.P,J3,3,Pin_3*%
%TO.N,SCL*%
X110047800Y-110236000D03*
%TO.P,J3,4,Pin_4*%
%TO.N,SDA*%
X112587800Y-110236000D03*
%TO.P,J3,5,Pin_5*%
%TO.N,REF*%
X115127800Y-110236000D03*
%TO.P,J3,6,Pin_6*%
%TO.N,COM*%
X117667800Y-110236000D03*
%TO.P,J3,7,Pin_7*%
%TO.N,AD0*%
X120207800Y-110236000D03*
%TO.P,J3,8,Pin_8*%
%TO.N,AD1*%
X122747800Y-110236000D03*
%TD*%
D16*
%TO.N,GND*%
X155708468Y-86525218D03*
X177722329Y-86122000D03*
X161493200Y-86668000D03*
X193497200Y-86410800D03*
X144488682Y-86263376D03*
X109002173Y-100973900D03*
X146651985Y-86918120D03*
X85547200Y-80467200D03*
X129540000Y-85572400D03*
X97485200Y-86671200D03*
X113639600Y-85572400D03*
%TO.N,5V*%
X86715600Y-87934800D03*
X182168800Y-87782400D03*
X133807200Y-87528400D03*
X100888800Y-87290000D03*
X144710327Y-87253995D03*
X146659600Y-88138000D03*
X165709600Y-87731600D03*
X107727767Y-100265900D03*
X117754400Y-87493200D03*
X194310000Y-87376000D03*
X156006800Y-87630000D03*
%TO.N,VIout1*%
X155600400Y-91541600D03*
X146862800Y-91490800D03*
X195884800Y-87630000D03*
%TO.N,VIout2*%
X145186400Y-90322400D03*
X187401200Y-87680800D03*
X155778871Y-90552990D03*
%TO.N,VIout3*%
X170434000Y-87833200D03*
X145117136Y-89172464D03*
X156154551Y-89622786D03*
%TO.N,VIout4*%
X145159387Y-88151080D03*
%TO.N,VIout5*%
X131527790Y-88757200D03*
%TO.N,VIout6*%
X122529600Y-87137600D03*
%TO.N,VIout7*%
X106680000Y-87290000D03*
%TO.N,VIout8*%
X91389200Y-88442800D03*
%TO.N,SDA*%
X112522000Y-108305600D03*
%TO.N,AD1*%
X121970800Y-104902000D03*
%TO.N,COM*%
X117652800Y-106984800D03*
%TO.N,SCL*%
X109925368Y-108489600D03*
%TO.N,REF*%
X115062000Y-107746800D03*
%TO.N,AD0*%
X118947477Y-105352800D03*
%TD*%
D17*
%TO.N,SCL*%
X109925368Y-108489600D02*
X101822400Y-108489600D01*
X101822400Y-108489600D02*
X99949200Y-110362800D01*
X99949200Y-110362800D02*
X89783800Y-110362800D01*
%TO.N,SDA*%
X112522000Y-108305600D02*
X109067600Y-104851200D01*
X109067600Y-104851200D02*
X92862400Y-104851200D01*
X92862400Y-104851200D02*
X91846400Y-105867200D01*
X91846400Y-105867200D02*
X91394200Y-105867200D01*
X91394200Y-105867200D02*
X89611200Y-107650200D01*
%TO.N,COM*%
X90371400Y-103330400D02*
X89611200Y-102570200D01*
X117652800Y-106984800D02*
X113998400Y-103330400D01*
%TO.N,REF*%
X90683000Y-104038400D02*
X89611200Y-105110200D01*
%TO.N,COM*%
X113998400Y-103330400D02*
X90371400Y-103330400D01*
%TO.N,REF*%
X115062000Y-107746800D02*
X111353600Y-104038400D01*
X111353600Y-104038400D02*
X90683000Y-104038400D01*
%TO.N,AD0*%
X89611200Y-100030200D02*
X92199500Y-102618500D01*
X118947477Y-105352800D02*
X116213177Y-102618500D01*
X116213177Y-102618500D02*
X92199500Y-102618500D01*
%TO.N,5V*%
X95199200Y-97586800D02*
X96557200Y-97586800D01*
%TO.N,AD1*%
X89611200Y-97490200D02*
X93952100Y-101831100D01*
%TO.N,GND*%
X108852973Y-101123100D02*
X109002173Y-100973900D01*
%TO.N,5V*%
X96557200Y-97586800D02*
X99236300Y-100265900D01*
%TO.N,AD1*%
X121970800Y-104902000D02*
X118899900Y-101831100D01*
%TO.N,GND*%
X95199200Y-100126800D02*
X96195500Y-101123100D01*
%TO.N,5V*%
X99236300Y-100265900D02*
X107727767Y-100265900D01*
%TO.N,GND*%
X96195500Y-101123100D02*
X108852973Y-101123100D01*
%TO.N,AD1*%
X118899900Y-101831100D02*
X93952100Y-101831100D01*
%TO.N,GND*%
X145377404Y-86263376D02*
X145440400Y-86200380D01*
X85547200Y-80467200D02*
X85598000Y-81788000D01*
X95199200Y-100126800D02*
X85775800Y-90703400D01*
X161947200Y-86668000D02*
X162493200Y-86122000D01*
X161493200Y-86668000D02*
X161947200Y-86668000D01*
X112134400Y-85724800D02*
X98431600Y-85724800D01*
X113639600Y-85572400D02*
X112286800Y-85572400D01*
X98431600Y-85724800D02*
X97485200Y-86671200D01*
X144488682Y-86263376D02*
X143797706Y-85572400D01*
X158902400Y-86668000D02*
X158848400Y-86614000D01*
X85775800Y-90703400D02*
X85775800Y-86893400D01*
X144488682Y-86263376D02*
X145377404Y-86263376D01*
X162493200Y-86122000D02*
X177722329Y-86122000D01*
X143797706Y-85572400D02*
X129540000Y-85572400D01*
X112286800Y-85572400D02*
X112134400Y-85724800D01*
X85998000Y-86671200D02*
X97485200Y-86671200D01*
X85598000Y-81788000D02*
X85598000Y-86715600D01*
X193497200Y-86410800D02*
X193151200Y-86064800D01*
X155797250Y-86614000D02*
X155708468Y-86525218D01*
X158848400Y-86614000D02*
X155797250Y-86614000D01*
X85598000Y-86715600D02*
X85775800Y-86893400D01*
X193151200Y-86064800D02*
X177779529Y-86064800D01*
X85775800Y-86893400D02*
X85998000Y-86671200D01*
X145934245Y-86200380D02*
X146651985Y-86918120D01*
X145440400Y-86200380D02*
X145934245Y-86200380D01*
X161493200Y-86668000D02*
X158902400Y-86668000D01*
X177779529Y-86064800D02*
X177722329Y-86122000D01*
X129540000Y-85572400D02*
X113639600Y-85572400D01*
%TO.N,5V*%
X156006800Y-87630000D02*
X163626800Y-87630000D01*
X169301664Y-87731600D02*
X170054064Y-86979200D01*
X145650209Y-87253995D02*
X145775595Y-87253995D01*
X165608000Y-87376000D02*
X163880800Y-87376000D01*
X170054064Y-86979200D02*
X181365600Y-86979200D01*
X165608000Y-87376000D02*
X165757200Y-87525200D01*
X117754400Y-87493200D02*
X117719200Y-87528400D01*
X95199200Y-97586800D02*
X86715600Y-89103200D01*
X122884664Y-86280400D02*
X124155571Y-87551307D01*
X187959464Y-86823600D02*
X188511864Y-87376000D01*
X143813565Y-87551307D02*
X144110877Y-87253995D01*
X181867200Y-87525200D02*
X182016400Y-87376000D01*
X86715600Y-87934800D02*
X87122000Y-87528400D01*
X144110877Y-87253995D02*
X144710327Y-87253995D01*
X145650209Y-87253995D02*
X144710327Y-87253995D01*
X87122000Y-87528400D02*
X100650400Y-87528400D01*
X117719200Y-87528400D02*
X108130664Y-87528400D01*
X117754400Y-87493200D02*
X118967200Y-86280400D01*
X100650400Y-87528400D02*
X100888800Y-87290000D01*
X101746000Y-86432800D02*
X100888800Y-87290000D01*
X108130664Y-87528400D02*
X107035064Y-86432800D01*
X118967200Y-86280400D02*
X122884664Y-86280400D01*
X165709600Y-87731600D02*
X169301664Y-87731600D01*
X182568800Y-86823600D02*
X187959464Y-86823600D01*
X165608000Y-87376000D02*
X165608000Y-87630000D01*
X163626800Y-87630000D02*
X163880800Y-87376000D01*
X107035064Y-86432800D02*
X101746000Y-86432800D01*
X182016400Y-87376000D02*
X182568800Y-86823600D01*
X165608000Y-87630000D02*
X165709600Y-87731600D01*
X182016400Y-87630000D02*
X182168800Y-87782400D01*
X124155571Y-87551307D02*
X143813565Y-87551307D01*
X181365600Y-86979200D02*
X182168800Y-87782400D01*
X188511864Y-87376000D02*
X194310000Y-87376000D01*
X86715600Y-89103200D02*
X86715600Y-87934800D01*
X182016400Y-87376000D02*
X182016400Y-87630000D01*
X145775595Y-87253995D02*
X146659600Y-88138000D01*
%TO.N,VIout1*%
X145428600Y-92925000D02*
X125565800Y-92925000D01*
X195884800Y-87630000D02*
X190855600Y-92659200D01*
X156718000Y-92659200D02*
X190855600Y-92659200D01*
X125565800Y-92925000D02*
X122747800Y-95743000D01*
X146862800Y-91490800D02*
X145428600Y-92925000D01*
X156718000Y-92659200D02*
X155600400Y-91541600D01*
X122747800Y-95743000D02*
X122747800Y-97536000D01*
%TO.N,VIout2*%
X155851875Y-90479986D02*
X155778871Y-90552990D01*
X125254119Y-91287600D02*
X120207800Y-96333919D01*
X144221200Y-91287600D02*
X125254119Y-91287600D01*
X120207800Y-96333919D02*
X120207800Y-97536000D01*
X145186400Y-90322400D02*
X144221200Y-91287600D01*
X187401200Y-87680800D02*
X184602014Y-90479986D01*
X184602014Y-90479986D02*
X155851875Y-90479986D01*
%TO.N,VIout3*%
X117667800Y-97536000D02*
X124624200Y-90579600D01*
X156362937Y-89414400D02*
X156154551Y-89622786D01*
X168852800Y-89414400D02*
X156362937Y-89414400D01*
X170434000Y-87833200D02*
X168852800Y-89414400D01*
X124624200Y-90579600D02*
X143710000Y-90579600D01*
X143710000Y-90579600D02*
X145117136Y-89172464D01*
%TO.N,VIout4*%
X115127800Y-97536000D02*
X123049400Y-89614400D01*
X123049400Y-89614400D02*
X142751736Y-89614400D01*
X142751736Y-89614400D02*
X144215056Y-88151080D01*
X144215056Y-88151080D02*
X145159387Y-88151080D01*
%TO.N,VIout5*%
X121366600Y-88757200D02*
X131527790Y-88757200D01*
X112587800Y-97536000D02*
X121366600Y-88757200D01*
%TO.N,VIout6*%
X110047800Y-97536000D02*
X120446200Y-87137600D01*
X120446200Y-87137600D02*
X122529600Y-87137600D01*
%TO.N,VIout7*%
X107507800Y-88117800D02*
X106680000Y-87290000D01*
X107507800Y-97536000D02*
X107507800Y-88117800D01*
%TO.N,VIout8*%
X91389200Y-88442800D02*
X95874600Y-88442800D01*
X95874600Y-88442800D02*
X104967800Y-97536000D01*
D18*
%TO.N,-BATT*%
X151485600Y-74465600D02*
X151485600Y-75284536D01*
X151216000Y-73421600D02*
X151216000Y-85654845D01*
X151485600Y-73152000D02*
X151216000Y-73421600D01*
X119112000Y-62992000D02*
X140012000Y-62992000D01*
X183896000Y-62992000D02*
X166485600Y-62992000D01*
X151216000Y-94116800D02*
X151587200Y-94488000D01*
X166485600Y-62992000D02*
X151485600Y-62992000D01*
X151587200Y-94488000D02*
X151587200Y-104648000D01*
X134112000Y-62992000D02*
X141325600Y-62992000D01*
X163778136Y-62992000D02*
X183896000Y-62992000D01*
X151485600Y-75284536D02*
X163778136Y-62992000D01*
X118959600Y-62839600D02*
X119112000Y-62992000D01*
X198896000Y-62992000D02*
X183896000Y-62992000D01*
X119112000Y-62992000D02*
X134112000Y-62992000D01*
X134112000Y-62992000D02*
X151485600Y-62992000D01*
X151485600Y-62992000D02*
X151485600Y-73152000D01*
X101752400Y-62839600D02*
X118959600Y-62839600D01*
X151216000Y-89503555D02*
X151216000Y-94116800D01*
X151094800Y-85776045D02*
X151094800Y-89382355D01*
X151216000Y-85654845D02*
X151094800Y-85776045D01*
X166485600Y-62992000D02*
X161645600Y-62992000D01*
X161645600Y-62992000D02*
X151485600Y-73152000D01*
X140012000Y-62992000D02*
X151485600Y-74465600D01*
X141325600Y-62992000D02*
X151485600Y-73152000D01*
X86752400Y-62839600D02*
X101752400Y-62839600D01*
X151094800Y-89382355D02*
X151216000Y-89503555D01*
%TD*%
M02*
