%TF.GenerationSoftware,KiCad,Pcbnew,8.0.3*%
%TF.CreationDate,2025-02-02T18:29:45-08:00*%
%TF.ProjectId,Power_Distribution,506f7765-725f-4446-9973-747269627574,rev?*%
%TF.SameCoordinates,Original*%
%TF.FileFunction,Legend,Bot*%
%TF.FilePolarity,Positive*%
%FSLAX46Y46*%
G04 Gerber Fmt 4.6, Leading zero omitted, Abs format (unit mm)*
G04 Created by KiCad (PCBNEW 8.0.3) date 2025-02-02 18:29:45*
%MOMM*%
%LPD*%
G01*
G04 APERTURE LIST*
%ADD10C,0.150000*%
%ADD11C,0.120000*%
G04 APERTURE END LIST*
D10*
X92109095Y-97321884D02*
X92109095Y-96988550D01*
X92109095Y-96988550D02*
X92490047Y-96955217D01*
X92490047Y-96955217D02*
X92451952Y-96988550D01*
X92451952Y-96988550D02*
X92413857Y-97055217D01*
X92413857Y-97055217D02*
X92413857Y-97221884D01*
X92413857Y-97221884D02*
X92451952Y-97288550D01*
X92451952Y-97288550D02*
X92490047Y-97321884D01*
X92490047Y-97321884D02*
X92566238Y-97355217D01*
X92566238Y-97355217D02*
X92756714Y-97355217D01*
X92756714Y-97355217D02*
X92832904Y-97321884D01*
X92832904Y-97321884D02*
X92871000Y-97288550D01*
X92871000Y-97288550D02*
X92909095Y-97221884D01*
X92909095Y-97221884D02*
X92909095Y-97055217D01*
X92909095Y-97055217D02*
X92871000Y-96988550D01*
X92871000Y-96988550D02*
X92832904Y-96955217D01*
X92109095Y-97555217D02*
X92909095Y-97788551D01*
X92909095Y-97788551D02*
X92109095Y-98021884D01*
X92045590Y-99742817D02*
X92007495Y-99676150D01*
X92007495Y-99676150D02*
X92007495Y-99576150D01*
X92007495Y-99576150D02*
X92045590Y-99476150D01*
X92045590Y-99476150D02*
X92121780Y-99409484D01*
X92121780Y-99409484D02*
X92197971Y-99376150D01*
X92197971Y-99376150D02*
X92350352Y-99342817D01*
X92350352Y-99342817D02*
X92464638Y-99342817D01*
X92464638Y-99342817D02*
X92617019Y-99376150D01*
X92617019Y-99376150D02*
X92693209Y-99409484D01*
X92693209Y-99409484D02*
X92769400Y-99476150D01*
X92769400Y-99476150D02*
X92807495Y-99576150D01*
X92807495Y-99576150D02*
X92807495Y-99642817D01*
X92807495Y-99642817D02*
X92769400Y-99742817D01*
X92769400Y-99742817D02*
X92731304Y-99776150D01*
X92731304Y-99776150D02*
X92464638Y-99776150D01*
X92464638Y-99776150D02*
X92464638Y-99642817D01*
X92807495Y-100076150D02*
X92007495Y-100076150D01*
X92007495Y-100076150D02*
X92807495Y-100476150D01*
X92807495Y-100476150D02*
X92007495Y-100476150D01*
X92807495Y-100809483D02*
X92007495Y-100809483D01*
X92007495Y-100809483D02*
X92007495Y-100976150D01*
X92007495Y-100976150D02*
X92045590Y-101076150D01*
X92045590Y-101076150D02*
X92121780Y-101142817D01*
X92121780Y-101142817D02*
X92197971Y-101176150D01*
X92197971Y-101176150D02*
X92350352Y-101209483D01*
X92350352Y-101209483D02*
X92464638Y-101209483D01*
X92464638Y-101209483D02*
X92617019Y-101176150D01*
X92617019Y-101176150D02*
X92693209Y-101142817D01*
X92693209Y-101142817D02*
X92769400Y-101076150D01*
X92769400Y-101076150D02*
X92807495Y-100976150D01*
X92807495Y-100976150D02*
X92807495Y-100809483D01*
X87130600Y-109553617D02*
X87168695Y-109653617D01*
X87168695Y-109653617D02*
X87168695Y-109820284D01*
X87168695Y-109820284D02*
X87130600Y-109886950D01*
X87130600Y-109886950D02*
X87092504Y-109920284D01*
X87092504Y-109920284D02*
X87016314Y-109953617D01*
X87016314Y-109953617D02*
X86940123Y-109953617D01*
X86940123Y-109953617D02*
X86863933Y-109920284D01*
X86863933Y-109920284D02*
X86825838Y-109886950D01*
X86825838Y-109886950D02*
X86787742Y-109820284D01*
X86787742Y-109820284D02*
X86749647Y-109686950D01*
X86749647Y-109686950D02*
X86711552Y-109620284D01*
X86711552Y-109620284D02*
X86673457Y-109586950D01*
X86673457Y-109586950D02*
X86597266Y-109553617D01*
X86597266Y-109553617D02*
X86521076Y-109553617D01*
X86521076Y-109553617D02*
X86444885Y-109586950D01*
X86444885Y-109586950D02*
X86406790Y-109620284D01*
X86406790Y-109620284D02*
X86368695Y-109686950D01*
X86368695Y-109686950D02*
X86368695Y-109853617D01*
X86368695Y-109853617D02*
X86406790Y-109953617D01*
X87092504Y-110653617D02*
X87130600Y-110620284D01*
X87130600Y-110620284D02*
X87168695Y-110520284D01*
X87168695Y-110520284D02*
X87168695Y-110453617D01*
X87168695Y-110453617D02*
X87130600Y-110353617D01*
X87130600Y-110353617D02*
X87054409Y-110286951D01*
X87054409Y-110286951D02*
X86978219Y-110253617D01*
X86978219Y-110253617D02*
X86825838Y-110220284D01*
X86825838Y-110220284D02*
X86711552Y-110220284D01*
X86711552Y-110220284D02*
X86559171Y-110253617D01*
X86559171Y-110253617D02*
X86482980Y-110286951D01*
X86482980Y-110286951D02*
X86406790Y-110353617D01*
X86406790Y-110353617D02*
X86368695Y-110453617D01*
X86368695Y-110453617D02*
X86368695Y-110520284D01*
X86368695Y-110520284D02*
X86406790Y-110620284D01*
X86406790Y-110620284D02*
X86444885Y-110653617D01*
X87168695Y-111286951D02*
X87168695Y-110953617D01*
X87168695Y-110953617D02*
X86368695Y-110953617D01*
X87232200Y-106912017D02*
X87270295Y-107012017D01*
X87270295Y-107012017D02*
X87270295Y-107178684D01*
X87270295Y-107178684D02*
X87232200Y-107245350D01*
X87232200Y-107245350D02*
X87194104Y-107278684D01*
X87194104Y-107278684D02*
X87117914Y-107312017D01*
X87117914Y-107312017D02*
X87041723Y-107312017D01*
X87041723Y-107312017D02*
X86965533Y-107278684D01*
X86965533Y-107278684D02*
X86927438Y-107245350D01*
X86927438Y-107245350D02*
X86889342Y-107178684D01*
X86889342Y-107178684D02*
X86851247Y-107045350D01*
X86851247Y-107045350D02*
X86813152Y-106978684D01*
X86813152Y-106978684D02*
X86775057Y-106945350D01*
X86775057Y-106945350D02*
X86698866Y-106912017D01*
X86698866Y-106912017D02*
X86622676Y-106912017D01*
X86622676Y-106912017D02*
X86546485Y-106945350D01*
X86546485Y-106945350D02*
X86508390Y-106978684D01*
X86508390Y-106978684D02*
X86470295Y-107045350D01*
X86470295Y-107045350D02*
X86470295Y-107212017D01*
X86470295Y-107212017D02*
X86508390Y-107312017D01*
X87270295Y-107612017D02*
X86470295Y-107612017D01*
X86470295Y-107612017D02*
X86470295Y-107778684D01*
X86470295Y-107778684D02*
X86508390Y-107878684D01*
X86508390Y-107878684D02*
X86584580Y-107945351D01*
X86584580Y-107945351D02*
X86660771Y-107978684D01*
X86660771Y-107978684D02*
X86813152Y-108012017D01*
X86813152Y-108012017D02*
X86927438Y-108012017D01*
X86927438Y-108012017D02*
X87079819Y-107978684D01*
X87079819Y-107978684D02*
X87156009Y-107945351D01*
X87156009Y-107945351D02*
X87232200Y-107878684D01*
X87232200Y-107878684D02*
X87270295Y-107778684D01*
X87270295Y-107778684D02*
X87270295Y-107612017D01*
X87041723Y-108278684D02*
X87041723Y-108612017D01*
X87270295Y-108212017D02*
X86470295Y-108445351D01*
X86470295Y-108445351D02*
X87270295Y-108678684D01*
X87270295Y-104602150D02*
X86889342Y-104368817D01*
X87270295Y-104202150D02*
X86470295Y-104202150D01*
X86470295Y-104202150D02*
X86470295Y-104468817D01*
X86470295Y-104468817D02*
X86508390Y-104535484D01*
X86508390Y-104535484D02*
X86546485Y-104568817D01*
X86546485Y-104568817D02*
X86622676Y-104602150D01*
X86622676Y-104602150D02*
X86736961Y-104602150D01*
X86736961Y-104602150D02*
X86813152Y-104568817D01*
X86813152Y-104568817D02*
X86851247Y-104535484D01*
X86851247Y-104535484D02*
X86889342Y-104468817D01*
X86889342Y-104468817D02*
X86889342Y-104202150D01*
X86851247Y-104902150D02*
X86851247Y-105135484D01*
X87270295Y-105235484D02*
X87270295Y-104902150D01*
X87270295Y-104902150D02*
X86470295Y-104902150D01*
X86470295Y-104902150D02*
X86470295Y-105235484D01*
X86851247Y-105768817D02*
X86851247Y-105535483D01*
X87270295Y-105535483D02*
X86470295Y-105535483D01*
X86470295Y-105535483D02*
X86470295Y-105868817D01*
X87194104Y-102163750D02*
X87232200Y-102130417D01*
X87232200Y-102130417D02*
X87270295Y-102030417D01*
X87270295Y-102030417D02*
X87270295Y-101963750D01*
X87270295Y-101963750D02*
X87232200Y-101863750D01*
X87232200Y-101863750D02*
X87156009Y-101797084D01*
X87156009Y-101797084D02*
X87079819Y-101763750D01*
X87079819Y-101763750D02*
X86927438Y-101730417D01*
X86927438Y-101730417D02*
X86813152Y-101730417D01*
X86813152Y-101730417D02*
X86660771Y-101763750D01*
X86660771Y-101763750D02*
X86584580Y-101797084D01*
X86584580Y-101797084D02*
X86508390Y-101863750D01*
X86508390Y-101863750D02*
X86470295Y-101963750D01*
X86470295Y-101963750D02*
X86470295Y-102030417D01*
X86470295Y-102030417D02*
X86508390Y-102130417D01*
X86508390Y-102130417D02*
X86546485Y-102163750D01*
X86470295Y-102597084D02*
X86470295Y-102730417D01*
X86470295Y-102730417D02*
X86508390Y-102797084D01*
X86508390Y-102797084D02*
X86584580Y-102863750D01*
X86584580Y-102863750D02*
X86736961Y-102897084D01*
X86736961Y-102897084D02*
X87003628Y-102897084D01*
X87003628Y-102897084D02*
X87156009Y-102863750D01*
X87156009Y-102863750D02*
X87232200Y-102797084D01*
X87232200Y-102797084D02*
X87270295Y-102730417D01*
X87270295Y-102730417D02*
X87270295Y-102597084D01*
X87270295Y-102597084D02*
X87232200Y-102530417D01*
X87232200Y-102530417D02*
X87156009Y-102463750D01*
X87156009Y-102463750D02*
X87003628Y-102430417D01*
X87003628Y-102430417D02*
X86736961Y-102430417D01*
X86736961Y-102430417D02*
X86584580Y-102463750D01*
X86584580Y-102463750D02*
X86508390Y-102530417D01*
X86508390Y-102530417D02*
X86470295Y-102597084D01*
X87270295Y-103197083D02*
X86470295Y-103197083D01*
X86470295Y-103197083D02*
X87041723Y-103430417D01*
X87041723Y-103430417D02*
X86470295Y-103663750D01*
X86470295Y-103663750D02*
X87270295Y-103663750D01*
X87041723Y-99190417D02*
X87041723Y-99523750D01*
X87270295Y-99123750D02*
X86470295Y-99357084D01*
X86470295Y-99357084D02*
X87270295Y-99590417D01*
X87270295Y-99823750D02*
X86470295Y-99823750D01*
X86470295Y-99823750D02*
X86470295Y-99990417D01*
X86470295Y-99990417D02*
X86508390Y-100090417D01*
X86508390Y-100090417D02*
X86584580Y-100157084D01*
X86584580Y-100157084D02*
X86660771Y-100190417D01*
X86660771Y-100190417D02*
X86813152Y-100223750D01*
X86813152Y-100223750D02*
X86927438Y-100223750D01*
X86927438Y-100223750D02*
X87079819Y-100190417D01*
X87079819Y-100190417D02*
X87156009Y-100157084D01*
X87156009Y-100157084D02*
X87232200Y-100090417D01*
X87232200Y-100090417D02*
X87270295Y-99990417D01*
X87270295Y-99990417D02*
X87270295Y-99823750D01*
X86470295Y-100657084D02*
X86470295Y-100723750D01*
X86470295Y-100723750D02*
X86508390Y-100790417D01*
X86508390Y-100790417D02*
X86546485Y-100823750D01*
X86546485Y-100823750D02*
X86622676Y-100857084D01*
X86622676Y-100857084D02*
X86775057Y-100890417D01*
X86775057Y-100890417D02*
X86965533Y-100890417D01*
X86965533Y-100890417D02*
X87117914Y-100857084D01*
X87117914Y-100857084D02*
X87194104Y-100823750D01*
X87194104Y-100823750D02*
X87232200Y-100790417D01*
X87232200Y-100790417D02*
X87270295Y-100723750D01*
X87270295Y-100723750D02*
X87270295Y-100657084D01*
X87270295Y-100657084D02*
X87232200Y-100590417D01*
X87232200Y-100590417D02*
X87194104Y-100557084D01*
X87194104Y-100557084D02*
X87117914Y-100523750D01*
X87117914Y-100523750D02*
X86965533Y-100490417D01*
X86965533Y-100490417D02*
X86775057Y-100490417D01*
X86775057Y-100490417D02*
X86622676Y-100523750D01*
X86622676Y-100523750D02*
X86546485Y-100557084D01*
X86546485Y-100557084D02*
X86508390Y-100590417D01*
X86508390Y-100590417D02*
X86470295Y-100657084D01*
X87041723Y-96599617D02*
X87041723Y-96932950D01*
X87270295Y-96532950D02*
X86470295Y-96766284D01*
X86470295Y-96766284D02*
X87270295Y-96999617D01*
X87270295Y-97232950D02*
X86470295Y-97232950D01*
X86470295Y-97232950D02*
X86470295Y-97399617D01*
X86470295Y-97399617D02*
X86508390Y-97499617D01*
X86508390Y-97499617D02*
X86584580Y-97566284D01*
X86584580Y-97566284D02*
X86660771Y-97599617D01*
X86660771Y-97599617D02*
X86813152Y-97632950D01*
X86813152Y-97632950D02*
X86927438Y-97632950D01*
X86927438Y-97632950D02*
X87079819Y-97599617D01*
X87079819Y-97599617D02*
X87156009Y-97566284D01*
X87156009Y-97566284D02*
X87232200Y-97499617D01*
X87232200Y-97499617D02*
X87270295Y-97399617D01*
X87270295Y-97399617D02*
X87270295Y-97232950D01*
X87270295Y-98299617D02*
X87270295Y-97899617D01*
X87270295Y-98099617D02*
X86470295Y-98099617D01*
X86470295Y-98099617D02*
X86584580Y-98032950D01*
X86584580Y-98032950D02*
X86660771Y-97966284D01*
X86660771Y-97966284D02*
X86698866Y-97899617D01*
D11*
%TO.C,J8*%
X95199200Y-96256800D02*
X96529200Y-96256800D01*
X96529200Y-96256800D02*
X96529200Y-97586800D01*
X96529200Y-101456800D02*
X96529200Y-98856800D01*
X93869200Y-98856800D02*
X96529200Y-98856800D01*
X93869200Y-101456800D02*
X96529200Y-101456800D01*
X93869200Y-101456800D02*
X93869200Y-98856800D01*
%TO.C,J5*%
X90941200Y-96160200D02*
X90941200Y-108920200D01*
X90941200Y-96160200D02*
X88281200Y-96160200D01*
X90941200Y-108920200D02*
X88281200Y-108920200D01*
X88281200Y-96160200D02*
X88281200Y-108920200D01*
X88281200Y-111520200D02*
X88281200Y-110190200D01*
X89611200Y-111520200D02*
X88281200Y-111520200D01*
%TD*%
M02*
