%TF.GenerationSoftware,KiCad,Pcbnew,7.0.2-0*%
%TF.CreationDate,2024-05-03T02:11:47-07:00*%
%TF.ProjectId,EE156_2_Layer,45453135-365f-4325-9f4c-617965722e6b,rev?*%
%TF.SameCoordinates,Original*%
%TF.FileFunction,Soldermask,Bot*%
%TF.FilePolarity,Negative*%
%FSLAX46Y46*%
G04 Gerber Fmt 4.6, Leading zero omitted, Abs format (unit mm)*
G04 Created by KiCad (PCBNEW 7.0.2-0) date 2024-05-03 02:11:47*
%MOMM*%
%LPD*%
G01*
G04 APERTURE LIST*
%ADD10C,2.004000*%
%ADD11C,3.200000*%
%ADD12R,1.700000X1.700000*%
%ADD13O,1.700000X1.700000*%
G04 APERTURE END LIST*
D10*
%TO.C,J6*%
X271800000Y-190517500D03*
X271800000Y-180617500D03*
X266800000Y-190517500D03*
X266800000Y-180617500D03*
%TD*%
%TO.C,J2*%
X205882500Y-151400000D03*
X215782500Y-151400000D03*
X205882500Y-146400000D03*
X215782500Y-146400000D03*
%TD*%
%TO.C,J8*%
X247100000Y-190517500D03*
X247100000Y-180617500D03*
X242100000Y-190517500D03*
X242100000Y-180617500D03*
%TD*%
%TO.C,J9*%
X234750000Y-190517500D03*
X234750000Y-180617500D03*
X229750000Y-190517500D03*
X229750000Y-180617500D03*
%TD*%
%TO.C,J5*%
X283900000Y-190517500D03*
X283900000Y-180617500D03*
X278900000Y-190517500D03*
X278900000Y-180617500D03*
%TD*%
D11*
%TO.C,H3*%
X315500000Y-183000000D03*
%TD*%
D10*
%TO.C,J1*%
X205882500Y-163800000D03*
X215782500Y-163800000D03*
X205882500Y-158800000D03*
X215782500Y-158800000D03*
%TD*%
D11*
%TO.C,H2*%
X315500000Y-138000000D03*
%TD*%
%TO.C,H4*%
X210500000Y-183000000D03*
%TD*%
D10*
%TO.C,J7*%
X259450000Y-190517500D03*
X259450000Y-180617500D03*
X254450000Y-190517500D03*
X254450000Y-180617500D03*
%TD*%
D12*
%TO.C,J14*%
X233100000Y-135600000D03*
D13*
X235640000Y-135600000D03*
X238180000Y-135600000D03*
X240720000Y-135600000D03*
%TD*%
D10*
%TO.C,J3*%
X308600000Y-190517500D03*
X308600000Y-180617500D03*
X303600000Y-190517500D03*
X303600000Y-180617500D03*
%TD*%
%TO.C,J10*%
X222400000Y-190517500D03*
X222400000Y-180617500D03*
X217400000Y-190517500D03*
X217400000Y-180617500D03*
%TD*%
D11*
%TO.C,H1*%
X210500000Y-138000000D03*
%TD*%
D10*
%TO.C,J4*%
X296250000Y-190517500D03*
X296250000Y-180617500D03*
X291250000Y-190517500D03*
X291250000Y-180617500D03*
%TD*%
M02*
