%TF.GenerationSoftware,KiCad,Pcbnew,8.0.3*%
%TF.CreationDate,2024-11-15T02:09:21-08:00*%
%TF.ProjectId,Power_Management,506f7765-725f-44d6-916e-6167656d656e,rev?*%
%TF.SameCoordinates,Original*%
%TF.FileFunction,Soldermask,Top*%
%TF.FilePolarity,Negative*%
%FSLAX46Y46*%
G04 Gerber Fmt 4.6, Leading zero omitted, Abs format (unit mm)*
G04 Created by KiCad (PCBNEW 8.0.3) date 2024-11-15 02:09:21*
%MOMM*%
%LPD*%
G01*
G04 APERTURE LIST*
G04 Aperture macros list*
%AMRoundRect*
0 Rectangle with rounded corners*
0 $1 Rounding radius*
0 $2 $3 $4 $5 $6 $7 $8 $9 X,Y pos of 4 corners*
0 Add a 4 corners polygon primitive as box body*
4,1,4,$2,$3,$4,$5,$6,$7,$8,$9,$2,$3,0*
0 Add four circle primitives for the rounded corners*
1,1,$1+$1,$2,$3*
1,1,$1+$1,$4,$5*
1,1,$1+$1,$6,$7*
1,1,$1+$1,$8,$9*
0 Add four rect primitives between the rounded corners*
20,1,$1+$1,$2,$3,$4,$5,0*
20,1,$1+$1,$4,$5,$6,$7,0*
20,1,$1+$1,$6,$7,$8,$9,0*
20,1,$1+$1,$8,$9,$2,$3,0*%
%AMFreePoly0*
4,1,19,0.500000,-0.750000,0.000000,-0.750000,0.000000,-0.744911,-0.071157,-0.744911,-0.207708,-0.704816,-0.327430,-0.627875,-0.420627,-0.520320,-0.479746,-0.390866,-0.500000,-0.250000,-0.500000,0.250000,-0.479746,0.390866,-0.420627,0.520320,-0.327430,0.627875,-0.207708,0.704816,-0.071157,0.744911,0.000000,0.744911,0.000000,0.750000,0.500000,0.750000,0.500000,-0.750000,0.500000,-0.750000,
$1*%
%AMFreePoly1*
4,1,19,0.000000,0.744911,0.071157,0.744911,0.207708,0.704816,0.327430,0.627875,0.420627,0.520320,0.479746,0.390866,0.500000,0.250000,0.500000,-0.250000,0.479746,-0.390866,0.420627,-0.520320,0.327430,-0.627875,0.207708,-0.704816,0.071157,-0.744911,0.000000,-0.744911,0.000000,-0.750000,-0.500000,-0.750000,-0.500000,0.750000,0.000000,0.750000,0.000000,0.744911,0.000000,0.744911,
$1*%
%AMFreePoly2*
4,1,19,0.550000,-0.750000,0.000000,-0.750000,0.000000,-0.744911,-0.071157,-0.744911,-0.207708,-0.704816,-0.327430,-0.627875,-0.420627,-0.520320,-0.479746,-0.390866,-0.500000,-0.250000,-0.500000,0.250000,-0.479746,0.390866,-0.420627,0.520320,-0.327430,0.627875,-0.207708,0.704816,-0.071157,0.744911,0.000000,0.744911,0.000000,0.750000,0.550000,0.750000,0.550000,-0.750000,0.550000,-0.750000,
$1*%
%AMFreePoly3*
4,1,19,0.000000,0.744911,0.071157,0.744911,0.207708,0.704816,0.327430,0.627875,0.420627,0.520320,0.479746,0.390866,0.500000,0.250000,0.500000,-0.250000,0.479746,-0.390866,0.420627,-0.520320,0.327430,-0.627875,0.207708,-0.704816,0.071157,-0.744911,0.000000,-0.744911,0.000000,-0.750000,-0.550000,-0.750000,-0.550000,0.750000,0.000000,0.750000,0.000000,0.744911,0.000000,0.744911,
$1*%
%AMFreePoly4*
4,1,64,2.219304,2.963065,2.677052,2.853170,3.111972,2.673020,3.513357,2.427051,3.871321,2.121320,4.177052,1.763356,4.423021,1.361971,4.603171,0.927051,4.713066,0.469303,4.750001,0.000000,4.713066,-0.469303,4.603171,-0.927051,4.423021,-1.361971,4.177052,-1.763356,3.871321,-2.121320,3.513357,-2.427051,3.111972,-2.673020,2.677052,-2.853170,2.219304,-2.963065,1.750001,-3.000000,
-2.249999,-3.000000,-2.397706,-2.996361,-2.545055,-2.985454,-2.691689,-2.967306,-2.837251,-2.941960,-2.981388,-2.909478,-3.123751,-2.869938,-3.263995,-2.823437,-3.401780,-2.770088,-3.536770,-2.710019,-3.668639,-2.643376,-3.797067,-2.570322,-3.921743,-2.491033,-4.042363,-2.405702,-4.158636,-2.314536,-4.270279,-2.217755,-4.377022,-2.115595,-4.478605,-2.008303,-4.574782,-1.896139,-4.665320,-1.779377,
-4.750000,-1.658298,-4.750001,1.658297,-4.665322,1.779376,-4.574783,1.896139,-4.478606,2.008302,-4.377023,2.115594,-4.270281,2.217755,-4.158637,2.314535,-4.042365,2.405702,-3.921744,2.491033,-3.797069,2.570322,-3.668640,2.643376,-3.536771,2.710019,-3.401780,2.770087,-3.263996,2.823437,-3.123752,2.869937,-2.981389,2.909477,-2.837251,2.941959,-2.691689,2.967304,-2.545056,2.985452,
-2.397706,2.996359,-2.249999,2.999997,1.750001,3.000000,2.219304,2.963065,2.219304,2.963065,$1*%
%AMFreePoly5*
4,1,64,2.397707,2.996361,2.545056,2.985454,2.691689,2.967306,2.837251,2.941960,2.981388,2.909477,3.123751,2.869938,3.263995,2.823437,3.401779,2.770087,3.536770,2.710019,3.668639,2.643376,3.797067,2.570322,3.921742,2.491033,4.042363,2.405702,4.158635,2.314536,4.270278,2.217755,4.377021,2.115595,4.478604,2.008303,4.574782,1.896140,4.665320,1.779378,4.750000,1.658299,
4.750001,-1.658298,4.665321,-1.779377,4.574783,-1.896139,4.478606,-2.008303,4.377022,-2.115595,4.270280,-2.217755,4.158637,-2.314536,4.042364,-2.405702,3.921744,-2.491033,3.797068,-2.570322,3.668640,-2.643376,3.536771,-2.710019,3.401780,-2.770087,3.263996,-2.823437,3.123752,-2.869937,2.981389,-2.909477,2.837251,-2.941959,2.691689,-2.967305,2.545056,-2.985453,2.397707,-2.996360,
2.250000,-2.999998,-1.750001,-3.000000,-2.219304,-2.963065,-2.677051,-2.853170,-3.111972,-2.673020,-3.513356,-2.427051,-3.871321,-2.121320,-4.177051,-1.763356,-4.423020,-1.361971,-4.603170,-0.927051,-4.713066,-0.469303,-4.750001,0.000000,-4.713066,0.469303,-4.603170,0.927051,-4.423020,1.361971,-4.177051,1.763356,-3.871321,2.121320,-3.513356,2.427051,-3.111972,2.673020,-2.677051,2.853170,
-2.219304,2.963065,-1.750001,3.000000,2.250000,3.000000,2.397707,2.996361,2.397707,2.996361,$1*%
G04 Aperture macros list end*
%ADD10C,0.000000*%
%ADD11RoundRect,0.250000X0.450000X-0.325000X0.450000X0.325000X-0.450000X0.325000X-0.450000X-0.325000X0*%
%ADD12C,1.498600*%
%ADD13R,1.700000X1.700000*%
%ADD14O,1.700000X1.700000*%
%ADD15R,1.397000X1.219200*%
%ADD16RoundRect,0.250000X-0.450000X0.350000X-0.450000X-0.350000X0.450000X-0.350000X0.450000X0.350000X0*%
%ADD17R,0.990600X1.143000*%
%ADD18R,3.098800X5.207000*%
%ADD19FreePoly0,0.000000*%
%ADD20FreePoly1,0.000000*%
%ADD21RoundRect,0.250000X-0.325000X-0.450000X0.325000X-0.450000X0.325000X0.450000X-0.325000X0.450000X0*%
%ADD22RoundRect,0.250000X0.350000X0.450000X-0.350000X0.450000X-0.350000X-0.450000X0.350000X-0.450000X0*%
%ADD23R,1.498600X1.498600*%
%ADD24C,2.235200*%
%ADD25RoundRect,0.250000X0.262500X0.450000X-0.262500X0.450000X-0.262500X-0.450000X0.262500X-0.450000X0*%
%ADD26C,3.200000*%
%ADD27R,0.800000X2.500000*%
%ADD28R,10.100005X7.999995*%
%ADD29R,0.533400X1.981200*%
%ADD30RoundRect,0.250000X-0.475000X0.337500X-0.475000X-0.337500X0.475000X-0.337500X0.475000X0.337500X0*%
%ADD31RoundRect,0.100000X0.100000X-0.650000X0.100000X0.650000X-0.100000X0.650000X-0.100000X-0.650000X0*%
%ADD32R,2.209800X1.168400*%
%ADD33FreePoly0,90.000000*%
%ADD34FreePoly1,90.000000*%
%ADD35RoundRect,0.250000X0.450000X-0.350000X0.450000X0.350000X-0.450000X0.350000X-0.450000X-0.350000X0*%
%ADD36RoundRect,0.250000X0.475000X-0.337500X0.475000X0.337500X-0.475000X0.337500X-0.475000X-0.337500X0*%
%ADD37FreePoly0,270.000000*%
%ADD38FreePoly1,270.000000*%
%ADD39R,0.533400X1.460500*%
%ADD40FreePoly2,180.000000*%
%ADD41R,1.000000X1.500000*%
%ADD42FreePoly3,180.000000*%
%ADD43RoundRect,1.300000X-0.000010X2.000000X-0.000010X-2.000000X0.000010X-2.000000X0.000010X2.000000X0*%
%ADD44FreePoly4,270.000000*%
%ADD45FreePoly5,270.000000*%
%ADD46R,0.355600X1.168400*%
%ADD47FreePoly2,0.000000*%
%ADD48FreePoly3,0.000000*%
G04 APERTURE END LIST*
D10*
%TO.C,Q1*%
G36*
X184492004Y-134241996D02*
G01*
X183642005Y-134242002D01*
X183642005Y-137041997D01*
X184492004Y-137042001D01*
X184492004Y-138541998D01*
X174391998Y-138541998D01*
X174391998Y-137042001D01*
X175241997Y-137041997D01*
X175241997Y-134242002D01*
X174391998Y-134241996D01*
X174391998Y-130542003D01*
X184492004Y-130542003D01*
X184492004Y-134241996D01*
G37*
G36*
X175642000Y-127241999D02*
G01*
X176042000Y-127241999D01*
X176042002Y-125242000D01*
X176842000Y-125242000D01*
X176842000Y-127241999D01*
X177242000Y-127241999D01*
X177242000Y-125242000D01*
X178041999Y-125242000D01*
X178042000Y-127241999D01*
X178442000Y-127241999D01*
X178442000Y-125242000D01*
X179242000Y-125242000D01*
X179242000Y-127241999D01*
X179642000Y-127241999D01*
X179642000Y-125242000D01*
X180442000Y-125242000D01*
X180442000Y-127241999D01*
X180842000Y-127241999D01*
X180842000Y-125242000D01*
X181642000Y-125242000D01*
X181642000Y-127241999D01*
X182042000Y-127241999D01*
X182042000Y-125242000D01*
X182842000Y-125242000D01*
X182842000Y-127742000D01*
X174842002Y-127742000D01*
X174842002Y-125242000D01*
X175642002Y-125242000D01*
X175642000Y-127241999D01*
G37*
%TO.C,Q3*%
G36*
X210146004Y-134241996D02*
G01*
X209296005Y-134242002D01*
X209296005Y-137041997D01*
X210146004Y-137042001D01*
X210146004Y-138541998D01*
X200045998Y-138541998D01*
X200045998Y-137042001D01*
X200895997Y-137041997D01*
X200895997Y-134242002D01*
X200045998Y-134241996D01*
X200045998Y-130542003D01*
X210146004Y-130542003D01*
X210146004Y-134241996D01*
G37*
G36*
X201296000Y-127241999D02*
G01*
X201696000Y-127241999D01*
X201696002Y-125242000D01*
X202496000Y-125242000D01*
X202496000Y-127241999D01*
X202896000Y-127241999D01*
X202896000Y-125242000D01*
X203695999Y-125242000D01*
X203696000Y-127241999D01*
X204096000Y-127241999D01*
X204096000Y-125242000D01*
X204896000Y-125242000D01*
X204896000Y-127241999D01*
X205296000Y-127241999D01*
X205296000Y-125242000D01*
X206096000Y-125242000D01*
X206096000Y-127241999D01*
X206496000Y-127241999D01*
X206496000Y-125242000D01*
X207296000Y-125242000D01*
X207296000Y-127241999D01*
X207696000Y-127241999D01*
X207696000Y-125242000D01*
X208496000Y-125242000D01*
X208496000Y-127742000D01*
X200496002Y-127742000D01*
X200496002Y-125242000D01*
X201296002Y-125242000D01*
X201296000Y-127241999D01*
G37*
%TO.C,Q2*%
G36*
X197328003Y-129239996D02*
G01*
X196478004Y-129240002D01*
X196478004Y-132039997D01*
X197328003Y-132040001D01*
X197328003Y-133539998D01*
X187227997Y-133539998D01*
X187227997Y-132040001D01*
X188077996Y-132039997D01*
X188077996Y-129240002D01*
X187227997Y-129239996D01*
X187227997Y-125540003D01*
X197328003Y-125540003D01*
X197328003Y-129239996D01*
G37*
G36*
X188477999Y-122239999D02*
G01*
X188877999Y-122239999D01*
X188878001Y-120240000D01*
X189677999Y-120240000D01*
X189677999Y-122239999D01*
X190077999Y-122239999D01*
X190077999Y-120240000D01*
X190877998Y-120240000D01*
X190877999Y-122239999D01*
X191277999Y-122239999D01*
X191277999Y-120240000D01*
X192077999Y-120240000D01*
X192077999Y-122239999D01*
X192477999Y-122239999D01*
X192477999Y-120240000D01*
X193277999Y-120240000D01*
X193277999Y-122239999D01*
X193677999Y-122239999D01*
X193677999Y-120240000D01*
X194477999Y-120240000D01*
X194477999Y-122239999D01*
X194877999Y-122239999D01*
X194877999Y-120240000D01*
X195677999Y-120240000D01*
X195677999Y-122740000D01*
X187678001Y-122740000D01*
X187678001Y-120240000D01*
X188478001Y-120240000D01*
X188477999Y-122239999D01*
G37*
%TD*%
D11*
%TO.C,D2*%
X156718000Y-99069000D03*
X156718000Y-97019000D03*
%TD*%
D12*
%TO.C,K2*%
X168656000Y-93726000D03*
X168656000Y-96266000D03*
X168656000Y-103886000D03*
X173736000Y-103886000D03*
X173736000Y-96266000D03*
X173736000Y-93726000D03*
%TD*%
D13*
%TO.C,J8*%
X153162000Y-176885600D03*
D14*
X153162000Y-174345600D03*
X153162000Y-171805600D03*
X153162000Y-169265600D03*
%TD*%
D15*
%TO.C,C7*%
X181965600Y-101854000D03*
X186182000Y-101854000D03*
%TD*%
D16*
%TO.C,R9*%
X166624000Y-169180000D03*
X166624000Y-171180000D03*
%TD*%
D17*
%TO.C,CR1*%
X211898002Y-114554000D03*
X210058000Y-114554000D03*
D18*
X210978001Y-118541800D03*
%TD*%
D15*
%TO.C,C9*%
X181965600Y-107188000D03*
X186182000Y-107188000D03*
%TD*%
D16*
%TO.C,R11*%
X166624000Y-174260000D03*
X166624000Y-176260000D03*
%TD*%
D19*
%TO.C,JP5*%
X164054000Y-134620000D03*
D20*
X165354000Y-134620000D03*
%TD*%
D21*
%TO.C,D3*%
X161382600Y-107950000D03*
X163432600Y-107950000D03*
%TD*%
D22*
%TO.C,R5*%
X181594000Y-145542000D03*
X179594000Y-145542000D03*
%TD*%
D12*
%TO.C,D6*%
X162814000Y-120142000D03*
D23*
X153913840Y-120142000D03*
%TD*%
D24*
%TO.C,J3*%
X195326000Y-165354000D03*
X195326000Y-175514000D03*
X205486000Y-165354000D03*
X205486000Y-175514000D03*
%TD*%
D16*
%TO.C,R12*%
X162052000Y-174244000D03*
X162052000Y-176244000D03*
%TD*%
D25*
%TO.C,TH2*%
X172056750Y-133252000D03*
X170231750Y-133252000D03*
%TD*%
%TO.C,TH1*%
X172056750Y-128016000D03*
X170231750Y-128016000D03*
%TD*%
D26*
%TO.C,H1*%
X215798400Y-101631600D03*
%TD*%
D13*
%TO.C,J2*%
X153162000Y-155951000D03*
D14*
X153162000Y-158491000D03*
%TD*%
D27*
%TO.C,Q1*%
X183642000Y-126492000D03*
X182442000Y-126492000D03*
X181242000Y-126492000D03*
X180042000Y-126492000D03*
X178842000Y-126492000D03*
X177642000Y-126492000D03*
X176442002Y-126492000D03*
X175242002Y-126492000D03*
D28*
X179442001Y-134542000D03*
%TD*%
D16*
%TO.C,R7*%
X157734000Y-169180000D03*
X157734000Y-171180000D03*
%TD*%
D29*
%TO.C,U6*%
X169164000Y-113868200D03*
X167894000Y-113868200D03*
X166624000Y-113868200D03*
X165354000Y-113868200D03*
X165354000Y-118795800D03*
X166624000Y-118795800D03*
X167894000Y-118795800D03*
X169164000Y-118795800D03*
%TD*%
D30*
%TO.C,C6*%
X160528000Y-163576000D03*
X160528000Y-165651000D03*
%TD*%
D31*
%TO.C,U5*%
X165212000Y-126552000D03*
X165862000Y-126552000D03*
X166512000Y-126552000D03*
X166512000Y-123892000D03*
X165212000Y-123892000D03*
%TD*%
D32*
%TO.C,C2*%
X158369000Y-116078000D03*
X162687000Y-116078000D03*
%TD*%
D21*
%TO.C,D5*%
X153398000Y-136296400D03*
X155448000Y-136296400D03*
%TD*%
D33*
%TO.C,JP3*%
X167842250Y-131348000D03*
D34*
X167842250Y-130048000D03*
%TD*%
D21*
%TO.C,D4*%
X157318600Y-125374400D03*
X159368600Y-125374400D03*
%TD*%
D35*
%TO.C,R13*%
X174548800Y-142935200D03*
X174548800Y-140935200D03*
%TD*%
D36*
%TO.C,C1*%
X160680400Y-156811800D03*
X160680400Y-154736800D03*
%TD*%
D24*
%TO.C,J4*%
X205079200Y-109728000D03*
X205079200Y-99568000D03*
X194919200Y-109728000D03*
X194919200Y-99568000D03*
%TD*%
D26*
%TO.C,H4*%
X215724800Y-176682400D03*
%TD*%
D13*
%TO.C,J9*%
X153162000Y-147066000D03*
D14*
X153162000Y-149606000D03*
X153162000Y-152146000D03*
%TD*%
D37*
%TO.C,JP2*%
X172466000Y-115682000D03*
D38*
X172466000Y-116982000D03*
%TD*%
D19*
%TO.C,JP6*%
X160020000Y-159766000D03*
D20*
X161320000Y-159766000D03*
%TD*%
D13*
%TO.C,J6*%
X153162000Y-129535000D03*
D14*
X153162000Y-132075000D03*
%TD*%
D13*
%TO.C,J10*%
X153162000Y-162814000D03*
D14*
X153162000Y-165354000D03*
%TD*%
D13*
%TO.C,J5*%
X153416000Y-97790000D03*
D14*
X153416000Y-95250000D03*
%TD*%
D25*
%TO.C,R15*%
X174291000Y-106934000D03*
X172466000Y-106934000D03*
%TD*%
D13*
%TO.C,J1*%
X153162000Y-125735000D03*
D14*
X153162000Y-123195000D03*
%TD*%
D31*
%TO.C,U4*%
X161036000Y-126612000D03*
X161686000Y-126612000D03*
X162336000Y-126612000D03*
X162336000Y-123952000D03*
X161036000Y-123952000D03*
%TD*%
D39*
%TO.C,U2*%
X167005000Y-137483850D03*
X165735000Y-137483850D03*
X164465000Y-137483850D03*
X163195000Y-137483850D03*
X163195000Y-142932150D03*
X164465000Y-142932150D03*
X165735000Y-142932150D03*
X167005000Y-142932150D03*
%TD*%
D26*
%TO.C,H3*%
X185724800Y-176682400D03*
%TD*%
D22*
%TO.C,R6*%
X177546000Y-145542000D03*
X175546000Y-145542000D03*
%TD*%
D27*
%TO.C,Q3*%
X209296000Y-126492000D03*
X208096000Y-126492000D03*
X206896000Y-126492000D03*
X205696000Y-126492000D03*
X204496000Y-126492000D03*
X203296000Y-126492000D03*
X202096002Y-126492000D03*
X200896002Y-126492000D03*
D28*
X205096001Y-134542000D03*
%TD*%
D16*
%TO.C,R10*%
X157734000Y-174244000D03*
X157734000Y-176244000D03*
%TD*%
D15*
%TO.C,C8*%
X182041800Y-96520000D03*
X186258200Y-96520000D03*
%TD*%
D40*
%TO.C,JP1*%
X162112000Y-95758000D03*
D41*
X160812000Y-95758000D03*
D42*
X159512000Y-95758000D03*
%TD*%
D13*
%TO.C,J7*%
X153162000Y-140457000D03*
D14*
X153162000Y-142997000D03*
%TD*%
D16*
%TO.C,R8*%
X162052000Y-169180000D03*
X162052000Y-171180000D03*
%TD*%
D27*
%TO.C,Q2*%
X196477999Y-121490000D03*
X195277999Y-121490000D03*
X194077999Y-121490000D03*
X192877999Y-121490000D03*
X191677999Y-121490000D03*
X190477999Y-121490000D03*
X189278001Y-121490000D03*
X188078001Y-121490000D03*
D28*
X192278000Y-129540000D03*
%TD*%
D43*
%TO.C,U1*%
X185134000Y-162114000D03*
D44*
X185134000Y-162363999D03*
D45*
X185134000Y-151864000D03*
%TD*%
D21*
%TO.C,D7*%
X157309600Y-107899200D03*
X159359600Y-107899200D03*
%TD*%
D25*
%TO.C,R14*%
X174394500Y-109474000D03*
X172569500Y-109474000D03*
%TD*%
D12*
%TO.C,D8*%
X163068000Y-112014000D03*
D23*
X154167840Y-112014000D03*
%TD*%
D46*
%TO.C,U3*%
X170688000Y-141401800D03*
X171337999Y-141401800D03*
X171987998Y-141401800D03*
X171987998Y-139446000D03*
X171337999Y-139446000D03*
X170688000Y-139446000D03*
%TD*%
D47*
%TO.C,JP9*%
X159512000Y-99822000D03*
D41*
X160812000Y-99822000D03*
D48*
X162112000Y-99822000D03*
%TD*%
M02*
