%TF.GenerationSoftware,KiCad,Pcbnew,8.0.3*%
%TF.CreationDate,2024-11-15T02:09:21-08:00*%
%TF.ProjectId,Power_Management,506f7765-725f-44d6-916e-6167656d656e,rev?*%
%TF.SameCoordinates,Original*%
%TF.FileFunction,Legend,Top*%
%TF.FilePolarity,Positive*%
%FSLAX46Y46*%
G04 Gerber Fmt 4.6, Leading zero omitted, Abs format (unit mm)*
G04 Created by KiCad (PCBNEW 8.0.3) date 2024-11-15 02:09:21*
%MOMM*%
%LPD*%
G01*
G04 APERTURE LIST*
%ADD10C,0.150000*%
%ADD11C,0.120000*%
%ADD12C,0.152400*%
%ADD13C,0.508000*%
%ADD14C,0.250000*%
G04 APERTURE END LIST*
D10*
X151622360Y-181648219D02*
X151622360Y-181838695D01*
X152003312Y-181648219D02*
X152003312Y-181838695D01*
X152384265Y-182600600D02*
X152527122Y-182648219D01*
X152527122Y-182648219D02*
X152765217Y-182648219D01*
X152765217Y-182648219D02*
X152860455Y-182600600D01*
X152860455Y-182600600D02*
X152908074Y-182552980D01*
X152908074Y-182552980D02*
X152955693Y-182457742D01*
X152955693Y-182457742D02*
X152955693Y-182362504D01*
X152955693Y-182362504D02*
X152908074Y-182267266D01*
X152908074Y-182267266D02*
X152860455Y-182219647D01*
X152860455Y-182219647D02*
X152765217Y-182172028D01*
X152765217Y-182172028D02*
X152574741Y-182124409D01*
X152574741Y-182124409D02*
X152479503Y-182076790D01*
X152479503Y-182076790D02*
X152431884Y-182029171D01*
X152431884Y-182029171D02*
X152384265Y-181933933D01*
X152384265Y-181933933D02*
X152384265Y-181838695D01*
X152384265Y-181838695D02*
X152431884Y-181743457D01*
X152431884Y-181743457D02*
X152479503Y-181695838D01*
X152479503Y-181695838D02*
X152574741Y-181648219D01*
X152574741Y-181648219D02*
X152812836Y-181648219D01*
X152812836Y-181648219D02*
X152955693Y-181695838D01*
X153812836Y-181981552D02*
X153812836Y-182648219D01*
X153384265Y-181981552D02*
X153384265Y-182505361D01*
X153384265Y-182505361D02*
X153431884Y-182600600D01*
X153431884Y-182600600D02*
X153527122Y-182648219D01*
X153527122Y-182648219D02*
X153669979Y-182648219D01*
X153669979Y-182648219D02*
X153765217Y-182600600D01*
X153765217Y-182600600D02*
X153812836Y-182552980D01*
X154289027Y-182648219D02*
X154289027Y-181981552D01*
X154289027Y-182172028D02*
X154336646Y-182076790D01*
X154336646Y-182076790D02*
X154384265Y-182029171D01*
X154384265Y-182029171D02*
X154479503Y-181981552D01*
X154479503Y-181981552D02*
X154574741Y-181981552D01*
X154812837Y-181981552D02*
X155050932Y-182648219D01*
X155050932Y-182648219D02*
X155289027Y-181981552D01*
X155669980Y-182648219D02*
X155669980Y-181981552D01*
X155669980Y-181648219D02*
X155622361Y-181695838D01*
X155622361Y-181695838D02*
X155669980Y-181743457D01*
X155669980Y-181743457D02*
X155717599Y-181695838D01*
X155717599Y-181695838D02*
X155669980Y-181648219D01*
X155669980Y-181648219D02*
X155669980Y-181743457D01*
X156050932Y-181981552D02*
X156289027Y-182648219D01*
X156289027Y-182648219D02*
X156527122Y-181981552D01*
X157336646Y-182648219D02*
X157336646Y-182124409D01*
X157336646Y-182124409D02*
X157289027Y-182029171D01*
X157289027Y-182029171D02*
X157193789Y-181981552D01*
X157193789Y-181981552D02*
X157003313Y-181981552D01*
X157003313Y-181981552D02*
X156908075Y-182029171D01*
X157336646Y-182600600D02*
X157241408Y-182648219D01*
X157241408Y-182648219D02*
X157003313Y-182648219D01*
X157003313Y-182648219D02*
X156908075Y-182600600D01*
X156908075Y-182600600D02*
X156860456Y-182505361D01*
X156860456Y-182505361D02*
X156860456Y-182410123D01*
X156860456Y-182410123D02*
X156908075Y-182314885D01*
X156908075Y-182314885D02*
X157003313Y-182267266D01*
X157003313Y-182267266D02*
X157241408Y-182267266D01*
X157241408Y-182267266D02*
X157336646Y-182219647D01*
X157955694Y-182648219D02*
X157860456Y-182600600D01*
X157860456Y-182600600D02*
X157812837Y-182505361D01*
X157812837Y-182505361D02*
X157812837Y-181648219D01*
X159098552Y-182648219D02*
X159098552Y-181981552D01*
X159098552Y-181648219D02*
X159050933Y-181695838D01*
X159050933Y-181695838D02*
X159098552Y-181743457D01*
X159098552Y-181743457D02*
X159146171Y-181695838D01*
X159146171Y-181695838D02*
X159098552Y-181648219D01*
X159098552Y-181648219D02*
X159098552Y-181743457D01*
X159527123Y-182600600D02*
X159622361Y-182648219D01*
X159622361Y-182648219D02*
X159812837Y-182648219D01*
X159812837Y-182648219D02*
X159908075Y-182600600D01*
X159908075Y-182600600D02*
X159955694Y-182505361D01*
X159955694Y-182505361D02*
X159955694Y-182457742D01*
X159955694Y-182457742D02*
X159908075Y-182362504D01*
X159908075Y-182362504D02*
X159812837Y-182314885D01*
X159812837Y-182314885D02*
X159669980Y-182314885D01*
X159669980Y-182314885D02*
X159574742Y-182267266D01*
X159574742Y-182267266D02*
X159527123Y-182172028D01*
X159527123Y-182172028D02*
X159527123Y-182124409D01*
X159527123Y-182124409D02*
X159574742Y-182029171D01*
X159574742Y-182029171D02*
X159669980Y-181981552D01*
X159669980Y-181981552D02*
X159812837Y-181981552D01*
X159812837Y-181981552D02*
X159908075Y-182029171D01*
X161003314Y-181981552D02*
X161384266Y-181981552D01*
X161146171Y-181648219D02*
X161146171Y-182505361D01*
X161146171Y-182505361D02*
X161193790Y-182600600D01*
X161193790Y-182600600D02*
X161289028Y-182648219D01*
X161289028Y-182648219D02*
X161384266Y-182648219D01*
X161717600Y-182648219D02*
X161717600Y-181648219D01*
X162146171Y-182648219D02*
X162146171Y-182124409D01*
X162146171Y-182124409D02*
X162098552Y-182029171D01*
X162098552Y-182029171D02*
X162003314Y-181981552D01*
X162003314Y-181981552D02*
X161860457Y-181981552D01*
X161860457Y-181981552D02*
X161765219Y-182029171D01*
X161765219Y-182029171D02*
X161717600Y-182076790D01*
X163003314Y-182600600D02*
X162908076Y-182648219D01*
X162908076Y-182648219D02*
X162717600Y-182648219D01*
X162717600Y-182648219D02*
X162622362Y-182600600D01*
X162622362Y-182600600D02*
X162574743Y-182505361D01*
X162574743Y-182505361D02*
X162574743Y-182124409D01*
X162574743Y-182124409D02*
X162622362Y-182029171D01*
X162622362Y-182029171D02*
X162717600Y-181981552D01*
X162717600Y-181981552D02*
X162908076Y-181981552D01*
X162908076Y-181981552D02*
X163003314Y-182029171D01*
X163003314Y-182029171D02*
X163050933Y-182124409D01*
X163050933Y-182124409D02*
X163050933Y-182219647D01*
X163050933Y-182219647D02*
X162574743Y-182314885D01*
X164669981Y-182648219D02*
X164669981Y-182124409D01*
X164669981Y-182124409D02*
X164622362Y-182029171D01*
X164622362Y-182029171D02*
X164527124Y-181981552D01*
X164527124Y-181981552D02*
X164336648Y-181981552D01*
X164336648Y-181981552D02*
X164241410Y-182029171D01*
X164669981Y-182600600D02*
X164574743Y-182648219D01*
X164574743Y-182648219D02*
X164336648Y-182648219D01*
X164336648Y-182648219D02*
X164241410Y-182600600D01*
X164241410Y-182600600D02*
X164193791Y-182505361D01*
X164193791Y-182505361D02*
X164193791Y-182410123D01*
X164193791Y-182410123D02*
X164241410Y-182314885D01*
X164241410Y-182314885D02*
X164336648Y-182267266D01*
X164336648Y-182267266D02*
X164574743Y-182267266D01*
X164574743Y-182267266D02*
X164669981Y-182219647D01*
X165146172Y-182648219D02*
X165146172Y-181648219D01*
X165146172Y-182029171D02*
X165241410Y-181981552D01*
X165241410Y-181981552D02*
X165431886Y-181981552D01*
X165431886Y-181981552D02*
X165527124Y-182029171D01*
X165527124Y-182029171D02*
X165574743Y-182076790D01*
X165574743Y-182076790D02*
X165622362Y-182172028D01*
X165622362Y-182172028D02*
X165622362Y-182457742D01*
X165622362Y-182457742D02*
X165574743Y-182552980D01*
X165574743Y-182552980D02*
X165527124Y-182600600D01*
X165527124Y-182600600D02*
X165431886Y-182648219D01*
X165431886Y-182648219D02*
X165241410Y-182648219D01*
X165241410Y-182648219D02*
X165146172Y-182600600D01*
X166050934Y-182648219D02*
X166050934Y-181981552D01*
X166050934Y-181648219D02*
X166003315Y-181695838D01*
X166003315Y-181695838D02*
X166050934Y-181743457D01*
X166050934Y-181743457D02*
X166098553Y-181695838D01*
X166098553Y-181695838D02*
X166050934Y-181648219D01*
X166050934Y-181648219D02*
X166050934Y-181743457D01*
X166669981Y-182648219D02*
X166574743Y-182600600D01*
X166574743Y-182600600D02*
X166527124Y-182505361D01*
X166527124Y-182505361D02*
X166527124Y-181648219D01*
X167050934Y-182648219D02*
X167050934Y-181981552D01*
X167050934Y-181648219D02*
X167003315Y-181695838D01*
X167003315Y-181695838D02*
X167050934Y-181743457D01*
X167050934Y-181743457D02*
X167098553Y-181695838D01*
X167098553Y-181695838D02*
X167050934Y-181648219D01*
X167050934Y-181648219D02*
X167050934Y-181743457D01*
X167384267Y-181981552D02*
X167765219Y-181981552D01*
X167527124Y-181648219D02*
X167527124Y-182505361D01*
X167527124Y-182505361D02*
X167574743Y-182600600D01*
X167574743Y-182600600D02*
X167669981Y-182648219D01*
X167669981Y-182648219D02*
X167765219Y-182648219D01*
X168003315Y-181981552D02*
X168241410Y-182648219D01*
X168479505Y-181981552D02*
X168241410Y-182648219D01*
X168241410Y-182648219D02*
X168146172Y-182886314D01*
X168146172Y-182886314D02*
X168098553Y-182933933D01*
X168098553Y-182933933D02*
X168003315Y-182981552D01*
X169479506Y-181981552D02*
X169860458Y-181981552D01*
X169622363Y-181648219D02*
X169622363Y-182505361D01*
X169622363Y-182505361D02*
X169669982Y-182600600D01*
X169669982Y-182600600D02*
X169765220Y-182648219D01*
X169765220Y-182648219D02*
X169860458Y-182648219D01*
X170336649Y-182648219D02*
X170241411Y-182600600D01*
X170241411Y-182600600D02*
X170193792Y-182552980D01*
X170193792Y-182552980D02*
X170146173Y-182457742D01*
X170146173Y-182457742D02*
X170146173Y-182172028D01*
X170146173Y-182172028D02*
X170193792Y-182076790D01*
X170193792Y-182076790D02*
X170241411Y-182029171D01*
X170241411Y-182029171D02*
X170336649Y-181981552D01*
X170336649Y-181981552D02*
X170479506Y-181981552D01*
X170479506Y-181981552D02*
X170574744Y-182029171D01*
X170574744Y-182029171D02*
X170622363Y-182076790D01*
X170622363Y-182076790D02*
X170669982Y-182172028D01*
X170669982Y-182172028D02*
X170669982Y-182457742D01*
X170669982Y-182457742D02*
X170622363Y-182552980D01*
X170622363Y-182552980D02*
X170574744Y-182600600D01*
X170574744Y-182600600D02*
X170479506Y-182648219D01*
X170479506Y-182648219D02*
X170336649Y-182648219D01*
X171812840Y-182600600D02*
X171908078Y-182648219D01*
X171908078Y-182648219D02*
X172098554Y-182648219D01*
X172098554Y-182648219D02*
X172193792Y-182600600D01*
X172193792Y-182600600D02*
X172241411Y-182505361D01*
X172241411Y-182505361D02*
X172241411Y-182457742D01*
X172241411Y-182457742D02*
X172193792Y-182362504D01*
X172193792Y-182362504D02*
X172098554Y-182314885D01*
X172098554Y-182314885D02*
X171955697Y-182314885D01*
X171955697Y-182314885D02*
X171860459Y-182267266D01*
X171860459Y-182267266D02*
X171812840Y-182172028D01*
X171812840Y-182172028D02*
X171812840Y-182124409D01*
X171812840Y-182124409D02*
X171860459Y-182029171D01*
X171860459Y-182029171D02*
X171955697Y-181981552D01*
X171955697Y-181981552D02*
X172098554Y-181981552D01*
X172098554Y-181981552D02*
X172193792Y-182029171D01*
X172574745Y-181981552D02*
X172765221Y-182648219D01*
X172765221Y-182648219D02*
X172955697Y-182172028D01*
X172955697Y-182172028D02*
X173146173Y-182648219D01*
X173146173Y-182648219D02*
X173336649Y-181981552D01*
X173717602Y-182648219D02*
X173717602Y-181981552D01*
X173717602Y-181648219D02*
X173669983Y-181695838D01*
X173669983Y-181695838D02*
X173717602Y-181743457D01*
X173717602Y-181743457D02*
X173765221Y-181695838D01*
X173765221Y-181695838D02*
X173717602Y-181648219D01*
X173717602Y-181648219D02*
X173717602Y-181743457D01*
X174193792Y-182648219D02*
X174193792Y-181981552D01*
X174193792Y-182076790D02*
X174241411Y-182029171D01*
X174241411Y-182029171D02*
X174336649Y-181981552D01*
X174336649Y-181981552D02*
X174479506Y-181981552D01*
X174479506Y-181981552D02*
X174574744Y-182029171D01*
X174574744Y-182029171D02*
X174622363Y-182124409D01*
X174622363Y-182124409D02*
X174622363Y-182648219D01*
X174622363Y-182124409D02*
X174669982Y-182029171D01*
X174669982Y-182029171D02*
X174765220Y-181981552D01*
X174765220Y-181981552D02*
X174908077Y-181981552D01*
X174908077Y-181981552D02*
X175003316Y-182029171D01*
X175003316Y-182029171D02*
X175050935Y-182124409D01*
X175050935Y-182124409D02*
X175050935Y-182648219D01*
X176289030Y-182648219D02*
X176289030Y-181981552D01*
X176289030Y-181648219D02*
X176241411Y-181695838D01*
X176241411Y-181695838D02*
X176289030Y-181743457D01*
X176289030Y-181743457D02*
X176336649Y-181695838D01*
X176336649Y-181695838D02*
X176289030Y-181648219D01*
X176289030Y-181648219D02*
X176289030Y-181743457D01*
X176765220Y-181981552D02*
X176765220Y-182648219D01*
X176765220Y-182076790D02*
X176812839Y-182029171D01*
X176812839Y-182029171D02*
X176908077Y-181981552D01*
X176908077Y-181981552D02*
X177050934Y-181981552D01*
X177050934Y-181981552D02*
X177146172Y-182029171D01*
X177146172Y-182029171D02*
X177193791Y-182124409D01*
X177193791Y-182124409D02*
X177193791Y-182648219D01*
X178384268Y-182600600D02*
X178479506Y-182648219D01*
X178479506Y-182648219D02*
X178669982Y-182648219D01*
X178669982Y-182648219D02*
X178765220Y-182600600D01*
X178765220Y-182600600D02*
X178812839Y-182505361D01*
X178812839Y-182505361D02*
X178812839Y-182457742D01*
X178812839Y-182457742D02*
X178765220Y-182362504D01*
X178765220Y-182362504D02*
X178669982Y-182314885D01*
X178669982Y-182314885D02*
X178527125Y-182314885D01*
X178527125Y-182314885D02*
X178431887Y-182267266D01*
X178431887Y-182267266D02*
X178384268Y-182172028D01*
X178384268Y-182172028D02*
X178384268Y-182124409D01*
X178384268Y-182124409D02*
X178431887Y-182029171D01*
X178431887Y-182029171D02*
X178527125Y-181981552D01*
X178527125Y-181981552D02*
X178669982Y-181981552D01*
X178669982Y-181981552D02*
X178765220Y-182029171D01*
X179098554Y-181981552D02*
X179479506Y-181981552D01*
X179241411Y-181648219D02*
X179241411Y-182505361D01*
X179241411Y-182505361D02*
X179289030Y-182600600D01*
X179289030Y-182600600D02*
X179384268Y-182648219D01*
X179384268Y-182648219D02*
X179479506Y-182648219D01*
X179812840Y-182648219D02*
X179812840Y-181981552D01*
X179812840Y-182172028D02*
X179860459Y-182076790D01*
X179860459Y-182076790D02*
X179908078Y-182029171D01*
X179908078Y-182029171D02*
X180003316Y-181981552D01*
X180003316Y-181981552D02*
X180098554Y-181981552D01*
X180860459Y-182648219D02*
X180860459Y-182124409D01*
X180860459Y-182124409D02*
X180812840Y-182029171D01*
X180812840Y-182029171D02*
X180717602Y-181981552D01*
X180717602Y-181981552D02*
X180527126Y-181981552D01*
X180527126Y-181981552D02*
X180431888Y-182029171D01*
X180860459Y-182600600D02*
X180765221Y-182648219D01*
X180765221Y-182648219D02*
X180527126Y-182648219D01*
X180527126Y-182648219D02*
X180431888Y-182600600D01*
X180431888Y-182600600D02*
X180384269Y-182505361D01*
X180384269Y-182505361D02*
X180384269Y-182410123D01*
X180384269Y-182410123D02*
X180431888Y-182314885D01*
X180431888Y-182314885D02*
X180527126Y-182267266D01*
X180527126Y-182267266D02*
X180765221Y-182267266D01*
X180765221Y-182267266D02*
X180860459Y-182219647D01*
X181336650Y-181981552D02*
X181336650Y-182648219D01*
X181336650Y-182076790D02*
X181384269Y-182029171D01*
X181384269Y-182029171D02*
X181479507Y-181981552D01*
X181479507Y-181981552D02*
X181622364Y-181981552D01*
X181622364Y-181981552D02*
X181717602Y-182029171D01*
X181717602Y-182029171D02*
X181765221Y-182124409D01*
X181765221Y-182124409D02*
X181765221Y-182648219D01*
X182669983Y-181981552D02*
X182669983Y-182791076D01*
X182669983Y-182791076D02*
X182622364Y-182886314D01*
X182622364Y-182886314D02*
X182574745Y-182933933D01*
X182574745Y-182933933D02*
X182479507Y-182981552D01*
X182479507Y-182981552D02*
X182336650Y-182981552D01*
X182336650Y-182981552D02*
X182241412Y-182933933D01*
X182669983Y-182600600D02*
X182574745Y-182648219D01*
X182574745Y-182648219D02*
X182384269Y-182648219D01*
X182384269Y-182648219D02*
X182289031Y-182600600D01*
X182289031Y-182600600D02*
X182241412Y-182552980D01*
X182241412Y-182552980D02*
X182193793Y-182457742D01*
X182193793Y-182457742D02*
X182193793Y-182172028D01*
X182193793Y-182172028D02*
X182241412Y-182076790D01*
X182241412Y-182076790D02*
X182289031Y-182029171D01*
X182289031Y-182029171D02*
X182384269Y-181981552D01*
X182384269Y-181981552D02*
X182574745Y-181981552D01*
X182574745Y-181981552D02*
X182669983Y-182029171D01*
X183527126Y-182600600D02*
X183431888Y-182648219D01*
X183431888Y-182648219D02*
X183241412Y-182648219D01*
X183241412Y-182648219D02*
X183146174Y-182600600D01*
X183146174Y-182600600D02*
X183098555Y-182505361D01*
X183098555Y-182505361D02*
X183098555Y-182124409D01*
X183098555Y-182124409D02*
X183146174Y-182029171D01*
X183146174Y-182029171D02*
X183241412Y-181981552D01*
X183241412Y-181981552D02*
X183431888Y-181981552D01*
X183431888Y-181981552D02*
X183527126Y-182029171D01*
X183527126Y-182029171D02*
X183574745Y-182124409D01*
X183574745Y-182124409D02*
X183574745Y-182219647D01*
X183574745Y-182219647D02*
X183098555Y-182314885D01*
X184669984Y-181981552D02*
X184860460Y-182648219D01*
X184860460Y-182648219D02*
X185050936Y-182172028D01*
X185050936Y-182172028D02*
X185241412Y-182648219D01*
X185241412Y-182648219D02*
X185431888Y-181981552D01*
X186241412Y-182648219D02*
X186241412Y-182124409D01*
X186241412Y-182124409D02*
X186193793Y-182029171D01*
X186193793Y-182029171D02*
X186098555Y-181981552D01*
X186098555Y-181981552D02*
X185908079Y-181981552D01*
X185908079Y-181981552D02*
X185812841Y-182029171D01*
X186241412Y-182600600D02*
X186146174Y-182648219D01*
X186146174Y-182648219D02*
X185908079Y-182648219D01*
X185908079Y-182648219D02*
X185812841Y-182600600D01*
X185812841Y-182600600D02*
X185765222Y-182505361D01*
X185765222Y-182505361D02*
X185765222Y-182410123D01*
X185765222Y-182410123D02*
X185812841Y-182314885D01*
X185812841Y-182314885D02*
X185908079Y-182267266D01*
X185908079Y-182267266D02*
X186146174Y-182267266D01*
X186146174Y-182267266D02*
X186241412Y-182219647D01*
X186574746Y-181981552D02*
X186955698Y-181981552D01*
X186717603Y-181648219D02*
X186717603Y-182505361D01*
X186717603Y-182505361D02*
X186765222Y-182600600D01*
X186765222Y-182600600D02*
X186860460Y-182648219D01*
X186860460Y-182648219D02*
X186955698Y-182648219D01*
X187669984Y-182600600D02*
X187574746Y-182648219D01*
X187574746Y-182648219D02*
X187384270Y-182648219D01*
X187384270Y-182648219D02*
X187289032Y-182600600D01*
X187289032Y-182600600D02*
X187241413Y-182505361D01*
X187241413Y-182505361D02*
X187241413Y-182124409D01*
X187241413Y-182124409D02*
X187289032Y-182029171D01*
X187289032Y-182029171D02*
X187384270Y-181981552D01*
X187384270Y-181981552D02*
X187574746Y-181981552D01*
X187574746Y-181981552D02*
X187669984Y-182029171D01*
X187669984Y-182029171D02*
X187717603Y-182124409D01*
X187717603Y-182124409D02*
X187717603Y-182219647D01*
X187717603Y-182219647D02*
X187241413Y-182314885D01*
X188146175Y-182648219D02*
X188146175Y-181981552D01*
X188146175Y-182172028D02*
X188193794Y-182076790D01*
X188193794Y-182076790D02*
X188241413Y-182029171D01*
X188241413Y-182029171D02*
X188336651Y-181981552D01*
X188336651Y-181981552D02*
X188431889Y-181981552D01*
X188717604Y-181648219D02*
X188717604Y-181838695D01*
X189098556Y-181648219D02*
X189098556Y-181838695D01*
X155854569Y-147748619D02*
X155378379Y-147748619D01*
X155378379Y-147748619D02*
X155378379Y-146748619D01*
X156187903Y-147224809D02*
X156521236Y-147224809D01*
X156664093Y-147748619D02*
X156187903Y-147748619D01*
X156187903Y-147748619D02*
X156187903Y-146748619D01*
X156187903Y-146748619D02*
X156664093Y-146748619D01*
X155619655Y-149034619D02*
X155810131Y-149034619D01*
X155810131Y-149034619D02*
X155905369Y-149082238D01*
X155905369Y-149082238D02*
X156000607Y-149177476D01*
X156000607Y-149177476D02*
X156048226Y-149367952D01*
X156048226Y-149367952D02*
X156048226Y-149701285D01*
X156048226Y-149701285D02*
X156000607Y-149891761D01*
X156000607Y-149891761D02*
X155905369Y-149987000D01*
X155905369Y-149987000D02*
X155810131Y-150034619D01*
X155810131Y-150034619D02*
X155619655Y-150034619D01*
X155619655Y-150034619D02*
X155524417Y-149987000D01*
X155524417Y-149987000D02*
X155429179Y-149891761D01*
X155429179Y-149891761D02*
X155381560Y-149701285D01*
X155381560Y-149701285D02*
X155381560Y-149367952D01*
X155381560Y-149367952D02*
X155429179Y-149177476D01*
X155429179Y-149177476D02*
X155524417Y-149082238D01*
X155524417Y-149082238D02*
X155619655Y-149034619D01*
X156476798Y-149510809D02*
X156810131Y-149510809D01*
X156952988Y-150034619D02*
X156476798Y-150034619D01*
X156476798Y-150034619D02*
X156476798Y-149034619D01*
X156476798Y-149034619D02*
X156952988Y-149034619D01*
X155660912Y-122485209D02*
X155803769Y-122532828D01*
X155803769Y-122532828D02*
X155851388Y-122580447D01*
X155851388Y-122580447D02*
X155899007Y-122675685D01*
X155899007Y-122675685D02*
X155899007Y-122818542D01*
X155899007Y-122818542D02*
X155851388Y-122913780D01*
X155851388Y-122913780D02*
X155803769Y-122961400D01*
X155803769Y-122961400D02*
X155708531Y-123009019D01*
X155708531Y-123009019D02*
X155327579Y-123009019D01*
X155327579Y-123009019D02*
X155327579Y-122009019D01*
X155327579Y-122009019D02*
X155660912Y-122009019D01*
X155660912Y-122009019D02*
X155756150Y-122056638D01*
X155756150Y-122056638D02*
X155803769Y-122104257D01*
X155803769Y-122104257D02*
X155851388Y-122199495D01*
X155851388Y-122199495D02*
X155851388Y-122294733D01*
X155851388Y-122294733D02*
X155803769Y-122389971D01*
X155803769Y-122389971D02*
X155756150Y-122437590D01*
X155756150Y-122437590D02*
X155660912Y-122485209D01*
X155660912Y-122485209D02*
X155327579Y-122485209D01*
X156279960Y-122723304D02*
X156756150Y-122723304D01*
X156184722Y-123009019D02*
X156518055Y-122009019D01*
X156518055Y-122009019D02*
X156851388Y-123009019D01*
X157041865Y-122009019D02*
X157613293Y-122009019D01*
X157327579Y-123009019D02*
X157327579Y-122009019D01*
X157803770Y-122009019D02*
X158375198Y-122009019D01*
X158089484Y-123009019D02*
X158089484Y-122009019D01*
X158470437Y-123104257D02*
X159232341Y-123104257D01*
X159422818Y-122961400D02*
X159565675Y-123009019D01*
X159565675Y-123009019D02*
X159803770Y-123009019D01*
X159803770Y-123009019D02*
X159899008Y-122961400D01*
X159899008Y-122961400D02*
X159946627Y-122913780D01*
X159946627Y-122913780D02*
X159994246Y-122818542D01*
X159994246Y-122818542D02*
X159994246Y-122723304D01*
X159994246Y-122723304D02*
X159946627Y-122628066D01*
X159946627Y-122628066D02*
X159899008Y-122580447D01*
X159899008Y-122580447D02*
X159803770Y-122532828D01*
X159803770Y-122532828D02*
X159613294Y-122485209D01*
X159613294Y-122485209D02*
X159518056Y-122437590D01*
X159518056Y-122437590D02*
X159470437Y-122389971D01*
X159470437Y-122389971D02*
X159422818Y-122294733D01*
X159422818Y-122294733D02*
X159422818Y-122199495D01*
X159422818Y-122199495D02*
X159470437Y-122104257D01*
X159470437Y-122104257D02*
X159518056Y-122056638D01*
X159518056Y-122056638D02*
X159613294Y-122009019D01*
X159613294Y-122009019D02*
X159851389Y-122009019D01*
X159851389Y-122009019D02*
X159994246Y-122056638D01*
X155286322Y-141262219D02*
X155619655Y-142262219D01*
X155619655Y-142262219D02*
X155952988Y-141262219D01*
X156857750Y-142262219D02*
X156524417Y-141786028D01*
X156286322Y-142262219D02*
X156286322Y-141262219D01*
X156286322Y-141262219D02*
X156667274Y-141262219D01*
X156667274Y-141262219D02*
X156762512Y-141309838D01*
X156762512Y-141309838D02*
X156810131Y-141357457D01*
X156810131Y-141357457D02*
X156857750Y-141452695D01*
X156857750Y-141452695D02*
X156857750Y-141595552D01*
X156857750Y-141595552D02*
X156810131Y-141690790D01*
X156810131Y-141690790D02*
X156762512Y-141738409D01*
X156762512Y-141738409D02*
X156667274Y-141786028D01*
X156667274Y-141786028D02*
X156286322Y-141786028D01*
X157286322Y-141738409D02*
X157619655Y-141738409D01*
X157762512Y-142262219D02*
X157286322Y-142262219D01*
X157286322Y-142262219D02*
X157286322Y-141262219D01*
X157286322Y-141262219D02*
X157762512Y-141262219D01*
X158524417Y-141738409D02*
X158191084Y-141738409D01*
X158191084Y-142262219D02*
X158191084Y-141262219D01*
X158191084Y-141262219D02*
X158667274Y-141262219D01*
X159572036Y-142262219D02*
X159000608Y-142262219D01*
X159286322Y-142262219D02*
X159286322Y-141262219D01*
X159286322Y-141262219D02*
X159191084Y-141405076D01*
X159191084Y-141405076D02*
X159095846Y-141500314D01*
X159095846Y-141500314D02*
X159000608Y-141547933D01*
X160714893Y-141214600D02*
X159857751Y-142500314D01*
X161000608Y-141357457D02*
X161048227Y-141309838D01*
X161048227Y-141309838D02*
X161143465Y-141262219D01*
X161143465Y-141262219D02*
X161381560Y-141262219D01*
X161381560Y-141262219D02*
X161476798Y-141309838D01*
X161476798Y-141309838D02*
X161524417Y-141357457D01*
X161524417Y-141357457D02*
X161572036Y-141452695D01*
X161572036Y-141452695D02*
X161572036Y-141547933D01*
X161572036Y-141547933D02*
X161524417Y-141690790D01*
X161524417Y-141690790D02*
X160952989Y-142262219D01*
X160952989Y-142262219D02*
X161572036Y-142262219D01*
X157207179Y-126631819D02*
X157207179Y-127441342D01*
X157207179Y-127441342D02*
X157254798Y-127536580D01*
X157254798Y-127536580D02*
X157302417Y-127584200D01*
X157302417Y-127584200D02*
X157397655Y-127631819D01*
X157397655Y-127631819D02*
X157588131Y-127631819D01*
X157588131Y-127631819D02*
X157683369Y-127584200D01*
X157683369Y-127584200D02*
X157730988Y-127536580D01*
X157730988Y-127536580D02*
X157778607Y-127441342D01*
X157778607Y-127441342D02*
X157778607Y-126631819D01*
X158111941Y-126631819D02*
X158445274Y-127631819D01*
X158445274Y-127631819D02*
X158778607Y-126631819D01*
X159111941Y-127631819D02*
X159111941Y-126631819D01*
X159111941Y-126631819D02*
X159492893Y-126631819D01*
X159492893Y-126631819D02*
X159588131Y-126679438D01*
X159588131Y-126679438D02*
X159635750Y-126727057D01*
X159635750Y-126727057D02*
X159683369Y-126822295D01*
X159683369Y-126822295D02*
X159683369Y-126965152D01*
X159683369Y-126965152D02*
X159635750Y-127060390D01*
X159635750Y-127060390D02*
X159588131Y-127108009D01*
X159588131Y-127108009D02*
X159492893Y-127155628D01*
X159492893Y-127155628D02*
X159111941Y-127155628D01*
X155333941Y-129578219D02*
X155952988Y-129578219D01*
X155952988Y-129578219D02*
X155619655Y-129959171D01*
X155619655Y-129959171D02*
X155762512Y-129959171D01*
X155762512Y-129959171D02*
X155857750Y-130006790D01*
X155857750Y-130006790D02*
X155905369Y-130054409D01*
X155905369Y-130054409D02*
X155952988Y-130149647D01*
X155952988Y-130149647D02*
X155952988Y-130387742D01*
X155952988Y-130387742D02*
X155905369Y-130482980D01*
X155905369Y-130482980D02*
X155857750Y-130530600D01*
X155857750Y-130530600D02*
X155762512Y-130578219D01*
X155762512Y-130578219D02*
X155476798Y-130578219D01*
X155476798Y-130578219D02*
X155381560Y-130530600D01*
X155381560Y-130530600D02*
X155333941Y-130482980D01*
X156381560Y-130482980D02*
X156429179Y-130530600D01*
X156429179Y-130530600D02*
X156381560Y-130578219D01*
X156381560Y-130578219D02*
X156333941Y-130530600D01*
X156333941Y-130530600D02*
X156381560Y-130482980D01*
X156381560Y-130482980D02*
X156381560Y-130578219D01*
X156762512Y-129578219D02*
X157381559Y-129578219D01*
X157381559Y-129578219D02*
X157048226Y-129959171D01*
X157048226Y-129959171D02*
X157191083Y-129959171D01*
X157191083Y-129959171D02*
X157286321Y-130006790D01*
X157286321Y-130006790D02*
X157333940Y-130054409D01*
X157333940Y-130054409D02*
X157381559Y-130149647D01*
X157381559Y-130149647D02*
X157381559Y-130387742D01*
X157381559Y-130387742D02*
X157333940Y-130482980D01*
X157333940Y-130482980D02*
X157286321Y-130530600D01*
X157286321Y-130530600D02*
X157191083Y-130578219D01*
X157191083Y-130578219D02*
X156905369Y-130578219D01*
X156905369Y-130578219D02*
X156810131Y-130530600D01*
X156810131Y-130530600D02*
X156762512Y-130482980D01*
X157667274Y-129578219D02*
X158000607Y-130578219D01*
X158000607Y-130578219D02*
X158333940Y-129578219D01*
X154479788Y-102193838D02*
X154384550Y-102146219D01*
X154384550Y-102146219D02*
X154241693Y-102146219D01*
X154241693Y-102146219D02*
X154098836Y-102193838D01*
X154098836Y-102193838D02*
X154003598Y-102289076D01*
X154003598Y-102289076D02*
X153955979Y-102384314D01*
X153955979Y-102384314D02*
X153908360Y-102574790D01*
X153908360Y-102574790D02*
X153908360Y-102717647D01*
X153908360Y-102717647D02*
X153955979Y-102908123D01*
X153955979Y-102908123D02*
X154003598Y-103003361D01*
X154003598Y-103003361D02*
X154098836Y-103098600D01*
X154098836Y-103098600D02*
X154241693Y-103146219D01*
X154241693Y-103146219D02*
X154336931Y-103146219D01*
X154336931Y-103146219D02*
X154479788Y-103098600D01*
X154479788Y-103098600D02*
X154527407Y-103050980D01*
X154527407Y-103050980D02*
X154527407Y-102717647D01*
X154527407Y-102717647D02*
X154336931Y-102717647D01*
X154908360Y-102860504D02*
X155384550Y-102860504D01*
X154813122Y-103146219D02*
X155146455Y-102146219D01*
X155146455Y-102146219D02*
X155479788Y-103146219D01*
X155670265Y-102146219D02*
X156241693Y-102146219D01*
X155955979Y-103146219D02*
X155955979Y-102146219D01*
X156575027Y-102622409D02*
X156908360Y-102622409D01*
X157051217Y-103146219D02*
X156575027Y-103146219D01*
X156575027Y-103146219D02*
X156575027Y-102146219D01*
X156575027Y-102146219D02*
X157051217Y-102146219D01*
X157241694Y-103241457D02*
X158003598Y-103241457D01*
X158241694Y-102622409D02*
X158575027Y-102622409D01*
X158717884Y-103146219D02*
X158241694Y-103146219D01*
X158241694Y-103146219D02*
X158241694Y-102146219D01*
X158241694Y-102146219D02*
X158717884Y-102146219D01*
X159146456Y-103146219D02*
X159146456Y-102146219D01*
X159146456Y-102146219D02*
X159717884Y-103146219D01*
X159717884Y-103146219D02*
X159717884Y-102146219D01*
X155276779Y-163817075D02*
X155276779Y-162817075D01*
X155848207Y-163817075D02*
X155419636Y-163245646D01*
X155848207Y-162817075D02*
X155276779Y-163388503D01*
X156276779Y-163817075D02*
X156276779Y-163150408D01*
X156276779Y-162817075D02*
X156229160Y-162864694D01*
X156229160Y-162864694D02*
X156276779Y-162912313D01*
X156276779Y-162912313D02*
X156324398Y-162864694D01*
X156324398Y-162864694D02*
X156276779Y-162817075D01*
X156276779Y-162817075D02*
X156276779Y-162912313D01*
X156895826Y-163817075D02*
X156800588Y-163769456D01*
X156800588Y-163769456D02*
X156752969Y-163674217D01*
X156752969Y-163674217D02*
X156752969Y-162817075D01*
X157419636Y-163817075D02*
X157324398Y-163769456D01*
X157324398Y-163769456D02*
X157276779Y-163674217D01*
X157276779Y-163674217D02*
X157276779Y-162817075D01*
X155276779Y-165427019D02*
X155276779Y-164427019D01*
X155752969Y-164760352D02*
X155752969Y-165427019D01*
X155752969Y-164855590D02*
X155800588Y-164807971D01*
X155800588Y-164807971D02*
X155895826Y-164760352D01*
X155895826Y-164760352D02*
X156038683Y-164760352D01*
X156038683Y-164760352D02*
X156133921Y-164807971D01*
X156133921Y-164807971D02*
X156181540Y-164903209D01*
X156181540Y-164903209D02*
X156181540Y-165427019D01*
X161372779Y-110207419D02*
X161372779Y-109207419D01*
X161944207Y-110207419D02*
X161515636Y-109635990D01*
X161944207Y-109207419D02*
X161372779Y-109778847D01*
X162372779Y-110207419D02*
X162372779Y-109540752D01*
X162372779Y-109207419D02*
X162325160Y-109255038D01*
X162325160Y-109255038D02*
X162372779Y-109302657D01*
X162372779Y-109302657D02*
X162420398Y-109255038D01*
X162420398Y-109255038D02*
X162372779Y-109207419D01*
X162372779Y-109207419D02*
X162372779Y-109302657D01*
X162991826Y-110207419D02*
X162896588Y-110159800D01*
X162896588Y-110159800D02*
X162848969Y-110064561D01*
X162848969Y-110064561D02*
X162848969Y-109207419D01*
X163515636Y-110207419D02*
X163420398Y-110159800D01*
X163420398Y-110159800D02*
X163372779Y-110064561D01*
X163372779Y-110064561D02*
X163372779Y-109207419D01*
X156397560Y-180568600D02*
X156540417Y-180616219D01*
X156540417Y-180616219D02*
X156778512Y-180616219D01*
X156778512Y-180616219D02*
X156873750Y-180568600D01*
X156873750Y-180568600D02*
X156921369Y-180520980D01*
X156921369Y-180520980D02*
X156968988Y-180425742D01*
X156968988Y-180425742D02*
X156968988Y-180330504D01*
X156968988Y-180330504D02*
X156921369Y-180235266D01*
X156921369Y-180235266D02*
X156873750Y-180187647D01*
X156873750Y-180187647D02*
X156778512Y-180140028D01*
X156778512Y-180140028D02*
X156588036Y-180092409D01*
X156588036Y-180092409D02*
X156492798Y-180044790D01*
X156492798Y-180044790D02*
X156445179Y-179997171D01*
X156445179Y-179997171D02*
X156397560Y-179901933D01*
X156397560Y-179901933D02*
X156397560Y-179806695D01*
X156397560Y-179806695D02*
X156445179Y-179711457D01*
X156445179Y-179711457D02*
X156492798Y-179663838D01*
X156492798Y-179663838D02*
X156588036Y-179616219D01*
X156588036Y-179616219D02*
X156826131Y-179616219D01*
X156826131Y-179616219D02*
X156968988Y-179663838D01*
X157254703Y-179949552D02*
X157635655Y-179949552D01*
X157397560Y-179616219D02*
X157397560Y-180473361D01*
X157397560Y-180473361D02*
X157445179Y-180568600D01*
X157445179Y-180568600D02*
X157540417Y-180616219D01*
X157540417Y-180616219D02*
X157635655Y-180616219D01*
X158397560Y-180616219D02*
X158397560Y-180092409D01*
X158397560Y-180092409D02*
X158349941Y-179997171D01*
X158349941Y-179997171D02*
X158254703Y-179949552D01*
X158254703Y-179949552D02*
X158064227Y-179949552D01*
X158064227Y-179949552D02*
X157968989Y-179997171D01*
X158397560Y-180568600D02*
X158302322Y-180616219D01*
X158302322Y-180616219D02*
X158064227Y-180616219D01*
X158064227Y-180616219D02*
X157968989Y-180568600D01*
X157968989Y-180568600D02*
X157921370Y-180473361D01*
X157921370Y-180473361D02*
X157921370Y-180378123D01*
X157921370Y-180378123D02*
X157968989Y-180282885D01*
X157968989Y-180282885D02*
X158064227Y-180235266D01*
X158064227Y-180235266D02*
X158302322Y-180235266D01*
X158302322Y-180235266D02*
X158397560Y-180187647D01*
X158873751Y-179949552D02*
X158873751Y-180616219D01*
X158873751Y-180044790D02*
X158921370Y-179997171D01*
X158921370Y-179997171D02*
X159016608Y-179949552D01*
X159016608Y-179949552D02*
X159159465Y-179949552D01*
X159159465Y-179949552D02*
X159254703Y-179997171D01*
X159254703Y-179997171D02*
X159302322Y-180092409D01*
X159302322Y-180092409D02*
X159302322Y-180616219D01*
X159635656Y-179949552D02*
X160016608Y-179949552D01*
X159778513Y-180616219D02*
X159778513Y-179759076D01*
X159778513Y-179759076D02*
X159826132Y-179663838D01*
X159826132Y-179663838D02*
X159921370Y-179616219D01*
X159921370Y-179616219D02*
X160016608Y-179616219D01*
X160492799Y-180616219D02*
X160397561Y-180568600D01*
X160397561Y-180568600D02*
X160349942Y-180520980D01*
X160349942Y-180520980D02*
X160302323Y-180425742D01*
X160302323Y-180425742D02*
X160302323Y-180140028D01*
X160302323Y-180140028D02*
X160349942Y-180044790D01*
X160349942Y-180044790D02*
X160397561Y-179997171D01*
X160397561Y-179997171D02*
X160492799Y-179949552D01*
X160492799Y-179949552D02*
X160635656Y-179949552D01*
X160635656Y-179949552D02*
X160730894Y-179997171D01*
X160730894Y-179997171D02*
X160778513Y-180044790D01*
X160778513Y-180044790D02*
X160826132Y-180140028D01*
X160826132Y-180140028D02*
X160826132Y-180425742D01*
X160826132Y-180425742D02*
X160778513Y-180520980D01*
X160778513Y-180520980D02*
X160730894Y-180568600D01*
X160730894Y-180568600D02*
X160635656Y-180616219D01*
X160635656Y-180616219D02*
X160492799Y-180616219D01*
X161254704Y-180616219D02*
X161254704Y-179949552D01*
X161254704Y-180140028D02*
X161302323Y-180044790D01*
X161302323Y-180044790D02*
X161349942Y-179997171D01*
X161349942Y-179997171D02*
X161445180Y-179949552D01*
X161445180Y-179949552D02*
X161540418Y-179949552D01*
X162302323Y-180616219D02*
X162302323Y-179616219D01*
X162302323Y-180568600D02*
X162207085Y-180616219D01*
X162207085Y-180616219D02*
X162016609Y-180616219D01*
X162016609Y-180616219D02*
X161921371Y-180568600D01*
X161921371Y-180568600D02*
X161873752Y-180520980D01*
X161873752Y-180520980D02*
X161826133Y-180425742D01*
X161826133Y-180425742D02*
X161826133Y-180140028D01*
X161826133Y-180140028D02*
X161873752Y-180044790D01*
X161873752Y-180044790D02*
X161921371Y-179997171D01*
X161921371Y-179997171D02*
X162016609Y-179949552D01*
X162016609Y-179949552D02*
X162207085Y-179949552D01*
X162207085Y-179949552D02*
X162302323Y-179997171D01*
X164111847Y-180616219D02*
X163778514Y-180140028D01*
X163540419Y-180616219D02*
X163540419Y-179616219D01*
X163540419Y-179616219D02*
X163921371Y-179616219D01*
X163921371Y-179616219D02*
X164016609Y-179663838D01*
X164016609Y-179663838D02*
X164064228Y-179711457D01*
X164064228Y-179711457D02*
X164111847Y-179806695D01*
X164111847Y-179806695D02*
X164111847Y-179949552D01*
X164111847Y-179949552D02*
X164064228Y-180044790D01*
X164064228Y-180044790D02*
X164016609Y-180092409D01*
X164016609Y-180092409D02*
X163921371Y-180140028D01*
X163921371Y-180140028D02*
X163540419Y-180140028D01*
X164683276Y-180616219D02*
X164588038Y-180568600D01*
X164588038Y-180568600D02*
X164540419Y-180520980D01*
X164540419Y-180520980D02*
X164492800Y-180425742D01*
X164492800Y-180425742D02*
X164492800Y-180140028D01*
X164492800Y-180140028D02*
X164540419Y-180044790D01*
X164540419Y-180044790D02*
X164588038Y-179997171D01*
X164588038Y-179997171D02*
X164683276Y-179949552D01*
X164683276Y-179949552D02*
X164826133Y-179949552D01*
X164826133Y-179949552D02*
X164921371Y-179997171D01*
X164921371Y-179997171D02*
X164968990Y-180044790D01*
X164968990Y-180044790D02*
X165016609Y-180140028D01*
X165016609Y-180140028D02*
X165016609Y-180425742D01*
X165016609Y-180425742D02*
X164968990Y-180520980D01*
X164968990Y-180520980D02*
X164921371Y-180568600D01*
X164921371Y-180568600D02*
X164826133Y-180616219D01*
X164826133Y-180616219D02*
X164683276Y-180616219D01*
X165445181Y-180616219D02*
X165445181Y-179616219D01*
X165445181Y-179997171D02*
X165540419Y-179949552D01*
X165540419Y-179949552D02*
X165730895Y-179949552D01*
X165730895Y-179949552D02*
X165826133Y-179997171D01*
X165826133Y-179997171D02*
X165873752Y-180044790D01*
X165873752Y-180044790D02*
X165921371Y-180140028D01*
X165921371Y-180140028D02*
X165921371Y-180425742D01*
X165921371Y-180425742D02*
X165873752Y-180520980D01*
X165873752Y-180520980D02*
X165826133Y-180568600D01*
X165826133Y-180568600D02*
X165730895Y-180616219D01*
X165730895Y-180616219D02*
X165540419Y-180616219D01*
X165540419Y-180616219D02*
X165445181Y-180568600D01*
X166492800Y-180616219D02*
X166397562Y-180568600D01*
X166397562Y-180568600D02*
X166349943Y-180520980D01*
X166349943Y-180520980D02*
X166302324Y-180425742D01*
X166302324Y-180425742D02*
X166302324Y-180140028D01*
X166302324Y-180140028D02*
X166349943Y-180044790D01*
X166349943Y-180044790D02*
X166397562Y-179997171D01*
X166397562Y-179997171D02*
X166492800Y-179949552D01*
X166492800Y-179949552D02*
X166635657Y-179949552D01*
X166635657Y-179949552D02*
X166730895Y-179997171D01*
X166730895Y-179997171D02*
X166778514Y-180044790D01*
X166778514Y-180044790D02*
X166826133Y-180140028D01*
X166826133Y-180140028D02*
X166826133Y-180425742D01*
X166826133Y-180425742D02*
X166778514Y-180520980D01*
X166778514Y-180520980D02*
X166730895Y-180568600D01*
X166730895Y-180568600D02*
X166635657Y-180616219D01*
X166635657Y-180616219D02*
X166492800Y-180616219D01*
X167207086Y-180568600D02*
X167302324Y-180616219D01*
X167302324Y-180616219D02*
X167492800Y-180616219D01*
X167492800Y-180616219D02*
X167588038Y-180568600D01*
X167588038Y-180568600D02*
X167635657Y-180473361D01*
X167635657Y-180473361D02*
X167635657Y-180425742D01*
X167635657Y-180425742D02*
X167588038Y-180330504D01*
X167588038Y-180330504D02*
X167492800Y-180282885D01*
X167492800Y-180282885D02*
X167349943Y-180282885D01*
X167349943Y-180282885D02*
X167254705Y-180235266D01*
X167254705Y-180235266D02*
X167207086Y-180140028D01*
X167207086Y-180140028D02*
X167207086Y-180092409D01*
X167207086Y-180092409D02*
X167254705Y-179997171D01*
X167254705Y-179997171D02*
X167349943Y-179949552D01*
X167349943Y-179949552D02*
X167492800Y-179949552D01*
X167492800Y-179949552D02*
X167588038Y-179997171D01*
X168492800Y-179949552D02*
X168492800Y-180616219D01*
X168064229Y-179949552D02*
X168064229Y-180473361D01*
X168064229Y-180473361D02*
X168111848Y-180568600D01*
X168111848Y-180568600D02*
X168207086Y-180616219D01*
X168207086Y-180616219D02*
X168349943Y-180616219D01*
X168349943Y-180616219D02*
X168445181Y-180568600D01*
X168445181Y-180568600D02*
X168492800Y-180520980D01*
X168968991Y-180616219D02*
X168968991Y-179616219D01*
X168968991Y-179997171D02*
X169064229Y-179949552D01*
X169064229Y-179949552D02*
X169254705Y-179949552D01*
X169254705Y-179949552D02*
X169349943Y-179997171D01*
X169349943Y-179997171D02*
X169397562Y-180044790D01*
X169397562Y-180044790D02*
X169445181Y-180140028D01*
X169445181Y-180140028D02*
X169445181Y-180425742D01*
X169445181Y-180425742D02*
X169397562Y-180520980D01*
X169397562Y-180520980D02*
X169349943Y-180568600D01*
X169349943Y-180568600D02*
X169254705Y-180616219D01*
X169254705Y-180616219D02*
X169064229Y-180616219D01*
X169064229Y-180616219D02*
X168968991Y-180568600D01*
X170588039Y-179711457D02*
X170635658Y-179663838D01*
X170635658Y-179663838D02*
X170730896Y-179616219D01*
X170730896Y-179616219D02*
X170968991Y-179616219D01*
X170968991Y-179616219D02*
X171064229Y-179663838D01*
X171064229Y-179663838D02*
X171111848Y-179711457D01*
X171111848Y-179711457D02*
X171159467Y-179806695D01*
X171159467Y-179806695D02*
X171159467Y-179901933D01*
X171159467Y-179901933D02*
X171111848Y-180044790D01*
X171111848Y-180044790D02*
X170540420Y-180616219D01*
X170540420Y-180616219D02*
X171159467Y-180616219D01*
X171778515Y-179616219D02*
X171873753Y-179616219D01*
X171873753Y-179616219D02*
X171968991Y-179663838D01*
X171968991Y-179663838D02*
X172016610Y-179711457D01*
X172016610Y-179711457D02*
X172064229Y-179806695D01*
X172064229Y-179806695D02*
X172111848Y-179997171D01*
X172111848Y-179997171D02*
X172111848Y-180235266D01*
X172111848Y-180235266D02*
X172064229Y-180425742D01*
X172064229Y-180425742D02*
X172016610Y-180520980D01*
X172016610Y-180520980D02*
X171968991Y-180568600D01*
X171968991Y-180568600D02*
X171873753Y-180616219D01*
X171873753Y-180616219D02*
X171778515Y-180616219D01*
X171778515Y-180616219D02*
X171683277Y-180568600D01*
X171683277Y-180568600D02*
X171635658Y-180520980D01*
X171635658Y-180520980D02*
X171588039Y-180425742D01*
X171588039Y-180425742D02*
X171540420Y-180235266D01*
X171540420Y-180235266D02*
X171540420Y-179997171D01*
X171540420Y-179997171D02*
X171588039Y-179806695D01*
X171588039Y-179806695D02*
X171635658Y-179711457D01*
X171635658Y-179711457D02*
X171683277Y-179663838D01*
X171683277Y-179663838D02*
X171778515Y-179616219D01*
X172492801Y-179711457D02*
X172540420Y-179663838D01*
X172540420Y-179663838D02*
X172635658Y-179616219D01*
X172635658Y-179616219D02*
X172873753Y-179616219D01*
X172873753Y-179616219D02*
X172968991Y-179663838D01*
X172968991Y-179663838D02*
X173016610Y-179711457D01*
X173016610Y-179711457D02*
X173064229Y-179806695D01*
X173064229Y-179806695D02*
X173064229Y-179901933D01*
X173064229Y-179901933D02*
X173016610Y-180044790D01*
X173016610Y-180044790D02*
X172445182Y-180616219D01*
X172445182Y-180616219D02*
X173064229Y-180616219D01*
X173921372Y-179949552D02*
X173921372Y-180616219D01*
X173683277Y-179568600D02*
X173445182Y-180282885D01*
X173445182Y-180282885D02*
X174064229Y-180282885D01*
X174445182Y-180235266D02*
X175207087Y-180235266D01*
X175635658Y-179711457D02*
X175683277Y-179663838D01*
X175683277Y-179663838D02*
X175778515Y-179616219D01*
X175778515Y-179616219D02*
X176016610Y-179616219D01*
X176016610Y-179616219D02*
X176111848Y-179663838D01*
X176111848Y-179663838D02*
X176159467Y-179711457D01*
X176159467Y-179711457D02*
X176207086Y-179806695D01*
X176207086Y-179806695D02*
X176207086Y-179901933D01*
X176207086Y-179901933D02*
X176159467Y-180044790D01*
X176159467Y-180044790D02*
X175588039Y-180616219D01*
X175588039Y-180616219D02*
X176207086Y-180616219D01*
X176826134Y-179616219D02*
X176921372Y-179616219D01*
X176921372Y-179616219D02*
X177016610Y-179663838D01*
X177016610Y-179663838D02*
X177064229Y-179711457D01*
X177064229Y-179711457D02*
X177111848Y-179806695D01*
X177111848Y-179806695D02*
X177159467Y-179997171D01*
X177159467Y-179997171D02*
X177159467Y-180235266D01*
X177159467Y-180235266D02*
X177111848Y-180425742D01*
X177111848Y-180425742D02*
X177064229Y-180520980D01*
X177064229Y-180520980D02*
X177016610Y-180568600D01*
X177016610Y-180568600D02*
X176921372Y-180616219D01*
X176921372Y-180616219D02*
X176826134Y-180616219D01*
X176826134Y-180616219D02*
X176730896Y-180568600D01*
X176730896Y-180568600D02*
X176683277Y-180520980D01*
X176683277Y-180520980D02*
X176635658Y-180425742D01*
X176635658Y-180425742D02*
X176588039Y-180235266D01*
X176588039Y-180235266D02*
X176588039Y-179997171D01*
X176588039Y-179997171D02*
X176635658Y-179806695D01*
X176635658Y-179806695D02*
X176683277Y-179711457D01*
X176683277Y-179711457D02*
X176730896Y-179663838D01*
X176730896Y-179663838D02*
X176826134Y-179616219D01*
X177540420Y-179711457D02*
X177588039Y-179663838D01*
X177588039Y-179663838D02*
X177683277Y-179616219D01*
X177683277Y-179616219D02*
X177921372Y-179616219D01*
X177921372Y-179616219D02*
X178016610Y-179663838D01*
X178016610Y-179663838D02*
X178064229Y-179711457D01*
X178064229Y-179711457D02*
X178111848Y-179806695D01*
X178111848Y-179806695D02*
X178111848Y-179901933D01*
X178111848Y-179901933D02*
X178064229Y-180044790D01*
X178064229Y-180044790D02*
X177492801Y-180616219D01*
X177492801Y-180616219D02*
X178111848Y-180616219D01*
X179016610Y-179616219D02*
X178540420Y-179616219D01*
X178540420Y-179616219D02*
X178492801Y-180092409D01*
X178492801Y-180092409D02*
X178540420Y-180044790D01*
X178540420Y-180044790D02*
X178635658Y-179997171D01*
X178635658Y-179997171D02*
X178873753Y-179997171D01*
X178873753Y-179997171D02*
X178968991Y-180044790D01*
X178968991Y-180044790D02*
X179016610Y-180092409D01*
X179016610Y-180092409D02*
X179064229Y-180187647D01*
X179064229Y-180187647D02*
X179064229Y-180425742D01*
X179064229Y-180425742D02*
X179016610Y-180520980D01*
X179016610Y-180520980D02*
X178968991Y-180568600D01*
X178968991Y-180568600D02*
X178873753Y-180616219D01*
X178873753Y-180616219D02*
X178635658Y-180616219D01*
X178635658Y-180616219D02*
X178540420Y-180568600D01*
X178540420Y-180568600D02*
X178492801Y-180520980D01*
X155979905Y-101546819D02*
X155979905Y-100546819D01*
X155979905Y-100546819D02*
X156218000Y-100546819D01*
X156218000Y-100546819D02*
X156360857Y-100594438D01*
X156360857Y-100594438D02*
X156456095Y-100689676D01*
X156456095Y-100689676D02*
X156503714Y-100784914D01*
X156503714Y-100784914D02*
X156551333Y-100975390D01*
X156551333Y-100975390D02*
X156551333Y-101118247D01*
X156551333Y-101118247D02*
X156503714Y-101308723D01*
X156503714Y-101308723D02*
X156456095Y-101403961D01*
X156456095Y-101403961D02*
X156360857Y-101499200D01*
X156360857Y-101499200D02*
X156218000Y-101546819D01*
X156218000Y-101546819D02*
X155979905Y-101546819D01*
X156932286Y-100642057D02*
X156979905Y-100594438D01*
X156979905Y-100594438D02*
X157075143Y-100546819D01*
X157075143Y-100546819D02*
X157313238Y-100546819D01*
X157313238Y-100546819D02*
X157408476Y-100594438D01*
X157408476Y-100594438D02*
X157456095Y-100642057D01*
X157456095Y-100642057D02*
X157503714Y-100737295D01*
X157503714Y-100737295D02*
X157503714Y-100832533D01*
X157503714Y-100832533D02*
X157456095Y-100975390D01*
X157456095Y-100975390D02*
X156884667Y-101546819D01*
X156884667Y-101546819D02*
X157503714Y-101546819D01*
X170457905Y-99260819D02*
X170457905Y-98260819D01*
X171029333Y-99260819D02*
X170600762Y-98689390D01*
X171029333Y-98260819D02*
X170457905Y-98832247D01*
X171410286Y-98356057D02*
X171457905Y-98308438D01*
X171457905Y-98308438D02*
X171553143Y-98260819D01*
X171553143Y-98260819D02*
X171791238Y-98260819D01*
X171791238Y-98260819D02*
X171886476Y-98308438D01*
X171886476Y-98308438D02*
X171934095Y-98356057D01*
X171934095Y-98356057D02*
X171981714Y-98451295D01*
X171981714Y-98451295D02*
X171981714Y-98546533D01*
X171981714Y-98546533D02*
X171934095Y-98689390D01*
X171934095Y-98689390D02*
X171362667Y-99260819D01*
X171362667Y-99260819D02*
X171981714Y-99260819D01*
X183907133Y-102213580D02*
X183859514Y-102261200D01*
X183859514Y-102261200D02*
X183716657Y-102308819D01*
X183716657Y-102308819D02*
X183621419Y-102308819D01*
X183621419Y-102308819D02*
X183478562Y-102261200D01*
X183478562Y-102261200D02*
X183383324Y-102165961D01*
X183383324Y-102165961D02*
X183335705Y-102070723D01*
X183335705Y-102070723D02*
X183288086Y-101880247D01*
X183288086Y-101880247D02*
X183288086Y-101737390D01*
X183288086Y-101737390D02*
X183335705Y-101546914D01*
X183335705Y-101546914D02*
X183383324Y-101451676D01*
X183383324Y-101451676D02*
X183478562Y-101356438D01*
X183478562Y-101356438D02*
X183621419Y-101308819D01*
X183621419Y-101308819D02*
X183716657Y-101308819D01*
X183716657Y-101308819D02*
X183859514Y-101356438D01*
X183859514Y-101356438D02*
X183907133Y-101404057D01*
X184240467Y-101308819D02*
X184907133Y-101308819D01*
X184907133Y-101308819D02*
X184478562Y-102308819D01*
X168489333Y-170634819D02*
X168156000Y-170158628D01*
X167917905Y-170634819D02*
X167917905Y-169634819D01*
X167917905Y-169634819D02*
X168298857Y-169634819D01*
X168298857Y-169634819D02*
X168394095Y-169682438D01*
X168394095Y-169682438D02*
X168441714Y-169730057D01*
X168441714Y-169730057D02*
X168489333Y-169825295D01*
X168489333Y-169825295D02*
X168489333Y-169968152D01*
X168489333Y-169968152D02*
X168441714Y-170063390D01*
X168441714Y-170063390D02*
X168394095Y-170111009D01*
X168394095Y-170111009D02*
X168298857Y-170158628D01*
X168298857Y-170158628D02*
X167917905Y-170158628D01*
X168965524Y-170634819D02*
X169156000Y-170634819D01*
X169156000Y-170634819D02*
X169251238Y-170587200D01*
X169251238Y-170587200D02*
X169298857Y-170539580D01*
X169298857Y-170539580D02*
X169394095Y-170396723D01*
X169394095Y-170396723D02*
X169441714Y-170206247D01*
X169441714Y-170206247D02*
X169441714Y-169825295D01*
X169441714Y-169825295D02*
X169394095Y-169730057D01*
X169394095Y-169730057D02*
X169346476Y-169682438D01*
X169346476Y-169682438D02*
X169251238Y-169634819D01*
X169251238Y-169634819D02*
X169060762Y-169634819D01*
X169060762Y-169634819D02*
X168965524Y-169682438D01*
X168965524Y-169682438D02*
X168917905Y-169730057D01*
X168917905Y-169730057D02*
X168870286Y-169825295D01*
X168870286Y-169825295D02*
X168870286Y-170063390D01*
X168870286Y-170063390D02*
X168917905Y-170158628D01*
X168917905Y-170158628D02*
X168965524Y-170206247D01*
X168965524Y-170206247D02*
X169060762Y-170253866D01*
X169060762Y-170253866D02*
X169251238Y-170253866D01*
X169251238Y-170253866D02*
X169346476Y-170206247D01*
X169346476Y-170206247D02*
X169394095Y-170158628D01*
X169394095Y-170158628D02*
X169441714Y-170063390D01*
X211644667Y-117128119D02*
X211692286Y-117080500D01*
X211692286Y-117080500D02*
X211835143Y-117032880D01*
X211835143Y-117032880D02*
X211930381Y-117032880D01*
X211930381Y-117032880D02*
X212073238Y-117080500D01*
X212073238Y-117080500D02*
X212168476Y-117175738D01*
X212168476Y-117175738D02*
X212216095Y-117270976D01*
X212216095Y-117270976D02*
X212263714Y-117461452D01*
X212263714Y-117461452D02*
X212263714Y-117604309D01*
X212263714Y-117604309D02*
X212216095Y-117794785D01*
X212216095Y-117794785D02*
X212168476Y-117890023D01*
X212168476Y-117890023D02*
X212073238Y-117985261D01*
X212073238Y-117985261D02*
X211930381Y-118032880D01*
X211930381Y-118032880D02*
X211835143Y-118032880D01*
X211835143Y-118032880D02*
X211692286Y-117985261D01*
X211692286Y-117985261D02*
X211644667Y-117937642D01*
X210644667Y-117032880D02*
X210978000Y-117509071D01*
X211216095Y-117032880D02*
X211216095Y-118032880D01*
X211216095Y-118032880D02*
X210835143Y-118032880D01*
X210835143Y-118032880D02*
X210739905Y-117985261D01*
X210739905Y-117985261D02*
X210692286Y-117937642D01*
X210692286Y-117937642D02*
X210644667Y-117842404D01*
X210644667Y-117842404D02*
X210644667Y-117699547D01*
X210644667Y-117699547D02*
X210692286Y-117604309D01*
X210692286Y-117604309D02*
X210739905Y-117556690D01*
X210739905Y-117556690D02*
X210835143Y-117509071D01*
X210835143Y-117509071D02*
X211216095Y-117509071D01*
X209692286Y-117032880D02*
X210263714Y-117032880D01*
X209978000Y-117032880D02*
X209978000Y-118032880D01*
X209978000Y-118032880D02*
X210073238Y-117890023D01*
X210073238Y-117890023D02*
X210168476Y-117794785D01*
X210168476Y-117794785D02*
X210263714Y-117747166D01*
X183907133Y-107547580D02*
X183859514Y-107595200D01*
X183859514Y-107595200D02*
X183716657Y-107642819D01*
X183716657Y-107642819D02*
X183621419Y-107642819D01*
X183621419Y-107642819D02*
X183478562Y-107595200D01*
X183478562Y-107595200D02*
X183383324Y-107499961D01*
X183383324Y-107499961D02*
X183335705Y-107404723D01*
X183335705Y-107404723D02*
X183288086Y-107214247D01*
X183288086Y-107214247D02*
X183288086Y-107071390D01*
X183288086Y-107071390D02*
X183335705Y-106880914D01*
X183335705Y-106880914D02*
X183383324Y-106785676D01*
X183383324Y-106785676D02*
X183478562Y-106690438D01*
X183478562Y-106690438D02*
X183621419Y-106642819D01*
X183621419Y-106642819D02*
X183716657Y-106642819D01*
X183716657Y-106642819D02*
X183859514Y-106690438D01*
X183859514Y-106690438D02*
X183907133Y-106738057D01*
X184383324Y-107642819D02*
X184573800Y-107642819D01*
X184573800Y-107642819D02*
X184669038Y-107595200D01*
X184669038Y-107595200D02*
X184716657Y-107547580D01*
X184716657Y-107547580D02*
X184811895Y-107404723D01*
X184811895Y-107404723D02*
X184859514Y-107214247D01*
X184859514Y-107214247D02*
X184859514Y-106833295D01*
X184859514Y-106833295D02*
X184811895Y-106738057D01*
X184811895Y-106738057D02*
X184764276Y-106690438D01*
X184764276Y-106690438D02*
X184669038Y-106642819D01*
X184669038Y-106642819D02*
X184478562Y-106642819D01*
X184478562Y-106642819D02*
X184383324Y-106690438D01*
X184383324Y-106690438D02*
X184335705Y-106738057D01*
X184335705Y-106738057D02*
X184288086Y-106833295D01*
X184288086Y-106833295D02*
X184288086Y-107071390D01*
X184288086Y-107071390D02*
X184335705Y-107166628D01*
X184335705Y-107166628D02*
X184383324Y-107214247D01*
X184383324Y-107214247D02*
X184478562Y-107261866D01*
X184478562Y-107261866D02*
X184669038Y-107261866D01*
X184669038Y-107261866D02*
X184764276Y-107214247D01*
X184764276Y-107214247D02*
X184811895Y-107166628D01*
X184811895Y-107166628D02*
X184859514Y-107071390D01*
X165981142Y-178762819D02*
X165647809Y-178286628D01*
X165409714Y-178762819D02*
X165409714Y-177762819D01*
X165409714Y-177762819D02*
X165790666Y-177762819D01*
X165790666Y-177762819D02*
X165885904Y-177810438D01*
X165885904Y-177810438D02*
X165933523Y-177858057D01*
X165933523Y-177858057D02*
X165981142Y-177953295D01*
X165981142Y-177953295D02*
X165981142Y-178096152D01*
X165981142Y-178096152D02*
X165933523Y-178191390D01*
X165933523Y-178191390D02*
X165885904Y-178239009D01*
X165885904Y-178239009D02*
X165790666Y-178286628D01*
X165790666Y-178286628D02*
X165409714Y-178286628D01*
X166933523Y-178762819D02*
X166362095Y-178762819D01*
X166647809Y-178762819D02*
X166647809Y-177762819D01*
X166647809Y-177762819D02*
X166552571Y-177905676D01*
X166552571Y-177905676D02*
X166457333Y-178000914D01*
X166457333Y-178000914D02*
X166362095Y-178048533D01*
X167885904Y-178762819D02*
X167314476Y-178762819D01*
X167600190Y-178762819D02*
X167600190Y-177762819D01*
X167600190Y-177762819D02*
X167504952Y-177905676D01*
X167504952Y-177905676D02*
X167409714Y-178000914D01*
X167409714Y-178000914D02*
X167314476Y-178048533D01*
X163870666Y-132274819D02*
X163870666Y-132989104D01*
X163870666Y-132989104D02*
X163823047Y-133131961D01*
X163823047Y-133131961D02*
X163727809Y-133227200D01*
X163727809Y-133227200D02*
X163584952Y-133274819D01*
X163584952Y-133274819D02*
X163489714Y-133274819D01*
X164346857Y-133274819D02*
X164346857Y-132274819D01*
X164346857Y-132274819D02*
X164727809Y-132274819D01*
X164727809Y-132274819D02*
X164823047Y-132322438D01*
X164823047Y-132322438D02*
X164870666Y-132370057D01*
X164870666Y-132370057D02*
X164918285Y-132465295D01*
X164918285Y-132465295D02*
X164918285Y-132608152D01*
X164918285Y-132608152D02*
X164870666Y-132703390D01*
X164870666Y-132703390D02*
X164823047Y-132751009D01*
X164823047Y-132751009D02*
X164727809Y-132798628D01*
X164727809Y-132798628D02*
X164346857Y-132798628D01*
X165823047Y-132274819D02*
X165346857Y-132274819D01*
X165346857Y-132274819D02*
X165299238Y-132751009D01*
X165299238Y-132751009D02*
X165346857Y-132703390D01*
X165346857Y-132703390D02*
X165442095Y-132655771D01*
X165442095Y-132655771D02*
X165680190Y-132655771D01*
X165680190Y-132655771D02*
X165775428Y-132703390D01*
X165775428Y-132703390D02*
X165823047Y-132751009D01*
X165823047Y-132751009D02*
X165870666Y-132846247D01*
X165870666Y-132846247D02*
X165870666Y-133084342D01*
X165870666Y-133084342D02*
X165823047Y-133179580D01*
X165823047Y-133179580D02*
X165775428Y-133227200D01*
X165775428Y-133227200D02*
X165680190Y-133274819D01*
X165680190Y-133274819D02*
X165442095Y-133274819D01*
X165442095Y-133274819D02*
X165346857Y-133227200D01*
X165346857Y-133227200D02*
X165299238Y-133179580D01*
X161669505Y-106754819D02*
X161669505Y-105754819D01*
X161669505Y-105754819D02*
X161907600Y-105754819D01*
X161907600Y-105754819D02*
X162050457Y-105802438D01*
X162050457Y-105802438D02*
X162145695Y-105897676D01*
X162145695Y-105897676D02*
X162193314Y-105992914D01*
X162193314Y-105992914D02*
X162240933Y-106183390D01*
X162240933Y-106183390D02*
X162240933Y-106326247D01*
X162240933Y-106326247D02*
X162193314Y-106516723D01*
X162193314Y-106516723D02*
X162145695Y-106611961D01*
X162145695Y-106611961D02*
X162050457Y-106707200D01*
X162050457Y-106707200D02*
X161907600Y-106754819D01*
X161907600Y-106754819D02*
X161669505Y-106754819D01*
X162574267Y-105754819D02*
X163193314Y-105754819D01*
X163193314Y-105754819D02*
X162859981Y-106135771D01*
X162859981Y-106135771D02*
X163002838Y-106135771D01*
X163002838Y-106135771D02*
X163098076Y-106183390D01*
X163098076Y-106183390D02*
X163145695Y-106231009D01*
X163145695Y-106231009D02*
X163193314Y-106326247D01*
X163193314Y-106326247D02*
X163193314Y-106564342D01*
X163193314Y-106564342D02*
X163145695Y-106659580D01*
X163145695Y-106659580D02*
X163098076Y-106707200D01*
X163098076Y-106707200D02*
X163002838Y-106754819D01*
X163002838Y-106754819D02*
X162717124Y-106754819D01*
X162717124Y-106754819D02*
X162621886Y-106707200D01*
X162621886Y-106707200D02*
X162574267Y-106659580D01*
X180427333Y-144320419D02*
X180094000Y-143844228D01*
X179855905Y-144320419D02*
X179855905Y-143320419D01*
X179855905Y-143320419D02*
X180236857Y-143320419D01*
X180236857Y-143320419D02*
X180332095Y-143368038D01*
X180332095Y-143368038D02*
X180379714Y-143415657D01*
X180379714Y-143415657D02*
X180427333Y-143510895D01*
X180427333Y-143510895D02*
X180427333Y-143653752D01*
X180427333Y-143653752D02*
X180379714Y-143748990D01*
X180379714Y-143748990D02*
X180332095Y-143796609D01*
X180332095Y-143796609D02*
X180236857Y-143844228D01*
X180236857Y-143844228D02*
X179855905Y-143844228D01*
X181332095Y-143320419D02*
X180855905Y-143320419D01*
X180855905Y-143320419D02*
X180808286Y-143796609D01*
X180808286Y-143796609D02*
X180855905Y-143748990D01*
X180855905Y-143748990D02*
X180951143Y-143701371D01*
X180951143Y-143701371D02*
X181189238Y-143701371D01*
X181189238Y-143701371D02*
X181284476Y-143748990D01*
X181284476Y-143748990D02*
X181332095Y-143796609D01*
X181332095Y-143796609D02*
X181379714Y-143891847D01*
X181379714Y-143891847D02*
X181379714Y-144129942D01*
X181379714Y-144129942D02*
X181332095Y-144225180D01*
X181332095Y-144225180D02*
X181284476Y-144272800D01*
X181284476Y-144272800D02*
X181189238Y-144320419D01*
X181189238Y-144320419D02*
X180951143Y-144320419D01*
X180951143Y-144320419D02*
X180855905Y-144272800D01*
X180855905Y-144272800D02*
X180808286Y-144225180D01*
X157625825Y-120596819D02*
X157625825Y-119596819D01*
X157625825Y-119596819D02*
X157863920Y-119596819D01*
X157863920Y-119596819D02*
X158006777Y-119644438D01*
X158006777Y-119644438D02*
X158102015Y-119739676D01*
X158102015Y-119739676D02*
X158149634Y-119834914D01*
X158149634Y-119834914D02*
X158197253Y-120025390D01*
X158197253Y-120025390D02*
X158197253Y-120168247D01*
X158197253Y-120168247D02*
X158149634Y-120358723D01*
X158149634Y-120358723D02*
X158102015Y-120453961D01*
X158102015Y-120453961D02*
X158006777Y-120549200D01*
X158006777Y-120549200D02*
X157863920Y-120596819D01*
X157863920Y-120596819D02*
X157625825Y-120596819D01*
X159054396Y-119596819D02*
X158863920Y-119596819D01*
X158863920Y-119596819D02*
X158768682Y-119644438D01*
X158768682Y-119644438D02*
X158721063Y-119692057D01*
X158721063Y-119692057D02*
X158625825Y-119834914D01*
X158625825Y-119834914D02*
X158578206Y-120025390D01*
X158578206Y-120025390D02*
X158578206Y-120406342D01*
X158578206Y-120406342D02*
X158625825Y-120501580D01*
X158625825Y-120501580D02*
X158673444Y-120549200D01*
X158673444Y-120549200D02*
X158768682Y-120596819D01*
X158768682Y-120596819D02*
X158959158Y-120596819D01*
X158959158Y-120596819D02*
X159054396Y-120549200D01*
X159054396Y-120549200D02*
X159102015Y-120501580D01*
X159102015Y-120501580D02*
X159149634Y-120406342D01*
X159149634Y-120406342D02*
X159149634Y-120168247D01*
X159149634Y-120168247D02*
X159102015Y-120073009D01*
X159102015Y-120073009D02*
X159054396Y-120025390D01*
X159054396Y-120025390D02*
X158959158Y-119977771D01*
X158959158Y-119977771D02*
X158768682Y-119977771D01*
X158768682Y-119977771D02*
X158673444Y-120025390D01*
X158673444Y-120025390D02*
X158625825Y-120073009D01*
X158625825Y-120073009D02*
X158578206Y-120168247D01*
X200402665Y-169888819D02*
X200402665Y-170603104D01*
X200402665Y-170603104D02*
X200355046Y-170745961D01*
X200355046Y-170745961D02*
X200259808Y-170841200D01*
X200259808Y-170841200D02*
X200116951Y-170888819D01*
X200116951Y-170888819D02*
X200021713Y-170888819D01*
X200783618Y-169888819D02*
X201402665Y-169888819D01*
X201402665Y-169888819D02*
X201069332Y-170269771D01*
X201069332Y-170269771D02*
X201212189Y-170269771D01*
X201212189Y-170269771D02*
X201307427Y-170317390D01*
X201307427Y-170317390D02*
X201355046Y-170365009D01*
X201355046Y-170365009D02*
X201402665Y-170460247D01*
X201402665Y-170460247D02*
X201402665Y-170698342D01*
X201402665Y-170698342D02*
X201355046Y-170793580D01*
X201355046Y-170793580D02*
X201307427Y-170841200D01*
X201307427Y-170841200D02*
X201212189Y-170888819D01*
X201212189Y-170888819D02*
X200926475Y-170888819D01*
X200926475Y-170888819D02*
X200831237Y-170841200D01*
X200831237Y-170841200D02*
X200783618Y-170793580D01*
X161409142Y-178730819D02*
X161075809Y-178254628D01*
X160837714Y-178730819D02*
X160837714Y-177730819D01*
X160837714Y-177730819D02*
X161218666Y-177730819D01*
X161218666Y-177730819D02*
X161313904Y-177778438D01*
X161313904Y-177778438D02*
X161361523Y-177826057D01*
X161361523Y-177826057D02*
X161409142Y-177921295D01*
X161409142Y-177921295D02*
X161409142Y-178064152D01*
X161409142Y-178064152D02*
X161361523Y-178159390D01*
X161361523Y-178159390D02*
X161313904Y-178207009D01*
X161313904Y-178207009D02*
X161218666Y-178254628D01*
X161218666Y-178254628D02*
X160837714Y-178254628D01*
X162361523Y-178730819D02*
X161790095Y-178730819D01*
X162075809Y-178730819D02*
X162075809Y-177730819D01*
X162075809Y-177730819D02*
X161980571Y-177873676D01*
X161980571Y-177873676D02*
X161885333Y-177968914D01*
X161885333Y-177968914D02*
X161790095Y-178016533D01*
X162742476Y-177826057D02*
X162790095Y-177778438D01*
X162790095Y-177778438D02*
X162885333Y-177730819D01*
X162885333Y-177730819D02*
X163123428Y-177730819D01*
X163123428Y-177730819D02*
X163218666Y-177778438D01*
X163218666Y-177778438D02*
X163266285Y-177826057D01*
X163266285Y-177826057D02*
X163313904Y-177921295D01*
X163313904Y-177921295D02*
X163313904Y-178016533D01*
X163313904Y-178016533D02*
X163266285Y-178159390D01*
X163266285Y-178159390D02*
X162694857Y-178730819D01*
X162694857Y-178730819D02*
X163313904Y-178730819D01*
X169858536Y-134356819D02*
X170429964Y-134356819D01*
X170144250Y-135356819D02*
X170144250Y-134356819D01*
X170763298Y-135356819D02*
X170763298Y-134356819D01*
X170763298Y-134833009D02*
X171334726Y-134833009D01*
X171334726Y-135356819D02*
X171334726Y-134356819D01*
X171763298Y-134452057D02*
X171810917Y-134404438D01*
X171810917Y-134404438D02*
X171906155Y-134356819D01*
X171906155Y-134356819D02*
X172144250Y-134356819D01*
X172144250Y-134356819D02*
X172239488Y-134404438D01*
X172239488Y-134404438D02*
X172287107Y-134452057D01*
X172287107Y-134452057D02*
X172334726Y-134547295D01*
X172334726Y-134547295D02*
X172334726Y-134642533D01*
X172334726Y-134642533D02*
X172287107Y-134785390D01*
X172287107Y-134785390D02*
X171715679Y-135356819D01*
X171715679Y-135356819D02*
X172334726Y-135356819D01*
X169858536Y-125692819D02*
X170429964Y-125692819D01*
X170144250Y-126692819D02*
X170144250Y-125692819D01*
X170763298Y-126692819D02*
X170763298Y-125692819D01*
X170763298Y-126169009D02*
X171334726Y-126169009D01*
X171334726Y-126692819D02*
X171334726Y-125692819D01*
X172334726Y-126692819D02*
X171763298Y-126692819D01*
X172049012Y-126692819D02*
X172049012Y-125692819D01*
X172049012Y-125692819D02*
X171953774Y-125835676D01*
X171953774Y-125835676D02*
X171858536Y-125930914D01*
X171858536Y-125930914D02*
X171763298Y-125978533D01*
X215036495Y-97886419D02*
X215036495Y-96886419D01*
X215036495Y-97362609D02*
X215607923Y-97362609D01*
X215607923Y-97886419D02*
X215607923Y-96886419D01*
X216607923Y-97886419D02*
X216036495Y-97886419D01*
X216322209Y-97886419D02*
X216322209Y-96886419D01*
X216322209Y-96886419D02*
X216226971Y-97029276D01*
X216226971Y-97029276D02*
X216131733Y-97124514D01*
X216131733Y-97124514D02*
X216036495Y-97172133D01*
X179346762Y-132442056D02*
X179251524Y-132394437D01*
X179251524Y-132394437D02*
X179156286Y-132299199D01*
X179156286Y-132299199D02*
X179013429Y-132156341D01*
X179013429Y-132156341D02*
X178918191Y-132108722D01*
X178918191Y-132108722D02*
X178822953Y-132108722D01*
X178870572Y-132346818D02*
X178775334Y-132299199D01*
X178775334Y-132299199D02*
X178680096Y-132203960D01*
X178680096Y-132203960D02*
X178632477Y-132013484D01*
X178632477Y-132013484D02*
X178632477Y-131680151D01*
X178632477Y-131680151D02*
X178680096Y-131489675D01*
X178680096Y-131489675D02*
X178775334Y-131394437D01*
X178775334Y-131394437D02*
X178870572Y-131346818D01*
X178870572Y-131346818D02*
X179061048Y-131346818D01*
X179061048Y-131346818D02*
X179156286Y-131394437D01*
X179156286Y-131394437D02*
X179251524Y-131489675D01*
X179251524Y-131489675D02*
X179299143Y-131680151D01*
X179299143Y-131680151D02*
X179299143Y-132013484D01*
X179299143Y-132013484D02*
X179251524Y-132203960D01*
X179251524Y-132203960D02*
X179156286Y-132299199D01*
X179156286Y-132299199D02*
X179061048Y-132346818D01*
X179061048Y-132346818D02*
X178870572Y-132346818D01*
X180251524Y-132346818D02*
X179680096Y-132346818D01*
X179965810Y-132346818D02*
X179965810Y-131346818D01*
X179965810Y-131346818D02*
X179870572Y-131489675D01*
X179870572Y-131489675D02*
X179775334Y-131584913D01*
X179775334Y-131584913D02*
X179680096Y-131632532D01*
X159599333Y-170888819D02*
X159266000Y-170412628D01*
X159027905Y-170888819D02*
X159027905Y-169888819D01*
X159027905Y-169888819D02*
X159408857Y-169888819D01*
X159408857Y-169888819D02*
X159504095Y-169936438D01*
X159504095Y-169936438D02*
X159551714Y-169984057D01*
X159551714Y-169984057D02*
X159599333Y-170079295D01*
X159599333Y-170079295D02*
X159599333Y-170222152D01*
X159599333Y-170222152D02*
X159551714Y-170317390D01*
X159551714Y-170317390D02*
X159504095Y-170365009D01*
X159504095Y-170365009D02*
X159408857Y-170412628D01*
X159408857Y-170412628D02*
X159027905Y-170412628D01*
X159932667Y-169888819D02*
X160599333Y-169888819D01*
X160599333Y-169888819D02*
X160170762Y-170888819D01*
X166497095Y-115786819D02*
X166497095Y-116596342D01*
X166497095Y-116596342D02*
X166544714Y-116691580D01*
X166544714Y-116691580D02*
X166592333Y-116739200D01*
X166592333Y-116739200D02*
X166687571Y-116786819D01*
X166687571Y-116786819D02*
X166878047Y-116786819D01*
X166878047Y-116786819D02*
X166973285Y-116739200D01*
X166973285Y-116739200D02*
X167020904Y-116691580D01*
X167020904Y-116691580D02*
X167068523Y-116596342D01*
X167068523Y-116596342D02*
X167068523Y-115786819D01*
X167973285Y-115786819D02*
X167782809Y-115786819D01*
X167782809Y-115786819D02*
X167687571Y-115834438D01*
X167687571Y-115834438D02*
X167639952Y-115882057D01*
X167639952Y-115882057D02*
X167544714Y-116024914D01*
X167544714Y-116024914D02*
X167497095Y-116215390D01*
X167497095Y-116215390D02*
X167497095Y-116596342D01*
X167497095Y-116596342D02*
X167544714Y-116691580D01*
X167544714Y-116691580D02*
X167592333Y-116739200D01*
X167592333Y-116739200D02*
X167687571Y-116786819D01*
X167687571Y-116786819D02*
X167878047Y-116786819D01*
X167878047Y-116786819D02*
X167973285Y-116739200D01*
X167973285Y-116739200D02*
X168020904Y-116691580D01*
X168020904Y-116691580D02*
X168068523Y-116596342D01*
X168068523Y-116596342D02*
X168068523Y-116358247D01*
X168068523Y-116358247D02*
X168020904Y-116263009D01*
X168020904Y-116263009D02*
X167973285Y-116215390D01*
X167973285Y-116215390D02*
X167878047Y-116167771D01*
X167878047Y-116167771D02*
X167687571Y-116167771D01*
X167687571Y-116167771D02*
X167592333Y-116215390D01*
X167592333Y-116215390D02*
X167544714Y-116263009D01*
X167544714Y-116263009D02*
X167497095Y-116358247D01*
X170295219Y-113614199D02*
X170533314Y-113614199D01*
X170438076Y-113852294D02*
X170533314Y-113614199D01*
X170533314Y-113614199D02*
X170438076Y-113376104D01*
X170723790Y-113757056D02*
X170533314Y-113614199D01*
X170533314Y-113614199D02*
X170723790Y-113471342D01*
X171385580Y-113614200D02*
X171147485Y-113614200D01*
X171242723Y-113376105D02*
X171147485Y-113614200D01*
X171147485Y-113614200D02*
X171242723Y-113852295D01*
X170957009Y-113471343D02*
X171147485Y-113614200D01*
X171147485Y-113614200D02*
X170957009Y-113757057D01*
X158329333Y-164697580D02*
X158281714Y-164745200D01*
X158281714Y-164745200D02*
X158138857Y-164792819D01*
X158138857Y-164792819D02*
X158043619Y-164792819D01*
X158043619Y-164792819D02*
X157900762Y-164745200D01*
X157900762Y-164745200D02*
X157805524Y-164649961D01*
X157805524Y-164649961D02*
X157757905Y-164554723D01*
X157757905Y-164554723D02*
X157710286Y-164364247D01*
X157710286Y-164364247D02*
X157710286Y-164221390D01*
X157710286Y-164221390D02*
X157757905Y-164030914D01*
X157757905Y-164030914D02*
X157805524Y-163935676D01*
X157805524Y-163935676D02*
X157900762Y-163840438D01*
X157900762Y-163840438D02*
X158043619Y-163792819D01*
X158043619Y-163792819D02*
X158138857Y-163792819D01*
X158138857Y-163792819D02*
X158281714Y-163840438D01*
X158281714Y-163840438D02*
X158329333Y-163888057D01*
X159186476Y-163792819D02*
X158996000Y-163792819D01*
X158996000Y-163792819D02*
X158900762Y-163840438D01*
X158900762Y-163840438D02*
X158853143Y-163888057D01*
X158853143Y-163888057D02*
X158757905Y-164030914D01*
X158757905Y-164030914D02*
X158710286Y-164221390D01*
X158710286Y-164221390D02*
X158710286Y-164602342D01*
X158710286Y-164602342D02*
X158757905Y-164697580D01*
X158757905Y-164697580D02*
X158805524Y-164745200D01*
X158805524Y-164745200D02*
X158900762Y-164792819D01*
X158900762Y-164792819D02*
X159091238Y-164792819D01*
X159091238Y-164792819D02*
X159186476Y-164745200D01*
X159186476Y-164745200D02*
X159234095Y-164697580D01*
X159234095Y-164697580D02*
X159281714Y-164602342D01*
X159281714Y-164602342D02*
X159281714Y-164364247D01*
X159281714Y-164364247D02*
X159234095Y-164269009D01*
X159234095Y-164269009D02*
X159186476Y-164221390D01*
X159186476Y-164221390D02*
X159091238Y-164173771D01*
X159091238Y-164173771D02*
X158900762Y-164173771D01*
X158900762Y-164173771D02*
X158805524Y-164221390D01*
X158805524Y-164221390D02*
X158757905Y-164269009D01*
X158757905Y-164269009D02*
X158710286Y-164364247D01*
X165100095Y-127978819D02*
X165100095Y-128788342D01*
X165100095Y-128788342D02*
X165147714Y-128883580D01*
X165147714Y-128883580D02*
X165195333Y-128931200D01*
X165195333Y-128931200D02*
X165290571Y-128978819D01*
X165290571Y-128978819D02*
X165481047Y-128978819D01*
X165481047Y-128978819D02*
X165576285Y-128931200D01*
X165576285Y-128931200D02*
X165623904Y-128883580D01*
X165623904Y-128883580D02*
X165671523Y-128788342D01*
X165671523Y-128788342D02*
X165671523Y-127978819D01*
X166623904Y-127978819D02*
X166147714Y-127978819D01*
X166147714Y-127978819D02*
X166100095Y-128455009D01*
X166100095Y-128455009D02*
X166147714Y-128407390D01*
X166147714Y-128407390D02*
X166242952Y-128359771D01*
X166242952Y-128359771D02*
X166481047Y-128359771D01*
X166481047Y-128359771D02*
X166576285Y-128407390D01*
X166576285Y-128407390D02*
X166623904Y-128455009D01*
X166623904Y-128455009D02*
X166671523Y-128550247D01*
X166671523Y-128550247D02*
X166671523Y-128788342D01*
X166671523Y-128788342D02*
X166623904Y-128883580D01*
X166623904Y-128883580D02*
X166576285Y-128931200D01*
X166576285Y-128931200D02*
X166481047Y-128978819D01*
X166481047Y-128978819D02*
X166242952Y-128978819D01*
X166242952Y-128978819D02*
X166147714Y-128931200D01*
X166147714Y-128931200D02*
X166100095Y-128883580D01*
X160361333Y-116437580D02*
X160313714Y-116485200D01*
X160313714Y-116485200D02*
X160170857Y-116532819D01*
X160170857Y-116532819D02*
X160075619Y-116532819D01*
X160075619Y-116532819D02*
X159932762Y-116485200D01*
X159932762Y-116485200D02*
X159837524Y-116389961D01*
X159837524Y-116389961D02*
X159789905Y-116294723D01*
X159789905Y-116294723D02*
X159742286Y-116104247D01*
X159742286Y-116104247D02*
X159742286Y-115961390D01*
X159742286Y-115961390D02*
X159789905Y-115770914D01*
X159789905Y-115770914D02*
X159837524Y-115675676D01*
X159837524Y-115675676D02*
X159932762Y-115580438D01*
X159932762Y-115580438D02*
X160075619Y-115532819D01*
X160075619Y-115532819D02*
X160170857Y-115532819D01*
X160170857Y-115532819D02*
X160313714Y-115580438D01*
X160313714Y-115580438D02*
X160361333Y-115628057D01*
X160742286Y-115628057D02*
X160789905Y-115580438D01*
X160789905Y-115580438D02*
X160885143Y-115532819D01*
X160885143Y-115532819D02*
X161123238Y-115532819D01*
X161123238Y-115532819D02*
X161218476Y-115580438D01*
X161218476Y-115580438D02*
X161266095Y-115628057D01*
X161266095Y-115628057D02*
X161313714Y-115723295D01*
X161313714Y-115723295D02*
X161313714Y-115818533D01*
X161313714Y-115818533D02*
X161266095Y-115961390D01*
X161266095Y-115961390D02*
X160694667Y-116532819D01*
X160694667Y-116532819D02*
X161313714Y-116532819D01*
X153684905Y-135101219D02*
X153684905Y-134101219D01*
X153684905Y-134101219D02*
X153923000Y-134101219D01*
X153923000Y-134101219D02*
X154065857Y-134148838D01*
X154065857Y-134148838D02*
X154161095Y-134244076D01*
X154161095Y-134244076D02*
X154208714Y-134339314D01*
X154208714Y-134339314D02*
X154256333Y-134529790D01*
X154256333Y-134529790D02*
X154256333Y-134672647D01*
X154256333Y-134672647D02*
X154208714Y-134863123D01*
X154208714Y-134863123D02*
X154161095Y-134958361D01*
X154161095Y-134958361D02*
X154065857Y-135053600D01*
X154065857Y-135053600D02*
X153923000Y-135101219D01*
X153923000Y-135101219D02*
X153684905Y-135101219D01*
X155161095Y-134101219D02*
X154684905Y-134101219D01*
X154684905Y-134101219D02*
X154637286Y-134577409D01*
X154637286Y-134577409D02*
X154684905Y-134529790D01*
X154684905Y-134529790D02*
X154780143Y-134482171D01*
X154780143Y-134482171D02*
X155018238Y-134482171D01*
X155018238Y-134482171D02*
X155113476Y-134529790D01*
X155113476Y-134529790D02*
X155161095Y-134577409D01*
X155161095Y-134577409D02*
X155208714Y-134672647D01*
X155208714Y-134672647D02*
X155208714Y-134910742D01*
X155208714Y-134910742D02*
X155161095Y-135005980D01*
X155161095Y-135005980D02*
X155113476Y-135053600D01*
X155113476Y-135053600D02*
X155018238Y-135101219D01*
X155018238Y-135101219D02*
X154780143Y-135101219D01*
X154780143Y-135101219D02*
X154684905Y-135053600D01*
X154684905Y-135053600D02*
X154637286Y-135005980D01*
X169802916Y-130264819D02*
X169802916Y-130979104D01*
X169802916Y-130979104D02*
X169755297Y-131121961D01*
X169755297Y-131121961D02*
X169660059Y-131217200D01*
X169660059Y-131217200D02*
X169517202Y-131264819D01*
X169517202Y-131264819D02*
X169421964Y-131264819D01*
X170279107Y-131264819D02*
X170279107Y-130264819D01*
X170279107Y-130264819D02*
X170660059Y-130264819D01*
X170660059Y-130264819D02*
X170755297Y-130312438D01*
X170755297Y-130312438D02*
X170802916Y-130360057D01*
X170802916Y-130360057D02*
X170850535Y-130455295D01*
X170850535Y-130455295D02*
X170850535Y-130598152D01*
X170850535Y-130598152D02*
X170802916Y-130693390D01*
X170802916Y-130693390D02*
X170755297Y-130741009D01*
X170755297Y-130741009D02*
X170660059Y-130788628D01*
X170660059Y-130788628D02*
X170279107Y-130788628D01*
X171183869Y-130264819D02*
X171802916Y-130264819D01*
X171802916Y-130264819D02*
X171469583Y-130645771D01*
X171469583Y-130645771D02*
X171612440Y-130645771D01*
X171612440Y-130645771D02*
X171707678Y-130693390D01*
X171707678Y-130693390D02*
X171755297Y-130741009D01*
X171755297Y-130741009D02*
X171802916Y-130836247D01*
X171802916Y-130836247D02*
X171802916Y-131074342D01*
X171802916Y-131074342D02*
X171755297Y-131169580D01*
X171755297Y-131169580D02*
X171707678Y-131217200D01*
X171707678Y-131217200D02*
X171612440Y-131264819D01*
X171612440Y-131264819D02*
X171326726Y-131264819D01*
X171326726Y-131264819D02*
X171231488Y-131217200D01*
X171231488Y-131217200D02*
X171183869Y-131169580D01*
X157605505Y-124179219D02*
X157605505Y-123179219D01*
X157605505Y-123179219D02*
X157843600Y-123179219D01*
X157843600Y-123179219D02*
X157986457Y-123226838D01*
X157986457Y-123226838D02*
X158081695Y-123322076D01*
X158081695Y-123322076D02*
X158129314Y-123417314D01*
X158129314Y-123417314D02*
X158176933Y-123607790D01*
X158176933Y-123607790D02*
X158176933Y-123750647D01*
X158176933Y-123750647D02*
X158129314Y-123941123D01*
X158129314Y-123941123D02*
X158081695Y-124036361D01*
X158081695Y-124036361D02*
X157986457Y-124131600D01*
X157986457Y-124131600D02*
X157843600Y-124179219D01*
X157843600Y-124179219D02*
X157605505Y-124179219D01*
X159034076Y-123512552D02*
X159034076Y-124179219D01*
X158795981Y-123131600D02*
X158557886Y-123845885D01*
X158557886Y-123845885D02*
X159176933Y-123845885D01*
X176395142Y-142390019D02*
X176061809Y-141913828D01*
X175823714Y-142390019D02*
X175823714Y-141390019D01*
X175823714Y-141390019D02*
X176204666Y-141390019D01*
X176204666Y-141390019D02*
X176299904Y-141437638D01*
X176299904Y-141437638D02*
X176347523Y-141485257D01*
X176347523Y-141485257D02*
X176395142Y-141580495D01*
X176395142Y-141580495D02*
X176395142Y-141723352D01*
X176395142Y-141723352D02*
X176347523Y-141818590D01*
X176347523Y-141818590D02*
X176299904Y-141866209D01*
X176299904Y-141866209D02*
X176204666Y-141913828D01*
X176204666Y-141913828D02*
X175823714Y-141913828D01*
X177347523Y-142390019D02*
X176776095Y-142390019D01*
X177061809Y-142390019D02*
X177061809Y-141390019D01*
X177061809Y-141390019D02*
X176966571Y-141532876D01*
X176966571Y-141532876D02*
X176871333Y-141628114D01*
X176871333Y-141628114D02*
X176776095Y-141675733D01*
X177680857Y-141390019D02*
X178299904Y-141390019D01*
X178299904Y-141390019D02*
X177966571Y-141770971D01*
X177966571Y-141770971D02*
X178109428Y-141770971D01*
X178109428Y-141770971D02*
X178204666Y-141818590D01*
X178204666Y-141818590D02*
X178252285Y-141866209D01*
X178252285Y-141866209D02*
X178299904Y-141961447D01*
X178299904Y-141961447D02*
X178299904Y-142199542D01*
X178299904Y-142199542D02*
X178252285Y-142294780D01*
X178252285Y-142294780D02*
X178204666Y-142342400D01*
X178204666Y-142342400D02*
X178109428Y-142390019D01*
X178109428Y-142390019D02*
X177823714Y-142390019D01*
X177823714Y-142390019D02*
X177728476Y-142342400D01*
X177728476Y-142342400D02*
X177680857Y-142294780D01*
X158481733Y-156133880D02*
X158434114Y-156181500D01*
X158434114Y-156181500D02*
X158291257Y-156229119D01*
X158291257Y-156229119D02*
X158196019Y-156229119D01*
X158196019Y-156229119D02*
X158053162Y-156181500D01*
X158053162Y-156181500D02*
X157957924Y-156086261D01*
X157957924Y-156086261D02*
X157910305Y-155991023D01*
X157910305Y-155991023D02*
X157862686Y-155800547D01*
X157862686Y-155800547D02*
X157862686Y-155657690D01*
X157862686Y-155657690D02*
X157910305Y-155467214D01*
X157910305Y-155467214D02*
X157957924Y-155371976D01*
X157957924Y-155371976D02*
X158053162Y-155276738D01*
X158053162Y-155276738D02*
X158196019Y-155229119D01*
X158196019Y-155229119D02*
X158291257Y-155229119D01*
X158291257Y-155229119D02*
X158434114Y-155276738D01*
X158434114Y-155276738D02*
X158481733Y-155324357D01*
X159434114Y-156229119D02*
X158862686Y-156229119D01*
X159148400Y-156229119D02*
X159148400Y-155229119D01*
X159148400Y-155229119D02*
X159053162Y-155371976D01*
X159053162Y-155371976D02*
X158957924Y-155467214D01*
X158957924Y-155467214D02*
X158862686Y-155514833D01*
X199335867Y-104102819D02*
X199335867Y-104817104D01*
X199335867Y-104817104D02*
X199288248Y-104959961D01*
X199288248Y-104959961D02*
X199193010Y-105055200D01*
X199193010Y-105055200D02*
X199050153Y-105102819D01*
X199050153Y-105102819D02*
X198954915Y-105102819D01*
X200240629Y-104436152D02*
X200240629Y-105102819D01*
X200002534Y-104055200D02*
X199764439Y-104769485D01*
X199764439Y-104769485D02*
X200383486Y-104769485D01*
X214962895Y-172937219D02*
X214962895Y-171937219D01*
X214962895Y-172413409D02*
X215534323Y-172413409D01*
X215534323Y-172937219D02*
X215534323Y-171937219D01*
X216439085Y-172270552D02*
X216439085Y-172937219D01*
X216200990Y-171889600D02*
X215962895Y-172603885D01*
X215962895Y-172603885D02*
X216581942Y-172603885D01*
X174426666Y-115786819D02*
X174426666Y-116501104D01*
X174426666Y-116501104D02*
X174379047Y-116643961D01*
X174379047Y-116643961D02*
X174283809Y-116739200D01*
X174283809Y-116739200D02*
X174140952Y-116786819D01*
X174140952Y-116786819D02*
X174045714Y-116786819D01*
X174902857Y-116786819D02*
X174902857Y-115786819D01*
X174902857Y-115786819D02*
X175283809Y-115786819D01*
X175283809Y-115786819D02*
X175379047Y-115834438D01*
X175379047Y-115834438D02*
X175426666Y-115882057D01*
X175426666Y-115882057D02*
X175474285Y-115977295D01*
X175474285Y-115977295D02*
X175474285Y-116120152D01*
X175474285Y-116120152D02*
X175426666Y-116215390D01*
X175426666Y-116215390D02*
X175379047Y-116263009D01*
X175379047Y-116263009D02*
X175283809Y-116310628D01*
X175283809Y-116310628D02*
X174902857Y-116310628D01*
X175855238Y-115882057D02*
X175902857Y-115834438D01*
X175902857Y-115834438D02*
X175998095Y-115786819D01*
X175998095Y-115786819D02*
X176236190Y-115786819D01*
X176236190Y-115786819D02*
X176331428Y-115834438D01*
X176331428Y-115834438D02*
X176379047Y-115882057D01*
X176379047Y-115882057D02*
X176426666Y-115977295D01*
X176426666Y-115977295D02*
X176426666Y-116072533D01*
X176426666Y-116072533D02*
X176379047Y-116215390D01*
X176379047Y-116215390D02*
X175807619Y-116786819D01*
X175807619Y-116786819D02*
X176426666Y-116786819D01*
X159948666Y-161252819D02*
X159948666Y-161967104D01*
X159948666Y-161967104D02*
X159901047Y-162109961D01*
X159901047Y-162109961D02*
X159805809Y-162205200D01*
X159805809Y-162205200D02*
X159662952Y-162252819D01*
X159662952Y-162252819D02*
X159567714Y-162252819D01*
X160424857Y-162252819D02*
X160424857Y-161252819D01*
X160424857Y-161252819D02*
X160805809Y-161252819D01*
X160805809Y-161252819D02*
X160901047Y-161300438D01*
X160901047Y-161300438D02*
X160948666Y-161348057D01*
X160948666Y-161348057D02*
X160996285Y-161443295D01*
X160996285Y-161443295D02*
X160996285Y-161586152D01*
X160996285Y-161586152D02*
X160948666Y-161681390D01*
X160948666Y-161681390D02*
X160901047Y-161729009D01*
X160901047Y-161729009D02*
X160805809Y-161776628D01*
X160805809Y-161776628D02*
X160424857Y-161776628D01*
X161853428Y-161252819D02*
X161662952Y-161252819D01*
X161662952Y-161252819D02*
X161567714Y-161300438D01*
X161567714Y-161300438D02*
X161520095Y-161348057D01*
X161520095Y-161348057D02*
X161424857Y-161490914D01*
X161424857Y-161490914D02*
X161377238Y-161681390D01*
X161377238Y-161681390D02*
X161377238Y-162062342D01*
X161377238Y-162062342D02*
X161424857Y-162157580D01*
X161424857Y-162157580D02*
X161472476Y-162205200D01*
X161472476Y-162205200D02*
X161567714Y-162252819D01*
X161567714Y-162252819D02*
X161758190Y-162252819D01*
X161758190Y-162252819D02*
X161853428Y-162205200D01*
X161853428Y-162205200D02*
X161901047Y-162157580D01*
X161901047Y-162157580D02*
X161948666Y-162062342D01*
X161948666Y-162062342D02*
X161948666Y-161824247D01*
X161948666Y-161824247D02*
X161901047Y-161729009D01*
X161901047Y-161729009D02*
X161853428Y-161681390D01*
X161853428Y-161681390D02*
X161758190Y-161633771D01*
X161758190Y-161633771D02*
X161567714Y-161633771D01*
X161567714Y-161633771D02*
X161472476Y-161681390D01*
X161472476Y-161681390D02*
X161424857Y-161729009D01*
X161424857Y-161729009D02*
X161377238Y-161824247D01*
X153082666Y-99784819D02*
X153082666Y-100499104D01*
X153082666Y-100499104D02*
X153035047Y-100641961D01*
X153035047Y-100641961D02*
X152939809Y-100737200D01*
X152939809Y-100737200D02*
X152796952Y-100784819D01*
X152796952Y-100784819D02*
X152701714Y-100784819D01*
X154035047Y-99784819D02*
X153558857Y-99784819D01*
X153558857Y-99784819D02*
X153511238Y-100261009D01*
X153511238Y-100261009D02*
X153558857Y-100213390D01*
X153558857Y-100213390D02*
X153654095Y-100165771D01*
X153654095Y-100165771D02*
X153892190Y-100165771D01*
X153892190Y-100165771D02*
X153987428Y-100213390D01*
X153987428Y-100213390D02*
X154035047Y-100261009D01*
X154035047Y-100261009D02*
X154082666Y-100356247D01*
X154082666Y-100356247D02*
X154082666Y-100594342D01*
X154082666Y-100594342D02*
X154035047Y-100689580D01*
X154035047Y-100689580D02*
X153987428Y-100737200D01*
X153987428Y-100737200D02*
X153892190Y-100784819D01*
X153892190Y-100784819D02*
X153654095Y-100784819D01*
X153654095Y-100784819D02*
X153558857Y-100737200D01*
X153558857Y-100737200D02*
X153511238Y-100689580D01*
X169537142Y-107388819D02*
X169203809Y-106912628D01*
X168965714Y-107388819D02*
X168965714Y-106388819D01*
X168965714Y-106388819D02*
X169346666Y-106388819D01*
X169346666Y-106388819D02*
X169441904Y-106436438D01*
X169441904Y-106436438D02*
X169489523Y-106484057D01*
X169489523Y-106484057D02*
X169537142Y-106579295D01*
X169537142Y-106579295D02*
X169537142Y-106722152D01*
X169537142Y-106722152D02*
X169489523Y-106817390D01*
X169489523Y-106817390D02*
X169441904Y-106865009D01*
X169441904Y-106865009D02*
X169346666Y-106912628D01*
X169346666Y-106912628D02*
X168965714Y-106912628D01*
X170489523Y-107388819D02*
X169918095Y-107388819D01*
X170203809Y-107388819D02*
X170203809Y-106388819D01*
X170203809Y-106388819D02*
X170108571Y-106531676D01*
X170108571Y-106531676D02*
X170013333Y-106626914D01*
X170013333Y-106626914D02*
X169918095Y-106674533D01*
X171394285Y-106388819D02*
X170918095Y-106388819D01*
X170918095Y-106388819D02*
X170870476Y-106865009D01*
X170870476Y-106865009D02*
X170918095Y-106817390D01*
X170918095Y-106817390D02*
X171013333Y-106769771D01*
X171013333Y-106769771D02*
X171251428Y-106769771D01*
X171251428Y-106769771D02*
X171346666Y-106817390D01*
X171346666Y-106817390D02*
X171394285Y-106865009D01*
X171394285Y-106865009D02*
X171441904Y-106960247D01*
X171441904Y-106960247D02*
X171441904Y-107198342D01*
X171441904Y-107198342D02*
X171394285Y-107293580D01*
X171394285Y-107293580D02*
X171346666Y-107341200D01*
X171346666Y-107341200D02*
X171251428Y-107388819D01*
X171251428Y-107388819D02*
X171013333Y-107388819D01*
X171013333Y-107388819D02*
X170918095Y-107341200D01*
X170918095Y-107341200D02*
X170870476Y-107293580D01*
X160782095Y-127978819D02*
X160782095Y-128788342D01*
X160782095Y-128788342D02*
X160829714Y-128883580D01*
X160829714Y-128883580D02*
X160877333Y-128931200D01*
X160877333Y-128931200D02*
X160972571Y-128978819D01*
X160972571Y-128978819D02*
X161163047Y-128978819D01*
X161163047Y-128978819D02*
X161258285Y-128931200D01*
X161258285Y-128931200D02*
X161305904Y-128883580D01*
X161305904Y-128883580D02*
X161353523Y-128788342D01*
X161353523Y-128788342D02*
X161353523Y-127978819D01*
X162258285Y-128312152D02*
X162258285Y-128978819D01*
X162020190Y-127931200D02*
X161782095Y-128645485D01*
X161782095Y-128645485D02*
X162401142Y-128645485D01*
X164338095Y-139662819D02*
X164338095Y-140472342D01*
X164338095Y-140472342D02*
X164385714Y-140567580D01*
X164385714Y-140567580D02*
X164433333Y-140615200D01*
X164433333Y-140615200D02*
X164528571Y-140662819D01*
X164528571Y-140662819D02*
X164719047Y-140662819D01*
X164719047Y-140662819D02*
X164814285Y-140615200D01*
X164814285Y-140615200D02*
X164861904Y-140567580D01*
X164861904Y-140567580D02*
X164909523Y-140472342D01*
X164909523Y-140472342D02*
X164909523Y-139662819D01*
X165338095Y-139758057D02*
X165385714Y-139710438D01*
X165385714Y-139710438D02*
X165480952Y-139662819D01*
X165480952Y-139662819D02*
X165719047Y-139662819D01*
X165719047Y-139662819D02*
X165814285Y-139710438D01*
X165814285Y-139710438D02*
X165861904Y-139758057D01*
X165861904Y-139758057D02*
X165909523Y-139853295D01*
X165909523Y-139853295D02*
X165909523Y-139948533D01*
X165909523Y-139948533D02*
X165861904Y-140091390D01*
X165861904Y-140091390D02*
X165290476Y-140662819D01*
X165290476Y-140662819D02*
X165909523Y-140662819D01*
X168136219Y-137229849D02*
X168374314Y-137229849D01*
X168279076Y-137467944D02*
X168374314Y-137229849D01*
X168374314Y-137229849D02*
X168279076Y-136991754D01*
X168564790Y-137372706D02*
X168374314Y-137229849D01*
X168374314Y-137229849D02*
X168564790Y-137086992D01*
X169226580Y-137229850D02*
X168988485Y-137229850D01*
X169083723Y-136991755D02*
X168988485Y-137229850D01*
X168988485Y-137229850D02*
X169083723Y-137467945D01*
X168798009Y-137086993D02*
X168988485Y-137229850D01*
X168988485Y-137229850D02*
X168798009Y-137372707D01*
X184962895Y-172937219D02*
X184962895Y-171937219D01*
X184962895Y-172413409D02*
X185534323Y-172413409D01*
X185534323Y-172937219D02*
X185534323Y-171937219D01*
X185915276Y-171937219D02*
X186534323Y-171937219D01*
X186534323Y-171937219D02*
X186200990Y-172318171D01*
X186200990Y-172318171D02*
X186343847Y-172318171D01*
X186343847Y-172318171D02*
X186439085Y-172365790D01*
X186439085Y-172365790D02*
X186486704Y-172413409D01*
X186486704Y-172413409D02*
X186534323Y-172508647D01*
X186534323Y-172508647D02*
X186534323Y-172746742D01*
X186534323Y-172746742D02*
X186486704Y-172841980D01*
X186486704Y-172841980D02*
X186439085Y-172889600D01*
X186439085Y-172889600D02*
X186343847Y-172937219D01*
X186343847Y-172937219D02*
X186058133Y-172937219D01*
X186058133Y-172937219D02*
X185962895Y-172889600D01*
X185962895Y-172889600D02*
X185915276Y-172841980D01*
X176414133Y-144320419D02*
X176080800Y-143844228D01*
X175842705Y-144320419D02*
X175842705Y-143320419D01*
X175842705Y-143320419D02*
X176223657Y-143320419D01*
X176223657Y-143320419D02*
X176318895Y-143368038D01*
X176318895Y-143368038D02*
X176366514Y-143415657D01*
X176366514Y-143415657D02*
X176414133Y-143510895D01*
X176414133Y-143510895D02*
X176414133Y-143653752D01*
X176414133Y-143653752D02*
X176366514Y-143748990D01*
X176366514Y-143748990D02*
X176318895Y-143796609D01*
X176318895Y-143796609D02*
X176223657Y-143844228D01*
X176223657Y-143844228D02*
X175842705Y-143844228D01*
X177271276Y-143320419D02*
X177080800Y-143320419D01*
X177080800Y-143320419D02*
X176985562Y-143368038D01*
X176985562Y-143368038D02*
X176937943Y-143415657D01*
X176937943Y-143415657D02*
X176842705Y-143558514D01*
X176842705Y-143558514D02*
X176795086Y-143748990D01*
X176795086Y-143748990D02*
X176795086Y-144129942D01*
X176795086Y-144129942D02*
X176842705Y-144225180D01*
X176842705Y-144225180D02*
X176890324Y-144272800D01*
X176890324Y-144272800D02*
X176985562Y-144320419D01*
X176985562Y-144320419D02*
X177176038Y-144320419D01*
X177176038Y-144320419D02*
X177271276Y-144272800D01*
X177271276Y-144272800D02*
X177318895Y-144225180D01*
X177318895Y-144225180D02*
X177366514Y-144129942D01*
X177366514Y-144129942D02*
X177366514Y-143891847D01*
X177366514Y-143891847D02*
X177318895Y-143796609D01*
X177318895Y-143796609D02*
X177271276Y-143748990D01*
X177271276Y-143748990D02*
X177176038Y-143701371D01*
X177176038Y-143701371D02*
X176985562Y-143701371D01*
X176985562Y-143701371D02*
X176890324Y-143748990D01*
X176890324Y-143748990D02*
X176842705Y-143796609D01*
X176842705Y-143796609D02*
X176795086Y-143891847D01*
X205000762Y-132442056D02*
X204905524Y-132394437D01*
X204905524Y-132394437D02*
X204810286Y-132299199D01*
X204810286Y-132299199D02*
X204667429Y-132156341D01*
X204667429Y-132156341D02*
X204572191Y-132108722D01*
X204572191Y-132108722D02*
X204476953Y-132108722D01*
X204524572Y-132346818D02*
X204429334Y-132299199D01*
X204429334Y-132299199D02*
X204334096Y-132203960D01*
X204334096Y-132203960D02*
X204286477Y-132013484D01*
X204286477Y-132013484D02*
X204286477Y-131680151D01*
X204286477Y-131680151D02*
X204334096Y-131489675D01*
X204334096Y-131489675D02*
X204429334Y-131394437D01*
X204429334Y-131394437D02*
X204524572Y-131346818D01*
X204524572Y-131346818D02*
X204715048Y-131346818D01*
X204715048Y-131346818D02*
X204810286Y-131394437D01*
X204810286Y-131394437D02*
X204905524Y-131489675D01*
X204905524Y-131489675D02*
X204953143Y-131680151D01*
X204953143Y-131680151D02*
X204953143Y-132013484D01*
X204953143Y-132013484D02*
X204905524Y-132203960D01*
X204905524Y-132203960D02*
X204810286Y-132299199D01*
X204810286Y-132299199D02*
X204715048Y-132346818D01*
X204715048Y-132346818D02*
X204524572Y-132346818D01*
X205286477Y-131346818D02*
X205905524Y-131346818D01*
X205905524Y-131346818D02*
X205572191Y-131727770D01*
X205572191Y-131727770D02*
X205715048Y-131727770D01*
X205715048Y-131727770D02*
X205810286Y-131775389D01*
X205810286Y-131775389D02*
X205857905Y-131823008D01*
X205857905Y-131823008D02*
X205905524Y-131918246D01*
X205905524Y-131918246D02*
X205905524Y-132156341D01*
X205905524Y-132156341D02*
X205857905Y-132251579D01*
X205857905Y-132251579D02*
X205810286Y-132299199D01*
X205810286Y-132299199D02*
X205715048Y-132346818D01*
X205715048Y-132346818D02*
X205429334Y-132346818D01*
X205429334Y-132346818D02*
X205334096Y-132299199D01*
X205334096Y-132299199D02*
X205286477Y-132251579D01*
X157091142Y-178762819D02*
X156757809Y-178286628D01*
X156519714Y-178762819D02*
X156519714Y-177762819D01*
X156519714Y-177762819D02*
X156900666Y-177762819D01*
X156900666Y-177762819D02*
X156995904Y-177810438D01*
X156995904Y-177810438D02*
X157043523Y-177858057D01*
X157043523Y-177858057D02*
X157091142Y-177953295D01*
X157091142Y-177953295D02*
X157091142Y-178096152D01*
X157091142Y-178096152D02*
X157043523Y-178191390D01*
X157043523Y-178191390D02*
X156995904Y-178239009D01*
X156995904Y-178239009D02*
X156900666Y-178286628D01*
X156900666Y-178286628D02*
X156519714Y-178286628D01*
X158043523Y-178762819D02*
X157472095Y-178762819D01*
X157757809Y-178762819D02*
X157757809Y-177762819D01*
X157757809Y-177762819D02*
X157662571Y-177905676D01*
X157662571Y-177905676D02*
X157567333Y-178000914D01*
X157567333Y-178000914D02*
X157472095Y-178048533D01*
X158662571Y-177762819D02*
X158757809Y-177762819D01*
X158757809Y-177762819D02*
X158853047Y-177810438D01*
X158853047Y-177810438D02*
X158900666Y-177858057D01*
X158900666Y-177858057D02*
X158948285Y-177953295D01*
X158948285Y-177953295D02*
X158995904Y-178143771D01*
X158995904Y-178143771D02*
X158995904Y-178381866D01*
X158995904Y-178381866D02*
X158948285Y-178572342D01*
X158948285Y-178572342D02*
X158900666Y-178667580D01*
X158900666Y-178667580D02*
X158853047Y-178715200D01*
X158853047Y-178715200D02*
X158757809Y-178762819D01*
X158757809Y-178762819D02*
X158662571Y-178762819D01*
X158662571Y-178762819D02*
X158567333Y-178715200D01*
X158567333Y-178715200D02*
X158519714Y-178667580D01*
X158519714Y-178667580D02*
X158472095Y-178572342D01*
X158472095Y-178572342D02*
X158424476Y-178381866D01*
X158424476Y-178381866D02*
X158424476Y-178143771D01*
X158424476Y-178143771D02*
X158472095Y-177953295D01*
X158472095Y-177953295D02*
X158519714Y-177858057D01*
X158519714Y-177858057D02*
X158567333Y-177810438D01*
X158567333Y-177810438D02*
X158662571Y-177762819D01*
X183983333Y-96879580D02*
X183935714Y-96927200D01*
X183935714Y-96927200D02*
X183792857Y-96974819D01*
X183792857Y-96974819D02*
X183697619Y-96974819D01*
X183697619Y-96974819D02*
X183554762Y-96927200D01*
X183554762Y-96927200D02*
X183459524Y-96831961D01*
X183459524Y-96831961D02*
X183411905Y-96736723D01*
X183411905Y-96736723D02*
X183364286Y-96546247D01*
X183364286Y-96546247D02*
X183364286Y-96403390D01*
X183364286Y-96403390D02*
X183411905Y-96212914D01*
X183411905Y-96212914D02*
X183459524Y-96117676D01*
X183459524Y-96117676D02*
X183554762Y-96022438D01*
X183554762Y-96022438D02*
X183697619Y-95974819D01*
X183697619Y-95974819D02*
X183792857Y-95974819D01*
X183792857Y-95974819D02*
X183935714Y-96022438D01*
X183935714Y-96022438D02*
X183983333Y-96070057D01*
X184554762Y-96403390D02*
X184459524Y-96355771D01*
X184459524Y-96355771D02*
X184411905Y-96308152D01*
X184411905Y-96308152D02*
X184364286Y-96212914D01*
X184364286Y-96212914D02*
X184364286Y-96165295D01*
X184364286Y-96165295D02*
X184411905Y-96070057D01*
X184411905Y-96070057D02*
X184459524Y-96022438D01*
X184459524Y-96022438D02*
X184554762Y-95974819D01*
X184554762Y-95974819D02*
X184745238Y-95974819D01*
X184745238Y-95974819D02*
X184840476Y-96022438D01*
X184840476Y-96022438D02*
X184888095Y-96070057D01*
X184888095Y-96070057D02*
X184935714Y-96165295D01*
X184935714Y-96165295D02*
X184935714Y-96212914D01*
X184935714Y-96212914D02*
X184888095Y-96308152D01*
X184888095Y-96308152D02*
X184840476Y-96355771D01*
X184840476Y-96355771D02*
X184745238Y-96403390D01*
X184745238Y-96403390D02*
X184554762Y-96403390D01*
X184554762Y-96403390D02*
X184459524Y-96451009D01*
X184459524Y-96451009D02*
X184411905Y-96498628D01*
X184411905Y-96498628D02*
X184364286Y-96593866D01*
X184364286Y-96593866D02*
X184364286Y-96784342D01*
X184364286Y-96784342D02*
X184411905Y-96879580D01*
X184411905Y-96879580D02*
X184459524Y-96927200D01*
X184459524Y-96927200D02*
X184554762Y-96974819D01*
X184554762Y-96974819D02*
X184745238Y-96974819D01*
X184745238Y-96974819D02*
X184840476Y-96927200D01*
X184840476Y-96927200D02*
X184888095Y-96879580D01*
X184888095Y-96879580D02*
X184935714Y-96784342D01*
X184935714Y-96784342D02*
X184935714Y-96593866D01*
X184935714Y-96593866D02*
X184888095Y-96498628D01*
X184888095Y-96498628D02*
X184840476Y-96451009D01*
X184840476Y-96451009D02*
X184745238Y-96403390D01*
X159948666Y-97244819D02*
X159948666Y-97959104D01*
X159948666Y-97959104D02*
X159901047Y-98101961D01*
X159901047Y-98101961D02*
X159805809Y-98197200D01*
X159805809Y-98197200D02*
X159662952Y-98244819D01*
X159662952Y-98244819D02*
X159567714Y-98244819D01*
X160424857Y-98244819D02*
X160424857Y-97244819D01*
X160424857Y-97244819D02*
X160805809Y-97244819D01*
X160805809Y-97244819D02*
X160901047Y-97292438D01*
X160901047Y-97292438D02*
X160948666Y-97340057D01*
X160948666Y-97340057D02*
X160996285Y-97435295D01*
X160996285Y-97435295D02*
X160996285Y-97578152D01*
X160996285Y-97578152D02*
X160948666Y-97673390D01*
X160948666Y-97673390D02*
X160901047Y-97721009D01*
X160901047Y-97721009D02*
X160805809Y-97768628D01*
X160805809Y-97768628D02*
X160424857Y-97768628D01*
X161948666Y-98244819D02*
X161377238Y-98244819D01*
X161662952Y-98244819D02*
X161662952Y-97244819D01*
X161662952Y-97244819D02*
X161567714Y-97387676D01*
X161567714Y-97387676D02*
X161472476Y-97482914D01*
X161472476Y-97482914D02*
X161377238Y-97530533D01*
X152828666Y-137581819D02*
X152828666Y-138296104D01*
X152828666Y-138296104D02*
X152781047Y-138438961D01*
X152781047Y-138438961D02*
X152685809Y-138534200D01*
X152685809Y-138534200D02*
X152542952Y-138581819D01*
X152542952Y-138581819D02*
X152447714Y-138581819D01*
X153209619Y-137581819D02*
X153876285Y-137581819D01*
X153876285Y-137581819D02*
X153447714Y-138581819D01*
X164171333Y-170634819D02*
X163838000Y-170158628D01*
X163599905Y-170634819D02*
X163599905Y-169634819D01*
X163599905Y-169634819D02*
X163980857Y-169634819D01*
X163980857Y-169634819D02*
X164076095Y-169682438D01*
X164076095Y-169682438D02*
X164123714Y-169730057D01*
X164123714Y-169730057D02*
X164171333Y-169825295D01*
X164171333Y-169825295D02*
X164171333Y-169968152D01*
X164171333Y-169968152D02*
X164123714Y-170063390D01*
X164123714Y-170063390D02*
X164076095Y-170111009D01*
X164076095Y-170111009D02*
X163980857Y-170158628D01*
X163980857Y-170158628D02*
X163599905Y-170158628D01*
X164742762Y-170063390D02*
X164647524Y-170015771D01*
X164647524Y-170015771D02*
X164599905Y-169968152D01*
X164599905Y-169968152D02*
X164552286Y-169872914D01*
X164552286Y-169872914D02*
X164552286Y-169825295D01*
X164552286Y-169825295D02*
X164599905Y-169730057D01*
X164599905Y-169730057D02*
X164647524Y-169682438D01*
X164647524Y-169682438D02*
X164742762Y-169634819D01*
X164742762Y-169634819D02*
X164933238Y-169634819D01*
X164933238Y-169634819D02*
X165028476Y-169682438D01*
X165028476Y-169682438D02*
X165076095Y-169730057D01*
X165076095Y-169730057D02*
X165123714Y-169825295D01*
X165123714Y-169825295D02*
X165123714Y-169872914D01*
X165123714Y-169872914D02*
X165076095Y-169968152D01*
X165076095Y-169968152D02*
X165028476Y-170015771D01*
X165028476Y-170015771D02*
X164933238Y-170063390D01*
X164933238Y-170063390D02*
X164742762Y-170063390D01*
X164742762Y-170063390D02*
X164647524Y-170111009D01*
X164647524Y-170111009D02*
X164599905Y-170158628D01*
X164599905Y-170158628D02*
X164552286Y-170253866D01*
X164552286Y-170253866D02*
X164552286Y-170444342D01*
X164552286Y-170444342D02*
X164599905Y-170539580D01*
X164599905Y-170539580D02*
X164647524Y-170587200D01*
X164647524Y-170587200D02*
X164742762Y-170634819D01*
X164742762Y-170634819D02*
X164933238Y-170634819D01*
X164933238Y-170634819D02*
X165028476Y-170587200D01*
X165028476Y-170587200D02*
X165076095Y-170539580D01*
X165076095Y-170539580D02*
X165123714Y-170444342D01*
X165123714Y-170444342D02*
X165123714Y-170253866D01*
X165123714Y-170253866D02*
X165076095Y-170158628D01*
X165076095Y-170158628D02*
X165028476Y-170111009D01*
X165028476Y-170111009D02*
X164933238Y-170063390D01*
X192182761Y-127440056D02*
X192087523Y-127392437D01*
X192087523Y-127392437D02*
X191992285Y-127297199D01*
X191992285Y-127297199D02*
X191849428Y-127154341D01*
X191849428Y-127154341D02*
X191754190Y-127106722D01*
X191754190Y-127106722D02*
X191658952Y-127106722D01*
X191706571Y-127344818D02*
X191611333Y-127297199D01*
X191611333Y-127297199D02*
X191516095Y-127201960D01*
X191516095Y-127201960D02*
X191468476Y-127011484D01*
X191468476Y-127011484D02*
X191468476Y-126678151D01*
X191468476Y-126678151D02*
X191516095Y-126487675D01*
X191516095Y-126487675D02*
X191611333Y-126392437D01*
X191611333Y-126392437D02*
X191706571Y-126344818D01*
X191706571Y-126344818D02*
X191897047Y-126344818D01*
X191897047Y-126344818D02*
X191992285Y-126392437D01*
X191992285Y-126392437D02*
X192087523Y-126487675D01*
X192087523Y-126487675D02*
X192135142Y-126678151D01*
X192135142Y-126678151D02*
X192135142Y-127011484D01*
X192135142Y-127011484D02*
X192087523Y-127201960D01*
X192087523Y-127201960D02*
X191992285Y-127297199D01*
X191992285Y-127297199D02*
X191897047Y-127344818D01*
X191897047Y-127344818D02*
X191706571Y-127344818D01*
X192516095Y-126440056D02*
X192563714Y-126392437D01*
X192563714Y-126392437D02*
X192658952Y-126344818D01*
X192658952Y-126344818D02*
X192897047Y-126344818D01*
X192897047Y-126344818D02*
X192992285Y-126392437D01*
X192992285Y-126392437D02*
X193039904Y-126440056D01*
X193039904Y-126440056D02*
X193087523Y-126535294D01*
X193087523Y-126535294D02*
X193087523Y-126630532D01*
X193087523Y-126630532D02*
X193039904Y-126773389D01*
X193039904Y-126773389D02*
X192468476Y-127344818D01*
X192468476Y-127344818D02*
X193087523Y-127344818D01*
X188944211Y-155868019D02*
X188944211Y-156677542D01*
X188944211Y-156677542D02*
X188991830Y-156772780D01*
X188991830Y-156772780D02*
X189039449Y-156820400D01*
X189039449Y-156820400D02*
X189134687Y-156868019D01*
X189134687Y-156868019D02*
X189325163Y-156868019D01*
X189325163Y-156868019D02*
X189420401Y-156820400D01*
X189420401Y-156820400D02*
X189468020Y-156772780D01*
X189468020Y-156772780D02*
X189515639Y-156677542D01*
X189515639Y-156677542D02*
X189515639Y-155868019D01*
X190515639Y-156868019D02*
X189944211Y-156868019D01*
X190229925Y-156868019D02*
X190229925Y-155868019D01*
X190229925Y-155868019D02*
X190134687Y-156010876D01*
X190134687Y-156010876D02*
X190039449Y-156106114D01*
X190039449Y-156106114D02*
X189944211Y-156153733D01*
X157596505Y-106704019D02*
X157596505Y-105704019D01*
X157596505Y-105704019D02*
X157834600Y-105704019D01*
X157834600Y-105704019D02*
X157977457Y-105751638D01*
X157977457Y-105751638D02*
X158072695Y-105846876D01*
X158072695Y-105846876D02*
X158120314Y-105942114D01*
X158120314Y-105942114D02*
X158167933Y-106132590D01*
X158167933Y-106132590D02*
X158167933Y-106275447D01*
X158167933Y-106275447D02*
X158120314Y-106465923D01*
X158120314Y-106465923D02*
X158072695Y-106561161D01*
X158072695Y-106561161D02*
X157977457Y-106656400D01*
X157977457Y-106656400D02*
X157834600Y-106704019D01*
X157834600Y-106704019D02*
X157596505Y-106704019D01*
X158501267Y-105704019D02*
X159167933Y-105704019D01*
X159167933Y-105704019D02*
X158739362Y-106704019D01*
X169537142Y-109928819D02*
X169203809Y-109452628D01*
X168965714Y-109928819D02*
X168965714Y-108928819D01*
X168965714Y-108928819D02*
X169346666Y-108928819D01*
X169346666Y-108928819D02*
X169441904Y-108976438D01*
X169441904Y-108976438D02*
X169489523Y-109024057D01*
X169489523Y-109024057D02*
X169537142Y-109119295D01*
X169537142Y-109119295D02*
X169537142Y-109262152D01*
X169537142Y-109262152D02*
X169489523Y-109357390D01*
X169489523Y-109357390D02*
X169441904Y-109405009D01*
X169441904Y-109405009D02*
X169346666Y-109452628D01*
X169346666Y-109452628D02*
X168965714Y-109452628D01*
X170489523Y-109928819D02*
X169918095Y-109928819D01*
X170203809Y-109928819D02*
X170203809Y-108928819D01*
X170203809Y-108928819D02*
X170108571Y-109071676D01*
X170108571Y-109071676D02*
X170013333Y-109166914D01*
X170013333Y-109166914D02*
X169918095Y-109214533D01*
X171346666Y-109262152D02*
X171346666Y-109928819D01*
X171108571Y-108881200D02*
X170870476Y-109595485D01*
X170870476Y-109595485D02*
X171489523Y-109595485D01*
X157879825Y-112468819D02*
X157879825Y-111468819D01*
X157879825Y-111468819D02*
X158117920Y-111468819D01*
X158117920Y-111468819D02*
X158260777Y-111516438D01*
X158260777Y-111516438D02*
X158356015Y-111611676D01*
X158356015Y-111611676D02*
X158403634Y-111706914D01*
X158403634Y-111706914D02*
X158451253Y-111897390D01*
X158451253Y-111897390D02*
X158451253Y-112040247D01*
X158451253Y-112040247D02*
X158403634Y-112230723D01*
X158403634Y-112230723D02*
X158356015Y-112325961D01*
X158356015Y-112325961D02*
X158260777Y-112421200D01*
X158260777Y-112421200D02*
X158117920Y-112468819D01*
X158117920Y-112468819D02*
X157879825Y-112468819D01*
X159022682Y-111897390D02*
X158927444Y-111849771D01*
X158927444Y-111849771D02*
X158879825Y-111802152D01*
X158879825Y-111802152D02*
X158832206Y-111706914D01*
X158832206Y-111706914D02*
X158832206Y-111659295D01*
X158832206Y-111659295D02*
X158879825Y-111564057D01*
X158879825Y-111564057D02*
X158927444Y-111516438D01*
X158927444Y-111516438D02*
X159022682Y-111468819D01*
X159022682Y-111468819D02*
X159213158Y-111468819D01*
X159213158Y-111468819D02*
X159308396Y-111516438D01*
X159308396Y-111516438D02*
X159356015Y-111564057D01*
X159356015Y-111564057D02*
X159403634Y-111659295D01*
X159403634Y-111659295D02*
X159403634Y-111706914D01*
X159403634Y-111706914D02*
X159356015Y-111802152D01*
X159356015Y-111802152D02*
X159308396Y-111849771D01*
X159308396Y-111849771D02*
X159213158Y-111897390D01*
X159213158Y-111897390D02*
X159022682Y-111897390D01*
X159022682Y-111897390D02*
X158927444Y-111945009D01*
X158927444Y-111945009D02*
X158879825Y-111992628D01*
X158879825Y-111992628D02*
X158832206Y-112087866D01*
X158832206Y-112087866D02*
X158832206Y-112278342D01*
X158832206Y-112278342D02*
X158879825Y-112373580D01*
X158879825Y-112373580D02*
X158927444Y-112421200D01*
X158927444Y-112421200D02*
X159022682Y-112468819D01*
X159022682Y-112468819D02*
X159213158Y-112468819D01*
X159213158Y-112468819D02*
X159308396Y-112421200D01*
X159308396Y-112421200D02*
X159356015Y-112373580D01*
X159356015Y-112373580D02*
X159403634Y-112278342D01*
X159403634Y-112278342D02*
X159403634Y-112087866D01*
X159403634Y-112087866D02*
X159356015Y-111992628D01*
X159356015Y-111992628D02*
X159308396Y-111945009D01*
X159308396Y-111945009D02*
X159213158Y-111897390D01*
X170576094Y-139878719D02*
X170576094Y-140688242D01*
X170576094Y-140688242D02*
X170623713Y-140783480D01*
X170623713Y-140783480D02*
X170671332Y-140831100D01*
X170671332Y-140831100D02*
X170766570Y-140878719D01*
X170766570Y-140878719D02*
X170957046Y-140878719D01*
X170957046Y-140878719D02*
X171052284Y-140831100D01*
X171052284Y-140831100D02*
X171099903Y-140783480D01*
X171099903Y-140783480D02*
X171147522Y-140688242D01*
X171147522Y-140688242D02*
X171147522Y-139878719D01*
X171528475Y-139878719D02*
X172147522Y-139878719D01*
X172147522Y-139878719D02*
X171814189Y-140259671D01*
X171814189Y-140259671D02*
X171957046Y-140259671D01*
X171957046Y-140259671D02*
X172052284Y-140307290D01*
X172052284Y-140307290D02*
X172099903Y-140354909D01*
X172099903Y-140354909D02*
X172147522Y-140450147D01*
X172147522Y-140450147D02*
X172147522Y-140688242D01*
X172147522Y-140688242D02*
X172099903Y-140783480D01*
X172099903Y-140783480D02*
X172052284Y-140831100D01*
X172052284Y-140831100D02*
X171957046Y-140878719D01*
X171957046Y-140878719D02*
X171671332Y-140878719D01*
X171671332Y-140878719D02*
X171576094Y-140831100D01*
X171576094Y-140831100D02*
X171528475Y-140783480D01*
X168644218Y-141655799D02*
X168882313Y-141655799D01*
X168787075Y-141893894D02*
X168882313Y-141655799D01*
X168882313Y-141655799D02*
X168787075Y-141417704D01*
X169072789Y-141798656D02*
X168882313Y-141655799D01*
X168882313Y-141655799D02*
X169072789Y-141512942D01*
X168644218Y-141655799D02*
X168882313Y-141655799D01*
X168787075Y-141893894D02*
X168882313Y-141655799D01*
X168882313Y-141655799D02*
X168787075Y-141417704D01*
X169072789Y-141798656D02*
X168882313Y-141655799D01*
X168882313Y-141655799D02*
X169072789Y-141512942D01*
X160913866Y-101613619D02*
X160913866Y-102327904D01*
X160913866Y-102327904D02*
X160866247Y-102470761D01*
X160866247Y-102470761D02*
X160771009Y-102566000D01*
X160771009Y-102566000D02*
X160628152Y-102613619D01*
X160628152Y-102613619D02*
X160532914Y-102613619D01*
X161390057Y-102613619D02*
X161390057Y-101613619D01*
X161390057Y-101613619D02*
X161771009Y-101613619D01*
X161771009Y-101613619D02*
X161866247Y-101661238D01*
X161866247Y-101661238D02*
X161913866Y-101708857D01*
X161913866Y-101708857D02*
X161961485Y-101804095D01*
X161961485Y-101804095D02*
X161961485Y-101946952D01*
X161961485Y-101946952D02*
X161913866Y-102042190D01*
X161913866Y-102042190D02*
X161866247Y-102089809D01*
X161866247Y-102089809D02*
X161771009Y-102137428D01*
X161771009Y-102137428D02*
X161390057Y-102137428D01*
X162437676Y-102613619D02*
X162628152Y-102613619D01*
X162628152Y-102613619D02*
X162723390Y-102566000D01*
X162723390Y-102566000D02*
X162771009Y-102518380D01*
X162771009Y-102518380D02*
X162866247Y-102375523D01*
X162866247Y-102375523D02*
X162913866Y-102185047D01*
X162913866Y-102185047D02*
X162913866Y-101804095D01*
X162913866Y-101804095D02*
X162866247Y-101708857D01*
X162866247Y-101708857D02*
X162818628Y-101661238D01*
X162818628Y-101661238D02*
X162723390Y-101613619D01*
X162723390Y-101613619D02*
X162532914Y-101613619D01*
X162532914Y-101613619D02*
X162437676Y-101661238D01*
X162437676Y-101661238D02*
X162390057Y-101708857D01*
X162390057Y-101708857D02*
X162342438Y-101804095D01*
X162342438Y-101804095D02*
X162342438Y-102042190D01*
X162342438Y-102042190D02*
X162390057Y-102137428D01*
X162390057Y-102137428D02*
X162437676Y-102185047D01*
X162437676Y-102185047D02*
X162532914Y-102232666D01*
X162532914Y-102232666D02*
X162723390Y-102232666D01*
X162723390Y-102232666D02*
X162818628Y-102185047D01*
X162818628Y-102185047D02*
X162866247Y-102137428D01*
X162866247Y-102137428D02*
X162913866Y-102042190D01*
D11*
%TO.C,D2*%
X155758000Y-97044000D02*
X155758000Y-99904000D01*
X155758000Y-99904000D02*
X157678000Y-99904000D01*
X157678000Y-99904000D02*
X157678000Y-97044000D01*
D12*
%TO.C,K2*%
X167419000Y-92528999D02*
X167419000Y-105083000D01*
X167419000Y-105083000D02*
X174973000Y-105083000D01*
X174973000Y-92528999D02*
X167419000Y-92528999D01*
X174973000Y-105083000D02*
X174973000Y-92528999D01*
D11*
%TO.C,J8*%
X151832000Y-175615600D02*
X151832000Y-167935600D01*
X154492000Y-167935600D02*
X151832000Y-167935600D01*
X154492000Y-175615600D02*
X151832000Y-175615600D01*
X154492000Y-175615600D02*
X154492000Y-167935600D01*
X154492000Y-176885600D02*
X154492000Y-178215600D01*
X154492000Y-178215600D02*
X153162000Y-178215600D01*
D12*
%TO.C,C7*%
X181800500Y-99580700D02*
X181800500Y-100911660D01*
X181800500Y-102796340D02*
X181800500Y-104127300D01*
X181800500Y-104127300D02*
X186347100Y-104127300D01*
X186347100Y-99580700D02*
X181800500Y-99580700D01*
X186347100Y-100911660D02*
X186347100Y-99580700D01*
X186347100Y-104127300D02*
X186347100Y-102796340D01*
D11*
%TO.C,R9*%
X165889000Y-169952936D02*
X165889000Y-170407064D01*
X167359000Y-169952936D02*
X167359000Y-170407064D01*
D12*
%TO.C,CR1*%
X208831701Y-114630200D02*
X208831701Y-120345200D01*
X208831701Y-120345200D02*
X209095861Y-120345200D01*
X209229960Y-114630200D02*
X208831701Y-114630200D01*
X210343001Y-122250200D02*
X211613001Y-122250200D01*
X210343001Y-123012200D02*
X211613001Y-123012200D01*
X210978001Y-121996200D02*
X210978001Y-123266200D01*
X210978001Y-123012200D02*
X210343001Y-122250200D01*
X210978001Y-123012200D02*
X210470001Y-122250200D01*
X210978001Y-123012200D02*
X210597001Y-122250200D01*
X210978001Y-123012200D02*
X210724001Y-122250200D01*
X210978001Y-123012200D02*
X210851001Y-122250200D01*
X210978001Y-123012200D02*
X211105001Y-122250200D01*
X210978001Y-123012200D02*
X211232001Y-122250200D01*
X210978001Y-123012200D02*
X211359001Y-122250200D01*
X210978001Y-123012200D02*
X211486001Y-122250200D01*
X210978001Y-123012200D02*
X211613001Y-122250200D01*
X212860141Y-120345200D02*
X213124301Y-120345200D01*
X213124301Y-114630200D02*
X212726042Y-114630200D01*
X213124301Y-120345200D02*
X213124301Y-114630200D01*
%TO.C,C9*%
X181800500Y-104914700D02*
X181800500Y-106245660D01*
X181800500Y-108130340D02*
X181800500Y-109461300D01*
X181800500Y-109461300D02*
X186347100Y-109461300D01*
X186347100Y-104914700D02*
X181800500Y-104914700D01*
X186347100Y-106245660D02*
X186347100Y-104914700D01*
X186347100Y-109461300D02*
X186347100Y-108130340D01*
D11*
%TO.C,R11*%
X165889000Y-175032936D02*
X165889000Y-175487064D01*
X167359000Y-175032936D02*
X167359000Y-175487064D01*
%TO.C,JP5*%
X163304000Y-134920000D02*
X163304000Y-134320000D01*
X164004000Y-133620000D02*
X165404000Y-133620000D01*
X165404000Y-135620000D02*
X164004000Y-135620000D01*
X166104000Y-134320000D02*
X166104000Y-134920000D01*
X163304000Y-134320000D02*
G75*
G02*
X164004000Y-133620000I699999J1D01*
G01*
X164004000Y-135620000D02*
G75*
G02*
X163304000Y-134920000I-1J699999D01*
G01*
X165404000Y-133620000D02*
G75*
G02*
X166104000Y-134320000I0J-700000D01*
G01*
X166104000Y-134920000D02*
G75*
G02*
X165404000Y-135620000I-700000J0D01*
G01*
%TO.C,D3*%
X160547600Y-106990000D02*
X160547600Y-108910000D01*
X160547600Y-108910000D02*
X163407600Y-108910000D01*
X163407600Y-106990000D02*
X160547600Y-106990000D01*
%TO.C,R5*%
X180821064Y-144807000D02*
X180366936Y-144807000D01*
X180821064Y-146277000D02*
X180366936Y-146277000D01*
D12*
%TO.C,D6*%
X156161205Y-118940045D02*
X156161205Y-121343955D01*
X156161205Y-121343955D02*
X160566635Y-121343955D01*
X160566635Y-118940045D02*
X156161205Y-118940045D01*
X160566635Y-121343955D02*
X160566635Y-118940045D01*
X164528500Y-120142000D02*
G75*
G02*
X164376100Y-120142000I-76200J0D01*
G01*
X164376100Y-120142000D02*
G75*
G02*
X164528500Y-120142000I76200J0D01*
G01*
%TO.C,J3*%
X190118998Y-163627001D02*
X190118998Y-182380999D01*
X190118998Y-182380999D02*
X211353001Y-182380999D01*
X211353001Y-163627001D02*
X190118998Y-163627001D01*
X211353001Y-182380999D02*
X211353001Y-163627001D01*
D13*
X189864999Y-165354000D02*
G75*
G02*
X189102999Y-165354000I-381000J0D01*
G01*
X189102999Y-165354000D02*
G75*
G02*
X189864999Y-165354000I381000J0D01*
G01*
D11*
%TO.C,R12*%
X161317000Y-175016936D02*
X161317000Y-175471064D01*
X162787000Y-175016936D02*
X162787000Y-175471064D01*
%TO.C,TH2*%
X171371314Y-132517000D02*
X170917186Y-132517000D01*
X171371314Y-133987000D02*
X170917186Y-133987000D01*
%TO.C,TH1*%
X171371314Y-127281000D02*
X170917186Y-127281000D01*
X171371314Y-128751000D02*
X170917186Y-128751000D01*
%TO.C,J2*%
X151832000Y-154621000D02*
X153162000Y-154621000D01*
X151832000Y-155951000D02*
X151832000Y-154621000D01*
X151832000Y-157221000D02*
X151832000Y-159821000D01*
X151832000Y-157221000D02*
X154492000Y-157221000D01*
X151832000Y-159821000D02*
X154492000Y-159821000D01*
X154492000Y-157221000D02*
X154492000Y-159821000D01*
D12*
%TO.C,Q1*%
X174260401Y-130236392D02*
X174260401Y-126469099D01*
X174260401Y-136736390D02*
X174260401Y-134547607D01*
X184623601Y-126469099D02*
X184623601Y-130236392D01*
X184623601Y-134547607D02*
X184623601Y-136736390D01*
X183769000Y-123290400D02*
G75*
G02*
X183515000Y-123290400I-127000J0D01*
G01*
X183515000Y-123290400D02*
G75*
G02*
X183769000Y-123290400I127000J0D01*
G01*
D11*
%TO.C,R7*%
X156999000Y-169952936D02*
X156999000Y-170407064D01*
X158469000Y-169952936D02*
X158469000Y-170407064D01*
D12*
%TO.C,U6*%
X164630100Y-114211100D02*
X164630100Y-118452900D01*
X169887900Y-118452900D02*
X169887900Y-114211100D01*
D11*
%TO.C,C6*%
X159793000Y-164352248D02*
X159793000Y-164874752D01*
X161263000Y-164352248D02*
X161263000Y-164874752D01*
%TO.C,U5*%
X164702000Y-125932000D02*
X164702000Y-124522000D01*
X167022000Y-125922000D02*
X167022000Y-124522000D01*
X164752000Y-126302000D02*
X164422000Y-126542000D01*
X164422000Y-126062000D01*
X164752000Y-126302000D01*
G36*
X164752000Y-126302000D02*
G01*
X164422000Y-126542000D01*
X164422000Y-126062000D01*
X164752000Y-126302000D01*
G37*
D12*
%TO.C,C2*%
X158153100Y-113703100D02*
X158153100Y-115161060D01*
X158153100Y-116994940D02*
X158153100Y-118452900D01*
X158153100Y-118452900D02*
X162902900Y-118452900D01*
X162902900Y-113703100D02*
X158153100Y-113703100D01*
X162902900Y-115161060D02*
X162902900Y-113703100D01*
X162902900Y-118452900D02*
X162902900Y-116994940D01*
D11*
%TO.C,D5*%
X152563000Y-135336400D02*
X152563000Y-137256400D01*
X152563000Y-137256400D02*
X155423000Y-137256400D01*
X155423000Y-135336400D02*
X152563000Y-135336400D01*
%TO.C,JP3*%
X166842250Y-131398000D02*
X166842250Y-129998000D01*
X167542250Y-129298000D02*
X168142250Y-129298000D01*
X168142250Y-132098000D02*
X167542250Y-132098000D01*
X168842250Y-129998000D02*
X168842250Y-131398000D01*
X166842250Y-129998000D02*
G75*
G02*
X167542250Y-129298000I700000J0D01*
G01*
X167542250Y-132098000D02*
G75*
G02*
X166842250Y-131398000I-1J699999D01*
G01*
X168142250Y-129298000D02*
G75*
G02*
X168842250Y-129998000I0J-700000D01*
G01*
X168842250Y-131398000D02*
G75*
G02*
X168142250Y-132098000I-699999J-1D01*
G01*
%TO.C,D4*%
X156483600Y-124414400D02*
X156483600Y-126334400D01*
X156483600Y-126334400D02*
X159343600Y-126334400D01*
X159343600Y-124414400D02*
X156483600Y-124414400D01*
%TO.C,R13*%
X173813800Y-142162264D02*
X173813800Y-141708136D01*
X175283800Y-142162264D02*
X175283800Y-141708136D01*
%TO.C,C1*%
X159945400Y-156035552D02*
X159945400Y-155513048D01*
X161415400Y-156035552D02*
X161415400Y-155513048D01*
D12*
%TO.C,J4*%
X189052199Y-92701001D02*
X189052199Y-111454999D01*
X189052199Y-111454999D02*
X210286202Y-111454999D01*
X210286202Y-92701001D02*
X189052199Y-92701001D01*
X210286202Y-111454999D02*
X210286202Y-92701001D01*
D13*
X211302201Y-109728000D02*
G75*
G02*
X210540201Y-109728000I-381000J0D01*
G01*
X210540201Y-109728000D02*
G75*
G02*
X211302201Y-109728000I381000J0D01*
G01*
D11*
%TO.C,J9*%
X151832000Y-145736000D02*
X153162000Y-145736000D01*
X151832000Y-147066000D02*
X151832000Y-145736000D01*
X151832000Y-148336000D02*
X151832000Y-153476000D01*
X151832000Y-148336000D02*
X154492000Y-148336000D01*
X151832000Y-153476000D02*
X154492000Y-153476000D01*
X154492000Y-148336000D02*
X154492000Y-153476000D01*
%TO.C,JP2*%
X171466000Y-117032000D02*
X171466000Y-115632000D01*
X172166000Y-114932000D02*
X172766000Y-114932000D01*
X172766000Y-117732000D02*
X172166000Y-117732000D01*
X173466000Y-115632000D02*
X173466000Y-117032000D01*
X171466000Y-115632000D02*
G75*
G02*
X172166000Y-114932000I699999J1D01*
G01*
X172166000Y-117732000D02*
G75*
G02*
X171466000Y-117032000I0J700000D01*
G01*
X172766000Y-114932000D02*
G75*
G02*
X173466000Y-115632000I1J-699999D01*
G01*
X173466000Y-117032000D02*
G75*
G02*
X172766000Y-117732000I-700000J0D01*
G01*
%TO.C,JP6*%
X159270000Y-160066000D02*
X159270000Y-159466000D01*
X159970000Y-158766000D02*
X161370000Y-158766000D01*
X161370000Y-160766000D02*
X159970000Y-160766000D01*
X162070000Y-159466000D02*
X162070000Y-160066000D01*
X159270000Y-159466000D02*
G75*
G02*
X159970000Y-158766000I699999J1D01*
G01*
X159970000Y-160766000D02*
G75*
G02*
X159270000Y-160066000I-1J699999D01*
G01*
X161370000Y-158766000D02*
G75*
G02*
X162070000Y-159466000I0J-700000D01*
G01*
X162070000Y-160066000D02*
G75*
G02*
X161370000Y-160766000I-700000J0D01*
G01*
%TO.C,J6*%
X151832000Y-128205000D02*
X153162000Y-128205000D01*
X151832000Y-129535000D02*
X151832000Y-128205000D01*
X151832000Y-130805000D02*
X151832000Y-133405000D01*
X151832000Y-130805000D02*
X154492000Y-130805000D01*
X151832000Y-133405000D02*
X154492000Y-133405000D01*
X154492000Y-130805000D02*
X154492000Y-133405000D01*
%TO.C,J10*%
X151832000Y-161484000D02*
X153162000Y-161484000D01*
X151832000Y-162814000D02*
X151832000Y-161484000D01*
X151832000Y-164084000D02*
X151832000Y-166684000D01*
X151832000Y-164084000D02*
X154492000Y-164084000D01*
X151832000Y-166684000D02*
X154492000Y-166684000D01*
X154492000Y-164084000D02*
X154492000Y-166684000D01*
%TO.C,J5*%
X152086000Y-96520000D02*
X152086000Y-93920000D01*
X154746000Y-93920000D02*
X152086000Y-93920000D01*
X154746000Y-96520000D02*
X152086000Y-96520000D01*
X154746000Y-96520000D02*
X154746000Y-93920000D01*
X154746000Y-97790000D02*
X154746000Y-99120000D01*
X154746000Y-99120000D02*
X153416000Y-99120000D01*
%TO.C,R15*%
X173605564Y-106199000D02*
X173151436Y-106199000D01*
X173605564Y-107669000D02*
X173151436Y-107669000D01*
%TO.C,J1*%
X151832000Y-124465000D02*
X151832000Y-121865000D01*
X154492000Y-121865000D02*
X151832000Y-121865000D01*
X154492000Y-124465000D02*
X151832000Y-124465000D01*
X154492000Y-124465000D02*
X154492000Y-121865000D01*
X154492000Y-125735000D02*
X154492000Y-127065000D01*
X154492000Y-127065000D02*
X153162000Y-127065000D01*
%TO.C,U4*%
X160526000Y-125992000D02*
X160526000Y-124582000D01*
X162846000Y-125982000D02*
X162846000Y-124582000D01*
X160576000Y-126362000D02*
X160246000Y-126602000D01*
X160246000Y-126122000D01*
X160576000Y-126362000D01*
G36*
X160576000Y-126362000D02*
G01*
X160246000Y-126602000D01*
X160246000Y-126122000D01*
X160576000Y-126362000D01*
G37*
D12*
%TO.C,U2*%
X162471100Y-138087100D02*
X162471100Y-142328900D01*
X167728900Y-142328900D02*
X167728900Y-138087100D01*
D11*
%TO.C,R6*%
X176773064Y-144807000D02*
X176318936Y-144807000D01*
X176773064Y-146277000D02*
X176318936Y-146277000D01*
D12*
%TO.C,Q3*%
X199914401Y-130236392D02*
X199914401Y-126469099D01*
X199914401Y-136736390D02*
X199914401Y-134547607D01*
X210277601Y-126469099D02*
X210277601Y-130236392D01*
X210277601Y-134547607D02*
X210277601Y-136736390D01*
X209423000Y-123290400D02*
G75*
G02*
X209169000Y-123290400I-127000J0D01*
G01*
X209169000Y-123290400D02*
G75*
G02*
X209423000Y-123290400I127000J0D01*
G01*
D11*
%TO.C,R10*%
X156999000Y-175016936D02*
X156999000Y-175471064D01*
X158469000Y-175016936D02*
X158469000Y-175471064D01*
D12*
%TO.C,C8*%
X181876700Y-94246700D02*
X181876700Y-95577660D01*
X181876700Y-97462340D02*
X181876700Y-98793300D01*
X181876700Y-98793300D02*
X186423300Y-98793300D01*
X186423300Y-94246700D02*
X181876700Y-94246700D01*
X186423300Y-95577660D02*
X186423300Y-94246700D01*
X186423300Y-98793300D02*
X186423300Y-97462340D01*
D11*
%TO.C,JP1*%
X158762000Y-96058000D02*
X158762000Y-95458000D01*
X159412000Y-94758000D02*
X162212000Y-94758000D01*
X162012000Y-94558000D02*
X161712000Y-94258000D01*
X162012000Y-94558000D02*
X162312000Y-94258000D01*
X162212000Y-96758000D02*
X159412000Y-96758000D01*
X162312000Y-94258000D02*
X161712000Y-94258000D01*
X162862000Y-95458000D02*
X162862000Y-96058000D01*
X158762000Y-95458000D02*
G75*
G02*
X159462000Y-94758000I700000J0D01*
G01*
X159462000Y-96758000D02*
G75*
G02*
X158762000Y-96058000I0J700000D01*
G01*
X162162000Y-94758000D02*
G75*
G02*
X162862000Y-95458000I1J-699999D01*
G01*
X162862000Y-96058000D02*
G75*
G02*
X162162000Y-96758000I-699999J-1D01*
G01*
%TO.C,J7*%
X151832000Y-139127000D02*
X153162000Y-139127000D01*
X151832000Y-140457000D02*
X151832000Y-139127000D01*
X151832000Y-141727000D02*
X151832000Y-144327000D01*
X151832000Y-141727000D02*
X154492000Y-141727000D01*
X151832000Y-144327000D02*
X154492000Y-144327000D01*
X154492000Y-141727000D02*
X154492000Y-144327000D01*
%TO.C,R8*%
X161317000Y-169952936D02*
X161317000Y-170407064D01*
X162787000Y-169952936D02*
X162787000Y-170407064D01*
D12*
%TO.C,Q2*%
X187096400Y-125234392D02*
X187096400Y-121467099D01*
X187096400Y-131734390D02*
X187096400Y-129545607D01*
X197459600Y-121467099D02*
X197459600Y-125234392D01*
X197459600Y-129545607D02*
X197459600Y-131734390D01*
X196604999Y-118288400D02*
G75*
G02*
X196350999Y-118288400I-127000J0D01*
G01*
X196350999Y-118288400D02*
G75*
G02*
X196604999Y-118288400I127000J0D01*
G01*
D10*
%TO.C,U1*%
X166774500Y-152064000D02*
X166774500Y-162164000D01*
X166774500Y-152064000D02*
X179874500Y-152064000D01*
X166774500Y-162164000D02*
X179874500Y-162164000D01*
X179874500Y-152064000D02*
X179874500Y-162164000D01*
D14*
X162534000Y-155214000D02*
G75*
G02*
X162284000Y-155214000I-125000J0D01*
G01*
X162284000Y-155214000D02*
G75*
G02*
X162534000Y-155214000I125000J0D01*
G01*
D11*
%TO.C,D7*%
X156474600Y-106939200D02*
X156474600Y-108859200D01*
X156474600Y-108859200D02*
X159334600Y-108859200D01*
X159334600Y-106939200D02*
X156474600Y-106939200D01*
%TO.C,R14*%
X173709064Y-108739000D02*
X173254936Y-108739000D01*
X173709064Y-110209000D02*
X173254936Y-110209000D01*
D12*
%TO.C,D8*%
X156415205Y-110812045D02*
X156415205Y-113215955D01*
X156415205Y-113215955D02*
X160820635Y-113215955D01*
X160820635Y-110812045D02*
X156415205Y-110812045D01*
X160820635Y-113215955D02*
X160820635Y-110812045D01*
X164782500Y-112014000D02*
G75*
G02*
X164630100Y-112014000I-76200J0D01*
G01*
X164630100Y-112014000D02*
G75*
G02*
X164782500Y-112014000I76200J0D01*
G01*
%TO.C,U3*%
X170258499Y-140247829D02*
X170258499Y-140599971D01*
X172417499Y-140599971D02*
X172417499Y-140247829D01*
D11*
%TO.C,JP9*%
X158762000Y-100122000D02*
X158762000Y-99522000D01*
X159312000Y-101322000D02*
X159912000Y-101322000D01*
X159412000Y-98822000D02*
X162212000Y-98822000D01*
X159612000Y-101022000D02*
X159312000Y-101322000D01*
X159612000Y-101022000D02*
X159912000Y-101322000D01*
X162212000Y-100822000D02*
X159412000Y-100822000D01*
X162862000Y-99522000D02*
X162862000Y-100122000D01*
X158762000Y-99522000D02*
G75*
G02*
X159462000Y-98822000I699999J1D01*
G01*
X159462000Y-100822000D02*
G75*
G02*
X158762000Y-100122000I-1J699999D01*
G01*
X162162000Y-98822000D02*
G75*
G02*
X162862000Y-99522000I0J-700000D01*
G01*
X162862000Y-100122000D02*
G75*
G02*
X162162000Y-100822000I-700000J0D01*
G01*
%TD*%
M02*
