M48
; DRILL file {KiCad 8.0.3} date 2024-11-15T02:09:18-0800
; FORMAT={-:-/ absolute / inch / decimal}
; #@! TF.CreationDate,2024-11-15T02:09:18-08:00
; #@! TF.GenerationSoftware,Kicad,Pcbnew,8.0.3
; #@! TF.FileFunction,Plated,1,2,PTH
FMAT,2
INCH
; #@! TA.AperFunction,Plated,PTH,ViaDrill
T1C0.0197
; #@! TA.AperFunction,Plated,PTH,ComponentDrill
T2C0.0197
; #@! TA.AperFunction,Plated,PTH,ViaDrill
T3C0.0315
; #@! TA.AperFunction,Plated,PTH,ComponentDrill
T4C0.0315
; #@! TA.AperFunction,Plated,PTH,ComponentDrill
T5C0.0350
; #@! TA.AperFunction,Plated,PTH,ComponentDrill
T6C0.0390
; #@! TA.AperFunction,Plated,PTH,ComponentDrill
T7C0.0394
; #@! TA.AperFunction,Plated,PTH,ComponentDrill
T8C0.0680
; #@! TA.AperFunction,Plated,PTH,ComponentDrill
T9C0.0787
%
G90
G05
T1
X5.9787Y-4.26
X5.99Y-6.326
X6.1042Y-6.2785
X6.1042Y-6.34
X6.1126Y-5.9203
X6.1134Y-5.7602
X6.114Y-6.382
X6.116Y-6.54
X6.118Y-4.88
X6.12Y-5.5
X6.128Y-5.43
X6.13Y-3.71
X6.1384Y-6.2298
X6.14Y-4.57
X6.14Y-4.66
X6.1426Y-5.7592
X6.1442Y-5.9185
X6.15Y-5.23
X6.15Y-5.48
X6.1684Y-5.95
X6.1698Y-5.1998
X6.17Y-6.23
X6.1742Y-5.7585
X6.176Y-4.184
X6.18Y-3.76
X6.182Y-5.24
X6.186Y-5.466
X6.2Y-5.11
X6.2Y-5.95
X6.2Y-6.22
X6.212Y-5.366
X6.2172Y-5.5337
X6.226Y-4.998
X6.226Y-6.516
X6.24Y-6.0597
X6.2536Y-5.039
X6.254Y-5.32
X6.26Y-6.52
X6.27Y-6.63
X6.27Y-6.71
X6.2701Y-5.3503
X6.272Y-6.218
X6.276Y-5.762
X6.282Y-5.166
X6.2925Y-5.399
X6.2954Y-5.0743
X6.31Y-6.63
X6.31Y-6.71
X6.3272Y-5.4237
X6.33Y-3.85
X6.34Y-5.046
X6.35Y-4.344
X6.36Y-5.33
X6.37Y-5.63
X6.38Y-5.36
X6.3806Y-4.9364
X6.3884Y-4.8363
X6.396Y-6.024
X6.412Y-5.124
X6.4261Y-5.1523
X6.4272Y-5.1993
X6.432Y-5.96
X6.4367Y-5.6867
X6.44Y-5.048
X6.45Y-3.93
X6.46Y-4.63
X6.46Y-4.96
X6.4617Y-5.1897
X6.47Y-4.41
X6.47Y-4.69
X6.474Y-4.37
X6.48Y-5.54
X6.516Y-6.232
X6.5179Y-5.7216
X6.52Y-4.74
X6.52Y-5.05
X6.524Y-5.122
X6.53Y-5.58
X6.532Y-4.928
X6.5322Y-5.1736
X6.5541Y-5.2491
X6.556Y-5.762
X6.56Y-3.89
X6.56Y-4.56
X6.578Y-5.352
X6.6088Y-5.6362
X6.614Y-3.866
X6.6241Y-5.6877
X6.632Y-5.532
X6.635Y-4.745
X6.64Y-5.01
X6.64Y-5.624
X6.6522Y-4.4123
X6.66Y-5.69
X6.67Y-5.09
X6.67Y-5.5
X6.69Y-4.74
X6.692Y-3.896
X6.694Y-4.898
X6.6997Y-4.4499
X6.7Y-4.3
X6.7147Y-5.6547
X6.7187Y-4.7587
X6.72Y-4.56
X6.7282Y-4.3314
X6.7282Y-4.4636
X6.73Y-4.1
X6.742Y-4.246
X6.752Y-4.762
X6.754Y-4.672
X6.788Y-5.43
X6.83Y-4.79
X6.8473Y-4.9
X6.89Y-4.39
X7.05Y-5.548
X7.23Y-4.84
X7.74Y-4.68
X7.84Y-4.9
T2
X7.21Y-5.91
X7.21Y-5.9625
X7.21Y-6.015
X7.21Y-6.0675
X7.21Y-6.3037
X7.21Y-6.3562
X7.21Y-6.4087
X7.21Y-6.4612
X7.225Y-5.8637
X7.225Y-6.1138
X7.225Y-6.2574
X7.225Y-6.5075
X7.2644Y-6.1424
X7.2644Y-6.2288
X7.2644Y-5.8351
X7.2644Y-6.5361
X7.3131Y-5.8351
X7.3131Y-6.1424
X7.3131Y-6.2288
X7.3131Y-6.5361
X7.3524Y-5.8637
X7.3524Y-6.1138
X7.3524Y-6.2574
X7.3524Y-6.5075
X7.3675Y-5.91
X7.3675Y-5.9625
X7.3675Y-6.015
X7.3675Y-6.0675
X7.3675Y-6.3037
X7.3675Y-6.3562
X7.3675Y-6.4087
X7.3675Y-6.4612
T3
X6.2689Y-6.2688
X6.69Y-4.25
X6.92Y-4.21
X7.41Y-3.8
X7.41Y-4.01
X7.41Y-4.22
T4
X6.4462Y-6.1104
X6.4462Y-6.1856
X6.4462Y-6.2608
T5
X6.0596Y-4.73
X6.0696Y-4.41
X6.41Y-4.73
X6.42Y-4.41
T6
X6.64Y-3.69
X6.64Y-3.79
X6.64Y-4.09
X6.84Y-3.69
X6.84Y-3.79
X6.84Y-4.09
T7
X6.03Y-4.8502
X6.03Y-4.9502
X6.03Y-5.0998
X6.03Y-5.1998
X6.03Y-5.5298
X6.03Y-5.6298
X6.03Y-5.79
X6.03Y-5.89
X6.03Y-5.99
X6.03Y-6.1398
X6.03Y-6.2398
X6.03Y-6.41
X6.03Y-6.51
X6.03Y-6.664
X6.03Y-6.764
X6.03Y-6.864
X6.03Y-6.964
X6.04Y-3.75
X6.04Y-3.85
T8
X7.674Y-3.92
X7.674Y-4.32
X7.69Y-6.51
X7.69Y-6.91
X8.074Y-3.92
X8.074Y-4.32
X8.09Y-6.51
X8.09Y-6.91
T9
G00X7.2887Y-5.91
M15
G01X7.2887Y-6.0675
M16
G05
G00X7.2887Y-6.3037
M15
G01X7.2887Y-6.4612
M16
G05
M30
