%TF.GenerationSoftware,KiCad,Pcbnew,7.0.2-0*%
%TF.CreationDate,2024-05-03T02:11:51-07:00*%
%TF.ProjectId,EE156_2_Layer,45453135-365f-4325-9f4c-617965722e6b,rev?*%
%TF.SameCoordinates,Original*%
%TF.FileFunction,Drillmap*%
%TF.FilePolarity,Positive*%
%FSLAX45Y45*%
G04 Gerber Fmt 4.5, Leading zero omitted, Abs format (unit mm)*
G04 Created by KiCad (PCBNEW 7.0.2-0) date 2024-05-03 02:11:51*
%MOMM*%
%LPD*%
G01*
G04 APERTURE LIST*
%ADD10C,0.100000*%
%ADD11C,0.200000*%
%ADD12C,0.320000*%
G04 APERTURE END LIST*
D10*
X20280000Y-13360000D02*
X32280000Y-13360000D01*
X32280000Y-19360000D01*
X20280000Y-19360000D01*
X20280000Y-13360000D01*
D11*
D12*
X20890000Y-13640000D02*
X21210000Y-13960000D01*
X21210000Y-13640000D02*
X20890000Y-13960000D01*
X20890000Y-18140000D02*
X21210000Y-18460000D01*
X21210000Y-18140000D02*
X20890000Y-18460000D01*
X31390000Y-13640000D02*
X31710000Y-13960000D01*
X31710000Y-13640000D02*
X31390000Y-13960000D01*
X31390000Y-18140000D02*
X31710000Y-18460000D01*
X31710000Y-18140000D02*
X31390000Y-18460000D01*
D11*
X20522619Y-19677524D02*
X20522619Y-19477524D01*
X20522619Y-19477524D02*
X20570238Y-19477524D01*
X20570238Y-19477524D02*
X20598810Y-19487048D01*
X20598810Y-19487048D02*
X20617857Y-19506095D01*
X20617857Y-19506095D02*
X20627381Y-19525143D01*
X20627381Y-19525143D02*
X20636905Y-19563238D01*
X20636905Y-19563238D02*
X20636905Y-19591810D01*
X20636905Y-19591810D02*
X20627381Y-19629905D01*
X20627381Y-19629905D02*
X20617857Y-19648952D01*
X20617857Y-19648952D02*
X20598810Y-19668000D01*
X20598810Y-19668000D02*
X20570238Y-19677524D01*
X20570238Y-19677524D02*
X20522619Y-19677524D01*
X20722619Y-19677524D02*
X20722619Y-19544190D01*
X20722619Y-19582286D02*
X20732143Y-19563238D01*
X20732143Y-19563238D02*
X20741667Y-19553714D01*
X20741667Y-19553714D02*
X20760714Y-19544190D01*
X20760714Y-19544190D02*
X20779762Y-19544190D01*
X20846429Y-19677524D02*
X20846429Y-19544190D01*
X20846429Y-19477524D02*
X20836905Y-19487048D01*
X20836905Y-19487048D02*
X20846429Y-19496571D01*
X20846429Y-19496571D02*
X20855952Y-19487048D01*
X20855952Y-19487048D02*
X20846429Y-19477524D01*
X20846429Y-19477524D02*
X20846429Y-19496571D01*
X20970238Y-19677524D02*
X20951190Y-19668000D01*
X20951190Y-19668000D02*
X20941667Y-19648952D01*
X20941667Y-19648952D02*
X20941667Y-19477524D01*
X21075000Y-19677524D02*
X21055952Y-19668000D01*
X21055952Y-19668000D02*
X21046429Y-19648952D01*
X21046429Y-19648952D02*
X21046429Y-19477524D01*
X21303571Y-19677524D02*
X21303571Y-19477524D01*
X21303571Y-19477524D02*
X21370238Y-19620381D01*
X21370238Y-19620381D02*
X21436905Y-19477524D01*
X21436905Y-19477524D02*
X21436905Y-19677524D01*
X21617857Y-19677524D02*
X21617857Y-19572762D01*
X21617857Y-19572762D02*
X21608333Y-19553714D01*
X21608333Y-19553714D02*
X21589286Y-19544190D01*
X21589286Y-19544190D02*
X21551190Y-19544190D01*
X21551190Y-19544190D02*
X21532143Y-19553714D01*
X21617857Y-19668000D02*
X21598810Y-19677524D01*
X21598810Y-19677524D02*
X21551190Y-19677524D01*
X21551190Y-19677524D02*
X21532143Y-19668000D01*
X21532143Y-19668000D02*
X21522619Y-19648952D01*
X21522619Y-19648952D02*
X21522619Y-19629905D01*
X21522619Y-19629905D02*
X21532143Y-19610857D01*
X21532143Y-19610857D02*
X21551190Y-19601333D01*
X21551190Y-19601333D02*
X21598810Y-19601333D01*
X21598810Y-19601333D02*
X21617857Y-19591810D01*
X21713095Y-19544190D02*
X21713095Y-19744190D01*
X21713095Y-19553714D02*
X21732143Y-19544190D01*
X21732143Y-19544190D02*
X21770238Y-19544190D01*
X21770238Y-19544190D02*
X21789286Y-19553714D01*
X21789286Y-19553714D02*
X21798810Y-19563238D01*
X21798810Y-19563238D02*
X21808333Y-19582286D01*
X21808333Y-19582286D02*
X21808333Y-19639429D01*
X21808333Y-19639429D02*
X21798810Y-19658476D01*
X21798810Y-19658476D02*
X21789286Y-19668000D01*
X21789286Y-19668000D02*
X21770238Y-19677524D01*
X21770238Y-19677524D02*
X21732143Y-19677524D01*
X21732143Y-19677524D02*
X21713095Y-19668000D01*
X21894048Y-19658476D02*
X21903571Y-19668000D01*
X21903571Y-19668000D02*
X21894048Y-19677524D01*
X21894048Y-19677524D02*
X21884524Y-19668000D01*
X21884524Y-19668000D02*
X21894048Y-19658476D01*
X21894048Y-19658476D02*
X21894048Y-19677524D01*
X21894048Y-19553714D02*
X21903571Y-19563238D01*
X21903571Y-19563238D02*
X21894048Y-19572762D01*
X21894048Y-19572762D02*
X21884524Y-19563238D01*
X21884524Y-19563238D02*
X21894048Y-19553714D01*
X21894048Y-19553714D02*
X21894048Y-19572762D01*
X20075000Y-19905000D02*
X20275000Y-20105000D01*
X20275000Y-19905000D02*
X20075000Y-20105000D01*
X20503571Y-19897524D02*
X20627381Y-19897524D01*
X20627381Y-19897524D02*
X20560714Y-19973714D01*
X20560714Y-19973714D02*
X20589286Y-19973714D01*
X20589286Y-19973714D02*
X20608333Y-19983238D01*
X20608333Y-19983238D02*
X20617857Y-19992762D01*
X20617857Y-19992762D02*
X20627381Y-20011810D01*
X20627381Y-20011810D02*
X20627381Y-20059429D01*
X20627381Y-20059429D02*
X20617857Y-20078476D01*
X20617857Y-20078476D02*
X20608333Y-20088000D01*
X20608333Y-20088000D02*
X20589286Y-20097524D01*
X20589286Y-20097524D02*
X20532143Y-20097524D01*
X20532143Y-20097524D02*
X20513095Y-20088000D01*
X20513095Y-20088000D02*
X20503571Y-20078476D01*
X20713095Y-20078476D02*
X20722619Y-20088000D01*
X20722619Y-20088000D02*
X20713095Y-20097524D01*
X20713095Y-20097524D02*
X20703571Y-20088000D01*
X20703571Y-20088000D02*
X20713095Y-20078476D01*
X20713095Y-20078476D02*
X20713095Y-20097524D01*
X20798810Y-19916571D02*
X20808333Y-19907048D01*
X20808333Y-19907048D02*
X20827381Y-19897524D01*
X20827381Y-19897524D02*
X20875000Y-19897524D01*
X20875000Y-19897524D02*
X20894048Y-19907048D01*
X20894048Y-19907048D02*
X20903571Y-19916571D01*
X20903571Y-19916571D02*
X20913095Y-19935619D01*
X20913095Y-19935619D02*
X20913095Y-19954667D01*
X20913095Y-19954667D02*
X20903571Y-19983238D01*
X20903571Y-19983238D02*
X20789286Y-20097524D01*
X20789286Y-20097524D02*
X20913095Y-20097524D01*
X21036905Y-19897524D02*
X21055952Y-19897524D01*
X21055952Y-19897524D02*
X21075000Y-19907048D01*
X21075000Y-19907048D02*
X21084524Y-19916571D01*
X21084524Y-19916571D02*
X21094048Y-19935619D01*
X21094048Y-19935619D02*
X21103571Y-19973714D01*
X21103571Y-19973714D02*
X21103571Y-20021333D01*
X21103571Y-20021333D02*
X21094048Y-20059429D01*
X21094048Y-20059429D02*
X21084524Y-20078476D01*
X21084524Y-20078476D02*
X21075000Y-20088000D01*
X21075000Y-20088000D02*
X21055952Y-20097524D01*
X21055952Y-20097524D02*
X21036905Y-20097524D01*
X21036905Y-20097524D02*
X21017857Y-20088000D01*
X21017857Y-20088000D02*
X21008333Y-20078476D01*
X21008333Y-20078476D02*
X20998810Y-20059429D01*
X20998810Y-20059429D02*
X20989286Y-20021333D01*
X20989286Y-20021333D02*
X20989286Y-19973714D01*
X20989286Y-19973714D02*
X20998810Y-19935619D01*
X20998810Y-19935619D02*
X21008333Y-19916571D01*
X21008333Y-19916571D02*
X21017857Y-19907048D01*
X21017857Y-19907048D02*
X21036905Y-19897524D01*
X21227381Y-19897524D02*
X21246429Y-19897524D01*
X21246429Y-19897524D02*
X21265476Y-19907048D01*
X21265476Y-19907048D02*
X21275000Y-19916571D01*
X21275000Y-19916571D02*
X21284524Y-19935619D01*
X21284524Y-19935619D02*
X21294048Y-19973714D01*
X21294048Y-19973714D02*
X21294048Y-20021333D01*
X21294048Y-20021333D02*
X21284524Y-20059429D01*
X21284524Y-20059429D02*
X21275000Y-20078476D01*
X21275000Y-20078476D02*
X21265476Y-20088000D01*
X21265476Y-20088000D02*
X21246429Y-20097524D01*
X21246429Y-20097524D02*
X21227381Y-20097524D01*
X21227381Y-20097524D02*
X21208333Y-20088000D01*
X21208333Y-20088000D02*
X21198810Y-20078476D01*
X21198810Y-20078476D02*
X21189286Y-20059429D01*
X21189286Y-20059429D02*
X21179762Y-20021333D01*
X21179762Y-20021333D02*
X21179762Y-19973714D01*
X21179762Y-19973714D02*
X21189286Y-19935619D01*
X21189286Y-19935619D02*
X21198810Y-19916571D01*
X21198810Y-19916571D02*
X21208333Y-19907048D01*
X21208333Y-19907048D02*
X21227381Y-19897524D01*
X21379762Y-20097524D02*
X21379762Y-19964190D01*
X21379762Y-19983238D02*
X21389286Y-19973714D01*
X21389286Y-19973714D02*
X21408333Y-19964190D01*
X21408333Y-19964190D02*
X21436905Y-19964190D01*
X21436905Y-19964190D02*
X21455952Y-19973714D01*
X21455952Y-19973714D02*
X21465476Y-19992762D01*
X21465476Y-19992762D02*
X21465476Y-20097524D01*
X21465476Y-19992762D02*
X21475000Y-19973714D01*
X21475000Y-19973714D02*
X21494048Y-19964190D01*
X21494048Y-19964190D02*
X21522619Y-19964190D01*
X21522619Y-19964190D02*
X21541667Y-19973714D01*
X21541667Y-19973714D02*
X21551191Y-19992762D01*
X21551191Y-19992762D02*
X21551191Y-20097524D01*
X21646429Y-20097524D02*
X21646429Y-19964190D01*
X21646429Y-19983238D02*
X21655952Y-19973714D01*
X21655952Y-19973714D02*
X21675000Y-19964190D01*
X21675000Y-19964190D02*
X21703572Y-19964190D01*
X21703572Y-19964190D02*
X21722619Y-19973714D01*
X21722619Y-19973714D02*
X21732143Y-19992762D01*
X21732143Y-19992762D02*
X21732143Y-20097524D01*
X21732143Y-19992762D02*
X21741667Y-19973714D01*
X21741667Y-19973714D02*
X21760714Y-19964190D01*
X21760714Y-19964190D02*
X21789286Y-19964190D01*
X21789286Y-19964190D02*
X21808333Y-19973714D01*
X21808333Y-19973714D02*
X21817857Y-19992762D01*
X21817857Y-19992762D02*
X21817857Y-20097524D01*
X22208333Y-19888000D02*
X22036905Y-20145143D01*
X22465476Y-19897524D02*
X22484524Y-19897524D01*
X22484524Y-19897524D02*
X22503572Y-19907048D01*
X22503572Y-19907048D02*
X22513095Y-19916571D01*
X22513095Y-19916571D02*
X22522619Y-19935619D01*
X22522619Y-19935619D02*
X22532143Y-19973714D01*
X22532143Y-19973714D02*
X22532143Y-20021333D01*
X22532143Y-20021333D02*
X22522619Y-20059429D01*
X22522619Y-20059429D02*
X22513095Y-20078476D01*
X22513095Y-20078476D02*
X22503572Y-20088000D01*
X22503572Y-20088000D02*
X22484524Y-20097524D01*
X22484524Y-20097524D02*
X22465476Y-20097524D01*
X22465476Y-20097524D02*
X22446429Y-20088000D01*
X22446429Y-20088000D02*
X22436905Y-20078476D01*
X22436905Y-20078476D02*
X22427381Y-20059429D01*
X22427381Y-20059429D02*
X22417857Y-20021333D01*
X22417857Y-20021333D02*
X22417857Y-19973714D01*
X22417857Y-19973714D02*
X22427381Y-19935619D01*
X22427381Y-19935619D02*
X22436905Y-19916571D01*
X22436905Y-19916571D02*
X22446429Y-19907048D01*
X22446429Y-19907048D02*
X22465476Y-19897524D01*
X22617857Y-20078476D02*
X22627381Y-20088000D01*
X22627381Y-20088000D02*
X22617857Y-20097524D01*
X22617857Y-20097524D02*
X22608333Y-20088000D01*
X22608333Y-20088000D02*
X22617857Y-20078476D01*
X22617857Y-20078476D02*
X22617857Y-20097524D01*
X22817857Y-20097524D02*
X22703572Y-20097524D01*
X22760714Y-20097524D02*
X22760714Y-19897524D01*
X22760714Y-19897524D02*
X22741667Y-19926095D01*
X22741667Y-19926095D02*
X22722619Y-19945143D01*
X22722619Y-19945143D02*
X22703572Y-19954667D01*
X22894048Y-19916571D02*
X22903572Y-19907048D01*
X22903572Y-19907048D02*
X22922619Y-19897524D01*
X22922619Y-19897524D02*
X22970238Y-19897524D01*
X22970238Y-19897524D02*
X22989286Y-19907048D01*
X22989286Y-19907048D02*
X22998810Y-19916571D01*
X22998810Y-19916571D02*
X23008333Y-19935619D01*
X23008333Y-19935619D02*
X23008333Y-19954667D01*
X23008333Y-19954667D02*
X22998810Y-19983238D01*
X22998810Y-19983238D02*
X22884524Y-20097524D01*
X22884524Y-20097524D02*
X23008333Y-20097524D01*
X23179762Y-19897524D02*
X23141667Y-19897524D01*
X23141667Y-19897524D02*
X23122619Y-19907048D01*
X23122619Y-19907048D02*
X23113095Y-19916571D01*
X23113095Y-19916571D02*
X23094048Y-19945143D01*
X23094048Y-19945143D02*
X23084524Y-19983238D01*
X23084524Y-19983238D02*
X23084524Y-20059429D01*
X23084524Y-20059429D02*
X23094048Y-20078476D01*
X23094048Y-20078476D02*
X23103572Y-20088000D01*
X23103572Y-20088000D02*
X23122619Y-20097524D01*
X23122619Y-20097524D02*
X23160714Y-20097524D01*
X23160714Y-20097524D02*
X23179762Y-20088000D01*
X23179762Y-20088000D02*
X23189286Y-20078476D01*
X23189286Y-20078476D02*
X23198810Y-20059429D01*
X23198810Y-20059429D02*
X23198810Y-20011810D01*
X23198810Y-20011810D02*
X23189286Y-19992762D01*
X23189286Y-19992762D02*
X23179762Y-19983238D01*
X23179762Y-19983238D02*
X23160714Y-19973714D01*
X23160714Y-19973714D02*
X23122619Y-19973714D01*
X23122619Y-19973714D02*
X23103572Y-19983238D01*
X23103572Y-19983238D02*
X23094048Y-19992762D01*
X23094048Y-19992762D02*
X23084524Y-20011810D01*
X23322619Y-19897524D02*
X23341667Y-19897524D01*
X23341667Y-19897524D02*
X23360714Y-19907048D01*
X23360714Y-19907048D02*
X23370238Y-19916571D01*
X23370238Y-19916571D02*
X23379762Y-19935619D01*
X23379762Y-19935619D02*
X23389286Y-19973714D01*
X23389286Y-19973714D02*
X23389286Y-20021333D01*
X23389286Y-20021333D02*
X23379762Y-20059429D01*
X23379762Y-20059429D02*
X23370238Y-20078476D01*
X23370238Y-20078476D02*
X23360714Y-20088000D01*
X23360714Y-20088000D02*
X23341667Y-20097524D01*
X23341667Y-20097524D02*
X23322619Y-20097524D01*
X23322619Y-20097524D02*
X23303572Y-20088000D01*
X23303572Y-20088000D02*
X23294048Y-20078476D01*
X23294048Y-20078476D02*
X23284524Y-20059429D01*
X23284524Y-20059429D02*
X23275000Y-20021333D01*
X23275000Y-20021333D02*
X23275000Y-19973714D01*
X23275000Y-19973714D02*
X23284524Y-19935619D01*
X23284524Y-19935619D02*
X23294048Y-19916571D01*
X23294048Y-19916571D02*
X23303572Y-19907048D01*
X23303572Y-19907048D02*
X23322619Y-19897524D01*
X23465476Y-19897524D02*
X23465476Y-19935619D01*
X23541667Y-19897524D02*
X23541667Y-19935619D01*
X23836905Y-20173714D02*
X23827381Y-20164190D01*
X23827381Y-20164190D02*
X23808334Y-20135619D01*
X23808334Y-20135619D02*
X23798810Y-20116571D01*
X23798810Y-20116571D02*
X23789286Y-20088000D01*
X23789286Y-20088000D02*
X23779762Y-20040381D01*
X23779762Y-20040381D02*
X23779762Y-20002286D01*
X23779762Y-20002286D02*
X23789286Y-19954667D01*
X23789286Y-19954667D02*
X23798810Y-19926095D01*
X23798810Y-19926095D02*
X23808334Y-19907048D01*
X23808334Y-19907048D02*
X23827381Y-19878476D01*
X23827381Y-19878476D02*
X23836905Y-19868952D01*
X23998810Y-19964190D02*
X23998810Y-20097524D01*
X23951191Y-19888000D02*
X23903572Y-20030857D01*
X23903572Y-20030857D02*
X24027381Y-20030857D01*
X24255953Y-20097524D02*
X24255953Y-19897524D01*
X24341667Y-20097524D02*
X24341667Y-19992762D01*
X24341667Y-19992762D02*
X24332143Y-19973714D01*
X24332143Y-19973714D02*
X24313096Y-19964190D01*
X24313096Y-19964190D02*
X24284524Y-19964190D01*
X24284524Y-19964190D02*
X24265476Y-19973714D01*
X24265476Y-19973714D02*
X24255953Y-19983238D01*
X24465476Y-20097524D02*
X24446429Y-20088000D01*
X24446429Y-20088000D02*
X24436905Y-20078476D01*
X24436905Y-20078476D02*
X24427381Y-20059429D01*
X24427381Y-20059429D02*
X24427381Y-20002286D01*
X24427381Y-20002286D02*
X24436905Y-19983238D01*
X24436905Y-19983238D02*
X24446429Y-19973714D01*
X24446429Y-19973714D02*
X24465476Y-19964190D01*
X24465476Y-19964190D02*
X24494048Y-19964190D01*
X24494048Y-19964190D02*
X24513096Y-19973714D01*
X24513096Y-19973714D02*
X24522619Y-19983238D01*
X24522619Y-19983238D02*
X24532143Y-20002286D01*
X24532143Y-20002286D02*
X24532143Y-20059429D01*
X24532143Y-20059429D02*
X24522619Y-20078476D01*
X24522619Y-20078476D02*
X24513096Y-20088000D01*
X24513096Y-20088000D02*
X24494048Y-20097524D01*
X24494048Y-20097524D02*
X24465476Y-20097524D01*
X24646429Y-20097524D02*
X24627381Y-20088000D01*
X24627381Y-20088000D02*
X24617857Y-20068952D01*
X24617857Y-20068952D02*
X24617857Y-19897524D01*
X24798810Y-20088000D02*
X24779762Y-20097524D01*
X24779762Y-20097524D02*
X24741667Y-20097524D01*
X24741667Y-20097524D02*
X24722619Y-20088000D01*
X24722619Y-20088000D02*
X24713096Y-20068952D01*
X24713096Y-20068952D02*
X24713096Y-19992762D01*
X24713096Y-19992762D02*
X24722619Y-19973714D01*
X24722619Y-19973714D02*
X24741667Y-19964190D01*
X24741667Y-19964190D02*
X24779762Y-19964190D01*
X24779762Y-19964190D02*
X24798810Y-19973714D01*
X24798810Y-19973714D02*
X24808334Y-19992762D01*
X24808334Y-19992762D02*
X24808334Y-20011810D01*
X24808334Y-20011810D02*
X24713096Y-20030857D01*
X24884524Y-20088000D02*
X24903572Y-20097524D01*
X24903572Y-20097524D02*
X24941667Y-20097524D01*
X24941667Y-20097524D02*
X24960715Y-20088000D01*
X24960715Y-20088000D02*
X24970238Y-20068952D01*
X24970238Y-20068952D02*
X24970238Y-20059429D01*
X24970238Y-20059429D02*
X24960715Y-20040381D01*
X24960715Y-20040381D02*
X24941667Y-20030857D01*
X24941667Y-20030857D02*
X24913096Y-20030857D01*
X24913096Y-20030857D02*
X24894048Y-20021333D01*
X24894048Y-20021333D02*
X24884524Y-20002286D01*
X24884524Y-20002286D02*
X24884524Y-19992762D01*
X24884524Y-19992762D02*
X24894048Y-19973714D01*
X24894048Y-19973714D02*
X24913096Y-19964190D01*
X24913096Y-19964190D02*
X24941667Y-19964190D01*
X24941667Y-19964190D02*
X24960715Y-19973714D01*
X25036905Y-20173714D02*
X25046429Y-20164190D01*
X25046429Y-20164190D02*
X25065477Y-20135619D01*
X25065477Y-20135619D02*
X25075000Y-20116571D01*
X25075000Y-20116571D02*
X25084524Y-20088000D01*
X25084524Y-20088000D02*
X25094048Y-20040381D01*
X25094048Y-20040381D02*
X25094048Y-20002286D01*
X25094048Y-20002286D02*
X25084524Y-19954667D01*
X25084524Y-19954667D02*
X25075000Y-19926095D01*
X25075000Y-19926095D02*
X25065477Y-19907048D01*
X25065477Y-19907048D02*
X25046429Y-19878476D01*
X25046429Y-19878476D02*
X25036905Y-19868952D01*
X25398810Y-20173714D02*
X25389286Y-20164190D01*
X25389286Y-20164190D02*
X25370238Y-20135619D01*
X25370238Y-20135619D02*
X25360715Y-20116571D01*
X25360715Y-20116571D02*
X25351191Y-20088000D01*
X25351191Y-20088000D02*
X25341667Y-20040381D01*
X25341667Y-20040381D02*
X25341667Y-20002286D01*
X25341667Y-20002286D02*
X25351191Y-19954667D01*
X25351191Y-19954667D02*
X25360715Y-19926095D01*
X25360715Y-19926095D02*
X25370238Y-19907048D01*
X25370238Y-19907048D02*
X25389286Y-19878476D01*
X25389286Y-19878476D02*
X25398810Y-19868952D01*
X25475000Y-19964190D02*
X25475000Y-20097524D01*
X25475000Y-19983238D02*
X25484524Y-19973714D01*
X25484524Y-19973714D02*
X25503572Y-19964190D01*
X25503572Y-19964190D02*
X25532143Y-19964190D01*
X25532143Y-19964190D02*
X25551191Y-19973714D01*
X25551191Y-19973714D02*
X25560715Y-19992762D01*
X25560715Y-19992762D02*
X25560715Y-20097524D01*
X25684524Y-20097524D02*
X25665477Y-20088000D01*
X25665477Y-20088000D02*
X25655953Y-20078476D01*
X25655953Y-20078476D02*
X25646429Y-20059429D01*
X25646429Y-20059429D02*
X25646429Y-20002286D01*
X25646429Y-20002286D02*
X25655953Y-19983238D01*
X25655953Y-19983238D02*
X25665477Y-19973714D01*
X25665477Y-19973714D02*
X25684524Y-19964190D01*
X25684524Y-19964190D02*
X25713096Y-19964190D01*
X25713096Y-19964190D02*
X25732143Y-19973714D01*
X25732143Y-19973714D02*
X25741667Y-19983238D01*
X25741667Y-19983238D02*
X25751191Y-20002286D01*
X25751191Y-20002286D02*
X25751191Y-20059429D01*
X25751191Y-20059429D02*
X25741667Y-20078476D01*
X25741667Y-20078476D02*
X25732143Y-20088000D01*
X25732143Y-20088000D02*
X25713096Y-20097524D01*
X25713096Y-20097524D02*
X25684524Y-20097524D01*
X25808334Y-19964190D02*
X25884524Y-19964190D01*
X25836905Y-19897524D02*
X25836905Y-20068952D01*
X25836905Y-20068952D02*
X25846429Y-20088000D01*
X25846429Y-20088000D02*
X25865477Y-20097524D01*
X25865477Y-20097524D02*
X25884524Y-20097524D01*
X26103572Y-19964190D02*
X26103572Y-20164190D01*
X26103572Y-19973714D02*
X26122619Y-19964190D01*
X26122619Y-19964190D02*
X26160715Y-19964190D01*
X26160715Y-19964190D02*
X26179762Y-19973714D01*
X26179762Y-19973714D02*
X26189286Y-19983238D01*
X26189286Y-19983238D02*
X26198810Y-20002286D01*
X26198810Y-20002286D02*
X26198810Y-20059429D01*
X26198810Y-20059429D02*
X26189286Y-20078476D01*
X26189286Y-20078476D02*
X26179762Y-20088000D01*
X26179762Y-20088000D02*
X26160715Y-20097524D01*
X26160715Y-20097524D02*
X26122619Y-20097524D01*
X26122619Y-20097524D02*
X26103572Y-20088000D01*
X26313096Y-20097524D02*
X26294048Y-20088000D01*
X26294048Y-20088000D02*
X26284524Y-20068952D01*
X26284524Y-20068952D02*
X26284524Y-19897524D01*
X26475000Y-20097524D02*
X26475000Y-19992762D01*
X26475000Y-19992762D02*
X26465477Y-19973714D01*
X26465477Y-19973714D02*
X26446429Y-19964190D01*
X26446429Y-19964190D02*
X26408334Y-19964190D01*
X26408334Y-19964190D02*
X26389286Y-19973714D01*
X26475000Y-20088000D02*
X26455953Y-20097524D01*
X26455953Y-20097524D02*
X26408334Y-20097524D01*
X26408334Y-20097524D02*
X26389286Y-20088000D01*
X26389286Y-20088000D02*
X26379762Y-20068952D01*
X26379762Y-20068952D02*
X26379762Y-20049905D01*
X26379762Y-20049905D02*
X26389286Y-20030857D01*
X26389286Y-20030857D02*
X26408334Y-20021333D01*
X26408334Y-20021333D02*
X26455953Y-20021333D01*
X26455953Y-20021333D02*
X26475000Y-20011810D01*
X26541667Y-19964190D02*
X26617858Y-19964190D01*
X26570239Y-19897524D02*
X26570239Y-20068952D01*
X26570239Y-20068952D02*
X26579762Y-20088000D01*
X26579762Y-20088000D02*
X26598810Y-20097524D01*
X26598810Y-20097524D02*
X26617858Y-20097524D01*
X26760715Y-20088000D02*
X26741667Y-20097524D01*
X26741667Y-20097524D02*
X26703572Y-20097524D01*
X26703572Y-20097524D02*
X26684524Y-20088000D01*
X26684524Y-20088000D02*
X26675000Y-20068952D01*
X26675000Y-20068952D02*
X26675000Y-19992762D01*
X26675000Y-19992762D02*
X26684524Y-19973714D01*
X26684524Y-19973714D02*
X26703572Y-19964190D01*
X26703572Y-19964190D02*
X26741667Y-19964190D01*
X26741667Y-19964190D02*
X26760715Y-19973714D01*
X26760715Y-19973714D02*
X26770239Y-19992762D01*
X26770239Y-19992762D02*
X26770239Y-20011810D01*
X26770239Y-20011810D02*
X26675000Y-20030857D01*
X26941667Y-20097524D02*
X26941667Y-19897524D01*
X26941667Y-20088000D02*
X26922620Y-20097524D01*
X26922620Y-20097524D02*
X26884524Y-20097524D01*
X26884524Y-20097524D02*
X26865477Y-20088000D01*
X26865477Y-20088000D02*
X26855953Y-20078476D01*
X26855953Y-20078476D02*
X26846429Y-20059429D01*
X26846429Y-20059429D02*
X26846429Y-20002286D01*
X26846429Y-20002286D02*
X26855953Y-19983238D01*
X26855953Y-19983238D02*
X26865477Y-19973714D01*
X26865477Y-19973714D02*
X26884524Y-19964190D01*
X26884524Y-19964190D02*
X26922620Y-19964190D01*
X26922620Y-19964190D02*
X26941667Y-19973714D01*
X27017858Y-20173714D02*
X27027381Y-20164190D01*
X27027381Y-20164190D02*
X27046429Y-20135619D01*
X27046429Y-20135619D02*
X27055953Y-20116571D01*
X27055953Y-20116571D02*
X27065477Y-20088000D01*
X27065477Y-20088000D02*
X27075000Y-20040381D01*
X27075000Y-20040381D02*
X27075000Y-20002286D01*
X27075000Y-20002286D02*
X27065477Y-19954667D01*
X27065477Y-19954667D02*
X27055953Y-19926095D01*
X27055953Y-19926095D02*
X27046429Y-19907048D01*
X27046429Y-19907048D02*
X27027381Y-19878476D01*
X27027381Y-19878476D02*
X27017858Y-19868952D01*
M02*
