M48
; DRILL file {KiCad 7.0.2-0} date 2024 May 03, Friday 02:11:53
; FORMAT={-:-/ absolute / inch / decimal}
; #@! TF.CreationDate,2024-05-03T02:11:53-07:00
; #@! TF.GenerationSoftware,Kicad,Pcbnew,7.0.2-0
; #@! TF.FileFunction,Plated,1,2,PTH
FMAT,2
INCH
; #@! TA.AperFunction,Plated,PTH,ViaDrill
T1C0.0157
; #@! TA.AperFunction,Plated,PTH,ViaDrill
T2C0.0315
; #@! TA.AperFunction,Plated,PTH,ComponentDrill
T3C0.0394
; #@! TA.AperFunction,Plated,PTH,ComponentDrill
T4C0.0472
; #@! TA.AperFunction,Plated,PTH,ViaDrill
T5C0.0630
%
G90
G05
T1
X8.9488Y-5.5472
X8.9882Y-5.6417
X9.0157Y-5.6063
X9.0433Y-5.5748
X9.0669Y-5.5433
X9.1299Y-5.5433
X9.1457Y-5.783
X9.2717Y-5.6969
X9.2717Y-5.7402
X9.3189Y-5.5236
X9.3228Y-5.4685
X9.3425Y-5.6181
X9.3701Y-5.5748
X9.3976Y-5.4685
X9.4016Y-5.6181
X9.5551Y-5.4606
X9.563Y-5.7559
X9.5984Y-5.4213
X9.7559Y-5.4409
X9.7559Y-5.5984
X9.8071Y-5.6378
X9.8661Y-5.5118
X9.8661Y-5.5748
X9.9331Y-5.6378
X10.0079Y-5.6378
X10.0866Y-5.8543
X10.0906Y-5.5866
T2
X8.1654Y-6.9331
X9.7323Y-6.8898
X10.563Y-6.8937
X11.3583Y-6.8976
X11.7047Y-5.9764
X11.7047Y-6.1654
X11.7362Y-6.5866
X11.7362Y-6.8228
X11.8425Y-6.3307
X11.8819Y-6.1299
X12.5236Y-6.8228
X12.5236Y-6.9252
X12.5236Y-7.0236
X12.6181Y-7.5472
T3
X9.1772Y-5.3386
X9.2772Y-5.3386
X9.3772Y-5.3386
X9.4772Y-5.3386
T4
X8.1056Y-5.7638
X8.1056Y-5.9606
X8.1056Y-6.252
X8.1056Y-6.4488
X8.4954Y-5.7638
X8.4954Y-5.9606
X8.4954Y-6.252
X8.4954Y-6.4488
X8.5591Y-7.1109
X8.5591Y-7.5007
X8.7559Y-7.1109
X8.7559Y-7.5007
X9.0453Y-7.1109
X9.0453Y-7.5007
X9.2421Y-7.1109
X9.2421Y-7.5007
X9.5315Y-7.1109
X9.5315Y-7.5007
X9.7283Y-7.1109
X9.7283Y-7.5007
X10.0177Y-7.1109
X10.0177Y-7.5007
X10.2146Y-7.1109
X10.2146Y-7.5007
X10.5039Y-7.1109
X10.5039Y-7.5007
X10.7008Y-7.1109
X10.7008Y-7.5007
X10.9803Y-7.1109
X10.9803Y-7.5007
X11.1772Y-7.1109
X11.1772Y-7.5007
X11.4665Y-7.1109
X11.4665Y-7.5007
X11.6634Y-7.1109
X11.6634Y-7.5007
X11.9528Y-7.1109
X11.9528Y-7.5007
X12.1496Y-7.1109
X12.1496Y-7.5007
T5
X8.6339Y-5.9606
X8.6339Y-6.0669
X8.6339Y-6.1732
X8.6339Y-6.311
X8.6339Y-6.4173
X8.6339Y-6.5276
X9.4606Y-5.9724
X9.4606Y-6.0748
X9.4606Y-6.1732
X9.4606Y-6.3268
X9.4606Y-6.4291
X9.4606Y-6.5276
X11.2835Y-5.9685
X11.2835Y-6.0709
X11.2835Y-6.1693
X11.2835Y-6.3228
X11.2835Y-6.4252
X11.2835Y-6.5236
T0
M30
