M48
; DRILL file {KiCad 8.0.3} date 2024-07-14T18:55:33-0700
; FORMAT={-:-/ absolute / inch / decimal}
; #@! TF.CreationDate,2024-07-14T18:55:33-07:00
; #@! TF.GenerationSoftware,Kicad,Pcbnew,8.0.3
; #@! TF.FileFunction,Plated,1,4,PTH
FMAT,2
INCH
; #@! TA.AperFunction,Plated,PTH,ViaDrill
T1C0.0118
; #@! TA.AperFunction,Plated,PTH,ComponentDrill
T2C0.0315
; #@! TA.AperFunction,Plated,PTH,ComponentDrill
T3C0.0394
; #@! TA.AperFunction,Plated,PTH,ComponentDrill
T4C0.0400
; #@! TA.AperFunction,Plated,PTH,ComponentDrill
T5C0.0433
; #@! TA.AperFunction,Plated,PTH,ComponentDrill
T6C0.1300
%
G90
G05
T1
X5.4146Y-7.4289
X5.424Y-7.1335
X5.4444Y-7.0654
X5.4444Y-7.4137
X5.47Y-6.24
X5.6386Y-6.739
X5.67Y-6.75
X5.77Y-6.76
X5.8158Y-6.7504
X5.83Y-6.24
X5.83Y-6.4
X5.8366Y-7.3543
X5.8556Y-6.5067
X5.8556Y-6.6111
X5.8988Y-7.422
X5.9Y-7.3827
X5.9604Y-7.3575
X6.05Y-7.9
X6.0604Y-7.3535
X6.1Y-7.92
X6.1208Y-7.9454
X6.1604Y-7.3543
X6.18Y-7.9
X6.1815Y-7.9827
X6.2144Y-7.3951
X6.2144Y-7.442
X6.23Y-7.48
X6.24Y-6.79
X6.24Y-6.93
X6.2641Y-7.9728
X6.2717Y-6.8008
X6.2854Y-7.0744
X6.29Y-6.23
X6.3256Y-6.7732
X6.3385Y-6.8948
X6.3416Y-6.9699
X6.3606Y-7.7984
X6.3618Y-7.7055
X6.3858Y-6.724
X6.3969Y-7.0004
X6.4785Y-7.9847
X6.5087Y-8.0149
X6.5173Y-8.0535
X6.5783Y-6.7417
X6.6Y-7.82
X6.61Y-7.87
X6.613Y-8.0898
X6.6158Y-6.8311
X6.6575Y-7.3819
X6.7Y-7.9
X6.7335Y-6.8551
X6.7354Y-6.7299
X6.7354Y-8.0457
X6.7465Y-7.952
X6.7642Y-7.8638
X6.7882Y-6.7323
X6.7894Y-6.8587
X6.8358Y-7.861
X6.8374Y-7.9547
X6.939Y-8.4303
X6.99Y-6.87
X7.0204Y-6.8034
X7.0775Y-8.1237
X7.21Y-6.82
X7.2213Y-8.385
X7.2559Y-8.3614
X7.3106Y-8.3122
X7.5228Y-8.4976
X7.5255Y-8.531
X7.5277Y-8.5977
X7.529Y-8.5643
X7.5587Y-8.4004
X7.5839Y-8.4382
X7.6055Y-8.487
X7.6497Y-8.577
X7.6513Y-8.6148
X7.6792Y-8.5613
X7.7306Y-8.5868
X7.8165Y-8.2236
X7.8311Y-8.5228
X7.8563Y-8.2705
X7.89Y-6.63
X7.9024Y-8.2831
X7.9323Y-8.2492
X7.9429Y-8.5484
X8.1292Y-6.5071
X8.2Y-8.15
X8.2801Y-8.661
X8.3Y-6.78
X8.34Y-8.15
X8.35Y-6.76
X8.387Y-8.1706
X8.43Y-8.2
X8.46Y-8.12
X8.48Y-6.77
X8.5Y-6.8
X8.71Y-7.05
X8.7444Y-7.2351
X8.82Y-6.77
X8.83Y-7.2387
X8.87Y-7.04
X8.93Y-6.98
X8.9569Y-7.0131
X8.97Y-6.92
X8.9815Y-7.06
X9.0091Y-7.1031
X9.1Y-7.22
X9.11Y-7.03
X9.13Y-6.94
X9.17Y-7.06
X9.21Y-6.77
T2
X5.1892Y-7.8268
X5.1892Y-7.9268
X5.6711Y-7.6728
X5.6711Y-7.7515
X5.6711Y-7.8303
X5.7498Y-7.6728
X5.7498Y-7.7515
X5.7498Y-7.8303
T3
X5.1228Y-8.48
X5.1228Y-8.58
X5.1811Y-6.8331
X5.1811Y-6.9331
X5.1811Y-7.0331
X5.1811Y-7.1331
X5.1811Y-7.2331
X5.1811Y-7.3331
X5.2228Y-8.48
X5.2228Y-8.58
X5.3228Y-8.48
X5.3228Y-8.58
X5.4228Y-8.48
X5.4228Y-8.58
X5.5228Y-8.48
X5.5228Y-8.58
X5.5642Y-6.9423
X5.5642Y-7.0423
X5.5642Y-7.1423
X5.5703Y-6.3476
X5.5703Y-6.4476
X5.5703Y-6.5476
X5.5703Y-6.6476
X5.6228Y-8.48
X5.6228Y-8.58
X5.7213Y-6.9423
X5.7213Y-7.0423
X5.7213Y-7.1423
X5.7228Y-8.48
X5.7228Y-8.58
X5.7266Y-6.3492
X5.7266Y-6.4492
X5.7266Y-6.5492
X5.7266Y-6.6492
X5.8228Y-8.48
X5.8228Y-8.58
X5.9693Y-8.5209
X5.9693Y-8.6209
X6.0358Y-6.3531
X6.0358Y-6.4531
X6.0358Y-6.5531
X6.0358Y-6.6531
X6.0693Y-8.5209
X6.0693Y-8.6209
X6.1693Y-8.5209
X6.1693Y-8.6209
X6.1923Y-6.3528
X6.1923Y-6.4528
X6.1923Y-6.5528
X6.1923Y-6.6528
X6.2693Y-8.5209
X6.2693Y-8.6209
X6.3693Y-8.5209
X6.3693Y-8.6209
X6.4693Y-8.5209
X6.4693Y-8.6209
X6.4986Y-6.351
X6.4986Y-6.451
X6.4986Y-6.551
X6.4986Y-6.651
X6.4986Y-6.9356
X6.4986Y-7.0356
X6.4986Y-7.1356
X6.5693Y-8.5209
X6.5693Y-8.6209
X6.6537Y-6.9356
X6.6537Y-7.0356
X6.6537Y-7.1356
X6.6593Y-6.351
X6.6593Y-6.451
X6.6593Y-6.551
X6.6593Y-6.651
X6.6693Y-8.5209
X6.6693Y-8.6209
X6.7693Y-8.5209
X6.7693Y-8.6209
X6.8693Y-8.5209
X6.8693Y-8.6209
X6.9693Y-8.5209
X6.9693Y-8.6209
X7.1339Y-6.3593
X7.1339Y-6.4593
X7.1339Y-6.5593
X7.1339Y-6.6593
X7.1339Y-6.7593
X7.1339Y-6.8593
X7.1348Y-7.1565
X7.1348Y-7.2565
X7.1348Y-7.3565
X7.3159Y-7.1565
X7.3159Y-7.2565
X7.3159Y-7.3565
X7.3163Y-6.3593
X7.3163Y-6.4593
X7.3163Y-6.5593
X7.3163Y-6.6593
X7.3163Y-6.7593
X7.3163Y-6.8593
X7.4987Y-6.3593
X7.4987Y-6.4593
X7.4987Y-6.5593
X7.4987Y-6.6593
X7.4987Y-6.7593
X7.4987Y-6.8593
X7.6323Y-7.2734
X7.6811Y-6.3593
X7.6811Y-6.4593
X7.6811Y-6.5593
X7.6811Y-6.6593
X7.6811Y-6.7593
X7.6811Y-6.8593
X7.7323Y-7.2734
X8.0442Y-8.2537
X8.0442Y-8.3537
X8.0442Y-8.4537
X8.2022Y-7.8148
X8.2022Y-7.9148
X8.2022Y-8.0148
X8.2022Y-8.2537
X8.2022Y-8.3537
X8.2022Y-8.4537
X8.3603Y-7.8148
X8.3603Y-7.9148
X8.3603Y-8.0148
X8.3603Y-8.2537
X8.3603Y-8.3537
X8.3603Y-8.4537
X8.5183Y-8.2537
X8.5183Y-8.3537
X8.5183Y-8.4537
X8.6764Y-8.2537
X8.6764Y-8.3537
X8.6764Y-8.4537
X8.8345Y-8.2537
X8.8345Y-8.3537
X8.8345Y-8.4537
X8.936Y-7.822
X8.936Y-7.922
X8.936Y-8.022
X8.9925Y-8.2537
X8.9925Y-8.3537
X8.9925Y-8.4537
X9.1093Y-7.822
X9.1093Y-7.922
X9.1093Y-8.022
X9.1506Y-8.2537
X9.1506Y-8.3537
X9.1506Y-8.4537
X9.4709Y-7.2541
X9.4709Y-7.3541
X9.4709Y-7.4541
X9.4709Y-7.5541
X9.4709Y-7.6541
X9.4709Y-7.7541
X9.4709Y-7.8541
X9.4709Y-7.9541
X9.5248Y-6.3819
X9.5248Y-6.4819
X9.5248Y-6.5819
X9.5248Y-6.6819
X9.5709Y-7.2541
X9.5709Y-7.3541
X9.5709Y-7.4541
X9.5709Y-7.5541
X9.5709Y-7.6541
X9.5709Y-7.7541
X9.5709Y-7.8541
X9.5709Y-7.9541
X9.6756Y-6.3819
X9.6756Y-6.4819
X9.6756Y-6.5819
X9.6756Y-6.6819
T4
X7.9618Y-6.5457
X7.9618Y-6.7457
X7.9618Y-6.8457
X7.9618Y-7.1457
X8.0618Y-6.5457
X8.0618Y-7.1457
X8.0618Y-7.6057
X8.1618Y-6.5457
X8.1618Y-7.1457
X8.1618Y-7.6057
X8.2618Y-6.5457
X8.2618Y-7.1457
X8.2618Y-7.6057
X8.3618Y-6.5457
X8.3618Y-7.1457
X8.4118Y-6.2957
X8.4118Y-6.3957
X8.4618Y-6.5457
X8.4618Y-7.1457
X8.5118Y-6.2957
X8.5118Y-6.3957
X8.5618Y-6.5457
X8.5618Y-7.1457
X8.6118Y-6.2957
X8.6118Y-6.3957
X8.6618Y-6.5457
X8.6618Y-7.1457
X8.7118Y-6.3957
X8.7618Y-6.5457
X8.7618Y-7.1457
X8.8118Y-6.2957
X8.8118Y-6.3957
X8.8618Y-6.5457
X8.8618Y-7.1457
X8.9378Y-7.3698
X8.9378Y-7.4714
X8.9378Y-7.5713
X8.9618Y-6.5457
X8.9618Y-7.1457
X9.0618Y-6.5457
X9.0618Y-7.1457
X9.1618Y-6.5457
X9.1618Y-7.1457
X9.2618Y-6.5457
X9.2618Y-7.1457
T5
X5.1604Y-7.5768
X5.1604Y-8.1768
X5.2604Y-7.5768
X5.2604Y-7.6768
X5.2604Y-8.1768
X5.3604Y-7.5768
X5.3604Y-8.1768
X5.4084Y-8.0567
X5.4604Y-7.5768
X5.4604Y-8.1768
X5.5084Y-8.0567
X5.5604Y-7.5768
X5.5604Y-8.1768
X5.6084Y-8.0567
X5.6604Y-7.5768
X5.6604Y-8.1768
X5.7084Y-8.0567
X5.7604Y-7.5768
X5.7604Y-8.1768
X5.8084Y-8.0567
X5.8604Y-7.5768
X5.8604Y-8.1768
X5.9604Y-7.5768
X5.9604Y-8.1768
X6.0604Y-7.5768
X6.0604Y-8.1768
X6.1604Y-7.5768
X6.1604Y-8.1768
X6.2604Y-7.5768
X6.2604Y-8.1768
X6.3604Y-7.5768
X6.3604Y-8.1768
X6.4604Y-7.5768
X6.4604Y-8.1768
X6.5604Y-7.5768
X6.5604Y-8.1768
X6.6604Y-7.5768
X6.6604Y-8.1768
X6.7604Y-7.5768
X6.7604Y-8.1768
X6.8604Y-7.5768
X6.8604Y-8.1768
X6.9604Y-7.5768
X6.9604Y-7.6768
X6.9604Y-7.7768
X6.9604Y-7.8768
X6.9604Y-7.9768
X6.9604Y-8.0768
X6.9604Y-8.1768
X7.0604Y-7.5768
X7.0604Y-8.1768
X7.1604Y-7.5768
X7.1604Y-8.1768
X7.2604Y-7.5768
X7.2604Y-8.1768
X7.3604Y-7.5768
X7.3604Y-8.1768
X7.4604Y-7.5768
X7.4604Y-8.1768
T6
X8.036Y-6.3179
X8.6846Y-7.5193
X9.1871Y-6.3171
M30
