%TF.GenerationSoftware,KiCad,Pcbnew,8.0.3*%
%TF.CreationDate,2025-06-04T12:00:15-07:00*%
%TF.ProjectId,Power_Distribution,506f7765-725f-4446-9973-747269627574,rev?*%
%TF.SameCoordinates,Original*%
%TF.FileFunction,Drillmap*%
%TF.FilePolarity,Positive*%
%FSLAX45Y45*%
G04 Gerber Fmt 4.5, Leading zero omitted, Abs format (unit mm)*
G04 Created by KiCad (PCBNEW 8.0.3) date 2025-06-04 12:00:15*
%MOMM*%
%LPD*%
G01*
G04 APERTURE LIST*
%ADD10C,0.100000*%
%ADD11C,0.200000*%
%ADD12C,0.106680*%
%ADD13C,0.320000*%
G04 APERTURE END LIST*
D10*
X8153640Y-5227320D02*
X21153640Y-5227320D01*
X21153640Y-11328920D01*
X8153640Y-11328920D01*
X8153640Y-5227320D01*
D11*
D12*
X8820660Y-8901660D02*
X8927340Y-9008340D01*
X8927340Y-8901660D02*
X8820660Y-9008340D01*
X8820660Y-9501660D02*
X8927340Y-9608340D01*
X8927340Y-9501660D02*
X8820660Y-9608340D01*
X8820660Y-9705660D02*
X8927340Y-9812340D01*
X8927340Y-9705660D02*
X8820660Y-9812340D01*
X8820660Y-10305660D02*
X8927340Y-10412340D01*
X8927340Y-10305660D02*
X8820660Y-10412340D01*
X13419980Y-9392660D02*
X13526660Y-9499340D01*
X13526660Y-9392660D02*
X13419980Y-9499340D01*
X14019980Y-9392660D02*
X14126660Y-9499340D01*
X14126660Y-9392660D02*
X14019980Y-9499340D01*
X14297540Y-9392660D02*
X14404220Y-9499340D01*
X14404220Y-9392660D02*
X14297540Y-9499340D01*
X14897540Y-9392660D02*
X15004220Y-9499340D01*
X15004220Y-9392660D02*
X14897540Y-9499340D01*
X15175100Y-9392660D02*
X15281780Y-9499340D01*
X15281780Y-9392660D02*
X15175100Y-9499340D01*
X15775100Y-9392660D02*
X15881780Y-9499340D01*
X15881780Y-9392660D02*
X15775100Y-9499340D01*
X16052660Y-9391660D02*
X16159340Y-9498340D01*
X16159340Y-9391660D02*
X16052660Y-9498340D01*
X16652660Y-9391660D02*
X16759340Y-9498340D01*
X16759340Y-9391660D02*
X16652660Y-9498340D01*
X20314660Y-8784660D02*
X20421340Y-8891340D01*
X20421340Y-8784660D02*
X20314660Y-8891340D01*
X20314660Y-9384660D02*
X20421340Y-9491340D01*
X20421340Y-9384660D02*
X20314660Y-9491340D01*
X20314660Y-9597660D02*
X20421340Y-9704340D01*
X20421340Y-9597660D02*
X20314660Y-9704340D01*
X20314660Y-10197660D02*
X20421340Y-10304340D01*
X20421340Y-10197660D02*
X20314660Y-10304340D01*
D13*
X9944000Y-10754000D02*
G75*
G02*
X9624000Y-10754000I-160000J0D01*
G01*
X9624000Y-10754000D02*
G75*
G02*
X9944000Y-10754000I160000J0D01*
G01*
X13144000Y-10754000D02*
G75*
G02*
X12824000Y-10754000I-160000J0D01*
G01*
X12824000Y-10754000D02*
G75*
G02*
X13144000Y-10754000I160000J0D01*
G01*
X17944000Y-10754000D02*
G75*
G02*
X17624000Y-10754000I-160000J0D01*
G01*
X17624000Y-10754000D02*
G75*
G02*
X17944000Y-10754000I160000J0D01*
G01*
D11*
X8409417Y-11645404D02*
X8409417Y-11445404D01*
X8409417Y-11445404D02*
X8457036Y-11445404D01*
X8457036Y-11445404D02*
X8485607Y-11454928D01*
X8485607Y-11454928D02*
X8504655Y-11473975D01*
X8504655Y-11473975D02*
X8514179Y-11493023D01*
X8514179Y-11493023D02*
X8523703Y-11531118D01*
X8523703Y-11531118D02*
X8523703Y-11559689D01*
X8523703Y-11559689D02*
X8514179Y-11597785D01*
X8514179Y-11597785D02*
X8504655Y-11616832D01*
X8504655Y-11616832D02*
X8485607Y-11635880D01*
X8485607Y-11635880D02*
X8457036Y-11645404D01*
X8457036Y-11645404D02*
X8409417Y-11645404D01*
X8609417Y-11645404D02*
X8609417Y-11512070D01*
X8609417Y-11550166D02*
X8618941Y-11531118D01*
X8618941Y-11531118D02*
X8628464Y-11521594D01*
X8628464Y-11521594D02*
X8647512Y-11512070D01*
X8647512Y-11512070D02*
X8666560Y-11512070D01*
X8733226Y-11645404D02*
X8733226Y-11512070D01*
X8733226Y-11445404D02*
X8723703Y-11454928D01*
X8723703Y-11454928D02*
X8733226Y-11464451D01*
X8733226Y-11464451D02*
X8742750Y-11454928D01*
X8742750Y-11454928D02*
X8733226Y-11445404D01*
X8733226Y-11445404D02*
X8733226Y-11464451D01*
X8857036Y-11645404D02*
X8837988Y-11635880D01*
X8837988Y-11635880D02*
X8828464Y-11616832D01*
X8828464Y-11616832D02*
X8828464Y-11445404D01*
X8961798Y-11645404D02*
X8942750Y-11635880D01*
X8942750Y-11635880D02*
X8933226Y-11616832D01*
X8933226Y-11616832D02*
X8933226Y-11445404D01*
X9190369Y-11645404D02*
X9190369Y-11445404D01*
X9190369Y-11445404D02*
X9257036Y-11588261D01*
X9257036Y-11588261D02*
X9323703Y-11445404D01*
X9323703Y-11445404D02*
X9323703Y-11645404D01*
X9504655Y-11645404D02*
X9504655Y-11540642D01*
X9504655Y-11540642D02*
X9495131Y-11521594D01*
X9495131Y-11521594D02*
X9476084Y-11512070D01*
X9476084Y-11512070D02*
X9437988Y-11512070D01*
X9437988Y-11512070D02*
X9418941Y-11521594D01*
X9504655Y-11635880D02*
X9485607Y-11645404D01*
X9485607Y-11645404D02*
X9437988Y-11645404D01*
X9437988Y-11645404D02*
X9418941Y-11635880D01*
X9418941Y-11635880D02*
X9409417Y-11616832D01*
X9409417Y-11616832D02*
X9409417Y-11597785D01*
X9409417Y-11597785D02*
X9418941Y-11578737D01*
X9418941Y-11578737D02*
X9437988Y-11569213D01*
X9437988Y-11569213D02*
X9485607Y-11569213D01*
X9485607Y-11569213D02*
X9504655Y-11559689D01*
X9599893Y-11512070D02*
X9599893Y-11712070D01*
X9599893Y-11521594D02*
X9618941Y-11512070D01*
X9618941Y-11512070D02*
X9657036Y-11512070D01*
X9657036Y-11512070D02*
X9676084Y-11521594D01*
X9676084Y-11521594D02*
X9685607Y-11531118D01*
X9685607Y-11531118D02*
X9695131Y-11550166D01*
X9695131Y-11550166D02*
X9695131Y-11607308D01*
X9695131Y-11607308D02*
X9685607Y-11626356D01*
X9685607Y-11626356D02*
X9676084Y-11635880D01*
X9676084Y-11635880D02*
X9657036Y-11645404D01*
X9657036Y-11645404D02*
X9618941Y-11645404D01*
X9618941Y-11645404D02*
X9599893Y-11635880D01*
X9780845Y-11626356D02*
X9790369Y-11635880D01*
X9790369Y-11635880D02*
X9780845Y-11645404D01*
X9780845Y-11645404D02*
X9771322Y-11635880D01*
X9771322Y-11635880D02*
X9780845Y-11626356D01*
X9780845Y-11626356D02*
X9780845Y-11645404D01*
X9780845Y-11521594D02*
X9790369Y-11531118D01*
X9790369Y-11531118D02*
X9780845Y-11540642D01*
X9780845Y-11540642D02*
X9771322Y-11531118D01*
X9771322Y-11531118D02*
X9780845Y-11521594D01*
X9780845Y-11521594D02*
X9780845Y-11540642D01*
D12*
X8041960Y-11920580D02*
X8148640Y-12027260D01*
X8148640Y-11920580D02*
X8041960Y-12027260D01*
D11*
X8514179Y-12065404D02*
X8399893Y-12065404D01*
X8457036Y-12065404D02*
X8457036Y-11865404D01*
X8457036Y-11865404D02*
X8437988Y-11893975D01*
X8437988Y-11893975D02*
X8418941Y-11913023D01*
X8418941Y-11913023D02*
X8399893Y-11922547D01*
X8599893Y-12046356D02*
X8609417Y-12055880D01*
X8609417Y-12055880D02*
X8599893Y-12065404D01*
X8599893Y-12065404D02*
X8590369Y-12055880D01*
X8590369Y-12055880D02*
X8599893Y-12046356D01*
X8599893Y-12046356D02*
X8599893Y-12065404D01*
X8733226Y-11865404D02*
X8752274Y-11865404D01*
X8752274Y-11865404D02*
X8771322Y-11874928D01*
X8771322Y-11874928D02*
X8780845Y-11884451D01*
X8780845Y-11884451D02*
X8790369Y-11903499D01*
X8790369Y-11903499D02*
X8799893Y-11941594D01*
X8799893Y-11941594D02*
X8799893Y-11989213D01*
X8799893Y-11989213D02*
X8790369Y-12027308D01*
X8790369Y-12027308D02*
X8780845Y-12046356D01*
X8780845Y-12046356D02*
X8771322Y-12055880D01*
X8771322Y-12055880D02*
X8752274Y-12065404D01*
X8752274Y-12065404D02*
X8733226Y-12065404D01*
X8733226Y-12065404D02*
X8714179Y-12055880D01*
X8714179Y-12055880D02*
X8704655Y-12046356D01*
X8704655Y-12046356D02*
X8695131Y-12027308D01*
X8695131Y-12027308D02*
X8685607Y-11989213D01*
X8685607Y-11989213D02*
X8685607Y-11941594D01*
X8685607Y-11941594D02*
X8695131Y-11903499D01*
X8695131Y-11903499D02*
X8704655Y-11884451D01*
X8704655Y-11884451D02*
X8714179Y-11874928D01*
X8714179Y-11874928D02*
X8733226Y-11865404D01*
X8971322Y-11865404D02*
X8933226Y-11865404D01*
X8933226Y-11865404D02*
X8914179Y-11874928D01*
X8914179Y-11874928D02*
X8904655Y-11884451D01*
X8904655Y-11884451D02*
X8885607Y-11913023D01*
X8885607Y-11913023D02*
X8876084Y-11951118D01*
X8876084Y-11951118D02*
X8876084Y-12027308D01*
X8876084Y-12027308D02*
X8885607Y-12046356D01*
X8885607Y-12046356D02*
X8895131Y-12055880D01*
X8895131Y-12055880D02*
X8914179Y-12065404D01*
X8914179Y-12065404D02*
X8952274Y-12065404D01*
X8952274Y-12065404D02*
X8971322Y-12055880D01*
X8971322Y-12055880D02*
X8980845Y-12046356D01*
X8980845Y-12046356D02*
X8990369Y-12027308D01*
X8990369Y-12027308D02*
X8990369Y-11979689D01*
X8990369Y-11979689D02*
X8980845Y-11960642D01*
X8980845Y-11960642D02*
X8971322Y-11951118D01*
X8971322Y-11951118D02*
X8952274Y-11941594D01*
X8952274Y-11941594D02*
X8914179Y-11941594D01*
X8914179Y-11941594D02*
X8895131Y-11951118D01*
X8895131Y-11951118D02*
X8885607Y-11960642D01*
X8885607Y-11960642D02*
X8876084Y-11979689D01*
X9057036Y-11865404D02*
X9190369Y-11865404D01*
X9190369Y-11865404D02*
X9104655Y-12065404D01*
X9266560Y-12065404D02*
X9266560Y-11932070D01*
X9266560Y-11951118D02*
X9276084Y-11941594D01*
X9276084Y-11941594D02*
X9295131Y-11932070D01*
X9295131Y-11932070D02*
X9323703Y-11932070D01*
X9323703Y-11932070D02*
X9342750Y-11941594D01*
X9342750Y-11941594D02*
X9352274Y-11960642D01*
X9352274Y-11960642D02*
X9352274Y-12065404D01*
X9352274Y-11960642D02*
X9361798Y-11941594D01*
X9361798Y-11941594D02*
X9380845Y-11932070D01*
X9380845Y-11932070D02*
X9409417Y-11932070D01*
X9409417Y-11932070D02*
X9428465Y-11941594D01*
X9428465Y-11941594D02*
X9437988Y-11960642D01*
X9437988Y-11960642D02*
X9437988Y-12065404D01*
X9533226Y-12065404D02*
X9533226Y-11932070D01*
X9533226Y-11951118D02*
X9542750Y-11941594D01*
X9542750Y-11941594D02*
X9561798Y-11932070D01*
X9561798Y-11932070D02*
X9590369Y-11932070D01*
X9590369Y-11932070D02*
X9609417Y-11941594D01*
X9609417Y-11941594D02*
X9618941Y-11960642D01*
X9618941Y-11960642D02*
X9618941Y-12065404D01*
X9618941Y-11960642D02*
X9628465Y-11941594D01*
X9628465Y-11941594D02*
X9647512Y-11932070D01*
X9647512Y-11932070D02*
X9676084Y-11932070D01*
X9676084Y-11932070D02*
X9695131Y-11941594D01*
X9695131Y-11941594D02*
X9704655Y-11960642D01*
X9704655Y-11960642D02*
X9704655Y-12065404D01*
X10095131Y-11855880D02*
X9923703Y-12113023D01*
X10352274Y-11865404D02*
X10371322Y-11865404D01*
X10371322Y-11865404D02*
X10390369Y-11874928D01*
X10390369Y-11874928D02*
X10399893Y-11884451D01*
X10399893Y-11884451D02*
X10409417Y-11903499D01*
X10409417Y-11903499D02*
X10418941Y-11941594D01*
X10418941Y-11941594D02*
X10418941Y-11989213D01*
X10418941Y-11989213D02*
X10409417Y-12027308D01*
X10409417Y-12027308D02*
X10399893Y-12046356D01*
X10399893Y-12046356D02*
X10390369Y-12055880D01*
X10390369Y-12055880D02*
X10371322Y-12065404D01*
X10371322Y-12065404D02*
X10352274Y-12065404D01*
X10352274Y-12065404D02*
X10333227Y-12055880D01*
X10333227Y-12055880D02*
X10323703Y-12046356D01*
X10323703Y-12046356D02*
X10314179Y-12027308D01*
X10314179Y-12027308D02*
X10304655Y-11989213D01*
X10304655Y-11989213D02*
X10304655Y-11941594D01*
X10304655Y-11941594D02*
X10314179Y-11903499D01*
X10314179Y-11903499D02*
X10323703Y-11884451D01*
X10323703Y-11884451D02*
X10333227Y-11874928D01*
X10333227Y-11874928D02*
X10352274Y-11865404D01*
X10504655Y-12046356D02*
X10514179Y-12055880D01*
X10514179Y-12055880D02*
X10504655Y-12065404D01*
X10504655Y-12065404D02*
X10495131Y-12055880D01*
X10495131Y-12055880D02*
X10504655Y-12046356D01*
X10504655Y-12046356D02*
X10504655Y-12065404D01*
X10637988Y-11865404D02*
X10657036Y-11865404D01*
X10657036Y-11865404D02*
X10676084Y-11874928D01*
X10676084Y-11874928D02*
X10685608Y-11884451D01*
X10685608Y-11884451D02*
X10695131Y-11903499D01*
X10695131Y-11903499D02*
X10704655Y-11941594D01*
X10704655Y-11941594D02*
X10704655Y-11989213D01*
X10704655Y-11989213D02*
X10695131Y-12027308D01*
X10695131Y-12027308D02*
X10685608Y-12046356D01*
X10685608Y-12046356D02*
X10676084Y-12055880D01*
X10676084Y-12055880D02*
X10657036Y-12065404D01*
X10657036Y-12065404D02*
X10637988Y-12065404D01*
X10637988Y-12065404D02*
X10618941Y-12055880D01*
X10618941Y-12055880D02*
X10609417Y-12046356D01*
X10609417Y-12046356D02*
X10599893Y-12027308D01*
X10599893Y-12027308D02*
X10590369Y-11989213D01*
X10590369Y-11989213D02*
X10590369Y-11941594D01*
X10590369Y-11941594D02*
X10599893Y-11903499D01*
X10599893Y-11903499D02*
X10609417Y-11884451D01*
X10609417Y-11884451D02*
X10618941Y-11874928D01*
X10618941Y-11874928D02*
X10637988Y-11865404D01*
X10876084Y-11932070D02*
X10876084Y-12065404D01*
X10828465Y-11855880D02*
X10780846Y-11998737D01*
X10780846Y-11998737D02*
X10904655Y-11998737D01*
X10971322Y-11884451D02*
X10980846Y-11874928D01*
X10980846Y-11874928D02*
X10999893Y-11865404D01*
X10999893Y-11865404D02*
X11047512Y-11865404D01*
X11047512Y-11865404D02*
X11066560Y-11874928D01*
X11066560Y-11874928D02*
X11076084Y-11884451D01*
X11076084Y-11884451D02*
X11085608Y-11903499D01*
X11085608Y-11903499D02*
X11085608Y-11922547D01*
X11085608Y-11922547D02*
X11076084Y-11951118D01*
X11076084Y-11951118D02*
X10961798Y-12065404D01*
X10961798Y-12065404D02*
X11085608Y-12065404D01*
X11209417Y-11865404D02*
X11228465Y-11865404D01*
X11228465Y-11865404D02*
X11247512Y-11874928D01*
X11247512Y-11874928D02*
X11257036Y-11884451D01*
X11257036Y-11884451D02*
X11266560Y-11903499D01*
X11266560Y-11903499D02*
X11276084Y-11941594D01*
X11276084Y-11941594D02*
X11276084Y-11989213D01*
X11276084Y-11989213D02*
X11266560Y-12027308D01*
X11266560Y-12027308D02*
X11257036Y-12046356D01*
X11257036Y-12046356D02*
X11247512Y-12055880D01*
X11247512Y-12055880D02*
X11228465Y-12065404D01*
X11228465Y-12065404D02*
X11209417Y-12065404D01*
X11209417Y-12065404D02*
X11190369Y-12055880D01*
X11190369Y-12055880D02*
X11180846Y-12046356D01*
X11180846Y-12046356D02*
X11171322Y-12027308D01*
X11171322Y-12027308D02*
X11161798Y-11989213D01*
X11161798Y-11989213D02*
X11161798Y-11941594D01*
X11161798Y-11941594D02*
X11171322Y-11903499D01*
X11171322Y-11903499D02*
X11180846Y-11884451D01*
X11180846Y-11884451D02*
X11190369Y-11874928D01*
X11190369Y-11874928D02*
X11209417Y-11865404D01*
X11352274Y-11865404D02*
X11352274Y-11903499D01*
X11428465Y-11865404D02*
X11428465Y-11903499D01*
X11723703Y-12141594D02*
X11714179Y-12132070D01*
X11714179Y-12132070D02*
X11695131Y-12103499D01*
X11695131Y-12103499D02*
X11685608Y-12084451D01*
X11685608Y-12084451D02*
X11676084Y-12055880D01*
X11676084Y-12055880D02*
X11666560Y-12008261D01*
X11666560Y-12008261D02*
X11666560Y-11970166D01*
X11666560Y-11970166D02*
X11676084Y-11922547D01*
X11676084Y-11922547D02*
X11685608Y-11893975D01*
X11685608Y-11893975D02*
X11695131Y-11874928D01*
X11695131Y-11874928D02*
X11714179Y-11846356D01*
X11714179Y-11846356D02*
X11723703Y-11836832D01*
X11904655Y-12065404D02*
X11790369Y-12065404D01*
X11847512Y-12065404D02*
X11847512Y-11865404D01*
X11847512Y-11865404D02*
X11828465Y-11893975D01*
X11828465Y-11893975D02*
X11809417Y-11913023D01*
X11809417Y-11913023D02*
X11790369Y-11922547D01*
X12076084Y-11865404D02*
X12037988Y-11865404D01*
X12037988Y-11865404D02*
X12018941Y-11874928D01*
X12018941Y-11874928D02*
X12009417Y-11884451D01*
X12009417Y-11884451D02*
X11990369Y-11913023D01*
X11990369Y-11913023D02*
X11980846Y-11951118D01*
X11980846Y-11951118D02*
X11980846Y-12027308D01*
X11980846Y-12027308D02*
X11990369Y-12046356D01*
X11990369Y-12046356D02*
X11999893Y-12055880D01*
X11999893Y-12055880D02*
X12018941Y-12065404D01*
X12018941Y-12065404D02*
X12057036Y-12065404D01*
X12057036Y-12065404D02*
X12076084Y-12055880D01*
X12076084Y-12055880D02*
X12085608Y-12046356D01*
X12085608Y-12046356D02*
X12095131Y-12027308D01*
X12095131Y-12027308D02*
X12095131Y-11979689D01*
X12095131Y-11979689D02*
X12085608Y-11960642D01*
X12085608Y-11960642D02*
X12076084Y-11951118D01*
X12076084Y-11951118D02*
X12057036Y-11941594D01*
X12057036Y-11941594D02*
X12018941Y-11941594D01*
X12018941Y-11941594D02*
X11999893Y-11951118D01*
X11999893Y-11951118D02*
X11990369Y-11960642D01*
X11990369Y-11960642D02*
X11980846Y-11979689D01*
X12333227Y-12065404D02*
X12333227Y-11865404D01*
X12418941Y-12065404D02*
X12418941Y-11960642D01*
X12418941Y-11960642D02*
X12409417Y-11941594D01*
X12409417Y-11941594D02*
X12390370Y-11932070D01*
X12390370Y-11932070D02*
X12361798Y-11932070D01*
X12361798Y-11932070D02*
X12342750Y-11941594D01*
X12342750Y-11941594D02*
X12333227Y-11951118D01*
X12542750Y-12065404D02*
X12523703Y-12055880D01*
X12523703Y-12055880D02*
X12514179Y-12046356D01*
X12514179Y-12046356D02*
X12504655Y-12027308D01*
X12504655Y-12027308D02*
X12504655Y-11970166D01*
X12504655Y-11970166D02*
X12514179Y-11951118D01*
X12514179Y-11951118D02*
X12523703Y-11941594D01*
X12523703Y-11941594D02*
X12542750Y-11932070D01*
X12542750Y-11932070D02*
X12571322Y-11932070D01*
X12571322Y-11932070D02*
X12590370Y-11941594D01*
X12590370Y-11941594D02*
X12599893Y-11951118D01*
X12599893Y-11951118D02*
X12609417Y-11970166D01*
X12609417Y-11970166D02*
X12609417Y-12027308D01*
X12609417Y-12027308D02*
X12599893Y-12046356D01*
X12599893Y-12046356D02*
X12590370Y-12055880D01*
X12590370Y-12055880D02*
X12571322Y-12065404D01*
X12571322Y-12065404D02*
X12542750Y-12065404D01*
X12723703Y-12065404D02*
X12704655Y-12055880D01*
X12704655Y-12055880D02*
X12695131Y-12036832D01*
X12695131Y-12036832D02*
X12695131Y-11865404D01*
X12876084Y-12055880D02*
X12857036Y-12065404D01*
X12857036Y-12065404D02*
X12818941Y-12065404D01*
X12818941Y-12065404D02*
X12799893Y-12055880D01*
X12799893Y-12055880D02*
X12790370Y-12036832D01*
X12790370Y-12036832D02*
X12790370Y-11960642D01*
X12790370Y-11960642D02*
X12799893Y-11941594D01*
X12799893Y-11941594D02*
X12818941Y-11932070D01*
X12818941Y-11932070D02*
X12857036Y-11932070D01*
X12857036Y-11932070D02*
X12876084Y-11941594D01*
X12876084Y-11941594D02*
X12885608Y-11960642D01*
X12885608Y-11960642D02*
X12885608Y-11979689D01*
X12885608Y-11979689D02*
X12790370Y-11998737D01*
X12961798Y-12055880D02*
X12980846Y-12065404D01*
X12980846Y-12065404D02*
X13018941Y-12065404D01*
X13018941Y-12065404D02*
X13037989Y-12055880D01*
X13037989Y-12055880D02*
X13047512Y-12036832D01*
X13047512Y-12036832D02*
X13047512Y-12027308D01*
X13047512Y-12027308D02*
X13037989Y-12008261D01*
X13037989Y-12008261D02*
X13018941Y-11998737D01*
X13018941Y-11998737D02*
X12990370Y-11998737D01*
X12990370Y-11998737D02*
X12971322Y-11989213D01*
X12971322Y-11989213D02*
X12961798Y-11970166D01*
X12961798Y-11970166D02*
X12961798Y-11960642D01*
X12961798Y-11960642D02*
X12971322Y-11941594D01*
X12971322Y-11941594D02*
X12990370Y-11932070D01*
X12990370Y-11932070D02*
X13018941Y-11932070D01*
X13018941Y-11932070D02*
X13037989Y-11941594D01*
X13114179Y-12141594D02*
X13123703Y-12132070D01*
X13123703Y-12132070D02*
X13142751Y-12103499D01*
X13142751Y-12103499D02*
X13152274Y-12084451D01*
X13152274Y-12084451D02*
X13161798Y-12055880D01*
X13161798Y-12055880D02*
X13171322Y-12008261D01*
X13171322Y-12008261D02*
X13171322Y-11970166D01*
X13171322Y-11970166D02*
X13161798Y-11922547D01*
X13161798Y-11922547D02*
X13152274Y-11893975D01*
X13152274Y-11893975D02*
X13142751Y-11874928D01*
X13142751Y-11874928D02*
X13123703Y-11846356D01*
X13123703Y-11846356D02*
X13114179Y-11836832D01*
X13476084Y-12141594D02*
X13466560Y-12132070D01*
X13466560Y-12132070D02*
X13447512Y-12103499D01*
X13447512Y-12103499D02*
X13437989Y-12084451D01*
X13437989Y-12084451D02*
X13428465Y-12055880D01*
X13428465Y-12055880D02*
X13418941Y-12008261D01*
X13418941Y-12008261D02*
X13418941Y-11970166D01*
X13418941Y-11970166D02*
X13428465Y-11922547D01*
X13428465Y-11922547D02*
X13437989Y-11893975D01*
X13437989Y-11893975D02*
X13447512Y-11874928D01*
X13447512Y-11874928D02*
X13466560Y-11846356D01*
X13466560Y-11846356D02*
X13476084Y-11836832D01*
X13552274Y-11932070D02*
X13552274Y-12065404D01*
X13552274Y-11951118D02*
X13561798Y-11941594D01*
X13561798Y-11941594D02*
X13580846Y-11932070D01*
X13580846Y-11932070D02*
X13609417Y-11932070D01*
X13609417Y-11932070D02*
X13628465Y-11941594D01*
X13628465Y-11941594D02*
X13637989Y-11960642D01*
X13637989Y-11960642D02*
X13637989Y-12065404D01*
X13761798Y-12065404D02*
X13742751Y-12055880D01*
X13742751Y-12055880D02*
X13733227Y-12046356D01*
X13733227Y-12046356D02*
X13723703Y-12027308D01*
X13723703Y-12027308D02*
X13723703Y-11970166D01*
X13723703Y-11970166D02*
X13733227Y-11951118D01*
X13733227Y-11951118D02*
X13742751Y-11941594D01*
X13742751Y-11941594D02*
X13761798Y-11932070D01*
X13761798Y-11932070D02*
X13790370Y-11932070D01*
X13790370Y-11932070D02*
X13809417Y-11941594D01*
X13809417Y-11941594D02*
X13818941Y-11951118D01*
X13818941Y-11951118D02*
X13828465Y-11970166D01*
X13828465Y-11970166D02*
X13828465Y-12027308D01*
X13828465Y-12027308D02*
X13818941Y-12046356D01*
X13818941Y-12046356D02*
X13809417Y-12055880D01*
X13809417Y-12055880D02*
X13790370Y-12065404D01*
X13790370Y-12065404D02*
X13761798Y-12065404D01*
X13885608Y-11932070D02*
X13961798Y-11932070D01*
X13914179Y-11865404D02*
X13914179Y-12036832D01*
X13914179Y-12036832D02*
X13923703Y-12055880D01*
X13923703Y-12055880D02*
X13942751Y-12065404D01*
X13942751Y-12065404D02*
X13961798Y-12065404D01*
X14180846Y-11932070D02*
X14180846Y-12132070D01*
X14180846Y-11941594D02*
X14199893Y-11932070D01*
X14199893Y-11932070D02*
X14237989Y-11932070D01*
X14237989Y-11932070D02*
X14257036Y-11941594D01*
X14257036Y-11941594D02*
X14266560Y-11951118D01*
X14266560Y-11951118D02*
X14276084Y-11970166D01*
X14276084Y-11970166D02*
X14276084Y-12027308D01*
X14276084Y-12027308D02*
X14266560Y-12046356D01*
X14266560Y-12046356D02*
X14257036Y-12055880D01*
X14257036Y-12055880D02*
X14237989Y-12065404D01*
X14237989Y-12065404D02*
X14199893Y-12065404D01*
X14199893Y-12065404D02*
X14180846Y-12055880D01*
X14390370Y-12065404D02*
X14371322Y-12055880D01*
X14371322Y-12055880D02*
X14361798Y-12036832D01*
X14361798Y-12036832D02*
X14361798Y-11865404D01*
X14552274Y-12065404D02*
X14552274Y-11960642D01*
X14552274Y-11960642D02*
X14542751Y-11941594D01*
X14542751Y-11941594D02*
X14523703Y-11932070D01*
X14523703Y-11932070D02*
X14485608Y-11932070D01*
X14485608Y-11932070D02*
X14466560Y-11941594D01*
X14552274Y-12055880D02*
X14533227Y-12065404D01*
X14533227Y-12065404D02*
X14485608Y-12065404D01*
X14485608Y-12065404D02*
X14466560Y-12055880D01*
X14466560Y-12055880D02*
X14457036Y-12036832D01*
X14457036Y-12036832D02*
X14457036Y-12017785D01*
X14457036Y-12017785D02*
X14466560Y-11998737D01*
X14466560Y-11998737D02*
X14485608Y-11989213D01*
X14485608Y-11989213D02*
X14533227Y-11989213D01*
X14533227Y-11989213D02*
X14552274Y-11979689D01*
X14618941Y-11932070D02*
X14695132Y-11932070D01*
X14647513Y-11865404D02*
X14647513Y-12036832D01*
X14647513Y-12036832D02*
X14657036Y-12055880D01*
X14657036Y-12055880D02*
X14676084Y-12065404D01*
X14676084Y-12065404D02*
X14695132Y-12065404D01*
X14837989Y-12055880D02*
X14818941Y-12065404D01*
X14818941Y-12065404D02*
X14780846Y-12065404D01*
X14780846Y-12065404D02*
X14761798Y-12055880D01*
X14761798Y-12055880D02*
X14752274Y-12036832D01*
X14752274Y-12036832D02*
X14752274Y-11960642D01*
X14752274Y-11960642D02*
X14761798Y-11941594D01*
X14761798Y-11941594D02*
X14780846Y-11932070D01*
X14780846Y-11932070D02*
X14818941Y-11932070D01*
X14818941Y-11932070D02*
X14837989Y-11941594D01*
X14837989Y-11941594D02*
X14847513Y-11960642D01*
X14847513Y-11960642D02*
X14847513Y-11979689D01*
X14847513Y-11979689D02*
X14752274Y-11998737D01*
X15018941Y-12065404D02*
X15018941Y-11865404D01*
X15018941Y-12055880D02*
X14999894Y-12065404D01*
X14999894Y-12065404D02*
X14961798Y-12065404D01*
X14961798Y-12065404D02*
X14942751Y-12055880D01*
X14942751Y-12055880D02*
X14933227Y-12046356D01*
X14933227Y-12046356D02*
X14923703Y-12027308D01*
X14923703Y-12027308D02*
X14923703Y-11970166D01*
X14923703Y-11970166D02*
X14933227Y-11951118D01*
X14933227Y-11951118D02*
X14942751Y-11941594D01*
X14942751Y-11941594D02*
X14961798Y-11932070D01*
X14961798Y-11932070D02*
X14999894Y-11932070D01*
X14999894Y-11932070D02*
X15018941Y-11941594D01*
X15095132Y-12141594D02*
X15104655Y-12132070D01*
X15104655Y-12132070D02*
X15123703Y-12103499D01*
X15123703Y-12103499D02*
X15133227Y-12084451D01*
X15133227Y-12084451D02*
X15142751Y-12055880D01*
X15142751Y-12055880D02*
X15152274Y-12008261D01*
X15152274Y-12008261D02*
X15152274Y-11970166D01*
X15152274Y-11970166D02*
X15142751Y-11922547D01*
X15142751Y-11922547D02*
X15133227Y-11893975D01*
X15133227Y-11893975D02*
X15123703Y-11874928D01*
X15123703Y-11874928D02*
X15104655Y-11846356D01*
X15104655Y-11846356D02*
X15095132Y-11836832D01*
X8148640Y-12237920D02*
G75*
G02*
X7948640Y-12237920I-100000J0D01*
G01*
X7948640Y-12237920D02*
G75*
G02*
X8148640Y-12237920I100000J0D01*
G01*
X8390369Y-12129404D02*
X8514179Y-12129404D01*
X8514179Y-12129404D02*
X8447512Y-12205594D01*
X8447512Y-12205594D02*
X8476084Y-12205594D01*
X8476084Y-12205594D02*
X8495131Y-12215118D01*
X8495131Y-12215118D02*
X8504655Y-12224642D01*
X8504655Y-12224642D02*
X8514179Y-12243689D01*
X8514179Y-12243689D02*
X8514179Y-12291308D01*
X8514179Y-12291308D02*
X8504655Y-12310356D01*
X8504655Y-12310356D02*
X8495131Y-12319880D01*
X8495131Y-12319880D02*
X8476084Y-12329404D01*
X8476084Y-12329404D02*
X8418941Y-12329404D01*
X8418941Y-12329404D02*
X8399893Y-12319880D01*
X8399893Y-12319880D02*
X8390369Y-12310356D01*
X8599893Y-12310356D02*
X8609417Y-12319880D01*
X8609417Y-12319880D02*
X8599893Y-12329404D01*
X8599893Y-12329404D02*
X8590369Y-12319880D01*
X8590369Y-12319880D02*
X8599893Y-12310356D01*
X8599893Y-12310356D02*
X8599893Y-12329404D01*
X8685607Y-12148451D02*
X8695131Y-12138928D01*
X8695131Y-12138928D02*
X8714179Y-12129404D01*
X8714179Y-12129404D02*
X8761798Y-12129404D01*
X8761798Y-12129404D02*
X8780845Y-12138928D01*
X8780845Y-12138928D02*
X8790369Y-12148451D01*
X8790369Y-12148451D02*
X8799893Y-12167499D01*
X8799893Y-12167499D02*
X8799893Y-12186547D01*
X8799893Y-12186547D02*
X8790369Y-12215118D01*
X8790369Y-12215118D02*
X8676084Y-12329404D01*
X8676084Y-12329404D02*
X8799893Y-12329404D01*
X8923703Y-12129404D02*
X8942750Y-12129404D01*
X8942750Y-12129404D02*
X8961798Y-12138928D01*
X8961798Y-12138928D02*
X8971322Y-12148451D01*
X8971322Y-12148451D02*
X8980845Y-12167499D01*
X8980845Y-12167499D02*
X8990369Y-12205594D01*
X8990369Y-12205594D02*
X8990369Y-12253213D01*
X8990369Y-12253213D02*
X8980845Y-12291308D01*
X8980845Y-12291308D02*
X8971322Y-12310356D01*
X8971322Y-12310356D02*
X8961798Y-12319880D01*
X8961798Y-12319880D02*
X8942750Y-12329404D01*
X8942750Y-12329404D02*
X8923703Y-12329404D01*
X8923703Y-12329404D02*
X8904655Y-12319880D01*
X8904655Y-12319880D02*
X8895131Y-12310356D01*
X8895131Y-12310356D02*
X8885607Y-12291308D01*
X8885607Y-12291308D02*
X8876084Y-12253213D01*
X8876084Y-12253213D02*
X8876084Y-12205594D01*
X8876084Y-12205594D02*
X8885607Y-12167499D01*
X8885607Y-12167499D02*
X8895131Y-12148451D01*
X8895131Y-12148451D02*
X8904655Y-12138928D01*
X8904655Y-12138928D02*
X8923703Y-12129404D01*
X9114179Y-12129404D02*
X9133226Y-12129404D01*
X9133226Y-12129404D02*
X9152274Y-12138928D01*
X9152274Y-12138928D02*
X9161798Y-12148451D01*
X9161798Y-12148451D02*
X9171322Y-12167499D01*
X9171322Y-12167499D02*
X9180845Y-12205594D01*
X9180845Y-12205594D02*
X9180845Y-12253213D01*
X9180845Y-12253213D02*
X9171322Y-12291308D01*
X9171322Y-12291308D02*
X9161798Y-12310356D01*
X9161798Y-12310356D02*
X9152274Y-12319880D01*
X9152274Y-12319880D02*
X9133226Y-12329404D01*
X9133226Y-12329404D02*
X9114179Y-12329404D01*
X9114179Y-12329404D02*
X9095131Y-12319880D01*
X9095131Y-12319880D02*
X9085607Y-12310356D01*
X9085607Y-12310356D02*
X9076084Y-12291308D01*
X9076084Y-12291308D02*
X9066560Y-12253213D01*
X9066560Y-12253213D02*
X9066560Y-12205594D01*
X9066560Y-12205594D02*
X9076084Y-12167499D01*
X9076084Y-12167499D02*
X9085607Y-12148451D01*
X9085607Y-12148451D02*
X9095131Y-12138928D01*
X9095131Y-12138928D02*
X9114179Y-12129404D01*
X9266560Y-12329404D02*
X9266560Y-12196070D01*
X9266560Y-12215118D02*
X9276084Y-12205594D01*
X9276084Y-12205594D02*
X9295131Y-12196070D01*
X9295131Y-12196070D02*
X9323703Y-12196070D01*
X9323703Y-12196070D02*
X9342750Y-12205594D01*
X9342750Y-12205594D02*
X9352274Y-12224642D01*
X9352274Y-12224642D02*
X9352274Y-12329404D01*
X9352274Y-12224642D02*
X9361798Y-12205594D01*
X9361798Y-12205594D02*
X9380845Y-12196070D01*
X9380845Y-12196070D02*
X9409417Y-12196070D01*
X9409417Y-12196070D02*
X9428465Y-12205594D01*
X9428465Y-12205594D02*
X9437988Y-12224642D01*
X9437988Y-12224642D02*
X9437988Y-12329404D01*
X9533226Y-12329404D02*
X9533226Y-12196070D01*
X9533226Y-12215118D02*
X9542750Y-12205594D01*
X9542750Y-12205594D02*
X9561798Y-12196070D01*
X9561798Y-12196070D02*
X9590369Y-12196070D01*
X9590369Y-12196070D02*
X9609417Y-12205594D01*
X9609417Y-12205594D02*
X9618941Y-12224642D01*
X9618941Y-12224642D02*
X9618941Y-12329404D01*
X9618941Y-12224642D02*
X9628465Y-12205594D01*
X9628465Y-12205594D02*
X9647512Y-12196070D01*
X9647512Y-12196070D02*
X9676084Y-12196070D01*
X9676084Y-12196070D02*
X9695131Y-12205594D01*
X9695131Y-12205594D02*
X9704655Y-12224642D01*
X9704655Y-12224642D02*
X9704655Y-12329404D01*
X10095131Y-12119880D02*
X9923703Y-12377023D01*
X10352274Y-12129404D02*
X10371322Y-12129404D01*
X10371322Y-12129404D02*
X10390369Y-12138928D01*
X10390369Y-12138928D02*
X10399893Y-12148451D01*
X10399893Y-12148451D02*
X10409417Y-12167499D01*
X10409417Y-12167499D02*
X10418941Y-12205594D01*
X10418941Y-12205594D02*
X10418941Y-12253213D01*
X10418941Y-12253213D02*
X10409417Y-12291308D01*
X10409417Y-12291308D02*
X10399893Y-12310356D01*
X10399893Y-12310356D02*
X10390369Y-12319880D01*
X10390369Y-12319880D02*
X10371322Y-12329404D01*
X10371322Y-12329404D02*
X10352274Y-12329404D01*
X10352274Y-12329404D02*
X10333227Y-12319880D01*
X10333227Y-12319880D02*
X10323703Y-12310356D01*
X10323703Y-12310356D02*
X10314179Y-12291308D01*
X10314179Y-12291308D02*
X10304655Y-12253213D01*
X10304655Y-12253213D02*
X10304655Y-12205594D01*
X10304655Y-12205594D02*
X10314179Y-12167499D01*
X10314179Y-12167499D02*
X10323703Y-12148451D01*
X10323703Y-12148451D02*
X10333227Y-12138928D01*
X10333227Y-12138928D02*
X10352274Y-12129404D01*
X10504655Y-12310356D02*
X10514179Y-12319880D01*
X10514179Y-12319880D02*
X10504655Y-12329404D01*
X10504655Y-12329404D02*
X10495131Y-12319880D01*
X10495131Y-12319880D02*
X10504655Y-12310356D01*
X10504655Y-12310356D02*
X10504655Y-12329404D01*
X10704655Y-12329404D02*
X10590369Y-12329404D01*
X10647512Y-12329404D02*
X10647512Y-12129404D01*
X10647512Y-12129404D02*
X10628465Y-12157975D01*
X10628465Y-12157975D02*
X10609417Y-12177023D01*
X10609417Y-12177023D02*
X10590369Y-12186547D01*
X10780846Y-12148451D02*
X10790369Y-12138928D01*
X10790369Y-12138928D02*
X10809417Y-12129404D01*
X10809417Y-12129404D02*
X10857036Y-12129404D01*
X10857036Y-12129404D02*
X10876084Y-12138928D01*
X10876084Y-12138928D02*
X10885608Y-12148451D01*
X10885608Y-12148451D02*
X10895131Y-12167499D01*
X10895131Y-12167499D02*
X10895131Y-12186547D01*
X10895131Y-12186547D02*
X10885608Y-12215118D01*
X10885608Y-12215118D02*
X10771322Y-12329404D01*
X10771322Y-12329404D02*
X10895131Y-12329404D01*
X11066560Y-12129404D02*
X11028465Y-12129404D01*
X11028465Y-12129404D02*
X11009417Y-12138928D01*
X11009417Y-12138928D02*
X10999893Y-12148451D01*
X10999893Y-12148451D02*
X10980846Y-12177023D01*
X10980846Y-12177023D02*
X10971322Y-12215118D01*
X10971322Y-12215118D02*
X10971322Y-12291308D01*
X10971322Y-12291308D02*
X10980846Y-12310356D01*
X10980846Y-12310356D02*
X10990369Y-12319880D01*
X10990369Y-12319880D02*
X11009417Y-12329404D01*
X11009417Y-12329404D02*
X11047512Y-12329404D01*
X11047512Y-12329404D02*
X11066560Y-12319880D01*
X11066560Y-12319880D02*
X11076084Y-12310356D01*
X11076084Y-12310356D02*
X11085608Y-12291308D01*
X11085608Y-12291308D02*
X11085608Y-12243689D01*
X11085608Y-12243689D02*
X11076084Y-12224642D01*
X11076084Y-12224642D02*
X11066560Y-12215118D01*
X11066560Y-12215118D02*
X11047512Y-12205594D01*
X11047512Y-12205594D02*
X11009417Y-12205594D01*
X11009417Y-12205594D02*
X10990369Y-12215118D01*
X10990369Y-12215118D02*
X10980846Y-12224642D01*
X10980846Y-12224642D02*
X10971322Y-12243689D01*
X11209417Y-12129404D02*
X11228465Y-12129404D01*
X11228465Y-12129404D02*
X11247512Y-12138928D01*
X11247512Y-12138928D02*
X11257036Y-12148451D01*
X11257036Y-12148451D02*
X11266560Y-12167499D01*
X11266560Y-12167499D02*
X11276084Y-12205594D01*
X11276084Y-12205594D02*
X11276084Y-12253213D01*
X11276084Y-12253213D02*
X11266560Y-12291308D01*
X11266560Y-12291308D02*
X11257036Y-12310356D01*
X11257036Y-12310356D02*
X11247512Y-12319880D01*
X11247512Y-12319880D02*
X11228465Y-12329404D01*
X11228465Y-12329404D02*
X11209417Y-12329404D01*
X11209417Y-12329404D02*
X11190369Y-12319880D01*
X11190369Y-12319880D02*
X11180846Y-12310356D01*
X11180846Y-12310356D02*
X11171322Y-12291308D01*
X11171322Y-12291308D02*
X11161798Y-12253213D01*
X11161798Y-12253213D02*
X11161798Y-12205594D01*
X11161798Y-12205594D02*
X11171322Y-12167499D01*
X11171322Y-12167499D02*
X11180846Y-12148451D01*
X11180846Y-12148451D02*
X11190369Y-12138928D01*
X11190369Y-12138928D02*
X11209417Y-12129404D01*
X11352274Y-12129404D02*
X11352274Y-12167499D01*
X11428465Y-12129404D02*
X11428465Y-12167499D01*
X11723703Y-12405594D02*
X11714179Y-12396070D01*
X11714179Y-12396070D02*
X11695131Y-12367499D01*
X11695131Y-12367499D02*
X11685608Y-12348451D01*
X11685608Y-12348451D02*
X11676084Y-12319880D01*
X11676084Y-12319880D02*
X11666560Y-12272261D01*
X11666560Y-12272261D02*
X11666560Y-12234166D01*
X11666560Y-12234166D02*
X11676084Y-12186547D01*
X11676084Y-12186547D02*
X11685608Y-12157975D01*
X11685608Y-12157975D02*
X11695131Y-12138928D01*
X11695131Y-12138928D02*
X11714179Y-12110356D01*
X11714179Y-12110356D02*
X11723703Y-12100832D01*
X11780846Y-12129404D02*
X11904655Y-12129404D01*
X11904655Y-12129404D02*
X11837988Y-12205594D01*
X11837988Y-12205594D02*
X11866560Y-12205594D01*
X11866560Y-12205594D02*
X11885608Y-12215118D01*
X11885608Y-12215118D02*
X11895131Y-12224642D01*
X11895131Y-12224642D02*
X11904655Y-12243689D01*
X11904655Y-12243689D02*
X11904655Y-12291308D01*
X11904655Y-12291308D02*
X11895131Y-12310356D01*
X11895131Y-12310356D02*
X11885608Y-12319880D01*
X11885608Y-12319880D02*
X11866560Y-12329404D01*
X11866560Y-12329404D02*
X11809417Y-12329404D01*
X11809417Y-12329404D02*
X11790369Y-12319880D01*
X11790369Y-12319880D02*
X11780846Y-12310356D01*
X12142750Y-12329404D02*
X12142750Y-12129404D01*
X12228465Y-12329404D02*
X12228465Y-12224642D01*
X12228465Y-12224642D02*
X12218941Y-12205594D01*
X12218941Y-12205594D02*
X12199893Y-12196070D01*
X12199893Y-12196070D02*
X12171322Y-12196070D01*
X12171322Y-12196070D02*
X12152274Y-12205594D01*
X12152274Y-12205594D02*
X12142750Y-12215118D01*
X12352274Y-12329404D02*
X12333227Y-12319880D01*
X12333227Y-12319880D02*
X12323703Y-12310356D01*
X12323703Y-12310356D02*
X12314179Y-12291308D01*
X12314179Y-12291308D02*
X12314179Y-12234166D01*
X12314179Y-12234166D02*
X12323703Y-12215118D01*
X12323703Y-12215118D02*
X12333227Y-12205594D01*
X12333227Y-12205594D02*
X12352274Y-12196070D01*
X12352274Y-12196070D02*
X12380846Y-12196070D01*
X12380846Y-12196070D02*
X12399893Y-12205594D01*
X12399893Y-12205594D02*
X12409417Y-12215118D01*
X12409417Y-12215118D02*
X12418941Y-12234166D01*
X12418941Y-12234166D02*
X12418941Y-12291308D01*
X12418941Y-12291308D02*
X12409417Y-12310356D01*
X12409417Y-12310356D02*
X12399893Y-12319880D01*
X12399893Y-12319880D02*
X12380846Y-12329404D01*
X12380846Y-12329404D02*
X12352274Y-12329404D01*
X12533227Y-12329404D02*
X12514179Y-12319880D01*
X12514179Y-12319880D02*
X12504655Y-12300832D01*
X12504655Y-12300832D02*
X12504655Y-12129404D01*
X12685608Y-12319880D02*
X12666560Y-12329404D01*
X12666560Y-12329404D02*
X12628465Y-12329404D01*
X12628465Y-12329404D02*
X12609417Y-12319880D01*
X12609417Y-12319880D02*
X12599893Y-12300832D01*
X12599893Y-12300832D02*
X12599893Y-12224642D01*
X12599893Y-12224642D02*
X12609417Y-12205594D01*
X12609417Y-12205594D02*
X12628465Y-12196070D01*
X12628465Y-12196070D02*
X12666560Y-12196070D01*
X12666560Y-12196070D02*
X12685608Y-12205594D01*
X12685608Y-12205594D02*
X12695131Y-12224642D01*
X12695131Y-12224642D02*
X12695131Y-12243689D01*
X12695131Y-12243689D02*
X12599893Y-12262737D01*
X12771322Y-12319880D02*
X12790370Y-12329404D01*
X12790370Y-12329404D02*
X12828465Y-12329404D01*
X12828465Y-12329404D02*
X12847512Y-12319880D01*
X12847512Y-12319880D02*
X12857036Y-12300832D01*
X12857036Y-12300832D02*
X12857036Y-12291308D01*
X12857036Y-12291308D02*
X12847512Y-12272261D01*
X12847512Y-12272261D02*
X12828465Y-12262737D01*
X12828465Y-12262737D02*
X12799893Y-12262737D01*
X12799893Y-12262737D02*
X12780846Y-12253213D01*
X12780846Y-12253213D02*
X12771322Y-12234166D01*
X12771322Y-12234166D02*
X12771322Y-12224642D01*
X12771322Y-12224642D02*
X12780846Y-12205594D01*
X12780846Y-12205594D02*
X12799893Y-12196070D01*
X12799893Y-12196070D02*
X12828465Y-12196070D01*
X12828465Y-12196070D02*
X12847512Y-12205594D01*
X12923703Y-12405594D02*
X12933227Y-12396070D01*
X12933227Y-12396070D02*
X12952274Y-12367499D01*
X12952274Y-12367499D02*
X12961798Y-12348451D01*
X12961798Y-12348451D02*
X12971322Y-12319880D01*
X12971322Y-12319880D02*
X12980846Y-12272261D01*
X12980846Y-12272261D02*
X12980846Y-12234166D01*
X12980846Y-12234166D02*
X12971322Y-12186547D01*
X12971322Y-12186547D02*
X12961798Y-12157975D01*
X12961798Y-12157975D02*
X12952274Y-12138928D01*
X12952274Y-12138928D02*
X12933227Y-12110356D01*
X12933227Y-12110356D02*
X12923703Y-12100832D01*
X13285608Y-12405594D02*
X13276084Y-12396070D01*
X13276084Y-12396070D02*
X13257036Y-12367499D01*
X13257036Y-12367499D02*
X13247512Y-12348451D01*
X13247512Y-12348451D02*
X13237989Y-12319880D01*
X13237989Y-12319880D02*
X13228465Y-12272261D01*
X13228465Y-12272261D02*
X13228465Y-12234166D01*
X13228465Y-12234166D02*
X13237989Y-12186547D01*
X13237989Y-12186547D02*
X13247512Y-12157975D01*
X13247512Y-12157975D02*
X13257036Y-12138928D01*
X13257036Y-12138928D02*
X13276084Y-12110356D01*
X13276084Y-12110356D02*
X13285608Y-12100832D01*
X13361798Y-12196070D02*
X13361798Y-12329404D01*
X13361798Y-12215118D02*
X13371322Y-12205594D01*
X13371322Y-12205594D02*
X13390370Y-12196070D01*
X13390370Y-12196070D02*
X13418941Y-12196070D01*
X13418941Y-12196070D02*
X13437989Y-12205594D01*
X13437989Y-12205594D02*
X13447512Y-12224642D01*
X13447512Y-12224642D02*
X13447512Y-12329404D01*
X13571322Y-12329404D02*
X13552274Y-12319880D01*
X13552274Y-12319880D02*
X13542751Y-12310356D01*
X13542751Y-12310356D02*
X13533227Y-12291308D01*
X13533227Y-12291308D02*
X13533227Y-12234166D01*
X13533227Y-12234166D02*
X13542751Y-12215118D01*
X13542751Y-12215118D02*
X13552274Y-12205594D01*
X13552274Y-12205594D02*
X13571322Y-12196070D01*
X13571322Y-12196070D02*
X13599893Y-12196070D01*
X13599893Y-12196070D02*
X13618941Y-12205594D01*
X13618941Y-12205594D02*
X13628465Y-12215118D01*
X13628465Y-12215118D02*
X13637989Y-12234166D01*
X13637989Y-12234166D02*
X13637989Y-12291308D01*
X13637989Y-12291308D02*
X13628465Y-12310356D01*
X13628465Y-12310356D02*
X13618941Y-12319880D01*
X13618941Y-12319880D02*
X13599893Y-12329404D01*
X13599893Y-12329404D02*
X13571322Y-12329404D01*
X13695132Y-12196070D02*
X13771322Y-12196070D01*
X13723703Y-12129404D02*
X13723703Y-12300832D01*
X13723703Y-12300832D02*
X13733227Y-12319880D01*
X13733227Y-12319880D02*
X13752274Y-12329404D01*
X13752274Y-12329404D02*
X13771322Y-12329404D01*
X13990370Y-12196070D02*
X13990370Y-12396070D01*
X13990370Y-12205594D02*
X14009417Y-12196070D01*
X14009417Y-12196070D02*
X14047513Y-12196070D01*
X14047513Y-12196070D02*
X14066560Y-12205594D01*
X14066560Y-12205594D02*
X14076084Y-12215118D01*
X14076084Y-12215118D02*
X14085608Y-12234166D01*
X14085608Y-12234166D02*
X14085608Y-12291308D01*
X14085608Y-12291308D02*
X14076084Y-12310356D01*
X14076084Y-12310356D02*
X14066560Y-12319880D01*
X14066560Y-12319880D02*
X14047513Y-12329404D01*
X14047513Y-12329404D02*
X14009417Y-12329404D01*
X14009417Y-12329404D02*
X13990370Y-12319880D01*
X14199893Y-12329404D02*
X14180846Y-12319880D01*
X14180846Y-12319880D02*
X14171322Y-12300832D01*
X14171322Y-12300832D02*
X14171322Y-12129404D01*
X14361798Y-12329404D02*
X14361798Y-12224642D01*
X14361798Y-12224642D02*
X14352274Y-12205594D01*
X14352274Y-12205594D02*
X14333227Y-12196070D01*
X14333227Y-12196070D02*
X14295132Y-12196070D01*
X14295132Y-12196070D02*
X14276084Y-12205594D01*
X14361798Y-12319880D02*
X14342751Y-12329404D01*
X14342751Y-12329404D02*
X14295132Y-12329404D01*
X14295132Y-12329404D02*
X14276084Y-12319880D01*
X14276084Y-12319880D02*
X14266560Y-12300832D01*
X14266560Y-12300832D02*
X14266560Y-12281785D01*
X14266560Y-12281785D02*
X14276084Y-12262737D01*
X14276084Y-12262737D02*
X14295132Y-12253213D01*
X14295132Y-12253213D02*
X14342751Y-12253213D01*
X14342751Y-12253213D02*
X14361798Y-12243689D01*
X14428465Y-12196070D02*
X14504655Y-12196070D01*
X14457036Y-12129404D02*
X14457036Y-12300832D01*
X14457036Y-12300832D02*
X14466560Y-12319880D01*
X14466560Y-12319880D02*
X14485608Y-12329404D01*
X14485608Y-12329404D02*
X14504655Y-12329404D01*
X14647513Y-12319880D02*
X14628465Y-12329404D01*
X14628465Y-12329404D02*
X14590370Y-12329404D01*
X14590370Y-12329404D02*
X14571322Y-12319880D01*
X14571322Y-12319880D02*
X14561798Y-12300832D01*
X14561798Y-12300832D02*
X14561798Y-12224642D01*
X14561798Y-12224642D02*
X14571322Y-12205594D01*
X14571322Y-12205594D02*
X14590370Y-12196070D01*
X14590370Y-12196070D02*
X14628465Y-12196070D01*
X14628465Y-12196070D02*
X14647513Y-12205594D01*
X14647513Y-12205594D02*
X14657036Y-12224642D01*
X14657036Y-12224642D02*
X14657036Y-12243689D01*
X14657036Y-12243689D02*
X14561798Y-12262737D01*
X14828465Y-12329404D02*
X14828465Y-12129404D01*
X14828465Y-12319880D02*
X14809417Y-12329404D01*
X14809417Y-12329404D02*
X14771322Y-12329404D01*
X14771322Y-12329404D02*
X14752274Y-12319880D01*
X14752274Y-12319880D02*
X14742751Y-12310356D01*
X14742751Y-12310356D02*
X14733227Y-12291308D01*
X14733227Y-12291308D02*
X14733227Y-12234166D01*
X14733227Y-12234166D02*
X14742751Y-12215118D01*
X14742751Y-12215118D02*
X14752274Y-12205594D01*
X14752274Y-12205594D02*
X14771322Y-12196070D01*
X14771322Y-12196070D02*
X14809417Y-12196070D01*
X14809417Y-12196070D02*
X14828465Y-12205594D01*
X14904655Y-12405594D02*
X14914179Y-12396070D01*
X14914179Y-12396070D02*
X14933227Y-12367499D01*
X14933227Y-12367499D02*
X14942751Y-12348451D01*
X14942751Y-12348451D02*
X14952274Y-12319880D01*
X14952274Y-12319880D02*
X14961798Y-12272261D01*
X14961798Y-12272261D02*
X14961798Y-12234166D01*
X14961798Y-12234166D02*
X14952274Y-12186547D01*
X14952274Y-12186547D02*
X14942751Y-12157975D01*
X14942751Y-12157975D02*
X14933227Y-12138928D01*
X14933227Y-12138928D02*
X14914179Y-12110356D01*
X14914179Y-12110356D02*
X14904655Y-12100832D01*
M02*
