%TF.GenerationSoftware,KiCad,Pcbnew,8.0.3*%
%TF.CreationDate,2025-06-04T12:00:17-07:00*%
%TF.ProjectId,Power_Distribution,506f7765-725f-4446-9973-747269627574,rev?*%
%TF.SameCoordinates,Original*%
%TF.FileFunction,Paste,Top*%
%TF.FilePolarity,Positive*%
%FSLAX46Y46*%
G04 Gerber Fmt 4.6, Leading zero omitted, Abs format (unit mm)*
G04 Created by KiCad (PCBNEW 8.0.3) date 2025-06-04 12:00:17*
%MOMM*%
%LPD*%
G01*
G04 APERTURE LIST*
G04 Aperture macros list*
%AMRoundRect*
0 Rectangle with rounded corners*
0 $1 Rounding radius*
0 $2 $3 $4 $5 $6 $7 $8 $9 X,Y pos of 4 corners*
0 Add a 4 corners polygon primitive as box body*
4,1,4,$2,$3,$4,$5,$6,$7,$8,$9,$2,$3,0*
0 Add four circle primitives for the rounded corners*
1,1,$1+$1,$2,$3*
1,1,$1+$1,$4,$5*
1,1,$1+$1,$6,$7*
1,1,$1+$1,$8,$9*
0 Add four rect primitives between the rounded corners*
20,1,$1+$1,$2,$3,$4,$5,0*
20,1,$1+$1,$4,$5,$6,$7,0*
20,1,$1+$1,$6,$7,$8,$9,0*
20,1,$1+$1,$8,$9,$2,$3,0*%
G04 Aperture macros list end*
%ADD10R,1.750000X0.650000*%
%ADD11RoundRect,0.250000X0.337500X0.475000X-0.337500X0.475000X-0.337500X-0.475000X0.337500X-0.475000X0*%
%ADD12RoundRect,0.250000X-0.450000X0.350000X-0.450000X-0.350000X0.450000X-0.350000X0.450000X0.350000X0*%
%ADD13RoundRect,0.100000X-0.712500X-0.100000X0.712500X-0.100000X0.712500X0.100000X-0.712500X0.100000X0*%
%ADD14RoundRect,0.250000X-0.475000X0.337500X-0.475000X-0.337500X0.475000X-0.337500X0.475000X0.337500X0*%
%ADD15RoundRect,0.250000X0.250000X-0.550000X0.250000X0.550000X-0.250000X0.550000X-0.250000X-0.550000X0*%
%ADD16R,0.711200X0.457200*%
%ADD17RoundRect,0.250000X0.350000X0.450000X-0.350000X0.450000X-0.350000X-0.450000X0.350000X-0.450000X0*%
G04 APERTURE END LIST*
D10*
%TO.C,IC5*%
X141669200Y-84429600D03*
X141669200Y-83159600D03*
X141669200Y-81889600D03*
X141669200Y-80619600D03*
X136069200Y-80619600D03*
X136069200Y-81889600D03*
X136069200Y-83159600D03*
X136069200Y-84429600D03*
%TD*%
D11*
%TO.C,Cf1*%
X197887500Y-82346800D03*
X195812500Y-82346800D03*
%TD*%
D10*
%TO.C,IC7*%
X109372400Y-84378800D03*
X109372400Y-83108800D03*
X109372400Y-81838800D03*
X109372400Y-80568800D03*
X103772400Y-80568800D03*
X103772400Y-81838800D03*
X103772400Y-83108800D03*
X103772400Y-84378800D03*
%TD*%
D12*
%TO.C,R1*%
X100320000Y-100310000D03*
X100320000Y-102310000D03*
%TD*%
D11*
%TO.C,Cf3*%
X117979100Y-82092800D03*
X115904100Y-82092800D03*
%TD*%
%TO.C,Cf8*%
X85619500Y-82092800D03*
X83544500Y-82092800D03*
%TD*%
D13*
%TO.C,U2*%
X169675000Y-94020000D03*
X169675000Y-94670000D03*
X169675000Y-95320000D03*
X169675000Y-95970000D03*
X173900000Y-95970000D03*
X173900000Y-95320000D03*
X173900000Y-94670000D03*
X173900000Y-94020000D03*
%TD*%
D11*
%TO.C,Cb6*%
X165447800Y-84480400D03*
X163372800Y-84480400D03*
%TD*%
%TO.C,Cf11*%
X165617500Y-78790000D03*
X163542500Y-78790000D03*
%TD*%
D14*
%TO.C,Cf12*%
X146000000Y-78762500D03*
X146000000Y-80837500D03*
%TD*%
D11*
%TO.C,Cb2*%
X182211800Y-84429600D03*
X180136800Y-84429600D03*
%TD*%
%TO.C,Cb1*%
X197887500Y-84632800D03*
X195812500Y-84632800D03*
%TD*%
%TO.C,Cf7*%
X150033900Y-82042000D03*
X147958900Y-82042000D03*
%TD*%
D10*
%TO.C,IC6*%
X126581600Y-84429600D03*
X126581600Y-83159600D03*
X126581600Y-81889600D03*
X126581600Y-80619600D03*
X120981600Y-80619600D03*
X120981600Y-81889600D03*
X120981600Y-83159600D03*
X120981600Y-84429600D03*
%TD*%
%TO.C,IC4*%
X159054800Y-84480400D03*
X159054800Y-83210400D03*
X159054800Y-81940400D03*
X159054800Y-80670400D03*
X153454800Y-80670400D03*
X153454800Y-81940400D03*
X153454800Y-83210400D03*
X153454800Y-84480400D03*
%TD*%
D11*
%TO.C,Cb7*%
X150135500Y-84378800D03*
X148060500Y-84378800D03*
%TD*%
%TO.C,Cf14*%
X117962500Y-79025000D03*
X115887500Y-79025000D03*
%TD*%
%TO.C,Cf2*%
X182190300Y-82194400D03*
X180115300Y-82194400D03*
%TD*%
D15*
%TO.C,LED1*%
X83060000Y-110850000D03*
X86360000Y-110850000D03*
X83060000Y-105850000D03*
X86360000Y-105850000D03*
%TD*%
D16*
%TO.C,R3*%
X107012700Y-99001201D03*
X107012700Y-99801201D03*
X107012700Y-100601200D03*
X107012700Y-101401201D03*
X107012700Y-102201199D03*
X107012700Y-103001200D03*
X107012700Y-103801201D03*
X107012700Y-104601199D03*
X108816100Y-104601199D03*
X108816100Y-103801199D03*
X108816100Y-103001200D03*
X108816100Y-102201199D03*
X108816100Y-101401201D03*
X108816100Y-100601200D03*
X108816100Y-99801199D03*
X108816100Y-99001201D03*
%TD*%
D11*
%TO.C,Cf13*%
X133137500Y-79075000D03*
X131062500Y-79075000D03*
%TD*%
D15*
%TO.C,LED2*%
X89290000Y-110850000D03*
X92590000Y-110850000D03*
X89290000Y-105850000D03*
X92590000Y-105850000D03*
%TD*%
D11*
%TO.C,Cf10*%
X182270000Y-79140000D03*
X180195000Y-79140000D03*
%TD*%
%TO.C,Cb8*%
X85641000Y-84378800D03*
X83566000Y-84378800D03*
%TD*%
D13*
%TO.C,U1*%
X93767500Y-100260000D03*
X93767500Y-100910000D03*
X93767500Y-101560000D03*
X93767500Y-102210000D03*
X97992500Y-102210000D03*
X97992500Y-101560000D03*
X97992500Y-100910000D03*
X97992500Y-100260000D03*
%TD*%
D11*
%TO.C,Cb5*%
X133139000Y-84378800D03*
X131064000Y-84378800D03*
%TD*%
D10*
%TO.C,IC2*%
X191351600Y-84480400D03*
X191351600Y-83210400D03*
X191351600Y-81940400D03*
X191351600Y-80670400D03*
X185751600Y-80670400D03*
X185751600Y-81940400D03*
X185751600Y-83210400D03*
X185751600Y-84480400D03*
%TD*%
D11*
%TO.C,Cf4*%
X100808700Y-82905600D03*
X98733700Y-82905600D03*
%TD*%
%TO.C,Cf15*%
X100837500Y-79125000D03*
X98762500Y-79125000D03*
%TD*%
D10*
%TO.C,IC1*%
X206451200Y-84582000D03*
X206451200Y-83312000D03*
X206451200Y-82042000D03*
X206451200Y-80772000D03*
X200851200Y-80772000D03*
X200851200Y-82042000D03*
X200851200Y-83312000D03*
X200851200Y-84582000D03*
%TD*%
D11*
%TO.C,Cf16*%
X85637500Y-79000000D03*
X83562500Y-79000000D03*
%TD*%
D17*
%TO.C,R2*%
X172750000Y-97980000D03*
X170750000Y-97980000D03*
%TD*%
D11*
%TO.C,Cf9*%
X197920000Y-79000000D03*
X195845000Y-79000000D03*
%TD*%
D10*
%TO.C,IC8*%
X94171200Y-84328000D03*
X94171200Y-83058000D03*
X94171200Y-81788000D03*
X94171200Y-80518000D03*
X88571200Y-80518000D03*
X88571200Y-81788000D03*
X88571200Y-83058000D03*
X88571200Y-84328000D03*
%TD*%
D11*
%TO.C,Cb3*%
X117979100Y-84378800D03*
X115904100Y-84378800D03*
%TD*%
D16*
%TO.C,R4*%
X110464600Y-99022002D03*
X110464600Y-99822002D03*
X110464600Y-100622001D03*
X110464600Y-101422002D03*
X110464600Y-102222000D03*
X110464600Y-103022001D03*
X110464600Y-103822002D03*
X110464600Y-104622000D03*
X112268000Y-104622000D03*
X112268000Y-103822000D03*
X112268000Y-103022001D03*
X112268000Y-102222000D03*
X112268000Y-101422002D03*
X112268000Y-100622001D03*
X112268000Y-99822000D03*
X112268000Y-99022002D03*
%TD*%
D10*
%TO.C,IC3*%
X174040800Y-84480400D03*
X174040800Y-83210400D03*
X174040800Y-81940400D03*
X174040800Y-80670400D03*
X168440800Y-80670400D03*
X168440800Y-81940400D03*
X168440800Y-83210400D03*
X168440800Y-84480400D03*
%TD*%
D11*
%TO.C,Cb4*%
X100881000Y-85039200D03*
X98806000Y-85039200D03*
%TD*%
%TO.C,Cf5*%
X133139000Y-82143600D03*
X131064000Y-82143600D03*
%TD*%
%TO.C,Cf6*%
X165375500Y-82143600D03*
X163300500Y-82143600D03*
%TD*%
M02*
