%TF.GenerationSoftware,KiCad,Pcbnew,8.0.3*%
%TF.CreationDate,2025-02-12T02:25:28-08:00*%
%TF.ProjectId,MLU_Breakout,4d4c555f-4272-4656-916b-6f75742e6b69,rev?*%
%TF.SameCoordinates,Original*%
%TF.FileFunction,Legend,Bot*%
%TF.FilePolarity,Positive*%
%FSLAX46Y46*%
G04 Gerber Fmt 4.6, Leading zero omitted, Abs format (unit mm)*
G04 Created by KiCad (PCBNEW 8.0.3) date 2025-02-12 02:25:28*
%MOMM*%
%LPD*%
G01*
G04 APERTURE LIST*
%ADD10C,0.100000*%
%ADD11C,0.150000*%
%ADD12C,0.200000*%
%ADD13C,0.120000*%
G04 APERTURE END LIST*
D10*
X192962782Y-121148609D02*
X192819925Y-121196228D01*
X192819925Y-121196228D02*
X192772306Y-121243847D01*
X192772306Y-121243847D02*
X192724687Y-121339085D01*
X192724687Y-121339085D02*
X192724687Y-121481942D01*
X192724687Y-121481942D02*
X192772306Y-121577180D01*
X192772306Y-121577180D02*
X192819925Y-121624800D01*
X192819925Y-121624800D02*
X192915163Y-121672419D01*
X192915163Y-121672419D02*
X193296115Y-121672419D01*
X193296115Y-121672419D02*
X193296115Y-120672419D01*
X193296115Y-120672419D02*
X192962782Y-120672419D01*
X192962782Y-120672419D02*
X192867544Y-120720038D01*
X192867544Y-120720038D02*
X192819925Y-120767657D01*
X192819925Y-120767657D02*
X192772306Y-120862895D01*
X192772306Y-120862895D02*
X192772306Y-120958133D01*
X192772306Y-120958133D02*
X192819925Y-121053371D01*
X192819925Y-121053371D02*
X192867544Y-121100990D01*
X192867544Y-121100990D02*
X192962782Y-121148609D01*
X192962782Y-121148609D02*
X193296115Y-121148609D01*
X192343734Y-121386704D02*
X191867544Y-121386704D01*
X192438972Y-121672419D02*
X192105639Y-120672419D01*
X192105639Y-120672419D02*
X191772306Y-121672419D01*
X190867544Y-121672419D02*
X191200877Y-121196228D01*
X191438972Y-121672419D02*
X191438972Y-120672419D01*
X191438972Y-120672419D02*
X191058020Y-120672419D01*
X191058020Y-120672419D02*
X190962782Y-120720038D01*
X190962782Y-120720038D02*
X190915163Y-120767657D01*
X190915163Y-120767657D02*
X190867544Y-120862895D01*
X190867544Y-120862895D02*
X190867544Y-121005752D01*
X190867544Y-121005752D02*
X190915163Y-121100990D01*
X190915163Y-121100990D02*
X190962782Y-121148609D01*
X190962782Y-121148609D02*
X191058020Y-121196228D01*
X191058020Y-121196228D02*
X191438972Y-121196228D01*
X190534210Y-120672419D02*
X189915163Y-120672419D01*
X189915163Y-120672419D02*
X190248496Y-121053371D01*
X190248496Y-121053371D02*
X190105639Y-121053371D01*
X190105639Y-121053371D02*
X190010401Y-121100990D01*
X190010401Y-121100990D02*
X189962782Y-121148609D01*
X189962782Y-121148609D02*
X189915163Y-121243847D01*
X189915163Y-121243847D02*
X189915163Y-121481942D01*
X189915163Y-121481942D02*
X189962782Y-121577180D01*
X189962782Y-121577180D02*
X190010401Y-121624800D01*
X190010401Y-121624800D02*
X190105639Y-121672419D01*
X190105639Y-121672419D02*
X190391353Y-121672419D01*
X190391353Y-121672419D02*
X190486591Y-121624800D01*
X190486591Y-121624800D02*
X190534210Y-121577180D01*
X189296115Y-120672419D02*
X189200877Y-120672419D01*
X189200877Y-120672419D02*
X189105639Y-120720038D01*
X189105639Y-120720038D02*
X189058020Y-120767657D01*
X189058020Y-120767657D02*
X189010401Y-120862895D01*
X189010401Y-120862895D02*
X188962782Y-121053371D01*
X188962782Y-121053371D02*
X188962782Y-121291466D01*
X188962782Y-121291466D02*
X189010401Y-121481942D01*
X189010401Y-121481942D02*
X189058020Y-121577180D01*
X189058020Y-121577180D02*
X189105639Y-121624800D01*
X189105639Y-121624800D02*
X189200877Y-121672419D01*
X189200877Y-121672419D02*
X189296115Y-121672419D01*
X189296115Y-121672419D02*
X189391353Y-121624800D01*
X189391353Y-121624800D02*
X189438972Y-121577180D01*
X189438972Y-121577180D02*
X189486591Y-121481942D01*
X189486591Y-121481942D02*
X189534210Y-121291466D01*
X189534210Y-121291466D02*
X189534210Y-121053371D01*
X189534210Y-121053371D02*
X189486591Y-120862895D01*
X189486591Y-120862895D02*
X189438972Y-120767657D01*
X189438972Y-120767657D02*
X189391353Y-120720038D01*
X189391353Y-120720038D02*
X189296115Y-120672419D01*
D11*
X192070112Y-110069819D02*
X191498684Y-110069819D01*
X191784398Y-111069819D02*
X191784398Y-110069819D01*
X191260588Y-110069819D02*
X190593922Y-111069819D01*
X190593922Y-110069819D02*
X191260588Y-111069819D01*
X189689160Y-111069819D02*
X190260588Y-111069819D01*
X189974874Y-111069819D02*
X189974874Y-110069819D01*
X189974874Y-110069819D02*
X190070112Y-110212676D01*
X190070112Y-110212676D02*
X190165350Y-110307914D01*
X190165350Y-110307914D02*
X190260588Y-110355533D01*
X194393922Y-111069819D02*
X194727255Y-110593628D01*
X194965350Y-111069819D02*
X194965350Y-110069819D01*
X194965350Y-110069819D02*
X194584398Y-110069819D01*
X194584398Y-110069819D02*
X194489160Y-110117438D01*
X194489160Y-110117438D02*
X194441541Y-110165057D01*
X194441541Y-110165057D02*
X194393922Y-110260295D01*
X194393922Y-110260295D02*
X194393922Y-110403152D01*
X194393922Y-110403152D02*
X194441541Y-110498390D01*
X194441541Y-110498390D02*
X194489160Y-110546009D01*
X194489160Y-110546009D02*
X194584398Y-110593628D01*
X194584398Y-110593628D02*
X194965350Y-110593628D01*
X194060588Y-110069819D02*
X193393922Y-111069819D01*
X193393922Y-110069819D02*
X194060588Y-111069819D01*
X192489160Y-111069819D02*
X193060588Y-111069819D01*
X192774874Y-111069819D02*
X192774874Y-110069819D01*
X192774874Y-110069819D02*
X192870112Y-110212676D01*
X192870112Y-110212676D02*
X192965350Y-110307914D01*
X192965350Y-110307914D02*
X193060588Y-110355533D01*
X197510839Y-92442200D02*
X197367982Y-92489819D01*
X197367982Y-92489819D02*
X197129887Y-92489819D01*
X197129887Y-92489819D02*
X197034649Y-92442200D01*
X197034649Y-92442200D02*
X196987030Y-92394580D01*
X196987030Y-92394580D02*
X196939411Y-92299342D01*
X196939411Y-92299342D02*
X196939411Y-92204104D01*
X196939411Y-92204104D02*
X196987030Y-92108866D01*
X196987030Y-92108866D02*
X197034649Y-92061247D01*
X197034649Y-92061247D02*
X197129887Y-92013628D01*
X197129887Y-92013628D02*
X197320363Y-91966009D01*
X197320363Y-91966009D02*
X197415601Y-91918390D01*
X197415601Y-91918390D02*
X197463220Y-91870771D01*
X197463220Y-91870771D02*
X197510839Y-91775533D01*
X197510839Y-91775533D02*
X197510839Y-91680295D01*
X197510839Y-91680295D02*
X197463220Y-91585057D01*
X197463220Y-91585057D02*
X197415601Y-91537438D01*
X197415601Y-91537438D02*
X197320363Y-91489819D01*
X197320363Y-91489819D02*
X197082268Y-91489819D01*
X197082268Y-91489819D02*
X196939411Y-91537438D01*
X196510839Y-92489819D02*
X196510839Y-91489819D01*
X196510839Y-91489819D02*
X196272744Y-91489819D01*
X196272744Y-91489819D02*
X196129887Y-91537438D01*
X196129887Y-91537438D02*
X196034649Y-91632676D01*
X196034649Y-91632676D02*
X195987030Y-91727914D01*
X195987030Y-91727914D02*
X195939411Y-91918390D01*
X195939411Y-91918390D02*
X195939411Y-92061247D01*
X195939411Y-92061247D02*
X195987030Y-92251723D01*
X195987030Y-92251723D02*
X196034649Y-92346961D01*
X196034649Y-92346961D02*
X196129887Y-92442200D01*
X196129887Y-92442200D02*
X196272744Y-92489819D01*
X196272744Y-92489819D02*
X196510839Y-92489819D01*
X195558458Y-92204104D02*
X195082268Y-92204104D01*
X195653696Y-92489819D02*
X195320363Y-91489819D01*
X195320363Y-91489819D02*
X194987030Y-92489819D01*
X197510839Y-94842200D02*
X197367982Y-94889819D01*
X197367982Y-94889819D02*
X197129887Y-94889819D01*
X197129887Y-94889819D02*
X197034649Y-94842200D01*
X197034649Y-94842200D02*
X196987030Y-94794580D01*
X196987030Y-94794580D02*
X196939411Y-94699342D01*
X196939411Y-94699342D02*
X196939411Y-94604104D01*
X196939411Y-94604104D02*
X196987030Y-94508866D01*
X196987030Y-94508866D02*
X197034649Y-94461247D01*
X197034649Y-94461247D02*
X197129887Y-94413628D01*
X197129887Y-94413628D02*
X197320363Y-94366009D01*
X197320363Y-94366009D02*
X197415601Y-94318390D01*
X197415601Y-94318390D02*
X197463220Y-94270771D01*
X197463220Y-94270771D02*
X197510839Y-94175533D01*
X197510839Y-94175533D02*
X197510839Y-94080295D01*
X197510839Y-94080295D02*
X197463220Y-93985057D01*
X197463220Y-93985057D02*
X197415601Y-93937438D01*
X197415601Y-93937438D02*
X197320363Y-93889819D01*
X197320363Y-93889819D02*
X197082268Y-93889819D01*
X197082268Y-93889819D02*
X196939411Y-93937438D01*
X195939411Y-94794580D02*
X195987030Y-94842200D01*
X195987030Y-94842200D02*
X196129887Y-94889819D01*
X196129887Y-94889819D02*
X196225125Y-94889819D01*
X196225125Y-94889819D02*
X196367982Y-94842200D01*
X196367982Y-94842200D02*
X196463220Y-94746961D01*
X196463220Y-94746961D02*
X196510839Y-94651723D01*
X196510839Y-94651723D02*
X196558458Y-94461247D01*
X196558458Y-94461247D02*
X196558458Y-94318390D01*
X196558458Y-94318390D02*
X196510839Y-94127914D01*
X196510839Y-94127914D02*
X196463220Y-94032676D01*
X196463220Y-94032676D02*
X196367982Y-93937438D01*
X196367982Y-93937438D02*
X196225125Y-93889819D01*
X196225125Y-93889819D02*
X196129887Y-93889819D01*
X196129887Y-93889819D02*
X195987030Y-93937438D01*
X195987030Y-93937438D02*
X195939411Y-93985057D01*
X195034649Y-94889819D02*
X195510839Y-94889819D01*
X195510839Y-94889819D02*
X195510839Y-93889819D01*
X197358458Y-98889819D02*
X196739411Y-98889819D01*
X196739411Y-98889819D02*
X197072744Y-99270771D01*
X197072744Y-99270771D02*
X196929887Y-99270771D01*
X196929887Y-99270771D02*
X196834649Y-99318390D01*
X196834649Y-99318390D02*
X196787030Y-99366009D01*
X196787030Y-99366009D02*
X196739411Y-99461247D01*
X196739411Y-99461247D02*
X196739411Y-99699342D01*
X196739411Y-99699342D02*
X196787030Y-99794580D01*
X196787030Y-99794580D02*
X196834649Y-99842200D01*
X196834649Y-99842200D02*
X196929887Y-99889819D01*
X196929887Y-99889819D02*
X197215601Y-99889819D01*
X197215601Y-99889819D02*
X197310839Y-99842200D01*
X197310839Y-99842200D02*
X197358458Y-99794580D01*
X196310839Y-99794580D02*
X196263220Y-99842200D01*
X196263220Y-99842200D02*
X196310839Y-99889819D01*
X196310839Y-99889819D02*
X196358458Y-99842200D01*
X196358458Y-99842200D02*
X196310839Y-99794580D01*
X196310839Y-99794580D02*
X196310839Y-99889819D01*
X195929887Y-98889819D02*
X195310840Y-98889819D01*
X195310840Y-98889819D02*
X195644173Y-99270771D01*
X195644173Y-99270771D02*
X195501316Y-99270771D01*
X195501316Y-99270771D02*
X195406078Y-99318390D01*
X195406078Y-99318390D02*
X195358459Y-99366009D01*
X195358459Y-99366009D02*
X195310840Y-99461247D01*
X195310840Y-99461247D02*
X195310840Y-99699342D01*
X195310840Y-99699342D02*
X195358459Y-99794580D01*
X195358459Y-99794580D02*
X195406078Y-99842200D01*
X195406078Y-99842200D02*
X195501316Y-99889819D01*
X195501316Y-99889819D02*
X195787030Y-99889819D01*
X195787030Y-99889819D02*
X195882268Y-99842200D01*
X195882268Y-99842200D02*
X195929887Y-99794580D01*
X195025125Y-98889819D02*
X194691792Y-99889819D01*
X194691792Y-99889819D02*
X194358459Y-98889819D01*
X196939411Y-96537438D02*
X197034649Y-96489819D01*
X197034649Y-96489819D02*
X197177506Y-96489819D01*
X197177506Y-96489819D02*
X197320363Y-96537438D01*
X197320363Y-96537438D02*
X197415601Y-96632676D01*
X197415601Y-96632676D02*
X197463220Y-96727914D01*
X197463220Y-96727914D02*
X197510839Y-96918390D01*
X197510839Y-96918390D02*
X197510839Y-97061247D01*
X197510839Y-97061247D02*
X197463220Y-97251723D01*
X197463220Y-97251723D02*
X197415601Y-97346961D01*
X197415601Y-97346961D02*
X197320363Y-97442200D01*
X197320363Y-97442200D02*
X197177506Y-97489819D01*
X197177506Y-97489819D02*
X197082268Y-97489819D01*
X197082268Y-97489819D02*
X196939411Y-97442200D01*
X196939411Y-97442200D02*
X196891792Y-97394580D01*
X196891792Y-97394580D02*
X196891792Y-97061247D01*
X196891792Y-97061247D02*
X197082268Y-97061247D01*
X196463220Y-97489819D02*
X196463220Y-96489819D01*
X196463220Y-96489819D02*
X195891792Y-97489819D01*
X195891792Y-97489819D02*
X195891792Y-96489819D01*
X195415601Y-97489819D02*
X195415601Y-96489819D01*
X195415601Y-96489819D02*
X195177506Y-96489819D01*
X195177506Y-96489819D02*
X195034649Y-96537438D01*
X195034649Y-96537438D02*
X194939411Y-96632676D01*
X194939411Y-96632676D02*
X194891792Y-96727914D01*
X194891792Y-96727914D02*
X194844173Y-96918390D01*
X194844173Y-96918390D02*
X194844173Y-97061247D01*
X194844173Y-97061247D02*
X194891792Y-97251723D01*
X194891792Y-97251723D02*
X194939411Y-97346961D01*
X194939411Y-97346961D02*
X195034649Y-97442200D01*
X195034649Y-97442200D02*
X195177506Y-97489819D01*
X195177506Y-97489819D02*
X195415601Y-97489819D01*
D12*
X197039850Y-87457275D02*
X196849374Y-87457275D01*
X196849374Y-87457275D02*
X196754136Y-87504894D01*
X196754136Y-87504894D02*
X196658898Y-87600132D01*
X196658898Y-87600132D02*
X196611279Y-87790608D01*
X196611279Y-87790608D02*
X196611279Y-88123941D01*
X196611279Y-88123941D02*
X196658898Y-88314417D01*
X196658898Y-88314417D02*
X196754136Y-88409656D01*
X196754136Y-88409656D02*
X196849374Y-88457275D01*
X196849374Y-88457275D02*
X197039850Y-88457275D01*
X197039850Y-88457275D02*
X197135088Y-88409656D01*
X197135088Y-88409656D02*
X197230326Y-88314417D01*
X197230326Y-88314417D02*
X197277945Y-88123941D01*
X197277945Y-88123941D02*
X197277945Y-87790608D01*
X197277945Y-87790608D02*
X197230326Y-87600132D01*
X197230326Y-87600132D02*
X197135088Y-87504894D01*
X197135088Y-87504894D02*
X197039850Y-87457275D01*
X196182707Y-88457275D02*
X196182707Y-87790608D01*
X196182707Y-87981084D02*
X196135088Y-87885846D01*
X196135088Y-87885846D02*
X196087469Y-87838227D01*
X196087469Y-87838227D02*
X195992231Y-87790608D01*
X195992231Y-87790608D02*
X195896993Y-87790608D01*
X195563659Y-88457275D02*
X195563659Y-87790608D01*
X195563659Y-87457275D02*
X195611278Y-87504894D01*
X195611278Y-87504894D02*
X195563659Y-87552513D01*
X195563659Y-87552513D02*
X195516040Y-87504894D01*
X195516040Y-87504894D02*
X195563659Y-87457275D01*
X195563659Y-87457275D02*
X195563659Y-87552513D01*
X195087469Y-87790608D02*
X195087469Y-88457275D01*
X195087469Y-87885846D02*
X195039850Y-87838227D01*
X195039850Y-87838227D02*
X194944612Y-87790608D01*
X194944612Y-87790608D02*
X194801755Y-87790608D01*
X194801755Y-87790608D02*
X194706517Y-87838227D01*
X194706517Y-87838227D02*
X194658898Y-87933465D01*
X194658898Y-87933465D02*
X194658898Y-88457275D01*
X193468422Y-87409656D02*
X194325564Y-88695370D01*
X193135088Y-88457275D02*
X193135088Y-87457275D01*
X192658898Y-88457275D02*
X192658898Y-87457275D01*
X192658898Y-87457275D02*
X192325565Y-88171560D01*
X192325565Y-88171560D02*
X191992232Y-87457275D01*
X191992232Y-87457275D02*
X191992232Y-88457275D01*
X191516041Y-87457275D02*
X191516041Y-88266798D01*
X191516041Y-88266798D02*
X191468422Y-88362036D01*
X191468422Y-88362036D02*
X191420803Y-88409656D01*
X191420803Y-88409656D02*
X191325565Y-88457275D01*
X191325565Y-88457275D02*
X191135089Y-88457275D01*
X191135089Y-88457275D02*
X191039851Y-88409656D01*
X191039851Y-88409656D02*
X190992232Y-88362036D01*
X190992232Y-88362036D02*
X190944613Y-88266798D01*
X190944613Y-88266798D02*
X190944613Y-87457275D01*
X197373183Y-89067219D02*
X196801755Y-89067219D01*
X197087469Y-90067219D02*
X197087469Y-89067219D01*
X196087469Y-90019600D02*
X196182707Y-90067219D01*
X196182707Y-90067219D02*
X196373183Y-90067219D01*
X196373183Y-90067219D02*
X196468421Y-90019600D01*
X196468421Y-90019600D02*
X196516040Y-89924361D01*
X196516040Y-89924361D02*
X196516040Y-89543409D01*
X196516040Y-89543409D02*
X196468421Y-89448171D01*
X196468421Y-89448171D02*
X196373183Y-89400552D01*
X196373183Y-89400552D02*
X196182707Y-89400552D01*
X196182707Y-89400552D02*
X196087469Y-89448171D01*
X196087469Y-89448171D02*
X196039850Y-89543409D01*
X196039850Y-89543409D02*
X196039850Y-89638647D01*
X196039850Y-89638647D02*
X196516040Y-89733885D01*
X195611278Y-90067219D02*
X195611278Y-89400552D01*
X195611278Y-89495790D02*
X195563659Y-89448171D01*
X195563659Y-89448171D02*
X195468421Y-89400552D01*
X195468421Y-89400552D02*
X195325564Y-89400552D01*
X195325564Y-89400552D02*
X195230326Y-89448171D01*
X195230326Y-89448171D02*
X195182707Y-89543409D01*
X195182707Y-89543409D02*
X195182707Y-90067219D01*
X195182707Y-89543409D02*
X195135088Y-89448171D01*
X195135088Y-89448171D02*
X195039850Y-89400552D01*
X195039850Y-89400552D02*
X194896993Y-89400552D01*
X194896993Y-89400552D02*
X194801754Y-89448171D01*
X194801754Y-89448171D02*
X194754135Y-89543409D01*
X194754135Y-89543409D02*
X194754135Y-90067219D01*
X194277945Y-89400552D02*
X194277945Y-90400552D01*
X194277945Y-89448171D02*
X194182707Y-89400552D01*
X194182707Y-89400552D02*
X193992231Y-89400552D01*
X193992231Y-89400552D02*
X193896993Y-89448171D01*
X193896993Y-89448171D02*
X193849374Y-89495790D01*
X193849374Y-89495790D02*
X193801755Y-89591028D01*
X193801755Y-89591028D02*
X193801755Y-89876742D01*
X193801755Y-89876742D02*
X193849374Y-89971980D01*
X193849374Y-89971980D02*
X193896993Y-90019600D01*
X193896993Y-90019600D02*
X193992231Y-90067219D01*
X193992231Y-90067219D02*
X194182707Y-90067219D01*
X194182707Y-90067219D02*
X194277945Y-90019600D01*
D11*
X197479635Y-126719819D02*
X197479635Y-125719819D01*
X197479635Y-125719819D02*
X197146302Y-126434104D01*
X197146302Y-126434104D02*
X196812969Y-125719819D01*
X196812969Y-125719819D02*
X196812969Y-126719819D01*
X196336778Y-126719819D02*
X196336778Y-125719819D01*
X195908207Y-126672200D02*
X195765350Y-126719819D01*
X195765350Y-126719819D02*
X195527255Y-126719819D01*
X195527255Y-126719819D02*
X195432017Y-126672200D01*
X195432017Y-126672200D02*
X195384398Y-126624580D01*
X195384398Y-126624580D02*
X195336779Y-126529342D01*
X195336779Y-126529342D02*
X195336779Y-126434104D01*
X195336779Y-126434104D02*
X195384398Y-126338866D01*
X195384398Y-126338866D02*
X195432017Y-126291247D01*
X195432017Y-126291247D02*
X195527255Y-126243628D01*
X195527255Y-126243628D02*
X195717731Y-126196009D01*
X195717731Y-126196009D02*
X195812969Y-126148390D01*
X195812969Y-126148390D02*
X195860588Y-126100771D01*
X195860588Y-126100771D02*
X195908207Y-126005533D01*
X195908207Y-126005533D02*
X195908207Y-125910295D01*
X195908207Y-125910295D02*
X195860588Y-125815057D01*
X195860588Y-125815057D02*
X195812969Y-125767438D01*
X195812969Y-125767438D02*
X195717731Y-125719819D01*
X195717731Y-125719819D02*
X195479636Y-125719819D01*
X195479636Y-125719819D02*
X195336779Y-125767438D01*
X194717731Y-125719819D02*
X194527255Y-125719819D01*
X194527255Y-125719819D02*
X194432017Y-125767438D01*
X194432017Y-125767438D02*
X194336779Y-125862676D01*
X194336779Y-125862676D02*
X194289160Y-126053152D01*
X194289160Y-126053152D02*
X194289160Y-126386485D01*
X194289160Y-126386485D02*
X194336779Y-126576961D01*
X194336779Y-126576961D02*
X194432017Y-126672200D01*
X194432017Y-126672200D02*
X194527255Y-126719819D01*
X194527255Y-126719819D02*
X194717731Y-126719819D01*
X194717731Y-126719819D02*
X194812969Y-126672200D01*
X194812969Y-126672200D02*
X194908207Y-126576961D01*
X194908207Y-126576961D02*
X194955826Y-126386485D01*
X194955826Y-126386485D02*
X194955826Y-126053152D01*
X194955826Y-126053152D02*
X194908207Y-125862676D01*
X194908207Y-125862676D02*
X194812969Y-125767438D01*
X194812969Y-125767438D02*
X194717731Y-125719819D01*
X196993922Y-105319819D02*
X197470112Y-105319819D01*
X197470112Y-105319819D02*
X197517731Y-105796009D01*
X197517731Y-105796009D02*
X197470112Y-105748390D01*
X197470112Y-105748390D02*
X197374874Y-105700771D01*
X197374874Y-105700771D02*
X197136779Y-105700771D01*
X197136779Y-105700771D02*
X197041541Y-105748390D01*
X197041541Y-105748390D02*
X196993922Y-105796009D01*
X196993922Y-105796009D02*
X196946303Y-105891247D01*
X196946303Y-105891247D02*
X196946303Y-106129342D01*
X196946303Y-106129342D02*
X196993922Y-106224580D01*
X196993922Y-106224580D02*
X197041541Y-106272200D01*
X197041541Y-106272200D02*
X197136779Y-106319819D01*
X197136779Y-106319819D02*
X197374874Y-106319819D01*
X197374874Y-106319819D02*
X197470112Y-106272200D01*
X197470112Y-106272200D02*
X197517731Y-106224580D01*
X196660588Y-105319819D02*
X196327255Y-106319819D01*
X196327255Y-106319819D02*
X195993922Y-105319819D01*
X197679635Y-119469819D02*
X197679635Y-118469819D01*
X197679635Y-118469819D02*
X197346302Y-119184104D01*
X197346302Y-119184104D02*
X197012969Y-118469819D01*
X197012969Y-118469819D02*
X197012969Y-119469819D01*
X196346302Y-118469819D02*
X196155826Y-118469819D01*
X196155826Y-118469819D02*
X196060588Y-118517438D01*
X196060588Y-118517438D02*
X195965350Y-118612676D01*
X195965350Y-118612676D02*
X195917731Y-118803152D01*
X195917731Y-118803152D02*
X195917731Y-119136485D01*
X195917731Y-119136485D02*
X195965350Y-119326961D01*
X195965350Y-119326961D02*
X196060588Y-119422200D01*
X196060588Y-119422200D02*
X196155826Y-119469819D01*
X196155826Y-119469819D02*
X196346302Y-119469819D01*
X196346302Y-119469819D02*
X196441540Y-119422200D01*
X196441540Y-119422200D02*
X196536778Y-119326961D01*
X196536778Y-119326961D02*
X196584397Y-119136485D01*
X196584397Y-119136485D02*
X196584397Y-118803152D01*
X196584397Y-118803152D02*
X196536778Y-118612676D01*
X196536778Y-118612676D02*
X196441540Y-118517438D01*
X196441540Y-118517438D02*
X196346302Y-118469819D01*
X195536778Y-119422200D02*
X195393921Y-119469819D01*
X195393921Y-119469819D02*
X195155826Y-119469819D01*
X195155826Y-119469819D02*
X195060588Y-119422200D01*
X195060588Y-119422200D02*
X195012969Y-119374580D01*
X195012969Y-119374580D02*
X194965350Y-119279342D01*
X194965350Y-119279342D02*
X194965350Y-119184104D01*
X194965350Y-119184104D02*
X195012969Y-119088866D01*
X195012969Y-119088866D02*
X195060588Y-119041247D01*
X195060588Y-119041247D02*
X195155826Y-118993628D01*
X195155826Y-118993628D02*
X195346302Y-118946009D01*
X195346302Y-118946009D02*
X195441540Y-118898390D01*
X195441540Y-118898390D02*
X195489159Y-118850771D01*
X195489159Y-118850771D02*
X195536778Y-118755533D01*
X195536778Y-118755533D02*
X195536778Y-118660295D01*
X195536778Y-118660295D02*
X195489159Y-118565057D01*
X195489159Y-118565057D02*
X195441540Y-118517438D01*
X195441540Y-118517438D02*
X195346302Y-118469819D01*
X195346302Y-118469819D02*
X195108207Y-118469819D01*
X195108207Y-118469819D02*
X194965350Y-118517438D01*
X194536778Y-119469819D02*
X194536778Y-118469819D01*
X197041541Y-111174580D02*
X197089160Y-111222200D01*
X197089160Y-111222200D02*
X197232017Y-111269819D01*
X197232017Y-111269819D02*
X197327255Y-111269819D01*
X197327255Y-111269819D02*
X197470112Y-111222200D01*
X197470112Y-111222200D02*
X197565350Y-111126961D01*
X197565350Y-111126961D02*
X197612969Y-111031723D01*
X197612969Y-111031723D02*
X197660588Y-110841247D01*
X197660588Y-110841247D02*
X197660588Y-110698390D01*
X197660588Y-110698390D02*
X197612969Y-110507914D01*
X197612969Y-110507914D02*
X197565350Y-110412676D01*
X197565350Y-110412676D02*
X197470112Y-110317438D01*
X197470112Y-110317438D02*
X197327255Y-110269819D01*
X197327255Y-110269819D02*
X197232017Y-110269819D01*
X197232017Y-110269819D02*
X197089160Y-110317438D01*
X197089160Y-110317438D02*
X197041541Y-110365057D01*
X196660588Y-111222200D02*
X196517731Y-111269819D01*
X196517731Y-111269819D02*
X196279636Y-111269819D01*
X196279636Y-111269819D02*
X196184398Y-111222200D01*
X196184398Y-111222200D02*
X196136779Y-111174580D01*
X196136779Y-111174580D02*
X196089160Y-111079342D01*
X196089160Y-111079342D02*
X196089160Y-110984104D01*
X196089160Y-110984104D02*
X196136779Y-110888866D01*
X196136779Y-110888866D02*
X196184398Y-110841247D01*
X196184398Y-110841247D02*
X196279636Y-110793628D01*
X196279636Y-110793628D02*
X196470112Y-110746009D01*
X196470112Y-110746009D02*
X196565350Y-110698390D01*
X196565350Y-110698390D02*
X196612969Y-110650771D01*
X196612969Y-110650771D02*
X196660588Y-110555533D01*
X196660588Y-110555533D02*
X196660588Y-110460295D01*
X196660588Y-110460295D02*
X196612969Y-110365057D01*
X196612969Y-110365057D02*
X196565350Y-110317438D01*
X196565350Y-110317438D02*
X196470112Y-110269819D01*
X196470112Y-110269819D02*
X196232017Y-110269819D01*
X196232017Y-110269819D02*
X196089160Y-110317438D01*
X197184398Y-107767438D02*
X197279636Y-107719819D01*
X197279636Y-107719819D02*
X197422493Y-107719819D01*
X197422493Y-107719819D02*
X197565350Y-107767438D01*
X197565350Y-107767438D02*
X197660588Y-107862676D01*
X197660588Y-107862676D02*
X197708207Y-107957914D01*
X197708207Y-107957914D02*
X197755826Y-108148390D01*
X197755826Y-108148390D02*
X197755826Y-108291247D01*
X197755826Y-108291247D02*
X197708207Y-108481723D01*
X197708207Y-108481723D02*
X197660588Y-108576961D01*
X197660588Y-108576961D02*
X197565350Y-108672200D01*
X197565350Y-108672200D02*
X197422493Y-108719819D01*
X197422493Y-108719819D02*
X197327255Y-108719819D01*
X197327255Y-108719819D02*
X197184398Y-108672200D01*
X197184398Y-108672200D02*
X197136779Y-108624580D01*
X197136779Y-108624580D02*
X197136779Y-108291247D01*
X197136779Y-108291247D02*
X197327255Y-108291247D01*
X196708207Y-108719819D02*
X196708207Y-107719819D01*
X196708207Y-107719819D02*
X196136779Y-108719819D01*
X196136779Y-108719819D02*
X196136779Y-107719819D01*
X195660588Y-108719819D02*
X195660588Y-107719819D01*
X195660588Y-107719819D02*
X195422493Y-107719819D01*
X195422493Y-107719819D02*
X195279636Y-107767438D01*
X195279636Y-107767438D02*
X195184398Y-107862676D01*
X195184398Y-107862676D02*
X195136779Y-107957914D01*
X195136779Y-107957914D02*
X195089160Y-108148390D01*
X195089160Y-108148390D02*
X195089160Y-108291247D01*
X195089160Y-108291247D02*
X195136779Y-108481723D01*
X195136779Y-108481723D02*
X195184398Y-108576961D01*
X195184398Y-108576961D02*
X195279636Y-108672200D01*
X195279636Y-108672200D02*
X195422493Y-108719819D01*
X195422493Y-108719819D02*
X195660588Y-108719819D01*
X197460588Y-121672200D02*
X197317731Y-121719819D01*
X197317731Y-121719819D02*
X197079636Y-121719819D01*
X197079636Y-121719819D02*
X196984398Y-121672200D01*
X196984398Y-121672200D02*
X196936779Y-121624580D01*
X196936779Y-121624580D02*
X196889160Y-121529342D01*
X196889160Y-121529342D02*
X196889160Y-121434104D01*
X196889160Y-121434104D02*
X196936779Y-121338866D01*
X196936779Y-121338866D02*
X196984398Y-121291247D01*
X196984398Y-121291247D02*
X197079636Y-121243628D01*
X197079636Y-121243628D02*
X197270112Y-121196009D01*
X197270112Y-121196009D02*
X197365350Y-121148390D01*
X197365350Y-121148390D02*
X197412969Y-121100771D01*
X197412969Y-121100771D02*
X197460588Y-121005533D01*
X197460588Y-121005533D02*
X197460588Y-120910295D01*
X197460588Y-120910295D02*
X197412969Y-120815057D01*
X197412969Y-120815057D02*
X197365350Y-120767438D01*
X197365350Y-120767438D02*
X197270112Y-120719819D01*
X197270112Y-120719819D02*
X197032017Y-120719819D01*
X197032017Y-120719819D02*
X196889160Y-120767438D01*
X195889160Y-121624580D02*
X195936779Y-121672200D01*
X195936779Y-121672200D02*
X196079636Y-121719819D01*
X196079636Y-121719819D02*
X196174874Y-121719819D01*
X196174874Y-121719819D02*
X196317731Y-121672200D01*
X196317731Y-121672200D02*
X196412969Y-121576961D01*
X196412969Y-121576961D02*
X196460588Y-121481723D01*
X196460588Y-121481723D02*
X196508207Y-121291247D01*
X196508207Y-121291247D02*
X196508207Y-121148390D01*
X196508207Y-121148390D02*
X196460588Y-120957914D01*
X196460588Y-120957914D02*
X196412969Y-120862676D01*
X196412969Y-120862676D02*
X196317731Y-120767438D01*
X196317731Y-120767438D02*
X196174874Y-120719819D01*
X196174874Y-120719819D02*
X196079636Y-120719819D01*
X196079636Y-120719819D02*
X195936779Y-120767438D01*
X195936779Y-120767438D02*
X195889160Y-120815057D01*
X195460588Y-121719819D02*
X195460588Y-120719819D01*
X194889160Y-121719819D02*
X195317731Y-121148390D01*
X194889160Y-120719819D02*
X195460588Y-121291247D01*
X196939411Y-85042238D02*
X197034649Y-84994619D01*
X197034649Y-84994619D02*
X197177506Y-84994619D01*
X197177506Y-84994619D02*
X197320363Y-85042238D01*
X197320363Y-85042238D02*
X197415601Y-85137476D01*
X197415601Y-85137476D02*
X197463220Y-85232714D01*
X197463220Y-85232714D02*
X197510839Y-85423190D01*
X197510839Y-85423190D02*
X197510839Y-85566047D01*
X197510839Y-85566047D02*
X197463220Y-85756523D01*
X197463220Y-85756523D02*
X197415601Y-85851761D01*
X197415601Y-85851761D02*
X197320363Y-85947000D01*
X197320363Y-85947000D02*
X197177506Y-85994619D01*
X197177506Y-85994619D02*
X197082268Y-85994619D01*
X197082268Y-85994619D02*
X196939411Y-85947000D01*
X196939411Y-85947000D02*
X196891792Y-85899380D01*
X196891792Y-85899380D02*
X196891792Y-85566047D01*
X196891792Y-85566047D02*
X197082268Y-85566047D01*
X196463220Y-85994619D02*
X196463220Y-84994619D01*
X196463220Y-84994619D02*
X195891792Y-85994619D01*
X195891792Y-85994619D02*
X195891792Y-84994619D01*
X195415601Y-85994619D02*
X195415601Y-84994619D01*
X195415601Y-84994619D02*
X195177506Y-84994619D01*
X195177506Y-84994619D02*
X195034649Y-85042238D01*
X195034649Y-85042238D02*
X194939411Y-85137476D01*
X194939411Y-85137476D02*
X194891792Y-85232714D01*
X194891792Y-85232714D02*
X194844173Y-85423190D01*
X194844173Y-85423190D02*
X194844173Y-85566047D01*
X194844173Y-85566047D02*
X194891792Y-85756523D01*
X194891792Y-85756523D02*
X194939411Y-85851761D01*
X194939411Y-85851761D02*
X195034649Y-85947000D01*
X195034649Y-85947000D02*
X195177506Y-85994619D01*
X195177506Y-85994619D02*
X195415601Y-85994619D01*
X197510839Y-80527304D02*
X197034649Y-80527304D01*
X197606077Y-80813019D02*
X197272744Y-79813019D01*
X197272744Y-79813019D02*
X196939411Y-80813019D01*
X196606077Y-80146352D02*
X196606077Y-80813019D01*
X196606077Y-80241590D02*
X196558458Y-80193971D01*
X196558458Y-80193971D02*
X196463220Y-80146352D01*
X196463220Y-80146352D02*
X196320363Y-80146352D01*
X196320363Y-80146352D02*
X196225125Y-80193971D01*
X196225125Y-80193971D02*
X196177506Y-80289209D01*
X196177506Y-80289209D02*
X196177506Y-80813019D01*
X195844172Y-79813019D02*
X195510839Y-80813019D01*
X195510839Y-80813019D02*
X195177506Y-79813019D01*
X197510839Y-77784104D02*
X197034649Y-77784104D01*
X197606077Y-78069819D02*
X197272744Y-77069819D01*
X197272744Y-77069819D02*
X196939411Y-78069819D01*
X196606077Y-77403152D02*
X196606077Y-78069819D01*
X196606077Y-77498390D02*
X196558458Y-77450771D01*
X196558458Y-77450771D02*
X196463220Y-77403152D01*
X196463220Y-77403152D02*
X196320363Y-77403152D01*
X196320363Y-77403152D02*
X196225125Y-77450771D01*
X196225125Y-77450771D02*
X196177506Y-77546009D01*
X196177506Y-77546009D02*
X196177506Y-78069819D01*
X195701315Y-78069819D02*
X195701315Y-77069819D01*
X197037830Y-71888219D02*
X197514020Y-71888219D01*
X197514020Y-71888219D02*
X197561639Y-72364409D01*
X197561639Y-72364409D02*
X197514020Y-72316790D01*
X197514020Y-72316790D02*
X197418782Y-72269171D01*
X197418782Y-72269171D02*
X197180687Y-72269171D01*
X197180687Y-72269171D02*
X197085449Y-72316790D01*
X197085449Y-72316790D02*
X197037830Y-72364409D01*
X197037830Y-72364409D02*
X196990211Y-72459647D01*
X196990211Y-72459647D02*
X196990211Y-72697742D01*
X196990211Y-72697742D02*
X197037830Y-72792980D01*
X197037830Y-72792980D02*
X197085449Y-72840600D01*
X197085449Y-72840600D02*
X197180687Y-72888219D01*
X197180687Y-72888219D02*
X197418782Y-72888219D01*
X197418782Y-72888219D02*
X197514020Y-72840600D01*
X197514020Y-72840600D02*
X197561639Y-72792980D01*
X196704496Y-71888219D02*
X196371163Y-72888219D01*
X196371163Y-72888219D02*
X196037830Y-71888219D01*
X197088630Y-74479019D02*
X197564820Y-74479019D01*
X197564820Y-74479019D02*
X197612439Y-74955209D01*
X197612439Y-74955209D02*
X197564820Y-74907590D01*
X197564820Y-74907590D02*
X197469582Y-74859971D01*
X197469582Y-74859971D02*
X197231487Y-74859971D01*
X197231487Y-74859971D02*
X197136249Y-74907590D01*
X197136249Y-74907590D02*
X197088630Y-74955209D01*
X197088630Y-74955209D02*
X197041011Y-75050447D01*
X197041011Y-75050447D02*
X197041011Y-75288542D01*
X197041011Y-75288542D02*
X197088630Y-75383780D01*
X197088630Y-75383780D02*
X197136249Y-75431400D01*
X197136249Y-75431400D02*
X197231487Y-75479019D01*
X197231487Y-75479019D02*
X197469582Y-75479019D01*
X197469582Y-75479019D02*
X197564820Y-75431400D01*
X197564820Y-75431400D02*
X197612439Y-75383780D01*
X196755296Y-74479019D02*
X196421963Y-75479019D01*
X196421963Y-75479019D02*
X196088630Y-74479019D01*
X196990211Y-82248238D02*
X197085449Y-82200619D01*
X197085449Y-82200619D02*
X197228306Y-82200619D01*
X197228306Y-82200619D02*
X197371163Y-82248238D01*
X197371163Y-82248238D02*
X197466401Y-82343476D01*
X197466401Y-82343476D02*
X197514020Y-82438714D01*
X197514020Y-82438714D02*
X197561639Y-82629190D01*
X197561639Y-82629190D02*
X197561639Y-82772047D01*
X197561639Y-82772047D02*
X197514020Y-82962523D01*
X197514020Y-82962523D02*
X197466401Y-83057761D01*
X197466401Y-83057761D02*
X197371163Y-83153000D01*
X197371163Y-83153000D02*
X197228306Y-83200619D01*
X197228306Y-83200619D02*
X197133068Y-83200619D01*
X197133068Y-83200619D02*
X196990211Y-83153000D01*
X196990211Y-83153000D02*
X196942592Y-83105380D01*
X196942592Y-83105380D02*
X196942592Y-82772047D01*
X196942592Y-82772047D02*
X197133068Y-82772047D01*
X196514020Y-83200619D02*
X196514020Y-82200619D01*
X196514020Y-82200619D02*
X195942592Y-83200619D01*
X195942592Y-83200619D02*
X195942592Y-82200619D01*
X195466401Y-83200619D02*
X195466401Y-82200619D01*
X195466401Y-82200619D02*
X195228306Y-82200619D01*
X195228306Y-82200619D02*
X195085449Y-82248238D01*
X195085449Y-82248238D02*
X194990211Y-82343476D01*
X194990211Y-82343476D02*
X194942592Y-82438714D01*
X194942592Y-82438714D02*
X194894973Y-82629190D01*
X194894973Y-82629190D02*
X194894973Y-82772047D01*
X194894973Y-82772047D02*
X194942592Y-82962523D01*
X194942592Y-82962523D02*
X194990211Y-83057761D01*
X194990211Y-83057761D02*
X195085449Y-83153000D01*
X195085449Y-83153000D02*
X195228306Y-83200619D01*
X195228306Y-83200619D02*
X195466401Y-83200619D01*
X200215333Y-101644819D02*
X200215333Y-102359104D01*
X200215333Y-102359104D02*
X200262952Y-102501961D01*
X200262952Y-102501961D02*
X200358190Y-102597200D01*
X200358190Y-102597200D02*
X200501047Y-102644819D01*
X200501047Y-102644819D02*
X200596285Y-102644819D01*
X199310571Y-101978152D02*
X199310571Y-102644819D01*
X199548666Y-101597200D02*
X199786761Y-102311485D01*
X199786761Y-102311485D02*
X199167714Y-102311485D01*
X200133333Y-69264819D02*
X200133333Y-69979104D01*
X200133333Y-69979104D02*
X200180952Y-70121961D01*
X200180952Y-70121961D02*
X200276190Y-70217200D01*
X200276190Y-70217200D02*
X200419047Y-70264819D01*
X200419047Y-70264819D02*
X200514285Y-70264819D01*
X199752380Y-69264819D02*
X199133333Y-69264819D01*
X199133333Y-69264819D02*
X199466666Y-69645771D01*
X199466666Y-69645771D02*
X199323809Y-69645771D01*
X199323809Y-69645771D02*
X199228571Y-69693390D01*
X199228571Y-69693390D02*
X199180952Y-69741009D01*
X199180952Y-69741009D02*
X199133333Y-69836247D01*
X199133333Y-69836247D02*
X199133333Y-70074342D01*
X199133333Y-70074342D02*
X199180952Y-70169580D01*
X199180952Y-70169580D02*
X199228571Y-70217200D01*
X199228571Y-70217200D02*
X199323809Y-70264819D01*
X199323809Y-70264819D02*
X199609523Y-70264819D01*
X199609523Y-70264819D02*
X199704761Y-70217200D01*
X199704761Y-70217200D02*
X199752380Y-70169580D01*
D13*
%TO.C,J8*%
X189530000Y-109130000D02*
X192130000Y-109130000D01*
X192130000Y-106470000D02*
X192130000Y-109130000D01*
X189530000Y-106470000D02*
X189530000Y-109130000D01*
X194730000Y-106470000D02*
X194730000Y-107800000D01*
X193400000Y-106470000D02*
X194730000Y-106470000D01*
X189530000Y-106470000D02*
X192130000Y-106470000D01*
%TO.C,J6*%
X195155000Y-123800000D02*
X195155000Y-125130000D01*
X195155000Y-125130000D02*
X193825000Y-125130000D01*
X189955000Y-125130000D02*
X192555000Y-125130000D01*
X192555000Y-122470000D02*
X192555000Y-125130000D01*
X189955000Y-122470000D02*
X189955000Y-125130000D01*
X189955000Y-122470000D02*
X192555000Y-122470000D01*
%TO.C,J4*%
X198552000Y-90470000D02*
X198552000Y-98150000D01*
X201212000Y-98150000D02*
X198552000Y-98150000D01*
X201212000Y-90470000D02*
X198552000Y-90470000D01*
X201212000Y-100750000D02*
X199882000Y-100750000D01*
X201212000Y-99420000D02*
X201212000Y-100750000D01*
X201212000Y-90470000D02*
X201212000Y-98150000D01*
%TO.C,J3*%
X201130000Y-86610000D02*
X201130000Y-73850000D01*
X198470000Y-73850000D02*
X201130000Y-73850000D01*
X198470000Y-86610000D02*
X201130000Y-86610000D01*
X198470000Y-71250000D02*
X199800000Y-71250000D01*
X198470000Y-72580000D02*
X198470000Y-71250000D01*
X198470000Y-86610000D02*
X198470000Y-73850000D01*
%TO.C,J9*%
X198527000Y-127500000D02*
X198527000Y-107120000D01*
X198527000Y-127500000D02*
X201187000Y-127500000D01*
X198527000Y-107120000D02*
X201187000Y-107120000D01*
X201187000Y-127500000D02*
X201187000Y-107120000D01*
X201187000Y-104520000D02*
X201187000Y-105850000D01*
X199857000Y-104520000D02*
X201187000Y-104520000D01*
%TD*%
M02*
