%TF.GenerationSoftware,KiCad,Pcbnew,8.0.3*%
%TF.CreationDate,2025-02-12T02:25:28-08:00*%
%TF.ProjectId,MLU_Breakout,4d4c555f-4272-4656-916b-6f75742e6b69,rev?*%
%TF.SameCoordinates,Original*%
%TF.FileFunction,Soldermask,Bot*%
%TF.FilePolarity,Negative*%
%FSLAX46Y46*%
G04 Gerber Fmt 4.6, Leading zero omitted, Abs format (unit mm)*
G04 Created by KiCad (PCBNEW 8.0.3) date 2025-02-12 02:25:28*
%MOMM*%
%LPD*%
G01*
G04 APERTURE LIST*
%ADD10O,1.700000X1.700000*%
%ADD11R,1.700000X1.700000*%
%ADD12R,1.498600X1.498600*%
%ADD13C,1.498600*%
%ADD14C,3.200000*%
%ADD15R,1.600000X1.600000*%
%ADD16C,1.600000*%
%ADD17R,1.300000X1.300000*%
%ADD18C,1.300000*%
G04 APERTURE END LIST*
D10*
%TO.C,J10*%
X142200000Y-76400000D03*
X142200000Y-78940000D03*
X142200000Y-81480000D03*
X142200000Y-84020000D03*
X142200000Y-86560000D03*
X142200000Y-89100000D03*
X142200000Y-91640000D03*
X142200000Y-94180000D03*
X142200000Y-96720000D03*
X142200000Y-99260000D03*
X142200000Y-101800000D03*
X142200000Y-104340000D03*
X142200000Y-106880000D03*
X142200000Y-109420000D03*
X142200000Y-111960000D03*
X142200000Y-114500000D03*
D11*
X142200000Y-117040000D03*
%TD*%
%TO.C,J8*%
X193400000Y-107800000D03*
D10*
X190860000Y-107800000D03*
%TD*%
D11*
%TO.C,J6*%
X193825000Y-123800000D03*
D10*
X191285000Y-123800000D03*
%TD*%
D11*
%TO.C,J5*%
X151060000Y-116575000D03*
D10*
X153600000Y-116575000D03*
X156140000Y-116575000D03*
X158680000Y-116575000D03*
%TD*%
D11*
%TO.C,J4*%
X199882000Y-99420000D03*
D10*
X199882000Y-96880000D03*
X199882000Y-94340000D03*
X199882000Y-91800000D03*
%TD*%
D11*
%TO.C,J3*%
X199800000Y-72580000D03*
D10*
X199800000Y-75120000D03*
X199800000Y-77660000D03*
X199800000Y-80200000D03*
X199800000Y-82740000D03*
X199800000Y-85280000D03*
%TD*%
D11*
%TO.C,J2*%
X152275000Y-109000000D03*
D10*
X154815000Y-109000000D03*
X157355000Y-109000000D03*
%TD*%
D11*
%TO.C,J7*%
X193860000Y-64860000D03*
D10*
X196400000Y-64860000D03*
X193860000Y-67400000D03*
X196400000Y-67400000D03*
%TD*%
D11*
%TO.C,J20*%
X165000000Y-122000000D03*
D10*
X167540000Y-122000000D03*
X165000000Y-124540000D03*
X167540000Y-124540000D03*
X165000000Y-127080000D03*
X167540000Y-127080000D03*
%TD*%
D11*
%TO.C,J19*%
X152600000Y-122000000D03*
D10*
X155140000Y-122000000D03*
X152600000Y-124540000D03*
X155140000Y-124540000D03*
X152600000Y-127080000D03*
X155140000Y-127080000D03*
%TD*%
D11*
%TO.C,J18*%
X158800000Y-122000000D03*
D10*
X161340000Y-122000000D03*
X158800000Y-124540000D03*
X161340000Y-124540000D03*
X158800000Y-127080000D03*
X161340000Y-127080000D03*
%TD*%
D11*
%TO.C,J17*%
X146400000Y-122000000D03*
D10*
X148940000Y-122000000D03*
X146400000Y-124540000D03*
X148940000Y-124540000D03*
X146400000Y-127080000D03*
X148940000Y-127080000D03*
%TD*%
%TO.C,J9*%
X199857000Y-126170000D03*
X199857000Y-123630000D03*
X199857000Y-121090000D03*
X199857000Y-118550000D03*
X199857000Y-116010000D03*
X199857000Y-113470000D03*
X199857000Y-110930000D03*
X199857000Y-108390000D03*
D11*
X199857000Y-105850000D03*
%TD*%
D12*
%TO.C,U1*%
X149790000Y-80440000D03*
D13*
X149790000Y-82980000D03*
X149790000Y-85520000D03*
X149790000Y-88060000D03*
X149790000Y-90600000D03*
X149790000Y-93140000D03*
X149790000Y-95680000D03*
X149790000Y-98220000D03*
X149790000Y-100760000D03*
X157410000Y-100760000D03*
X157410000Y-98220000D03*
X157410000Y-95680000D03*
X157410000Y-93140000D03*
X157410000Y-90600000D03*
X157410000Y-88060000D03*
X157410000Y-85520000D03*
X157410000Y-82980000D03*
X157410000Y-80440000D03*
%TD*%
D14*
%TO.C,H3*%
X164400000Y-115000000D03*
%TD*%
D15*
%TO.C,U4*%
X172160000Y-68540800D03*
D16*
X172160000Y-71080800D03*
X172160000Y-73620800D03*
X172160000Y-76160800D03*
X172160000Y-78700800D03*
X172160000Y-81240800D03*
X172160000Y-83780800D03*
X172160000Y-86320800D03*
X172160000Y-88860800D03*
X172160000Y-91400800D03*
X172160000Y-93940800D03*
X172160000Y-96480800D03*
X172160000Y-99020800D03*
X172160000Y-101560800D03*
X172160000Y-104100800D03*
X172160000Y-106640800D03*
X172160000Y-109180800D03*
X172160000Y-111720800D03*
X172160000Y-114260800D03*
X172160000Y-116800800D03*
X172160000Y-119340800D03*
X172160000Y-121880800D03*
X172160000Y-124420800D03*
X172160000Y-126960800D03*
X187400000Y-126960800D03*
X187400000Y-124420800D03*
X187400000Y-121880800D03*
X187400000Y-119340800D03*
X187400000Y-116800800D03*
X187400000Y-114260800D03*
X187400000Y-111720800D03*
X187400000Y-109180800D03*
X187400000Y-106640800D03*
X187400000Y-104100800D03*
X187400000Y-101560800D03*
X187400000Y-99020800D03*
X187400000Y-96480800D03*
X187400000Y-93940800D03*
X187400000Y-91400800D03*
X187400000Y-88860800D03*
X187400000Y-86320800D03*
X187400000Y-83780800D03*
X187400000Y-81240800D03*
X187400000Y-78700800D03*
X187400000Y-76160800D03*
X187400000Y-73620800D03*
X187400000Y-71080800D03*
X187400000Y-68540800D03*
X184860000Y-71080800D03*
X174700000Y-114260800D03*
X177240000Y-114260800D03*
X179780000Y-114260800D03*
X182320000Y-114260800D03*
X184860000Y-114260800D03*
D15*
X175210800Y-74840000D03*
D16*
X175210800Y-77380000D03*
X175210800Y-79920000D03*
X175210800Y-82460000D03*
X175210800Y-85000000D03*
D17*
X184961600Y-81510800D03*
D18*
X182961600Y-81510800D03*
X180961600Y-81510800D03*
X180961600Y-83510800D03*
X182961600Y-83510800D03*
X184961600Y-83510800D03*
X181050000Y-69270800D03*
X178510000Y-69270800D03*
%TD*%
D14*
%TO.C,H1*%
X194400000Y-115000000D03*
%TD*%
%TO.C,H4*%
X164400000Y-70000000D03*
%TD*%
D11*
%TO.C,J1*%
X141460000Y-131000000D03*
D10*
X141460000Y-133540000D03*
X144000000Y-131000000D03*
X144000000Y-133540000D03*
X146540000Y-131000000D03*
X146540000Y-133540000D03*
X149080000Y-131000000D03*
X149080000Y-133540000D03*
X151620000Y-131000000D03*
X151620000Y-133540000D03*
X154160000Y-131000000D03*
X154160000Y-133540000D03*
X156700000Y-131000000D03*
X156700000Y-133540000D03*
X159240000Y-131000000D03*
X159240000Y-133540000D03*
X161780000Y-131000000D03*
X161780000Y-133540000D03*
X164320000Y-131000000D03*
X164320000Y-133540000D03*
X166860000Y-131000000D03*
X166860000Y-133540000D03*
X169400000Y-131000000D03*
X169400000Y-133540000D03*
X171940000Y-131000000D03*
X171940000Y-133540000D03*
X174480000Y-131000000D03*
X174480000Y-133540000D03*
X177020000Y-131000000D03*
X177020000Y-133540000D03*
X179560000Y-131000000D03*
X179560000Y-133540000D03*
X182100000Y-131000000D03*
X182100000Y-133540000D03*
X184640000Y-131000000D03*
X184640000Y-133540000D03*
X187180000Y-131000000D03*
X187180000Y-133540000D03*
X189720000Y-131000000D03*
X189720000Y-133540000D03*
X192260000Y-131000000D03*
X192260000Y-133540000D03*
X194800000Y-131000000D03*
X194800000Y-133540000D03*
X197340000Y-131000000D03*
X197340000Y-133540000D03*
X199880000Y-131000000D03*
X199880000Y-133540000D03*
%TD*%
M02*
