M48
; DRILL file {KiCad 8.0.3} date 2025-02-12T02:25:25-0800
; FORMAT={-:-/ absolute / inch / decimal}
; #@! TF.CreationDate,2025-02-12T02:25:25-08:00
; #@! TF.GenerationSoftware,Kicad,Pcbnew,8.0.3
; #@! TF.FileFunction,Plated,1,4,PTH
FMAT,2
INCH
; #@! TA.AperFunction,Plated,PTH,ViaDrill
T1C0.0118
; #@! TA.AperFunction,Plated,PTH,ComponentDrill
T2C0.0315
; #@! TA.AperFunction,Plated,PTH,ComponentDrill
T3C0.0390
; #@! TA.AperFunction,Plated,PTH,ComponentDrill
T4C0.0394
; #@! TA.AperFunction,Plated,PTH,ComponentDrill
T5C0.0433
%
G90
G05
T1
X5.5551Y-3.3622
X5.6254Y-4.7299
X5.6535Y-4.748
X5.6929Y-3.4094
X5.7244Y-4.2362
X5.7559Y-3.7008
X5.7718Y-4.4139
X5.8149Y-4.7278
X5.8189Y-4.6142
X5.8268Y-3.9055
X5.874Y-4.4724
X5.9213Y-4.7087
X5.9764Y-3.7984
X6.0Y-4.4331
X6.0079Y-3.4488
X6.0395Y-3.7327
X6.0551Y-3.315
X6.0709Y-4.7244
X6.0866Y-3.4488
X6.0866Y-4.1024
X6.1024Y-4.5374
X6.1102Y-4.1732
X6.1339Y-4.1969
X6.1555Y-4.7007
X6.1622Y-4.4724
X6.1811Y-5.0551
X6.2362Y-4.7087
X6.2421Y-3.874
X6.252Y-4.4252
X6.2598Y-3.9291
X6.2677Y-3.8189
X6.2756Y-3.4567
X6.2756Y-4.4567
X6.2992Y-3.2756
X6.3275Y-4.3094
X6.3287Y-4.7327
X6.3465Y-3.2441
X6.3543Y-4.7087
X6.3599Y-4.3179
X6.3614Y-3.9415
X6.3701Y-3.9055
X6.378Y-3.3543
X6.382Y-4.2251
X6.3872Y-3.4232
X6.3937Y-3.0787
X6.3937Y-3.4882
X6.4154Y-4.2283
X6.4173Y-3.7402
X6.4173Y-3.9415
X6.4252Y-4.7087
X6.5433Y-5.0551
X6.5601Y-4.5319
X6.5677Y-3.5014
X6.5712Y-4.0934
X6.5827Y-3.8819
X6.5857Y-4.5058
X6.5894Y-3.5269
X6.5906Y-3.7402
X6.5906Y-4.0315
X6.6086Y-4.2181
X6.6142Y-3.9606
X6.6142Y-4.4882
X6.6157Y-4.7143
X6.622Y-3.0
X6.622Y-3.5197
X6.6299Y-2.8976
X6.6299Y-4.2756
X6.6378Y-3.1024
X6.6378Y-4.4567
X6.6378Y-4.6457
X6.6397Y-3.8769
X6.6535Y-3.2992
X6.6535Y-4.2441
X6.6614Y-2.8031
X6.6614Y-3.2047
X6.6614Y-4.4331
X6.6744Y-3.385
X6.685Y-4.3543
X6.685Y-4.3937
X6.687Y-3.5995
X6.6909Y-3.8826
X6.6929Y-5.0866
X6.7165Y-4.685
X6.73Y-3.6512
X6.7317Y-5.0204
X6.8241Y-5.0236
X6.8468Y-4.7793
X6.8523Y-5.0056
X6.8583Y-3.5276
X6.8618Y-4.5576
X6.8734Y-5.032
X6.8819Y-3.7953
X6.8819Y-4.1575
X6.8819Y-4.9843
X6.8976Y-3.6772
X6.8976Y-4.378
X6.9134Y-4.1969
X6.9528Y-3.5276
X6.9528Y-4.5906
X6.9843Y-3.0236
X6.9911Y-3.5121
X6.9921Y-3.748
X6.9937Y-3.4787
X7.0Y-3.4409
X7.0Y-4.6457
X7.0Y-4.7795
X7.0019Y-5.0907
X7.0098Y-3.1024
X7.0157Y-4.3386
X7.0315Y-3.8425
X7.0328Y-5.0827
X7.0394Y-4.854
X7.0467Y-4.9101
X7.0551Y-4.4331
X7.0661Y-5.0864
X7.0709Y-4.5748
X7.0945Y-4.7795
X7.0945Y-4.937
X7.1014Y-3.6668
X7.104Y-3.7343
X7.1205Y-5.1079
X7.1457Y-5.0861
X7.1654Y-3.8976
X7.1654Y-4.2913
X7.1654Y-4.937
X7.1969Y-4.8346
X7.2047Y-4.0472
X7.2047Y-4.3858
X7.2047Y-4.9843
X7.2205Y-4.7165
X7.2502Y-5.0433
X7.2583Y-4.7762
X7.2826Y-4.7155
X7.2976Y-4.3638
X7.2992Y-3.9921
X7.3071Y-4.8504
X7.3143Y-4.7048
X7.315Y-4.9685
X7.4488Y-4.8661
X7.4488Y-4.9213
X7.4488Y-4.9764
X7.4646Y-4.4252
X7.4646Y-4.5433
X7.4902Y-4.6484
X7.4924Y-4.4066
X7.4945Y-4.1355
X7.4961Y-3.4724
X7.5149Y-4.5541
X7.5213Y-3.5338
X7.5312Y-3.9241
X7.5635Y-3.5229
X7.5669Y-3.2441
X7.5669Y-3.9134
X7.5984Y-4.1654
X7.6122Y-3.4953
X7.6122Y-3.5445
X7.622Y-3.9213
X7.6437Y-3.7291
X7.6437Y-3.7616
X7.6494Y-4.0061
X7.6535Y-4.189
X7.6721Y-4.0287
X7.685Y-4.2126
T2
X7.028Y-2.7272
X7.1245Y-3.2091
X7.1245Y-3.2878
X7.128Y-2.7272
X7.2032Y-3.2091
X7.2032Y-3.2878
X7.282Y-3.2091
X7.282Y-3.2878
T3
X5.8972Y-3.1669
X5.8972Y-3.2669
X5.8972Y-3.3669
X5.8972Y-3.4669
X5.8972Y-3.5669
X5.8972Y-3.6669
X5.8972Y-3.7669
X5.8972Y-3.8669
X5.8972Y-3.9669
X6.1972Y-3.1669
X6.1972Y-3.2669
X6.1972Y-3.3669
X6.1972Y-3.4669
X6.1972Y-3.5669
X6.1972Y-3.6669
X6.1972Y-3.7669
X6.1972Y-3.8669
X6.1972Y-3.9669
T4
X5.5693Y-5.1575
X5.5693Y-5.2575
X5.5984Y-3.0079
X5.5984Y-3.1079
X5.5984Y-3.2079
X5.5984Y-3.3079
X5.5984Y-3.4079
X5.5984Y-3.5079
X5.5984Y-3.6079
X5.5984Y-3.7079
X5.5984Y-3.8079
X5.5984Y-3.9079
X5.5984Y-4.0079
X5.5984Y-4.1079
X5.5984Y-4.2079
X5.5984Y-4.3079
X5.5984Y-4.4079
X5.5984Y-4.5079
X5.5984Y-4.6079
X5.6693Y-5.1575
X5.6693Y-5.2575
X5.7638Y-4.8031
X5.7638Y-4.9031
X5.7638Y-5.0031
X5.7693Y-5.1575
X5.7693Y-5.2575
X5.8638Y-4.8031
X5.8638Y-4.9031
X5.8638Y-5.0031
X5.8693Y-5.1575
X5.8693Y-5.2575
X5.9472Y-4.5896
X5.9693Y-5.1575
X5.9693Y-5.2575
X5.9951Y-4.2913
X6.0079Y-4.8031
X6.0079Y-4.9031
X6.0079Y-5.0031
X6.0472Y-4.5896
X6.0693Y-5.1575
X6.0693Y-5.2575
X6.0951Y-4.2913
X6.1079Y-4.8031
X6.1079Y-4.9031
X6.1079Y-5.0031
X6.1472Y-4.5896
X6.1693Y-5.1575
X6.1693Y-5.2575
X6.1951Y-4.2913
X6.2472Y-4.5896
X6.252Y-4.8031
X6.252Y-4.9031
X6.252Y-5.0031
X6.2693Y-5.1575
X6.2693Y-5.2575
X6.352Y-4.8031
X6.352Y-4.9031
X6.352Y-5.0031
X6.3693Y-5.1575
X6.3693Y-5.2575
X6.4693Y-5.1575
X6.4693Y-5.2575
X6.4961Y-4.8031
X6.4961Y-4.9031
X6.4961Y-5.0031
X6.5693Y-5.1575
X6.5693Y-5.2575
X6.5961Y-4.8031
X6.5961Y-4.9031
X6.5961Y-5.0031
X6.6693Y-5.1575
X6.6693Y-5.2575
X6.7693Y-5.1575
X6.7693Y-5.2575
X6.8693Y-5.1575
X6.8693Y-5.2575
X6.9693Y-5.1575
X6.9693Y-5.2575
X7.0693Y-5.1575
X7.0693Y-5.2575
X7.1693Y-5.1575
X7.1693Y-5.2575
X7.2693Y-5.1575
X7.2693Y-5.2575
X7.3693Y-5.1575
X7.3693Y-5.2575
X7.4693Y-5.1575
X7.4693Y-5.2575
X7.5142Y-4.2441
X7.5309Y-4.874
X7.5693Y-5.1575
X7.5693Y-5.2575
X7.6142Y-4.2441
X7.6309Y-4.874
X7.6323Y-2.5535
X7.6323Y-2.6535
X7.6693Y-5.1575
X7.6693Y-5.2575
X7.7323Y-2.5535
X7.7323Y-2.6535
X7.7693Y-5.1575
X7.7693Y-5.2575
X7.8661Y-2.8575
X7.8661Y-2.9575
X7.8661Y-3.0575
X7.8661Y-3.1575
X7.8661Y-3.2575
X7.8661Y-3.3575
X7.8684Y-4.1673
X7.8684Y-4.2673
X7.8684Y-4.3673
X7.8684Y-4.4673
X7.8684Y-4.5673
X7.8684Y-4.6673
X7.8684Y-4.7673
X7.8684Y-4.8673
X7.8684Y-4.9673
X7.8693Y-5.1575
X7.8693Y-5.2575
X7.8694Y-3.6142
X7.8694Y-3.7142
X7.8694Y-3.8142
X7.8694Y-3.9142
T5
X6.778Y-2.6985
X6.778Y-2.7985
X6.778Y-2.8985
X6.778Y-2.9985
X6.778Y-3.0985
X6.778Y-3.1985
X6.778Y-3.2985
X6.778Y-3.3985
X6.778Y-3.4985
X6.778Y-3.5985
X6.778Y-3.6985
X6.778Y-3.7985
X6.778Y-3.8985
X6.778Y-3.9985
X6.778Y-4.0985
X6.778Y-4.1985
X6.778Y-4.2985
X6.778Y-4.3985
X6.778Y-4.4985
X6.778Y-4.5985
X6.778Y-4.6985
X6.778Y-4.7985
X6.778Y-4.8985
X6.778Y-4.9985
X6.878Y-4.4985
X6.8981Y-2.9465
X6.8981Y-3.0465
X6.8981Y-3.1465
X6.8981Y-3.2465
X6.8981Y-3.3465
X6.978Y-4.4985
X7.078Y-4.4985
X7.178Y-4.4985
X7.278Y-2.7985
X7.278Y-4.4985
X7.378Y-2.6985
X7.378Y-2.7985
X7.378Y-2.8985
X7.378Y-2.9985
X7.378Y-3.0985
X7.378Y-3.1985
X7.378Y-3.2985
X7.378Y-3.3985
X7.378Y-3.4985
X7.378Y-3.5985
X7.378Y-3.6985
X7.378Y-3.7985
X7.378Y-3.8985
X7.378Y-3.9985
X7.378Y-4.0985
X7.378Y-4.1985
X7.378Y-4.2985
X7.378Y-4.3985
X7.378Y-4.4985
X7.378Y-4.5985
X7.378Y-4.6985
X7.378Y-4.7985
X7.378Y-4.8985
X7.378Y-4.9985
M30
