%TF.GenerationSoftware,KiCad,Pcbnew,8.0.3*%
%TF.CreationDate,2025-02-12T02:25:28-08:00*%
%TF.ProjectId,MLU_Breakout,4d4c555f-4272-4656-916b-6f75742e6b69,rev?*%
%TF.SameCoordinates,Original*%
%TF.FileFunction,Copper,L4,Bot*%
%TF.FilePolarity,Positive*%
%FSLAX46Y46*%
G04 Gerber Fmt 4.6, Leading zero omitted, Abs format (unit mm)*
G04 Created by KiCad (PCBNEW 8.0.3) date 2025-02-12 02:25:28*
%MOMM*%
%LPD*%
G01*
G04 APERTURE LIST*
%TA.AperFunction,ComponentPad*%
%ADD10O,1.700000X1.700000*%
%TD*%
%TA.AperFunction,ComponentPad*%
%ADD11R,1.700000X1.700000*%
%TD*%
%TA.AperFunction,ComponentPad*%
%ADD12R,1.498600X1.498600*%
%TD*%
%TA.AperFunction,ComponentPad*%
%ADD13C,1.498600*%
%TD*%
%TA.AperFunction,ComponentPad*%
%ADD14R,1.600000X1.600000*%
%TD*%
%TA.AperFunction,ComponentPad*%
%ADD15C,1.600000*%
%TD*%
%TA.AperFunction,ComponentPad*%
%ADD16R,1.300000X1.300000*%
%TD*%
%TA.AperFunction,ComponentPad*%
%ADD17C,1.300000*%
%TD*%
%TA.AperFunction,ViaPad*%
%ADD18C,0.600000*%
%TD*%
%TA.AperFunction,Conductor*%
%ADD19C,0.200000*%
%TD*%
%TA.AperFunction,Conductor*%
%ADD20C,0.400000*%
%TD*%
G04 APERTURE END LIST*
D10*
%TO.P,J10,17,Pin_17*%
%TO.N,+3.3V*%
X142200000Y-76400000D03*
%TO.P,J10,16,Pin_16*%
%TO.N,GND*%
X142200000Y-78940000D03*
%TO.P,J10,15,Pin_15*%
%TO.N,I2C1_SCL*%
X142200000Y-81480000D03*
%TO.P,J10,14,Pin_14*%
%TO.N,I2C1_SDA*%
X142200000Y-84020000D03*
%TO.P,J10,13,Pin_13*%
%TO.N,D3.3v_GE*%
X142200000Y-86560000D03*
%TO.P,J10,12,Pin_12*%
%TO.N,Dkill_out*%
X142200000Y-89100000D03*
%TO.P,J10,11,Pin_11*%
%TO.N,Ai_s*%
X142200000Y-91640000D03*
%TO.P,J10,10,Pin_10*%
%TO.N,Ab_s*%
X142200000Y-94180000D03*
%TO.P,J10,9,Pin_9*%
%TO.N,+5V*%
X142200000Y-96720000D03*
%TO.P,J10,8,Pin_8*%
%TO.N,+3.3V*%
X142200000Y-99260000D03*
%TO.P,J10,7,Pin_7*%
%TO.N,GND*%
X142200000Y-101800000D03*
%TO.P,J10,6,Pin_6*%
%TO.N,xD5*%
X142200000Y-104340000D03*
%TO.P,J10,5,Pin_5*%
%TO.N,xD4*%
X142200000Y-106880000D03*
%TO.P,J10,4,Pin_4*%
%TO.N,xD3*%
X142200000Y-109420000D03*
%TO.P,J10,3,Pin_3*%
%TO.N,xD2*%
X142200000Y-111960000D03*
%TO.P,J10,2,Pin_2*%
%TO.N,xD1*%
X142200000Y-114500000D03*
D11*
%TO.P,J10,1,Pin_1*%
%TO.N,xD0*%
X142200000Y-117040000D03*
%TD*%
%TO.P,J8,1,Pin_1*%
%TO.N,UART_RX1*%
X193400000Y-107800000D03*
D10*
%TO.P,J8,2,Pin_2*%
%TO.N,UART_TX1*%
X190860000Y-107800000D03*
%TD*%
D11*
%TO.P,J6,1,Pin_1*%
%TO.N,BAR_SDA*%
X193825000Y-123800000D03*
D10*
%TO.P,J6,2,Pin_2*%
%TO.N,BAR_SCL*%
X191285000Y-123800000D03*
%TD*%
D11*
%TO.P,J5,1,Pin_1*%
%TO.N,+3.3V*%
X151060000Y-116575000D03*
D10*
%TO.P,J5,2,Pin_2*%
%TO.N,GND*%
X153600000Y-116575000D03*
%TO.P,J5,3,Pin_3*%
%TO.N,I2C1_SCL*%
X156140000Y-116575000D03*
%TO.P,J5,4,Pin_4*%
%TO.N,I2C1_SDA*%
X158680000Y-116575000D03*
%TD*%
D11*
%TO.P,J4,1,Pin_1*%
%TO.N,+3.3V*%
X199882000Y-99420000D03*
D10*
%TO.P,J4,2,Pin_2*%
%TO.N,GND*%
X199882000Y-96880000D03*
%TO.P,J4,3,Pin_3*%
%TO.N,I2C1_SCL*%
X199882000Y-94340000D03*
%TO.P,J4,4,Pin_4*%
%TO.N,I2C1_SDA*%
X199882000Y-91800000D03*
%TD*%
D11*
%TO.P,J3,1,Pin_1*%
%TO.N,+5V*%
X199800000Y-72580000D03*
D10*
%TO.P,J3,2,Pin_2*%
X199800000Y-75120000D03*
%TO.P,J3,3,Pin_3*%
%TO.N,Analog_Current*%
X199800000Y-77660000D03*
%TO.P,J3,4,Pin_4*%
%TO.N,Analog_Voltage*%
X199800000Y-80200000D03*
%TO.P,J3,5,Pin_5*%
%TO.N,GND*%
X199800000Y-82740000D03*
%TO.P,J3,6,Pin_6*%
X199800000Y-85280000D03*
%TD*%
D11*
%TO.P,J2,1,Pin_1*%
%TO.N,GND*%
X152275000Y-109000000D03*
D10*
%TO.P,J2,2,Pin_2*%
%TO.N,+3.3V*%
X154815000Y-109000000D03*
%TO.P,J2,3,Pin_3*%
%TO.N,Dleak*%
X157355000Y-109000000D03*
%TD*%
D11*
%TO.P,J7,1,Pin_1*%
%TO.N,+5V*%
X193860000Y-64860000D03*
D10*
%TO.P,J7,2,Pin_2*%
%TO.N,I2C2_SCL*%
X196400000Y-64860000D03*
%TO.P,J7,3,Pin_3*%
%TO.N,GND*%
X193860000Y-67400000D03*
%TO.P,J7,4,Pin_4*%
%TO.N,I2C2_SDA*%
X196400000Y-67400000D03*
%TD*%
D11*
%TO.P,J20,1,Pin_1*%
%TO.N,GND*%
X165000000Y-122000000D03*
D10*
%TO.P,J20,2,Pin_2*%
X167540000Y-122000000D03*
%TO.P,J20,3,Pin_3*%
%TO.N,unconnected-(J20-Pin_3-Pad3)*%
X165000000Y-124540000D03*
%TO.P,J20,4,Pin_4*%
%TO.N,unconnected-(J20-Pin_4-Pad4)*%
X167540000Y-124540000D03*
%TO.P,J20,5,Pin_5*%
%TO.N,PWM6*%
X165000000Y-127080000D03*
%TO.P,J20,6,Pin_6*%
%TO.N,PWM7*%
X167540000Y-127080000D03*
%TD*%
D11*
%TO.P,J19,1,Pin_1*%
%TO.N,GND*%
X152600000Y-122000000D03*
D10*
%TO.P,J19,2,Pin_2*%
X155140000Y-122000000D03*
%TO.P,J19,3,Pin_3*%
%TO.N,unconnected-(J19-Pin_3-Pad3)*%
X152600000Y-124540000D03*
%TO.P,J19,4,Pin_4*%
%TO.N,unconnected-(J19-Pin_4-Pad4)*%
X155140000Y-124540000D03*
%TO.P,J19,5,Pin_5*%
%TO.N,PWM2*%
X152600000Y-127080000D03*
%TO.P,J19,6,Pin_6*%
%TO.N,PWM3*%
X155140000Y-127080000D03*
%TD*%
D11*
%TO.P,J18,1,Pin_1*%
%TO.N,GND*%
X158800000Y-122000000D03*
D10*
%TO.P,J18,2,Pin_2*%
X161340000Y-122000000D03*
%TO.P,J18,3,Pin_3*%
%TO.N,unconnected-(J18-Pin_3-Pad3)*%
X158800000Y-124540000D03*
%TO.P,J18,4,Pin_4*%
%TO.N,unconnected-(J18-Pin_4-Pad4)*%
X161340000Y-124540000D03*
%TO.P,J18,5,Pin_5*%
%TO.N,PWM4*%
X158800000Y-127080000D03*
%TO.P,J18,6,Pin_6*%
%TO.N,PWM5*%
X161340000Y-127080000D03*
%TD*%
D11*
%TO.P,J17,1,Pin_1*%
%TO.N,GND*%
X146400000Y-122000000D03*
D10*
%TO.P,J17,2,Pin_2*%
X148940000Y-122000000D03*
%TO.P,J17,3,Pin_3*%
%TO.N,unconnected-(J17-Pin_3-Pad3)*%
X146400000Y-124540000D03*
%TO.P,J17,4,Pin_4*%
%TO.N,unconnected-(J17-Pin_4-Pad4)*%
X148940000Y-124540000D03*
%TO.P,J17,5,Pin_5*%
%TO.N,PWM0*%
X146400000Y-127080000D03*
%TO.P,J17,6,Pin_6*%
%TO.N,PWM1*%
X148940000Y-127080000D03*
%TD*%
%TO.P,J9,9,Pin_9*%
%TO.N,SPI_MISO*%
X199857000Y-126170000D03*
%TO.P,J9,8,Pin_8*%
%TO.N,D7*%
X199857000Y-123630000D03*
%TO.P,J9,7,Pin_7*%
%TO.N,SPI_SCK*%
X199857000Y-121090000D03*
%TO.P,J9,6,Pin_6*%
%TO.N,SPI_MOSI*%
X199857000Y-118550000D03*
%TO.P,J9,5,Pin_5*%
%TO.N,D6*%
X199857000Y-116010000D03*
%TO.P,J9,4,Pin_4*%
%TO.N,D5*%
X199857000Y-113470000D03*
%TO.P,J9,3,Pin_3*%
%TO.N,SPI_CS1*%
X199857000Y-110930000D03*
%TO.P,J9,2,Pin_2*%
%TO.N,GND*%
X199857000Y-108390000D03*
D11*
%TO.P,J9,1,Pin_1*%
%TO.N,+5V*%
X199857000Y-105850000D03*
%TD*%
D12*
%TO.P,U1,1,SCL*%
%TO.N,I2C2_SCL*%
X149790000Y-80440000D03*
D13*
%TO.P,U1,2,SDA*%
%TO.N,I2C2_SDA*%
X149790000Y-82980000D03*
%TO.P,U1,3,A2*%
%TO.N,GND*%
X149790000Y-85520000D03*
%TO.P,U1,4,A1*%
X149790000Y-88060000D03*
%TO.P,U1,5,A0*%
X149790000Y-90600000D03*
%TO.P,U1,6,\u002ARESET*%
%TO.N,Net-(JP3-C)*%
X149790000Y-93140000D03*
%TO.P,U1,7,NC*%
%TO.N,unconnected-(U1-NC-Pad7)*%
X149790000Y-95680000D03*
%TO.P,U1,8,INT*%
%TO.N,Dint*%
X149790000Y-98220000D03*
%TO.P,U1,9,VSS*%
%TO.N,GND*%
X149790000Y-100760000D03*
%TO.P,U1,10,GP0*%
%TO.N,xD0*%
X157410000Y-100760000D03*
%TO.P,U1,11,GP1*%
%TO.N,xD1*%
X157410000Y-98220000D03*
%TO.P,U1,12,GP2*%
%TO.N,xD2*%
X157410000Y-95680000D03*
%TO.P,U1,13,GP3*%
%TO.N,xD3*%
X157410000Y-93140000D03*
%TO.P,U1,14,GP4*%
%TO.N,xD4*%
X157410000Y-90600000D03*
%TO.P,U1,15,GP5*%
%TO.N,xD5*%
X157410000Y-88060000D03*
%TO.P,U1,16,GP6*%
%TO.N,xD6*%
X157410000Y-85520000D03*
%TO.P,U1,17,GP7*%
%TO.N,xD7*%
X157410000Y-82980000D03*
%TO.P,U1,18,VDD*%
%TO.N,+5V*%
X157410000Y-80440000D03*
%TD*%
D14*
%TO.P,U4,1,GND*%
%TO.N,GND*%
X172160000Y-68540800D03*
D15*
%TO.P,U4,2,0_RX1_CRX2_CS1*%
%TO.N,PWM0*%
X172160000Y-71080800D03*
%TO.P,U4,3,1_TX1_CTX2_MISO1*%
%TO.N,PWM1*%
X172160000Y-73620800D03*
%TO.P,U4,4,2_OUT2*%
%TO.N,PWM2*%
X172160000Y-76160800D03*
%TO.P,U4,5,3_LRCLK2*%
%TO.N,PWM3*%
X172160000Y-78700800D03*
%TO.P,U4,6,4_BCLK2*%
%TO.N,PWM4*%
X172160000Y-81240800D03*
%TO.P,U4,7,5_IN2*%
%TO.N,PWM5*%
X172160000Y-83780800D03*
%TO.P,U4,8,6_OUT1D*%
%TO.N,PWM6*%
X172160000Y-86320800D03*
%TO.P,U4,9,7_RX2_OUT1A*%
%TO.N,PWM7*%
X172160000Y-88860800D03*
%TO.P,U4,10,8_TX2_IN1*%
%TO.N,PWM8*%
X172160000Y-91400800D03*
%TO.P,U4,11,9_OUT1C*%
%TO.N,PWM9*%
X172160000Y-93940800D03*
%TO.P,U4,12,10_CS_MQSR*%
%TO.N,SPI_CS1*%
X172160000Y-96480800D03*
%TO.P,U4,13,11_MOSI_CTX1*%
%TO.N,SPI_MOSI*%
X172160000Y-99020800D03*
%TO.P,U4,14,12_MISO_MQSL*%
%TO.N,SPI_MISO*%
X172160000Y-101560800D03*
%TO.P,U4,15,3V3*%
%TO.N,+3.3V*%
X172160000Y-104100800D03*
%TO.P,U4,16,24_A10_TX6_SCL2*%
%TO.N,UART_TX3*%
X172160000Y-106640800D03*
%TO.P,U4,17,25_A11_RX6_SDA2*%
%TO.N,UART_RX3*%
X172160000Y-109180800D03*
%TO.P,U4,18,26_A12_MOSI1*%
%TO.N,Dswitch1*%
X172160000Y-111720800D03*
%TO.P,U4,19,27_A13_SCK1*%
%TO.N,Dswitch2*%
X172160000Y-114260800D03*
%TO.P,U4,20,28_RX7*%
%TO.N,UART_RX2*%
X172160000Y-116800800D03*
%TO.P,U4,21,29_TX7*%
%TO.N,UART_TX2*%
X172160000Y-119340800D03*
%TO.P,U4,22,30_CRX3*%
%TO.N,Dunused*%
X172160000Y-121880800D03*
%TO.P,U4,23,31_CTX3*%
%TO.N,D6*%
X172160000Y-124420800D03*
%TO.P,U4,24,32_OUT1B*%
%TO.N,D7*%
X172160000Y-126960800D03*
%TO.P,U4,25,33_MCLK2*%
%TO.N,Dleak*%
X187400000Y-126960800D03*
%TO.P,U4,26,34_RX8*%
%TO.N,UART_RX1*%
X187400000Y-124420800D03*
%TO.P,U4,27,35_TX8*%
%TO.N,UART_TX1*%
X187400000Y-121880800D03*
%TO.P,U4,28,36_CS*%
%TO.N,Dled2*%
X187400000Y-119340800D03*
%TO.P,U4,29,37_CS*%
%TO.N,Dled1*%
X187400000Y-116800800D03*
%TO.P,U4,30,38_CS1_IN1*%
%TO.N,Dkill_out*%
X187400000Y-114260800D03*
%TO.P,U4,31,39_MISO1_OUT1A*%
%TO.N,D3.3v_GE*%
X187400000Y-111720800D03*
%TO.P,U4,32,40_A16*%
%TO.N,Analog_Voltage*%
X187400000Y-109180800D03*
%TO.P,U4,33,41_A17*%
%TO.N,Analog_Current*%
X187400000Y-106640800D03*
%TO.P,U4,34,GND*%
%TO.N,GND*%
X187400000Y-104100800D03*
%TO.P,U4,35,13_SCK_LED*%
%TO.N,SPI_SCK*%
X187400000Y-101560800D03*
%TO.P,U4,36,14_A0_TX3_SPDIF_OUT*%
%TO.N,D5*%
X187400000Y-99020800D03*
%TO.P,U4,37,15_A1_RX3_SPDIF_IN*%
%TO.N,Dint*%
X187400000Y-96480800D03*
%TO.P,U4,38,16_A2_RX4_SCL1*%
%TO.N,I2C2_SCL*%
X187400000Y-93940800D03*
%TO.P,U4,39,17_A3_TX4_SDA1*%
%TO.N,I2C2_SDA*%
X187400000Y-91400800D03*
%TO.P,U4,40,18_A4_SDA*%
%TO.N,I2C1_SDA*%
X187400000Y-88860800D03*
%TO.P,U4,41,19_A5_SCL*%
%TO.N,I2C1_SCL*%
X187400000Y-86320800D03*
%TO.P,U4,42,20_A6_TX5_LRCLK1*%
%TO.N,A4*%
X187400000Y-83780800D03*
%TO.P,U4,43,21_A7_RX5_BCLK1*%
%TO.N,A3*%
X187400000Y-81240800D03*
%TO.P,U4,44,22_A8_CTX1*%
%TO.N,Ab_s*%
X187400000Y-78700800D03*
%TO.P,U4,45,23_A9_CRX1_MCLK1*%
%TO.N,Ai_s*%
X187400000Y-76160800D03*
%TO.P,U4,46,3V3*%
%TO.N,+3.3V*%
X187400000Y-73620800D03*
%TO.P,U4,47,GND*%
%TO.N,GND*%
X187400000Y-71080800D03*
%TO.P,U4,48,VIN*%
%TO.N,+5V*%
X187400000Y-68540800D03*
%TO.P,U4,49,VUSB*%
%TO.N,unconnected-(U4-VUSB-Pad49)*%
X184860000Y-71080800D03*
%TO.P,U4,50,VBAT*%
%TO.N,unconnected-(U4-VBAT-Pad50)*%
X174700000Y-114260800D03*
%TO.P,U4,51,3V3*%
%TO.N,unconnected-(U4-3V3-Pad51)*%
X177240000Y-114260800D03*
%TO.P,U4,52,GND*%
%TO.N,unconnected-(U4-GND-Pad52)*%
X179780000Y-114260800D03*
%TO.P,U4,53,PROGRAM*%
%TO.N,unconnected-(U4-PROGRAM-Pad53)*%
X182320000Y-114260800D03*
%TO.P,U4,54,ON_OFF*%
%TO.N,unconnected-(U4-ON_OFF-Pad54)*%
X184860000Y-114260800D03*
D14*
%TO.P,U4,55,5V*%
%TO.N,unconnected-(U4-5V-Pad55)*%
X175210800Y-74840000D03*
D15*
%TO.P,U4,56,D-*%
%TO.N,unconnected-(U4-D--Pad56)*%
X175210800Y-77380000D03*
%TO.P,U4,57,D+*%
%TO.N,unconnected-(U4-D+-Pad57)*%
X175210800Y-79920000D03*
%TO.P,U4,58,GND*%
%TO.N,unconnected-(U4-GND-Pad58)*%
X175210800Y-82460000D03*
%TO.P,U4,59,GND*%
%TO.N,unconnected-(U4-GND-Pad59)*%
X175210800Y-85000000D03*
D16*
%TO.P,U4,60,R+*%
%TO.N,unconnected-(U4-R+-Pad60)*%
X184961600Y-81510800D03*
D17*
%TO.P,U4,61,LED*%
%TO.N,unconnected-(U4-LED-Pad61)*%
X182961600Y-81510800D03*
%TO.P,U4,62,T-*%
%TO.N,unconnected-(U4-T--Pad62)*%
X180961600Y-81510800D03*
%TO.P,U4,63,T+*%
%TO.N,unconnected-(U4-T+-Pad63)*%
X180961600Y-83510800D03*
%TO.P,U4,64,GND*%
%TO.N,unconnected-(U4-GND-Pad64)*%
X182961600Y-83510800D03*
%TO.P,U4,65,R-*%
%TO.N,unconnected-(U4-R--Pad65)*%
X184961600Y-83510800D03*
%TO.P,U4,66,D-*%
%TO.N,unconnected-(U4-D--Pad66)*%
X181050000Y-69270800D03*
%TO.P,U4,67,D+*%
%TO.N,unconnected-(U4-D+-Pad67)*%
X178510000Y-69270800D03*
%TD*%
D11*
%TO.P,J1,1,Pin_1*%
%TO.N,GND*%
X141460000Y-131000000D03*
D10*
%TO.P,J1,2,Pin_2*%
%TO.N,A3*%
X141460000Y-133540000D03*
%TO.P,J1,3,Pin_3*%
%TO.N,Dled1*%
X144000000Y-131000000D03*
%TO.P,J1,4,Pin_4*%
%TO.N,GND*%
X144000000Y-133540000D03*
%TO.P,J1,5,Pin_5*%
X146540000Y-131000000D03*
%TO.P,J1,6,Pin_6*%
%TO.N,A4*%
X146540000Y-133540000D03*
%TO.P,J1,7,Pin_7*%
%TO.N,Dled2*%
X149080000Y-131000000D03*
%TO.P,J1,8,Pin_8*%
%TO.N,GND*%
X149080000Y-133540000D03*
%TO.P,J1,9,Pin_9*%
%TO.N,Dswitch1*%
X151620000Y-131000000D03*
%TO.P,J1,10,Pin_10*%
%TO.N,+3.3V*%
X151620000Y-133540000D03*
%TO.P,J1,11,Pin_11*%
X154160000Y-131000000D03*
%TO.P,J1,12,Pin_12*%
%TO.N,GND*%
X154160000Y-133540000D03*
%TO.P,J1,13,Pin_13*%
%TO.N,Dswitch2*%
X156700000Y-131000000D03*
%TO.P,J1,14,Pin_14*%
%TO.N,I2C1_SCL*%
X156700000Y-133540000D03*
%TO.P,J1,15,Pin_15*%
%TO.N,+3.3V*%
X159240000Y-131000000D03*
%TO.P,J1,16,Pin_16*%
%TO.N,I2C1_SDA*%
X159240000Y-133540000D03*
%TO.P,J1,17,Pin_17*%
%TO.N,GND*%
X161780000Y-131000000D03*
%TO.P,J1,18,Pin_18*%
%TO.N,+3.3V*%
X161780000Y-133540000D03*
%TO.P,J1,19,Pin_19*%
%TO.N,Net-(J1-Pin_19)*%
X164320000Y-131000000D03*
%TO.P,J1,20,Pin_20*%
%TO.N,GND*%
X164320000Y-133540000D03*
%TO.P,J1,21,Pin_21*%
%TO.N,Net-(J1-Pin_21)*%
X166860000Y-131000000D03*
%TO.P,J1,22,Pin_22*%
%TO.N,I2C1_SCL*%
X166860000Y-133540000D03*
%TO.P,J1,23,Pin_23*%
%TO.N,+3.3V*%
X169400000Y-131000000D03*
%TO.P,J1,24,Pin_24*%
%TO.N,I2C1_SDA*%
X169400000Y-133540000D03*
%TO.P,J1,25,Pin_25*%
%TO.N,UART_TX3*%
X171940000Y-131000000D03*
%TO.P,J1,26,Pin_26*%
%TO.N,Dunused*%
X171940000Y-133540000D03*
%TO.P,J1,27,Pin_27*%
%TO.N,UART_RX3*%
X174480000Y-131000000D03*
%TO.P,J1,28,Pin_28*%
%TO.N,GND*%
X174480000Y-133540000D03*
%TO.P,J1,29,Pin_29*%
X177020000Y-131000000D03*
%TO.P,J1,30,Pin_30*%
%TO.N,xD7*%
X177020000Y-133540000D03*
%TO.P,J1,31,Pin_31*%
%TO.N,UART_TX2*%
X179560000Y-131000000D03*
%TO.P,J1,32,Pin_32*%
%TO.N,GND*%
X179560000Y-133540000D03*
%TO.P,J1,33,Pin_33*%
%TO.N,UART_RX2*%
X182100000Y-131000000D03*
%TO.P,J1,34,Pin_34*%
%TO.N,xD6*%
X182100000Y-133540000D03*
%TO.P,J1,35,Pin_35*%
%TO.N,+3.3V*%
X184640000Y-131000000D03*
%TO.P,J1,36,Pin_36*%
%TO.N,GND*%
X184640000Y-133540000D03*
%TO.P,J1,37,Pin_37*%
X187180000Y-131000000D03*
%TO.P,J1,38,Pin_38*%
%TO.N,+5V*%
X187180000Y-133540000D03*
%TO.P,J1,39,Pin_39*%
%TO.N,unconnected-(J1-Pin_39-Pad39)*%
X189720000Y-131000000D03*
%TO.P,J1,40,Pin_40*%
%TO.N,GND*%
X189720000Y-133540000D03*
%TO.P,J1,41,Pin_41*%
%TO.N,PWM9*%
X192260000Y-131000000D03*
%TO.P,J1,42,Pin_42*%
%TO.N,+5V*%
X192260000Y-133540000D03*
%TO.P,J1,43,Pin_43*%
%TO.N,GND*%
X194800000Y-131000000D03*
%TO.P,J1,44,Pin_44*%
X194800000Y-133540000D03*
%TO.P,J1,45,Pin_45*%
%TO.N,unconnected-(J1-Pin_45-Pad45)*%
X197340000Y-131000000D03*
%TO.P,J1,46,Pin_46*%
%TO.N,+3.3V*%
X197340000Y-133540000D03*
%TO.P,J1,47,Pin_47*%
%TO.N,PWM8*%
X199880000Y-131000000D03*
%TO.P,J1,48,Pin_48*%
%TO.N,GND*%
X199880000Y-133540000D03*
%TD*%
D18*
%TO.N,I2C1_SCL*%
X183400000Y-119800000D03*
%TO.N,I2C1_SDA*%
X183000000Y-126600000D03*
X195200000Y-107000000D03*
X189200000Y-125000000D03*
X189200000Y-123600000D03*
X189200000Y-126400000D03*
%TO.N,UART_TX2*%
X174800000Y-126600000D03*
X173909296Y-121394907D03*
%TO.N,UART_RX2*%
X180200000Y-121400000D03*
X177800000Y-121400000D03*
X177800000Y-118000000D03*
%TO.N,BAR_SDA*%
X182000000Y-125400000D03*
X185600000Y-123200000D03*
X182800000Y-122800000D03*
%TO.N,BAR_SCL*%
X184978135Y-119773625D03*
%TO.N,PWM7*%
X169000000Y-107800000D03*
X168600000Y-118000000D03*
%TO.N,SPI_MISO*%
X189600000Y-112400000D03*
X189600000Y-115400000D03*
X185400000Y-101400000D03*
%TO.N,Net-(J1-Pin_21)*%
X170000000Y-129200000D03*
%TO.N,Net-(J1-Pin_19)*%
X185800000Y-126200000D03*
X184361021Y-121316695D03*
%TO.N,+3.3V*%
X174047603Y-127142576D03*
%TO.N,SPI_SCK*%
X190307056Y-111928221D03*
X190877415Y-115674056D03*
%TO.N,SPI_MOSI*%
X182000000Y-109000000D03*
X185359620Y-110840380D03*
X182000000Y-99000000D03*
%TO.N,D6*%
X190250000Y-118069240D03*
X185783824Y-119502759D03*
%TO.N,D5*%
X194400000Y-106400000D03*
%TO.N,SPI_CS1*%
X174800000Y-96400000D03*
X193000000Y-105800000D03*
X174800000Y-105600000D03*
X190360000Y-105040431D03*
%TO.N,Analog_Voltage*%
X194870250Y-102329751D03*
%TO.N,Analog_Current*%
X194294481Y-101753982D03*
%TO.N,I2C2_SCL*%
X194150000Y-95544334D03*
%TO.N,I2C2_SDA*%
X194150000Y-94719683D03*
%TO.N,Dleak*%
X176600000Y-116600000D03*
X175200000Y-111200000D03*
X178800000Y-123290547D03*
X168400000Y-108600000D03*
%TO.N,+3.3V*%
X145400000Y-107600000D03*
%TO.N,I2C1_SDA*%
X146603424Y-112113851D03*
%TO.N,I2C1_SCL*%
X149200000Y-113600000D03*
%TO.N,+3.3V*%
X167400000Y-102400000D03*
%TO.N,Net-(U3-CSB)*%
X167200000Y-98600000D03*
X168000000Y-100600000D03*
%TO.N,I2C1_SCL*%
X168647703Y-98472918D03*
X169947703Y-98618413D03*
%TO.N,+3.3V*%
X163000000Y-95000000D03*
%TO.N,GND*%
X167400000Y-95000000D03*
%TO.N,I2C1_SCL*%
X159400000Y-87800000D03*
X152600000Y-87600000D03*
X154600000Y-87600000D03*
X162400000Y-88600000D03*
X163000000Y-100114722D03*
%TO.N,I2C1_SDA*%
X144600000Y-86600000D03*
X162233643Y-86948718D03*
%TO.N,D3.3v_GE*%
X168200000Y-89400000D03*
X167859620Y-107140380D03*
%TO.N,Dkill_out*%
X166908135Y-103972625D03*
X166818834Y-88935524D03*
X183000000Y-102800000D03*
X183000000Y-111400000D03*
%TO.N,Ai_s*%
X177400000Y-76800000D03*
X167369869Y-89582722D03*
%TO.N,Ab_s*%
X174200000Y-89600000D03*
X176600000Y-89600000D03*
X169850000Y-91427366D03*
X178050000Y-78800000D03*
%TO.N,xD5*%
X154600000Y-104200000D03*
%TO.N,xD4*%
X155200000Y-106000000D03*
%TO.N,xD3*%
X155800000Y-106600000D03*
%TO.N,xD2*%
X159000000Y-99800000D03*
X159200000Y-97000000D03*
X152400000Y-112600000D03*
X158800000Y-112400000D03*
%TO.N,xD1*%
X159400000Y-113200000D03*
X158550000Y-98400000D03*
X154999729Y-115250000D03*
%TO.N,xD0*%
X156518809Y-113599569D03*
X147800000Y-117200000D03*
%TO.N,Dint*%
X170940765Y-92740765D03*
X175200000Y-93400000D03*
%TO.N,+5V*%
X141100000Y-85400000D03*
X153800000Y-84200000D03*
%TO.N,I2C2_SDA*%
X153403044Y-94810190D03*
%TO.N,I2C2_SCL*%
X151800000Y-96479300D03*
%TO.N,Net-(JP3-A)*%
X148000000Y-99200000D03*
X146200000Y-94000000D03*
%TO.N,GND*%
X162400000Y-78200000D03*
%TO.N,xD6*%
X177800000Y-87400000D03*
X179200000Y-112600000D03*
X179600000Y-116200000D03*
%TO.N,xD7*%
X160000000Y-83200000D03*
X170985688Y-127517725D03*
X170600000Y-119000000D03*
%TO.N,I2C1_SDA*%
X161800000Y-99200000D03*
X162950000Y-107400000D03*
X177600000Y-95200000D03*
X177573617Y-89207067D03*
%TO.N,I2C1_SCL*%
X178600000Y-97600000D03*
X177640457Y-88359697D03*
X162104034Y-107317266D03*
X161580202Y-100114722D03*
%TO.N,A4*%
X161541802Y-109674105D03*
X143600000Y-120600000D03*
X162000000Y-85200000D03*
%TO.N,A3*%
X142884917Y-120140477D03*
X161200000Y-82400000D03*
X160719300Y-109459641D03*
%TO.N,PWM6*%
X169529891Y-85979086D03*
X169800000Y-110600000D03*
X163200000Y-119600000D03*
%TO.N,PWM5*%
X161400000Y-119600000D03*
X169000000Y-83800000D03*
X169800000Y-111600000D03*
%TO.N,PWM4*%
X158400000Y-119600000D03*
X169200000Y-112600000D03*
X169200000Y-81400000D03*
%TO.N,PWM3*%
X156350000Y-119396530D03*
X168600000Y-113200000D03*
X168600000Y-78800000D03*
%TO.N,PWM2*%
X154200000Y-120000000D03*
X168200000Y-76200000D03*
X168000000Y-114000000D03*
%TO.N,PWM1*%
X168400000Y-73600000D03*
X166626922Y-115109336D03*
X150400000Y-119600000D03*
%TO.N,PWM0*%
X169200000Y-71200000D03*
X167276922Y-114446835D03*
X147698731Y-120086464D03*
%TO.N,Dled1*%
X157000000Y-128400000D03*
X160750000Y-120211438D03*
%TO.N,Dled2*%
X168040000Y-119742463D03*
X166200000Y-128400000D03*
%TO.N,Dswitch1*%
X173330998Y-127599721D03*
%TO.N,Dswitch2*%
X174585549Y-127813605D03*
X174290484Y-115762736D03*
%TO.N,UART_TX2*%
X178985712Y-124715658D03*
X179478418Y-129194651D03*
%TO.N,UART_RX2*%
X180859620Y-129740380D03*
X180200000Y-125400000D03*
%TO.N,UART_TX3*%
X175600000Y-106600000D03*
X177847161Y-129302799D03*
%TO.N,UART_RX3*%
X178633702Y-129100000D03*
X178200000Y-110200000D03*
%TO.N,PWM8*%
X184154595Y-128100000D03*
X180376338Y-93136039D03*
%TO.N,PWM9*%
X180440380Y-94850000D03*
X181500981Y-129185711D03*
%TO.N,I2C1_SCL*%
X192112732Y-89481946D03*
X192200000Y-99400000D03*
X190400000Y-88200000D03*
%TO.N,I2C1_SDA*%
X193350000Y-88779784D03*
X191292755Y-99671496D03*
%TO.N,GND*%
X193600000Y-99600000D03*
X193350000Y-90029784D03*
%TO.N,+3.3V*%
X191040380Y-89759620D03*
X192200000Y-82400000D03*
%TD*%
D19*
%TO.N,SPI_MOSI*%
X186360000Y-112236435D02*
X186360000Y-112194314D01*
X187123565Y-113000000D02*
X186360000Y-112236435D01*
%TO.N,I2C1_SCL*%
X186944365Y-97920800D02*
X190720800Y-97920800D01*
X190720800Y-97920800D02*
X192200000Y-99400000D01*
%TO.N,SPI_MOSI*%
X189122598Y-113000000D02*
X187123565Y-113000000D01*
%TO.N,PWM8*%
X182750000Y-120869239D02*
X183650000Y-121769239D01*
%TO.N,SPI_MOSI*%
X185359620Y-111193934D02*
X185359620Y-110840380D01*
X199857000Y-118550000D02*
X194672598Y-118550000D01*
%TO.N,D6*%
X186881065Y-120600000D02*
X185783824Y-119502759D01*
%TO.N,PWM8*%
X183650000Y-121769239D02*
X183650000Y-127595405D01*
X183650000Y-118630761D02*
X182750000Y-119530761D01*
%TO.N,SPI_MOSI*%
X194672598Y-118550000D02*
X189122598Y-113000000D01*
%TO.N,BAR_SCL*%
X191285000Y-123800000D02*
X190435000Y-122950000D01*
%TO.N,PWM8*%
X183650000Y-127595405D02*
X184154595Y-128100000D01*
%TO.N,SPI_MOSI*%
X186360000Y-112194314D02*
X185359620Y-111193934D01*
%TO.N,BAR_SCL*%
X188930761Y-122950000D02*
X188680761Y-123200000D01*
%TO.N,D6*%
X187696435Y-120600000D02*
X186881065Y-120600000D01*
%TO.N,PWM8*%
X183650000Y-96409701D02*
X183650000Y-118630761D01*
%TO.N,BAR_SCL*%
X188680761Y-123200000D02*
X187163565Y-123200000D01*
X190435000Y-122950000D02*
X188930761Y-122950000D01*
%TO.N,D6*%
X190227195Y-118069240D02*
X187696435Y-120600000D01*
%TO.N,I2C1_SCL*%
X185960000Y-117240000D02*
X185960000Y-112360000D01*
%TO.N,D6*%
X190250000Y-118069240D02*
X190227195Y-118069240D01*
%TO.N,PWM8*%
X180376338Y-93136039D02*
X183650000Y-96409701D01*
%TO.N,BAR_SCL*%
X187163565Y-123200000D02*
X184978135Y-121014570D01*
%TO.N,PWM8*%
X182750000Y-119530761D02*
X182750000Y-120869239D01*
%TO.N,I2C1_SCL*%
X184600000Y-100265165D02*
X186944365Y-97920800D01*
%TO.N,BAR_SCL*%
X184978135Y-121014570D02*
X184978135Y-119773625D01*
%TO.N,I2C1_SCL*%
X183400000Y-119800000D02*
X185960000Y-117240000D01*
X185960000Y-112360000D02*
X184600000Y-111000000D01*
X184600000Y-111000000D02*
X184600000Y-100265165D01*
%TO.N,Analog_Current*%
X196000000Y-81460000D02*
X196000000Y-83434314D01*
%TO.N,Analog_Voltage*%
X195200000Y-84800000D02*
X195200000Y-102000001D01*
%TO.N,BAR_SDA*%
X188930761Y-125650000D02*
X188801561Y-125520800D01*
%TO.N,Analog_Voltage*%
X195200000Y-102000001D02*
X194870250Y-102329751D01*
%TO.N,UART_RX2*%
X180200000Y-128431308D02*
X180800000Y-129031308D01*
%TO.N,PWM9*%
X181200000Y-128884730D02*
X181500981Y-129185711D01*
%TO.N,BAR_SDA*%
X188801561Y-125520800D02*
X186920800Y-125520800D01*
%TO.N,UART_RX2*%
X180800000Y-129031308D02*
X180800000Y-129680760D01*
%TO.N,Analog_Current*%
X194800000Y-101248463D02*
X194294481Y-101753982D01*
%TO.N,PWM9*%
X180800000Y-118434315D02*
X180800000Y-127434314D01*
%TO.N,I2C1_SDA*%
X183620711Y-128750000D02*
X184450000Y-128750000D01*
%TO.N,PWM9*%
X180880000Y-118354315D02*
X180800000Y-118434315D01*
%TO.N,Analog_Current*%
X199800000Y-77660000D02*
X196000000Y-81460000D01*
X196000000Y-83434314D02*
X194800000Y-84634314D01*
%TO.N,I2C1_SDA*%
X189200000Y-126716435D02*
X189200000Y-126400000D01*
X183000000Y-128129289D02*
X183620711Y-128750000D01*
%TO.N,BAR_SDA*%
X193825000Y-123800000D02*
X193825000Y-124850000D01*
X193025000Y-125650000D02*
X188930761Y-125650000D01*
%TO.N,PWM9*%
X180880000Y-95289620D02*
X180880000Y-118354315D01*
%TO.N,UART_RX2*%
X180200000Y-125400000D02*
X180200000Y-128431308D01*
X180800000Y-129680760D02*
X180859620Y-129740380D01*
%TO.N,I2C1_SDA*%
X183000000Y-126600000D02*
X183000000Y-128129289D01*
X189200000Y-125000000D02*
X189200000Y-123600000D01*
X185000000Y-128200000D02*
X187716435Y-128200000D01*
%TO.N,PWM9*%
X181200000Y-127834314D02*
X181200000Y-128884730D01*
%TO.N,Analog_Voltage*%
X199800000Y-80200000D02*
X195200000Y-84800000D01*
%TO.N,PWM9*%
X180440380Y-94850000D02*
X180880000Y-95289620D01*
%TO.N,I2C1_SDA*%
X187716435Y-128200000D02*
X189200000Y-126716435D01*
%TO.N,BAR_SDA*%
X185600000Y-124200000D02*
X185600000Y-123200000D01*
%TO.N,I2C1_SDA*%
X184450000Y-128750000D02*
X185000000Y-128200000D01*
%TO.N,PWM9*%
X180800000Y-127434314D02*
X181200000Y-127834314D01*
%TO.N,BAR_SDA*%
X186920800Y-125520800D02*
X185600000Y-124200000D01*
%TO.N,SPI_SCK*%
X196293359Y-121090000D02*
X190877415Y-115674056D01*
%TO.N,BAR_SDA*%
X193825000Y-124850000D02*
X193025000Y-125650000D01*
%TO.N,SPI_SCK*%
X199857000Y-121090000D02*
X196293359Y-121090000D01*
%TO.N,Analog_Current*%
X194800000Y-84634314D02*
X194800000Y-101248463D01*
%TO.N,I2C1_SDA*%
X195200000Y-107000000D02*
X195200000Y-103578741D01*
X195200000Y-103578741D02*
X191292755Y-99671496D01*
%TO.N,UART_TX3*%
X175050000Y-121183059D02*
X175050000Y-121850000D01*
X175800000Y-120433059D02*
X175050000Y-121183059D01*
%TO.N,Dswitch1*%
X173260000Y-112820800D02*
X173260000Y-125825686D01*
X173260000Y-125825686D02*
X173600000Y-126165686D01*
%TO.N,UART_TX3*%
X175600000Y-106600000D02*
X175800000Y-106800000D01*
%TO.N,Dswitch2*%
X174650000Y-116122252D02*
X174650000Y-125530761D01*
X174290484Y-115762736D02*
X174650000Y-116122252D01*
%TO.N,UART_TX3*%
X175050000Y-121850000D02*
X177454429Y-124254429D01*
%TO.N,Dswitch2*%
X174650000Y-125530761D02*
X175450000Y-126330761D01*
%TO.N,UART_TX3*%
X177454429Y-128910067D02*
X177847161Y-129302799D01*
%TO.N,Dswitch1*%
X172160000Y-111720800D02*
X173260000Y-112820800D01*
%TO.N,UART_TX3*%
X177454429Y-124254429D02*
X177454429Y-128910067D01*
X175800000Y-106800000D02*
X175800000Y-120433059D01*
%TO.N,Dswitch2*%
X174752080Y-127813605D02*
X174585549Y-127813605D01*
%TO.N,Dswitch1*%
X173397603Y-126873337D02*
X173397603Y-127533116D01*
X173600000Y-126165686D02*
X173600000Y-126670940D01*
%TO.N,Dswitch2*%
X175450000Y-126330761D02*
X175450000Y-127115685D01*
%TO.N,Dswitch1*%
X173397603Y-127533116D02*
X173330998Y-127599721D01*
%TO.N,Dswitch2*%
X175450000Y-127115685D02*
X174752080Y-127813605D01*
%TO.N,Dswitch1*%
X173600000Y-126670940D02*
X173397603Y-126873337D01*
%TO.N,UART_TX2*%
X173909296Y-121394907D02*
X173909296Y-125709296D01*
X173909296Y-125709296D02*
X174800000Y-126600000D01*
%TO.N,UART_RX3*%
X178515394Y-124050291D02*
X178304387Y-124261298D01*
X179400000Y-122971308D02*
X179400000Y-123734897D01*
X179400000Y-123734897D02*
X179084606Y-124050291D01*
X178304387Y-128770685D02*
X178633702Y-129100000D01*
%TO.N,xD6*%
X182100000Y-133540000D02*
X180950000Y-132390000D01*
X179600000Y-122365686D02*
X179600000Y-116200000D01*
%TO.N,UART_RX3*%
X178600000Y-122171308D02*
X179400000Y-122971308D01*
X178304387Y-124261298D02*
X178304387Y-128770685D01*
X178200000Y-110200000D02*
X178600000Y-110600000D01*
%TO.N,xD6*%
X179800000Y-122565686D02*
X179600000Y-122365686D01*
%TO.N,UART_RX3*%
X178600000Y-110600000D02*
X178600000Y-122171308D01*
X179084606Y-124050291D02*
X178515394Y-124050291D01*
%TO.N,UART_RX2*%
X180200000Y-121400000D02*
X180200000Y-125400000D01*
%TO.N,xD6*%
X179800000Y-123900583D02*
X179800000Y-122565686D01*
X180128418Y-128990320D02*
X179600000Y-128461902D01*
X179600000Y-124100583D02*
X179800000Y-123900583D01*
X180950000Y-130750000D02*
X180128418Y-129928418D01*
X180950000Y-132390000D02*
X180950000Y-130750000D01*
X179600000Y-128461902D02*
X179600000Y-124100583D01*
%TO.N,UART_RX2*%
X177800000Y-118000000D02*
X177800000Y-121400000D01*
%TO.N,xD6*%
X180128418Y-129928418D02*
X180128418Y-128990320D01*
%TO.N,Net-(J1-Pin_19)*%
X184361021Y-124761021D02*
X184361021Y-121316695D01*
%TO.N,BAR_SDA*%
X182800000Y-122800000D02*
X182000000Y-123600000D01*
%TO.N,Net-(J1-Pin_19)*%
X185800000Y-126200000D02*
X184361021Y-124761021D01*
%TO.N,BAR_SDA*%
X182000000Y-123600000D02*
X182000000Y-125400000D01*
%TO.N,D3.3v_GE*%
X168000000Y-99680761D02*
X168600000Y-100280761D01*
%TO.N,I2C1_SCL*%
X169947703Y-98618413D02*
X168793198Y-98618413D01*
%TO.N,Ab_s*%
X173633887Y-90166113D02*
X171420373Y-90166113D01*
%TO.N,PWM7*%
X170597703Y-99002297D02*
X169200000Y-100400000D01*
X171028630Y-88860800D02*
X169200000Y-90689430D01*
%TO.N,D3.3v_GE*%
X168600000Y-106400000D02*
X167859620Y-107140380D01*
%TO.N,Dint*%
X174640800Y-92840800D02*
X171040800Y-92840800D01*
%TO.N,PWM7*%
X169200000Y-96836825D02*
X170597703Y-98234528D01*
%TO.N,Dint*%
X175200000Y-93400000D02*
X174640800Y-92840800D01*
%TO.N,D3.3v_GE*%
X168200000Y-89400000D02*
X168000000Y-89600000D01*
%TO.N,I2C1_SCL*%
X168793198Y-98618413D02*
X168647703Y-98472918D01*
%TO.N,Ab_s*%
X171420373Y-90166113D02*
X170586486Y-91000000D01*
%TO.N,Dint*%
X171040800Y-92840800D02*
X170940765Y-92740765D01*
%TO.N,PWM7*%
X168800000Y-118200000D02*
X168800000Y-125820000D01*
%TO.N,Ab_s*%
X170277366Y-91000000D02*
X169850000Y-91427366D01*
%TO.N,D3.3v_GE*%
X168600000Y-100280761D02*
X168600000Y-106400000D01*
%TO.N,Ab_s*%
X174200000Y-89600000D02*
X173633887Y-90166113D01*
%TO.N,PWM7*%
X170597703Y-98234528D02*
X170597703Y-99002297D01*
X169000000Y-100400000D02*
X169000000Y-107800000D01*
%TO.N,D3.3v_GE*%
X168000000Y-89600000D02*
X168000000Y-99680761D01*
%TO.N,PWM7*%
X172160000Y-88860800D02*
X171028630Y-88860800D01*
%TO.N,Ab_s*%
X170586486Y-91000000D02*
X170277366Y-91000000D01*
%TO.N,PWM7*%
X169200000Y-100400000D02*
X169000000Y-100400000D01*
X169200000Y-90689430D02*
X169200000Y-96836825D01*
X168600000Y-118000000D02*
X168800000Y-118200000D01*
X168800000Y-125820000D02*
X167540000Y-127080000D01*
%TO.N,SPI_SCK*%
X189710000Y-111331165D02*
X190307056Y-111928221D01*
X189710000Y-103870800D02*
X189710000Y-111331165D01*
%TO.N,SPI_MISO*%
X199857000Y-126170000D02*
X196337000Y-122650000D01*
X196337000Y-122650000D02*
X196337000Y-122137000D01*
X196337000Y-122137000D02*
X189600000Y-115400000D01*
X187654835Y-102800000D02*
X186800000Y-102800000D01*
%TO.N,SPI_SCK*%
X187400000Y-101560800D02*
X189710000Y-103870800D01*
%TO.N,SPI_MISO*%
X189310000Y-104455165D02*
X187654835Y-102800000D01*
X189600000Y-112400000D02*
X189310000Y-112110000D01*
X186800000Y-102800000D02*
X185400000Y-101400000D01*
X189310000Y-112110000D02*
X189310000Y-104455165D01*
%TO.N,Dunused*%
X170320400Y-128601161D02*
X170320400Y-123720400D01*
X170650000Y-128930761D02*
X170320400Y-128601161D01*
%TO.N,Net-(J1-Pin_21)*%
X168660000Y-129200000D02*
X166860000Y-131000000D01*
%TO.N,Dunused*%
X170650000Y-132250000D02*
X170650000Y-128930761D01*
X171940000Y-133540000D02*
X170650000Y-132250000D01*
%TO.N,Net-(J1-Pin_21)*%
X170000000Y-129200000D02*
X168660000Y-129200000D01*
%TO.N,Dunused*%
X170320400Y-123720400D02*
X172160000Y-121880800D01*
%TO.N,xD7*%
X173250000Y-131636346D02*
X173250000Y-129782037D01*
X177020000Y-133540000D02*
X175680000Y-132200000D01*
X175680000Y-132200000D02*
X173813654Y-132200000D01*
X173250000Y-129782037D02*
X170985688Y-127517725D01*
X173813654Y-132200000D02*
X173250000Y-131636346D01*
%TO.N,UART_TX2*%
X179283702Y-128999935D02*
X179478418Y-129194651D01*
X178985712Y-124715658D02*
X179200000Y-124929946D01*
X179283702Y-128711290D02*
X179283702Y-128999935D01*
X179200000Y-124929946D02*
X179200000Y-128627588D01*
X179200000Y-128627588D02*
X179283702Y-128711290D01*
%TO.N,SPI_CS1*%
X191119569Y-105800000D02*
X190360000Y-105040431D01*
X193000000Y-105800000D02*
X191119569Y-105800000D01*
%TO.N,SPI_MOSI*%
X182000000Y-109000000D02*
X182000000Y-99000000D01*
%TO.N,Dleak*%
X176700000Y-121190547D02*
X178800000Y-123290547D01*
X176700000Y-116700000D02*
X176700000Y-121190547D01*
X176600000Y-116600000D02*
X176700000Y-116700000D01*
%TO.N,D5*%
X194400000Y-106400000D02*
X194400000Y-106020800D01*
X194400000Y-106020800D02*
X187400000Y-99020800D01*
%TO.N,SPI_CS1*%
X174800000Y-105600000D02*
X174800000Y-96400000D01*
%TO.N,I2C2_SCL*%
X195080761Y-66179239D02*
X195080761Y-83222181D01*
%TO.N,I2C1_SCL*%
X191681946Y-89481946D02*
X192112732Y-89481946D01*
%TO.N,I2C1_SDA*%
X192900000Y-99619239D02*
X192900000Y-90499023D01*
%TO.N,I2C2_SCL*%
X193500000Y-94450444D02*
X193500000Y-94988922D01*
%TO.N,I2C2_SDA*%
X194400000Y-84468628D02*
X194400000Y-94469683D01*
%TO.N,I2C2_SCL*%
X196400000Y-64860000D02*
X195080761Y-66179239D01*
%TO.N,I2C1_SDA*%
X192900000Y-90499023D02*
X192700000Y-90299023D01*
%TO.N,I2C2_SCL*%
X193500000Y-94988922D02*
X194055412Y-95544334D01*
%TO.N,I2C2_SDA*%
X195550000Y-68250000D02*
X195550000Y-83318628D01*
X196400000Y-67400000D02*
X195550000Y-68250000D01*
%TO.N,I2C1_SDA*%
X191292755Y-99671496D02*
X191671259Y-100050000D01*
%TO.N,I2C2_SCL*%
X195080761Y-83222181D02*
X194000000Y-84302942D01*
%TO.N,I2C1_SDA*%
X191671259Y-100050000D02*
X192469239Y-100050000D01*
X192469239Y-100050000D02*
X192900000Y-99619239D01*
X192700000Y-89760545D02*
X193350000Y-89110545D01*
%TO.N,I2C2_SCL*%
X194055412Y-95544334D02*
X194150000Y-95544334D01*
%TO.N,I2C2_SDA*%
X195550000Y-83318628D02*
X194400000Y-84468628D01*
X194400000Y-94469683D02*
X194150000Y-94719683D01*
%TO.N,I2C2_SCL*%
X194000000Y-93950444D02*
X193500000Y-94450444D01*
X194000000Y-84302942D02*
X194000000Y-93950444D01*
%TO.N,I2C1_SCL*%
X191400000Y-89200000D02*
X191681946Y-89481946D01*
%TO.N,I2C1_SDA*%
X193350000Y-89110545D02*
X193350000Y-88779784D01*
X192700000Y-90299023D02*
X192700000Y-89760545D01*
%TO.N,Dleak*%
X170023565Y-108600000D02*
X172023565Y-110600000D01*
X172023565Y-110600000D02*
X174600000Y-110600000D01*
X168400000Y-108600000D02*
X170023565Y-108600000D01*
X174600000Y-110600000D02*
X175200000Y-111200000D01*
%TO.N,I2C1_SDA*%
X156600000Y-114600000D02*
X156705000Y-114600000D01*
X156705000Y-114600000D02*
X158680000Y-116575000D01*
%TO.N,xD0*%
X157410000Y-100760000D02*
X157410000Y-105909239D01*
X156200000Y-107119239D02*
X156200000Y-113280760D01*
X157410000Y-105909239D02*
X156200000Y-107119239D01*
%TO.N,xD2*%
X150910000Y-111110000D02*
X143050000Y-111110000D01*
%TO.N,I2C1_SDA*%
X155200000Y-113200000D02*
X156600000Y-114600000D01*
%TO.N,xD0*%
X156200000Y-113280760D02*
X156518809Y-113599569D01*
%TO.N,xD1*%
X142950000Y-115250000D02*
X154999729Y-115250000D01*
%TO.N,I2C1_SCL*%
X156140000Y-115140000D02*
X156140000Y-116575000D01*
X150234314Y-113600000D02*
X151234314Y-114600000D01*
%TO.N,xD2*%
X152400000Y-112600000D02*
X150910000Y-111110000D01*
%TO.N,I2C1_SCL*%
X149200000Y-113600000D02*
X150234314Y-113600000D01*
%TO.N,xD2*%
X143050000Y-111110000D02*
X142200000Y-111960000D01*
%TO.N,I2C1_SCL*%
X151234314Y-114600000D02*
X155600000Y-114600000D01*
%TO.N,I2C1_SDA*%
X148913851Y-112113851D02*
X150000000Y-113200000D01*
%TO.N,xD1*%
X142200000Y-114500000D02*
X142950000Y-115250000D01*
%TO.N,I2C1_SDA*%
X146603424Y-112113851D02*
X148913851Y-112113851D01*
%TO.N,I2C1_SCL*%
X155600000Y-114600000D02*
X156140000Y-115140000D01*
%TO.N,I2C1_SDA*%
X150000000Y-113200000D02*
X155200000Y-113200000D01*
%TO.N,PWM6*%
X166150000Y-107350000D02*
X166150000Y-97965075D01*
%TO.N,PWM5*%
X165750005Y-97799379D02*
X165768834Y-97780551D01*
X165750005Y-107550005D02*
X165750005Y-97799379D01*
X165768834Y-88500599D02*
X169000000Y-85269433D01*
%TO.N,Dkill_out*%
X166550000Y-103614490D02*
X166908135Y-103972625D01*
%TO.N,PWM6*%
X169400000Y-110600000D02*
X166150000Y-107350000D01*
%TO.N,Net-(U3-CSB)*%
X167200000Y-98600000D02*
X167200000Y-99800000D01*
%TO.N,Dkill_out*%
X166550000Y-98130761D02*
X166550000Y-103614490D01*
X166719869Y-89034489D02*
X166719869Y-97960892D01*
%TO.N,PWM5*%
X165768834Y-97780551D02*
X165768834Y-88500599D01*
X169800000Y-111600000D02*
X165750005Y-107550005D01*
%TO.N,PWM6*%
X169800000Y-110600000D02*
X169400000Y-110600000D01*
X166168834Y-97946242D02*
X166168834Y-88666285D01*
%TO.N,Dkill_out*%
X166818834Y-88935524D02*
X166719869Y-89034489D01*
%TO.N,PWM5*%
X169000000Y-85269433D02*
X169000000Y-83800000D01*
%TO.N,PWM6*%
X166150000Y-97965075D02*
X166168834Y-97946242D01*
%TO.N,Dkill_out*%
X166719869Y-97960892D02*
X166550000Y-98130761D01*
%TO.N,PWM6*%
X168856033Y-85979086D02*
X169529891Y-85979086D01*
X166168834Y-88666285D02*
X168856033Y-85979086D01*
%TO.N,Net-(U3-CSB)*%
X167200000Y-99800000D02*
X168000000Y-100600000D01*
%TO.N,I2C1_SDA*%
X161800000Y-99480407D02*
X161800000Y-99200000D01*
%TO.N,A3*%
X161200000Y-82400000D02*
X161200000Y-86315075D01*
%TO.N,I2C1_SCL*%
X155589300Y-87010700D02*
X158610700Y-87010700D01*
%TO.N,I2C1_SDA*%
X162950000Y-107400000D02*
X162950000Y-100918834D01*
X162234315Y-99914722D02*
X161800000Y-99480407D01*
%TO.N,I2C1_SCL*%
X162104034Y-107317266D02*
X161580202Y-106793434D01*
%TO.N,I2C1_SDA*%
X162950000Y-100918834D02*
X162234315Y-100203149D01*
%TO.N,A4*%
X161130562Y-99645123D02*
X160930202Y-99845483D01*
%TO.N,I2C2_SCL*%
X154053044Y-95079429D02*
X152653173Y-96479300D01*
X154053044Y-87972283D02*
X154053044Y-95079429D01*
X153950000Y-87869239D02*
X154053044Y-87972283D01*
%TO.N,I2C1_SDA*%
X161800000Y-99200000D02*
X161600000Y-99000000D01*
%TO.N,I2C1_SCL*%
X155000000Y-87600000D02*
X155589300Y-87010700D01*
%TO.N,I2C2_SCL*%
X149790000Y-80440000D02*
X149790000Y-81389300D01*
X152653173Y-96479300D02*
X151800000Y-96479300D01*
%TO.N,A3*%
X160719300Y-99490700D02*
X160530202Y-99679797D01*
%TO.N,I2C2_SCL*%
X149790000Y-81389300D02*
X153950000Y-85549300D01*
%TO.N,I2C1_SDA*%
X161600000Y-99000000D02*
X161600000Y-87582361D01*
%TO.N,I2C1_SCL*%
X147730700Y-87010700D02*
X152010700Y-87010700D01*
X162400000Y-99514722D02*
X163000000Y-100114722D01*
X152010700Y-87010700D02*
X152600000Y-87600000D01*
%TO.N,A4*%
X162000000Y-86080761D02*
X161130562Y-86950199D01*
%TO.N,A3*%
X160530202Y-109270543D02*
X160719300Y-109459641D01*
%TO.N,I2C1_SCL*%
X154600000Y-87600000D02*
X155000000Y-87600000D01*
X142200000Y-81480000D02*
X147730700Y-87010700D01*
%TO.N,A3*%
X161200000Y-86315075D02*
X160550000Y-86965075D01*
%TO.N,I2C2_SCL*%
X153950000Y-85549300D02*
X153950000Y-87869239D01*
%TO.N,I2C1_SDA*%
X162234315Y-100203149D02*
X162234315Y-99914722D01*
%TO.N,A3*%
X160530202Y-99679797D02*
X160530202Y-109270543D01*
%TO.N,A4*%
X160930202Y-108820604D02*
X161541802Y-109432204D01*
X162000000Y-85200000D02*
X162000000Y-86080761D01*
%TO.N,A3*%
X160550000Y-86965075D02*
X160550000Y-87834925D01*
%TO.N,I2C1_SCL*%
X161580202Y-106793434D02*
X161580202Y-100114722D01*
%TO.N,A3*%
X160719300Y-88004225D02*
X160719300Y-99490700D01*
X160550000Y-87834925D02*
X160719300Y-88004225D01*
%TO.N,A4*%
X160930202Y-99845483D02*
X160930202Y-108820604D01*
X161130562Y-86950199D02*
X161130562Y-99645123D01*
X161541802Y-109432204D02*
X161541802Y-109674105D01*
%TO.N,I2C1_SCL*%
X158610700Y-87010700D02*
X159400000Y-87800000D01*
%TO.N,I2C1_SDA*%
X161600000Y-87582361D02*
X162233643Y-86948718D01*
%TO.N,I2C1_SCL*%
X162400000Y-88600000D02*
X162400000Y-99514722D01*
%TO.N,I2C1_SDA*%
X142200000Y-84020000D02*
X144600000Y-86420000D01*
X144600000Y-86420000D02*
X144600000Y-86600000D01*
%TO.N,PWM3*%
X164800000Y-107731372D02*
X164800000Y-88338056D01*
%TO.N,Ai_s*%
X174050000Y-87750000D02*
X168730761Y-87750000D01*
%TO.N,PWM3*%
X165000000Y-88138056D02*
X165000000Y-82400000D01*
%TO.N,PWM2*%
X164400000Y-88172367D02*
X164600000Y-87972367D01*
%TO.N,Ai_s*%
X168730761Y-87750000D02*
X167550000Y-88930761D01*
%TO.N,PWM3*%
X168600000Y-113200000D02*
X168600000Y-111531372D01*
%TO.N,PWM2*%
X164600000Y-87972367D02*
X164600000Y-79800000D01*
%TO.N,PWM3*%
X168600000Y-111531372D02*
X164800000Y-107731372D01*
%TO.N,PWM2*%
X164400000Y-107897058D02*
X164400000Y-88172367D01*
%TO.N,PWM3*%
X165000000Y-82400000D02*
X168600000Y-78800000D01*
%TO.N,PWM4*%
X165200000Y-107565686D02*
X165200000Y-88503745D01*
X165200000Y-88503745D02*
X165400000Y-88303745D01*
%TO.N,Ai_s*%
X177400000Y-84400000D02*
X174050000Y-87750000D01*
%TO.N,PWM2*%
X168000000Y-111497058D02*
X164400000Y-107897058D01*
%TO.N,PWM3*%
X164800000Y-88338056D02*
X165000000Y-88138056D01*
%TO.N,PWM4*%
X165400000Y-88303745D02*
X165400000Y-85200000D01*
X169200000Y-112600000D02*
X169200000Y-111565686D01*
X165400000Y-85200000D02*
X169200000Y-81400000D01*
X169200000Y-111565686D02*
X165200000Y-107565686D01*
%TO.N,PWM2*%
X168000000Y-114000000D02*
X168000000Y-111497058D01*
%TO.N,Ai_s*%
X167550000Y-88930761D02*
X167550000Y-89402591D01*
X177400000Y-76800000D02*
X177400000Y-84400000D01*
%TO.N,PWM2*%
X164600000Y-79800000D02*
X168200000Y-76200000D01*
%TO.N,Ai_s*%
X167550000Y-89402591D02*
X167369869Y-89582722D01*
%TO.N,Dkill_out*%
X183000000Y-102800000D02*
X183000000Y-111400000D01*
%TO.N,Ab_s*%
X178050000Y-84315686D02*
X178050000Y-78800000D01*
X176600000Y-89600000D02*
X176600000Y-85765686D01*
X176600000Y-85765686D02*
X178050000Y-84315686D01*
%TO.N,I2C2_SDA*%
X149790000Y-82980000D02*
X153403044Y-86593044D01*
X153403044Y-86593044D02*
X153403044Y-94810190D01*
%TO.N,xD5*%
X157410000Y-88060000D02*
X154600000Y-90870000D01*
X154600000Y-90870000D02*
X154600000Y-104200000D01*
%TO.N,xD4*%
X155200000Y-92810000D02*
X157410000Y-90600000D01*
X155200000Y-106000000D02*
X155200000Y-92810000D01*
%TO.N,xD3*%
X155800000Y-94750000D02*
X157410000Y-93140000D01*
X155800000Y-106600000D02*
X155800000Y-94750000D01*
%TO.N,xD1*%
X159650000Y-112950000D02*
X159650000Y-99500000D01*
X159650000Y-99500000D02*
X158550000Y-98400000D01*
%TO.N,xD2*%
X157410000Y-95680000D02*
X158730000Y-97000000D01*
%TO.N,xD1*%
X159400000Y-113200000D02*
X159650000Y-112950000D01*
%TO.N,xD2*%
X158730000Y-97000000D02*
X159200000Y-97000000D01*
X159000000Y-99800000D02*
X159000000Y-112200000D01*
X159000000Y-112200000D02*
X158800000Y-112400000D01*
%TO.N,xD7*%
X169000000Y-117400000D02*
X164042284Y-117400000D01*
X160069300Y-98849939D02*
X160250000Y-98669239D01*
X170600000Y-119000000D02*
X169000000Y-117400000D01*
X164042284Y-117400000D02*
X160069300Y-113427016D01*
X160250000Y-98669239D02*
X160250000Y-93111400D01*
X160250000Y-93111400D02*
X160069300Y-92930700D01*
X160069300Y-113427016D02*
X160069300Y-98849939D01*
%TO.N,xD0*%
X147800000Y-117200000D02*
X147640000Y-117040000D01*
X147640000Y-117040000D02*
X142200000Y-117040000D01*
D20*
%TO.N,+5V*%
X140950000Y-85550000D02*
X141100000Y-85400000D01*
X142200000Y-96720000D02*
X140950000Y-95470000D01*
X140950000Y-95470000D02*
X140950000Y-85550000D01*
%TO.N,+3.3V*%
X140350000Y-97410000D02*
X140350000Y-78250000D01*
X142200000Y-99260000D02*
X140350000Y-97410000D01*
X140350000Y-78250000D02*
X142200000Y-76400000D01*
%TO.N,+5V*%
X153800000Y-84050000D02*
X153800000Y-84200000D01*
X157410000Y-80440000D02*
X153800000Y-84050000D01*
D19*
%TO.N,Net-(JP3-A)*%
X146400000Y-94000000D02*
X146200000Y-94000000D01*
X148000000Y-98600000D02*
X147800000Y-98400000D01*
X147800000Y-95400000D02*
X146400000Y-94000000D01*
X148000000Y-99200000D02*
X148000000Y-98600000D01*
X147800000Y-98400000D02*
X147800000Y-95400000D01*
D20*
%TO.N,+5V*%
X157410000Y-80440000D02*
X167969200Y-69880800D01*
X167969200Y-69880800D02*
X177480800Y-69880800D01*
X177480800Y-69880800D02*
X177920800Y-70320800D01*
X177920800Y-70320800D02*
X183879200Y-70320800D01*
X183879200Y-70320800D02*
X185659200Y-68540800D01*
X185659200Y-68540800D02*
X187400000Y-68540800D01*
D19*
%TO.N,I2C1_SCL*%
X178600000Y-97600000D02*
X178600000Y-89319240D01*
%TO.N,xD6*%
X179726338Y-112073662D02*
X179726338Y-89326338D01*
X179726338Y-89326338D02*
X177800000Y-87400000D01*
%TO.N,I2C1_SDA*%
X177600000Y-95200000D02*
X177600000Y-89233450D01*
%TO.N,xD6*%
X179200000Y-112600000D02*
X179726338Y-112073662D01*
%TO.N,I2C1_SCL*%
X178600000Y-89319240D02*
X177640457Y-88359697D01*
%TO.N,I2C1_SDA*%
X177600000Y-89233450D02*
X177573617Y-89207067D01*
%TO.N,xD7*%
X160069300Y-92930700D02*
X160000000Y-92861400D01*
X160000000Y-92861400D02*
X160000000Y-83200000D01*
%TO.N,I2C1_SDA*%
X169400000Y-133540000D02*
X168250000Y-134690000D01*
X168250000Y-134690000D02*
X160390000Y-134690000D01*
X160390000Y-134690000D02*
X159240000Y-133540000D01*
%TO.N,PWM1*%
X166626922Y-111255352D02*
X166626922Y-115109336D01*
%TO.N,PWM0*%
X169200000Y-74280761D02*
X164000000Y-79480761D01*
%TO.N,PWM1*%
X163600000Y-108228430D02*
X166626922Y-111255352D01*
%TO.N,PWM0*%
X167276922Y-111339665D02*
X167276922Y-114446835D01*
X169200000Y-71200000D02*
X169200000Y-74280761D01*
%TO.N,PWM1*%
X163600000Y-78400000D02*
X163600000Y-108228430D01*
%TO.N,PWM0*%
X164000000Y-108062743D02*
X167276922Y-111339665D01*
%TO.N,PWM1*%
X168400000Y-73600000D02*
X163600000Y-78400000D01*
%TO.N,PWM0*%
X164000000Y-79480761D02*
X164000000Y-108062743D01*
%TO.N,PWM6*%
X163290000Y-119690000D02*
X163200000Y-119600000D01*
%TO.N,I2C1_SDA*%
X160400000Y-132380000D02*
X160400000Y-129800000D01*
%TO.N,PWM6*%
X165000000Y-127080000D02*
X163290000Y-125370000D01*
X163290000Y-125370000D02*
X163290000Y-119690000D01*
%TO.N,I2C1_SDA*%
X160400000Y-129800000D02*
X162890000Y-127310000D01*
X159240000Y-133540000D02*
X160400000Y-132380000D01*
X162890000Y-127310000D02*
X162890000Y-120138529D01*
X162890000Y-120138529D02*
X159326471Y-116575000D01*
%TO.N,PWM3*%
X156350000Y-125870000D02*
X156350000Y-119396530D01*
%TO.N,I2C1_SCL*%
X156700000Y-133540000D02*
X155550000Y-132390000D01*
%TO.N,PWM3*%
X155140000Y-127080000D02*
X156350000Y-125870000D01*
%TO.N,I2C1_SCL*%
X155550000Y-128296346D02*
X157000000Y-126846346D01*
X155550000Y-132390000D02*
X155550000Y-128296346D01*
X157000000Y-126846346D02*
X157000000Y-117435000D01*
X157000000Y-117435000D02*
X156140000Y-116575000D01*
%TO.N,A3*%
X142610000Y-132390000D02*
X142610000Y-128975685D01*
%TO.N,A4*%
X143426346Y-128800000D02*
X143000000Y-128800000D01*
%TO.N,A3*%
X142600000Y-120425394D02*
X142884917Y-120140477D01*
%TO.N,A4*%
X146540000Y-133540000D02*
X145150000Y-132150000D01*
%TO.N,A3*%
X142600000Y-128965685D02*
X142600000Y-120425394D01*
%TO.N,A4*%
X143000000Y-121200000D02*
X143600000Y-120600000D01*
%TO.N,A3*%
X142610000Y-128975685D02*
X142600000Y-128965685D01*
%TO.N,A4*%
X145150000Y-132150000D02*
X145150000Y-130523654D01*
X145150000Y-130523654D02*
X143426346Y-128800000D01*
X143000000Y-128800000D02*
X143000000Y-121200000D01*
%TO.N,A3*%
X141460000Y-133540000D02*
X142610000Y-132390000D01*
%TO.N,Dled1*%
X159106346Y-128400000D02*
X160190000Y-127316346D01*
%TO.N,PWM5*%
X162490000Y-125930000D02*
X162490000Y-120690000D01*
%TO.N,Dled1*%
X160750000Y-120963654D02*
X160750000Y-120211438D01*
X160190000Y-127316346D02*
X160190000Y-121523654D01*
%TO.N,PWM5*%
X162490000Y-120690000D02*
X161400000Y-119600000D01*
X161340000Y-127080000D02*
X162490000Y-125930000D01*
%TO.N,Dled1*%
X157000000Y-128400000D02*
X159106346Y-128400000D01*
X160190000Y-121523654D02*
X160750000Y-120963654D01*
%TO.N,PWM4*%
X157650000Y-125930000D02*
X157650000Y-120350000D01*
X157650000Y-120350000D02*
X158400000Y-119600000D01*
X158800000Y-127080000D02*
X157650000Y-125930000D01*
%TO.N,PWM2*%
X153990000Y-125690000D02*
X153990000Y-120210000D01*
X152600000Y-127080000D02*
X153990000Y-125690000D01*
X153990000Y-120210000D02*
X154200000Y-120000000D01*
%TO.N,PWM1*%
X150400000Y-125620000D02*
X150400000Y-119600000D01*
X148940000Y-127080000D02*
X150400000Y-125620000D01*
%TO.N,PWM0*%
X146400000Y-127080000D02*
X147698731Y-125781269D01*
X147698731Y-125781269D02*
X147698731Y-120086464D01*
%TO.N,I2C1_SCL*%
X192200000Y-90000000D02*
X191400000Y-89200000D01*
X191400000Y-89200000D02*
X190400000Y-88200000D01*
X192200000Y-99400000D02*
X192200000Y-90000000D01*
%TO.N,Dled2*%
X166200000Y-128400000D02*
X166390000Y-128210000D01*
X166390000Y-128210000D02*
X166390000Y-121523654D01*
X168040000Y-119873654D02*
X168040000Y-119742463D01*
X166390000Y-121523654D02*
X168040000Y-119873654D01*
%TD*%
M02*
