%TF.GenerationSoftware,KiCad,Pcbnew,8.0.3*%
%TF.CreationDate,2025-02-12T02:25:28-08:00*%
%TF.ProjectId,MLU_Breakout,4d4c555f-4272-4656-916b-6f75742e6b69,rev?*%
%TF.SameCoordinates,Original*%
%TF.FileFunction,Copper,L1,Top*%
%TF.FilePolarity,Positive*%
%FSLAX46Y46*%
G04 Gerber Fmt 4.6, Leading zero omitted, Abs format (unit mm)*
G04 Created by KiCad (PCBNEW 8.0.3) date 2025-02-12 02:25:28*
%MOMM*%
%LPD*%
G01*
G04 APERTURE LIST*
G04 Aperture macros list*
%AMRoundRect*
0 Rectangle with rounded corners*
0 $1 Rounding radius*
0 $2 $3 $4 $5 $6 $7 $8 $9 X,Y pos of 4 corners*
0 Add a 4 corners polygon primitive as box body*
4,1,4,$2,$3,$4,$5,$6,$7,$8,$9,$2,$3,0*
0 Add four circle primitives for the rounded corners*
1,1,$1+$1,$2,$3*
1,1,$1+$1,$4,$5*
1,1,$1+$1,$6,$7*
1,1,$1+$1,$8,$9*
0 Add four rect primitives between the rounded corners*
20,1,$1+$1,$2,$3,$4,$5,0*
20,1,$1+$1,$4,$5,$6,$7,0*
20,1,$1+$1,$6,$7,$8,$9,0*
20,1,$1+$1,$8,$9,$2,$3,0*%
%AMFreePoly0*
4,1,19,0.550000,-0.750000,0.000000,-0.750000,0.000000,-0.744911,-0.071157,-0.744911,-0.207708,-0.704816,-0.327430,-0.627875,-0.420627,-0.520320,-0.479746,-0.390866,-0.500000,-0.250000,-0.500000,0.250000,-0.479746,0.390866,-0.420627,0.520320,-0.327430,0.627875,-0.207708,0.704816,-0.071157,0.744911,0.000000,0.744911,0.000000,0.750000,0.550000,0.750000,0.550000,-0.750000,0.550000,-0.750000,
$1*%
%AMFreePoly1*
4,1,19,0.000000,0.744911,0.071157,0.744911,0.207708,0.704816,0.327430,0.627875,0.420627,0.520320,0.479746,0.390866,0.500000,0.250000,0.500000,-0.250000,0.479746,-0.390866,0.420627,-0.520320,0.327430,-0.627875,0.207708,-0.704816,0.071157,-0.744911,0.000000,-0.744911,0.000000,-0.750000,-0.550000,-0.750000,-0.550000,0.750000,0.000000,0.750000,0.000000,0.744911,0.000000,0.744911,
$1*%
G04 Aperture macros list end*
%TA.AperFunction,EtchedComponent*%
%ADD10C,0.000000*%
%TD*%
%TA.AperFunction,SMDPad,CuDef*%
%ADD11RoundRect,0.056250X-0.188750X-0.168750X0.188750X-0.168750X0.188750X0.168750X-0.188750X0.168750X0*%
%TD*%
%TA.AperFunction,ComponentPad*%
%ADD12O,1.700000X1.700000*%
%TD*%
%TA.AperFunction,ComponentPad*%
%ADD13R,1.700000X1.700000*%
%TD*%
%TA.AperFunction,SMDPad,CuDef*%
%ADD14RoundRect,0.100000X0.100000X-0.712500X0.100000X0.712500X-0.100000X0.712500X-0.100000X-0.712500X0*%
%TD*%
%TA.AperFunction,SMDPad,CuDef*%
%ADD15R,0.700000X0.640000*%
%TD*%
%TA.AperFunction,SMDPad,CuDef*%
%ADD16R,0.700000X0.500000*%
%TD*%
%TA.AperFunction,SMDPad,CuDef*%
%ADD17RoundRect,0.250000X-0.350000X-0.450000X0.350000X-0.450000X0.350000X0.450000X-0.350000X0.450000X0*%
%TD*%
%TA.AperFunction,SMDPad,CuDef*%
%ADD18RoundRect,0.250000X-0.450000X0.350000X-0.450000X-0.350000X0.450000X-0.350000X0.450000X0.350000X0*%
%TD*%
%TA.AperFunction,SMDPad,CuDef*%
%ADD19FreePoly0,90.000000*%
%TD*%
%TA.AperFunction,SMDPad,CuDef*%
%ADD20R,1.500000X1.000000*%
%TD*%
%TA.AperFunction,SMDPad,CuDef*%
%ADD21FreePoly1,90.000000*%
%TD*%
%TA.AperFunction,SMDPad,CuDef*%
%ADD22FreePoly0,180.000000*%
%TD*%
%TA.AperFunction,SMDPad,CuDef*%
%ADD23R,1.000000X1.500000*%
%TD*%
%TA.AperFunction,SMDPad,CuDef*%
%ADD24FreePoly1,180.000000*%
%TD*%
%TA.AperFunction,SMDPad,CuDef*%
%ADD25RoundRect,0.250000X-0.475000X0.337500X-0.475000X-0.337500X0.475000X-0.337500X0.475000X0.337500X0*%
%TD*%
%TA.AperFunction,SMDPad,CuDef*%
%ADD26RoundRect,0.250000X-0.337500X-0.475000X0.337500X-0.475000X0.337500X0.475000X-0.337500X0.475000X0*%
%TD*%
%TA.AperFunction,SMDPad,CuDef*%
%ADD27RoundRect,0.237500X0.300000X0.237500X-0.300000X0.237500X-0.300000X-0.237500X0.300000X-0.237500X0*%
%TD*%
%TA.AperFunction,ComponentPad*%
%ADD28R,1.498600X1.498600*%
%TD*%
%TA.AperFunction,ComponentPad*%
%ADD29C,1.498600*%
%TD*%
%TA.AperFunction,ComponentPad*%
%ADD30R,1.600000X1.600000*%
%TD*%
%TA.AperFunction,ComponentPad*%
%ADD31C,1.600000*%
%TD*%
%TA.AperFunction,ComponentPad*%
%ADD32R,1.300000X1.300000*%
%TD*%
%TA.AperFunction,ComponentPad*%
%ADD33C,1.300000*%
%TD*%
%TA.AperFunction,ViaPad*%
%ADD34C,0.600000*%
%TD*%
%TA.AperFunction,Conductor*%
%ADD35C,0.200000*%
%TD*%
%TA.AperFunction,Conductor*%
%ADD36C,0.400000*%
%TD*%
G04 APERTURE END LIST*
D10*
%TA.AperFunction,EtchedComponent*%
%TO.C,JP3*%
G36*
X146000000Y-93600000D02*
G01*
X145600000Y-93600000D01*
X145600000Y-93100000D01*
X146000000Y-93100000D01*
X146000000Y-93600000D01*
G37*
%TD.AperFunction*%
%TA.AperFunction,EtchedComponent*%
G36*
X146800000Y-93600000D02*
G01*
X146400000Y-93600000D01*
X146400000Y-93100000D01*
X146800000Y-93100000D01*
X146800000Y-93600000D01*
G37*
%TD.AperFunction*%
%TA.AperFunction,EtchedComponent*%
%TO.C,JP2*%
G36*
X184200000Y-126000000D02*
G01*
X183700000Y-126000000D01*
X183700000Y-125600000D01*
X184200000Y-125600000D01*
X184200000Y-126000000D01*
G37*
%TD.AperFunction*%
%TA.AperFunction,EtchedComponent*%
G36*
X184200000Y-125200000D02*
G01*
X183700000Y-125200000D01*
X183700000Y-124800000D01*
X184200000Y-124800000D01*
X184200000Y-125200000D01*
G37*
%TD.AperFunction*%
%TA.AperFunction,EtchedComponent*%
%TO.C,JP1*%
G36*
X184200000Y-121800000D02*
G01*
X183700000Y-121800000D01*
X183700000Y-121400000D01*
X184200000Y-121400000D01*
X184200000Y-121800000D01*
G37*
%TD.AperFunction*%
%TA.AperFunction,EtchedComponent*%
G36*
X184200000Y-121000000D02*
G01*
X183700000Y-121000000D01*
X183700000Y-120600000D01*
X184200000Y-120600000D01*
X184200000Y-121000000D01*
G37*
%TD.AperFunction*%
%TD*%
D11*
%TO.P,U3,1,GND*%
%TO.N,GND*%
X168000000Y-96150000D03*
%TO.P,U3,2,CSB*%
%TO.N,Net-(U3-CSB)*%
X168000000Y-96800000D03*
%TO.P,U3,3,SDI*%
%TO.N,I2C1_SDA*%
X168000000Y-97450000D03*
%TO.P,U3,4,SCK*%
%TO.N,I2C1_SCL*%
X168000000Y-98100000D03*
%TO.P,U3,5,SDO*%
%TO.N,Net-(U3-SDO)*%
X166060000Y-98100000D03*
%TO.P,U3,6,VDDIO*%
%TO.N,+3.3V*%
X166060000Y-97450000D03*
%TO.P,U3,7,GND*%
%TO.N,GND*%
X166060000Y-96800000D03*
%TO.P,U3,8,VDD*%
%TO.N,+3.3V*%
X166060000Y-96150000D03*
%TD*%
D12*
%TO.P,J10,17,Pin_17*%
%TO.N,+3.3V*%
X142200000Y-76400000D03*
%TO.P,J10,16,Pin_16*%
%TO.N,GND*%
X142200000Y-78940000D03*
%TO.P,J10,15,Pin_15*%
%TO.N,I2C1_SCL*%
X142200000Y-81480000D03*
%TO.P,J10,14,Pin_14*%
%TO.N,I2C1_SDA*%
X142200000Y-84020000D03*
%TO.P,J10,13,Pin_13*%
%TO.N,D3.3v_GE*%
X142200000Y-86560000D03*
%TO.P,J10,12,Pin_12*%
%TO.N,Dkill_out*%
X142200000Y-89100000D03*
%TO.P,J10,11,Pin_11*%
%TO.N,Ai_s*%
X142200000Y-91640000D03*
%TO.P,J10,10,Pin_10*%
%TO.N,Ab_s*%
X142200000Y-94180000D03*
%TO.P,J10,9,Pin_9*%
%TO.N,+5V*%
X142200000Y-96720000D03*
%TO.P,J10,8,Pin_8*%
%TO.N,+3.3V*%
X142200000Y-99260000D03*
%TO.P,J10,7,Pin_7*%
%TO.N,GND*%
X142200000Y-101800000D03*
%TO.P,J10,6,Pin_6*%
%TO.N,xD5*%
X142200000Y-104340000D03*
%TO.P,J10,5,Pin_5*%
%TO.N,xD4*%
X142200000Y-106880000D03*
%TO.P,J10,4,Pin_4*%
%TO.N,xD3*%
X142200000Y-109420000D03*
%TO.P,J10,3,Pin_3*%
%TO.N,xD2*%
X142200000Y-111960000D03*
%TO.P,J10,2,Pin_2*%
%TO.N,xD1*%
X142200000Y-114500000D03*
D13*
%TO.P,J10,1,Pin_1*%
%TO.N,xD0*%
X142200000Y-117040000D03*
%TD*%
D14*
%TO.P,U2,1,SDA*%
%TO.N,I2C1_SDA*%
X145450000Y-113425000D03*
%TO.P,U2,2,SCL*%
%TO.N,I2C1_SCL*%
X146100000Y-113425000D03*
%TO.P,U2,3,Alert*%
%TO.N,unconnected-(U2-Alert-Pad3)*%
X146750000Y-113425000D03*
%TO.P,U2,4,GND*%
%TO.N,GND*%
X147400000Y-113425000D03*
%TO.P,U2,5,A2*%
X147400000Y-109200000D03*
%TO.P,U2,6,A1*%
X146750000Y-109200000D03*
%TO.P,U2,7,A0*%
X146100000Y-109200000D03*
%TO.P,U2,8,V_{DD}*%
%TO.N,+3.3V*%
X145450000Y-109200000D03*
%TD*%
D15*
%TO.P,RN1,1,R1.1*%
%TO.N,Net-(JP3-A)*%
X147000000Y-99140000D03*
D16*
%TO.P,RN1,2,R2.1*%
%TO.N,Dint*%
X147000000Y-98270000D03*
%TO.P,RN1,3,R3.1*%
%TO.N,I2C2_SCL*%
X147000000Y-97470000D03*
D15*
%TO.P,RN1,4,R4.1*%
%TO.N,I2C2_SDA*%
X147000000Y-96600000D03*
%TO.P,RN1,5,R4.2*%
%TO.N,+5V*%
X145600000Y-96600000D03*
D16*
%TO.P,RN1,6,R3.2*%
X145600000Y-97470000D03*
%TO.P,RN1,7,R2.2*%
X145600000Y-98270000D03*
D15*
%TO.P,RN1,8,R1.2*%
X145600000Y-99140000D03*
%TD*%
D17*
%TO.P,R7,1*%
%TO.N,+3.3V*%
X166000000Y-100600000D03*
%TO.P,R7,2*%
%TO.N,Net-(U3-CSB)*%
X168000000Y-100600000D03*
%TD*%
D18*
%TO.P,R6,1*%
%TO.N,+3.3V*%
X163400000Y-96200000D03*
%TO.P,R6,2*%
%TO.N,Net-(U3-SDO)*%
X163400000Y-98200000D03*
%TD*%
%TO.P,R5,1*%
%TO.N,+3.3V*%
X191050000Y-84800000D03*
%TO.P,R5,2*%
%TO.N,I2C1_SCL*%
X191050000Y-86800000D03*
%TD*%
%TO.P,R4,1*%
%TO.N,+3.3V*%
X193400000Y-84800000D03*
%TO.P,R4,2*%
%TO.N,I2C1_SDA*%
X193400000Y-86800000D03*
%TD*%
D17*
%TO.P,R3,1*%
%TO.N,+3.3V*%
X191400000Y-91000000D03*
%TO.P,R3,2*%
%TO.N,GND*%
X193400000Y-91000000D03*
%TD*%
D18*
%TO.P,R2,1*%
%TO.N,+3.3V*%
X177600000Y-123400000D03*
%TO.P,R2,2*%
%TO.N,UART_RX2*%
X177600000Y-125400000D03*
%TD*%
%TO.P,R1,1*%
%TO.N,+3.3V*%
X175400000Y-123400000D03*
%TO.P,R1,2*%
%TO.N,UART_TX2*%
X175400000Y-125400000D03*
%TD*%
D19*
%TO.P,JP3,1,A*%
%TO.N,Net-(JP3-A)*%
X146200000Y-94000000D03*
D20*
%TO.P,JP3,2,C*%
%TO.N,Net-(JP3-C)*%
X146200000Y-92700000D03*
D21*
%TO.P,JP3,3,B*%
%TO.N,GND*%
X146200000Y-91400000D03*
%TD*%
D22*
%TO.P,JP2,1,A*%
%TO.N,Net-(J1-Pin_21)*%
X184600000Y-125400000D03*
D23*
%TO.P,JP2,2,C*%
%TO.N,I2C1_SDA*%
X183300000Y-125400000D03*
D24*
%TO.P,JP2,3,B*%
%TO.N,BAR_SDA*%
X182000000Y-125400000D03*
%TD*%
D22*
%TO.P,JP1,1,A*%
%TO.N,Net-(J1-Pin_19)*%
X184600000Y-121200000D03*
D23*
%TO.P,JP1,2,C*%
%TO.N,I2C1_SCL*%
X183300000Y-121200000D03*
D24*
%TO.P,JP1,3,B*%
%TO.N,BAR_SCL*%
X182000000Y-121200000D03*
%TD*%
D13*
%TO.P,J8,1,Pin_1*%
%TO.N,UART_RX1*%
X193400000Y-107800000D03*
D12*
%TO.P,J8,2,Pin_2*%
%TO.N,UART_TX1*%
X190860000Y-107800000D03*
%TD*%
D13*
%TO.P,J6,1,Pin_1*%
%TO.N,BAR_SDA*%
X193825000Y-123800000D03*
D12*
%TO.P,J6,2,Pin_2*%
%TO.N,BAR_SCL*%
X191285000Y-123800000D03*
%TD*%
D13*
%TO.P,J5,1,Pin_1*%
%TO.N,+3.3V*%
X151060000Y-116575000D03*
D12*
%TO.P,J5,2,Pin_2*%
%TO.N,GND*%
X153600000Y-116575000D03*
%TO.P,J5,3,Pin_3*%
%TO.N,I2C1_SCL*%
X156140000Y-116575000D03*
%TO.P,J5,4,Pin_4*%
%TO.N,I2C1_SDA*%
X158680000Y-116575000D03*
%TD*%
D13*
%TO.P,J4,1,Pin_1*%
%TO.N,+3.3V*%
X199882000Y-99420000D03*
D12*
%TO.P,J4,2,Pin_2*%
%TO.N,GND*%
X199882000Y-96880000D03*
%TO.P,J4,3,Pin_3*%
%TO.N,I2C1_SCL*%
X199882000Y-94340000D03*
%TO.P,J4,4,Pin_4*%
%TO.N,I2C1_SDA*%
X199882000Y-91800000D03*
%TD*%
D13*
%TO.P,J3,1,Pin_1*%
%TO.N,+5V*%
X199800000Y-72580000D03*
D12*
%TO.P,J3,2,Pin_2*%
X199800000Y-75120000D03*
%TO.P,J3,3,Pin_3*%
%TO.N,Analog_Current*%
X199800000Y-77660000D03*
%TO.P,J3,4,Pin_4*%
%TO.N,Analog_Voltage*%
X199800000Y-80200000D03*
%TO.P,J3,5,Pin_5*%
%TO.N,GND*%
X199800000Y-82740000D03*
%TO.P,J3,6,Pin_6*%
X199800000Y-85280000D03*
%TD*%
D13*
%TO.P,J2,1,Pin_1*%
%TO.N,GND*%
X152275000Y-109000000D03*
D12*
%TO.P,J2,2,Pin_2*%
%TO.N,+3.3V*%
X154815000Y-109000000D03*
%TO.P,J2,3,Pin_3*%
%TO.N,Dleak*%
X157355000Y-109000000D03*
%TD*%
D25*
%TO.P,C4,1*%
%TO.N,+5V*%
X190400000Y-68362500D03*
%TO.P,C4,2*%
%TO.N,GND*%
X190400000Y-70437500D03*
%TD*%
D26*
%TO.P,C3,1*%
%TO.N,+5V*%
X160000000Y-80400000D03*
%TO.P,C3,2*%
%TO.N,GND*%
X162075000Y-80400000D03*
%TD*%
D27*
%TO.P,C2,1*%
%TO.N,I2C2_SCL*%
X147462500Y-80290000D03*
%TO.P,C2,2*%
%TO.N,GND*%
X145737500Y-80290000D03*
%TD*%
%TO.P,C1,1*%
%TO.N,I2C2_SDA*%
X147462500Y-82800000D03*
%TO.P,C1,2*%
%TO.N,GND*%
X145737500Y-82800000D03*
%TD*%
D13*
%TO.P,J7,1,Pin_1*%
%TO.N,+5V*%
X193860000Y-64860000D03*
D12*
%TO.P,J7,2,Pin_2*%
%TO.N,I2C2_SCL*%
X196400000Y-64860000D03*
%TO.P,J7,3,Pin_3*%
%TO.N,GND*%
X193860000Y-67400000D03*
%TO.P,J7,4,Pin_4*%
%TO.N,I2C2_SDA*%
X196400000Y-67400000D03*
%TD*%
D13*
%TO.P,J20,1,Pin_1*%
%TO.N,GND*%
X165000000Y-122000000D03*
D12*
%TO.P,J20,2,Pin_2*%
X167540000Y-122000000D03*
%TO.P,J20,3,Pin_3*%
%TO.N,unconnected-(J20-Pin_3-Pad3)*%
X165000000Y-124540000D03*
%TO.P,J20,4,Pin_4*%
%TO.N,unconnected-(J20-Pin_4-Pad4)*%
X167540000Y-124540000D03*
%TO.P,J20,5,Pin_5*%
%TO.N,PWM6*%
X165000000Y-127080000D03*
%TO.P,J20,6,Pin_6*%
%TO.N,PWM7*%
X167540000Y-127080000D03*
%TD*%
D13*
%TO.P,J19,1,Pin_1*%
%TO.N,GND*%
X152600000Y-122000000D03*
D12*
%TO.P,J19,2,Pin_2*%
X155140000Y-122000000D03*
%TO.P,J19,3,Pin_3*%
%TO.N,unconnected-(J19-Pin_3-Pad3)*%
X152600000Y-124540000D03*
%TO.P,J19,4,Pin_4*%
%TO.N,unconnected-(J19-Pin_4-Pad4)*%
X155140000Y-124540000D03*
%TO.P,J19,5,Pin_5*%
%TO.N,PWM2*%
X152600000Y-127080000D03*
%TO.P,J19,6,Pin_6*%
%TO.N,PWM3*%
X155140000Y-127080000D03*
%TD*%
D13*
%TO.P,J18,1,Pin_1*%
%TO.N,GND*%
X158800000Y-122000000D03*
D12*
%TO.P,J18,2,Pin_2*%
X161340000Y-122000000D03*
%TO.P,J18,3,Pin_3*%
%TO.N,unconnected-(J18-Pin_3-Pad3)*%
X158800000Y-124540000D03*
%TO.P,J18,4,Pin_4*%
%TO.N,unconnected-(J18-Pin_4-Pad4)*%
X161340000Y-124540000D03*
%TO.P,J18,5,Pin_5*%
%TO.N,PWM4*%
X158800000Y-127080000D03*
%TO.P,J18,6,Pin_6*%
%TO.N,PWM5*%
X161340000Y-127080000D03*
%TD*%
D13*
%TO.P,J17,1,Pin_1*%
%TO.N,GND*%
X146400000Y-122000000D03*
D12*
%TO.P,J17,2,Pin_2*%
X148940000Y-122000000D03*
%TO.P,J17,3,Pin_3*%
%TO.N,unconnected-(J17-Pin_3-Pad3)*%
X146400000Y-124540000D03*
%TO.P,J17,4,Pin_4*%
%TO.N,unconnected-(J17-Pin_4-Pad4)*%
X148940000Y-124540000D03*
%TO.P,J17,5,Pin_5*%
%TO.N,PWM0*%
X146400000Y-127080000D03*
%TO.P,J17,6,Pin_6*%
%TO.N,PWM1*%
X148940000Y-127080000D03*
%TD*%
%TO.P,J9,9,Pin_9*%
%TO.N,SPI_MISO*%
X199857000Y-126170000D03*
%TO.P,J9,8,Pin_8*%
%TO.N,D7*%
X199857000Y-123630000D03*
%TO.P,J9,7,Pin_7*%
%TO.N,SPI_SCK*%
X199857000Y-121090000D03*
%TO.P,J9,6,Pin_6*%
%TO.N,SPI_MOSI*%
X199857000Y-118550000D03*
%TO.P,J9,5,Pin_5*%
%TO.N,D6*%
X199857000Y-116010000D03*
%TO.P,J9,4,Pin_4*%
%TO.N,D5*%
X199857000Y-113470000D03*
%TO.P,J9,3,Pin_3*%
%TO.N,SPI_CS1*%
X199857000Y-110930000D03*
%TO.P,J9,2,Pin_2*%
%TO.N,GND*%
X199857000Y-108390000D03*
D13*
%TO.P,J9,1,Pin_1*%
%TO.N,+5V*%
X199857000Y-105850000D03*
%TD*%
D28*
%TO.P,U1,1,SCL*%
%TO.N,I2C2_SCL*%
X149790000Y-80440000D03*
D29*
%TO.P,U1,2,SDA*%
%TO.N,I2C2_SDA*%
X149790000Y-82980000D03*
%TO.P,U1,3,A2*%
%TO.N,GND*%
X149790000Y-85520000D03*
%TO.P,U1,4,A1*%
X149790000Y-88060000D03*
%TO.P,U1,5,A0*%
X149790000Y-90600000D03*
%TO.P,U1,6,\u002ARESET*%
%TO.N,Net-(JP3-C)*%
X149790000Y-93140000D03*
%TO.P,U1,7,NC*%
%TO.N,unconnected-(U1-NC-Pad7)*%
X149790000Y-95680000D03*
%TO.P,U1,8,INT*%
%TO.N,Dint*%
X149790000Y-98220000D03*
%TO.P,U1,9,VSS*%
%TO.N,GND*%
X149790000Y-100760000D03*
%TO.P,U1,10,GP0*%
%TO.N,xD0*%
X157410000Y-100760000D03*
%TO.P,U1,11,GP1*%
%TO.N,xD1*%
X157410000Y-98220000D03*
%TO.P,U1,12,GP2*%
%TO.N,xD2*%
X157410000Y-95680000D03*
%TO.P,U1,13,GP3*%
%TO.N,xD3*%
X157410000Y-93140000D03*
%TO.P,U1,14,GP4*%
%TO.N,xD4*%
X157410000Y-90600000D03*
%TO.P,U1,15,GP5*%
%TO.N,xD5*%
X157410000Y-88060000D03*
%TO.P,U1,16,GP6*%
%TO.N,xD6*%
X157410000Y-85520000D03*
%TO.P,U1,17,GP7*%
%TO.N,xD7*%
X157410000Y-82980000D03*
%TO.P,U1,18,VDD*%
%TO.N,+5V*%
X157410000Y-80440000D03*
%TD*%
D14*
%TO.P,U5,1,SDA*%
%TO.N,I2C1_SDA*%
X191425000Y-97712500D03*
%TO.P,U5,2,SCL*%
%TO.N,I2C1_SCL*%
X192075000Y-97712500D03*
%TO.P,U5,3,Alert*%
%TO.N,unconnected-(U5-Alert-Pad3)*%
X192725000Y-97712500D03*
%TO.P,U5,4,GND*%
%TO.N,GND*%
X193375000Y-97712500D03*
%TO.P,U5,5,A2*%
X193375000Y-93487500D03*
%TO.P,U5,6,A1*%
X192725000Y-93487500D03*
%TO.P,U5,7,A0*%
%TO.N,+3.3V*%
X192075000Y-93487500D03*
%TO.P,U5,8,V_{DD}*%
X191425000Y-93487500D03*
%TD*%
D30*
%TO.P,U4,1,GND*%
%TO.N,GND*%
X172160000Y-68540800D03*
D31*
%TO.P,U4,2,0_RX1_CRX2_CS1*%
%TO.N,PWM0*%
X172160000Y-71080800D03*
%TO.P,U4,3,1_TX1_CTX2_MISO1*%
%TO.N,PWM1*%
X172160000Y-73620800D03*
%TO.P,U4,4,2_OUT2*%
%TO.N,PWM2*%
X172160000Y-76160800D03*
%TO.P,U4,5,3_LRCLK2*%
%TO.N,PWM3*%
X172160000Y-78700800D03*
%TO.P,U4,6,4_BCLK2*%
%TO.N,PWM4*%
X172160000Y-81240800D03*
%TO.P,U4,7,5_IN2*%
%TO.N,PWM5*%
X172160000Y-83780800D03*
%TO.P,U4,8,6_OUT1D*%
%TO.N,PWM6*%
X172160000Y-86320800D03*
%TO.P,U4,9,7_RX2_OUT1A*%
%TO.N,PWM7*%
X172160000Y-88860800D03*
%TO.P,U4,10,8_TX2_IN1*%
%TO.N,PWM8*%
X172160000Y-91400800D03*
%TO.P,U4,11,9_OUT1C*%
%TO.N,PWM9*%
X172160000Y-93940800D03*
%TO.P,U4,12,10_CS_MQSR*%
%TO.N,SPI_CS1*%
X172160000Y-96480800D03*
%TO.P,U4,13,11_MOSI_CTX1*%
%TO.N,SPI_MOSI*%
X172160000Y-99020800D03*
%TO.P,U4,14,12_MISO_MQSL*%
%TO.N,SPI_MISO*%
X172160000Y-101560800D03*
%TO.P,U4,15,3V3*%
%TO.N,+3.3V*%
X172160000Y-104100800D03*
%TO.P,U4,16,24_A10_TX6_SCL2*%
%TO.N,UART_TX3*%
X172160000Y-106640800D03*
%TO.P,U4,17,25_A11_RX6_SDA2*%
%TO.N,UART_RX3*%
X172160000Y-109180800D03*
%TO.P,U4,18,26_A12_MOSI1*%
%TO.N,Dswitch1*%
X172160000Y-111720800D03*
%TO.P,U4,19,27_A13_SCK1*%
%TO.N,Dswitch2*%
X172160000Y-114260800D03*
%TO.P,U4,20,28_RX7*%
%TO.N,UART_RX2*%
X172160000Y-116800800D03*
%TO.P,U4,21,29_TX7*%
%TO.N,UART_TX2*%
X172160000Y-119340800D03*
%TO.P,U4,22,30_CRX3*%
%TO.N,Dunused*%
X172160000Y-121880800D03*
%TO.P,U4,23,31_CTX3*%
%TO.N,D6*%
X172160000Y-124420800D03*
%TO.P,U4,24,32_OUT1B*%
%TO.N,D7*%
X172160000Y-126960800D03*
%TO.P,U4,25,33_MCLK2*%
%TO.N,Dleak*%
X187400000Y-126960800D03*
%TO.P,U4,26,34_RX8*%
%TO.N,UART_RX1*%
X187400000Y-124420800D03*
%TO.P,U4,27,35_TX8*%
%TO.N,UART_TX1*%
X187400000Y-121880800D03*
%TO.P,U4,28,36_CS*%
%TO.N,Dled2*%
X187400000Y-119340800D03*
%TO.P,U4,29,37_CS*%
%TO.N,Dled1*%
X187400000Y-116800800D03*
%TO.P,U4,30,38_CS1_IN1*%
%TO.N,Dkill_out*%
X187400000Y-114260800D03*
%TO.P,U4,31,39_MISO1_OUT1A*%
%TO.N,D3.3v_GE*%
X187400000Y-111720800D03*
%TO.P,U4,32,40_A16*%
%TO.N,Analog_Voltage*%
X187400000Y-109180800D03*
%TO.P,U4,33,41_A17*%
%TO.N,Analog_Current*%
X187400000Y-106640800D03*
%TO.P,U4,34,GND*%
%TO.N,GND*%
X187400000Y-104100800D03*
%TO.P,U4,35,13_SCK_LED*%
%TO.N,SPI_SCK*%
X187400000Y-101560800D03*
%TO.P,U4,36,14_A0_TX3_SPDIF_OUT*%
%TO.N,D5*%
X187400000Y-99020800D03*
%TO.P,U4,37,15_A1_RX3_SPDIF_IN*%
%TO.N,Dint*%
X187400000Y-96480800D03*
%TO.P,U4,38,16_A2_RX4_SCL1*%
%TO.N,I2C2_SCL*%
X187400000Y-93940800D03*
%TO.P,U4,39,17_A3_TX4_SDA1*%
%TO.N,I2C2_SDA*%
X187400000Y-91400800D03*
%TO.P,U4,40,18_A4_SDA*%
%TO.N,I2C1_SDA*%
X187400000Y-88860800D03*
%TO.P,U4,41,19_A5_SCL*%
%TO.N,I2C1_SCL*%
X187400000Y-86320800D03*
%TO.P,U4,42,20_A6_TX5_LRCLK1*%
%TO.N,A4*%
X187400000Y-83780800D03*
%TO.P,U4,43,21_A7_RX5_BCLK1*%
%TO.N,A3*%
X187400000Y-81240800D03*
%TO.P,U4,44,22_A8_CTX1*%
%TO.N,Ab_s*%
X187400000Y-78700800D03*
%TO.P,U4,45,23_A9_CRX1_MCLK1*%
%TO.N,Ai_s*%
X187400000Y-76160800D03*
%TO.P,U4,46,3V3*%
%TO.N,+3.3V*%
X187400000Y-73620800D03*
%TO.P,U4,47,GND*%
%TO.N,GND*%
X187400000Y-71080800D03*
%TO.P,U4,48,VIN*%
%TO.N,+5V*%
X187400000Y-68540800D03*
%TO.P,U4,49,VUSB*%
%TO.N,unconnected-(U4-VUSB-Pad49)*%
X184860000Y-71080800D03*
%TO.P,U4,50,VBAT*%
%TO.N,unconnected-(U4-VBAT-Pad50)*%
X174700000Y-114260800D03*
%TO.P,U4,51,3V3*%
%TO.N,unconnected-(U4-3V3-Pad51)*%
X177240000Y-114260800D03*
%TO.P,U4,52,GND*%
%TO.N,unconnected-(U4-GND-Pad52)*%
X179780000Y-114260800D03*
%TO.P,U4,53,PROGRAM*%
%TO.N,unconnected-(U4-PROGRAM-Pad53)*%
X182320000Y-114260800D03*
%TO.P,U4,54,ON_OFF*%
%TO.N,unconnected-(U4-ON_OFF-Pad54)*%
X184860000Y-114260800D03*
D30*
%TO.P,U4,55,5V*%
%TO.N,unconnected-(U4-5V-Pad55)*%
X175210800Y-74840000D03*
D31*
%TO.P,U4,56,D-*%
%TO.N,unconnected-(U4-D--Pad56)*%
X175210800Y-77380000D03*
%TO.P,U4,57,D+*%
%TO.N,unconnected-(U4-D+-Pad57)*%
X175210800Y-79920000D03*
%TO.P,U4,58,GND*%
%TO.N,unconnected-(U4-GND-Pad58)*%
X175210800Y-82460000D03*
%TO.P,U4,59,GND*%
%TO.N,unconnected-(U4-GND-Pad59)*%
X175210800Y-85000000D03*
D32*
%TO.P,U4,60,R+*%
%TO.N,unconnected-(U4-R+-Pad60)*%
X184961600Y-81510800D03*
D33*
%TO.P,U4,61,LED*%
%TO.N,unconnected-(U4-LED-Pad61)*%
X182961600Y-81510800D03*
%TO.P,U4,62,T-*%
%TO.N,unconnected-(U4-T--Pad62)*%
X180961600Y-81510800D03*
%TO.P,U4,63,T+*%
%TO.N,unconnected-(U4-T+-Pad63)*%
X180961600Y-83510800D03*
%TO.P,U4,64,GND*%
%TO.N,unconnected-(U4-GND-Pad64)*%
X182961600Y-83510800D03*
%TO.P,U4,65,R-*%
%TO.N,unconnected-(U4-R--Pad65)*%
X184961600Y-83510800D03*
%TO.P,U4,66,D-*%
%TO.N,unconnected-(U4-D--Pad66)*%
X181050000Y-69270800D03*
%TO.P,U4,67,D+*%
%TO.N,unconnected-(U4-D+-Pad67)*%
X178510000Y-69270800D03*
%TD*%
D13*
%TO.P,J1,1,Pin_1*%
%TO.N,GND*%
X141460000Y-131000000D03*
D12*
%TO.P,J1,2,Pin_2*%
%TO.N,A3*%
X141460000Y-133540000D03*
%TO.P,J1,3,Pin_3*%
%TO.N,Dled1*%
X144000000Y-131000000D03*
%TO.P,J1,4,Pin_4*%
%TO.N,GND*%
X144000000Y-133540000D03*
%TO.P,J1,5,Pin_5*%
X146540000Y-131000000D03*
%TO.P,J1,6,Pin_6*%
%TO.N,A4*%
X146540000Y-133540000D03*
%TO.P,J1,7,Pin_7*%
%TO.N,Dled2*%
X149080000Y-131000000D03*
%TO.P,J1,8,Pin_8*%
%TO.N,GND*%
X149080000Y-133540000D03*
%TO.P,J1,9,Pin_9*%
%TO.N,Dswitch1*%
X151620000Y-131000000D03*
%TO.P,J1,10,Pin_10*%
%TO.N,+3.3V*%
X151620000Y-133540000D03*
%TO.P,J1,11,Pin_11*%
X154160000Y-131000000D03*
%TO.P,J1,12,Pin_12*%
%TO.N,GND*%
X154160000Y-133540000D03*
%TO.P,J1,13,Pin_13*%
%TO.N,Dswitch2*%
X156700000Y-131000000D03*
%TO.P,J1,14,Pin_14*%
%TO.N,I2C1_SCL*%
X156700000Y-133540000D03*
%TO.P,J1,15,Pin_15*%
%TO.N,+3.3V*%
X159240000Y-131000000D03*
%TO.P,J1,16,Pin_16*%
%TO.N,I2C1_SDA*%
X159240000Y-133540000D03*
%TO.P,J1,17,Pin_17*%
%TO.N,GND*%
X161780000Y-131000000D03*
%TO.P,J1,18,Pin_18*%
%TO.N,+3.3V*%
X161780000Y-133540000D03*
%TO.P,J1,19,Pin_19*%
%TO.N,Net-(J1-Pin_19)*%
X164320000Y-131000000D03*
%TO.P,J1,20,Pin_20*%
%TO.N,GND*%
X164320000Y-133540000D03*
%TO.P,J1,21,Pin_21*%
%TO.N,Net-(J1-Pin_21)*%
X166860000Y-131000000D03*
%TO.P,J1,22,Pin_22*%
%TO.N,I2C1_SCL*%
X166860000Y-133540000D03*
%TO.P,J1,23,Pin_23*%
%TO.N,+3.3V*%
X169400000Y-131000000D03*
%TO.P,J1,24,Pin_24*%
%TO.N,I2C1_SDA*%
X169400000Y-133540000D03*
%TO.P,J1,25,Pin_25*%
%TO.N,UART_TX3*%
X171940000Y-131000000D03*
%TO.P,J1,26,Pin_26*%
%TO.N,Dunused*%
X171940000Y-133540000D03*
%TO.P,J1,27,Pin_27*%
%TO.N,UART_RX3*%
X174480000Y-131000000D03*
%TO.P,J1,28,Pin_28*%
%TO.N,GND*%
X174480000Y-133540000D03*
%TO.P,J1,29,Pin_29*%
X177020000Y-131000000D03*
%TO.P,J1,30,Pin_30*%
%TO.N,xD7*%
X177020000Y-133540000D03*
%TO.P,J1,31,Pin_31*%
%TO.N,UART_TX2*%
X179560000Y-131000000D03*
%TO.P,J1,32,Pin_32*%
%TO.N,GND*%
X179560000Y-133540000D03*
%TO.P,J1,33,Pin_33*%
%TO.N,UART_RX2*%
X182100000Y-131000000D03*
%TO.P,J1,34,Pin_34*%
%TO.N,xD6*%
X182100000Y-133540000D03*
%TO.P,J1,35,Pin_35*%
%TO.N,+3.3V*%
X184640000Y-131000000D03*
%TO.P,J1,36,Pin_36*%
%TO.N,GND*%
X184640000Y-133540000D03*
%TO.P,J1,37,Pin_37*%
X187180000Y-131000000D03*
%TO.P,J1,38,Pin_38*%
%TO.N,+5V*%
X187180000Y-133540000D03*
%TO.P,J1,39,Pin_39*%
%TO.N,unconnected-(J1-Pin_39-Pad39)*%
X189720000Y-131000000D03*
%TO.P,J1,40,Pin_40*%
%TO.N,GND*%
X189720000Y-133540000D03*
%TO.P,J1,41,Pin_41*%
%TO.N,PWM9*%
X192260000Y-131000000D03*
%TO.P,J1,42,Pin_42*%
%TO.N,+5V*%
X192260000Y-133540000D03*
%TO.P,J1,43,Pin_43*%
%TO.N,GND*%
X194800000Y-131000000D03*
%TO.P,J1,44,Pin_44*%
X194800000Y-133540000D03*
%TO.P,J1,45,Pin_45*%
%TO.N,unconnected-(J1-Pin_45-Pad45)*%
X197340000Y-131000000D03*
%TO.P,J1,46,Pin_46*%
%TO.N,+3.3V*%
X197340000Y-133540000D03*
%TO.P,J1,47,Pin_47*%
%TO.N,PWM8*%
X199880000Y-131000000D03*
%TO.P,J1,48,Pin_48*%
%TO.N,GND*%
X199880000Y-133540000D03*
%TD*%
D34*
%TO.N,I2C1_SCL*%
X183400000Y-119800000D03*
%TO.N,I2C1_SDA*%
X183000000Y-126600000D03*
X195200000Y-107000000D03*
X189200000Y-125000000D03*
X189200000Y-123600000D03*
X189200000Y-126400000D03*
%TO.N,UART_TX2*%
X174800000Y-126600000D03*
X173909296Y-121394907D03*
%TO.N,UART_RX2*%
X180200000Y-121400000D03*
X177800000Y-121400000D03*
X177800000Y-118000000D03*
%TO.N,BAR_SDA*%
X182000000Y-125400000D03*
X185600000Y-123200000D03*
X182800000Y-122800000D03*
%TO.N,BAR_SCL*%
X184978135Y-119773625D03*
%TO.N,PWM7*%
X169000000Y-107800000D03*
X168600000Y-118000000D03*
%TO.N,SPI_MISO*%
X189600000Y-112400000D03*
X189600000Y-115400000D03*
X185400000Y-101400000D03*
%TO.N,Net-(J1-Pin_21)*%
X170000000Y-129200000D03*
%TO.N,Net-(J1-Pin_19)*%
X185800000Y-126200000D03*
X184361021Y-121316695D03*
%TO.N,+3.3V*%
X174047603Y-127142576D03*
%TO.N,SPI_SCK*%
X190307056Y-111928221D03*
X190877415Y-115674056D03*
%TO.N,SPI_MOSI*%
X182000000Y-109000000D03*
X185359620Y-110840380D03*
X182000000Y-99000000D03*
%TO.N,D6*%
X190250000Y-118069240D03*
X185783824Y-119502759D03*
%TO.N,D5*%
X194400000Y-106400000D03*
%TO.N,SPI_CS1*%
X174800000Y-96400000D03*
X193000000Y-105800000D03*
X174800000Y-105600000D03*
X190360000Y-105040431D03*
%TO.N,Analog_Voltage*%
X194870250Y-102329751D03*
%TO.N,Analog_Current*%
X194294481Y-101753982D03*
%TO.N,I2C2_SCL*%
X194150000Y-95544334D03*
%TO.N,I2C2_SDA*%
X194150000Y-94719683D03*
%TO.N,Dleak*%
X176600000Y-116600000D03*
X175200000Y-111200000D03*
X178800000Y-123290547D03*
X168400000Y-108600000D03*
%TO.N,+3.3V*%
X145400000Y-107600000D03*
%TO.N,I2C1_SDA*%
X146603424Y-112113851D03*
%TO.N,I2C1_SCL*%
X149200000Y-113600000D03*
%TO.N,+3.3V*%
X167400000Y-102400000D03*
%TO.N,Net-(U3-CSB)*%
X167200000Y-98600000D03*
X168000000Y-100600000D03*
%TO.N,I2C1_SCL*%
X168647703Y-98472918D03*
X169947703Y-98618413D03*
%TO.N,+3.3V*%
X163000000Y-95000000D03*
%TO.N,GND*%
X167400000Y-95000000D03*
%TO.N,I2C1_SCL*%
X159400000Y-87800000D03*
X152600000Y-87600000D03*
X154600000Y-87600000D03*
X162400000Y-88600000D03*
X163000000Y-100114722D03*
%TO.N,I2C1_SDA*%
X144600000Y-86600000D03*
X162233643Y-86948718D03*
%TO.N,D3.3v_GE*%
X168200000Y-89400000D03*
X167859620Y-107140380D03*
%TO.N,Dkill_out*%
X166908135Y-103972625D03*
X166818834Y-88935524D03*
X183000000Y-102800000D03*
X183000000Y-111400000D03*
%TO.N,Ai_s*%
X177400000Y-76800000D03*
X167369869Y-89582722D03*
%TO.N,Ab_s*%
X174200000Y-89600000D03*
X176600000Y-89600000D03*
X169850000Y-91427366D03*
X178050000Y-78800000D03*
%TO.N,xD5*%
X154600000Y-104200000D03*
%TO.N,xD4*%
X155200000Y-106000000D03*
%TO.N,xD3*%
X155800000Y-106600000D03*
%TO.N,xD2*%
X159000000Y-99800000D03*
X159200000Y-97000000D03*
X152400000Y-112600000D03*
X158800000Y-112400000D03*
%TO.N,xD1*%
X159400000Y-113200000D03*
X158550000Y-98400000D03*
X154999729Y-115250000D03*
%TO.N,xD0*%
X156518809Y-113599569D03*
X147800000Y-117200000D03*
%TO.N,Dint*%
X170940765Y-92740765D03*
X175200000Y-93400000D03*
%TO.N,+5V*%
X141100000Y-85400000D03*
X153800000Y-84200000D03*
%TO.N,I2C2_SDA*%
X153403044Y-94810190D03*
%TO.N,I2C2_SCL*%
X151800000Y-96479300D03*
%TO.N,Net-(JP3-A)*%
X148000000Y-99200000D03*
X146200000Y-94000000D03*
%TO.N,GND*%
X162400000Y-78200000D03*
%TO.N,xD6*%
X177800000Y-87400000D03*
X179200000Y-112600000D03*
X179600000Y-116200000D03*
%TO.N,xD7*%
X160000000Y-83200000D03*
X170985688Y-127517725D03*
X170600000Y-119000000D03*
%TO.N,I2C1_SDA*%
X161800000Y-99200000D03*
X162950000Y-107400000D03*
X177600000Y-95200000D03*
X177573617Y-89207067D03*
%TO.N,I2C1_SCL*%
X178600000Y-97600000D03*
X177640457Y-88359697D03*
X162104034Y-107317266D03*
X161580202Y-100114722D03*
%TO.N,A4*%
X161541802Y-109674105D03*
X143600000Y-120600000D03*
X162000000Y-85200000D03*
%TO.N,A3*%
X142884917Y-120140477D03*
X161200000Y-82400000D03*
X160719300Y-109459641D03*
%TO.N,PWM6*%
X169529891Y-85979086D03*
X169800000Y-110600000D03*
X163200000Y-119600000D03*
%TO.N,PWM5*%
X161400000Y-119600000D03*
X169000000Y-83800000D03*
X169800000Y-111600000D03*
%TO.N,PWM4*%
X158400000Y-119600000D03*
X169200000Y-112600000D03*
X169200000Y-81400000D03*
%TO.N,PWM3*%
X156350000Y-119396530D03*
X168600000Y-113200000D03*
X168600000Y-78800000D03*
%TO.N,PWM2*%
X154200000Y-120000000D03*
X168200000Y-76200000D03*
X168000000Y-114000000D03*
%TO.N,PWM1*%
X168400000Y-73600000D03*
X166626922Y-115109336D03*
X150400000Y-119600000D03*
%TO.N,PWM0*%
X169200000Y-71200000D03*
X167276922Y-114446835D03*
X147698731Y-120086464D03*
%TO.N,Dled1*%
X157000000Y-128400000D03*
X160750000Y-120211438D03*
%TO.N,Dled2*%
X168040000Y-119742463D03*
X166200000Y-128400000D03*
%TO.N,Dswitch1*%
X173330998Y-127599721D03*
%TO.N,Dswitch2*%
X174585549Y-127813605D03*
X174290484Y-115762736D03*
%TO.N,UART_TX2*%
X178985712Y-124715658D03*
X179478418Y-129194651D03*
%TO.N,UART_RX2*%
X180859620Y-129740380D03*
X180200000Y-125400000D03*
%TO.N,UART_TX3*%
X175600000Y-106600000D03*
X177847161Y-129302799D03*
%TO.N,UART_RX3*%
X178633702Y-129100000D03*
X178200000Y-110200000D03*
%TO.N,PWM8*%
X184154595Y-128100000D03*
X180376338Y-93136039D03*
%TO.N,PWM9*%
X180440380Y-94850000D03*
X181500981Y-129185711D03*
%TO.N,I2C1_SCL*%
X192112732Y-89481946D03*
X192200000Y-99400000D03*
X190400000Y-88200000D03*
%TO.N,I2C1_SDA*%
X193350000Y-88779784D03*
X191292755Y-99671496D03*
%TO.N,GND*%
X193600000Y-99600000D03*
X193350000Y-90029784D03*
%TO.N,+3.3V*%
X191040380Y-89759620D03*
X192200000Y-82400000D03*
%TD*%
D35*
%TO.N,I2C1_SCL*%
X183300000Y-121200000D02*
X183300000Y-119900000D01*
%TO.N,SPI_MOSI*%
X182000000Y-109000000D02*
X183840380Y-110840380D01*
%TO.N,Dled2*%
X173034314Y-118240800D02*
X170197954Y-118240800D01*
%TO.N,D6*%
X185031065Y-118750000D02*
X185783824Y-119502759D01*
X177580800Y-119000000D02*
X182715075Y-119000000D01*
%TO.N,SPI_MOSI*%
X183840380Y-110840380D02*
X185359620Y-110840380D01*
%TO.N,Dled2*%
X182549389Y-118600000D02*
X173393514Y-118600000D01*
%TO.N,BAR_SCL*%
X184354510Y-119150000D02*
X184978135Y-119773625D01*
X183130761Y-119150000D02*
X184354510Y-119150000D01*
%TO.N,Dled2*%
X182799389Y-118350000D02*
X182549389Y-118600000D01*
%TO.N,D6*%
X182965075Y-118750000D02*
X185031065Y-118750000D01*
%TO.N,Dled2*%
X168696291Y-119742463D02*
X168040000Y-119742463D01*
%TO.N,D6*%
X182715075Y-119000000D02*
X182965075Y-118750000D01*
%TO.N,Dled2*%
X186409200Y-118350000D02*
X182799389Y-118350000D01*
%TO.N,BAR_SCL*%
X182000000Y-120280761D02*
X183130761Y-119150000D01*
X182000000Y-121200000D02*
X182000000Y-120280761D01*
%TO.N,Dled2*%
X173393514Y-118600000D02*
X173034314Y-118240800D01*
X187400000Y-119340800D02*
X186409200Y-118350000D01*
%TO.N,I2C1_SCL*%
X183300000Y-119900000D02*
X183400000Y-119800000D01*
%TO.N,Dled2*%
X170197954Y-118240800D02*
X168696291Y-119742463D01*
%TO.N,D6*%
X172160000Y-124420800D02*
X177580800Y-119000000D01*
%TO.N,I2C1_SDA*%
X195200000Y-108300000D02*
X195200000Y-107000000D01*
%TO.N,Analog_Voltage*%
X187852854Y-109180800D02*
X194703903Y-102329751D01*
%TO.N,Analog_Current*%
X187400000Y-106640800D02*
X189639960Y-106640800D01*
%TO.N,D7*%
X188550000Y-124930761D02*
X187959961Y-125520800D01*
%TO.N,Analog_Current*%
X189639960Y-106640800D02*
X194294481Y-101986279D01*
%TO.N,PWM9*%
X191091881Y-129831881D02*
X183606598Y-129831881D01*
%TO.N,D6*%
X199857000Y-116010000D02*
X197797760Y-118069240D01*
%TO.N,D7*%
X173400000Y-125720800D02*
X172160000Y-126960800D01*
%TO.N,D5*%
X195850000Y-106730761D02*
X195519239Y-106400000D01*
%TO.N,Analog_Voltage*%
X194703903Y-102329751D02*
X194870250Y-102329751D01*
%TO.N,PWM9*%
X183606598Y-129831881D02*
X183487219Y-129951260D01*
%TO.N,I2C1_SDA*%
X189365380Y-118105331D02*
X192450000Y-115020711D01*
%TO.N,UART_RX1*%
X188965380Y-118203859D02*
X188965380Y-120468935D01*
%TO.N,UART_TX1*%
X190860000Y-107800000D02*
X188565380Y-110094620D01*
%TO.N,I2C1_SDA*%
X192450000Y-115020711D02*
X192450000Y-111050000D01*
%TO.N,Analog_Current*%
X194294481Y-101986279D02*
X194294481Y-101753982D01*
%TO.N,PWM9*%
X183487219Y-129951260D02*
X182948741Y-129951260D01*
%TO.N,D6*%
X197797760Y-118069240D02*
X190250000Y-118069240D01*
%TO.N,UART_TX1*%
X188565380Y-118369544D02*
X188565380Y-120303248D01*
%TO.N,SPI_SCK*%
X190201042Y-114997683D02*
X190877415Y-115674056D01*
%TO.N,Net-(J1-Pin_19)*%
X165470000Y-129850000D02*
X173437968Y-129850000D01*
%TO.N,UART_RX1*%
X188965380Y-120468935D02*
X188800000Y-120634314D01*
%TO.N,I2C1_SDA*%
X189365380Y-123434620D02*
X189365380Y-118105331D01*
%TO.N,D7*%
X181480761Y-122400000D02*
X174815256Y-122400000D01*
X174815256Y-122400000D02*
X173400000Y-123815256D01*
X190069239Y-124350000D02*
X188930761Y-124350000D01*
X199857000Y-123630000D02*
X198487000Y-125000000D01*
%TO.N,Net-(J1-Pin_19)*%
X175519239Y-128400000D02*
X182935356Y-128400000D01*
%TO.N,I2C1_SDA*%
X192450000Y-111050000D02*
X195200000Y-108300000D01*
%TO.N,Net-(J1-Pin_19)*%
X174130758Y-129250001D02*
X174669238Y-129250001D01*
%TO.N,UART_RX1*%
X188800000Y-120634314D02*
X188800000Y-123020800D01*
%TO.N,D7*%
X186720800Y-125520800D02*
X184650000Y-123450000D01*
%TO.N,PWM8*%
X196980000Y-128100000D02*
X184154595Y-128100000D01*
%TO.N,I2C1_SDA*%
X183300000Y-125400000D02*
X183300000Y-126300000D01*
%TO.N,Net-(J1-Pin_19)*%
X174669238Y-129250001D02*
X175519239Y-128400000D01*
%TO.N,UART_RX1*%
X188800000Y-123020800D02*
X187400000Y-124420800D01*
%TO.N,D7*%
X184650000Y-123450000D02*
X182530761Y-123450000D01*
%TO.N,Net-(J1-Pin_19)*%
X183885356Y-127450000D02*
X184550000Y-127450000D01*
X184550000Y-127450000D02*
X185800000Y-126200000D01*
%TO.N,I2C1_SDA*%
X189200000Y-126400000D02*
X189200000Y-125000000D01*
%TO.N,D7*%
X188930761Y-124350000D02*
X188550000Y-124730761D01*
%TO.N,Net-(J1-Pin_19)*%
X173837968Y-129450000D02*
X173930759Y-129450000D01*
%TO.N,PWM8*%
X199880000Y-131000000D02*
X196980000Y-128100000D01*
%TO.N,PWM9*%
X182183192Y-129185711D02*
X181500981Y-129185711D01*
%TO.N,UART_TX1*%
X188465380Y-117399695D02*
X188465380Y-118269545D01*
%TO.N,D7*%
X190719239Y-125000000D02*
X190069239Y-124350000D01*
%TO.N,UART_TX1*%
X188565380Y-117299695D02*
X188465380Y-117399695D01*
%TO.N,Net-(J1-Pin_19)*%
X182935356Y-128400000D02*
X183885356Y-127450000D01*
%TO.N,PWM9*%
X182948741Y-129951260D02*
X182183192Y-129185711D01*
%TO.N,I2C1_SDA*%
X189200000Y-123600000D02*
X189365380Y-123434620D01*
%TO.N,D7*%
X187959961Y-125520800D02*
X186720800Y-125520800D01*
%TO.N,UART_TX1*%
X188565380Y-120303248D02*
X187400000Y-121468628D01*
X188565380Y-110094620D02*
X188565380Y-117299695D01*
%TO.N,UART_RX1*%
X188865380Y-117565381D02*
X188865380Y-118103859D01*
X188965380Y-112115381D02*
X188965380Y-117465381D01*
X188965380Y-117465381D02*
X188865380Y-117565381D01*
%TO.N,Net-(J1-Pin_19)*%
X173437968Y-129850000D02*
X173837968Y-129450000D01*
%TO.N,SPI_SCK*%
X190201042Y-112034235D02*
X190201042Y-114997683D01*
%TO.N,D7*%
X188550000Y-124730761D02*
X188550000Y-124930761D01*
X182530761Y-123450000D02*
X181480761Y-122400000D01*
%TO.N,SPI_SCK*%
X190307056Y-111928221D02*
X190201042Y-112034235D01*
%TO.N,SPI_CS1*%
X199857000Y-110172075D02*
X195484925Y-105800000D01*
%TO.N,D5*%
X199857000Y-113470000D02*
X195850000Y-109463000D01*
%TO.N,PWM9*%
X192260000Y-131000000D02*
X191091881Y-129831881D01*
%TO.N,D7*%
X173400000Y-123815256D02*
X173400000Y-125720800D01*
%TO.N,D5*%
X195519239Y-106400000D02*
X194400000Y-106400000D01*
%TO.N,UART_TX1*%
X188465380Y-118269545D02*
X188565380Y-118369544D01*
%TO.N,D5*%
X195850000Y-109463000D02*
X195850000Y-106730761D01*
%TO.N,SPI_CS1*%
X199857000Y-110930000D02*
X199857000Y-110172075D01*
%TO.N,Net-(J1-Pin_19)*%
X173930759Y-129450000D02*
X174130758Y-129250001D01*
%TO.N,D7*%
X198487000Y-125000000D02*
X190719239Y-125000000D01*
%TO.N,UART_RX1*%
X188865380Y-118103859D02*
X188965380Y-118203859D01*
X193280761Y-107800000D02*
X188965380Y-112115381D01*
%TO.N,Net-(J1-Pin_19)*%
X164320000Y-131000000D02*
X165470000Y-129850000D01*
%TO.N,I2C1_SDA*%
X183300000Y-126300000D02*
X183000000Y-126600000D01*
%TO.N,SPI_CS1*%
X195484925Y-105800000D02*
X193000000Y-105800000D01*
%TO.N,UART_TX2*%
X174800000Y-126600000D02*
X174800000Y-126000000D01*
X174800000Y-126000000D02*
X175400000Y-125400000D01*
%TO.N,Dswitch1*%
X169468628Y-128200001D02*
X171715074Y-128200001D01*
%TO.N,Dswitch2*%
X156700000Y-131000000D02*
X157500000Y-130200000D01*
X158331372Y-130200000D02*
X159081372Y-129450000D01*
X172930761Y-128350000D02*
X174049154Y-128350000D01*
%TO.N,Dswitch1*%
X158165686Y-129800000D02*
X158965686Y-129000000D01*
%TO.N,+3.3V*%
X175400000Y-123815256D02*
X174047603Y-125167653D01*
%TO.N,Dswitch2*%
X171930761Y-128550000D02*
X172730761Y-128550000D01*
X172730761Y-128550000D02*
X172930761Y-128350000D01*
%TO.N,+3.3V*%
X174047603Y-125167653D02*
X174047603Y-127142576D01*
%TO.N,Dswitch2*%
X159081372Y-129450000D02*
X168784315Y-129450000D01*
%TO.N,Dswitch1*%
X173108774Y-127599721D02*
X173330998Y-127599721D01*
X151620000Y-131000000D02*
X152820000Y-129800000D01*
%TO.N,Dswitch2*%
X168784315Y-129450000D02*
X169634315Y-128600000D01*
X174049154Y-128350000D02*
X174585549Y-127813605D01*
%TO.N,UART_TX2*%
X173909296Y-121090096D02*
X173909296Y-121394907D01*
%TO.N,Dswitch1*%
X168668629Y-129000000D02*
X169468628Y-128200001D01*
%TO.N,UART_TX2*%
X172160000Y-119340800D02*
X173909296Y-121090096D01*
%TO.N,Dswitch1*%
X171765075Y-128150000D02*
X172558495Y-128150000D01*
X152820000Y-129800000D02*
X158165686Y-129800000D01*
%TO.N,Dswitch2*%
X157500000Y-130200000D02*
X158331372Y-130200000D01*
%TO.N,Dswitch1*%
X172558495Y-128150000D02*
X173108774Y-127599721D01*
%TO.N,Dswitch2*%
X169634315Y-128600000D02*
X171880761Y-128600000D01*
%TO.N,Dswitch1*%
X158965686Y-129000000D02*
X168668629Y-129000000D01*
X171715074Y-128200001D02*
X171765075Y-128150000D01*
%TO.N,Dswitch2*%
X171880761Y-128600000D02*
X171930761Y-128550000D01*
%TO.N,UART_RX2*%
X177800000Y-121400000D02*
X180200000Y-121400000D01*
%TO.N,Dled1*%
X166651786Y-120211438D02*
X160750000Y-120211438D01*
X171704365Y-115700800D02*
X169190380Y-118214785D01*
X172900800Y-115700800D02*
X171704365Y-115700800D01*
X169190380Y-118319239D02*
X168417156Y-119092463D01*
X169190380Y-118214785D02*
X169190380Y-118319239D01*
X187400000Y-116800800D02*
X178079961Y-116800800D01*
X177280761Y-117600000D02*
X174800000Y-117600000D01*
X174800000Y-117600000D02*
X172900800Y-115700800D01*
%TO.N,UART_RX2*%
X172160000Y-116800800D02*
X173359200Y-118000000D01*
%TO.N,Dswitch2*%
X172160000Y-114260800D02*
X173661936Y-115762736D01*
%TO.N,Dled1*%
X168417156Y-119092463D02*
X167770761Y-119092463D01*
%TO.N,Dswitch2*%
X173661936Y-115762736D02*
X174290484Y-115762736D01*
%TO.N,Dled1*%
X178079961Y-116800800D02*
X177280761Y-117600000D01*
%TO.N,UART_RX2*%
X173359200Y-118000000D02*
X177800000Y-118000000D01*
%TO.N,Dled1*%
X167770761Y-119092463D02*
X166651786Y-120211438D01*
%TO.N,Dleak*%
X178800000Y-123290547D02*
X179509453Y-124000000D01*
X179509453Y-124000000D02*
X184634314Y-124000000D01*
%TO.N,BAR_SDA*%
X185200000Y-122800000D02*
X182800000Y-122800000D01*
%TO.N,Dleak*%
X184634314Y-124000000D02*
X187400000Y-126765686D01*
%TO.N,BAR_SDA*%
X185600000Y-123200000D02*
X185200000Y-122800000D01*
%TO.N,I2C2_SDA*%
X170500000Y-91158127D02*
X170500000Y-91696605D01*
%TO.N,I2C1_SDA*%
X161800000Y-99200000D02*
X168800430Y-99200000D01*
%TO.N,I2C1_SCL*%
X168274785Y-98100000D02*
X168647703Y-98472918D01*
%TO.N,I2C1_SDA*%
X169297703Y-97787462D02*
X169485165Y-97600000D01*
%TO.N,I2C1_SCL*%
X164365685Y-99600000D02*
X168966116Y-99600000D01*
X168966116Y-99600000D02*
X169947703Y-98618413D01*
%TO.N,I2C2_SCL*%
X147550000Y-97470000D02*
X148290700Y-96729300D01*
%TO.N,I2C1_SCL*%
X170966116Y-97600000D02*
X169947703Y-98618413D01*
X168000000Y-98100000D02*
X168274785Y-98100000D01*
%TO.N,I2C2_SCL*%
X148290700Y-96729300D02*
X157985775Y-96729300D01*
%TO.N,I2C2_SDA*%
X160451787Y-94616841D02*
X153596393Y-94616841D01*
%TO.N,Dint*%
X150880700Y-97129300D02*
X158550000Y-97129300D01*
%TO.N,I2C1_SCL*%
X178600000Y-97600000D02*
X170966116Y-97600000D01*
%TO.N,PWM7*%
X169000000Y-107800000D02*
X170800000Y-109600000D01*
%TO.N,Dint*%
X162345587Y-94151471D02*
X169530059Y-94151471D01*
%TO.N,Ab_s*%
X149231079Y-94189300D02*
X160313642Y-94189300D01*
%TO.N,I2C2_SCL*%
X170899999Y-91862291D02*
X170981530Y-91862291D01*
%TO.N,Dint*%
X158930761Y-96350000D02*
X160147058Y-96350000D01*
%TO.N,I2C2_SDA*%
X170500000Y-91696605D02*
X170119239Y-92077366D01*
X171357327Y-90300800D02*
X170500000Y-91158127D01*
%TO.N,I2C1_SDA*%
X169297703Y-98702727D02*
X169297703Y-97787462D01*
%TO.N,Dint*%
X158550000Y-97129300D02*
X158550000Y-96730761D01*
%TO.N,I2C2_SDA*%
X167938320Y-91827366D02*
X166414215Y-93351471D01*
%TO.N,I2C2_SCL*%
X162179901Y-93751471D02*
X169010819Y-93751471D01*
X158765075Y-95950000D02*
X159981372Y-95950000D01*
X157985775Y-96729300D02*
X158765075Y-95950000D01*
%TO.N,Dint*%
X149790000Y-98220000D02*
X150880700Y-97129300D01*
%TO.N,I2C2_SDA*%
X186300000Y-90300800D02*
X171357327Y-90300800D01*
X187400000Y-91400800D02*
X186300000Y-90300800D01*
%TO.N,I2C1_SCL*%
X163850963Y-100114722D02*
X164365685Y-99600000D01*
%TO.N,Dint*%
X158550000Y-96730761D02*
X158930761Y-96350000D01*
%TO.N,I2C2_SCL*%
X170981530Y-91862291D02*
X171869239Y-92750000D01*
X169010819Y-93751471D02*
X170899999Y-91862291D01*
X179115685Y-92750000D02*
X180165685Y-93800000D01*
%TO.N,I2C1_SCL*%
X161580202Y-100114722D02*
X163850963Y-100114722D01*
%TO.N,Ab_s*%
X161551471Y-92951471D02*
X166248529Y-92951471D01*
%TO.N,I2C2_SCL*%
X171869239Y-92750000D02*
X179115685Y-92750000D01*
%TO.N,Ab_s*%
X160313642Y-94189300D02*
X161551471Y-92951471D01*
%TO.N,I2C2_SDA*%
X169112065Y-92077366D02*
X168862065Y-91827366D01*
%TO.N,Ab_s*%
X143050000Y-95030000D02*
X148390379Y-95030000D01*
X142200000Y-94180000D02*
X143050000Y-95030000D01*
%TO.N,I2C2_SDA*%
X170119239Y-92077366D02*
X169112065Y-92077366D01*
%TO.N,I2C2_SCL*%
X147000000Y-97470000D02*
X147550000Y-97470000D01*
%TO.N,I2C1_SDA*%
X168800430Y-99200000D02*
X169297703Y-98702727D01*
%TO.N,I2C2_SCL*%
X159981372Y-95950000D02*
X162179901Y-93751471D01*
%TO.N,I2C2_SDA*%
X153596393Y-94616841D02*
X153403044Y-94810190D01*
%TO.N,I2C2_SCL*%
X180165685Y-93800000D02*
X187259200Y-93800000D01*
%TO.N,I2C2_SDA*%
X168862065Y-91827366D02*
X167938320Y-91827366D01*
%TO.N,Ab_s*%
X166248529Y-92951471D02*
X167772634Y-91427366D01*
%TO.N,PWM7*%
X170800000Y-109600000D02*
X170800000Y-115800000D01*
%TO.N,Dint*%
X169530059Y-94151471D02*
X170940765Y-92740765D01*
X160147058Y-96350000D02*
X162345587Y-94151471D01*
%TO.N,I2C2_SDA*%
X166414215Y-93351471D02*
X161717157Y-93351471D01*
%TO.N,Ab_s*%
X167772634Y-91427366D02*
X169850000Y-91427366D01*
%TO.N,I2C2_SDA*%
X161717157Y-93351471D02*
X160451787Y-94616841D01*
%TO.N,Ab_s*%
X148390379Y-95030000D02*
X149231079Y-94189300D01*
%TO.N,PWM7*%
X170800000Y-115800000D02*
X168600000Y-118000000D01*
%TO.N,SPI_MISO*%
X189365380Y-112634620D02*
X189600000Y-112400000D01*
X189600000Y-115400000D02*
X189365380Y-115165380D01*
X189365380Y-115165380D02*
X189365380Y-112634620D01*
X183839200Y-101560800D02*
X172160000Y-101560800D01*
X185400000Y-101400000D02*
X184000000Y-101400000D01*
X184000000Y-101400000D02*
X183839200Y-101560800D01*
%TO.N,Net-(J1-Pin_21)*%
X184600000Y-125400000D02*
X184600000Y-126155000D01*
X184600000Y-126155000D02*
X182755000Y-128000000D01*
X175353553Y-128000000D02*
X174503551Y-128850002D01*
X174503551Y-128850002D02*
X173549998Y-128850002D01*
X182755000Y-128000000D02*
X175353553Y-128000000D01*
X170200000Y-129000000D02*
X170000000Y-129200000D01*
X173549998Y-128850002D02*
X173400000Y-129000000D01*
X173400000Y-129000000D02*
X170200000Y-129000000D01*
%TO.N,xD7*%
X170600000Y-119000000D02*
X170600000Y-127132037D01*
%TO.N,UART_TX3*%
X174096445Y-129850000D02*
X174296443Y-129650002D01*
X177699960Y-129450000D02*
X177847161Y-129302799D01*
%TO.N,xD7*%
X170600000Y-127132037D02*
X170985688Y-127517725D01*
%TO.N,UART_TX3*%
X174834925Y-129650000D02*
X175034924Y-129450000D01*
X174296443Y-129650002D02*
X174834925Y-129650000D01*
X175034924Y-129450000D02*
X177699960Y-129450000D01*
X172853654Y-131000000D02*
X174003654Y-129850000D01*
X174003654Y-129850000D02*
X174096445Y-129850000D01*
X171940000Y-131000000D02*
X172853654Y-131000000D01*
%TO.N,UART_RX3*%
X177642984Y-129996638D02*
X178088294Y-129996638D01*
X175097056Y-131000000D02*
X176247056Y-129850000D01*
%TO.N,UART_TX2*%
X179560000Y-129276233D02*
X179478418Y-129194651D01*
%TO.N,UART_RX3*%
X178088294Y-129996638D02*
X178469055Y-129615877D01*
X178633702Y-129391256D02*
X178633702Y-129100000D01*
X177496346Y-129850000D02*
X177642984Y-129996638D01*
%TO.N,UART_TX2*%
X179560000Y-131000000D02*
X179560000Y-129276233D01*
%TO.N,UART_RX3*%
X176247056Y-129850000D02*
X177496346Y-129850000D01*
X178469055Y-129555903D02*
X178633702Y-129391256D01*
X178469055Y-129615877D02*
X178469055Y-129555903D01*
%TO.N,+3.3V*%
X174607262Y-123400000D02*
X174670879Y-123463617D01*
X174607261Y-123400000D02*
X174607262Y-123400000D01*
X175400000Y-123400000D02*
X174607261Y-123400000D01*
X177600000Y-123400000D02*
X174607261Y-123400000D01*
%TO.N,SPI_CS1*%
X189859631Y-105540800D02*
X190360000Y-105040431D01*
X174859200Y-105540800D02*
X189859631Y-105540800D01*
X174800000Y-105600000D02*
X174859200Y-105540800D01*
%TO.N,SPI_MOSI*%
X182000000Y-99000000D02*
X181800000Y-99000000D01*
X181800000Y-99000000D02*
X181779200Y-99020800D01*
X181779200Y-99020800D02*
X172160000Y-99020800D01*
%TO.N,SPI_CS1*%
X174719200Y-96480800D02*
X172160000Y-96480800D01*
X174800000Y-96400000D02*
X174719200Y-96480800D01*
%TO.N,GND*%
X193400000Y-90079784D02*
X193350000Y-90029784D01*
%TO.N,I2C2_SCL*%
X187400000Y-93940800D02*
X189003534Y-95544334D01*
%TO.N,I2C1_SDA*%
X196861784Y-88779784D02*
X193350000Y-88779784D01*
%TO.N,I2C2_SCL*%
X189003534Y-95544334D02*
X194150000Y-95544334D01*
%TO.N,I2C2_SDA*%
X191276227Y-94719683D02*
X194150000Y-94719683D01*
%TO.N,I2C1_SCL*%
X192164894Y-89429784D02*
X192112732Y-89481946D01*
%TO.N,I2C1_SDA*%
X193268984Y-88860800D02*
X193350000Y-88779784D01*
%TO.N,I2C2_SDA*%
X190400000Y-93800000D02*
X190400000Y-93843456D01*
X190400000Y-93843456D02*
X191276227Y-94719683D01*
%TO.N,I2C1_SCL*%
X199882000Y-94340000D02*
X194971784Y-89429784D01*
%TO.N,I2C1_SDA*%
X199882000Y-91800000D02*
X196861784Y-88779784D01*
%TO.N,GND*%
X193400000Y-90540328D02*
X193400000Y-90079784D01*
%TO.N,I2C1_SDA*%
X191339200Y-88860800D02*
X193268984Y-88860800D01*
%TO.N,I2C1_SCL*%
X194971784Y-89429784D02*
X192164894Y-89429784D01*
%TO.N,I2C2_SDA*%
X190400000Y-93800000D02*
X189799200Y-93800000D01*
X189799200Y-93800000D02*
X187400000Y-91400800D01*
%TO.N,Dleak*%
X175800000Y-111800000D02*
X175800000Y-115800000D01*
X175200000Y-111200000D02*
X175800000Y-111800000D01*
%TO.N,UART_TX2*%
X176300000Y-124500000D02*
X178770054Y-124500000D01*
X178770054Y-124500000D02*
X178985712Y-124715658D01*
%TO.N,Dleak*%
X175800000Y-115800000D02*
X176600000Y-116600000D01*
%TO.N,UART_TX2*%
X175400000Y-125400000D02*
X176300000Y-124500000D01*
%TO.N,D3.3v_GE*%
X170942043Y-107140380D02*
X167859620Y-107140380D01*
X171542463Y-107740800D02*
X170942043Y-107140380D01*
X187400000Y-111720800D02*
X183420000Y-107740800D01*
X183420000Y-107740800D02*
X171542463Y-107740800D01*
%TO.N,Dleak*%
X157355000Y-109000000D02*
X159637734Y-106717266D01*
X159637734Y-106717266D02*
X166517266Y-106717266D01*
X166517266Y-106717266D02*
X168400000Y-108600000D01*
%TO.N,xD4*%
X143080000Y-106000000D02*
X155200000Y-106000000D01*
X142200000Y-106880000D02*
X143080000Y-106000000D01*
%TO.N,xD3*%
X145020000Y-106600000D02*
X155800000Y-106600000D01*
X142200000Y-109420000D02*
X145020000Y-106600000D01*
%TO.N,+3.3V*%
X145450000Y-109200000D02*
X145450000Y-107650000D01*
X145450000Y-107650000D02*
X145400000Y-107600000D01*
%TO.N,xD0*%
X147800000Y-117200000D02*
X151400431Y-113599569D01*
X151400431Y-113599569D02*
X156518809Y-113599569D01*
%TO.N,xD1*%
X157350000Y-115250000D02*
X154999729Y-115250000D01*
X159400000Y-113200000D02*
X157350000Y-115250000D01*
%TO.N,I2C1_SDA*%
X145450000Y-112612501D02*
X145948650Y-112113851D01*
X145450000Y-113425000D02*
X145450000Y-112612501D01*
X145948650Y-112113851D02*
X146603424Y-112113851D01*
%TO.N,A3*%
X149115686Y-114250000D02*
X149469239Y-114250000D01*
%TO.N,A4*%
X149434925Y-114650000D02*
X149634925Y-114650000D01*
%TO.N,I2C1_SCL*%
X146100000Y-114237499D02*
X146400001Y-114537500D01*
%TO.N,A4*%
X150250000Y-113834925D02*
X152484925Y-111600000D01*
%TO.N,A3*%
X149469239Y-114250000D02*
X149850000Y-113869239D01*
X148428186Y-114937500D02*
X149115686Y-114250000D01*
%TO.N,A4*%
X143600000Y-120600000D02*
X143600000Y-120484925D01*
X149634925Y-114650000D02*
X150250000Y-114034925D01*
%TO.N,A3*%
X148087894Y-114937500D02*
X148428186Y-114937500D01*
%TO.N,I2C1_SCL*%
X146400001Y-114537500D02*
X148262500Y-114537500D01*
%TO.N,A3*%
X149850000Y-113669239D02*
X153316943Y-110202296D01*
X149850000Y-113869239D02*
X149850000Y-113669239D01*
%TO.N,A4*%
X143600000Y-120484925D02*
X149434925Y-114650000D01*
%TO.N,A3*%
X142884917Y-120140477D02*
X148087894Y-114937500D01*
%TO.N,A4*%
X159615907Y-111600000D02*
X161541802Y-109674105D01*
%TO.N,A3*%
X153316943Y-110202296D02*
X159976645Y-110202296D01*
%TO.N,I2C1_SCL*%
X148262500Y-114537500D02*
X149200000Y-113600000D01*
X146100000Y-113425000D02*
X146100000Y-114237499D01*
%TO.N,A4*%
X150250000Y-114034925D02*
X150250000Y-113834925D01*
%TO.N,A3*%
X159976645Y-110202296D02*
X160719300Y-109459641D01*
%TO.N,A4*%
X152484925Y-111600000D02*
X159615907Y-111600000D01*
%TO.N,GND*%
X147400000Y-113425000D02*
X147400000Y-109200000D01*
X146100000Y-109200000D02*
X146300000Y-109000000D01*
X146300000Y-109000000D02*
X152275000Y-109000000D01*
X146750000Y-109200000D02*
X146950000Y-109000000D01*
X146950000Y-109000000D02*
X152275000Y-109000000D01*
%TO.N,+3.3V*%
X166000000Y-100600000D02*
X167400000Y-102000000D01*
X167400000Y-102000000D02*
X167400000Y-102400000D01*
%TO.N,Net-(U3-CSB)*%
X168000000Y-96800000D02*
X167787128Y-96800000D01*
X167787128Y-96800000D02*
X167200000Y-97387128D01*
X167200000Y-97387128D02*
X167200000Y-98600000D01*
%TO.N,I2C1_SDA*%
X169335165Y-97450000D02*
X169485165Y-97600000D01*
X168000000Y-97450000D02*
X169335165Y-97450000D01*
X169485165Y-97600000D02*
X171885165Y-95200000D01*
X171885165Y-95200000D02*
X177600000Y-95200000D01*
%TO.N,+3.3V*%
X166060000Y-97450000D02*
X165815000Y-97450000D01*
X165815000Y-97450000D02*
X164565000Y-96200000D01*
X164565000Y-96200000D02*
X163400000Y-96200000D01*
%TO.N,Net-(U3-SDO)*%
X163400000Y-98200000D02*
X165960000Y-98200000D01*
%TO.N,+3.3V*%
X163400000Y-96200000D02*
X163400000Y-95400000D01*
X163400000Y-95400000D02*
X163000000Y-95000000D01*
X166060000Y-96150000D02*
X163450000Y-96150000D01*
%TO.N,GND*%
X166922872Y-96150000D02*
X166922872Y-95477128D01*
X166922872Y-95477128D02*
X167400000Y-95000000D01*
X168000000Y-96150000D02*
X166922872Y-96150000D01*
X166922872Y-96150000D02*
X166272872Y-96800000D01*
X166272872Y-96800000D02*
X166060000Y-96800000D01*
%TO.N,xD6*%
X162404164Y-86200000D02*
X162004165Y-86200000D01*
%TO.N,Dkill_out*%
X161930761Y-89250000D02*
X166504358Y-89250000D01*
%TO.N,Ai_s*%
X161765075Y-89650000D02*
X167302591Y-89650000D01*
%TO.N,I2C1_SDA*%
X155034925Y-86550000D02*
X155084924Y-86600000D01*
%TO.N,D3.3v_GE*%
X152330761Y-86950000D02*
X154869239Y-86950000D01*
X145108539Y-87010700D02*
X152270061Y-87010700D01*
%TO.N,I2C1_SDA*%
X161884925Y-86600000D02*
X162233643Y-86948718D01*
%TO.N,I2C1_SCL*%
X152600000Y-87600000D02*
X154600000Y-87600000D01*
X161600000Y-87800000D02*
X162400000Y-88600000D01*
%TO.N,xD6*%
X161324165Y-85520000D02*
X157410000Y-85520000D01*
%TO.N,Dkill_out*%
X166504358Y-89250000D02*
X166818834Y-88935524D01*
%TO.N,xD6*%
X162004165Y-86200000D02*
X161324165Y-85520000D01*
%TO.N,D3.3v_GE*%
X154929939Y-87010700D02*
X161376386Y-87010700D01*
%TO.N,xD6*%
X177800000Y-87400000D02*
X177779200Y-87420800D01*
%TO.N,D3.3v_GE*%
X161376386Y-87010700D02*
X162315686Y-87950000D01*
%TO.N,Ai_s*%
X142200000Y-91640000D02*
X144289300Y-89550700D01*
%TO.N,D3.3v_GE*%
X143050000Y-87410000D02*
X144709239Y-87410000D01*
X144709239Y-87410000D02*
X145108539Y-87010700D01*
%TO.N,I2C1_SCL*%
X159400000Y-87800000D02*
X161600000Y-87800000D01*
%TO.N,D3.3v_GE*%
X166750000Y-87950000D02*
X168200000Y-89400000D01*
%TO.N,I2C1_SDA*%
X144600000Y-86600000D02*
X152115075Y-86600000D01*
%TO.N,D3.3v_GE*%
X152270061Y-87010700D02*
X152330761Y-86950000D01*
X142200000Y-86560000D02*
X143050000Y-87410000D01*
%TO.N,Ai_s*%
X161665776Y-89550700D02*
X161765075Y-89650000D01*
%TO.N,Dkill_out*%
X161790061Y-89109300D02*
X161930761Y-89250000D01*
%TO.N,D3.3v_GE*%
X162315686Y-87950000D02*
X166750000Y-87950000D01*
%TO.N,Ai_s*%
X144289300Y-89550700D02*
X161665776Y-89550700D01*
%TO.N,Dkill_out*%
X142209300Y-89109300D02*
X161790061Y-89109300D01*
%TO.N,xD6*%
X177779200Y-87420800D02*
X163624964Y-87420800D01*
%TO.N,I2C1_SDA*%
X155084924Y-86600000D02*
X161884925Y-86600000D01*
X152115075Y-86600000D02*
X152165075Y-86550000D01*
%TO.N,xD6*%
X163624964Y-87420800D02*
X162404164Y-86200000D01*
%TO.N,D3.3v_GE*%
X154869239Y-86950000D02*
X154929939Y-87010700D01*
%TO.N,Ai_s*%
X167302591Y-89650000D02*
X167369869Y-89582722D01*
%TO.N,I2C1_SDA*%
X152165075Y-86550000D02*
X155034925Y-86550000D01*
%TO.N,Dkill_out*%
X168219960Y-102660800D02*
X166908135Y-103972625D01*
%TO.N,PWM6*%
X171818286Y-85979086D02*
X169529891Y-85979086D01*
%TO.N,Dkill_out*%
X182860800Y-102660800D02*
X168219960Y-102660800D01*
X183000000Y-102800000D02*
X182860800Y-102660800D01*
X183000000Y-111400000D02*
X184539200Y-111400000D01*
X184539200Y-111400000D02*
X187400000Y-114260800D01*
%TO.N,Ab_s*%
X187400000Y-78700800D02*
X178149200Y-78700800D01*
X178149200Y-78700800D02*
X178050000Y-78800000D01*
%TO.N,Ai_s*%
X177400000Y-76800000D02*
X186760800Y-76800000D01*
X186760800Y-76800000D02*
X187400000Y-76160800D01*
%TO.N,Ab_s*%
X174200000Y-89600000D02*
X176600000Y-89600000D01*
%TO.N,I2C2_SDA*%
X149369224Y-94616841D02*
X153209695Y-94616841D01*
X147000000Y-96600000D02*
X147386065Y-96600000D01*
X153209695Y-94616841D02*
X153403044Y-94810190D01*
X147386065Y-96600000D02*
X149369224Y-94616841D01*
%TO.N,xD5*%
X154600000Y-104200000D02*
X153800000Y-104200000D01*
X153800000Y-104200000D02*
X153660000Y-104340000D01*
X153660000Y-104340000D02*
X142200000Y-104340000D01*
%TO.N,xD2*%
X152600000Y-112400000D02*
X152400000Y-112600000D01*
%TO.N,xD1*%
X158370000Y-98220000D02*
X158550000Y-98400000D01*
%TO.N,xD2*%
X159200000Y-97000000D02*
X159200000Y-99600000D01*
%TO.N,xD1*%
X157410000Y-98220000D02*
X158370000Y-98220000D01*
%TO.N,xD2*%
X158800000Y-112400000D02*
X152600000Y-112400000D01*
X159200000Y-99600000D02*
X159000000Y-99800000D01*
%TO.N,I2C1_SCL*%
X156140000Y-116575000D02*
X156944239Y-116575000D01*
X156944239Y-116575000D02*
X162191802Y-111327437D01*
X162191802Y-107405034D02*
X162104034Y-107317266D01*
X162191802Y-111327437D02*
X162191802Y-107405034D01*
%TO.N,PWM9*%
X172819200Y-94600000D02*
X180190380Y-94600000D01*
%TO.N,Dint*%
X175200000Y-93400000D02*
X176000000Y-94200000D01*
%TO.N,PWM9*%
X172160000Y-93940800D02*
X172819200Y-94600000D01*
X180190380Y-94600000D02*
X180440380Y-94850000D01*
%TO.N,Dint*%
X176000000Y-94200000D02*
X185400000Y-94200000D01*
X185400000Y-94200000D02*
X185400000Y-94480800D01*
X185400000Y-94480800D02*
X187400000Y-96480800D01*
D36*
%TO.N,+3.3V*%
X142200000Y-76400000D02*
X143639200Y-74960800D01*
X174010800Y-76040000D02*
X184980800Y-76040000D01*
X143639200Y-74960800D02*
X172931600Y-74960800D01*
X172931600Y-74960800D02*
X174010800Y-76040000D01*
X184980800Y-76040000D02*
X187400000Y-73620800D01*
%TO.N,+5V*%
X143800000Y-84200000D02*
X142730000Y-85270000D01*
X141230000Y-85270000D02*
X141100000Y-85400000D01*
X142730000Y-85270000D02*
X141230000Y-85270000D01*
X153800000Y-84200000D02*
X143800000Y-84200000D01*
D35*
X145600000Y-99140000D02*
X145600000Y-96600000D01*
X145600000Y-96600000D02*
X142320000Y-96600000D01*
%TO.N,Net-(JP3-C)*%
X146200000Y-92700000D02*
X149350000Y-92700000D01*
%TO.N,GND*%
X146200000Y-91400000D02*
X148990000Y-91400000D01*
X148990000Y-91400000D02*
X149790000Y-90600000D01*
%TO.N,Net-(JP3-A)*%
X147000000Y-99140000D02*
X147940000Y-99140000D01*
X147940000Y-99140000D02*
X148000000Y-99200000D01*
%TO.N,Dint*%
X147000000Y-98270000D02*
X149740000Y-98270000D01*
%TO.N,I2C2_SDA*%
X147462500Y-82800000D02*
X149610000Y-82800000D01*
%TO.N,I2C2_SCL*%
X147462500Y-80290000D02*
X149640000Y-80290000D01*
%TO.N,GND*%
X145737500Y-82800000D02*
X145737500Y-80290000D01*
X145737500Y-80290000D02*
X144800000Y-79352500D01*
X144800000Y-79352500D02*
X144800000Y-79000000D01*
X144800000Y-79000000D02*
X144740000Y-78940000D01*
X144740000Y-78940000D02*
X142200000Y-78940000D01*
D36*
X162075000Y-80400000D02*
X162075000Y-78525000D01*
X162075000Y-78525000D02*
X162400000Y-78200000D01*
%TO.N,+5V*%
X157410000Y-80440000D02*
X159960000Y-80440000D01*
D35*
%TO.N,I2C1_SCL*%
X185361103Y-88359697D02*
X177640457Y-88359697D01*
%TO.N,PWM8*%
X178641099Y-91400800D02*
X180376338Y-93136039D01*
%TO.N,A4*%
X162000000Y-85200000D02*
X173855165Y-85200000D01*
%TO.N,I2C1_SCL*%
X187400000Y-86320800D02*
X185361103Y-88359697D01*
%TO.N,A4*%
X178180761Y-86100000D02*
X178530761Y-85750000D01*
%TO.N,PWM8*%
X172160000Y-91400800D02*
X178641099Y-91400800D01*
%TO.N,xD6*%
X178680000Y-113120000D02*
X179200000Y-112600000D01*
%TO.N,A4*%
X185430800Y-85750000D02*
X187400000Y-83780800D01*
%TO.N,xD6*%
X178680000Y-115280000D02*
X178680000Y-113120000D01*
%TO.N,I2C1_SDA*%
X187053733Y-89207067D02*
X177573617Y-89207067D01*
%TO.N,A4*%
X174755165Y-86100000D02*
X178180761Y-86100000D01*
X173855165Y-85200000D02*
X174755165Y-86100000D01*
%TO.N,xD6*%
X179600000Y-116200000D02*
X178680000Y-115280000D01*
%TO.N,A4*%
X178530761Y-85750000D02*
X185430800Y-85750000D01*
%TO.N,UART_RX2*%
X180859620Y-129859620D02*
X180859620Y-129740380D01*
X182000000Y-131000000D02*
X180859620Y-129859620D01*
%TO.N,xD7*%
X160000000Y-83200000D02*
X159400000Y-83200000D01*
X159180000Y-82980000D02*
X157410000Y-82980000D01*
X159400000Y-83200000D02*
X159180000Y-82980000D01*
%TO.N,I2C1_SDA*%
X158680000Y-116575000D02*
X162950000Y-112305000D01*
X162950000Y-112305000D02*
X162950000Y-107400000D01*
%TO.N,I2C1_SCL*%
X166860000Y-133540000D02*
X165710000Y-134690000D01*
X165710000Y-134690000D02*
X157850000Y-134690000D01*
X157850000Y-134690000D02*
X156700000Y-133540000D01*
%TO.N,PWM3*%
X165654774Y-118200000D02*
X161234314Y-118200000D01*
X160484314Y-118950000D02*
X156796530Y-118950000D01*
X156796530Y-118950000D02*
X156350000Y-119396530D01*
X161234314Y-118200000D02*
X160484314Y-118950000D01*
X168600000Y-115254774D02*
X165654774Y-118200000D01*
X168600000Y-113200000D02*
X168600000Y-115254774D01*
%TO.N,A3*%
X186080000Y-82560800D02*
X187400000Y-81240800D01*
X173595165Y-82400000D02*
X174755165Y-83560000D01*
X161200000Y-82400000D02*
X173595165Y-82400000D01*
X174755165Y-83560000D02*
X179440000Y-83560000D01*
X179440000Y-83560000D02*
X180439200Y-82560800D01*
X180439200Y-82560800D02*
X186080000Y-82560800D01*
%TO.N,PWM6*%
X163200000Y-119600000D02*
X165951831Y-119600000D01*
X170400000Y-115151831D02*
X170400000Y-111200000D01*
X165951831Y-119600000D02*
X170400000Y-115151831D01*
X170400000Y-111200000D02*
X169800000Y-110600000D01*
%TO.N,PWM5*%
X165986145Y-119000000D02*
X169600000Y-115386145D01*
X169800000Y-113400000D02*
X169800000Y-111600000D01*
X161400000Y-119165686D02*
X161565686Y-119000000D01*
X169600000Y-115386145D02*
X169600000Y-113600000D01*
X161400000Y-119600000D02*
X161400000Y-119165686D01*
X161565686Y-119000000D02*
X165986145Y-119000000D01*
X169000000Y-83800000D02*
X169019200Y-83780800D01*
X169600000Y-113600000D02*
X169800000Y-113400000D01*
X169019200Y-83780800D02*
X172160000Y-83780800D01*
%TO.N,PWM4*%
X158400000Y-119600000D02*
X160400000Y-119600000D01*
%TO.N,PWM1*%
X159987256Y-117750000D02*
X160787256Y-116950000D01*
%TO.N,PWM0*%
X160152942Y-118150000D02*
X160902942Y-117400000D01*
%TO.N,PWM1*%
X165207716Y-116950000D02*
X166626922Y-115530794D01*
X150400000Y-119600000D02*
X152250000Y-117750000D01*
%TO.N,PWM0*%
X167276922Y-115446480D02*
X167276922Y-114446835D01*
X155130761Y-118150000D02*
X160152942Y-118150000D01*
%TO.N,PWM2*%
X168000000Y-115289088D02*
X168000000Y-114000000D01*
%TO.N,PWM0*%
X165323402Y-117400000D02*
X167276922Y-115446480D01*
X160902942Y-117400000D02*
X165323402Y-117400000D01*
%TO.N,PWM2*%
X155650000Y-118550000D02*
X160318628Y-118550000D01*
%TO.N,PWM1*%
X160787256Y-116950000D02*
X165207716Y-116950000D01*
%TO.N,PWM4*%
X169359200Y-81240800D02*
X172160000Y-81240800D01*
X165820460Y-118600000D02*
X169200000Y-115220460D01*
%TO.N,PWM1*%
X166626922Y-115530794D02*
X166626922Y-115109336D01*
X152250000Y-117750000D02*
X159987256Y-117750000D01*
%TO.N,PWM4*%
X169200000Y-115220460D02*
X169200000Y-112600000D01*
X161400000Y-118600000D02*
X165820460Y-118600000D01*
%TO.N,PWM0*%
X153030761Y-120250000D02*
X155130761Y-118150000D01*
%TO.N,PWM2*%
X161068628Y-117800000D02*
X165489088Y-117800000D01*
X165489088Y-117800000D02*
X168000000Y-115289088D01*
X154200000Y-120000000D02*
X155650000Y-118550000D01*
%TO.N,PWM0*%
X147862267Y-120250000D02*
X153030761Y-120250000D01*
%TO.N,PWM4*%
X160400000Y-119600000D02*
X161400000Y-118600000D01*
%TO.N,PWM0*%
X147698731Y-120086464D02*
X147862267Y-120250000D01*
%TO.N,PWM2*%
X160318628Y-118550000D02*
X161068628Y-117800000D01*
%TO.N,PWM4*%
X169200000Y-81400000D02*
X169359200Y-81240800D01*
%TO.N,PWM3*%
X168600000Y-78800000D02*
X169200000Y-78800000D01*
X169200000Y-78800000D02*
X169299200Y-78700800D01*
X169299200Y-78700800D02*
X172160000Y-78700800D01*
%TO.N,PWM2*%
X168200000Y-76200000D02*
X168239200Y-76160800D01*
X168239200Y-76160800D02*
X172160000Y-76160800D01*
%TO.N,PWM1*%
X168400000Y-73600000D02*
X168420800Y-73620800D01*
X168420800Y-73620800D02*
X172160000Y-73620800D01*
%TO.N,PWM0*%
X169200000Y-71200000D02*
X169319200Y-71080800D01*
X169319200Y-71080800D02*
X172160000Y-71080800D01*
%TO.N,Dled1*%
X151400000Y-129000000D02*
X157000000Y-129000000D01*
X157000000Y-129000000D02*
X157000000Y-128400000D01*
X151000000Y-129400000D02*
X151400000Y-129000000D01*
X145600000Y-129400000D02*
X151000000Y-129400000D01*
X144000000Y-131000000D02*
X145600000Y-129400000D01*
%TO.N,UART_RX2*%
X180200000Y-125400000D02*
X177600000Y-125400000D01*
%TO.N,UART_TX3*%
X175600000Y-106600000D02*
X175559200Y-106640800D01*
X175559200Y-106640800D02*
X172160000Y-106640800D01*
%TO.N,UART_RX3*%
X178200000Y-110200000D02*
X177180800Y-109180800D01*
X177180800Y-109180800D02*
X172160000Y-109180800D01*
D36*
%TO.N,+5V*%
X187180000Y-133540000D02*
X189157600Y-135517600D01*
X189157600Y-135517600D02*
X194237600Y-135517600D01*
X192260000Y-133540000D02*
X194237600Y-135517600D01*
X201000000Y-135517600D02*
X201132000Y-135385600D01*
X194237600Y-135517600D02*
X201000000Y-135517600D01*
X201132000Y-135385600D02*
X201132000Y-104575000D01*
X199857000Y-105850000D02*
X201132000Y-104575000D01*
X201132000Y-104575000D02*
X201132000Y-73912000D01*
X201132000Y-73912000D02*
X199800000Y-72580000D01*
D35*
%TO.N,+3.3V*%
X191400000Y-90119240D02*
X191040380Y-89759620D01*
%TO.N,I2C1_SCL*%
X192075000Y-97712500D02*
X192075000Y-99275000D01*
%TO.N,I2C1_SDA*%
X191425000Y-97712500D02*
X191292755Y-97844745D01*
%TO.N,+3.3V*%
X191400000Y-91000000D02*
X191400000Y-90119240D01*
%TO.N,I2C1_SCL*%
X192075000Y-99275000D02*
X192200000Y-99400000D01*
%TO.N,I2C1_SDA*%
X191292755Y-97844745D02*
X191292755Y-99671496D01*
%TO.N,I2C1_SCL*%
X189000000Y-86800000D02*
X187879200Y-86800000D01*
X191050000Y-86800000D02*
X189000000Y-86800000D01*
X190400000Y-88200000D02*
X189000000Y-86800000D01*
%TO.N,GND*%
X193375000Y-97712500D02*
X193375000Y-99375000D01*
X193375000Y-99375000D02*
X193600000Y-99600000D01*
X193375000Y-93487500D02*
X193375000Y-91025000D01*
X192725000Y-93487500D02*
X193375000Y-93487500D01*
%TO.N,+3.3V*%
X191425000Y-93487500D02*
X192075000Y-93487500D01*
X191400000Y-91000000D02*
X191400000Y-93462500D01*
%TO.N,I2C1_SDA*%
X193400000Y-86800000D02*
X191339200Y-88860800D01*
X191339200Y-88860800D02*
X187400000Y-88860800D01*
%TO.N,+3.3V*%
X193400000Y-84800000D02*
X193400000Y-83600000D01*
X193400000Y-83600000D02*
X192200000Y-82400000D01*
X191050000Y-84800000D02*
X191050000Y-83550000D01*
X191050000Y-83550000D02*
X192200000Y-82400000D01*
D36*
%TO.N,+5V*%
X199800000Y-75120000D02*
X199800000Y-72580000D01*
X193860000Y-64860000D02*
X191540000Y-64860000D01*
X191540000Y-64860000D02*
X190400000Y-66000000D01*
X190400000Y-66000000D02*
X190400000Y-68362500D01*
%TO.N,GND*%
X187400000Y-71080800D02*
X189756700Y-71080800D01*
X189756700Y-71080800D02*
X190400000Y-70437500D01*
%TO.N,+5V*%
X190400000Y-68362500D02*
X187578300Y-68362500D01*
X190400000Y-68362500D02*
X194617500Y-72580000D01*
X194617500Y-72580000D02*
X199800000Y-72580000D01*
D35*
%TO.N,Dled2*%
X149080000Y-131000000D02*
X149965686Y-131000000D01*
X149965686Y-131000000D02*
X151565686Y-129400000D01*
X151565686Y-129400000D02*
X157565685Y-129400000D01*
X158565685Y-128400000D02*
X166200000Y-128400000D01*
X157565685Y-129400000D02*
X158565685Y-128400000D01*
%TD*%
M02*
