%TF.GenerationSoftware,KiCad,Pcbnew,7.0.2-0*%
%TF.CreationDate,2024-05-03T02:11:51-07:00*%
%TF.ProjectId,EE156_2_Layer,45453135-365f-4325-9f4c-617965722e6b,rev?*%
%TF.SameCoordinates,Original*%
%TF.FileFunction,Drillmap*%
%TF.FilePolarity,Positive*%
%FSLAX45Y45*%
G04 Gerber Fmt 4.5, Leading zero omitted, Abs format (unit mm)*
G04 Created by KiCad (PCBNEW 7.0.2-0) date 2024-05-03 02:11:51*
%MOMM*%
%LPD*%
G01*
G04 APERTURE LIST*
%ADD10C,0.100000*%
%ADD11C,0.200000*%
%ADD12C,0.040000*%
%ADD13C,0.080000*%
%ADD14C,0.120000*%
%ADD15C,0.160000*%
G04 APERTURE END LIST*
D10*
X20280000Y-13360000D02*
X32280000Y-13360000D01*
X32280000Y-19360000D01*
X20280000Y-19360000D01*
X20280000Y-13360000D01*
D11*
D12*
X22710000Y-14070000D02*
X22750000Y-14110000D01*
X22750000Y-14070000D02*
X22710000Y-14110000D01*
X22810000Y-14310000D02*
X22850000Y-14350000D01*
X22850000Y-14310000D02*
X22810000Y-14350000D01*
X22880000Y-14220000D02*
X22920000Y-14260000D01*
X22920000Y-14220000D02*
X22880000Y-14260000D01*
X22950000Y-14140000D02*
X22990000Y-14180000D01*
X22990000Y-14140000D02*
X22950000Y-14180000D01*
X23010000Y-14060000D02*
X23050000Y-14100000D01*
X23050000Y-14060000D02*
X23010000Y-14100000D01*
X23170000Y-14060000D02*
X23210000Y-14100000D01*
X23210000Y-14060000D02*
X23170000Y-14100000D01*
X23210000Y-14668778D02*
X23250000Y-14708778D01*
X23250000Y-14668778D02*
X23210000Y-14708778D01*
X23530000Y-14450000D02*
X23570000Y-14490000D01*
X23570000Y-14450000D02*
X23530000Y-14490000D01*
X23530000Y-14560000D02*
X23570000Y-14600000D01*
X23570000Y-14560000D02*
X23530000Y-14600000D01*
X23650000Y-14010000D02*
X23690000Y-14050000D01*
X23690000Y-14010000D02*
X23650000Y-14050000D01*
X23660000Y-13870000D02*
X23700000Y-13910000D01*
X23700000Y-13870000D02*
X23660000Y-13910000D01*
X23710000Y-14250000D02*
X23750000Y-14290000D01*
X23750000Y-14250000D02*
X23710000Y-14290000D01*
X23780000Y-14140000D02*
X23820000Y-14180000D01*
X23820000Y-14140000D02*
X23780000Y-14180000D01*
X23850000Y-13870000D02*
X23890000Y-13910000D01*
X23890000Y-13870000D02*
X23850000Y-13910000D01*
X23860000Y-14250000D02*
X23900000Y-14290000D01*
X23900000Y-14250000D02*
X23860000Y-14290000D01*
X24250000Y-13850000D02*
X24290000Y-13890000D01*
X24290000Y-13850000D02*
X24250000Y-13890000D01*
X24270000Y-14600000D02*
X24310000Y-14640000D01*
X24310000Y-14600000D02*
X24270000Y-14640000D01*
X24360000Y-13750000D02*
X24400000Y-13790000D01*
X24400000Y-13750000D02*
X24360000Y-13790000D01*
X24760000Y-13800000D02*
X24800000Y-13840000D01*
X24800000Y-13800000D02*
X24760000Y-13840000D01*
X24760000Y-14200000D02*
X24800000Y-14240000D01*
X24800000Y-14200000D02*
X24760000Y-14240000D01*
X24890000Y-14300000D02*
X24930000Y-14340000D01*
X24930000Y-14300000D02*
X24890000Y-14340000D01*
X25040000Y-13980000D02*
X25080000Y-14020000D01*
X25080000Y-13980000D02*
X25040000Y-14020000D01*
X25040000Y-14140000D02*
X25080000Y-14180000D01*
X25080000Y-14140000D02*
X25040000Y-14180000D01*
X25210000Y-14300000D02*
X25250000Y-14340000D01*
X25250000Y-14300000D02*
X25210000Y-14340000D01*
X25400000Y-14300000D02*
X25440000Y-14340000D01*
X25440000Y-14300000D02*
X25400000Y-14340000D01*
X25600000Y-14850000D02*
X25640000Y-14890000D01*
X25640000Y-14850000D02*
X25600000Y-14890000D01*
X25610000Y-14170000D02*
X25650000Y-14210000D01*
X25650000Y-14170000D02*
X25610000Y-14210000D01*
D13*
X20780000Y-17610000D02*
G75*
G03*
X20780000Y-17610000I-40000J0D01*
G01*
X24760000Y-17500000D02*
G75*
G03*
X24760000Y-17500000I-40000J0D01*
G01*
X26870000Y-17510000D02*
G75*
G03*
X26870000Y-17510000I-40000J0D01*
G01*
X28890000Y-17520000D02*
G75*
G03*
X28890000Y-17520000I-40000J0D01*
G01*
X29770000Y-15180000D02*
G75*
G03*
X29770000Y-15180000I-40000J0D01*
G01*
X29770000Y-15660000D02*
G75*
G03*
X29770000Y-15660000I-40000J0D01*
G01*
X29850000Y-16730000D02*
G75*
G03*
X29850000Y-16730000I-40000J0D01*
G01*
X29850000Y-17330000D02*
G75*
G03*
X29850000Y-17330000I-40000J0D01*
G01*
X30120000Y-16080000D02*
G75*
G03*
X30120000Y-16080000I-40000J0D01*
G01*
X30220000Y-15570000D02*
G75*
G03*
X30220000Y-15570000I-40000J0D01*
G01*
X31850000Y-17330000D02*
G75*
G03*
X31850000Y-17330000I-40000J0D01*
G01*
X31850000Y-17590000D02*
G75*
G03*
X31850000Y-17590000I-40000J0D01*
G01*
X31850000Y-17840000D02*
G75*
G03*
X31850000Y-17840000I-40000J0D01*
G01*
X32090000Y-19170000D02*
G75*
G03*
X32090000Y-19170000I-40000J0D01*
G01*
D10*
X23310000Y-13510000D02*
X23310000Y-13610000D01*
X23260000Y-13560000D02*
X23360000Y-13560000D01*
X23564000Y-13510000D02*
X23564000Y-13610000D01*
X23514000Y-13560000D02*
X23614000Y-13560000D01*
X23818000Y-13510000D02*
X23818000Y-13610000D01*
X23768000Y-13560000D02*
X23868000Y-13560000D01*
X24072000Y-13510000D02*
X24072000Y-13610000D01*
X24022000Y-13560000D02*
X24122000Y-13560000D01*
D14*
X20630677Y-14682427D02*
X20630677Y-14597573D01*
X20545823Y-14597573D01*
X20545823Y-14682427D01*
X20630677Y-14682427D01*
X20630677Y-15182427D02*
X20630677Y-15097573D01*
X20545823Y-15097573D01*
X20545823Y-15182427D01*
X20630677Y-15182427D01*
X20630677Y-15922427D02*
X20630677Y-15837573D01*
X20545823Y-15837573D01*
X20545823Y-15922427D01*
X20630677Y-15922427D01*
X20630677Y-16422427D02*
X20630677Y-16337573D01*
X20545823Y-16337573D01*
X20545823Y-16422427D01*
X20630677Y-16422427D01*
X21620677Y-14682427D02*
X21620677Y-14597573D01*
X21535823Y-14597573D01*
X21535823Y-14682427D01*
X21620677Y-14682427D01*
X21620677Y-15182427D02*
X21620677Y-15097573D01*
X21535823Y-15097573D01*
X21535823Y-15182427D01*
X21620677Y-15182427D01*
X21620677Y-15922427D02*
X21620677Y-15837573D01*
X21535823Y-15837573D01*
X21535823Y-15922427D01*
X21620677Y-15922427D01*
X21620677Y-16422427D02*
X21620677Y-16337573D01*
X21535823Y-16337573D01*
X21535823Y-16422427D01*
X21620677Y-16422427D01*
X21782427Y-18104177D02*
X21782427Y-18019323D01*
X21697573Y-18019323D01*
X21697573Y-18104177D01*
X21782427Y-18104177D01*
X21782427Y-19094177D02*
X21782427Y-19009323D01*
X21697573Y-19009323D01*
X21697573Y-19094177D01*
X21782427Y-19094177D01*
X22282427Y-18104177D02*
X22282427Y-18019323D01*
X22197573Y-18019323D01*
X22197573Y-18104177D01*
X22282427Y-18104177D01*
X22282427Y-19094177D02*
X22282427Y-19009323D01*
X22197573Y-19009323D01*
X22197573Y-19094177D01*
X22282427Y-19094177D01*
X23017427Y-18104177D02*
X23017427Y-18019323D01*
X22932573Y-18019323D01*
X22932573Y-18104177D01*
X23017427Y-18104177D01*
X23017427Y-19094177D02*
X23017427Y-19009323D01*
X22932573Y-19009323D01*
X22932573Y-19094177D01*
X23017427Y-19094177D01*
X23517427Y-18104177D02*
X23517427Y-18019323D01*
X23432573Y-18019323D01*
X23432573Y-18104177D01*
X23517427Y-18104177D01*
X23517427Y-19094177D02*
X23517427Y-19009323D01*
X23432573Y-19009323D01*
X23432573Y-19094177D01*
X23517427Y-19094177D01*
X24252427Y-18104177D02*
X24252427Y-18019323D01*
X24167573Y-18019323D01*
X24167573Y-18104177D01*
X24252427Y-18104177D01*
X24252427Y-19094177D02*
X24252427Y-19009323D01*
X24167573Y-19009323D01*
X24167573Y-19094177D01*
X24252427Y-19094177D01*
X24752427Y-18104177D02*
X24752427Y-18019323D01*
X24667573Y-18019323D01*
X24667573Y-18104177D01*
X24752427Y-18104177D01*
X24752427Y-19094177D02*
X24752427Y-19009323D01*
X24667573Y-19009323D01*
X24667573Y-19094177D01*
X24752427Y-19094177D01*
X25487427Y-18104177D02*
X25487427Y-18019323D01*
X25402573Y-18019323D01*
X25402573Y-18104177D01*
X25487427Y-18104177D01*
X25487427Y-19094177D02*
X25487427Y-19009323D01*
X25402573Y-19009323D01*
X25402573Y-19094177D01*
X25487427Y-19094177D01*
X25987427Y-18104177D02*
X25987427Y-18019323D01*
X25902573Y-18019323D01*
X25902573Y-18104177D01*
X25987427Y-18104177D01*
X25987427Y-19094177D02*
X25987427Y-19009323D01*
X25902573Y-19009323D01*
X25902573Y-19094177D01*
X25987427Y-19094177D01*
X26722427Y-18104177D02*
X26722427Y-18019323D01*
X26637573Y-18019323D01*
X26637573Y-18104177D01*
X26722427Y-18104177D01*
X26722427Y-19094177D02*
X26722427Y-19009323D01*
X26637573Y-19009323D01*
X26637573Y-19094177D01*
X26722427Y-19094177D01*
X27222427Y-18104177D02*
X27222427Y-18019323D01*
X27137573Y-18019323D01*
X27137573Y-18104177D01*
X27222427Y-18104177D01*
X27222427Y-19094177D02*
X27222427Y-19009323D01*
X27137573Y-19009323D01*
X27137573Y-19094177D01*
X27222427Y-19094177D01*
X27932427Y-18104177D02*
X27932427Y-18019323D01*
X27847573Y-18019323D01*
X27847573Y-18104177D01*
X27932427Y-18104177D01*
X27932427Y-19094177D02*
X27932427Y-19009323D01*
X27847573Y-19009323D01*
X27847573Y-19094177D01*
X27932427Y-19094177D01*
X28432427Y-18104177D02*
X28432427Y-18019323D01*
X28347573Y-18019323D01*
X28347573Y-18104177D01*
X28432427Y-18104177D01*
X28432427Y-19094177D02*
X28432427Y-19009323D01*
X28347573Y-19009323D01*
X28347573Y-19094177D01*
X28432427Y-19094177D01*
X29167427Y-18104177D02*
X29167427Y-18019323D01*
X29082573Y-18019323D01*
X29082573Y-18104177D01*
X29167427Y-18104177D01*
X29167427Y-19094177D02*
X29167427Y-19009323D01*
X29082573Y-19009323D01*
X29082573Y-19094177D01*
X29167427Y-19094177D01*
X29667427Y-18104177D02*
X29667427Y-18019323D01*
X29582573Y-18019323D01*
X29582573Y-18104177D01*
X29667427Y-18104177D01*
X29667427Y-19094177D02*
X29667427Y-19009323D01*
X29582573Y-19009323D01*
X29582573Y-19094177D01*
X29667427Y-19094177D01*
X30402427Y-18104177D02*
X30402427Y-18019323D01*
X30317573Y-18019323D01*
X30317573Y-18104177D01*
X30402427Y-18104177D01*
X30402427Y-19094177D02*
X30402427Y-19009323D01*
X30317573Y-19009323D01*
X30317573Y-19094177D01*
X30402427Y-19094177D01*
X30902427Y-18104177D02*
X30902427Y-18019323D01*
X30817573Y-18019323D01*
X30817573Y-18104177D01*
X30902427Y-18104177D01*
X30902427Y-19094177D02*
X30902427Y-19009323D01*
X30817573Y-19009323D01*
X30817573Y-19094177D01*
X30902427Y-19094177D01*
D15*
X21930000Y-15220000D02*
X22010000Y-15140000D01*
X21930000Y-15060000D01*
X21850000Y-15140000D01*
X21930000Y-15220000D01*
X21930000Y-15490000D02*
X22010000Y-15410000D01*
X21930000Y-15330000D01*
X21850000Y-15410000D01*
X21930000Y-15490000D01*
X21930000Y-15760000D02*
X22010000Y-15680000D01*
X21930000Y-15600000D01*
X21850000Y-15680000D01*
X21930000Y-15760000D01*
X21930000Y-16110000D02*
X22010000Y-16030000D01*
X21930000Y-15950000D01*
X21850000Y-16030000D01*
X21930000Y-16110000D01*
X21930000Y-16380000D02*
X22010000Y-16300000D01*
X21930000Y-16220000D01*
X21850000Y-16300000D01*
X21930000Y-16380000D01*
X21930000Y-16660000D02*
X22010000Y-16580000D01*
X21930000Y-16500000D01*
X21850000Y-16580000D01*
X21930000Y-16660000D01*
X24030000Y-15250000D02*
X24110000Y-15170000D01*
X24030000Y-15090000D01*
X23950000Y-15170000D01*
X24030000Y-15250000D01*
X24030000Y-15510000D02*
X24110000Y-15430000D01*
X24030000Y-15350000D01*
X23950000Y-15430000D01*
X24030000Y-15510000D01*
X24030000Y-15760000D02*
X24110000Y-15680000D01*
X24030000Y-15600000D01*
X23950000Y-15680000D01*
X24030000Y-15760000D01*
X24030000Y-16150000D02*
X24110000Y-16070000D01*
X24030000Y-15990000D01*
X23950000Y-16070000D01*
X24030000Y-16150000D01*
X24030000Y-16410000D02*
X24110000Y-16330000D01*
X24030000Y-16250000D01*
X23950000Y-16330000D01*
X24030000Y-16410000D01*
X24030000Y-16660000D02*
X24110000Y-16580000D01*
X24030000Y-16500000D01*
X23950000Y-16580000D01*
X24030000Y-16660000D01*
X28660000Y-15240000D02*
X28740000Y-15160000D01*
X28660000Y-15080000D01*
X28580000Y-15160000D01*
X28660000Y-15240000D01*
X28660000Y-15500000D02*
X28740000Y-15420000D01*
X28660000Y-15340000D01*
X28580000Y-15420000D01*
X28660000Y-15500000D01*
X28660000Y-15750000D02*
X28740000Y-15670000D01*
X28660000Y-15590000D01*
X28580000Y-15670000D01*
X28660000Y-15750000D01*
X28660000Y-16140000D02*
X28740000Y-16060000D01*
X28660000Y-15980000D01*
X28580000Y-16060000D01*
X28660000Y-16140000D01*
X28660000Y-16400000D02*
X28740000Y-16320000D01*
X28660000Y-16240000D01*
X28580000Y-16320000D01*
X28660000Y-16400000D01*
X28660000Y-16650000D02*
X28740000Y-16570000D01*
X28660000Y-16490000D01*
X28580000Y-16570000D01*
X28660000Y-16650000D01*
D11*
X20522619Y-19677524D02*
X20522619Y-19477524D01*
X20522619Y-19477524D02*
X20570238Y-19477524D01*
X20570238Y-19477524D02*
X20598810Y-19487048D01*
X20598810Y-19487048D02*
X20617857Y-19506095D01*
X20617857Y-19506095D02*
X20627381Y-19525143D01*
X20627381Y-19525143D02*
X20636905Y-19563238D01*
X20636905Y-19563238D02*
X20636905Y-19591810D01*
X20636905Y-19591810D02*
X20627381Y-19629905D01*
X20627381Y-19629905D02*
X20617857Y-19648952D01*
X20617857Y-19648952D02*
X20598810Y-19668000D01*
X20598810Y-19668000D02*
X20570238Y-19677524D01*
X20570238Y-19677524D02*
X20522619Y-19677524D01*
X20722619Y-19677524D02*
X20722619Y-19544190D01*
X20722619Y-19582286D02*
X20732143Y-19563238D01*
X20732143Y-19563238D02*
X20741667Y-19553714D01*
X20741667Y-19553714D02*
X20760714Y-19544190D01*
X20760714Y-19544190D02*
X20779762Y-19544190D01*
X20846429Y-19677524D02*
X20846429Y-19544190D01*
X20846429Y-19477524D02*
X20836905Y-19487048D01*
X20836905Y-19487048D02*
X20846429Y-19496571D01*
X20846429Y-19496571D02*
X20855952Y-19487048D01*
X20855952Y-19487048D02*
X20846429Y-19477524D01*
X20846429Y-19477524D02*
X20846429Y-19496571D01*
X20970238Y-19677524D02*
X20951190Y-19668000D01*
X20951190Y-19668000D02*
X20941667Y-19648952D01*
X20941667Y-19648952D02*
X20941667Y-19477524D01*
X21075000Y-19677524D02*
X21055952Y-19668000D01*
X21055952Y-19668000D02*
X21046429Y-19648952D01*
X21046429Y-19648952D02*
X21046429Y-19477524D01*
X21303571Y-19677524D02*
X21303571Y-19477524D01*
X21303571Y-19477524D02*
X21370238Y-19620381D01*
X21370238Y-19620381D02*
X21436905Y-19477524D01*
X21436905Y-19477524D02*
X21436905Y-19677524D01*
X21617857Y-19677524D02*
X21617857Y-19572762D01*
X21617857Y-19572762D02*
X21608333Y-19553714D01*
X21608333Y-19553714D02*
X21589286Y-19544190D01*
X21589286Y-19544190D02*
X21551190Y-19544190D01*
X21551190Y-19544190D02*
X21532143Y-19553714D01*
X21617857Y-19668000D02*
X21598810Y-19677524D01*
X21598810Y-19677524D02*
X21551190Y-19677524D01*
X21551190Y-19677524D02*
X21532143Y-19668000D01*
X21532143Y-19668000D02*
X21522619Y-19648952D01*
X21522619Y-19648952D02*
X21522619Y-19629905D01*
X21522619Y-19629905D02*
X21532143Y-19610857D01*
X21532143Y-19610857D02*
X21551190Y-19601333D01*
X21551190Y-19601333D02*
X21598810Y-19601333D01*
X21598810Y-19601333D02*
X21617857Y-19591810D01*
X21713095Y-19544190D02*
X21713095Y-19744190D01*
X21713095Y-19553714D02*
X21732143Y-19544190D01*
X21732143Y-19544190D02*
X21770238Y-19544190D01*
X21770238Y-19544190D02*
X21789286Y-19553714D01*
X21789286Y-19553714D02*
X21798810Y-19563238D01*
X21798810Y-19563238D02*
X21808333Y-19582286D01*
X21808333Y-19582286D02*
X21808333Y-19639429D01*
X21808333Y-19639429D02*
X21798810Y-19658476D01*
X21798810Y-19658476D02*
X21789286Y-19668000D01*
X21789286Y-19668000D02*
X21770238Y-19677524D01*
X21770238Y-19677524D02*
X21732143Y-19677524D01*
X21732143Y-19677524D02*
X21713095Y-19668000D01*
X21894048Y-19658476D02*
X21903571Y-19668000D01*
X21903571Y-19668000D02*
X21894048Y-19677524D01*
X21894048Y-19677524D02*
X21884524Y-19668000D01*
X21884524Y-19668000D02*
X21894048Y-19658476D01*
X21894048Y-19658476D02*
X21894048Y-19677524D01*
X21894048Y-19553714D02*
X21903571Y-19563238D01*
X21903571Y-19563238D02*
X21894048Y-19572762D01*
X21894048Y-19572762D02*
X21884524Y-19563238D01*
X21884524Y-19563238D02*
X21894048Y-19553714D01*
X21894048Y-19553714D02*
X21894048Y-19572762D01*
D12*
X20235000Y-19985000D02*
X20275000Y-20025000D01*
X20275000Y-19985000D02*
X20235000Y-20025000D01*
D11*
X20560714Y-19897524D02*
X20579762Y-19897524D01*
X20579762Y-19897524D02*
X20598810Y-19907048D01*
X20598810Y-19907048D02*
X20608333Y-19916571D01*
X20608333Y-19916571D02*
X20617857Y-19935619D01*
X20617857Y-19935619D02*
X20627381Y-19973714D01*
X20627381Y-19973714D02*
X20627381Y-20021333D01*
X20627381Y-20021333D02*
X20617857Y-20059429D01*
X20617857Y-20059429D02*
X20608333Y-20078476D01*
X20608333Y-20078476D02*
X20598810Y-20088000D01*
X20598810Y-20088000D02*
X20579762Y-20097524D01*
X20579762Y-20097524D02*
X20560714Y-20097524D01*
X20560714Y-20097524D02*
X20541667Y-20088000D01*
X20541667Y-20088000D02*
X20532143Y-20078476D01*
X20532143Y-20078476D02*
X20522619Y-20059429D01*
X20522619Y-20059429D02*
X20513095Y-20021333D01*
X20513095Y-20021333D02*
X20513095Y-19973714D01*
X20513095Y-19973714D02*
X20522619Y-19935619D01*
X20522619Y-19935619D02*
X20532143Y-19916571D01*
X20532143Y-19916571D02*
X20541667Y-19907048D01*
X20541667Y-19907048D02*
X20560714Y-19897524D01*
X20713095Y-20078476D02*
X20722619Y-20088000D01*
X20722619Y-20088000D02*
X20713095Y-20097524D01*
X20713095Y-20097524D02*
X20703571Y-20088000D01*
X20703571Y-20088000D02*
X20713095Y-20078476D01*
X20713095Y-20078476D02*
X20713095Y-20097524D01*
X20894048Y-19964190D02*
X20894048Y-20097524D01*
X20846429Y-19888000D02*
X20798810Y-20030857D01*
X20798810Y-20030857D02*
X20922619Y-20030857D01*
X21036905Y-19897524D02*
X21055952Y-19897524D01*
X21055952Y-19897524D02*
X21075000Y-19907048D01*
X21075000Y-19907048D02*
X21084524Y-19916571D01*
X21084524Y-19916571D02*
X21094048Y-19935619D01*
X21094048Y-19935619D02*
X21103571Y-19973714D01*
X21103571Y-19973714D02*
X21103571Y-20021333D01*
X21103571Y-20021333D02*
X21094048Y-20059429D01*
X21094048Y-20059429D02*
X21084524Y-20078476D01*
X21084524Y-20078476D02*
X21075000Y-20088000D01*
X21075000Y-20088000D02*
X21055952Y-20097524D01*
X21055952Y-20097524D02*
X21036905Y-20097524D01*
X21036905Y-20097524D02*
X21017857Y-20088000D01*
X21017857Y-20088000D02*
X21008333Y-20078476D01*
X21008333Y-20078476D02*
X20998810Y-20059429D01*
X20998810Y-20059429D02*
X20989286Y-20021333D01*
X20989286Y-20021333D02*
X20989286Y-19973714D01*
X20989286Y-19973714D02*
X20998810Y-19935619D01*
X20998810Y-19935619D02*
X21008333Y-19916571D01*
X21008333Y-19916571D02*
X21017857Y-19907048D01*
X21017857Y-19907048D02*
X21036905Y-19897524D01*
X21227381Y-19897524D02*
X21246429Y-19897524D01*
X21246429Y-19897524D02*
X21265476Y-19907048D01*
X21265476Y-19907048D02*
X21275000Y-19916571D01*
X21275000Y-19916571D02*
X21284524Y-19935619D01*
X21284524Y-19935619D02*
X21294048Y-19973714D01*
X21294048Y-19973714D02*
X21294048Y-20021333D01*
X21294048Y-20021333D02*
X21284524Y-20059429D01*
X21284524Y-20059429D02*
X21275000Y-20078476D01*
X21275000Y-20078476D02*
X21265476Y-20088000D01*
X21265476Y-20088000D02*
X21246429Y-20097524D01*
X21246429Y-20097524D02*
X21227381Y-20097524D01*
X21227381Y-20097524D02*
X21208333Y-20088000D01*
X21208333Y-20088000D02*
X21198810Y-20078476D01*
X21198810Y-20078476D02*
X21189286Y-20059429D01*
X21189286Y-20059429D02*
X21179762Y-20021333D01*
X21179762Y-20021333D02*
X21179762Y-19973714D01*
X21179762Y-19973714D02*
X21189286Y-19935619D01*
X21189286Y-19935619D02*
X21198810Y-19916571D01*
X21198810Y-19916571D02*
X21208333Y-19907048D01*
X21208333Y-19907048D02*
X21227381Y-19897524D01*
X21379762Y-20097524D02*
X21379762Y-19964190D01*
X21379762Y-19983238D02*
X21389286Y-19973714D01*
X21389286Y-19973714D02*
X21408333Y-19964190D01*
X21408333Y-19964190D02*
X21436905Y-19964190D01*
X21436905Y-19964190D02*
X21455952Y-19973714D01*
X21455952Y-19973714D02*
X21465476Y-19992762D01*
X21465476Y-19992762D02*
X21465476Y-20097524D01*
X21465476Y-19992762D02*
X21475000Y-19973714D01*
X21475000Y-19973714D02*
X21494048Y-19964190D01*
X21494048Y-19964190D02*
X21522619Y-19964190D01*
X21522619Y-19964190D02*
X21541667Y-19973714D01*
X21541667Y-19973714D02*
X21551191Y-19992762D01*
X21551191Y-19992762D02*
X21551191Y-20097524D01*
X21646429Y-20097524D02*
X21646429Y-19964190D01*
X21646429Y-19983238D02*
X21655952Y-19973714D01*
X21655952Y-19973714D02*
X21675000Y-19964190D01*
X21675000Y-19964190D02*
X21703572Y-19964190D01*
X21703572Y-19964190D02*
X21722619Y-19973714D01*
X21722619Y-19973714D02*
X21732143Y-19992762D01*
X21732143Y-19992762D02*
X21732143Y-20097524D01*
X21732143Y-19992762D02*
X21741667Y-19973714D01*
X21741667Y-19973714D02*
X21760714Y-19964190D01*
X21760714Y-19964190D02*
X21789286Y-19964190D01*
X21789286Y-19964190D02*
X21808333Y-19973714D01*
X21808333Y-19973714D02*
X21817857Y-19992762D01*
X21817857Y-19992762D02*
X21817857Y-20097524D01*
X22208333Y-19888000D02*
X22036905Y-20145143D01*
X22465476Y-19897524D02*
X22484524Y-19897524D01*
X22484524Y-19897524D02*
X22503572Y-19907048D01*
X22503572Y-19907048D02*
X22513095Y-19916571D01*
X22513095Y-19916571D02*
X22522619Y-19935619D01*
X22522619Y-19935619D02*
X22532143Y-19973714D01*
X22532143Y-19973714D02*
X22532143Y-20021333D01*
X22532143Y-20021333D02*
X22522619Y-20059429D01*
X22522619Y-20059429D02*
X22513095Y-20078476D01*
X22513095Y-20078476D02*
X22503572Y-20088000D01*
X22503572Y-20088000D02*
X22484524Y-20097524D01*
X22484524Y-20097524D02*
X22465476Y-20097524D01*
X22465476Y-20097524D02*
X22446429Y-20088000D01*
X22446429Y-20088000D02*
X22436905Y-20078476D01*
X22436905Y-20078476D02*
X22427381Y-20059429D01*
X22427381Y-20059429D02*
X22417857Y-20021333D01*
X22417857Y-20021333D02*
X22417857Y-19973714D01*
X22417857Y-19973714D02*
X22427381Y-19935619D01*
X22427381Y-19935619D02*
X22436905Y-19916571D01*
X22436905Y-19916571D02*
X22446429Y-19907048D01*
X22446429Y-19907048D02*
X22465476Y-19897524D01*
X22617857Y-20078476D02*
X22627381Y-20088000D01*
X22627381Y-20088000D02*
X22617857Y-20097524D01*
X22617857Y-20097524D02*
X22608333Y-20088000D01*
X22608333Y-20088000D02*
X22617857Y-20078476D01*
X22617857Y-20078476D02*
X22617857Y-20097524D01*
X22751191Y-19897524D02*
X22770238Y-19897524D01*
X22770238Y-19897524D02*
X22789286Y-19907048D01*
X22789286Y-19907048D02*
X22798810Y-19916571D01*
X22798810Y-19916571D02*
X22808333Y-19935619D01*
X22808333Y-19935619D02*
X22817857Y-19973714D01*
X22817857Y-19973714D02*
X22817857Y-20021333D01*
X22817857Y-20021333D02*
X22808333Y-20059429D01*
X22808333Y-20059429D02*
X22798810Y-20078476D01*
X22798810Y-20078476D02*
X22789286Y-20088000D01*
X22789286Y-20088000D02*
X22770238Y-20097524D01*
X22770238Y-20097524D02*
X22751191Y-20097524D01*
X22751191Y-20097524D02*
X22732143Y-20088000D01*
X22732143Y-20088000D02*
X22722619Y-20078476D01*
X22722619Y-20078476D02*
X22713095Y-20059429D01*
X22713095Y-20059429D02*
X22703572Y-20021333D01*
X22703572Y-20021333D02*
X22703572Y-19973714D01*
X22703572Y-19973714D02*
X22713095Y-19935619D01*
X22713095Y-19935619D02*
X22722619Y-19916571D01*
X22722619Y-19916571D02*
X22732143Y-19907048D01*
X22732143Y-19907048D02*
X22751191Y-19897524D01*
X23008333Y-20097524D02*
X22894048Y-20097524D01*
X22951191Y-20097524D02*
X22951191Y-19897524D01*
X22951191Y-19897524D02*
X22932143Y-19926095D01*
X22932143Y-19926095D02*
X22913095Y-19945143D01*
X22913095Y-19945143D02*
X22894048Y-19954667D01*
X23189286Y-19897524D02*
X23094048Y-19897524D01*
X23094048Y-19897524D02*
X23084524Y-19992762D01*
X23084524Y-19992762D02*
X23094048Y-19983238D01*
X23094048Y-19983238D02*
X23113095Y-19973714D01*
X23113095Y-19973714D02*
X23160714Y-19973714D01*
X23160714Y-19973714D02*
X23179762Y-19983238D01*
X23179762Y-19983238D02*
X23189286Y-19992762D01*
X23189286Y-19992762D02*
X23198810Y-20011810D01*
X23198810Y-20011810D02*
X23198810Y-20059429D01*
X23198810Y-20059429D02*
X23189286Y-20078476D01*
X23189286Y-20078476D02*
X23179762Y-20088000D01*
X23179762Y-20088000D02*
X23160714Y-20097524D01*
X23160714Y-20097524D02*
X23113095Y-20097524D01*
X23113095Y-20097524D02*
X23094048Y-20088000D01*
X23094048Y-20088000D02*
X23084524Y-20078476D01*
X23265476Y-19897524D02*
X23398810Y-19897524D01*
X23398810Y-19897524D02*
X23313095Y-20097524D01*
X23465476Y-19897524D02*
X23465476Y-19935619D01*
X23541667Y-19897524D02*
X23541667Y-19935619D01*
X23836905Y-20173714D02*
X23827381Y-20164190D01*
X23827381Y-20164190D02*
X23808334Y-20135619D01*
X23808334Y-20135619D02*
X23798810Y-20116571D01*
X23798810Y-20116571D02*
X23789286Y-20088000D01*
X23789286Y-20088000D02*
X23779762Y-20040381D01*
X23779762Y-20040381D02*
X23779762Y-20002286D01*
X23779762Y-20002286D02*
X23789286Y-19954667D01*
X23789286Y-19954667D02*
X23798810Y-19926095D01*
X23798810Y-19926095D02*
X23808334Y-19907048D01*
X23808334Y-19907048D02*
X23827381Y-19878476D01*
X23827381Y-19878476D02*
X23836905Y-19868952D01*
X23903572Y-19916571D02*
X23913095Y-19907048D01*
X23913095Y-19907048D02*
X23932143Y-19897524D01*
X23932143Y-19897524D02*
X23979762Y-19897524D01*
X23979762Y-19897524D02*
X23998810Y-19907048D01*
X23998810Y-19907048D02*
X24008334Y-19916571D01*
X24008334Y-19916571D02*
X24017857Y-19935619D01*
X24017857Y-19935619D02*
X24017857Y-19954667D01*
X24017857Y-19954667D02*
X24008334Y-19983238D01*
X24008334Y-19983238D02*
X23894048Y-20097524D01*
X23894048Y-20097524D02*
X24017857Y-20097524D01*
X24084524Y-19897524D02*
X24217857Y-19897524D01*
X24217857Y-19897524D02*
X24132143Y-20097524D01*
X24446429Y-20097524D02*
X24446429Y-19897524D01*
X24532143Y-20097524D02*
X24532143Y-19992762D01*
X24532143Y-19992762D02*
X24522619Y-19973714D01*
X24522619Y-19973714D02*
X24503572Y-19964190D01*
X24503572Y-19964190D02*
X24475000Y-19964190D01*
X24475000Y-19964190D02*
X24455953Y-19973714D01*
X24455953Y-19973714D02*
X24446429Y-19983238D01*
X24655953Y-20097524D02*
X24636905Y-20088000D01*
X24636905Y-20088000D02*
X24627381Y-20078476D01*
X24627381Y-20078476D02*
X24617857Y-20059429D01*
X24617857Y-20059429D02*
X24617857Y-20002286D01*
X24617857Y-20002286D02*
X24627381Y-19983238D01*
X24627381Y-19983238D02*
X24636905Y-19973714D01*
X24636905Y-19973714D02*
X24655953Y-19964190D01*
X24655953Y-19964190D02*
X24684524Y-19964190D01*
X24684524Y-19964190D02*
X24703572Y-19973714D01*
X24703572Y-19973714D02*
X24713096Y-19983238D01*
X24713096Y-19983238D02*
X24722619Y-20002286D01*
X24722619Y-20002286D02*
X24722619Y-20059429D01*
X24722619Y-20059429D02*
X24713096Y-20078476D01*
X24713096Y-20078476D02*
X24703572Y-20088000D01*
X24703572Y-20088000D02*
X24684524Y-20097524D01*
X24684524Y-20097524D02*
X24655953Y-20097524D01*
X24836905Y-20097524D02*
X24817857Y-20088000D01*
X24817857Y-20088000D02*
X24808334Y-20068952D01*
X24808334Y-20068952D02*
X24808334Y-19897524D01*
X24989286Y-20088000D02*
X24970238Y-20097524D01*
X24970238Y-20097524D02*
X24932143Y-20097524D01*
X24932143Y-20097524D02*
X24913096Y-20088000D01*
X24913096Y-20088000D02*
X24903572Y-20068952D01*
X24903572Y-20068952D02*
X24903572Y-19992762D01*
X24903572Y-19992762D02*
X24913096Y-19973714D01*
X24913096Y-19973714D02*
X24932143Y-19964190D01*
X24932143Y-19964190D02*
X24970238Y-19964190D01*
X24970238Y-19964190D02*
X24989286Y-19973714D01*
X24989286Y-19973714D02*
X24998810Y-19992762D01*
X24998810Y-19992762D02*
X24998810Y-20011810D01*
X24998810Y-20011810D02*
X24903572Y-20030857D01*
X25075000Y-20088000D02*
X25094048Y-20097524D01*
X25094048Y-20097524D02*
X25132143Y-20097524D01*
X25132143Y-20097524D02*
X25151191Y-20088000D01*
X25151191Y-20088000D02*
X25160715Y-20068952D01*
X25160715Y-20068952D02*
X25160715Y-20059429D01*
X25160715Y-20059429D02*
X25151191Y-20040381D01*
X25151191Y-20040381D02*
X25132143Y-20030857D01*
X25132143Y-20030857D02*
X25103572Y-20030857D01*
X25103572Y-20030857D02*
X25084524Y-20021333D01*
X25084524Y-20021333D02*
X25075000Y-20002286D01*
X25075000Y-20002286D02*
X25075000Y-19992762D01*
X25075000Y-19992762D02*
X25084524Y-19973714D01*
X25084524Y-19973714D02*
X25103572Y-19964190D01*
X25103572Y-19964190D02*
X25132143Y-19964190D01*
X25132143Y-19964190D02*
X25151191Y-19973714D01*
X25227381Y-20173714D02*
X25236905Y-20164190D01*
X25236905Y-20164190D02*
X25255953Y-20135619D01*
X25255953Y-20135619D02*
X25265477Y-20116571D01*
X25265477Y-20116571D02*
X25275000Y-20088000D01*
X25275000Y-20088000D02*
X25284524Y-20040381D01*
X25284524Y-20040381D02*
X25284524Y-20002286D01*
X25284524Y-20002286D02*
X25275000Y-19954667D01*
X25275000Y-19954667D02*
X25265477Y-19926095D01*
X25265477Y-19926095D02*
X25255953Y-19907048D01*
X25255953Y-19907048D02*
X25236905Y-19878476D01*
X25236905Y-19878476D02*
X25227381Y-19868952D01*
D13*
X20275000Y-20269000D02*
G75*
G03*
X20275000Y-20269000I-40000J0D01*
G01*
D11*
X20560714Y-20161524D02*
X20579762Y-20161524D01*
X20579762Y-20161524D02*
X20598810Y-20171048D01*
X20598810Y-20171048D02*
X20608333Y-20180571D01*
X20608333Y-20180571D02*
X20617857Y-20199619D01*
X20617857Y-20199619D02*
X20627381Y-20237714D01*
X20627381Y-20237714D02*
X20627381Y-20285333D01*
X20627381Y-20285333D02*
X20617857Y-20323429D01*
X20617857Y-20323429D02*
X20608333Y-20342476D01*
X20608333Y-20342476D02*
X20598810Y-20352000D01*
X20598810Y-20352000D02*
X20579762Y-20361524D01*
X20579762Y-20361524D02*
X20560714Y-20361524D01*
X20560714Y-20361524D02*
X20541667Y-20352000D01*
X20541667Y-20352000D02*
X20532143Y-20342476D01*
X20532143Y-20342476D02*
X20522619Y-20323429D01*
X20522619Y-20323429D02*
X20513095Y-20285333D01*
X20513095Y-20285333D02*
X20513095Y-20237714D01*
X20513095Y-20237714D02*
X20522619Y-20199619D01*
X20522619Y-20199619D02*
X20532143Y-20180571D01*
X20532143Y-20180571D02*
X20541667Y-20171048D01*
X20541667Y-20171048D02*
X20560714Y-20161524D01*
X20713095Y-20342476D02*
X20722619Y-20352000D01*
X20722619Y-20352000D02*
X20713095Y-20361524D01*
X20713095Y-20361524D02*
X20703571Y-20352000D01*
X20703571Y-20352000D02*
X20713095Y-20342476D01*
X20713095Y-20342476D02*
X20713095Y-20361524D01*
X20836905Y-20247238D02*
X20817857Y-20237714D01*
X20817857Y-20237714D02*
X20808333Y-20228190D01*
X20808333Y-20228190D02*
X20798810Y-20209143D01*
X20798810Y-20209143D02*
X20798810Y-20199619D01*
X20798810Y-20199619D02*
X20808333Y-20180571D01*
X20808333Y-20180571D02*
X20817857Y-20171048D01*
X20817857Y-20171048D02*
X20836905Y-20161524D01*
X20836905Y-20161524D02*
X20875000Y-20161524D01*
X20875000Y-20161524D02*
X20894048Y-20171048D01*
X20894048Y-20171048D02*
X20903571Y-20180571D01*
X20903571Y-20180571D02*
X20913095Y-20199619D01*
X20913095Y-20199619D02*
X20913095Y-20209143D01*
X20913095Y-20209143D02*
X20903571Y-20228190D01*
X20903571Y-20228190D02*
X20894048Y-20237714D01*
X20894048Y-20237714D02*
X20875000Y-20247238D01*
X20875000Y-20247238D02*
X20836905Y-20247238D01*
X20836905Y-20247238D02*
X20817857Y-20256762D01*
X20817857Y-20256762D02*
X20808333Y-20266286D01*
X20808333Y-20266286D02*
X20798810Y-20285333D01*
X20798810Y-20285333D02*
X20798810Y-20323429D01*
X20798810Y-20323429D02*
X20808333Y-20342476D01*
X20808333Y-20342476D02*
X20817857Y-20352000D01*
X20817857Y-20352000D02*
X20836905Y-20361524D01*
X20836905Y-20361524D02*
X20875000Y-20361524D01*
X20875000Y-20361524D02*
X20894048Y-20352000D01*
X20894048Y-20352000D02*
X20903571Y-20342476D01*
X20903571Y-20342476D02*
X20913095Y-20323429D01*
X20913095Y-20323429D02*
X20913095Y-20285333D01*
X20913095Y-20285333D02*
X20903571Y-20266286D01*
X20903571Y-20266286D02*
X20894048Y-20256762D01*
X20894048Y-20256762D02*
X20875000Y-20247238D01*
X21036905Y-20161524D02*
X21055952Y-20161524D01*
X21055952Y-20161524D02*
X21075000Y-20171048D01*
X21075000Y-20171048D02*
X21084524Y-20180571D01*
X21084524Y-20180571D02*
X21094048Y-20199619D01*
X21094048Y-20199619D02*
X21103571Y-20237714D01*
X21103571Y-20237714D02*
X21103571Y-20285333D01*
X21103571Y-20285333D02*
X21094048Y-20323429D01*
X21094048Y-20323429D02*
X21084524Y-20342476D01*
X21084524Y-20342476D02*
X21075000Y-20352000D01*
X21075000Y-20352000D02*
X21055952Y-20361524D01*
X21055952Y-20361524D02*
X21036905Y-20361524D01*
X21036905Y-20361524D02*
X21017857Y-20352000D01*
X21017857Y-20352000D02*
X21008333Y-20342476D01*
X21008333Y-20342476D02*
X20998810Y-20323429D01*
X20998810Y-20323429D02*
X20989286Y-20285333D01*
X20989286Y-20285333D02*
X20989286Y-20237714D01*
X20989286Y-20237714D02*
X20998810Y-20199619D01*
X20998810Y-20199619D02*
X21008333Y-20180571D01*
X21008333Y-20180571D02*
X21017857Y-20171048D01*
X21017857Y-20171048D02*
X21036905Y-20161524D01*
X21227381Y-20161524D02*
X21246429Y-20161524D01*
X21246429Y-20161524D02*
X21265476Y-20171048D01*
X21265476Y-20171048D02*
X21275000Y-20180571D01*
X21275000Y-20180571D02*
X21284524Y-20199619D01*
X21284524Y-20199619D02*
X21294048Y-20237714D01*
X21294048Y-20237714D02*
X21294048Y-20285333D01*
X21294048Y-20285333D02*
X21284524Y-20323429D01*
X21284524Y-20323429D02*
X21275000Y-20342476D01*
X21275000Y-20342476D02*
X21265476Y-20352000D01*
X21265476Y-20352000D02*
X21246429Y-20361524D01*
X21246429Y-20361524D02*
X21227381Y-20361524D01*
X21227381Y-20361524D02*
X21208333Y-20352000D01*
X21208333Y-20352000D02*
X21198810Y-20342476D01*
X21198810Y-20342476D02*
X21189286Y-20323429D01*
X21189286Y-20323429D02*
X21179762Y-20285333D01*
X21179762Y-20285333D02*
X21179762Y-20237714D01*
X21179762Y-20237714D02*
X21189286Y-20199619D01*
X21189286Y-20199619D02*
X21198810Y-20180571D01*
X21198810Y-20180571D02*
X21208333Y-20171048D01*
X21208333Y-20171048D02*
X21227381Y-20161524D01*
X21379762Y-20361524D02*
X21379762Y-20228190D01*
X21379762Y-20247238D02*
X21389286Y-20237714D01*
X21389286Y-20237714D02*
X21408333Y-20228190D01*
X21408333Y-20228190D02*
X21436905Y-20228190D01*
X21436905Y-20228190D02*
X21455952Y-20237714D01*
X21455952Y-20237714D02*
X21465476Y-20256762D01*
X21465476Y-20256762D02*
X21465476Y-20361524D01*
X21465476Y-20256762D02*
X21475000Y-20237714D01*
X21475000Y-20237714D02*
X21494048Y-20228190D01*
X21494048Y-20228190D02*
X21522619Y-20228190D01*
X21522619Y-20228190D02*
X21541667Y-20237714D01*
X21541667Y-20237714D02*
X21551191Y-20256762D01*
X21551191Y-20256762D02*
X21551191Y-20361524D01*
X21646429Y-20361524D02*
X21646429Y-20228190D01*
X21646429Y-20247238D02*
X21655952Y-20237714D01*
X21655952Y-20237714D02*
X21675000Y-20228190D01*
X21675000Y-20228190D02*
X21703572Y-20228190D01*
X21703572Y-20228190D02*
X21722619Y-20237714D01*
X21722619Y-20237714D02*
X21732143Y-20256762D01*
X21732143Y-20256762D02*
X21732143Y-20361524D01*
X21732143Y-20256762D02*
X21741667Y-20237714D01*
X21741667Y-20237714D02*
X21760714Y-20228190D01*
X21760714Y-20228190D02*
X21789286Y-20228190D01*
X21789286Y-20228190D02*
X21808333Y-20237714D01*
X21808333Y-20237714D02*
X21817857Y-20256762D01*
X21817857Y-20256762D02*
X21817857Y-20361524D01*
X22208333Y-20152000D02*
X22036905Y-20409143D01*
X22465476Y-20161524D02*
X22484524Y-20161524D01*
X22484524Y-20161524D02*
X22503572Y-20171048D01*
X22503572Y-20171048D02*
X22513095Y-20180571D01*
X22513095Y-20180571D02*
X22522619Y-20199619D01*
X22522619Y-20199619D02*
X22532143Y-20237714D01*
X22532143Y-20237714D02*
X22532143Y-20285333D01*
X22532143Y-20285333D02*
X22522619Y-20323429D01*
X22522619Y-20323429D02*
X22513095Y-20342476D01*
X22513095Y-20342476D02*
X22503572Y-20352000D01*
X22503572Y-20352000D02*
X22484524Y-20361524D01*
X22484524Y-20361524D02*
X22465476Y-20361524D01*
X22465476Y-20361524D02*
X22446429Y-20352000D01*
X22446429Y-20352000D02*
X22436905Y-20342476D01*
X22436905Y-20342476D02*
X22427381Y-20323429D01*
X22427381Y-20323429D02*
X22417857Y-20285333D01*
X22417857Y-20285333D02*
X22417857Y-20237714D01*
X22417857Y-20237714D02*
X22427381Y-20199619D01*
X22427381Y-20199619D02*
X22436905Y-20180571D01*
X22436905Y-20180571D02*
X22446429Y-20171048D01*
X22446429Y-20171048D02*
X22465476Y-20161524D01*
X22617857Y-20342476D02*
X22627381Y-20352000D01*
X22627381Y-20352000D02*
X22617857Y-20361524D01*
X22617857Y-20361524D02*
X22608333Y-20352000D01*
X22608333Y-20352000D02*
X22617857Y-20342476D01*
X22617857Y-20342476D02*
X22617857Y-20361524D01*
X22751191Y-20161524D02*
X22770238Y-20161524D01*
X22770238Y-20161524D02*
X22789286Y-20171048D01*
X22789286Y-20171048D02*
X22798810Y-20180571D01*
X22798810Y-20180571D02*
X22808333Y-20199619D01*
X22808333Y-20199619D02*
X22817857Y-20237714D01*
X22817857Y-20237714D02*
X22817857Y-20285333D01*
X22817857Y-20285333D02*
X22808333Y-20323429D01*
X22808333Y-20323429D02*
X22798810Y-20342476D01*
X22798810Y-20342476D02*
X22789286Y-20352000D01*
X22789286Y-20352000D02*
X22770238Y-20361524D01*
X22770238Y-20361524D02*
X22751191Y-20361524D01*
X22751191Y-20361524D02*
X22732143Y-20352000D01*
X22732143Y-20352000D02*
X22722619Y-20342476D01*
X22722619Y-20342476D02*
X22713095Y-20323429D01*
X22713095Y-20323429D02*
X22703572Y-20285333D01*
X22703572Y-20285333D02*
X22703572Y-20237714D01*
X22703572Y-20237714D02*
X22713095Y-20199619D01*
X22713095Y-20199619D02*
X22722619Y-20180571D01*
X22722619Y-20180571D02*
X22732143Y-20171048D01*
X22732143Y-20171048D02*
X22751191Y-20161524D01*
X22884524Y-20161524D02*
X23008333Y-20161524D01*
X23008333Y-20161524D02*
X22941667Y-20237714D01*
X22941667Y-20237714D02*
X22970238Y-20237714D01*
X22970238Y-20237714D02*
X22989286Y-20247238D01*
X22989286Y-20247238D02*
X22998810Y-20256762D01*
X22998810Y-20256762D02*
X23008333Y-20275810D01*
X23008333Y-20275810D02*
X23008333Y-20323429D01*
X23008333Y-20323429D02*
X22998810Y-20342476D01*
X22998810Y-20342476D02*
X22989286Y-20352000D01*
X22989286Y-20352000D02*
X22970238Y-20361524D01*
X22970238Y-20361524D02*
X22913095Y-20361524D01*
X22913095Y-20361524D02*
X22894048Y-20352000D01*
X22894048Y-20352000D02*
X22884524Y-20342476D01*
X23198810Y-20361524D02*
X23084524Y-20361524D01*
X23141667Y-20361524D02*
X23141667Y-20161524D01*
X23141667Y-20161524D02*
X23122619Y-20190095D01*
X23122619Y-20190095D02*
X23103572Y-20209143D01*
X23103572Y-20209143D02*
X23084524Y-20218667D01*
X23379762Y-20161524D02*
X23284524Y-20161524D01*
X23284524Y-20161524D02*
X23275000Y-20256762D01*
X23275000Y-20256762D02*
X23284524Y-20247238D01*
X23284524Y-20247238D02*
X23303572Y-20237714D01*
X23303572Y-20237714D02*
X23351191Y-20237714D01*
X23351191Y-20237714D02*
X23370238Y-20247238D01*
X23370238Y-20247238D02*
X23379762Y-20256762D01*
X23379762Y-20256762D02*
X23389286Y-20275810D01*
X23389286Y-20275810D02*
X23389286Y-20323429D01*
X23389286Y-20323429D02*
X23379762Y-20342476D01*
X23379762Y-20342476D02*
X23370238Y-20352000D01*
X23370238Y-20352000D02*
X23351191Y-20361524D01*
X23351191Y-20361524D02*
X23303572Y-20361524D01*
X23303572Y-20361524D02*
X23284524Y-20352000D01*
X23284524Y-20352000D02*
X23275000Y-20342476D01*
X23465476Y-20161524D02*
X23465476Y-20199619D01*
X23541667Y-20161524D02*
X23541667Y-20199619D01*
X23836905Y-20437714D02*
X23827381Y-20428190D01*
X23827381Y-20428190D02*
X23808334Y-20399619D01*
X23808334Y-20399619D02*
X23798810Y-20380571D01*
X23798810Y-20380571D02*
X23789286Y-20352000D01*
X23789286Y-20352000D02*
X23779762Y-20304381D01*
X23779762Y-20304381D02*
X23779762Y-20266286D01*
X23779762Y-20266286D02*
X23789286Y-20218667D01*
X23789286Y-20218667D02*
X23798810Y-20190095D01*
X23798810Y-20190095D02*
X23808334Y-20171048D01*
X23808334Y-20171048D02*
X23827381Y-20142476D01*
X23827381Y-20142476D02*
X23836905Y-20132952D01*
X24017857Y-20361524D02*
X23903572Y-20361524D01*
X23960714Y-20361524D02*
X23960714Y-20161524D01*
X23960714Y-20161524D02*
X23941667Y-20190095D01*
X23941667Y-20190095D02*
X23922619Y-20209143D01*
X23922619Y-20209143D02*
X23903572Y-20218667D01*
X24189286Y-20228190D02*
X24189286Y-20361524D01*
X24141667Y-20152000D02*
X24094048Y-20294857D01*
X24094048Y-20294857D02*
X24217857Y-20294857D01*
X24446429Y-20361524D02*
X24446429Y-20161524D01*
X24532143Y-20361524D02*
X24532143Y-20256762D01*
X24532143Y-20256762D02*
X24522619Y-20237714D01*
X24522619Y-20237714D02*
X24503572Y-20228190D01*
X24503572Y-20228190D02*
X24475000Y-20228190D01*
X24475000Y-20228190D02*
X24455953Y-20237714D01*
X24455953Y-20237714D02*
X24446429Y-20247238D01*
X24655953Y-20361524D02*
X24636905Y-20352000D01*
X24636905Y-20352000D02*
X24627381Y-20342476D01*
X24627381Y-20342476D02*
X24617857Y-20323429D01*
X24617857Y-20323429D02*
X24617857Y-20266286D01*
X24617857Y-20266286D02*
X24627381Y-20247238D01*
X24627381Y-20247238D02*
X24636905Y-20237714D01*
X24636905Y-20237714D02*
X24655953Y-20228190D01*
X24655953Y-20228190D02*
X24684524Y-20228190D01*
X24684524Y-20228190D02*
X24703572Y-20237714D01*
X24703572Y-20237714D02*
X24713096Y-20247238D01*
X24713096Y-20247238D02*
X24722619Y-20266286D01*
X24722619Y-20266286D02*
X24722619Y-20323429D01*
X24722619Y-20323429D02*
X24713096Y-20342476D01*
X24713096Y-20342476D02*
X24703572Y-20352000D01*
X24703572Y-20352000D02*
X24684524Y-20361524D01*
X24684524Y-20361524D02*
X24655953Y-20361524D01*
X24836905Y-20361524D02*
X24817857Y-20352000D01*
X24817857Y-20352000D02*
X24808334Y-20332952D01*
X24808334Y-20332952D02*
X24808334Y-20161524D01*
X24989286Y-20352000D02*
X24970238Y-20361524D01*
X24970238Y-20361524D02*
X24932143Y-20361524D01*
X24932143Y-20361524D02*
X24913096Y-20352000D01*
X24913096Y-20352000D02*
X24903572Y-20332952D01*
X24903572Y-20332952D02*
X24903572Y-20256762D01*
X24903572Y-20256762D02*
X24913096Y-20237714D01*
X24913096Y-20237714D02*
X24932143Y-20228190D01*
X24932143Y-20228190D02*
X24970238Y-20228190D01*
X24970238Y-20228190D02*
X24989286Y-20237714D01*
X24989286Y-20237714D02*
X24998810Y-20256762D01*
X24998810Y-20256762D02*
X24998810Y-20275810D01*
X24998810Y-20275810D02*
X24903572Y-20294857D01*
X25075000Y-20352000D02*
X25094048Y-20361524D01*
X25094048Y-20361524D02*
X25132143Y-20361524D01*
X25132143Y-20361524D02*
X25151191Y-20352000D01*
X25151191Y-20352000D02*
X25160715Y-20332952D01*
X25160715Y-20332952D02*
X25160715Y-20323429D01*
X25160715Y-20323429D02*
X25151191Y-20304381D01*
X25151191Y-20304381D02*
X25132143Y-20294857D01*
X25132143Y-20294857D02*
X25103572Y-20294857D01*
X25103572Y-20294857D02*
X25084524Y-20285333D01*
X25084524Y-20285333D02*
X25075000Y-20266286D01*
X25075000Y-20266286D02*
X25075000Y-20256762D01*
X25075000Y-20256762D02*
X25084524Y-20237714D01*
X25084524Y-20237714D02*
X25103572Y-20228190D01*
X25103572Y-20228190D02*
X25132143Y-20228190D01*
X25132143Y-20228190D02*
X25151191Y-20237714D01*
X25227381Y-20437714D02*
X25236905Y-20428190D01*
X25236905Y-20428190D02*
X25255953Y-20399619D01*
X25255953Y-20399619D02*
X25265477Y-20380571D01*
X25265477Y-20380571D02*
X25275000Y-20352000D01*
X25275000Y-20352000D02*
X25284524Y-20304381D01*
X25284524Y-20304381D02*
X25284524Y-20266286D01*
X25284524Y-20266286D02*
X25275000Y-20218667D01*
X25275000Y-20218667D02*
X25265477Y-20190095D01*
X25265477Y-20190095D02*
X25255953Y-20171048D01*
X25255953Y-20171048D02*
X25236905Y-20142476D01*
X25236905Y-20142476D02*
X25227381Y-20132952D01*
D10*
X20225000Y-20483000D02*
X20225000Y-20583000D01*
X20175000Y-20533000D02*
X20275000Y-20533000D01*
D11*
X20627381Y-20625524D02*
X20513095Y-20625524D01*
X20570238Y-20625524D02*
X20570238Y-20425524D01*
X20570238Y-20425524D02*
X20551190Y-20454095D01*
X20551190Y-20454095D02*
X20532143Y-20473143D01*
X20532143Y-20473143D02*
X20513095Y-20482667D01*
X20713095Y-20606476D02*
X20722619Y-20616000D01*
X20722619Y-20616000D02*
X20713095Y-20625524D01*
X20713095Y-20625524D02*
X20703571Y-20616000D01*
X20703571Y-20616000D02*
X20713095Y-20606476D01*
X20713095Y-20606476D02*
X20713095Y-20625524D01*
X20846429Y-20425524D02*
X20865476Y-20425524D01*
X20865476Y-20425524D02*
X20884524Y-20435048D01*
X20884524Y-20435048D02*
X20894048Y-20444571D01*
X20894048Y-20444571D02*
X20903571Y-20463619D01*
X20903571Y-20463619D02*
X20913095Y-20501714D01*
X20913095Y-20501714D02*
X20913095Y-20549333D01*
X20913095Y-20549333D02*
X20903571Y-20587429D01*
X20903571Y-20587429D02*
X20894048Y-20606476D01*
X20894048Y-20606476D02*
X20884524Y-20616000D01*
X20884524Y-20616000D02*
X20865476Y-20625524D01*
X20865476Y-20625524D02*
X20846429Y-20625524D01*
X20846429Y-20625524D02*
X20827381Y-20616000D01*
X20827381Y-20616000D02*
X20817857Y-20606476D01*
X20817857Y-20606476D02*
X20808333Y-20587429D01*
X20808333Y-20587429D02*
X20798810Y-20549333D01*
X20798810Y-20549333D02*
X20798810Y-20501714D01*
X20798810Y-20501714D02*
X20808333Y-20463619D01*
X20808333Y-20463619D02*
X20817857Y-20444571D01*
X20817857Y-20444571D02*
X20827381Y-20435048D01*
X20827381Y-20435048D02*
X20846429Y-20425524D01*
X21036905Y-20425524D02*
X21055952Y-20425524D01*
X21055952Y-20425524D02*
X21075000Y-20435048D01*
X21075000Y-20435048D02*
X21084524Y-20444571D01*
X21084524Y-20444571D02*
X21094048Y-20463619D01*
X21094048Y-20463619D02*
X21103571Y-20501714D01*
X21103571Y-20501714D02*
X21103571Y-20549333D01*
X21103571Y-20549333D02*
X21094048Y-20587429D01*
X21094048Y-20587429D02*
X21084524Y-20606476D01*
X21084524Y-20606476D02*
X21075000Y-20616000D01*
X21075000Y-20616000D02*
X21055952Y-20625524D01*
X21055952Y-20625524D02*
X21036905Y-20625524D01*
X21036905Y-20625524D02*
X21017857Y-20616000D01*
X21017857Y-20616000D02*
X21008333Y-20606476D01*
X21008333Y-20606476D02*
X20998810Y-20587429D01*
X20998810Y-20587429D02*
X20989286Y-20549333D01*
X20989286Y-20549333D02*
X20989286Y-20501714D01*
X20989286Y-20501714D02*
X20998810Y-20463619D01*
X20998810Y-20463619D02*
X21008333Y-20444571D01*
X21008333Y-20444571D02*
X21017857Y-20435048D01*
X21017857Y-20435048D02*
X21036905Y-20425524D01*
X21227381Y-20425524D02*
X21246429Y-20425524D01*
X21246429Y-20425524D02*
X21265476Y-20435048D01*
X21265476Y-20435048D02*
X21275000Y-20444571D01*
X21275000Y-20444571D02*
X21284524Y-20463619D01*
X21284524Y-20463619D02*
X21294048Y-20501714D01*
X21294048Y-20501714D02*
X21294048Y-20549333D01*
X21294048Y-20549333D02*
X21284524Y-20587429D01*
X21284524Y-20587429D02*
X21275000Y-20606476D01*
X21275000Y-20606476D02*
X21265476Y-20616000D01*
X21265476Y-20616000D02*
X21246429Y-20625524D01*
X21246429Y-20625524D02*
X21227381Y-20625524D01*
X21227381Y-20625524D02*
X21208333Y-20616000D01*
X21208333Y-20616000D02*
X21198810Y-20606476D01*
X21198810Y-20606476D02*
X21189286Y-20587429D01*
X21189286Y-20587429D02*
X21179762Y-20549333D01*
X21179762Y-20549333D02*
X21179762Y-20501714D01*
X21179762Y-20501714D02*
X21189286Y-20463619D01*
X21189286Y-20463619D02*
X21198810Y-20444571D01*
X21198810Y-20444571D02*
X21208333Y-20435048D01*
X21208333Y-20435048D02*
X21227381Y-20425524D01*
X21379762Y-20625524D02*
X21379762Y-20492190D01*
X21379762Y-20511238D02*
X21389286Y-20501714D01*
X21389286Y-20501714D02*
X21408333Y-20492190D01*
X21408333Y-20492190D02*
X21436905Y-20492190D01*
X21436905Y-20492190D02*
X21455952Y-20501714D01*
X21455952Y-20501714D02*
X21465476Y-20520762D01*
X21465476Y-20520762D02*
X21465476Y-20625524D01*
X21465476Y-20520762D02*
X21475000Y-20501714D01*
X21475000Y-20501714D02*
X21494048Y-20492190D01*
X21494048Y-20492190D02*
X21522619Y-20492190D01*
X21522619Y-20492190D02*
X21541667Y-20501714D01*
X21541667Y-20501714D02*
X21551191Y-20520762D01*
X21551191Y-20520762D02*
X21551191Y-20625524D01*
X21646429Y-20625524D02*
X21646429Y-20492190D01*
X21646429Y-20511238D02*
X21655952Y-20501714D01*
X21655952Y-20501714D02*
X21675000Y-20492190D01*
X21675000Y-20492190D02*
X21703572Y-20492190D01*
X21703572Y-20492190D02*
X21722619Y-20501714D01*
X21722619Y-20501714D02*
X21732143Y-20520762D01*
X21732143Y-20520762D02*
X21732143Y-20625524D01*
X21732143Y-20520762D02*
X21741667Y-20501714D01*
X21741667Y-20501714D02*
X21760714Y-20492190D01*
X21760714Y-20492190D02*
X21789286Y-20492190D01*
X21789286Y-20492190D02*
X21808333Y-20501714D01*
X21808333Y-20501714D02*
X21817857Y-20520762D01*
X21817857Y-20520762D02*
X21817857Y-20625524D01*
X22208333Y-20416000D02*
X22036905Y-20673143D01*
X22465476Y-20425524D02*
X22484524Y-20425524D01*
X22484524Y-20425524D02*
X22503572Y-20435048D01*
X22503572Y-20435048D02*
X22513095Y-20444571D01*
X22513095Y-20444571D02*
X22522619Y-20463619D01*
X22522619Y-20463619D02*
X22532143Y-20501714D01*
X22532143Y-20501714D02*
X22532143Y-20549333D01*
X22532143Y-20549333D02*
X22522619Y-20587429D01*
X22522619Y-20587429D02*
X22513095Y-20606476D01*
X22513095Y-20606476D02*
X22503572Y-20616000D01*
X22503572Y-20616000D02*
X22484524Y-20625524D01*
X22484524Y-20625524D02*
X22465476Y-20625524D01*
X22465476Y-20625524D02*
X22446429Y-20616000D01*
X22446429Y-20616000D02*
X22436905Y-20606476D01*
X22436905Y-20606476D02*
X22427381Y-20587429D01*
X22427381Y-20587429D02*
X22417857Y-20549333D01*
X22417857Y-20549333D02*
X22417857Y-20501714D01*
X22417857Y-20501714D02*
X22427381Y-20463619D01*
X22427381Y-20463619D02*
X22436905Y-20444571D01*
X22436905Y-20444571D02*
X22446429Y-20435048D01*
X22446429Y-20435048D02*
X22465476Y-20425524D01*
X22617857Y-20606476D02*
X22627381Y-20616000D01*
X22627381Y-20616000D02*
X22617857Y-20625524D01*
X22617857Y-20625524D02*
X22608333Y-20616000D01*
X22608333Y-20616000D02*
X22617857Y-20606476D01*
X22617857Y-20606476D02*
X22617857Y-20625524D01*
X22751191Y-20425524D02*
X22770238Y-20425524D01*
X22770238Y-20425524D02*
X22789286Y-20435048D01*
X22789286Y-20435048D02*
X22798810Y-20444571D01*
X22798810Y-20444571D02*
X22808333Y-20463619D01*
X22808333Y-20463619D02*
X22817857Y-20501714D01*
X22817857Y-20501714D02*
X22817857Y-20549333D01*
X22817857Y-20549333D02*
X22808333Y-20587429D01*
X22808333Y-20587429D02*
X22798810Y-20606476D01*
X22798810Y-20606476D02*
X22789286Y-20616000D01*
X22789286Y-20616000D02*
X22770238Y-20625524D01*
X22770238Y-20625524D02*
X22751191Y-20625524D01*
X22751191Y-20625524D02*
X22732143Y-20616000D01*
X22732143Y-20616000D02*
X22722619Y-20606476D01*
X22722619Y-20606476D02*
X22713095Y-20587429D01*
X22713095Y-20587429D02*
X22703572Y-20549333D01*
X22703572Y-20549333D02*
X22703572Y-20501714D01*
X22703572Y-20501714D02*
X22713095Y-20463619D01*
X22713095Y-20463619D02*
X22722619Y-20444571D01*
X22722619Y-20444571D02*
X22732143Y-20435048D01*
X22732143Y-20435048D02*
X22751191Y-20425524D01*
X22884524Y-20425524D02*
X23008333Y-20425524D01*
X23008333Y-20425524D02*
X22941667Y-20501714D01*
X22941667Y-20501714D02*
X22970238Y-20501714D01*
X22970238Y-20501714D02*
X22989286Y-20511238D01*
X22989286Y-20511238D02*
X22998810Y-20520762D01*
X22998810Y-20520762D02*
X23008333Y-20539810D01*
X23008333Y-20539810D02*
X23008333Y-20587429D01*
X23008333Y-20587429D02*
X22998810Y-20606476D01*
X22998810Y-20606476D02*
X22989286Y-20616000D01*
X22989286Y-20616000D02*
X22970238Y-20625524D01*
X22970238Y-20625524D02*
X22913095Y-20625524D01*
X22913095Y-20625524D02*
X22894048Y-20616000D01*
X22894048Y-20616000D02*
X22884524Y-20606476D01*
X23103572Y-20625524D02*
X23141667Y-20625524D01*
X23141667Y-20625524D02*
X23160714Y-20616000D01*
X23160714Y-20616000D02*
X23170238Y-20606476D01*
X23170238Y-20606476D02*
X23189286Y-20577905D01*
X23189286Y-20577905D02*
X23198810Y-20539810D01*
X23198810Y-20539810D02*
X23198810Y-20463619D01*
X23198810Y-20463619D02*
X23189286Y-20444571D01*
X23189286Y-20444571D02*
X23179762Y-20435048D01*
X23179762Y-20435048D02*
X23160714Y-20425524D01*
X23160714Y-20425524D02*
X23122619Y-20425524D01*
X23122619Y-20425524D02*
X23103572Y-20435048D01*
X23103572Y-20435048D02*
X23094048Y-20444571D01*
X23094048Y-20444571D02*
X23084524Y-20463619D01*
X23084524Y-20463619D02*
X23084524Y-20511238D01*
X23084524Y-20511238D02*
X23094048Y-20530286D01*
X23094048Y-20530286D02*
X23103572Y-20539810D01*
X23103572Y-20539810D02*
X23122619Y-20549333D01*
X23122619Y-20549333D02*
X23160714Y-20549333D01*
X23160714Y-20549333D02*
X23179762Y-20539810D01*
X23179762Y-20539810D02*
X23189286Y-20530286D01*
X23189286Y-20530286D02*
X23198810Y-20511238D01*
X23370238Y-20492190D02*
X23370238Y-20625524D01*
X23322619Y-20416000D02*
X23275000Y-20558857D01*
X23275000Y-20558857D02*
X23398810Y-20558857D01*
X23465476Y-20425524D02*
X23465476Y-20463619D01*
X23541667Y-20425524D02*
X23541667Y-20463619D01*
X23836905Y-20701714D02*
X23827381Y-20692190D01*
X23827381Y-20692190D02*
X23808334Y-20663619D01*
X23808334Y-20663619D02*
X23798810Y-20644571D01*
X23798810Y-20644571D02*
X23789286Y-20616000D01*
X23789286Y-20616000D02*
X23779762Y-20568381D01*
X23779762Y-20568381D02*
X23779762Y-20530286D01*
X23779762Y-20530286D02*
X23789286Y-20482667D01*
X23789286Y-20482667D02*
X23798810Y-20454095D01*
X23798810Y-20454095D02*
X23808334Y-20435048D01*
X23808334Y-20435048D02*
X23827381Y-20406476D01*
X23827381Y-20406476D02*
X23836905Y-20396952D01*
X23998810Y-20492190D02*
X23998810Y-20625524D01*
X23951191Y-20416000D02*
X23903572Y-20558857D01*
X23903572Y-20558857D02*
X24027381Y-20558857D01*
X24255953Y-20625524D02*
X24255953Y-20425524D01*
X24341667Y-20625524D02*
X24341667Y-20520762D01*
X24341667Y-20520762D02*
X24332143Y-20501714D01*
X24332143Y-20501714D02*
X24313096Y-20492190D01*
X24313096Y-20492190D02*
X24284524Y-20492190D01*
X24284524Y-20492190D02*
X24265476Y-20501714D01*
X24265476Y-20501714D02*
X24255953Y-20511238D01*
X24465476Y-20625524D02*
X24446429Y-20616000D01*
X24446429Y-20616000D02*
X24436905Y-20606476D01*
X24436905Y-20606476D02*
X24427381Y-20587429D01*
X24427381Y-20587429D02*
X24427381Y-20530286D01*
X24427381Y-20530286D02*
X24436905Y-20511238D01*
X24436905Y-20511238D02*
X24446429Y-20501714D01*
X24446429Y-20501714D02*
X24465476Y-20492190D01*
X24465476Y-20492190D02*
X24494048Y-20492190D01*
X24494048Y-20492190D02*
X24513096Y-20501714D01*
X24513096Y-20501714D02*
X24522619Y-20511238D01*
X24522619Y-20511238D02*
X24532143Y-20530286D01*
X24532143Y-20530286D02*
X24532143Y-20587429D01*
X24532143Y-20587429D02*
X24522619Y-20606476D01*
X24522619Y-20606476D02*
X24513096Y-20616000D01*
X24513096Y-20616000D02*
X24494048Y-20625524D01*
X24494048Y-20625524D02*
X24465476Y-20625524D01*
X24646429Y-20625524D02*
X24627381Y-20616000D01*
X24627381Y-20616000D02*
X24617857Y-20596952D01*
X24617857Y-20596952D02*
X24617857Y-20425524D01*
X24798810Y-20616000D02*
X24779762Y-20625524D01*
X24779762Y-20625524D02*
X24741667Y-20625524D01*
X24741667Y-20625524D02*
X24722619Y-20616000D01*
X24722619Y-20616000D02*
X24713096Y-20596952D01*
X24713096Y-20596952D02*
X24713096Y-20520762D01*
X24713096Y-20520762D02*
X24722619Y-20501714D01*
X24722619Y-20501714D02*
X24741667Y-20492190D01*
X24741667Y-20492190D02*
X24779762Y-20492190D01*
X24779762Y-20492190D02*
X24798810Y-20501714D01*
X24798810Y-20501714D02*
X24808334Y-20520762D01*
X24808334Y-20520762D02*
X24808334Y-20539810D01*
X24808334Y-20539810D02*
X24713096Y-20558857D01*
X24884524Y-20616000D02*
X24903572Y-20625524D01*
X24903572Y-20625524D02*
X24941667Y-20625524D01*
X24941667Y-20625524D02*
X24960715Y-20616000D01*
X24960715Y-20616000D02*
X24970238Y-20596952D01*
X24970238Y-20596952D02*
X24970238Y-20587429D01*
X24970238Y-20587429D02*
X24960715Y-20568381D01*
X24960715Y-20568381D02*
X24941667Y-20558857D01*
X24941667Y-20558857D02*
X24913096Y-20558857D01*
X24913096Y-20558857D02*
X24894048Y-20549333D01*
X24894048Y-20549333D02*
X24884524Y-20530286D01*
X24884524Y-20530286D02*
X24884524Y-20520762D01*
X24884524Y-20520762D02*
X24894048Y-20501714D01*
X24894048Y-20501714D02*
X24913096Y-20492190D01*
X24913096Y-20492190D02*
X24941667Y-20492190D01*
X24941667Y-20492190D02*
X24960715Y-20501714D01*
X25036905Y-20701714D02*
X25046429Y-20692190D01*
X25046429Y-20692190D02*
X25065477Y-20663619D01*
X25065477Y-20663619D02*
X25075000Y-20644571D01*
X25075000Y-20644571D02*
X25084524Y-20616000D01*
X25084524Y-20616000D02*
X25094048Y-20568381D01*
X25094048Y-20568381D02*
X25094048Y-20530286D01*
X25094048Y-20530286D02*
X25084524Y-20482667D01*
X25084524Y-20482667D02*
X25075000Y-20454095D01*
X25075000Y-20454095D02*
X25065477Y-20435048D01*
X25065477Y-20435048D02*
X25046429Y-20406476D01*
X25046429Y-20406476D02*
X25036905Y-20396952D01*
D14*
X20257427Y-20839427D02*
X20257427Y-20754573D01*
X20172573Y-20754573D01*
X20172573Y-20839427D01*
X20257427Y-20839427D01*
D11*
X20627381Y-20889524D02*
X20513095Y-20889524D01*
X20570238Y-20889524D02*
X20570238Y-20689524D01*
X20570238Y-20689524D02*
X20551190Y-20718095D01*
X20551190Y-20718095D02*
X20532143Y-20737143D01*
X20532143Y-20737143D02*
X20513095Y-20746667D01*
X20713095Y-20870476D02*
X20722619Y-20880000D01*
X20722619Y-20880000D02*
X20713095Y-20889524D01*
X20713095Y-20889524D02*
X20703571Y-20880000D01*
X20703571Y-20880000D02*
X20713095Y-20870476D01*
X20713095Y-20870476D02*
X20713095Y-20889524D01*
X20798810Y-20708571D02*
X20808333Y-20699048D01*
X20808333Y-20699048D02*
X20827381Y-20689524D01*
X20827381Y-20689524D02*
X20875000Y-20689524D01*
X20875000Y-20689524D02*
X20894048Y-20699048D01*
X20894048Y-20699048D02*
X20903571Y-20708571D01*
X20903571Y-20708571D02*
X20913095Y-20727619D01*
X20913095Y-20727619D02*
X20913095Y-20746667D01*
X20913095Y-20746667D02*
X20903571Y-20775238D01*
X20903571Y-20775238D02*
X20789286Y-20889524D01*
X20789286Y-20889524D02*
X20913095Y-20889524D01*
X21036905Y-20689524D02*
X21055952Y-20689524D01*
X21055952Y-20689524D02*
X21075000Y-20699048D01*
X21075000Y-20699048D02*
X21084524Y-20708571D01*
X21084524Y-20708571D02*
X21094048Y-20727619D01*
X21094048Y-20727619D02*
X21103571Y-20765714D01*
X21103571Y-20765714D02*
X21103571Y-20813333D01*
X21103571Y-20813333D02*
X21094048Y-20851429D01*
X21094048Y-20851429D02*
X21084524Y-20870476D01*
X21084524Y-20870476D02*
X21075000Y-20880000D01*
X21075000Y-20880000D02*
X21055952Y-20889524D01*
X21055952Y-20889524D02*
X21036905Y-20889524D01*
X21036905Y-20889524D02*
X21017857Y-20880000D01*
X21017857Y-20880000D02*
X21008333Y-20870476D01*
X21008333Y-20870476D02*
X20998810Y-20851429D01*
X20998810Y-20851429D02*
X20989286Y-20813333D01*
X20989286Y-20813333D02*
X20989286Y-20765714D01*
X20989286Y-20765714D02*
X20998810Y-20727619D01*
X20998810Y-20727619D02*
X21008333Y-20708571D01*
X21008333Y-20708571D02*
X21017857Y-20699048D01*
X21017857Y-20699048D02*
X21036905Y-20689524D01*
X21227381Y-20689524D02*
X21246429Y-20689524D01*
X21246429Y-20689524D02*
X21265476Y-20699048D01*
X21265476Y-20699048D02*
X21275000Y-20708571D01*
X21275000Y-20708571D02*
X21284524Y-20727619D01*
X21284524Y-20727619D02*
X21294048Y-20765714D01*
X21294048Y-20765714D02*
X21294048Y-20813333D01*
X21294048Y-20813333D02*
X21284524Y-20851429D01*
X21284524Y-20851429D02*
X21275000Y-20870476D01*
X21275000Y-20870476D02*
X21265476Y-20880000D01*
X21265476Y-20880000D02*
X21246429Y-20889524D01*
X21246429Y-20889524D02*
X21227381Y-20889524D01*
X21227381Y-20889524D02*
X21208333Y-20880000D01*
X21208333Y-20880000D02*
X21198810Y-20870476D01*
X21198810Y-20870476D02*
X21189286Y-20851429D01*
X21189286Y-20851429D02*
X21179762Y-20813333D01*
X21179762Y-20813333D02*
X21179762Y-20765714D01*
X21179762Y-20765714D02*
X21189286Y-20727619D01*
X21189286Y-20727619D02*
X21198810Y-20708571D01*
X21198810Y-20708571D02*
X21208333Y-20699048D01*
X21208333Y-20699048D02*
X21227381Y-20689524D01*
X21379762Y-20889524D02*
X21379762Y-20756190D01*
X21379762Y-20775238D02*
X21389286Y-20765714D01*
X21389286Y-20765714D02*
X21408333Y-20756190D01*
X21408333Y-20756190D02*
X21436905Y-20756190D01*
X21436905Y-20756190D02*
X21455952Y-20765714D01*
X21455952Y-20765714D02*
X21465476Y-20784762D01*
X21465476Y-20784762D02*
X21465476Y-20889524D01*
X21465476Y-20784762D02*
X21475000Y-20765714D01*
X21475000Y-20765714D02*
X21494048Y-20756190D01*
X21494048Y-20756190D02*
X21522619Y-20756190D01*
X21522619Y-20756190D02*
X21541667Y-20765714D01*
X21541667Y-20765714D02*
X21551191Y-20784762D01*
X21551191Y-20784762D02*
X21551191Y-20889524D01*
X21646429Y-20889524D02*
X21646429Y-20756190D01*
X21646429Y-20775238D02*
X21655952Y-20765714D01*
X21655952Y-20765714D02*
X21675000Y-20756190D01*
X21675000Y-20756190D02*
X21703572Y-20756190D01*
X21703572Y-20756190D02*
X21722619Y-20765714D01*
X21722619Y-20765714D02*
X21732143Y-20784762D01*
X21732143Y-20784762D02*
X21732143Y-20889524D01*
X21732143Y-20784762D02*
X21741667Y-20765714D01*
X21741667Y-20765714D02*
X21760714Y-20756190D01*
X21760714Y-20756190D02*
X21789286Y-20756190D01*
X21789286Y-20756190D02*
X21808333Y-20765714D01*
X21808333Y-20765714D02*
X21817857Y-20784762D01*
X21817857Y-20784762D02*
X21817857Y-20889524D01*
X22208333Y-20680000D02*
X22036905Y-20937143D01*
X22465476Y-20689524D02*
X22484524Y-20689524D01*
X22484524Y-20689524D02*
X22503572Y-20699048D01*
X22503572Y-20699048D02*
X22513095Y-20708571D01*
X22513095Y-20708571D02*
X22522619Y-20727619D01*
X22522619Y-20727619D02*
X22532143Y-20765714D01*
X22532143Y-20765714D02*
X22532143Y-20813333D01*
X22532143Y-20813333D02*
X22522619Y-20851429D01*
X22522619Y-20851429D02*
X22513095Y-20870476D01*
X22513095Y-20870476D02*
X22503572Y-20880000D01*
X22503572Y-20880000D02*
X22484524Y-20889524D01*
X22484524Y-20889524D02*
X22465476Y-20889524D01*
X22465476Y-20889524D02*
X22446429Y-20880000D01*
X22446429Y-20880000D02*
X22436905Y-20870476D01*
X22436905Y-20870476D02*
X22427381Y-20851429D01*
X22427381Y-20851429D02*
X22417857Y-20813333D01*
X22417857Y-20813333D02*
X22417857Y-20765714D01*
X22417857Y-20765714D02*
X22427381Y-20727619D01*
X22427381Y-20727619D02*
X22436905Y-20708571D01*
X22436905Y-20708571D02*
X22446429Y-20699048D01*
X22446429Y-20699048D02*
X22465476Y-20689524D01*
X22617857Y-20870476D02*
X22627381Y-20880000D01*
X22627381Y-20880000D02*
X22617857Y-20889524D01*
X22617857Y-20889524D02*
X22608333Y-20880000D01*
X22608333Y-20880000D02*
X22617857Y-20870476D01*
X22617857Y-20870476D02*
X22617857Y-20889524D01*
X22751191Y-20689524D02*
X22770238Y-20689524D01*
X22770238Y-20689524D02*
X22789286Y-20699048D01*
X22789286Y-20699048D02*
X22798810Y-20708571D01*
X22798810Y-20708571D02*
X22808333Y-20727619D01*
X22808333Y-20727619D02*
X22817857Y-20765714D01*
X22817857Y-20765714D02*
X22817857Y-20813333D01*
X22817857Y-20813333D02*
X22808333Y-20851429D01*
X22808333Y-20851429D02*
X22798810Y-20870476D01*
X22798810Y-20870476D02*
X22789286Y-20880000D01*
X22789286Y-20880000D02*
X22770238Y-20889524D01*
X22770238Y-20889524D02*
X22751191Y-20889524D01*
X22751191Y-20889524D02*
X22732143Y-20880000D01*
X22732143Y-20880000D02*
X22722619Y-20870476D01*
X22722619Y-20870476D02*
X22713095Y-20851429D01*
X22713095Y-20851429D02*
X22703572Y-20813333D01*
X22703572Y-20813333D02*
X22703572Y-20765714D01*
X22703572Y-20765714D02*
X22713095Y-20727619D01*
X22713095Y-20727619D02*
X22722619Y-20708571D01*
X22722619Y-20708571D02*
X22732143Y-20699048D01*
X22732143Y-20699048D02*
X22751191Y-20689524D01*
X22989286Y-20756190D02*
X22989286Y-20889524D01*
X22941667Y-20680000D02*
X22894048Y-20822857D01*
X22894048Y-20822857D02*
X23017857Y-20822857D01*
X23075000Y-20689524D02*
X23208333Y-20689524D01*
X23208333Y-20689524D02*
X23122619Y-20889524D01*
X23275000Y-20708571D02*
X23284524Y-20699048D01*
X23284524Y-20699048D02*
X23303572Y-20689524D01*
X23303572Y-20689524D02*
X23351191Y-20689524D01*
X23351191Y-20689524D02*
X23370238Y-20699048D01*
X23370238Y-20699048D02*
X23379762Y-20708571D01*
X23379762Y-20708571D02*
X23389286Y-20727619D01*
X23389286Y-20727619D02*
X23389286Y-20746667D01*
X23389286Y-20746667D02*
X23379762Y-20775238D01*
X23379762Y-20775238D02*
X23265476Y-20889524D01*
X23265476Y-20889524D02*
X23389286Y-20889524D01*
X23465476Y-20689524D02*
X23465476Y-20727619D01*
X23541667Y-20689524D02*
X23541667Y-20727619D01*
X23836905Y-20965714D02*
X23827381Y-20956190D01*
X23827381Y-20956190D02*
X23808334Y-20927619D01*
X23808334Y-20927619D02*
X23798810Y-20908571D01*
X23798810Y-20908571D02*
X23789286Y-20880000D01*
X23789286Y-20880000D02*
X23779762Y-20832381D01*
X23779762Y-20832381D02*
X23779762Y-20794286D01*
X23779762Y-20794286D02*
X23789286Y-20746667D01*
X23789286Y-20746667D02*
X23798810Y-20718095D01*
X23798810Y-20718095D02*
X23808334Y-20699048D01*
X23808334Y-20699048D02*
X23827381Y-20670476D01*
X23827381Y-20670476D02*
X23836905Y-20660952D01*
X23998810Y-20756190D02*
X23998810Y-20889524D01*
X23951191Y-20680000D02*
X23903572Y-20822857D01*
X23903572Y-20822857D02*
X24027381Y-20822857D01*
X24141667Y-20689524D02*
X24160715Y-20689524D01*
X24160715Y-20689524D02*
X24179762Y-20699048D01*
X24179762Y-20699048D02*
X24189286Y-20708571D01*
X24189286Y-20708571D02*
X24198810Y-20727619D01*
X24198810Y-20727619D02*
X24208334Y-20765714D01*
X24208334Y-20765714D02*
X24208334Y-20813333D01*
X24208334Y-20813333D02*
X24198810Y-20851429D01*
X24198810Y-20851429D02*
X24189286Y-20870476D01*
X24189286Y-20870476D02*
X24179762Y-20880000D01*
X24179762Y-20880000D02*
X24160715Y-20889524D01*
X24160715Y-20889524D02*
X24141667Y-20889524D01*
X24141667Y-20889524D02*
X24122619Y-20880000D01*
X24122619Y-20880000D02*
X24113095Y-20870476D01*
X24113095Y-20870476D02*
X24103572Y-20851429D01*
X24103572Y-20851429D02*
X24094048Y-20813333D01*
X24094048Y-20813333D02*
X24094048Y-20765714D01*
X24094048Y-20765714D02*
X24103572Y-20727619D01*
X24103572Y-20727619D02*
X24113095Y-20708571D01*
X24113095Y-20708571D02*
X24122619Y-20699048D01*
X24122619Y-20699048D02*
X24141667Y-20689524D01*
X24446429Y-20889524D02*
X24446429Y-20689524D01*
X24532143Y-20889524D02*
X24532143Y-20784762D01*
X24532143Y-20784762D02*
X24522619Y-20765714D01*
X24522619Y-20765714D02*
X24503572Y-20756190D01*
X24503572Y-20756190D02*
X24475000Y-20756190D01*
X24475000Y-20756190D02*
X24455953Y-20765714D01*
X24455953Y-20765714D02*
X24446429Y-20775238D01*
X24655953Y-20889524D02*
X24636905Y-20880000D01*
X24636905Y-20880000D02*
X24627381Y-20870476D01*
X24627381Y-20870476D02*
X24617857Y-20851429D01*
X24617857Y-20851429D02*
X24617857Y-20794286D01*
X24617857Y-20794286D02*
X24627381Y-20775238D01*
X24627381Y-20775238D02*
X24636905Y-20765714D01*
X24636905Y-20765714D02*
X24655953Y-20756190D01*
X24655953Y-20756190D02*
X24684524Y-20756190D01*
X24684524Y-20756190D02*
X24703572Y-20765714D01*
X24703572Y-20765714D02*
X24713096Y-20775238D01*
X24713096Y-20775238D02*
X24722619Y-20794286D01*
X24722619Y-20794286D02*
X24722619Y-20851429D01*
X24722619Y-20851429D02*
X24713096Y-20870476D01*
X24713096Y-20870476D02*
X24703572Y-20880000D01*
X24703572Y-20880000D02*
X24684524Y-20889524D01*
X24684524Y-20889524D02*
X24655953Y-20889524D01*
X24836905Y-20889524D02*
X24817857Y-20880000D01*
X24817857Y-20880000D02*
X24808334Y-20860952D01*
X24808334Y-20860952D02*
X24808334Y-20689524D01*
X24989286Y-20880000D02*
X24970238Y-20889524D01*
X24970238Y-20889524D02*
X24932143Y-20889524D01*
X24932143Y-20889524D02*
X24913096Y-20880000D01*
X24913096Y-20880000D02*
X24903572Y-20860952D01*
X24903572Y-20860952D02*
X24903572Y-20784762D01*
X24903572Y-20784762D02*
X24913096Y-20765714D01*
X24913096Y-20765714D02*
X24932143Y-20756190D01*
X24932143Y-20756190D02*
X24970238Y-20756190D01*
X24970238Y-20756190D02*
X24989286Y-20765714D01*
X24989286Y-20765714D02*
X24998810Y-20784762D01*
X24998810Y-20784762D02*
X24998810Y-20803810D01*
X24998810Y-20803810D02*
X24903572Y-20822857D01*
X25075000Y-20880000D02*
X25094048Y-20889524D01*
X25094048Y-20889524D02*
X25132143Y-20889524D01*
X25132143Y-20889524D02*
X25151191Y-20880000D01*
X25151191Y-20880000D02*
X25160715Y-20860952D01*
X25160715Y-20860952D02*
X25160715Y-20851429D01*
X25160715Y-20851429D02*
X25151191Y-20832381D01*
X25151191Y-20832381D02*
X25132143Y-20822857D01*
X25132143Y-20822857D02*
X25103572Y-20822857D01*
X25103572Y-20822857D02*
X25084524Y-20813333D01*
X25084524Y-20813333D02*
X25075000Y-20794286D01*
X25075000Y-20794286D02*
X25075000Y-20784762D01*
X25075000Y-20784762D02*
X25084524Y-20765714D01*
X25084524Y-20765714D02*
X25103572Y-20756190D01*
X25103572Y-20756190D02*
X25132143Y-20756190D01*
X25132143Y-20756190D02*
X25151191Y-20765714D01*
X25227381Y-20965714D02*
X25236905Y-20956190D01*
X25236905Y-20956190D02*
X25255953Y-20927619D01*
X25255953Y-20927619D02*
X25265477Y-20908571D01*
X25265477Y-20908571D02*
X25275000Y-20880000D01*
X25275000Y-20880000D02*
X25284524Y-20832381D01*
X25284524Y-20832381D02*
X25284524Y-20794286D01*
X25284524Y-20794286D02*
X25275000Y-20746667D01*
X25275000Y-20746667D02*
X25265477Y-20718095D01*
X25265477Y-20718095D02*
X25255953Y-20699048D01*
X25255953Y-20699048D02*
X25236905Y-20670476D01*
X25236905Y-20670476D02*
X25227381Y-20660952D01*
D15*
X20195000Y-21141000D02*
X20275000Y-21061000D01*
X20195000Y-20981000D01*
X20115000Y-21061000D01*
X20195000Y-21141000D01*
D11*
X20627381Y-21153524D02*
X20513095Y-21153524D01*
X20570238Y-21153524D02*
X20570238Y-20953524D01*
X20570238Y-20953524D02*
X20551190Y-20982095D01*
X20551190Y-20982095D02*
X20532143Y-21001143D01*
X20532143Y-21001143D02*
X20513095Y-21010667D01*
X20713095Y-21134476D02*
X20722619Y-21144000D01*
X20722619Y-21144000D02*
X20713095Y-21153524D01*
X20713095Y-21153524D02*
X20703571Y-21144000D01*
X20703571Y-21144000D02*
X20713095Y-21134476D01*
X20713095Y-21134476D02*
X20713095Y-21153524D01*
X20894048Y-20953524D02*
X20855952Y-20953524D01*
X20855952Y-20953524D02*
X20836905Y-20963048D01*
X20836905Y-20963048D02*
X20827381Y-20972571D01*
X20827381Y-20972571D02*
X20808333Y-21001143D01*
X20808333Y-21001143D02*
X20798810Y-21039238D01*
X20798810Y-21039238D02*
X20798810Y-21115429D01*
X20798810Y-21115429D02*
X20808333Y-21134476D01*
X20808333Y-21134476D02*
X20817857Y-21144000D01*
X20817857Y-21144000D02*
X20836905Y-21153524D01*
X20836905Y-21153524D02*
X20875000Y-21153524D01*
X20875000Y-21153524D02*
X20894048Y-21144000D01*
X20894048Y-21144000D02*
X20903571Y-21134476D01*
X20903571Y-21134476D02*
X20913095Y-21115429D01*
X20913095Y-21115429D02*
X20913095Y-21067810D01*
X20913095Y-21067810D02*
X20903571Y-21048762D01*
X20903571Y-21048762D02*
X20894048Y-21039238D01*
X20894048Y-21039238D02*
X20875000Y-21029714D01*
X20875000Y-21029714D02*
X20836905Y-21029714D01*
X20836905Y-21029714D02*
X20817857Y-21039238D01*
X20817857Y-21039238D02*
X20808333Y-21048762D01*
X20808333Y-21048762D02*
X20798810Y-21067810D01*
X21036905Y-20953524D02*
X21055952Y-20953524D01*
X21055952Y-20953524D02*
X21075000Y-20963048D01*
X21075000Y-20963048D02*
X21084524Y-20972571D01*
X21084524Y-20972571D02*
X21094048Y-20991619D01*
X21094048Y-20991619D02*
X21103571Y-21029714D01*
X21103571Y-21029714D02*
X21103571Y-21077333D01*
X21103571Y-21077333D02*
X21094048Y-21115429D01*
X21094048Y-21115429D02*
X21084524Y-21134476D01*
X21084524Y-21134476D02*
X21075000Y-21144000D01*
X21075000Y-21144000D02*
X21055952Y-21153524D01*
X21055952Y-21153524D02*
X21036905Y-21153524D01*
X21036905Y-21153524D02*
X21017857Y-21144000D01*
X21017857Y-21144000D02*
X21008333Y-21134476D01*
X21008333Y-21134476D02*
X20998810Y-21115429D01*
X20998810Y-21115429D02*
X20989286Y-21077333D01*
X20989286Y-21077333D02*
X20989286Y-21029714D01*
X20989286Y-21029714D02*
X20998810Y-20991619D01*
X20998810Y-20991619D02*
X21008333Y-20972571D01*
X21008333Y-20972571D02*
X21017857Y-20963048D01*
X21017857Y-20963048D02*
X21036905Y-20953524D01*
X21227381Y-20953524D02*
X21246429Y-20953524D01*
X21246429Y-20953524D02*
X21265476Y-20963048D01*
X21265476Y-20963048D02*
X21275000Y-20972571D01*
X21275000Y-20972571D02*
X21284524Y-20991619D01*
X21284524Y-20991619D02*
X21294048Y-21029714D01*
X21294048Y-21029714D02*
X21294048Y-21077333D01*
X21294048Y-21077333D02*
X21284524Y-21115429D01*
X21284524Y-21115429D02*
X21275000Y-21134476D01*
X21275000Y-21134476D02*
X21265476Y-21144000D01*
X21265476Y-21144000D02*
X21246429Y-21153524D01*
X21246429Y-21153524D02*
X21227381Y-21153524D01*
X21227381Y-21153524D02*
X21208333Y-21144000D01*
X21208333Y-21144000D02*
X21198810Y-21134476D01*
X21198810Y-21134476D02*
X21189286Y-21115429D01*
X21189286Y-21115429D02*
X21179762Y-21077333D01*
X21179762Y-21077333D02*
X21179762Y-21029714D01*
X21179762Y-21029714D02*
X21189286Y-20991619D01*
X21189286Y-20991619D02*
X21198810Y-20972571D01*
X21198810Y-20972571D02*
X21208333Y-20963048D01*
X21208333Y-20963048D02*
X21227381Y-20953524D01*
X21379762Y-21153524D02*
X21379762Y-21020190D01*
X21379762Y-21039238D02*
X21389286Y-21029714D01*
X21389286Y-21029714D02*
X21408333Y-21020190D01*
X21408333Y-21020190D02*
X21436905Y-21020190D01*
X21436905Y-21020190D02*
X21455952Y-21029714D01*
X21455952Y-21029714D02*
X21465476Y-21048762D01*
X21465476Y-21048762D02*
X21465476Y-21153524D01*
X21465476Y-21048762D02*
X21475000Y-21029714D01*
X21475000Y-21029714D02*
X21494048Y-21020190D01*
X21494048Y-21020190D02*
X21522619Y-21020190D01*
X21522619Y-21020190D02*
X21541667Y-21029714D01*
X21541667Y-21029714D02*
X21551191Y-21048762D01*
X21551191Y-21048762D02*
X21551191Y-21153524D01*
X21646429Y-21153524D02*
X21646429Y-21020190D01*
X21646429Y-21039238D02*
X21655952Y-21029714D01*
X21655952Y-21029714D02*
X21675000Y-21020190D01*
X21675000Y-21020190D02*
X21703572Y-21020190D01*
X21703572Y-21020190D02*
X21722619Y-21029714D01*
X21722619Y-21029714D02*
X21732143Y-21048762D01*
X21732143Y-21048762D02*
X21732143Y-21153524D01*
X21732143Y-21048762D02*
X21741667Y-21029714D01*
X21741667Y-21029714D02*
X21760714Y-21020190D01*
X21760714Y-21020190D02*
X21789286Y-21020190D01*
X21789286Y-21020190D02*
X21808333Y-21029714D01*
X21808333Y-21029714D02*
X21817857Y-21048762D01*
X21817857Y-21048762D02*
X21817857Y-21153524D01*
X22208333Y-20944000D02*
X22036905Y-21201143D01*
X22465476Y-20953524D02*
X22484524Y-20953524D01*
X22484524Y-20953524D02*
X22503572Y-20963048D01*
X22503572Y-20963048D02*
X22513095Y-20972571D01*
X22513095Y-20972571D02*
X22522619Y-20991619D01*
X22522619Y-20991619D02*
X22532143Y-21029714D01*
X22532143Y-21029714D02*
X22532143Y-21077333D01*
X22532143Y-21077333D02*
X22522619Y-21115429D01*
X22522619Y-21115429D02*
X22513095Y-21134476D01*
X22513095Y-21134476D02*
X22503572Y-21144000D01*
X22503572Y-21144000D02*
X22484524Y-21153524D01*
X22484524Y-21153524D02*
X22465476Y-21153524D01*
X22465476Y-21153524D02*
X22446429Y-21144000D01*
X22446429Y-21144000D02*
X22436905Y-21134476D01*
X22436905Y-21134476D02*
X22427381Y-21115429D01*
X22427381Y-21115429D02*
X22417857Y-21077333D01*
X22417857Y-21077333D02*
X22417857Y-21029714D01*
X22417857Y-21029714D02*
X22427381Y-20991619D01*
X22427381Y-20991619D02*
X22436905Y-20972571D01*
X22436905Y-20972571D02*
X22446429Y-20963048D01*
X22446429Y-20963048D02*
X22465476Y-20953524D01*
X22617857Y-21134476D02*
X22627381Y-21144000D01*
X22627381Y-21144000D02*
X22617857Y-21153524D01*
X22617857Y-21153524D02*
X22608333Y-21144000D01*
X22608333Y-21144000D02*
X22617857Y-21134476D01*
X22617857Y-21134476D02*
X22617857Y-21153524D01*
X22751191Y-20953524D02*
X22770238Y-20953524D01*
X22770238Y-20953524D02*
X22789286Y-20963048D01*
X22789286Y-20963048D02*
X22798810Y-20972571D01*
X22798810Y-20972571D02*
X22808333Y-20991619D01*
X22808333Y-20991619D02*
X22817857Y-21029714D01*
X22817857Y-21029714D02*
X22817857Y-21077333D01*
X22817857Y-21077333D02*
X22808333Y-21115429D01*
X22808333Y-21115429D02*
X22798810Y-21134476D01*
X22798810Y-21134476D02*
X22789286Y-21144000D01*
X22789286Y-21144000D02*
X22770238Y-21153524D01*
X22770238Y-21153524D02*
X22751191Y-21153524D01*
X22751191Y-21153524D02*
X22732143Y-21144000D01*
X22732143Y-21144000D02*
X22722619Y-21134476D01*
X22722619Y-21134476D02*
X22713095Y-21115429D01*
X22713095Y-21115429D02*
X22703572Y-21077333D01*
X22703572Y-21077333D02*
X22703572Y-21029714D01*
X22703572Y-21029714D02*
X22713095Y-20991619D01*
X22713095Y-20991619D02*
X22722619Y-20972571D01*
X22722619Y-20972571D02*
X22732143Y-20963048D01*
X22732143Y-20963048D02*
X22751191Y-20953524D01*
X22989286Y-20953524D02*
X22951191Y-20953524D01*
X22951191Y-20953524D02*
X22932143Y-20963048D01*
X22932143Y-20963048D02*
X22922619Y-20972571D01*
X22922619Y-20972571D02*
X22903572Y-21001143D01*
X22903572Y-21001143D02*
X22894048Y-21039238D01*
X22894048Y-21039238D02*
X22894048Y-21115429D01*
X22894048Y-21115429D02*
X22903572Y-21134476D01*
X22903572Y-21134476D02*
X22913095Y-21144000D01*
X22913095Y-21144000D02*
X22932143Y-21153524D01*
X22932143Y-21153524D02*
X22970238Y-21153524D01*
X22970238Y-21153524D02*
X22989286Y-21144000D01*
X22989286Y-21144000D02*
X22998810Y-21134476D01*
X22998810Y-21134476D02*
X23008333Y-21115429D01*
X23008333Y-21115429D02*
X23008333Y-21067810D01*
X23008333Y-21067810D02*
X22998810Y-21048762D01*
X22998810Y-21048762D02*
X22989286Y-21039238D01*
X22989286Y-21039238D02*
X22970238Y-21029714D01*
X22970238Y-21029714D02*
X22932143Y-21029714D01*
X22932143Y-21029714D02*
X22913095Y-21039238D01*
X22913095Y-21039238D02*
X22903572Y-21048762D01*
X22903572Y-21048762D02*
X22894048Y-21067810D01*
X23075000Y-20953524D02*
X23198810Y-20953524D01*
X23198810Y-20953524D02*
X23132143Y-21029714D01*
X23132143Y-21029714D02*
X23160714Y-21029714D01*
X23160714Y-21029714D02*
X23179762Y-21039238D01*
X23179762Y-21039238D02*
X23189286Y-21048762D01*
X23189286Y-21048762D02*
X23198810Y-21067810D01*
X23198810Y-21067810D02*
X23198810Y-21115429D01*
X23198810Y-21115429D02*
X23189286Y-21134476D01*
X23189286Y-21134476D02*
X23179762Y-21144000D01*
X23179762Y-21144000D02*
X23160714Y-21153524D01*
X23160714Y-21153524D02*
X23103572Y-21153524D01*
X23103572Y-21153524D02*
X23084524Y-21144000D01*
X23084524Y-21144000D02*
X23075000Y-21134476D01*
X23322619Y-20953524D02*
X23341667Y-20953524D01*
X23341667Y-20953524D02*
X23360714Y-20963048D01*
X23360714Y-20963048D02*
X23370238Y-20972571D01*
X23370238Y-20972571D02*
X23379762Y-20991619D01*
X23379762Y-20991619D02*
X23389286Y-21029714D01*
X23389286Y-21029714D02*
X23389286Y-21077333D01*
X23389286Y-21077333D02*
X23379762Y-21115429D01*
X23379762Y-21115429D02*
X23370238Y-21134476D01*
X23370238Y-21134476D02*
X23360714Y-21144000D01*
X23360714Y-21144000D02*
X23341667Y-21153524D01*
X23341667Y-21153524D02*
X23322619Y-21153524D01*
X23322619Y-21153524D02*
X23303572Y-21144000D01*
X23303572Y-21144000D02*
X23294048Y-21134476D01*
X23294048Y-21134476D02*
X23284524Y-21115429D01*
X23284524Y-21115429D02*
X23275000Y-21077333D01*
X23275000Y-21077333D02*
X23275000Y-21029714D01*
X23275000Y-21029714D02*
X23284524Y-20991619D01*
X23284524Y-20991619D02*
X23294048Y-20972571D01*
X23294048Y-20972571D02*
X23303572Y-20963048D01*
X23303572Y-20963048D02*
X23322619Y-20953524D01*
X23465476Y-20953524D02*
X23465476Y-20991619D01*
X23541667Y-20953524D02*
X23541667Y-20991619D01*
X23836905Y-21229714D02*
X23827381Y-21220190D01*
X23827381Y-21220190D02*
X23808334Y-21191619D01*
X23808334Y-21191619D02*
X23798810Y-21172571D01*
X23798810Y-21172571D02*
X23789286Y-21144000D01*
X23789286Y-21144000D02*
X23779762Y-21096381D01*
X23779762Y-21096381D02*
X23779762Y-21058286D01*
X23779762Y-21058286D02*
X23789286Y-21010667D01*
X23789286Y-21010667D02*
X23798810Y-20982095D01*
X23798810Y-20982095D02*
X23808334Y-20963048D01*
X23808334Y-20963048D02*
X23827381Y-20934476D01*
X23827381Y-20934476D02*
X23836905Y-20924952D01*
X24017857Y-21153524D02*
X23903572Y-21153524D01*
X23960714Y-21153524D02*
X23960714Y-20953524D01*
X23960714Y-20953524D02*
X23941667Y-20982095D01*
X23941667Y-20982095D02*
X23922619Y-21001143D01*
X23922619Y-21001143D02*
X23903572Y-21010667D01*
X24132143Y-21039238D02*
X24113095Y-21029714D01*
X24113095Y-21029714D02*
X24103572Y-21020190D01*
X24103572Y-21020190D02*
X24094048Y-21001143D01*
X24094048Y-21001143D02*
X24094048Y-20991619D01*
X24094048Y-20991619D02*
X24103572Y-20972571D01*
X24103572Y-20972571D02*
X24113095Y-20963048D01*
X24113095Y-20963048D02*
X24132143Y-20953524D01*
X24132143Y-20953524D02*
X24170238Y-20953524D01*
X24170238Y-20953524D02*
X24189286Y-20963048D01*
X24189286Y-20963048D02*
X24198810Y-20972571D01*
X24198810Y-20972571D02*
X24208334Y-20991619D01*
X24208334Y-20991619D02*
X24208334Y-21001143D01*
X24208334Y-21001143D02*
X24198810Y-21020190D01*
X24198810Y-21020190D02*
X24189286Y-21029714D01*
X24189286Y-21029714D02*
X24170238Y-21039238D01*
X24170238Y-21039238D02*
X24132143Y-21039238D01*
X24132143Y-21039238D02*
X24113095Y-21048762D01*
X24113095Y-21048762D02*
X24103572Y-21058286D01*
X24103572Y-21058286D02*
X24094048Y-21077333D01*
X24094048Y-21077333D02*
X24094048Y-21115429D01*
X24094048Y-21115429D02*
X24103572Y-21134476D01*
X24103572Y-21134476D02*
X24113095Y-21144000D01*
X24113095Y-21144000D02*
X24132143Y-21153524D01*
X24132143Y-21153524D02*
X24170238Y-21153524D01*
X24170238Y-21153524D02*
X24189286Y-21144000D01*
X24189286Y-21144000D02*
X24198810Y-21134476D01*
X24198810Y-21134476D02*
X24208334Y-21115429D01*
X24208334Y-21115429D02*
X24208334Y-21077333D01*
X24208334Y-21077333D02*
X24198810Y-21058286D01*
X24198810Y-21058286D02*
X24189286Y-21048762D01*
X24189286Y-21048762D02*
X24170238Y-21039238D01*
X24446429Y-21153524D02*
X24446429Y-20953524D01*
X24532143Y-21153524D02*
X24532143Y-21048762D01*
X24532143Y-21048762D02*
X24522619Y-21029714D01*
X24522619Y-21029714D02*
X24503572Y-21020190D01*
X24503572Y-21020190D02*
X24475000Y-21020190D01*
X24475000Y-21020190D02*
X24455953Y-21029714D01*
X24455953Y-21029714D02*
X24446429Y-21039238D01*
X24655953Y-21153524D02*
X24636905Y-21144000D01*
X24636905Y-21144000D02*
X24627381Y-21134476D01*
X24627381Y-21134476D02*
X24617857Y-21115429D01*
X24617857Y-21115429D02*
X24617857Y-21058286D01*
X24617857Y-21058286D02*
X24627381Y-21039238D01*
X24627381Y-21039238D02*
X24636905Y-21029714D01*
X24636905Y-21029714D02*
X24655953Y-21020190D01*
X24655953Y-21020190D02*
X24684524Y-21020190D01*
X24684524Y-21020190D02*
X24703572Y-21029714D01*
X24703572Y-21029714D02*
X24713096Y-21039238D01*
X24713096Y-21039238D02*
X24722619Y-21058286D01*
X24722619Y-21058286D02*
X24722619Y-21115429D01*
X24722619Y-21115429D02*
X24713096Y-21134476D01*
X24713096Y-21134476D02*
X24703572Y-21144000D01*
X24703572Y-21144000D02*
X24684524Y-21153524D01*
X24684524Y-21153524D02*
X24655953Y-21153524D01*
X24836905Y-21153524D02*
X24817857Y-21144000D01*
X24817857Y-21144000D02*
X24808334Y-21124952D01*
X24808334Y-21124952D02*
X24808334Y-20953524D01*
X24989286Y-21144000D02*
X24970238Y-21153524D01*
X24970238Y-21153524D02*
X24932143Y-21153524D01*
X24932143Y-21153524D02*
X24913096Y-21144000D01*
X24913096Y-21144000D02*
X24903572Y-21124952D01*
X24903572Y-21124952D02*
X24903572Y-21048762D01*
X24903572Y-21048762D02*
X24913096Y-21029714D01*
X24913096Y-21029714D02*
X24932143Y-21020190D01*
X24932143Y-21020190D02*
X24970238Y-21020190D01*
X24970238Y-21020190D02*
X24989286Y-21029714D01*
X24989286Y-21029714D02*
X24998810Y-21048762D01*
X24998810Y-21048762D02*
X24998810Y-21067810D01*
X24998810Y-21067810D02*
X24903572Y-21086857D01*
X25075000Y-21144000D02*
X25094048Y-21153524D01*
X25094048Y-21153524D02*
X25132143Y-21153524D01*
X25132143Y-21153524D02*
X25151191Y-21144000D01*
X25151191Y-21144000D02*
X25160715Y-21124952D01*
X25160715Y-21124952D02*
X25160715Y-21115429D01*
X25160715Y-21115429D02*
X25151191Y-21096381D01*
X25151191Y-21096381D02*
X25132143Y-21086857D01*
X25132143Y-21086857D02*
X25103572Y-21086857D01*
X25103572Y-21086857D02*
X25084524Y-21077333D01*
X25084524Y-21077333D02*
X25075000Y-21058286D01*
X25075000Y-21058286D02*
X25075000Y-21048762D01*
X25075000Y-21048762D02*
X25084524Y-21029714D01*
X25084524Y-21029714D02*
X25103572Y-21020190D01*
X25103572Y-21020190D02*
X25132143Y-21020190D01*
X25132143Y-21020190D02*
X25151191Y-21029714D01*
X25227381Y-21229714D02*
X25236905Y-21220190D01*
X25236905Y-21220190D02*
X25255953Y-21191619D01*
X25255953Y-21191619D02*
X25265477Y-21172571D01*
X25265477Y-21172571D02*
X25275000Y-21144000D01*
X25275000Y-21144000D02*
X25284524Y-21096381D01*
X25284524Y-21096381D02*
X25284524Y-21058286D01*
X25284524Y-21058286D02*
X25275000Y-21010667D01*
X25275000Y-21010667D02*
X25265477Y-20982095D01*
X25265477Y-20982095D02*
X25255953Y-20963048D01*
X25255953Y-20963048D02*
X25236905Y-20934476D01*
X25236905Y-20934476D02*
X25227381Y-20924952D01*
M02*
