%TF.GenerationSoftware,KiCad,Pcbnew,8.0.3*%
%TF.CreationDate,2025-06-03T03:01:33-07:00*%
%TF.ProjectId,MLU_BreakoutV2,4d4c555f-4272-4656-916b-6f757456322e,rev?*%
%TF.SameCoordinates,Original*%
%TF.FileFunction,Soldermask,Bot*%
%TF.FilePolarity,Negative*%
%FSLAX46Y46*%
G04 Gerber Fmt 4.6, Leading zero omitted, Abs format (unit mm)*
G04 Created by KiCad (PCBNEW 8.0.3) date 2025-06-03 03:01:33*
%MOMM*%
%LPD*%
G01*
G04 APERTURE LIST*
G04 Aperture macros list*
%AMRoundRect*
0 Rectangle with rounded corners*
0 $1 Rounding radius*
0 $2 $3 $4 $5 $6 $7 $8 $9 X,Y pos of 4 corners*
0 Add a 4 corners polygon primitive as box body*
4,1,4,$2,$3,$4,$5,$6,$7,$8,$9,$2,$3,0*
0 Add four circle primitives for the rounded corners*
1,1,$1+$1,$2,$3*
1,1,$1+$1,$4,$5*
1,1,$1+$1,$6,$7*
1,1,$1+$1,$8,$9*
0 Add four rect primitives between the rounded corners*
20,1,$1+$1,$2,$3,$4,$5,0*
20,1,$1+$1,$4,$5,$6,$7,0*
20,1,$1+$1,$6,$7,$8,$9,0*
20,1,$1+$1,$8,$9,$2,$3,0*%
G04 Aperture macros list end*
%ADD10C,1.066800*%
%ADD11C,1.574800*%
%ADD12C,2.971800*%
%ADD13C,3.200000*%
%ADD14R,1.000000X1.000000*%
%ADD15O,1.000000X1.000000*%
%ADD16RoundRect,0.102000X0.754000X0.754000X-0.754000X0.754000X-0.754000X-0.754000X0.754000X-0.754000X0*%
%ADD17C,1.712000*%
%ADD18R,1.700000X1.700000*%
%ADD19O,1.700000X1.700000*%
%ADD20R,1.320800X1.320800*%
%ADD21C,1.320800*%
%ADD22R,2.800000X2.800000*%
%ADD23O,2.800000X2.800000*%
%ADD24R,1.800000X1.800000*%
%ADD25C,1.800000*%
%ADD26R,1.498600X1.498600*%
%ADD27C,1.498600*%
%ADD28R,1.600000X1.600000*%
%ADD29C,1.600000*%
%ADD30R,1.300000X1.300000*%
%ADD31C,1.300000*%
%ADD32R,1.371600X1.371600*%
%ADD33C,1.371600*%
%ADD34C,3.250000*%
%ADD35R,1.400000X1.400000*%
%ADD36C,1.400000*%
%ADD37C,1.530000*%
%ADD38C,2.400000*%
%ADD39R,1.350000X1.350000*%
%ADD40O,1.350000X1.350000*%
%ADD41RoundRect,0.250000X0.550000X0.250000X-0.550000X0.250000X-0.550000X-0.250000X0.550000X-0.250000X0*%
G04 APERTURE END LIST*
D10*
%TO.C,J4*%
X187834648Y-65097800D03*
X178834651Y-65097800D03*
D11*
X181834650Y-61157800D03*
X184834649Y-61157800D03*
X181834650Y-64157799D03*
X184834649Y-64157799D03*
D12*
X186984650Y-62657800D03*
X179684649Y-62657800D03*
%TD*%
D13*
%TO.C,H3*%
X131680000Y-142940000D03*
%TD*%
D14*
%TO.C,JP22*%
X158235600Y-112120200D03*
D15*
X159505600Y-112120200D03*
%TD*%
D14*
%TO.C,JP16*%
X175310800Y-121671000D03*
D15*
X174040800Y-121671000D03*
%TD*%
D14*
%TO.C,JP39*%
X198997400Y-120136600D03*
D15*
X198997400Y-121406600D03*
%TD*%
D14*
%TO.C,JP26*%
X192648200Y-115894800D03*
D15*
X192648200Y-117164800D03*
%TD*%
D14*
%TO.C,JP25*%
X189448200Y-115894800D03*
D15*
X189448200Y-117164800D03*
%TD*%
D14*
%TO.C,JP46*%
X194386200Y-77952600D03*
D15*
X195656200Y-77952600D03*
%TD*%
D16*
%TO.C,J7*%
X233480000Y-62090000D03*
D17*
X233480000Y-64630000D03*
X230940000Y-62090000D03*
X230940000Y-64630000D03*
X228400000Y-62090000D03*
X228400000Y-64630000D03*
X225860000Y-62090000D03*
X225860000Y-64630000D03*
X223320000Y-62090000D03*
X223320000Y-64630000D03*
X220780000Y-62090000D03*
X220780000Y-64630000D03*
X218240000Y-62090000D03*
X218240000Y-64630000D03*
X215700000Y-62090000D03*
X215700000Y-64630000D03*
X213160000Y-62090000D03*
X213160000Y-64630000D03*
X210620000Y-62090000D03*
X210620000Y-64630000D03*
%TD*%
D14*
%TO.C,JP31*%
X208648200Y-115894800D03*
D15*
X208648200Y-117164800D03*
%TD*%
D18*
%TO.C,J3*%
X242773200Y-58674000D03*
D19*
X242773200Y-56134000D03*
X242773200Y-53594000D03*
%TD*%
D20*
%TO.C,C2*%
X154671400Y-104749600D03*
D21*
X152171400Y-104749600D03*
%TD*%
D11*
%TO.C,J19*%
X173844550Y-128885700D03*
X170844551Y-128885700D03*
X173844550Y-125885701D03*
X170844551Y-125885701D03*
D12*
X168694550Y-133205702D03*
X175994551Y-133205702D03*
%TD*%
D11*
%TO.C,J17*%
X184970000Y-128919998D03*
X181970001Y-128919998D03*
X184970000Y-125919999D03*
X181970001Y-125919999D03*
D12*
X179820000Y-133240000D03*
X187120001Y-133240000D03*
%TD*%
D16*
%TO.C,J13*%
X170738800Y-61696600D03*
D17*
X170738800Y-64236600D03*
X168198800Y-61696600D03*
X168198800Y-64236600D03*
X165658800Y-61696600D03*
X165658800Y-64236600D03*
X163118800Y-61696600D03*
X163118800Y-64236600D03*
X160578800Y-61696600D03*
X160578800Y-64236600D03*
X158038800Y-61696600D03*
X158038800Y-64236600D03*
X155498800Y-61696600D03*
X155498800Y-64236600D03*
X152958800Y-61696600D03*
X152958800Y-64236600D03*
X150418800Y-61696600D03*
X150418800Y-64236600D03*
X147878800Y-61696600D03*
X147878800Y-64236600D03*
%TD*%
D14*
%TO.C,JP42*%
X195656200Y-74676000D03*
D15*
X194386200Y-74676000D03*
%TD*%
D22*
%TO.C,D1*%
X229870000Y-106857800D03*
D23*
X229870000Y-119557800D03*
%TD*%
D14*
%TO.C,JP60*%
X170672600Y-121721000D03*
D15*
X169402600Y-121721000D03*
%TD*%
D11*
%TO.C,J22*%
X233349200Y-128890700D03*
X233349200Y-125890701D03*
%TD*%
D24*
%TO.C,D2*%
X217033000Y-114726800D03*
D25*
X219573000Y-114726800D03*
%TD*%
D14*
%TO.C,JP32*%
X205397400Y-121431600D03*
D15*
X205397400Y-120161600D03*
%TD*%
D14*
%TO.C,JP34*%
X186248200Y-120136600D03*
D15*
X186248200Y-121406600D03*
%TD*%
D18*
%TO.C,J8*%
X167081200Y-100482400D03*
D19*
X167081200Y-103022400D03*
X169621200Y-100482400D03*
X169621200Y-103022400D03*
X172161200Y-100482400D03*
X172161200Y-103022400D03*
X174701200Y-100482400D03*
X174701200Y-103022400D03*
X177241200Y-100482400D03*
X177241200Y-103022400D03*
X179781200Y-100482400D03*
X179781200Y-103022400D03*
X182321200Y-100482400D03*
X182321200Y-103022400D03*
X184861200Y-100482400D03*
X184861200Y-103022400D03*
X187401200Y-100482400D03*
X187401200Y-103022400D03*
X189941200Y-100482400D03*
X189941200Y-103022400D03*
X192481200Y-100482400D03*
X192481200Y-103022400D03*
X195021200Y-100482400D03*
X195021200Y-103022400D03*
X197561200Y-100482400D03*
X197561200Y-103022400D03*
X200101200Y-100482400D03*
X200101200Y-103022400D03*
X202641200Y-100482400D03*
X202641200Y-103022400D03*
X205181200Y-100482400D03*
X205181200Y-103022400D03*
X207721200Y-100482400D03*
X207721200Y-103022400D03*
X210261200Y-100482400D03*
X210261200Y-103022400D03*
X212801200Y-100482400D03*
X212801200Y-103022400D03*
X215341200Y-100482400D03*
X215341200Y-103022400D03*
X217881200Y-100482400D03*
X217881200Y-103022400D03*
X220421200Y-100482400D03*
X220421200Y-103022400D03*
%TD*%
D14*
%TO.C,JP38*%
X208597400Y-121436600D03*
D15*
X208597400Y-120166600D03*
%TD*%
D11*
%TO.C,J26*%
X201990000Y-128950000D03*
X198990001Y-128950000D03*
X195990002Y-128950000D03*
X192990003Y-128950000D03*
X201990000Y-125950001D03*
X198990001Y-125950001D03*
X195990002Y-125950001D03*
X192990003Y-125950001D03*
D12*
X190840002Y-133270002D03*
X204140001Y-133270002D03*
%TD*%
D14*
%TO.C,JP41*%
X160680400Y-72136000D03*
D15*
X160680400Y-70866000D03*
%TD*%
D11*
%TO.C,J20*%
X140666600Y-128855300D03*
X140666600Y-125855301D03*
%TD*%
D14*
%TO.C,JP40*%
X206349600Y-87325200D03*
D15*
X206349600Y-88595200D03*
X206349600Y-89865200D03*
%TD*%
D14*
%TO.C,JP48*%
X201853800Y-77952600D03*
D15*
X203123800Y-77952600D03*
%TD*%
D14*
%TO.C,JP30*%
X205448200Y-115914800D03*
D15*
X205448200Y-117184800D03*
%TD*%
D13*
%TO.C,H12*%
X250160000Y-56940000D03*
%TD*%
D11*
%TO.C,J23*%
X241249200Y-128880700D03*
X241249200Y-125880701D03*
%TD*%
%TO.C,J21*%
X225511400Y-128921199D03*
X225511400Y-125921200D03*
%TD*%
D13*
%TO.C,H8*%
X222805800Y-74368398D03*
%TD*%
D14*
%TO.C,JP19*%
X164200600Y-121615200D03*
D15*
X162930600Y-121615200D03*
%TD*%
D26*
%TO.C,U7*%
X235331000Y-71907400D03*
D27*
X235331000Y-74447400D03*
X235331000Y-76987400D03*
X235331000Y-79527400D03*
X235331000Y-82067400D03*
X235331000Y-84607400D03*
X235331000Y-87147400D03*
X235331000Y-89687400D03*
X235331000Y-92227400D03*
X242951000Y-92227400D03*
X242951000Y-89687400D03*
X242951000Y-87147400D03*
X242951000Y-84607400D03*
X242951000Y-82067400D03*
X242951000Y-79527400D03*
X242951000Y-76987400D03*
X242951000Y-74447400D03*
X242951000Y-71907400D03*
%TD*%
D18*
%TO.C,J28*%
X192811400Y-70993000D03*
D19*
X195351400Y-70993000D03*
X197891400Y-70993000D03*
X200431400Y-70993000D03*
%TD*%
D14*
%TO.C,JP33*%
X202197400Y-121436600D03*
D15*
X202197400Y-120166600D03*
%TD*%
D14*
%TO.C,JP27*%
X195848200Y-115914800D03*
D15*
X195848200Y-117184800D03*
%TD*%
D14*
%TO.C,JP67*%
X191897000Y-74676000D03*
D15*
X190627000Y-74676000D03*
%TD*%
D14*
%TO.C,JP13*%
X175310800Y-112146000D03*
D15*
X174040800Y-112146000D03*
%TD*%
D11*
%TO.C,J25*%
X217678000Y-128956900D03*
X217678000Y-125956901D03*
%TD*%
D14*
%TO.C,JP53*%
X144043400Y-72136000D03*
D15*
X144043400Y-70866000D03*
%TD*%
D14*
%TO.C,JP47*%
X198120000Y-77952600D03*
D15*
X199390000Y-77952600D03*
%TD*%
D14*
%TO.C,JP11*%
X170672600Y-115321000D03*
D15*
X169402600Y-115321000D03*
%TD*%
D11*
%TO.C,J6*%
X209890000Y-128949999D03*
X209890000Y-125950000D03*
%TD*%
D18*
%TO.C,J14*%
X160051000Y-108391000D03*
D19*
X162591000Y-108391000D03*
%TD*%
D14*
%TO.C,JP23*%
X159555600Y-115295200D03*
D15*
X158285600Y-115295200D03*
%TD*%
D13*
%TO.C,H9*%
X222805800Y-89368398D03*
%TD*%
D14*
%TO.C,JP10*%
X230200200Y-87172800D03*
D15*
X230200200Y-88442800D03*
X230200200Y-89712800D03*
%TD*%
D14*
%TO.C,JP58*%
X153619200Y-117729000D03*
D15*
X153619200Y-116459000D03*
X153619200Y-115189000D03*
%TD*%
D18*
%TO.C,J12*%
X137338200Y-71450600D03*
D19*
X137338200Y-68910600D03*
X137338200Y-66370600D03*
X137338200Y-63830600D03*
X137338200Y-61290600D03*
X137338200Y-58750600D03*
%TD*%
D14*
%TO.C,JP24*%
X159560600Y-121615200D03*
D15*
X158290600Y-121615200D03*
%TD*%
D11*
%TO.C,J18*%
X151739600Y-128875400D03*
X148739601Y-128875400D03*
X151739600Y-125875401D03*
X148739601Y-125875401D03*
D12*
X146589600Y-133195402D03*
X153889601Y-133195402D03*
%TD*%
D28*
%TO.C,U6*%
X128219200Y-90376000D03*
D29*
X130759200Y-90376000D03*
X133299200Y-90376000D03*
X135839200Y-90376000D03*
X138379200Y-90376000D03*
X140919200Y-90376000D03*
X143459200Y-90376000D03*
X145999200Y-90376000D03*
X148539200Y-90376000D03*
X151079200Y-90376000D03*
X153619200Y-90376000D03*
X156159200Y-90376000D03*
X158699200Y-90376000D03*
X161239200Y-90376000D03*
X163779200Y-90376000D03*
X166319200Y-90376000D03*
X168859200Y-90376000D03*
X171399200Y-90376000D03*
X173939200Y-90376000D03*
X176479200Y-90376000D03*
X179019200Y-90376000D03*
X181559200Y-90376000D03*
X184099200Y-90376000D03*
X186639200Y-90376000D03*
X186639200Y-75136000D03*
X184099200Y-75136000D03*
X181559200Y-75136000D03*
X179019200Y-75136000D03*
X176479200Y-75136000D03*
X173939200Y-75136000D03*
X171399200Y-75136000D03*
X168859200Y-75136000D03*
X166319200Y-75136000D03*
X163779200Y-75136000D03*
X161239200Y-75136000D03*
X158699200Y-75136000D03*
X156159200Y-75136000D03*
X153619200Y-75136000D03*
X151079200Y-75136000D03*
X148539200Y-75136000D03*
X145999200Y-75136000D03*
X143459200Y-75136000D03*
X140919200Y-75136000D03*
X138379200Y-75136000D03*
X135839200Y-75136000D03*
X133299200Y-75136000D03*
X130759200Y-75136000D03*
X128219200Y-75136000D03*
X130759200Y-77676000D03*
X173939200Y-87836000D03*
X173939200Y-85296000D03*
X173939200Y-82756000D03*
X173939200Y-80216000D03*
X173939200Y-77676000D03*
D28*
X134518400Y-87325200D03*
D29*
X137058400Y-87325200D03*
X139598400Y-87325200D03*
X142138400Y-87325200D03*
X144678400Y-87325200D03*
D30*
X141189200Y-77574400D03*
D31*
X141189200Y-79574400D03*
X141189200Y-81574400D03*
X143189200Y-81574400D03*
X143189200Y-79574400D03*
X143189200Y-77574400D03*
X128949200Y-81486000D03*
X128949200Y-84026000D03*
%TD*%
D32*
%TO.C,SW1*%
X215696800Y-108940600D03*
D33*
X218236800Y-108940600D03*
X220776800Y-108940600D03*
%TD*%
D14*
%TO.C,JP28*%
X199048200Y-115914800D03*
D15*
X199048200Y-117184800D03*
%TD*%
D13*
%TO.C,H1*%
X250160000Y-144440000D03*
%TD*%
D14*
%TO.C,JP49*%
X157378400Y-72136000D03*
D15*
X157378400Y-70866000D03*
%TD*%
D14*
%TO.C,JP12*%
X169377600Y-112146000D03*
D15*
X170647600Y-112146000D03*
%TD*%
D14*
%TO.C,JP57*%
X159560600Y-118455200D03*
D15*
X158290600Y-118455200D03*
%TD*%
D14*
%TO.C,JP50*%
X154076400Y-72136000D03*
D15*
X154076400Y-70866000D03*
%TD*%
D14*
%TO.C,JP14*%
X175310800Y-115321000D03*
D15*
X174040800Y-115321000D03*
%TD*%
D13*
%TO.C,H4*%
X131680000Y-56940000D03*
%TD*%
D11*
%TO.C,J11*%
X162850599Y-128879598D03*
X159850600Y-128879598D03*
X162850599Y-125879599D03*
X159850600Y-125879599D03*
D12*
X157700599Y-133199600D03*
X165000600Y-133199600D03*
%TD*%
D14*
%TO.C,JP15*%
X175310800Y-118496000D03*
D15*
X174040800Y-118496000D03*
%TD*%
D18*
%TO.C,J31*%
X171211600Y-108462400D03*
D19*
X173751600Y-108462400D03*
%TD*%
D14*
%TO.C,JP17*%
X179730400Y-117988000D03*
D15*
X179730400Y-116718000D03*
X179730400Y-115448000D03*
%TD*%
D24*
%TO.C,D3*%
X217012600Y-119532400D03*
D25*
X219552600Y-119532400D03*
%TD*%
D14*
%TO.C,JP43*%
X199415400Y-74676000D03*
D15*
X198145400Y-74676000D03*
%TD*%
D14*
%TO.C,JP3*%
X186248200Y-115894800D03*
D15*
X186248200Y-117164800D03*
%TD*%
D14*
%TO.C,JP44*%
X203149200Y-74676000D03*
D15*
X201879200Y-74676000D03*
%TD*%
D18*
%TO.C,J27*%
X201234200Y-111221200D03*
D19*
X201234200Y-108681200D03*
X198694200Y-111221200D03*
X198694200Y-108681200D03*
X196154200Y-111221200D03*
X196154200Y-108681200D03*
X193614200Y-111221200D03*
X193614200Y-108681200D03*
%TD*%
D14*
%TO.C,JP8*%
X230301800Y-71429800D03*
D15*
X230301800Y-72699800D03*
X230301800Y-73969800D03*
%TD*%
D34*
%TO.C,J9*%
X138404600Y-97282400D03*
X138404600Y-108712400D03*
D35*
X144754600Y-98552400D03*
D36*
X147294600Y-99822400D03*
X144754600Y-101092400D03*
X147294600Y-102362400D03*
X144754600Y-103632400D03*
X147294600Y-104902400D03*
X144754600Y-106172400D03*
X147294600Y-107442400D03*
D37*
X133324600Y-96672400D03*
X135024600Y-99212400D03*
X133324600Y-106782400D03*
X135024600Y-109322400D03*
D38*
X141454600Y-95122400D03*
X141454600Y-110872400D03*
%TD*%
D14*
%TO.C,JP37*%
X195797400Y-120136600D03*
D15*
X195797400Y-121406600D03*
%TD*%
D14*
%TO.C,JP20*%
X164200600Y-118445200D03*
D15*
X162930600Y-118445200D03*
%TD*%
D14*
%TO.C,JP29*%
X202248200Y-115914800D03*
D15*
X202248200Y-117184800D03*
%TD*%
D14*
%TO.C,JP59*%
X170672600Y-118496000D03*
D15*
X169402600Y-118496000D03*
%TD*%
D14*
%TO.C,JP21*%
X164200600Y-112120200D03*
D15*
X162930600Y-112120200D03*
%TD*%
D10*
%TO.C,J2*%
X200890248Y-65199400D03*
X191890251Y-65199400D03*
D11*
X194890250Y-61259400D03*
X197890249Y-61259400D03*
X194890250Y-64259399D03*
X197890249Y-64259399D03*
D12*
X200040250Y-62759400D03*
X192740249Y-62759400D03*
%TD*%
D14*
%TO.C,JP18*%
X164210600Y-115285200D03*
D15*
X162940600Y-115285200D03*
%TD*%
D10*
%TO.C,J5*%
X210740800Y-90539598D03*
X210740800Y-72539598D03*
D11*
X214680800Y-75539600D03*
X214680800Y-78539599D03*
X214680800Y-81539598D03*
X214680800Y-84539597D03*
X214680800Y-87539596D03*
X211680801Y-75539600D03*
X211680801Y-78539599D03*
X211680801Y-81539598D03*
X211680801Y-84539597D03*
X211680801Y-87539596D03*
%TD*%
D39*
%TO.C,J10*%
X157562800Y-96831400D03*
D40*
X159562800Y-96831400D03*
X157562800Y-98831400D03*
X159562800Y-98831400D03*
X157562800Y-100831400D03*
X159562800Y-100831400D03*
%TD*%
D14*
%TO.C,JP36*%
X192623600Y-120136600D03*
D15*
X192623600Y-121406600D03*
%TD*%
D14*
%TO.C,JP35*%
X189448600Y-120136600D03*
D15*
X189448600Y-121406600D03*
%TD*%
D14*
%TO.C,JP45*%
X190601600Y-77952600D03*
D15*
X191871600Y-77952600D03*
%TD*%
D14*
%TO.C,JP9*%
X230327200Y-76840000D03*
D15*
X230327200Y-78110000D03*
X230327200Y-79380000D03*
%TD*%
D14*
%TO.C,JP51*%
X150774400Y-72136000D03*
D15*
X150774400Y-70866000D03*
%TD*%
D14*
%TO.C,JP2*%
X198145400Y-81508600D03*
D15*
X196875400Y-81508600D03*
X195605400Y-81508600D03*
%TD*%
D14*
%TO.C,JP52*%
X147456800Y-72136000D03*
D15*
X147456800Y-70866000D03*
%TD*%
D41*
%TO.C,LED29*%
X253550000Y-128454873D03*
X253550000Y-131754873D03*
X248550000Y-128454873D03*
X248550000Y-131754873D03*
%TD*%
%TO.C,LED34*%
X132560000Y-121292400D03*
X132560000Y-124592400D03*
X127560000Y-121292400D03*
X127560000Y-124592400D03*
%TD*%
%TO.C,LED27*%
X253550000Y-115409419D03*
X253550000Y-118709419D03*
X248550000Y-115409419D03*
X248550000Y-118709419D03*
%TD*%
%TO.C,LED33*%
X132482600Y-114579400D03*
X132482600Y-117879400D03*
X127482600Y-114579400D03*
X127482600Y-117879400D03*
%TD*%
%TO.C,LED32*%
X132508000Y-68503800D03*
X132508000Y-71803800D03*
X127508000Y-68503800D03*
X127508000Y-71803800D03*
%TD*%
%TO.C,LED22*%
X253550000Y-82795784D03*
X253550000Y-86095784D03*
X248550000Y-82795784D03*
X248550000Y-86095784D03*
%TD*%
%TO.C,LED30*%
X253550000Y-134977600D03*
X253550000Y-138277600D03*
X248550000Y-134977600D03*
X248550000Y-138277600D03*
%TD*%
%TO.C,LED20*%
X253550000Y-69750330D03*
X253550000Y-73050330D03*
X248550000Y-69750330D03*
X248550000Y-73050330D03*
%TD*%
%TO.C,LED36*%
X132560000Y-134392400D03*
X132560000Y-137692400D03*
X127560000Y-134392400D03*
X127560000Y-137692400D03*
%TD*%
%TO.C,LED24*%
X253550000Y-95841238D03*
X253550000Y-99141238D03*
X248550000Y-95841238D03*
X248550000Y-99141238D03*
%TD*%
%TO.C,LED25*%
X253550000Y-102363965D03*
X253550000Y-105663965D03*
X248550000Y-102363965D03*
X248550000Y-105663965D03*
%TD*%
%TO.C,LED28*%
X253550000Y-121932146D03*
X253550000Y-125232146D03*
X248550000Y-121932146D03*
X248550000Y-125232146D03*
%TD*%
%TO.C,LED26*%
X253550000Y-108886692D03*
X253550000Y-112186692D03*
X248550000Y-108886692D03*
X248550000Y-112186692D03*
%TD*%
%TO.C,LED23*%
X253550000Y-89318511D03*
X253550000Y-92618511D03*
X248550000Y-89318511D03*
X248550000Y-92618511D03*
%TD*%
%TO.C,LED31*%
X132508000Y-61953800D03*
X132508000Y-65253800D03*
X127508000Y-61953800D03*
X127508000Y-65253800D03*
%TD*%
%TO.C,LED35*%
X132482600Y-127762000D03*
X132482600Y-131062000D03*
X127482600Y-127762000D03*
X127482600Y-131062000D03*
%TD*%
%TO.C,LED19*%
X253539000Y-63347600D03*
X253539000Y-66647600D03*
X248539000Y-63347600D03*
X248539000Y-66647600D03*
%TD*%
%TO.C,LED21*%
X253550000Y-76273057D03*
X253550000Y-79573057D03*
X248550000Y-76273057D03*
X248550000Y-79573057D03*
%TD*%
M02*
