%TF.GenerationSoftware,KiCad,Pcbnew,8.0.3*%
%TF.CreationDate,2025-06-03T03:01:33-07:00*%
%TF.ProjectId,MLU_BreakoutV2,4d4c555f-4272-4656-916b-6f757456322e,rev?*%
%TF.SameCoordinates,Original*%
%TF.FileFunction,Paste,Bot*%
%TF.FilePolarity,Positive*%
%FSLAX46Y46*%
G04 Gerber Fmt 4.6, Leading zero omitted, Abs format (unit mm)*
G04 Created by KiCad (PCBNEW 8.0.3) date 2025-06-03 03:01:33*
%MOMM*%
%LPD*%
G01*
G04 APERTURE LIST*
G04 Aperture macros list*
%AMRoundRect*
0 Rectangle with rounded corners*
0 $1 Rounding radius*
0 $2 $3 $4 $5 $6 $7 $8 $9 X,Y pos of 4 corners*
0 Add a 4 corners polygon primitive as box body*
4,1,4,$2,$3,$4,$5,$6,$7,$8,$9,$2,$3,0*
0 Add four circle primitives for the rounded corners*
1,1,$1+$1,$2,$3*
1,1,$1+$1,$4,$5*
1,1,$1+$1,$6,$7*
1,1,$1+$1,$8,$9*
0 Add four rect primitives between the rounded corners*
20,1,$1+$1,$2,$3,$4,$5,0*
20,1,$1+$1,$4,$5,$6,$7,0*
20,1,$1+$1,$6,$7,$8,$9,0*
20,1,$1+$1,$8,$9,$2,$3,0*%
G04 Aperture macros list end*
%ADD10RoundRect,0.250000X0.550000X0.250000X-0.550000X0.250000X-0.550000X-0.250000X0.550000X-0.250000X0*%
G04 APERTURE END LIST*
D10*
%TO.C,LED29*%
X253550000Y-128454873D03*
X253550000Y-131754873D03*
X248550000Y-128454873D03*
X248550000Y-131754873D03*
%TD*%
%TO.C,LED34*%
X132560000Y-121292400D03*
X132560000Y-124592400D03*
X127560000Y-121292400D03*
X127560000Y-124592400D03*
%TD*%
%TO.C,LED27*%
X253550000Y-115409419D03*
X253550000Y-118709419D03*
X248550000Y-115409419D03*
X248550000Y-118709419D03*
%TD*%
%TO.C,LED33*%
X132482600Y-114579400D03*
X132482600Y-117879400D03*
X127482600Y-114579400D03*
X127482600Y-117879400D03*
%TD*%
%TO.C,LED32*%
X132508000Y-68503800D03*
X132508000Y-71803800D03*
X127508000Y-68503800D03*
X127508000Y-71803800D03*
%TD*%
%TO.C,LED22*%
X253550000Y-82795784D03*
X253550000Y-86095784D03*
X248550000Y-82795784D03*
X248550000Y-86095784D03*
%TD*%
%TO.C,LED30*%
X253550000Y-134977600D03*
X253550000Y-138277600D03*
X248550000Y-134977600D03*
X248550000Y-138277600D03*
%TD*%
%TO.C,LED20*%
X253550000Y-69750330D03*
X253550000Y-73050330D03*
X248550000Y-69750330D03*
X248550000Y-73050330D03*
%TD*%
%TO.C,LED36*%
X132560000Y-134392400D03*
X132560000Y-137692400D03*
X127560000Y-134392400D03*
X127560000Y-137692400D03*
%TD*%
%TO.C,LED24*%
X253550000Y-95841238D03*
X253550000Y-99141238D03*
X248550000Y-95841238D03*
X248550000Y-99141238D03*
%TD*%
%TO.C,LED25*%
X253550000Y-102363965D03*
X253550000Y-105663965D03*
X248550000Y-102363965D03*
X248550000Y-105663965D03*
%TD*%
%TO.C,LED28*%
X253550000Y-121932146D03*
X253550000Y-125232146D03*
X248550000Y-121932146D03*
X248550000Y-125232146D03*
%TD*%
%TO.C,LED26*%
X253550000Y-108886692D03*
X253550000Y-112186692D03*
X248550000Y-108886692D03*
X248550000Y-112186692D03*
%TD*%
%TO.C,LED23*%
X253550000Y-89318511D03*
X253550000Y-92618511D03*
X248550000Y-89318511D03*
X248550000Y-92618511D03*
%TD*%
%TO.C,LED31*%
X132508000Y-61953800D03*
X132508000Y-65253800D03*
X127508000Y-61953800D03*
X127508000Y-65253800D03*
%TD*%
%TO.C,LED35*%
X132482600Y-127762000D03*
X132482600Y-131062000D03*
X127482600Y-127762000D03*
X127482600Y-131062000D03*
%TD*%
%TO.C,LED19*%
X253539000Y-63347600D03*
X253539000Y-66647600D03*
X248539000Y-63347600D03*
X248539000Y-66647600D03*
%TD*%
%TO.C,LED21*%
X253550000Y-76273057D03*
X253550000Y-79573057D03*
X248550000Y-76273057D03*
X248550000Y-79573057D03*
%TD*%
M02*
