%TF.GenerationSoftware,KiCad,Pcbnew,8.0.3*%
%TF.CreationDate,2025-06-03T03:01:33-07:00*%
%TF.ProjectId,MLU_BreakoutV2,4d4c555f-4272-4656-916b-6f757456322e,rev?*%
%TF.SameCoordinates,Original*%
%TF.FileFunction,Paste,Top*%
%TF.FilePolarity,Positive*%
%FSLAX46Y46*%
G04 Gerber Fmt 4.6, Leading zero omitted, Abs format (unit mm)*
G04 Created by KiCad (PCBNEW 8.0.3) date 2025-06-03 03:01:33*
%MOMM*%
%LPD*%
G01*
G04 APERTURE LIST*
G04 Aperture macros list*
%AMRoundRect*
0 Rectangle with rounded corners*
0 $1 Rounding radius*
0 $2 $3 $4 $5 $6 $7 $8 $9 X,Y pos of 4 corners*
0 Add a 4 corners polygon primitive as box body*
4,1,4,$2,$3,$4,$5,$6,$7,$8,$9,$2,$3,0*
0 Add four circle primitives for the rounded corners*
1,1,$1+$1,$2,$3*
1,1,$1+$1,$4,$5*
1,1,$1+$1,$6,$7*
1,1,$1+$1,$8,$9*
0 Add four rect primitives between the rounded corners*
20,1,$1+$1,$2,$3,$4,$5,0*
20,1,$1+$1,$4,$5,$6,$7,0*
20,1,$1+$1,$6,$7,$8,$9,0*
20,1,$1+$1,$8,$9,$2,$3,0*%
G04 Aperture macros list end*
%ADD10RoundRect,0.250000X0.450000X-0.350000X0.450000X0.350000X-0.450000X0.350000X-0.450000X-0.350000X0*%
%ADD11RoundRect,0.100000X-0.712500X-0.100000X0.712500X-0.100000X0.712500X0.100000X-0.712500X0.100000X0*%
%ADD12RoundRect,0.250000X-0.550000X-0.250000X0.550000X-0.250000X0.550000X0.250000X-0.550000X0.250000X0*%
%ADD13RoundRect,0.237500X-0.237500X0.300000X-0.237500X-0.300000X0.237500X-0.300000X0.237500X0.300000X0*%
%ADD14RoundRect,0.250000X-0.475000X0.337500X-0.475000X-0.337500X0.475000X-0.337500X0.475000X0.337500X0*%
%ADD15RoundRect,0.250000X-0.450000X0.350000X-0.450000X-0.350000X0.450000X-0.350000X0.450000X0.350000X0*%
%ADD16RoundRect,0.250000X0.350000X0.450000X-0.350000X0.450000X-0.350000X-0.450000X0.350000X-0.450000X0*%
%ADD17RoundRect,0.056250X-0.188750X-0.168750X0.188750X-0.168750X0.188750X0.168750X-0.188750X0.168750X0*%
%ADD18RoundRect,0.250000X-0.337500X-0.475000X0.337500X-0.475000X0.337500X0.475000X-0.337500X0.475000X0*%
%ADD19R,0.700000X0.640000*%
%ADD20R,0.700000X0.500000*%
%ADD21R,0.711200X1.701800*%
%ADD22R,6.553200X6.223000*%
G04 APERTURE END LIST*
D10*
%TO.C,R6*%
X214706200Y-115858800D03*
X214706200Y-113858800D03*
%TD*%
D11*
%TO.C,U2*%
X138679700Y-119903600D03*
X138679700Y-120553600D03*
X138679700Y-121203600D03*
X138679700Y-121853600D03*
X142904700Y-121853600D03*
X142904700Y-121203600D03*
X142904700Y-120553600D03*
X142904700Y-119903600D03*
%TD*%
D12*
%TO.C,LED14*%
X248510000Y-108976276D03*
X248510000Y-112276276D03*
X253510000Y-108976276D03*
X253510000Y-112276276D03*
%TD*%
%TO.C,LED13*%
X248510000Y-102438095D03*
X248510000Y-105738095D03*
X253510000Y-102438095D03*
X253510000Y-105738095D03*
%TD*%
%TO.C,LED1*%
X127508000Y-61953800D03*
X127508000Y-65253800D03*
X132508000Y-61953800D03*
X132508000Y-65253800D03*
%TD*%
%TO.C,LED18*%
X248510000Y-135129000D03*
X248510000Y-138429000D03*
X253510000Y-135129000D03*
X253510000Y-138429000D03*
%TD*%
D13*
%TO.C,C4*%
X233121200Y-72598200D03*
X233121200Y-74323200D03*
%TD*%
D12*
%TO.C,LED15*%
X248510000Y-115514457D03*
X248510000Y-118814457D03*
X253510000Y-115514457D03*
X253510000Y-118814457D03*
%TD*%
%TO.C,LED4*%
X127560000Y-121292400D03*
X127560000Y-124592400D03*
X132560000Y-121292400D03*
X132560000Y-124592400D03*
%TD*%
D14*
%TO.C,C3*%
X245541800Y-71809700D03*
X245541800Y-73884700D03*
%TD*%
D12*
%TO.C,LED5*%
X127560000Y-127842400D03*
X127560000Y-131142400D03*
X132560000Y-127842400D03*
X132560000Y-131142400D03*
%TD*%
D15*
%TO.C,R5*%
X192506600Y-85775800D03*
X192506600Y-87775800D03*
%TD*%
D16*
%TO.C,R9*%
X149396200Y-122550800D03*
X147396200Y-122550800D03*
%TD*%
%TO.C,R8*%
X149396200Y-120391800D03*
X147396200Y-120391800D03*
%TD*%
D12*
%TO.C,LED10*%
X248510000Y-82823552D03*
X248510000Y-86123552D03*
X253510000Y-82823552D03*
X253510000Y-86123552D03*
%TD*%
%TO.C,LED7*%
X248564400Y-63322200D03*
X248564400Y-66622200D03*
X253564400Y-63322200D03*
X253564400Y-66622200D03*
%TD*%
%TO.C,LED17*%
X248510000Y-128590819D03*
X248510000Y-131890819D03*
X253510000Y-128590819D03*
X253510000Y-131890819D03*
%TD*%
D17*
%TO.C,U4*%
X199942300Y-85791400D03*
X199942300Y-86441400D03*
X199942300Y-87091400D03*
X199942300Y-87741400D03*
X198002300Y-87741400D03*
X198002300Y-87091400D03*
X198002300Y-86441400D03*
X198002300Y-85791400D03*
%TD*%
D12*
%TO.C,LED16*%
X248510000Y-122052638D03*
X248510000Y-125352638D03*
X253510000Y-122052638D03*
X253510000Y-125352638D03*
%TD*%
D15*
%TO.C,R7*%
X214680800Y-118583200D03*
X214680800Y-120583200D03*
%TD*%
D12*
%TO.C,LED8*%
X248510000Y-69747190D03*
X248510000Y-73047190D03*
X253510000Y-69747190D03*
X253510000Y-73047190D03*
%TD*%
D15*
%TO.C,R2*%
X202091700Y-85807400D03*
X202091700Y-87807400D03*
%TD*%
D12*
%TO.C,LED2*%
X127508000Y-68503800D03*
X127508000Y-71803800D03*
X132508000Y-68503800D03*
X132508000Y-71803800D03*
%TD*%
D14*
%TO.C,C1*%
X225425000Y-108999200D03*
X225425000Y-111074200D03*
%TD*%
D15*
%TO.C,R4*%
X190271400Y-85775800D03*
X190271400Y-87775800D03*
%TD*%
D12*
%TO.C,LED6*%
X127560000Y-134392400D03*
X127560000Y-137692400D03*
X132560000Y-134392400D03*
X132560000Y-137692400D03*
%TD*%
D18*
%TO.C,C7*%
X237632299Y-103517700D03*
X239707299Y-103517700D03*
%TD*%
D12*
%TO.C,LED9*%
X248510000Y-76285371D03*
X248510000Y-79585371D03*
X253510000Y-76285371D03*
X253510000Y-79585371D03*
%TD*%
D13*
%TO.C,C5*%
X233121200Y-77449600D03*
X233121200Y-79174600D03*
%TD*%
D11*
%TO.C,U3*%
X237561900Y-120310000D03*
X237561900Y-120960000D03*
X237561900Y-121610000D03*
X237561900Y-122260000D03*
X241786900Y-122260000D03*
X241786900Y-121610000D03*
X241786900Y-120960000D03*
X241786900Y-120310000D03*
%TD*%
D12*
%TO.C,LED12*%
X248510000Y-95899914D03*
X248510000Y-99199914D03*
X253510000Y-95899914D03*
X253510000Y-99199914D03*
%TD*%
D19*
%TO.C,RN1*%
X230936800Y-84485400D03*
D20*
X230936800Y-83615400D03*
X230936800Y-82815400D03*
D19*
X230936800Y-81945400D03*
X229536800Y-81945400D03*
D20*
X229536800Y-82815400D03*
X229536800Y-83615400D03*
D19*
X229536800Y-84485400D03*
%TD*%
D15*
%TO.C,R1*%
X195944900Y-85782000D03*
X195944900Y-87782000D03*
%TD*%
D12*
%TO.C,LED3*%
X127486400Y-114604800D03*
X127486400Y-117904800D03*
X132486400Y-114604800D03*
X132486400Y-117904800D03*
%TD*%
D18*
%TO.C,C6*%
X237632299Y-101231700D03*
X239707299Y-101231700D03*
%TD*%
D21*
%TO.C,U1*%
X242177601Y-106337100D03*
D22*
X239877600Y-113093500D03*
D21*
X237577599Y-106337100D03*
%TD*%
D15*
%TO.C,R3*%
X235026200Y-119167400D03*
X235026200Y-121167400D03*
%TD*%
D12*
%TO.C,LED11*%
X248510000Y-89361733D03*
X248510000Y-92661733D03*
X253510000Y-89361733D03*
X253510000Y-92661733D03*
%TD*%
M02*
