M48
; DRILL file {KiCad 8.0.3} date 2025-06-03T03:01:31-0700
; FORMAT={-:-/ absolute / inch / decimal}
; #@! TF.CreationDate,2025-06-03T03:01:31-07:00
; #@! TF.GenerationSoftware,Kicad,Pcbnew,8.0.3
; #@! TF.FileFunction,Plated,1,4,PTH
FMAT,2
INCH
; #@! TA.AperFunction,Plated,PTH,ViaDrill
T1C0.0118
; #@! TA.AperFunction,Plated,PTH,ComponentDrill
T2C0.0256
; #@! TA.AperFunction,Plated,PTH,ComponentDrill
T3C0.0315
; #@! TA.AperFunction,Plated,PTH,ComponentDrill
T4C0.0320
; #@! TA.AperFunction,Plated,PTH,ComponentDrill
T5C0.0340
; #@! TA.AperFunction,Plated,PTH,ComponentDrill
T6C0.0354
; #@! TA.AperFunction,Plated,PTH,ComponentDrill
T7C0.0390
; #@! TA.AperFunction,Plated,PTH,ComponentDrill
T8C0.0394
; #@! TA.AperFunction,Plated,PTH,ComponentDrill
T9C0.0402
; #@! TA.AperFunction,Plated,PTH,ComponentDrill
T10C0.0420
; #@! TA.AperFunction,Plated,PTH,ComponentDrill
T11C0.0433
; #@! TA.AperFunction,Plated,PTH,ComponentDrill
T12C0.0551
; #@! TA.AperFunction,Plated,PTH,ComponentDrill
T13C0.0630
; #@! TA.AperFunction,Plated,PTH,ComponentDrill
T14C0.0970
%
G90
G05
T1
X5.028Y-4.425
X5.087Y-3.007
X5.0934Y-2.5558
X5.1094Y-2.7779
X5.1095Y-4.4987
X5.1096Y-4.8778
X5.1099Y-2.7107
X5.1108Y-5.1147
X5.1133Y-5.3701
X5.119Y-2.484
X5.1195Y-5.2701
X5.12Y-2.439
X5.1225Y-4.5789
X5.1236Y-4.7633
X5.128Y-2.852
X5.1327Y-5.0525
X5.1642Y-3.2063
X5.173Y-2.877
X5.1929Y-3.0287
X5.2264Y-3.0287
X5.2701Y-2.8718
X5.2749Y-2.5842
X5.2819Y-2.5346
X5.2834Y-3.0202
X5.3053Y-2.8303
X5.3083Y-2.5862
X5.3146Y-2.5295
X5.3152Y-3.0185
X5.3315Y-2.8909
X5.3382Y-2.824
X5.3417Y-2.5894
X5.3425Y-2.4673
X5.3461Y-2.5335
X5.3492Y-3.2557
X5.3591Y-2.3606
X5.3768Y-3.0406
X5.3866Y-3.3634
X5.3886Y-3.5098
X5.401Y-3.912
X5.4114Y-3.326
X5.427Y-3.356
X5.449Y-3.958
X5.4732Y-2.576
X5.4755Y-2.518
X5.4761Y-5.1701
X5.4767Y-4.641
X5.4767Y-4.845
X5.4776Y-3.0199
X5.4776Y-3.0606
X5.4795Y-3.0965
X5.4825Y-3.1648
X5.4831Y-3.2311
X5.4929Y-2.8724
X5.502Y-2.3268
X5.5079Y-3.3327
X5.5086Y-4.6396
X5.5188Y-2.5262
X5.5207Y-2.7872
X5.525Y-2.876
X5.526Y-2.8202
X5.5415Y-2.7402
X5.545Y-3.395
X5.5464Y-2.5256
X5.5532Y-5.1242
X5.563Y-3.3287
X5.5634Y-3.2701
X5.5685Y-2.8455
X5.5686Y-2.7206
X5.5709Y-2.5484
X5.5842Y-2.6909
X5.593Y-5.115
X5.5945Y-2.8315
X5.612Y-3.901
X5.613Y-3.987
X5.62Y-3.625
X5.6228Y-2.8461
X5.627Y-4.85
X5.629Y-4.666
X5.6305Y-3.275
X5.6311Y-3.356
X5.6343Y-3.326
X5.6571Y-3.4028
X5.661Y-3.796
X5.6823Y-3.015
X5.7039Y-3.0402
X5.7039Y-3.137
X5.7115Y-2.9251
X5.7162Y-3.3159
X5.7346Y-2.7027
X5.7398Y-2.8693
X5.746Y-3.855
X5.7488Y-2.3898
X5.7539Y-3.4283
X5.7583Y-2.7264
X5.7649Y-3.8361
X5.7739Y-3.8642
X5.7755Y-3.404
X5.7844Y-3.0312
X5.7932Y-3.7669
X5.795Y-2.932
X5.7982Y-3.4228
X5.803Y-4.668
X5.811Y-3.273
X5.811Y-3.4886
X5.8169Y-3.7831
X5.8186Y-3.032
X5.8248Y-3.0608
X5.839Y-2.649
X5.8497Y-3.7877
X5.861Y-3.201
X5.8653Y-3.885
X5.8692Y-4.0047
X5.8704Y-3.0793
X5.875Y-3.777
X5.8813Y-3.2753
X5.8874Y-3.428
X5.8878Y-3.3933
X5.8948Y-3.885
X5.8948Y-3.983
X5.898Y-4.049
X5.898Y-4.895
X5.9101Y-3.2564
X5.928Y-4.124
X5.93Y-4.78
X5.95Y-3.2315
X5.9697Y-3.133
X5.9778Y-3.2913
X5.9893Y-2.741
X6.001Y-2.92
X6.008Y-2.675
X6.008Y-2.86
X6.013Y-2.7173
X6.0292Y-3.9498
X6.032Y-3.2506
X6.0323Y-3.1656
X6.05Y-3.929
X6.0697Y-3.275
X6.0724Y-2.7169
X6.0913Y-3.4539
X6.103Y-3.859
X6.1185Y-3.428
X6.1285Y-3.4002
X6.1395Y-2.7094
X6.155Y-3.2967
X6.1688Y-2.7056
X6.1697Y-3.4291
X6.1954Y-4.1344
X6.1964Y-2.651
X6.2015Y-4.2145
X6.2033Y-3.3488
X6.2051Y-2.7055
X6.2189Y-3.2316
X6.2197Y-3.1673
X6.2213Y-3.6657
X6.234Y-2.479
X6.2505Y-4.0555
X6.2512Y-2.7776
X6.2535Y-3.4929
X6.2591Y-3.228
X6.2626Y-2.8366
X6.276Y-3.4765
X6.2795Y-2.7095
X6.296Y-3.741
X6.302Y-4.596
X6.3051Y-2.735
X6.307Y-4.109
X6.315Y-4.883
X6.3204Y-3.7001
X6.3232Y-3.4669
X6.324Y-3.6421
X6.331Y-4.006
X6.3402Y-3.3724
X6.3405Y-4.0755
X6.36Y-3.774
X6.3678Y-3.3333
X6.371Y-3.226
X6.3713Y-2.3878
X6.3713Y-3.4012
X6.375Y-3.286
X6.381Y-3.8177
X6.389Y-2.6697
X6.39Y-4.596
X6.3913Y-2.6217
X6.3921Y-3.5232
X6.393Y-2.867
X6.398Y-3.6681
X6.4043Y-3.4354
X6.4051Y-3.7543
X6.4103Y-2.9897
X6.4147Y-3.1623
X6.4154Y-3.8528
X6.42Y-4.871
X6.4295Y-3.9028
X6.4333Y-2.7221
X6.4335Y-3.2791
X6.435Y-3.7457
X6.437Y-4.595
X6.4417Y-3.8106
X6.452Y-2.805
X6.4529Y-2.6315
X6.4571Y-3.8699
X6.4629Y-2.765
X6.4685Y-2.6661
X6.4705Y-3.9488
X6.472Y-2.545
X6.487Y-3.3744
X6.4891Y-3.5044
X6.49Y-2.863
X6.4961Y-4.2981
X6.498Y-4.596
X6.4981Y-3.8756
X6.5Y-3.003
X6.5012Y-4.1724
X6.504Y-4.2018
X6.5065Y-3.5949
X6.5128Y-3.4617
X6.5321Y-3.8715
X6.5472Y-2.3673
X6.5474Y-3.7558
X6.549Y-4.596
X6.5577Y-4.1827
X6.56Y-4.247
X6.5603Y-4.345
X6.5654Y-3.6787
X6.571Y-3.0329
X6.571Y-4.448
X6.5765Y-3.739
X6.5931Y-3.6492
X6.594Y-4.72
X6.599Y-4.382
X6.609Y-4.838
X6.6106Y-3.7559
X6.626Y-3.8805
X6.6331Y-2.6303
X6.651Y-3.482
X6.6555Y-3.2949
X6.6736Y-2.754
X6.674Y-4.86
X6.678Y-3.6268
X6.679Y-2.866
X6.6793Y-2.8188
X6.683Y-4.478
X6.6854Y-3.6868
X6.69Y-3.1633
X6.6968Y-3.2204
X6.7091Y-3.6602
X6.72Y-3.37
X6.7283Y-2.6193
X6.731Y-2.8492
X6.7317Y-2.6665
X6.7319Y-3.824
X6.74Y-4.597
X6.742Y-4.478
X6.743Y-3.44
X6.7437Y-3.6835
X6.7484Y-3.5089
X6.7493Y-3.7976
X6.758Y-4.72
X6.7669Y-3.6452
X6.774Y-3.115
X6.774Y-3.3912
X6.7857Y-3.0223
X6.8092Y-3.7307
X6.8114Y-3.8047
X6.813Y-4.478
X6.8157Y-4.856
X6.8165Y-3.6862
X6.8181Y-4.8866
X6.826Y-3.6587
X6.8287Y-4.1429
X6.835Y-4.721
X6.837Y-3.8461
X6.843Y-4.612
X6.8536Y-3.6483
X6.8787Y-4.8551
X6.8833Y-2.8593
X6.889Y-3.505
X6.8907Y-3.7206
X6.8981Y-3.0341
X6.8994Y-4.1338
X6.9042Y-2.8384
X6.9056Y-3.3875
X6.906Y-3.1882
X6.9118Y-2.5854
X6.915Y-2.549
X6.927Y-3.123
X6.9281Y-4.1271
X6.9339Y-4.2217
X6.9381Y-2.8881
X6.939Y-2.825
X6.9408Y-3.7115
X6.9422Y-3.7673
X6.9549Y-4.1421
X6.9587Y-4.5387
X6.9594Y-2.6232
X6.96Y-4.617
X6.97Y-2.597
X6.9852Y-4.6604
X6.9897Y-3.7532
X7.004Y-4.497
X7.0445Y-3.6123
X7.0665Y-3.0484
X7.0819Y-3.1508
X7.1106Y-3.2576
X7.1154Y-3.822
X7.118Y-3.73
X7.118Y-3.991
X7.1227Y-3.1582
X7.1268Y-2.6917
X7.1271Y-3.1946
X7.144Y-3.893
X7.1484Y-4.228
X7.1579Y-3.6209
X7.1579Y-4.1434
X7.1588Y-4.2003
X7.162Y-3.732
X7.1681Y-3.1055
X7.171Y-4.1734
X7.1718Y-3.2098
X7.208Y-3.253
X7.2083Y-2.6799
X7.2113Y-3.8453
X7.2468Y-3.3416
X7.2551Y-3.1224
X7.2558Y-3.2102
X7.2748Y-3.415
X7.2832Y-3.4433
X7.2947Y-3.3895
X7.2999Y-3.8528
X7.305Y-3.2293
X7.3122Y-3.8217
X7.328Y-2.868
X7.334Y-3.716
X7.3437Y-3.8189
X7.3514Y-3.1581
X7.352Y-3.243
X7.354Y-4.516
X7.3715Y-3.2208
X7.3725Y-3.5148
X7.3823Y-2.6724
X7.3839Y-4.1323
X7.388Y-4.552
X7.4012Y-3.1543
X7.4202Y-2.6762
X7.4256Y-3.226
X7.4281Y-4.156
X7.4429Y-3.1102
X7.4496Y-3.8606
X7.4515Y-3.6185
X7.454Y-3.317
X7.4567Y-2.7177
X7.4675Y-2.6862
X7.473Y-4.8598
X7.4815Y-3.5953
X7.4821Y-4.8317
X7.5007Y-3.8799
X7.5031Y-3.8209
X7.505Y-2.842
X7.5193Y-3.4634
X7.5212Y-3.6275
X7.537Y-4.841
X7.5412Y-3.6711
X7.5472Y-3.7
X7.5526Y-3.8151
X7.5533Y-3.7562
X7.5554Y-3.7857
X7.5571Y-3.1394
X7.5597Y-3.7268
X7.5606Y-3.8543
X7.579Y-3.4557
X7.5956Y-4.8565
X7.6061Y-4.1102
X7.6063Y-4.1437
X7.6102Y-4.172
X7.6192Y-4.8746
X7.62Y-3.525
X7.6208Y-3.7524
X7.6209Y-3.7815
X7.6209Y-3.815
X7.6232Y-4.2043
X7.6238Y-3.6629
X7.6244Y-3.6945
X7.6289Y-3.724
X7.6323Y-3.8535
X7.639Y-4.899
X7.6449Y-2.7126
X7.645Y-3.377
X7.648Y-3.545
X7.6496Y-2.6813
X7.6567Y-3.5996
X7.663Y-4.9546
X7.667Y-4.8627
X7.668Y-4.223
X7.702Y-4.844
X7.7114Y-3.753
X7.7255Y-3.7869
X7.7272Y-3.1413
X7.728Y-3.5871
X7.7331Y-2.6819
X7.7342Y-4.4622
X7.7476Y-4.1669
X7.7508Y-2.7047
X7.7508Y-2.7594
X7.7556Y-3.7974
X7.7559Y-4.1386
X7.7583Y-2.8385
X7.7615Y-4.4508
X7.763Y-3.326
X7.7685Y-4.1937
X7.769Y-4.225
X7.77Y-5.017
X7.7772Y-3.1421
X7.78Y-3.495
X7.7936Y-3.8442
X7.8035Y-3.3126
X7.8275Y-3.6304
X7.835Y-3.409
X7.8405Y-3.6635
X7.8407Y-2.8074
X7.8608Y-3.3176
X7.8638Y-3.2882
X7.872Y-5.013
X7.8768Y-3.1996
X7.8826Y-4.849
X7.8865Y-3.7095
X7.89Y-4.906
X7.9035Y-3.5224
X7.9083Y-3.7293
X7.9087Y-3.3165
X7.9307Y-3.5591
X7.9323Y-4.8943
X7.95Y-3.8315
X7.956Y-3.324
X7.969Y-4.848
X7.9818Y-2.8571
X8.014Y-4.848
X8.0157Y-3.5626
X8.0243Y-4.4457
X8.0264Y-3.3307
X8.0268Y-3.2043
X8.034Y-5.117
X8.0528Y-2.8555
X8.061Y-2.9512
X8.063Y-4.1823
X8.0638Y-4.2197
X8.0677Y-4.15
X8.0754Y-4.3699
X8.0799Y-4.4382
X8.1067Y-4.122
X8.112Y-5.123
X8.122Y-4.439
X8.122Y-4.503
X8.1299Y-4.1508
X8.1303Y-4.1831
X8.1331Y-4.2173
X8.1491Y-3.7681
X8.1635Y-3.7139
X8.1652Y-3.7433
X8.174Y-3.8516
X8.1791Y-3.3138
X8.187Y-3.378
X8.2125Y-3.7431
X8.2132Y-3.7097
X8.2252Y-3.263
X8.2382Y-3.0315
X8.2472Y-4.1516
X8.2476Y-3.376
X8.25Y-3.7028
X8.261Y-3.288
X8.2728Y-4.1787
X8.2736Y-3.7799
X8.2748Y-3.848
X8.3039Y-4.3394
X8.3083Y-3.0335
X8.3096Y-3.7049
X8.3205Y-3.8496
X8.3213Y-4.1264
X8.3229Y-3.6579
X8.333Y-4.912
X8.338Y-5.004
X8.3387Y-3.6343
X8.3459Y-4.2608
X8.3575Y-4.1504
X8.3598Y-3.8465
X8.3669Y-4.3618
X8.3677Y-3.7831
X8.3715Y-4.8901
X8.3976Y-4.8764
X8.417Y-4.1969
X8.4402Y-3.6378
X8.4487Y-3.5617
X8.454Y-4.412
X8.4542Y-4.9522
X8.455Y-4.818
X8.4736Y-4.9299
X8.4782Y-3.6312
X8.4803Y-3.6634
X8.4823Y-3.5643
X8.4917Y-3.0421
X8.5341Y-3.5677
X8.5433Y-3.6972
X8.5433Y-3.8701
X8.5674Y-3.565
X8.5731Y-2.9971
X8.5874Y-3.8465
X8.6252Y-3.8783
X8.6274Y-2.9399
X8.6291Y-2.9063
X8.6762Y-3.59
X8.6898Y-3.8433
X8.7235Y-3.589
X8.7323Y-4.0882
X8.7386Y-3.8756
X8.7579Y-4.1094
X8.7602Y-3.9146
X8.7756Y-4.0339
X8.7965Y-3.7186
X8.798Y-3.232
X8.7985Y-4.0582
X8.8037Y-3.69
X8.8054Y-3.6605
X8.8182Y-3.7717
X8.8187Y-3.8073
X8.8188Y-3.2652
X8.8189Y-3.7382
X8.8201Y-3.8421
X8.8262Y-3.875
X8.8272Y-3.9102
X8.8573Y-3.1783
X8.8701Y-2.6579
X8.875Y-4.432
X8.8804Y-3.1521
X8.8858Y-3.6911
X8.8887Y-3.6618
X8.905Y-3.8781
X8.9109Y-4.0053
X8.9128Y-3.9348
X8.9236Y-4.0319
X8.9306Y-3.7581
X8.9333Y-3.7247
X8.9354Y-3.1024
X8.9354Y-3.1646
X8.9397Y-3.6919
X8.9398Y-3.8201
X8.9439Y-3.7869
X8.9531Y-3.8508
X8.9563Y-3.2059
X8.9579Y-3.8917
X8.9921Y-3.9374
X9.0059Y-3.1925
X9.0128Y-3.9616
X9.0205Y-2.9126
X9.021Y-2.821
X9.0295Y-3.6528
X9.0609Y-3.8116
X9.0876Y-3.7991
X9.088Y-3.364
X9.0909Y-3.6528
X9.117Y-3.188
X9.133Y-3.245
X9.1425Y-3.0535
X9.175Y-3.414
X9.248Y-4.45
X9.257Y-4.63
X9.267Y-4.181
X9.272Y-4.844
X9.305Y-4.674
X9.341Y-4.679
X9.354Y-3.915
X9.435Y-3.914
X9.521Y-4.685
X9.522Y-4.861
X9.667Y-2.975
X9.707Y-2.699
X9.8603Y-2.9906
X9.8652Y-4.8942
X9.8716Y-3.0624
X9.8728Y-4.8018
X9.8762Y-4.5424
X9.879Y-3.513
X9.8806Y-4.1227
X9.881Y-2.491
X9.8817Y-5.3143
X9.8817Y-5.1406
X9.8819Y-4.3775
X9.8842Y-4.6177
X9.885Y-2.54
X9.8853Y-3.853
X9.8853Y-3.333
X9.8879Y-4.0185
X9.8887Y-2.7307
X9.8887Y-5.0554
X9.8903Y-5.3924
X9.8926Y-2.8267
X9.894Y-3.5985
X9.895Y-3.7636
X9.895Y-4.2847
X9.8982Y-3.2408
X9.903Y-5.455
T2
X5.671Y-2.79
X5.671Y-2.84
X5.8054Y-2.79
X5.8054Y-2.84
X5.936Y-2.79
X5.936Y-2.84
X6.048Y-4.535
X6.048Y-4.585
X6.048Y-4.635
X6.066Y-2.79
X6.066Y-2.84
X6.196Y-2.79
X6.196Y-2.84
X6.2297Y-4.4142
X6.2317Y-4.5392
X6.2319Y-4.6636
X6.2319Y-4.788
X6.2797Y-4.4142
X6.2817Y-4.5392
X6.2819Y-4.6636
X6.2819Y-4.788
X6.326Y-2.79
X6.326Y-2.84
X6.4146Y-4.4142
X6.4146Y-4.6632
X6.4146Y-4.788
X6.415Y-4.5388
X6.4646Y-4.4142
X6.4646Y-4.6632
X6.4646Y-4.788
X6.465Y-4.5388
X6.6684Y-4.4152
X6.6694Y-4.5402
X6.6694Y-4.6652
X6.6694Y-4.7922
X6.7184Y-4.4152
X6.7194Y-4.5402
X6.7194Y-4.6652
X6.7194Y-4.7922
X6.852Y-4.4152
X6.852Y-4.5402
X6.852Y-4.6652
X6.852Y-4.7902
X6.902Y-4.4152
X6.902Y-4.5402
X6.902Y-4.6652
X6.902Y-4.7902
X7.076Y-4.5452
X7.076Y-4.5952
X7.076Y-4.6452
X7.3326Y-4.5628
X7.3326Y-4.6128
X7.3326Y-4.7298
X7.3326Y-4.7798
X7.4586Y-4.5628
X7.4586Y-4.6128
X7.4586Y-4.7298
X7.4586Y-4.7798
X7.504Y-3.069
X7.505Y-2.94
X7.554Y-3.069
X7.555Y-2.94
X7.5836Y-4.7298
X7.5836Y-4.7798
X7.5846Y-4.5628
X7.5846Y-4.6128
X7.653Y-2.94
X7.653Y-3.069
X7.701Y-3.209
X7.703Y-2.94
X7.703Y-3.069
X7.7086Y-4.7298
X7.7086Y-4.7798
X7.7106Y-4.5636
X7.7106Y-4.6136
X7.751Y-3.209
X7.8Y-3.069
X7.801Y-2.94
X7.801Y-3.209
X7.8345Y-4.7298
X7.8345Y-4.7798
X7.8365Y-4.5636
X7.8365Y-4.6136
X7.85Y-3.069
X7.851Y-2.94
X7.947Y-3.069
X7.948Y-2.94
X7.9605Y-4.731
X7.9605Y-4.781
X7.9625Y-4.5636
X7.9625Y-4.6136
X7.997Y-3.069
X7.998Y-2.94
X8.0865Y-4.7308
X8.0865Y-4.7808
X8.0885Y-4.5636
X8.0885Y-4.6136
X8.124Y-3.438
X8.124Y-3.488
X8.124Y-3.538
X8.2125Y-4.731
X8.2125Y-4.781
X8.2145Y-4.5628
X8.2145Y-4.6128
X9.063Y-3.432
X9.063Y-3.482
X9.063Y-3.532
X9.067Y-2.8122
X9.067Y-2.8622
X9.067Y-2.9122
X9.068Y-3.0252
X9.068Y-3.0752
X9.068Y-3.1252
T3
X5.0767Y-3.2081
X5.0767Y-3.3081
X5.5586Y-3.0541
X5.5586Y-3.1329
X5.5586Y-3.2116
X5.6374Y-3.0541
X5.6374Y-3.1329
X5.6374Y-3.2116
X6.2033Y-3.8123
X6.2033Y-3.891
X6.2033Y-3.9697
X6.282Y-3.8123
X6.282Y-3.891
X6.282Y-3.9697
T4
X5.991Y-4.124
X6.0894Y-4.124
T5
X8.492Y-4.289
X8.592Y-4.289
X8.692Y-4.289
T6
X5.699Y-3.88
X5.699Y-3.98
X5.699Y-4.08
X5.699Y-4.18
X5.799Y-3.93
X5.799Y-4.03
X5.799Y-4.13
X5.799Y-4.23
X8.5438Y-4.706
X8.5446Y-4.5168
X8.6438Y-4.706
X8.6446Y-4.5168
T7
X9.265Y-2.831
X9.265Y-2.931
X9.265Y-3.031
X9.265Y-3.131
X9.265Y-3.231
X9.265Y-3.331
X9.265Y-3.431
X9.265Y-3.531
X9.265Y-3.631
X9.565Y-2.831
X9.565Y-2.931
X9.565Y-3.031
X9.565Y-3.131
X9.565Y-3.231
X9.565Y-3.331
X9.565Y-3.431
X9.565Y-3.531
X9.565Y-3.631
T8
X5.407Y-2.313
X5.407Y-2.413
X5.407Y-2.513
X5.407Y-2.613
X5.407Y-2.713
X5.407Y-2.813
X5.822Y-2.429
X5.822Y-2.529
X5.922Y-2.429
X5.922Y-2.529
X6.022Y-2.429
X6.022Y-2.529
X6.122Y-2.429
X6.122Y-2.529
X6.222Y-2.429
X6.222Y-2.529
X6.3012Y-4.2674
X6.322Y-2.429
X6.322Y-2.529
X6.4012Y-4.2674
X6.422Y-2.429
X6.422Y-2.529
X6.522Y-2.429
X6.522Y-2.529
X6.578Y-3.956
X6.578Y-4.056
X6.622Y-2.429
X6.622Y-2.529
X6.678Y-3.956
X6.678Y-4.056
X6.722Y-2.429
X6.722Y-2.529
X6.7406Y-4.2702
X6.778Y-3.956
X6.778Y-4.056
X6.8406Y-4.2702
X6.878Y-3.956
X6.878Y-4.056
X6.978Y-3.956
X6.978Y-4.056
X7.078Y-3.956
X7.078Y-4.056
X7.178Y-3.956
X7.178Y-4.056
X7.278Y-3.956
X7.278Y-4.056
X7.378Y-3.956
X7.378Y-4.056
X7.478Y-3.956
X7.478Y-4.056
X7.578Y-3.956
X7.578Y-4.056
X7.591Y-2.795
X7.6226Y-4.2788
X7.6226Y-4.3788
X7.678Y-3.956
X7.678Y-4.056
X7.691Y-2.795
X7.7226Y-4.2788
X7.7226Y-4.3788
X7.778Y-3.956
X7.778Y-4.056
X7.791Y-2.795
X7.8226Y-4.2788
X7.8226Y-4.3788
X7.878Y-3.956
X7.878Y-4.056
X7.891Y-2.795
X7.9226Y-4.2788
X7.9226Y-4.3788
X7.978Y-3.956
X7.978Y-4.056
X8.078Y-3.956
X8.078Y-4.056
X8.178Y-3.956
X8.178Y-4.056
X8.278Y-3.956
X8.278Y-4.056
X8.2921Y-2.4445
X8.2921Y-2.5445
X8.378Y-3.956
X8.378Y-4.056
X8.3921Y-2.4445
X8.3921Y-2.5445
X8.478Y-3.956
X8.478Y-4.056
X8.4921Y-2.4445
X8.4921Y-2.5445
X8.578Y-3.956
X8.578Y-4.056
X8.5921Y-2.4445
X8.5921Y-2.5445
X8.678Y-3.956
X8.678Y-4.056
X8.6921Y-2.4445
X8.6921Y-2.5445
X8.7921Y-2.4445
X8.7921Y-2.5445
X8.8921Y-2.4445
X8.8921Y-2.5445
X8.9921Y-2.4445
X8.9921Y-2.5445
X9.0921Y-2.4445
X9.0921Y-2.5445
X9.1921Y-2.4445
X9.1921Y-2.5445
X9.558Y-2.11
X9.558Y-2.21
X9.558Y-2.31
T9
X5.249Y-3.806
X5.249Y-4.204
X5.3159Y-3.906
X5.3159Y-4.304
T10
X5.5381Y-4.9549
X5.5381Y-5.073
X5.8559Y-4.9557
X5.8559Y-5.0738
X5.974Y-4.9557
X5.974Y-5.0738
X6.2933Y-4.9559
X6.2933Y-5.074
X6.4114Y-4.9559
X6.4114Y-5.074
X6.7262Y-4.9561
X6.7262Y-5.0742
X6.8443Y-4.9561
X6.8443Y-5.0742
X7.1588Y-2.4078
X7.1588Y-2.5259
X7.1642Y-4.9575
X7.1642Y-5.0756
X7.277Y-2.4078
X7.277Y-2.5259
X7.2823Y-4.9575
X7.2823Y-5.0756
X7.598Y-4.9587
X7.598Y-5.0768
X7.6728Y-2.4118
X7.6728Y-2.5299
X7.7161Y-4.9587
X7.7161Y-5.0768
X7.791Y-2.4118
X7.791Y-2.5299
X7.8343Y-4.9587
X7.8343Y-5.0768
X7.9524Y-4.9587
X7.9524Y-5.0768
X8.2634Y-4.9587
X8.2634Y-5.0768
X8.3339Y-2.974
X8.3339Y-3.0921
X8.3339Y-3.2102
X8.3339Y-3.3283
X8.3339Y-3.4464
X8.452Y-2.974
X8.452Y-3.0921
X8.452Y-3.2102
X8.452Y-3.3283
X8.452Y-3.4464
X8.57Y-4.9589
X8.57Y-5.077
X8.8784Y-4.9575
X8.8784Y-5.0756
X9.187Y-4.9563
X9.187Y-5.0744
X9.498Y-4.9559
X9.498Y-5.074
T11
X5.048Y-2.9581
X5.048Y-3.5581
X5.148Y-2.9581
X5.148Y-3.0581
X5.148Y-3.5581
X5.248Y-2.9581
X5.248Y-3.5581
X5.296Y-3.438
X5.348Y-2.9581
X5.348Y-3.5581
X5.396Y-3.438
X5.448Y-2.9581
X5.448Y-3.5581
X5.496Y-3.438
X5.548Y-2.9581
X5.548Y-3.5581
X5.596Y-3.438
X5.648Y-2.9581
X5.648Y-3.5581
X5.696Y-3.438
X5.748Y-2.9581
X5.748Y-3.5581
X5.848Y-2.9581
X5.848Y-3.5581
X5.948Y-2.9581
X5.948Y-3.5581
X6.048Y-2.9581
X6.048Y-3.5581
X6.148Y-2.9581
X6.148Y-3.5581
X6.248Y-2.9581
X6.248Y-3.5581
X6.348Y-2.9581
X6.348Y-3.5581
X6.448Y-2.9581
X6.448Y-3.5581
X6.548Y-2.9581
X6.548Y-3.5581
X6.648Y-2.9581
X6.648Y-3.5581
X6.748Y-2.9581
X6.748Y-3.5581
X6.848Y-2.9581
X6.848Y-3.0581
X6.848Y-3.1581
X6.848Y-3.2581
X6.848Y-3.3581
X6.848Y-3.4581
X6.848Y-3.5581
X6.948Y-2.9581
X6.948Y-3.5581
X7.048Y-2.9581
X7.048Y-3.5581
X7.148Y-2.9581
X7.148Y-3.5581
X7.248Y-2.9581
X7.248Y-3.5581
X7.348Y-2.9581
X7.348Y-3.5581
T12
X9.05Y-4.207
X9.05Y-4.707
T13
X5.5691Y-3.745
X5.5691Y-4.3651
T14
X5.7712Y-5.2439
X6.0586Y-5.2439
X6.2087Y-5.2441
X6.4961Y-5.2441
X6.6415Y-5.2443
X6.9289Y-5.2443
X7.0742Y-2.4668
X7.0795Y-5.2457
X7.3616Y-2.4668
X7.3669Y-5.2457
X7.5134Y-5.2469
X7.5882Y-2.4708
X7.8756Y-2.4708
X8.037Y-5.2469
M30
