%TF.GenerationSoftware,KiCad,Pcbnew,8.0.3*%
%TF.CreationDate,2025-06-03T03:01:30-07:00*%
%TF.ProjectId,MLU_BreakoutV2,4d4c555f-4272-4656-916b-6f757456322e,rev?*%
%TF.SameCoordinates,Original*%
%TF.FileFunction,Drillmap*%
%TF.FilePolarity,Positive*%
%FSLAX45Y45*%
G04 Gerber Fmt 4.5, Leading zero omitted, Abs format (unit mm)*
G04 Created by KiCad (PCBNEW 8.0.3) date 2025-06-03 03:01:30*
%MOMM*%
%LPD*%
G01*
G04 APERTURE LIST*
%ADD10C,0.050000*%
%ADD11C,0.200000*%
%ADD12C,0.106680*%
%ADD13C,0.304800*%
%ADD14C,0.320000*%
%ADD15C,0.325000*%
G04 APERTURE END LIST*
D10*
X14183000Y-5812000D02*
X23461333Y-5812000D01*
X23916086Y-5811914D01*
X23916000Y-5130200D01*
X25517400Y-5130200D01*
X25517400Y-15017760D01*
X25516160Y-15019000D01*
X24530000Y-15019000D01*
X24526720Y-14408280D01*
X24526720Y-13553000D01*
X13665162Y-13553000D01*
X13665162Y-15021000D01*
X13525162Y-15021000D01*
X12587080Y-15021000D01*
X12583840Y-15017760D01*
X12583840Y-5130200D01*
X12589040Y-5125000D01*
X14183000Y-5125000D01*
X14183000Y-5812000D01*
D11*
D12*
X17830125Y-6456440D02*
X17936805Y-6563120D01*
X17936805Y-6456440D02*
X17830125Y-6563120D01*
X18730125Y-6456440D02*
X18836805Y-6563120D01*
X18836805Y-6456440D02*
X18730125Y-6563120D01*
X19135685Y-6466600D02*
X19242365Y-6573280D01*
X19242365Y-6466600D02*
X19135685Y-6573280D01*
X20035685Y-6466600D02*
X20142365Y-6573280D01*
X20142365Y-6466600D02*
X20035685Y-6573280D01*
X21020740Y-7200620D02*
X21127420Y-7307300D01*
X21127420Y-7200620D02*
X21020740Y-7307300D01*
X21020740Y-9000620D02*
X21127420Y-9107300D01*
X21127420Y-9000620D02*
X21020740Y-9107300D01*
D13*
X14219060Y-13317530D02*
G75*
G02*
X13914260Y-13317530I-152400J0D01*
G01*
X13914260Y-13317530D02*
G75*
G02*
X14219060Y-13317530I152400J0D01*
G01*
X21141400Y-13327000D02*
G75*
G02*
X20836600Y-13327000I-152400J0D01*
G01*
X20836600Y-13327000D02*
G75*
G02*
X21141400Y-13327000I152400J0D01*
G01*
X21920200Y-13327690D02*
G75*
G02*
X21615400Y-13327690I-152400J0D01*
G01*
X21615400Y-13327690D02*
G75*
G02*
X21920200Y-13327690I152400J0D01*
G01*
X22703540Y-13324120D02*
G75*
G02*
X22398740Y-13324120I-152400J0D01*
G01*
X22398740Y-13324120D02*
G75*
G02*
X22703540Y-13324120I152400J0D01*
G01*
X23487320Y-13321070D02*
G75*
G02*
X23182520Y-13321070I-152400J0D01*
G01*
X23182520Y-13321070D02*
G75*
G02*
X23487320Y-13321070I152400J0D01*
G01*
X24277320Y-13320070D02*
G75*
G02*
X23972520Y-13320070I-152400J0D01*
G01*
X23972520Y-13320070D02*
G75*
G02*
X24277320Y-13320070I152400J0D01*
G01*
D14*
X13168000Y-5534000D02*
X13168000Y-5854000D01*
X13008000Y-5694000D02*
X13328000Y-5694000D01*
X13168000Y-14134000D02*
X13168000Y-14454000D01*
X13008000Y-14294000D02*
X13328000Y-14294000D01*
X22280580Y-7276840D02*
X22280580Y-7596840D01*
X22120580Y-7436840D02*
X22440580Y-7436840D01*
X22280580Y-8776840D02*
X22280580Y-9096840D01*
X22120580Y-8936840D02*
X22440580Y-8936840D01*
X25016000Y-5534000D02*
X25016000Y-5854000D01*
X24856000Y-5694000D02*
X25176000Y-5694000D01*
X25016000Y-14284000D02*
X25016000Y-14604000D01*
X24856000Y-14444000D02*
X25176000Y-14444000D01*
D15*
X13955366Y-9843146D02*
X13955366Y-9613334D01*
X13725554Y-9613334D01*
X13725554Y-9843146D01*
X13955366Y-9843146D01*
X13955366Y-10986146D02*
X13955366Y-10756334D01*
X13725554Y-10756334D01*
X13725554Y-10986146D01*
X13955366Y-10986146D01*
D11*
X12842117Y-15334984D02*
X12842117Y-15134984D01*
X12842117Y-15134984D02*
X12889736Y-15134984D01*
X12889736Y-15134984D02*
X12918307Y-15144508D01*
X12918307Y-15144508D02*
X12937355Y-15163555D01*
X12937355Y-15163555D02*
X12946879Y-15182603D01*
X12946879Y-15182603D02*
X12956402Y-15220698D01*
X12956402Y-15220698D02*
X12956402Y-15249269D01*
X12956402Y-15249269D02*
X12946879Y-15287365D01*
X12946879Y-15287365D02*
X12937355Y-15306412D01*
X12937355Y-15306412D02*
X12918307Y-15325460D01*
X12918307Y-15325460D02*
X12889736Y-15334984D01*
X12889736Y-15334984D02*
X12842117Y-15334984D01*
X13042117Y-15334984D02*
X13042117Y-15201650D01*
X13042117Y-15239746D02*
X13051641Y-15220698D01*
X13051641Y-15220698D02*
X13061164Y-15211174D01*
X13061164Y-15211174D02*
X13080212Y-15201650D01*
X13080212Y-15201650D02*
X13099260Y-15201650D01*
X13165926Y-15334984D02*
X13165926Y-15201650D01*
X13165926Y-15134984D02*
X13156402Y-15144508D01*
X13156402Y-15144508D02*
X13165926Y-15154031D01*
X13165926Y-15154031D02*
X13175450Y-15144508D01*
X13175450Y-15144508D02*
X13165926Y-15134984D01*
X13165926Y-15134984D02*
X13165926Y-15154031D01*
X13289736Y-15334984D02*
X13270688Y-15325460D01*
X13270688Y-15325460D02*
X13261164Y-15306412D01*
X13261164Y-15306412D02*
X13261164Y-15134984D01*
X13394498Y-15334984D02*
X13375450Y-15325460D01*
X13375450Y-15325460D02*
X13365926Y-15306412D01*
X13365926Y-15306412D02*
X13365926Y-15134984D01*
X13623069Y-15334984D02*
X13623069Y-15134984D01*
X13623069Y-15134984D02*
X13689736Y-15277841D01*
X13689736Y-15277841D02*
X13756402Y-15134984D01*
X13756402Y-15134984D02*
X13756402Y-15334984D01*
X13937355Y-15334984D02*
X13937355Y-15230222D01*
X13937355Y-15230222D02*
X13927831Y-15211174D01*
X13927831Y-15211174D02*
X13908783Y-15201650D01*
X13908783Y-15201650D02*
X13870688Y-15201650D01*
X13870688Y-15201650D02*
X13851641Y-15211174D01*
X13937355Y-15325460D02*
X13918307Y-15334984D01*
X13918307Y-15334984D02*
X13870688Y-15334984D01*
X13870688Y-15334984D02*
X13851641Y-15325460D01*
X13851641Y-15325460D02*
X13842117Y-15306412D01*
X13842117Y-15306412D02*
X13842117Y-15287365D01*
X13842117Y-15287365D02*
X13851641Y-15268317D01*
X13851641Y-15268317D02*
X13870688Y-15258793D01*
X13870688Y-15258793D02*
X13918307Y-15258793D01*
X13918307Y-15258793D02*
X13937355Y-15249269D01*
X14032593Y-15201650D02*
X14032593Y-15401650D01*
X14032593Y-15211174D02*
X14051641Y-15201650D01*
X14051641Y-15201650D02*
X14089736Y-15201650D01*
X14089736Y-15201650D02*
X14108783Y-15211174D01*
X14108783Y-15211174D02*
X14118307Y-15220698D01*
X14118307Y-15220698D02*
X14127831Y-15239746D01*
X14127831Y-15239746D02*
X14127831Y-15296888D01*
X14127831Y-15296888D02*
X14118307Y-15315936D01*
X14118307Y-15315936D02*
X14108783Y-15325460D01*
X14108783Y-15325460D02*
X14089736Y-15334984D01*
X14089736Y-15334984D02*
X14051641Y-15334984D01*
X14051641Y-15334984D02*
X14032593Y-15325460D01*
X14213545Y-15315936D02*
X14223069Y-15325460D01*
X14223069Y-15325460D02*
X14213545Y-15334984D01*
X14213545Y-15334984D02*
X14204022Y-15325460D01*
X14204022Y-15325460D02*
X14213545Y-15315936D01*
X14213545Y-15315936D02*
X14213545Y-15334984D01*
X14213545Y-15211174D02*
X14223069Y-15220698D01*
X14223069Y-15220698D02*
X14213545Y-15230222D01*
X14213545Y-15230222D02*
X14204022Y-15220698D01*
X14204022Y-15220698D02*
X14213545Y-15211174D01*
X14213545Y-15211174D02*
X14213545Y-15230222D01*
D12*
X12474660Y-15610160D02*
X12581340Y-15716840D01*
X12581340Y-15610160D02*
X12474660Y-15716840D01*
D11*
X12946879Y-15754984D02*
X12832593Y-15754984D01*
X12889736Y-15754984D02*
X12889736Y-15554984D01*
X12889736Y-15554984D02*
X12870688Y-15583555D01*
X12870688Y-15583555D02*
X12851641Y-15602603D01*
X12851641Y-15602603D02*
X12832593Y-15612127D01*
X13032593Y-15735936D02*
X13042117Y-15745460D01*
X13042117Y-15745460D02*
X13032593Y-15754984D01*
X13032593Y-15754984D02*
X13023069Y-15745460D01*
X13023069Y-15745460D02*
X13032593Y-15735936D01*
X13032593Y-15735936D02*
X13032593Y-15754984D01*
X13165926Y-15554984D02*
X13184974Y-15554984D01*
X13184974Y-15554984D02*
X13204022Y-15564508D01*
X13204022Y-15564508D02*
X13213545Y-15574031D01*
X13213545Y-15574031D02*
X13223069Y-15593079D01*
X13223069Y-15593079D02*
X13232593Y-15631174D01*
X13232593Y-15631174D02*
X13232593Y-15678793D01*
X13232593Y-15678793D02*
X13223069Y-15716888D01*
X13223069Y-15716888D02*
X13213545Y-15735936D01*
X13213545Y-15735936D02*
X13204022Y-15745460D01*
X13204022Y-15745460D02*
X13184974Y-15754984D01*
X13184974Y-15754984D02*
X13165926Y-15754984D01*
X13165926Y-15754984D02*
X13146879Y-15745460D01*
X13146879Y-15745460D02*
X13137355Y-15735936D01*
X13137355Y-15735936D02*
X13127831Y-15716888D01*
X13127831Y-15716888D02*
X13118307Y-15678793D01*
X13118307Y-15678793D02*
X13118307Y-15631174D01*
X13118307Y-15631174D02*
X13127831Y-15593079D01*
X13127831Y-15593079D02*
X13137355Y-15574031D01*
X13137355Y-15574031D02*
X13146879Y-15564508D01*
X13146879Y-15564508D02*
X13165926Y-15554984D01*
X13404022Y-15554984D02*
X13365926Y-15554984D01*
X13365926Y-15554984D02*
X13346879Y-15564508D01*
X13346879Y-15564508D02*
X13337355Y-15574031D01*
X13337355Y-15574031D02*
X13318307Y-15602603D01*
X13318307Y-15602603D02*
X13308783Y-15640698D01*
X13308783Y-15640698D02*
X13308783Y-15716888D01*
X13308783Y-15716888D02*
X13318307Y-15735936D01*
X13318307Y-15735936D02*
X13327831Y-15745460D01*
X13327831Y-15745460D02*
X13346879Y-15754984D01*
X13346879Y-15754984D02*
X13384974Y-15754984D01*
X13384974Y-15754984D02*
X13404022Y-15745460D01*
X13404022Y-15745460D02*
X13413545Y-15735936D01*
X13413545Y-15735936D02*
X13423069Y-15716888D01*
X13423069Y-15716888D02*
X13423069Y-15669269D01*
X13423069Y-15669269D02*
X13413545Y-15650222D01*
X13413545Y-15650222D02*
X13404022Y-15640698D01*
X13404022Y-15640698D02*
X13384974Y-15631174D01*
X13384974Y-15631174D02*
X13346879Y-15631174D01*
X13346879Y-15631174D02*
X13327831Y-15640698D01*
X13327831Y-15640698D02*
X13318307Y-15650222D01*
X13318307Y-15650222D02*
X13308783Y-15669269D01*
X13489736Y-15554984D02*
X13623069Y-15554984D01*
X13623069Y-15554984D02*
X13537355Y-15754984D01*
X13699260Y-15754984D02*
X13699260Y-15621650D01*
X13699260Y-15640698D02*
X13708783Y-15631174D01*
X13708783Y-15631174D02*
X13727831Y-15621650D01*
X13727831Y-15621650D02*
X13756403Y-15621650D01*
X13756403Y-15621650D02*
X13775450Y-15631174D01*
X13775450Y-15631174D02*
X13784974Y-15650222D01*
X13784974Y-15650222D02*
X13784974Y-15754984D01*
X13784974Y-15650222D02*
X13794498Y-15631174D01*
X13794498Y-15631174D02*
X13813545Y-15621650D01*
X13813545Y-15621650D02*
X13842117Y-15621650D01*
X13842117Y-15621650D02*
X13861164Y-15631174D01*
X13861164Y-15631174D02*
X13870688Y-15650222D01*
X13870688Y-15650222D02*
X13870688Y-15754984D01*
X13965926Y-15754984D02*
X13965926Y-15621650D01*
X13965926Y-15640698D02*
X13975450Y-15631174D01*
X13975450Y-15631174D02*
X13994498Y-15621650D01*
X13994498Y-15621650D02*
X14023069Y-15621650D01*
X14023069Y-15621650D02*
X14042117Y-15631174D01*
X14042117Y-15631174D02*
X14051641Y-15650222D01*
X14051641Y-15650222D02*
X14051641Y-15754984D01*
X14051641Y-15650222D02*
X14061164Y-15631174D01*
X14061164Y-15631174D02*
X14080212Y-15621650D01*
X14080212Y-15621650D02*
X14108783Y-15621650D01*
X14108783Y-15621650D02*
X14127831Y-15631174D01*
X14127831Y-15631174D02*
X14137355Y-15650222D01*
X14137355Y-15650222D02*
X14137355Y-15754984D01*
X14527831Y-15545460D02*
X14356403Y-15802603D01*
X14784974Y-15554984D02*
X14804022Y-15554984D01*
X14804022Y-15554984D02*
X14823069Y-15564508D01*
X14823069Y-15564508D02*
X14832593Y-15574031D01*
X14832593Y-15574031D02*
X14842117Y-15593079D01*
X14842117Y-15593079D02*
X14851641Y-15631174D01*
X14851641Y-15631174D02*
X14851641Y-15678793D01*
X14851641Y-15678793D02*
X14842117Y-15716888D01*
X14842117Y-15716888D02*
X14832593Y-15735936D01*
X14832593Y-15735936D02*
X14823069Y-15745460D01*
X14823069Y-15745460D02*
X14804022Y-15754984D01*
X14804022Y-15754984D02*
X14784974Y-15754984D01*
X14784974Y-15754984D02*
X14765926Y-15745460D01*
X14765926Y-15745460D02*
X14756403Y-15735936D01*
X14756403Y-15735936D02*
X14746879Y-15716888D01*
X14746879Y-15716888D02*
X14737355Y-15678793D01*
X14737355Y-15678793D02*
X14737355Y-15631174D01*
X14737355Y-15631174D02*
X14746879Y-15593079D01*
X14746879Y-15593079D02*
X14756403Y-15574031D01*
X14756403Y-15574031D02*
X14765926Y-15564508D01*
X14765926Y-15564508D02*
X14784974Y-15554984D01*
X14937355Y-15735936D02*
X14946879Y-15745460D01*
X14946879Y-15745460D02*
X14937355Y-15754984D01*
X14937355Y-15754984D02*
X14927831Y-15745460D01*
X14927831Y-15745460D02*
X14937355Y-15735936D01*
X14937355Y-15735936D02*
X14937355Y-15754984D01*
X15070688Y-15554984D02*
X15089736Y-15554984D01*
X15089736Y-15554984D02*
X15108784Y-15564508D01*
X15108784Y-15564508D02*
X15118307Y-15574031D01*
X15118307Y-15574031D02*
X15127831Y-15593079D01*
X15127831Y-15593079D02*
X15137355Y-15631174D01*
X15137355Y-15631174D02*
X15137355Y-15678793D01*
X15137355Y-15678793D02*
X15127831Y-15716888D01*
X15127831Y-15716888D02*
X15118307Y-15735936D01*
X15118307Y-15735936D02*
X15108784Y-15745460D01*
X15108784Y-15745460D02*
X15089736Y-15754984D01*
X15089736Y-15754984D02*
X15070688Y-15754984D01*
X15070688Y-15754984D02*
X15051641Y-15745460D01*
X15051641Y-15745460D02*
X15042117Y-15735936D01*
X15042117Y-15735936D02*
X15032593Y-15716888D01*
X15032593Y-15716888D02*
X15023069Y-15678793D01*
X15023069Y-15678793D02*
X15023069Y-15631174D01*
X15023069Y-15631174D02*
X15032593Y-15593079D01*
X15032593Y-15593079D02*
X15042117Y-15574031D01*
X15042117Y-15574031D02*
X15051641Y-15564508D01*
X15051641Y-15564508D02*
X15070688Y-15554984D01*
X15308784Y-15621650D02*
X15308784Y-15754984D01*
X15261165Y-15545460D02*
X15213546Y-15688317D01*
X15213546Y-15688317D02*
X15337355Y-15688317D01*
X15404022Y-15574031D02*
X15413546Y-15564508D01*
X15413546Y-15564508D02*
X15432593Y-15554984D01*
X15432593Y-15554984D02*
X15480212Y-15554984D01*
X15480212Y-15554984D02*
X15499260Y-15564508D01*
X15499260Y-15564508D02*
X15508784Y-15574031D01*
X15508784Y-15574031D02*
X15518307Y-15593079D01*
X15518307Y-15593079D02*
X15518307Y-15612127D01*
X15518307Y-15612127D02*
X15508784Y-15640698D01*
X15508784Y-15640698D02*
X15394498Y-15754984D01*
X15394498Y-15754984D02*
X15518307Y-15754984D01*
X15642117Y-15554984D02*
X15661165Y-15554984D01*
X15661165Y-15554984D02*
X15680212Y-15564508D01*
X15680212Y-15564508D02*
X15689736Y-15574031D01*
X15689736Y-15574031D02*
X15699260Y-15593079D01*
X15699260Y-15593079D02*
X15708784Y-15631174D01*
X15708784Y-15631174D02*
X15708784Y-15678793D01*
X15708784Y-15678793D02*
X15699260Y-15716888D01*
X15699260Y-15716888D02*
X15689736Y-15735936D01*
X15689736Y-15735936D02*
X15680212Y-15745460D01*
X15680212Y-15745460D02*
X15661165Y-15754984D01*
X15661165Y-15754984D02*
X15642117Y-15754984D01*
X15642117Y-15754984D02*
X15623069Y-15745460D01*
X15623069Y-15745460D02*
X15613546Y-15735936D01*
X15613546Y-15735936D02*
X15604022Y-15716888D01*
X15604022Y-15716888D02*
X15594498Y-15678793D01*
X15594498Y-15678793D02*
X15594498Y-15631174D01*
X15594498Y-15631174D02*
X15604022Y-15593079D01*
X15604022Y-15593079D02*
X15613546Y-15574031D01*
X15613546Y-15574031D02*
X15623069Y-15564508D01*
X15623069Y-15564508D02*
X15642117Y-15554984D01*
X15784974Y-15554984D02*
X15784974Y-15593079D01*
X15861165Y-15554984D02*
X15861165Y-15593079D01*
X16156403Y-15831174D02*
X16146879Y-15821650D01*
X16146879Y-15821650D02*
X16127831Y-15793079D01*
X16127831Y-15793079D02*
X16118308Y-15774031D01*
X16118308Y-15774031D02*
X16108784Y-15745460D01*
X16108784Y-15745460D02*
X16099260Y-15697841D01*
X16099260Y-15697841D02*
X16099260Y-15659746D01*
X16099260Y-15659746D02*
X16108784Y-15612127D01*
X16108784Y-15612127D02*
X16118308Y-15583555D01*
X16118308Y-15583555D02*
X16127831Y-15564508D01*
X16127831Y-15564508D02*
X16146879Y-15535936D01*
X16146879Y-15535936D02*
X16156403Y-15526412D01*
X16318308Y-15554984D02*
X16280212Y-15554984D01*
X16280212Y-15554984D02*
X16261165Y-15564508D01*
X16261165Y-15564508D02*
X16251641Y-15574031D01*
X16251641Y-15574031D02*
X16232593Y-15602603D01*
X16232593Y-15602603D02*
X16223069Y-15640698D01*
X16223069Y-15640698D02*
X16223069Y-15716888D01*
X16223069Y-15716888D02*
X16232593Y-15735936D01*
X16232593Y-15735936D02*
X16242117Y-15745460D01*
X16242117Y-15745460D02*
X16261165Y-15754984D01*
X16261165Y-15754984D02*
X16299260Y-15754984D01*
X16299260Y-15754984D02*
X16318308Y-15745460D01*
X16318308Y-15745460D02*
X16327831Y-15735936D01*
X16327831Y-15735936D02*
X16337355Y-15716888D01*
X16337355Y-15716888D02*
X16337355Y-15669269D01*
X16337355Y-15669269D02*
X16327831Y-15650222D01*
X16327831Y-15650222D02*
X16318308Y-15640698D01*
X16318308Y-15640698D02*
X16299260Y-15631174D01*
X16299260Y-15631174D02*
X16261165Y-15631174D01*
X16261165Y-15631174D02*
X16242117Y-15640698D01*
X16242117Y-15640698D02*
X16232593Y-15650222D01*
X16232593Y-15650222D02*
X16223069Y-15669269D01*
X16575450Y-15754984D02*
X16575450Y-15554984D01*
X16661165Y-15754984D02*
X16661165Y-15650222D01*
X16661165Y-15650222D02*
X16651641Y-15631174D01*
X16651641Y-15631174D02*
X16632593Y-15621650D01*
X16632593Y-15621650D02*
X16604022Y-15621650D01*
X16604022Y-15621650D02*
X16584974Y-15631174D01*
X16584974Y-15631174D02*
X16575450Y-15640698D01*
X16784974Y-15754984D02*
X16765927Y-15745460D01*
X16765927Y-15745460D02*
X16756403Y-15735936D01*
X16756403Y-15735936D02*
X16746879Y-15716888D01*
X16746879Y-15716888D02*
X16746879Y-15659746D01*
X16746879Y-15659746D02*
X16756403Y-15640698D01*
X16756403Y-15640698D02*
X16765927Y-15631174D01*
X16765927Y-15631174D02*
X16784974Y-15621650D01*
X16784974Y-15621650D02*
X16813546Y-15621650D01*
X16813546Y-15621650D02*
X16832593Y-15631174D01*
X16832593Y-15631174D02*
X16842117Y-15640698D01*
X16842117Y-15640698D02*
X16851641Y-15659746D01*
X16851641Y-15659746D02*
X16851641Y-15716888D01*
X16851641Y-15716888D02*
X16842117Y-15735936D01*
X16842117Y-15735936D02*
X16832593Y-15745460D01*
X16832593Y-15745460D02*
X16813546Y-15754984D01*
X16813546Y-15754984D02*
X16784974Y-15754984D01*
X16965927Y-15754984D02*
X16946879Y-15745460D01*
X16946879Y-15745460D02*
X16937355Y-15726412D01*
X16937355Y-15726412D02*
X16937355Y-15554984D01*
X17118308Y-15745460D02*
X17099260Y-15754984D01*
X17099260Y-15754984D02*
X17061165Y-15754984D01*
X17061165Y-15754984D02*
X17042117Y-15745460D01*
X17042117Y-15745460D02*
X17032593Y-15726412D01*
X17032593Y-15726412D02*
X17032593Y-15650222D01*
X17032593Y-15650222D02*
X17042117Y-15631174D01*
X17042117Y-15631174D02*
X17061165Y-15621650D01*
X17061165Y-15621650D02*
X17099260Y-15621650D01*
X17099260Y-15621650D02*
X17118308Y-15631174D01*
X17118308Y-15631174D02*
X17127832Y-15650222D01*
X17127832Y-15650222D02*
X17127832Y-15669269D01*
X17127832Y-15669269D02*
X17032593Y-15688317D01*
X17204022Y-15745460D02*
X17223070Y-15754984D01*
X17223070Y-15754984D02*
X17261165Y-15754984D01*
X17261165Y-15754984D02*
X17280213Y-15745460D01*
X17280213Y-15745460D02*
X17289736Y-15726412D01*
X17289736Y-15726412D02*
X17289736Y-15716888D01*
X17289736Y-15716888D02*
X17280213Y-15697841D01*
X17280213Y-15697841D02*
X17261165Y-15688317D01*
X17261165Y-15688317D02*
X17232593Y-15688317D01*
X17232593Y-15688317D02*
X17213546Y-15678793D01*
X17213546Y-15678793D02*
X17204022Y-15659746D01*
X17204022Y-15659746D02*
X17204022Y-15650222D01*
X17204022Y-15650222D02*
X17213546Y-15631174D01*
X17213546Y-15631174D02*
X17232593Y-15621650D01*
X17232593Y-15621650D02*
X17261165Y-15621650D01*
X17261165Y-15621650D02*
X17280213Y-15631174D01*
X17356403Y-15831174D02*
X17365927Y-15821650D01*
X17365927Y-15821650D02*
X17384974Y-15793079D01*
X17384974Y-15793079D02*
X17394498Y-15774031D01*
X17394498Y-15774031D02*
X17404022Y-15745460D01*
X17404022Y-15745460D02*
X17413546Y-15697841D01*
X17413546Y-15697841D02*
X17413546Y-15659746D01*
X17413546Y-15659746D02*
X17404022Y-15612127D01*
X17404022Y-15612127D02*
X17394498Y-15583555D01*
X17394498Y-15583555D02*
X17384974Y-15564508D01*
X17384974Y-15564508D02*
X17365927Y-15535936D01*
X17365927Y-15535936D02*
X17356403Y-15526412D01*
X17718308Y-15831174D02*
X17708784Y-15821650D01*
X17708784Y-15821650D02*
X17689736Y-15793079D01*
X17689736Y-15793079D02*
X17680213Y-15774031D01*
X17680213Y-15774031D02*
X17670689Y-15745460D01*
X17670689Y-15745460D02*
X17661165Y-15697841D01*
X17661165Y-15697841D02*
X17661165Y-15659746D01*
X17661165Y-15659746D02*
X17670689Y-15612127D01*
X17670689Y-15612127D02*
X17680213Y-15583555D01*
X17680213Y-15583555D02*
X17689736Y-15564508D01*
X17689736Y-15564508D02*
X17708784Y-15535936D01*
X17708784Y-15535936D02*
X17718308Y-15526412D01*
X17794498Y-15621650D02*
X17794498Y-15754984D01*
X17794498Y-15640698D02*
X17804022Y-15631174D01*
X17804022Y-15631174D02*
X17823070Y-15621650D01*
X17823070Y-15621650D02*
X17851641Y-15621650D01*
X17851641Y-15621650D02*
X17870689Y-15631174D01*
X17870689Y-15631174D02*
X17880213Y-15650222D01*
X17880213Y-15650222D02*
X17880213Y-15754984D01*
X18004022Y-15754984D02*
X17984974Y-15745460D01*
X17984974Y-15745460D02*
X17975451Y-15735936D01*
X17975451Y-15735936D02*
X17965927Y-15716888D01*
X17965927Y-15716888D02*
X17965927Y-15659746D01*
X17965927Y-15659746D02*
X17975451Y-15640698D01*
X17975451Y-15640698D02*
X17984974Y-15631174D01*
X17984974Y-15631174D02*
X18004022Y-15621650D01*
X18004022Y-15621650D02*
X18032594Y-15621650D01*
X18032594Y-15621650D02*
X18051641Y-15631174D01*
X18051641Y-15631174D02*
X18061165Y-15640698D01*
X18061165Y-15640698D02*
X18070689Y-15659746D01*
X18070689Y-15659746D02*
X18070689Y-15716888D01*
X18070689Y-15716888D02*
X18061165Y-15735936D01*
X18061165Y-15735936D02*
X18051641Y-15745460D01*
X18051641Y-15745460D02*
X18032594Y-15754984D01*
X18032594Y-15754984D02*
X18004022Y-15754984D01*
X18127832Y-15621650D02*
X18204022Y-15621650D01*
X18156403Y-15554984D02*
X18156403Y-15726412D01*
X18156403Y-15726412D02*
X18165927Y-15745460D01*
X18165927Y-15745460D02*
X18184974Y-15754984D01*
X18184974Y-15754984D02*
X18204022Y-15754984D01*
X18423070Y-15621650D02*
X18423070Y-15821650D01*
X18423070Y-15631174D02*
X18442117Y-15621650D01*
X18442117Y-15621650D02*
X18480213Y-15621650D01*
X18480213Y-15621650D02*
X18499260Y-15631174D01*
X18499260Y-15631174D02*
X18508784Y-15640698D01*
X18508784Y-15640698D02*
X18518308Y-15659746D01*
X18518308Y-15659746D02*
X18518308Y-15716888D01*
X18518308Y-15716888D02*
X18508784Y-15735936D01*
X18508784Y-15735936D02*
X18499260Y-15745460D01*
X18499260Y-15745460D02*
X18480213Y-15754984D01*
X18480213Y-15754984D02*
X18442117Y-15754984D01*
X18442117Y-15754984D02*
X18423070Y-15745460D01*
X18632594Y-15754984D02*
X18613546Y-15745460D01*
X18613546Y-15745460D02*
X18604022Y-15726412D01*
X18604022Y-15726412D02*
X18604022Y-15554984D01*
X18794498Y-15754984D02*
X18794498Y-15650222D01*
X18794498Y-15650222D02*
X18784975Y-15631174D01*
X18784975Y-15631174D02*
X18765927Y-15621650D01*
X18765927Y-15621650D02*
X18727832Y-15621650D01*
X18727832Y-15621650D02*
X18708784Y-15631174D01*
X18794498Y-15745460D02*
X18775451Y-15754984D01*
X18775451Y-15754984D02*
X18727832Y-15754984D01*
X18727832Y-15754984D02*
X18708784Y-15745460D01*
X18708784Y-15745460D02*
X18699260Y-15726412D01*
X18699260Y-15726412D02*
X18699260Y-15707365D01*
X18699260Y-15707365D02*
X18708784Y-15688317D01*
X18708784Y-15688317D02*
X18727832Y-15678793D01*
X18727832Y-15678793D02*
X18775451Y-15678793D01*
X18775451Y-15678793D02*
X18794498Y-15669269D01*
X18861165Y-15621650D02*
X18937355Y-15621650D01*
X18889736Y-15554984D02*
X18889736Y-15726412D01*
X18889736Y-15726412D02*
X18899260Y-15745460D01*
X18899260Y-15745460D02*
X18918308Y-15754984D01*
X18918308Y-15754984D02*
X18937355Y-15754984D01*
X19080213Y-15745460D02*
X19061165Y-15754984D01*
X19061165Y-15754984D02*
X19023070Y-15754984D01*
X19023070Y-15754984D02*
X19004022Y-15745460D01*
X19004022Y-15745460D02*
X18994498Y-15726412D01*
X18994498Y-15726412D02*
X18994498Y-15650222D01*
X18994498Y-15650222D02*
X19004022Y-15631174D01*
X19004022Y-15631174D02*
X19023070Y-15621650D01*
X19023070Y-15621650D02*
X19061165Y-15621650D01*
X19061165Y-15621650D02*
X19080213Y-15631174D01*
X19080213Y-15631174D02*
X19089736Y-15650222D01*
X19089736Y-15650222D02*
X19089736Y-15669269D01*
X19089736Y-15669269D02*
X18994498Y-15688317D01*
X19261165Y-15754984D02*
X19261165Y-15554984D01*
X19261165Y-15745460D02*
X19242117Y-15754984D01*
X19242117Y-15754984D02*
X19204022Y-15754984D01*
X19204022Y-15754984D02*
X19184975Y-15745460D01*
X19184975Y-15745460D02*
X19175451Y-15735936D01*
X19175451Y-15735936D02*
X19165927Y-15716888D01*
X19165927Y-15716888D02*
X19165927Y-15659746D01*
X19165927Y-15659746D02*
X19175451Y-15640698D01*
X19175451Y-15640698D02*
X19184975Y-15631174D01*
X19184975Y-15631174D02*
X19204022Y-15621650D01*
X19204022Y-15621650D02*
X19242117Y-15621650D01*
X19242117Y-15621650D02*
X19261165Y-15631174D01*
X19337356Y-15831174D02*
X19346879Y-15821650D01*
X19346879Y-15821650D02*
X19365927Y-15793079D01*
X19365927Y-15793079D02*
X19375451Y-15774031D01*
X19375451Y-15774031D02*
X19384975Y-15745460D01*
X19384975Y-15745460D02*
X19394498Y-15697841D01*
X19394498Y-15697841D02*
X19394498Y-15659746D01*
X19394498Y-15659746D02*
X19384975Y-15612127D01*
X19384975Y-15612127D02*
X19375451Y-15583555D01*
X19375451Y-15583555D02*
X19365927Y-15564508D01*
X19365927Y-15564508D02*
X19346879Y-15535936D01*
X19346879Y-15535936D02*
X19337356Y-15526412D01*
X12581340Y-15927500D02*
G75*
G02*
X12381340Y-15927500I-100000J0D01*
G01*
X12381340Y-15927500D02*
G75*
G02*
X12581340Y-15927500I100000J0D01*
G01*
X12823069Y-15818984D02*
X12946879Y-15818984D01*
X12946879Y-15818984D02*
X12880212Y-15895174D01*
X12880212Y-15895174D02*
X12908783Y-15895174D01*
X12908783Y-15895174D02*
X12927831Y-15904698D01*
X12927831Y-15904698D02*
X12937355Y-15914222D01*
X12937355Y-15914222D02*
X12946879Y-15933269D01*
X12946879Y-15933269D02*
X12946879Y-15980888D01*
X12946879Y-15980888D02*
X12937355Y-15999936D01*
X12937355Y-15999936D02*
X12927831Y-16009460D01*
X12927831Y-16009460D02*
X12908783Y-16018984D01*
X12908783Y-16018984D02*
X12851641Y-16018984D01*
X12851641Y-16018984D02*
X12832593Y-16009460D01*
X12832593Y-16009460D02*
X12823069Y-15999936D01*
X13032593Y-15999936D02*
X13042117Y-16009460D01*
X13042117Y-16009460D02*
X13032593Y-16018984D01*
X13032593Y-16018984D02*
X13023069Y-16009460D01*
X13023069Y-16009460D02*
X13032593Y-15999936D01*
X13032593Y-15999936D02*
X13032593Y-16018984D01*
X13165926Y-15818984D02*
X13184974Y-15818984D01*
X13184974Y-15818984D02*
X13204022Y-15828508D01*
X13204022Y-15828508D02*
X13213545Y-15838031D01*
X13213545Y-15838031D02*
X13223069Y-15857079D01*
X13223069Y-15857079D02*
X13232593Y-15895174D01*
X13232593Y-15895174D02*
X13232593Y-15942793D01*
X13232593Y-15942793D02*
X13223069Y-15980888D01*
X13223069Y-15980888D02*
X13213545Y-15999936D01*
X13213545Y-15999936D02*
X13204022Y-16009460D01*
X13204022Y-16009460D02*
X13184974Y-16018984D01*
X13184974Y-16018984D02*
X13165926Y-16018984D01*
X13165926Y-16018984D02*
X13146879Y-16009460D01*
X13146879Y-16009460D02*
X13137355Y-15999936D01*
X13137355Y-15999936D02*
X13127831Y-15980888D01*
X13127831Y-15980888D02*
X13118307Y-15942793D01*
X13118307Y-15942793D02*
X13118307Y-15895174D01*
X13118307Y-15895174D02*
X13127831Y-15857079D01*
X13127831Y-15857079D02*
X13137355Y-15838031D01*
X13137355Y-15838031D02*
X13146879Y-15828508D01*
X13146879Y-15828508D02*
X13165926Y-15818984D01*
X13404022Y-15885650D02*
X13404022Y-16018984D01*
X13356402Y-15809460D02*
X13308783Y-15952317D01*
X13308783Y-15952317D02*
X13432593Y-15952317D01*
X13537355Y-15904698D02*
X13518307Y-15895174D01*
X13518307Y-15895174D02*
X13508783Y-15885650D01*
X13508783Y-15885650D02*
X13499260Y-15866603D01*
X13499260Y-15866603D02*
X13499260Y-15857079D01*
X13499260Y-15857079D02*
X13508783Y-15838031D01*
X13508783Y-15838031D02*
X13518307Y-15828508D01*
X13518307Y-15828508D02*
X13537355Y-15818984D01*
X13537355Y-15818984D02*
X13575450Y-15818984D01*
X13575450Y-15818984D02*
X13594498Y-15828508D01*
X13594498Y-15828508D02*
X13604022Y-15838031D01*
X13604022Y-15838031D02*
X13613545Y-15857079D01*
X13613545Y-15857079D02*
X13613545Y-15866603D01*
X13613545Y-15866603D02*
X13604022Y-15885650D01*
X13604022Y-15885650D02*
X13594498Y-15895174D01*
X13594498Y-15895174D02*
X13575450Y-15904698D01*
X13575450Y-15904698D02*
X13537355Y-15904698D01*
X13537355Y-15904698D02*
X13518307Y-15914222D01*
X13518307Y-15914222D02*
X13508783Y-15923746D01*
X13508783Y-15923746D02*
X13499260Y-15942793D01*
X13499260Y-15942793D02*
X13499260Y-15980888D01*
X13499260Y-15980888D02*
X13508783Y-15999936D01*
X13508783Y-15999936D02*
X13518307Y-16009460D01*
X13518307Y-16009460D02*
X13537355Y-16018984D01*
X13537355Y-16018984D02*
X13575450Y-16018984D01*
X13575450Y-16018984D02*
X13594498Y-16009460D01*
X13594498Y-16009460D02*
X13604022Y-15999936D01*
X13604022Y-15999936D02*
X13613545Y-15980888D01*
X13613545Y-15980888D02*
X13613545Y-15942793D01*
X13613545Y-15942793D02*
X13604022Y-15923746D01*
X13604022Y-15923746D02*
X13594498Y-15914222D01*
X13594498Y-15914222D02*
X13575450Y-15904698D01*
X13699260Y-16018984D02*
X13699260Y-15885650D01*
X13699260Y-15904698D02*
X13708783Y-15895174D01*
X13708783Y-15895174D02*
X13727831Y-15885650D01*
X13727831Y-15885650D02*
X13756403Y-15885650D01*
X13756403Y-15885650D02*
X13775450Y-15895174D01*
X13775450Y-15895174D02*
X13784974Y-15914222D01*
X13784974Y-15914222D02*
X13784974Y-16018984D01*
X13784974Y-15914222D02*
X13794498Y-15895174D01*
X13794498Y-15895174D02*
X13813545Y-15885650D01*
X13813545Y-15885650D02*
X13842117Y-15885650D01*
X13842117Y-15885650D02*
X13861164Y-15895174D01*
X13861164Y-15895174D02*
X13870688Y-15914222D01*
X13870688Y-15914222D02*
X13870688Y-16018984D01*
X13965926Y-16018984D02*
X13965926Y-15885650D01*
X13965926Y-15904698D02*
X13975450Y-15895174D01*
X13975450Y-15895174D02*
X13994498Y-15885650D01*
X13994498Y-15885650D02*
X14023069Y-15885650D01*
X14023069Y-15885650D02*
X14042117Y-15895174D01*
X14042117Y-15895174D02*
X14051641Y-15914222D01*
X14051641Y-15914222D02*
X14051641Y-16018984D01*
X14051641Y-15914222D02*
X14061164Y-15895174D01*
X14061164Y-15895174D02*
X14080212Y-15885650D01*
X14080212Y-15885650D02*
X14108783Y-15885650D01*
X14108783Y-15885650D02*
X14127831Y-15895174D01*
X14127831Y-15895174D02*
X14137355Y-15914222D01*
X14137355Y-15914222D02*
X14137355Y-16018984D01*
X14527831Y-15809460D02*
X14356403Y-16066603D01*
X14784974Y-15818984D02*
X14804022Y-15818984D01*
X14804022Y-15818984D02*
X14823069Y-15828508D01*
X14823069Y-15828508D02*
X14832593Y-15838031D01*
X14832593Y-15838031D02*
X14842117Y-15857079D01*
X14842117Y-15857079D02*
X14851641Y-15895174D01*
X14851641Y-15895174D02*
X14851641Y-15942793D01*
X14851641Y-15942793D02*
X14842117Y-15980888D01*
X14842117Y-15980888D02*
X14832593Y-15999936D01*
X14832593Y-15999936D02*
X14823069Y-16009460D01*
X14823069Y-16009460D02*
X14804022Y-16018984D01*
X14804022Y-16018984D02*
X14784974Y-16018984D01*
X14784974Y-16018984D02*
X14765926Y-16009460D01*
X14765926Y-16009460D02*
X14756403Y-15999936D01*
X14756403Y-15999936D02*
X14746879Y-15980888D01*
X14746879Y-15980888D02*
X14737355Y-15942793D01*
X14737355Y-15942793D02*
X14737355Y-15895174D01*
X14737355Y-15895174D02*
X14746879Y-15857079D01*
X14746879Y-15857079D02*
X14756403Y-15838031D01*
X14756403Y-15838031D02*
X14765926Y-15828508D01*
X14765926Y-15828508D02*
X14784974Y-15818984D01*
X14937355Y-15999936D02*
X14946879Y-16009460D01*
X14946879Y-16009460D02*
X14937355Y-16018984D01*
X14937355Y-16018984D02*
X14927831Y-16009460D01*
X14927831Y-16009460D02*
X14937355Y-15999936D01*
X14937355Y-15999936D02*
X14937355Y-16018984D01*
X15137355Y-16018984D02*
X15023069Y-16018984D01*
X15080212Y-16018984D02*
X15080212Y-15818984D01*
X15080212Y-15818984D02*
X15061165Y-15847555D01*
X15061165Y-15847555D02*
X15042117Y-15866603D01*
X15042117Y-15866603D02*
X15023069Y-15876127D01*
X15213546Y-15838031D02*
X15223069Y-15828508D01*
X15223069Y-15828508D02*
X15242117Y-15818984D01*
X15242117Y-15818984D02*
X15289736Y-15818984D01*
X15289736Y-15818984D02*
X15308784Y-15828508D01*
X15308784Y-15828508D02*
X15318307Y-15838031D01*
X15318307Y-15838031D02*
X15327831Y-15857079D01*
X15327831Y-15857079D02*
X15327831Y-15876127D01*
X15327831Y-15876127D02*
X15318307Y-15904698D01*
X15318307Y-15904698D02*
X15204022Y-16018984D01*
X15204022Y-16018984D02*
X15327831Y-16018984D01*
X15451641Y-15818984D02*
X15470688Y-15818984D01*
X15470688Y-15818984D02*
X15489736Y-15828508D01*
X15489736Y-15828508D02*
X15499260Y-15838031D01*
X15499260Y-15838031D02*
X15508784Y-15857079D01*
X15508784Y-15857079D02*
X15518307Y-15895174D01*
X15518307Y-15895174D02*
X15518307Y-15942793D01*
X15518307Y-15942793D02*
X15508784Y-15980888D01*
X15508784Y-15980888D02*
X15499260Y-15999936D01*
X15499260Y-15999936D02*
X15489736Y-16009460D01*
X15489736Y-16009460D02*
X15470688Y-16018984D01*
X15470688Y-16018984D02*
X15451641Y-16018984D01*
X15451641Y-16018984D02*
X15432593Y-16009460D01*
X15432593Y-16009460D02*
X15423069Y-15999936D01*
X15423069Y-15999936D02*
X15413546Y-15980888D01*
X15413546Y-15980888D02*
X15404022Y-15942793D01*
X15404022Y-15942793D02*
X15404022Y-15895174D01*
X15404022Y-15895174D02*
X15413546Y-15857079D01*
X15413546Y-15857079D02*
X15423069Y-15838031D01*
X15423069Y-15838031D02*
X15432593Y-15828508D01*
X15432593Y-15828508D02*
X15451641Y-15818984D01*
X15642117Y-15818984D02*
X15661165Y-15818984D01*
X15661165Y-15818984D02*
X15680212Y-15828508D01*
X15680212Y-15828508D02*
X15689736Y-15838031D01*
X15689736Y-15838031D02*
X15699260Y-15857079D01*
X15699260Y-15857079D02*
X15708784Y-15895174D01*
X15708784Y-15895174D02*
X15708784Y-15942793D01*
X15708784Y-15942793D02*
X15699260Y-15980888D01*
X15699260Y-15980888D02*
X15689736Y-15999936D01*
X15689736Y-15999936D02*
X15680212Y-16009460D01*
X15680212Y-16009460D02*
X15661165Y-16018984D01*
X15661165Y-16018984D02*
X15642117Y-16018984D01*
X15642117Y-16018984D02*
X15623069Y-16009460D01*
X15623069Y-16009460D02*
X15613546Y-15999936D01*
X15613546Y-15999936D02*
X15604022Y-15980888D01*
X15604022Y-15980888D02*
X15594498Y-15942793D01*
X15594498Y-15942793D02*
X15594498Y-15895174D01*
X15594498Y-15895174D02*
X15604022Y-15857079D01*
X15604022Y-15857079D02*
X15613546Y-15838031D01*
X15613546Y-15838031D02*
X15623069Y-15828508D01*
X15623069Y-15828508D02*
X15642117Y-15818984D01*
X15784974Y-15818984D02*
X15784974Y-15857079D01*
X15861165Y-15818984D02*
X15861165Y-15857079D01*
X16156403Y-16095174D02*
X16146879Y-16085650D01*
X16146879Y-16085650D02*
X16127831Y-16057079D01*
X16127831Y-16057079D02*
X16118308Y-16038031D01*
X16118308Y-16038031D02*
X16108784Y-16009460D01*
X16108784Y-16009460D02*
X16099260Y-15961841D01*
X16099260Y-15961841D02*
X16099260Y-15923746D01*
X16099260Y-15923746D02*
X16108784Y-15876127D01*
X16108784Y-15876127D02*
X16118308Y-15847555D01*
X16118308Y-15847555D02*
X16127831Y-15828508D01*
X16127831Y-15828508D02*
X16146879Y-15799936D01*
X16146879Y-15799936D02*
X16156403Y-15790412D01*
X16318308Y-15818984D02*
X16280212Y-15818984D01*
X16280212Y-15818984D02*
X16261165Y-15828508D01*
X16261165Y-15828508D02*
X16251641Y-15838031D01*
X16251641Y-15838031D02*
X16232593Y-15866603D01*
X16232593Y-15866603D02*
X16223069Y-15904698D01*
X16223069Y-15904698D02*
X16223069Y-15980888D01*
X16223069Y-15980888D02*
X16232593Y-15999936D01*
X16232593Y-15999936D02*
X16242117Y-16009460D01*
X16242117Y-16009460D02*
X16261165Y-16018984D01*
X16261165Y-16018984D02*
X16299260Y-16018984D01*
X16299260Y-16018984D02*
X16318308Y-16009460D01*
X16318308Y-16009460D02*
X16327831Y-15999936D01*
X16327831Y-15999936D02*
X16337355Y-15980888D01*
X16337355Y-15980888D02*
X16337355Y-15933269D01*
X16337355Y-15933269D02*
X16327831Y-15914222D01*
X16327831Y-15914222D02*
X16318308Y-15904698D01*
X16318308Y-15904698D02*
X16299260Y-15895174D01*
X16299260Y-15895174D02*
X16261165Y-15895174D01*
X16261165Y-15895174D02*
X16242117Y-15904698D01*
X16242117Y-15904698D02*
X16232593Y-15914222D01*
X16232593Y-15914222D02*
X16223069Y-15933269D01*
X16575450Y-16018984D02*
X16575450Y-15818984D01*
X16661165Y-16018984D02*
X16661165Y-15914222D01*
X16661165Y-15914222D02*
X16651641Y-15895174D01*
X16651641Y-15895174D02*
X16632593Y-15885650D01*
X16632593Y-15885650D02*
X16604022Y-15885650D01*
X16604022Y-15885650D02*
X16584974Y-15895174D01*
X16584974Y-15895174D02*
X16575450Y-15904698D01*
X16784974Y-16018984D02*
X16765927Y-16009460D01*
X16765927Y-16009460D02*
X16756403Y-15999936D01*
X16756403Y-15999936D02*
X16746879Y-15980888D01*
X16746879Y-15980888D02*
X16746879Y-15923746D01*
X16746879Y-15923746D02*
X16756403Y-15904698D01*
X16756403Y-15904698D02*
X16765927Y-15895174D01*
X16765927Y-15895174D02*
X16784974Y-15885650D01*
X16784974Y-15885650D02*
X16813546Y-15885650D01*
X16813546Y-15885650D02*
X16832593Y-15895174D01*
X16832593Y-15895174D02*
X16842117Y-15904698D01*
X16842117Y-15904698D02*
X16851641Y-15923746D01*
X16851641Y-15923746D02*
X16851641Y-15980888D01*
X16851641Y-15980888D02*
X16842117Y-15999936D01*
X16842117Y-15999936D02*
X16832593Y-16009460D01*
X16832593Y-16009460D02*
X16813546Y-16018984D01*
X16813546Y-16018984D02*
X16784974Y-16018984D01*
X16965927Y-16018984D02*
X16946879Y-16009460D01*
X16946879Y-16009460D02*
X16937355Y-15990412D01*
X16937355Y-15990412D02*
X16937355Y-15818984D01*
X17118308Y-16009460D02*
X17099260Y-16018984D01*
X17099260Y-16018984D02*
X17061165Y-16018984D01*
X17061165Y-16018984D02*
X17042117Y-16009460D01*
X17042117Y-16009460D02*
X17032593Y-15990412D01*
X17032593Y-15990412D02*
X17032593Y-15914222D01*
X17032593Y-15914222D02*
X17042117Y-15895174D01*
X17042117Y-15895174D02*
X17061165Y-15885650D01*
X17061165Y-15885650D02*
X17099260Y-15885650D01*
X17099260Y-15885650D02*
X17118308Y-15895174D01*
X17118308Y-15895174D02*
X17127832Y-15914222D01*
X17127832Y-15914222D02*
X17127832Y-15933269D01*
X17127832Y-15933269D02*
X17032593Y-15952317D01*
X17204022Y-16009460D02*
X17223070Y-16018984D01*
X17223070Y-16018984D02*
X17261165Y-16018984D01*
X17261165Y-16018984D02*
X17280213Y-16009460D01*
X17280213Y-16009460D02*
X17289736Y-15990412D01*
X17289736Y-15990412D02*
X17289736Y-15980888D01*
X17289736Y-15980888D02*
X17280213Y-15961841D01*
X17280213Y-15961841D02*
X17261165Y-15952317D01*
X17261165Y-15952317D02*
X17232593Y-15952317D01*
X17232593Y-15952317D02*
X17213546Y-15942793D01*
X17213546Y-15942793D02*
X17204022Y-15923746D01*
X17204022Y-15923746D02*
X17204022Y-15914222D01*
X17204022Y-15914222D02*
X17213546Y-15895174D01*
X17213546Y-15895174D02*
X17232593Y-15885650D01*
X17232593Y-15885650D02*
X17261165Y-15885650D01*
X17261165Y-15885650D02*
X17280213Y-15895174D01*
X17356403Y-16095174D02*
X17365927Y-16085650D01*
X17365927Y-16085650D02*
X17384974Y-16057079D01*
X17384974Y-16057079D02*
X17394498Y-16038031D01*
X17394498Y-16038031D02*
X17404022Y-16009460D01*
X17404022Y-16009460D02*
X17413546Y-15961841D01*
X17413546Y-15961841D02*
X17413546Y-15923746D01*
X17413546Y-15923746D02*
X17404022Y-15876127D01*
X17404022Y-15876127D02*
X17394498Y-15847555D01*
X17394498Y-15847555D02*
X17384974Y-15828508D01*
X17384974Y-15828508D02*
X17365927Y-15799936D01*
X17365927Y-15799936D02*
X17356403Y-15790412D01*
X17718308Y-16095174D02*
X17708784Y-16085650D01*
X17708784Y-16085650D02*
X17689736Y-16057079D01*
X17689736Y-16057079D02*
X17680213Y-16038031D01*
X17680213Y-16038031D02*
X17670689Y-16009460D01*
X17670689Y-16009460D02*
X17661165Y-15961841D01*
X17661165Y-15961841D02*
X17661165Y-15923746D01*
X17661165Y-15923746D02*
X17670689Y-15876127D01*
X17670689Y-15876127D02*
X17680213Y-15847555D01*
X17680213Y-15847555D02*
X17689736Y-15828508D01*
X17689736Y-15828508D02*
X17708784Y-15799936D01*
X17708784Y-15799936D02*
X17718308Y-15790412D01*
X17794498Y-15885650D02*
X17794498Y-16018984D01*
X17794498Y-15904698D02*
X17804022Y-15895174D01*
X17804022Y-15895174D02*
X17823070Y-15885650D01*
X17823070Y-15885650D02*
X17851641Y-15885650D01*
X17851641Y-15885650D02*
X17870689Y-15895174D01*
X17870689Y-15895174D02*
X17880213Y-15914222D01*
X17880213Y-15914222D02*
X17880213Y-16018984D01*
X18004022Y-16018984D02*
X17984974Y-16009460D01*
X17984974Y-16009460D02*
X17975451Y-15999936D01*
X17975451Y-15999936D02*
X17965927Y-15980888D01*
X17965927Y-15980888D02*
X17965927Y-15923746D01*
X17965927Y-15923746D02*
X17975451Y-15904698D01*
X17975451Y-15904698D02*
X17984974Y-15895174D01*
X17984974Y-15895174D02*
X18004022Y-15885650D01*
X18004022Y-15885650D02*
X18032594Y-15885650D01*
X18032594Y-15885650D02*
X18051641Y-15895174D01*
X18051641Y-15895174D02*
X18061165Y-15904698D01*
X18061165Y-15904698D02*
X18070689Y-15923746D01*
X18070689Y-15923746D02*
X18070689Y-15980888D01*
X18070689Y-15980888D02*
X18061165Y-15999936D01*
X18061165Y-15999936D02*
X18051641Y-16009460D01*
X18051641Y-16009460D02*
X18032594Y-16018984D01*
X18032594Y-16018984D02*
X18004022Y-16018984D01*
X18127832Y-15885650D02*
X18204022Y-15885650D01*
X18156403Y-15818984D02*
X18156403Y-15990412D01*
X18156403Y-15990412D02*
X18165927Y-16009460D01*
X18165927Y-16009460D02*
X18184974Y-16018984D01*
X18184974Y-16018984D02*
X18204022Y-16018984D01*
X18423070Y-15885650D02*
X18423070Y-16085650D01*
X18423070Y-15895174D02*
X18442117Y-15885650D01*
X18442117Y-15885650D02*
X18480213Y-15885650D01*
X18480213Y-15885650D02*
X18499260Y-15895174D01*
X18499260Y-15895174D02*
X18508784Y-15904698D01*
X18508784Y-15904698D02*
X18518308Y-15923746D01*
X18518308Y-15923746D02*
X18518308Y-15980888D01*
X18518308Y-15980888D02*
X18508784Y-15999936D01*
X18508784Y-15999936D02*
X18499260Y-16009460D01*
X18499260Y-16009460D02*
X18480213Y-16018984D01*
X18480213Y-16018984D02*
X18442117Y-16018984D01*
X18442117Y-16018984D02*
X18423070Y-16009460D01*
X18632594Y-16018984D02*
X18613546Y-16009460D01*
X18613546Y-16009460D02*
X18604022Y-15990412D01*
X18604022Y-15990412D02*
X18604022Y-15818984D01*
X18794498Y-16018984D02*
X18794498Y-15914222D01*
X18794498Y-15914222D02*
X18784975Y-15895174D01*
X18784975Y-15895174D02*
X18765927Y-15885650D01*
X18765927Y-15885650D02*
X18727832Y-15885650D01*
X18727832Y-15885650D02*
X18708784Y-15895174D01*
X18794498Y-16009460D02*
X18775451Y-16018984D01*
X18775451Y-16018984D02*
X18727832Y-16018984D01*
X18727832Y-16018984D02*
X18708784Y-16009460D01*
X18708784Y-16009460D02*
X18699260Y-15990412D01*
X18699260Y-15990412D02*
X18699260Y-15971365D01*
X18699260Y-15971365D02*
X18708784Y-15952317D01*
X18708784Y-15952317D02*
X18727832Y-15942793D01*
X18727832Y-15942793D02*
X18775451Y-15942793D01*
X18775451Y-15942793D02*
X18794498Y-15933269D01*
X18861165Y-15885650D02*
X18937355Y-15885650D01*
X18889736Y-15818984D02*
X18889736Y-15990412D01*
X18889736Y-15990412D02*
X18899260Y-16009460D01*
X18899260Y-16009460D02*
X18918308Y-16018984D01*
X18918308Y-16018984D02*
X18937355Y-16018984D01*
X19080213Y-16009460D02*
X19061165Y-16018984D01*
X19061165Y-16018984D02*
X19023070Y-16018984D01*
X19023070Y-16018984D02*
X19004022Y-16009460D01*
X19004022Y-16009460D02*
X18994498Y-15990412D01*
X18994498Y-15990412D02*
X18994498Y-15914222D01*
X18994498Y-15914222D02*
X19004022Y-15895174D01*
X19004022Y-15895174D02*
X19023070Y-15885650D01*
X19023070Y-15885650D02*
X19061165Y-15885650D01*
X19061165Y-15885650D02*
X19080213Y-15895174D01*
X19080213Y-15895174D02*
X19089736Y-15914222D01*
X19089736Y-15914222D02*
X19089736Y-15933269D01*
X19089736Y-15933269D02*
X18994498Y-15952317D01*
X19261165Y-16018984D02*
X19261165Y-15818984D01*
X19261165Y-16009460D02*
X19242117Y-16018984D01*
X19242117Y-16018984D02*
X19204022Y-16018984D01*
X19204022Y-16018984D02*
X19184975Y-16009460D01*
X19184975Y-16009460D02*
X19175451Y-15999936D01*
X19175451Y-15999936D02*
X19165927Y-15980888D01*
X19165927Y-15980888D02*
X19165927Y-15923746D01*
X19165927Y-15923746D02*
X19175451Y-15904698D01*
X19175451Y-15904698D02*
X19184975Y-15895174D01*
X19184975Y-15895174D02*
X19204022Y-15885650D01*
X19204022Y-15885650D02*
X19242117Y-15885650D01*
X19242117Y-15885650D02*
X19261165Y-15895174D01*
X19337356Y-16095174D02*
X19346879Y-16085650D01*
X19346879Y-16085650D02*
X19365927Y-16057079D01*
X19365927Y-16057079D02*
X19375451Y-16038031D01*
X19375451Y-16038031D02*
X19384975Y-16009460D01*
X19384975Y-16009460D02*
X19394498Y-15961841D01*
X19394498Y-15961841D02*
X19394498Y-15923746D01*
X19394498Y-15923746D02*
X19384975Y-15876127D01*
X19384975Y-15876127D02*
X19375451Y-15847555D01*
X19375451Y-15847555D02*
X19365927Y-15828508D01*
X19365927Y-15828508D02*
X19346879Y-15799936D01*
X19346879Y-15799936D02*
X19337356Y-15790412D01*
X12481340Y-16147500D02*
X12481340Y-16347500D01*
X12381340Y-16247500D02*
X12581340Y-16247500D01*
X12823069Y-16138984D02*
X12946879Y-16138984D01*
X12946879Y-16138984D02*
X12880212Y-16215174D01*
X12880212Y-16215174D02*
X12908783Y-16215174D01*
X12908783Y-16215174D02*
X12927831Y-16224698D01*
X12927831Y-16224698D02*
X12937355Y-16234222D01*
X12937355Y-16234222D02*
X12946879Y-16253269D01*
X12946879Y-16253269D02*
X12946879Y-16300888D01*
X12946879Y-16300888D02*
X12937355Y-16319936D01*
X12937355Y-16319936D02*
X12927831Y-16329460D01*
X12927831Y-16329460D02*
X12908783Y-16338984D01*
X12908783Y-16338984D02*
X12851641Y-16338984D01*
X12851641Y-16338984D02*
X12832593Y-16329460D01*
X12832593Y-16329460D02*
X12823069Y-16319936D01*
X13032593Y-16319936D02*
X13042117Y-16329460D01*
X13042117Y-16329460D02*
X13032593Y-16338984D01*
X13032593Y-16338984D02*
X13023069Y-16329460D01*
X13023069Y-16329460D02*
X13032593Y-16319936D01*
X13032593Y-16319936D02*
X13032593Y-16338984D01*
X13118307Y-16158031D02*
X13127831Y-16148508D01*
X13127831Y-16148508D02*
X13146879Y-16138984D01*
X13146879Y-16138984D02*
X13194498Y-16138984D01*
X13194498Y-16138984D02*
X13213545Y-16148508D01*
X13213545Y-16148508D02*
X13223069Y-16158031D01*
X13223069Y-16158031D02*
X13232593Y-16177079D01*
X13232593Y-16177079D02*
X13232593Y-16196127D01*
X13232593Y-16196127D02*
X13223069Y-16224698D01*
X13223069Y-16224698D02*
X13108783Y-16338984D01*
X13108783Y-16338984D02*
X13232593Y-16338984D01*
X13356402Y-16138984D02*
X13375450Y-16138984D01*
X13375450Y-16138984D02*
X13394498Y-16148508D01*
X13394498Y-16148508D02*
X13404022Y-16158031D01*
X13404022Y-16158031D02*
X13413545Y-16177079D01*
X13413545Y-16177079D02*
X13423069Y-16215174D01*
X13423069Y-16215174D02*
X13423069Y-16262793D01*
X13423069Y-16262793D02*
X13413545Y-16300888D01*
X13413545Y-16300888D02*
X13404022Y-16319936D01*
X13404022Y-16319936D02*
X13394498Y-16329460D01*
X13394498Y-16329460D02*
X13375450Y-16338984D01*
X13375450Y-16338984D02*
X13356402Y-16338984D01*
X13356402Y-16338984D02*
X13337355Y-16329460D01*
X13337355Y-16329460D02*
X13327831Y-16319936D01*
X13327831Y-16319936D02*
X13318307Y-16300888D01*
X13318307Y-16300888D02*
X13308783Y-16262793D01*
X13308783Y-16262793D02*
X13308783Y-16215174D01*
X13308783Y-16215174D02*
X13318307Y-16177079D01*
X13318307Y-16177079D02*
X13327831Y-16158031D01*
X13327831Y-16158031D02*
X13337355Y-16148508D01*
X13337355Y-16148508D02*
X13356402Y-16138984D01*
X13546879Y-16138984D02*
X13565926Y-16138984D01*
X13565926Y-16138984D02*
X13584974Y-16148508D01*
X13584974Y-16148508D02*
X13594498Y-16158031D01*
X13594498Y-16158031D02*
X13604022Y-16177079D01*
X13604022Y-16177079D02*
X13613545Y-16215174D01*
X13613545Y-16215174D02*
X13613545Y-16262793D01*
X13613545Y-16262793D02*
X13604022Y-16300888D01*
X13604022Y-16300888D02*
X13594498Y-16319936D01*
X13594498Y-16319936D02*
X13584974Y-16329460D01*
X13584974Y-16329460D02*
X13565926Y-16338984D01*
X13565926Y-16338984D02*
X13546879Y-16338984D01*
X13546879Y-16338984D02*
X13527831Y-16329460D01*
X13527831Y-16329460D02*
X13518307Y-16319936D01*
X13518307Y-16319936D02*
X13508783Y-16300888D01*
X13508783Y-16300888D02*
X13499260Y-16262793D01*
X13499260Y-16262793D02*
X13499260Y-16215174D01*
X13499260Y-16215174D02*
X13508783Y-16177079D01*
X13508783Y-16177079D02*
X13518307Y-16158031D01*
X13518307Y-16158031D02*
X13527831Y-16148508D01*
X13527831Y-16148508D02*
X13546879Y-16138984D01*
X13699260Y-16338984D02*
X13699260Y-16205650D01*
X13699260Y-16224698D02*
X13708783Y-16215174D01*
X13708783Y-16215174D02*
X13727831Y-16205650D01*
X13727831Y-16205650D02*
X13756403Y-16205650D01*
X13756403Y-16205650D02*
X13775450Y-16215174D01*
X13775450Y-16215174D02*
X13784974Y-16234222D01*
X13784974Y-16234222D02*
X13784974Y-16338984D01*
X13784974Y-16234222D02*
X13794498Y-16215174D01*
X13794498Y-16215174D02*
X13813545Y-16205650D01*
X13813545Y-16205650D02*
X13842117Y-16205650D01*
X13842117Y-16205650D02*
X13861164Y-16215174D01*
X13861164Y-16215174D02*
X13870688Y-16234222D01*
X13870688Y-16234222D02*
X13870688Y-16338984D01*
X13965926Y-16338984D02*
X13965926Y-16205650D01*
X13965926Y-16224698D02*
X13975450Y-16215174D01*
X13975450Y-16215174D02*
X13994498Y-16205650D01*
X13994498Y-16205650D02*
X14023069Y-16205650D01*
X14023069Y-16205650D02*
X14042117Y-16215174D01*
X14042117Y-16215174D02*
X14051641Y-16234222D01*
X14051641Y-16234222D02*
X14051641Y-16338984D01*
X14051641Y-16234222D02*
X14061164Y-16215174D01*
X14061164Y-16215174D02*
X14080212Y-16205650D01*
X14080212Y-16205650D02*
X14108783Y-16205650D01*
X14108783Y-16205650D02*
X14127831Y-16215174D01*
X14127831Y-16215174D02*
X14137355Y-16234222D01*
X14137355Y-16234222D02*
X14137355Y-16338984D01*
X14527831Y-16129460D02*
X14356403Y-16386603D01*
X14784974Y-16138984D02*
X14804022Y-16138984D01*
X14804022Y-16138984D02*
X14823069Y-16148508D01*
X14823069Y-16148508D02*
X14832593Y-16158031D01*
X14832593Y-16158031D02*
X14842117Y-16177079D01*
X14842117Y-16177079D02*
X14851641Y-16215174D01*
X14851641Y-16215174D02*
X14851641Y-16262793D01*
X14851641Y-16262793D02*
X14842117Y-16300888D01*
X14842117Y-16300888D02*
X14832593Y-16319936D01*
X14832593Y-16319936D02*
X14823069Y-16329460D01*
X14823069Y-16329460D02*
X14804022Y-16338984D01*
X14804022Y-16338984D02*
X14784974Y-16338984D01*
X14784974Y-16338984D02*
X14765926Y-16329460D01*
X14765926Y-16329460D02*
X14756403Y-16319936D01*
X14756403Y-16319936D02*
X14746879Y-16300888D01*
X14746879Y-16300888D02*
X14737355Y-16262793D01*
X14737355Y-16262793D02*
X14737355Y-16215174D01*
X14737355Y-16215174D02*
X14746879Y-16177079D01*
X14746879Y-16177079D02*
X14756403Y-16158031D01*
X14756403Y-16158031D02*
X14765926Y-16148508D01*
X14765926Y-16148508D02*
X14784974Y-16138984D01*
X14937355Y-16319936D02*
X14946879Y-16329460D01*
X14946879Y-16329460D02*
X14937355Y-16338984D01*
X14937355Y-16338984D02*
X14927831Y-16329460D01*
X14927831Y-16329460D02*
X14937355Y-16319936D01*
X14937355Y-16319936D02*
X14937355Y-16338984D01*
X15137355Y-16338984D02*
X15023069Y-16338984D01*
X15080212Y-16338984D02*
X15080212Y-16138984D01*
X15080212Y-16138984D02*
X15061165Y-16167555D01*
X15061165Y-16167555D02*
X15042117Y-16186603D01*
X15042117Y-16186603D02*
X15023069Y-16196127D01*
X15213546Y-16158031D02*
X15223069Y-16148508D01*
X15223069Y-16148508D02*
X15242117Y-16138984D01*
X15242117Y-16138984D02*
X15289736Y-16138984D01*
X15289736Y-16138984D02*
X15308784Y-16148508D01*
X15308784Y-16148508D02*
X15318307Y-16158031D01*
X15318307Y-16158031D02*
X15327831Y-16177079D01*
X15327831Y-16177079D02*
X15327831Y-16196127D01*
X15327831Y-16196127D02*
X15318307Y-16224698D01*
X15318307Y-16224698D02*
X15204022Y-16338984D01*
X15204022Y-16338984D02*
X15327831Y-16338984D01*
X15499260Y-16138984D02*
X15461165Y-16138984D01*
X15461165Y-16138984D02*
X15442117Y-16148508D01*
X15442117Y-16148508D02*
X15432593Y-16158031D01*
X15432593Y-16158031D02*
X15413546Y-16186603D01*
X15413546Y-16186603D02*
X15404022Y-16224698D01*
X15404022Y-16224698D02*
X15404022Y-16300888D01*
X15404022Y-16300888D02*
X15413546Y-16319936D01*
X15413546Y-16319936D02*
X15423069Y-16329460D01*
X15423069Y-16329460D02*
X15442117Y-16338984D01*
X15442117Y-16338984D02*
X15480212Y-16338984D01*
X15480212Y-16338984D02*
X15499260Y-16329460D01*
X15499260Y-16329460D02*
X15508784Y-16319936D01*
X15508784Y-16319936D02*
X15518307Y-16300888D01*
X15518307Y-16300888D02*
X15518307Y-16253269D01*
X15518307Y-16253269D02*
X15508784Y-16234222D01*
X15508784Y-16234222D02*
X15499260Y-16224698D01*
X15499260Y-16224698D02*
X15480212Y-16215174D01*
X15480212Y-16215174D02*
X15442117Y-16215174D01*
X15442117Y-16215174D02*
X15423069Y-16224698D01*
X15423069Y-16224698D02*
X15413546Y-16234222D01*
X15413546Y-16234222D02*
X15404022Y-16253269D01*
X15642117Y-16138984D02*
X15661165Y-16138984D01*
X15661165Y-16138984D02*
X15680212Y-16148508D01*
X15680212Y-16148508D02*
X15689736Y-16158031D01*
X15689736Y-16158031D02*
X15699260Y-16177079D01*
X15699260Y-16177079D02*
X15708784Y-16215174D01*
X15708784Y-16215174D02*
X15708784Y-16262793D01*
X15708784Y-16262793D02*
X15699260Y-16300888D01*
X15699260Y-16300888D02*
X15689736Y-16319936D01*
X15689736Y-16319936D02*
X15680212Y-16329460D01*
X15680212Y-16329460D02*
X15661165Y-16338984D01*
X15661165Y-16338984D02*
X15642117Y-16338984D01*
X15642117Y-16338984D02*
X15623069Y-16329460D01*
X15623069Y-16329460D02*
X15613546Y-16319936D01*
X15613546Y-16319936D02*
X15604022Y-16300888D01*
X15604022Y-16300888D02*
X15594498Y-16262793D01*
X15594498Y-16262793D02*
X15594498Y-16215174D01*
X15594498Y-16215174D02*
X15604022Y-16177079D01*
X15604022Y-16177079D02*
X15613546Y-16158031D01*
X15613546Y-16158031D02*
X15623069Y-16148508D01*
X15623069Y-16148508D02*
X15642117Y-16138984D01*
X15784974Y-16138984D02*
X15784974Y-16177079D01*
X15861165Y-16138984D02*
X15861165Y-16177079D01*
X16156403Y-16415174D02*
X16146879Y-16405650D01*
X16146879Y-16405650D02*
X16127831Y-16377079D01*
X16127831Y-16377079D02*
X16118308Y-16358031D01*
X16118308Y-16358031D02*
X16108784Y-16329460D01*
X16108784Y-16329460D02*
X16099260Y-16281841D01*
X16099260Y-16281841D02*
X16099260Y-16243746D01*
X16099260Y-16243746D02*
X16108784Y-16196127D01*
X16108784Y-16196127D02*
X16118308Y-16167555D01*
X16118308Y-16167555D02*
X16127831Y-16148508D01*
X16127831Y-16148508D02*
X16146879Y-16119936D01*
X16146879Y-16119936D02*
X16156403Y-16110412D01*
X16318308Y-16138984D02*
X16280212Y-16138984D01*
X16280212Y-16138984D02*
X16261165Y-16148508D01*
X16261165Y-16148508D02*
X16251641Y-16158031D01*
X16251641Y-16158031D02*
X16232593Y-16186603D01*
X16232593Y-16186603D02*
X16223069Y-16224698D01*
X16223069Y-16224698D02*
X16223069Y-16300888D01*
X16223069Y-16300888D02*
X16232593Y-16319936D01*
X16232593Y-16319936D02*
X16242117Y-16329460D01*
X16242117Y-16329460D02*
X16261165Y-16338984D01*
X16261165Y-16338984D02*
X16299260Y-16338984D01*
X16299260Y-16338984D02*
X16318308Y-16329460D01*
X16318308Y-16329460D02*
X16327831Y-16319936D01*
X16327831Y-16319936D02*
X16337355Y-16300888D01*
X16337355Y-16300888D02*
X16337355Y-16253269D01*
X16337355Y-16253269D02*
X16327831Y-16234222D01*
X16327831Y-16234222D02*
X16318308Y-16224698D01*
X16318308Y-16224698D02*
X16299260Y-16215174D01*
X16299260Y-16215174D02*
X16261165Y-16215174D01*
X16261165Y-16215174D02*
X16242117Y-16224698D01*
X16242117Y-16224698D02*
X16232593Y-16234222D01*
X16232593Y-16234222D02*
X16223069Y-16253269D01*
X16575450Y-16338984D02*
X16575450Y-16138984D01*
X16661165Y-16338984D02*
X16661165Y-16234222D01*
X16661165Y-16234222D02*
X16651641Y-16215174D01*
X16651641Y-16215174D02*
X16632593Y-16205650D01*
X16632593Y-16205650D02*
X16604022Y-16205650D01*
X16604022Y-16205650D02*
X16584974Y-16215174D01*
X16584974Y-16215174D02*
X16575450Y-16224698D01*
X16784974Y-16338984D02*
X16765927Y-16329460D01*
X16765927Y-16329460D02*
X16756403Y-16319936D01*
X16756403Y-16319936D02*
X16746879Y-16300888D01*
X16746879Y-16300888D02*
X16746879Y-16243746D01*
X16746879Y-16243746D02*
X16756403Y-16224698D01*
X16756403Y-16224698D02*
X16765927Y-16215174D01*
X16765927Y-16215174D02*
X16784974Y-16205650D01*
X16784974Y-16205650D02*
X16813546Y-16205650D01*
X16813546Y-16205650D02*
X16832593Y-16215174D01*
X16832593Y-16215174D02*
X16842117Y-16224698D01*
X16842117Y-16224698D02*
X16851641Y-16243746D01*
X16851641Y-16243746D02*
X16851641Y-16300888D01*
X16851641Y-16300888D02*
X16842117Y-16319936D01*
X16842117Y-16319936D02*
X16832593Y-16329460D01*
X16832593Y-16329460D02*
X16813546Y-16338984D01*
X16813546Y-16338984D02*
X16784974Y-16338984D01*
X16965927Y-16338984D02*
X16946879Y-16329460D01*
X16946879Y-16329460D02*
X16937355Y-16310412D01*
X16937355Y-16310412D02*
X16937355Y-16138984D01*
X17118308Y-16329460D02*
X17099260Y-16338984D01*
X17099260Y-16338984D02*
X17061165Y-16338984D01*
X17061165Y-16338984D02*
X17042117Y-16329460D01*
X17042117Y-16329460D02*
X17032593Y-16310412D01*
X17032593Y-16310412D02*
X17032593Y-16234222D01*
X17032593Y-16234222D02*
X17042117Y-16215174D01*
X17042117Y-16215174D02*
X17061165Y-16205650D01*
X17061165Y-16205650D02*
X17099260Y-16205650D01*
X17099260Y-16205650D02*
X17118308Y-16215174D01*
X17118308Y-16215174D02*
X17127832Y-16234222D01*
X17127832Y-16234222D02*
X17127832Y-16253269D01*
X17127832Y-16253269D02*
X17032593Y-16272317D01*
X17204022Y-16329460D02*
X17223070Y-16338984D01*
X17223070Y-16338984D02*
X17261165Y-16338984D01*
X17261165Y-16338984D02*
X17280213Y-16329460D01*
X17280213Y-16329460D02*
X17289736Y-16310412D01*
X17289736Y-16310412D02*
X17289736Y-16300888D01*
X17289736Y-16300888D02*
X17280213Y-16281841D01*
X17280213Y-16281841D02*
X17261165Y-16272317D01*
X17261165Y-16272317D02*
X17232593Y-16272317D01*
X17232593Y-16272317D02*
X17213546Y-16262793D01*
X17213546Y-16262793D02*
X17204022Y-16243746D01*
X17204022Y-16243746D02*
X17204022Y-16234222D01*
X17204022Y-16234222D02*
X17213546Y-16215174D01*
X17213546Y-16215174D02*
X17232593Y-16205650D01*
X17232593Y-16205650D02*
X17261165Y-16205650D01*
X17261165Y-16205650D02*
X17280213Y-16215174D01*
X17356403Y-16415174D02*
X17365927Y-16405650D01*
X17365927Y-16405650D02*
X17384974Y-16377079D01*
X17384974Y-16377079D02*
X17394498Y-16358031D01*
X17394498Y-16358031D02*
X17404022Y-16329460D01*
X17404022Y-16329460D02*
X17413546Y-16281841D01*
X17413546Y-16281841D02*
X17413546Y-16243746D01*
X17413546Y-16243746D02*
X17404022Y-16196127D01*
X17404022Y-16196127D02*
X17394498Y-16167555D01*
X17394498Y-16167555D02*
X17384974Y-16148508D01*
X17384974Y-16148508D02*
X17365927Y-16119936D01*
X17365927Y-16119936D02*
X17356403Y-16110412D01*
X17718308Y-16415174D02*
X17708784Y-16405650D01*
X17708784Y-16405650D02*
X17689736Y-16377079D01*
X17689736Y-16377079D02*
X17680213Y-16358031D01*
X17680213Y-16358031D02*
X17670689Y-16329460D01*
X17670689Y-16329460D02*
X17661165Y-16281841D01*
X17661165Y-16281841D02*
X17661165Y-16243746D01*
X17661165Y-16243746D02*
X17670689Y-16196127D01*
X17670689Y-16196127D02*
X17680213Y-16167555D01*
X17680213Y-16167555D02*
X17689736Y-16148508D01*
X17689736Y-16148508D02*
X17708784Y-16119936D01*
X17708784Y-16119936D02*
X17718308Y-16110412D01*
X17794498Y-16205650D02*
X17794498Y-16338984D01*
X17794498Y-16224698D02*
X17804022Y-16215174D01*
X17804022Y-16215174D02*
X17823070Y-16205650D01*
X17823070Y-16205650D02*
X17851641Y-16205650D01*
X17851641Y-16205650D02*
X17870689Y-16215174D01*
X17870689Y-16215174D02*
X17880213Y-16234222D01*
X17880213Y-16234222D02*
X17880213Y-16338984D01*
X18004022Y-16338984D02*
X17984974Y-16329460D01*
X17984974Y-16329460D02*
X17975451Y-16319936D01*
X17975451Y-16319936D02*
X17965927Y-16300888D01*
X17965927Y-16300888D02*
X17965927Y-16243746D01*
X17965927Y-16243746D02*
X17975451Y-16224698D01*
X17975451Y-16224698D02*
X17984974Y-16215174D01*
X17984974Y-16215174D02*
X18004022Y-16205650D01*
X18004022Y-16205650D02*
X18032594Y-16205650D01*
X18032594Y-16205650D02*
X18051641Y-16215174D01*
X18051641Y-16215174D02*
X18061165Y-16224698D01*
X18061165Y-16224698D02*
X18070689Y-16243746D01*
X18070689Y-16243746D02*
X18070689Y-16300888D01*
X18070689Y-16300888D02*
X18061165Y-16319936D01*
X18061165Y-16319936D02*
X18051641Y-16329460D01*
X18051641Y-16329460D02*
X18032594Y-16338984D01*
X18032594Y-16338984D02*
X18004022Y-16338984D01*
X18127832Y-16205650D02*
X18204022Y-16205650D01*
X18156403Y-16138984D02*
X18156403Y-16310412D01*
X18156403Y-16310412D02*
X18165927Y-16329460D01*
X18165927Y-16329460D02*
X18184974Y-16338984D01*
X18184974Y-16338984D02*
X18204022Y-16338984D01*
X18423070Y-16205650D02*
X18423070Y-16405650D01*
X18423070Y-16215174D02*
X18442117Y-16205650D01*
X18442117Y-16205650D02*
X18480213Y-16205650D01*
X18480213Y-16205650D02*
X18499260Y-16215174D01*
X18499260Y-16215174D02*
X18508784Y-16224698D01*
X18508784Y-16224698D02*
X18518308Y-16243746D01*
X18518308Y-16243746D02*
X18518308Y-16300888D01*
X18518308Y-16300888D02*
X18508784Y-16319936D01*
X18508784Y-16319936D02*
X18499260Y-16329460D01*
X18499260Y-16329460D02*
X18480213Y-16338984D01*
X18480213Y-16338984D02*
X18442117Y-16338984D01*
X18442117Y-16338984D02*
X18423070Y-16329460D01*
X18632594Y-16338984D02*
X18613546Y-16329460D01*
X18613546Y-16329460D02*
X18604022Y-16310412D01*
X18604022Y-16310412D02*
X18604022Y-16138984D01*
X18794498Y-16338984D02*
X18794498Y-16234222D01*
X18794498Y-16234222D02*
X18784975Y-16215174D01*
X18784975Y-16215174D02*
X18765927Y-16205650D01*
X18765927Y-16205650D02*
X18727832Y-16205650D01*
X18727832Y-16205650D02*
X18708784Y-16215174D01*
X18794498Y-16329460D02*
X18775451Y-16338984D01*
X18775451Y-16338984D02*
X18727832Y-16338984D01*
X18727832Y-16338984D02*
X18708784Y-16329460D01*
X18708784Y-16329460D02*
X18699260Y-16310412D01*
X18699260Y-16310412D02*
X18699260Y-16291365D01*
X18699260Y-16291365D02*
X18708784Y-16272317D01*
X18708784Y-16272317D02*
X18727832Y-16262793D01*
X18727832Y-16262793D02*
X18775451Y-16262793D01*
X18775451Y-16262793D02*
X18794498Y-16253269D01*
X18861165Y-16205650D02*
X18937355Y-16205650D01*
X18889736Y-16138984D02*
X18889736Y-16310412D01*
X18889736Y-16310412D02*
X18899260Y-16329460D01*
X18899260Y-16329460D02*
X18918308Y-16338984D01*
X18918308Y-16338984D02*
X18937355Y-16338984D01*
X19080213Y-16329460D02*
X19061165Y-16338984D01*
X19061165Y-16338984D02*
X19023070Y-16338984D01*
X19023070Y-16338984D02*
X19004022Y-16329460D01*
X19004022Y-16329460D02*
X18994498Y-16310412D01*
X18994498Y-16310412D02*
X18994498Y-16234222D01*
X18994498Y-16234222D02*
X19004022Y-16215174D01*
X19004022Y-16215174D02*
X19023070Y-16205650D01*
X19023070Y-16205650D02*
X19061165Y-16205650D01*
X19061165Y-16205650D02*
X19080213Y-16215174D01*
X19080213Y-16215174D02*
X19089736Y-16234222D01*
X19089736Y-16234222D02*
X19089736Y-16253269D01*
X19089736Y-16253269D02*
X18994498Y-16272317D01*
X19261165Y-16338984D02*
X19261165Y-16138984D01*
X19261165Y-16329460D02*
X19242117Y-16338984D01*
X19242117Y-16338984D02*
X19204022Y-16338984D01*
X19204022Y-16338984D02*
X19184975Y-16329460D01*
X19184975Y-16329460D02*
X19175451Y-16319936D01*
X19175451Y-16319936D02*
X19165927Y-16300888D01*
X19165927Y-16300888D02*
X19165927Y-16243746D01*
X19165927Y-16243746D02*
X19175451Y-16224698D01*
X19175451Y-16224698D02*
X19184975Y-16215174D01*
X19184975Y-16215174D02*
X19204022Y-16205650D01*
X19204022Y-16205650D02*
X19242117Y-16205650D01*
X19242117Y-16205650D02*
X19261165Y-16215174D01*
X19337356Y-16415174D02*
X19346879Y-16405650D01*
X19346879Y-16405650D02*
X19365927Y-16377079D01*
X19365927Y-16377079D02*
X19375451Y-16358031D01*
X19375451Y-16358031D02*
X19384975Y-16329460D01*
X19384975Y-16329460D02*
X19394498Y-16281841D01*
X19394498Y-16281841D02*
X19394498Y-16243746D01*
X19394498Y-16243746D02*
X19384975Y-16196127D01*
X19384975Y-16196127D02*
X19375451Y-16167555D01*
X19375451Y-16167555D02*
X19365927Y-16148508D01*
X19365927Y-16148508D02*
X19346879Y-16119936D01*
X19346879Y-16119936D02*
X19337356Y-16110412D01*
X12552051Y-16638211D02*
X12552051Y-16496789D01*
X12410629Y-16496789D01*
X12410629Y-16638211D01*
X12552051Y-16638211D01*
X12823069Y-16458984D02*
X12946879Y-16458984D01*
X12946879Y-16458984D02*
X12880212Y-16535174D01*
X12880212Y-16535174D02*
X12908783Y-16535174D01*
X12908783Y-16535174D02*
X12927831Y-16544698D01*
X12927831Y-16544698D02*
X12937355Y-16554222D01*
X12937355Y-16554222D02*
X12946879Y-16573269D01*
X12946879Y-16573269D02*
X12946879Y-16620888D01*
X12946879Y-16620888D02*
X12937355Y-16639936D01*
X12937355Y-16639936D02*
X12927831Y-16649460D01*
X12927831Y-16649460D02*
X12908783Y-16658984D01*
X12908783Y-16658984D02*
X12851641Y-16658984D01*
X12851641Y-16658984D02*
X12832593Y-16649460D01*
X12832593Y-16649460D02*
X12823069Y-16639936D01*
X13032593Y-16639936D02*
X13042117Y-16649460D01*
X13042117Y-16649460D02*
X13032593Y-16658984D01*
X13032593Y-16658984D02*
X13023069Y-16649460D01*
X13023069Y-16649460D02*
X13032593Y-16639936D01*
X13032593Y-16639936D02*
X13032593Y-16658984D01*
X13118307Y-16478031D02*
X13127831Y-16468508D01*
X13127831Y-16468508D02*
X13146879Y-16458984D01*
X13146879Y-16458984D02*
X13194498Y-16458984D01*
X13194498Y-16458984D02*
X13213545Y-16468508D01*
X13213545Y-16468508D02*
X13223069Y-16478031D01*
X13223069Y-16478031D02*
X13232593Y-16497079D01*
X13232593Y-16497079D02*
X13232593Y-16516127D01*
X13232593Y-16516127D02*
X13223069Y-16544698D01*
X13223069Y-16544698D02*
X13108783Y-16658984D01*
X13108783Y-16658984D02*
X13232593Y-16658984D01*
X13413545Y-16458984D02*
X13318307Y-16458984D01*
X13318307Y-16458984D02*
X13308783Y-16554222D01*
X13308783Y-16554222D02*
X13318307Y-16544698D01*
X13318307Y-16544698D02*
X13337355Y-16535174D01*
X13337355Y-16535174D02*
X13384974Y-16535174D01*
X13384974Y-16535174D02*
X13404022Y-16544698D01*
X13404022Y-16544698D02*
X13413545Y-16554222D01*
X13413545Y-16554222D02*
X13423069Y-16573269D01*
X13423069Y-16573269D02*
X13423069Y-16620888D01*
X13423069Y-16620888D02*
X13413545Y-16639936D01*
X13413545Y-16639936D02*
X13404022Y-16649460D01*
X13404022Y-16649460D02*
X13384974Y-16658984D01*
X13384974Y-16658984D02*
X13337355Y-16658984D01*
X13337355Y-16658984D02*
X13318307Y-16649460D01*
X13318307Y-16649460D02*
X13308783Y-16639936D01*
X13546879Y-16458984D02*
X13565926Y-16458984D01*
X13565926Y-16458984D02*
X13584974Y-16468508D01*
X13584974Y-16468508D02*
X13594498Y-16478031D01*
X13594498Y-16478031D02*
X13604022Y-16497079D01*
X13604022Y-16497079D02*
X13613545Y-16535174D01*
X13613545Y-16535174D02*
X13613545Y-16582793D01*
X13613545Y-16582793D02*
X13604022Y-16620888D01*
X13604022Y-16620888D02*
X13594498Y-16639936D01*
X13594498Y-16639936D02*
X13584974Y-16649460D01*
X13584974Y-16649460D02*
X13565926Y-16658984D01*
X13565926Y-16658984D02*
X13546879Y-16658984D01*
X13546879Y-16658984D02*
X13527831Y-16649460D01*
X13527831Y-16649460D02*
X13518307Y-16639936D01*
X13518307Y-16639936D02*
X13508783Y-16620888D01*
X13508783Y-16620888D02*
X13499260Y-16582793D01*
X13499260Y-16582793D02*
X13499260Y-16535174D01*
X13499260Y-16535174D02*
X13508783Y-16497079D01*
X13508783Y-16497079D02*
X13518307Y-16478031D01*
X13518307Y-16478031D02*
X13527831Y-16468508D01*
X13527831Y-16468508D02*
X13546879Y-16458984D01*
X13699260Y-16658984D02*
X13699260Y-16525650D01*
X13699260Y-16544698D02*
X13708783Y-16535174D01*
X13708783Y-16535174D02*
X13727831Y-16525650D01*
X13727831Y-16525650D02*
X13756403Y-16525650D01*
X13756403Y-16525650D02*
X13775450Y-16535174D01*
X13775450Y-16535174D02*
X13784974Y-16554222D01*
X13784974Y-16554222D02*
X13784974Y-16658984D01*
X13784974Y-16554222D02*
X13794498Y-16535174D01*
X13794498Y-16535174D02*
X13813545Y-16525650D01*
X13813545Y-16525650D02*
X13842117Y-16525650D01*
X13842117Y-16525650D02*
X13861164Y-16535174D01*
X13861164Y-16535174D02*
X13870688Y-16554222D01*
X13870688Y-16554222D02*
X13870688Y-16658984D01*
X13965926Y-16658984D02*
X13965926Y-16525650D01*
X13965926Y-16544698D02*
X13975450Y-16535174D01*
X13975450Y-16535174D02*
X13994498Y-16525650D01*
X13994498Y-16525650D02*
X14023069Y-16525650D01*
X14023069Y-16525650D02*
X14042117Y-16535174D01*
X14042117Y-16535174D02*
X14051641Y-16554222D01*
X14051641Y-16554222D02*
X14051641Y-16658984D01*
X14051641Y-16554222D02*
X14061164Y-16535174D01*
X14061164Y-16535174D02*
X14080212Y-16525650D01*
X14080212Y-16525650D02*
X14108783Y-16525650D01*
X14108783Y-16525650D02*
X14127831Y-16535174D01*
X14127831Y-16535174D02*
X14137355Y-16554222D01*
X14137355Y-16554222D02*
X14137355Y-16658984D01*
X14527831Y-16449460D02*
X14356403Y-16706603D01*
X14784974Y-16458984D02*
X14804022Y-16458984D01*
X14804022Y-16458984D02*
X14823069Y-16468508D01*
X14823069Y-16468508D02*
X14832593Y-16478031D01*
X14832593Y-16478031D02*
X14842117Y-16497079D01*
X14842117Y-16497079D02*
X14851641Y-16535174D01*
X14851641Y-16535174D02*
X14851641Y-16582793D01*
X14851641Y-16582793D02*
X14842117Y-16620888D01*
X14842117Y-16620888D02*
X14832593Y-16639936D01*
X14832593Y-16639936D02*
X14823069Y-16649460D01*
X14823069Y-16649460D02*
X14804022Y-16658984D01*
X14804022Y-16658984D02*
X14784974Y-16658984D01*
X14784974Y-16658984D02*
X14765926Y-16649460D01*
X14765926Y-16649460D02*
X14756403Y-16639936D01*
X14756403Y-16639936D02*
X14746879Y-16620888D01*
X14746879Y-16620888D02*
X14737355Y-16582793D01*
X14737355Y-16582793D02*
X14737355Y-16535174D01*
X14737355Y-16535174D02*
X14746879Y-16497079D01*
X14746879Y-16497079D02*
X14756403Y-16478031D01*
X14756403Y-16478031D02*
X14765926Y-16468508D01*
X14765926Y-16468508D02*
X14784974Y-16458984D01*
X14937355Y-16639936D02*
X14946879Y-16649460D01*
X14946879Y-16649460D02*
X14937355Y-16658984D01*
X14937355Y-16658984D02*
X14927831Y-16649460D01*
X14927831Y-16649460D02*
X14937355Y-16639936D01*
X14937355Y-16639936D02*
X14937355Y-16658984D01*
X15137355Y-16658984D02*
X15023069Y-16658984D01*
X15080212Y-16658984D02*
X15080212Y-16458984D01*
X15080212Y-16458984D02*
X15061165Y-16487555D01*
X15061165Y-16487555D02*
X15042117Y-16506603D01*
X15042117Y-16506603D02*
X15023069Y-16516127D01*
X15213546Y-16478031D02*
X15223069Y-16468508D01*
X15223069Y-16468508D02*
X15242117Y-16458984D01*
X15242117Y-16458984D02*
X15289736Y-16458984D01*
X15289736Y-16458984D02*
X15308784Y-16468508D01*
X15308784Y-16468508D02*
X15318307Y-16478031D01*
X15318307Y-16478031D02*
X15327831Y-16497079D01*
X15327831Y-16497079D02*
X15327831Y-16516127D01*
X15327831Y-16516127D02*
X15318307Y-16544698D01*
X15318307Y-16544698D02*
X15204022Y-16658984D01*
X15204022Y-16658984D02*
X15327831Y-16658984D01*
X15442117Y-16544698D02*
X15423069Y-16535174D01*
X15423069Y-16535174D02*
X15413546Y-16525650D01*
X15413546Y-16525650D02*
X15404022Y-16506603D01*
X15404022Y-16506603D02*
X15404022Y-16497079D01*
X15404022Y-16497079D02*
X15413546Y-16478031D01*
X15413546Y-16478031D02*
X15423069Y-16468508D01*
X15423069Y-16468508D02*
X15442117Y-16458984D01*
X15442117Y-16458984D02*
X15480212Y-16458984D01*
X15480212Y-16458984D02*
X15499260Y-16468508D01*
X15499260Y-16468508D02*
X15508784Y-16478031D01*
X15508784Y-16478031D02*
X15518307Y-16497079D01*
X15518307Y-16497079D02*
X15518307Y-16506603D01*
X15518307Y-16506603D02*
X15508784Y-16525650D01*
X15508784Y-16525650D02*
X15499260Y-16535174D01*
X15499260Y-16535174D02*
X15480212Y-16544698D01*
X15480212Y-16544698D02*
X15442117Y-16544698D01*
X15442117Y-16544698D02*
X15423069Y-16554222D01*
X15423069Y-16554222D02*
X15413546Y-16563746D01*
X15413546Y-16563746D02*
X15404022Y-16582793D01*
X15404022Y-16582793D02*
X15404022Y-16620888D01*
X15404022Y-16620888D02*
X15413546Y-16639936D01*
X15413546Y-16639936D02*
X15423069Y-16649460D01*
X15423069Y-16649460D02*
X15442117Y-16658984D01*
X15442117Y-16658984D02*
X15480212Y-16658984D01*
X15480212Y-16658984D02*
X15499260Y-16649460D01*
X15499260Y-16649460D02*
X15508784Y-16639936D01*
X15508784Y-16639936D02*
X15518307Y-16620888D01*
X15518307Y-16620888D02*
X15518307Y-16582793D01*
X15518307Y-16582793D02*
X15508784Y-16563746D01*
X15508784Y-16563746D02*
X15499260Y-16554222D01*
X15499260Y-16554222D02*
X15480212Y-16544698D01*
X15642117Y-16458984D02*
X15661165Y-16458984D01*
X15661165Y-16458984D02*
X15680212Y-16468508D01*
X15680212Y-16468508D02*
X15689736Y-16478031D01*
X15689736Y-16478031D02*
X15699260Y-16497079D01*
X15699260Y-16497079D02*
X15708784Y-16535174D01*
X15708784Y-16535174D02*
X15708784Y-16582793D01*
X15708784Y-16582793D02*
X15699260Y-16620888D01*
X15699260Y-16620888D02*
X15689736Y-16639936D01*
X15689736Y-16639936D02*
X15680212Y-16649460D01*
X15680212Y-16649460D02*
X15661165Y-16658984D01*
X15661165Y-16658984D02*
X15642117Y-16658984D01*
X15642117Y-16658984D02*
X15623069Y-16649460D01*
X15623069Y-16649460D02*
X15613546Y-16639936D01*
X15613546Y-16639936D02*
X15604022Y-16620888D01*
X15604022Y-16620888D02*
X15594498Y-16582793D01*
X15594498Y-16582793D02*
X15594498Y-16535174D01*
X15594498Y-16535174D02*
X15604022Y-16497079D01*
X15604022Y-16497079D02*
X15613546Y-16478031D01*
X15613546Y-16478031D02*
X15623069Y-16468508D01*
X15623069Y-16468508D02*
X15642117Y-16458984D01*
X15784974Y-16458984D02*
X15784974Y-16497079D01*
X15861165Y-16458984D02*
X15861165Y-16497079D01*
X16156403Y-16735174D02*
X16146879Y-16725650D01*
X16146879Y-16725650D02*
X16127831Y-16697079D01*
X16127831Y-16697079D02*
X16118308Y-16678031D01*
X16118308Y-16678031D02*
X16108784Y-16649460D01*
X16108784Y-16649460D02*
X16099260Y-16601841D01*
X16099260Y-16601841D02*
X16099260Y-16563746D01*
X16099260Y-16563746D02*
X16108784Y-16516127D01*
X16108784Y-16516127D02*
X16118308Y-16487555D01*
X16118308Y-16487555D02*
X16127831Y-16468508D01*
X16127831Y-16468508D02*
X16146879Y-16439936D01*
X16146879Y-16439936D02*
X16156403Y-16430412D01*
X16223069Y-16478031D02*
X16232593Y-16468508D01*
X16232593Y-16468508D02*
X16251641Y-16458984D01*
X16251641Y-16458984D02*
X16299260Y-16458984D01*
X16299260Y-16458984D02*
X16318308Y-16468508D01*
X16318308Y-16468508D02*
X16327831Y-16478031D01*
X16327831Y-16478031D02*
X16337355Y-16497079D01*
X16337355Y-16497079D02*
X16337355Y-16516127D01*
X16337355Y-16516127D02*
X16327831Y-16544698D01*
X16327831Y-16544698D02*
X16213546Y-16658984D01*
X16213546Y-16658984D02*
X16337355Y-16658984D01*
X16575450Y-16658984D02*
X16575450Y-16458984D01*
X16661165Y-16658984D02*
X16661165Y-16554222D01*
X16661165Y-16554222D02*
X16651641Y-16535174D01*
X16651641Y-16535174D02*
X16632593Y-16525650D01*
X16632593Y-16525650D02*
X16604022Y-16525650D01*
X16604022Y-16525650D02*
X16584974Y-16535174D01*
X16584974Y-16535174D02*
X16575450Y-16544698D01*
X16784974Y-16658984D02*
X16765927Y-16649460D01*
X16765927Y-16649460D02*
X16756403Y-16639936D01*
X16756403Y-16639936D02*
X16746879Y-16620888D01*
X16746879Y-16620888D02*
X16746879Y-16563746D01*
X16746879Y-16563746D02*
X16756403Y-16544698D01*
X16756403Y-16544698D02*
X16765927Y-16535174D01*
X16765927Y-16535174D02*
X16784974Y-16525650D01*
X16784974Y-16525650D02*
X16813546Y-16525650D01*
X16813546Y-16525650D02*
X16832593Y-16535174D01*
X16832593Y-16535174D02*
X16842117Y-16544698D01*
X16842117Y-16544698D02*
X16851641Y-16563746D01*
X16851641Y-16563746D02*
X16851641Y-16620888D01*
X16851641Y-16620888D02*
X16842117Y-16639936D01*
X16842117Y-16639936D02*
X16832593Y-16649460D01*
X16832593Y-16649460D02*
X16813546Y-16658984D01*
X16813546Y-16658984D02*
X16784974Y-16658984D01*
X16965927Y-16658984D02*
X16946879Y-16649460D01*
X16946879Y-16649460D02*
X16937355Y-16630412D01*
X16937355Y-16630412D02*
X16937355Y-16458984D01*
X17118308Y-16649460D02*
X17099260Y-16658984D01*
X17099260Y-16658984D02*
X17061165Y-16658984D01*
X17061165Y-16658984D02*
X17042117Y-16649460D01*
X17042117Y-16649460D02*
X17032593Y-16630412D01*
X17032593Y-16630412D02*
X17032593Y-16554222D01*
X17032593Y-16554222D02*
X17042117Y-16535174D01*
X17042117Y-16535174D02*
X17061165Y-16525650D01*
X17061165Y-16525650D02*
X17099260Y-16525650D01*
X17099260Y-16525650D02*
X17118308Y-16535174D01*
X17118308Y-16535174D02*
X17127832Y-16554222D01*
X17127832Y-16554222D02*
X17127832Y-16573269D01*
X17127832Y-16573269D02*
X17032593Y-16592317D01*
X17204022Y-16649460D02*
X17223070Y-16658984D01*
X17223070Y-16658984D02*
X17261165Y-16658984D01*
X17261165Y-16658984D02*
X17280213Y-16649460D01*
X17280213Y-16649460D02*
X17289736Y-16630412D01*
X17289736Y-16630412D02*
X17289736Y-16620888D01*
X17289736Y-16620888D02*
X17280213Y-16601841D01*
X17280213Y-16601841D02*
X17261165Y-16592317D01*
X17261165Y-16592317D02*
X17232593Y-16592317D01*
X17232593Y-16592317D02*
X17213546Y-16582793D01*
X17213546Y-16582793D02*
X17204022Y-16563746D01*
X17204022Y-16563746D02*
X17204022Y-16554222D01*
X17204022Y-16554222D02*
X17213546Y-16535174D01*
X17213546Y-16535174D02*
X17232593Y-16525650D01*
X17232593Y-16525650D02*
X17261165Y-16525650D01*
X17261165Y-16525650D02*
X17280213Y-16535174D01*
X17356403Y-16735174D02*
X17365927Y-16725650D01*
X17365927Y-16725650D02*
X17384974Y-16697079D01*
X17384974Y-16697079D02*
X17394498Y-16678031D01*
X17394498Y-16678031D02*
X17404022Y-16649460D01*
X17404022Y-16649460D02*
X17413546Y-16601841D01*
X17413546Y-16601841D02*
X17413546Y-16563746D01*
X17413546Y-16563746D02*
X17404022Y-16516127D01*
X17404022Y-16516127D02*
X17394498Y-16487555D01*
X17394498Y-16487555D02*
X17384974Y-16468508D01*
X17384974Y-16468508D02*
X17365927Y-16439936D01*
X17365927Y-16439936D02*
X17356403Y-16430412D01*
X17718308Y-16735174D02*
X17708784Y-16725650D01*
X17708784Y-16725650D02*
X17689736Y-16697079D01*
X17689736Y-16697079D02*
X17680213Y-16678031D01*
X17680213Y-16678031D02*
X17670689Y-16649460D01*
X17670689Y-16649460D02*
X17661165Y-16601841D01*
X17661165Y-16601841D02*
X17661165Y-16563746D01*
X17661165Y-16563746D02*
X17670689Y-16516127D01*
X17670689Y-16516127D02*
X17680213Y-16487555D01*
X17680213Y-16487555D02*
X17689736Y-16468508D01*
X17689736Y-16468508D02*
X17708784Y-16439936D01*
X17708784Y-16439936D02*
X17718308Y-16430412D01*
X17794498Y-16525650D02*
X17794498Y-16658984D01*
X17794498Y-16544698D02*
X17804022Y-16535174D01*
X17804022Y-16535174D02*
X17823070Y-16525650D01*
X17823070Y-16525650D02*
X17851641Y-16525650D01*
X17851641Y-16525650D02*
X17870689Y-16535174D01*
X17870689Y-16535174D02*
X17880213Y-16554222D01*
X17880213Y-16554222D02*
X17880213Y-16658984D01*
X18004022Y-16658984D02*
X17984974Y-16649460D01*
X17984974Y-16649460D02*
X17975451Y-16639936D01*
X17975451Y-16639936D02*
X17965927Y-16620888D01*
X17965927Y-16620888D02*
X17965927Y-16563746D01*
X17965927Y-16563746D02*
X17975451Y-16544698D01*
X17975451Y-16544698D02*
X17984974Y-16535174D01*
X17984974Y-16535174D02*
X18004022Y-16525650D01*
X18004022Y-16525650D02*
X18032594Y-16525650D01*
X18032594Y-16525650D02*
X18051641Y-16535174D01*
X18051641Y-16535174D02*
X18061165Y-16544698D01*
X18061165Y-16544698D02*
X18070689Y-16563746D01*
X18070689Y-16563746D02*
X18070689Y-16620888D01*
X18070689Y-16620888D02*
X18061165Y-16639936D01*
X18061165Y-16639936D02*
X18051641Y-16649460D01*
X18051641Y-16649460D02*
X18032594Y-16658984D01*
X18032594Y-16658984D02*
X18004022Y-16658984D01*
X18127832Y-16525650D02*
X18204022Y-16525650D01*
X18156403Y-16458984D02*
X18156403Y-16630412D01*
X18156403Y-16630412D02*
X18165927Y-16649460D01*
X18165927Y-16649460D02*
X18184974Y-16658984D01*
X18184974Y-16658984D02*
X18204022Y-16658984D01*
X18423070Y-16525650D02*
X18423070Y-16725650D01*
X18423070Y-16535174D02*
X18442117Y-16525650D01*
X18442117Y-16525650D02*
X18480213Y-16525650D01*
X18480213Y-16525650D02*
X18499260Y-16535174D01*
X18499260Y-16535174D02*
X18508784Y-16544698D01*
X18508784Y-16544698D02*
X18518308Y-16563746D01*
X18518308Y-16563746D02*
X18518308Y-16620888D01*
X18518308Y-16620888D02*
X18508784Y-16639936D01*
X18508784Y-16639936D02*
X18499260Y-16649460D01*
X18499260Y-16649460D02*
X18480213Y-16658984D01*
X18480213Y-16658984D02*
X18442117Y-16658984D01*
X18442117Y-16658984D02*
X18423070Y-16649460D01*
X18632594Y-16658984D02*
X18613546Y-16649460D01*
X18613546Y-16649460D02*
X18604022Y-16630412D01*
X18604022Y-16630412D02*
X18604022Y-16458984D01*
X18794498Y-16658984D02*
X18794498Y-16554222D01*
X18794498Y-16554222D02*
X18784975Y-16535174D01*
X18784975Y-16535174D02*
X18765927Y-16525650D01*
X18765927Y-16525650D02*
X18727832Y-16525650D01*
X18727832Y-16525650D02*
X18708784Y-16535174D01*
X18794498Y-16649460D02*
X18775451Y-16658984D01*
X18775451Y-16658984D02*
X18727832Y-16658984D01*
X18727832Y-16658984D02*
X18708784Y-16649460D01*
X18708784Y-16649460D02*
X18699260Y-16630412D01*
X18699260Y-16630412D02*
X18699260Y-16611365D01*
X18699260Y-16611365D02*
X18708784Y-16592317D01*
X18708784Y-16592317D02*
X18727832Y-16582793D01*
X18727832Y-16582793D02*
X18775451Y-16582793D01*
X18775451Y-16582793D02*
X18794498Y-16573269D01*
X18861165Y-16525650D02*
X18937355Y-16525650D01*
X18889736Y-16458984D02*
X18889736Y-16630412D01*
X18889736Y-16630412D02*
X18899260Y-16649460D01*
X18899260Y-16649460D02*
X18918308Y-16658984D01*
X18918308Y-16658984D02*
X18937355Y-16658984D01*
X19080213Y-16649460D02*
X19061165Y-16658984D01*
X19061165Y-16658984D02*
X19023070Y-16658984D01*
X19023070Y-16658984D02*
X19004022Y-16649460D01*
X19004022Y-16649460D02*
X18994498Y-16630412D01*
X18994498Y-16630412D02*
X18994498Y-16554222D01*
X18994498Y-16554222D02*
X19004022Y-16535174D01*
X19004022Y-16535174D02*
X19023070Y-16525650D01*
X19023070Y-16525650D02*
X19061165Y-16525650D01*
X19061165Y-16525650D02*
X19080213Y-16535174D01*
X19080213Y-16535174D02*
X19089736Y-16554222D01*
X19089736Y-16554222D02*
X19089736Y-16573269D01*
X19089736Y-16573269D02*
X18994498Y-16592317D01*
X19261165Y-16658984D02*
X19261165Y-16458984D01*
X19261165Y-16649460D02*
X19242117Y-16658984D01*
X19242117Y-16658984D02*
X19204022Y-16658984D01*
X19204022Y-16658984D02*
X19184975Y-16649460D01*
X19184975Y-16649460D02*
X19175451Y-16639936D01*
X19175451Y-16639936D02*
X19165927Y-16620888D01*
X19165927Y-16620888D02*
X19165927Y-16563746D01*
X19165927Y-16563746D02*
X19175451Y-16544698D01*
X19175451Y-16544698D02*
X19184975Y-16535174D01*
X19184975Y-16535174D02*
X19204022Y-16525650D01*
X19204022Y-16525650D02*
X19242117Y-16525650D01*
X19242117Y-16525650D02*
X19261165Y-16535174D01*
X19337356Y-16735174D02*
X19346879Y-16725650D01*
X19346879Y-16725650D02*
X19365927Y-16697079D01*
X19365927Y-16697079D02*
X19375451Y-16678031D01*
X19375451Y-16678031D02*
X19384975Y-16649460D01*
X19384975Y-16649460D02*
X19394498Y-16601841D01*
X19394498Y-16601841D02*
X19394498Y-16563746D01*
X19394498Y-16563746D02*
X19384975Y-16516127D01*
X19384975Y-16516127D02*
X19375451Y-16487555D01*
X19375451Y-16487555D02*
X19365927Y-16468508D01*
X19365927Y-16468508D02*
X19346879Y-16439936D01*
X19346879Y-16439936D02*
X19337356Y-16430412D01*
M02*
